<svg version="1.1" id="Слой_1" xmlns="http://www.w3.org/2000/svg" x="0" y="0" viewBox="0 0 515 483" xml:space="preserve"><style>.st25{fill:#fffbd4}.st462{opacity:.87;fill:#fffde0}</style><path d="M515 483H0v-24.33c14.26-2.71 33.97-7.79 56-17.99 18.77-8.69 49.3-23.21 76-55.02 31.26-37.24 40.53-78.22 47-106.86 4.25-18.78 6.11-34.91 7-46.55 46.33.35 92.67.71 139 1.06.43 22.95 4.22 62.44 25 104.74 8.32 16.93 30.61 60.88 80 90.99 34.35 20.95 66.84 26.07 85 27.51V483z" fill="#ffe473"/><path class="st25" d="M376.81 372.68c1.25 2.07 3.73 6.14 7.61 10.91 1.08 1.32 2.26 2.69 3.56 4.08 0 0 3.61 3.88 7.88 7.44 15.99 13.33 52.57 28.9 54.8 29.88a367.507 367.507 0 0047.19 17.05 350.28 350.28 0 0015.15 3.97c.1 3.96.2 7.91.29 11.87-10.29-.09-20.1-3.27-29.89-5.92-38.55-10.41-73.9-28.31-106.54-52.29l-.03.01c-3.87-4.01-7.73-8.02-11.6-12.03l.07.11c-.4-.48-.8-.97-1.2-1.45l.15.15c-.39-.48-.77-.97-1.16-1.45l.12.11c-.38-.47-.75-.94-1.13-1.41l.1.05-2.49-3.48.06.08c-.34-.5-.69-.99-1.03-1.49l.12.1c-.54-.87-1.08-1.73-1.61-2.6-.81-1.39-1.62-2.79-2.43-4.18-1.57-2.7-7.67-16.22-10.15-24.08-3.44-10.91-13.6-54.65-24.67-114.81 4.33-.35 8.67-.71 13-1.06 9.25 41.47 12.56 59.03 13.74 67.09.34 2.33 1.56 10.59 4.38 21.49.78 3.02 1.7 6.15 2.89 9.81 2.9 8.9 9.54 19.95 22.82 42.05zm73.35 56.34c-.08-.16-.16-.32-.24-.49-.26.21-.53.41-.76.65-.03.03.15.29.24.44.25-.19.51-.39.76-.6z"/><path class="st462" d="M330.86 130.95c24.79-2.88 51.39-7.05 79.48-12.95A896.846 896.846 0 00488 98v35c-52.38-.68-104.76-1.36-157.14-2.05zM25 99a995.881 995.881 0 00104.04 25c20.33 3.74 40 6.69 58.96 9-54.2.04-108.39.09-162.59.13-.14-11.38-.27-22.75-.41-34.13z"/><path class="st25" d="M288 72c-24.62-11.86-48.63-3.09-54.56-.68-6.12 2.48-21.54 9.01-31.48 26.02-8.54 14.6-8.33 28.87-7.93 34.65 28.41.02 56.81.1 85.22.05 15.35-.03 30.7-.28 46.04-.42C324.23 105.69 309.99 82.6 288 72zm10.71 154.75c-5.12-4.68-6.56-10.67-8.15-16.94-2.88-11.36-6.58-22.48-9.35-33.88-1.77-7.28-4.52-17.76-8.61-30.43h5.41c4.12 20.4 11.08 44 23.01 68.61 3.13 6.46 6.37 12.52 9.67 18.2-3.18-.51-7.88-1.82-11.98-5.56z"/><path d="M243.14 215.37c-1.08-.01-1.96-.39-2.46-1.48 1.53-.83 1.91.48 2.46 1.48z" fill="#314255"/><path d="M375.35 375.85c-.08.13-.16.26-.23.38.06-.14.13-.29.19-.43l.04.05z" fill="#fdba8b"/><path class="st25" d="M186.16 232.57c-3.7-.05-7.4-.11-11.1-.16-.53 3.12-.85 6.29-1.61 9.35-2.96 11.85-4.22 24.16-8.71 35.59-2.93 13.27-4.48 26.9-9.19 39.72-.64 3.41-1.27 6.82-1.9 10.23-.9 2.64-1.86 5.27-2.68 7.94-7.92 25.61-20.64 47.85-40.67 64.95-11.3 9.62-23.89 16.92-37.1 23.13-23.5 11.05-48.19 18.36-72.7 26.27-.07 5.52-.14 11.04-.2 16.56.74-.12 1.54-.08 2.21-.38 24.83-11.34 49.66-22.7 74.47-34.09 17.16-7.88 33.68-17.09 49.8-27.1 10.33-7.95 18.48-18.05 25.62-29.14h.05c.45-.79.91-1.58 1.36-2.37l-.1.14c.44-.83.88-1.66 1.33-2.5l-.08.12c1.5-3.28 3-6.55 4.5-9.83l-.12.1.96-2.58.46-.01-.46-.04c.48-1.16.97-2.32 1.45-3.49l-.12.12 1.2-3.6c1.42-4.9 2.85-9.81 4.27-14.71 3.66-16.76 6.5-30.33 8.39-39.5 2.34-11.31 3.47-17.21 6.61-32.37 2.24-10.78 4.49-21.56 6.72-32.34-.88 0-1.77-.01-2.66-.01zm68.55 11.11c0-1.2-.01-2.4 0-3.61.03-2.05-.08-4.06 2.87-3.94 2.65.1 2.41 1.99 2.5 3.75.1 2 .15 4.01.16 6.01.01 2.1.74 4.5-2.73 4.55-3.33.05-3.05-2.09-2.97-4.35.03-.8 0-1.6 0-2.41h.17zm2.47-60.14c-1.68-.52-1.23-1.98-1.24-3.18-.01-1.12.17-2.44 1.71-2.17 1.8.32 1.24 1.97 1.28 3.15.04 1.11-.05 2.3-1.75 2.2zm1.71-24.65c0 1.12.02 2.58-1.43 2.5-1.8-.1-1.45-1.8-1.47-3.03-.03-1.11.04-2.58 1.45-2.51 1.83.09 1.28 1.85 1.45 3.04zm-8.71 313.19l-.72 8.24c5.51.03 11.01.06 16.52.08-.32-3.02-.65-6.03-.97-9.05-4.95.25-9.89.49-14.83.73zm1.11-18.02c-.06 2.16-.11 4.33-.17 6.49 4.63.08 9.26.15 13.88.23-.38-2.32-.76-4.64-1.15-6.96l-12.56.24zm11.21-12.99c.09-1.94.17-3.88.26-5.82h-10.38c-.03 1.99-.06 3.99-.08 5.98 3.4-.05 6.8-.1 10.2-.16zm-9.67-21.78l9.36.45c-.06-2.54-.13-5.08-.19-7.63h-9c-.06 2.4-.11 4.79-.17 7.18zm1.8-29.92l-.75 8.84c2.46-.01 4.93-.03 7.39-.04l-.27-9.33c-2.12.18-4.25.35-6.37.53zM252 302.08h12c-.67-9.87-1.33-19.75-2-29.62-3.03-.22-6.05-.43-9.08-.65-.3 10.09-.61 20.18-.92 30.27zm9.3 37.23c-.04-6.59-.09-13.18-.13-19.77-2.72-.18-5.44-.36-8.17-.53-.17 6.68-.33 13.36-.5 20.04 2.93.09 5.87.18 8.8.26zm-7.82-2.8c.1.11.19.22.26.33-.08-.11-.17-.22-.26-.33zm8.52 22.7h-8c-.33 4.94-.67 9.87-1 14.81h10c-.33-4.93-.67-9.87-1-14.81zm-31.7-143.53c2.44-5.96 4.87-11.91 7.31-17.87l36.55-.81 9.75 20.31-.81 15.43h-8.94v-3.25h-35.74v4.06h-8.12v-17.87zm-19.09 10.57c5.12-4.68 6.56-10.67 8.15-16.94 2.88-11.36 6.58-22.48 9.35-33.88 1.77-7.28 4.52-17.76 8.61-30.43h-5.41c-4.12 20.4-11.08 44-23.01 68.61-3.13 6.46-6.37 12.52-9.67 18.2 3.17-.51 7.88-1.82 11.98-5.56z"/><path class="st462" d="M109.8 65.93a576.334 576.334 0 0047.6 25.98c9.45 4.59 18.68 8.75 27.64 12.53l-79.41-24 4.17-14.51zm300.56-.46a576.334 576.334 0 01-47.6 25.98c-9.45 4.59-18.68 8.75-27.64 12.53l79.41-24c-1.39-4.83-2.78-9.67-4.17-14.51zM171.94 23.98c6.42 9.23 13.82 18.64 22.36 27.86 4.65 5.02 9.31 9.63 13.92 13.88-14.81-9.68-29.63-19.35-44.44-29.03 2.72-4.24 5.44-8.47 8.16-12.71zm169.9-.02c-6.42 9.23-13.82 18.64-22.36 27.86-4.65 5.02-9.31 9.63-13.92 13.88 14.81-9.68 29.63-19.35 44.44-29.03-2.72-4.24-5.44-8.47-8.16-12.71z"/></svg>