<?xml version="1.0" encoding="utf-8"?>
<!-- Generator: Adobe Illustrator 24.2.3, SVG Export Plug-In . SVG Version: 6.00 Build 0)  -->
<svg version="1.1" id="Слой_1" xmlns="http://www.w3.org/2000/svg" xmlns:xlink="http://www.w3.org/1999/xlink" x="0px" y="0px"
	 viewBox="0 0 565.43 218.05" style="enable-background:new 0 0 565.43 218.05;" xml:space="preserve">
<style type="text/css">
	.st0{fill:url(#SVGID_1_);}
	.st1{fill:#AED9C4;}
	.st2{fill:none;stroke:#FFFFFF;stroke-miterlimit:10;}
	.st3{fill:#A3CCAC;}
	.st4{fill:#97CEA2;}
	.st5{opacity:0.76;}
	.st6{fill:#C5EACE;}
	.st7{fill:#FFFFFF;}
	.st8{fill:url(#SVGID_2_);}
	.st9{fill:url(#SVGID_3_);}
	.st10{fill:#F7E7BF;}
	.st11{fill:url(#SVGID_4_);}
	.st12{fill:url(#SVGID_5_);}
	.st13{fill:url(#SVGID_6_);}
	.st14{fill:#E5EFC5;}
	.st15{fill:#F0FCD3;}
	.st16{fill:url(#SVGID_7_);}
	.st17{fill:url(#SVGID_8_);}
	.st18{fill:url(#SVGID_9_);}
	.st19{fill:url(#SVGID_10_);}
	.st20{fill:#FFE594;}
	.st21{clip-path:url(#SVGID_12_);fill:url(#SVGID_13_);}
	.st22{fill:#5B2A1E;}
	.st23{fill:#917673;}
	.st24{fill:url(#SVGID_14_);}
	.st25{fill:url(#SVGID_15_);}
	.st26{fill:url(#SVGID_16_);}
	.st27{fill:url(#SVGID_17_);}
	.st28{fill:url(#SVGID_18_);}
	.st29{opacity:0.62;clip-path:url(#SVGID_20_);fill:#FFFFFF;}
	.st30{opacity:0.75;clip-path:url(#SVGID_20_);fill:#FFFFFF;}
	.st31{opacity:0.41;clip-path:url(#SVGID_20_);fill:#FFFFFF;}
	.st32{clip-path:url(#SVGID_20_);fill:none;}
	.st33{clip-path:url(#SVGID_22_);}
	.st34{opacity:0.26;fill:#FFFFFF;}
	.st35{opacity:0.69;fill:#FFFFFF;}
	.st36{fill:none;}
	.st37{opacity:0.16;fill:#FFFFFF;}
	.st38{opacity:0.3;fill:#FFFFFF;}
	.st39{opacity:0.23;fill:#FFFFFF;}
	.st40{opacity:0.24;fill:#FFFFFF;}
	.st41{opacity:0.17;}
	.st42{opacity:0.05;fill:#E3E9E5;}
	.st43{clip-path:url(#SVGID_24_);}
	.st44{opacity:0.76;clip-path:url(#SVGID_24_);fill:#FFFFFF;}
	.st45{clip-path:url(#SVGID_24_);fill:url(#SVGID_25_);}
	.st46{clip-path:url(#SVGID_24_);fill:none;stroke:#FFFFFF;stroke-width:2;stroke-linecap:round;stroke-miterlimit:10;}
	.st47{clip-path:url(#SVGID_24_);fill:url(#SVGID_26_);}
	.st48{clip-path:url(#SVGID_24_);fill:url(#SVGID_27_);}
	.st49{clip-path:url(#SVGID_24_);fill:url(#SVGID_28_);}
	.st50{clip-path:url(#SVGID_24_);fill:url(#SVGID_29_);}
	.st51{clip-path:url(#SVGID_24_);fill:#FFFFFF;}
	.st52{clip-path:url(#SVGID_24_);fill:url(#SVGID_30_);}
	.st53{opacity:0.62;clip-path:url(#SVGID_32_);fill:#FFFFFF;}
	.st54{clip-path:url(#SVGID_32_);fill:#FFFFFF;}
	.st55{opacity:0.41;clip-path:url(#SVGID_32_);fill:#FFFFFF;}
	.st56{clip-path:url(#SVGID_32_);fill:none;}
	.st57{clip-path:url(#SVGID_34_);}
	.st58{fill:url(#SVGID_35_);}
	.st59{opacity:0.74;clip-path:url(#SVGID_37_);fill:url(#SVGID_38_);}
	.st60{fill:#E6E6E6;}
	.st61{fill:none;stroke:#4D4D4D;stroke-width:0.75;stroke-linecap:round;stroke-miterlimit:10;}
	.st62{fill:url(#SVGID_39_);}
	.st63{opacity:0.74;fill:url(#SVGID_40_);}
	.st64{opacity:0.74;fill:url(#SVGID_41_);}
	.st65{opacity:0.74;fill:url(#SVGID_42_);}
	.st66{opacity:0.74;fill:url(#SVGID_43_);}
	.st67{fill:url(#SVGID_44_);}
	.st68{opacity:0.66;}
	.st69{opacity:0.37;fill:#FFFFFF;}
	.st70{fill:url(#SVGID_45_);}
	.st71{fill:url(#SVGID_46_);}
	.st72{fill:url(#SVGID_47_);}
	.st73{opacity:0.44;clip-path:url(#SVGID_49_);fill:#FFFFFF;}
	.st74{opacity:0.43;clip-path:url(#SVGID_51_);fill:#FFFFFF;}
	.st75{clip-path:url(#SVGID_51_);fill:none;stroke:#FFFFFF;stroke-miterlimit:10;}
	.st76{opacity:0.76;clip-path:url(#SVGID_51_);fill:#FFFFFF;}
	.st77{clip-path:url(#SVGID_51_);fill:#FFFFFF;}
	.st78{opacity:0.08;clip-path:url(#SVGID_51_);fill:#FFFFFF;}
	.st79{opacity:0.27;clip-path:url(#SVGID_51_);fill:#FFFFFF;}
	.st80{opacity:0.37;clip-path:url(#SVGID_51_);fill:#FFFFFF;}
	.st81{clip-path:url(#SVGID_51_);fill:none;}
	.st82{fill:url(#SVGID_52_);}
	.st83{opacity:0.62;clip-path:url(#SVGID_54_);fill:#FFFFFF;}
	.st84{clip-path:url(#SVGID_54_);fill:#FFFFFF;}
	.st85{opacity:0.41;clip-path:url(#SVGID_54_);fill:#FFFFFF;}
	.st86{clip-path:url(#SVGID_54_);fill:none;}
	.st87{clip-path:url(#SVGID_56_);}
	.st88{opacity:0.55;fill:url(#SVGID_57_);}
	.st89{fill:url(#SVGID_58_);}
	.st90{fill:url(#SVGID_59_);}
	.st91{opacity:0.28;}
	.st92{opacity:0.56;clip-path:url(#SVGID_61_);fill:#FFFFFF;}
	.st93{opacity:0.43;clip-path:url(#SVGID_63_);fill:#FFFFFF;}
	.st94{clip-path:url(#SVGID_63_);fill:none;stroke:#FFFFFF;stroke-miterlimit:10;}
	.st95{opacity:0.76;clip-path:url(#SVGID_63_);fill:#FFFFFF;}
	.st96{clip-path:url(#SVGID_63_);fill:#FFFFFF;}
	.st97{opacity:0.08;clip-path:url(#SVGID_63_);fill:#FFFFFF;}
	.st98{opacity:0.27;clip-path:url(#SVGID_63_);fill:#FFFFFF;}
	.st99{opacity:0.37;clip-path:url(#SVGID_63_);fill:#FFFFFF;}
	.st100{clip-path:url(#SVGID_63_);fill:none;}
	.st101{fill:url(#SVGID_64_);}
	.st102{opacity:0.62;clip-path:url(#SVGID_66_);fill:#FFFFFF;}
	.st103{clip-path:url(#SVGID_66_);fill:#FFFFFF;}
	.st104{opacity:0.41;clip-path:url(#SVGID_66_);fill:#FFFFFF;}
	.st105{clip-path:url(#SVGID_66_);fill:none;}
	.st106{clip-path:url(#SVGID_68_);}
	.st107{opacity:0.55;fill:url(#SVGID_69_);}
	.st108{fill:url(#SVGID_70_);}
	.st109{opacity:0.27;}
	.st110{opacity:0.56;clip-path:url(#SVGID_72_);fill:#FFFFFF;}
	.st111{opacity:0.52;clip-path:url(#SVGID_74_);fill:#FFFFFF;}
	.st112{clip-path:url(#SVGID_74_);fill:none;stroke:#FFFFFF;stroke-miterlimit:10;}
	.st113{opacity:0.76;clip-path:url(#SVGID_74_);fill:#FFFFFF;}
	.st114{clip-path:url(#SVGID_74_);fill:#FFFFFF;}
	.st115{opacity:0.08;clip-path:url(#SVGID_74_);fill:#FFFFFF;}
	.st116{opacity:0.27;clip-path:url(#SVGID_74_);fill:#FFFFFF;}
	.st117{opacity:0.37;clip-path:url(#SVGID_74_);fill:#FFFFFF;}
	.st118{clip-path:url(#SVGID_74_);fill:none;}
	.st119{clip-path:url(#SVGID_76_);fill:none;}
	.st120{opacity:0.46;}
	.st121{opacity:0.86;fill:#FFFFFF;}
	.st122{opacity:0.73;fill:#FFFFFF;}
	.st123{opacity:0.54;clip-path:url(#SVGID_78_);fill:#FFFFFF;}
	.st124{opacity:0.62;fill:#FFFFFF;}
	.st125{opacity:0.75;fill:#FFFFFF;}
	.st126{opacity:0.41;fill:#FFFFFF;}
	.st127{opacity:0.44;fill:#FFFFFF;}
	.st128{opacity:0.43;fill:#FFFFFF;}
	.st129{opacity:0.76;fill:#FFFFFF;}
	.st130{opacity:0.08;fill:#FFFFFF;}
	.st131{opacity:0.27;fill:#FFFFFF;}
	.st132{opacity:0.54;fill:#FFFFFF;}
</style>
<path class="st35" d="M109.49,114.2c-26.8,0-48.55,21.67-48.55,48.38c0,26.74,21.75,48.41,48.55,48.41s48.55-21.67,48.55-48.41
	C158.05,135.86,136.3,114.2,109.49,114.2z M110.18,199.93c-21.22,0-38.45-17.16-38.45-38.32c0-21.16,17.22-38.32,38.45-38.32
	c21.23,0,38.44,17.16,38.44,38.32C148.63,182.78,131.41,199.93,110.18,199.93z"/>
<path class="st127" d="M557.14,106.69c-8.48-9.64,6.41-38.25-2.35-48.47c-8.76-10.23-49.94-27.75-49.94-27.75l5.99-11.97
	C328.19-15.22,266.42,7.56,250.21,11.94s-80.16,38.99-80.16,38.99C10.17,62.75,7.54,97.35,7.54,97.35
	c-11.09,6.71-7.01,31.24-7.01,31.24s0,13.14,3.8,29.51c3.78,16.35,52.56,18.1,52.56,18.1c-6.53-21.77-0.19-45.13,16.19-59.53
	c19.81-17.41,49.98-17.94,70.72-2.28c17.94,13.54,26.07,37.12,20.63,59.75c85.25,0.1,170.5,0.21,255.74,0.31
	c0,0-9.06-65.13,51.99-65.13c61.03,0,52.85,59.87,52.85,59.87l32.66-10.51C569.88,136.34,565.61,116.33,557.14,106.69z
	 M551.15,84.65c-5.78,7.43-24.23,1.61-37.81-4.45c-13.58-6.06-5.41-5.92-5.41-5.92c30.22,0.3,46.73-8.83,46.73-8.83
	S556.93,77.22,551.15,84.65z M490.26,39.53l13.14-12.48l-2.56,6.27c46.22,17.52,53.16,28.77,53.16,28.77s-56.52-15.77-61.33-18.19
	C487.84,41.5,490.26,39.53,490.26,39.53z M434.56,77.78c0,1.33-1.09,2.42-2.42,2.42h-21.9c-1.33,0-2.4-1.09-2.4-2.42
	c0-1.33,1.07-2.4,2.4-2.4h21.9C433.47,75.38,434.56,76.45,434.56,77.78z M306.14,80.2c0,1.33-1.09,2.4-2.42,2.4h-21.9
	c-1.33,0-2.4-1.07-2.4-2.4c0-1.33,1.07-2.42,2.4-2.42h21.9C305.06,77.78,306.14,78.87,306.14,80.2z M225.25,48.29
	c37.67-21.69,98.56-27.6,98.56-27.6l-9.43,38.32l-85.86,5.48C230.94,59.02,225.25,48.29,225.25,48.29z M341.33,59.02l3.71-38.76
	c23.44-2.84,74.05,3.5,74.05,3.5l-1.33,30.22L341.33,59.02z M422.37,52.46l1.1-27.16l16.42,1.75l10.51,25.41H422.37z M68.65,89.26
	c5.47,0.88-45.35,27.81-49.29,22.32c-3.94-5.47-8.53-8.97-8.53-8.97C19.8,89.91,63.17,88.38,68.65,89.26z"/>
<circle class="st122" cx="110.04" cy="161.9" r="29.16"/>
<path class="st35" d="M473.28,114.34c-26.8,0-48.55,21.67-48.55,48.38c0,26.74,21.75,48.41,48.55,48.41s48.55-21.67,48.55-48.41
	C521.84,136.01,500.09,114.34,473.28,114.34z M473.98,200.08c-21.22,0-38.45-17.16-38.45-38.32c0-21.16,17.22-38.32,38.45-38.32
	c21.23,0,38.44,17.16,38.44,38.32C512.42,182.92,495.2,200.08,473.98,200.08z"/>
<circle class="st122" cx="473.84" cy="162.05" r="29.16"/>
</svg>
