<?xml version="1.0" encoding="utf-8"?>
<!-- Generator: Adobe Illustrator 24.2.3, SVG Export Plug-In . SVG Version: 6.00 Build 0)  -->
<svg version="1.1" id="Слой_1" xmlns="http://www.w3.org/2000/svg" xmlns:xlink="http://www.w3.org/1999/xlink" x="0px" y="0px"
	 viewBox="0 0 515 483" style="enable-background:new 0 0 515 483;" xml:space="preserve">
<style type="text/css">
	.st0{fill:#000600;}
	.st1{clip-path:url(#SVGID_2_);fill:url(#SVGID_3_);}
	.st2{clip-path:url(#SVGID_2_);fill:#FF977E;}
	.st3{clip-path:url(#SVGID_2_);fill:#FE3000;}
	.st4{clip-path:url(#SVGID_2_);fill:#EF0B00;}
	.st5{clip-path:url(#SVGID_2_);fill:#FE7B24;}
	.st6{clip-path:url(#SVGID_2_);fill:#FE3100;}
	.st7{clip-path:url(#SVGID_2_);fill:#F1DFD8;}
	.st8{clip-path:url(#SVGID_2_);fill:#F60000;}
	.st9{clip-path:url(#SVGID_2_);fill:#BF1200;}
	.st10{clip-path:url(#SVGID_2_);fill:#FF0000;}
	.st11{clip-path:url(#SVGID_2_);fill:#AC7401;}
	.st12{clip-path:url(#SVGID_5_);fill:#EFE300;}
	.st13{clip-path:url(#SVGID_5_);fill:#FCEA68;}
	.st14{clip-path:url(#SVGID_5_);fill:#FFFEB4;}
	.st15{clip-path:url(#SVGID_5_);fill:#FFFA9F;}
	.st16{clip-path:url(#SVGID_5_);fill:#FFF68A;}
	.st17{clip-path:url(#SVGID_5_);fill:#FFFBD4;}
	.st18{opacity:0.87;clip-path:url(#SVGID_5_);fill:#FFFDE0;}
	.st19{clip-path:url(#SVGID_5_);fill:#EE9658;}
	.st20{clip-path:url(#SVGID_5_);fill:#314255;}
	.st21{clip-path:url(#SVGID_5_);fill:#FEDBB1;}
	.st22{clip-path:url(#SVGID_5_);fill:#FDBA8B;}
	.st23{clip-path:url(#SVGID_5_);}
	.st24{fill:#FFFBD4;}
	.st25{clip-path:url(#SVGID_5_);fill:#FFFDE0;}
	.st26{clip-path:url(#SVGID_7_);fill:#00A7CA;}
	.st27{clip-path:url(#SVGID_7_);fill:none;}
	.st28{clip-path:url(#SVGID_7_);fill:#4DD4F7;}
	.st29{clip-path:url(#SVGID_7_);fill:#6EDBF4;}
	.st30{clip-path:url(#SVGID_7_);fill:#D50C25;}
	.st31{clip-path:url(#SVGID_7_);fill:#B0F1F6;}
	.st32{clip-path:url(#SVGID_7_);fill:#0088B4;}
	.st33{opacity:0.81;}
	.st34{filter:url(#Adobe_OpacityMaskFilter);}
	.st35{opacity:0.74;mask:url(#SVGID_10_);}
	.st36{clip-path:url(#SVGID_12_);fill:#000202;}
	.st37{filter:url(#Adobe_OpacityMaskFilter_1_);}
	.st38{opacity:0.74;mask:url(#SVGID_15_);}
	.st39{clip-path:url(#SVGID_17_);fill:#000202;}
	.st40{opacity:0.75;fill:url(#SVGID_18_);}
	.st41{clip-path:url(#SVGID_20_);fill:#2B747C;}
	.st42{clip-path:url(#SVGID_20_);fill:#55AFB7;}
	.st43{clip-path:url(#SVGID_20_);fill:#3FA5B0;}
	.st44{clip-path:url(#SVGID_20_);fill:#6DCDCF;}
	.st45{clip-path:url(#SVGID_20_);fill:#214180;}
	.st46{fill:#0071C5;}
	.st47{clip-path:url(#SVGID_22_);fill:#83D5FB;}
	.st48{clip-path:url(#SVGID_22_);fill:#00ABF0;}
	.st49{clip-path:url(#SVGID_22_);fill:#57CAF9;}
	.st50{clip-path:url(#SVGID_22_);fill:#0071C5;}
	.st51{clip-path:url(#SVGID_22_);fill:#31C5F8;}
	.st52{clip-path:url(#SVGID_22_);fill:#3DCFF7;}
	.st53{clip-path:url(#SVGID_24_);fill:#00ABF0;}
	.st54{clip-path:url(#SVGID_24_);fill:#83D5FB;}
	.st55{clip-path:url(#SVGID_24_);fill:#31C5F8;}
	.st56{clip-path:url(#SVGID_24_);fill:#0071C5;}
	.st57{clip-path:url(#SVGID_24_);fill:#57CAF9;}
	.st58{clip-path:url(#SVGID_24_);fill:#A6A6A6;}
	.st59{clip-path:url(#SVGID_26_);fill:#D670E1;}
	.st60{clip-path:url(#SVGID_26_);fill:#E5B1EC;}
	.st61{clip-path:url(#SVGID_26_);fill:#8A9093;}
	.st62{clip-path:url(#SVGID_26_);fill:#901C9D;}
	.st63{clip-path:url(#SVGID_26_);fill:#CBCED1;}
	.st64{clip-path:url(#SVGID_26_);fill:#DDD9CF;}
	.st65{clip-path:url(#SVGID_26_);fill:#543F31;}
	.st66{clip-path:url(#SVGID_26_);fill:#C18875;}
	.st67{clip-path:url(#SVGID_26_);fill:#B1B7BA;}
	.st68{clip-path:url(#SVGID_26_);fill:#899093;}
	.st69{clip-path:url(#SVGID_26_);fill:#D39A85;}
	.st70{fill:#E5B1EC;}
	.st71{clip-path:url(#SVGID_28_);}
	.st72{fill:#E097E9;}
	.st73{fill:#D670E1;}
	.st74{clip-path:url(#SVGID_30_);fill:#FFE406;}
	.st75{opacity:0.5;clip-path:url(#SVGID_30_);}
	.st76{fill:#A0C7FF;}
	.st77{fill:#FF8900;}
	.st78{clip-path:url(#SVGID_30_);fill:#FFEA9E;}
	.st79{clip-path:url(#SVGID_30_);}
	.st80{fill:#FFCB33;}
	.st81{fill:#FFEA9E;}
	.st82{fill:#2A356B;}
	.st83{clip-path:url(#SVGID_30_);fill:#FFCB33;}
	.st84{clip-path:url(#SVGID_30_);fill:#A0C7FF;}
	.st85{clip-path:url(#SVGID_30_);fill:#FF8900;}
	.st86{clip-path:url(#SVGID_30_);fill:#2A356B;}
	.st87{fill:#1B254E;}
	.st88{clip-path:url(#SVGID_30_);fill:#C02C28;}
	.st89{clip-path:url(#SVGID_30_);fill:#FF7400;}
	.st90{fill:#FFE406;}
	.st91{clip-path:url(#SVGID_30_);fill:#FFEF6E;}
	.st92{clip-path:url(#SVGID_32_);fill:#FFE473;}
	.st93{fill:#FFFFFF;}
	.st94{fill:#AAD5C0;}
	.st95{fill:none;stroke:#FFFFFF;stroke-miterlimit:10;}
	.st96{fill:#9FC8A8;}
	.st97{fill:#93CA9E;}
	.st98{opacity:0.76;}
	.st99{fill:#C1E6CA;}
	.st100{fill:url(#SVGID_33_);}
	.st101{fill:url(#SVGID_34_);}
	.st102{fill:url(#SVGID_35_);}
	.st103{fill:#F3E3BB;}
	.st104{fill:url(#SVGID_36_);}
	.st105{fill:url(#SVGID_37_);}
	.st106{fill:url(#SVGID_38_);}
	.st107{fill:url(#SVGID_39_);}
	.st108{fill:url(#SVGID_40_);}
	.st109{fill:url(#SVGID_41_);}
	.st110{fill:#E1EBC1;}
	.st111{fill:#ECF8CF;}
	.st112{fill:url(#SVGID_42_);}
	.st113{fill:url(#SVGID_43_);}
	.st114{fill:url(#SVGID_44_);}
	.st115{fill:url(#SVGID_45_);}
	.st116{fill:url(#SVGID_46_);}
	.st117{fill:#FFE190;}
	.st118{clip-path:url(#SVGID_48_);fill:url(#SVGID_49_);}
	.st119{fill:#5B2A1E;}
	.st120{fill:#8D7673;}
	.st121{fill:url(#SVGID_50_);}
	.st122{fill:url(#SVGID_51_);}
	.st123{fill:url(#SVGID_52_);}
	.st124{fill:url(#SVGID_53_);}
	.st125{fill:#FF8A8A;}
	.st126{fill:#FF963A;}
	.st127{opacity:0.75;fill:#FFFFFF;}
	.st128{fill:#FFC181;}
	.st129{fill:none;}
	.st130{clip-path:url(#SVGID_55_);fill:#FFDFBD;}
	.st131{clip-path:url(#SVGID_55_);fill:#FF9D00;}
	.st132{clip-path:url(#SVGID_55_);fill:#FFF3DF;}
	.st133{fill:url(#SVGID_56_);}
	.st134{fill:#FFFEEA;}
	.st135{fill:#58D196;}
	.st136{fill:#A6E5C3;}
	.st137{fill:#D2F2E1;}
	.st138{opacity:0.44;fill:#FFFFFF;}
	.st139{clip-path:url(#SVGID_58_);fill:#FFF9C1;}
	.st140{opacity:0.26;fill:#FFFFFF;}
	.st141{opacity:0.62;fill:#FFFFFF;}
	.st142{opacity:0.41;fill:#FFFFFF;}
	.st143{opacity:0.69;fill:#FFFFFF;}
	.st144{opacity:0.73;fill:#FFFFFF;}
	.st145{opacity:0.16;fill:#FFFFFF;}
	.st146{opacity:0.3;fill:#FFFFFF;}
	.st147{opacity:0.23;fill:#FFFFFF;}
	.st148{opacity:0.24;fill:#FFFFFF;}
	.st149{opacity:0.43;fill:#FFFFFF;}
	.st150{opacity:0.76;fill:#FFFFFF;}
	.st151{opacity:0.08;fill:#FFFFFF;}
	.st152{opacity:0.27;fill:#FFFFFF;}
	.st153{opacity:0.37;fill:#FFFFFF;}
	.st154{opacity:0.54;fill:#FFFFFF;}
	.st155{opacity:0.66;}
	.st156{opacity:0.28;}
	.st157{fill:#55AFB7;}
	.st158{fill:#2AB1B8;}
	.st159{fill:#00ACBD;}
	.st160{fill:#F787A5;}
	.st161{fill:#8F693D;}
	.st162{fill:#FBBACC;}
	.st163{fill:#E6678D;}
	.st164{fill:#574435;}
	.st165{fill:#C6A17C;}
	.st166{fill:#641F1E;}
	.st167{fill:#F15E89;}
	.st168{fill:#E7005E;}
	.st169{fill:#DBB487;}
	.st170{fill:#FF1B6F;}
	.st171{fill:#DCB487;}
	.st172{fill:#F07699;}
	.st173{fill:#F8F8F6;}
	.st174{fill:#F5C1D9;}
	.st175{fill:#E1B7B2;}
	.st176{fill:#FFB9C3;}
	.st177{fill:#FFC5D6;}
	.st178{fill:#D72264;}
	.st179{fill:#F7F7F7;}
	.st180{fill:#F2F2F2;}
	.st181{fill:#FFFBF0;}
	.st182{fill:#FFBFCF;}
	.st183{fill:#FF6794;}
	.st184{fill:#FFC2C1;}
	.st185{fill:#FFCCD5;}
	.st186{fill:#FF6B81;}
	.st187{fill:#B19B8C;}
	.st188{fill:#FFE2EA;}
	.st189{fill:#EFEFEF;}
	.st190{fill:#FF9DAE;}
	.st191{fill:#A0C2D9;}
	.st192{fill:#583B34;}
	.st193{fill:#AFCDE2;}
	.st194{fill:#F9F9F8;}
	.st195{fill:#DECDC5;}
	.st196{fill:#D7926B;}
	.st197{fill:#FFE9F2;}
	.st198{fill:#FFDBE5;}
	.st199{fill:#F2CCC1;}
	.st200{fill:#DF4E50;}
	.st201{fill:#FFFFFF;stroke:#FFFFFF;stroke-width:0.25;stroke-miterlimit:10;}
	.st202{fill:#00C377;}
	.st203{fill:#85E2AC;}
	.st204{fill:#00B45A;}
	.st205{fill:#7FD7A7;}
	.st206{fill:#EFB93A;}
	.st207{fill:#B69C65;}
	.st208{fill:#95CF81;}
	.st209{fill:#3C3724;}
	.st210{fill:#D3BB9F;}
	.st211{fill:#998074;}
	.st212{fill:#587147;}
	.st213{fill:#E4D3BB;}
	.st214{fill:#5CC386;}
	.st215{clip-path:url(#SVGID_60_);fill:#A6E5C3;}
	.st216{clip-path:url(#SVGID_60_);fill:#FFFFFF;}
	.st217{clip-path:url(#SVGID_60_);fill:#58D196;}
	.st218{fill:#FFEF6E;}
	.st219{fill:#FFE200;}
	.st220{clip-path:url(#SVGID_62_);fill:#FDA157;}
	.st221{clip-path:url(#SVGID_62_);fill-rule:evenodd;clip-rule:evenodd;fill:#FF8429;}
	.st222{clip-path:url(#SVGID_62_);fill:#F35000;}
	.st223{clip-path:url(#SVGID_62_);fill:#F6B646;}
	.st224{fill:#F35000;}
	.st225{fill:#FF8429;}
	.st226{fill:#FFA933;}
	.st227{fill:#E26D00;}
	.st228{fill:#EC6406;}
	.st229{fill:#FF9900;}
	.st230{fill:#130077;}
	.st231{fill:#FFB58D;}
	.st232{opacity:0.3;}
	.st233{fill:#FF7300;}
	.st234{fill:#6E0000;}
	.st235{fill-rule:evenodd;clip-rule:evenodd;fill:#FF9900;}
	.st236{fill-rule:evenodd;clip-rule:evenodd;fill:url(#SVGID_63_);}
	.st237{opacity:0.3;fill-rule:evenodd;clip-rule:evenodd;fill:#A1002C;}
	.st238{fill-rule:evenodd;clip-rule:evenodd;fill:url(#SVGID_64_);}
	.st239{fill-rule:evenodd;clip-rule:evenodd;fill:url(#SVGID_65_);}
	.st240{opacity:0.5;fill-rule:evenodd;clip-rule:evenodd;fill:url(#SVGID_66_);}
	.st241{fill-rule:evenodd;clip-rule:evenodd;fill:#FFC182;}
	.st242{fill-rule:evenodd;clip-rule:evenodd;fill:url(#SVGID_67_);}
	.st243{fill-rule:evenodd;clip-rule:evenodd;fill:url(#SVGID_68_);}
	.st244{fill-rule:evenodd;clip-rule:evenodd;fill:url(#SVGID_69_);}
	.st245{opacity:0.5;fill-rule:evenodd;clip-rule:evenodd;fill:url(#SVGID_70_);}
	.st246{fill-rule:evenodd;clip-rule:evenodd;fill:#FDA157;}
	.st247{opacity:0.5;fill-rule:evenodd;clip-rule:evenodd;fill:#FDA157;}
	.st248{fill-rule:evenodd;clip-rule:evenodd;fill:#FF8429;}
	.st249{fill-rule:evenodd;clip-rule:evenodd;fill:#FFA933;}
	.st250{opacity:0.62;fill-rule:evenodd;clip-rule:evenodd;fill:#C5002A;}
	.st251{opacity:0.5;fill-rule:evenodd;clip-rule:evenodd;fill:#FF8429;}
	.st252{opacity:0.5;fill-rule:evenodd;clip-rule:evenodd;fill:#8C5472;}
	.st253{opacity:0.3;fill-rule:evenodd;clip-rule:evenodd;fill:url(#SVGID_71_);}
	.st254{opacity:0.5;fill-rule:evenodd;clip-rule:evenodd;fill:url(#SVGID_72_);}
	.st255{opacity:0.3;fill-rule:evenodd;clip-rule:evenodd;fill:url(#SVGID_73_);}
	.st256{opacity:0.3;fill-rule:evenodd;clip-rule:evenodd;fill:url(#SVGID_74_);}
	.st257{clip-path:url(#SVGID_76_);}
	.st258{clip-path:url(#SVGID_76_);fill:#FF8429;}
	.st259{fill:#FDA157;}
	.st260{clip-path:url(#SVGID_78_);}
	.st261{fill:#F58800;}
	.st262{clip-path:url(#SVGID_80_);}
	.st263{fill:#F6B646;}
	.st264{clip-path:url(#SVGID_82_);}
	.st265{clip-path:url(#SVGID_82_);fill:#FF8429;}
	.st266{fill-rule:evenodd;clip-rule:evenodd;fill:url(#SVGID_83_);}
	.st267{fill-rule:evenodd;clip-rule:evenodd;fill:url(#SVGID_84_);}
	.st268{fill-rule:evenodd;clip-rule:evenodd;fill:url(#SVGID_85_);}
	.st269{opacity:0.5;fill-rule:evenodd;clip-rule:evenodd;fill:url(#SVGID_86_);}
	.st270{fill-rule:evenodd;clip-rule:evenodd;fill:url(#SVGID_87_);}
	.st271{fill-rule:evenodd;clip-rule:evenodd;fill:url(#SVGID_88_);}
	.st272{fill-rule:evenodd;clip-rule:evenodd;fill:url(#SVGID_89_);}
	.st273{opacity:0.5;fill-rule:evenodd;clip-rule:evenodd;fill:url(#SVGID_90_);}
	.st274{opacity:0.3;fill-rule:evenodd;clip-rule:evenodd;fill:url(#SVGID_91_);}
	.st275{opacity:0.5;fill-rule:evenodd;clip-rule:evenodd;fill:url(#SVGID_92_);}
	.st276{opacity:0.3;fill-rule:evenodd;clip-rule:evenodd;fill:url(#SVGID_93_);}
	.st277{opacity:0.3;fill-rule:evenodd;clip-rule:evenodd;fill:url(#SVGID_94_);}
	.st278{opacity:0.88;fill:#FFFEF3;}
	.st279{fill:#FFCD66;}
	.st280{fill:#ADA9AA;}
	.st281{fill:#FFE473;}
	.st282{fill:#FFE585;}
	.st283{fill:#F4C500;}
	.st284{fill:#FFE894;}
	.st285{clip-path:url(#SVGID_96_);fill:#FFCB33;}
	.st286{clip-path:url(#SVGID_96_);fill:#FFE406;}
	.st287{clip-path:url(#SVGID_98_);fill:#901C9D;}
	.st288{opacity:0.5;clip-path:url(#SVGID_98_);}
	.st289{fill:#901C9D;}
	.st290{clip-path:url(#SVGID_98_);}
	.st291{clip-path:url(#SVGID_100_);fill:#E097E9;}
	.st292{fill:#CC37D8;}
	.st293{opacity:0.5;fill:#FFFFFF;}
	.st294{opacity:0.5;fill:#FFFFFF;stroke:#FFFFFF;stroke-miterlimit:10;}
	.st295{opacity:0.68;fill:#FFFFFF;}
	.st296{fill:#F0C6F4;}
	.st297{fill:#D7A0DF;}
	.st298{fill:#A87B41;}
	.st299{fill:#8A9093;}
	.st300{fill:#CBCED1;}
	.st301{fill:#DDD9CF;}
	.st302{fill:#543F31;}
	.st303{fill:#C18875;}
	.st304{fill:#B1B7BA;}
	.st305{fill:#899093;}
	.st306{fill:#D39A85;}
	.st307{fill:#3DCFF7;}
	.st308{fill:#57CAF9;}
	.st309{fill:#F92405;}
	.st310{fill:#B30000;}
	.st311{fill:#FA3C20;}
	.st312{fill:#E09E80;}
	.st313{fill:#950000;}
	.st314{fill:#F50000;}
	.st315{clip-path:url(#SVGID_102_);fill:#F787A5;}
	.st316{clip-path:url(#SVGID_102_);fill:#FFE9F2;}
	.st317{clip-path:url(#SVGID_102_);fill:#D3CFB3;}
	.st318{clip-path:url(#SVGID_102_);fill:#FFDBE5;}
	.st319{clip-path:url(#SVGID_102_);}
	.st320{clip-path:url(#SVGID_102_);fill:#FFC5D6;}
	.st321{fill:#F88EB2;}
	.st322{fill:#BAA292;}
	.st323{fill:#63443C;}
	.st324{fill:#CDA99E;}
	.st325{fill:#9FC1D8;}
	.st326{fill:#997972;}
	.st327{fill:#77573F;}
	.st328{opacity:0.45;fill:#FFFFFF;}
	.st329{opacity:0.8;fill:#FFFFFF;}
	.st330{opacity:0.79;fill:#FFFFFF;}
	.st331{opacity:0.46;}
	.st332{opacity:0.86;fill:#FFFFFF;}
	.st333{fill-rule:evenodd;clip-rule:evenodd;fill:#FA3C20;}
	.st334{fill-rule:evenodd;clip-rule:evenodd;fill:#CE0707;}
	.st335{fill-rule:evenodd;clip-rule:evenodd;fill:#F92405;}
	.st336{fill-rule:evenodd;clip-rule:evenodd;fill:#F50000;}
	.st337{fill-rule:evenodd;clip-rule:evenodd;fill:#F75F53;}
	.st338{fill:#F75F53;}
	.st339{clip-path:url(#SVGID_104_);fill:#574435;}
	.st340{clip-path:url(#SVGID_104_);fill:#C6A17C;}
	.st341{clip-path:url(#SVGID_104_);fill:#8F693D;}
	.st342{clip-path:url(#SVGID_104_);fill:#CE0707;}
	.st343{clip-path:url(#SVGID_104_);fill:#FA3C20;}
	.st344{clip-path:url(#SVGID_104_);fill:#950000;}
	.st345{clip-path:url(#SVGID_104_);fill:#F75F53;}
	.st346{clip-path:url(#SVGID_104_);fill:#131212;}
	.st347{clip-path:url(#SVGID_104_);fill:#B30000;}
	.st348{clip-path:url(#SVGID_104_);fill:#412A1A;}
	.st349{clip-path:url(#SVGID_104_);fill:#DCC4AD;}
	.st350{clip-path:url(#SVGID_104_);fill:#BD835C;}
	.st351{fill:#CE0707;}
	.st352{fill:#A99BB6;}
	.st353{fill:#381A12;}
	.st354{fill:#E9C9B6;}
	.st355{fill:#AA9CB9;}
	.st356{fill:#F6F4F3;}
	.st357{fill:#0A345E;}
	.st358{fill:#412A1A;}
	.st359{fill:#131212;}
	.st360{fill:#DCC4AD;}
	.st361{fill:#BD835C;}
	.st362{fill:#83D5FB;}
	.st363{fill:#00ABF0;}
	.st364{fill:#31C5F8;}
	.st365{opacity:0.34;fill:#FFFFFF;}
	.st366{opacity:0.25;fill:#FFFFFF;}
	.st367{opacity:0.6;fill:#FFFFFF;}
	.st368{fill:#B0AEAB;}
	.st369{fill:#0D0707;}
	.st370{fill:#A6A6A6;}
	.st371{fill:#0068A6;}
	.st372{opacity:0.6;}
	.st373{opacity:0.17;fill:#FFFFFF;}
	.st374{opacity:0.39;fill:#FFFFFF;}
	.st375{opacity:0.71;fill:#FFFFFF;}
	.st376{fill:url(#SVGID_105_);}
	.st377{clip-path:url(#SVGID_107_);fill:#FFDFBD;}
	.st378{clip-path:url(#SVGID_107_);fill:#FF9D00;}
	.st379{clip-path:url(#SVGID_107_);fill:#FFF3DF;}
	.st380{clip-path:url(#SVGID_109_);fill:#FFBAE4;}
	.st381{opacity:0.8;clip-path:url(#SVGID_109_);fill:#FE82C8;}
	.st382{clip-path:url(#SVGID_109_);fill:#FE82C8;}
	.st383{opacity:0.79;clip-path:url(#SVGID_109_);fill:#FFBAE4;}
	.st384{fill:url(#SVGID_110_);}
	.st385{clip-path:url(#SVGID_112_);fill:#FFF9C1;}
	.st386{fill:url(#SVGID_113_);}
	.st387{fill:url(#SVGID_114_);}
	.st388{opacity:0.86;fill:#FFCCD5;}
	.st389{fill:url(#SVGID_115_);}
	.st390{opacity:0.4;}
	.st391{clip-path:url(#SVGID_117_);}
	.st392{clip-path:url(#SVGID_117_);fill:none;}
	.st393{fill:#6DCDCF;}
	.st394{fill:#2B747C;}
	.st395{fill:#1E1E1E;}
	.st396{fill:#272727;}
	.st397{fill:#3FA5B0;}
	.st398{fill:#1F1F1F;}
	.st399{fill:#242424;}
	.st400{fill-rule:evenodd;clip-rule:evenodd;fill:#2B747C;}
	.st401{fill-rule:evenodd;clip-rule:evenodd;fill:#6DCDCF;}
	.st402{fill-rule:evenodd;clip-rule:evenodd;fill:#3FA5B0;}
	.st403{clip-path:url(#SVGID_119_);fill:#3FA5B0;}
	.st404{clip-path:url(#SVGID_119_);fill:#2AB1B8;}
	.st405{clip-path:url(#SVGID_119_);fill:#55AFB7;}
	.st406{clip-path:url(#SVGID_119_);fill:#00ACBD;}
	.st407{clip-path:url(#SVGID_119_);fill:#616161;}
	.st408{clip-path:url(#SVGID_119_);fill:#6DCDCF;}
	.st409{clip-path:url(#SVGID_119_);fill:#2B747C;}
	.st410{fill:url(#SVGID_120_);}
	.st411{fill:url(#SVGID_121_);}
	.st412{fill:url(#SVGID_122_);}
	.st413{fill:url(#SVGID_123_);}
	.st414{fill:url(#SVGID_124_);}
	.st415{fill:url(#SVGID_125_);}
	.st416{fill:url(#SVGID_126_);}
	.st417{fill:url(#SVGID_127_);}
	.st418{fill:url(#SVGID_128_);}
	.st419{fill:url(#SVGID_129_);}
	.st420{fill:url(#SVGID_130_);}
	.st421{fill:url(#SVGID_131_);}
	.st422{fill:url(#SVGID_132_);}
	.st423{fill:url(#SVGID_133_);}
	.st424{clip-path:url(#SVGID_135_);fill:url(#SVGID_136_);}
	.st425{fill:url(#SVGID_137_);}
	.st426{fill:url(#SVGID_138_);}
	.st427{fill:url(#SVGID_139_);}
	.st428{fill:url(#SVGID_140_);}
	.st429{clip-path:url(#SVGID_142_);fill:url(#SVGID_143_);}
	.st430{clip-path:url(#SVGID_142_);}
	.st431{opacity:0.75;clip-path:url(#SVGID_142_);fill:url(#SVGID_146_);}
	.st432{fill:none;stroke:#FFFFFF;stroke-width:2;stroke-miterlimit:10;}
	.st433{fill:#EFC2A7;}
	.st434{fill:none;stroke:#FFFFFF;stroke-width:0.75;stroke-miterlimit:10;}
	.st435{fill:none;stroke:#FFFFFF;stroke-width:3;stroke-miterlimit:10;}
	.st436{fill:url(#SVGID_153_);}
	.st437{fill:url(#SVGID_154_);}
	.st438{filter:url(#Adobe_OpacityMaskFilter_2_);}
	.st439{opacity:0.74;mask:url(#SVGID_157_);}
	.st440{clip-path:url(#SVGID_159_);fill:#000202;}
	.st441{opacity:0.75;fill:url(#SVGID_160_);}
	.st442{clip-path:url(#SVGID_162_);}
	.st443{fill:#1A1A1A;}
	.st444{fill:url(#SVGID_163_);}
	.st445{fill:url(#SVGID_164_);}
	.st446{clip-path:url(#SVGID_166_);}
	.st447{fill:url(#SVGID_177_);}
	.st448{filter:url(#Adobe_OpacityMaskFilter_3_);}
	.st449{opacity:0.74;mask:url(#SVGID_180_);}
	.st450{clip-path:url(#SVGID_182_);fill:#000202;}
	.st451{opacity:0.75;fill:url(#SVGID_183_);}
	.st452{fill:none;stroke:#FFFFFF;stroke-width:4;stroke-miterlimit:10;}
	.st453{fill:#FFFFFF;stroke:#FFFFFF;stroke-miterlimit:10;}
	.st454{clip-path:url(#SVGID_193_);}
	.st455{opacity:0.37;clip-path:url(#SVGID_193_);}
	.st456{opacity:0.53;clip-path:url(#SVGID_193_);}
	.st457{fill:#352417;}
	.st458{fill:#FEC3B5;}
	.st459{fill:#FFE4DA;}
	.st460{fill:#9E7458;}
	.st461{fill:#B0805C;}
	.st462{fill:#EFE300;}
	.st463{fill:#FCEA68;}
	.st464{fill:#FFFEB4;}
	.st465{fill:#FFFA9F;}
	.st466{fill:#FFF68A;}
	.st467{opacity:0.87;fill:#FFFDE0;}
	.st468{fill:#EE9658;}
	.st469{fill:#314255;}
	.st470{fill:#FEDBB1;}
	.st471{fill:#FDBA8B;}
	.st472{fill:#FFFDE0;}
	.st473{opacity:0.95;fill:#F9B4E7;}
	.st474{fill:#FE82C8;}
	.st475{opacity:0.63;fill:#F94BAB;}
	.st476{opacity:0.37;fill:#F94BAB;}
	.st477{fill:#FFDFBD;}
	.st478{fill:#FFF3DF;}
	.st479{fill:#58595B;}
	.st480{fill:#FCD1A9;}
	.st481{fill:#FF5700;}
	.st482{fill:#FFF6E2;}
	.st483{opacity:0.37;fill:#FFDFBD;}
	.st484{opacity:0.53;}
	.st485{fill:#8B5E50;}
	.st486{fill:#29CE61;}
	.st487{fill:#02B769;}
	.st488{fill:#E3CCAC;}
	.st489{fill:#C18C65;}
	.st490{fill:#B49B83;}
	.st491{fill:#C6AC94;}
	.st492{fill:#F0EEE6;}
	.st493{fill:#DDD7CF;}
	.st494{fill:#FF977E;}
	.st495{fill:#FE3000;}
	.st496{fill:#EF0B00;}
	.st497{fill:#FE7B24;}
	.st498{fill:#FE3100;}
	.st499{fill:#F1DFD8;}
	.st500{fill:#F60000;}
	.st501{fill:#BF1200;}
	.st502{fill:#FF0000;}
	.st503{fill:#AC7401;}
	.st504{fill:#656768;}
	.st505{fill:#4DD4F7;}
	.st506{fill:#00A7CA;}
	.st507{fill:#6EDBF4;}
	.st508{fill:#D50C25;}
	.st509{fill:#B0F1F6;}
	.st510{fill:#0088B4;}
	.st511{fill:#005EB1;}
	.st512{fill:none;stroke:#259ADD;stroke-miterlimit:10;}
	.st513{fill:#259ADD;}
	.st514{opacity:0.4;fill:#00336C;}
	.st515{fill:#0089D9;}
	.st516{fill:none;stroke:#005EB1;stroke-width:0.8397;stroke-linecap:round;stroke-linejoin:round;stroke-miterlimit:10;}
	.st517{fill:none;stroke:#83D5FB;stroke-miterlimit:10;}
</style>
<path class="st462" d="M515,0c-0.33,161-0.67,322-1,483c-171.33-0.33-342.67-0.67-514-1C0,322,0,162,0,2
	C171.67,1.33,343.33,0.67,515,0z"/>
<path class="st463" d="M513.03,324.71c-0.01,41.11-0.02,82.22-0.03,123.33c-14.83,0.22-56.06-1.12-97-29.04
	c-44.82-30.57-60.6-73.42-65-87C405.01,329.57,459.02,327.14,513.03,324.71z"/>
<path class="st464" d="M513.06,187.89c0.01,19.38,0.02,38.75,0.03,58.13c-22.02,0.01-44.04,0-66.05,0.02
	c-38.15,0.04-76.3,0.11-114.44,0.17c-1.38,0.08-2.76,0.17-4.15,0.26c-2.23-0.06-4.46-0.13-6.68-0.19c-0.82-0.02-1.64-0.04-2.46-0.06
	c-2.87-0.06-5.75-0.11-8.63-0.17c-3.24-5.28-6.46-10.95-9.58-17.04c-7.68-14.96-13.15-29.22-17.09-42.02
	C360.35,187.3,436.71,187.6,513.06,187.89z"/>
<path class="st465" d="M332.58,246.22c38.15-0.06,76.3-0.12,114.45-0.17c22.02-0.03,44.04-0.02,66.05-0.02
	c-0.01,13.3-0.02,26.6-0.02,39.9c-0.85,0.38-2,0.54-2.5,1.19c-3.3,4.27-6.96,5.41-11.6,2.01c-1.42-1.04-3.58-1.5-4.76-0.11
	c-2.39,2.81-5.13,1.74-8.07,2.05c-5.32,0.56-10.2,1.18-14.68-2.39c-0.21-0.17-0.77-0.06-1.1,0.08c-5.73,2.51-11.82,3.52-17.98,3.51
	c-4.69,0-9.42,3.75-13.52,1.77c-10.62-5.11-21.09-1.6-31.49-0.48c-8.15,0.88-16.27,0.64-24.39,1.02c-2.05,0.09-3.94,0.03-5.97,0.69
	c-6.8,2.22-13.36-3.46-20.26-0.82c-0.15,0.06-0.57-0.44-0.81-0.73c-2.43-3.05-5.02-2.24-6.17,0.68c-1.4,3.55-3.63,2.48-5.98,2.13
	c-0.24-0.05-0.48-0.12-0.71-0.22c-0.16-1.29-0.21-2.6-0.51-3.86C338.9,277.11,334.44,261.95,332.58,246.22z"/>
<path class="st466" d="M343.8,296.52c2.35,0.34,4.58,1.42,5.98-2.13c1.16-2.92,3.74-3.74,6.17-0.68c0.23,0.29,0.65,0.79,0.81,0.73
	c6.89-2.64,13.46,3.04,20.26,0.82c2.03-0.66,3.91-0.6,5.97-0.69c8.12-0.37,16.24-0.14,24.39-1.02c10.4-1.12,20.87-4.63,31.49,0.48
	c4.11,1.98,8.83-1.77,13.52-1.77c6.16,0,12.25-1,17.98-3.51c0.33-0.14,0.88-0.25,1.1-0.08c4.48,3.57,9.36,2.95,14.68,2.39
	c2.94-0.31,5.68,0.76,8.07-2.05c1.19-1.39,3.34-0.93,4.76,0.11c4.64,3.41,8.31,2.26,11.6-2.01c0.5-0.65,1.65-0.8,2.5-1.19
	c-0.01,12.93-0.03,25.86-0.04,38.79c-53.68,2.76-107.35,5.52-161.03,8.29C349.27,320.84,346.53,308.68,343.8,296.52z"/>
<path class="st24" d="M513.06,187.89c-76.69,0.04-153.37,0.07-230.06,0.11c-3-8-6-16-9-24c24.54-0.03,66.36-0.08,90.9-0.09
	c49.37-0.03,98.75-0.04,148.14-0.02C513.04,171.89,513.05,179.89,513.06,187.89z"/>
<path class="st24" d="M376.81,378.73c1.25,1.96,3.73,5.8,7.61,10.31c1.08,1.25,2.26,2.54,3.56,3.86c0,0,3.61,3.67,7.88,7.03
	c15.99,12.6,52.57,27.32,54.8,28.24c18.86,7.86,35.35,12.92,47.19,16.12c6.09,1.64,11.28,2.88,15.15,3.76
	c0.1,3.74,0.2,7.48,0.29,11.22c-10.29-0.08-20.1-3.09-29.89-5.59c-38.55-9.84-73.9-26.76-106.54-49.42l-0.03,0.01
	c-3.87-3.79-7.73-7.58-11.6-11.37l0.07,0.11c-0.4-0.46-0.8-0.91-1.2-1.37l0.15,0.14c-0.39-0.46-0.77-0.92-1.16-1.37l0.12,0.1
	c-0.38-0.44-0.75-0.89-1.13-1.33l0.1,0.05c-0.83-1.1-1.66-2.2-2.49-3.29l0.06,0.08c-0.34-0.47-0.69-0.94-1.03-1.41l0.12,0.1
	c-0.54-0.82-1.08-1.64-1.61-2.46c-0.81-1.32-1.62-2.63-2.43-3.95c-1.57-2.55-7.67-15.33-10.15-22.76
	C341.23,345.2,331.07,303.86,320,247c4.33-0.33,8.67-0.67,13-1c9.25,39.2,12.56,55.79,13.74,63.42c0.34,2.21,1.56,10.01,4.38,20.32
	c0.78,2.86,1.7,5.82,2.89,9.27C356.89,347.39,363.53,357.84,376.81,378.73z M450.16,431.98c-0.08-0.15-0.16-0.31-0.24-0.46
	c-0.26,0.2-0.53,0.39-0.76,0.62c-0.03,0.03,0.15,0.28,0.24,0.42C449.65,432.37,449.91,432.17,450.16,431.98z"/>
<path class="st467" d="M330.86,130.95c8.5-3.39,17.65-3.86,26.51-5.37c19.94-3.39,39.84-6.95,59.73-10.63
	c29.54-5.46,59.13-10.66,88.7-15.96c2.41-0.43,4.84-0.78,7.25-1.17c0,11.77-0.01,23.53-0.01,35.3c-15.55,0.01-31.12,0.63-46.63-0.1
	c-43.38-2.03-86.76-0.37-130.14-1.02C334.42,131.99,332.44,132.46,330.86,130.95z"/>
<path class="st463" d="M0.5,451.42c-0.02-41.87-0.04-83.73-0.06-125.6c51.7,0.11,103.41,0.23,155.11,0.34
	c-0.64,3.22-1.27,6.45-1.91,9.67c-0.9,2.5-1.86,4.98-2.68,7.5c-7.92,24.2-20.64,45.23-40.67,61.39c-11.29,9.1-23.88,16-37.09,21.87
	C49.7,437.03,25.01,443.94,0.5,451.42z"/>
<path class="st464" d="M229.7,184.5c-4.31,18.59-10.22,36.57-19.95,53.14c-1.86,3.16-4.49,5.56-6.75,8.32
	c-4.72,0.12-9.45,0.24-14.17,0.36c-0.89-0.01-1.78-0.01-2.67-0.02c-3.7-0.05-7.4-0.1-11.1-0.15c-58.21-0.04-116.43-0.08-174.64-0.12
	c0.01-20.14,0.02-40.27,0.03-60.41c9.59,0.15,19.07,1.78,28.82,0.3c5.76-0.87,12.06-1.67,18.07,0.68c1.98,0.78,4.46-0.14,6.72-0.39
	c5.03-0.57,10.18-1.16,15.15-0.6c2.72,0.3,5.47,1.24,8.32,1.15c9.94-0.33,19.88-1.13,29.8-0.85c4.49,0.13,9.26-0.9,13.34,0.15
	c8.94,2.3,17.76,0.91,26.48,0.32c20.58-1.39,41.11-0.68,61.68-0.36C215.74,186.11,223.14,190.01,229.7,184.5z"/>
<path class="st465" d="M0.42,246.03c58.21,0.04,116.43,0.08,174.63,0.12c-0.5,2.91-1.03,5.86-1.61,8.83
	c-2.85,14.61-6.43,28.3-10.45,41.02c-16.02-2.18-29.11-2.88-37.89-3.12C85.07,291.77,66.75,298.16,29,295
	c-12.56-1.05-22.69-2.78-29-4C0.14,276.01,0.28,261.02,0.42,246.03z"/>
<path class="st466" d="M0.45,290.48c2.6,0.5,6.52,1.19,11.33,1.72c15.99,1.75,20.46-0.6,45.86-1.02c18.41-0.3,26.3,1.57,28.59,1.72
	c0.93,0.06,2.42,0.77,2.7,0.43c5.65-7.14,12.91,0.16,19.24-2.24c5.65-2.14,11.36,2.08,16.94,1.79c16.22-0.84,22.93-6.4,30.49-2.52
	c0.08,0.04,4.77,2.45,5.94,1.14c0.48-0.54,1.42-2.89,1.5-3.58c0.06-0.57,1.23,0.13,1.7,0.7c-2.93,12.55-4.48,25.43-9.19,37.54
	C103.7,326.11,51.85,326.05,0,326C0.15,314.16,0.3,302.32,0.45,290.48z"/>
<path class="st24" d="M229.7,184.5c-6.55,5.51-13.96,1.62-20.86,1.51c-20.57-0.32-41.1-1.04-61.68,0.36
	c-8.73,0.59-17.54,1.98-26.48-0.32c-4.08-1.05-8.85-0.02-13.34-0.15c-9.92-0.28-19.87,0.52-29.8,0.85c-2.85,0.09-5.6-0.84-8.32-1.15
	c-4.97-0.56-10.13,0.04-15.15,0.6c-2.26,0.25-4.73,1.17-6.72,0.39c-6.01-2.35-12.31-1.55-18.07-0.68
	c-9.76,1.48-19.23-0.16-28.82-0.3c0-7.24,0.01-14.48,0.01-21.72c76.34,0,152.69,0.06,229.03-0.1c5.27-0.01,6.83,1.09,4.99,6.23
	C232.77,174.8,232.68,180.12,229.7,184.5z"/>
<path class="st467" d="M0.49,109.17c11.95,0.52,23.61,3.15,35.4,4.89c24.5,3.63,48.87,8.08,73.43,11.35c17.63,2.34,35.3,4.21,53,5.8
	c-1.3,2.82-3.88,1.91-6,1.91c-51.95,0.04-103.9,0.02-155.84,0.02C0.48,125.14,0.48,117.16,0.49,109.17z"/>
<path class="st24" d="M288,72c-24.62-11.86-48.63-3.09-54.56-0.68c-6.12,2.48-21.54,9.01-31.48,26.02
	c-8.54,14.6-8.33,28.87-7.93,34.65c28.41,0.02,56.81,0.1,85.22,0.05c15.35-0.03,30.7-0.28,46.04-0.42
	C324.23,105.69,309.99,82.6,288,72z"/>
<path class="st24" d="M298.71,240.8c-5.12-4.42-6.56-10.09-8.15-16.02c-2.88-10.74-6.58-21.25-9.35-32.02
	c-1.77-6.88-4.52-16.79-8.61-28.76c1.8,0,3.6,0,5.41,0c4.12,19.28,11.08,41.59,23.01,64.85c3.13,6.1,6.37,11.83,9.67,17.21
	C307.51,245.57,302.81,244.34,298.71,240.8z"/>
<path class="st468" d="M259.26,149.08c1.44,3.29,2.43,5.5,3.36,7.73c0.56,1.36,1.48,2.97-0.82,3.58c-1.8,0.47-3.63,0.1-3.71-2.14
	C257.98,155.43,257.17,152.44,259.26,149.08z"/>
<path class="st469" d="M243.14,230.04c-1.08-0.01-1.96-0.37-2.46-1.39C242.21,227.86,242.59,229.1,243.14,230.04z"/>
<path class="st470" d="M249.08,162.13c-0.04,0.12-0.09,0.25-0.13,0.37c-0.14-0.05-0.3-0.07-0.4-0.16c-0.04-0.04,0.07-0.23,0.12-0.36
	C248.8,162.03,248.94,162.08,249.08,162.13z"/>
<path class="st470" d="M251.12,159.48c-0.11,0.13-0.22,0.27-0.33,0.4c-0.08-0.08-0.16-0.17-0.24-0.25c0.13-0.11,0.26-0.23,0.39-0.34
	C250.93,159.3,251.12,159.48,251.12,159.48z"/>
<path class="st24" d="M352.09,331.6c-2.51-1.02-1.75-3.09-1.61-4.97C351.6,328.1,352.19,329.74,352.09,331.6z"/>
<path class="st471" d="M375.35,381.72c-0.08,0.12-0.16,0.24-0.23,0.36c0.06-0.13,0.13-0.27,0.19-0.4
	C375.31,381.68,375.35,381.72,375.35,381.72z"/>
<path class="st24" d="M186.16,246.3L186.16,246.3C186.16,246.3,186.16,246.3,186.16,246.3c-3.7-0.05-7.4-0.1-11.1-0.15
	c-0.53,2.95-0.85,5.95-1.61,8.83c-2.96,11.2-4.22,22.84-8.71,33.64c-2.93,12.55-4.48,25.43-9.19,37.54
	c-0.64,3.22-1.27,6.45-1.9,9.67c-0.9,2.5-1.86,4.98-2.68,7.5c-7.92,24.2-20.64,45.23-40.67,61.39c-11.29,9.1-23.88,16-37.09,21.87
	c-23.5,10.44-48.19,17.35-72.7,24.83c-0.07,5.22-0.14,10.43-0.2,15.65c0.74-0.11,1.54-0.07,2.21-0.36
	c24.83-10.72,49.66-21.45,74.47-32.23c17.16-7.45,33.68-16.15,49.8-25.62c10.33-7.51,18.48-17.06,25.62-27.54l0.05,0
	c0.45-0.75,0.91-1.5,1.36-2.24l-0.1,0.14c0.44-0.79,0.88-1.57,1.33-2.36l-0.08,0.11c1.5-3.1,3-6.19,4.5-9.29l-0.12,0.1
	c0.32-0.81,0.64-1.62,0.96-2.44c0,0,0.46-0.01,0.46-0.01l-0.46-0.03c0.48-1.1,0.97-2.2,1.45-3.3l-0.12,0.11
	c0.4-1.13,0.8-2.27,1.2-3.4c1.42-4.64,2.85-9.27,4.27-13.91c3.66-15.84,6.5-28.67,8.39-37.34c2.34-10.69,3.47-16.27,6.61-30.59
	c2.24-10.19,4.49-20.38,6.72-30.57C187.94,246.31,187.05,246.3,186.16,246.3z"/>
<path class="st24" d="M254.71,256.8c0-1.14-0.01-2.27,0-3.41c0.03-1.94-0.08-3.83,2.87-3.73c2.65,0.09,2.41,1.88,2.5,3.54
	c0.1,1.89,0.15,3.79,0.16,5.68c0.01,1.98,0.74,4.25-2.73,4.3c-3.33,0.05-3.05-1.98-2.97-4.12c0.03-0.76,0-1.52,0-2.27
	C254.6,256.8,254.65,256.8,254.71,256.8z"/>
<path class="st24" d="M257.18,201.54c-1.68-0.52-1.23-1.98-1.24-3.18c-0.01-1.12,0.17-2.44,1.71-2.17c1.8,0.32,1.24,1.97,1.28,3.15
	C258.97,200.45,258.88,201.64,257.18,201.54z"/>
<path class="st24" d="M258.89,188.89c0,1.12,0.02,2.58-1.43,2.5c-1.8-0.1-1.45-1.8-1.47-3.03c-0.03-1.11,0.04-2.58,1.45-2.51
	C259.27,185.94,258.72,187.7,258.89,188.89z"/>
<g>
	<path class="st24" d="M250.18,472.68c-0.24,2.6-0.48,5.19-0.72,7.79c5.51,0.03,11.01,0.05,16.52,0.08
		c-0.32-2.85-0.65-5.7-0.97-8.55C260.06,472.23,255.12,472.45,250.18,472.68z"/>
	<path class="st24" d="M251.29,455.65c-0.06,2.04-0.11,4.09-0.17,6.13c4.63,0.07,9.26,0.14,13.88,0.22
		c-0.38-2.19-0.76-4.39-1.15-6.58C259.67,455.5,255.48,455.57,251.29,455.65z"/>
	<path class="st24" d="M262.5,443.37c0.09-1.83,0.17-3.67,0.26-5.51c-3.46,0-6.92,0-10.38,0c-0.03,1.89-0.06,3.77-0.08,5.66
		C255.7,443.47,259.1,443.42,262.5,443.37z"/>
	<path class="st24" d="M252.83,422.78c3.12,0.14,6.24,0.28,9.36,0.43c-0.06-2.4-0.13-4.8-0.19-7.21c-3,0-6,0-9,0
		C252.94,418.26,252.89,420.52,252.83,422.78z"/>
	<path class="st24" d="M254.63,394.5c-0.25,2.79-0.5,5.57-0.75,8.36c2.46-0.01,4.93-0.03,7.39-0.04c-0.09-2.94-0.18-5.88-0.27-8.82
		C258.88,394.17,256.75,394.34,254.63,394.5z"/>
	<path class="st24" d="M252,312c4,0,8,0,12,0c-0.67-9.33-1.33-18.67-2-28c-3.03-0.2-6.05-0.41-9.08-0.61
		C252.62,292.93,252.31,302.46,252,312z"/>
	<path class="st24" d="M261.3,347.19c-0.04-6.23-0.09-12.46-0.13-18.69c-2.72-0.17-5.44-0.34-8.17-0.5
		c-0.17,6.31-0.33,12.63-0.5,18.94C255.43,347.03,258.37,347.11,261.3,347.19z M253.48,344.54c0.1,0.1,0.19,0.21,0.26,0.31
		C253.66,344.75,253.57,344.64,253.48,344.54C253.48,344.54,253.48,344.54,253.48,344.54z"/>
	<path class="st24" d="M262,366c-2.67,0-5.33,0-8,0c-0.33,4.67-0.67,9.33-1,14c3.33,0,6.67,0,10,0
		C262.67,375.33,262.33,370.67,262,366z"/>
</g>
<path class="st24" d="M228.3,231.89c2-4.89,4-9.78,6-14.67c10-0.22,20-0.44,30-0.67c2.67,5.56,5.33,11.11,8,16.67
	c-0.22,4.22-0.44,8.44-0.67,12.67c-2.44,0-4.89,0-7.33,0c0-0.89,0-1.78,0-2.67c-9.78,0-19.56,0-29.33,0c0,1.11,0,2.22,0,3.33
	c-2.22,0-4.44,0-6.67,0C228.3,241.66,228.3,236.77,228.3,231.89z"/>
<path class="st467" d="M466.41,133.04c-43.38-2.03-86.77-0.37-130.14-1.02c-1.85-0.03-3.83,0.44-5.41-1.06
	c-1.86,0.22-3.71,0.44-5.57,0.66c-15.35,0.15-30.7,0.4-46.05,0.42c-28.41,0.05-56.81-0.03-85.22-0.05
	c-10.58,0.35-21.15,0.11-31.71-0.78c-1.3,2.81-3.88,1.9-6,1.9c-51.95,0.04-103.9,0.02-155.84,0.02c0,10.26,0,20.51-0.01,30.77
	c76.34,0,152.69,0.06,229.03-0.1c2.8-0.01,4.56,0.3,5.31,1.36c1.08,1.54,0.06,3.96-0.32,4.87c-2.19,5.25-14.5,35.03-31.49,75.93
	c3.62-0.27,7.25-0.53,10.87-0.8c17.09-46.12,26.15-71.92,26.67-76.1c0.07-0.59,0.36-3.35,2.24-4.62c0.9-0.61,2.15-0.79,3.94-0.51
	c1.85,0.29,3.79-0.01,5.68,0.01c1.33,0.01,1.44,0.26,4.5,0.69c1.42,0.2,2.14,0.3,2.54,0.33c2.86,0.22,4.35-1.07,6.89-0.95
	c2.08,0.1,4.17,0.01,6.26,0c0.41,0.34,1.04,0.78,1.89,1.02c1.39,0.4,2.57,0.06,3.59-0.2c1.76-0.44,3.55-0.93,5.36-0.93
	c27.16,0.03,54.32,0,81.48,0c49.38-0.01,98.76-0.01,148.14-0.02c0-10.25,0-20.51,0.01-30.76
	C497.5,133.14,481.92,133.76,466.41,133.04z"/>
</svg>
