<?xml version="1.0" encoding="utf-8"?>
<!-- Generator: Adobe Illustrator 24.2.3, SVG Export Plug-In . SVG Version: 6.00 Build 0)  -->
<svg version="1.1" id="Слой_1" xmlns="http://www.w3.org/2000/svg" xmlns:xlink="http://www.w3.org/1999/xlink" x="0px" y="0px"
	 viewBox="0 0 565.43 408.05" style="enable-background:new 0 0 565.43 408.05;" xml:space="preserve">
<style type="text/css">
	.st0{fill:none;}
	.st1{fill:url(#SVGID_1_);}
	.st2{fill:#AED9C4;}
	.st3{fill:none;stroke:#FFFFFF;stroke-miterlimit:10;}
	.st4{fill:#A3CCAC;}
	.st5{fill:#97CEA2;}
	.st6{opacity:0.76;}
	.st7{fill:#C5EACE;}
	.st8{fill:#FFFFFF;}
	.st9{fill:url(#SVGID_2_);}
	.st10{fill:url(#SVGID_3_);}
	.st11{fill:#F7E7BF;}
	.st12{fill:url(#SVGID_4_);}
	.st13{fill:url(#SVGID_5_);}
	.st14{fill:url(#SVGID_6_);}
	.st15{fill:#E5EFC5;}
	.st16{fill:#F0FCD3;}
	.st17{fill:url(#SVGID_7_);}
	.st18{fill:url(#SVGID_8_);}
	.st19{fill:url(#SVGID_9_);}
	.st20{fill:url(#SVGID_10_);}
	.st21{fill:#FFE594;}
	.st22{clip-path:url(#SVGID_12_);fill:url(#SVGID_13_);}
	.st23{fill:#5B2A1E;}
	.st24{fill:#917673;}
	.st25{fill:url(#SVGID_14_);}
	.st26{fill:url(#SVGID_15_);}
	.st27{fill:url(#SVGID_16_);}
	.st28{fill:url(#SVGID_17_);}
	.st29{opacity:0.62;fill:#FFFFFF;}
	.st30{opacity:0.41;fill:#FFFFFF;}
	.st31{opacity:0.26;fill:#FFFFFF;}
	.st32{opacity:0.17;}
	.st33{opacity:0.05;fill:#E3E9E5;}
	.st34{clip-path:url(#SVGID_19_);}
	.st35{opacity:0.76;clip-path:url(#SVGID_19_);fill:#FFFFFF;}
	.st36{clip-path:url(#SVGID_19_);fill:url(#SVGID_20_);}
	.st37{clip-path:url(#SVGID_19_);fill:none;stroke:#FFFFFF;stroke-width:2;stroke-linecap:round;stroke-miterlimit:10;}
	.st38{clip-path:url(#SVGID_19_);fill:url(#SVGID_21_);}
	.st39{clip-path:url(#SVGID_19_);fill:url(#SVGID_22_);}
	.st40{clip-path:url(#SVGID_19_);fill:url(#SVGID_23_);}
	.st41{clip-path:url(#SVGID_19_);fill:url(#SVGID_24_);}
	.st42{clip-path:url(#SVGID_19_);fill:#FFFFFF;}
	.st43{clip-path:url(#SVGID_19_);fill:url(#SVGID_25_);}
	.st44{opacity:0.62;clip-path:url(#SVGID_27_);fill:#FFFFFF;}
	.st45{clip-path:url(#SVGID_27_);fill:#FFFFFF;}
	.st46{opacity:0.41;clip-path:url(#SVGID_27_);fill:#FFFFFF;}
	.st47{clip-path:url(#SVGID_27_);fill:none;}
	.st48{clip-path:url(#SVGID_29_);}
	.st49{fill:url(#SVGID_30_);}
	.st50{opacity:0.74;clip-path:url(#SVGID_32_);fill:url(#SVGID_33_);}
	.st51{fill:#E6E6E6;}
	.st52{fill:none;stroke:#4D4D4D;stroke-width:0.75;stroke-linecap:round;stroke-miterlimit:10;}
	.st53{fill:url(#SVGID_34_);}
	.st54{opacity:0.3;fill:#FFFFFF;}
	.st55{opacity:0.74;fill:url(#SVGID_35_);}
	.st56{opacity:0.74;fill:url(#SVGID_36_);}
	.st57{opacity:0.74;fill:url(#SVGID_37_);}
	.st58{opacity:0.74;fill:url(#SVGID_38_);}
	.st59{fill:url(#SVGID_39_);}
	.st60{opacity:0.66;}
	.st61{opacity:0.37;fill:#FFFFFF;}
	.st62{fill:url(#SVGID_40_);}
	.st63{fill:url(#SVGID_41_);}
	.st64{fill:url(#SVGID_42_);}
	.st65{opacity:0.74;fill:url(#SVGID_43_);}
	.st66{fill:url(#SVGID_44_);}
	.st67{fill:url(#SVGID_45_);}
	.st68{opacity:0.74;fill:url(#SVGID_46_);}
	.st69{opacity:0.74;fill:url(#SVGID_47_);}
	.st70{opacity:0.74;fill:url(#SVGID_48_);}
	.st71{opacity:0.74;fill:url(#SVGID_49_);}
	.st72{fill:url(#SVGID_50_);}
	.st73{opacity:0.76;fill:#FFFFFF;}
	.st74{fill:url(#SVGID_51_);}
	.st75{fill:none;stroke:#FFFFFF;stroke-width:2;stroke-linecap:round;stroke-miterlimit:10;}
	.st76{fill:url(#SVGID_52_);}
	.st77{fill:url(#SVGID_53_);}
	.st78{fill:url(#SVGID_54_);}
	.st79{fill:url(#SVGID_55_);}
	.st80{fill:url(#SVGID_56_);}
	.st81{fill:url(#SVGID_57_);}
	.st82{fill:url(#SVGID_58_);}
</style>
<g>
	<path class="st31" d="M280.76,407.58c0.71-16.65,3.84-139.7-94.46-226.18c-75.44-66.37-162.86-69.18-186.27-69.19
		c-0.33,21.22,0.47,118.33,75.84,200.9C156.3,401.23,261.51,406.89,280.76,407.58z"/>
	<path class="st31" d="M280.54,407.82c7.74-14.76,63.06-124.71,11.05-244.87C251.67,70.74,173.81,30.91,152.63,20.92
		c-9.35,19.05-50.05,107.23-17.11,214.06C170.68,348.98,263.42,398.98,280.54,407.82z"/>
	<path class="st31" d="M281.34,407.29c11.56-10.99,100.61-98.55,88.1-229.74C359.88,77.22,297.04,15.52,280.24,0
		c-15.06,15.83-79.73,87.31-81.37,198.73C197.13,316.69,267.32,392.7,281.34,407.29z"/>
	<path class="st31" d="M284.66,406.32c-0.71-16.65-3.84-139.7,94.46-226.18c75.44-66.37,162.86-69.18,186.27-69.19
		c0.33,21.22-0.47,118.33-75.84,200.9C409.13,399.98,303.92,405.64,284.66,406.32z"/>
	<path class="st31" d="M281.03,408.05c-7.74-14.76-63.06-124.71-11.05-244.87C309.91,70.96,387.77,31.14,408.94,21.15
		C418.29,40.2,459,128.37,426.05,235.2C390.9,349.21,298.16,399.21,281.03,408.05z"/>
</g>
</svg>
