<svg version="1.1" id="Слой_1" xmlns="http://www.w3.org/2000/svg" x="0" y="0" viewBox="0 0 515 357" xml:space="preserve"><style>.st473{opacity:.95;fill:#f9b4e7}.st474{fill:#fe82c8}</style><path class="st473" d="M255.52 355.4c7.05-13.44 57.44-113.59 10.06-223.03C229.23 48.38 158.31 12.1 139.02 3c-8.51 17.35-45.59 97.66-15.58 194.97 32.02 103.84 116.49 149.38 132.08 157.43z"/><path class="st473" d="M255.93 339.94c.64-15.17 3.49-127.24-86.04-206.01C101.18 73.48 21.56 70.92.24 70.92-.06 90.24.67 178.7 69.31 253.9c73.26 80.26 169.08 85.41 186.62 86.04z"/><path class="st474" d="M255.72 356.09c.64-15.17 3.49-127.24-86.04-206.01C100.97 89.63 21.35 87.07.03 87.07c-.3 19.32.43 107.78 69.07 182.99 73.26 80.25 169.08 85.41 186.62 86.03z"/><path d="M245.57 356.08c7.05-13.44 57.44-113.59 10.06-223.03C219.28 49.06 148.36 12.79 129.07 3.69c-8.51 17.35-45.59 97.66-15.58 194.97 32.02 103.83 116.49 149.37 132.08 157.42z" opacity=".63" fill="#f94bab"/><path class="st474" d="M247.27 355.12c13.85-6.21 115.35-53.81 145.74-169.13 23.32-88.5-10.02-160.85-19.56-179.92-17.42 8.38-96.2 48.61-132.74 143.65-38.99 101.43-.72 189.43 6.56 205.4z"/><path d="M264.17 356.52c-7.05-13.44-57.44-113.59-10.06-223.03C290.46 49.5 361.38 13.22 380.67 4.12c8.51 17.35 45.59 97.66 15.58 194.97-32.02 103.84-116.48 149.38-132.08 157.43z" opacity=".37" fill="#f94bab"/><path class="st473" d="M253.44 347.02c-.64-15.17-3.49-127.24 86.04-206.01C408.19 80.56 487.81 78 509.13 78c.3 19.32-.43 107.78-69.07 182.99-73.26 80.25-169.08 85.4-186.62 86.03z"/><path class="st474" d="M259.28 354.95c-.64-15.17-3.49-127.24 86.04-206.01 68.71-60.45 148.33-63.01 169.66-63.01.3 19.32-.43 107.78-69.07 182.99-73.27 80.25-169.09 85.4-186.63 86.03z"/></svg>