<svg id="Слой_1" data-name="Слой 1" xmlns="http://www.w3.org/2000/svg" viewBox="0 0 515 348"><defs><style>.cls-1{fill:#f787a5}</style></defs><path class="cls-1" d="M252.09 347.77c7-13.27 56.67-112.08 9.92-220C226.14 44.85 156.17 9.06 137.14.08c-8.4 17.12-45 96.36-15.37 192.36 31.59 102.45 114.93 147.38 130.32 155.33z"/><path d="M259.4 331.53c.63-15 3.45-125.54-84.89-203.25C106.71 68.63 28.16 66.11 7.12 66.1c-.29 19.07.43 106.34 68.15 180.54 72.28 79.19 166.82 84.27 184.13 84.89z" fill="#ffc5d6"/><path d="M252.29 347.47c.63-15 3.44-125.54-84.89-203.26C99.6 84.57 21.05 82 0 82c-.28 19.1.43 106.38 68.16 180.58 72.28 79.18 166.84 84.27 184.13 84.89z" fill="#ff6794"/><path d="M252.14 347.46c6.95-13.27 56.67-112.07 9.93-220C226.19 44.54 156.22 8.75 137.19-.22c-8.39 17.11-45 96.35-15.37 192.35 31.59 102.45 114.93 147.38 130.32 155.33z" fill="#ffc5d7" opacity=".77"/><path class="cls-1" d="M251.84 347.5c13.67-6.13 113.81-53.1 143.79-166.87 23-87.32-9.89-158.7-19.3-177.51-17.18 8.26-94.91 48-131 141.73-38.44 100.06-.68 186.89 6.51 202.65z"/><path d="M252.25 347.88c-7-13.26-56.67-112.07-9.93-220C278.19 45 348.16 9.18 367.19.2c8.4 17.12 45 96.36 15.37 192.36C351 295 267.63 339.94 252.25 347.88z" fill="#ffdbe5"/><path d="M252.27 347.5c-.64-15-3.45-125.54 84.88-203.25C405 84.6 483.5 82.08 504.54 82.08c.29 19.06-.42 106.33-68.15 180.53-72.28 79.19-166.82 84.27-184.12 84.89z" opacity=".8" fill="#ff6794"/><path d="M262.7 346.34c-.64-15-3.45-125.54 84.88-203.26C415.38 83.44 493.93 80.91 515 80.91c.3 19.07-.42 106.34-68.15 180.54-72.3 79.18-166.85 84.27-184.15 84.89z" fill="none"/></svg>