<svg id="Слой_1" data-name="Слой 1" xmlns="http://www.w3.org/2000/svg" viewBox="0 0 515 671"><defs><style>.cls-1{fill:#901c9d}.cls-2{fill:#e097e9}.cls-3{fill:#f4d7f9}.cls-7{fill:#e5b1ec}</style></defs><path class="cls-1" d="M366.45 564.86c2.93 18.83 7.11 31.75 10.2 51.63 2.81 18.12 6.51 36.12 7.32 54.51H276.88c-2.67-9.16-25.69-88-28.94-93.25a6.14 6.14 0 00-3.43-2.9 6 6 0 00-4.24.92c-6.77 3.63-9.73 9.76-11.06 16.82-2.39 12.67-4.7 25.36-6.71 38.1-2.05 13-5.12 25.95-6.16 39.17l.18 1.14H103c.37-1.54 1-4.29 1.8-7.7 2.23-9.73 6.65-34.32 17.06-88.7C123 568.44 124 562.22 125 556c2.71-9.64 4.79-19.49 10.08-28.21 4.58-7.55 7.21-15.87 9.54-24.31 7-25.56 11.89-51.79 23.42-76 .55-1.15 1.44-3.05 2.51-5.4 8.81-19.5 7.56-22.9 10.45-26.16 8.51-9.58 32.24 5.37 82.32 13.8 7.74 1.3 19.29.09 33.86 2.06 9.48 1.28 18.26-1.3 27-4.37-2.88 5-7.84 8.91-8.48 15.19-1.82 2.89-.95 5.78.83 8.05 1.21 1.55 4 1.3 5.45.39 2.56-1.64 3.42-4.77 4.47-7.57 3.05-2.8 3.52-7.73 7.81-9.51 7.08 31.45 12.14 52.89 16 68.4 0 0 6.28 25.21 10.2 46.7.34 1.9.61 3.4 1.13 6.39 2.72 15.55 4.41 26.79 4.86 29.41zM136.79 194.65c.44-9-2.53-16.79-7.63-24s-5.39-14.88-.72-22.36c5.89-9.42 7.38-19.5 5.76-30.32-1.39-9.35 1-17.75 7.52-24.69C151.89 82.44 154.66 70 151.8 55.51c-3.18-16.11 4.69-29.35 21.35-37.33 4.45-2.13 8.12-3.87 9.41-9.67S189.33-.29 195 .15a154.17 154.17 0 0154.47 14.57c5.16 2.45 7.49 7.91 9.9 12.89 8.21 16.89 16.25 33.87 24.61 50.69 15.58 31.33 36.44 58.5 64.09 80.21 1.11.88 2.52 1.54 2.93 3.11a129.06 129.06 0 00-41 5.85c-3.87-.05-7 1-9.59 4.31-1.81 2.34-4.54 4-7 5.83-2.77 2.12-6.22 3.38-8.14 6.55-2.77 2.6-4.13 5.81-3.59 11-2.92-4.48-2.83-7.86-1.81-11.39 1.07-3.7 2.61-7.3 2.5-11.27-.35-4.07-1.39-8.11-6.32-7.95-4.21.14-3 4.1-3.23 6.8l-.59 4-.12 1c-2 8.92-8.06 15-14.54 20.66-5.5 4.85-7.54 10.63-5.54 17.83a18.78 18.78 0 01-2.89 16.17c-2.26 3.34-4.33 6.8-6.49 10.21-2 1.9-1.52 5.52-4.47 7.05-1.59-4.22.62-7.81.86-11.57 3.37-5.56 1.84-11.3.35-16.91-2.43-9.16-2.2-18.22 2.39-26.46 5.7-10.23 3.81-19.69-1.12-29.34a9 9 0 00-1.22.83c-8 7.46-8.67 16.65-5.92 26.43 2.28 8.11 1 15.31-4.12 22a28 28 0 00-5 9.87c-1.6 4.65-.17 9.38-.44 14.13-2.56-7.84-8.26-14.71-6.79-23.66 4.89-7.91 5.29-15.8.69-24.13-3.92-7.11-8.39-14.17-7.64-22.9 1.17-5.78 5.14-9.69 9.28-13.3 7.75-6.73 9.85-14.47 5.18-23.8a31.5 31.5 0 014.52-22.23 1.12 1.12 0 00-.89-1.53h.18c9.81-7.38 11.33-14.31 5.36-24.7-1.93-3.37-3.83-6.79-6.08-9.95-6-8.47-9.55-17.6-8.39-28.2a11.88 11.88 0 00-2-8.35c-4.68-6.6-9.31-13.24-15.09-19a9.56 9.56 0 00-8.71-2.92c-15.21 2.18-31.49 22.35-30.4 37.82 7.46-3.11 8.58-2.86 9 2.07-9.92 1.82-11 3-10.16 13.05.43 5.12 1.57 10.19.94 15.38a27 27 0 000 12c3 16.39 11.7 26.28 25.68 29.16l1.56 1.7h-.06l3.63 3.09.93.85 1.3 1.3a.35.35 0 00.12.49l.87 1.06h-.07a43.25 43.25 0 014.93 16c.6 6.92 2.65 13.49 4.8 20 .51 2.37.9 4.77 1.56 7.09 4.07 14.33 7.3 28.63 1.2 43.29-1 2.46-1.39 5.34.25 7.94 2.4 8.56 4.46 17.07-3.18 24.33-5.31 4-7.26 9.62-6.38 15.81 1.63 11.53-4.38 21-7.3 32a49.63 49.63 0 00-7.32-10.5 27.37 27.37 0 01-6.38-21.68c.66-5.62 1.5-11.23 2-16.86.62-6.32 1-12.75-2.69-18.35-2.5-3.84-5.71-7.22-7.35-11.94-8.17 7.51-12.46 15.91-10.94 26.66a49.46 49.46 0 01-2.41 15.6c-1.64 1.74-2.07 4.36-4.79 6.28 3.08-10.4 0-18.87-5.77-26.76-4.29-5.9-4.36-12.29-1.64-18.84 1-2.37 2.14-4.67 3.21-7 .11-.33.22-.66.32-1l-.79.51c-6.25 4.6-12.86 8.87-18 15.87-.9-6.1 1.32-10.74 3.59-15.3 2.4-4.81 4.63-9.65 4.56-15.16-.02-1.38.94-3.46-1.61-3.89z"/><path class="cls-2" d="M160.18 244.41c-1.52-10.75 2.77-19.15 10.94-26.66 1.64 4.72 4.85 8.1 7.35 11.94 3.64 5.6 3.31 12 2.69 18.35-.55 5.63-1.39 11.24-2 16.86a27.37 27.37 0 006.38 21.68 49.63 49.63 0 017.32 10.5c2.92-11 8.93-20.51 7.3-32-.88-6.19 1.07-11.83 6.39-15.81 2 .87.79 2.6 1.05 3.94a13.48 13.48 0 00-.79 2.23c-3.29 19.72-7.57 39.25-12.16 58.69a239.74 239.74 0 00-6.16 63.82c0 1-.07 1.92-.1 2.88a3.75 3.75 0 00-.51 1c-1.1 3.1 2.38 6.64 2.76 7A110.71 110.71 0 00181 402c-3.81 6.18-6.65 12.16-10.45 20.16-1.07 2.24-1.93 4.11-2.52 5.4-1.19-1.09-1.74.08-2.24.75A178.61 178.61 0 00141.64 474c-3.27 9.13-4.77 18.74-7.29 28s.64 18.92-4.17 27.86c-1.26 2.33-1.85 3.84-4.37 4.37a254.9 254.9 0 00-26.6 7.38c-2.26.73-5.28.63-6.31 3.67-3.43-2.31-3.26-5.71-2.58-9.11 4.15-20.73 8.38-41.44 12.55-62.16q7.2-35.82 14.38-71.66c.28-1.41.82-2.77 1.24-4.16a280.16 280.16 0 00-18.3-11.16c-23.8-13.2-71.81-34.85-84.76-42.03a31.34 31.34 0 01-7-5.23C2.37 333.62 1 326.81 4.6 318.9c4.64-10.17 12.31-18.2 19.52-26.46 24.15-27.69 52-51.34 81-73.77 10.48-8.12 21.11-16 31.69-24 2.55.43 1.59 2.51 1.61 3.87.07 5.51-2.16 10.35-4.56 15.16-2.28 4.56-4.49 9.2-3.59 15.3 5.14-7 11.71-11.25 18.06-15.79a5.55 5.55 0 00.48.49c-1.08 2.34-2.24 4.64-3.22 7-2.72 6.55-2.65 12.94 1.64 18.84 5.74 7.89 8.85 16.36 5.77 26.76a23 23 0 002.8-3.21c4.99-6.96 4.76-14.98 4.38-18.68zM121 286.19c-10.09 8-35.12 19.16-42.37 24.35-4.16 3-4.2 3.31.54 5.4 13.83 6.11 27.76 12.23 41.76 18.06 3.74 1.55 7 4.93 11.62 3.83a17 17 0 013-5.58 26.62 26.62 0 017-6.48c2-1.13 2.5-2.22 2.15-4.6-1.89-12.75-3.49-25.55-5.15-38.33-.23-1.77-.59-3.22-2.77-3.19l-1.38-12.89c-4.46 10.16-10.09 15.98-14.4 19.43z"/><path class="cls-3" d="M92.9 545.34c1-3 4-2.94 6.31-3.67a254.9 254.9 0 0126.6-7.38c2.52-.53 3.11-2 4.37-4.37 4.81-8.94 1.68-18.7 4.17-27.86s4-18.91 7.29-28a178.61 178.61 0 0124.15-45.71c.5-.67 1.05-1.84 2.24-.75-11.52 24.17-16.37 50.4-23.41 76-2.33 8.44-5 16.76-9.54 24.31-5.29 8.72-7.37 18.57-10.08 28.21-10.71-3.61-22.06-5.24-32.1-10.78zM377.14 336a58.81 58.81 0 0111.74 19.39c-4.93 5-11.87 6.27-17.67 9.68-5.13 3-10.89 5-15.58 8.78-2 1.59-5.49 3.22-2.8 7a14.23 14.23 0 01-1 4.08c-1.63 4.82-7.19 7.09-7.76 12.47-4.4 4.9-8.52 9.95-9.78 16.69-4.29 1.78-4.76 6.71-7.81 9.51-4.48-5.43-7.5-4.87-10.39 2.25l-.36-3.12c.64-6.28 5.6-10.16 8.47-15.18l1.4-2.27c3.89-4.25 5.66-9.64 7.92-14.77 4.59-10.47 7.27-21.61 11.38-32.25.41 4.75 2.31 1.49 3.2.44a85.85 85.85 0 0129.04-22.7z"/><path class="cls-3" d="M334.26 414c1.26-6.74 5.38-11.79 9.78-16.69-.14 16.9 4.86 33.09 6.91 49.69 1.38 12.17 2.24 24.44 4.25 36.51 3.32 20 8.38 39.67 11 59.8.63 5 .84 10 1.13 15 .08 1.33.56 3.1-1.65 3.42-2.37-8.58-4.78-17.21-4-26.21 0 0-.55-3.21-1.13-6.39-3.92-21.49-10.2-46.69-10.2-46.7-3.95-15.5-9.01-36.95-16.09-68.43zm-177.54-52.17a11.76 11.76 0 011.41-3.44h1c8 1.24 12.19 6.95 15.21 13.51 2.68 5.82 6.28 10.43 11.95 13.41.88.47 1.68 1.31 1.93-.47a3.76 3.76 0 01.82.11c1.21 2.85 2.36 5.76 5.43 7.22.62 3.78 4.18 4.4 6.7 6 3.29 2.15 7.16 3.48 9.41 7-2.43.12-5.46-1.06-6.46 2.51-1.22 4.43 3.07 4.94 5.71 7H205c-5.83-4.14-11.75-8.17-17.48-12.45-.34-.25-1.76-.55-3.52-1.33a35.54 35.54 0 01-7.74-4.88c-3.29-2.77-5-5.45-8.53-11-9.48-14.69-12.16-18.28-11.01-23.19z"/><path class="cls-3" d="M210.61 405.2c-2.25-3.54-6.12-4.87-9.41-7-2.52-1.64-6.08-2.26-6.7-6 7.86 2.47 15.6 5.33 23.66 7.15 32.87 7.47 66.26 5.91 99.58 5.69l7.83.25-1.4 2.27c-8.73 3.06-17.51 5.64-27 4.36-11.23-1.51-22.55-1.83-33.86-2.06-5.39-1.62-10.92-.75-16.37-.72-7.56.05-15.18-.91-22.71.64l-9.62.26c-2.55-.62-2.61-3.25-4-4.84z"/><path d="M315.7 422.68l.36 3.12c2.89-7.12 5.91-7.68 10.39-2.25-1.05 2.8-1.91 5.93-4.47 7.57-1.42.91-4.24 1.16-5.45-.39-1.78-2.27-2.65-5.16-.83-8.05z" fill="#c85dc8"/><path d="M419.67 245.58c-1.58 9.81-6.15 18.47-10.95 27-9.78 17.35-22.13 33-33.42 49.31-2.41 3.48-3.58 7.78-7.5 11.91.58-7.16 4.39-11.37 7.46-15.79 13.92-20 29.24-39.13 39.48-61.48 1.65-3.62 2.41-7.64 4.93-10.95z" fill="#ff8a8a"/><path class="cls-2" d="M500.8 289.23v-.01l-.01.01h.01zm-3.89.94z"/><path class="cls-2" d="M508.06 272.62c-2.14-11.49-25.54-28.6-72.25-62.33-26.84-19.39-16.71-16.18-34.62-24a72.86 72.86 0 01-21.86-14.1c-3-2.85-6.42-5.52-11-5.57a4.31 4.31 0 002.43 3.41c13 7.68 15.23 20 14.06 33.47a104.84 104.84 0 01-4.57 22.66 10.46 10.46 0 00-.91 2.06c-.41 1.6 0 2.4-.25 4.07a7.92 7.92 0 01-.88 2.46c-6.2 20.88-12.17 41.83-17.06 63.07-3.57 15.54-6.81 31.16-10.21 46.75 5.38-2.46 10-6.42 15.68-8.22 2.3-.73 4.54-1.63 6.86-2.25 1.62-.43 3.32-.49 3.65 1.86a58.81 58.81 0 0111.74 19.39c2 1.55 5.88 2.48 1.92 5.94-9.7 2.24-18.38 6.86-26.85 11.84-3.87 2.28-7.42 5.08-11.12 7.65a14.23 14.23 0 01-1 4.08c-1.63 4.82-7.19 7.09-7.76 12.47-.14 16.9 4.85 33.09 6.91 49.69 1.38 12.17 2.24 24.44 4.25 36.51 3.32 20 8.38 39.67 11 59.8.63 5 .84 10 1.13 15 .08 1.33.56 3.1-1.65 3.42l.81 3.12c8.11 0 16.23.29 24.32-.06 13.39-.57 26.29-3.44 38.23-9.83 1.47-.78 3.38-1.17 3.2-3.68-.64-9.2-1-18.42-1.72-27.62-1.77-22.41-3.73-44.8-5.53-67.2-1.75-21.92-3.18-43.88-5.26-65.77-.47-4.92.31-10.05-1.66-14.81-.19-2 1.19-2.51 2.62-3.44 13.61-8.85 27.22-17.72 39.42-28.52a166.16 166.16 0 0021.23-17.77c29.01-27.88 28.01-46.53 26.7-53.55zM355.5 437.45a138.15 138.15 0 003.36-15.37 138.15 138.15 0 01-3.36 15.37zm11.58-57.93a26.92 26.92 0 019.52-5.92 26.92 26.92 0 00-9.52 5.92zm69.29-84.27c-3.92 3.22-8.54 5.64-14 4.79-.15 0-.23-.56-.34-.86l-4 2.22c-8.44 10.66-18.11 17.45-24.95 17 9.58-2.92 14.54-11.65 22.18-17-1.22-5.58 2.47-9.81 4.13-14.58a3.84 3.84 0 012.11-1.85c3-1.19 12.44 4.76 13.13 8.21 1.22.2 4.02.2 1.74 2.07zM317.74 405c-33.32.22-66.71 1.78-99.58-5.69-8.06-1.82-15.8-4.68-23.66-7.15a25.31 25.31 0 01-3.41-3.09 24.66 24.66 0 01-3.16-4.28l-1.34-4a2.52 2.52 0 001.8-1.43 2.2 2.2 0 000-1.44c2-.26 2.49-1.6 2.87-3.36.74-3.47 1.9-6.85 2.63-10.32 1.13-5.39 3.69-9.15 9.61-9.91 1.7-.22 3.71-.86 4-3 .23-1.89-1.74-2.06-2.9-2.8a15.93 15.93 0 01-5.6-7.15c-4.34-9.47-1.13-19.13-.43-28.64 1-13.44 5.75-26.07 9.45-38.94 1.94-6.74 3.18-13.84-.49-20.63-.26-1.34.94-3.07-1.06-3.94 7.64-7.26 5.58-15.77 3.18-24.33 1.33-2.94 1.38-6.14 2-9.23 1-5.29 1.26-5.35 5.5-2.2-1.47 8.95 4.23 15.82 6.79 23.66.27-4.75-1.16-9.48.44-14.13 5.53 3.85 8.93 10 14.68 13.61-.24 3.76-2.45 7.35-.86 11.57 2.95-1.53 2.43-5.15 4.47-7.05l3.39 2.29a91.29 91.29 0 0023 16.25c15 8.45 31.78 11.68 48.2 15.9 6.73 1.72 13.55 3.11 20 5.92-1.73 1.36-2.13 2.91-1.37 5.1a53 53 0 012.43 27.47c-3 15.85-14.31 28.32-31.66 28.76-1.79 0-4.74-.82-4.78 1.8 0 2.79 3 2.95 5.23 3a15.9 15.9 0 004.25-.86c3-.83 5.86-1.88 8.84-2.59 7.41-1.75 12.28 1.9 12.2 9.44-.19 15.64-3.88 30.38-12.28 43.71-1.6 2.42-2.59 4.79-2.38 7.68z"/><path class="cls-3" d="M239.05 236.61c-5.75-3.61-9.15-9.76-14.68-13.61a28 28 0 015-9.87c5.11-6.66 6.4-13.86 4.12-22-2.75-9.78-2-19 5.92-26.43a9 9 0 011.22-.83c4.93 9.65 6.82 19.11 1.12 29.34-4.59 8.24-4.82 17.3-2.39 26.46 1.53 5.64 3.06 11.38-.31 16.94zm-32.39-70.03l3.54-.14c-.76 8.73 3.71 15.79 7.63 22.9 4.6 8.33 4.2 16.22-.69 24.13-4.24-3.15-4.51-3.09-5.5 2.2-.59 3.09-.64 6.29-2 9.23-1.64-2.6-1.27-5.48-.25-7.94 6.1-14.66 2.87-29-1.2-43.29-.63-2.32-1.02-4.67-1.53-7.09z"/><path d="M148.31 213.19l.79-.51c-.1.34-.21.67-.32 1a7.3 7.3 0 01-.47-.49z" fill="#c6ac94"/><path class="cls-7" d="M207.55 253.17c3.67 6.79 2.42 13.89.49 20.63-3.7 12.87-8.46 25.5-9.45 38.94-.7 9.51-3.91 19.17.43 28.64a15.93 15.93 0 005.6 7.15c1.16.74 3.13.91 2.9 2.8-.27 2.13-2.28 2.77-4 3-5.92.76-8.48 4.52-9.61 9.91-.73 3.47-1.89 6.85-2.63 10.32-.38 1.76-.9 3.1-2.87 3.36a240.16 240.16 0 016.17-63.82c4.59-19.44 8.87-39 12.16-58.69a13.48 13.48 0 01.81-2.24z"/><path d="M92.88 296.05l-.34 1.2c-.87-.68 0-.86.34-1.2z" fill="#b49b83"/><path class="cls-7" d="M350.87 161.57a.09.09 0 000 .05h.13z"/><path class="cls-7" d="M370.77 170.05a4.31 4.31 0 01-2.43-3.41 53 53 0 00-12.59-4.3c-6.18-1.27-12.36-1.48-25.56.56-19.31 3-31.44 5-39.7 12.76a26.62 26.62 0 00-7.77 11.89 24.57 24.57 0 00-1 7.56 13.72 13.72 0 01-2.4-6.27 12.91 12.91 0 01.59-5.12c1.7-5.76 4.53-15.41 1.28-18.72-2.05-2.08-6.62-1.78-8 0-1 1.29 0 3-.64 8.28-.1.83-.21 1.52-.29 2a3.74 3.74 0 01.19.73c0 .08-.2.17-.31.26-2 8.92-8.06 15-14.54 20.66-5.5 4.85-7.54 10.63-5.54 17.83a18.78 18.78 0 01-2.89 16.17c-2.26 3.34-4.33 6.8-6.49 10.21a70.16 70.16 0 006.53 6.45 71.17 71.17 0 0019.86 12.09c15 8.45 31.78 11.68 48.2 15.9 6.73 1.72 13.55 3.11 20 5.92-1.73 1.36-2.13 2.91-1.37 5.1a53 53 0 012.43 27.47c-3 15.85-14.31 28.32-31.66 28.76-1.79 0-4.74-.82-4.78 1.8 0 2.79 3 2.95 5.23 3a15.9 15.9 0 004.25-.86c3-.83 5.86-1.88 8.84-2.59 7.41-1.75 12.28 1.9 12.2 9.44-.19 15.64-3.88 30.38-12.28 43.71a12.24 12.24 0 00-2.33 7.7l7.83.25c3.89-4.25 5.66-9.64 7.92-14.77 4.59-10.47 7.27-21.61 11.38-32.25.13-1.57.25-3.14.37-4.72 2.48-.43 1.48-2.84 2.36-4.2 1-1.62 1.21-3.86 3.35-4.7 3.4-15.59 6.64-31.21 10.21-46.75 4.89-21.24 10.86-42.19 17.06-63.07a95.1 95.1 0 006.61-31.25c.11-5.41 3.47-23.11-14.12-33.52z"/><path class="cls-3" d="M233.82 80.88c-1.93-3.37-3.83-6.79-6.08-9.95-6-8.47-9.55-17.6-8.39-28.2a11.88 11.88 0 00-2-8.35c-4.68-6.6-9.31-13.24-15.09-19a2.11 2.11 0 00-.76.59 2.11 2.11 0 01.76-.59 9.56 9.56 0 00-8.71-2.92c-15.21 2.18-31.49 22.35-30.4 37.82 7.46-3.11 8.58-2.86 9 2.07 3.06 2.53.17 4.19-1 6-2.44 3.87-6.33 7.08-5.37 12.41a16 16 0 00.82 3.24c2.26 5.54 2 6.14-3.61 6.77a27 27 0 000 12c2.78 15.17 10.45 24.76 22.65 28.39.64.29 1.44.69 2.32 1.17.66.37 1.22.71 1.38.8l.85.53 3.63 3.09.93.85L196 129a.36.36 0 00.12.5l.86 1a51.31 51.31 0 008-.9 51.31 51.31 0 01-8 .9h-.06a43.25 43.25 0 014.93 16c.6 6.92 2.65 13.49 4.8 20l3.54-.14c1.16-5.78 5.13-9.69 9.27-13.3 7.75-6.73 9.85-14.47 5.18-23.8-1.65-8-.49-12.28 1-14.74a40.33 40.33 0 003.57-6.87c.6-1.54 1-2.85 1.27-3.78 7.96-6.72 8.87-13.37 3.34-22.99zm-19.89-33.2zm-28.22-10c6.42-6.36 13.81-9.9 23.09-7l-7-12.45c-.44-.8-.75-1.58-.27-2.22-.48.64-.17 1.42.27 2.22l7 12.45 7.4 4.79c-2.21 1-3.76-.67-5.52-.43-8.33-2.17-15.08 1.22-21.35 6.15-1.46 1.14-2.68 3.48-4.79 1.71-2.48-2.1-.14-3.9 1.17-5.24zm-3.42 31.92c-2.77.74-4.72.51-6.87-1.71 2.99-1.01 4.91-.53 6.87 1.69zm-10.51 23.21c0-9.07 5.55-13.29 14.53-11.25a79.87 79.87 0 019.14 3.1c2.66 1 3.07 2.36.88 4.08-5.57 4.39-11.21 8.74-17.62 11.82-4.83 2.31-6.93-.18-6.93-7.75z"/><path d="M272.24 175.27a3.74 3.74 0 01.19.73c0 .08-.2.17-.31.26z" fill="#9e7458"/><path d="M196.13 129.53l.87 1.06zm-1.41-1.88L196 129z" fill="#b0805c"/><path class="cls-1" d="M171.78 92.81c0-9.07 5.55-13.29 14.53-11.25a79.87 79.87 0 019.14 3.1c2.66 1 3.07 2.36.88 4.08-5.57 4.39-11.21 8.74-17.62 11.82-4.82 2.31-6.93-.18-6.93-7.75z"/></svg>