<?xml version="1.0" encoding="utf-8"?>
<!-- Generator: Adobe Illustrator 24.2.3, SVG Export Plug-In . SVG Version: 6.00 Build 0)  -->
<svg version="1.1" id="Слой_1" xmlns="http://www.w3.org/2000/svg" xmlns:xlink="http://www.w3.org/1999/xlink" x="0px" y="0px"
	 viewBox="0 0 731.37 508.32" style="enable-background:new 0 0 731.37 508.32;" xml:space="preserve">
<style type="text/css">
	.st0{fill:#000600;}
	.st1{fill:#0071C5;}
	.st2{clip-path:url(#SVGID_2_);fill:#83D5FB;}
	.st3{clip-path:url(#SVGID_2_);fill:#00ABF0;}
	.st4{clip-path:url(#SVGID_2_);fill:#57CAF9;}
	.st5{clip-path:url(#SVGID_2_);fill:#0071C5;}
	.st6{clip-path:url(#SVGID_2_);fill:#31C5F8;}
	.st7{clip-path:url(#SVGID_2_);fill:#3DD1F9;}
	.st8{clip-path:url(#SVGID_4_);fill:#00ABF0;}
	.st9{clip-path:url(#SVGID_4_);fill:#83D5FB;}
	.st10{clip-path:url(#SVGID_4_);fill:#31C5F8;}
	.st11{clip-path:url(#SVGID_4_);fill:#0071C5;}
	.st12{clip-path:url(#SVGID_4_);fill:#57CAF9;}
	.st13{clip-path:url(#SVGID_4_);fill:#A6A6A6;}
	.st14{opacity:0.14;fill:#000600;}
	.st15{clip-path:url(#SVGID_8_);fill:#C980DD;}
	.st16{clip-path:url(#SVGID_8_);fill:#E7B3EE;}
	.st17{clip-path:url(#SVGID_8_);fill:#8C9295;}
	.st18{clip-path:url(#SVGID_8_);fill:#921C9F;}
	.st19{clip-path:url(#SVGID_8_);fill:#CDD0D3;}
	.st20{clip-path:url(#SVGID_8_);fill:#DFDBD1;}
	.st21{clip-path:url(#SVGID_8_);fill:#543F31;}
	.st22{clip-path:url(#SVGID_8_);fill:#C38A75;}
	.st23{clip-path:url(#SVGID_8_);fill:#B3B9BC;}
	.st24{clip-path:url(#SVGID_8_);fill:#8B9295;}
	.st25{clip-path:url(#SVGID_8_);fill:#D59C87;}
	.st26{fill:#E7B3EE;}
	.st27{clip-path:url(#SVGID_10_);}
	.st28{fill:#D6A1E6;}
	.st29{fill:#C980DD;}
	.st30{clip-path:url(#SVGID_12_);fill:#FFE050;}
	.st31{opacity:0.5;clip-path:url(#SVGID_12_);}
	.st32{fill:#A2C9FF;}
	.st33{fill:#FF8B00;}
	.st34{clip-path:url(#SVGID_12_);fill:#FFECA0;}
	.st35{clip-path:url(#SVGID_12_);}
	.st36{fill:#F9C956;}
	.st37{fill:#FFECA0;}
	.st38{fill:#2A356B;}
	.st39{clip-path:url(#SVGID_12_);fill:#F9C956;}
	.st40{clip-path:url(#SVGID_12_);fill:#A2C9FF;}
	.st41{clip-path:url(#SVGID_12_);fill:#FF8B00;}
	.st42{clip-path:url(#SVGID_12_);fill:#2A356B;}
	.st43{fill:#1B254E;}
	.st44{clip-path:url(#SVGID_12_);fill:#C22C28;}
	.st45{clip-path:url(#SVGID_12_);fill:#FF7400;}
	.st46{fill:#FFE050;}
	.st47{clip-path:url(#SVGID_12_);fill:#FFEB82;}
	.st48{clip-path:url(#SVGID_14_);fill:#FFE286;}
	.st49{fill:#FFFFFF;}
	.st50{fill:#ACD7C2;}
	.st51{fill:none;stroke:#FFFFFF;stroke-miterlimit:10;}
	.st52{fill:#A1CAAA;}
	.st53{fill:#95CCA0;}
	.st54{opacity:0.76;}
	.st55{fill:#C3E8CC;}
	.st56{fill:url(#SVGID_15_);}
	.st57{fill:url(#SVGID_16_);}
	.st58{fill:url(#SVGID_17_);}
	.st59{fill:#F5E5BD;}
	.st60{fill:url(#SVGID_18_);}
	.st61{fill:url(#SVGID_19_);}
	.st62{fill:url(#SVGID_20_);}
	.st63{fill:url(#SVGID_21_);}
	.st64{fill:url(#SVGID_22_);}
	.st65{fill:url(#SVGID_23_);}
	.st66{fill:#E3EDC3;}
	.st67{fill:#EEFAD1;}
	.st68{fill:url(#SVGID_24_);}
	.st69{fill:url(#SVGID_25_);}
	.st70{fill:url(#SVGID_26_);}
	.st71{fill:url(#SVGID_27_);}
	.st72{fill:url(#SVGID_28_);}
	.st73{fill:#FFE392;}
	.st74{clip-path:url(#SVGID_30_);fill:url(#SVGID_31_);}
	.st75{fill:#5B2A1E;}
	.st76{fill:#8F7673;}
	.st77{fill:url(#SVGID_32_);}
	.st78{fill:url(#SVGID_33_);}
	.st79{fill:url(#SVGID_34_);}
	.st80{fill:url(#SVGID_35_);}
	.st81{fill:#F79291;}
	.st82{fill:url(#SVGID_36_);}
	.st83{fill:#FF9D5B;}
	.st84{opacity:0.75;fill:#FFFFFF;}
	.st85{fill:#FFC28E;}
	.st86{fill:none;}
	.st87{clip-path:url(#SVGID_38_);fill:#FFE0C3;}
	.st88{clip-path:url(#SVGID_38_);fill:#FF9F36;}
	.st89{clip-path:url(#SVGID_38_);fill:#FFF3E2;}
	.st90{clip-path:url(#SVGID_40_);fill:#FAC1E3;}
	.st91{opacity:0.8;clip-path:url(#SVGID_40_);fill:#EF8FC7;}
	.st92{clip-path:url(#SVGID_40_);fill:#EF8FC7;}
	.st93{opacity:0.79;clip-path:url(#SVGID_40_);fill:#FAC1E3;}
	.st94{fill:url(#SVGID_41_);}
	.st95{fill:#FFFDEC;}
	.st96{fill:#78CB99;}
	.st97{fill:#B2E1C4;}
	.st98{fill:#D8EFE2;}
	.st99{opacity:0.44;fill:#FFFFFF;}
	.st100{clip-path:url(#SVGID_43_);fill:#FFF7C8;}
	.st101{fill:url(#SVGID_44_);}
	.st102{fill:url(#SVGID_45_);}
	.st103{opacity:0.86;fill:#FFD0D7;}
	.st104{fill:url(#SVGID_46_);}
	.st105{opacity:0.66;}
	.st106{opacity:0.37;fill:#FFFFFF;}
	.st107{opacity:0.4;}
	.st108{opacity:0.26;fill:#FFFFFF;}
	.st109{opacity:0.62;fill:#FFFFFF;}
	.st110{opacity:0.41;fill:#FFFFFF;}
	.st111{opacity:0.69;fill:#FFFFFF;}
	.st112{opacity:0.73;fill:#FFFFFF;}
	.st113{opacity:0.16;fill:#FFFFFF;}
	.st114{opacity:0.3;fill:#FFFFFF;}
	.st115{opacity:0.23;fill:#FFFFFF;}
	.st116{opacity:0.24;fill:#FFFFFF;}
	.st117{opacity:0.43;fill:#FFFFFF;}
	.st118{opacity:0.76;fill:#FFFFFF;}
	.st119{opacity:0.08;fill:#FFFFFF;}
	.st120{opacity:0.27;fill:#FFFFFF;}
	.st121{opacity:0.46;}
	.st122{opacity:0.86;fill:#FFFFFF;}
	.st123{opacity:0.54;fill:#FFFFFF;}
	.st124{opacity:0.28;}
	.st125{clip-path:url(#SVGID_48_);}
	.st126{fill:#FF7B89;}
	.st127{clip-path:url(#SVGID_48_);fill:none;}
	.st128{fill:none;stroke:#FFFFFF;stroke-width:2;stroke-miterlimit:10;}
	.st129{opacity:0.45;fill:#FFFFFF;}
	.st130{opacity:0.8;fill:#FFFFFF;}
	.st131{opacity:0.79;fill:#FFFFFF;}
	.st132{fill:#F1C4A9;}
	.st133{fill:none;stroke:#FFFFFF;stroke-width:0.75;stroke-miterlimit:10;}
	.st134{fill:#FFFFFF;stroke:#FFFFFF;stroke-width:0.25;stroke-miterlimit:10;}
	.st135{fill:#00A5C4;}
	.st136{fill:#31C5F8;}
	.st137{fill:#57CAF9;}
	.st138{fill:#00A8B8;}
	.st139{fill:#EA90A7;}
	.st140{fill:#91693D;}
	.st141{fill:#F2BECD;}
	.st142{fill:#D87290;}
	.st143{fill:#574435;}
	.st144{fill:#C8A37C;}
	.st145{fill:#641F1E;}
	.st146{fill:#E16C8D;}
	.st147{fill:#D63665;}
	.st148{fill:#DDB689;}
	.st149{fill:#F64776;}
	.st150{fill:#DEB689;}
	.st151{fill:#F2769B;}
	.st152{fill:#FAFAF8;}
	.st153{fill:#F7C3DB;}
	.st154{fill:#E3B9B4;}
	.st155{fill:#FFBEC5;}
	.st156{fill:#FFC9D7;}
	.st157{fill:#C73F69;}
	.st158{fill:#F7F7F7;}
	.st159{fill:#F2F2F2;}
	.st160{fill:#FFFBF1;}
	.st161{fill:#F8C3D1;}
	.st162{fill:#FC7798;}
	.st163{fill:#FFC5C4;}
	.st164{fill:#FFD0D7;}
	.st165{fill:#B39D8E;}
	.st166{fill:#FFE4EB;}
	.st167{fill:#F1F1F1;}
	.st168{fill:#FFA5B2;}
	.st169{fill:#A2C4DB;}
	.st170{fill:#583B34;}
	.st171{fill:#B1CFE4;}
	.st172{fill:#FBFBFA;}
	.st173{fill:#E0CFC7;}
	.st174{fill:#D9946B;}
	.st175{fill:#FFEBF2;}
	.st176{fill:#FCDDE6;}
	.st177{fill:#F2CCC1;}
	.st178{fill:#DF4E50;}
	.st179{fill:#45BC7A;}
	.st180{fill:#87E4AE;}
	.st181{fill:#00AC5F;}
	.st182{fill:#7FD9A9;}
	.st183{fill:#F1BB3A;}
	.st184{fill:#B89E65;}
	.st185{fill:#97D183;}
	.st186{fill:#3C3724;}
	.st187{fill:#D5BDA1;}
	.st188{fill:#9B8174;}
	.st189{fill:#587147;}
	.st190{fill:#E6D5BD;}
	.st191{fill:#5CC588;}
	.st192{clip-path:url(#SVGID_56_);fill:#B2E1C4;}
	.st193{clip-path:url(#SVGID_56_);fill:#FFFFFF;}
	.st194{clip-path:url(#SVGID_56_);fill:#78CB99;}
	.st195{fill:#FFEB82;}
	.st196{fill:#FFDF47;}
	.st197{clip-path:url(#SVGID_58_);fill:#F3A368;}
	.st198{clip-path:url(#SVGID_58_);fill-rule:evenodd;clip-rule:evenodd;fill:#FF8D4F;}
	.st199{clip-path:url(#SVGID_58_);fill:#E45C26;}
	.st200{clip-path:url(#SVGID_58_);fill:#F8B846;}
	.st201{fill:#E45C26;}
	.st202{fill:#FF8D4F;}
	.st203{fill:#FFAB33;}
	.st204{fill:#E46D00;}
	.st205{fill:#EE6406;}
	.st206{fill:#FF9B00;}
	.st207{fill:#130077;}
	.st208{fill:#FFBA98;}
	.st209{opacity:0.3;}
	.st210{fill:#FF7300;}
	.st211{fill:#6E0000;}
	.st212{fill-rule:evenodd;clip-rule:evenodd;fill:#FF9B00;}
	.st213{fill-rule:evenodd;clip-rule:evenodd;fill:url(#SVGID_59_);}
	.st214{opacity:0.3;fill-rule:evenodd;clip-rule:evenodd;fill:#A3002C;}
	.st215{fill-rule:evenodd;clip-rule:evenodd;fill:url(#SVGID_60_);}
	.st216{fill-rule:evenodd;clip-rule:evenodd;fill:url(#SVGID_61_);}
	.st217{opacity:0.5;fill-rule:evenodd;clip-rule:evenodd;fill:url(#SVGID_62_);}
	.st218{fill-rule:evenodd;clip-rule:evenodd;fill:#FFC384;}
	.st219{fill-rule:evenodd;clip-rule:evenodd;fill:url(#SVGID_63_);}
	.st220{fill-rule:evenodd;clip-rule:evenodd;fill:url(#SVGID_64_);}
	.st221{fill-rule:evenodd;clip-rule:evenodd;fill:url(#SVGID_65_);}
	.st222{opacity:0.5;fill-rule:evenodd;clip-rule:evenodd;fill:url(#SVGID_66_);}
	.st223{fill-rule:evenodd;clip-rule:evenodd;fill:#F3A368;}
	.st224{opacity:0.5;fill-rule:evenodd;clip-rule:evenodd;fill:#F3A368;}
	.st225{fill-rule:evenodd;clip-rule:evenodd;fill:#FF8D4F;}
	.st226{fill-rule:evenodd;clip-rule:evenodd;fill:#FFAB33;}
	.st227{opacity:0.62;fill-rule:evenodd;clip-rule:evenodd;fill:#C7002A;}
	.st228{opacity:0.5;fill-rule:evenodd;clip-rule:evenodd;fill:#FF8D4F;}
	.st229{opacity:0.5;fill-rule:evenodd;clip-rule:evenodd;fill:#8E5472;}
	.st230{opacity:0.3;fill-rule:evenodd;clip-rule:evenodd;fill:url(#SVGID_67_);}
	.st231{opacity:0.5;fill-rule:evenodd;clip-rule:evenodd;fill:url(#SVGID_68_);}
	.st232{opacity:0.3;fill-rule:evenodd;clip-rule:evenodd;fill:url(#SVGID_69_);}
	.st233{opacity:0.3;fill-rule:evenodd;clip-rule:evenodd;fill:url(#SVGID_70_);}
	.st234{clip-path:url(#SVGID_72_);}
	.st235{clip-path:url(#SVGID_72_);fill:#FF8D4F;}
	.st236{fill:#F3A368;}
	.st237{clip-path:url(#SVGID_74_);}
	.st238{fill:#E98B38;}
	.st239{clip-path:url(#SVGID_76_);}
	.st240{fill:#F8B846;}
	.st241{clip-path:url(#SVGID_78_);}
	.st242{clip-path:url(#SVGID_78_);fill:#FF8D4F;}
	.st243{fill-rule:evenodd;clip-rule:evenodd;fill:url(#SVGID_79_);}
	.st244{fill-rule:evenodd;clip-rule:evenodd;fill:url(#SVGID_80_);}
	.st245{fill-rule:evenodd;clip-rule:evenodd;fill:url(#SVGID_81_);}
	.st246{opacity:0.5;fill-rule:evenodd;clip-rule:evenodd;fill:url(#SVGID_82_);}
	.st247{fill-rule:evenodd;clip-rule:evenodd;fill:url(#SVGID_83_);}
	.st248{fill-rule:evenodd;clip-rule:evenodd;fill:url(#SVGID_84_);}
	.st249{fill-rule:evenodd;clip-rule:evenodd;fill:url(#SVGID_85_);}
	.st250{opacity:0.5;fill-rule:evenodd;clip-rule:evenodd;fill:url(#SVGID_86_);}
	.st251{opacity:0.3;fill-rule:evenodd;clip-rule:evenodd;fill:url(#SVGID_87_);}
	.st252{opacity:0.5;fill-rule:evenodd;clip-rule:evenodd;fill:url(#SVGID_88_);}
	.st253{opacity:0.3;fill-rule:evenodd;clip-rule:evenodd;fill:url(#SVGID_89_);}
	.st254{opacity:0.3;fill-rule:evenodd;clip-rule:evenodd;fill:url(#SVGID_90_);}
	.st255{opacity:0.88;fill:#FFFEF4;}
	.st256{fill:#FFCF66;}
	.st257{fill:#AFABAC;}
	.st258{fill:#FFE286;}
	.st259{fill:#FFE787;}
	.st260{fill:#F6C700;}
	.st261{fill:#FFEA96;}
	.st262{clip-path:url(#SVGID_92_);fill:#F9C956;}
	.st263{clip-path:url(#SVGID_92_);fill:#FFE050;}
	.st264{clip-path:url(#SVGID_94_);fill:#921C9F;}
	.st265{opacity:0.5;clip-path:url(#SVGID_94_);}
	.st266{fill:#921C9F;}
	.st267{clip-path:url(#SVGID_94_);}
	.st268{clip-path:url(#SVGID_96_);fill:#D6A1E6;}
	.st269{fill:#BC59D3;}
	.st270{opacity:0.5;fill:#FFFFFF;}
	.st271{opacity:0.5;fill:#FFFFFF;stroke:#FFFFFF;stroke-miterlimit:10;}
	.st272{opacity:0.68;fill:#FFFFFF;}
	.st273{fill:#E9CBF2;}
	.st274{fill:#D9A2E1;}
	.st275{fill:#AA7B41;}
	.st276{fill:#8C9295;}
	.st277{fill:#CDD0D3;}
	.st278{fill:#DFDBD1;}
	.st279{fill:#543F31;}
	.st280{fill:#C38A75;}
	.st281{fill:#B3B9BC;}
	.st282{fill:#8B9295;}
	.st283{fill:#D59C87;}
	.st284{fill:#3DD1F9;}
	.st285{fill:#F92405;}
	.st286{fill:#B30000;}
	.st287{fill:#FA3C20;}
	.st288{fill:#E2A080;}
	.st289{fill:#950000;}
	.st290{fill:#F50000;}
	.st291{clip-path:url(#SVGID_98_);fill:#EA90A7;}
	.st292{clip-path:url(#SVGID_98_);fill:#FFEBF2;}
	.st293{clip-path:url(#SVGID_98_);fill:#D3CFB3;}
	.st294{clip-path:url(#SVGID_98_);fill:#FCDDE6;}
	.st295{clip-path:url(#SVGID_98_);}
	.st296{clip-path:url(#SVGID_98_);fill:#FFC9D7;}
	.st297{fill:#FA90B4;}
	.st298{fill:#BCA494;}
	.st299{fill:#63443C;}
	.st300{fill:#CFABA0;}
	.st301{fill:#A1C3DA;}
	.st302{fill:#9B7972;}
	.st303{fill:#77573F;}
	.st304{fill-rule:evenodd;clip-rule:evenodd;fill:#FA3C20;}
	.st305{fill-rule:evenodd;clip-rule:evenodd;fill:#D00707;}
	.st306{fill-rule:evenodd;clip-rule:evenodd;fill:#F92405;}
	.st307{fill-rule:evenodd;clip-rule:evenodd;fill:#F50000;}
	.st308{fill-rule:evenodd;clip-rule:evenodd;fill:#F95F53;}
	.st309{fill:#F95F53;}
	.st310{clip-path:url(#SVGID_100_);fill:#574435;}
	.st311{clip-path:url(#SVGID_100_);fill:#C8A37C;}
	.st312{clip-path:url(#SVGID_100_);fill:#91693D;}
	.st313{clip-path:url(#SVGID_100_);fill:#D00707;}
	.st314{clip-path:url(#SVGID_100_);fill:#FA3C20;}
	.st315{clip-path:url(#SVGID_100_);fill:#950000;}
	.st316{clip-path:url(#SVGID_100_);fill:#F95F53;}
	.st317{clip-path:url(#SVGID_100_);fill:#131212;}
	.st318{clip-path:url(#SVGID_100_);fill:#B30000;}
	.st319{clip-path:url(#SVGID_100_);fill:#412A1A;}
	.st320{clip-path:url(#SVGID_100_);fill:#DEC6AF;}
	.st321{clip-path:url(#SVGID_100_);fill:#BF855C;}
	.st322{fill:#D00707;}
	.st323{fill:#AB9DB8;}
	.st324{fill:#381A12;}
	.st325{fill:#EBCBB8;}
	.st326{fill:#AC9EBB;}
	.st327{fill:#F8F6F5;}
	.st328{fill:#0A345E;}
	.st329{fill:#412A1A;}
	.st330{fill:#131212;}
	.st331{fill:#DEC6AF;}
	.st332{fill:#BF855C;}
	.st333{opacity:0.79;fill:#FFBEC5;}
	.st334{opacity:0.79;fill:#FA90B4;}
	.st335{fill:#83D5FB;}
	.st336{fill:#00ABF0;}
	.st337{opacity:0.6;fill:#FFFFFF;}
	.st338{opacity:0.34;fill:#FFFFFF;}
	.st339{opacity:0.25;fill:#FFFFFF;}
	.st340{opacity:0.6;}
	.st341{fill:#B2B0AD;}
	.st342{fill:#0D0707;}
	.st343{fill:#A6A6A6;}
	.st344{fill:#0068A8;}
	.st345{fill:#F17171;}
	.st346{opacity:0.17;fill:#FFFFFF;}
	.st347{opacity:0.39;fill:#FFFFFF;}
	.st348{opacity:0.71;fill:#FFFFFF;}
</style>
<g>
	<path class="st49" d="M195.96,45.24h-1.25v-10.7c0-2.81,1.8-5.33,4.38-6.12c6.36-1.95,10.13-8.4,8.75-15
		c-1.01-4.82-4.92-8.74-9.75-9.75c-3.87-0.81-7.82,0.13-10.83,2.57c-3.01,2.44-4.73,6.06-4.73,9.93h-1.25
		c0-4.25,1.89-8.22,5.19-10.9c3.3-2.68,7.62-3.71,11.87-2.83c5.3,1.11,9.61,5.41,10.71,10.72c1.51,7.24-2.62,14.31-9.61,16.45
		c-2.06,0.63-3.5,2.66-3.5,4.92V45.24z"/>
</g>
<g>
	<path class="st49" d="M366.81,48.23h-1.25v-10.7c0-2.81,1.8-5.33,4.38-6.12c6.36-1.95,10.13-8.4,8.75-15
		c-1.01-4.82-4.92-8.74-9.75-9.75c-3.87-0.81-7.82,0.13-10.83,2.57c-3.01,2.44-4.73,6.06-4.73,9.93h-1.25
		c0-4.25,1.89-8.22,5.19-10.9c3.3-2.68,7.62-3.71,11.87-2.83c5.3,1.11,9.61,5.41,10.71,10.72c1.51,7.24-2.62,14.31-9.61,16.45
		c-2.06,0.63-3.5,2.66-3.5,4.92V48.23z"/>
</g>
<path class="st346" d="M731,263.6c0,0-44.53-120.16-71.24-135.14c-26.72-14.98-65.9-19.1-65.9-19.1c-10.69,57.39-57,54.35-57,54.35
	c-7.08-0.47-18.96-2.28-31.19-9.62c-24.46-14.69-31.2-40.07-32.59-45.84c-14.99,7.28-31.85,17.32-48.76,31.26
	c-51.38,42.36-72.74,95.66-81.61,124.1l68.57,42.7l-11.58,200.79h137.15H674l-11.58-200.79L731,263.6z"/>
<path class="st347" d="M565.41,259.77c0,0-44.53-122.05-71.25-137.27c-26.72-15.22-65.9-19.4-65.9-19.4
	c-4.43,24.15-14.97,37.77-25.81,45.43c-12.13,8.58-24.98,9.35-31.19,9.77c-18.35,1.25-32.05-5.12-38.22-8.08
	c-22.4-10.75-34.14-28.7-38.76-36.83c-11.54,4-23.9,9.67-36.26,17.78c-58.9,38.65-76.04,105.2-80.91,128.59l68.57,43.37
	l-11.58,203.94h137.15h137.15l-11.58-203.94L565.41,259.77z"/>
<path class="st348" d="M388.7,263.1c0,0-44.53-120.16-71.25-135.14c-26.72-14.98-65.9-19.1-65.9-19.1
	c-10.69,57.39-57,54.35-57,54.35c-6.39-0.16-18.92-1.43-31.19-9.62c-24.84-16.58-26.48-46.73-26.61-50.35
	c-16.83,2.4-41.08,8.45-65.09,24.72C6.97,171.82,1.1,251.25,0.42,263.1l68.57,42.7L57.41,506.59h137.15h137.15L320.13,305.8
	L388.7,263.1z"/>
<path class="st49" d="M348.21,135.61c-4.17-6.32-77.68-37.58-92.74-46.14c-16.67-9.48-25.99-26.64-32.15-40.51
	c-1.47-3.3-17.19-4.87-31.26-4.87s-29.79,1.57-31.26,4.87c-6.16,13.87-15.48,31.03-32.15,40.51c-15.06,8.56-88.57,39.82-92.74,46.14
	c-4.17,6.32-1.19,23.84,5.06,22.66c6.25-1.19,128.17-69.54,132.86-71.51c4.69-1.98,18.24-1.98,18.24-1.98s13.55,0,18.24,1.98
	c4.69,1.98,126.61,70.33,132.86,71.51C349.4,159.45,352.38,141.93,348.21,135.61z"/>
<path class="st49" d="M522.42,135.61c-4.17-6.32-77.68-37.58-92.74-46.14c-16.67-9.48-25.99-26.64-32.15-40.51
	c-1.47-3.3-17.19-4.87-31.26-4.87s-29.79,1.57-31.26,4.87c-6.16,13.87-15.48,31.03-32.15,40.51c-5.26,2.99-17.64,8.75-31.71,15.24
	c0.11,0.19,0.28,0.48,0.5,0.81c4.62,7.06,13.86,8.56,16.4,8.97c16.18,2.63,30.27-20.69,59.99-27.74c7.69-1.82,14.22-2.04,18.24-1.98
	c0,0,13.55,0,18.24,1.98c4.69,1.97,126.61,70.33,132.86,71.51C523.61,159.45,526.59,141.93,522.42,135.61z"/>
<g>
	<path class="st49" d="M693.82,136.1c-4.17-6.32-77.68-37.58-92.74-46.14c-16.67-9.48-25.99-26.64-32.15-40.51
		c-1.47-3.3-17.19-4.87-31.26-4.87c-14.07,0-29.79,1.57-31.26,4.87c-6.16,13.87-15.48,31.03-32.15,40.51
		c-5.61,3.19-19.34,9.54-34.58,16.57c7.26,3.1,12.88,8.32,19.15,13.9c29.99-16.49,58.39-32.24,60.6-33.18
		c4.69-1.98,18.24-1.98,18.24-1.98s13.55,0,18.24,1.98c4.69,1.97,126.61,70.33,132.86,71.51
		C695.01,159.94,697.98,142.42,693.82,136.1z"/>
	<path class="st51" d="M524.05,15.42c0-8.35,7.63-14.93,16.31-13.12c5.07,1.06,9.17,5.16,10.23,10.23
		c1.51,7.25-2.83,13.78-9.18,15.72c-2.38,0.73-3.94,3.03-3.94,5.52v10.7"/>
</g>
</svg>
