<?xml version="1.0" encoding="utf-8"?>
<!-- Generator: Adobe Illustrator 24.2.3, SVG Export Plug-In . SVG Version: 6.00 Build 0)  -->
<svg version="1.1" id="Слой_1" xmlns="http://www.w3.org/2000/svg" xmlns:xlink="http://www.w3.org/1999/xlink" x="0px" y="0px"
	 viewBox="0 0 565.43 377.05" style="enable-background:new 0 0 565.43 377.05;" xml:space="preserve">
<style type="text/css">
	.st0{fill:url(#SVGID_1_);}
	.st1{fill:#AED9C4;}
	.st2{fill:none;stroke:#FFFFFF;stroke-miterlimit:10;}
	.st3{fill:#A3CCAC;}
	.st4{fill:#97CEA2;}
	.st5{opacity:0.76;}
	.st6{fill:#C5EACE;}
	.st7{fill:#FFFFFF;}
	.st8{fill:url(#SVGID_2_);}
	.st9{fill:url(#SVGID_3_);}
	.st10{fill:#F7E7BF;}
	.st11{fill:url(#SVGID_4_);}
	.st12{fill:url(#SVGID_5_);}
	.st13{fill:url(#SVGID_6_);}
	.st14{fill:#E5EFC5;}
	.st15{fill:#F0FCD3;}
	.st16{fill:url(#SVGID_7_);}
	.st17{fill:url(#SVGID_8_);}
	.st18{fill:url(#SVGID_9_);}
	.st19{fill:url(#SVGID_10_);}
	.st20{fill:#FFE594;}
	.st21{clip-path:url(#SVGID_12_);fill:url(#SVGID_13_);}
	.st22{fill:#5B2A1E;}
	.st23{fill:#917673;}
	.st24{fill:url(#SVGID_14_);}
	.st25{fill:url(#SVGID_15_);}
	.st26{fill:url(#SVGID_16_);}
	.st27{fill:url(#SVGID_17_);}
	.st28{fill:url(#SVGID_18_);}
	.st29{opacity:0.62;clip-path:url(#SVGID_20_);fill:#FFFFFF;}
	.st30{opacity:0.75;clip-path:url(#SVGID_20_);fill:#FFFFFF;}
	.st31{opacity:0.41;clip-path:url(#SVGID_20_);fill:#FFFFFF;}
	.st32{clip-path:url(#SVGID_20_);fill:none;}
	.st33{clip-path:url(#SVGID_22_);}
	.st34{opacity:0.26;fill:#FFFFFF;}
	.st35{opacity:0.69;fill:#FFFFFF;}
	.st36{fill:none;}
	.st37{opacity:0.16;fill:#FFFFFF;}
	.st38{opacity:0.3;fill:#FFFFFF;}
	.st39{opacity:0.23;fill:#FFFFFF;}
	.st40{opacity:0.24;fill:#FFFFFF;}
	.st41{opacity:0.17;}
	.st42{opacity:0.05;fill:#E3E9E5;}
	.st43{clip-path:url(#SVGID_24_);}
	.st44{opacity:0.76;clip-path:url(#SVGID_24_);fill:#FFFFFF;}
	.st45{clip-path:url(#SVGID_24_);fill:url(#SVGID_25_);}
	.st46{clip-path:url(#SVGID_24_);fill:none;stroke:#FFFFFF;stroke-width:2;stroke-linecap:round;stroke-miterlimit:10;}
	.st47{clip-path:url(#SVGID_24_);fill:url(#SVGID_26_);}
	.st48{clip-path:url(#SVGID_24_);fill:url(#SVGID_27_);}
	.st49{clip-path:url(#SVGID_24_);fill:url(#SVGID_28_);}
	.st50{clip-path:url(#SVGID_24_);fill:url(#SVGID_29_);}
	.st51{clip-path:url(#SVGID_24_);fill:#FFFFFF;}
	.st52{clip-path:url(#SVGID_24_);fill:url(#SVGID_30_);}
	.st53{opacity:0.62;clip-path:url(#SVGID_32_);fill:#FFFFFF;}
	.st54{clip-path:url(#SVGID_32_);fill:#FFFFFF;}
	.st55{opacity:0.41;clip-path:url(#SVGID_32_);fill:#FFFFFF;}
	.st56{clip-path:url(#SVGID_32_);fill:none;}
	.st57{clip-path:url(#SVGID_34_);}
	.st58{fill:url(#SVGID_35_);}
	.st59{opacity:0.74;clip-path:url(#SVGID_37_);fill:url(#SVGID_38_);}
	.st60{fill:#E6E6E6;}
	.st61{fill:none;stroke:#4D4D4D;stroke-width:0.75;stroke-linecap:round;stroke-miterlimit:10;}
	.st62{fill:url(#SVGID_39_);}
	.st63{opacity:0.74;fill:url(#SVGID_40_);}
	.st64{opacity:0.74;fill:url(#SVGID_41_);}
	.st65{opacity:0.74;fill:url(#SVGID_42_);}
	.st66{opacity:0.74;fill:url(#SVGID_43_);}
	.st67{fill:url(#SVGID_44_);}
	.st68{opacity:0.66;}
	.st69{opacity:0.37;fill:#FFFFFF;}
	.st70{fill:url(#SVGID_45_);}
	.st71{fill:url(#SVGID_46_);}
	.st72{fill:url(#SVGID_47_);}
	.st73{opacity:0.44;clip-path:url(#SVGID_49_);fill:#FFFFFF;}
	.st74{opacity:0.43;clip-path:url(#SVGID_51_);fill:#FFFFFF;}
	.st75{clip-path:url(#SVGID_51_);fill:none;stroke:#FFFFFF;stroke-miterlimit:10;}
	.st76{opacity:0.76;clip-path:url(#SVGID_51_);fill:#FFFFFF;}
	.st77{clip-path:url(#SVGID_51_);fill:#FFFFFF;}
	.st78{opacity:0.08;clip-path:url(#SVGID_51_);fill:#FFFFFF;}
	.st79{opacity:0.27;clip-path:url(#SVGID_51_);fill:#FFFFFF;}
	.st80{opacity:0.37;clip-path:url(#SVGID_51_);fill:#FFFFFF;}
	.st81{clip-path:url(#SVGID_51_);fill:none;}
	.st82{fill:url(#SVGID_52_);}
	.st83{opacity:0.62;clip-path:url(#SVGID_54_);fill:#FFFFFF;}
	.st84{clip-path:url(#SVGID_54_);fill:#FFFFFF;}
	.st85{opacity:0.41;clip-path:url(#SVGID_54_);fill:#FFFFFF;}
	.st86{clip-path:url(#SVGID_54_);fill:none;}
	.st87{clip-path:url(#SVGID_56_);}
	.st88{opacity:0.55;fill:url(#SVGID_57_);}
	.st89{fill:url(#SVGID_58_);}
	.st90{fill:url(#SVGID_59_);}
	.st91{opacity:0.28;}
	.st92{opacity:0.56;clip-path:url(#SVGID_61_);fill:#FFFFFF;}
	.st93{opacity:0.43;clip-path:url(#SVGID_63_);fill:#FFFFFF;}
	.st94{clip-path:url(#SVGID_63_);fill:none;stroke:#FFFFFF;stroke-miterlimit:10;}
	.st95{opacity:0.76;clip-path:url(#SVGID_63_);fill:#FFFFFF;}
	.st96{clip-path:url(#SVGID_63_);fill:#FFFFFF;}
	.st97{opacity:0.08;clip-path:url(#SVGID_63_);fill:#FFFFFF;}
	.st98{opacity:0.27;clip-path:url(#SVGID_63_);fill:#FFFFFF;}
	.st99{opacity:0.37;clip-path:url(#SVGID_63_);fill:#FFFFFF;}
	.st100{clip-path:url(#SVGID_63_);fill:none;}
	.st101{fill:url(#SVGID_64_);}
	.st102{opacity:0.62;clip-path:url(#SVGID_66_);fill:#FFFFFF;}
	.st103{clip-path:url(#SVGID_66_);fill:#FFFFFF;}
	.st104{opacity:0.41;clip-path:url(#SVGID_66_);fill:#FFFFFF;}
	.st105{clip-path:url(#SVGID_66_);fill:none;}
	.st106{clip-path:url(#SVGID_68_);}
	.st107{opacity:0.55;fill:url(#SVGID_69_);}
	.st108{fill:url(#SVGID_70_);}
	.st109{opacity:0.27;}
	.st110{opacity:0.56;clip-path:url(#SVGID_72_);fill:#FFFFFF;}
	.st111{opacity:0.52;clip-path:url(#SVGID_74_);fill:#FFFFFF;}
	.st112{clip-path:url(#SVGID_74_);fill:none;stroke:#FFFFFF;stroke-miterlimit:10;}
	.st113{opacity:0.76;clip-path:url(#SVGID_74_);fill:#FFFFFF;}
	.st114{clip-path:url(#SVGID_74_);fill:#FFFFFF;}
	.st115{opacity:0.08;clip-path:url(#SVGID_74_);fill:#FFFFFF;}
	.st116{opacity:0.27;clip-path:url(#SVGID_74_);fill:#FFFFFF;}
	.st117{opacity:0.37;clip-path:url(#SVGID_74_);fill:#FFFFFF;}
	.st118{clip-path:url(#SVGID_74_);fill:none;}
	.st119{clip-path:url(#SVGID_76_);fill:none;}
	.st120{opacity:0.46;}
	.st121{opacity:0.86;fill:#FFFFFF;}
	.st122{opacity:0.73;fill:#FFFFFF;}
	.st123{opacity:0.54;clip-path:url(#SVGID_78_);fill:#FFFFFF;}
	.st124{opacity:0.62;fill:#FFFFFF;}
	.st125{opacity:0.75;fill:#FFFFFF;}
	.st126{opacity:0.41;fill:#FFFFFF;}
	.st127{opacity:0.44;fill:#FFFFFF;}
	.st128{opacity:0.43;fill:#FFFFFF;}
	.st129{opacity:0.76;fill:#FFFFFF;}
	.st130{opacity:0.08;fill:#FFFFFF;}
	.st131{opacity:0.27;fill:#FFFFFF;}
	.st132{opacity:0.54;fill:#FFFFFF;}
</style>
<path class="st128" d="M531.62,110.91c-3.46-5.25-64.53-31.22-77.04-38.33c-13.85-7.88-21.59-22.13-26.71-33.66
	c-1.22-2.74-14.28-4.05-25.97-4.05c-11.69,0-24.75,1.3-25.97,4.05c-5.12,11.52-12.86,25.78-26.71,33.66
	c-12.51,7.11-73.58,33.08-77.04,38.33c-3.46,5.25-0.99,19.81,4.2,18.82c5.19-0.98,106.47-57.77,110.37-59.41
	c3.9-1.64,15.15-1.64,15.15-1.64s11.25,0,15.15,1.64c3.9,1.64,105.17,58.42,110.37,59.41C532.61,130.72,535.09,116.16,531.62,110.91
	z"/>
<path class="st2" d="M390.76,12.58c0-6.94,6.34-12.4,13.55-10.9c4.21,0.88,7.62,4.28,8.5,8.5c1.26,6.02-2.35,11.44-7.63,13.06
	c-1.98,0.61-3.27,2.52-3.27,4.59v8.89"/>
<path class="st129" d="M400.3,110.91c-3.46-5.25-64.53-31.22-77.04-38.33c-13.85-7.88-21.59-22.13-26.71-33.66
	c-1.22-2.74-14.28-4.05-25.97-4.05s-24.75,1.3-25.97,4.05c-5.12,11.52-12.86,25.78-26.71,33.66c-12.51,7.11-73.58,33.08-77.04,38.33
	c-3.46,5.25-0.99,19.81,4.2,18.82c5.19-0.98,106.47-57.77,110.37-59.41c3.9-1.64,15.15-1.64,15.15-1.64s11.25,0,15.15,1.64
	c3.9,1.64,105.17,58.42,110.37,59.41C401.29,130.72,403.76,116.16,400.3,110.91z"/>
<path class="st2" d="M259.43,12.58c0-6.94,6.34-12.4,13.55-10.9c4.21,0.88,7.62,4.28,8.5,8.5c1.26,6.02-2.35,11.44-7.63,13.06
	c-1.98,0.61-3.27,2.52-3.27,4.59v8.89"/>
<path class="st2" d="M147.95,12.58c0-6.94,6.34-12.4,13.55-10.9c4.21,0.88,7.62,4.28,8.5,8.5c1.26,6.02-2.35,11.44-7.63,13.06
	c-1.98,0.61-3.27,2.52-3.27,4.59v8.89"/>
<path class="st7" d="M288.82,110.91c-3.46-5.25-64.53-31.22-77.04-38.33c-13.85-7.88-21.59-22.13-26.71-33.66
	c-1.22-2.74-14.28-4.05-25.97-4.05c-11.69,0-24.75,1.3-25.97,4.05c-5.12,11.52-12.86,25.78-26.71,33.66
	c-12.51,7.11-73.58,33.08-77.04,38.33c-3.46,5.25-0.99,19.81,4.2,18.82c5.19-0.98,106.47-57.77,110.37-59.41
	c3.9-1.64,15.15-1.64,15.15-1.64s11.25,0,15.15,1.64c3.9,1.64,105.17,58.42,110.37,59.41C289.81,130.72,292.28,116.16,288.82,110.91
	z"/>
<path class="st130" d="M565.26,174.24c0,0-36.99-99.82-59.18-112.26c-22.19-12.44-54.75-15.87-54.75-15.87
	c-8.88,47.67-47.35,45.15-47.35,45.15s-38.47,2.52-47.35-45.15c0,0-32.55,3.42-54.75,15.87c-22.19,12.44-59.18,112.26-59.18,112.26
	l56.97,35.47l-9.62,166.8h113.93h113.93l-9.62-166.8L565.26,174.24z"/>
<path class="st131" d="M433.94,176.32c0,0-36.99-99.82-59.18-112.26S320,48.18,320,48.18c-8.88,47.67-47.35,45.15-47.35,45.15
	s-38.47,2.52-47.35-45.15c0,0-32.55,3.42-54.75,15.87s-59.18,112.26-59.18,112.26l56.97,35.47l-9.62,166.8h113.93h113.93
	l-9.62-166.8L433.94,176.32z"/>
<path class="st69" d="M322.45,174.24c0,0-36.99-99.82-59.18-112.26c-22.19-12.44-54.75-15.87-54.75-15.87
	c-8.88,47.67-47.35,45.15-47.35,45.15s-38.47,2.52-47.35-45.15c0,0-32.55,3.42-54.75,15.87C36.89,74.42-0.1,174.24-0.1,174.24
	l56.97,35.47l-9.62,166.8h113.93H275.1l-9.62-166.8L322.45,174.24z"/>
</svg>
