<?xml version="1.0" encoding="utf-8"?>
<!-- Generator: Adobe Illustrator 24.2.3, SVG Export Plug-In . SVG Version: 6.00 Build 0)  -->
<svg version="1.1" id="Слой_1" xmlns="http://www.w3.org/2000/svg" xmlns:xlink="http://www.w3.org/1999/xlink" x="0px" y="0px"
	 viewBox="0 0 584.01 375.09" style="enable-background:new 0 0 584.01 375.09;" xml:space="preserve">
<style type="text/css">
	.st0{fill:none;}
	.st1{fill:url(#SVGID_1_);}
	.st2{fill:#AED9C4;}
	.st3{fill:none;stroke:#FFFFFF;stroke-miterlimit:10;}
	.st4{fill:#A3CCAC;}
	.st5{fill:#97CEA2;}
	.st6{opacity:0.76;}
	.st7{fill:#C5EACE;}
	.st8{fill:#FFFFFF;}
	.st9{fill:url(#SVGID_2_);}
	.st10{fill:url(#SVGID_3_);}
	.st11{fill:#F7E7BF;}
	.st12{fill:url(#SVGID_4_);}
	.st13{fill:url(#SVGID_5_);}
	.st14{fill:url(#SVGID_6_);}
	.st15{fill:#E5EFC5;}
	.st16{fill:#F0FCD3;}
	.st17{fill:url(#SVGID_7_);}
	.st18{fill:url(#SVGID_8_);}
	.st19{fill:url(#SVGID_9_);}
	.st20{fill:url(#SVGID_10_);}
	.st21{fill:#FFE594;}
	.st22{clip-path:url(#SVGID_12_);fill:url(#SVGID_13_);}
	.st23{fill:#5B2A1E;}
	.st24{fill:#917673;}
	.st25{fill:url(#SVGID_14_);}
	.st26{fill:url(#SVGID_15_);}
	.st27{fill:url(#SVGID_16_);}
	.st28{fill:url(#SVGID_17_);}
	.st29{opacity:0.62;fill:#FFFFFF;}
	.st30{opacity:0.41;fill:#FFFFFF;}
	.st31{opacity:0.26;fill:#FFFFFF;}
	.st32{opacity:0.17;}
	.st33{opacity:0.05;fill:#E3E9E5;}
	.st34{clip-path:url(#SVGID_19_);}
	.st35{opacity:0.76;clip-path:url(#SVGID_19_);fill:#FFFFFF;}
	.st36{clip-path:url(#SVGID_19_);fill:url(#SVGID_20_);}
	.st37{clip-path:url(#SVGID_19_);fill:none;stroke:#FFFFFF;stroke-width:2;stroke-linecap:round;stroke-miterlimit:10;}
	.st38{clip-path:url(#SVGID_19_);fill:url(#SVGID_21_);}
	.st39{clip-path:url(#SVGID_19_);fill:url(#SVGID_22_);}
	.st40{clip-path:url(#SVGID_19_);fill:url(#SVGID_23_);}
	.st41{clip-path:url(#SVGID_19_);fill:url(#SVGID_24_);}
	.st42{clip-path:url(#SVGID_19_);fill:#FFFFFF;}
	.st43{clip-path:url(#SVGID_19_);fill:url(#SVGID_25_);}
	.st44{opacity:0.62;clip-path:url(#SVGID_27_);fill:#FFFFFF;}
	.st45{clip-path:url(#SVGID_27_);fill:#FFFFFF;}
	.st46{opacity:0.41;clip-path:url(#SVGID_27_);fill:#FFFFFF;}
	.st47{clip-path:url(#SVGID_27_);fill:none;}
	.st48{clip-path:url(#SVGID_29_);}
	.st49{fill:url(#SVGID_30_);}
	.st50{opacity:0.74;clip-path:url(#SVGID_32_);fill:url(#SVGID_33_);}
	.st51{fill:#E6E6E6;}
	.st52{fill:none;stroke:#4D4D4D;stroke-width:0.75;stroke-linecap:round;stroke-miterlimit:10;}
	.st53{fill:url(#SVGID_34_);}
	.st54{opacity:0.3;fill:#FFFFFF;}
	.st55{opacity:0.74;fill:url(#SVGID_35_);}
	.st56{opacity:0.74;fill:url(#SVGID_36_);}
	.st57{opacity:0.74;fill:url(#SVGID_37_);}
	.st58{opacity:0.74;fill:url(#SVGID_38_);}
	.st59{fill:url(#SVGID_39_);}
	.st60{opacity:0.66;}
	.st61{opacity:0.37;fill:#FFFFFF;}
	.st62{fill:url(#SVGID_40_);}
	.st63{fill:url(#SVGID_41_);}
	.st64{fill:url(#SVGID_42_);}
	.st65{opacity:0.74;fill:url(#SVGID_43_);}
	.st66{fill:url(#SVGID_44_);}
	.st67{fill:url(#SVGID_45_);}
	.st68{opacity:0.74;fill:url(#SVGID_46_);}
	.st69{opacity:0.74;fill:url(#SVGID_47_);}
	.st70{opacity:0.74;fill:url(#SVGID_48_);}
	.st71{opacity:0.74;fill:url(#SVGID_49_);}
	.st72{fill:url(#SVGID_50_);}
	.st73{opacity:0.76;fill:#FFFFFF;}
	.st74{fill:url(#SVGID_51_);}
	.st75{fill:none;stroke:#FFFFFF;stroke-width:2;stroke-linecap:round;stroke-miterlimit:10;}
	.st76{fill:url(#SVGID_52_);}
	.st77{fill:url(#SVGID_53_);}
	.st78{fill:url(#SVGID_54_);}
	.st79{fill:url(#SVGID_55_);}
	.st80{fill:url(#SVGID_56_);}
	.st81{fill:url(#SVGID_57_);}
	.st82{fill:url(#SVGID_58_);}
</style>
<path class="st73" d="M513.95,109.98c-3.33-5.06-62.13-30.06-74.18-36.91c-13.34-7.58-20.79-21.31-25.72-32.4
	c-1.17-2.64-13.75-3.9-25-3.9c-11.25,0-23.83,1.25-25,3.9c-4.93,11.09-12.38,24.82-25.72,32.4c-12.04,6.85-70.84,31.85-74.18,36.91
	c-3.33,5.06-0.95,19.07,4.05,18.12c5-0.95,102.51-55.62,106.26-57.2c3.75-1.58,14.59-1.58,14.59-1.58s10.83,0,14.58,1.58
	c3.75,1.58,101.26,56.25,106.26,57.2C514.9,129.05,517.28,115.04,513.95,109.98z"/>
<linearGradient id="SVGID_1_" gradientUnits="userSpaceOnUse" x1="233.7766" y1="216.0389" x2="544.3356" y2="216.0389">
	<stop  offset="0" style="stop-color:#F4CBBF"/>
	<stop  offset="0.4374" style="stop-color:#E8BBAA"/>
	<stop  offset="0.5056" style="stop-color:#E6B8A6"/>
	<stop  offset="1" style="stop-color:#D6957A"/>
</linearGradient>
<path class="st1" d="M544.34,180.35c0,0-35.61-96.11-56.98-108.09c-21.37-11.98-52.71-15.28-52.71-15.28
	c-8.55,45.9-45.59,43.47-45.59,43.47s-37.04,2.43-45.59-43.47c0,0-31.34,3.3-52.71,15.28c-21.37,11.98-56.98,108.09-56.98,108.09
	l54.85,34.15l-9.26,160.59h109.69h109.69l-9.26-160.59L544.34,180.35z"/>
<path class="st75" d="M378.32,15.31c0-6.68,6.11-11.94,13.04-10.49c4.06,0.85,7.34,4.13,8.18,8.18c1.21,5.8-2.27,11.02-7.34,12.57
	c-1.91,0.58-3.15,2.42-3.15,4.42v8.56"/>
<linearGradient id="SVGID_2_" gradientUnits="userSpaceOnUse" x1="233.3684" y1="185.7234" x2="240.347" y2="185.7234">
	<stop  offset="0" style="stop-color:#F4CBBF"/>
	<stop  offset="0.4374" style="stop-color:#E8BBAA"/>
	<stop  offset="0.5056" style="stop-color:#E6B8A6"/>
	<stop  offset="1" style="stop-color:#D6957A"/>
</linearGradient>
<line class="st9" x1="233.37" y1="226.9" x2="240.35" y2="144.55"/>
<path class="st73" d="M387.51,109.98c-3.33-5.06-62.13-30.06-74.18-36.91c-13.34-7.58-20.79-21.31-25.72-32.4
	c-1.17-2.64-13.75-3.9-25-3.9c-11.25,0-23.83,1.25-25,3.9c-4.93,11.09-12.38,24.82-25.72,32.4c-12.04,6.85-70.84,31.85-74.18,36.91
	c-3.33,5.06-0.95,19.07,4.05,18.12c5-0.95,102.51-55.62,106.26-57.2c3.75-1.58,14.58-1.58,14.58-1.58s10.83,0,14.59,1.58
	c3.75,1.58,101.26,56.25,106.26,57.2C388.46,129.05,390.84,115.04,387.51,109.98z"/>
<path class="st75" d="M251.88,15.31c0-6.68,6.11-11.94,13.04-10.49c4.06,0.85,7.34,4.13,8.18,8.18c1.21,5.8-2.27,11.02-7.34,12.57
	c-1.91,0.58-3.15,2.42-3.15,4.42v8.56"/>
<linearGradient id="SVGID_3_" gradientUnits="userSpaceOnUse" x1="130.7777" y1="185.7234" x2="137.7565" y2="185.7234">
	<stop  offset="0" style="stop-color:#F4CBBF"/>
	<stop  offset="0.4374" style="stop-color:#E8BBAA"/>
	<stop  offset="0.5056" style="stop-color:#E6B8A6"/>
	<stop  offset="1" style="stop-color:#D6957A"/>
</linearGradient>
<line class="st10" x1="130.78" y1="226.9" x2="137.76" y2="144.55"/>
<path class="st75" d="M144.55,15.31c0-6.68,6.11-11.94,13.04-10.49c4.06,0.85,7.34,4.13,8.18,8.18c1.21,5.8-2.27,11.02-7.34,12.57
	c-1.91,0.58-3.15,2.42-3.15,4.42v8.56"/>
<linearGradient id="SVGID_4_" gradientUnits="userSpaceOnUse" x1="199.4468" y1="185.7234" x2="206.6657" y2="185.7234">
	<stop  offset="0" style="stop-color:#F4CBBF"/>
	<stop  offset="0.4374" style="stop-color:#E8BBAA"/>
	<stop  offset="0.5056" style="stop-color:#E6B8A6"/>
	<stop  offset="1" style="stop-color:#D6957A"/>
</linearGradient>
<line class="st12" x1="206.67" y1="226.9" x2="199.45" y2="144.55"/>
<linearGradient id="SVGID_5_" gradientUnits="userSpaceOnUse" x1="107.336" y1="216.0389" x2="417.8953" y2="216.0389">
	<stop  offset="0" style="stop-color:#F4CBBF"/>
	<stop  offset="0.4374" style="stop-color:#E8BBAA"/>
	<stop  offset="0.5056" style="stop-color:#E6B8A6"/>
	<stop  offset="1" style="stop-color:#D6957A"/>
</linearGradient>
<path class="st13" d="M417.9,180.35c0,0-35.61-96.11-56.98-108.09c-21.37-11.98-52.71-15.28-52.71-15.28
	c-8.55,45.9-45.59,43.47-45.59,43.47s-37.04,2.43-45.59-43.47c0,0-31.34,3.3-52.71,15.28s-56.98,108.09-56.98,108.09l54.85,34.15
	l-9.26,160.59h109.69h109.69l-9.26-160.59L417.9,180.35z"/>
<path class="st8" d="M280.17,109.98c-3.33-5.06-62.13-30.06-74.18-36.91c-13.34-7.58-20.79-21.31-25.72-32.4
	c-1.17-2.64-13.75-3.9-25-3.9c-11.25,0-23.83,1.25-25,3.9c-4.93,11.09-12.38,24.82-25.72,32.4c-12.04,6.85-70.84,31.85-74.18,36.91
	c-3.33,5.06-0.95,19.07,4.05,18.12c5-0.95,102.51-55.62,106.26-57.2c3.75-1.58,14.59-1.58,14.59-1.58s10.83,0,14.58,1.58
	c3.75,1.58,101.26,56.25,106.26,57.2C281.13,129.05,283.51,115.04,280.17,109.98z"/>
<linearGradient id="SVGID_6_" gradientUnits="userSpaceOnUse" x1="0" y1="216.0389" x2="310.559" y2="216.0389">
	<stop  offset="0" style="stop-color:#F4CBBF"/>
	<stop  offset="0.4374" style="stop-color:#E8BBAA"/>
	<stop  offset="0.5056" style="stop-color:#E6B8A6"/>
	<stop  offset="1" style="stop-color:#D6957A"/>
</linearGradient>
<path class="st14" d="M310.56,180.35c0,0-35.61-96.11-56.98-108.09c-21.37-11.98-52.71-15.28-52.71-15.28
	c-8.55,45.9-45.59,43.47-45.59,43.47s-37.04,2.43-45.59-43.47c0,0-31.34,3.3-52.71,15.28C35.61,84.24,0,180.35,0,180.35l54.85,34.15
	l-9.26,160.59h109.69h109.69l-9.26-160.59L310.56,180.35z"/>
</svg>
