<svg version="1.1" id="Слой_1" xmlns="http://www.w3.org/2000/svg" x="0" y="0" viewBox="0 0 515 671" xml:space="preserve"><style>.st186{fill:#ff6b81}.st458{fill:#fec3b5}.st459{fill:#ffe4da}.st490{fill:#b49b83}</style><path class="st186" d="M366.58 565.17c2.92 18.78 7.09 31.66 10.17 51.49 2.8 18.06 6.5 36.01 7.3 54.34H277.27c-2.66-9.13-25.62-87.74-28.85-92.97-1.52-2.45-3.42-2.89-3.42-2.89-1.23-.3-2.59.03-4.23.91-6.74 3.61-9.7 9.73-11.02 16.77-2.38 12.63-4.69 25.29-6.69 37.99-2.05 13.02-5.11 25.88-6.14 39.06l.18 1.14H104.01a2342.994 2342.994 0 0021.85-114.63c2.7-9.6 4.77-19.43 10.05-28.12 4.57-7.53 7.19-15.82 9.51-24.24 7.02-25.48 11.86-51.63 23.35-75.73 2.55-2.99 1.92-8.16 6.63-9.67 2.41-2.2 7.46-1.07 7.68-6.06 1.04-.67.96-1.66.78-2.69 0-1.02.01-2.04.01-3.06.05-.47.18-.96.14-1.42-.34-3.91.61-5.07 4.21-2.38 5.71 4.27 11.61 8.29 17.43 12.41 5.23 2.42 5.89 2.1 9.57-4.67 3.2-.09 6.4-.17 9.59-.26 12.99.03 25.98.05 38.96.08 11.28.23 22.57.54 33.76 2.06 9.45 1.28 18.21-1.29 26.92-4.36-2.87 5.02-7.81 8.88-8.45 15.14-1.82 2.89-.95 5.77.83 8.04 1.2 1.54 4.02 1.29 5.43.39 2.55-1.63 3.41-4.76 4.46-7.55 3.04-2.79 3.51-7.7 7.78-9.47 5.25 22.75 9.97 45.65 15.96 68.2 2.96 11.13.77 22.88 5.27 33.66.49 1.17-.02 2.89-.44 4.25-.72 2.36-.14 3.99 1.97 5.3 1.52.94 2.63 2.05 3.37 3.34 1.41 2.45 1.24 5.28 1.13 6.37-1.02 9.82 3.3 19.47 4.82 29.23z"/><path class="st458" d="M366.58 565.17l-.81-3.11c2.21-.32 1.72-2.09 1.65-3.41-.29-4.98-.5-9.98-1.13-14.92-2.57-20.07-7.61-39.7-10.92-59.63-2-12.04-2.86-24.26-4.23-36.4 3.5-2.21 3.63-6.32 4.53-9.56 3.77-13.5 5.42-27.35 5.14-41.42-.21-10.61 5.88-18.46 15.9-22.25 5.54-2.09 11.12-1.33 16.7-1.6 1.09-.05 2.42.27 2.94-1.08.49-1.27-.55-2.05-1.26-2.91-1.67-2.05-4.58-3.32-4.22-6.65 3.95-3.45.07-4.38-1.91-5.93-2.51-7.29-6.7-13.56-11.71-19.33-.33-2.34-2.02-2.28-3.63-1.85-2.32.61-4.55 1.52-6.84 2.24-5.71 1.8-10.27 5.75-15.63 8.2 3.38-15.54 6.62-31.11 10.18-46.61 4.87-21.17 10.82-42.06 17-62.89 1.24-.11 2.48-.21 3.89-.33-3.19-1.85-3.19-1.85-3.98-4.61.99-1.04 1.66-2.15 2.12-3.62 2.34-7.38 3.89-14.93 4.55-22.59 1.17-13.47-1.08-25.71-14.02-33.37-1.27-.75-2.3-1.78-2.42-3.41 4.56.05 8 2.72 10.96 5.56 6.4 6.14 13.73 10.54 21.8 14.06 13.04 5.68 23.28 15.57 34.52 23.91 17.22 12.78 34.26 25.81 51.17 39 8.27 6.45 15.96 13.59 20.87 23.15.88 1.72 1.83 3.45 1.6 5.5-1.47 1.99-4.21 4.03-4.13 5.95.16 3.95-2.07 4.42-4.71 5.1l.01.01c.02-.31.03-.63.04-.94.06-.15.11-.3.17-.44-.08.12-.17.24-.25.36-1.07.02-2.16-.05-2.9.96-.33.34-.65.68-.98 1.02l.04-.03c-5.36.88-10.73 1.73-16.09 2.66-4.6.8-9.35-.4-13.88 1.1-1.19.39-2.82.56-2.59 2.27.21 1.61 1.76 1.62 3.05 1.69 4.66.28 9.29.02 13.9-.71-2.79 5.79-3.92 12.08-5.64 18.2-1.98 7.04-1.53 7.8 5.72 7.86l-.03 2.82c-6.61 6.44-13.57 12.46-21.16 17.72-2.11-1.93-4.55-1.3-6.83-.64-7.85 2.26-15.84 4.14-23.37 7.42-7.93 3.45-15.84 6.99-22.68 12.4-2.11 1.67-4.57 3.65-3.34 6.86 1.19 3.09 4.03 4.17 7.11 3.84 2.76-.29 4.93.85 7.19 1.99 1.97 4.75 1.19 9.86 1.65 14.77 2.07 21.83 3.5 43.72 5.25 65.58 1.79 22.34 3.75 44.66 5.51 67 .72 9.17 1.07 18.37 1.71 27.54.17 2.5-1.73 2.88-3.19 3.67-11.9 6.37-24.76 9.23-38.12 9.8-8.09.32-16.18.03-24.27.03zm55.39-264.9c.11.3.18.84.33.86 5.48.84 10.08-1.57 13.99-4.78 2.28-1.87-.52-1.87-1.75-2.11-.69-3.45-10.06-9.38-13.1-8.19-.83.33-1.83 1.07-2.1 1.84-1.66 4.76-5.34 8.97-4.12 14.54-7.61 5.35-12.57 14.05-22.11 16.96 6.82.48 16.46-6.29 24.88-16.91 1.33-.73 2.66-1.47 3.98-2.21zm41.68-63.32l-.36-.21c.12.07.24.13.36.21.51 8.82-3.05 16.32-8.14 23.08-4.14 5.51-8.87 10.58-13.35 15.83-1.03 1.21-2.45 2.21-1 4.09 1.48 1.91 2.95 1.18 4.67.42 4.7-2.08 7.19-6.44 10.11-10.16 6.49-8.29 11.68-17.26 11.64-28.36 0-2.94-.91-4.64-3.93-4.9zm-9.8 45.14c9.18-1.68 18.57-2.78 25.98-9.39 4.07-3.62 6.33-8.03 6.12-13.55-.05-1.21.51-2.91-1.08-3.37-1.87-.55-2.6 1.42-3 2.53-1.1 3.05-3.49 4.94-5.5 7.21-6.29 7.1-13.91 12.3-22.52 16.57zm-7.73-42.88c0-4.62.04-7.85-.02-11.08-.03-1.44-.75-2.61-2.29-2.62-1.51-.01-2.97.61-3.27 2.3-.25 1.41-.48 3.03-.05 4.33 2.02 6.09.02 11.43-2.84 16.59-1.03 1.86-2 3.76.11 5.08 2.14 1.34 3.97.56 5.78-1.58 3.73-4.42 2.31-9.51 2.58-13.02zm34.41 43.15c-5.91-.52-11.73-1.47-17.51.29-1.88.57-3.55 1.5-4.85 3.02-.86 1-1.65 2.06-1.05 3.47.56 1.3 1.83 1.13 2.93 1.15 7.84.1 14.32-3.37 20.48-7.93zm21.98-2.73c1.24-.41 3.21.79 3.32-1.58.07-1.43-5.21-7.13-6.3-6.81-2.52.74-2.56 3.34-2.61 5.11-.1 3.96 3.35 2.83 5.59 3.28z"/><path class="st186" d="M137.6 196.05c.44-8.94-2.52-16.74-7.61-23.97-5.06-7.19-5.37-14.83-.71-22.29 5.87-9.4 7.36-19.44 5.75-30.23-1.39-9.32.97-17.69 7.49-24.62 10.14-10.76 12.9-23.17 10.05-37.61-3.17-16.07 4.67-29.27 21.28-37.22 4.44-2.13 8.1-3.86 9.38-9.64 1.26-5.65 6.75-8.78 12.36-8.34 18.94 1.49 37.14 6.35 54.31 14.52 5.15 2.45 7.46 7.89 9.87 12.85 8.18 16.85 16.19 33.77 24.53 50.54 15.54 31.24 36.33 58.33 63.9 79.98 1.11.87 2.51 1.53 2.92 3.1-13.95-.36-27.54 1.79-40.86 5.84-3.85-.06-7 .98-9.56 4.29-1.8 2.34-4.53 3.98-6.94 5.82-2.76 2.11-6.2 3.37-8.12 6.53-2.76 2.59-4.12 5.79-3.58 10.92-2.91-4.47-2.82-7.84-1.8-11.36 1.07-3.69 2.6-7.28 2.49-11.23-.36-4.06-1.39-8.09-6.3-7.93-4.2.14-2.96 4.09-3.23 6.77-.2 1.32-.39 2.64-.59 3.96l-.12.99c-1.95 8.89-8.03 14.9-14.49 20.59-5.49 4.84-7.52 10.6-5.53 17.78 1.6 5.77.49 11.14-2.88 16.12-2.26 3.33-4.32 6.78-6.47 10.18-2.04 1.89-1.51 5.5-4.46 7.03-1.58-4.2.62-7.79.86-11.54 3.36-5.55 1.84-11.27.35-16.86-2.43-9.14-2.2-18.17 2.38-26.38 5.69-10.2 3.8-19.63-1.12-29.26-.44.29-.87.51-1.21.83-7.94 7.44-8.65 16.6-5.9 26.36 2.27 8.08.99 15.26-4.11 21.91-2.26 2.94-4.07 6.19-5.03 9.84-1.6 4.63-.17 9.35-.44 14.08-2.55-7.81-8.23-14.66-6.77-23.58 4.88-7.89 5.27-15.76.7-24.07-3.91-7.09-8.37-14.13-7.62-22.83 1.16-5.76 5.12-9.66 9.25-13.26 7.72-6.72 9.82-14.43 5.16-23.73-1.14-7.93.14-15.36 4.5-22.17.17-.78-.06-1.32-.89-1.53l.18.01c9.78-7.36 11.3-14.27 5.35-24.63-1.93-3.36-3.83-6.76-6.07-9.91-6.01-8.45-9.52-17.55-8.36-28.12.33-2.96-.21-5.86-1.96-8.33-4.66-6.58-9.28-13.2-15.04-18.91-2.41-2.43-5.19-3.42-8.69-2.92-15.17 2.18-31.4 22.29-30.31 37.71 7.43-3.1 8.55-2.85 8.99 2.07-9.89 1.82-10.97 3.01-10.13 13.01.43 5.11 1.57 10.17.93 15.34-1.06 3.99-.76 7.97-.02 11.97 3 16.35 11.67 26.21 25.6 29.08 0 0 .01.03.02.03-.44 1.37-.37 1.44 1.55 1.69l-.06.01c1.21 1.02 2.41 2.05 3.62 3.07.31.28.62.56.93.85.43.46.85.92 1.28 1.39-.09.2-.05.36.12.49l.88 1.06-.08-.01c2.56 5.02 4.43 10.26 4.92 15.92.6 6.9 2.64 13.45 4.78 19.98.51 2.36.9 4.75 1.56 7.07 4.05 14.29 7.27 28.54 1.19 43.15-1.02 2.45-1.39 5.33.24 7.92 2.4 8.54 4.45 17.03-3.16 24.26-5.3 3.97-7.24 9.6-6.37 15.77 1.63 11.49-4.37 20.94-7.27 31.94-2.12-4.31-4.71-7.4-7.3-10.47-5.3-6.28-7.3-13.52-6.36-21.62.65-5.6 1.49-11.19 2.04-16.8.62-6.3.94-12.72-2.69-18.3-2.49-3.83-5.69-7.19-7.33-11.9-8.14 7.49-12.42 15.86-10.9 26.58.1 5.32-.84 10.49-2.4 15.56-1.64 1.73-2.07 4.34-4.78 6.26 3.07-10.37-.03-18.81-5.75-26.68-4.28-5.88-4.35-12.25-1.64-18.78.98-2.37 2.14-4.66 3.21-6.99.1-.33.21-.66.32-.99-.26.17-.53.34-.79.51-6.33 4.52-12.88 8.78-18 15.74-.9-6.09 1.31-10.71 3.58-15.26 2.39-4.8 4.62-9.63 4.55-15.11.02-1.39.97-3.46-1.57-3.89z"/><path class="st458" d="M160.92 245.66c-1.52-10.72 2.76-19.09 10.9-26.58 1.64 4.71 4.84 8.07 7.33 11.9 3.63 5.58 3.31 12 2.69 18.3-.55 5.61-1.39 11.2-2.04 16.8-.95 8.1 1.06 15.34 6.36 21.62 2.59 3.07 5.18 6.16 7.3 10.47 2.91-11 8.9-20.45 7.27-31.94-.87-6.18 1.07-11.8 6.37-15.77 1.99.87.8 2.59 1.05 3.93-.27.74-.66 1.46-.79 2.23-3.28 19.66-7.54 39.13-12.12 58.51-4.96 20.98-6.89 42.16-6.15 63.64l-.09 2.87c-.34.64-.68 1.27-1.01 1.91-3.79-1.2-6.72-3.93-7.84-7.34-3.03-9.23-9.31-15.24-17.43-19.79-2.81-4.46-7.53-6.79-11.35-10.12-1.57-1.37-2.96-3.36-6.12-2.83 3.94 3.77 7.32 7.44 11.18 10.52 1.96 1.56 2.58 3.1 2.45 5.31-.94 2.29-1.89 4.57-2.83 6.86-.35.89-.48 2-1.09 2.63-3.16 3.25-3.39 6.22.42 9.14.43.33.48 1.15.71 1.74-.8.1-1.79-.08-2.36.33-6.69 4.84-15.28 16.22-11.56 26.62 1.82 5.08 1.23 9.56-1.55 14.28-2.83 4.8-5.32 9.85-6.7 15.41-2.98 12.03-5.49 24.17-6.92 36.46-.66 5.66-2.52 11.45-.26 17.22.28.72.15 1.75 1.22 1.8.93.04 1.34-.72 1.61-1.52 1.7-4.97 3.45-9.93 5.07-14.92 4.37-13.43 8.25-26.97 16.82-38.68 5.12-6.99 11.38-13.11 15.37-21.03 2.13-4.22 3.19-9.07 6.54-12.66 2.24 4.29.45 8.55-.28 12.74-.4 2.3.2 2.96 2.28 2.89-4.7 1.51-4.08 6.68-6.63 9.67-1.19-1.09-1.74.08-2.24.75-10.27 14.01-18.24 29.24-24.09 45.58-3.25 9.1-4.75 18.68-7.27 27.95-2.48 9.14.64 18.87-4.16 27.77-1.25 2.32-1.84 3.83-4.36 4.36-8.99 1.89-17.8 4.5-26.52 7.35-2.25.73-5.27.63-6.29 3.66-3.42-2.3-3.25-5.69-2.57-9.09 4.13-20.66 8.35-41.31 12.51-61.97 4.79-23.81 9.54-47.64 14.34-71.45.28-1.41.82-2.77 1.24-4.15 3.72.91 6.19 4.03 9.62 5.45.91.38 1.88.62 2.77.02.7-.46.58-1.32.03-1.61-4.09-2.21-7.62-5.64-12.66-5.77-5.23-4.58-11.88-6.48-18.02-9.21-28.77-12.82-57.01-26.66-84.51-42.02a31.73 31.73 0 01-6.94-5.22c-6.09-6.08-7.46-12.87-3.86-20.75 4.63-10.14 12.28-18.15 19.47-26.39C49.34 265.94 77.11 242.37 106 220c10.45-8.09 21.05-15.99 31.6-23.95 2.54.43 1.59 2.5 1.61 3.86.07 5.49-2.15 10.32-4.55 15.11-2.27 4.55-4.47 9.17-3.58 15.26 5.12-6.96 11.67-11.22 18-15.74.15.17.31.33.48.49-1.08 2.33-2.23 4.62-3.21 6.99-2.71 6.53-2.64 12.9 1.64 18.78 5.72 7.87 8.82 16.31 5.75 26.68 2.72-1.92 3.14-4.53 4.78-6.26.1 1.45.4 2.91.27 4.34-1.49 15.59-1.58 31.19.12 46.76.66 6.09 1.58 12.19 4.32 17.81.32-.67.41-1.31.31-1.91-1.9-10.5-2.21-20.98-1.05-31.65.9-8.28 2.92-16.57 2.07-24.93-.78-7.67-2.19-15.27-1.83-23.03.05-1.36-.13-2.62-1.81-2.95zm-67.1 51.49c5.7-.44 9.97-4.22 14.88-6.48 4.97-2.28 9.7-5.13 15.43-5.02-.77.56-1.46 1.3-2.31 1.66-15.05 6.42-28.97 14.78-42.25 24.28-4.14 2.97-4.19 3.3.54 5.38 13.85 6.09 27.7 12.2 41.67 18.02 3.72 1.55 6.96 4.91 11.58 3.82 3.48.86 6.39 3.4 10.83 3.81-3-3.46-6.95-3.23-9.91-5 1.55-4.84 4.74-8.38 9.06-10.84 1.98-1.13 2.49-2.21 2.14-4.59-1.88-12.71-3.48-25.47-5.13-38.22-.23-1.76-.59-3.21-2.77-3.18-.06-4.31-1.57-8.4-1.37-12.85.32-7.27 1.78-14.02 5.57-20.24.42-.68.73-1.53.09-2.25-.71-.81-1.54-.28-2.17.13-2.27 1.49-4.61 2.74-6.29 5.13-5.52 7.86-8.23 17.69-16.38 23.68-4.95 3.64-7.22 11.77-15.77 9.6-.4-.1-1.21.93-1.65 1.57-2.5 3.59-5.13 7.1-5.79 11.59-.32.34-1.2.52-.34 1.19.11-.39.22-.79.34-1.19zm-17.46 73.8c1.18 1.18 1.38 1.57 1.62 1.6 16.69 1.67 33.36 2.75 50.01-.45 2.51-.48 5.65-1.17 5.05-3.79-.57-2.49-3.91-1.38-5.94-.78-8.73 2.6-17.65 3.49-26.71 3.44-7.69-.05-15.39-.02-24.03-.02zm2.04-48.43c.03-2.31-.11-4.94-2.51-5.3-2.48-.37-2.51 2.57-2.89 4.24-1.72 7.51-6.19 12.99-12.18 17.48-.6.45-1.45 1.21-1.4 1.75.11 1.25 1.37 1.12 2.3 1.11 1.6-.02 3.27.35 4.74-.55 7.07-4.31 10.52-10.9 11.94-18.73zm-5.45-7.51c-10.2-3.87-37.33-8-46.45-7.1-4.04.4-8.16 1.08-11.35 5.65 4.07-.01 7.32.34 10.67-.34 11.25-2.29 22.45-2.92 33.79.03 3.86 1 7.85 2.9 13.34 1.76zm33.31 18.51c-.13-1.15-1.07-1.54-1.92-1.97-2.29-1.17-4.63-2.26-6.91-3.46-2.39-1.25-3.66-.68-4.79 1.9-1.12 2.58-2.11 5.37-4.46 7.31-1.01.84-2.65 1.86-1.35 3.55 1.01 1.32 2.7 1.24 4.03.73 4.32-1.68 8.6-3.49 12.81-5.44 1.05-.48 2.42-1.07 2.59-2.62zm-56.23-5.07c7.26-.77 12.43-7.16 19.44-9.67.63-.23.82-1.14.32-1.61-.4-.37-1.17-.51-1.76-.47-7.32.49-14.37 1.85-20.43 6.42-1.4 1.06-3.57 1.88-2.91 3.89.69 2.19 3.08.85 5.34 1.44z"/><path class="st459" d="M243.16 242.4c2.15-3.4 4.22-6.86 6.47-10.18 3.37-4.97 4.48-10.35 2.88-16.12-1.99-7.19.04-12.94 5.53-17.78 6.46-5.69 12.54-11.71 14.49-20.59.11-.09.32-.18.31-.26-.02-.25-.12-.49-.19-.73.2-1.32.39-2.64.59-3.96 3.23-.09 6.42.25 9.53 1.15.1 3.95-1.43 7.55-2.49 11.23-1.02 3.52-1.1 6.89 1.8 11.36-.54-5.13.81-8.33 3.58-10.92.52 1.62 1.76 1.26 2.76.81 8.42-3.74 16.05-8.72 22.91-14.85 1.51-1.35-.92-1.64-1.06-2.61 13.32-4.05 26.91-6.2 40.86-5.84l-.08-.05c.16.8.45 1.02.97.21 5.48 1.61 10.97 3.22 16.45 4.84.12 1.62 1.16 2.66 2.42 3.41 12.94 7.65 15.19 19.9 14.02 33.37-.66 7.66-2.22 15.22-4.55 22.59-.47 1.47-1.14 2.58-2.12 3.62-1.47.88-2.93.51-4.55.38-11.18-.88-20.06 1.62-23.62 14.17-1.39 3.37-3.7 6.23-4.89 9.75-3.16 9.37-1.95 18.79-.81 28.25-2.58 1.5-4.46-1.76-6.93-1.01-6.38-2.8-13.19-4.19-19.9-5.91-16.37-4.21-33.08-7.42-48.06-15.85-5.68-2.3-12.79-6-19.8-12.06-2.5-2.15-4.66-4.33-6.52-6.42zm42.26-35.54c3.14.01 5.79-2.16 8.76-3.3 9.38-3.6 16.25-9.63 17.68-20.3.15-1.13.68-2.34-.41-3.12-1.14-.82-2.12.11-3.02.79-8.84 6.74-15.41 16.04-24.86 22.11-.91.58-1.7 1.65-1.02 2.93.57 1.05 1.67.78 2.87.89zM93.84 545.71c1.02-3.03 4.04-2.93 6.29-3.66 8.72-2.85 17.53-5.46 26.52-7.35 2.52-.53 3.11-2.04 4.36-4.36 4.8-8.91 1.68-18.64 4.16-27.77 2.51-9.28 4.01-18.86 7.27-27.95 5.84-16.34 13.82-31.57 24.09-45.58.5-.68 1.05-1.84 2.24-.75-11.49 24.1-16.32 50.26-23.35 75.73-2.32 8.42-4.94 16.72-9.51 24.24-5.28 8.69-7.34 18.52-10.05 28.12-10.7-3.52-22.01-5.15-32.02-10.67z"/><path class="st458" d="M418.01 376.76c-2.26-1.14-4.43-2.28-7.19-1.99-3.08.32-5.92-.75-7.11-3.84-1.23-3.21 1.23-5.19 3.34-6.86 6.84-5.42 14.75-8.95 22.68-12.4 7.53-3.28 15.52-5.15 23.37-7.42 2.28-.66 4.72-1.29 6.83.64-12.17 10.77-25.74 19.61-39.31 28.44-1.42.92-2.8 1.46-2.61 3.43zm82.57-87.35c-.01.31-.02.63-.04.94-.07.12-.13.24-.2.36.06-.12.13-.24.19-.36 2.64-.68 4.88-1.15 4.71-5.1-.08-1.92 2.67-3.96 4.13-5.95 4.44 9.46.49 17.2-5.03 24.63-1.23.11-1.84.79-1.85 2.02-.14.31-.29.62-.43.93-.26.18-.48.4-.63.69l-.18.15c-6.59 1.76-10.26 7.31-14.89 11.6-.25.23.39 1.42.62 2.16-2.46-.06-4.53.68-5.86 2.89-7.25-.06-7.7-.81-5.72-7.86 1.72-6.12 2.85-12.42 5.64-18.2 5.48-1.73 11.54-2.16 15.61-7.01l-.04.03c.48-.19 1.79.41.98-1.02.74-1.01 1.83-.94 2.9-.96l.09.06z"/><path class="st458" d="M486.99 321.46c-.23-.74-.87-1.93-.62-2.16 4.63-4.29 8.3-9.84 14.89-11.6-4.17 5.2-8.56 10.16-14.27 13.76zm-5.86 2.89c1.34-2.22 3.4-2.95 5.86-2.89-.95 2.96-3.82 3.92-5.89 5.71l.03-2.82z"/><path class="st459" d="M377.24 336.96c5.02 5.77 9.2 12.05 11.71 19.33-4.92 4.94-11.84 6.25-17.62 9.65-5.12 3.02-10.86 5.02-15.54 8.75-1.98 1.58-5.47 3.21-2.79 6.95-.04 1.44-.56 2.71-1.02 4.07-1.62 4.8-7.17 7.07-7.74 12.43-4.39 4.88-8.5 9.93-9.76 16.64-4.28 1.77-4.74 6.68-7.78 9.48-4.47-5.41-7.48-4.85-10.36 2.25-.15-1.26-.25-2.19-.36-3.12.64-6.26 5.58-10.12 8.44-15.13.46-.75.93-1.5 1.39-2.26 3.89-4.24 5.65-9.61 7.9-14.73 4.58-10.43 7.26-21.54 11.35-32.15.41 4.74 2.31 1.48 3.19.44 8.12-9.53 17.62-17.26 28.99-22.6z"/><path class="st459" d="M334.49 414.8c1.26-6.72 5.37-11.76 9.76-16.64-.14 16.85 4.84 32.99 6.89 49.54 1.37 12.14 2.23 24.36 4.23 36.4 3.31 19.93 8.36 39.56 10.92 59.63.63 4.94.84 9.94 1.13 14.92.08 1.32.56 3.09-1.65 3.41-2.36-8.56-4.77-17.16-4.02-26.13.36-4.37-.92-7.49-4.51-9.71-2.11-1.31-2.68-2.93-1.97-5.3.41-1.36.92-3.09.44-4.25-4.49-10.79-2.31-22.53-5.27-33.66-5.98-22.57-10.71-45.46-15.95-68.21zm-178.44-48.64c.94-2.29 1.89-4.57 2.83-6.86.34-.01.68-.02 1.02-.02 7.93 1.24 12.16 6.93 15.17 13.47 2.67 5.79 6.25 10.4 11.91 13.37.88.46 1.67 1.31 1.93-.47.28.01.55.04.82.11 1.21 2.85 2.36 5.74 5.42 7.2.62 3.77 4.17 4.39 6.67 6.03 3.29 2.14 7.14 3.47 9.39 7-2.43.12-5.45-1.06-6.44 2.5-1.23 4.42 3.06 4.92 5.69 6.93h-4.82c-5.82-4.12-11.71-8.15-17.43-12.41-3.6-2.69-4.55-1.53-4.21 2.38.04.47-.09.95-.14 1.42-4.4-7.51-10.22-13.98-15.39-20.93-4.24-5.7-10.65-10.14-10.71-18.31-.01-.96-.85-1.29-1.71-1.41z"/><path class="st459" d="M211.21 405.98c-2.25-3.53-6.1-4.86-9.39-7-2.51-1.63-6.06-2.25-6.68-6.02 7.83 2.47 15.55 5.31 23.58 7.14 32.78 7.45 66.07 5.89 99.29 5.67 2.6.08 5.2.16 7.8.25-.47.76-.93 1.51-1.39 2.26-8.7 3.06-17.46 5.63-26.91 4.35-11.2-1.51-22.48-1.83-33.76-2.06-5.37-1.62-10.89-.75-16.32-.72-7.55.05-15.14-.91-22.65.64-3.2.09-6.4.17-9.59.26-2.55-.56-2.64-3.19-3.98-4.77z"/><path class="st186" d="M156.05 366.16c.85.12 1.7.45 1.71 1.39.06 8.17 6.47 12.61 10.71 18.31 5.16 6.95 10.99 13.42 15.39 20.93 0 1.02-.01 2.04-.01 3.06-.8.74-.72 1.73-.78 2.69-.22 4.99-5.26 3.85-7.68 6.06-2.08.07-2.68-.59-2.28-2.89.74-4.19 2.52-8.45.28-12.74.01-2.6-1.79-4.48-3.02-6.4-3.99-6.24-8.12-12.46-14.28-16.9-.23-.59-.28-1.41-.71-1.74-3.81-2.91-3.59-5.88-.42-9.14.61-.63.74-1.74 1.09-2.63zm159.93 57.25c.11.93.22 1.86.36 3.12 2.88-7.1 5.88-7.66 10.36-2.25-1.05 2.79-1.91 5.92-4.46 7.55-1.41.9-4.23 1.15-5.43-.39-1.77-2.26-2.64-5.15-.83-8.03zm-104.77-17.43c1.34 1.58 1.44 4.2 3.99 4.76-3.68 6.77-4.33 7.09-9.57 4.67h4.82c-2.63-2.01-6.91-2.51-5.69-6.93.99-3.55 4.02-2.38 6.45-2.5z"/><path d="M183.06 412.55c.06-.95-.02-1.95.78-2.69.18 1.03.25 2.02-.78 2.69z" fill="#c18c65"/><path class="st459" d="M344.36 283.65c-1.14-9.45-2.35-18.88.81-28.25 1.18-3.52 3.5-6.38 4.89-9.75 3.26.83 2.89-2.7 4.53-3.91 7.19-5.32 15.12-6.7 23.72-5.7-6.18 20.82-12.13 41.71-17 62.89-3.56 15.5-6.8 31.07-10.18 46.61-2.14.84-2.3 3.07-3.34 4.69-.88 1.35.12 3.76-2.35 4.19.44-5.93 1.11-11.86 1.26-17.8.33-13.19 3.58-26.19 2.42-39.47.72-1.22.73-2.55.64-3.9.01-.32.03-.64.04-.96.05-3.51-1.36-6.16-4.57-7.73-.29-.3-.58-.6-.87-.91z"/><path class="st458" d="M351.13 447.7c-2.05-16.55-7.03-32.69-6.89-49.54.56-5.36 6.11-7.63 7.74-12.43.46-1.36.98-2.63 1.02-4.07 3.69-2.56 7.24-5.35 11.09-7.62 8.45-4.97 17.09-9.57 26.77-11.81-.36 3.33 2.56 4.6 4.22 6.65.71.87 1.74 1.65 1.26 2.91-.52 1.35-1.85 1.03-2.94 1.08-5.59.27-11.16-.48-16.7 1.6-10.02 3.78-16.11 11.64-15.9 22.25.28 14.08-1.36 27.92-5.14 41.42-.9 3.23-1.03 7.35-4.53 9.56zm112.52-210.75c3.02.26 3.93 1.96 3.94 4.89.04 11.1-5.15 20.07-11.64 28.36-2.92 3.72-5.41 8.08-10.11 10.16-1.72.76-3.19 1.49-4.67-.42-1.45-1.88-.03-2.88 1-4.09 4.48-5.25 9.21-10.32 13.35-15.83 5.08-6.76 8.63-14.25 8.13-23.07z"/><path d="M419.65 246.83c-1.58 9.78-6.13 18.41-10.92 26.9-9.75 17.3-22.06 32.87-33.32 49.16-2.4 3.47-3.56 7.76-7.48 11.88.58-7.14 4.38-11.34 7.45-15.75 13.87-19.96 29.15-39.01 39.36-61.3 1.64-3.59 2.4-7.59 4.91-10.89z" fill="#ff8a8a"/><path class="st458" d="M453.85 282.09c8.61-4.28 16.23-9.47 22.51-16.57 2.01-2.27 4.4-4.16 5.5-7.21.4-1.11 1.13-3.08 3-2.53 1.59.47 1.04 2.16 1.08 3.37.21 5.52-2.05 9.93-6.12 13.55-7.4 6.61-16.78 7.72-25.97 9.39z"/><path class="st186" d="M345.44 354.42c2.47-.43 1.47-2.84 2.35-4.19 1.05-1.62 1.21-3.84 3.34-4.69 5.36-2.45 9.93-6.4 15.63-8.2 2.29-.72 4.53-1.62 6.84-2.24 1.61-.43 3.31-.49 3.63 1.85-11.37 5.34-20.87 13.06-28.98 22.61-.89 1.05-2.78 4.3-3.19-.43.13-1.57.26-3.14.38-4.71zm45.42 7.8c-9.67 2.23-18.32 6.83-26.77 11.81-3.86 2.27-7.4 5.06-11.09 7.62-2.68-3.74.81-5.37 2.79-6.95 4.67-3.73 10.41-5.74 15.54-8.75 5.78-3.4 12.69-4.71 17.62-9.65 1.98 1.54 5.86 2.47 1.91 5.92z"/><path class="st458" d="M446.12 239.21c-.27 3.5 1.15 8.6-2.58 13.01-1.81 2.14-3.64 2.92-5.78 1.58-2.11-1.32-1.14-3.22-.11-5.08 2.86-5.16 4.86-10.5 2.84-16.59-.43-1.3-.19-2.91.05-4.33.29-1.69 1.76-2.31 3.27-2.3 1.54.01 2.27 1.19 2.29 2.62.06 3.24.02 6.48.02 11.09z"/><path class="st459" d="M378.31 236.05c-8.6-1-16.54.38-23.72 5.7-1.65 1.22-1.27 4.75-4.53 3.91 3.56-12.55 12.44-15.05 23.62-14.17 1.63.13 3.09.51 4.55-.38.79 2.76.79 2.76 3.98 4.61-1.41.12-2.65.22-3.9.33z"/><path class="st458" d="M480.53 282.36c-6.16 4.57-12.64 8.03-20.49 7.92-1.1-.01-2.36.16-2.93-1.15-.6-1.4.19-2.46 1.05-3.47 1.3-1.52 2.97-2.44 4.85-3.02 5.79-1.75 11.61-.8 17.52-.28zm16.13 8.93c-4.07 4.85-10.13 5.28-15.61 7.01-4.61.73-9.24.99-13.9.71-1.28-.08-2.83-.08-3.05-1.69-.23-1.71 1.4-1.88 2.59-2.27 4.54-1.5 9.29-.29 13.88-1.1 5.35-.94 10.72-1.78 16.09-2.66zm-81.43 11.15c.92.02 1.84.04 2.77.05-8.42 10.62-18.06 17.39-24.88 16.91 9.54-2.91 14.5-11.61 22.11-16.96zm87.28-22.81c-2.24-.45-5.7.68-5.59-3.28.05-1.77.09-4.37 2.61-5.11 1.09-.32 6.36 5.39 6.3 6.81-.11 2.37-2.08 1.17-3.32 1.58z"/><path class="st458" d="M497.6 290.29c.81 1.43-.5.83-.98 1.02.33-.34.65-.68.98-1.02z"/><path class="st490" d="M463.65 236.94c-.12-.07-.24-.13-.36-.2.12.07.24.14.36.2 0 .01 0 0 0 0z"/><path class="st458" d="M318.02 405.77c-33.22.22-66.51 1.77-99.29-5.67-8.03-1.82-15.75-4.67-23.58-7.14-3.06-1.46-4.21-4.35-5.42-7.2.11-1.43.55-2.92-.73-4.11l.09-2.87c1.96-.26 2.48-1.6 2.85-3.35.74-3.46 1.89-6.83 2.62-10.29 1.13-5.37 3.68-9.12 9.59-9.88 1.69-.22 3.7-.85 3.97-2.98.23-1.88-1.74-2.05-2.89-2.79-2.68-1.74-4.3-4.31-5.58-7.13-4.33-9.44-1.13-19.08-.43-28.56.99-13.4 5.74-25.99 9.42-38.82 1.93-6.73 3.18-13.81-.49-20.58-.25-1.34.94-3.06-1.05-3.93 7.61-7.23 5.56-15.72 3.16-24.26 1.33-2.93 1.38-6.12 1.97-9.2.99-5.27 1.25-5.33 5.48-2.19-1.46 8.92 4.22 15.77 6.77 23.58.27-4.73-1.16-9.45.44-14.08 5.52 3.83 8.91 9.97 14.64 13.57-.24 3.75-2.44 7.33-.86 11.54 2.95-1.52 2.42-5.14 4.46-7.03 1.13.76 2.25 1.52 3.38 2.28 6.9 6.46 14.36 12.13 22.93 16.21 14.98 8.42 31.69 11.64 48.06 15.85 6.71 1.72 13.51 3.11 19.9 5.91-1.73 1.35-2.12 2.9-1.37 5.09 3.08 8.91 4.19 17.95 2.42 27.38-2.95 15.81-14.26 28.24-31.57 28.67-1.78.05-4.73-.81-4.76 1.8-.04 2.78 2.98 2.94 5.22 2.95 1.41.01 2.84-.47 4.23-.86 2.95-.82 5.84-1.88 8.82-2.58 7.39-1.75 12.24 1.89 12.16 9.41-.18 15.59-3.87 30.29-12.24 43.58-1.55 2.45-2.54 4.81-2.32 7.68z"/><path class="st459" d="M239.56 237.89c-5.73-3.6-9.12-9.74-14.64-13.57.96-3.65 2.77-6.9 5.03-9.84 5.1-6.65 6.38-13.82 4.11-21.91-2.74-9.75-2.04-18.92 5.9-26.36.34-.32.78-.54 1.21-.83 4.92 9.63 6.8 19.06 1.12 29.26-4.58 8.22-4.81 17.25-2.38 26.38 1.49 5.6 3.01 11.32-.35 16.87z"/><path class="st458" d="M160.92 245.66c1.68.32 1.86 1.58 1.8 2.95-.35 7.76 1.05 15.36 1.83 23.03.85 8.36-1.18 16.65-2.07 24.93-1.15 10.68-.85 21.15 1.05 31.65.11.6.01 1.23-.31 1.91-2.75-5.63-3.66-11.73-4.32-17.81-1.69-15.57-1.6-31.17-.12-46.76.14-1.42-.17-2.89-.27-4.34 1.57-5.07 2.51-10.23 2.41-15.56z"/><path class="st459" d="M207.26 168.06c1.18-.05 2.35-.1 3.53-.14-.76 8.7 3.71 15.74 7.62 22.83 4.58 8.3 4.18 16.18-.7 24.07-4.23-3.14-4.49-3.08-5.48 2.19-.58 3.09-.64 6.28-1.97 9.2-1.63-2.59-1.27-5.46-.24-7.92 6.08-14.61 2.86-28.87-1.19-43.15-.67-2.32-1.05-4.72-1.57-7.08z"/><path d="M149.08 214.54c.26-.17.53-.34.79-.51-.11.33-.21.66-.32.99-.15-.15-.31-.31-.47-.48z" fill="#c6ac94"/><path class="st458" d="M137.59 280.81c-4.49 1.61-8.97 3.23-13.46 4.84-5.72-.11-10.46 2.74-15.43 5.02-4.92 2.25-9.18 6.04-14.88 6.48.67-4.49 3.3-8 5.8-11.56.44-.63 1.25-1.67 1.65-1.57 8.56 2.17 10.82-5.96 15.77-9.6 8.15-5.99 10.86-15.83 16.38-23.68 1.68-2.39 4.02-3.65 6.29-5.13.63-.41 1.46-.94 2.17-.13.63.72.32 1.57-.09 2.25-3.79 6.22-5.25 12.97-5.57 20.24-.2 4.44 1.31 8.53 1.37 12.84z"/><path class="st459" d="M208.15 254.4c3.66 6.77 2.42 13.85.49 20.58-3.68 12.82-8.43 25.42-9.42 38.82-.7 9.48-3.89 19.12.43 28.56 1.29 2.81 2.9 5.39 5.58 7.13 1.15.74 3.12.91 2.89 2.79-.27 2.13-2.27 2.76-3.97 2.98-5.91.76-8.45 4.51-9.59 9.88-.73 3.46-1.88 6.83-2.62 10.29-.38 1.75-.89 3.09-2.85 3.35-.74-21.48 1.19-42.65 6.15-63.64 4.58-19.38 8.84-38.85 12.12-58.51.13-.77.52-1.49.79-2.23z"/><path class="st186" d="M188.91 385.65c-.25 1.78-1.05.94-1.93.47-5.65-2.97-9.24-7.58-11.91-13.37-3.01-6.54-7.23-12.23-15.17-13.47 0-1.87 1.59-2.19 2.81-2.86 8.12 4.55 14.4 10.56 17.43 19.79 1.12 3.41 4.05 6.14 7.84 7.34.31.71.62 1.4.93 2.1z"/><path class="st186" d="M188.91 385.65c-.31-.7-.61-1.4-.92-2.09.34-.64.68-1.27 1.01-1.91 1.28 1.19.83 2.68.73 4.11-.27-.07-.55-.1-.82-.11z"/><path class="st490" d="M93.82 297.15c-.11.4-.23.8-.34 1.19-.86-.67.02-.85.34-1.19z"/><path class="st459" d="M318.02 405.77c-.21-2.86.77-5.23 2.32-7.68 8.38-13.29 12.06-27.99 12.24-43.58.09-7.52-4.77-11.16-12.16-9.41-2.98.7-5.87 1.75-8.82 2.58-1.39.39-2.82.87-4.23.86-2.23-.01-5.25-.17-5.22-2.95.03-2.61 2.98-1.75 4.76-1.8 17.3-.44 28.61-12.87 31.57-28.67 1.76-9.43.65-18.48-2.42-27.38-.76-2.19-.36-3.73 1.37-5.09 2.47-.75 4.35 2.51 6.93 1.01.29.3.57.61.86.91 1.3 4.2 2.59 8.39 3.89 12.59 1.16 13.27-2.09 26.28-2.42 39.47-.15 5.94-.82 11.87-1.26 17.8-.12 1.57-.24 3.14-.37 4.71-4.1 10.61-6.77 21.72-11.35 32.15-2.25 5.11-4.01 10.49-7.9 14.73-2.59-.09-5.19-.17-7.79-.25z"/><path d="M349.12 297.16c-1.3-4.2-2.59-8.39-3.89-12.59 3.22 1.58 4.63 4.22 4.57 7.73-.09.09-.27.2-.26.28.03.23.14.45.21.68.09 1.35.08 2.68-.63 3.9z" fill="#f0eee6"/><path d="M349.76 293.26c-.08-.23-.18-.45-.21-.68-.01-.08.17-.19.26-.28-.03.32-.04.64-.05.96z" fill="#ddd7cf"/></svg>