<?xml version="1.0" encoding="utf-8"?>
<!-- Generator: Adobe Illustrator 24.2.3, SVG Export Plug-In . SVG Version: 6.00 Build 0)  -->
<svg version="1.1" id="Слой_1" xmlns="http://www.w3.org/2000/svg" xmlns:xlink="http://www.w3.org/1999/xlink" x="0px" y="0px"
	 viewBox="0 0 565.43 1078.05" style="enable-background:new 0 0 565.43 1078.05;" xml:space="preserve">
<style type="text/css">
	.st0{fill:url(#SVGID_1_);}
	.st1{fill:#AED9C4;}
	.st2{fill:none;stroke:#FFFFFF;stroke-miterlimit:10;}
	.st3{fill:#A3CCAC;}
	.st4{fill:#97CEA2;}
	.st5{opacity:0.76;}
	.st6{fill:#C5EACE;}
	.st7{fill:#FFFFFF;}
	.st8{fill:url(#SVGID_2_);}
	.st9{fill:url(#SVGID_3_);}
	.st10{fill:#F7E7BF;}
	.st11{fill:url(#SVGID_4_);}
	.st12{fill:url(#SVGID_5_);}
	.st13{fill:url(#SVGID_6_);}
	.st14{fill:#E5EFC5;}
	.st15{fill:#F0FCD3;}
	.st16{fill:url(#SVGID_7_);}
	.st17{fill:url(#SVGID_8_);}
	.st18{fill:url(#SVGID_9_);}
	.st19{fill:url(#SVGID_10_);}
	.st20{fill:#FFE594;}
	.st21{clip-path:url(#SVGID_12_);fill:url(#SVGID_13_);}
	.st22{fill:#5B2A1E;}
	.st23{fill:#917673;}
	.st24{fill:url(#SVGID_14_);}
	.st25{fill:url(#SVGID_15_);}
	.st26{fill:url(#SVGID_16_);}
	.st27{fill:url(#SVGID_17_);}
	.st28{fill:url(#SVGID_18_);}
	.st29{opacity:0.62;clip-path:url(#SVGID_20_);fill:#FFFFFF;}
	.st30{opacity:0.75;clip-path:url(#SVGID_20_);fill:#FFFFFF;}
	.st31{opacity:0.41;clip-path:url(#SVGID_20_);fill:#FFFFFF;}
	.st32{clip-path:url(#SVGID_20_);fill:none;}
	.st33{clip-path:url(#SVGID_22_);}
	.st34{opacity:0.26;fill:#FFFFFF;}
	.st35{opacity:0.69;fill:#FFFFFF;}
	.st36{fill:none;}
	.st37{opacity:0.16;fill:#FFFFFF;}
	.st38{opacity:0.3;fill:#FFFFFF;}
	.st39{opacity:0.23;fill:#FFFFFF;}
	.st40{opacity:0.24;fill:#FFFFFF;}
	.st41{opacity:0.17;}
	.st42{opacity:0.05;fill:#E3E9E5;}
	.st43{clip-path:url(#SVGID_24_);}
	.st44{opacity:0.76;clip-path:url(#SVGID_24_);fill:#FFFFFF;}
	.st45{clip-path:url(#SVGID_24_);fill:url(#SVGID_25_);}
	.st46{clip-path:url(#SVGID_24_);fill:none;stroke:#FFFFFF;stroke-width:2;stroke-linecap:round;stroke-miterlimit:10;}
	.st47{clip-path:url(#SVGID_24_);fill:url(#SVGID_26_);}
	.st48{clip-path:url(#SVGID_24_);fill:url(#SVGID_27_);}
	.st49{clip-path:url(#SVGID_24_);fill:url(#SVGID_28_);}
	.st50{clip-path:url(#SVGID_24_);fill:url(#SVGID_29_);}
	.st51{clip-path:url(#SVGID_24_);fill:#FFFFFF;}
	.st52{clip-path:url(#SVGID_24_);fill:url(#SVGID_30_);}
	.st53{opacity:0.62;clip-path:url(#SVGID_32_);fill:#FFFFFF;}
	.st54{clip-path:url(#SVGID_32_);fill:#FFFFFF;}
	.st55{opacity:0.41;clip-path:url(#SVGID_32_);fill:#FFFFFF;}
	.st56{clip-path:url(#SVGID_32_);fill:none;}
	.st57{clip-path:url(#SVGID_34_);}
	.st58{fill:url(#SVGID_35_);}
	.st59{opacity:0.74;clip-path:url(#SVGID_37_);fill:url(#SVGID_38_);}
	.st60{fill:#E6E6E6;}
	.st61{fill:none;stroke:#4D4D4D;stroke-width:0.75;stroke-linecap:round;stroke-miterlimit:10;}
	.st62{fill:url(#SVGID_39_);}
	.st63{opacity:0.74;fill:url(#SVGID_40_);}
	.st64{opacity:0.74;fill:url(#SVGID_41_);}
	.st65{opacity:0.74;fill:url(#SVGID_42_);}
	.st66{opacity:0.74;fill:url(#SVGID_43_);}
	.st67{fill:url(#SVGID_44_);}
	.st68{opacity:0.66;}
	.st69{opacity:0.37;fill:#FFFFFF;}
	.st70{fill:url(#SVGID_45_);}
	.st71{fill:url(#SVGID_46_);}
	.st72{fill:url(#SVGID_47_);}
	.st73{opacity:0.44;clip-path:url(#SVGID_49_);fill:#FFFFFF;}
	.st74{opacity:0.43;clip-path:url(#SVGID_51_);fill:#FFFFFF;}
	.st75{clip-path:url(#SVGID_51_);fill:none;stroke:#FFFFFF;stroke-miterlimit:10;}
	.st76{opacity:0.76;clip-path:url(#SVGID_51_);fill:#FFFFFF;}
	.st77{clip-path:url(#SVGID_51_);fill:#FFFFFF;}
	.st78{opacity:0.08;clip-path:url(#SVGID_51_);fill:#FFFFFF;}
	.st79{opacity:0.27;clip-path:url(#SVGID_51_);fill:#FFFFFF;}
	.st80{opacity:0.37;clip-path:url(#SVGID_51_);fill:#FFFFFF;}
	.st81{clip-path:url(#SVGID_51_);fill:none;}
	.st82{fill:url(#SVGID_52_);}
	.st83{opacity:0.62;clip-path:url(#SVGID_54_);fill:#FFFFFF;}
	.st84{clip-path:url(#SVGID_54_);fill:#FFFFFF;}
	.st85{opacity:0.41;clip-path:url(#SVGID_54_);fill:#FFFFFF;}
	.st86{clip-path:url(#SVGID_54_);fill:none;}
	.st87{clip-path:url(#SVGID_56_);}
	.st88{opacity:0.55;fill:url(#SVGID_57_);}
	.st89{fill:url(#SVGID_58_);}
	.st90{fill:url(#SVGID_59_);}
	.st91{opacity:0.28;}
	.st92{opacity:0.56;clip-path:url(#SVGID_61_);fill:#FFFFFF;}
	.st93{opacity:0.43;clip-path:url(#SVGID_63_);fill:#FFFFFF;}
	.st94{clip-path:url(#SVGID_63_);fill:none;stroke:#FFFFFF;stroke-miterlimit:10;}
	.st95{opacity:0.76;clip-path:url(#SVGID_63_);fill:#FFFFFF;}
	.st96{clip-path:url(#SVGID_63_);fill:#FFFFFF;}
	.st97{opacity:0.08;clip-path:url(#SVGID_63_);fill:#FFFFFF;}
	.st98{opacity:0.27;clip-path:url(#SVGID_63_);fill:#FFFFFF;}
	.st99{opacity:0.37;clip-path:url(#SVGID_63_);fill:#FFFFFF;}
	.st100{clip-path:url(#SVGID_63_);fill:none;}
	.st101{fill:url(#SVGID_64_);}
	.st102{opacity:0.62;clip-path:url(#SVGID_66_);fill:#FFFFFF;}
	.st103{clip-path:url(#SVGID_66_);fill:#FFFFFF;}
	.st104{opacity:0.41;clip-path:url(#SVGID_66_);fill:#FFFFFF;}
	.st105{clip-path:url(#SVGID_66_);fill:none;}
	.st106{clip-path:url(#SVGID_68_);}
	.st107{opacity:0.55;fill:url(#SVGID_69_);}
	.st108{fill:url(#SVGID_70_);}
	.st109{opacity:0.27;}
	.st110{opacity:0.56;clip-path:url(#SVGID_72_);fill:#FFFFFF;}
	.st111{opacity:0.52;clip-path:url(#SVGID_74_);fill:#FFFFFF;}
	.st112{clip-path:url(#SVGID_74_);fill:none;stroke:#FFFFFF;stroke-miterlimit:10;}
	.st113{opacity:0.76;clip-path:url(#SVGID_74_);fill:#FFFFFF;}
	.st114{clip-path:url(#SVGID_74_);fill:#FFFFFF;}
	.st115{opacity:0.08;clip-path:url(#SVGID_74_);fill:#FFFFFF;}
	.st116{opacity:0.27;clip-path:url(#SVGID_74_);fill:#FFFFFF;}
	.st117{opacity:0.37;clip-path:url(#SVGID_74_);fill:#FFFFFF;}
	.st118{clip-path:url(#SVGID_74_);fill:none;}
	.st119{clip-path:url(#SVGID_76_);fill:none;}
	.st120{opacity:0.46;}
	.st121{opacity:0.86;fill:#FFFFFF;}
	.st122{opacity:0.73;fill:#FFFFFF;}
	.st123{opacity:0.54;clip-path:url(#SVGID_78_);fill:#FFFFFF;}
	.st124{opacity:0.62;fill:#FFFFFF;}
	.st125{opacity:0.75;fill:#FFFFFF;}
	.st126{opacity:0.41;fill:#FFFFFF;}
	.st127{opacity:0.44;fill:#FFFFFF;}
	.st128{opacity:0.43;fill:#FFFFFF;}
	.st129{opacity:0.76;fill:#FFFFFF;}
	.st130{opacity:0.08;fill:#FFFFFF;}
	.st131{opacity:0.27;fill:#FFFFFF;}
	.st132{opacity:0.54;fill:#FFFFFF;}
</style>
<path class="st124" d="M118.99,1070.98c-2.72-5.44-9.02-8.73-9.27-15.65c-5.4-16.04,5.97-15.23,15.6-15.25
	c38.3-0.08,76.6-0.02,114.9-0.03c35.91-0.01,35.42-0.05,36.07-36.41c0.74-41.93-2.83-83.94,2.07-125.77
	c6.15-13.28,19.62-10.84,30.29-13.42c49.8-12.02,84.42-41.21,100.05-90.55c23.22-73.29-19.6-148.69-93.49-168.51
	c-12.39-3.32-28.41,1.18-36.73-13.82c-5.18-38.38-1.42-76.92-2.31-115.36c-0.68-29.43-0.97-30.31-29.73-30.38
	c-59.44-0.13-118.89,0.08-178.33-0.14c-10.74-0.04-22.12,1.77-31.16-6.73c-2.49-28.88-2.49-28.87,26.11-28.88
	c156.42-0.03,312.84-0.06,469.25-0.09c3.24,2.29,2.68,5.25,1.43,8.32c-16.77,143.15-33.5,286.3-50.32,429.44
	c-7.69,65.43-15.82,130.81-23.1,196.29c-1.22,10.94-4.69,19.63-12.63,26.78c-7.41,8.19-17.44,7.09-26.83,7.12
	c-91.65,0.24-183.29,0.23-274.94,0.01C136.5,1077.93,126.49,1079,118.99,1070.98z"/>
<path class="st125" d="M308.23,322.77c-2.5-9.16-6.42-23.63-11.13-41.4c-18.9-71.3-28.36-106.95-29.91-115.81
	c-4.41-25.21-13.62-49.34-20.11-74.09c-2.95-11.26-7.71-17.68-18.69-22.1C175.01,47.86,121.58,26.38,69.06,2.91
	C50.89-5.2,49.8,5.92,45.57,16.77c-3.99,10.25-12.88,19.29,6.02,26.52c46.61,17.83,92.21,38.29,138.5,57.02
	c11.13,4.5,17.6,9.97,20.78,22.64c16.68,66.54,34.68,132.75,52.22,199.07C278.14,322.27,293.18,322.52,308.23,322.77z"/>
<path class="st126" d="M37.71,437.32c76.26,0.11,152.52,0.64,228.77,0c16.11-0.14,21.73,4.01,21.33,20.87
	c-1.09,45.73-0.33,91.5-0.31,137.25c-6.41,8.02-16.31,7.08-24.78,8.91c-65.5,14.17-107.75,65.71-107.58,131.99
	c0.17,63.98,44.02,116.81,107.66,130.01c8.65,1.79,18.13,2.02,24.65,9.55c-0.01,51.83-0.58,103.67,0.32,155.49
	c0.28,15.86-5.09,19.97-20.26,19.68c-48.36-0.92-96.76,0.12-145.11-1.08c-9.44-0.23-10.42,2.69-10.71,9.58
	c-4.02-30.62-8.24-61.21-12.02-91.86c-8.03-65.04-15.92-130.09-23.69-195.15c-6.05-50.72-11.92-101.46-17.7-152.2
	C51.33,559.35,44.56,498.33,37.71,437.32z"/>
<path class="st124" d="M558.12,410H4.14c-2.14,0-3.88-1.74-3.88-3.88V369.3c0-2.14,1.74-3.88,3.88-3.88h553.98
	c2.14,0,3.88,1.74,3.88,3.88v36.82C562,408.26,560.26,410,558.12,410z"/>
<path class="st124" d="M534.49,367.33H17.52c-2.14,0-3.88-1.74-3.88-3.88v-36.82c0-2.14,1.74-3.88,3.88-3.88h516.97
	c2.14,0,3.88,1.74,3.88,3.88v36.82C538.37,365.59,536.63,367.33,534.49,367.33z"/>
</svg>
