<?xml version="1.0" encoding="utf-8"?>
<!-- Generator: Adobe Illustrator 24.2.3, SVG Export Plug-In . SVG Version: 6.00 Build 0)  -->
<svg version="1.1" id="Слой_1" xmlns="http://www.w3.org/2000/svg" xmlns:xlink="http://www.w3.org/1999/xlink" x="0px" y="0px"
	 viewBox="0 0 405.41 778" style="enable-background:new 0 0 405.41 778;" xml:space="preserve">
<style type="text/css">
	.st0{fill:none;}
	.st1{fill:url(#SVGID_1_);}
	.st2{fill:#AED9C4;}
	.st3{fill:none;stroke:#FFFFFF;stroke-miterlimit:10;}
	.st4{fill:#A3CCAC;}
	.st5{fill:#97CEA2;}
	.st6{opacity:0.76;}
	.st7{fill:#C5EACE;}
	.st8{fill:#FFFFFF;}
	.st9{fill:url(#SVGID_2_);}
	.st10{fill:url(#SVGID_3_);}
	.st11{fill:#F7E7BF;}
	.st12{fill:url(#SVGID_4_);}
	.st13{fill:url(#SVGID_5_);}
	.st14{fill:url(#SVGID_6_);}
	.st15{fill:#E5EFC5;}
	.st16{fill:#F0FCD3;}
	.st17{fill:url(#SVGID_7_);}
	.st18{fill:url(#SVGID_8_);}
	.st19{fill:url(#SVGID_9_);}
	.st20{fill:url(#SVGID_10_);}
	.st21{fill:#FFE594;}
	.st22{clip-path:url(#SVGID_12_);fill:url(#SVGID_13_);}
	.st23{fill:#5B2A1E;}
	.st24{fill:#917673;}
	.st25{fill:url(#SVGID_14_);}
	.st26{fill:url(#SVGID_15_);}
	.st27{fill:url(#SVGID_16_);}
	.st28{fill:url(#SVGID_17_);}
	.st29{opacity:0.62;fill:#FFFFFF;}
	.st30{opacity:0.41;fill:#FFFFFF;}
	.st31{opacity:0.26;fill:#FFFFFF;}
	.st32{opacity:0.17;}
	.st33{opacity:0.05;fill:#E3E9E5;}
	.st34{clip-path:url(#SVGID_19_);}
	.st35{opacity:0.76;clip-path:url(#SVGID_19_);fill:#FFFFFF;}
	.st36{clip-path:url(#SVGID_19_);fill:url(#SVGID_20_);}
	.st37{clip-path:url(#SVGID_19_);fill:none;stroke:#FFFFFF;stroke-width:2;stroke-linecap:round;stroke-miterlimit:10;}
	.st38{clip-path:url(#SVGID_19_);fill:url(#SVGID_21_);}
	.st39{clip-path:url(#SVGID_19_);fill:url(#SVGID_22_);}
	.st40{clip-path:url(#SVGID_19_);fill:url(#SVGID_23_);}
	.st41{clip-path:url(#SVGID_19_);fill:url(#SVGID_24_);}
	.st42{clip-path:url(#SVGID_19_);fill:#FFFFFF;}
	.st43{clip-path:url(#SVGID_19_);fill:url(#SVGID_25_);}
	.st44{opacity:0.62;clip-path:url(#SVGID_27_);fill:#FFFFFF;}
	.st45{clip-path:url(#SVGID_27_);fill:#FFFFFF;}
	.st46{opacity:0.41;clip-path:url(#SVGID_27_);fill:#FFFFFF;}
	.st47{clip-path:url(#SVGID_27_);fill:none;}
	.st48{clip-path:url(#SVGID_29_);}
	.st49{fill:url(#SVGID_30_);}
	.st50{opacity:0.74;clip-path:url(#SVGID_32_);fill:url(#SVGID_33_);}
	.st51{fill:#E6E6E6;}
	.st52{fill:none;stroke:#4D4D4D;stroke-width:0.75;stroke-linecap:round;stroke-miterlimit:10;}
	.st53{fill:url(#SVGID_34_);}
	.st54{opacity:0.3;fill:#FFFFFF;}
	.st55{opacity:0.74;fill:url(#SVGID_35_);}
	.st56{opacity:0.74;fill:url(#SVGID_36_);}
	.st57{opacity:0.74;fill:url(#SVGID_37_);}
	.st58{opacity:0.74;fill:url(#SVGID_38_);}
	.st59{fill:url(#SVGID_39_);}
	.st60{opacity:0.66;}
	.st61{opacity:0.37;fill:#FFFFFF;}
	.st62{fill:url(#SVGID_40_);}
	.st63{fill:url(#SVGID_41_);}
	.st64{fill:url(#SVGID_42_);}
	.st65{opacity:0.74;fill:url(#SVGID_43_);}
	.st66{fill:url(#SVGID_44_);}
	.st67{fill:url(#SVGID_45_);}
	.st68{opacity:0.74;fill:url(#SVGID_46_);}
	.st69{opacity:0.74;fill:url(#SVGID_47_);}
	.st70{opacity:0.74;fill:url(#SVGID_48_);}
	.st71{opacity:0.74;fill:url(#SVGID_49_);}
	.st72{fill:url(#SVGID_50_);}
	.st73{opacity:0.76;fill:#FFFFFF;}
	.st74{fill:url(#SVGID_51_);}
	.st75{fill:none;stroke:#FFFFFF;stroke-width:2;stroke-linecap:round;stroke-miterlimit:10;}
	.st76{fill:url(#SVGID_52_);}
	.st77{fill:url(#SVGID_53_);}
	.st78{fill:url(#SVGID_54_);}
	.st79{fill:url(#SVGID_55_);}
	.st80{fill:url(#SVGID_56_);}
	.st81{fill:url(#SVGID_57_);}
	.st82{fill:url(#SVGID_58_);}
</style>
<g>
	<path class="st29" d="M85.68,772.85c-1.96-3.93-6.51-6.3-6.69-11.3c-0.19-4.52-0.39-9.03-0.58-13.55
		c39.08-0.23,78.15-0.46,117.23-0.69c0.26-40.1,0.51-80.21,0.77-120.31c6.53-0.04,15.64-0.65,26.15-3.21
		c10.16-2.47,31.47-8,49.84-26.86c9.91-10.18,17.45-22.95,22.37-38.49c6.71-21.17,4.2-38.73,3.61-42.62
		c-5.29-35.06-31.33-63.59-60.97-75.82c-11.86-4.89-22.59-6.47-30-7c-3.33,0.33-6.67,0.67-10,1c-0.33-37.33-0.67-74.67-1-112
		c-56.33,0.33-112.67,0.67-169,1c-0.32-2.1-0.63-4.19-0.95-6.29c-1.79-20.84-1.79-20.84,18.85-20.84
		c112.89-0.02,225.78-0.04,338.66-0.06c2.34,1.66,1.94,3.79,1.03,6.01c-12.1,103.31-24.17,206.62-36.31,309.93
		c-5.55,47.22-11.42,94.41-16.67,141.66c-0.88,7.9-3.39,14.17-9.12,19.33c-5.35,5.91-12.59,5.12-19.37,5.14
		c-66.14,0.17-132.28,0.17-198.43,0C98.32,777.86,91.1,778.63,85.68,772.85z"/>
	<path class="st8" d="M222.26,232.85c-1.8-6.61-4.63-17.05-8.03-29.88c-13.64-51.46-20.46-77.19-21.58-83.58
		c-3.18-18.19-9.83-35.61-14.51-53.47c-2.13-8.12-5.57-12.76-13.49-15.95c-38.53-15.52-77.09-31.02-115-47.96
		c-13.11-5.86-13.9,2.17-16.95,10c-2.88,7.4-9.3,13.92,4.34,19.14C70.69,44.02,103.6,58.79,137,72.3c8.03,3.25,12.7,7.19,15,16.34
		c12.04,48.02,25.03,95.81,37.69,143.67C200.54,232.49,211.4,232.67,222.26,232.85z"/>
	<path class="st30" d="M27.03,315.53c60.13-0.18,120.26-0.35,180.39-0.53c0,39.33,0,78.67,0,118c-4.45,0.39-10.71,1.21-17.99,3.07
		c-10.53,2.69-39.44,10-59.4,37.15c-11.75,15.99-18.3,35.9-18.24,58.11c0.05,17.86,4.81,34.52,13.29,48.78
		c1.92,3.23,23.6,38.5,64.4,45.05c7.76,1.25,14.36,1.16,18.94,0.84c-1.15,62.35-1.73,106.88-0.91,118.27
		c0.13,1.82,0.66,7.72-2.96,11.31c-2.3,2.28-6.05,3-11.66,2.9c-34.9-0.66-69.83,0.08-104.73-0.78c-6.82-0.17-7.52,1.94-7.73,6.91
		c-2.9-22.1-5.95-44.18-8.68-66.29c-5.79-46.94-11.49-93.88-17.1-140.84c-4.37-36.6-8.6-73.22-12.77-109.85
		C36.86,403.6,31.97,359.56,27.03,315.53z"/>
	<path class="st29" d="M401.53,295.81H3.88c-2.14,0-3.88-1.74-3.88-3.88v-24.41c0-2.14,1.74-3.88,3.88-3.88h397.65
		c2.14,0,3.88,1.74,3.88,3.88v24.41C405.41,294.07,403.68,295.81,401.53,295.81z"/>
	<path class="st29" d="M385.48,264.01H14.54c-2.14,0-3.88-1.74-3.88-3.88v-24.41c0-2.14,1.74-3.88,3.88-3.88h370.94
		c2.14,0,3.88,1.74,3.88,3.88v24.41C389.36,262.27,387.62,264.01,385.48,264.01z"/>
</g>
</svg>
