<svg version="1.1" id="Слой_1" xmlns="http://www.w3.org/2000/svg" x="0" y="0" viewBox="0 0 515 385" xml:space="preserve"><style>.st126{fill:#ff963a}.st128{fill:#ffc181}.st479{fill:#58595b}.st482{fill:#fff6e2}</style><path class="st128" d="M81.92 95.06c-26.23-4.4-51.05 13.3-55.45 39.53L.67 288.39c-4.4 26.23 13.3 51.06 39.52 55.46l232.79 39.05c26.23 4.4 51.06-13.3 55.46-39.52l3.69-22.01c1.46-8.7 8.24-15.62 16.95-17.04 26.26-4.27 50.59 2.87 72.99 21.5 1.41 1.13 2.78 2.33 4.16 3.59.03 0 .05.04.1.07 2.82 2.21 5.91 4.16 9.18 5.76 4.22 2.12 8.79 3.71 13.65 4.67 28.52 5.67 57.15-12.63 63.83-40.93 7.32-31.05-13.15-61.31-44.1-66.51-5.48-.92-10.88-.99-16.08-.32-3.68.49-7.26 1.33-10.68 2.51-.06.02-.12.06-.17.05-1.61.57-3.18 1.2-4.73 1.89-.04.05-.09.07-.12.06-27.29 10.33-52.65 9.16-76.1-3.47-7.76-4.18-11.92-12.94-10.46-21.64l3.69-22.02c4.4-26.23-13.28-51.06-39.51-55.46-62.19-10.4-170.61-28.59-232.81-39.02z"/><path d="M126.9 151.29c1.48-5.3 1.34-9.54-.51-16.67-1.59-6.14-4.81-11.81-9.16-16.35-12.09-12.62-36.22-17.93-51.74-8.14-15.45 9.75-22.24 31.53-17.74 48.7 2.92 11.18 12.18 17.33 15.98 19.86 9.69 6.44 19.38 7 22.85 7.16 2.93.13 6.88.31 11.49-.9 20.53-5.4 28.26-31.6 28.83-33.66z" fill="#ffdfbd"/><path d="M126.01 151.31c1.34-4.79 1.21-8.61-.46-15.05-1.44-5.54-4.34-10.66-8.27-14.77-10.91-11.4-32.71-16.19-46.72-7.35-13.95 8.8-20.08 28.47-16.02 43.98 2.64 10.09 10.99 15.65 14.43 17.94 8.75 5.82 17.5 6.32 20.63 6.47 2.64.12 6.21.28 10.37-.81 18.54-4.89 25.52-28.55 26.04-30.41zm-28.89-12.98c2.95-3.54 10.78-12.34 10.78-12.34s2.23-3.23 5.56.68c0 0 4.65 6.54 4.91 9.5.27 2.96-2.59 3.98-7.79 5.01-5.19 1.03-14.41 2.8-15.29 2.41-.87-.38-1.12-1.71 1.83-5.26zm-19.5-20.94c5.13-1.72 6.39.68 6.39.68l2.55 20.96s-.44 4.62-4.88 1.21c-4.44-3.41-13.03-12.07-13.03-12.07s-1.35-1.31.96-4.7c0-.01 2.88-4.36 8.01-6.08zM58.7 143.52s1.46-8.39 3.41-10.81c1.94-2.42 4.67-1.04 9.03 2.07 4.36 3.11 12.05 8.69 12.39 9.64.34.95-.45 2.14-5.05 2.59-4.6.45-16.38 1.19-16.38 1.19s-3.88.75-3.4-4.68zm24.48 10.29c-1.46 2.22-3.14 4.32-4.9 6.31-2.05 2.32-5.05 4.16-7.45 6.12-.48.39-.94.71-1.4.92-.73.33-1.49.38-2.44.04-1.59-.58-2.74-2-3.54-3.43-2.73-4.83-4.3-9.37-1.35-10.63 2.95-1.26 16.12-4.22 16.12-4.22 1.12-.33 2.31-.55 3.47-.6.96-.04 2.77.13 3.31 1.11.72 1.33-1.15 3.35-1.82 4.38zm11.09-14.11c-.66.68-2.08 1.77-3.16 1.4-1.46-.5-1.53-3.26-1.77-4.47-.51-2.63-.78-5.32-.92-7.98-.16-3.1.7-6.49 1.04-9.56.07-.62.17-1.16.36-1.63.29-.74.8-1.29 1.72-1.67 1.55-.64 3.37-.36 4.96.16 5.36 1.75 9.68 4.05 8.45 6.97-1.23 2.92-8.61 13.99-8.61 13.99-.58 1-1.28 1.97-2.07 2.79zm-7.89 36.82s-7.93-1.21-10.25-3.08c-2.32-1.87-1.05-4.63 1.81-9.08 2.87-4.45 8.01-12.3 8.9-12.66.89-.37 2.02.38 2.52 4.97.5 4.58 1.37 16.33 1.37 16.33s.78 3.84-4.35 3.52zm19.35-3.76c-4.74 2.72-9.2 4.29-10.46 1.39-1.26-2.89-4.26-15.84-4.26-15.84-.33-1.1-.55-2.27-.61-3.42-.05-.95.11-2.73 1.08-3.26 1.31-.72 3.31 1.11 4.32 1.76 2.19 1.42 4.27 3.06 6.24 4.78 2.29 2 4.13 4.94 6.07 7.3.39.47.71.92.91 1.37.33.72.39 1.47.05 2.4-.55 1.58-1.94 2.72-3.34 3.52zm5.74-9.77l-16.44-13.25s-2.91-3.61 2.65-4.27c5.56-.66 17.76-.43 17.76-.43s1.89 0 2.59 4.04c0 0 .97 5.13-1.51 9.94-2.47 4.8-5.05 3.97-5.05 3.97z" fill="#fff3df"/><path class="st479" d="M174.38 341.62c-2.86.5-10.25 1.14-17.03-3.71-6.09-4.36-10.01-11.83-11.66-22.23-4.27-26.97-11.57-65.21-11.64-65.59l-.03-.17c-.56-3.58-2.46-18.28 2.41-27.12-6.04-4.06-13.94-11.6-11.85-22.5l.11-.59c2.64-13.86 8.14-42.69 56.96-56.34 4.42-1.23 8.79-2.23 13-2.96 48.68-8.48 68.57 18.15 74.96 30.29 1.33 2.06 6.71 11.65 1.45 24.67 5.29 4.25 8.16 13.66 9.32 17.46 5.99 19.62 14.84 74.75 16.28 83.81 1.39 2.15 3.51 6.61 1.69 11.76-2.23 6.34-9.23 10.56-21.39 12.89-1.63.31-3.21.6-4.74.87-10.55 1.84-18.98 2.7-26.4 3.45-5.59.57-10.43 1.06-15.01 1.86-3.09.54-5.86 1.18-8.47 1.98-14.23 4.31-43.86 11.25-46.34 11.83-.28.07-.84.21-1.62.34z"/><path class="st126" d="M174.38 341.62c-2.86.5-10.25 1.14-17.03-3.71-6.09-4.36-10.01-11.83-11.66-22.23-4.27-26.97-11.57-65.21-11.64-65.59l-.03-.17c-.56-3.58-2.46-18.28 2.41-27.12-6.04-4.06-13.94-11.6-11.85-22.5l.11-.59c2.64-13.86 8.14-42.69 56.96-56.34 4.42-1.23 8.79-2.23 13-2.96 48.68-8.48 68.57 18.15 74.96 30.29 1.33 2.06 6.71 11.65 1.45 24.67 5.29 4.25 8.16 13.66 9.32 17.46 5.99 19.62 14.84 74.75 16.28 83.81 1.39 2.15 3.51 6.61 1.69 11.76-2.23 6.34-9.23 10.56-21.39 12.89-1.63.31-3.21.6-4.74.87-10.55 1.84-18.98 2.7-26.4 3.45-5.59.57-10.43 1.06-15.01 1.86-3.09.54-5.86 1.18-8.47 1.98-14.23 4.31-43.86 11.25-46.34 11.83-.28.07-.84.21-1.62.34z"/><path class="st128" d="M263.45 198.99s5.69-5.52 12.06 15.33 16.31 84.3 16.31 84.3 10.7 12.6-15.81 17.68c-26.52 5.08-40.59 3.87-55.14 8.28-14.55 4.41-46.15 11.78-46.15 11.78s-19.67 5.9-24-21.46c-4.33-27.36-11.67-65.75-11.67-65.75s-3.73-23.79 5.66-27.52c0 0-17.62-7.42-15.14-20.36 2.48-12.94 6.97-39.99 53.45-52.99 46.48-12.99 71.89 5.19 82.2 25.01 0 0 7.8 10.76-1.77 25.7z"/><path class="st479" d="M185.59 48.67c-5.78-4.85-25.24-13.33-24.53-20.69.94-9.75 35.85-22.01 59.44-5.35s50 45.28 46.86 71.39c-.35 2.91-3.04 5.94-5.12 7.8-4.17 3.74-8.63-.8-12.86-3.01-6.18-3.24-12.35-6.48-18.53-9.73-2.08-1.09-4.28-2.29-5.43-4.34-2.29-4.07.63-7.19 1.7-10.94.77-2.69.63-5.89.38-8.69-.53-5.89-2.73-11.8-6.58-16.34-3.79-4.47-9.06-7.36-14.97-7.6-3.4-.14-6.77.63-9.92 1.87-3.08 1.21-5.61 4.58-8.76 5.43-.5.15-1.21.59-1.68.2z"/><path class="st126" d="M185.59 48.67c-5.78-4.85-25.24-13.33-24.53-20.69.94-9.75 35.85-22.01 59.44-5.35s50 45.28 46.86 71.39c-.35 2.91-3.04 5.94-5.12 7.8-4.17 3.74-8.63-.8-12.86-3.01-6.18-3.24-12.35-6.48-18.53-9.73-2.08-1.09-4.28-2.29-5.43-4.34-2.29-4.07.63-7.19 1.7-10.94.77-2.69.63-5.89.38-8.69-.53-5.89-2.73-11.8-6.58-16.34-3.79-4.47-9.06-7.36-14.97-7.6-3.4-.14-6.77.63-9.92 1.87-3.08 1.21-5.61 4.58-8.76 5.43-.5.15-1.21.59-1.68.2z"/><path class="st128" d="M217.55 26.85c-19.66-13.9-47.2-7.68-56.35.42-.06.24-.11.48-.13.71-.71 7.36 18.75 15.84 24.53 20.68.47.39 1.18-.05 1.69-.18 3.15-.85 5.68-4.22 8.76-5.43 3.15-1.24 6.52-2.01 9.92-1.87 5.91.24 11.18 3.13 14.97 7.6 3.85 4.54 6.05 10.45 6.58 16.34.25 2.8.38 5.99-.38 8.69-1.07 3.75-3.99 6.87-1.7 10.94 1.15 2.05 3.35 3.25 5.43 4.34 6.18 3.24 12.35 6.48 18.53 9.73 4.22 2.22 8.68 6.75 12.86 3.01.5-.45 1.04-.97 1.57-1.54.3-.68.52-1.37.6-2.05 3.12-26.11-23.3-54.72-46.88-71.39z"/><path class="st479" d="M169.49 88.35c-7.14-2.42-28.36-3.24-30.37-10.35-2.67-9.42 25.39-33.54 53.42-26.59 28.03 6.95 63.04 24 69.61 49.46.73 2.84-.67 6.63-1.93 9.13-2.53 5-8.33 2.4-13.07 1.87-6.93-.77-13.86-1.55-20.8-2.32-2.34-.26-4.82-.58-6.64-2.07-3.61-2.96-2.03-6.93-2.39-10.81-.27-2.79-1.55-5.72-2.8-8.23-2.63-5.29-6.84-10-12.07-12.83-5.15-2.78-11.11-3.56-16.7-1.63-3.22 1.11-6.07 3.05-8.56 5.35-2.43 2.25-3.56 6.31-6.18 8.24-.44.31-.94.98-1.52.78z"/><path class="st126" d="M169.49 88.35c-7.14-2.42-28.36-3.24-30.37-10.35-2.67-9.42 25.39-33.54 53.42-26.59 28.03 6.95 63.04 24 69.61 49.46.73 2.84-.67 6.63-1.93 9.13-2.53 5-8.33 2.4-13.07 1.87-6.93-.77-13.86-1.55-20.8-2.32-2.34-.26-4.82-.58-6.64-2.07-3.61-2.96-2.03-6.93-2.39-10.81-.27-2.79-1.55-5.72-2.8-8.23-2.63-5.29-6.84-10-12.07-12.83-5.15-2.78-11.11-3.56-16.7-1.63-3.22 1.11-6.07 3.05-8.56 5.35-2.43 2.25-3.56 6.31-6.18 8.24-.44.31-.94.98-1.52.78z"/><path class="st128" d="M191.32 56.4c-23.37-5.79-46.76 10.01-52.34 20.89.03.25.07.48.13.71 2.01 7.11 23.23 7.93 30.37 10.35.58.2 1.08-.47 1.51-.78 2.62-1.94 3.76-5.99 6.18-8.24 2.48-2.3 5.34-4.24 8.56-5.35 5.59-1.93 11.55-1.15 16.7 1.63 5.23 2.83 9.43 7.53 12.07 12.83 1.25 2.52 2.54 5.44 2.8 8.23.37 3.88-1.21 7.85 2.39 10.81 1.82 1.49 4.3 1.81 6.64 2.07 6.93.77 13.86 1.55 20.8 2.32 4.74.53 10.55 3.13 13.07-1.87.3-.6.62-1.28.91-2.01.03-.74-.02-1.46-.19-2.13-6.55-25.46-41.57-42.51-69.6-49.46z"/><path d="M138.25 257.45c.51-1.8 1.02-3.63 1.72-5.45.14-.36.19-.74.15-1.13-.22-2.22-.75-4.14-.24-6.39.38-1.67 1-3.27 1.34-4.94.43-2.12.4-4.31.84-6.42.58-2.8 2.45-4.16 3.86-6.39.86-1.36 1.44-3 2.14-4.46.27-.56.74-1 1.32-1.22l3.72-1.46c.18-.07.35-.16.5-.27 4.56-3.16 8.72-1.79 13.67-2.92.49-.11 1.01-.07 1.48.13l3.42 1.42c.49.2 1.03.24 1.54.11l3.91-.99c.21-.05.44-.08.66-.08l3.72.08c.53.01 1.06-.15 1.49-.47 2.82-2.04 4.27-2.4 7.66-2.33.37.01.75-.07 1.09-.23l3-1.4c.6-.28 1.3-.31 1.92-.07l3.22 1.24c.25.1.51.15.78.16l3.5.15c.64.03 1.24.3 1.68.76l3.04 3.21c.18.19.39.35.62.47l4.03 2.16c.48.26.86.67 1.08 1.17l1.84 4.15c.12.27.28.51.49.72l3.2 3.29c.36.37.59.83.67 1.34l.69 4.48c.05.33.17.64.34.92l2.4 3.86c.26.42.39.9.37 1.4l-.17 4.27c-.01.34.04.67.16.98 2.72 7.05.62 16.29-1.01 23.57a93.22 93.22 0 01-4.93 15.48c-1.79 4.27-3.92 10.86-7.33 14.08-4.23 4-9.02 7.25-15.19 5.77-3.34-.8-6.44-2.85-9.88-2.75-4.19.11-7.56 3.32-10.48 6.33-2.85 2.93-7.76 9.18-12.44 8.74-3.22-.3-6.75-4.19-8.46-6.69-1.73-2.58-2.96-5.46-4.66-8.06-3.34-5.11-7.74-7.16-12.65-10.28-4.08-2.59-8.94-6.73-9.55-11.82-.37-3.09.49-6.24 1.91-9.02 1.4-2.74 3.6-4.89 5.11-7.51 1.29-2.28 1.99-5.16 2.71-7.69z" fill="#fcd1a9"/><circle transform="rotate(-88.693 172.771 275.827)" cx="172.77" cy="275.82" fill="#ff5700" r="18.89"/><circle transform="rotate(-20.082 172.997 273.658)" class="st126" cx="173" cy="273.68" r="18.89"/><path class="st482" d="M181.68 260.56c1.31 1.82.89 4.36-.94 5.67a4.058 4.058 0 01-5.67-.94 4.058 4.058 0 01.94-5.67c1.83-1.3 4.37-.88 5.67.94z"/><path class="st126" d="M204.47 352.75c-2.85-.58-9.95-2.7-14.49-9.69-4.07-6.28-4.99-14.68-2.71-24.95 5.9-26.66 13.1-64.92 13.17-65.3l.03-.17c.79-3.53 4.4-17.91 12.17-24.36-4.14-5.99-8.72-15.9-2.79-25.28l.32-.51c7.53-11.93 23.2-36.75 73.63-31.58 4.56.47 9 1.14 13.18 2 48.4 9.93 57.17 41.98 58.67 55.62.48 2.4 1.98 13.3-7.68 23.49 3.36 5.89 2.59 15.7 2.28 19.66-1.61 20.45-13.55 74.99-15.53 83.95.5 2.51.84 7.44-2.73 11.56-4.4 5.08-12.45 6.44-24.62 4.16-1.63-.31-3.2-.62-4.73-.93-10.49-2.15-18.65-4.44-25.83-6.45-5.41-1.52-10.09-2.83-14.64-3.76-3.07-.63-5.89-1.04-8.61-1.26-14.83-1.19-44.93-5.58-47.46-5.95-.29-.02-.85-.09-1.63-.25z"/><path d="M340.67 252.06s7.32-3.05 5.61 18.68-15.68 84.41-15.68 84.41 5.35 15.65-21.19 10.67-39.19-11.26-54.35-12.48c-15.16-1.22-47.25-5.93-47.25-5.93s-20.47-1.71-14.48-28.76c5.99-27.05 13.21-65.46 13.21-65.46s5.24-23.51 15.34-23.54c0 0-13.68-13.35-6.64-24.48s21.12-34.67 69.13-29.75 65.01 31.14 67.34 53.37c.01 0 3.33 12.87-11.04 23.27z" opacity=".37" fill="#ffdfbd"/><path class="st479" d="M346.43 114.55c-18.88 15.29-47.49 12.5-63.08-6.93-.19-.24-.39-.47-.6-.69-10.73-11.58-15.13-28.81-14.27-44.26.42-7.49 1.65-13.91.3-21.45-2.66-14.85-8.87-29.6 7.79-38.79 10.73-5.92 19.55-.54 27.52 6.63 14.81 13.33 38.61 18.4 50.12 34.7 13.89 19.67 13.45 48.77-3.34 66.67a45.15 45.15 0 01-4.44 4.12z"/><path class="st482" d="M346.43 114.55c-18.88 15.29-47.49 12.5-63.08-6.93-.19-.24-.39-.47-.6-.69-10.73-11.58-15.13-28.81-14.27-44.26.42-7.49 1.65-13.91.3-21.45-2.66-14.85-8.87-29.6 7.79-38.79 10.73-5.92 19.55-.54 27.52 6.63 14.81 13.33 38.61 18.4 50.12 34.7 13.89 19.67 13.45 48.77-3.34 66.67a45.15 45.15 0 01-4.44 4.12z"/><path class="st479" d="M343.32 110.19c-17.36 14.06-43.65 11.49-57.98-6.37-.18-.22-.36-.43-.55-.64-9.86-10.64-13.91-26.48-13.11-40.68.39-6.88 1.52-12.78.27-19.72-2.44-13.65-8.16-27.21 7.16-35.65 9.87-5.44 17.97-.5 25.29 6.09 13.61 12.25 35.49 16.92 46.07 31.89 12.77 18.08 12.36 44.82-3.07 61.28a40.46 40.46 0 01-4.08 3.8z" opacity=".53"/><path class="st128" d="M343.31 110.25c-17.36 14.06-43.67 11.5-58-6.38-.18-.22-.36-.43-.55-.64-9.86-10.64-13.92-26.49-13.12-40.7.39-6.89 1.52-12.79.27-19.73-2.45-13.66-8.16-27.22 7.16-35.66 9.87-5.44 17.98-.5 25.3 6.09 13.63 12.27 35.52 16.94 46.1 31.92 12.78 18.09 12.37 44.84-3.07 61.3a39.432 39.432 0 01-4.09 3.8z"/><path class="st126" d="M294.41 49.45c-5.49 5.71-6.83 14.95-6.16 23.12.92 11.19 5.73 23.4 16.16 27.55 5.6 2.23 12.03 1.72 17.69-.35 9.66-3.54 22.61-12.03 22.36-23.63-.2-9.35-6.52-18.17-13.43-23.95-8.33-6.98-23.81-11.56-33.63-5.21-1.1.71-2.1 1.54-2.99 2.47z"/></svg>