<?xml version="1.0" encoding="utf-8"?>
<!-- Generator: Adobe Illustrator 24.2.3, SVG Export Plug-In . SVG Version: 6.00 Build 0)  -->
<svg version="1.1" id="Слой_1" xmlns="http://www.w3.org/2000/svg" xmlns:xlink="http://www.w3.org/1999/xlink" x="0px" y="0px"
	 viewBox="0 0 515 385" style="enable-background:new 0 0 515 385;" xml:space="preserve">
<style type="text/css">
	.st0{fill:#000600;}
	.st1{clip-path:url(#SVGID_2_);fill:url(#SVGID_3_);}
	.st2{clip-path:url(#SVGID_2_);fill:#FF977E;}
	.st3{clip-path:url(#SVGID_2_);fill:#FE3000;}
	.st4{clip-path:url(#SVGID_2_);fill:#EF0B00;}
	.st5{clip-path:url(#SVGID_2_);fill:#FE7B24;}
	.st6{clip-path:url(#SVGID_2_);fill:#FE3100;}
	.st7{clip-path:url(#SVGID_2_);fill:#F1DFD8;}
	.st8{clip-path:url(#SVGID_2_);fill:#F60000;}
	.st9{clip-path:url(#SVGID_2_);fill:#BF1200;}
	.st10{clip-path:url(#SVGID_2_);fill:#FF0000;}
	.st11{clip-path:url(#SVGID_2_);fill:#AC7401;}
	.st12{clip-path:url(#SVGID_5_);fill:#EFE300;}
	.st13{clip-path:url(#SVGID_5_);fill:#FCEA68;}
	.st14{clip-path:url(#SVGID_5_);fill:#FFFEB4;}
	.st15{clip-path:url(#SVGID_5_);fill:#FFFA9F;}
	.st16{clip-path:url(#SVGID_5_);fill:#FFF68A;}
	.st17{clip-path:url(#SVGID_5_);fill:#FFFBD4;}
	.st18{opacity:0.87;clip-path:url(#SVGID_5_);fill:#FFFDE0;}
	.st19{clip-path:url(#SVGID_5_);fill:#EE9658;}
	.st20{clip-path:url(#SVGID_5_);fill:#314255;}
	.st21{clip-path:url(#SVGID_5_);fill:#FEDBB1;}
	.st22{clip-path:url(#SVGID_5_);fill:#FDBA8B;}
	.st23{clip-path:url(#SVGID_5_);}
	.st24{fill:#FFFBD4;}
	.st25{clip-path:url(#SVGID_5_);fill:#FFFDE0;}
	.st26{clip-path:url(#SVGID_7_);fill:#00A7CA;}
	.st27{clip-path:url(#SVGID_7_);fill:none;}
	.st28{clip-path:url(#SVGID_7_);fill:#4DD4F7;}
	.st29{clip-path:url(#SVGID_7_);fill:#6EDBF4;}
	.st30{clip-path:url(#SVGID_7_);fill:#D50C25;}
	.st31{clip-path:url(#SVGID_7_);fill:#B0F1F6;}
	.st32{clip-path:url(#SVGID_7_);fill:#0088B4;}
	.st33{opacity:0.81;}
	.st34{filter:url(#Adobe_OpacityMaskFilter);}
	.st35{opacity:0.74;mask:url(#SVGID_10_);}
	.st36{clip-path:url(#SVGID_12_);fill:#000202;}
	.st37{filter:url(#Adobe_OpacityMaskFilter_1_);}
	.st38{opacity:0.74;mask:url(#SVGID_15_);}
	.st39{clip-path:url(#SVGID_17_);fill:#000202;}
	.st40{opacity:0.75;fill:url(#SVGID_18_);}
	.st41{clip-path:url(#SVGID_20_);fill:#2B747C;}
	.st42{clip-path:url(#SVGID_20_);fill:#55AFB7;}
	.st43{clip-path:url(#SVGID_20_);fill:#3FA5B0;}
	.st44{clip-path:url(#SVGID_20_);fill:#6DCDCF;}
	.st45{clip-path:url(#SVGID_20_);fill:#214180;}
	.st46{fill:#0071C5;}
	.st47{clip-path:url(#SVGID_22_);fill:#83D5FB;}
	.st48{clip-path:url(#SVGID_22_);fill:#00ABF0;}
	.st49{clip-path:url(#SVGID_22_);fill:#57CAF9;}
	.st50{clip-path:url(#SVGID_22_);fill:#0071C5;}
	.st51{clip-path:url(#SVGID_22_);fill:#31C5F8;}
	.st52{clip-path:url(#SVGID_22_);fill:#3DCFF7;}
	.st53{clip-path:url(#SVGID_24_);fill:#00ABF0;}
	.st54{clip-path:url(#SVGID_24_);fill:#83D5FB;}
	.st55{clip-path:url(#SVGID_24_);fill:#31C5F8;}
	.st56{clip-path:url(#SVGID_24_);fill:#0071C5;}
	.st57{clip-path:url(#SVGID_24_);fill:#57CAF9;}
	.st58{clip-path:url(#SVGID_24_);fill:#A6A6A6;}
	.st59{clip-path:url(#SVGID_26_);fill:#D670E1;}
	.st60{clip-path:url(#SVGID_26_);fill:#E5B1EC;}
	.st61{clip-path:url(#SVGID_26_);fill:#8A9093;}
	.st62{clip-path:url(#SVGID_26_);fill:#901C9D;}
	.st63{clip-path:url(#SVGID_26_);fill:#CBCED1;}
	.st64{clip-path:url(#SVGID_26_);fill:#DDD9CF;}
	.st65{clip-path:url(#SVGID_26_);fill:#543F31;}
	.st66{clip-path:url(#SVGID_26_);fill:#C18875;}
	.st67{clip-path:url(#SVGID_26_);fill:#B1B7BA;}
	.st68{clip-path:url(#SVGID_26_);fill:#899093;}
	.st69{clip-path:url(#SVGID_26_);fill:#D39A85;}
	.st70{fill:#E5B1EC;}
	.st71{clip-path:url(#SVGID_28_);}
	.st72{fill:#E097E9;}
	.st73{fill:#D670E1;}
	.st74{clip-path:url(#SVGID_30_);fill:#FFE406;}
	.st75{opacity:0.5;clip-path:url(#SVGID_30_);}
	.st76{fill:#A0C7FF;}
	.st77{fill:#FF8900;}
	.st78{clip-path:url(#SVGID_30_);fill:#FFEA9E;}
	.st79{clip-path:url(#SVGID_30_);}
	.st80{fill:#FFCB33;}
	.st81{fill:#FFEA9E;}
	.st82{fill:#2A356B;}
	.st83{clip-path:url(#SVGID_30_);fill:#FFCB33;}
	.st84{clip-path:url(#SVGID_30_);fill:#A0C7FF;}
	.st85{clip-path:url(#SVGID_30_);fill:#FF8900;}
	.st86{clip-path:url(#SVGID_30_);fill:#2A356B;}
	.st87{fill:#1B254E;}
	.st88{clip-path:url(#SVGID_30_);fill:#C02C28;}
	.st89{clip-path:url(#SVGID_30_);fill:#FF7400;}
	.st90{fill:#FFE406;}
	.st91{clip-path:url(#SVGID_30_);fill:#FFEF6E;}
	.st92{clip-path:url(#SVGID_32_);fill:#FFE473;}
	.st93{fill:#FFFFFF;}
	.st94{fill:#AAD5C0;}
	.st95{fill:none;stroke:#FFFFFF;stroke-miterlimit:10;}
	.st96{fill:#9FC8A8;}
	.st97{fill:#93CA9E;}
	.st98{opacity:0.76;}
	.st99{fill:#C1E6CA;}
	.st100{fill:url(#SVGID_33_);}
	.st101{fill:url(#SVGID_34_);}
	.st102{fill:url(#SVGID_35_);}
	.st103{fill:#F3E3BB;}
	.st104{fill:url(#SVGID_36_);}
	.st105{fill:url(#SVGID_37_);}
	.st106{fill:url(#SVGID_38_);}
	.st107{fill:url(#SVGID_39_);}
	.st108{fill:url(#SVGID_40_);}
	.st109{fill:url(#SVGID_41_);}
	.st110{fill:#E1EBC1;}
	.st111{fill:#ECF8CF;}
	.st112{fill:url(#SVGID_42_);}
	.st113{fill:url(#SVGID_43_);}
	.st114{fill:url(#SVGID_44_);}
	.st115{fill:url(#SVGID_45_);}
	.st116{fill:url(#SVGID_46_);}
	.st117{fill:#FFE190;}
	.st118{clip-path:url(#SVGID_48_);fill:url(#SVGID_49_);}
	.st119{fill:#5B2A1E;}
	.st120{fill:#8D7673;}
	.st121{fill:url(#SVGID_50_);}
	.st122{fill:url(#SVGID_51_);}
	.st123{fill:url(#SVGID_52_);}
	.st124{fill:url(#SVGID_53_);}
	.st125{fill:#FF8A8A;}
	.st126{fill:#FF963A;}
	.st127{opacity:0.75;fill:#FFFFFF;}
	.st128{fill:#FFC181;}
	.st129{fill:none;}
	.st130{clip-path:url(#SVGID_55_);fill:#FFDFBD;}
	.st131{clip-path:url(#SVGID_55_);fill:#FF9D00;}
	.st132{clip-path:url(#SVGID_55_);fill:#FFF3DF;}
	.st133{fill:url(#SVGID_56_);}
	.st134{fill:#FFFEEA;}
	.st135{fill:#58D196;}
	.st136{fill:#A6E5C3;}
	.st137{fill:#D2F2E1;}
	.st138{opacity:0.44;fill:#FFFFFF;}
	.st139{clip-path:url(#SVGID_58_);fill:#FFF9C1;}
	.st140{opacity:0.26;fill:#FFFFFF;}
	.st141{opacity:0.62;fill:#FFFFFF;}
	.st142{opacity:0.41;fill:#FFFFFF;}
	.st143{opacity:0.69;fill:#FFFFFF;}
	.st144{opacity:0.73;fill:#FFFFFF;}
	.st145{opacity:0.16;fill:#FFFFFF;}
	.st146{opacity:0.3;fill:#FFFFFF;}
	.st147{opacity:0.23;fill:#FFFFFF;}
	.st148{opacity:0.24;fill:#FFFFFF;}
	.st149{opacity:0.43;fill:#FFFFFF;}
	.st150{opacity:0.76;fill:#FFFFFF;}
	.st151{opacity:0.08;fill:#FFFFFF;}
	.st152{opacity:0.27;fill:#FFFFFF;}
	.st153{opacity:0.37;fill:#FFFFFF;}
	.st154{opacity:0.54;fill:#FFFFFF;}
	.st155{opacity:0.66;}
	.st156{opacity:0.28;}
	.st157{fill:#55AFB7;}
	.st158{fill:#2AB1B8;}
	.st159{fill:#00ACBD;}
	.st160{fill:#F787A5;}
	.st161{fill:#8F693D;}
	.st162{fill:#FBBACC;}
	.st163{fill:#E6678D;}
	.st164{fill:#574435;}
	.st165{fill:#C6A17C;}
	.st166{fill:#641F1E;}
	.st167{fill:#F15E89;}
	.st168{fill:#E7005E;}
	.st169{fill:#DBB487;}
	.st170{fill:#FF1B6F;}
	.st171{fill:#DCB487;}
	.st172{fill:#F07699;}
	.st173{fill:#F8F8F6;}
	.st174{fill:#F5C1D9;}
	.st175{fill:#E1B7B2;}
	.st176{fill:#FFB9C3;}
	.st177{fill:#FFC5D6;}
	.st178{fill:#D72264;}
	.st179{fill:#F7F7F7;}
	.st180{fill:#F2F2F2;}
	.st181{fill:#FFFBF0;}
	.st182{fill:#FFBFCF;}
	.st183{fill:#FF6794;}
	.st184{fill:#FFC2C1;}
	.st185{fill:#FFCCD5;}
	.st186{fill:#FF6B81;}
	.st187{fill:#B19B8C;}
	.st188{fill:#FFE2EA;}
	.st189{fill:#EFEFEF;}
	.st190{fill:#FF9DAE;}
	.st191{fill:#A0C2D9;}
	.st192{fill:#583B34;}
	.st193{fill:#AFCDE2;}
	.st194{fill:#F9F9F8;}
	.st195{fill:#DECDC5;}
	.st196{fill:#D7926B;}
	.st197{fill:#FFE9F2;}
	.st198{fill:#FFDBE5;}
	.st199{fill:#F2CCC1;}
	.st200{fill:#DF4E50;}
	.st201{fill:#FFFFFF;stroke:#FFFFFF;stroke-width:0.25;stroke-miterlimit:10;}
	.st202{fill:#00C377;}
	.st203{fill:#85E2AC;}
	.st204{fill:#00B45A;}
	.st205{fill:#7FD7A7;}
	.st206{fill:#EFB93A;}
	.st207{fill:#B69C65;}
	.st208{fill:#95CF81;}
	.st209{fill:#3C3724;}
	.st210{fill:#D3BB9F;}
	.st211{fill:#998074;}
	.st212{fill:#587147;}
	.st213{fill:#E4D3BB;}
	.st214{fill:#5CC386;}
	.st215{clip-path:url(#SVGID_60_);fill:#A6E5C3;}
	.st216{clip-path:url(#SVGID_60_);fill:#FFFFFF;}
	.st217{clip-path:url(#SVGID_60_);fill:#58D196;}
	.st218{fill:#FFEF6E;}
	.st219{fill:#FFE200;}
	.st220{clip-path:url(#SVGID_62_);fill:#FDA157;}
	.st221{clip-path:url(#SVGID_62_);fill-rule:evenodd;clip-rule:evenodd;fill:#FF8429;}
	.st222{clip-path:url(#SVGID_62_);fill:#F35000;}
	.st223{clip-path:url(#SVGID_62_);fill:#F6B646;}
	.st224{fill:#F35000;}
	.st225{fill:#FF8429;}
	.st226{fill:#FFA933;}
	.st227{fill:#E26D00;}
	.st228{fill:#EC6406;}
	.st229{fill:#FF9900;}
	.st230{fill:#130077;}
	.st231{fill:#FFB58D;}
	.st232{opacity:0.3;}
	.st233{fill:#FF7300;}
	.st234{fill:#6E0000;}
	.st235{fill-rule:evenodd;clip-rule:evenodd;fill:#FF9900;}
	.st236{fill-rule:evenodd;clip-rule:evenodd;fill:url(#SVGID_63_);}
	.st237{opacity:0.3;fill-rule:evenodd;clip-rule:evenodd;fill:#A1002C;}
	.st238{fill-rule:evenodd;clip-rule:evenodd;fill:url(#SVGID_64_);}
	.st239{fill-rule:evenodd;clip-rule:evenodd;fill:url(#SVGID_65_);}
	.st240{opacity:0.5;fill-rule:evenodd;clip-rule:evenodd;fill:url(#SVGID_66_);}
	.st241{fill-rule:evenodd;clip-rule:evenodd;fill:#FFC182;}
	.st242{fill-rule:evenodd;clip-rule:evenodd;fill:url(#SVGID_67_);}
	.st243{fill-rule:evenodd;clip-rule:evenodd;fill:url(#SVGID_68_);}
	.st244{fill-rule:evenodd;clip-rule:evenodd;fill:url(#SVGID_69_);}
	.st245{opacity:0.5;fill-rule:evenodd;clip-rule:evenodd;fill:url(#SVGID_70_);}
	.st246{fill-rule:evenodd;clip-rule:evenodd;fill:#FDA157;}
	.st247{opacity:0.5;fill-rule:evenodd;clip-rule:evenodd;fill:#FDA157;}
	.st248{fill-rule:evenodd;clip-rule:evenodd;fill:#FF8429;}
	.st249{fill-rule:evenodd;clip-rule:evenodd;fill:#FFA933;}
	.st250{opacity:0.62;fill-rule:evenodd;clip-rule:evenodd;fill:#C5002A;}
	.st251{opacity:0.5;fill-rule:evenodd;clip-rule:evenodd;fill:#FF8429;}
	.st252{opacity:0.5;fill-rule:evenodd;clip-rule:evenodd;fill:#8C5472;}
	.st253{opacity:0.3;fill-rule:evenodd;clip-rule:evenodd;fill:url(#SVGID_71_);}
	.st254{opacity:0.5;fill-rule:evenodd;clip-rule:evenodd;fill:url(#SVGID_72_);}
	.st255{opacity:0.3;fill-rule:evenodd;clip-rule:evenodd;fill:url(#SVGID_73_);}
	.st256{opacity:0.3;fill-rule:evenodd;clip-rule:evenodd;fill:url(#SVGID_74_);}
	.st257{clip-path:url(#SVGID_76_);}
	.st258{clip-path:url(#SVGID_76_);fill:#FF8429;}
	.st259{fill:#FDA157;}
	.st260{clip-path:url(#SVGID_78_);}
	.st261{fill:#F58800;}
	.st262{clip-path:url(#SVGID_80_);}
	.st263{fill:#F6B646;}
	.st264{clip-path:url(#SVGID_82_);}
	.st265{clip-path:url(#SVGID_82_);fill:#FF8429;}
	.st266{fill-rule:evenodd;clip-rule:evenodd;fill:url(#SVGID_83_);}
	.st267{fill-rule:evenodd;clip-rule:evenodd;fill:url(#SVGID_84_);}
	.st268{fill-rule:evenodd;clip-rule:evenodd;fill:url(#SVGID_85_);}
	.st269{opacity:0.5;fill-rule:evenodd;clip-rule:evenodd;fill:url(#SVGID_86_);}
	.st270{fill-rule:evenodd;clip-rule:evenodd;fill:url(#SVGID_87_);}
	.st271{fill-rule:evenodd;clip-rule:evenodd;fill:url(#SVGID_88_);}
	.st272{fill-rule:evenodd;clip-rule:evenodd;fill:url(#SVGID_89_);}
	.st273{opacity:0.5;fill-rule:evenodd;clip-rule:evenodd;fill:url(#SVGID_90_);}
	.st274{opacity:0.3;fill-rule:evenodd;clip-rule:evenodd;fill:url(#SVGID_91_);}
	.st275{opacity:0.5;fill-rule:evenodd;clip-rule:evenodd;fill:url(#SVGID_92_);}
	.st276{opacity:0.3;fill-rule:evenodd;clip-rule:evenodd;fill:url(#SVGID_93_);}
	.st277{opacity:0.3;fill-rule:evenodd;clip-rule:evenodd;fill:url(#SVGID_94_);}
	.st278{opacity:0.88;fill:#FFFEF3;}
	.st279{fill:#FFCD66;}
	.st280{fill:#ADA9AA;}
	.st281{fill:#FFE473;}
	.st282{fill:#FFE585;}
	.st283{fill:#F4C500;}
	.st284{fill:#FFE894;}
	.st285{clip-path:url(#SVGID_96_);fill:#FFCB33;}
	.st286{clip-path:url(#SVGID_96_);fill:#FFE406;}
	.st287{clip-path:url(#SVGID_98_);fill:#901C9D;}
	.st288{opacity:0.5;clip-path:url(#SVGID_98_);}
	.st289{fill:#901C9D;}
	.st290{clip-path:url(#SVGID_98_);}
	.st291{clip-path:url(#SVGID_100_);fill:#E097E9;}
	.st292{fill:#CC37D8;}
	.st293{opacity:0.5;fill:#FFFFFF;}
	.st294{opacity:0.5;fill:#FFFFFF;stroke:#FFFFFF;stroke-miterlimit:10;}
	.st295{opacity:0.68;fill:#FFFFFF;}
	.st296{fill:#F0C6F4;}
	.st297{fill:#D7A0DF;}
	.st298{fill:#A87B41;}
	.st299{fill:#8A9093;}
	.st300{fill:#CBCED1;}
	.st301{fill:#DDD9CF;}
	.st302{fill:#543F31;}
	.st303{fill:#C18875;}
	.st304{fill:#B1B7BA;}
	.st305{fill:#899093;}
	.st306{fill:#D39A85;}
	.st307{fill:#3DCFF7;}
	.st308{fill:#57CAF9;}
	.st309{fill:#F92405;}
	.st310{fill:#B30000;}
	.st311{fill:#FA3C20;}
	.st312{fill:#E09E80;}
	.st313{fill:#950000;}
	.st314{fill:#F50000;}
	.st315{clip-path:url(#SVGID_102_);fill:#F787A5;}
	.st316{clip-path:url(#SVGID_102_);fill:#FFE9F2;}
	.st317{clip-path:url(#SVGID_102_);fill:#D3CFB3;}
	.st318{clip-path:url(#SVGID_102_);fill:#FFDBE5;}
	.st319{clip-path:url(#SVGID_102_);}
	.st320{clip-path:url(#SVGID_102_);fill:#FFC5D6;}
	.st321{fill:#F88EB2;}
	.st322{fill:#BAA292;}
	.st323{fill:#63443C;}
	.st324{fill:#CDA99E;}
	.st325{fill:#9FC1D8;}
	.st326{fill:#997972;}
	.st327{fill:#77573F;}
	.st328{opacity:0.45;fill:#FFFFFF;}
	.st329{opacity:0.8;fill:#FFFFFF;}
	.st330{opacity:0.79;fill:#FFFFFF;}
	.st331{opacity:0.46;}
	.st332{opacity:0.86;fill:#FFFFFF;}
	.st333{fill-rule:evenodd;clip-rule:evenodd;fill:#FA3C20;}
	.st334{fill-rule:evenodd;clip-rule:evenodd;fill:#CE0707;}
	.st335{fill-rule:evenodd;clip-rule:evenodd;fill:#F92405;}
	.st336{fill-rule:evenodd;clip-rule:evenodd;fill:#F50000;}
	.st337{fill-rule:evenodd;clip-rule:evenodd;fill:#F75F53;}
	.st338{fill:#F75F53;}
	.st339{clip-path:url(#SVGID_104_);fill:#574435;}
	.st340{clip-path:url(#SVGID_104_);fill:#C6A17C;}
	.st341{clip-path:url(#SVGID_104_);fill:#8F693D;}
	.st342{clip-path:url(#SVGID_104_);fill:#CE0707;}
	.st343{clip-path:url(#SVGID_104_);fill:#FA3C20;}
	.st344{clip-path:url(#SVGID_104_);fill:#950000;}
	.st345{clip-path:url(#SVGID_104_);fill:#F75F53;}
	.st346{clip-path:url(#SVGID_104_);fill:#131212;}
	.st347{clip-path:url(#SVGID_104_);fill:#B30000;}
	.st348{clip-path:url(#SVGID_104_);fill:#412A1A;}
	.st349{clip-path:url(#SVGID_104_);fill:#DCC4AD;}
	.st350{clip-path:url(#SVGID_104_);fill:#BD835C;}
	.st351{fill:#CE0707;}
	.st352{fill:#A99BB6;}
	.st353{fill:#381A12;}
	.st354{fill:#E9C9B6;}
	.st355{fill:#AA9CB9;}
	.st356{fill:#F6F4F3;}
	.st357{fill:#0A345E;}
	.st358{fill:#412A1A;}
	.st359{fill:#131212;}
	.st360{fill:#DCC4AD;}
	.st361{fill:#BD835C;}
	.st362{fill:#83D5FB;}
	.st363{fill:#00ABF0;}
	.st364{fill:#31C5F8;}
	.st365{opacity:0.34;fill:#FFFFFF;}
	.st366{opacity:0.25;fill:#FFFFFF;}
	.st367{opacity:0.6;fill:#FFFFFF;}
	.st368{fill:#B0AEAB;}
	.st369{fill:#0D0707;}
	.st370{fill:#A6A6A6;}
	.st371{fill:#0068A6;}
	.st372{opacity:0.6;}
	.st373{opacity:0.17;fill:#FFFFFF;}
	.st374{opacity:0.39;fill:#FFFFFF;}
	.st375{opacity:0.71;fill:#FFFFFF;}
	.st376{fill:url(#SVGID_105_);}
	.st377{clip-path:url(#SVGID_107_);fill:#FFDFBD;}
	.st378{clip-path:url(#SVGID_107_);fill:#FF9D00;}
	.st379{clip-path:url(#SVGID_107_);fill:#FFF3DF;}
	.st380{clip-path:url(#SVGID_109_);fill:#FFBAE4;}
	.st381{opacity:0.8;clip-path:url(#SVGID_109_);fill:#FE82C8;}
	.st382{clip-path:url(#SVGID_109_);fill:#FE82C8;}
	.st383{opacity:0.79;clip-path:url(#SVGID_109_);fill:#FFBAE4;}
	.st384{fill:url(#SVGID_110_);}
	.st385{clip-path:url(#SVGID_112_);fill:#FFF9C1;}
	.st386{fill:url(#SVGID_113_);}
	.st387{fill:url(#SVGID_114_);}
	.st388{opacity:0.86;fill:#FFCCD5;}
	.st389{fill:url(#SVGID_115_);}
	.st390{opacity:0.4;}
	.st391{clip-path:url(#SVGID_117_);}
	.st392{clip-path:url(#SVGID_117_);fill:none;}
	.st393{fill:#6DCDCF;}
	.st394{fill:#2B747C;}
	.st395{fill:#1E1E1E;}
	.st396{fill:#272727;}
	.st397{fill:#3FA5B0;}
	.st398{fill:#1F1F1F;}
	.st399{fill:#242424;}
	.st400{fill-rule:evenodd;clip-rule:evenodd;fill:#2B747C;}
	.st401{fill-rule:evenodd;clip-rule:evenodd;fill:#6DCDCF;}
	.st402{fill-rule:evenodd;clip-rule:evenodd;fill:#3FA5B0;}
	.st403{clip-path:url(#SVGID_119_);fill:#3FA5B0;}
	.st404{clip-path:url(#SVGID_119_);fill:#2AB1B8;}
	.st405{clip-path:url(#SVGID_119_);fill:#55AFB7;}
	.st406{clip-path:url(#SVGID_119_);fill:#00ACBD;}
	.st407{clip-path:url(#SVGID_119_);fill:#616161;}
	.st408{clip-path:url(#SVGID_119_);fill:#6DCDCF;}
	.st409{clip-path:url(#SVGID_119_);fill:#2B747C;}
	.st410{fill:url(#SVGID_120_);}
	.st411{fill:url(#SVGID_121_);}
	.st412{fill:url(#SVGID_122_);}
	.st413{fill:url(#SVGID_123_);}
	.st414{fill:url(#SVGID_124_);}
	.st415{fill:url(#SVGID_125_);}
	.st416{fill:url(#SVGID_126_);}
	.st417{fill:url(#SVGID_127_);}
	.st418{fill:url(#SVGID_128_);}
	.st419{fill:url(#SVGID_129_);}
	.st420{fill:url(#SVGID_130_);}
	.st421{fill:url(#SVGID_131_);}
	.st422{fill:url(#SVGID_132_);}
	.st423{fill:url(#SVGID_133_);}
	.st424{clip-path:url(#SVGID_135_);fill:url(#SVGID_136_);}
	.st425{fill:url(#SVGID_137_);}
	.st426{fill:url(#SVGID_138_);}
	.st427{fill:url(#SVGID_139_);}
	.st428{fill:url(#SVGID_140_);}
	.st429{clip-path:url(#SVGID_142_);fill:url(#SVGID_143_);}
	.st430{clip-path:url(#SVGID_142_);}
	.st431{opacity:0.75;clip-path:url(#SVGID_142_);fill:url(#SVGID_146_);}
	.st432{fill:none;stroke:#FFFFFF;stroke-width:2;stroke-miterlimit:10;}
	.st433{fill:#EFC2A7;}
	.st434{fill:none;stroke:#FFFFFF;stroke-width:0.75;stroke-miterlimit:10;}
	.st435{fill:none;stroke:#FFFFFF;stroke-width:3;stroke-miterlimit:10;}
	.st436{fill:url(#SVGID_153_);}
	.st437{fill:url(#SVGID_154_);}
	.st438{filter:url(#Adobe_OpacityMaskFilter_2_);}
	.st439{opacity:0.74;mask:url(#SVGID_157_);}
	.st440{clip-path:url(#SVGID_159_);fill:#000202;}
	.st441{opacity:0.75;fill:url(#SVGID_160_);}
	.st442{clip-path:url(#SVGID_162_);}
	.st443{fill:#1A1A1A;}
	.st444{fill:url(#SVGID_163_);}
	.st445{fill:url(#SVGID_164_);}
	.st446{clip-path:url(#SVGID_166_);}
	.st447{fill:url(#SVGID_177_);}
	.st448{filter:url(#Adobe_OpacityMaskFilter_3_);}
	.st449{opacity:0.74;mask:url(#SVGID_180_);}
	.st450{clip-path:url(#SVGID_182_);fill:#000202;}
	.st451{opacity:0.75;fill:url(#SVGID_183_);}
	.st452{fill:none;stroke:#FFFFFF;stroke-width:4;stroke-miterlimit:10;}
	.st453{fill:#FFFFFF;stroke:#FFFFFF;stroke-miterlimit:10;}
	.st454{clip-path:url(#SVGID_193_);}
	.st455{opacity:0.37;clip-path:url(#SVGID_193_);}
	.st456{opacity:0.53;clip-path:url(#SVGID_193_);}
	.st457{fill:#352417;}
	.st458{fill:#FEC3B5;}
	.st459{fill:#FFE4DA;}
	.st460{fill:#9E7458;}
	.st461{fill:#B0805C;}
	.st462{fill:#EFE300;}
	.st463{fill:#FCEA68;}
	.st464{fill:#FFFEB4;}
	.st465{fill:#FFFA9F;}
	.st466{fill:#FFF68A;}
	.st467{opacity:0.87;fill:#FFFDE0;}
	.st468{fill:#EE9658;}
	.st469{fill:#314255;}
	.st470{fill:#FEDBB1;}
	.st471{fill:#FDBA8B;}
	.st472{fill:#FFFDE0;}
	.st473{opacity:0.95;fill:#F9B4E7;}
	.st474{fill:#FE82C8;}
	.st475{opacity:0.63;fill:#F94BAB;}
	.st476{opacity:0.37;fill:#F94BAB;}
	.st477{fill:#FFDFBD;}
	.st478{fill:#FFF3DF;}
	.st479{fill:#58595B;}
	.st480{fill:#FCD1A9;}
	.st481{fill:#FF5700;}
	.st482{fill:#FFF6E2;}
	.st483{opacity:0.37;fill:#FFDFBD;}
	.st484{opacity:0.53;}
	.st485{fill:#8B5E50;}
	.st486{fill:#29CE61;}
	.st487{fill:#02B769;}
	.st488{fill:#E3CCAC;}
	.st489{fill:#C18C65;}
	.st490{fill:#B49B83;}
	.st491{fill:#C6AC94;}
	.st492{fill:#F0EEE6;}
	.st493{fill:#DDD7CF;}
	.st494{fill:#FF977E;}
	.st495{fill:#FE3000;}
	.st496{fill:#EF0B00;}
	.st497{fill:#FE7B24;}
	.st498{fill:#FE3100;}
	.st499{fill:#F1DFD8;}
	.st500{fill:#F60000;}
	.st501{fill:#BF1200;}
	.st502{fill:#FF0000;}
	.st503{fill:#AC7401;}
	.st504{fill:#656768;}
	.st505{fill:#4DD4F7;}
	.st506{fill:#00A7CA;}
	.st507{fill:#6EDBF4;}
	.st508{fill:#D50C25;}
	.st509{fill:#B0F1F6;}
	.st510{fill:#0088B4;}
	.st511{fill:#005EB1;}
	.st512{fill:none;stroke:#259ADD;stroke-miterlimit:10;}
	.st513{fill:#259ADD;}
	.st514{opacity:0.4;fill:#00336C;}
	.st515{fill:#0089D9;}
	.st516{fill:none;stroke:#005EB1;stroke-width:0.8397;stroke-linecap:round;stroke-linejoin:round;stroke-miterlimit:10;}
	.st517{fill:none;stroke:#83D5FB;stroke-miterlimit:10;}
</style>
<path class="st128" d="M81.92,95.06c-26.23-4.4-51.05,13.3-55.45,39.53l-25.8,153.8c-4.4,26.23,13.3,51.06,39.52,55.46l232.79,39.05
	c26.23,4.4,51.06-13.3,55.46-39.52l3.69-22.01c1.46-8.7,8.24-15.62,16.95-17.04c26.26-4.27,50.59,2.87,72.99,21.5
	c1.41,1.13,2.78,2.33,4.16,3.59c0.03,0,0.05,0.04,0.1,0.07c2.82,2.21,5.91,4.16,9.18,5.76c4.22,2.12,8.79,3.71,13.65,4.67
	c28.52,5.67,57.15-12.63,63.83-40.93c7.32-31.05-13.15-61.31-44.1-66.51c-5.48-0.92-10.88-0.99-16.08-0.32
	c-3.68,0.49-7.26,1.33-10.68,2.51c-0.06,0.02-0.12,0.06-0.17,0.05c-1.61,0.57-3.18,1.2-4.73,1.89c-0.04,0.05-0.09,0.07-0.12,0.06
	c-27.29,10.33-52.65,9.16-76.1-3.47c-7.76-4.18-11.92-12.94-10.46-21.64l3.69-22.02c4.4-26.23-13.28-51.06-39.51-55.46
	C252.54,123.68,144.12,105.49,81.92,95.06z"/>
<path class="st477" d="M126.9,151.29c1.48-5.3,1.34-9.54-0.51-16.67c-1.59-6.14-4.81-11.81-9.16-16.35
	c-12.09-12.62-36.22-17.93-51.74-8.14c-15.45,9.75-22.24,31.53-17.74,48.7c2.92,11.18,12.18,17.33,15.98,19.86
	c9.69,6.44,19.38,7,22.85,7.16c2.93,0.13,6.88,0.31,11.49-0.9C118.6,179.55,126.33,153.35,126.9,151.29z"/>
<path class="st478" d="M126.01,151.31c1.34-4.79,1.21-8.61-0.46-15.05c-1.44-5.54-4.34-10.66-8.27-14.77
	c-10.91-11.4-32.71-16.19-46.72-7.35c-13.95,8.8-20.08,28.47-16.02,43.98c2.64,10.09,10.99,15.65,14.43,17.94
	c8.75,5.82,17.5,6.32,20.63,6.47c2.64,0.12,6.21,0.28,10.37-0.81C118.51,176.83,125.49,153.17,126.01,151.31z M97.12,138.33
	c2.95-3.54,10.78-12.34,10.78-12.34s2.23-3.23,5.56,0.68c0,0,4.65,6.54,4.91,9.5c0.27,2.96-2.59,3.98-7.79,5.01
	c-5.19,1.03-14.41,2.8-15.29,2.41C94.42,143.21,94.17,141.88,97.12,138.33z M77.62,117.39c5.13-1.72,6.39,0.68,6.39,0.68l2.55,20.96
	c0,0-0.44,4.62-4.88,1.21c-4.44-3.41-13.03-12.07-13.03-12.07s-1.35-1.31,0.96-4.7C69.61,123.46,72.49,119.11,77.62,117.39z
	 M58.7,143.52c0,0,1.46-8.39,3.41-10.81c1.94-2.42,4.67-1.04,9.03,2.07c4.36,3.11,12.05,8.69,12.39,9.64
	c0.34,0.95-0.45,2.14-5.05,2.59c-4.6,0.45-16.38,1.19-16.38,1.19S58.22,148.95,58.7,143.52z M83.18,153.81
	c-1.46,2.22-3.14,4.32-4.9,6.31c-2.05,2.32-5.05,4.16-7.45,6.12c-0.48,0.39-0.94,0.71-1.4,0.92c-0.73,0.33-1.49,0.38-2.44,0.04
	c-1.59-0.58-2.74-2-3.54-3.43c-2.73-4.83-4.3-9.37-1.35-10.63c2.95-1.26,16.12-4.22,16.12-4.22c1.12-0.33,2.31-0.55,3.47-0.6
	c0.96-0.04,2.77,0.13,3.31,1.11C85.72,150.76,83.85,152.78,83.18,153.81z M94.27,139.7c-0.66,0.68-2.08,1.77-3.16,1.4
	c-1.46-0.5-1.53-3.26-1.77-4.47c-0.51-2.63-0.78-5.32-0.92-7.98c-0.16-3.1,0.7-6.49,1.04-9.56c0.07-0.62,0.17-1.16,0.36-1.63
	c0.29-0.74,0.8-1.29,1.72-1.67c1.55-0.64,3.37-0.36,4.96,0.16c5.36,1.75,9.68,4.05,8.45,6.97c-1.23,2.92-8.61,13.99-8.61,13.99
	C95.76,137.91,95.06,138.88,94.27,139.7z M86.38,176.52c0,0-7.93-1.21-10.25-3.08c-2.32-1.87-1.05-4.63,1.81-9.08
	c2.87-4.45,8.01-12.3,8.9-12.66c0.89-0.37,2.02,0.38,2.52,4.97c0.5,4.58,1.37,16.33,1.37,16.33S91.51,176.84,86.38,176.52z
	 M105.73,172.76c-4.74,2.72-9.2,4.29-10.46,1.39c-1.26-2.89-4.26-15.84-4.26-15.84c-0.33-1.1-0.55-2.27-0.61-3.42
	c-0.05-0.95,0.11-2.73,1.08-3.26c1.31-0.72,3.31,1.11,4.32,1.76c2.19,1.42,4.27,3.06,6.24,4.78c2.29,2,4.13,4.94,6.07,7.3
	c0.39,0.47,0.71,0.92,0.91,1.37c0.33,0.72,0.39,1.47,0.05,2.4C108.52,170.82,107.13,171.96,105.73,172.76z M111.47,162.99
	l-16.44-13.25c0,0-2.91-3.61,2.65-4.27c5.56-0.66,17.76-0.43,17.76-0.43s1.89,0,2.59,4.04c0,0,0.97,5.13-1.51,9.94
	C114.05,163.82,111.47,162.99,111.47,162.99z"/>
<g>
	<path class="st479" d="M174.38,341.62c-2.86,0.5-10.25,1.14-17.03-3.71c-6.09-4.36-10.01-11.83-11.66-22.23
		c-4.27-26.97-11.57-65.21-11.64-65.59l-0.03-0.17c-0.56-3.58-2.46-18.28,2.41-27.12c-6.04-4.06-13.94-11.6-11.85-22.5l0.11-0.59
		c2.64-13.86,8.14-42.69,56.96-56.34c4.42-1.23,8.79-2.23,13-2.96c48.68-8.48,68.57,18.15,74.96,30.29
		c1.33,2.06,6.71,11.65,1.45,24.67c5.29,4.25,8.16,13.66,9.32,17.46c5.99,19.62,14.84,74.75,16.28,83.81
		c1.39,2.15,3.51,6.61,1.69,11.76c-2.23,6.34-9.23,10.56-21.39,12.89c-1.63,0.31-3.21,0.6-4.74,0.87
		c-10.55,1.84-18.98,2.7-26.4,3.45c-5.59,0.57-10.43,1.06-15.01,1.86c-3.09,0.54-5.86,1.18-8.47,1.98
		c-14.23,4.31-43.86,11.25-46.34,11.83C175.72,341.35,175.16,341.49,174.38,341.62z"/>
</g>
<path class="st126" d="M174.38,341.62c-2.86,0.5-10.25,1.14-17.03-3.71c-6.09-4.36-10.01-11.83-11.66-22.23
	c-4.27-26.97-11.57-65.21-11.64-65.59l-0.03-0.17c-0.56-3.58-2.46-18.28,2.41-27.12c-6.04-4.06-13.94-11.6-11.85-22.5l0.11-0.59
	c2.64-13.86,8.14-42.69,56.96-56.34c4.42-1.23,8.79-2.23,13-2.96c48.68-8.48,68.57,18.15,74.96,30.29
	c1.33,2.06,6.71,11.65,1.45,24.67c5.29,4.25,8.16,13.66,9.32,17.46c5.99,19.62,14.84,74.75,16.28,83.81
	c1.39,2.15,3.51,6.61,1.69,11.76c-2.23,6.34-9.23,10.56-21.39,12.89c-1.63,0.31-3.21,0.6-4.74,0.87c-10.55,1.84-18.98,2.7-26.4,3.45
	c-5.59,0.57-10.43,1.06-15.01,1.86c-3.09,0.54-5.86,1.18-8.47,1.98c-14.23,4.31-43.86,11.25-46.34,11.83
	C175.72,341.35,175.16,341.49,174.38,341.62z"/>
<path class="st128" d="M263.45,198.99c0,0,5.69-5.52,12.06,15.33s16.31,84.3,16.31,84.3s10.7,12.6-15.81,17.68
	c-26.52,5.08-40.59,3.87-55.14,8.28c-14.55,4.41-46.15,11.78-46.15,11.78s-19.67,5.9-24-21.46c-4.33-27.36-11.67-65.75-11.67-65.75
	s-3.73-23.79,5.66-27.52c0,0-17.62-7.42-15.14-20.36c2.48-12.94,6.97-39.99,53.45-52.99c46.48-12.99,71.89,5.19,82.2,25.01
	C265.22,173.29,273.02,184.05,263.45,198.99z"/>
<g>
	<path class="st479" d="M185.59,48.67c-5.78-4.85-25.24-13.33-24.53-20.69c0.94-9.75,35.85-22.01,59.44-5.35s50,45.28,46.86,71.39
		c-0.35,2.91-3.04,5.94-5.12,7.8c-4.17,3.74-8.63-0.8-12.86-3.01c-6.18-3.24-12.35-6.48-18.53-9.73c-2.08-1.09-4.28-2.29-5.43-4.34
		c-2.29-4.07,0.63-7.19,1.7-10.94c0.77-2.69,0.63-5.89,0.38-8.69c-0.53-5.89-2.73-11.8-6.58-16.34c-3.79-4.47-9.06-7.36-14.97-7.6
		c-3.4-0.14-6.77,0.63-9.92,1.87c-3.08,1.21-5.61,4.58-8.76,5.43C186.77,48.62,186.06,49.06,185.59,48.67z"/>
</g>
<path class="st126" d="M185.59,48.67c-5.78-4.85-25.24-13.33-24.53-20.69c0.94-9.75,35.85-22.01,59.44-5.35s50,45.28,46.86,71.39
	c-0.35,2.91-3.04,5.94-5.12,7.8c-4.17,3.74-8.63-0.8-12.86-3.01c-6.18-3.24-12.35-6.48-18.53-9.73c-2.08-1.09-4.28-2.29-5.43-4.34
	c-2.29-4.07,0.63-7.19,1.7-10.94c0.77-2.69,0.63-5.89,0.38-8.69c-0.53-5.89-2.73-11.8-6.58-16.34c-3.79-4.47-9.06-7.36-14.97-7.6
	c-3.4-0.14-6.77,0.63-9.92,1.87c-3.08,1.21-5.61,4.58-8.76,5.43C186.77,48.62,186.06,49.06,185.59,48.67z"/>
<path class="st128" d="M217.55,26.85c-19.66-13.9-47.2-7.68-56.35,0.42c-0.06,0.24-0.11,0.48-0.13,0.71
	c-0.71,7.36,18.75,15.84,24.53,20.68c0.47,0.39,1.18-0.05,1.69-0.18c3.15-0.85,5.68-4.22,8.76-5.43c3.15-1.24,6.52-2.01,9.92-1.87
	c5.91,0.24,11.18,3.13,14.97,7.6c3.85,4.54,6.05,10.45,6.58,16.34c0.25,2.8,0.38,5.99-0.38,8.69c-1.07,3.75-3.99,6.87-1.7,10.94
	c1.15,2.05,3.35,3.25,5.43,4.34c6.18,3.24,12.35,6.48,18.53,9.73c4.22,2.22,8.68,6.75,12.86,3.01c0.5-0.45,1.04-0.97,1.57-1.54
	c0.3-0.68,0.52-1.37,0.6-2.05C267.55,72.13,241.13,43.52,217.55,26.85z"/>
<g>
	<path class="st479" d="M169.49,88.35c-7.14-2.42-28.36-3.24-30.37-10.35c-2.67-9.42,25.39-33.54,53.42-26.59
		c28.03,6.95,63.04,24,69.61,49.46c0.73,2.84-0.67,6.63-1.93,9.13c-2.53,5-8.33,2.4-13.07,1.87c-6.93-0.77-13.86-1.55-20.8-2.32
		c-2.34-0.26-4.82-0.58-6.64-2.07c-3.61-2.96-2.03-6.93-2.39-10.81c-0.27-2.79-1.55-5.72-2.8-8.23c-2.63-5.29-6.84-10-12.07-12.83
		c-5.15-2.78-11.11-3.56-16.7-1.63c-3.22,1.11-6.07,3.05-8.56,5.35c-2.43,2.25-3.56,6.31-6.18,8.24
		C170.57,87.88,170.07,88.55,169.49,88.35z"/>
</g>
<path class="st126" d="M169.49,88.35c-7.14-2.42-28.36-3.24-30.37-10.35c-2.67-9.42,25.39-33.54,53.42-26.59
	c28.03,6.95,63.04,24,69.61,49.46c0.73,2.84-0.67,6.63-1.93,9.13c-2.53,5-8.33,2.4-13.07,1.87c-6.93-0.77-13.86-1.55-20.8-2.32
	c-2.34-0.26-4.82-0.58-6.64-2.07c-3.61-2.96-2.03-6.93-2.39-10.81c-0.27-2.79-1.55-5.72-2.8-8.23c-2.63-5.29-6.84-10-12.07-12.83
	c-5.15-2.78-11.11-3.56-16.7-1.63c-3.22,1.11-6.07,3.05-8.56,5.35c-2.43,2.25-3.56,6.31-6.18,8.24
	C170.57,87.88,170.07,88.55,169.49,88.35z"/>
<path class="st128" d="M191.32,56.4c-23.37-5.79-46.76,10.01-52.34,20.89c0.03,0.25,0.07,0.48,0.13,0.71
	c2.01,7.11,23.23,7.93,30.37,10.35c0.58,0.2,1.08-0.47,1.51-0.78c2.62-1.94,3.76-5.99,6.18-8.24c2.48-2.3,5.34-4.24,8.56-5.35
	c5.59-1.93,11.55-1.15,16.7,1.63c5.23,2.83,9.43,7.53,12.07,12.83c1.25,2.52,2.54,5.44,2.8,8.23c0.37,3.88-1.21,7.85,2.39,10.81
	c1.82,1.49,4.3,1.81,6.64,2.07c6.93,0.77,13.86,1.55,20.8,2.32c4.74,0.53,10.55,3.13,13.07-1.87c0.3-0.6,0.62-1.28,0.91-2.01
	c0.03-0.74-0.02-1.46-0.19-2.13C254.37,80.4,219.35,63.35,191.32,56.4z"/>
<path class="st480" d="M138.25,257.45c0.51-1.8,1.02-3.63,1.72-5.45c0.14-0.36,0.19-0.74,0.15-1.13c-0.22-2.22-0.75-4.14-0.24-6.39
	c0.38-1.67,1-3.27,1.34-4.94c0.43-2.12,0.4-4.31,0.84-6.42c0.58-2.8,2.45-4.16,3.86-6.39c0.86-1.36,1.44-3,2.14-4.46
	c0.27-0.56,0.74-1,1.32-1.22l3.72-1.46c0.18-0.07,0.35-0.16,0.5-0.27c4.56-3.16,8.72-1.79,13.67-2.92c0.49-0.11,1.01-0.07,1.48,0.13
	l3.42,1.42c0.49,0.2,1.03,0.24,1.54,0.11l3.91-0.99c0.21-0.05,0.44-0.08,0.66-0.08l3.72,0.08c0.53,0.01,1.06-0.15,1.49-0.47
	c2.82-2.04,4.27-2.4,7.66-2.33c0.37,0.01,0.75-0.07,1.09-0.23l3-1.4c0.6-0.28,1.3-0.31,1.92-0.07l3.22,1.24
	c0.25,0.1,0.51,0.15,0.78,0.16l3.5,0.15c0.64,0.03,1.24,0.3,1.68,0.76l3.04,3.21c0.18,0.19,0.39,0.35,0.62,0.47l4.03,2.16
	c0.48,0.26,0.86,0.67,1.08,1.17l1.84,4.15c0.12,0.27,0.28,0.51,0.49,0.72l3.2,3.29c0.36,0.37,0.59,0.83,0.67,1.34l0.69,4.48
	c0.05,0.33,0.17,0.64,0.34,0.92l2.4,3.86c0.26,0.42,0.39,0.9,0.37,1.4l-0.17,4.27c-0.01,0.34,0.04,0.67,0.16,0.98
	c2.72,7.05,0.62,16.29-1.01,23.57c-1.19,5.29-2.84,10.48-4.93,15.48c-1.79,4.27-3.92,10.86-7.33,14.08c-4.23,4-9.02,7.25-15.19,5.77
	c-3.34-0.8-6.44-2.85-9.88-2.75c-4.19,0.11-7.56,3.32-10.48,6.33c-2.85,2.93-7.76,9.18-12.44,8.74c-3.22-0.3-6.75-4.19-8.46-6.69
	c-1.73-2.58-2.96-5.46-4.66-8.06c-3.34-5.11-7.74-7.16-12.65-10.28c-4.08-2.59-8.94-6.73-9.55-11.82c-0.37-3.09,0.49-6.24,1.91-9.02
	c1.4-2.74,3.6-4.89,5.11-7.51C136.83,262.86,137.53,259.98,138.25,257.45z"/>
<ellipse transform="matrix(0.0228 -0.9997 0.9997 0.0228 -106.9191 442.246)" class="st481" cx="172.77" cy="275.82" rx="18.89" ry="18.89"/>
<ellipse transform="matrix(0.9392 -0.3434 0.3434 0.9392 -83.4558 76.0455)" class="st126" cx="173" cy="273.68" rx="18.89" ry="18.89"/>
<path class="st482" d="M181.68,260.56c1.31,1.82,0.89,4.36-0.94,5.67c-1.82,1.31-4.36,0.89-5.67-0.94
	c-1.31-1.82-0.89-4.36,0.94-5.67C177.84,258.32,180.38,258.74,181.68,260.56z"/>
<path class="st126" d="M204.47,352.75c-2.85-0.58-9.95-2.7-14.49-9.69c-4.07-6.28-4.99-14.68-2.71-24.95
	c5.9-26.66,13.1-64.92,13.17-65.3l0.03-0.17c0.79-3.53,4.4-17.91,12.17-24.36c-4.14-5.99-8.72-15.9-2.79-25.28l0.32-0.51
	c7.53-11.93,23.2-36.75,73.63-31.58c4.56,0.47,9,1.14,13.18,2c48.4,9.93,57.17,41.98,58.67,55.62c0.48,2.4,1.98,13.3-7.68,23.49
	c3.36,5.89,2.59,15.7,2.28,19.66c-1.61,20.45-13.55,74.99-15.53,83.95c0.5,2.51,0.84,7.44-2.73,11.56
	c-4.4,5.08-12.45,6.44-24.62,4.16c-1.63-0.31-3.2-0.62-4.73-0.93c-10.49-2.15-18.65-4.44-25.83-6.45
	c-5.41-1.52-10.09-2.83-14.64-3.76c-3.07-0.63-5.89-1.04-8.61-1.26c-14.83-1.19-44.93-5.58-47.46-5.95
	C205.81,352.98,205.25,352.91,204.47,352.75z"/>
<path class="st483" d="M340.67,252.06c0,0,7.32-3.05,5.61,18.68c-1.71,21.73-15.68,84.41-15.68,84.41s5.35,15.65-21.19,10.67
	c-26.54-4.98-39.19-11.26-54.35-12.48c-15.16-1.22-47.25-5.93-47.25-5.93s-20.47-1.71-14.48-28.76
	c5.99-27.05,13.21-65.46,13.21-65.46s5.24-23.51,15.34-23.54c0,0-13.68-13.35-6.64-24.48c7.04-11.13,21.12-34.67,69.13-29.75
	s65.01,31.14,67.34,53.37C351.72,228.79,355.04,241.66,340.67,252.06z"/>
<g>
	<path class="st479" d="M346.43,114.55c-18.88,15.29-47.49,12.5-63.08-6.93c-0.19-0.24-0.39-0.47-0.6-0.69
		c-10.73-11.58-15.13-28.81-14.27-44.26c0.42-7.49,1.65-13.91,0.3-21.45c-2.66-14.85-8.87-29.6,7.79-38.79
		c10.73-5.92,19.55-0.54,27.52,6.63c14.81,13.33,38.61,18.4,50.12,34.7c13.89,19.67,13.45,48.77-3.34,66.67
		C349.46,111.92,347.98,113.3,346.43,114.55z"/>
</g>
<path class="st482" d="M346.43,114.55c-18.88,15.29-47.49,12.5-63.08-6.93c-0.19-0.24-0.39-0.47-0.6-0.69
	c-10.73-11.58-15.13-28.81-14.27-44.26c0.42-7.49,1.65-13.91,0.3-21.45c-2.66-14.85-8.87-29.6,7.79-38.79
	c10.73-5.92,19.55-0.54,27.52,6.63c14.81,13.33,38.61,18.4,50.12,34.7c13.89,19.67,13.45,48.77-3.34,66.67
	C349.46,111.92,347.98,113.3,346.43,114.55z"/>
<g class="st484">
	<path class="st479" d="M343.32,110.19c-17.36,14.06-43.65,11.49-57.98-6.37c-0.18-0.22-0.36-0.43-0.55-0.64
		c-9.86-10.64-13.91-26.48-13.11-40.68c0.39-6.88,1.52-12.78,0.27-19.72c-2.44-13.65-8.16-27.21,7.16-35.65
		c9.87-5.44,17.97-0.5,25.29,6.09c13.61,12.25,35.49,16.92,46.07,31.89c12.77,18.08,12.36,44.82-3.07,61.28
		C346.11,107.77,344.75,109.03,343.32,110.19z"/>
</g>
<path class="st128" d="M343.31,110.25c-17.36,14.06-43.67,11.5-58-6.38c-0.18-0.22-0.36-0.43-0.55-0.64
	c-9.86-10.64-13.92-26.49-13.12-40.7c0.39-6.89,1.52-12.79,0.27-19.73c-2.45-13.66-8.16-27.22,7.16-35.66
	c9.87-5.44,17.98-0.5,25.3,6.09C318,25.5,339.89,30.17,350.47,45.15c12.78,18.09,12.37,44.84-3.07,61.3
	C346.11,107.83,344.74,109.1,343.31,110.25z"/>
<path class="st126" d="M294.41,49.45c-5.49,5.71-6.83,14.95-6.16,23.12c0.92,11.19,5.73,23.4,16.16,27.55
	c5.6,2.23,12.03,1.72,17.69-0.35c9.66-3.54,22.61-12.03,22.36-23.63c-0.2-9.35-6.52-18.17-13.43-23.95
	c-8.33-6.98-23.81-11.56-33.63-5.21C296.3,47.69,295.3,48.52,294.41,49.45z"/>
</svg>
