<?xml version="1.0" encoding="utf-8"?>
<!-- Generator: Adobe Illustrator 24.2.3, SVG Export Plug-In . SVG Version: 6.00 Build 0)  -->
<svg version="1.1" id="Слой_1" xmlns="http://www.w3.org/2000/svg" xmlns:xlink="http://www.w3.org/1999/xlink" x="0px" y="0px"
	 viewBox="0 0 515 993" style="enable-background:new 0 0 515 993;" xml:space="preserve">
<style type="text/css">
	.st0{fill:#000600;}
	.st1{clip-path:url(#SVGID_2_);fill:url(#SVGID_3_);}
	.st2{clip-path:url(#SVGID_2_);fill:#FF977E;}
	.st3{clip-path:url(#SVGID_2_);fill:#FE3000;}
	.st4{clip-path:url(#SVGID_2_);fill:#EF0B00;}
	.st5{clip-path:url(#SVGID_2_);fill:#FE7B24;}
	.st6{clip-path:url(#SVGID_2_);fill:#FE3100;}
	.st7{clip-path:url(#SVGID_2_);fill:#F1DFD8;}
	.st8{clip-path:url(#SVGID_2_);fill:#F60000;}
	.st9{clip-path:url(#SVGID_2_);fill:#BF1200;}
	.st10{clip-path:url(#SVGID_2_);fill:#FF0000;}
	.st11{clip-path:url(#SVGID_2_);fill:#AC7401;}
	.st12{clip-path:url(#SVGID_5_);fill:#EFE300;}
	.st13{clip-path:url(#SVGID_5_);fill:#FCEA68;}
	.st14{clip-path:url(#SVGID_5_);fill:#FFFEB4;}
	.st15{clip-path:url(#SVGID_5_);fill:#FFFA9F;}
	.st16{clip-path:url(#SVGID_5_);fill:#FFF68A;}
	.st17{clip-path:url(#SVGID_5_);fill:#FFFBD4;}
	.st18{opacity:0.87;clip-path:url(#SVGID_5_);fill:#FFFDE0;}
	.st19{clip-path:url(#SVGID_5_);fill:#EE9658;}
	.st20{clip-path:url(#SVGID_5_);fill:#314255;}
	.st21{clip-path:url(#SVGID_5_);fill:#FEDBB1;}
	.st22{clip-path:url(#SVGID_5_);fill:#FDBA8B;}
	.st23{clip-path:url(#SVGID_5_);}
	.st24{fill:#FFFBD4;}
	.st25{clip-path:url(#SVGID_5_);fill:#FFFDE0;}
	.st26{clip-path:url(#SVGID_7_);fill:#00A7CA;}
	.st27{clip-path:url(#SVGID_7_);fill:none;}
	.st28{clip-path:url(#SVGID_7_);fill:#4DD4F7;}
	.st29{clip-path:url(#SVGID_7_);fill:#6EDBF4;}
	.st30{clip-path:url(#SVGID_7_);fill:#D50C25;}
	.st31{clip-path:url(#SVGID_7_);fill:#B0F1F6;}
	.st32{clip-path:url(#SVGID_7_);fill:#0088B4;}
	.st33{opacity:0.81;}
	.st34{filter:url(#Adobe_OpacityMaskFilter);}
	.st35{opacity:0.74;mask:url(#SVGID_10_);}
	.st36{clip-path:url(#SVGID_12_);fill:#000202;}
	.st37{filter:url(#Adobe_OpacityMaskFilter_1_);}
	.st38{opacity:0.74;mask:url(#SVGID_15_);}
	.st39{clip-path:url(#SVGID_17_);fill:#000202;}
	.st40{opacity:0.75;fill:url(#SVGID_18_);}
	.st41{clip-path:url(#SVGID_20_);fill:#2B747C;}
	.st42{clip-path:url(#SVGID_20_);fill:#55AFB7;}
	.st43{clip-path:url(#SVGID_20_);fill:#3FA5B0;}
	.st44{clip-path:url(#SVGID_20_);fill:#6DCDCF;}
	.st45{clip-path:url(#SVGID_20_);fill:#214180;}
	.st46{fill:#0071C5;}
	.st47{clip-path:url(#SVGID_22_);fill:#83D5FB;}
	.st48{clip-path:url(#SVGID_22_);fill:#00ABF0;}
	.st49{clip-path:url(#SVGID_22_);fill:#57CAF9;}
	.st50{clip-path:url(#SVGID_22_);fill:#0071C5;}
	.st51{clip-path:url(#SVGID_22_);fill:#31C5F8;}
	.st52{clip-path:url(#SVGID_22_);fill:#3DCFF7;}
	.st53{clip-path:url(#SVGID_24_);fill:#00ABF0;}
	.st54{clip-path:url(#SVGID_24_);fill:#83D5FB;}
	.st55{clip-path:url(#SVGID_24_);fill:#31C5F8;}
	.st56{clip-path:url(#SVGID_24_);fill:#0071C5;}
	.st57{clip-path:url(#SVGID_24_);fill:#57CAF9;}
	.st58{clip-path:url(#SVGID_24_);fill:#A6A6A6;}
	.st59{clip-path:url(#SVGID_26_);fill:#D670E1;}
	.st60{clip-path:url(#SVGID_26_);fill:#E5B1EC;}
	.st61{clip-path:url(#SVGID_26_);fill:#8A9093;}
	.st62{clip-path:url(#SVGID_26_);fill:#901C9D;}
	.st63{clip-path:url(#SVGID_26_);fill:#CBCED1;}
	.st64{clip-path:url(#SVGID_26_);fill:#DDD9CF;}
	.st65{clip-path:url(#SVGID_26_);fill:#543F31;}
	.st66{clip-path:url(#SVGID_26_);fill:#C18875;}
	.st67{clip-path:url(#SVGID_26_);fill:#B1B7BA;}
	.st68{clip-path:url(#SVGID_26_);fill:#899093;}
	.st69{clip-path:url(#SVGID_26_);fill:#D39A85;}
	.st70{fill:#E5B1EC;}
	.st71{clip-path:url(#SVGID_28_);}
	.st72{fill:#E097E9;}
	.st73{fill:#D670E1;}
	.st74{clip-path:url(#SVGID_30_);fill:#FFE406;}
	.st75{opacity:0.5;clip-path:url(#SVGID_30_);}
	.st76{fill:#A0C7FF;}
	.st77{fill:#FF8900;}
	.st78{clip-path:url(#SVGID_30_);fill:#FFEA9E;}
	.st79{clip-path:url(#SVGID_30_);}
	.st80{fill:#FFCB33;}
	.st81{fill:#FFEA9E;}
	.st82{fill:#2A356B;}
	.st83{clip-path:url(#SVGID_30_);fill:#FFCB33;}
	.st84{clip-path:url(#SVGID_30_);fill:#A0C7FF;}
	.st85{clip-path:url(#SVGID_30_);fill:#FF8900;}
	.st86{clip-path:url(#SVGID_30_);fill:#2A356B;}
	.st87{fill:#1B254E;}
	.st88{clip-path:url(#SVGID_30_);fill:#C02C28;}
	.st89{clip-path:url(#SVGID_30_);fill:#FF7400;}
	.st90{fill:#FFE406;}
	.st91{clip-path:url(#SVGID_30_);fill:#FFEF6E;}
	.st92{clip-path:url(#SVGID_32_);fill:#FFE473;}
	.st93{fill:#FFFFFF;}
	.st94{fill:#AAD5C0;}
	.st95{fill:none;stroke:#FFFFFF;stroke-miterlimit:10;}
	.st96{fill:#9FC8A8;}
	.st97{fill:#93CA9E;}
	.st98{opacity:0.76;}
	.st99{fill:#C1E6CA;}
	.st100{fill:url(#SVGID_33_);}
	.st101{fill:url(#SVGID_34_);}
	.st102{fill:url(#SVGID_35_);}
	.st103{fill:#F3E3BB;}
	.st104{fill:url(#SVGID_36_);}
	.st105{fill:url(#SVGID_37_);}
	.st106{fill:url(#SVGID_38_);}
	.st107{fill:url(#SVGID_39_);}
	.st108{fill:url(#SVGID_40_);}
	.st109{fill:url(#SVGID_41_);}
	.st110{fill:#E1EBC1;}
	.st111{fill:#ECF8CF;}
	.st112{fill:url(#SVGID_42_);}
	.st113{fill:url(#SVGID_43_);}
	.st114{fill:url(#SVGID_44_);}
	.st115{fill:url(#SVGID_45_);}
	.st116{fill:url(#SVGID_46_);}
	.st117{fill:#FFE190;}
	.st118{clip-path:url(#SVGID_48_);fill:url(#SVGID_49_);}
	.st119{fill:#5B2A1E;}
	.st120{fill:#8D7673;}
	.st121{fill:url(#SVGID_50_);}
	.st122{fill:url(#SVGID_51_);}
	.st123{fill:url(#SVGID_52_);}
	.st124{fill:url(#SVGID_53_);}
	.st125{fill:#FF8A8A;}
	.st126{fill:#FF963A;}
	.st127{opacity:0.75;fill:#FFFFFF;}
	.st128{fill:#FFC181;}
	.st129{fill:none;}
	.st130{clip-path:url(#SVGID_55_);fill:#FFDFBD;}
	.st131{clip-path:url(#SVGID_55_);fill:#FF9D00;}
	.st132{clip-path:url(#SVGID_55_);fill:#FFF3DF;}
	.st133{fill:url(#SVGID_56_);}
	.st134{fill:#FFFEEA;}
	.st135{fill:#58D196;}
	.st136{fill:#A6E5C3;}
	.st137{fill:#D2F2E1;}
	.st138{opacity:0.44;fill:#FFFFFF;}
	.st139{clip-path:url(#SVGID_58_);fill:#FFF9C1;}
	.st140{opacity:0.26;fill:#FFFFFF;}
	.st141{opacity:0.62;fill:#FFFFFF;}
	.st142{opacity:0.41;fill:#FFFFFF;}
	.st143{opacity:0.69;fill:#FFFFFF;}
	.st144{opacity:0.73;fill:#FFFFFF;}
	.st145{opacity:0.16;fill:#FFFFFF;}
	.st146{opacity:0.3;fill:#FFFFFF;}
	.st147{opacity:0.23;fill:#FFFFFF;}
	.st148{opacity:0.24;fill:#FFFFFF;}
	.st149{opacity:0.43;fill:#FFFFFF;}
	.st150{opacity:0.76;fill:#FFFFFF;}
	.st151{opacity:0.08;fill:#FFFFFF;}
	.st152{opacity:0.27;fill:#FFFFFF;}
	.st153{opacity:0.37;fill:#FFFFFF;}
	.st154{opacity:0.54;fill:#FFFFFF;}
	.st155{opacity:0.66;}
	.st156{opacity:0.28;}
	.st157{fill:#55AFB7;}
	.st158{fill:#2AB1B8;}
	.st159{fill:#00ACBD;}
	.st160{fill:#F787A5;}
	.st161{fill:#8F693D;}
	.st162{fill:#FBBACC;}
	.st163{fill:#E6678D;}
	.st164{fill:#574435;}
	.st165{fill:#C6A17C;}
	.st166{fill:#641F1E;}
	.st167{fill:#F15E89;}
	.st168{fill:#E7005E;}
	.st169{fill:#DBB487;}
	.st170{fill:#FF1B6F;}
	.st171{fill:#DCB487;}
	.st172{fill:#F07699;}
	.st173{fill:#F8F8F6;}
	.st174{fill:#F5C1D9;}
	.st175{fill:#E1B7B2;}
	.st176{fill:#FFB9C3;}
	.st177{fill:#FFC5D6;}
	.st178{fill:#D72264;}
	.st179{fill:#F7F7F7;}
	.st180{fill:#F2F2F2;}
	.st181{fill:#FFFBF0;}
	.st182{fill:#FFBFCF;}
	.st183{fill:#FF6794;}
	.st184{fill:#FFC2C1;}
	.st185{fill:#FFCCD5;}
	.st186{fill:#FF6B81;}
	.st187{fill:#B19B8C;}
	.st188{fill:#FFE2EA;}
	.st189{fill:#EFEFEF;}
	.st190{fill:#FF9DAE;}
	.st191{fill:#A0C2D9;}
	.st192{fill:#583B34;}
	.st193{fill:#AFCDE2;}
	.st194{fill:#F9F9F8;}
	.st195{fill:#DECDC5;}
	.st196{fill:#D7926B;}
	.st197{fill:#FFE9F2;}
	.st198{fill:#FFDBE5;}
	.st199{fill:#F2CCC1;}
	.st200{fill:#DF4E50;}
	.st201{fill:#FFFFFF;stroke:#FFFFFF;stroke-width:0.25;stroke-miterlimit:10;}
	.st202{fill:#00C377;}
	.st203{fill:#85E2AC;}
	.st204{fill:#00B45A;}
	.st205{fill:#7FD7A7;}
	.st206{fill:#EFB93A;}
	.st207{fill:#B69C65;}
	.st208{fill:#95CF81;}
	.st209{fill:#3C3724;}
	.st210{fill:#D3BB9F;}
	.st211{fill:#998074;}
	.st212{fill:#587147;}
	.st213{fill:#E4D3BB;}
	.st214{fill:#5CC386;}
	.st215{clip-path:url(#SVGID_60_);fill:#A6E5C3;}
	.st216{clip-path:url(#SVGID_60_);fill:#FFFFFF;}
	.st217{clip-path:url(#SVGID_60_);fill:#58D196;}
	.st218{fill:#FFEF6E;}
	.st219{fill:#FFE200;}
	.st220{clip-path:url(#SVGID_62_);fill:#FDA157;}
	.st221{clip-path:url(#SVGID_62_);fill-rule:evenodd;clip-rule:evenodd;fill:#FF8429;}
	.st222{clip-path:url(#SVGID_62_);fill:#F35000;}
	.st223{clip-path:url(#SVGID_62_);fill:#F6B646;}
	.st224{fill:#F35000;}
	.st225{fill:#FF8429;}
	.st226{fill:#FFA933;}
	.st227{fill:#E26D00;}
	.st228{fill:#EC6406;}
	.st229{fill:#FF9900;}
	.st230{fill:#130077;}
	.st231{fill:#FFB58D;}
	.st232{opacity:0.3;}
	.st233{fill:#FF7300;}
	.st234{fill:#6E0000;}
	.st235{fill-rule:evenodd;clip-rule:evenodd;fill:#FF9900;}
	.st236{fill-rule:evenodd;clip-rule:evenodd;fill:url(#SVGID_63_);}
	.st237{opacity:0.3;fill-rule:evenodd;clip-rule:evenodd;fill:#A1002C;}
	.st238{fill-rule:evenodd;clip-rule:evenodd;fill:url(#SVGID_64_);}
	.st239{fill-rule:evenodd;clip-rule:evenodd;fill:url(#SVGID_65_);}
	.st240{opacity:0.5;fill-rule:evenodd;clip-rule:evenodd;fill:url(#SVGID_66_);}
	.st241{fill-rule:evenodd;clip-rule:evenodd;fill:#FFC182;}
	.st242{fill-rule:evenodd;clip-rule:evenodd;fill:url(#SVGID_67_);}
	.st243{fill-rule:evenodd;clip-rule:evenodd;fill:url(#SVGID_68_);}
	.st244{fill-rule:evenodd;clip-rule:evenodd;fill:url(#SVGID_69_);}
	.st245{opacity:0.5;fill-rule:evenodd;clip-rule:evenodd;fill:url(#SVGID_70_);}
	.st246{fill-rule:evenodd;clip-rule:evenodd;fill:#FDA157;}
	.st247{opacity:0.5;fill-rule:evenodd;clip-rule:evenodd;fill:#FDA157;}
	.st248{fill-rule:evenodd;clip-rule:evenodd;fill:#FF8429;}
	.st249{fill-rule:evenodd;clip-rule:evenodd;fill:#FFA933;}
	.st250{opacity:0.62;fill-rule:evenodd;clip-rule:evenodd;fill:#C5002A;}
	.st251{opacity:0.5;fill-rule:evenodd;clip-rule:evenodd;fill:#FF8429;}
	.st252{opacity:0.5;fill-rule:evenodd;clip-rule:evenodd;fill:#8C5472;}
	.st253{opacity:0.3;fill-rule:evenodd;clip-rule:evenodd;fill:url(#SVGID_71_);}
	.st254{opacity:0.5;fill-rule:evenodd;clip-rule:evenodd;fill:url(#SVGID_72_);}
	.st255{opacity:0.3;fill-rule:evenodd;clip-rule:evenodd;fill:url(#SVGID_73_);}
	.st256{opacity:0.3;fill-rule:evenodd;clip-rule:evenodd;fill:url(#SVGID_74_);}
	.st257{clip-path:url(#SVGID_76_);}
	.st258{clip-path:url(#SVGID_76_);fill:#FF8429;}
	.st259{fill:#FDA157;}
	.st260{clip-path:url(#SVGID_78_);}
	.st261{fill:#F58800;}
	.st262{clip-path:url(#SVGID_80_);}
	.st263{fill:#F6B646;}
	.st264{clip-path:url(#SVGID_82_);}
	.st265{clip-path:url(#SVGID_82_);fill:#FF8429;}
	.st266{fill-rule:evenodd;clip-rule:evenodd;fill:url(#SVGID_83_);}
	.st267{fill-rule:evenodd;clip-rule:evenodd;fill:url(#SVGID_84_);}
	.st268{fill-rule:evenodd;clip-rule:evenodd;fill:url(#SVGID_85_);}
	.st269{opacity:0.5;fill-rule:evenodd;clip-rule:evenodd;fill:url(#SVGID_86_);}
	.st270{fill-rule:evenodd;clip-rule:evenodd;fill:url(#SVGID_87_);}
	.st271{fill-rule:evenodd;clip-rule:evenodd;fill:url(#SVGID_88_);}
	.st272{fill-rule:evenodd;clip-rule:evenodd;fill:url(#SVGID_89_);}
	.st273{opacity:0.5;fill-rule:evenodd;clip-rule:evenodd;fill:url(#SVGID_90_);}
	.st274{opacity:0.3;fill-rule:evenodd;clip-rule:evenodd;fill:url(#SVGID_91_);}
	.st275{opacity:0.5;fill-rule:evenodd;clip-rule:evenodd;fill:url(#SVGID_92_);}
	.st276{opacity:0.3;fill-rule:evenodd;clip-rule:evenodd;fill:url(#SVGID_93_);}
	.st277{opacity:0.3;fill-rule:evenodd;clip-rule:evenodd;fill:url(#SVGID_94_);}
	.st278{opacity:0.88;fill:#FFFEF3;}
	.st279{fill:#FFCD66;}
	.st280{fill:#ADA9AA;}
	.st281{fill:#FFE473;}
	.st282{fill:#FFE585;}
	.st283{fill:#F4C500;}
	.st284{fill:#FFE894;}
	.st285{clip-path:url(#SVGID_96_);fill:#FFCB33;}
	.st286{clip-path:url(#SVGID_96_);fill:#FFE406;}
	.st287{clip-path:url(#SVGID_98_);fill:#901C9D;}
	.st288{opacity:0.5;clip-path:url(#SVGID_98_);}
	.st289{fill:#901C9D;}
	.st290{clip-path:url(#SVGID_98_);}
	.st291{clip-path:url(#SVGID_100_);fill:#E097E9;}
	.st292{fill:#CC37D8;}
	.st293{opacity:0.5;fill:#FFFFFF;}
	.st294{opacity:0.5;fill:#FFFFFF;stroke:#FFFFFF;stroke-miterlimit:10;}
	.st295{opacity:0.68;fill:#FFFFFF;}
	.st296{fill:#F0C6F4;}
	.st297{fill:#D7A0DF;}
	.st298{fill:#A87B41;}
	.st299{fill:#8A9093;}
	.st300{fill:#CBCED1;}
	.st301{fill:#DDD9CF;}
	.st302{fill:#543F31;}
	.st303{fill:#C18875;}
	.st304{fill:#B1B7BA;}
	.st305{fill:#899093;}
	.st306{fill:#D39A85;}
	.st307{fill:#3DCFF7;}
	.st308{fill:#57CAF9;}
	.st309{fill:#F92405;}
	.st310{fill:#B30000;}
	.st311{fill:#FA3C20;}
	.st312{fill:#E09E80;}
	.st313{fill:#950000;}
	.st314{fill:#F50000;}
	.st315{clip-path:url(#SVGID_102_);fill:#F787A5;}
	.st316{clip-path:url(#SVGID_102_);fill:#FFE9F2;}
	.st317{clip-path:url(#SVGID_102_);fill:#D3CFB3;}
	.st318{clip-path:url(#SVGID_102_);fill:#FFDBE5;}
	.st319{clip-path:url(#SVGID_102_);}
	.st320{clip-path:url(#SVGID_102_);fill:#FFC5D6;}
	.st321{fill:#F88EB2;}
	.st322{fill:#BAA292;}
	.st323{fill:#63443C;}
	.st324{fill:#CDA99E;}
	.st325{fill:#9FC1D8;}
	.st326{fill:#997972;}
	.st327{fill:#77573F;}
	.st328{opacity:0.45;fill:#FFFFFF;}
	.st329{opacity:0.8;fill:#FFFFFF;}
	.st330{opacity:0.79;fill:#FFFFFF;}
	.st331{opacity:0.46;}
	.st332{opacity:0.86;fill:#FFFFFF;}
	.st333{fill-rule:evenodd;clip-rule:evenodd;fill:#FA3C20;}
	.st334{fill-rule:evenodd;clip-rule:evenodd;fill:#CE0707;}
	.st335{fill-rule:evenodd;clip-rule:evenodd;fill:#F92405;}
	.st336{fill-rule:evenodd;clip-rule:evenodd;fill:#F50000;}
	.st337{fill-rule:evenodd;clip-rule:evenodd;fill:#F75F53;}
	.st338{fill:#F75F53;}
	.st339{clip-path:url(#SVGID_104_);fill:#574435;}
	.st340{clip-path:url(#SVGID_104_);fill:#C6A17C;}
	.st341{clip-path:url(#SVGID_104_);fill:#8F693D;}
	.st342{clip-path:url(#SVGID_104_);fill:#CE0707;}
	.st343{clip-path:url(#SVGID_104_);fill:#FA3C20;}
	.st344{clip-path:url(#SVGID_104_);fill:#950000;}
	.st345{clip-path:url(#SVGID_104_);fill:#F75F53;}
	.st346{clip-path:url(#SVGID_104_);fill:#131212;}
	.st347{clip-path:url(#SVGID_104_);fill:#B30000;}
	.st348{clip-path:url(#SVGID_104_);fill:#412A1A;}
	.st349{clip-path:url(#SVGID_104_);fill:#DCC4AD;}
	.st350{clip-path:url(#SVGID_104_);fill:#BD835C;}
	.st351{fill:#CE0707;}
	.st352{fill:#A99BB6;}
	.st353{fill:#381A12;}
	.st354{fill:#E9C9B6;}
	.st355{fill:#AA9CB9;}
	.st356{fill:#F6F4F3;}
	.st357{fill:#0A345E;}
	.st358{fill:#412A1A;}
	.st359{fill:#131212;}
	.st360{fill:#DCC4AD;}
	.st361{fill:#BD835C;}
	.st362{fill:#83D5FB;}
	.st363{fill:#00ABF0;}
	.st364{fill:#31C5F8;}
	.st365{opacity:0.34;fill:#FFFFFF;}
	.st366{opacity:0.25;fill:#FFFFFF;}
	.st367{opacity:0.6;fill:#FFFFFF;}
	.st368{fill:#B0AEAB;}
	.st369{fill:#0D0707;}
	.st370{fill:#A6A6A6;}
	.st371{fill:#0068A6;}
	.st372{opacity:0.6;}
	.st373{opacity:0.17;fill:#FFFFFF;}
	.st374{opacity:0.39;fill:#FFFFFF;}
	.st375{opacity:0.71;fill:#FFFFFF;}
	.st376{fill:url(#SVGID_105_);}
	.st377{clip-path:url(#SVGID_107_);fill:#FFDFBD;}
	.st378{clip-path:url(#SVGID_107_);fill:#FF9D00;}
	.st379{clip-path:url(#SVGID_107_);fill:#FFF3DF;}
	.st380{clip-path:url(#SVGID_109_);fill:#FFBAE4;}
	.st381{opacity:0.8;clip-path:url(#SVGID_109_);fill:#FE82C8;}
	.st382{clip-path:url(#SVGID_109_);fill:#FE82C8;}
	.st383{opacity:0.79;clip-path:url(#SVGID_109_);fill:#FFBAE4;}
	.st384{fill:url(#SVGID_110_);}
	.st385{clip-path:url(#SVGID_112_);fill:#FFF9C1;}
	.st386{fill:url(#SVGID_113_);}
	.st387{fill:url(#SVGID_114_);}
	.st388{opacity:0.86;fill:#FFCCD5;}
	.st389{fill:url(#SVGID_115_);}
	.st390{opacity:0.4;}
	.st391{clip-path:url(#SVGID_117_);}
	.st392{clip-path:url(#SVGID_117_);fill:none;}
	.st393{fill:#6DCDCF;}
	.st394{fill:#2B747C;}
	.st395{fill:#1E1E1E;}
	.st396{fill:#272727;}
	.st397{fill:#3FA5B0;}
	.st398{fill:#1F1F1F;}
	.st399{fill:#242424;}
	.st400{fill-rule:evenodd;clip-rule:evenodd;fill:#2B747C;}
	.st401{fill-rule:evenodd;clip-rule:evenodd;fill:#6DCDCF;}
	.st402{fill-rule:evenodd;clip-rule:evenodd;fill:#3FA5B0;}
	.st403{clip-path:url(#SVGID_119_);fill:#3FA5B0;}
	.st404{clip-path:url(#SVGID_119_);fill:#2AB1B8;}
	.st405{clip-path:url(#SVGID_119_);fill:#55AFB7;}
	.st406{clip-path:url(#SVGID_119_);fill:#00ACBD;}
	.st407{clip-path:url(#SVGID_119_);fill:#616161;}
	.st408{clip-path:url(#SVGID_119_);fill:#6DCDCF;}
	.st409{clip-path:url(#SVGID_119_);fill:#2B747C;}
	.st410{fill:url(#SVGID_120_);}
	.st411{fill:url(#SVGID_121_);}
	.st412{fill:url(#SVGID_122_);}
	.st413{fill:url(#SVGID_123_);}
	.st414{fill:url(#SVGID_124_);}
	.st415{fill:url(#SVGID_125_);}
	.st416{fill:url(#SVGID_126_);}
	.st417{fill:url(#SVGID_127_);}
	.st418{fill:url(#SVGID_128_);}
	.st419{fill:url(#SVGID_129_);}
	.st420{fill:url(#SVGID_130_);}
	.st421{fill:url(#SVGID_131_);}
	.st422{fill:url(#SVGID_132_);}
	.st423{fill:url(#SVGID_133_);}
	.st424{clip-path:url(#SVGID_135_);fill:url(#SVGID_136_);}
	.st425{fill:url(#SVGID_137_);}
	.st426{fill:url(#SVGID_138_);}
	.st427{fill:url(#SVGID_139_);}
	.st428{fill:url(#SVGID_140_);}
	.st429{clip-path:url(#SVGID_142_);fill:url(#SVGID_143_);}
	.st430{clip-path:url(#SVGID_142_);}
	.st431{opacity:0.75;clip-path:url(#SVGID_142_);fill:url(#SVGID_146_);}
	.st432{fill:none;stroke:#FFFFFF;stroke-width:2;stroke-miterlimit:10;}
	.st433{fill:#EFC2A7;}
	.st434{fill:none;stroke:#FFFFFF;stroke-width:0.75;stroke-miterlimit:10;}
	.st435{fill:none;stroke:#FFFFFF;stroke-width:3;stroke-miterlimit:10;}
	.st436{fill:url(#SVGID_153_);}
	.st437{fill:url(#SVGID_154_);}
	.st438{filter:url(#Adobe_OpacityMaskFilter_2_);}
	.st439{opacity:0.74;mask:url(#SVGID_157_);}
	.st440{clip-path:url(#SVGID_159_);fill:#000202;}
	.st441{opacity:0.75;fill:url(#SVGID_160_);}
	.st442{clip-path:url(#SVGID_162_);}
	.st443{fill:#1A1A1A;}
	.st444{fill:url(#SVGID_163_);}
	.st445{fill:url(#SVGID_164_);}
	.st446{clip-path:url(#SVGID_166_);}
	.st447{fill:url(#SVGID_177_);}
	.st448{filter:url(#Adobe_OpacityMaskFilter_3_);}
	.st449{opacity:0.74;mask:url(#SVGID_180_);}
	.st450{clip-path:url(#SVGID_182_);fill:#000202;}
	.st451{opacity:0.75;fill:url(#SVGID_183_);}
	.st452{fill:none;stroke:#FFFFFF;stroke-width:4;stroke-miterlimit:10;}
	.st453{fill:#FFFFFF;stroke:#FFFFFF;stroke-miterlimit:10;}
	.st454{clip-path:url(#SVGID_193_);}
	.st455{opacity:0.37;clip-path:url(#SVGID_193_);}
	.st456{opacity:0.53;clip-path:url(#SVGID_193_);}
	.st457{fill:#352417;}
	.st458{fill:#FEC3B5;}
	.st459{fill:#FFE4DA;}
	.st460{fill:#9E7458;}
	.st461{fill:#B0805C;}
	.st462{fill:#EFE300;}
	.st463{fill:#FCEA68;}
	.st464{fill:#FFFEB4;}
	.st465{fill:#FFFA9F;}
	.st466{fill:#FFF68A;}
	.st467{opacity:0.87;fill:#FFFDE0;}
	.st468{fill:#EE9658;}
	.st469{fill:#314255;}
	.st470{fill:#FEDBB1;}
	.st471{fill:#FDBA8B;}
	.st472{fill:#FFFDE0;}
	.st473{opacity:0.95;fill:#F9B4E7;}
	.st474{fill:#FE82C8;}
	.st475{opacity:0.63;fill:#F94BAB;}
	.st476{opacity:0.37;fill:#F94BAB;}
	.st477{fill:#FFDFBD;}
	.st478{fill:#FFF3DF;}
	.st479{fill:#58595B;}
	.st480{fill:#FCD1A9;}
	.st481{fill:#FF5700;}
	.st482{fill:#FFF6E2;}
	.st483{opacity:0.37;fill:#FFDFBD;}
	.st484{opacity:0.53;}
	.st485{fill:#8B5E50;}
	.st486{fill:#29CE61;}
	.st487{fill:#02B769;}
	.st488{fill:#E3CCAC;}
	.st489{fill:#C18C65;}
	.st490{fill:#B49B83;}
	.st491{fill:#C6AC94;}
	.st492{fill:#F0EEE6;}
	.st493{fill:#DDD7CF;}
	.st494{fill:#FF977E;}
	.st495{fill:#FE3000;}
	.st496{fill:#EF0B00;}
	.st497{fill:#FE7B24;}
	.st498{fill:#FE3100;}
	.st499{fill:#F1DFD8;}
	.st500{fill:#F60000;}
	.st501{fill:#BF1200;}
	.st502{fill:#FF0000;}
	.st503{fill:#AC7401;}
	.st504{fill:#656768;}
	.st505{fill:#4DD4F7;}
	.st506{fill:#00A7CA;}
	.st507{fill:#6EDBF4;}
	.st508{fill:#D50C25;}
	.st509{fill:#B0F1F6;}
	.st510{fill:#0088B4;}
	.st511{fill:#005EB1;}
	.st512{fill:none;stroke:#259ADD;stroke-miterlimit:10;}
	.st513{fill:#259ADD;}
	.st514{opacity:0.4;fill:#00336C;}
	.st515{fill:#0089D9;}
	.st516{fill:none;stroke:#005EB1;stroke-width:0.8397;stroke-linecap:round;stroke-linejoin:round;stroke-miterlimit:10;}
	.st517{fill:none;stroke:#83D5FB;stroke-miterlimit:10;}
</style>
<path class="st494" d="M486.89,140.14c-1.48,0.69-2.99,1.31-4.48,1.96c-6.31-12.47-19.62-19.57-32.68-17.43
	c-14.57,2.38-25.02,12.76-27.05,27.14c-0.85,6.03,0.24,11.87,2.77,17.42c-3.91,2.08-7.88,4.01-11.98,5.68
	c-9.35-19.56-18.69-39.12-28.04-58.68c6.17-11.83,5.93-23.4-1.82-34.4c-5-7.09-12.01-11.23-20.64-12.51
	c-1.75-4.03-4.37-7.68-5.35-12.05c2.54-1.43,5.03,0.06,7.52,0.2c4.27,0.25,8.52,0.87,12.78,1.34c5.79,0.63,11.58,1.29,17.38,1.9
	c4.18,0.44,8.36,0.82,12.55,1.21c0.34,0.03,0.73-0.1,1.03,0.02c4.51,1.79,6.41-1.37,8.62-4.31c6.8-9.07,13.72-18.06,20.61-27.06
	c1.36-1.77,1.14-2.34-1.03-2.88c-1.04-0.26-2.55,0.74-3.06-1.05c1.29-1.82,2.59-3.64,4.16-5.85c-14.76-1.39-29.24-2.75-43.73-4.12
	c3.64-3.61,7.36-7.16,9.43-12c0.7-1.63,1.73-3.16,1.57-5.06c37.06,0,74.12,0,111.19,0c-0.01,41.16-0.01,82.32-0.02,123.49
	c0,1.04-0.05,2.07-0.08,3.11C506.63,130.84,496.77,135.5,486.89,140.14z M502.75,46.67c0.03-17.42-14.02-31.42-31.55-31.42
	c-17.3,0-31.36,13.97-31.49,31.3c-0.13,17.32,14.05,31.52,31.49,31.52C488.75,78.07,502.72,64.17,502.75,46.67z"/>
<path class="st494" d="M102-0.41c2.19,6.19,5.42,11.89,8.22,17.8c8,16.91,16.14,33.76,24.24,50.63c0.33,0.7,0.75,1.35,1.12,2.03
	c1.2-0.49,2.37-1.06,3.6-1.44c8.83-2.7,17.34-2.24,25.39,2.63c1.01,0.11,1.82-0.45,2.67-0.85c9.98-4.73,19.96-9.44,29.91-14.22
	c2.15-1.04,4.49-1.75,6.46-3.3c-3.44-3.88-3.17-8.68-3.6-13.28c-0.44-1-0.48-2.05-0.38-3.11c-0.06-0.28-0.13-0.55-0.19-0.83
	c-0.36-0.56-0.41-1.17-0.27-1.8c-0.47-3.62-1.12-7.22-1.04-10.9c-0.21-1.01-0.35-2.05-0.63-3.04c-1.38-4.9-0.17-7.33,4.58-9.03
	c4.87-1.73,9.96-2.24,15.06-2.42c20.45-0.72,40.81,1.41,61.21,2.23c5.23,0.21,10.5,1.12,15.71-0.29c0.7-0.63,0.56-1.26,0.16-2.04
	c-1.41-2.73-2.75-5.51-4.11-8.27c-0.44,0.01-0.84-0.08-1.07-0.5c-31,0-62,0-93,0c-6.15,19.68-31.73,27.62-48.41,14.97
	c-5.09-3.86-9.18-8.56-10.82-14.97C125.21-0.41,113.6-0.41,102-0.41z"/>
<path class="st495" d="M199.17,33.85c-0.47-3.62-1.12-7.22-1.04-10.9c0.84-0.51,0.26-1.47,0.7-2.18c7.96,6.54,17.5,7.15,27.18,7.41
	c16.84,0.46,33.28-2.15,49.61-5.98c7.05-1.65,13.98-3.72,20.97-5.55c2.83-0.74,2.48-3.24,3.54-4.92c0.44-0.7-0.73-0.65-1.25-0.69
	c-1.62-0.13-3.31,0.33-4.81-0.63c0.7-0.63,0.56-1.26,0.16-2.04c-1.41-2.73-2.75-5.51-4.11-8.27c0.05-0.17,0.04-0.34-0.03-0.5
	c6.06,0,12.12,0,18.18,0c0.31,0.6,0.71,1.18,0.93,1.82c0.47,1.34,1.41,1.04,2.26,0.63c1.7-0.81,0.19-1.63-0.07-2.45
	c13.68,0,27.36,0,41.05,0c-2.33,2.19-5.21,3.54-7.94,5.1c-3.8,2.18-7.69,4.2-11.74,5.9c-0.33-1-0.65-1.99-0.98-2.99
	c-0.15,0.04-0.3,0.08-0.46,0.12c0.57,4.11,1.03,8.23,1.73,12.32c0.63,3.66-0.22,5.75-3.49,7.34c-3.8,1.85-7.62,3.66-11.44,5.46
	c-3.29,1.55-5,0.98-7.4-1.74c-1.97-2.24-3.45-4.97-6.16-6.51c0,0,0.06-0.02,0.06-0.02c-0.16-0.19-0.32-0.38-0.49-0.57
	c-0.08-0.07-0.16-0.14-0.24-0.21c0.07,0.08,0.14,0.16,0.2,0.24c-0.01,0.19-0.01,0.38-0.02,0.57c-6.78,2.78-13.45,5.81-20.42,8.15
	c-9.83,3.3-19.8,5.95-30.08,7.4c-6.84,0.96-13.7,1.62-20.61,1.52c-10.57-0.15-20.95-1.61-31.08-4.68c-0.74-0.22-1.51-0.34-2.26-0.5
	c-0.06-0.28-0.13-0.55-0.19-0.83C199.69,35,199.75,34.37,199.17,33.85z M302.76,22.14c-0.07-0.07-0.14-0.15-0.21-0.22
	c-0.07-0.07-0.15-0.14-0.22-0.21c0.07,0.07,0.14,0.15,0.21,0.22C302.62,22,302.69,22.07,302.76,22.14z"/>
<path class="st496" d="M332.75,10.59c-0.33-1-0.66-1.99-0.98-2.99c-0.15,0.04-0.3,0.08-0.46,0.12c0.57,4.11,1.03,8.23,1.73,12.32
	c0.63,3.66-0.22,5.75-3.49,7.34c-3.8,1.85-7.62,3.66-11.44,5.46c-3.29,1.55-5,0.98-7.4-1.74c-1.97-2.24-3.45-4.97-6.16-6.51
	c0.22,0.84,0.43,1.68,0.65,2.52c1.9,1.37,2.51,3.66,3.86,5.43c0.59,0.78,0.24,1.72-0.52,2.3c-1.02,0.78-2.04,1.6-3.19,2.14
	c-14.14,6.67-28.65,12.34-43.69,16.67c-11.78,3.39-23.67,6.02-36.05,5.71c-3.1-0.08-6.2-0.04-9.3-0.4c1.86,1.6,4.5,1.31,6.24,2.99
	c0.33-0.04,0.66-0.08,1-0.12c0.19-0.25,0.38-0.25,0.57,0c1,0.22,2,0.45,2.99,0.67c10.59,2.73,21.25,2.81,31.94,0.66
	c3.61-0.73,7.21-1.53,10.81-2.3c0.15-0.02,0.29-0.05,0.43-0.1c0.19-0.13,0.38-0.27,0.57-0.4c0,0,0,0,0,0
	c0.23-0.48,0.66-0.53,1.11-0.51c3.99-1.87,7.98-3.74,12.52-5.87c-1.66,3.29-4.16,5.33-4.91,8.37c3.06-1.99,5.16-5.03,8.1-7.19
	c5.45-4.01,11.18-7.47,17.55-9.82c1.5-0.85,3-1.71,4.49-2.56c3.67-1.67,7.36-3.29,10.98-5.05c1.67-0.81,2.44-1,2.8,1.34
	c0.6,3.96,0.29,7.89,0.23,11.84c-0.02,1.1-0.73,2.2-0.07,3.47c2.28-2.62,4.32-5.28,7.59-6.5c0.02-0.29,0.03-0.57,0.05-0.86
	c-1.8-3.71-3.59-7.43-5.4-11.13c-0.35-0.71-0.48-1.27,0.41-1.68c0.7-0.32,1.34-0.49,1.75,0.35c1.88,3.84,4.13,7.53,5.17,11.75
	c0.3,0.04,0.61,0.08,0.91,0.11c3.29-1.25,6.7-1.81,10.92-1.31c-5.27-3.24-9.75-6.16-13.36-10.28c-1.45-1.66-0.58-2.03,0.75-2.66
	c3.87-1.84,7.71-3.73,11.56-5.6c0,0,0.09-0.04,0.09-0.04c0.2-0.14,0.39-0.28,0.59-0.41c1.01,0.05,1.87-0.3,2.6-0.98
	c0.07-0.4,0.23-0.46,0.49-0.12c0.51,0.01,1.01,0.02,1.52,0.03c0.05-0.57,0.36-0.92,0.86-1.19c8.19-4.23,16.74-7.2,26.05-7.66
	c0.91-0.04,2.16,0.64,2.67-0.82c-3.21-0.3-6.42-0.6-9.63-0.91c-0.06-0.22-0.11-0.44-0.17-0.67c3.44-1.63,6.89-3.26,10.33-4.89
	c0.24-0.39,0.61-0.5,1.04-0.5l0.02-0.01c0.22-0.4,0.6-0.5,1.02-0.5l0.03-0.02c0.22-0.42,0.6-0.5,1.02-0.5l0.02-0.01
	c0.22-0.43,0.6-0.51,1.03-0.5l0.01-0.01c0.21-0.43,0.59-0.53,1.02-0.52l0.01-0.01c0-0.91,0.74-1.2,1.31-1.71
	c1.93-1.74,4.49-2.75,5.98-5.01c-5.02,0-10.04,0-15.07,0c-0.36,0.36-0.67,0.79-1.08,1.06c-11.05,7.19-22.53,13.61-34.44,19.28
	c-1.33,0.63-2.72,1.05-4.24,0.97c-1.08-0.06-1.99-0.51-2.18-1.49c-0.38-1.93-1.47-3.72-1.2-5.78c-0.22-0.34-0.44-0.68-0.66-1.02
	c-0.11-0.2-0.22-0.39-0.34-0.59C332.72,11.54,332.74,11.06,332.75,10.59z"/>
<path class="st496" d="M136.81-0.41c1.64,6.41,5.73,11.1,10.82,14.97c16.68,12.66,42.26,4.72,48.41-14.97
	C176.3-0.41,156.55-0.41,136.81-0.41z"/>
<path class="st495" d="M333.7,13.62c-0.27,2.06,0.82,3.85,1.2,5.78c0.19,0.98,1.1,1.43,2.18,1.49c1.52,0.09,2.91-0.33,4.24-0.97
	c11.91-5.66,23.39-12.08,34.44-19.28c0.41-0.27,0.72-0.7,1.08-1.06c-6.58,0-13.16,0-19.74,0c-0.82,1.43-2.35,1.97-3.62,2.82
	C347.17,6.65,340.33,9.94,333.7,13.62z"/>
<path class="st496" d="M379.41,8.9c-3.44,1.63-6.89,3.26-10.33,4.89c0.06,0.22,0.11,0.44,0.17,0.67c3.21,0.3,6.42,0.6,9.63,0.91
	c5.18,0.46,10.4,0.42,15.55,1.29c3.64-3.61,7.36-7.16,9.43-12c0.7-1.63,1.73-3.16,1.57-5.06c-2.25,0-4.5,0-6.75,0
	c-4.47,2.69-9.17,4.88-14.04,6.73c0,0-0.01,0.01-0.01,0.01c-0.21,0.42-0.58,0.53-1.02,0.52c0,0-0.01,0.01-0.01,0.01
	c-0.22,0.43-0.6,0.52-1.03,0.5c0,0-0.02,0.01-0.02,0.01c-0.21,0.43-0.59,0.51-1.02,0.5c0,0-0.03,0.02-0.03,0.02
	c-0.21,0.43-0.59,0.51-1.02,0.5c0,0-0.02,0.01-0.02,0.01C380.22,8.82,379.85,8.92,379.41,8.9z"/>
<path class="st497" d="M333.7,13.62c6.62-3.68,13.47-6.97,19.78-11.21c1.27-0.86,2.8-1.39,3.62-2.82c-1.56,0-3.12,0-4.68,0
	c-2.33,2.19-5.21,3.54-7.94,5.1c-3.8,2.18-7.69,4.2-11.74,5.9c-0.01,0.47-0.02,0.95-0.04,1.42c0.11,0.2,0.22,0.39,0.34,0.59
	C333.27,12.94,333.48,13.28,333.7,13.62z"/>
<path class="st498" d="M133.61,9.12c-4.93-1.87-9.69-4.09-14.21-6.81c2.28,0,4.56,0,6.83,0c1.51,2.29,4.1,3.31,6.05,5.07
	C132.86,7.91,133.6,8.2,133.61,9.12z"/>
<path class="st497" d="M210.88,2.32c-0.32,0.61-0.71,1.2-0.94,1.84c-0.48,1.36-1.43,1.05-2.29,0.64c-1.72-0.82-0.19-1.65,0.07-2.48
	C208.77,2.32,209.83,2.32,210.88,2.32z"/>
<path class="st499" d="M229.25,2.82c-0.05-0.17-0.04-0.34,0.03-0.51c0.35,0,0.7,0,1.05,0C230.09,2.74,229.69,2.84,229.25,2.82z"/>
<path class="st494" d="M179.5,106.75c0.26-0.9,0.32-1.85,0.48-2.77c3.31-2.39,7.17-3.72,10.8-5.46
	c18.18-8.72,36.39-17.34,54.6-25.99c0.39-0.18,0.81-0.28,1.22-0.42c7.3,4.2,15.13,4.73,23.24,3.36c-2.15,4.22-5.11,7.91-7.67,11.86
	c-4.87,7.48-9.84,14.9-14.77,22.35c-0.2,0.95-2.8,1.52-0.45,2.87c0.92,0.2,1.93,0.21,2.74,0.63c6.89,3.58,14.35,1.57,21.52,2.33
	c6.97,0.75,13.98-0.15,20.91,0.94c1.82,0.29,2.99-0.43,4.03-2.05c7.09-11.12,14.24-22.2,21.49-33.22c2.26-3.43,4.62-6.78,6.36-10.51
	c2.25,4.82,5,9.42,6.64,14.53c-5.24,9.13-5.44,18.56-1.24,28.02c4.15,9.34,11.56,15.03,21.36,17.68c0.57,0.15,1.19,0.08,1.79,0.11
	c1.42,1.04,1.75,2.75,2.44,4.19c8.83,18.33,17.61,36.68,26.4,55.03c-4.01,1.93-7.9,4.11-12.11,5.6
	c-7.33-15.6-26.05-22.14-41.34-15.01c-16.56,7.73-23.08,25.94-15.53,42.05c-5.84,3.3-12.03,5.89-18.07,8.8
	c-11.87,5.71-23.78,11.32-35.69,16.95c-0.83,0.39-1.59,1.09-2.63,0.9c-4.35-9.66-12.04-15.11-22.17-17.27
	c-6.69-1.42-13.23-0.68-19.43,2.39c-0.48-0.91-1-1.81-1.45-2.75c-14.81-30.92-29.62-61.83-44.4-92.76
	c-1.96-4.11-3.83-8.26-5.73-12.4C171.27,122.46,176.87,115.84,179.5,106.75z M245.07,185.18c17.53,0,31.57-14.01,31.51-31.43
	c-0.06-17.25-14.16-31.2-31.53-31.2c-17.64,0-31.51,13.8-31.51,31.35C213.55,171.48,227.36,185.19,245.07,185.18z"/>
<path class="st494" d="M490.64,668.56c0.06,2.5-2.23,3.37-3.6,4.68c-19.5,18.76-39.13,37.38-58.67,56.09
	c-10.29,9.86-20.47,19.84-30.7,29.77c-4.64,0.02-8.96-2.04-13.59-2.09c-0.46-0.32-0.87-0.82-1.37-0.92
	c-8.74-1.82-17.48-3.6-26.22-5.39c-0.32-0.11-0.62-0.27-0.95-0.33c-7.96-1.57-15.96-2.97-23.72-5.42c1.2-0.71,0.41-1.6,0.18-2.4
	c-4.05-14.69-8.1-29.37-12.17-44.05c-1.53-5.5-3.11-10.99-4.66-16.49c-0.22,0.03-0.44,0.06-0.67,0.08
	c-2.25,14.1-4.5,28.2-6.84,42.84c-2.67-3.55-3.95-7.21-5.59-10.63c-5.43-11.31-10.55-22.76-15.84-34.14
	c-4.95-10.64-9.95-21.26-14.93-31.89c-0.33-0.71-0.58-1.54-1.6-1.56c-0.28-0.86-0.64-1.71-0.82-2.6c-1.8-8.7-3.58-17.4-5.35-26.1
	c-3.08-15.17-6.15-30.35-9.22-45.53c0.03-1.28,0.09-1.72,1.71-0.96c9.47,4.4,19.64,6.08,29.92,7.23c4.02,1.18,8.23,1.01,12.33,1.65
	c9.41,1.47,18.92,1.79,28.41,2.31c7.95,0.23,15.9,0.45,23.85,0.68c9.8,0.47,19.6,1.04,29.41,1.39c16.09,0.57,32.19,0.99,48.28,1.47
	c9.36,0.39,18.72,0.83,28.09,1.12c2.68,0.08,2.98,0.79,2.05,3.28c-4.8,12.79-9.4,25.65-14.05,38.5c-0.18,0.51-0.15,1.09-0.22,1.64
	c-0.24,0.24-0.59,0.44-0.7,0.73c-4.04,11.15-8.32,22.22-12,33.49c-5.28,16.14-10.12,32.42-15.13,48.64
	c-1.52,4.92-2.95,9.88-4.42,14.81c7.11-11.09,13.75-22.37,20.37-33.66c5.02-8.56,10.01-17.14,15.06-25.68
	c0.78-1.33,1.45-2.69,3.63-2.44C464.08,668.26,477.27,670.37,490.64,668.56z"/>
<path class="st500" d="M381.39,190.22c-4.01,1.93-7.9,4.11-12.12,5.6c-0.97,0.55-1.91,1.16-2.92,1.64
	c-13.14,6.26-26.27,12.53-39.44,18.71c-4.82,2.26-9.5,4.83-14.51,6.69c-5.84,3.3-12.03,5.89-18.07,8.8
	c-11.87,5.71-23.78,11.32-35.69,16.95c-0.83,0.39-1.59,1.09-2.63,0.9c-0.2,0.53-0.65,0.76-1.13,0.99
	c-5.98,2.83-11.96,5.66-17.94,8.49c-1.1,0.52-2.28,0.77-3.49,0.85c0.05,0.35-1.21,0.65-0.14,0.97c10.57,3.19,20.72,7.52,31.12,11.18
	c7.72,2.71,15.2,2.66,22.59-0.81c11.07-5.2,22.08-10.52,33.13-15.75c11.52-5.45,23.08-10.82,34.59-16.29
	c7.39-3.52,14.69-7.24,22.09-10.73c12.56-5.93,25.18-11.72,37.75-17.63c6.55-3.08,13.01-6.35,19.54-9.46
	c8.49-4.04,17.03-7.96,25.52-12.01c7.61-3.64,15.14-7.43,22.76-11.06c5.77-2.74,11.73-5.1,17.38-8.05
	c5.05-2.63,10.47-4.48,15.31-7.52c0.42-0.27,0.96-0.34,1.45-0.51c-0.01-11.99-0.02-23.99-0.03-35.98
	c-9.87,4.65-19.74,9.31-29.62,13.95c-1.48,0.69-2.99,1.31-4.48,1.96c-0.44,0.27-0.86,0.57-1.32,0.79
	c-9.65,4.62-19.3,9.25-28.97,13.83c-8.87,4.2-17.78,8.34-26.67,12.5c-3.91,2.08-7.88,4.01-11.98,5.68
	c-4.71,2.77-9.73,4.88-14.7,7.12c-0.67,0.5-1.4,0.86-2.24,0.95C391.68,185.79,386.52,187.98,381.39,190.22z"/>
<path class="st501" d="M254.31,572.5c3.07,15.18,6.14,30.35,9.22,45.53c1.77,8.7,3.55,17.4,5.35,26.1c0.18,0.88,0.54,1.73,0.82,2.59
	c0.03,0.68-0.04,1.38,0.1,2.04c5.85,28.39,11.71,56.78,17.57,85.16c-0.07,0.67-0.03,1.4-0.83,1.71c-2.89,1.14-3.24,3.22-2.11,5.81
	c0.33,0.76-0.14,1.3-0.39,1.91c-1.18,0.95-2.36,1.9-3.53,2.86c-3.1,0.52-6.2,1.02-9.1,2.3c-0.89,0.13-1.79,0.17-2.65,0.4
	c-5.67,1.49-11.33,3.01-16.99,4.52c0.12-1.28,1.13-1.96,1.96-2.7c1.37-1.22,2.18-2.4,1.47-4.41c-0.45-1.27-0.29-3.04,1.19-3.61
	c2.82-1.08,2.02-2.85,1.59-4.95c-4.21-20.33-8.31-40.68-12.46-61.02c-2.36-11.55-4.74-23.11-7.15-34.65
	c-3.98-19.1-8-38.19-11.98-57.29c-0.51-2.44-0.9-4.91-1.35-7.36c-0.51-2.78,0.08-4.5,3.16-5.75c6.35-2.58,13.04-2.92,19.64-3.87
	c2-0.29,3.97-1.2,6.07-0.64C252.69,569.06,253.94,570.75,254.31,572.5z"/>
<path class="st498" d="M222.55,61.94c-1.74-1.68-4.38-1.39-6.24-2.99c3.11,0.36,6.21,0.32,9.3,0.4c12.38,0.32,24.27-2.31,36.05-5.71
	c15.03-4.33,29.55-10,43.69-16.67c1.15-0.54,2.17-1.37,3.19-2.14c0.76-0.58,1.12-1.52,0.52-2.3c-1.35-1.77-1.97-4.06-3.86-5.43
	c-8.71,3.74-17.48,7.32-26.6,9.95c-15.37,4.44-31.01,7.17-47.05,7.15c-10.73-0.01-21.25-1.57-31.54-4.63
	c0.44,4.6,0.16,9.4,3.6,13.28c-1.97,1.55-4.31,2.27-6.46,3.3c-9.95,4.78-19.93,9.5-29.91,14.22c-0.84,0.4-1.65,0.96-2.67,0.85
	c-0.43,0.28-0.84,0.62-1.3,0.84c-6.47,3.09-12.95,6.15-19.42,9.23c-0.93,0.44-1.94,0.8-2.35,1.89c2.27,4.69,4.54,9.38,6.81,14.07
	c9.59-3.9,18.71-8.79,28.12-13.1c9.49-4.34,18.95-8.77,28.29-13.42C210.65,67.79,216.89,65.44,222.55,61.94z"/>
<path class="st498" d="M179.98,103.97c3.31-2.39,7.17-3.72,10.8-5.46c18.18-8.72,36.39-17.34,54.6-25.99
	c0.39-0.18,0.81-0.28,1.22-0.42c3.51-1.64,7.04-3.25,10.53-4.94c4.26-2.06,8.48-4.2,12.72-6.3c-3.6,0.77-7.2,1.57-10.81,2.3
	c-10.69,2.15-21.34,2.07-31.94-0.66c-0.38,1.04-1.41,1.21-2.24,1.61c-10.52,5.02-21.05,10.03-31.58,15.02
	c-12.72,6.03-25.45,12.02-38.15,18.09c-1.84,0.88-3.9,1.45-5.36,3.03c1.98,4.84,4.34,9.5,6.75,14.14c3.02-0.48,5.55-2.2,8.27-3.4
	C169.91,108.72,174.93,106.32,179.98,103.97z"/>
<path class="st501" d="M490.64,668.56c-13.37,1.8-26.56-0.3-39.76-1.86c-2.18-0.26-2.84,1.11-3.63,2.44
	c-5.05,8.54-10.03,17.13-15.06,25.68c-6.62,11.29-13.26,22.57-20.37,33.66c1.47-4.94,2.9-9.89,4.42-14.81
	c5-16.23,9.85-32.51,15.13-48.64c3.68-11.27,7.97-22.34,12-33.49c0.1-0.29,0.46-0.49,0.7-0.73c4.73,2.8,9.46,5.59,14.18,8.39
	c0.71,0.47,1.42,0.95,2.13,1.42c1.77,1.78,4.1,2.71,6.15,4.06c7.94,5.51,16.32,10.42,23.18,17.38
	C491.65,664.02,492.86,666.04,490.64,668.56z"/>
<path class="st502" d="M233.45,259.83c1.21-0.08,2.39-0.33,3.49-0.85c5.98-2.82,11.96-5.66,17.94-8.49
	c0.48-0.23,0.93-0.46,1.13-0.99c-4.35-9.66-12.04-15.11-22.17-17.27c-6.69-1.42-13.23-0.68-19.43,2.39
	c2.98,6.2,6.04,12.35,8.89,18.6C225.34,257.66,228.7,259.74,233.45,259.83z"/>
<path class="st496" d="M284.12,592.56c7.45-0.37,14.9-0.75,22.34-1.11c1.28-0.06,2.56-0.01,3.84-0.01
	c-0.34,3.69-1.35,7.21-2.53,10.7c-8.9,0.17-17.64,1.48-26.24,3.75c-4.89,1.29-9.73,2.74-14.17,5.27c-9.6-1.08-19.1-2.64-27.94-6.75
	c-1.51-0.7-1.57-0.3-1.6,0.9c-0.35-1.64-1.52-3.21-0.41-4.97c5.94-3.58,12.68-4.25,19.31-5.05
	C265.85,594.19,275,593.46,284.12,592.56z"/>
<path class="st496" d="M141.5,83.19c0.42-1.09,1.42-1.45,2.35-1.89c6.48-3.07,12.95-6.14,19.42-9.23c0.46-0.22,0.86-0.56,1.3-0.84
	c-8.05-4.86-16.56-5.32-25.39-2.62c-1.23,0.38-2.4,0.95-3.6,1.44C137.55,74.43,139.52,78.81,141.5,83.19z"/>
<path class="st496" d="M179.98,103.97c-5.05,2.34-10.08,4.75-15.17,7.01c-2.72,1.21-5.24,2.93-8.27,3.4
	c2.1,4.12,4.19,8.23,6.29,12.35c8.43-4.26,14.04-10.89,16.67-19.98C179.76,105.85,179.83,104.9,179.98,103.97z"/>
<path class="st497" d="M149.79,100.24c1.46-1.59,3.51-2.15,5.36-3.03c12.7-6.07,25.43-12.06,38.15-18.09
	c10.53-4.99,21.06-10,31.58-15.02c0.83-0.39,1.86-0.56,2.24-1.61c-1-0.22-2-0.45-3-0.67c-0.19,0-0.38,0-0.57,0
	c-0.33,0.04-0.67,0.08-1,0.12c-5.66,3.5-11.9,5.85-17.84,8.81c-9.34,4.65-18.8,9.07-28.29,13.42c-9.4,4.3-18.53,9.2-28.12,13.1
	C148.8,98.25,149.3,99.25,149.79,100.24z"/>
<path class="st494" d="M146.01,798.07c4.51-3.47,9.72-5.73,14.7-8.35c3.09-1.62,6.06-3.54,9.46-4.54c0.91,1.96,1.82,3.92,2.73,5.88
	c-7.81,4.1-15.62,8.2-23.43,12.31C148.19,801.68,147.64,799.52,146.01,798.07z"/>
<path class="st494" d="M194.64,774.23c2.62-2.12,5.93-2.73,8.94-3.98c5.33-2.22,10.67-4.47,16.28-5.97
	c0.73,2.02,1.46,4.03,2.19,6.05c-8.29,3.25-16.58,6.49-24.87,9.74C196.33,778.13,195.49,776.18,194.64,774.23z"/>
<path class="st494" d="M62.16,865.03c5.66-6.98,11.77-13.54,18.66-19.34c1.51,1.5,3.02,3,4.53,4.5
	c-6.1,6.33-12.21,12.66-18.31,18.99C65.41,867.79,63.78,866.41,62.16,865.03z"/>
<path class="st494" d="M101.31,827.96c6.84-5.93,14.12-11.25,21.92-15.86c1.16,1.82,2.32,3.64,3.48,5.45
	c-0.81,0.6-1.6,1.22-2.42,1.8c-6.02,4.23-12.31,8.12-17.69,13.21l0.06-0.05c-0.48,0.15-0.96,0.3-1.44,0.45
	C103.92,831.29,102.62,829.63,101.31,827.96z"/>
<path class="st501" d="M222.05,770.33c-0.73-2.02-1.46-4.03-2.19-6.05c8.36-3.21,16.78-6.27,25.52-8.34c0.68,2,1.35,3.99,2.03,5.99
	C239.03,764.97,230.6,767.85,222.05,770.33z"/>
<path class="st494" d="M247.4,761.94c-0.68-2-1.35-4-2.03-5.99c2.12-0.84,4.24-1.68,6.36-2.52c5.66-1.51,11.32-3.03,16.99-4.52
	c0.86-0.23,1.77-0.27,2.65-0.4c0.39,1.34,0.77,2.69,1.16,4.03c-1.86,1.77-3.8,3.43-6.11,4.62c-0.93-0.2-1.78,0.1-2.67,0.31
	C258.26,758.75,253.02,761.03,247.4,761.94z"/>
<path class="st501" d="M62.16,865.03c1.63,1.38,3.25,2.77,4.88,4.15c-5.45,6.97-10.9,13.94-16.35,20.91
	c-1.66-1.55-4.18-2.05-5.21-4.35c0.35-0.73,0.7-1.46,1.05-2.19c0.2-0.15,0.39-0.3,0.59-0.46c0.88-0.51,1.3-1.32,1.46-2.29
	c4.06-3.73,6.77-8.59,10.53-12.57C60.11,867.15,61.14,866.09,62.16,865.03z"/>
<path class="st501" d="M126.72,817.55c-1.16-1.82-2.32-3.64-3.48-5.45c7.22-5.28,14.73-10.09,22.78-14.03
	c1.63,1.45,2.18,3.61,3.45,5.29C141.88,808.09,134.3,812.82,126.72,817.55z"/>
<path class="st501" d="M194.64,774.23c0.85,1.95,1.69,3.9,2.53,5.85c-8.09,3.66-16.19,7.32-24.28,10.98
	c-0.91-1.96-1.82-3.92-2.73-5.88C178.1,781.01,186.16,777.15,194.64,774.23z"/>
<path class="st501" d="M101.31,827.96c1.3,1.67,2.6,3.33,3.9,5c-0.44,0.59-0.88,1.18-1.32,1.76c-0.44,0.37-0.89,0.74-1.33,1.11
	c-0.2,0.12-0.39,0.24-0.59,0.36c-5.54,4.67-11.09,9.33-16.63,14c-1.51-1.5-3.02-3-4.53-4.5C87.14,839.19,94.04,833.37,101.31,827.96
	z"/>
<path class="st494" d="M514.68,993.29c-20-0.03-40-0.06-60-0.1c1.54-9.64-3.45-16.86-12.76-18.48
	c-13.11-2.28-30.19,6.44-36.26,18.49c-1.95,0.01-3.89,0.02-5.84,0.03c-6.15-10.18-8.04-21.21-6.5-32.91
	c0.49-3.7,0.63-3.76,3.75-1.82c10.04,6.26,21.03,8.68,32.74,7.83c11.64-0.85,22.49-4.03,31.35-12.07
	c6.63-6.01,10.01-13.42,7.79-22.42c-2.26-9.14-8.62-14.44-17.65-16.17c-13.41-2.56-25.58,1.5-36.93,8.27
	c-9.58,5.71-16.71,13.74-20.84,24.23c-0.84,2.13-1.61,2.36-3.18,0.56c-2.49-2.85-4.83-5.78-6.71-9.07
	c-1.98-3.48-3.55-7.14-4.75-10.96c-0.36-1.15-0.86-2.34-2.31-1.95c-1.73,0.46-1.27,1.87-0.96,3.1c0.11,0.44,0.31,0.86,0.45,1.29
	c2.76,8.27,7.14,15.52,13.48,21.55c0.92,0.88,1.8,1.64,1.45,3.18c-2.97,12.95-1.41,25.37,4.45,37.28
	c-9.28,0.04-18.55,0.08-27.83,0.12c-11.69-29.22-23.35-58.46-35.12-87.65c-0.83-2.05-0.77-3.32,0.7-5.13
	c11.38-14,22.6-28.14,33.87-42.23c1.39-0.03,2.21,1.04,3.19,1.73c5.17,3.62,10.37,7.18,15.96,10.15c0.21,0.31,0.43,0.61,0.64,0.92
	c0.14,3.72,2.42,6.42,5.97,7.07c3.52,0.65,6.88-1.2,8.22-4.53c1.41-3.5,0.29-6.77-3.08-9.04c-1.74-1.54-3.84-1.4-5.81-0.88
	c-1.25,0.33-2.28,0.4-3.09-0.54c-1.97-2.29-3.11-1.1-4.25,0.81c-0.58,0.97-1.36,1.82-2.05,2.72c-5.47-3.18-9.73-7.97-15.06-11.33
	c-2.04-1.81-4.08-3.63-6.12-5.44c1.48-1.74,2.77-3.65,4.66-5c1.49,1.2,3.1,2.29,4.44,3.64c2.02,2.05,3.35,1.74,4.91-0.62
	c2.32-3.49,4.57-7.43,9.96-5.65c0.77,0.13,1.59,0.14,2.31,0.42c2.75,1.04,3.54-0.12,3.52-2.76c-0.02-3.25,0.22-6.5,0.35-9.75
	c2.21,0.09,4.43,0.19,6.64,0.28c-0.03,3.75,0.09,7.52-0.15,11.26c-0.13,1.96,0.49,2.58,2.34,2.81c6.1,0.74,12.16,1.76,18.26,2.43
	c7.91,0.87,15.71,2.67,23.69,2.98c4.38,1.39,9,1.26,13.48,2.11c1.67,0.32,2.51,0.92,3.15,2.53c12.74,31.97,25.53,63.92,38.36,95.85
	c5.61,13.95,11.35,27.84,17.03,41.76C514.58,992.55,514.63,992.92,514.68,993.29z"/>
<path class="st498" d="M442.52,849.94c-7.98-0.31-15.78-2.11-23.69-2.98c-6.1-0.67-12.16-1.69-18.26-2.43
	c-1.85-0.22-2.46-0.85-2.34-2.81c0.24-3.74,0.12-7.5,0.15-11.25c0.05-1.48,0.11-2.96,0.15-4.45c0.24-7.65-0.33-15.31,0.44-22.95
	c0.07-1.7,0.24-3.4,0.21-5.09c-0.13-7.35,0.6-14.7,0.05-22.05c0.26-1.31,0.52-2.61,0.77-3.92c0.24,0.13,0.48,0.26,0.72,0.38
	c0.12,0.19,0.23,0.39,0.35,0.58c10.24,19.36,21.39,38.2,32.35,57.15C437.07,836.41,440.43,842.9,442.52,849.94z"/>
<path class="st501" d="M400,772c-0.26,1.31-0.52,2.61-0.77,3.92c-2.18,0-4.37,0-6.55,0c-0.05-2.93-0.17-5.86-0.13-8.79
	c0.02-1.51-0.41-2.15-2.04-2.38c-3.2-0.45-6.36-1.23-9.54-1.87c1.19,0.06,1.77-0.42,1.97-1.67c0.23-1.42,0.74-2.79,1.13-4.18
	c4.63,0.05,8.95,2.11,13.59,2.09c1.61,1.31,2.28,2.95,2.2,5.07C399.77,766.78,399.95,769.39,400,772z"/>
<path class="st503" d="M401.08,772.96c-0.12-0.19-0.24-0.39-0.35-0.58C401.15,772.39,401.19,772.63,401.08,772.96z"/>
<path class="st498" d="M398.76,182.01c4.97-2.23,10-4.34,14.7-7.12c-9.35-19.56-18.69-39.12-28.04-58.67
	c-2.13-4.52-4.24-9.05-6.4-13.56c-5.34-11.12-10.71-22.24-16.06-33.35c-1.75-4.03-4.37-7.68-5.35-12.05
	c-2.35-2.5-2.89-5.91-4.59-8.87c6.11,1.61,12.22,1.77,18.28,2.4c13.14,1.37,26.27,2.75,39.41,4.14c0.8,0.09,1.53,0.17,2.09-0.59
	c3.64-4.92,7.3-9.82,10.95-14.73c-7.9-1.22-15.8-2.44-23.7-3.67c-15.8-2.44-31.61-4.81-47.38-7.4c-2.9-0.48-6.07-0.06-8.66-1.98
	c-3.85,1.87-7.7,3.76-11.56,5.6c-1.33,0.63-2.21,1.01-0.75,2.66c3.61,4.12,8.09,7.04,13.36,10.28c-4.21-0.5-7.62,0.06-10.92,1.31
	c3.93,9.3,8.6,18.25,12.96,27.35c7.79,16.28,15.47,32.61,23.27,48.88c7.77,16.2,15.64,32.35,23.43,48.54
	C395.52,174.77,397.11,178.4,398.76,182.01z"/>
<path class="st502" d="M471.2,78.07c17.55,0,31.52-13.89,31.55-31.4c0.03-17.42-14.02-31.42-31.55-31.42
	c-17.3,0-31.36,13.97-31.49,31.3C439.58,63.87,453.76,78.06,471.2,78.07z"/>
<path class="st502" d="M425.45,169.22c8.89-4.16,17.79-8.3,26.67-12.5c9.67-4.58,19.32-9.21,28.97-13.83
	c0.46-0.22,0.88-0.53,1.32-0.79c-6.31-12.47-19.62-19.57-32.68-17.43c-14.57,2.38-25.02,12.76-27.05,27.14
	C421.83,157.83,422.92,163.67,425.45,169.22z"/>
<path class="st498" d="M394.43,16.66c-5.15-0.88-10.37-0.84-15.55-1.29c-0.52,1.46-1.76,0.78-2.67,0.82
	c-9.31,0.45-17.86,3.43-26.05,7.66c-0.51,0.26-0.82,0.61-0.86,1.19c7.19,1.71,14.54,2.46,21.82,3.64c10.59,1.72,21.2,3.34,31.8,4.97
	c7.64,1.17,15.29,2.29,22.93,3.43c2.72-3.48,5.44-6.97,8.16-10.45c1.29-1.82,2.59-3.64,4.16-5.85
	C423.39,19.38,408.91,18.02,394.43,16.66z"/>
<path class="st502" d="M362.96,69.31c5.36,11.12,10.72,22.23,16.06,33.35c2.16,4.51,4.27,9.04,6.4,13.56
	c6.17-11.83,5.93-23.4-1.82-34.4C378.61,74.74,371.59,70.59,362.96,69.31z"/>
<path class="st496" d="M198.13,22.95c0.84-0.51,0.26-1.47,0.7-2.18c7.96,6.54,17.5,7.15,27.18,7.41
	c16.84,0.46,33.28-2.15,49.61-5.98c7.05-1.65,13.98-3.72,20.97-5.55c2.83-0.74,2.48-3.24,3.54-4.92c0.44-0.7-0.73-0.65-1.25-0.69
	c-1.62-0.13-3.31,0.33-4.81-0.63c-5.21,1.41-10.48,0.5-15.71,0.29c-20.4-0.81-40.76-2.95-61.21-2.23
	c-5.11,0.18-10.19,0.69-15.06,2.42c-4.75,1.69-5.96,4.13-4.58,9.03C197.78,20.9,197.93,21.93,198.13,22.95z"/>
<path class="st497" d="M200.01,39.58c10.29,3.06,20.81,4.62,31.54,4.63c16.04,0.02,31.67-2.71,47.05-7.15
	c9.13-2.64,17.89-6.21,26.6-9.95c-0.22-0.84-0.43-1.68-0.65-2.52c0,0,0.06-0.02,0.06-0.02c-0.18,0.01-0.36,0.02-0.54,0.03
	c-6.78,2.78-13.45,5.81-20.42,8.15c-9.83,3.3-19.8,5.95-30.08,7.4c-6.84,0.96-13.7,1.62-20.61,1.52
	c-10.57-0.15-20.95-1.61-31.08-4.68c-0.74-0.22-1.51-0.34-2.26-0.5C199.53,37.54,199.57,38.58,200.01,39.58z"/>
<path class="st497" d="M199.44,35.65c0.25-0.65,0.31-1.27-0.27-1.8C199.02,34.48,199.07,35.09,199.44,35.65z"/>
<path class="st496" d="M302.56,21.92c-0.07-0.07-0.15-0.14-0.22-0.21c0.07,0.07,0.14,0.15,0.21,0.22
	C302.54,21.93,302.56,21.92,302.56,21.92z"/>
<path class="st496" d="M304.13,23.99c-0.08-0.07-0.16-0.14-0.24-0.21c0.07,0.08,0.14,0.16,0.2,0.24
	C304.09,24.02,304.13,23.99,304.13,23.99z"/>
<path class="st496" d="M302.54,21.93c0.07,0.07,0.15,0.14,0.22,0.21c-0.07-0.07-0.14-0.15-0.21-0.22
	C302.56,21.92,302.54,21.93,302.54,21.93z"/>
<path class="st496" d="M304.07,24.59c0.18-0.01,0.36-0.02,0.54-0.03c-0.16-0.19-0.32-0.38-0.49-0.57c0,0-0.03,0.03-0.04,0.03
	C304.08,24.21,304.08,24.4,304.07,24.59z"/>
<path class="st498" d="M381.39,190.22c5.13-2.24,10.28-4.43,15.13-7.26c-2.22-3.62-3.8-7.55-5.62-11.37
	c-5.88-12.33-11.79-24.64-17.7-36.96c-8.53-17.76-17.07-35.52-25.59-53.28c-3.25-6.77-6.42-13.59-9.71-20.35
	c-2.15-4.41-4.43-8.75-6.66-13.13c-3.26,1.22-5.31,3.88-7.59,6.5c-0.66-1.27,0.05-2.37,0.07-3.47c0.06-3.94,0.37-7.88-0.23-11.84
	c-0.36-2.34-1.13-2.15-2.8-1.34c-3.62,1.76-7.32,3.37-10.98,5.05c-0.04,1.28-0.84,2.22-1.44,3.26c-5.92,10.2-11.84,20.41-17.78,30.6
	c-7.07,12.12-14.17,24.22-21.26,36.33c0.45,0.04,0.91,0.08,1.36,0.12c1.15-0.17,2.31-0.55,3.39,0.24c3.37,0.09,6.79-0.16,10.09,0.35
	c3.57,0.55,5.38-0.84,7.19-3.75c9.59-15.46,20.25-30.25,29.38-46.06c1.36,2.04,2.23,4.48,3.35,6.79c2.25,4.82,5,9.42,6.64,14.53
	c0.32,0.51,0.69,0.99,0.95,1.52c4.94,10.23,9.95,20.43,14.76,30.72c2.11,4.5,4.65,8.81,6.21,13.57c1.42,1.04,1.75,2.75,2.44,4.19
	C363.82,153.52,372.6,171.87,381.39,190.22z"/>
<path class="st498" d="M269.85,75.46c-2.15,4.22-5.11,7.91-7.67,11.86c-4.87,7.48-9.84,14.9-14.77,22.35c1.15,0.62-0.36,1.35,0.08,2
	c6.28,0.5,12.6-0.56,18.84,0.69c3.43-5.77,6.9-11.52,10.28-17.31c7.09-12.12,14.2-24.23,21.16-36.43c2.51-4.41,5.45-8.58,7.46-13.27
	c-6.37,2.35-12.09,5.8-17.55,9.82c-2.93,2.16-5.04,5.2-8.1,7.19c0,0,0.08,0.06,0.08,0.06c-0.18,0.18-0.35,0.35-0.53,0.53l0-0.01
	c0.02,0.45-0.06,0.84-0.53,1.05l0.02-0.01c-0.25,0.17-0.49,0.34-0.74,0.51C274.72,67.78,272.76,71.97,269.85,75.46z"/>
<path class="st497" d="M331.25,47.88c2.22,4.37,4.51,8.72,6.66,13.13c3.29,6.76,6.46,13.57,9.71,20.35
	c8.52,17.77,17.07,35.52,25.59,53.28c5.91,12.31,11.82,24.63,17.7,36.96c1.82,3.82,3.4,7.75,5.62,11.37
	c0.84-0.1,1.57-0.45,2.24-0.95c-1.65-3.61-3.25-7.24-4.97-10.82c-7.8-16.19-15.67-32.34-23.43-48.54
	c-7.8-16.27-15.48-32.6-23.27-48.88c-4.35-9.1-9.02-18.05-12.96-27.35c-0.31-0.04-0.61-0.08-0.91-0.11
	c-0.45,0.76-1.27,0.51-1.92,0.72C331.28,47.31,331.27,47.59,331.25,47.88z"/>
<path class="st496" d="M269.85,75.46c2.91-3.5,4.88-7.68,8.04-10.99c0.25-0.17,0.49-0.34,0.74-0.51c0,0-0.02,0.01-0.02,0.01
	c-0.11-0.49-0.02-0.88,0.53-1.05c0,0,0,0.01,0,0.01c0.03-0.33,0.17-0.53,0.53-0.53c0,0-0.08-0.06-0.08-0.06
	c0.75-3.04,3.24-5.08,4.91-8.37c-4.54,2.13-8.53,4-12.52,5.87c-0.27,0.38-0.65,0.53-1.11,0.51c0,0,0,0,0,0
	c-0.19,0.13-0.38,0.27-0.57,0.4c-0.14,0.05-0.28,0.08-0.43,0.1c-4.24,2.1-8.46,4.24-12.72,6.3c-3.49,1.69-7.02,3.29-10.53,4.94
	C253.91,76.3,261.74,76.82,269.85,75.46z"/>
<path class="st497" d="M423.74,39.61c0.7-0.85,1.4-1.69,2.1-2.54c-7.64-1.14-15.29-2.26-22.93-3.43
	c-10.61-1.63-21.21-3.25-31.8-4.97c-7.28-1.18-14.63-1.93-21.82-3.64c-0.51-0.01-1.01-0.02-1.52-0.03
	c-0.16,0.04-0.32,0.08-0.49,0.12c-0.73,0.68-1.59,1.03-2.6,0.98c-0.2,0.14-0.39,0.28-0.59,0.41c0,0-0.08,0.04-0.09,0.04
	c2.59,1.92,5.76,1.5,8.66,1.98c15.77,2.6,31.58,4.96,47.38,7.4C407.94,37.17,415.84,38.39,423.74,39.61z"/>
<path class="st497" d="M305.23,45.34c-2,4.69-4.94,8.87-7.46,13.27c-6.96,12.2-14.07,24.31-21.16,36.43
	c-3.39,5.79-6.85,11.54-10.29,17.31c-0.02,0.18-0.05,0.36-0.07,0.55c0.99,0.02,1.99,0.04,2.98,0.06
	c7.09-12.11,14.19-24.21,21.26-36.33c5.94-10.19,11.86-20.4,17.78-30.6c0.6-1.03,1.41-1.98,1.44-3.26
	C308.22,43.63,306.73,44.49,305.23,45.34z"/>
<path class="st498" d="M331.3,47.02c0.65-0.21,1.48,0.04,1.92-0.72c-1.04-4.22-3.29-7.9-5.17-11.75c-0.41-0.83-1.05-0.67-1.75-0.35
	c-0.89,0.41-0.75,0.97-0.41,1.68C327.71,39.59,329.5,43.31,331.3,47.02z"/>
<path class="st498" d="M138.89,11.73c-0.45,0.03-0.83-0.08-1.05-0.51C138.26,11.23,138.64,11.34,138.89,11.73z"/>
<path class="st498" d="M137.81,11.21c-0.43,0.01-0.82-0.07-1.03-0.5C137.2,10.7,137.58,10.8,137.81,11.21z"/>
<path class="st498" d="M136.75,10.69c-0.43,0.01-0.82-0.07-1.03-0.51C136.15,10.18,136.53,10.27,136.75,10.69z"/>
<path class="st498" d="M135.7,10.17c-0.44,0.02-0.82-0.07-1.04-0.5C135.09,9.66,135.48,9.74,135.7,10.17z"/>
<path class="st498" d="M134.64,9.66c-0.44,0.01-0.81-0.1-1.03-0.53C134.05,9.13,134.43,9.22,134.64,9.66z"/>
<path class="st498" d="M270.86,60.36c0.46,0.02,0.84-0.13,1.11-0.51C271.52,59.84,271.09,59.88,270.86,60.36z"/>
<path class="st495" d="M185.8,15.48c0.11-0.2,0.23-0.4,0.34-0.6C186.03,15.08,185.91,15.28,185.8,15.48z"/>
<path class="st498" d="M347.28,25.12c0.16-0.04,0.33-0.08,0.49-0.12C347.51,24.66,347.36,24.73,347.28,25.12z"/>
<path class="st498" d="M344.09,26.52c0.2-0.14,0.39-0.28,0.59-0.41C344.48,26.24,344.29,26.38,344.09,26.52z"/>
<path class="st498" d="M223.55,61.82c0.19,0,0.38,0,0.57,0C223.93,61.57,223.74,61.58,223.55,61.82z"/>
<path class="st498" d="M270.29,60.76c0.19-0.13,0.38-0.27,0.57-0.4C270.67,60.5,270.48,60.63,270.29,60.76z"/>
<path class="st495" d="M367.06,858.25c-11.27,14.09-22.49,28.23-33.87,42.23c-1.47,1.81-1.53,3.08-0.7,5.13
	c11.76,29.19,23.43,58.43,35.12,87.65c-56.63,0.01-113.26,0.03-169.89,0.03c-0.34,0-0.68-0.07-1.02-0.11
	c0.63-5.55,2.24-10.89,3.36-16.33c3.96-19.36,8.09-38.69,12.37-57.98c2.71-12.19,4.68-24.55,8.34-36.53
	c6.82-22.32,17.06-42.95,31.08-61.62c12.34-16.43,28.02-29.72,42.15-44.47c1.19-1.24,1.69-0.81,2.49,0.48
	c3.55,5.7,7.16,11.36,10.86,16.96c13.32,20.18,29.14,38.22,47.22,54.25c3.9,3.46,8.29,6.37,12.45,9.54
	C367.03,857.75,367.05,858,367.06,858.25z"/>
<path class="st502" d="M102.56,835.83c0.44-0.37,0.89-0.74,1.34-1.11c1.73,0.28,2.47-0.7,2.76-2.21c0,0-0.06,0.05-0.06,0.05
	c1.52,0.17,2.56-0.76,3.67-1.56c16.44-11.96,34.12-21.87,52.12-31.21c12.35-6.4,25.18-11.77,38.07-16.95
	c6.28-2.52,12.7-4.72,19.05-7.06c0.41,1.09-0.01,1.46-0.49,1.79c-8.07,5.54-15.85,11.46-23.68,17.33
	c-8.53,6.4-16.02,13.83-22.71,22.1c-7.11,8.79-13.09,18.27-18.11,28.42c-4.27,8.63-7.54,17.61-9.85,26.87
	c-2.97,11.89-5.19,23.96-7.7,35.96c-3.67,17.55-7.3,35.11-10.97,52.65c-2.26,10.77-4.58,21.53-6.88,32.3
	c-14.87,0.04-29.74,0.1-44.61,0.11c-20.82,0.01-41.64-0.03-62.46-0.05c0.12-2.05,0.24-4.1,0.35-6.14
	c1.72-8.58,3.43-17.15,5.15-25.73c2.71-8.33,5.41-16.66,8.12-24.99c3.7-7.98,7.39-15.96,11.09-23.94
	c4.64-7.46,9.28-14.91,13.91-22.37c5.45-6.97,10.9-13.94,16.35-20.91c6.1-6.33,12.21-12.66,18.31-18.99
	c5.54-4.66,11.09-9.33,16.63-14C102.58,836.73,102.52,836.2,102.56,835.83z"/>
<path class="st496" d="M367.01,857.5c-4.16-3.17-8.55-6.08-12.45-9.54c-18.08-16.03-33.9-34.07-47.22-54.25
	c-3.7-5.6-7.31-11.26-10.86-16.96c-0.8-1.28-1.3-1.72-2.49-0.48c-14.13,14.75-29.82,28.04-42.15,44.47
	c-14.02,18.67-24.26,39.3-31.08,61.62c-3.66,11.98-5.63,24.34-8.34,36.53c-4.28,19.29-8.42,38.62-12.37,57.98
	c-1.11,5.44-2.73,10.78-3.36,16.33c-16.61,0-33.23,0-49.84,0c1.18-5.92,2.31-11.85,3.56-17.75c7.1-33.56,14.31-67.1,21.31-100.68
	c3.26-15.64,8.48-30.49,16.36-44.42c11.66-20.61,28.04-36.66,47.35-50.07c10.58-7.35,20.95-15.03,31-23.11
	c2.31-1.18,4.25-2.84,6.11-4.62c2.89-1.81,5.62-3.81,7.94-6.33c1.18-0.95,2.36-1.9,3.53-2.85c1.17,0.13,1.25,1.14,1.63,1.95
	c3.13,6.73,6.09,13.55,9.7,20.05c4.36,7.78,8.44,15.73,13.81,22.9c4.5,8.01,10.13,15.23,15.83,22.4
	c5.4,6.98,10.92,13.85,17.25,20.04c5.68,7.17,12.69,12.99,19.34,19.19c2.04,1.81,4.08,3.63,6.12,5.44
	C367.7,856.13,367.82,856.96,367.01,857.5z"/>
<path class="st501" d="M266.44,757.15c-10.05,8.08-20.41,15.77-31,23.11c-19.32,13.41-35.69,29.47-47.35,50.07
	c-7.88,13.93-13.1,28.78-16.36,44.42c-7.01,33.58-14.21,67.12-21.31,100.68c-1.25,5.9-2.38,11.83-3.56,17.75
	c-9.24,0-18.49,0-27.73,0c2.29-10.77,4.62-21.52,6.88-32.3c3.68-17.55,7.3-35.1,10.97-52.65c2.51-12,4.73-24.07,7.7-35.96
	c2.31-9.26,5.58-18.24,9.85-26.87c5.03-10.15,11-19.63,18.11-28.42c6.69-8.26,14.18-15.7,22.71-22.1
	c7.83-5.87,15.61-11.79,23.68-17.33c0.48-0.33,0.9-0.7,0.49-1.79c-6.35,2.34-12.77,4.53-19.05,7.06
	c-12.9,5.18-25.73,10.55-38.07,16.95c-18.01,9.33-35.68,19.25-52.12,31.21c-1.11,0.8-2.15,1.74-3.67,1.56
	c5.38-5.09,11.66-8.98,17.69-13.21c0.82-0.58,1.61-1.2,2.42-1.8c7.58-4.73,15.17-9.46,22.75-14.19c7.81-4.1,15.62-8.2,23.43-12.31
	c8.09-3.66,16.18-7.32,24.28-10.98c8.29-3.25,16.58-6.5,24.87-9.74c8.56-2.49,16.98-5.36,25.36-8.4c5.61-0.91,10.86-3.19,16.37-4.47
	C264.66,757.26,265.51,756.96,266.44,757.15z"/>
<path class="st501" d="M395.44,993.15c-5.86-11.9-7.42-24.33-4.45-37.28c0.35-1.55-0.52-2.31-1.45-3.18
	c-6.35-6.02-10.73-13.28-13.48-21.55c-0.14-0.43-0.34-0.85-0.45-1.29c-0.31-1.23-0.76-2.64,0.96-3.1c1.46-0.39,1.95,0.81,2.31,1.95
	c1.21,3.82,2.77,7.48,4.75,10.96c1.87,3.29,4.22,6.22,6.71,9.07c1.57,1.79,2.34,1.56,3.18-0.56c4.13-10.48,11.27-18.51,20.84-24.23
	c11.34-6.77,23.51-10.83,36.93-8.27c9.03,1.73,15.39,7.02,17.65,16.17c2.22,9-1.16,16.41-7.79,22.42
	c-8.86,8.04-19.71,11.23-31.35,12.07c-11.71,0.85-22.7-1.57-32.74-7.83c-3.12-1.94-3.26-1.88-3.75,1.82
	c-1.53,11.7,0.36,22.72,6.5,32.91C398.36,993.21,396.9,993.18,395.44,993.15z M427.25,963.09c2.12-0.22,5.22-0.36,8.25-0.91
	c10.11-1.83,19.44-5.34,26.26-13.51c8.59-10.29,4.1-24.92-8.7-28.89c-5.51-1.71-11.04-1.84-16.61-0.66
	c-18.21,3.86-31.89,13.66-40.07,30.68c-1.18,2.46-0.78,3.77,1.55,5.23C406.63,960.48,416.14,962.8,427.25,963.09z"/>
<path class="st494" d="M451.04,993.17c-13.69,0.21-27.39,0.29-41.08-0.04c6.87-9.81,16.35-15.13,28.27-15.2
	C448.05,977.87,452.85,984.02,451.04,993.17z"/>
<path class="st501" d="M451.04,993.17c1.81-9.15-2.99-15.3-12.81-15.24c-11.91,0.07-21.4,5.39-28.27,15.2
	c-1.44,0.03-2.87,0.05-4.31,0.08c6.07-12.06,23.15-20.77,36.26-18.49c9.31,1.62,14.3,8.84,12.76,18.48
	C453.47,993.18,452.26,993.18,451.04,993.17z"/>
<path class="st494" d="M12.41,987.11c-0.12,2.05-0.24,4.1-0.35,6.14c-2.32,0-4.64-0.01-6.96-0.01c0.21-2.29,0.11-4.62,0.95-6.82
	C8.17,986.65,10.29,986.88,12.41,987.11z"/>
<path class="st502" d="M213.54,153.9c0,17.58,13.81,31.28,31.53,31.28c17.53,0,31.57-14.01,31.51-31.43
	c-0.06-17.25-14.16-31.2-31.53-31.2C227.41,122.55,213.54,136.35,213.54,153.9z"/>
<path class="st502" d="M312.41,222.87c5.01-1.86,9.69-4.43,14.51-6.69c13.17-6.19,26.3-12.46,39.44-18.71
	c1-0.48,1.95-1.09,2.92-1.64c-7.33-15.6-26.04-22.14-41.34-15.01C311.37,188.54,304.85,206.76,312.41,222.87z"/>
<path class="st502" d="M352.55,131c-1.55-4.76-4.1-9.06-6.21-13.57c-4.81-10.29-9.82-20.49-14.76-30.72
	c-0.26-0.54-0.63-1.02-0.95-1.52c-5.24,9.12-5.44,18.56-1.24,28.02c4.15,9.34,11.56,15.03,21.36,17.68
	C351.32,131.04,351.95,130.96,352.55,131z"/>
<path class="st495" d="M246.95,112.54c5.84,0.14,11.67,0.29,17.51,0.42c0.6,0.01,1.2-0.04,1.8-0.06c0.02-0.18,0.05-0.36,0.07-0.55
	c-6.24-1.25-12.57-0.19-18.84-0.69c-0.44-0.66,1.07-1.39-0.08-2C247.21,110.62,244.6,111.19,246.95,112.54z"/>
<path class="st496" d="M287.36,733.92c-5.86-28.39-11.72-56.77-17.57-85.16c-0.14-0.66-0.07-1.36-0.1-2.04
	c1.02,0.03,1.27,0.85,1.6,1.56c4.98,10.63,9.99,21.24,14.93,31.89c5.29,11.38,10.41,22.83,15.84,34.14
	c1.64,3.42,2.92,7.08,5.59,10.63c2.34-14.65,4.59-28.75,6.84-42.84c0.22-0.03,0.44-0.06,0.67-0.08c1.56,5.5,3.14,10.99,4.66,16.49
	c4.07,14.68,8.12,29.37,12.17,44.05c0.22,0.8,1.02,1.69-0.18,2.4c-1.1,0-2.21,0-3.32,0c-8.94-2.86-18.18-4.4-27.36-6.2
	c-3.29-0.74-6.56-1.53-9.86-2.21C289.56,736.21,288.08,735.67,287.36,733.92z"/>
<path class="st501" d="M285.94,578.77c4.75-2.71,9.93-4.26,15.17-5.64c9.21-2.43,18.57-3.83,28.1-4.02
	c-0.51,4.6-2.61,8.91-2.53,13.62c-9.49-0.52-19-0.84-28.41-2.31C294.17,579.78,289.96,579.96,285.94,578.77z"/>
<path class="st494" d="M384.08,757.02c-0.39,1.39-0.9,2.76-1.13,4.18c-0.2,1.25-0.79,1.74-1.98,1.67
	c-8.68-1.95-17.35-3.9-26.02-5.85c0.51-2.1,1.02-4.2,1.53-6.3c8.74,1.79,17.49,3.56,26.22,5.39
	C383.2,756.21,383.62,756.71,384.08,757.02z"/>
<path class="st501" d="M356.48,750.72c-0.51,2.1-1.02,4.2-1.53,6.3c-9.45-1.93-18.89-3.85-28.34-5.78c1.66-1.78,1.23-4.19,1.89-6.27
	c1.11,0,2.21,0,3.32,0c7.76,2.45,15.76,3.85,23.72,5.42C355.86,750.45,356.16,750.6,356.48,750.72z"/>
<path class="st501" d="M287.36,733.92c0.71,1.75,2.2,2.29,3.9,2.64c3.3,0.68,6.58,1.47,9.86,2.21c-0.73,2.13-1.26,4.31-1.43,6.56
	c-1.33-0.22-2.66-0.45-4-0.65c-0.63-0.09-1.35-0.71-1.89-0.05c-0.62,0.77,0.06,1.51,0.38,2.18c2.45,5.09,4.94,10.16,7.42,15.24
	c-2.33,0.65-4.42,1.75-6.26,3.31c-3.61-6.5-6.57-13.32-9.7-20.05c-0.38-0.81-0.46-1.82-1.63-1.95c0.26-0.61,0.73-1.15,0.4-1.91
	c-1.13-2.59-0.78-4.67,2.11-5.81C287.33,735.32,287.29,734.59,287.36,733.92z"/>
<path class="st494" d="M50.68,890.09c-4.64,7.46-9.28,14.91-13.91,22.37c-1.88-1-3.77-2.01-5.65-3.01
	c3.72-7.87,8.52-15.08,13.44-22.22c0.34-0.49,0.6-0.93,0.56-1.52c0.11,0.04,0.23,0.05,0.35,0.04
	C46.5,888.03,49.03,888.54,50.68,890.09z"/>
<path class="st494" d="M25.68,936.39c-2.71,8.33-5.41,16.66-8.12,24.99c-2.1-0.59-4.19-1.18-6.29-1.77
	c1.99-8.83,4.78-17.41,8.38-25.72C21.66,934.73,23.67,935.56,25.68,936.39z"/>
<path class="st501" d="M11.28,959.61c2.1,0.59,4.19,1.18,6.29,1.77c-1.72,8.58-3.43,17.15-5.15,25.73
	c-2.12-0.23-4.24-0.46-6.36-0.69c0.21-7.28,2.35-14.23,3.66-21.32C10.05,963.24,10.2,961.28,11.28,959.61z"/>
<path class="st501" d="M25.68,936.39c-2.01-0.83-4.02-1.66-6.03-2.5c3.15-8.47,6.75-16.72,11.47-24.45c1.88,1,3.77,2.01,5.65,3.01
	C33.08,920.43,29.38,928.41,25.68,936.39z"/>
<path class="st495" d="M385.56,842.27c-5.39-1.77-7.65,2.17-9.96,5.65c-1.56,2.35-2.89,2.66-4.91,0.62
	c-1.34-1.35-2.95-2.44-4.44-3.64c-1.75-1.61-3.55-3.17-5.25-4.83c-4.65-4.52-9.26-9.08-13.89-13.62
	c-5.7-6.75-11.41-13.49-17.11-20.24c-0.72-1.02-1.43-2.04-2.16-3.05c-4.4-6.04-8.81-12.09-13.22-18.13
	c0.19-1.17-0.64-1.89-1.18-2.75c-3.31-5.32-6.67-10.62-9.5-16.22c2.92-3.04,5.84-6.08,8.74-9.14c0.98-1.03,2.03-1.16,3.41-0.85
	c7.86,1.8,15.73,3.54,23.61,5.23c15.2,3.25,30.41,6.49,45.64,9.63c2.78,0.57,3.89,1.68,3.75,4.72c-0.48,10.13,0.07,20.26-0.62,30.42
	c-0.74,10.9,0.19,21.88-0.74,32.81C387.55,840.67,386.86,841.52,385.56,842.27z"/>
<path class="st496" d="M385.56,842.27c1.3-0.75,2-1.6,2.15-3.38c0.93-10.93,0-21.91,0.74-32.81c0.69-10.16,0.14-20.29,0.62-30.42
	c0.14-3.03-0.96-4.14-3.75-4.72c-15.23-3.13-30.43-6.38-45.64-9.63c-7.88-1.69-15.76-3.43-23.61-5.23
	c-1.38-0.32-2.43-0.18-3.41,0.85c-2.9,3.06-5.83,6.09-8.74,9.14c-0.77-1.34-1.54-2.68-2.3-4.02c-2.48-5.08-4.97-10.15-7.42-15.24
	c-0.32-0.67-1.01-1.41-0.38-2.18c0.54-0.67,1.26-0.04,1.89,0.05c1.34,0.19,2.66,0.43,4,0.65c8.97,1.97,17.94,3.94,26.91,5.91
	c9.45,1.93,18.89,3.85,28.34,5.78c8.67,1.95,17.35,3.9,26.02,5.85c3.18,0.64,6.34,1.42,9.54,1.87c1.62,0.23,2.06,0.87,2.04,2.38
	c-0.04,2.93,0.08,5.86,0.13,8.79c-0.15,5.27-0.3,10.53-0.45,15.8c-0.77,2.13-0.39,4.31-0.25,6.48c0.01,1.44,0.02,2.88,0.04,4.32
	c-0.09,9.22-0.19,18.44-0.28,27.66c-0.13,3.25-0.37,6.5-0.35,9.75c0.02,2.64-0.77,3.79-3.52,2.76
	C387.15,842.41,386.33,842.4,385.56,842.27z"/>
<path class="st501" d="M347.1,826.45c4.63,4.54,9.24,9.1,13.89,13.62c1.7,1.66,3.5,3.22,5.25,4.83c-1.89,1.35-3.18,3.26-4.66,5
	c-6.64-6.2-13.66-12.02-19.34-19.19C343.86,829.28,345.48,827.87,347.1,826.45z"/>
<path class="st501" d="M391.74,830.18c0.09-9.22,0.19-18.44,0.28-27.66c2.25,1.09,4.63,0.37,6.95,0.55
	c-0.77,7.64-0.2,15.3-0.44,22.95c-0.05,1.48-0.1,2.97-0.15,4.45C396.16,830.37,393.95,830.27,391.74,830.18z"/>
<path class="st496" d="M386.85,871.06c2.02-0.12,3.23,1.42,4.76,2.29c3.45,1.97,5.97,0.6,6.19-3.39c0.1-1.8,0.1-3.6,0.15-5.4
	c3.37,2.27,4.49,5.55,3.08,9.04c-1.34,3.32-4.7,5.18-8.22,4.53C389.27,877.47,386.99,874.78,386.85,871.06z"/>
<path class="st498" d="M382.76,866.67c1.09,1.21,3.13,1.49,3.46,3.47c-5.58-2.97-10.79-6.53-15.96-10.15
	c-0.99-0.69-1.8-1.76-3.19-1.73c-0.02-0.25-0.04-0.51-0.05-0.76c0.81-0.54,0.69-1.37,0.69-2.16
	C373.03,858.7,377.29,863.48,382.76,866.67z"/>
<path class="st494" d="M398.97,803.07c-2.32-0.18-4.71,0.54-6.95-0.55c-0.01-1.44-0.02-2.88-0.04-4.31
	c0.73-2.13,0.38-4.31,0.25-6.49c0.15-5.27,0.3-10.53,0.45-15.8c2.18,0,4.37,0,6.55,0c0.55,7.35-0.18,14.7-0.05,22.05
	C399.21,799.67,399.04,801.37,398.97,803.07z"/>
<path class="st497" d="M270.6,113.09c1.09,0.62,2.25,0.33,3.39,0.24C272.92,112.54,271.75,112.91,270.6,113.09z"/>
<path class="st496" d="M279.14,62.93c-0.54,0.16-0.63,0.55-0.53,1.05C279.07,63.77,279.16,63.37,279.14,62.93z"/>
<path class="st496" d="M279.66,62.41c-0.36-0.01-0.5,0.2-0.53,0.53C279.31,62.76,279.49,62.58,279.66,62.41z"/>
<path class="st496" d="M278.63,63.96c-0.25,0.17-0.49,0.34-0.74,0.51C278.13,64.3,278.38,64.13,278.63,63.96z"/>
<path class="st494" d="M301.62,762.05c0.77,1.34,1.54,2.68,2.3,4.02c2.83,5.6,6.19,10.9,9.5,16.22c0.53,0.86,1.37,1.58,1.18,2.75
	c-2.05,0.68-3.72,1.98-5.44,3.23c-5.37-7.17-9.45-15.12-13.81-22.9C297.2,763.8,299.29,762.7,301.62,762.05z"/>
<path class="st494" d="M347.1,826.45c-1.62,1.42-3.24,2.83-4.86,4.25c-6.32-6.18-11.84-13.06-17.25-20.04
	c1.24-1.96,3.42-2.86,4.99-4.46C335.69,812.95,341.4,819.7,347.1,826.45z"/>
<path class="st501" d="M329.99,806.21c-1.57,1.59-3.75,2.5-4.99,4.46c-5.7-7.17-11.32-14.39-15.83-22.4
	c1.71-1.24,3.39-2.54,5.44-3.23c4.41,6.04,8.82,12.08,13.22,18.13C328.56,804.17,329.27,805.19,329.99,806.21z"/>
<path class="st494" d="M427.25,963.09c-11.1-0.29-20.62-2.61-29.31-8.05c-2.33-1.46-2.73-2.78-1.55-5.23
	c8.18-17.02,21.86-26.81,40.07-30.68c5.57-1.18,11.1-1.05,16.61,0.66c12.8,3.97,17.29,18.6,8.7,28.89
	c-6.82,8.17-16.15,11.68-26.26,13.51C432.47,962.73,429.37,962.87,427.25,963.09z"/>
<path class="st494" d="M326.61,751.24c-8.97-1.97-17.94-3.94-26.91-5.91c0.17-2.25,0.7-4.43,1.43-6.56
	c9.18,1.79,18.42,3.34,27.36,6.2C327.83,747.05,328.27,749.46,326.61,751.24z"/>
<path class="st503" d="M392.23,791.72c0.13,2.17,0.48,4.35-0.25,6.49C391.84,796.03,391.47,793.85,392.23,791.72z"/>
</svg>
