<svg id="Слой_1" data-name="Слой 1" xmlns="http://www.w3.org/2000/svg" viewBox="0 0 515 993"><defs><style>.cls-1{fill:#ff977e}.cls-2{fill:#fe3000}.cls-3{fill:#ef0b00}.cls-4{fill:#fe7b24}.cls-5{fill:#f60000}.cls-6{fill:#bf1200}.cls-7{fill:#fe3100}.cls-8{fill:red}.cls-9{fill:#ac7401}</style></defs><path class="cls-1" d="M429 149a39.61 39.61 0 00-17-19c-3.3-1.79-9.72-5.18-18.27-4.34-10.88 1.07-17.68 8.23-20 11.05a31.52 31.52 0 00-7 16.09A33 33 0 00372 175l-13 6-29.57-63.78c6.17-11.83 5.93-23.4-1.83-34.4A29.64 29.64 0 00307 70.31q-3-6.15-6-12.31c27.34 2.92 47.3 4.78 50.83 4.91A11.44 11.44 0 00357 62a10.61 10.61 0 003-2q11.44-15.16 22.9-30.34l-4.9-2 4.15-5.85-43.72-4.11c3.63-3.62 7.35-7.16 9.42-12 .7-1.64 1.74-3.17 1.57-5.07h111.19L515 109zm17.75-101.33a31.52 31.52 0 10-31.55 31.4 31.36 31.36 0 0031.55-31.4zM46 .59c2.19 6.19 5.42 11.9 8.22 17.8 8 16.92 16.14 33.76 24.23 50.63.34.7.75 1.35 1.13 2 1.2-.49 2.37-1.06 3.6-1.44 8.83-2.7 17.34-2.24 25.39 2.62a4.88 4.88 0 002.67-.84c10-4.73 20-9.44 29.91-14.22 2.15-1 4.49-1.75 6.46-3.31-3.44-3.88-3.16-8.67-3.6-13.28a6.11 6.11 0 01-.38-3.11l-.19-.82a2.2 2.2 0 01-.27-1.8 72.47 72.47 0 01-1-10.9c-.2-1-.35-2.05-.63-3-1.38-4.9-.17-7.34 4.58-9a49.79 49.79 0 0115.06-2.42c20.46-.71 40.81 1.42 61.21 2.23 5.23.21 10.51 1.13 15.72-.29.7-.63.55-1.26.15-2-1.41-2.73-2.74-5.5-4.11-8.26A1.06 1.06 0 01233 .59h-93c-6.15 19.69-31.73 27.63-48.41 15C86.54 11.7 82.45 7 80.81.59z"/><path class="cls-2" d="M143.17 34.85a72.47 72.47 0 01-1-10.9c.84-.51.27-1.48.71-2.18 7.95 6.54 17.5 7.14 27.18 7.41 16.84.47 33.28-2.15 49.61-6 7.05-1.65 14-3.71 21-5.55 2.83-.74 2.48-3.24 3.54-4.92.44-.7-.73-.65-1.26-.7-1.61-.13-3.3.34-4.81-.63.7-.63.55-1.26.15-2-1.41-2.73-2.74-5.5-4.11-8.26a.65.65 0 000-.51h18.18a13.58 13.58 0 01.93 1.82c.47 1.35 1.42 1 2.26.63 1.7-.81.19-1.63-.07-2.45h41.05c-2.33 2.2-5.21 3.54-7.94 5.11a109.07 109.07 0 01-11.74 5.89c-.33-1-.66-2-1-3l-.46.12c.57 4.11 1 8.23 1.73 12.32.63 3.66-.22 5.75-3.49 7.34-3.79 1.85-7.61 3.66-11.43 5.45-3.3 1.55-5 1-7.41-1.74-2-2.24-3.45-5-6.16-6.51h.06l-.49-.57-.23-.21.2.24v.57c-6.78 2.77-13.45 5.81-20.42 8.15a167.48 167.48 0 01-30.08 7.39 135.27 135.27 0 01-20.67 1.5A111.71 111.71 0 01145.89 38c-.74-.22-1.51-.33-2.26-.5-.07-.27-.13-.55-.19-.82a1.47 1.47 0 00-.27-1.83zm103.59-11.71l-.2-.22-.22-.21.2.22z"/><path class="cls-3" d="M276.75 11.59c-.33-1-.66-2-1-3l-.46.12c.57 4.11 1 8.23 1.73 12.32.63 3.66-.22 5.75-3.49 7.34-3.79 1.85-7.61 3.66-11.43 5.45-3.3 1.55-5 1-7.41-1.74-2-2.24-3.45-5-6.16-6.51.22.84.43 1.68.65 2.52 1.9 1.37 2.51 3.67 3.87 5.44a1.61 1.61 0 01-.53 2.29 18.21 18.21 0 01-3.17 2.18 292.71 292.71 0 01-43.69 16.67c-11.78 3.39-23.67 6-36 5.7-3.1-.08-6.2 0-9.3-.4 1.86 1.6 4.5 1.31 6.24 3l1-.12c.19-.24.38-.25.57 0l3 .67a70.62 70.62 0 0031.94.67c3.61-.73 7.21-1.53 10.81-2.3a2.07 2.07 0 00.43-.1l.57-.4c.23-.48.66-.52 1.11-.51L228.49 55c-1.66 3.29-4.16 5.33-4.9 8.37 3-2 5.16-5 8.09-7.19a71.39 71.39 0 0117.55-9.82l4.49-2.56c3.67-1.68 7.36-3.29 11-5.05 1.67-.81 2.44-1 2.79 1.34.61 4 .29 7.89.23 11.83 0 1.11-.73 2.2-.06 3.48 2.27-2.62 4.32-5.28 7.58-6.5l.05-.86c-1.8-3.71-3.59-7.43-5.4-11.13-.35-.71-.49-1.27.4-1.68.7-.32 1.35-.49 1.75.35 1.89 3.84 4.14 7.53 5.17 11.74l.92.12a22.08 22.08 0 0110.91-1.32c-5.27-3.23-9.75-6.16-13.36-10.27-1.45-1.66-.58-2 .75-2.67 3.87-1.83 7.71-3.73 11.57-5.6h.08l.59-.41a3.45 3.45 0 002.6-1c.08-.39.23-.46.49-.12h1.52a1.39 1.39 0 01.86-1.18c8.19-4.23 16.75-7.21 26.05-7.66.91-.05 2.16.63 2.68-.82l-9.64-.91-.16-.67 10.32-4.91a1.1 1.1 0 011-.5 1 1 0 011-.5 1 1 0 011-.5 1 1 0 011-.49 1 1 0 011-.52c0-.91.74-1.2 1.31-1.71 1.94-1.75 4.49-2.75 6-5h-14.87a7.71 7.71 0 01-1.08 1.06 297.07 297.07 0 01-34.45 19.27 8.57 8.57 0 01-4.23 1c-1.08-.06-2-.51-2.19-1.49-.37-1.93-1.47-3.72-1.2-5.78l-.65-1-.34-.59zM80.81.59c1.64 6.41 5.73 11.11 10.82 15 16.68 12.66 42.26 4.72 48.41-15z"/><path class="cls-2" d="M277.7 14.62c-.27 2.06.83 3.85 1.2 5.78.2 1 1.11 1.43 2.19 1.49a8.57 8.57 0 004.23-1 297.07 297.07 0 0034.45-19.24 7.71 7.71 0 001.08-1.06H301.1c-.82 1.44-2.35 2-3.62 2.83-6.31 4.23-13.15 7.52-19.78 11.2z"/><path class="cls-3" d="M323.41 9.9l-10.33 4.89.16.67 9.64.9c5.18.46 10.4.42 15.55 1.3 3.63-3.62 7.35-7.16 9.42-12 .7-1.64 1.74-3.17 1.57-5.07h-6.75a87.13 87.13 0 01-14.05 6.73 1 1 0 01-1 .52 1 1 0 01-1 .49 1 1 0 01-1 .5 1 1 0 01-1 .5 1 1 0 01-1.21.57z"/><path class="cls-4" d="M277.7 14.62c6.63-3.68 13.47-7 19.78-11.2 1.27-.86 2.8-1.39 3.62-2.83h-4.67c-2.33 2.2-5.21 3.54-7.94 5.11a109.07 109.07 0 01-11.74 5.89v1.42l.34.59z"/><path class="cls-1" d="M123.5 107.75a23.39 23.39 0 00.5-2.75c3.31-2.39 7.17-3.71 10.8-5.46q27.27-13.07 54.61-26a11.67 11.67 0 011.22-.42c7.3 4.2 15.13 4.72 23.24 3.36-2.15 4.22-5.11 7.91-7.68 11.86-4.87 7.48-9.84 14.9-14.76 22.35-.2.94-2.81 1.52-.46 2.87a10.53 10.53 0 012.74.62c6.9 3.59 14.35 1.57 21.53 2.34 7 .74 14-.16 20.91.94 1.81.29 3-.43 4-2q10.64-16.68 21.49-33.22A83.92 83.92 0 00268 71.66c1.18 2.35 2.37 4.73 3.55 7.15s2.33 4.82 3.45 7.19a28.9 28.9 0 00-4.44 12.85 29.94 29.94 0 002.84 15.35 30.78 30.78 0 006.23 9.24c2.07 2.09 7.28 7.58 15.13 8.44a18.83 18.83 0 002.24.12l2 4.19q13.88 29.12 28 57.81l-11 5c-11.39-16.45-30.2-22.95-44.06-17.19a30.71 30.71 0 00-17.35 19.5C250.9 214 257 224.31 258 226l-57 26a31.28 31.28 0 00-7.89-11.26 32 32 0 00-15.26-7.5 29.13 29.13 0 00-19.43 2.39c-.48-.92-1-1.82-1.45-2.75l-44.4-92.76c-2-4.1-3.83-8.26-5.74-12.39a31.31 31.31 0 0016.67-19.98zm65.57 78.43a31.32 31.32 0 10-31.53-31.28 31.3 31.3 0 0031.53 31.28zm301.57 482.38c.06 2.51-2.23 3.37-3.6 4.68-19.49 18.76-39.13 37.38-58.67 56.1-10.29 9.86-20.47 19.84-30.7 29.77-4.64 0-9-2-13.59-2.09-.46-.31-.88-.81-1.38-.92q-13.09-2.73-26.22-5.38a6.74 6.74 0 00-1-.34c-8-1.56-16-3-23.72-5.41 1.2-.71.4-1.61.18-2.41q-6.06-22-12.16-44c-1.53-5.51-3.11-11-4.67-16.49l-.66.08-6.79 42.85c-2.67-3.55-4-7.22-5.59-10.64-5.43-11.31-10.55-22.76-15.84-34.13q-7.43-16-14.93-31.89c-.34-.71-.59-1.54-1.6-1.57a24.29 24.29 0 01-.82-2.59q-2.7-13.05-5.35-26.1-4.62-22.75-9.22-45.53c0-1.28.09-1.71 1.71-1 9.47 4.4 19.64 6.08 29.92 7.23 4 1.19 8.23 1 12.33 1.65 9.41 1.47 18.92 1.8 28.41 2.31l23.85.68c9.8.47 19.6 1 29.41 1.39 16.09.57 32.18 1 48.28 1.47 9.36.38 18.72.83 28.08 1.12 2.68.08 3 .79 2.05 3.28-4.81 12.79-9.41 25.65-14.06 38.5a8 8 0 00-.22 1.64c-.23.24-.59.44-.69.73-4 11.15-8.32 22.22-12 33.49-5.27 16.14-10.12 32.42-15.12 48.64-1.52 4.93-3 9.88-4.43 14.82 7.11-11.1 13.75-22.38 20.37-33.67 5-8.56 10-17.14 15.06-25.68.78-1.33 1.45-2.69 3.63-2.44 13.19 1.55 26.38 3.66 39.75 1.85z"/><path class="cls-5" d="M177 262c6.76 2.55 18 6.68 31.43 11a31.06 31.06 0 0014 1.71 28.29 28.29 0 008.55-2.52c11.07-5.2 22.08-10.52 33.13-15.75 11.52-5.45 23.08-10.82 34.59-16.29 7.4-3.52 14.69-7.24 22.1-10.73 12.56-5.93 25.18-11.72 37.75-17.63 6.54-3.08 13-6.35 19.54-9.46 8.48-4 17-8 25.51-12 0 0 8.94-4.26 22.76-11.06C443.22 171 474.64 155 515 134v-25z"/><path class="cls-6" d="M254.31 572.5q4.6 22.77 9.22 45.53 2.64 13.05 5.35 26.1a24.29 24.29 0 00.82 2.59 12.57 12.57 0 00.09 2q8.77 42.59 17.57 85.16c-.07.67 0 1.4-.83 1.72-2.89 1.14-3.24 3.22-2.11 5.81.33.76-.14 1.29-.4 1.9l-3.53 2.86a37.52 37.52 0 00-9.1 2.3 23.36 23.36 0 00-2.66.4c-5.67 1.48-11.33 3-17 4.52.12-1.29 1.13-2 2-2.71 1.37-1.21 2.18-2.39 1.47-4.4-.45-1.27-.29-3.05 1.18-3.61 2.83-1.08 2-2.85 1.59-5-4.21-20.33-8.31-40.68-12.46-61q-3.54-17.34-7.15-34.65-6-28.65-12-57.29c-.51-2.44-.9-4.91-1.35-7.36-.52-2.78.07-4.5 3.16-5.75 6.35-2.58 13-2.92 19.64-3.87 2-.29 4-1.21 6.07-.64-1.19 1.95.06 3.64.43 5.39z"/><path class="cls-7" d="M166.55 62.94c-1.74-1.68-4.38-1.39-6.24-3 3.1.36 6.2.32 9.3.4 12.38.32 24.27-2.31 36-5.7A292.71 292.71 0 00249.35 38a18.21 18.21 0 003.19-2.15 1.61 1.61 0 00.53-2.29c-1.36-1.77-2-4.07-3.87-5.44a227.49 227.49 0 01-26.6 10c-15.38 4.44-31 7.17-47 7.15a110.5 110.5 0 01-31.6-4.69c.44 4.61.16 9.4 3.6 13.28-2 1.56-4.31 2.27-6.46 3.31-10 4.78-19.93 9.49-29.91 14.22a4.88 4.88 0 01-2.67.84 12 12 0 01-1.3.84q-9.7 4.64-19.42 9.23c-.93.45-1.94.8-2.35 1.89l6.81 14.07c9.59-3.9 18.71-8.79 28.12-13.1s18.94-8.77 28.29-13.42c5.94-2.95 12.18-5.3 17.84-8.8z"/><path class="cls-7" d="M124 105c3.31-2.39 7.17-3.71 10.8-5.46q27.27-13.07 54.61-26a12.34 12.34 0 011.21-.42c3.52-1.64 7.05-3.25 10.54-4.94 4.26-2.06 8.48-4.2 12.72-6.3-3.6.77-7.2 1.57-10.81 2.3a70.62 70.62 0 01-31.94-.67c-.38 1.05-1.41 1.22-2.24 1.61q-15.78 7.53-31.57 15c-12.72 6-25.45 12-38.15 18.09-1.84.88-3.9 1.44-5.36 3 2 4.84 4.34 9.5 6.76 14.14 3-.48 5.54-2.2 8.26-3.4 5.08-2.23 10.1-4.63 15.17-6.95z"/><path class="cls-6" d="M490.64 668.56c-13.37 1.81-26.56-.3-39.76-1.86-2.18-.25-2.85 1.11-3.63 2.44-5.05 8.54-10 17.12-15.06 25.68-6.62 11.29-13.26 22.57-20.37 33.67 1.47-4.94 2.91-9.89 4.43-14.82 5-16.22 9.85-32.5 15.12-48.64 3.69-11.27 8-22.34 12-33.49.1-.29.46-.49.69-.73l14.19 8.39 2.13 1.42c1.77 1.78 4.1 2.71 6.15 4.06 7.94 5.51 16.32 10.43 23.18 17.38 1.94 1.94 3.15 3.94.93 6.5z"/><path class="cls-8" d="M177 262l25-11a39.22 39.22 0 00-8.89-10.26 35.8 35.8 0 00-15.26-7.5 29.13 29.13 0 00-19.43 2.39c.48 1 5.47 11.19 9.58 18.37a18.15 18.15 0 004 5 17.31 17.31 0 005 3z"/><path class="cls-3" d="M284.12 592.56c7.45-.37 14.9-.75 22.35-1.1 1.28-.06 2.56 0 3.84 0a47.23 47.23 0 01-2.53 10.7 111.33 111.33 0 00-26.24 3.76 58 58 0 00-14.17 5.26c-9.59-1.07-19.09-2.64-27.94-6.75-1.51-.7-1.56-.3-1.59.9-.35-1.64-1.52-3.21-.41-5 5.94-3.58 12.68-4.25 19.31-5.05 9.11-1.09 18.26-1.82 27.38-2.72zM85.5 84.19c.41-1.09 1.42-1.44 2.35-1.89q9.72-4.6 19.42-9.23a12 12 0 001.3-.84c-8-4.86-16.56-5.32-25.39-2.62-1.23.38-2.4 1-3.6 1.44l5.92 13.14zM124 105c-5 2.35-10.07 4.75-15.17 7-2.72 1.2-5.24 2.92-8.26 3.4l6.28 12.35a31.31 31.31 0 0016.67-20A23.39 23.39 0 00124 105z"/><path class="cls-4" d="M93.79 101.24c1.46-1.59 3.52-2.15 5.36-3 12.7-6.07 25.43-12.06 38.15-18.09q15.8-7.49 31.57-15c.83-.39 1.86-.56 2.24-1.61l-3-.67h-.57l-1 .12c-5.66 3.5-11.9 5.85-17.83 8.8-9.35 4.65-18.8 9.08-28.29 13.42s-18.53 9.2-28.12 13.1z"/><path class="cls-1" d="M146 798.07c4.51-3.47 9.72-5.73 14.7-8.35 3.09-1.63 6.06-3.55 9.46-4.55l2.73 5.88-23.43 12.31c-1.27-1.68-1.82-3.84-3.46-5.29zm48.64-23.84c2.62-2.12 5.93-2.73 8.94-4a129.91 129.91 0 0116.28-6l2.19 6.05-24.87 9.74c-.85-1.89-1.69-3.84-2.54-5.79zM62.16 865a141.51 141.51 0 0118.65-19.34l4.53 4.49q-9.15 9.51-18.31 19zm39.15-37a150.88 150.88 0 0121.92-15.86q1.74 2.73 3.49 5.45c-.81.6-1.6 1.22-2.42 1.8-6 4.23-12.31 8.12-17.69 13.21l-1.44.45z"/><path class="cls-6" d="M222.05 770.33l-2.19-6.05a200.56 200.56 0 0125.51-8.34l2 6c-8.37 3.06-16.77 5.91-25.32 8.39z"/><path class="cls-1" d="M247.4 761.94l-2-6 6.37-2.51c5.66-1.51 11.32-3 17-4.52a23.36 23.36 0 012.66-.4c.38 1.34.77 2.68 1.16 4a26.67 26.67 0 01-6.11 4.61 6.22 6.22 0 00-2.67.31c-5.55 1.32-10.81 3.57-16.41 4.51z"/><path class="cls-6" d="M62.16 865l4.84 4.18-16.32 20.91c-1.65-1.55-4.18-2.06-5.21-4.35l1.05-2.2.59-.46a3.06 3.06 0 001.47-2.28c4.06-3.73 6.77-8.59 10.52-12.58 1.01-1.07 2.04-2.13 3.06-3.22zm64.56-47.45q-1.75-2.71-3.49-5.45a152.26 152.26 0 0122.79-14c1.62 1.45 2.17 3.61 3.45 5.29zm67.92-43.32q1.28 2.92 2.53 5.85l-24.27 11-2.73-5.88a176.8 176.8 0 0124.47-10.97zM101.31 828l3.91 5c-.45.59-.88 1.17-1.32 1.76l-1.34 1.11-.58.36q-8.33 7-16.63 14l-4.54-4.5a170.39 170.39 0 0120.5-17.73z"/><path class="cls-1" d="M514.68 993.29l-60-.1c1.54-9.64-3.45-16.86-12.76-18.48-13.11-2.27-30.19 6.44-36.26 18.5h-5.84c-6.15-10.18-8-21.21-6.51-32.91.49-3.7.63-3.76 3.75-1.82a53.09 53.09 0 0032.74 7.83c11.64-.85 22.49-4 31.35-12.08 6.63-6 10-13.42 7.79-22.42s-8.63-14.44-17.65-16.17c-13.41-2.56-25.58 1.5-36.93 8.27a48.38 48.38 0 00-20.84 24.23c-.84 2.12-1.61 2.35-3.18.56a56 56 0 01-6.71-9.07 56.93 56.93 0 01-4.75-11c-.37-1.15-.86-2.34-2.32-2-1.72.47-1.27 1.88-1 3.11.11.44.31.86.46 1.29a51.59 51.59 0 0013.48 21.55c.92.87 1.8 1.63 1.44 3.18a54.52 54.52 0 004.46 37.28l-27.84.12q-17.52-43.85-35.11-87.65c-.83-2-.77-3.32.7-5.14 11.38-14 22.6-28.13 33.87-42.23 1.39 0 2.21 1 3.19 1.73a153.72 153.72 0 0016 10.16c.22.3.43.61.64.92a7.09 7.09 0 006 7.07 7.33 7.33 0 008.15-4.42c1.41-3.5.29-6.77-3.08-9-1.75-1.54-3.84-1.4-5.81-.88-1.25.33-2.28.39-3.09-.55-2-2.28-3.11-1.09-4.25.82a31.22 31.22 0 01-2.05 2.72c-5.47-3.19-9.73-8-15.06-11.34l-6.13-5.44c1.48-1.73 2.77-3.64 4.67-5a52.09 52.09 0 014.44 3.64c2 2.05 3.35 1.74 4.91-.61 2.32-3.49 4.58-7.43 10-5.66a11.77 11.77 0 012.31.42c2.75 1 3.54-.12 3.52-2.76 0-3.25.22-6.5.35-9.75l6.64.28c0 3.76.09 7.52-.15 11.26-.12 2 .49 2.58 2.34 2.81 6.1.74 12.16 1.75 18.26 2.43 7.91.87 15.71 2.66 23.69 3 4.38 1.39 9 1.25 13.48 2.11a3.58 3.58 0 013.14 2.52q19.13 48 38.36 95.85c5.61 14 11.35 27.84 17 41.76z"/><path class="cls-7" d="M442.52 849.94c-8-.32-15.78-2.11-23.69-3-6.1-.68-12.16-1.69-18.26-2.43-1.85-.23-2.46-.85-2.34-2.81.24-3.74.12-7.5.15-11.25.05-1.48.11-3 .15-4.45.24-7.65-.32-15.32.44-22.95.07-1.7.24-3.4.21-5.1-.13-7.35.6-14.7.05-22.05.26-1.31.51-2.61.77-3.92l.73.38c.11.2.23.39.35.58 10.23 19.36 21.38 38.21 32.34 57.16a91.94 91.94 0 019.1 19.84z"/><path class="cls-6" d="M400 772c-.26 1.31-.51 2.61-.77 3.92h-6.55c-.05-2.93-.17-5.87-.13-8.79 0-1.52-.41-2.16-2-2.38-3.2-.46-6.36-1.23-9.54-1.88 1.19.07 1.78-.42 2-1.67a36.38 36.38 0 011.13-4.18c4.63.05 8.95 2.11 13.59 2.09a5.79 5.79 0 012.2 5.07c-.16 2.6.07 5.21.07 7.82z"/><path class="cls-9" d="M401.08 773c-.12-.19-.24-.38-.35-.58.42-.03.46.21.35.58z"/><path class="cls-5" d="M345 186l14-6c-15.14-32.1-24.09-51.1-29.57-62.78-3.42-7.28-4.45-9.48-6.41-13.56-6.7-14-9.68-20.06-16.06-33.35-2.29-4.76-5.73-12-9.95-20.92 6.11 1.61 12.23 1.76 18.28 2.4q19.71 2.06 39.41 4.14c.8.08 1.53.17 2.09-.59q5.46-7.38 10.95-14.73l-23.69-3.67c-15.8-2.44-31.61-4.8-47.38-7.4-2.9-.48-6.07-.06-8.66-2-3.86 1.87-7.7 3.77-11.57 5.6-1.33.64-2.2 1-.75 2.67 3.61 4.11 8.09 7 13.36 10.27a22.08 22.08 0 00-10.91 1.32c3.93 9.3 8.6 18.25 12.95 27.35 7.79 16.28 15.47 32.61 23.27 48.88 10.95 22.84 15 32.12 23.44 48.54 2.97 5.83 5.48 10.59 7.2 13.83z"/><path class="cls-8" d="M415.2 79.07a31.41 31.41 0 10-31.49-31.53 31.31 31.31 0 0031.49 31.53zM372 175l58-26c-7.57-15.81-22.46-25.08-36.27-23.34-11.84 1.49-19.72 10.67-20 11.05a31.61 31.61 0 00-7 16.09A33 33 0 00372 175z"/><path class="cls-7" d="M338.43 17.66q-7.8-.68-15.55-1.3A34.08 34.08 0 00318 16c-13-.05-20.54 7.24-23.85 8.85a1.52 1.52 0 00-.7.63 1.31 1.31 0 00-.16.55c7.19 1.71 14.54 2.46 21.82 3.65 10.59 1.72 21.2 3.34 31.8 5 7.64 1.17 15.29 2.28 22.93 3.42L378 27.62l4.15-5.85q-21.61-2.2-43.72-4.11z"/><path class="cls-8" d="M307 70.31q8 16.69 16 33.35c2.17 4.51 4.27 9 6.41 13.56 6.17-11.83 5.93-23.4-1.83-34.4A29.64 29.64 0 00307 70.31z"/><path class="cls-3" d="M142.13 24c.84-.51.27-1.48.71-2.18 7.95 6.54 17.5 7.14 27.18 7.41 16.84.47 33.28-2.15 49.61-6 7.05-1.65 14-3.71 21-5.55 2.83-.74 2.48-3.24 3.54-4.92.44-.7-.73-.65-1.26-.7-1.61-.13-3.3.34-4.81-.63-5.21 1.42-10.49.5-15.72.29-20.4-.81-40.75-2.94-61.21-2.23a49.79 49.79 0 00-15.06 2.42c-4.75 1.69-6 4.13-4.58 9 .25.99.4 2.02.6 3.09z"/><path class="cls-4" d="M144 40.58a110.5 110.5 0 0031.54 4.63c16 0 31.67-2.71 47-7.15a227.49 227.49 0 0026.6-10c-.22-.84-.43-1.68-.65-2.52h.06-.54c-6.78 2.77-13.45 5.81-20.42 8.15a167.48 167.48 0 01-30.08 7.39A135.27 135.27 0 01177 42.66 111.71 111.71 0 01145.89 38c-.74-.22-1.51-.33-2.26-.5a6.11 6.11 0 00.37 3.08zm-.56-3.93a1.47 1.47 0 00-.27-1.8 2.2 2.2 0 00.27 1.8z"/><path class="cls-3" d="M246.56 22.92l-.22-.21.2.22zm1.57 2.08l-.24-.21.2.24z"/><path class="cls-3" d="M246.54 22.93l.22.21-.2-.22zm1.53 2.66h.54l-.49-.57c-.04.19-.04.38-.05.57z"/><path class="cls-5" d="M327 195l16-7c-5.13-10.48-37.79-77.28-46.07-94.54l-5.32-11.11c-3.25-6.77-6.42-13.59-9.7-20.34-2.15-4.42-4.43-8.76-6.66-13.13-3.26 1.22-5.31 3.88-7.58 6.5-.67-1.28 0-2.37.06-3.48.06-3.94.38-7.87-.23-11.83-.35-2.34-1.12-2.15-2.79-1.34-3.63 1.76-7.32 3.37-11 5.05 0 1.28-.84 2.22-1.44 3.25q-8.88 15.3-17.78 30.6Q223.9 95.81 213.24 114l1.36.13c1.15-.18 2.32-.55 3.4.24 3.37.08 6.79-.17 10.09.34 3.57.56 5.39-.84 7.19-3.74 9.59-15.47 20.25-30.26 29.38-46.06q17.25 35.59 34.34 71.28 14 29.37 28 58.81z"/><path class="cls-7" d="M213.85 76.46c-2.15 4.22-5.11 7.91-7.68 11.86-4.87 7.48-9.84 14.9-14.76 22.35 1.15.61-.36 1.34.08 2 6.27.5 12.6-.56 18.84.69 3.43-5.77 6.9-11.52 10.29-17.31 7.08-12.13 14.2-24.23 21.15-36.43 2.51-4.41 5.45-8.58 7.46-13.28a71.39 71.39 0 00-17.55 9.82c-2.93 2.16-5 5.2-8.09 7.19l.07.06-.52.52a1 1 0 01-.53 1l-.74.51c-3.15 3.34-5.11 7.56-8.02 11.02z"/><path class="cls-4" d="M275.25 48.88L343 188l2-2q-33.44-69.28-66.86-138.58z"/><path class="cls-3" d="M213.85 76.46c2.91-3.49 4.87-7.68 8-11l.74-.51c-.11-.49 0-.88.53-1 0-.33.17-.53.52-.52l-.07-.06c.74-3 3.24-5.08 4.9-8.37L216 60.85a1.21 1.21 0 01-1.11.51l-.57.4a2.07 2.07 0 01-.43.1c-4.24 2.1-8.46 4.24-12.72 6.3-3.49 1.69-7 3.3-10.54 4.94 7.28 4.2 15.11 4.72 23.22 3.36z"/><path class="cls-4" d="M367.74 40.61l2.1-2.54c-7.64-1.14-15.29-2.25-22.93-3.42-10.6-1.63-21.21-3.25-31.8-5-7.28-1.19-14.63-1.94-21.82-3.65h-1.52a3.89 3.89 0 01-.49.12 3.45 3.45 0 01-2.6 1l-.59.41h-.08c2.59 1.92 5.76 1.5 8.66 2 15.77 2.6 31.58 5 47.38 7.4zm-118.51 5.73c-2 4.7-4.95 8.87-7.46 13.28-7 12.2-14.07 24.3-21.15 36.43-3.39 5.79-6.86 11.54-10.29 17.31 0 .18-.05.36-.07.54l3 .06q10.63-18.17 21.26-36.33 8.91-15.28 17.78-30.6c.6-1 1.4-2 1.44-3.25z"/><path class="cls-7" d="M275 50l4-2c-3.82-6.78-6.58-11.69-6.95-12.44a1 1 0 00-.51-.55 1.61 1.61 0 00-1.24.2 1.05 1.05 0 00-.62.56 1.37 1.37 0 00.22 1.12c.51.86 2.43 5.88 5.1 13.11zm-60.14 11.36a1.21 1.21 0 001.11-.51c-.45-.01-.88.03-1.11.51zm76.42-35.24a3.89 3.89 0 00.49-.12c-.26-.34-.41-.27-.49.12zm-3.19 1.4l.59-.41zm-120.54 35.3h.57c-.19-.25-.38-.24-.57 0zm46.74-1.06l.57-.4z"/><path class="cls-2" d="M367.06 858.25c-11.27 14.1-22.49 28.23-33.87 42.23-1.47 1.82-1.53 3.09-.7 5.14q17.64 43.78 35.11 87.65H197.72a8.83 8.83 0 01-1-.11c.62-5.54 2.24-10.88 3.35-16.33q5.94-29 12.37-58c2.71-12.2 4.68-24.56 8.34-36.54a198.52 198.52 0 0131.08-61.62c12.34-16.42 28-29.71 42.16-44.46 1.18-1.24 1.68-.81 2.48.48q5.32 8.54 10.86 17a274 274 0 0047.2 54.31c3.9 3.46 8.29 6.37 12.45 9.54-.01.21.04.46.05.71z"/><path class="cls-8" d="M102.56 835.83l1.34-1.11c1.73.28 2.47-.69 2.76-2.21 1.52.17 2.56-.76 3.67-1.56 16.44-12 34.11-21.88 52.12-31.21 12.34-6.4 25.18-11.77 38.07-16.95 6.29-2.52 12.71-4.71 19.06-7.05.4 1.09 0 1.46-.5 1.79-8.06 5.54-15.85 11.46-23.67 17.33A128.08 128.08 0 00172.64 817a152.8 152.8 0 00-18.11 28.42 133.1 133.1 0 00-9.85 26.87c-3 11.89-5.19 24-7.7 36q-5.5 26.32-11 52.65c-2.26 10.77-4.58 21.53-6.87 32.3q-22.3.06-44.61.11H12.04c.12-2 .23-4.1.35-6.15q2.58-12.86 5.15-25.73 4.07-12.5 8.12-25 5.55-12 11.09-23.94l13.91-22.36L67 869.18q9.16-9.49 18.31-19l16.64-14c.63.55.57.02.61-.35z"/><path class="cls-3" d="M367 857.5c-4.16-3.17-8.55-6.08-12.45-9.54a274 274 0 01-47.22-54.26q-5.55-8.4-10.86-17c-.8-1.29-1.3-1.72-2.48-.48-14.13 14.75-29.82 28-42.16 44.46a198.52 198.52 0 00-31.08 61.62c-3.66 12-5.63 24.34-8.34 36.54q-6.42 28.93-12.37 58c-1.11 5.45-2.73 10.79-3.35 16.33h-49.84c1.19-5.92 2.32-11.85 3.56-17.76 7.1-33.56 14.31-67.1 21.32-100.68a152.26 152.26 0 0116.36-44.42c11.66-20.6 28-36.66 47.35-50.07 10.58-7.35 20.95-15 31-23.12a26.67 26.67 0 006.11-4.61 37.92 37.92 0 007.94-6.33l3.53-2.86c1.17.14 1.26 1.15 1.63 2 3.13 6.73 6.09 13.55 9.7 20.05 4.36 7.78 8.45 15.73 13.81 22.9 4.51 8 10.13 15.23 15.83 22.4a191.39 191.39 0 0017.25 20c5.68 7.17 12.69 13 19.33 19.19l6.13 5.44c0 .83.12 1.7-.7 2.2z"/><path class="cls-6" d="M266.44 757.15c-10.05 8.09-20.42 15.77-31 23.12-19.32 13.41-35.69 29.47-47.35 50.07a152.26 152.26 0 00-16.36 44.42c-7 33.58-14.22 67.12-21.32 100.68-1.24 5.91-2.37 11.84-3.56 17.76h-27.72c2.29-10.77 4.61-21.53 6.87-32.3q5.52-26.32 11-52.65c2.51-12 4.73-24.07 7.7-36a133.1 133.1 0 019.85-26.87A152.8 152.8 0 01172.64 817a128.08 128.08 0 0122.72-22.09C203.18 789 211 783.12 219 777.58c.48-.33.9-.7.5-1.79-6.35 2.34-12.77 4.53-19.06 7.05-12.89 5.18-25.73 10.55-38.07 16.95-18 9.33-35.68 19.25-52.12 31.21-1.11.8-2.15 1.73-3.67 1.56 5.38-5.09 11.66-9 17.69-13.21.82-.58 1.61-1.2 2.42-1.8l22.75-14.19 23.43-12.31 24.27-11 24.88-9.75c8.55-2.48 17-5.36 25.35-8.39 5.62-.91 10.86-3.19 16.37-4.48a6.22 6.22 0 012.7-.28zm129 236a54.52 54.52 0 01-4.44-37.28c.36-1.55-.52-2.31-1.44-3.18a51.59 51.59 0 01-13.48-21.55c-.15-.43-.35-.85-.46-1.29-.31-1.23-.76-2.64 1-3.11 1.46-.38 1.95.81 2.32 2a56.93 56.93 0 004.75 11 56 56 0 006.71 9.07c1.57 1.79 2.34 1.56 3.18-.56a48.38 48.38 0 0120.84-24.23c11.35-6.77 23.52-10.83 36.93-8.27 9 1.73 15.39 7 17.65 16.17s-1.16 16.41-7.79 22.42c-8.86 8-19.71 11.23-31.35 12.08a53.09 53.09 0 01-32.74-7.83c-3.12-1.94-3.26-1.88-3.75 1.82-1.53 11.7.36 22.73 6.51 32.91zm31.81-30.06c2.12-.22 5.22-.36 8.24-.91 10.11-1.82 19.45-5.34 26.27-13.5 8.59-10.29 4.1-24.92-8.7-28.89a32.41 32.41 0 00-16.61-.66c-18.21 3.86-31.89 13.65-40.07 30.67-1.18 2.46-.78 3.77 1.56 5.24 8.69 5.44 18.2 7.76 29.31 8.05z"/><path class="cls-1" d="M451 993.17c-13.69.21-27.38.29-41.08 0 6.88-9.81 16.36-15.13 28.27-15.2 9.86-.1 14.66 6.03 12.81 15.2z"/><path class="cls-6" d="M451 993.17c1.81-9.15-3-15.3-12.81-15.24-11.91.07-21.39 5.39-28.27 15.2l-4.3.08c6.07-12.06 23.15-20.77 36.26-18.5 9.31 1.62 14.3 8.84 12.76 18.48z"/><path class="cls-1" d="M12.41 987.11c-.12 2-.23 4.1-.35 6.15h-7c.21-2.29.11-4.62 1-6.82z"/><path class="cls-8" d="M157.54 154.9a31.52 31.52 0 0063-.15 31.52 31.52 0 00-63 .15zM257 226l59-27c-11.25-16.49-30.11-23-44.06-17.19a31.45 31.45 0 00-17.35 19.5A32.74 32.74 0 00257 226zm40-94l-22-46a28.9 28.9 0 00-4.44 12.84 29.82 29.82 0 002.84 15.36 35 35 0 006.23 9.24c2.67 2.86 7.37 7.91 14.37 8.56a15.56 15.56 0 003 0z"/><path class="cls-2" d="M191 113.54l17.51.42c.6 0 1.2 0 1.8-.06 0-.18.05-.36.07-.54-6.24-1.25-12.57-.19-18.84-.69-.44-.66 1.07-1.39-.08-2-.25.95-2.86 1.52-.46 2.87z"/><path class="cls-3" d="M287.36 733.92q-8.79-42.57-17.57-85.16a12.57 12.57 0 01-.09-2c1 0 1.26.86 1.6 1.57q7.47 15.93 14.93 31.89c5.29 11.37 10.41 22.82 15.84 34.13 1.64 3.42 2.92 7.09 5.59 10.64l6.84-42.85.66-.08c1.56 5.49 3.14 11 4.67 16.49q6.1 22 12.16 44c.22.8 1 1.7-.18 2.4h-3.32c-8.94-2.86-18.18-4.41-27.36-6.2-3.29-.74-6.57-1.53-9.87-2.21-1.7-.33-3.18-.87-3.9-2.62z"/><path class="cls-6" d="M285.94 578.77c4.74-2.71 9.93-4.25 15.17-5.64a118.44 118.44 0 0128.09-4c-.5 4.6-2.61 8.9-2.52 13.61-9.49-.51-19-.84-28.41-2.31-4.1-.65-8.27-.43-12.33-1.66z"/><path class="cls-1" d="M384.08 757a36.38 36.38 0 00-1.08 4.2c-.2 1.25-.79 1.74-2 1.67L355 757l1.53-6.3q13.11 2.67 26.22 5.38c.45.13.87.63 1.33.92z"/><path class="cls-6" d="M356.48 750.72L355 757l-28.34-5.78c1.66-1.78 1.22-4.19 1.88-6.27h3.32c7.76 2.46 15.76 3.86 23.72 5.42a6.74 6.74 0 01.9.35zm-69.12-16.8c.72 1.75 2.2 2.29 3.9 2.64 3.3.68 6.58 1.47 9.87 2.21a26.34 26.34 0 00-1.43 6.56c-1.33-.22-2.66-.45-4-.65-.63-.09-1.34-.71-1.89 0s.06 1.5.39 2.17c2.45 5.09 4.94 10.16 7.42 15.24a16.48 16.48 0 00-6.27 3.31c-3.61-6.5-6.57-13.32-9.7-20.05-.37-.81-.46-1.82-1.63-2 .26-.61.73-1.14.4-1.9-1.13-2.59-.78-4.67 2.11-5.81.8-.32.76-1.05.83-1.72z"/><path class="cls-1" d="M50.68 890.09l-13.91 22.36-5.65-3c3.72-7.87 8.52-15.08 13.44-22.22a2.31 2.31 0 00.56-1.52 1 1 0 00.35 0c1.03 2.29 3.53 2.83 5.21 4.38zm-25 46.3q-4 12.5-8.12 25l-6.28-1.77a143.68 143.68 0 018.38-25.72z"/><path class="cls-6" d="M11.28 959.61l6.28 1.77q-2.56 12.87-5.15 25.73l-6.36-.69c.2-7.28 2.35-14.23 3.66-21.32.34-1.86.49-3.82 1.57-5.49zm14.4-23.22l-6-2.5a141.43 141.43 0 0111.46-24.45l5.65 3q-5.56 11.98-11.11 23.95z"/><path class="cls-2" d="M385.56 842.27c-5.39-1.77-7.65 2.17-10 5.66-1.56 2.35-2.88 2.66-4.91.61a52.09 52.09 0 00-4.44-3.64c-1.76-1.61-3.55-3.17-5.25-4.83-4.65-4.52-9.26-9.08-13.89-13.62L330 806.21c-.72-1-1.43-2-2.17-3.05L314.6 785c.19-1.16-.64-1.88-1.18-2.74-3.3-5.33-6.67-10.62-9.5-16.22 2.92-3.05 5.84-6.08 8.74-9.14a3.21 3.21 0 013.41-.85q11.79 2.7 23.61 5.23c15.21 3.25 30.41 6.5 45.64 9.63 2.78.58 3.89 1.69 3.74 4.72-.48 10.13.07 20.27-.62 30.42-.74 10.9.19 21.88-.74 32.82a3.78 3.78 0 01-2.14 3.4z"/><path class="cls-3" d="M385.56 842.27a3.78 3.78 0 002.14-3.37c.93-10.94 0-21.92.74-32.82.69-10.15.14-20.29.62-30.42.15-3-1-4.14-3.74-4.72-15.23-3.13-30.43-6.38-45.64-9.63q-11.82-2.52-23.61-5.23a3.21 3.21 0 00-3.41.85c-2.9 3.06-5.82 6.09-8.74 9.14l-2.3-4c-2.48-5.08-5-10.15-7.42-15.24-.33-.67-1-1.41-.39-2.17s1.26 0 1.89 0c1.34.2 2.67.43 4 .65l26.91 5.91L355 757l26 5.85c3.18.65 6.34 1.42 9.54 1.88 1.63.22 2.06.86 2 2.38 0 2.92.08 5.86.13 8.79l-.45 15.8c-.76 2.13-.39 4.31-.25 6.48v4.32q-.15 13.83-.28 27.66c-.13 3.25-.37 6.5-.35 9.75 0 2.64-.77 3.8-3.52 2.76a11.77 11.77 0 00-2.26-.4z"/><path class="cls-6" d="M347.1 826.45c4.63 4.54 9.24 9.1 13.89 13.62 1.7 1.66 3.49 3.22 5.25 4.83-1.9 1.35-3.19 3.26-4.67 5-6.64-6.19-13.65-12-19.33-19.19zm44.64 3.73q.13-13.83.28-27.66c2.24 1.08 4.63.37 7 .55-.76 7.63-.2 15.3-.44 22.95 0 1.48-.1 3-.15 4.45z"/><path class="cls-3" d="M386.85 871.06c2-.13 3.23 1.41 4.76 2.29 3.45 2 6 .6 6.19-3.39.1-1.8.11-3.6.16-5.4 3.37 2.27 4.49 5.54 3.08 9a7.33 7.33 0 01-8.22 4.53 7.09 7.09 0 01-5.97-7.03z"/><path class="cls-7" d="M382.76 866.67c1.09 1.21 3.13 1.48 3.45 3.47a153.72 153.72 0 01-16-10.16c-1-.69-1.8-1.76-3.19-1.73 0-.25 0-.5-.05-.75.81-.54.69-1.37.69-2.17 5.34 3.37 9.63 8.15 15.1 11.34z"/><path class="cls-1" d="M399 803.07c-2.32-.18-4.71.53-7-.55v-4.32c.74-2.13.38-4.31.25-6.48l.45-15.8h6.55c.55 7.35-.18 14.7-.05 22.05.01 1.7-.2 3.4-.2 5.1z"/><path class="cls-4" d="M214.6 114.09c1.1.62 2.25.33 3.4.24-1.08-.79-2.25-.42-3.4-.24z"/><path class="cls-3" d="M223.14 63.93c-.55.16-.64.55-.53 1a1 1 0 00.53-1zm.52-.52c-.35 0-.5.19-.52.52zM222.63 65l-.74.51z"/><path class="cls-1" d="M301.62 762.05l2.3 4c2.83 5.6 6.2 10.89 9.5 16.22.54.86 1.37 1.58 1.18 2.75a20.62 20.62 0 00-5.44 3.22c-5.36-7.17-9.45-15.12-13.81-22.9a16.48 16.48 0 016.27-3.29zm45.48 64.4l-4.86 4.25a191.39 191.39 0 01-17.25-20c1.24-2 3.43-2.86 5-4.45z"/><path class="cls-6" d="M330 806.21c-1.57 1.59-3.76 2.49-5 4.45-5.7-7.17-11.32-14.38-15.83-22.4a20.62 20.62 0 015.43-3.26l13.22 18.12c.74 1.05 1.45 2.07 2.18 3.09z"/><path class="cls-1" d="M427.25 963.09c-11.11-.29-20.62-2.61-29.31-8.05-2.34-1.47-2.74-2.78-1.56-5.24 8.18-17 21.86-26.81 40.07-30.67a32.41 32.41 0 0116.61.66c12.8 4 17.29 18.6 8.7 28.89-6.82 8.16-16.16 11.68-26.27 13.5-3.02.55-6.12.69-8.24.91zM326.61 751.24l-26.91-5.91a26.34 26.34 0 011.43-6.56c9.18 1.79 18.42 3.34 27.36 6.2-.66 2.08-.22 4.49-1.88 6.27z"/><path class="cls-9" d="M392.23 791.72c.13 2.17.49 4.35-.25 6.48-.14-2.2-.51-4.35.25-6.48z"/></svg>