<?xml version="1.0" encoding="utf-8"?>
<!-- Generator: Adobe Illustrator 24.2.3, SVG Export Plug-In . SVG Version: 6.00 Build 0)  -->
<svg version="1.1" id="Слой_1" xmlns="http://www.w3.org/2000/svg" xmlns:xlink="http://www.w3.org/1999/xlink" x="0px" y="0px"
	 viewBox="0 0 630.22 334" style="enable-background:new 0 0 630.22 334;" xml:space="preserve">
<style type="text/css">
	.st0{fill:none;}
	.st1{fill:url(#SVGID_1_);}
	.st2{fill:#AED9C4;}
	.st3{fill:none;stroke:#FFFFFF;stroke-miterlimit:10;}
	.st4{fill:#A3CCAC;}
	.st5{fill:#97CEA2;}
	.st6{opacity:0.76;}
	.st7{fill:#C5EACE;}
	.st8{fill:#FFFFFF;}
	.st9{fill:url(#SVGID_2_);}
	.st10{fill:url(#SVGID_3_);}
	.st11{fill:#F7E7BF;}
	.st12{fill:url(#SVGID_4_);}
	.st13{fill:url(#SVGID_5_);}
	.st14{fill:url(#SVGID_6_);}
	.st15{fill:#E5EFC5;}
	.st16{fill:#F0FCD3;}
	.st17{fill:url(#SVGID_7_);}
	.st18{fill:url(#SVGID_8_);}
	.st19{fill:url(#SVGID_9_);}
	.st20{fill:url(#SVGID_10_);}
	.st21{fill:#FFE594;}
	.st22{clip-path:url(#SVGID_12_);fill:url(#SVGID_13_);}
	.st23{fill:#5B2A1E;}
	.st24{fill:#917673;}
	.st25{fill:url(#SVGID_14_);}
	.st26{fill:url(#SVGID_15_);}
	.st27{fill:url(#SVGID_16_);}
	.st28{fill:url(#SVGID_17_);}
	.st29{opacity:0.62;fill:#FFFFFF;}
	.st30{opacity:0.41;fill:#FFFFFF;}
	.st31{opacity:0.26;fill:#FFFFFF;}
	.st32{opacity:0.17;}
	.st33{opacity:0.05;fill:#E3E9E5;}
	.st34{clip-path:url(#SVGID_19_);}
	.st35{opacity:0.76;clip-path:url(#SVGID_19_);fill:#FFFFFF;}
	.st36{clip-path:url(#SVGID_19_);fill:url(#SVGID_20_);}
	.st37{clip-path:url(#SVGID_19_);fill:none;stroke:#FFFFFF;stroke-width:2;stroke-linecap:round;stroke-miterlimit:10;}
	.st38{clip-path:url(#SVGID_19_);fill:url(#SVGID_21_);}
	.st39{clip-path:url(#SVGID_19_);fill:url(#SVGID_22_);}
	.st40{clip-path:url(#SVGID_19_);fill:url(#SVGID_23_);}
	.st41{clip-path:url(#SVGID_19_);fill:url(#SVGID_24_);}
	.st42{clip-path:url(#SVGID_19_);fill:#FFFFFF;}
	.st43{clip-path:url(#SVGID_19_);fill:url(#SVGID_25_);}
	.st44{opacity:0.62;clip-path:url(#SVGID_27_);fill:#FFFFFF;}
	.st45{clip-path:url(#SVGID_27_);fill:#FFFFFF;}
	.st46{opacity:0.41;clip-path:url(#SVGID_27_);fill:#FFFFFF;}
	.st47{clip-path:url(#SVGID_27_);fill:none;}
	.st48{clip-path:url(#SVGID_29_);}
	.st49{fill:url(#SVGID_30_);}
	.st50{opacity:0.74;clip-path:url(#SVGID_32_);fill:url(#SVGID_33_);}
	.st51{fill:#E6E6E6;}
	.st52{fill:none;stroke:#4D4D4D;stroke-width:0.75;stroke-linecap:round;stroke-miterlimit:10;}
	.st53{fill:url(#SVGID_34_);}
	.st54{opacity:0.3;fill:#FFFFFF;}
	.st55{opacity:0.74;fill:url(#SVGID_35_);}
	.st56{opacity:0.74;fill:url(#SVGID_36_);}
	.st57{opacity:0.74;fill:url(#SVGID_37_);}
	.st58{opacity:0.74;fill:url(#SVGID_38_);}
	.st59{fill:url(#SVGID_39_);}
	.st60{opacity:0.66;}
	.st61{opacity:0.37;fill:#FFFFFF;}
	.st62{fill:url(#SVGID_40_);}
	.st63{fill:url(#SVGID_41_);}
	.st64{fill:url(#SVGID_42_);}
	.st65{opacity:0.74;fill:url(#SVGID_43_);}
	.st66{fill:url(#SVGID_44_);}
	.st67{fill:url(#SVGID_45_);}
	.st68{opacity:0.74;fill:url(#SVGID_46_);}
	.st69{opacity:0.74;fill:url(#SVGID_47_);}
	.st70{opacity:0.74;fill:url(#SVGID_48_);}
	.st71{opacity:0.74;fill:url(#SVGID_49_);}
	.st72{fill:url(#SVGID_50_);}
	.st73{opacity:0.76;fill:#FFFFFF;}
	.st74{fill:url(#SVGID_51_);}
	.st75{fill:none;stroke:#FFFFFF;stroke-width:2;stroke-linecap:round;stroke-miterlimit:10;}
	.st76{fill:url(#SVGID_52_);}
	.st77{fill:url(#SVGID_53_);}
	.st78{fill:url(#SVGID_54_);}
	.st79{fill:url(#SVGID_55_);}
	.st80{fill:url(#SVGID_56_);}
	.st81{fill:url(#SVGID_57_);}
	.st82{fill:url(#SVGID_58_);}
</style>
<g>
	<linearGradient id="SVGID_1_" gradientUnits="userSpaceOnUse" x1="-70.9625" y1="184.2009" x2="197.014" y2="184.2009">
		<stop  offset="0.0603" style="stop-color:#9C8B70"/>
		<stop  offset="0.2799" style="stop-color:#9E8D73"/>
		<stop  offset="0.4563" style="stop-color:#A4957D"/>
		<stop  offset="0.6177" style="stop-color:#AEA18E"/>
		<stop  offset="0.7701" style="stop-color:#BCB3A6"/>
		<stop  offset="0.9148" style="stop-color:#CDCAC4"/>
		<stop  offset="1" style="stop-color:#DADADA"/>
	</linearGradient>
	<path class="st1" d="M132.22,333.79c-44.85,0-87.37,0-131.3,0c-0.29-4.95-0.79-9.5-0.8-14.04c-0.06-48.83-0.35-97.67,0.32-146.49
		c0.09-6.6,3.45-14.87,8.15-19.42C48.4,115.23,88.79,77.21,129.33,39.36c3.12-2.92,9.9-5.81,12.88-4.37
		c24.6,11.91,48.7,24.84,74.44,38.24c-25.49,26.39-49.46,51.83-74.23,76.46c-7.75,7.71-10.49,15.62-10.39,26.28
		c0.45,46.93,0.19,93.87,0.18,140.81C132.22,321.91,132.22,327.04,132.22,333.79z"/>
	<path class="st54" d="M478.27,202.62C422.64,148.28,368.8,95.69,314.18,42.34C259.82,95.43,206.31,147.7,150.5,202.21
		c-1.02-22.11-4.81-39.61,13.22-56.26c47.73-44.09,93.37-90.45,139.85-135.88C306.9,6.81,310.38,3.7,314.35,0
		c42.24,41.26,83.95,82.01,125.67,122.75c7.81,7.63,14.8,16.4,23.6,22.63C484.26,160.01,479.91,180.03,478.27,202.62z"/>
	
		<linearGradient id="SVGID_2_" gradientUnits="userSpaceOnUse" x1="-3590.2471" y1="-3776.262" x2="-3535.5715" y2="-3776.262" gradientTransform="matrix(0 1 -1 0 -3426.3657 3772.8679)">
		<stop  offset="0.2585" style="stop-color:#A19178"/>
		<stop  offset="0.391" style="stop-color:#A79982"/>
		<stop  offset="0.6204" style="stop-color:#B7AE9F"/>
		<stop  offset="0.9173" style="stop-color:#D2D0CC"/>
		<stop  offset="1" style="stop-color:#DADADA"/>
	</linearGradient>
	<path style="opacity:0.74;fill:url(#SVGID_2_);" d="M322.78,237.22c0-19.14,0-36.4,0-54.6c17.85,0,35.09,0,54.16,0
		c0,15.95,0.29,31.91-0.32,47.84c-0.09,2.34-4.38,6.37-6.85,6.46C354.33,237.52,338.86,237.22,322.78,237.22z"/>
	
		<linearGradient id="SVGID_3_" gradientUnits="userSpaceOnUse" x1="-3661.302" y1="-3776.2432" x2="-3593.0981" y2="-3776.2432" gradientTransform="matrix(0 1 -1 0 -3497.7148 3844.2549)">
		<stop  offset="0.2585" style="stop-color:#A19178"/>
		<stop  offset="0.391" style="stop-color:#A79982"/>
		<stop  offset="0.6204" style="stop-color:#B7AE9F"/>
		<stop  offset="0.9173" style="stop-color:#D2D0CC"/>
		<stop  offset="1" style="stop-color:#DADADA"/>
	</linearGradient>
	<path style="opacity:0.74;fill:url(#SVGID_3_);" d="M251.26,237c0-18.03,0-34.99,0-53.98c16.29,0,32.27-0.29,48.21,0.34
		c2.18,0.09,5.86,4.71,5.97,7.35c0.58,15.07,0.28,30.18,0.28,46.29C287.19,237,269.99,237,251.26,237z"/>
	
		<linearGradient id="SVGID_4_" gradientUnits="userSpaceOnUse" x1="-3660.2522" y1="-3706.4556" x2="-3607.0168" y2="-3706.4556" gradientTransform="matrix(0 1 -1 0 -3427.2847 3913.3997)">
		<stop  offset="0.2585" style="stop-color:#A19178"/>
		<stop  offset="0.391" style="stop-color:#A79982"/>
		<stop  offset="0.6204" style="stop-color:#B7AE9F"/>
		<stop  offset="0.9173" style="stop-color:#D2D0CC"/>
		<stop  offset="1" style="stop-color:#DADADA"/>
	</linearGradient>
	<path style="opacity:0.74;fill:url(#SVGID_4_);" d="M305.37,253.15c0,17.86,0,35.15,0,53.24c-17.53,0-34.38,0-52.4,0
		c0-17.51,0-34.76,0-53.24C270.2,253.15,287.41,253.15,305.37,253.15z"/>
	
		<linearGradient id="SVGID_5_" gradientUnits="userSpaceOnUse" x1="-3590.0115" y1="-3706.0798" x2="-3536.8052" y2="-3706.0798" gradientTransform="matrix(0 1 -1 0 -3356.6826 3843.5491)">
		<stop  offset="0.2585" style="stop-color:#A19178"/>
		<stop  offset="0.391" style="stop-color:#A79982"/>
		<stop  offset="0.6204" style="stop-color:#B7AE9F"/>
		<stop  offset="0.9173" style="stop-color:#D2D0CC"/>
		<stop  offset="1" style="stop-color:#DADADA"/>
	</linearGradient>
	<path style="opacity:0.74;fill:url(#SVGID_5_);" d="M322.99,306.74c0-18.15,0-35.1,0-53.21c17.54,0,34.71,0,52.82,0
		c0,17.34,0,34.64,0,53.21C358.84,306.74,341.7,306.74,322.99,306.74z"/>
	
		<linearGradient id="SVGID_6_" gradientUnits="userSpaceOnUse" x1="-7624.3374" y1="232.2382" x2="-7817.6396" y2="119.2934" gradientTransform="matrix(-1 0 0 1 -7151.7148 0)">
		<stop  offset="0.0343" style="stop-color:#9C8B70"/>
		<stop  offset="0.1874" style="stop-color:#9E8D73"/>
		<stop  offset="0.2585" style="stop-color:#A19178"/>
		<stop  offset="0.3493" style="stop-color:#A79982"/>
		<stop  offset="0.5064" style="stop-color:#B7AE9F"/>
		<stop  offset="0.7097" style="stop-color:#D2D0CC"/>
		<stop  offset="0.7664" style="stop-color:#DADADA"/>
	</linearGradient>
	<path class="st14" d="M498,334c44.85,0,87.37,0,131.3,0c0.29-4.95,0.79-9.5,0.8-14.04c0.06-48.83,0.35-97.67-0.32-146.49
		c-0.09-6.6-3.45-14.87-8.15-19.42c-39.82-38.61-80.21-76.62-120.74-114.47c-3.12-2.92-9.9-5.81-12.88-4.37
		c-24.6,11.91-48.7,24.84-74.44,38.24c25.49,26.39,49.46,51.83,74.23,76.46c7.75,7.71,10.49,15.62,10.39,26.28
		c-0.45,46.93-0.19,93.87-0.18,140.81C498,322.12,498,327.25,498,334z"/>
</g>
</svg>
