<?xml version="1.0" encoding="utf-8"?>
<!-- Generator: Adobe Illustrator 24.2.3, SVG Export Plug-In . SVG Version: 6.00 Build 0)  -->
<svg version="1.1" id="Слой_1" xmlns="http://www.w3.org/2000/svg" xmlns:xlink="http://www.w3.org/1999/xlink" x="0px" y="0px"
	 viewBox="0 0 565.43 571.05" style="enable-background:new 0 0 565.43 571.05;" xml:space="preserve">
<style type="text/css">
	.st0{fill:url(#SVGID_1_);}
	.st1{fill:#AED9C4;}
	.st2{fill:none;stroke:#FFFFFF;stroke-miterlimit:10;}
	.st3{fill:#A3CCAC;}
	.st4{fill:#97CEA2;}
	.st5{opacity:0.76;}
	.st6{fill:#C5EACE;}
	.st7{fill:#FFFFFF;}
	.st8{fill:url(#SVGID_2_);}
	.st9{fill:url(#SVGID_3_);}
	.st10{fill:#F7E7BF;}
	.st11{fill:url(#SVGID_4_);}
	.st12{fill:url(#SVGID_5_);}
	.st13{fill:url(#SVGID_6_);}
	.st14{fill:#E5EFC5;}
	.st15{fill:#F0FCD3;}
	.st16{fill:url(#SVGID_7_);}
	.st17{fill:url(#SVGID_8_);}
	.st18{fill:url(#SVGID_9_);}
	.st19{fill:url(#SVGID_10_);}
	.st20{fill:#FFE594;}
	.st21{clip-path:url(#SVGID_12_);fill:url(#SVGID_13_);}
	.st22{fill:#5B2A1E;}
	.st23{fill:#917673;}
	.st24{fill:url(#SVGID_14_);}
	.st25{fill:url(#SVGID_15_);}
	.st26{fill:url(#SVGID_16_);}
	.st27{fill:url(#SVGID_17_);}
	.st28{fill:url(#SVGID_18_);}
	.st29{opacity:0.62;clip-path:url(#SVGID_20_);fill:#FFFFFF;}
	.st30{opacity:0.75;clip-path:url(#SVGID_20_);fill:#FFFFFF;}
	.st31{opacity:0.41;clip-path:url(#SVGID_20_);fill:#FFFFFF;}
	.st32{clip-path:url(#SVGID_20_);fill:none;}
	.st33{clip-path:url(#SVGID_22_);}
	.st34{opacity:0.26;fill:#FFFFFF;}
	.st35{opacity:0.69;fill:#FFFFFF;}
	.st36{fill:none;}
	.st37{opacity:0.16;fill:#FFFFFF;}
	.st38{opacity:0.3;fill:#FFFFFF;}
	.st39{opacity:0.23;fill:#FFFFFF;}
	.st40{opacity:0.24;fill:#FFFFFF;}
	.st41{opacity:0.17;}
	.st42{opacity:0.05;fill:#E3E9E5;}
	.st43{clip-path:url(#SVGID_24_);}
	.st44{opacity:0.76;clip-path:url(#SVGID_24_);fill:#FFFFFF;}
	.st45{clip-path:url(#SVGID_24_);fill:url(#SVGID_25_);}
	.st46{clip-path:url(#SVGID_24_);fill:none;stroke:#FFFFFF;stroke-width:2;stroke-linecap:round;stroke-miterlimit:10;}
	.st47{clip-path:url(#SVGID_24_);fill:url(#SVGID_26_);}
	.st48{clip-path:url(#SVGID_24_);fill:url(#SVGID_27_);}
	.st49{clip-path:url(#SVGID_24_);fill:url(#SVGID_28_);}
	.st50{clip-path:url(#SVGID_24_);fill:url(#SVGID_29_);}
	.st51{clip-path:url(#SVGID_24_);fill:#FFFFFF;}
	.st52{clip-path:url(#SVGID_24_);fill:url(#SVGID_30_);}
	.st53{opacity:0.62;clip-path:url(#SVGID_32_);fill:#FFFFFF;}
	.st54{clip-path:url(#SVGID_32_);fill:#FFFFFF;}
	.st55{opacity:0.41;clip-path:url(#SVGID_32_);fill:#FFFFFF;}
	.st56{clip-path:url(#SVGID_32_);fill:none;}
	.st57{clip-path:url(#SVGID_34_);}
	.st58{fill:url(#SVGID_35_);}
	.st59{opacity:0.74;clip-path:url(#SVGID_37_);fill:url(#SVGID_38_);}
	.st60{fill:#E6E6E6;}
	.st61{fill:none;stroke:#4D4D4D;stroke-width:0.75;stroke-linecap:round;stroke-miterlimit:10;}
	.st62{fill:url(#SVGID_39_);}
	.st63{opacity:0.74;fill:url(#SVGID_40_);}
	.st64{opacity:0.74;fill:url(#SVGID_41_);}
	.st65{opacity:0.74;fill:url(#SVGID_42_);}
	.st66{opacity:0.74;fill:url(#SVGID_43_);}
	.st67{fill:url(#SVGID_44_);}
	.st68{opacity:0.66;}
	.st69{opacity:0.37;fill:#FFFFFF;}
	.st70{fill:url(#SVGID_45_);}
	.st71{fill:url(#SVGID_46_);}
	.st72{fill:url(#SVGID_47_);}
	.st73{opacity:0.44;clip-path:url(#SVGID_49_);fill:#FFFFFF;}
	.st74{opacity:0.43;clip-path:url(#SVGID_51_);fill:#FFFFFF;}
	.st75{clip-path:url(#SVGID_51_);fill:none;stroke:#FFFFFF;stroke-miterlimit:10;}
	.st76{opacity:0.76;clip-path:url(#SVGID_51_);fill:#FFFFFF;}
	.st77{clip-path:url(#SVGID_51_);fill:#FFFFFF;}
	.st78{opacity:0.08;clip-path:url(#SVGID_51_);fill:#FFFFFF;}
	.st79{opacity:0.27;clip-path:url(#SVGID_51_);fill:#FFFFFF;}
	.st80{opacity:0.37;clip-path:url(#SVGID_51_);fill:#FFFFFF;}
	.st81{clip-path:url(#SVGID_51_);fill:none;}
	.st82{fill:url(#SVGID_52_);}
	.st83{opacity:0.62;clip-path:url(#SVGID_54_);fill:#FFFFFF;}
	.st84{clip-path:url(#SVGID_54_);fill:#FFFFFF;}
	.st85{opacity:0.41;clip-path:url(#SVGID_54_);fill:#FFFFFF;}
	.st86{clip-path:url(#SVGID_54_);fill:none;}
	.st87{clip-path:url(#SVGID_56_);}
	.st88{opacity:0.55;fill:url(#SVGID_57_);}
	.st89{fill:url(#SVGID_58_);}
	.st90{fill:url(#SVGID_59_);}
	.st91{opacity:0.28;}
	.st92{opacity:0.56;clip-path:url(#SVGID_61_);fill:#FFFFFF;}
	.st93{opacity:0.43;clip-path:url(#SVGID_63_);fill:#FFFFFF;}
	.st94{clip-path:url(#SVGID_63_);fill:none;stroke:#FFFFFF;stroke-miterlimit:10;}
	.st95{opacity:0.76;clip-path:url(#SVGID_63_);fill:#FFFFFF;}
	.st96{clip-path:url(#SVGID_63_);fill:#FFFFFF;}
	.st97{opacity:0.08;clip-path:url(#SVGID_63_);fill:#FFFFFF;}
	.st98{opacity:0.27;clip-path:url(#SVGID_63_);fill:#FFFFFF;}
	.st99{opacity:0.37;clip-path:url(#SVGID_63_);fill:#FFFFFF;}
	.st100{clip-path:url(#SVGID_63_);fill:none;}
	.st101{fill:url(#SVGID_64_);}
	.st102{opacity:0.62;clip-path:url(#SVGID_66_);fill:#FFFFFF;}
	.st103{clip-path:url(#SVGID_66_);fill:#FFFFFF;}
	.st104{opacity:0.41;clip-path:url(#SVGID_66_);fill:#FFFFFF;}
	.st105{clip-path:url(#SVGID_66_);fill:none;}
	.st106{clip-path:url(#SVGID_68_);}
	.st107{opacity:0.55;fill:url(#SVGID_69_);}
	.st108{fill:url(#SVGID_70_);}
	.st109{opacity:0.27;}
	.st110{opacity:0.56;clip-path:url(#SVGID_72_);fill:#FFFFFF;}
	.st111{opacity:0.52;clip-path:url(#SVGID_74_);fill:#FFFFFF;}
	.st112{clip-path:url(#SVGID_74_);fill:none;stroke:#FFFFFF;stroke-miterlimit:10;}
	.st113{opacity:0.76;clip-path:url(#SVGID_74_);fill:#FFFFFF;}
	.st114{clip-path:url(#SVGID_74_);fill:#FFFFFF;}
	.st115{opacity:0.08;clip-path:url(#SVGID_74_);fill:#FFFFFF;}
	.st116{opacity:0.27;clip-path:url(#SVGID_74_);fill:#FFFFFF;}
	.st117{opacity:0.37;clip-path:url(#SVGID_74_);fill:#FFFFFF;}
	.st118{clip-path:url(#SVGID_74_);fill:none;}
	.st119{clip-path:url(#SVGID_76_);fill:none;}
	.st120{opacity:0.46;}
	.st121{opacity:0.86;fill:#FFFFFF;}
	.st122{opacity:0.73;fill:#FFFFFF;}
	.st123{opacity:0.54;clip-path:url(#SVGID_78_);fill:#FFFFFF;}
	.st124{opacity:0.62;fill:#FFFFFF;}
	.st125{opacity:0.75;fill:#FFFFFF;}
	.st126{opacity:0.41;fill:#FFFFFF;}
	.st127{opacity:0.44;fill:#FFFFFF;}
	.st128{opacity:0.43;fill:#FFFFFF;}
	.st129{opacity:0.76;fill:#FFFFFF;}
	.st130{opacity:0.08;fill:#FFFFFF;}
	.st131{opacity:0.27;fill:#FFFFFF;}
	.st132{opacity:0.54;fill:#FFFFFF;}
</style>
<g class="st68">
	<path class="st7" d="M165.92,477.31c-26.31-0.92-47.82-14.95-57.39-37.42l-0.97-2.28h116.43c39.1,0,73.78,14.25,97.83,39.71H165.92
		z"/>
	<path class="st7" d="M294.72,455.9H152.06c-17.72-0.62-33.24-7.2-44.43-18.29h-0.07l0.97,2.28c9.57,22.48,31.08,36.51,57.39,37.42
		h155.9C313.88,468.91,304.76,461.75,294.72,455.9z"/>
	<path class="st7" d="M110.1,443.24c10.88,9.39,25.22,14.94,41.39,15.51h147.85c-1.52-0.98-3.05-1.93-4.62-2.84H152.06
		c-17.72-0.62-33.24-7.2-44.43-18.29h-0.07l0.97,2.28C109.02,441.03,109.56,442.14,110.1,443.24z"/>
</g>
<path class="st69" d="M425.61,563.85c-3.71-8.91-8.48-17.09-14.16-24.44l0,0c0-0.01-0.01-0.01-0.01-0.02
	c-1.04-1.34-2.11-2.64-3.2-3.93c-0.29-0.34-0.57-0.67-0.86-1.01c-0.45-0.52-0.91-1.03-1.37-1.53c-0.31-0.34-0.62-0.68-0.94-1.01
	c-0.47-0.5-0.93-1-1.41-1.49c-0.31-0.32-0.62-0.63-0.93-0.94c-0.88-0.88-1.77-1.75-2.68-2.6c-0.33-0.31-0.66-0.63-1-0.93
	c-0.49-0.44-0.98-0.88-1.48-1.31c-0.37-0.33-0.75-0.65-1.12-0.97c-0.49-0.42-0.99-0.84-1.49-1.25c-0.4-0.33-0.8-0.65-1.21-0.97
	c-0.49-0.39-0.99-0.79-1.49-1.18c-0.81-0.62-1.63-1.24-2.47-1.84c-0.48-0.35-0.98-0.69-1.46-1.03c-0.47-0.33-0.94-0.65-1.41-0.97
	c-0.5-0.34-1-0.67-1.5-0.99c-0.49-0.32-0.98-0.63-1.48-0.94c-0.49-0.31-0.98-0.62-1.48-0.92c-0.6-0.36-1.21-0.72-1.82-1.07
	c-0.67-0.39-1.34-0.77-2.02-1.15c-0.68-0.38-1.36-0.75-2.05-1.11c-0.47-0.25-0.95-0.49-1.43-0.73c-0.59-0.3-1.19-0.6-1.79-0.89
	c-0.48-0.23-0.97-0.47-1.45-0.69c-0.66-0.31-1.32-0.61-1.99-0.9c-0.43-0.19-0.85-0.38-1.28-0.57c-1.04-0.45-2.1-0.88-3.16-1.3
	c-0.39-0.15-0.78-0.3-1.18-0.45c-0.75-0.29-1.5-0.57-2.26-0.84c-0.46-0.16-0.92-0.32-1.38-0.48c-0.73-0.25-1.47-0.5-2.22-0.74
	c-0.44-0.14-0.87-0.28-1.31-0.42c-1.02-0.32-2.05-0.62-3.08-0.91c-0.22-0.06-0.44-0.13-0.67-0.19c-1.1-0.3-2.21-0.59-3.32-0.86
	c-0.41-0.1-0.82-0.2-1.24-0.29c-0.83-0.2-1.67-0.38-2.51-0.56c-0.43-0.09-0.87-0.19-1.31-0.27c-0.92-0.19-1.85-0.36-2.78-0.53
	c-0.32-0.06-0.65-0.12-0.97-0.18c-1.24-0.21-2.5-0.41-3.76-0.59c-0.31-0.04-0.62-0.08-0.93-0.12c-0.98-0.13-1.96-0.25-2.95-0.36
	c-0.43-0.05-0.86-0.09-1.29-0.14c-0.92-0.09-1.85-0.18-2.78-0.25c-0.4-0.03-0.8-0.07-1.2-0.1c-1.31-0.09-2.62-0.18-3.94-0.23
	l-148.21-1.26c-17.39,1.14-41.38,0.13-67.33-9.52C32.81,457.55,6.21,379.58,2.08,366.84c0.31,20.64,0.63,41.28,0.94,61.93
	l-0.94-0.61l0,0c0,0,0,0,0,0c-0.83,6.75-7.38,68.27,37.97,109.54c24.69,22.47,52.76,28.01,65.26,29.66c38.5-0.4,77-0.79,115.5-1.19
	l206.49,1.75L425.61,563.85z"/>
<g class="st91">
	<g>
		<g>
			<g>
				<path class="st7" d="M517.62,450.9c-45.14-4.93-66.39-34.44-85.26-72.03c-18.74-37.3-34.32-81.26-24.26-123.15
					c0.36-1.54-1.08-2.73-2.39-3.03c-13.06-2.87-35.47-4.37-46.85,3.64c-6.07,4.25-9.09,9.06-11.23,16.09
					c-1.95,6.45,4.85,12.29,1.28,11.51c-13.06-2.9-25.3-9.42-36.13-17.07c-13.63-9.57-56.28-57.51-33.69-72.5
					c5.14-3.41,14.63-13.36,8.49-19.78c-4.79-5.02-16.36,1.72-20.71,3.82c-42.47,20.54-79.77,59.93-104.53,99.32
					c-3.56,4.6-7.11,9.21-10.67,13.81c-0.13,0.15-0.15,0.3-0.23,0.44c-0.03,0.07-0.09,0.11-0.14,0.18
					c-11.98,24.22,15.77,46.29,32.44,59.36c33.48,26.27,72.44,44.4,107.81,67.78c46.99,31.09,83.89,73.27,140.18,88.1
					c40.23,10.59,119.41,2.65,133.13-38.59C570.04,453.25,523.52,451.55,517.62,450.9z M405.47,492.72
					c-43.05-17.92-75.45-54.49-113.82-79.88c-27.04-17.86-55.97-32.75-83.13-50.48c-18.57-12.11-65.51-40.06-52.33-67.77
					c2.4-3.08,4.77-6.14,7.14-9.22c7.16,18.58,36.47,33.84,50.07,41.98c25.65,15.31,52.83,27.26,77.41,44.44
					c20.74,14.51,38.62,32.57,56.11,50.74c16.54,17.2,32.18,38.03,53.59,49.51c20.82,11.17,43.03,15.42,66.38,17.76
					c33.14,3.32,83.94-11.52,88.28-12.46C517.5,505.69,446.6,509.82,405.47,492.72z"/>
			</g>
		</g>
		<g>
			<path class="st7" d="M404.06,499.84c-43.26-17.41-80.73-61.62-119.1-87.01c-27.04-17.86-55.97-32.75-83.13-50.48
				c-18.57-12.11-65.51-40.06-52.33-67.77c2.4-3.08,4.77-6.14,7.14-9.22c7.16,18.58,36.47,33.84,50.07,41.98
				c25.65,15.31,52.83,27.26,77.41,44.44c20.74,14.51,38.62,32.57,56.11,50.74c16.54,17.2,32.18,38.03,53.59,49.51
				c20.82,11.17,47.69,22.21,83.82,21.04c40.65-1.32,80.15-17.04,84.49-17.98C532.71,522.39,446.31,516.85,404.06,499.84z"/>
		</g>
	</g>
</g>
</svg>
