<?xml version="1.0" encoding="utf-8"?>
<!-- Generator: Adobe Illustrator 24.2.3, SVG Export Plug-In . SVG Version: 6.00 Build 0)  -->
<svg version="1.1" id="Слой_1" xmlns="http://www.w3.org/2000/svg" xmlns:xlink="http://www.w3.org/1999/xlink" x="0px" y="0px"
	 viewBox="0 0 475.34 333.04" style="enable-background:new 0 0 475.34 333.04;" xml:space="preserve">
<style type="text/css">
	.st0{fill:none;}
	.st1{fill:url(#SVGID_1_);}
	.st2{fill:#AED9C4;}
	.st3{fill:none;stroke:#FFFFFF;stroke-miterlimit:10;}
	.st4{fill:#A3CCAC;}
	.st5{fill:#97CEA2;}
	.st6{opacity:0.76;}
	.st7{fill:#C5EACE;}
	.st8{fill:#FFFFFF;}
	.st9{fill:url(#SVGID_2_);}
	.st10{fill:url(#SVGID_3_);}
	.st11{fill:#F7E7BF;}
	.st12{fill:url(#SVGID_4_);}
	.st13{fill:url(#SVGID_5_);}
	.st14{fill:url(#SVGID_6_);}
	.st15{fill:#E5EFC5;}
	.st16{fill:#F0FCD3;}
	.st17{fill:url(#SVGID_7_);}
	.st18{fill:url(#SVGID_8_);}
	.st19{fill:url(#SVGID_9_);}
	.st20{fill:url(#SVGID_10_);}
	.st21{fill:#FFE594;}
	.st22{clip-path:url(#SVGID_12_);fill:url(#SVGID_13_);}
	.st23{fill:#5B2A1E;}
	.st24{fill:#917673;}
	.st25{fill:url(#SVGID_14_);}
	.st26{fill:url(#SVGID_15_);}
	.st27{fill:url(#SVGID_16_);}
	.st28{fill:url(#SVGID_17_);}
	.st29{opacity:0.62;fill:#FFFFFF;}
	.st30{opacity:0.41;fill:#FFFFFF;}
	.st31{opacity:0.26;fill:#FFFFFF;}
	.st32{opacity:0.17;}
	.st33{opacity:0.05;fill:#E3E9E5;}
	.st34{clip-path:url(#SVGID_19_);}
	.st35{opacity:0.76;clip-path:url(#SVGID_19_);fill:#FFFFFF;}
	.st36{clip-path:url(#SVGID_19_);fill:url(#SVGID_20_);}
	.st37{clip-path:url(#SVGID_19_);fill:none;stroke:#FFFFFF;stroke-width:2;stroke-linecap:round;stroke-miterlimit:10;}
	.st38{clip-path:url(#SVGID_19_);fill:url(#SVGID_21_);}
	.st39{clip-path:url(#SVGID_19_);fill:url(#SVGID_22_);}
	.st40{clip-path:url(#SVGID_19_);fill:url(#SVGID_23_);}
	.st41{clip-path:url(#SVGID_19_);fill:url(#SVGID_24_);}
	.st42{clip-path:url(#SVGID_19_);fill:#FFFFFF;}
	.st43{clip-path:url(#SVGID_19_);fill:url(#SVGID_25_);}
	.st44{opacity:0.62;clip-path:url(#SVGID_27_);fill:#FFFFFF;}
	.st45{clip-path:url(#SVGID_27_);fill:#FFFFFF;}
	.st46{opacity:0.41;clip-path:url(#SVGID_27_);fill:#FFFFFF;}
	.st47{clip-path:url(#SVGID_27_);fill:none;}
	.st48{clip-path:url(#SVGID_29_);}
	.st49{fill:url(#SVGID_30_);}
	.st50{opacity:0.74;clip-path:url(#SVGID_32_);fill:url(#SVGID_33_);}
	.st51{fill:#E6E6E6;}
	.st52{fill:none;stroke:#4D4D4D;stroke-width:0.75;stroke-linecap:round;stroke-miterlimit:10;}
	.st53{fill:url(#SVGID_34_);}
	.st54{opacity:0.3;fill:#FFFFFF;}
	.st55{opacity:0.74;fill:url(#SVGID_35_);}
	.st56{opacity:0.74;fill:url(#SVGID_36_);}
	.st57{opacity:0.74;fill:url(#SVGID_37_);}
	.st58{opacity:0.74;fill:url(#SVGID_38_);}
	.st59{fill:url(#SVGID_39_);}
	.st60{opacity:0.66;}
	.st61{opacity:0.37;fill:#FFFFFF;}
	.st62{fill:url(#SVGID_40_);}
	.st63{fill:url(#SVGID_41_);}
	.st64{fill:url(#SVGID_42_);}
	.st65{opacity:0.74;fill:url(#SVGID_43_);}
	.st66{fill:url(#SVGID_44_);}
	.st67{fill:url(#SVGID_45_);}
	.st68{opacity:0.74;fill:url(#SVGID_46_);}
	.st69{opacity:0.74;fill:url(#SVGID_47_);}
	.st70{opacity:0.74;fill:url(#SVGID_48_);}
	.st71{opacity:0.74;fill:url(#SVGID_49_);}
	.st72{fill:url(#SVGID_50_);}
	.st73{opacity:0.76;fill:#FFFFFF;}
	.st74{fill:url(#SVGID_51_);}
	.st75{fill:none;stroke:#FFFFFF;stroke-width:2;stroke-linecap:round;stroke-miterlimit:10;}
	.st76{fill:url(#SVGID_52_);}
	.st77{fill:url(#SVGID_53_);}
	.st78{fill:url(#SVGID_54_);}
	.st79{fill:url(#SVGID_55_);}
	.st80{fill:url(#SVGID_56_);}
	.st81{fill:url(#SVGID_57_);}
	.st82{fill:url(#SVGID_58_);}
</style>
<g>
	<g class="st60">
		<path class="st8" d="M138.76,256.67c-22.17-0.77-40.3-12.6-48.37-31.54l-0.82-1.92h98.13c32.96,0,62.19,12.01,82.46,33.47H138.76z
			"/>
		<path class="st8" d="M247.32,238.63H127.08c-14.94-0.52-28.02-6.07-37.45-15.42h-0.06l0.82,1.92
			c8.07,18.95,26.2,30.77,48.37,31.54h131.4C263.47,249.59,255.78,243.56,247.32,238.63z"/>
		<path class="st8" d="M91.71,227.95c9.17,7.92,21.25,12.59,34.88,13.07h124.61c-1.28-0.82-2.57-1.63-3.89-2.4H127.08
			c-14.94-0.52-28.02-6.07-37.45-15.42h-0.06l0.82,1.92C90.8,226.09,91.25,227.03,91.71,227.95z"/>
	</g>
	<path class="st61" d="M357.64,329.61c-3.12-7.51-7.14-14.4-11.93-20.6l0,0c0,0-0.01-0.01-0.01-0.01c-0.87-1.13-1.78-2.23-2.7-3.31
		c-0.24-0.28-0.48-0.57-0.73-0.85c-0.38-0.43-0.77-0.86-1.16-1.29c-0.26-0.29-0.52-0.57-0.79-0.85c-0.39-0.42-0.79-0.84-1.19-1.25
		c-0.26-0.27-0.52-0.53-0.79-0.79c-0.74-0.74-1.49-1.47-2.26-2.19c-0.28-0.26-0.56-0.53-0.84-0.79c-0.41-0.37-0.83-0.74-1.25-1.11
		c-0.31-0.28-0.63-0.55-0.95-0.82c-0.42-0.35-0.83-0.71-1.26-1.05c-0.34-0.28-0.68-0.55-1.02-0.82c-0.42-0.33-0.83-0.67-1.25-0.99
		c-0.69-0.53-1.38-1.04-2.08-1.55c-0.41-0.29-0.82-0.58-1.23-0.87c-0.4-0.28-0.79-0.55-1.19-0.82c-0.42-0.28-0.84-0.56-1.27-0.84
		c-0.41-0.27-0.83-0.53-1.25-0.8c-0.41-0.26-0.83-0.52-1.25-0.78c-0.51-0.31-1.02-0.6-1.53-0.9c-0.56-0.33-1.13-0.65-1.7-0.97
		c-0.57-0.32-1.15-0.63-1.73-0.94c-0.4-0.21-0.8-0.41-1.21-0.62c-0.5-0.25-1.01-0.51-1.51-0.75c-0.41-0.2-0.81-0.39-1.22-0.58
		c-0.56-0.26-1.12-0.51-1.68-0.76c-0.36-0.16-0.71-0.32-1.08-0.48c-0.88-0.38-1.77-0.75-2.67-1.1c-0.33-0.13-0.66-0.25-0.99-0.38
		c-0.63-0.24-1.27-0.48-1.91-0.71c-0.39-0.14-0.77-0.27-1.16-0.41c-0.62-0.21-1.24-0.42-1.87-0.62c-0.37-0.12-0.73-0.24-1.1-0.35
		c-0.86-0.27-1.73-0.52-2.6-0.77c-0.19-0.05-0.37-0.11-0.56-0.16c-0.93-0.26-1.86-0.5-2.8-0.73c-0.35-0.08-0.69-0.16-1.04-0.25
		c-0.7-0.17-1.4-0.32-2.11-0.48c-0.37-0.08-0.73-0.16-1.1-0.23c-0.78-0.16-1.56-0.31-2.34-0.45c-0.27-0.05-0.54-0.1-0.82-0.15
		c-1.05-0.18-2.1-0.35-3.17-0.5c-0.26-0.04-0.52-0.07-0.78-0.1c-0.82-0.11-1.65-0.21-2.48-0.31c-0.36-0.04-0.72-0.08-1.09-0.11
		c-0.78-0.08-1.56-0.15-2.34-0.21c-0.34-0.03-0.67-0.06-1.01-0.08c-1.1-0.08-2.21-0.15-3.32-0.2l-124.91-1.06
		c-14.65,0.96-34.88,0.11-56.75-8.03c-64.1-23.85-86.52-89.56-90-100.29c0.26,17.4,0.53,34.8,0.79,52.19l-0.79-0.51l0,0c0,0,0,0,0,0
		c-0.7,5.69-6.22,57.54,32,92.32c20.81,18.94,44.47,23.61,55,25c32.45-0.33,64.9-0.67,97.35-1l174.04,1.48L357.64,329.61z"/>
	<g>
		<linearGradient id="SVGID_1_" gradientUnits="userSpaceOnUse" x1="123.9773" y1="142.8104" x2="475.3387" y2="142.8104">
			<stop  offset="0" style="stop-color:#EDEEF4"/>
			<stop  offset="0.5" style="stop-color:#CFD2E0"/>
			<stop  offset="1" style="stop-color:#AAB0C5"/>
		</linearGradient>
		<path class="st1" d="M435.18,234.42c-38.05-4.16-55.96-29.03-71.86-60.71c-15.8-31.43-28.93-68.49-20.45-103.79
			c0.3-1.3-0.91-2.3-2.01-2.55c-11-2.42-29.9-3.68-39.48,3.07c-5.11,3.59-7.66,7.64-9.47,13.56c-1.64,5.43,4.09,10.35,1.08,9.7
			c-11-2.44-21.32-7.94-30.45-14.39c-11.49-8.07-47.44-48.47-28.4-61.1c4.33-2.87,12.33-11.26,7.15-16.67
			c-4.04-4.23-13.79,1.45-17.45,3.22c-35.8,17.31-67.23,50.51-88.1,83.71c-3,3.87-5.99,7.76-8.99,11.64
			c-0.11,0.13-0.13,0.25-0.2,0.37c-0.03,0.06-0.08,0.09-0.12,0.15c-10.1,20.41,13.29,39.02,27.35,50.03
			c28.22,22.14,61.06,37.42,90.87,57.13c39.6,26.2,70.71,61.75,118.15,74.26c33.91,8.93,100.65,2.23,112.2-32.52
			C479.37,236.39,440.16,234.96,435.18,234.42z M340.66,269.66c-36.29-15.1-63.6-45.93-95.93-67.33
			c-22.79-15.05-47.17-27.6-70.06-42.54c-15.65-10.2-55.22-33.76-44.1-57.12c2.02-2.6,4.02-5.18,6.02-7.77
			c6.04,15.66,30.73,28.52,42.2,35.38c21.62,12.9,44.53,22.97,65.24,37.46c17.48,12.23,32.55,27.45,47.29,42.77
			c13.94,14.5,27.13,32.06,45.16,41.73c17.55,9.41,36.27,12.99,55.95,14.97c27.93,2.8,70.75-9.71,74.41-10.5
			C435.08,280.59,375.33,284.07,340.66,269.66z"/>
		<linearGradient id="SVGID_2_" gradientUnits="userSpaceOnUse" x1="122.9869" y1="190.4573" x2="472.7063" y2="190.4573">
			<stop  offset="0" style="stop-color:#EDEEF4"/>
			<stop  offset="0.5" style="stop-color:#CFD2E0"/>
			<stop  offset="1" style="stop-color:#AAB0C5"/>
		</linearGradient>
		<path class="st9" d="M339.47,275.66c-36.46-14.67-68.04-51.93-100.38-73.33c-22.79-15.05-47.17-27.6-70.06-42.54
			c-15.65-10.2-55.22-33.76-44.1-57.12c2.02-2.6,4.02-5.18,6.02-7.77c6.04,15.66,30.73,28.52,42.2,35.38
			c21.62,12.9,44.53,22.97,65.24,37.46c17.48,12.23,32.55,27.45,47.29,42.77c13.94,14.5,27.13,32.06,45.16,41.73
			c17.55,9.41,40.19,18.72,70.65,17.73c34.26-1.11,67.55-14.36,71.21-15.15C447.91,294.67,375.08,289.99,339.47,275.66z"/>
	</g>
</g>
</svg>
