<svg id="Слой_1" data-name="Слой 1" xmlns="http://www.w3.org/2000/svg" viewBox="0 0 515 599"><defs><style>.cls-1{fill:#365acc}.cls-2{fill:#6b95e8}.cls-3{fill:#83d5fb}.cls-4{fill:#4c73d6}</style></defs><ellipse class="cls-1" cx="261.35" cy="556.83" rx="253.65" ry="40.6"/><path class="cls-2" d="M184.31 444.43c-26-23.73-46.88-56.07-62-96.11-12.79-34.08-20.21-69.32-27.39-111.76-7.48-44.23-13.67-89.28-18.38-133.9l1.21-.12a2175.73 2175.73 0 0018.37 133.82c7.17 42.36 14.57 77.54 27.37 111.53 15 39.86 35.74 72 61.63 95.65z"/><path class="cls-2" d="M77.2 104.05a152.56 152.56 0 01-22-81.74c.11-5.4.68-11.18 3-15.93 2.08-4.25 7.48-6.06 11.46-3.51a7.94 7.94 0 012.67 2.86c2.11 3.76 2.8 8.14 3.37 12.42a371.72 371.72 0 011.5 85.9zM78.7 118a130.07 130.07 0 0135.62-62.75c3.3-3.22 7.11-6.38 11.36-7.87a6.91 6.91 0 019.06 4.73 6.76 6.76 0 01-.1 3.33c-1 3.55-3.18 6.62-5.39 9.56a317.06 317.06 0 01-50.55 53zm.01-1A130 130 0 0116 81.32C12.74 78 9.58 74.22 8.09 70a6.9 6.9 0 014.73-9 6.75 6.75 0 013.33.09c3.55 1 6.62 3.18 9.56 5.4a316.65 316.65 0 0153 50.51zm50.14 246.55c4.86-24.43 18.12-48.12 37.77-67.44 3.72-3.65 8-7.32 13-9.38 4.47-1.85 9.9-.3 11.29 3.51a5.64 5.64 0 01.16 3.33c-.88 3.67-3.29 7-5.72 10.26a369.72 369.72 0 01-56.5 59.72z"/><path class="cls-2" d="M129.38 363.31c-29-2.44-56.58-12-78.47-27.11-4.14-2.86-8.25-6.23-10.4-10.27-1.92-3.62.3-8.26 5-9.68a9.62 9.62 0 014-.35c4.35.49 8.22 2.28 11.95 4.09a348 348 0 0167.92 43.32zm27.44 48.54c1.27-24.88 11-50.23 27.62-72.19 3.15-4.15 6.89-8.41 11.54-11.17 4.16-2.48 9.75-1.73 11.68 1.83a5.67 5.67 0 01.64 3.28c-.35 3.76-2.24 7.43-4.17 11a369.42 369.42 0 01-47.31 67.25zm.58.57c-29.06 1.79-57.71-3.64-81.56-15.46-4.51-2.24-9.07-5-11.78-8.67-2.42-3.3-.9-8.21 3.51-10.29a9.87 9.87 0 013.92-.93c4.38-.14 8.47 1.07 12.41 2.32a348 348 0 0173.5 33.03zM84.23 162.17a130.2 130.2 0 0147.52-54.31c3.89-2.48 8.25-4.81 12.72-5.42a6.9 6.9 0 017.91 6.46 6.58 6.58 0 01-.76 3.24c-1.67 3.28-4.44 5.84-7.2 8.28a317.12 317.12 0 01-60.19 41.75zm.24-.84a130.06 130.06 0 01-68.16-23.71c-3.75-2.67-7.55-5.84-9.79-9.76a6.91 6.91 0 013-9.76 6.69 6.69 0 013.29-.5c3.66.31 7.08 1.93 10.37 3.58a316.8 316.8 0 0161.29 40.15zM91 209.92a149.17 149.17 0 0154.47-62.26c4.45-2.84 9.46-5.51 14.58-6.21a7.91 7.91 0 019.07 7.4 7.65 7.65 0 01-.87 3.72c-1.91 3.76-5.1 6.69-8.26 9.49A363.87 363.87 0 0191 209.92zm.22-.92a149.16 149.16 0 01-78.13-27.18c-4.31-3.07-8.66-6.7-11.23-11.19a7.93 7.93 0 013.47-11.23 7.74 7.74 0 013.77-.58c4.2.36 8.12 2.22 11.89 4.11A363 363 0 0191.22 209zm7.67 47a154.57 154.57 0 0158.26-62.55c4.75-2.87 10.09-5.57 15.54-6.29 4.87-.65 9.54 2.74 9.62 7.36a7.44 7.44 0 01-.95 3.72c-2.05 3.77-5.46 6.73-8.84 9.53A393.12 393.12 0 0198.89 256zm.29-1a164 164 0 01-83-26.81c-4.57-3-9.18-6.66-11.89-11.13a7.76 7.76 0 013.75-11.21 8.59 8.59 0 014-.6c4.47.34 8.63 2.17 12.64 4A385.33 385.33 0 0199.18 255zm10.65 54.21c12.68-25.4 33.15-47.37 58.27-62.55 4.75-2.87 10.08-5.57 15.53-6.29 4.88-.65 9.55 2.74 9.62 7.36a7.45 7.45 0 01-.94 3.72c-2.06 3.77-5.46 6.73-8.84 9.53a393.2 393.2 0 01-73.64 48.23zm.3-.96a163.94 163.94 0 01-83-26.81c-4.57-3-9.18-6.66-11.89-11.13A7.76 7.76 0 0119 259.1a8.7 8.7 0 014-.61c4.47.35 8.63 2.18 12.63 4.05a384.62 384.62 0 0174.5 45.71z"/><path class="cls-1" d="M187.63 308.13l159.93-100.9 48.72 36.39C371.17 252.1 344 261.55 318.85 270c-10.45 3.53-20.91 7.06-31.14 11.17-9.32 3.74-18.45 8-27.84 11.5-23.22 8.78-47.42 15.46-72.24 15.46zm18.75-4.84q77.62-42.64 154.54-86.68m-153.17 85.94s99.42-42.85 169.1-73.1"/><path class="cls-3" d="M173.16 308.79q24.14-35.43 50.28-69.38v-61.22c-.18-.17-.35-.34-.52-.52-25.39 44.52-49 90.07-69.55 137"/><path class="cls-3" d="M223.11 177.25c-7.34-4.1-25.52-8.35-25.52-8.35-19.66 41.18-38.87 83.79-57.08 125.64 3.55 1.2 15.92 6.64 18.88 7.19.78-1.22 43.29-83.9 63.72-124.48z"/><path class="cls-2" d="M172.91 303.87c32-43.19 69.07-87.71 102.73-129.63-.05 23.58.19 54.74.14 78.32-29 17.82-84.48 53.9-84.48 53.9"/><path class="cls-2" d="M275.64 174.24l-5.98-1.31-104.27 129.78 6.22 3.11 104.03-131.58zM170.1 301.88s100.73-126.55 101.56-127.57M191.77 296.2l77.57-84.49m-38.7 57.06l31.39-32.58m-44.94 65.93l181.34-64.75a2.63 2.63 0 013.44 2.49v280.73a5.23 5.23 0 01-3.4 4.9l-180.54 67.57-6.46-4.06"/><path class="cls-1" d="M241.37 330.15l140.24-47.68v42.51l-140.24 48.87v-43.7zm0 54.03l140.24-47.68v8.74l-140.24 48.87v-9.93z"/><path class="cls-3" d="M249.8 509.15s.92-198.65-1.36-213.6c-1.4-9.13-7.91-15.53-13.28-17.33a.86.86 0 01-.15-1.55l9.35-5.71a.89.89 0 01.81-.07c17.37 7.28 15.49 32.13 15.49 32.13l-.34 202.39-5.66-5.41z"/><path class="cls-4" d="M135 289.32l57-122.77a1.82 1.82 0 012.19-1l2.49.77a1.83 1.83 0 011.12 2.51l-57.29 125.71z"/><path class="cls-4" d="M218 593.22V301.8a124.58 124.58 0 01-43.27 2.07c-14.82-1.9-29.54-6.6-39.71-14.55v276.74c0 18.54 23.32 25.7 36 26.89 15.57 1.45 32.72 2.45 46.98.27z"/><ellipse class="cls-1" cx="176.01" cy="451.12" rx="23.24" ry="75.09"/><path class="cls-1" d="M200.73 329.48a163.3 163.3 0 01-64.31-13.16.52.52 0 01-.26-.67.51.51 0 01.67-.27 161.51 161.51 0 0086 11.48.52.52 0 01.58.42.52.52 0 01-.43.58 150.47 150.47 0 01-22.25 1.62zm-1.24 16.64A163.3 163.3 0 01135.18 333a.52.52 0 01-.26-.67.51.51 0 01.67-.27 161.51 161.51 0 0086 11.48.51.51 0 01.15 1 150.47 150.47 0 01-22.25 1.58zm1.24 209.81a163.3 163.3 0 01-64.31-13.16.52.52 0 01-.26-.67.51.51 0 01.67-.27 161.5 161.5 0 0086 11.48.52.52 0 01.58.42.52.52 0 01-.43.58 150.47 150.47 0 01-22.25 1.62zm-1.24 16.64a163.3 163.3 0 01-64.31-13.16.52.52 0 01-.26-.67.51.51 0 01.67-.27 161.51 161.51 0 0086 11.48.52.52 0 01.57.42.5.5 0 01-.42.58 150.47 150.47 0 01-22.25 1.62z"/><path d="M402.6 496.92c14.78-30.44 19.46-61.92 22.4-98.36 3.83-47.26 3.62-99.61 1.81-152.13" fill="none" stroke="#83d5fb" stroke-miterlimit="10"/><path class="cls-3" d="M428 297.18a192.35 192.35 0 0030.31-44.39M427 370.2q21.74-22.11 42-45.58m-17.72 20.29c12.24-2.38 26.12-5 38.36-7.37M387.62 280a65.14 65.14 0 0040.74 38.18M387 353.24c9.52 14.14 23.7 26.93 38.32 35.7m-5.54 54.22c17.05-14.68 44.56-36.49 61.61-51.17m-22.76-18.33L457.8 411M406 388.65l14.28-3.31m-3.89-16.2s3.9 16.2 3.77 16.53m-37.8 37.49a221.43 221.43 0 0031.22 43.77m-24.9-5.21l18.68-1.59m33.28-33.56q21.8 1.23 43.46 4.16"/><ellipse class="cls-3" cx="461.43" cy="252.3" rx="12.22" ry="13.13"/><path class="cls-3" d="M454.09 261.43l14.52-18.34"/><ellipse class="cls-3" cx="426.28" cy="244.51" rx="12.22" ry="13.13"/><path class="cls-3" d="M425.86 231.95l1.31 25.23"/><ellipse class="cls-3" cx="389.6" cy="282.54" rx="12.22" ry="13.13"/><path class="cls-3" d="M386.65 270.76q2.31 9.87 4.61 19.73"/><ellipse class="cls-3" cx="389.6" cy="303.59" rx="12.22" ry="13.13"/><path class="cls-3" d="M378.9 309.37a104.12 104.12 0 0014.21-5.3"/><ellipse class="cls-3" cx="402.85" cy="295.78" rx="12.22" ry="13.13"/><path class="cls-3" d="M408.34 306.83q-5.73-11.06-10.37-22.64m69.69 90.26c0 5.43-4.1 9.82-9.15 9.82s-9.14-4.39-9.14-9.82 4.09-9.82 9.14-9.82 9.15 4.37 9.15 9.82zm-9.13 9.39q.15-9.39.29-18.79"/><ellipse class="cls-3" cx="472.63" cy="314.46" rx="15.11" ry="16.23"/><path class="cls-3" d="M465.82 328q8.54-11.43 17.52-22.51"/><ellipse class="cls-3" cx="486.21" cy="331.44" rx="15.11" ry="16.23"/><path class="cls-3" d="M475 339.87q12-7.87 23.47-16.33m-23.66 16.58l25.36-10.84"/><ellipse class="cls-3" cx="389.15" cy="351.81" rx="12.22" ry="13.13"/><path class="cls-3" d="M384.46 340.54a204.33 204.33 0 009.05 22.37m28.42-3.4c0 5.42-4.1 9.82-9.15 9.82s-9.14-4.4-9.14-9.82 4.09-9.82 9.14-9.82 9.15 4.4 9.15 9.82zm-11.58-8.58l5.49 16.61"/><ellipse class="cls-3" cx="395.75" cy="389.51" rx="12.32" ry="11.47"/><path class="cls-3" d="M384.6 391.49a104.4 104.4 0 0022-3.06"/><ellipse class="cls-3" cx="485.7" cy="389.51" rx="12.22" ry="13.13"/><path class="cls-3" d="M476.66 396.11q9-7.08 17.88-14.41"/><ellipse class="cls-3" cx="380.27" cy="419.73" rx="15.11" ry="16.23"/><path class="cls-3" d="M373.29 406.15a201.29 201.29 0 0014.68 27"/><ellipse class="cls-3" cx="404.31" cy="434.33" rx="9.14" ry="9.82"/><path class="cls-3" d="M403.17 443.66q2.22-9.3 3.6-18.76"/><ellipse class="cls-3" cx="377.01" cy="460.48" rx="11.86" ry="12.74"/><path class="cls-3" d="M365.59 462.63l23.1-.51m14.07-18.2a114.79 114.79 0 004.07 15.37"/><ellipse class="cls-3" cx="483.77" cy="428.9" rx="9.14" ry="9.82" transform="rotate(-87.42 483.764 428.903)"/><path class="cls-3" d="M473.89 428.89a136.65 136.65 0 0019.72.38"/><path class="cls-1" d="M216.06 288.37c0-17.82 7.38-39 11.9-56.22a119.48 119.48 0 002.44-48.68c-2.93-18.59-10.28-36.77-9-55.55"/><path class="cls-1" d="M217.74 270.91a11.86 11.86 0 01-5.77-2 45.69 45.69 0 01-21.76-32.07c5.39-.59 10.78 2.16 14.44 6.17s5.95 9 8.19 14 2.72 9.09 4.9 13.9zM251 241.19a49.68 49.68 0 00-32.82 28.7c3.31.56 7.2-.44 10.26-1.84 10.2-4.68 19.19-16.17 22.56-26.86zm-28 7.03a18.09 18.09 0 01-5.6-5 64.7 64.7 0 01-14.1-37.36c6 2.23 10.17 7.36 13 13.13 5.04 10.38 5.88 17.67 6.7 29.23zm32.6-28.03l-8.1 3.92a59.59 59.59 0 00-9.43 5.28c-6.29 4.58-10.52 11.37-14.6 18 13.43-2.88 26.67-14.6 32.13-27.2zm-24.94-.11l-10.86-13.26a91.4 91.4 0 01-8.36-11.33 46.4 46.4 0 01-5.73-31 37.7 37.7 0 0115.88 17c2.61 5.47 3.85 11.48 5.07 17.42 1.48 7.2 2.52 13.97 4 21.17zm35.81-50.02a37.53 37.53 0 00-22.35 14.61c-4.17 5.79-6.58 12.63-8.94 19.37l-4.41 12.59c8.54-4.58 16.6-8.82 23.29-15.82s11.75-21.09 12.41-30.75zm-10.29-24.82c-7.29 3.74-14.8 7.86-19.38 14.65-4.12 6.1-5.36 13.63-6.51 20.9a94.93 94.93 0 0025.89-35.55zm-15.5-26.72c-5.27 2.7-10.71 5.68-14 10.6-3 4.41-3.88 9.86-4.71 15.12 9.43-4.38 16.76-12.14 18.71-25.72zM227 169.41A32.81 32.81 0 01201.66 140c3.12 1.31 6 3.89 8.27 6.36A119.24 119.24 0 01227 169.41z"/><path class="cls-1" d="M223.37 101.52a32.72 32.72 0 00-6 27.14c1.1 4.76 3.27 9.22 4.35 14a49 49 0 004.55-21.37c-.22-7.37-1.62-12.53-2.9-19.77z"/><path class="cls-2" d="M309.9 169.1a23.2 23.2 0 00-18.46 12.11c7.33.18 16.47-5.21 18.46-12.11zm-2.09 45.9a23.21 23.21 0 00-18.46 12.11c7.34.17 16.48-5.2 18.46-12.11zm8.25-17.22c-9.85.55-19.13 5.14-23.73 11.74 9.43.17 21.17-5.03 23.73-11.74zm-.55-14.44a17.25 17.25 0 00-13.73 1.5 21.84 21.84 0 00-9.17 10.54c10.04-.88 19.14-6.05 22.9-12.04zm-26.03 52.74a17.27 17.27 0 00-7.05-11.87 21.84 21.84 0 00-13.39-4c4.96 8.79 13.43 14.93 20.44 15.87zm1.66-20.46a17.27 17.27 0 00-4.41-13.09 21.85 21.85 0 00-12.25-6.7c3 9.62 10.01 17.41 16.66 19.79zm1.47-19.62a15.11 15.11 0 00-5.68-10.71 19.27 19.27 0 00-11.58-4.07c3.98 7.89 11.16 13.64 17.26 14.78zM291 181.65a14.11 14.11 0 00-5.1-10 17.82 17.82 0 00-10.67-4c3.52 7.41 10.09 12.86 15.77 14z"/><path class="cls-2" d="M291.19 168.47q.63 15.61 1.27 31.22c.58 13.95-5 28.78-2.33 43.38"/><path class="cls-2" d="M277.59 139.09s.11 16.82 3.76 23.69a11.72 11.72 0 0012.74 6.07c12.06-2.82 9.27-22.9 8.62-31.44z"/><path class="cls-2" d="M291.41 150.92c.08-4.59-.84-10.24-3.36-14.07a9.11 9.11 0 00-6.88-4.17 7.19 7.19 0 00-6.83 3.89 9.43 9.43 0 00-.64 4.8c.22 2.68 4.72 17.77 6.07 20.1 2.7.76 5.43 1.47 8.14 2.23m4.23-12.83c-.69-4.54-.54-9.58 1.45-13.71a9.13 9.13 0 016.27-5 7.2 7.2 0 017.29 2.94 9.48 9.48 0 011.27 4.67c.13 2.7-4.35 19.88-5.37 22.37a11.94 11.94 0 00-6.91 2.14"/><path class="cls-2" d="M296.9 138.32a6.27 6.27 0 00-11-6 4.45 4.45 0 00-.73 2.86 6.85 6.85 0 002 3.47 18.82 18.82 0 005.29 1c1.85-.02 3.67.35 4.44-1.33zm-7.98 30.07a74.12 74.12 0 01-3.71-34.91m8.54 34.91a240.63 240.63 0 002.71-36.28"/><path class="cls-2" d="M291.62 170.56a10.49 10.49 0 01-4.66-1.19 17.73 17.73 0 01-3.71-2.8c-1.54-1.42-3.07-3-3.48-5.1a19.33 19.33 0 0111.85 9.09z"/><path class="cls-2" d="M290.64 170.42a10.54 10.54 0 012.62-4 18 18 0 013.84-2.62c1.84-1 3.87-1.93 5.95-1.67-2.86 5.24-6.95 7.87-12.41 8.29z"/><path class="cls-3" d="M291.44 171c-1.54-1.18-4.27-7.11-.83-12.87 3.74 4.65 3.13 7.87.83 12.87z"/></svg>