<?xml version="1.0" encoding="utf-8"?>
<!-- Generator: Adobe Illustrator 24.2.3, SVG Export Plug-In . SVG Version: 6.00 Build 0)  -->
<svg version="1.1" id="Слой_1" xmlns="http://www.w3.org/2000/svg" xmlns:xlink="http://www.w3.org/1999/xlink" x="0px" y="0px"
	 viewBox="0 0 565.43 571.05" style="enable-background:new 0 0 565.43 571.05;" xml:space="preserve">
<style type="text/css">
	.st0{fill:url(#SVGID_1_);}
	.st1{fill:#AED9C4;}
	.st2{fill:none;stroke:#FFFFFF;stroke-miterlimit:10;}
	.st3{fill:#A3CCAC;}
	.st4{fill:#97CEA2;}
	.st5{opacity:0.76;}
	.st6{fill:#C5EACE;}
	.st7{fill:#FFFFFF;}
	.st8{fill:url(#SVGID_2_);}
	.st9{fill:url(#SVGID_3_);}
	.st10{fill:#F7E7BF;}
	.st11{fill:url(#SVGID_4_);}
	.st12{fill:url(#SVGID_5_);}
	.st13{fill:url(#SVGID_6_);}
	.st14{fill:#E5EFC5;}
	.st15{fill:#F0FCD3;}
	.st16{fill:url(#SVGID_7_);}
	.st17{fill:url(#SVGID_8_);}
	.st18{fill:url(#SVGID_9_);}
	.st19{fill:url(#SVGID_10_);}
	.st20{fill:#FFE594;}
	.st21{clip-path:url(#SVGID_12_);fill:url(#SVGID_13_);}
	.st22{fill:#5B2A1E;}
	.st23{fill:#917673;}
	.st24{fill:url(#SVGID_14_);}
	.st25{fill:url(#SVGID_15_);}
	.st26{fill:url(#SVGID_16_);}
	.st27{fill:url(#SVGID_17_);}
	.st28{fill:url(#SVGID_18_);}
	.st29{opacity:0.62;clip-path:url(#SVGID_20_);fill:#FFFFFF;}
	.st30{opacity:0.75;clip-path:url(#SVGID_20_);fill:#FFFFFF;}
	.st31{opacity:0.41;clip-path:url(#SVGID_20_);fill:#FFFFFF;}
	.st32{clip-path:url(#SVGID_20_);fill:none;}
	.st33{clip-path:url(#SVGID_22_);}
	.st34{opacity:0.26;fill:#FFFFFF;}
	.st35{opacity:0.69;fill:#FFFFFF;}
	.st36{fill:none;}
	.st37{opacity:0.16;fill:#FFFFFF;}
	.st38{opacity:0.3;fill:#FFFFFF;}
	.st39{opacity:0.23;fill:#FFFFFF;}
	.st40{opacity:0.24;fill:#FFFFFF;}
	.st41{opacity:0.17;}
	.st42{opacity:0.05;fill:#E3E9E5;}
	.st43{clip-path:url(#SVGID_24_);}
	.st44{opacity:0.76;clip-path:url(#SVGID_24_);fill:#FFFFFF;}
	.st45{clip-path:url(#SVGID_24_);fill:url(#SVGID_25_);}
	.st46{clip-path:url(#SVGID_24_);fill:none;stroke:#FFFFFF;stroke-width:2;stroke-linecap:round;stroke-miterlimit:10;}
	.st47{clip-path:url(#SVGID_24_);fill:url(#SVGID_26_);}
	.st48{clip-path:url(#SVGID_24_);fill:url(#SVGID_27_);}
	.st49{clip-path:url(#SVGID_24_);fill:url(#SVGID_28_);}
	.st50{clip-path:url(#SVGID_24_);fill:url(#SVGID_29_);}
	.st51{clip-path:url(#SVGID_24_);fill:#FFFFFF;}
	.st52{clip-path:url(#SVGID_24_);fill:url(#SVGID_30_);}
	.st53{opacity:0.62;clip-path:url(#SVGID_32_);fill:#FFFFFF;}
	.st54{clip-path:url(#SVGID_32_);fill:#FFFFFF;}
	.st55{opacity:0.41;clip-path:url(#SVGID_32_);fill:#FFFFFF;}
	.st56{clip-path:url(#SVGID_32_);fill:none;}
	.st57{clip-path:url(#SVGID_34_);}
	.st58{fill:url(#SVGID_35_);}
	.st59{opacity:0.74;clip-path:url(#SVGID_37_);fill:url(#SVGID_38_);}
	.st60{fill:#E6E6E6;}
	.st61{fill:none;stroke:#4D4D4D;stroke-width:0.75;stroke-linecap:round;stroke-miterlimit:10;}
	.st62{fill:url(#SVGID_39_);}
	.st63{opacity:0.74;fill:url(#SVGID_40_);}
	.st64{opacity:0.74;fill:url(#SVGID_41_);}
	.st65{opacity:0.74;fill:url(#SVGID_42_);}
	.st66{opacity:0.74;fill:url(#SVGID_43_);}
	.st67{fill:url(#SVGID_44_);}
	.st68{opacity:0.66;}
	.st69{opacity:0.37;fill:#FFFFFF;}
	.st70{fill:url(#SVGID_45_);}
	.st71{fill:url(#SVGID_46_);}
	.st72{fill:url(#SVGID_47_);}
	.st73{opacity:0.44;clip-path:url(#SVGID_49_);fill:#FFFFFF;}
	.st74{opacity:0.43;clip-path:url(#SVGID_51_);fill:#FFFFFF;}
	.st75{clip-path:url(#SVGID_51_);fill:none;stroke:#FFFFFF;stroke-miterlimit:10;}
	.st76{opacity:0.76;clip-path:url(#SVGID_51_);fill:#FFFFFF;}
	.st77{clip-path:url(#SVGID_51_);fill:#FFFFFF;}
	.st78{opacity:0.08;clip-path:url(#SVGID_51_);fill:#FFFFFF;}
	.st79{opacity:0.27;clip-path:url(#SVGID_51_);fill:#FFFFFF;}
	.st80{opacity:0.37;clip-path:url(#SVGID_51_);fill:#FFFFFF;}
	.st81{clip-path:url(#SVGID_51_);fill:none;}
	.st82{fill:url(#SVGID_52_);}
	.st83{opacity:0.62;clip-path:url(#SVGID_54_);fill:#FFFFFF;}
	.st84{clip-path:url(#SVGID_54_);fill:#FFFFFF;}
	.st85{opacity:0.41;clip-path:url(#SVGID_54_);fill:#FFFFFF;}
	.st86{clip-path:url(#SVGID_54_);fill:none;}
	.st87{clip-path:url(#SVGID_56_);}
	.st88{opacity:0.55;fill:url(#SVGID_57_);}
	.st89{fill:url(#SVGID_58_);}
	.st90{fill:url(#SVGID_59_);}
	.st91{opacity:0.28;}
	.st92{opacity:0.56;clip-path:url(#SVGID_61_);fill:#FFFFFF;}
	.st93{opacity:0.43;clip-path:url(#SVGID_63_);fill:#FFFFFF;}
	.st94{clip-path:url(#SVGID_63_);fill:none;stroke:#FFFFFF;stroke-miterlimit:10;}
	.st95{opacity:0.76;clip-path:url(#SVGID_63_);fill:#FFFFFF;}
	.st96{clip-path:url(#SVGID_63_);fill:#FFFFFF;}
	.st97{opacity:0.08;clip-path:url(#SVGID_63_);fill:#FFFFFF;}
	.st98{opacity:0.27;clip-path:url(#SVGID_63_);fill:#FFFFFF;}
	.st99{opacity:0.37;clip-path:url(#SVGID_63_);fill:#FFFFFF;}
	.st100{clip-path:url(#SVGID_63_);fill:none;}
	.st101{fill:url(#SVGID_64_);}
	.st102{opacity:0.62;clip-path:url(#SVGID_66_);fill:#FFFFFF;}
	.st103{clip-path:url(#SVGID_66_);fill:#FFFFFF;}
	.st104{opacity:0.41;clip-path:url(#SVGID_66_);fill:#FFFFFF;}
	.st105{clip-path:url(#SVGID_66_);fill:none;}
	.st106{clip-path:url(#SVGID_68_);}
	.st107{opacity:0.55;fill:url(#SVGID_69_);}
	.st108{fill:url(#SVGID_70_);}
	.st109{opacity:0.27;}
	.st110{opacity:0.56;clip-path:url(#SVGID_72_);fill:#FFFFFF;}
	.st111{opacity:0.52;clip-path:url(#SVGID_74_);fill:#FFFFFF;}
	.st112{clip-path:url(#SVGID_74_);fill:none;stroke:#FFFFFF;stroke-miterlimit:10;}
	.st113{opacity:0.76;clip-path:url(#SVGID_74_);fill:#FFFFFF;}
	.st114{clip-path:url(#SVGID_74_);fill:#FFFFFF;}
	.st115{opacity:0.08;clip-path:url(#SVGID_74_);fill:#FFFFFF;}
	.st116{opacity:0.27;clip-path:url(#SVGID_74_);fill:#FFFFFF;}
	.st117{opacity:0.37;clip-path:url(#SVGID_74_);fill:#FFFFFF;}
	.st118{clip-path:url(#SVGID_74_);fill:none;}
	.st119{clip-path:url(#SVGID_76_);fill:none;}
	.st120{opacity:0.46;}
	.st121{opacity:0.86;fill:#FFFFFF;}
	.st122{opacity:0.73;fill:#FFFFFF;}
	.st123{opacity:0.54;clip-path:url(#SVGID_78_);fill:#FFFFFF;}
	.st124{opacity:0.62;fill:#FFFFFF;}
	.st125{opacity:0.75;fill:#FFFFFF;}
	.st126{opacity:0.41;fill:#FFFFFF;}
	.st127{opacity:0.44;fill:#FFFFFF;}
	.st128{opacity:0.43;fill:#FFFFFF;}
	.st129{opacity:0.76;fill:#FFFFFF;}
	.st130{opacity:0.08;fill:#FFFFFF;}
	.st131{opacity:0.27;fill:#FFFFFF;}
	.st132{opacity:0.54;fill:#FFFFFF;}
</style>
<path class="st132" d="M287.15,461.88c-23.4,0.01-46.8,0.03-70.2,0c-12.91-0.01-17.29-3.04-21.76-15.35
	c-11.78-32.46-26.47-63.6-43.32-93.67c-42.01-74.95-11.09-169.96,72.2-206.32c82.77-36.14,179.83,3.98,209.52,86.64
	c14.69,40.89,10.97,80.91-9.44,119.01c-16.79,31.34-32.64,63.03-44.69,96.53c-3.45,9.61-8.93,13.09-20.2,13.12
	C335.23,461.93,311.19,461.88,287.15,461.88z"/>
<path class="st132" d="M287.82,472.38c21.9,0,43.81-0.2,65.71,0.15c4.92,0.08,10.27,1.18,14.61,3.4c8.39,4.29,8.26,12.82-0.18,17.15
	c-4.01,2.05-8.89,3.33-13.39,3.35c-44.66,0.24-89.32,0.31-133.97-0.07c-5.18-0.04-10.89-2.19-15.37-4.95
	c-5.87-3.63-5.82-10.66,0.17-14.12c4.73-2.73,10.64-4.57,16.08-4.69C243.58,472.08,265.71,472.38,287.82,472.38z"/>
<path class="st132" d="M288.34,506.61c18.71,0,37.43-0.21,56.13,0.15c4.48,0.09,9.43,1.18,13.28,3.37
	c6.95,3.96,6.89,11.88-0.04,15.88c-3.69,2.13-8.37,3.52-12.61,3.55c-38.27,0.26-76.55,0.28-114.82-0.02
	c-4.42-0.03-9.31-1.6-13.12-3.9c-6.29-3.79-6.34-11.33,0-15.1c3.96-2.36,9.12-3.66,13.77-3.76
	C250.06,506.37,269.21,506.61,288.34,506.61z"/>
<path class="st132" d="M233.23,542.88c36.93,0,72.13,0,108.95,0c-13.98,17.14-30.97,25.05-51.44,25.77
	C268.03,569.45,248.88,561.91,233.23,542.88z"/>
<path class="st132" d="M43.4,296.15c-11.26,0-22.52,0.06-33.78-0.02c-6.29-0.05-9.29-2.7-9.36-7.92c-0.07-5.2,2.99-8.18,9.12-8.2
	c22.74-0.09,45.47-0.09,68.21,0.01c5.92,0.02,9.29,3.28,9.16,8.25c-0.12,4.93-3.49,7.82-9.56,7.86
	C65.93,296.2,54.67,296.15,43.4,296.15z"/>
<path class="st132" d="M44.3,139.18c3.35,1.5,5.34,2.19,7.14,3.22c19.15,11.01,38.29,22.05,57.4,33.16
	c5.92,3.44,7.37,7.22,4.86,11.82c-2.55,4.65-6.83,5.55-12.58,2.25c-19.53-11.21-38.98-22.57-58.51-33.78
	c-3.73-2.14-6.37-5.13-4.69-9.24C39.11,143.72,42.14,141.59,44.3,139.18z"/>
<path class="st132" d="M44.19,436.88c-2.07-2.35-5.69-4.66-6.06-7.39c-0.36-2.73,1.75-7.16,4.14-8.67
	c11.85-7.48,24.15-14.25,36.29-21.27c7.73-4.47,15.41-9.01,23.21-13.37c5.29-2.95,9.57-1.96,11.91,2.66
	c2.48,4.9,0.87,8.45-3.78,11.12C90,411.4,70.16,422.92,50.27,434.37C48.83,435.2,47.18,435.66,44.19,436.88z"/>
<path class="st132" d="M181.47,115.11c-1.14-0.92-4.03-2.24-5.35-4.48c-11.87-20.14-23.47-40.43-35.13-60.69
	c-2.65-4.6-1.21-8.39,3.03-10.83c3.97-2.29,8.09-1.74,10.55,2.46c12.02,20.54,23.99,41.12,35.7,61.83
	C193.41,108.95,189.46,114.95,181.47,115.11z"/>
<path class="st132" d="M295.63,43.96c0,11.25,0.06,22.5-0.02,33.75c-0.04,6.26-2.73,9.26-7.92,9.25c-5.17-0.01-7.9-3.04-7.91-9.28
	c-0.06-22.5-0.06-45,0-67.51c0.02-6.53,3.01-10.01,8.27-9.6c5.85,0.45,7.73,4.14,7.65,9.64C295.52,21.45,295.64,32.71,295.63,43.96z
	"/>
<path class="st132" d="M521.26,292.26c11.26,0,22.52,0.06,33.78-0.02c6.29-0.05,9.29-2.7,9.36-7.92c0.07-5.2-2.99-8.18-9.11-8.2
	c-22.74-0.09-45.47-0.09-68.21,0.01c-5.92,0.02-9.29,3.28-9.16,8.25c0.12,4.93,3.49,7.82,9.56,7.86
	C498.74,292.31,510,292.26,521.26,292.26z"/>
<path class="st132" d="M520.36,135.29c-3.35,1.5-5.34,2.19-7.14,3.22c-19.15,11.01-38.29,22.05-57.4,33.16
	c-5.92,3.44-7.37,7.22-4.86,11.82c2.55,4.65,6.83,5.55,12.58,2.25c19.53-11.21,38.98-22.57,58.51-33.78
	c3.73-2.14,6.37-5.13,4.69-9.24C525.56,139.83,522.52,137.71,520.36,135.29z"/>
<path class="st132" d="M520.48,432.99c2.07-2.35,5.69-4.66,6.06-7.39c0.36-2.73-1.75-7.16-4.14-8.67
	c-11.85-7.48-24.15-14.25-36.29-21.27c-7.73-4.47-15.41-9.01-23.21-13.37c-5.29-2.95-9.57-1.96-11.91,2.66
	c-2.48,4.9-0.87,8.45,3.78,11.12c19.9,11.43,39.75,22.96,59.64,34.41C515.84,431.31,517.49,431.77,520.48,432.99z"/>
<path class="st132" d="M383.2,111.22c1.14-0.92,4.03-2.24,5.35-4.48c11.87-20.14,23.47-40.43,35.13-60.69
	c2.65-4.6,1.21-8.39-3.03-10.83c-3.97-2.29-8.09-1.74-10.55,2.46c-12.02,20.54-23.99,41.12-35.7,61.83
	C371.26,105.06,375.2,111.06,383.2,111.22z"/>
</svg>
