<svg id="Слой_1" data-name="Слой 1" xmlns="http://www.w3.org/2000/svg" viewBox="0 0 515 468"><defs><style>.cls-1{fill:#005eb1}.cls-8{fill:none;stroke-miterlimit:10}.cls-3{fill:#259add}.cls-4{fill:#83d5fb}.cls-6{fill:#0089d9}.cls-8{stroke:#83d5fb}</style></defs><ellipse class="cls-1" cx="257.8" cy="438.39" rx="197.46" ry="31.61"/><path d="M194 309.45c-19.59-17.85-33.34-41.4-42.68-66.21s-14.49-51-18.92-77.09q-7.77-46-12.69-92.44" stroke-miterlimit="10" stroke="#259add" fill="none"/><path class="cls-3" d="M119.76 74.72a105.36 105.36 0 01-15.18-56.45c.07-3.73.46-7.72 2.06-11a5.6 5.6 0 017.92-2.43 5.51 5.51 0 011.84 2c1.46 2.6 1.93 5.62 2.33 8.57a256.52 256.52 0 011.03 59.31zm1.04 9.61A89.85 89.85 0 01145.39 41c2.29-2.22 4.91-4.4 7.85-5.43a4.76 4.76 0 016.25 3.27 4.58 4.58 0 01-.06 2.29 20.13 20.13 0 01-3.73 6.6 218.74 218.74 0 01-34.9 36.6zm.01-.71A89.79 89.79 0 0177.47 59 22.68 22.68 0 0172 51.17a4.76 4.76 0 013.27-6.25 4.59 4.59 0 012.33.08 20.2 20.2 0 016.6 3.72 219.2 219.2 0 0136.61 34.9zm34.62 170.29c3.35-16.87 12.51-33.23 26.08-46.57a29.61 29.61 0 019-6.48c3.08-1.27 6.83-.2 7.79 2.42a3.87 3.87 0 01.11 2.3c-.61 2.54-2.27 4.86-3.94 7.09a255.3 255.3 0 01-39.04 41.24z"/><path class="cls-3" d="M155.79 253.74c-20-1.68-39.06-8.25-54.18-18.71-2.86-2-5.7-4.31-7.18-7.1-1.33-2.5.21-5.71 3.43-6.68a6.8 6.8 0 012.77-.25 25.54 25.54 0 018.25 2.83 240.27 240.27 0 0146.91 29.91zm18.96 33.52c.87-17.17 7.57-34.68 19.07-49.85a29.27 29.27 0 018-7.71c2.87-1.71 6.73-1.2 8.06 1.26a3.94 3.94 0 01.44 2.27c-.24 2.6-1.54 5.13-2.88 7.58a255.51 255.51 0 01-32.69 46.45zm.39.4c-20.06 1.23-39.85-2.52-56.32-10.68-3.11-1.54-6.26-3.43-8.13-6-1.68-2.28-.62-5.68 2.42-7.11a6.75 6.75 0 012.71-.64 25.31 25.31 0 018.57 1.6 240.35 240.35 0 0150.75 22.83zm-50.52-172.81a89.79 89.79 0 0132.82-37.5 22.67 22.67 0 018.77-3.75 4.78 4.78 0 015.47 4.46 4.52 4.52 0 01-.53 2.24 20.4 20.4 0 01-5 5.72 219.38 219.38 0 01-41.53 28.83zm.16-.58a89.79 89.79 0 01-47.06-16.38A22.6 22.6 0 0171 91.16a4.76 4.76 0 012.09-6.74 4.54 4.54 0 012.27-.35 20.21 20.21 0 017.16 2.47 218.63 218.63 0 0142.26 27.73zm4.47 33.55a103.07 103.07 0 0137.62-43c3.08-2 6.53-3.81 10.07-4.29a5.46 5.46 0 016.26 5.11 5.31 5.31 0 01-.6 2.57 23.29 23.29 0 01-5.7 6.55 250.58 250.58 0 01-47.65 33.06zm.19-.66a103 103 0 01-53.95-18.77c-3-2.12-6-4.63-7.75-7.73a5.46 5.46 0 012.39-7.72 5.31 5.31 0 012.61-.4 23.32 23.32 0 018.26 2.83 250.25 250.25 0 0148.44 31.79zm5.3 32.46A106.71 106.71 0 01175 136.43c3.28-2 7-3.85 10.73-4.35 3.37-.45 6.59 1.9 6.64 5.09a5.09 5.09 0 01-.65 2.57c-1.42 2.6-3.77 4.64-6.1 6.58a271.72 271.72 0 01-50.88 33.3zm.2-.62a113.17 113.17 0 01-57.31-18.52c-3.15-2.1-6.34-4.59-8.21-7.68A5.37 5.37 0 0172 145a6.08 6.08 0 012.77-.41 25.72 25.72 0 018.73 2.79A266.18 266.18 0 01134.94 179zm7.36 37.38a106.71 106.71 0 0140.23-43.19c3.28-2 7-3.84 10.73-4.34 3.37-.45 6.59 1.89 6.64 5.08a5.06 5.06 0 01-.65 2.57c-1.42 2.61-3.77 4.64-6.1 6.58a271.06 271.06 0 01-50.85 33.3zm.2-.66a113.25 113.25 0 01-57.31-18.51c-3.15-2.1-6.34-4.6-8.21-7.69a5.36 5.36 0 012.59-7.74 6.08 6.08 0 012.77-.42 25.61 25.61 0 018.72 2.8 265.42 265.42 0 0151.44 31.56z"/><path class="cls-1" d="M200.41 244.78l124.5-78.54 37.93 28.33c-19.55 6.6-40.73 14-60.28 20.56-8.13 2.74-16.27 5.49-24.24 8.69-7.26 2.91-14.36 6.2-21.68 9-18.07 6.77-36.91 11.96-56.23 11.96zM215 241q60.45-33.2 120.3-67.48m-119.23 66.92s77.4-33.35 131.64-56.9"/><path class="cls-4" d="M189.14 245.3q18.8-27.59 39.14-54v-47.67l-.4-.4a1136.48 1136.48 0 00-54.14 106.66"/><path class="cls-3" d="M228 142.9c-5.72-3.19-19.87-6.5-19.87-6.5-15.3 32.06-30.26 65.23-44.43 97.81 2.76.93 12.39 5.16 14.69 5.59.61-.95 33.73-65.31 49.61-96.9zm-39 98.57c24.91-33.62 53.77-68.28 80-100.91 0 18.35.15 42.61.11 61-22.61 13.87-65.76 42-65.76 42"/><path class="cls-3" d="M268.92 140.56l-4.65-1.02-81.17 101.02 4.84 2.43 80.98-102.43zm-82.16 99.36s78.42-98.52 79.06-99.31m-62.19 94.89L264 169.73m-30.11 44.41l24.43-25.36m-34.98 51.33l141.17-50.41a2 2 0 012.68 1.94v218.54a4.09 4.09 0 01-2.64 3.82L224 466.6l-5-3.18"/><path d="M242.24 261.93l109.18-37.12v33.1l-109.18 38.04v-34.02zm0 42.06l109.18-37.11v6.8l-109.18 38.04v-7.73z" fill="#00336c" opacity=".4"/><path class="cls-4" d="M248.8 401.27s.72-154.64-1.05-166.27c-1.09-7.11-6.16-12.1-10.34-13.49a.68.68 0 01-.12-1.22l7.28-4.44a.67.67 0 01.63 0c13.53 5.66 12.06 25 12.06 25L257 398.37l-4.41-4.23z"/><path class="cls-3" d="M159.44 230.14l44.37-95.57a1.42 1.42 0 011.71-.76l1.93.6a1.43 1.43 0 01.88 2l-44.6 97.85z"/><path class="cls-6" d="M224 466.72V239.86a97.11 97.11 0 01-33.68 1.61c-11.54-1.48-23-5.14-30.92-11.33v215.44c0 14.44 18.16 20 28.06 20.93 12.14 1.13 25.54 1.91 36.54.21z"/><ellipse class="cls-1" cx="191.37" cy="356.1" rx="18.09" ry="58.45"/><path d="M160.7 250.8a125.81 125.81 0 0067.18 9m-68.14 3.95a125.8 125.8 0 0067.18 9M160.7 427.08a125.81 125.81 0 0067.18 9M159.74 440a125.8 125.8 0 0067.18 9" stroke="#005eb1" stroke-linecap="round" stroke-linejoin="round" stroke-width=".84" fill="none"/><path class="cls-8" d="M367.76 391.76c11.5-23.7 15.15-48.2 17.45-76.58 3-36.79 2.82-77.54 1.41-118.43"/><path class="cls-4" d="M387.55 236.26a149.55 149.55 0 0023.59-34.56m-24.39 91.41q16.92-17.21 32.7-35.49m-13.8 15.8c9.54-1.85 20.33-3.89 29.87-5.74m-79.42-44.83a50.68 50.68 0 0031.71 29.72m-32.17 27.34c7.42 11 18.46 21 29.83 27.78m-4.34 42.21c13.27-11.42 34.69-28.4 48-39.83m-17.75-14.27l-.65 29.07m-40.32-17.4l11.12-2.57m-3.04-12.62s3 12.62 2.93 12.87M352 334.34a172.42 172.42 0 0024.31 34.07m-19.39-4.06l14.54-1.23M397.37 337q17 .94 33.83 3.24"/><ellipse class="cls-4" cx="413.55" cy="201.32" rx="9.52" ry="10.22"/><path class="cls-4" d="M407.84 208.43l11.3-14.28"/><ellipse class="cls-4" cx="386.19" cy="195.26" rx="9.52" ry="10.22"/><path class="cls-4" d="M385.87 185.48l1.01 19.64"/><ellipse class="cls-4" cx="357.64" cy="224.87" rx="9.52" ry="10.22"/><path class="cls-4" d="M355.34 215.7q1.8 7.68 3.59 15.36"/><ellipse class="cls-4" cx="357.64" cy="241.26" rx="9.52" ry="10.22"/><path class="cls-4" d="M349.31 245.75a80.74 80.74 0 0011.06-4.12"/><ellipse class="cls-4" cx="367.95" cy="235.18" rx="9.52" ry="10.22"/><path class="cls-4" d="M372.23 243.78q-4.46-8.62-8.08-17.63m54.25 70.27a7.13 7.13 0 11-7.12-7.65 7.39 7.39 0 017.12 7.65zm-7.1 7.31q.1-7.32.22-14.63"/><ellipse class="cls-4" cx="422.28" cy="249.71" rx="11.76" ry="12.64"/><path class="cls-4" d="M417 260.23q6.64-8.9 13.64-17.53"/><ellipse class="cls-4" cx="432.85" cy="262.93" rx="11.76" ry="12.64"/><path class="cls-4" d="M424.13 269.49q9.28-6.11 18.26-12.71M424 269.69l19.75-8.44"/><ellipse class="cls-4" cx="357.29" cy="278.79" rx="9.52" ry="10.22"/><path class="cls-4" d="M353.63 270a158.94 158.94 0 007.06 17.41m22.11-2.62a7.13 7.13 0 11-7.11-7.65 7.39 7.39 0 017.11 7.65zm-9.01-6.69q2.15 6.47 4.28 12.94"/><ellipse class="cls-4" cx="362.43" cy="308.14" rx="9.59" ry="8.93"/><path class="cls-4" d="M353.75 309.68a81.36 81.36 0 0017.15-2.38"/><ellipse class="cls-4" cx="432.45" cy="308.14" rx="9.52" ry="10.22"/><path class="cls-4" d="M425.41 313.27q7.05-5.5 13.92-11.21"/><ellipse class="cls-4" cx="350.37" cy="331.66" rx="11.76" ry="12.64"/><path class="cls-4" d="M344.94 321.1a156.56 156.56 0 0011.43 21"/><ellipse class="cls-4" cx="369.09" cy="343.03" rx="7.12" ry="7.64"/><path class="cls-4" d="M368.2 350.3c1.15-4.83 2.09-9.71 2.8-14.61"/><ellipse class="cls-4" cx="347.84" cy="363.39" rx="9.23" ry="9.91"/><path class="cls-4" d="M339 365.06l18-.39m10.88-14.18a89.76 89.76 0 003.17 12"/><ellipse class="cls-4" cx="430.95" cy="338.8" rx="7.12" ry="7.64" transform="rotate(-87.1 432.844 338.122)"/><path class="cls-4" d="M423.26 338.79a106.17 106.17 0 0015.34.3"/><path class="cls-1" d="M222.54 229.41c0-13.88 5.74-30.35 9.26-43.77a92.82 92.82 0 001.9-37.9c-2.28-14.47-8-28.63-7-43.24"/><path class="cls-1" d="M223.85 215.81a9.21 9.21 0 01-4.5-1.55 35.55 35.55 0 01-16.93-25c4.19-.46 8.39 1.69 11.24 4.81s4.63 7 6.37 10.87 2.12 7.12 3.82 10.87zm25.9-23.14A38.68 38.68 0 00224.2 215a14.63 14.63 0 008-1.43c7.92-3.63 14.92-12.57 17.55-20.9zm-21.82 5.48a14.07 14.07 0 01-4.35-3.93 50.3 50.3 0 01-11-29.08c4.68 1.73 7.92 5.73 10.1 10.22 3.97 8.11 4.62 13.79 5.25 22.79zm25.4-21.83l-6.33 3.06a46.26 46.26 0 00-7.34 4.11c-4.89 3.56-8.19 8.85-11.36 14 10.47-2.23 20.77-11.35 25.03-21.17zm-19.42-.07l-8.46-10.33a71.54 71.54 0 01-6.5-8.82 36 36 0 01-4.46-24.1 29.33 29.33 0 0112.35 13.24c2 4.26 3 8.94 3.95 13.56 1.15 5.57 1.97 10.84 3.12 16.45zm27.87-38.95a29.28 29.28 0 00-17.4 11.38c-3.24 4.5-5.12 9.83-7 15.07l-3.42 9.8c6.64-3.56 12.92-6.86 18.12-12.31s9.19-16.42 9.7-23.94zm-8.01-19.3c-5.67 2.91-11.52 6.12-15.09 11.4-3.2 4.75-4.17 10.62-5.06 16.28A74 74 0 00253.77 118zm-12.06-20.82c-4.11 2.11-8.34 4.43-10.92 8.25-2.32 3.44-3 7.68-3.66 11.77 7.35-3.41 13.06-9.45 14.58-20.02zM231 136.8a25.6 25.6 0 01-19.71-22.92 20.35 20.35 0 016.44 5A92.64 92.64 0 01231 136.8z"/><path class="cls-1" d="M228.23 84a25.48 25.48 0 00-4.7 21.13c.86 3.7 2.55 7.17 3.39 10.88a38.29 38.29 0 003.54-16.64c-.14-5.77-1.23-9.78-2.23-15.37z"/><path class="cls-6" d="M295.59 136.56a18.06 18.06 0 00-14.37 9.44c5.71.12 12.78-4 14.37-9.44zM294 172.28a18 18 0 00-14.37 9.42c5.68.14 12.79-4.03 14.37-9.42zm6.39-13.4c-7.67.43-14.9 4-18.47 9.14 7.34.14 16.48-3.91 18.47-9.14zm-.39-11.24a13.4 13.4 0 00-10.69 1.17 17.05 17.05 0 00-7.14 8.2c7.83-.68 14.83-4.71 17.83-9.37zm-20.3 41.06a13.45 13.45 0 00-5.49-9.24 17 17 0 00-10.43-3.1c3.86 6.83 10.46 11.64 15.92 12.34zm1.3-15.93a13.44 13.44 0 00-3.43-10.19 17 17 0 00-9.54-5.21c2.33 7.48 7.78 13.54 12.97 15.4zm1.14-15.29a11.82 11.82 0 00-4.43-8.34 15 15 0 00-9-3.16c3.08 6.16 8.67 10.63 13.43 11.5zm-1.29-11.15a11 11 0 00-4-7.82 13.88 13.88 0 00-8.31-3.08c2.8 5.76 7.92 10.01 12.31 10.9z"/><path class="cls-6" d="M281 136.06l1 24.31c.44 10.86-3.9 22.4-1.82 33.77"/><path class="cls-3" d="M270.44 113.19s.09 13.1 2.93 18.45a9.12 9.12 0 009.91 4.72c9.4-2.19 7.22-17.83 6.72-24.48z"/><path class="cls-3" d="M281.2 122.4c.06-3.57-.65-8-2.62-11a7.06 7.06 0 00-5.35-3.24 5.58 5.58 0 00-5.32 3 7.31 7.31 0 00-.5 3.74c.18 2.09 3.68 13.83 4.73 15.65 2.1.59 4.23 1.14 6.33 1.73m3.3-9.92a18.57 18.57 0 011.13-10.67 7.09 7.09 0 014.88-3.93 5.6 5.6 0 015.67 2.29 7.41 7.41 0 011 3.64c.11 2.09-3.38 15.47-4.18 17.41a9.29 9.29 0 00-5.38 1.67"/><path class="cls-3" d="M285.47 112.6a4.88 4.88 0 00-8.55-4.66 3.41 3.41 0 00-.57 2.23 5.37 5.37 0 001.59 2.7 15.19 15.19 0 004.11.74c1.4 0 2.83.25 3.42-1.01z"/><path class="cls-8" d="M279.26 136a57.76 57.76 0 01-2.89-27.18M283 136a186.56 186.56 0 002.11-28.24"/><path class="cls-4" d="M281.36 137.69a8 8 0 01-3.62-.93 13.06 13.06 0 01-2.89-2.18 7.84 7.84 0 01-2.71-4 15 15 0 019.22 7.11z"/><path class="cls-4" d="M280.6 137.58a8.21 8.21 0 012-3.14 13.87 13.87 0 013-2 7.86 7.86 0 014.63-1.3 11.43 11.43 0 01-9.63 6.44z"/><path class="cls-4" d="M281.22 138c-1.2-.93-3.32-5.55-.64-10 2.91 3.63 2.42 6.14.64 10z"/></svg>