<svg version="1.1" id="Слой_1" xmlns="http://www.w3.org/2000/svg" x="0" y="0" viewBox="0 0 585 805" xml:space="preserve"><style>.st236{fill:#f4769d}.st237{fill:#fcfcfa}.st238{fill:#f9c5dd}</style><path class="st236" d="M265.18 163.11c2.12-8.18 4.41-16.31 6.31-24.53 4.5-19.46 8.78-38.98 13.23-58.45 5.51-24.08 9.34-48.46 12.79-72.9.99-7.02 1.59-6.96 8.09-4.46 8.74 3.36 17.95 5.28 26.91 7.95 27.12 8.07 54.31 15.91 81.38 24.19 11.97 3.66 23.91 7.68 36.33 9.82 1.99.34 5.1 1.11 4.74 3.46-.5 3.29-.28 7.43-4.36 9.22-11.83-1.83-21.77 4.47-31.25 9.26-12.84 6.5-23.51 16.84-33.21 27.68-2.98 3.33-5.53 7.17-9.13 9.81-7.85 5.76-14.31 12.69-19.56 20.85-6.43 10-13.43 19.68-19.38 29.96-11.04 19.08-22.94 37.6-31.92 57.95-9.76 22.11-22.2 43.02-32.78 64.79-6 12.36-4.13 24.38 8.71 33.05 5.53 3.74 11.7 6.01 17.61 8.61 8.91 3.92 18.7 6.01 26.83-2.18 5.08-5.12 6.53-12.2 8.23-18.94 2.01-7.97 3.02-16.24 5.62-24 5.62-16.81 11.15-33.63 16.1-50.66 5.19-17.88 12.02-35.17 21.2-51.49 3.3-5.86 5.97-12.06 9.44-17.87 8.8-14.74 17.11-29.78 25.88-44.55 5.97-10.06 12.13-20.03 18.7-29.7 4.83-7.12 9.77-14.35 17.55-18.81-5.52 11.28-11.27 22.45-16.51 33.86-7.29 15.9-14.45 31.88-21.22 48.01-13.54 32.26-26.87 64.6-40.06 97.01-3.1 7.62-7.25 14.97-7.75 23.47-.43.12-.85.25-1.27.38-2.29.71-4.23 1.72-5.9 2.96-5.45 4.08-8.3 12.95-8.3 12.95-3.69 12.3-13.17 55.28-15.78 61.58-.31.74-1.05 2.45-2.46 2.77-.84.19-1.87-.31-3.47-1.54-5.46-4.19-11.62-7.47-18.92-7.35-8.58-3.25-17.04-6.88-25.77-9.66-15.23-4.85-30.44-10.29-46.91-8.2-1.49-2.07-3.21-4.02-3.19-6.8.53-4.87.93-9.75 1.63-14.59.43-2.95 1.32-4.74 5.46-4.14 9.69 1.38 18.94-7.02 17.34-16.19-1.65-9.52-6.13-18.16-12.59-25.58-.04-.81-.09-1.62-.13-2.43 4.37-5.81 4.68-12.99 6.3-19.64 2.68-11.02 6.45-21.84 6.88-33.33 1.56-.04 2.12-1.02 2.47-2.4 2.44-9.66 5.15-19.25 6.09-29.2zm-78.29 246.48c11.43 7.42 11.34 19.71 12.82 31.14 1.46 11.25 6.08 20.6 14.56 28.07 6.48 5.7 9.39 13.42 9.75 21.5.4 9.03 3.5 16.89 7.52 24.52 3.05 5.79 14 7.37 22.74 4.48 12.63-4.17 24.64-10.29 38.01-12.18 1.05-.15 3.31-1.08 3.65-.49.34.59-1.47 2.26-2.64 3.29-7.81 6.85-15.12 10.55-15.12 10.55-6.39 4.41-13.08 7.9-20.56 9.7-9.23 2.22-12.62 5.58-12.75 14.7-.33 23.48.48 46.93 2.42 70.35.3 3.62 0 7.28.11 10.92.69 23.62 1.69 47.16 6.05 70.52 0 0 1.5 14.22 3.15 32.38 1.64 18.12 3.63 44 4.91 75.96h-32.46c.41-13.77.57-24.98.64-32.85.07-8.51 0-8.51.11-23.82.07-10.24.14-15.41.1-23.75-.03-6.65-.12-12.08-.19-15.58 1.24-56.53 2.06-76.95 2.6-84.65.07-1.01 1.1-15.63 1.1-31.06-.53-14.3.19-15.93-.16-24.67-1.02-25.59-7.22-47.49-14.69-63.51-8.04-17.24-17.5-33.89-22.34-52.43-3.68-14.25-7.14-28.54-9.33-43.09z"/><path class="st236" d="M339.91 324.78c.02-.44.03-.88.05-1.32.35-.36.7-.73 1.05-1.09.47-14.52 2.61-28.72 7.23-42.57 2.51-7.51 6.28-13.45 14.19-15.92 3.49-.68 6.76.18 9.98 1.44l-.45 2.62c-3.05.53-5.17 2.47-5.65 5.3-1.43 8.52-.91 17.04.85 25.49l-.21.23c-4.07-1.27-4.49-5.37-4.77-8.24-.42-4.4-4.13-9.39 1.57-13.67 1.7-1.28 1.51-5.45-1.96-6.9-4.17-1.74-6.43 1.44-7.29 4.27-2.5 8.22-6.09 16.08-5.93 25.18.08 4.75-2.51 9.6-2.32 14.84.38 10.22 4.84 16.31 16.2 19.23-5.43 2.02-9.76 1.74-13.77.86-3.27-.72-4.17-.32-5.25 3.02-3.74 11.48-2.69 14.01 9.01 18.16 1.25.44 2.67.98 2.18 2.56-.48 1.53-2.2 1.36-3.3 1.03-3.71-1.1-7.32-2.91-9.85-5.65-3.88-4.21-6.83-2.46-8.07 1.37-2.66 8.23-10.63 15.36-4.92 25.71-6.5-2.57-11.12-.14-10.01 6.39 1.92 11.28-7.11 11-12.71 14.44-1.27.78-3.36.27-5.07.26-13.31-.05-24.22 9.06-24.11 23.45.09 11.87 2.57 22.35 8.76 32.36-7.39-3.11-8.74-10.15-10.96-16.4-2.71-7.65-.62-15.74-1.41-23.57-.29-2.82 2.57-7.49-3.29-8.01-3.75-.33-7.82 4.48-8.18 9.09-.91 11.67 1 22.98 4.37 34.1.79 2.62 1.02 5.45 2.92 7.71.33.39-.22 1.52-.37 2.31-.77-.19-1.69-.18-2.27-.62-1.77-1.35-2.56-3.36-3.23-5.42-3.72-11.47-4.02-23.44-5.29-35.27-.32-3.02 1.63-7.16-2.07-8.72-3.98-1.68-8.38-1.24-12.21 1.5-1.29.92-2.35 3.41-4.11 2.13-1.91-1.38.09-2.98.93-4.37.9-1.49.77-2.65-.73-3.85-9.76-7.83-20.92-11.67-33.25-9.75-5.06.79-10.31-.36-15.18 1.77-.77.34-1.8.18-2.07-.84-.36-1.31.61-2.06 1.64-2.34 3.91-1.04 7.82-2.42 11.8-2.77 6.2-.55 5.04-3.02 2.06-6.18-3.62-3.84-6-9.73-13.07-8.19-.97.21-2.32.03-2.45-1.38-.11-1.23.94-1.75 1.95-2.19 4.85-2.1 5.15-4.44 1.06-8.87-2.99-3.24-6.87-1.53-10.26-1.37-3.48.16-2 3.54-2.45 5.64-1.84 8.62 3.4 16.51 2.56 25.02-4.08-5.91-4.38-12.92-4.77-19.58-.78-13.19-.98-26.34-3.76-39.41-1.38-6.5-.76-13.67 6.01-18.12-.42 1.85-.87 3.69-1.26 5.55-1.67 7.88-1.38 15.05 4.55 21.66 10.17 11.31 20.74 22.37 26.94 36.72 1.66 3.84 5.14 6.72 10.19 5.08.3-.06.53.04.69.3l8.91-2.61v-.02c1.02-.18 2.88-.2 2.94-.55.99-5.51 4.58-3.16 6.61-1.68 3.45 2.52 7.11 2.28 10.88 2.36 2.22.64 4.48 1.18 6.66 1.95 15.4 5.43 30.87 10.42 47.53 9.63 7.75-1.32 10.44-7.54 12.54-13.77 2.62-7.79 4.48-15.84 6.66-23.77 1.21.01 1.87 3.56 3.3.91 6.25-11.59 12.49-23.18 13.51-36.66z"/><path class="st236" d="M329.59 666.25c-.25-4.43-.63-10.99-1.11-18.97-.58-9.74-1.11-15.03-1.14-18.47-.1-13.29-2.54-26.25-4.2-39.3-1.44-11.32-1.38-22.62-1.06-33.9.37-13.07-1.48-26.01-1.39-39.04.03-4.49-2.04-6.6-6.59-6.81-2.29-.1-4.62-.84-6.76-1.7-1.38-.55-2.81-1.98-.34-3.14 16.17-7.59 23.21-21.34 28.27-37.76 3.35-10.86 3.75-21.66 5.36-32.55 2.23-15.18 9.2-28.99 15.63-42.78 2.19-4.69 2.34-9.35 3.27-14.11 2.87-14.66 5.54-29.35 11.93-43.14 4.8-10.37.74-20.51-3.18-30.24-.74-1.84-1.26-3.49-1.31-5.38 0 0 .21-.24.21-.23 2.27.42 4.48.36 6.58-.75 1.03 8.26 2.49 16.33 5.93 24.1 3.39 7.63-1.17 14.61-3.79 21.43-5.61 14.6-10.58 29.28-11.72 45.05-.5 6.85-3 13.33-5.34 19.75-4.4 12.08-8.12 24.25-8.92 37.23-.88 14.28-6.19 27.53-11.56 40.51-6 14.5-5.04 27.07-5.95 34.5-4.47 36.48-.31 52.82-.83 99.11a752.86 752.86 0 01-1.99 46.59zm-79.85-279.8c-3.77-.08-7.43.16-10.88-2.36-2.03-1.48-5.61-3.83-6.61 1.68-.06.35-1.92.38-2.94.55 2.41-7.31-2.98-11.85-6.24-17.04-1.84-2.94-4.73-4.56-8.19-2.31-3.32 2.16-4.38 5.24-2.42 8.87 2.32 4.32 4.83 8.55 7.25 12.82-5.05 1.65-8.53-1.23-10.19-5.08-6.21-14.34-16.77-25.41-26.94-36.72-5.94-6.6-6.23-13.77-4.55-21.66.39-1.86.84-3.7 1.26-5.55 2.14-2.14 4.58-3.64 7.72-3.66-.39 2.31 1.28 3.26 2.72 4.6 2.94 2.74 6.45 4.92 8.42 8.65 5.44 10.27 12.33 19.74 17 30.43 1.1 2.52 3.35 4.4 5.32 2.95 2.13-1.56 2.52-4.57-.34-6.95-5.76-4.79-7.91-11.85-11.43-18.12-3.07-5.47-2.62-12.31-7.89-16.99-2.34-2.08-5.96-1.39-7.32-4.5 3.43-.72 2.8-3.31 2.23-5.47-.65-2.46-1.28-4.87-1.11-7.44-.03-5.22 1.81-10.32 7.33-10.1 6.16.25 12.26 2.23 17.51 6.65 5.82 4.91 8.17 11.75 12.01 17.77 1.03 1.61 1.22 3.92 3.97 2.38l-.26.49c-.04.33-.08.67-.13 1 .28-.18.55-.36.83-.54 2.38 6.14 5.07 12.18 7.08 18.44 3.12 9.72-1.28 17.53-10.25 18.99-9.09 1.48-9.1 1.48-4.95 10.11.46.96 1.04 1.86 1.56 2.79.89 5.19 4.32 8 8.95 9.91 3.9 1.62 7.66 3.6 11.48 5.41zm-30.79-51.71c-.11 3.02.91 6.07 2 9.08 4.83 13.3 4.89 10.2 16.26 5.02 1.46-.66 2.42-1.75 1.72-3.57-2.22-5.76-3.95-11.8-8.7-16.16-2.19-2.01-4.86-2.8-7.7-1.5-2.89 1.32-3.82 3.84-3.58 7.13zm24.64-84.63c6.46 7.41 10.94 16.06 12.59 25.58 1.59 9.17-7.66 17.57-17.34 16.19-4.15-.59-5.04 1.19-5.46 4.14-.7 4.84-1.1 9.73-1.63 14.59-3.47-2.28-3.7-6.19-5.03-9.62-3.07-7.93-5.28-16.43-12.74-21.82 2.9-3.69-2.31-6.28-1.32-9.71 4.53-9.16 9.11-17.8 20.61-20.51 4.15-.97 6.88 1.13 10.32 1.16zm-8.39 8.98c-2.51.37-5.72 1.74-6.54 5.59-1.3 6.12 2.32 10.81 5.86 14.98 3.02 3.56 5.43-1.55 8.39-1.82 1.83-.17 3.57-1.3 5.39-1.85 1.02-.31 2.05-.33 2.28-1.73.9-5.52-8.28-15.34-15.38-15.17z"/><path class="st237" d="M373.75 297.99c-2.09 1.11-4.31 1.18-6.58.75-1.76-8.45-2.28-16.97-.85-25.49.47-2.83 2.6-4.78 5.65-5.3 1.87 1.94 1.26 4.4 1.32 6.68.21 7.78.32 15.57.46 23.36z"/><path class="st238" d="M344.36 804.97c-17.34.17-34.8.26-52.39.27-21.15.02-42.12-.07-62.91-.27l16.29-270.54c-7.26-7.24-11.35-14.21-13.79-19.62-3.38-7.48-6.78-7.93-7.52-24.52-.36-8.08-3.28-15.79-9.75-21.5-8.48-7.47-13.1-16.82-14.56-28.07-1.49-11.43-1.4-23.72-12.82-31.14l.04.06c0-1.16-.22-2.21-1.52-2.61-.35-.52-.7-1.08-1.03-1.68-1.71-3.12-2.38-6.19-2.61-8.62.01.02.03.03.04.03.21-.07-2.64-6.48-3.13-13.82-.42-6.26 1.36-6.12.57-11.2-.19-1.24-.6-3.68.66-4.99.36-.37.92-.61 1.79-.65 3.39-.16 7.27-1.87 10.26 1.37 4.08 4.43 3.79 6.77-1.06 8.87-1.01.44-2.06.96-1.95 2.19.12 1.42 1.48 1.59 2.45 1.38 7.07-1.54 9.45 4.36 13.07 8.19 2.98 3.16 4.14 5.63-2.06 6.18-3.99.35-7.89 1.74-11.8 2.77-1.03.27-2 1.03-1.64 2.34.28 1.01 1.3 1.17 2.07.84 4.87-2.13 10.12-.98 15.18-1.77 12.33-1.91 23.49 1.92 33.25 9.75 1.5 1.2 1.63 2.37.73 3.86-.84 1.39-2.84 2.98-.93 4.37 1.76 1.28 2.83-1.21 4.11-2.13 3.82-2.73 8.23-3.18 12.21-1.5 3.7 1.56 1.75 5.7 2.07 8.72 1.26 11.83 1.57 23.81 5.29 35.27.67 2.06 1.46 4.07 3.23 5.42.58.44 1.5.43 2.27.62.15-.79.7-1.92.37-2.31-1.9-2.26-2.13-5.09-2.92-7.71-3.36-11.12-5.27-22.42-4.37-34.1.36-4.61 4.44-9.43 8.18-9.09 5.86.52 3 5.19 3.29 8.01.79 7.83-1.3 15.92 1.41 23.57 2.21 6.25 3.57 13.29 10.96 16.4-6.18-10.01-8.67-20.5-8.76-32.36-.1-14.39 10.8-23.5 24.11-23.45 1.71.01 3.8.51 5.06-.26 5.59-3.44 14.63-3.16 12.71-14.44-1.11-6.53 3.51-8.96 10.01-6.39-5.71-10.35 2.25-17.48 4.92-25.71 1.24-3.83 4.18-5.58 8.07-1.37 2.54 2.75 6.15 4.55 9.85 5.65 1.1.33 2.83.5 3.3-1.03.49-1.58-.92-2.11-2.18-2.56-11.7-4.15-12.75-6.69-9.01-18.16 1.09-3.33 1.98-3.74 5.25-3.02 4.01.88 8.34 1.16 13.77-.86-11.36-2.92-15.82-9.01-16.2-19.23-.2-5.24 2.4-10.09 2.32-14.84-.16-9.1 3.43-16.96 5.93-25.18.86-2.83 3.12-6.01 7.29-4.27 3.47 1.45 3.66 5.62 1.96 6.9-5.7 4.28-1.99 9.27-1.57 13.67.27 2.87.7 6.97 4.77 8.24.05 1.89.57 3.54 1.31 5.38 3.92 9.72 7.98 19.87 3.18 30.24-6.38 13.79-9.06 28.48-11.93 43.14-.93 4.76-1.09 9.42-3.28 14.11-6.43 13.79-13.4 27.6-15.63 42.78-1.6 10.89-2 21.68-5.36 32.55-5.06 16.41-12.11 30.17-28.27 37.76-2.47 1.16-1.04 2.58.34 3.14 2.15.86 4.48 1.6 6.76 1.7 4.55.2 6.62 2.31 6.59 6.81-.09 13.03 1.76 25.97 1.39 39.04-.32 11.29-.38 22.58 1.06 33.9 1.66 13.05 4.11 26.01 4.2 39.3.03 4.79.65 9.05 1.14 18.47 2.62 50.76 3.93 76.13 3.92 100.39 0 5.08.12 7.79.48 12.04 1.58 19.13 6.81 34.54 11.47 45.28z"/><path class="st238" d="M449.25 61.15c-7.78 4.46-12.72 11.69-17.55 18.81-6.57 9.67-12.73 19.64-18.7 29.7-8.77 14.76-17.08 29.8-25.88 44.55-3.47 5.82-6.15 12.01-9.44 17.87-9.18 16.32-16.01 33.6-21.2 51.49-4.94 17.03-10.48 33.85-16.1 50.66-2.59 7.76-3.61 16.03-5.62 24-1.7 6.74-3.15 13.82-8.23 18.94-8.13 8.19-17.92 6.1-26.83 2.18-5.91-2.6-12.07-4.88-17.61-8.61-12.83-8.67-14.71-20.69-8.71-33.05 10.58-21.77 23.02-42.68 32.78-64.79 8.98-20.35 20.89-38.87 31.92-57.95 5.95-10.28 12.94-19.96 19.37-29.96 5.25-8.16 11.71-15.09 19.56-20.85 3.59-2.64 6.14-6.48 9.13-9.81 9.7-10.83 20.37-21.18 33.21-27.68 9.47-4.79 19.42-11.1 31.25-9.26-.44 1.26-.9 2.51-1.35 3.76zM213.98 279.17c3.86 4.08 8.6 9.89 12.84 17.58a85.31 85.31 0 018.11 20.66c.74 3.29 1.46 7.12.84 7.33-.54.18-1.77-2.48-4.31-7.26-6.88-12.94-9.87-15.96-12.01-17.77-5.24-4.42-11.35-6.41-17.51-6.65-5.52-.22-7.36 4.88-7.33 10.1-3.92-7.95-.86-16.76 7.71-22.19 2.6-.64 5.21-1.29 7.81-1.93 1.29.04 2.57.09 3.85.13zm-20.48 36.9c1.36 3.11 4.99 2.42 7.32 4.5 5.27 4.69 4.82 11.52 7.89 16.99 3.52 6.27 5.67 13.33 11.43 18.12 2.86 2.38 2.46 5.39.34 6.95-1.98 1.45-4.22-.42-5.32-2.95-4.67-10.69-11.56-20.16-17-30.43-1.97-3.72-5.48-5.91-8.42-8.65-1.44-1.34-3.11-2.29-2.72-4.6 2.15.02 4.32.04 6.48.07zm50.09-65.96c-3.44-.03-6.17-2.13-10.32-1.15-11.5 2.71-16.09 11.35-20.61 20.51-3.88-9.02-1.53-15.81 7.58-21.94 9.9-6.66 16.38-6.62 23.22.15.04.81.08 1.62.13 2.43zm21.59-87c-.94 9.96-3.65 19.54-6.08 29.19-.35 1.38-.91 2.36-2.47 2.4.01-6.84-1.91-13.56-1.32-20.45.57-6.58 3.7-10.19 9.87-11.14z"/><path class="st237" d="M235.43 319.86c-.17-.82-.33-1.63-.5-2.45 16.48-2.09 31.68 3.36 46.91 8.2 8.73 2.78 17.19 6.41 25.77 9.65 1.72 2.39 4.49 3.09 6.93 4.31 16.37 8.2 13.84 6.43 8.59 20.91-2.19 7.94-4.04 15.98-6.66 23.77-2.09 6.23-4.79 12.44-12.53 13.77-2.03-2.78-4.49-4.86-7.63-6.55-11.4-6.13-23.76-9.38-36.12-12.58-10.27-2.66-20.28-6.39-30.87-7.76-.52-.93-1.1-1.83-1.56-2.79-4.15-8.64-4.14-8.64 4.95-10.11 8.97-1.46 13.37-9.26 10.25-18.99-2.01-6.26-4.69-12.3-7.08-18.44l-.22-.43-.48-.02.25-.49z"/><path d="M341.01 322.37c-.35.36-.7.73-1.05 1.09.35-.36.7-.73 1.05-1.09z" fill="#e5bbb6"/><path d="M229.31 371.14c10.59 1.37 20.6 5.1 30.87 7.76 12.36 3.2 24.73 6.45 36.12 12.58 3.14 1.69 5.6 3.77 7.63 6.55-16.65.79-32.13-4.2-47.53-9.63-2.18-.77-4.44-1.3-6.66-1.95-3.83-1.82-7.58-3.79-11.49-5.41-4.62-1.91-8.05-4.71-8.94-9.9z" fill="#ffbec5"/><path class="st237" d="M219.72 388.66c-2.43-4.27-4.93-8.5-7.25-12.82-1.95-3.63-.9-6.71 2.42-8.87 3.46-2.24 6.34-.63 8.19 2.31 3.26 5.2 8.65 9.74 6.24 17.04v.02c-2.86 1.24-5.49 3.27-8.91 2.61-.16-.25-.39-.35-.69-.29zm-.77-53.92c-.25-3.29.69-5.81 3.58-7.13 2.84-1.3 5.51-.51 7.7 1.5 4.75 4.36 6.48 10.41 8.7 16.16.7 1.82-.26 2.91-1.72 3.57-11.37 5.18-11.42 8.28-16.26-5.02-1.09-3.01-2.11-6.06-2-9.08zm16.25-75.65c7.11-.17 16.28 9.65 15.38 15.17-.23 1.4-1.25 1.42-2.28 1.73-1.82.55-3.55 1.68-5.39 1.85-2.96.27-5.37 5.38-8.39 1.82-3.54-4.17-7.16-8.86-5.86-14.98.82-3.85 4.03-5.22 6.54-5.59z"/></svg>