<?xml version="1.0" encoding="utf-8"?>
<!-- Generator: Adobe Illustrator 24.2.3, SVG Export Plug-In . SVG Version: 6.00 Build 0)  -->
<svg version="1.1" id="Слой_1" xmlns="http://www.w3.org/2000/svg" xmlns:xlink="http://www.w3.org/1999/xlink" x="0px" y="0px"
	 viewBox="0 0 585 488" style="enable-background:new 0 0 585 488;" xml:space="preserve">
<style type="text/css">
	.st0{fill:#FFC9D7;}
	.st1{clip-path:url(#SVGID_2_);fill:#EA90A7;}
	.st2{clip-path:url(#SVGID_2_);fill:#FFEBF2;}
	.st3{clip-path:url(#SVGID_2_);fill:#D3CFB3;}
	.st4{clip-path:url(#SVGID_2_);fill:#FCDDE6;}
	.st5{clip-path:url(#SVGID_2_);}
	.st6{fill:#FFEBF2;}
	.st7{fill:#EA90A7;}
	.st8{fill:#F2CCC1;}
	.st9{fill:#DF4E50;}
	.st10{clip-path:url(#SVGID_2_);fill:#FFC9D7;}
	.st11{fill:#FCDDE6;}
	.st12{fill:#FFC5C4;}
	.st13{fill:#FC7798;}
	.st14{fill:#FFFFFF;}
	.st15{fill:#F17171;}
	.st16{fill:url(#SVGID_3_);}
	.st17{fill:#AED9C4;}
	.st18{fill:none;stroke:#FFFFFF;stroke-miterlimit:10;}
	.st19{fill:#A3CCAC;}
	.st20{fill:#97CEA2;}
	.st21{opacity:0.76;}
	.st22{fill:#C5EACE;}
	.st23{fill:url(#SVGID_4_);}
	.st24{fill:url(#SVGID_5_);}
	.st25{fill:#F7E7BF;}
	.st26{fill:url(#SVGID_6_);}
	.st27{fill:url(#SVGID_7_);}
	.st28{fill:url(#SVGID_8_);}
	.st29{fill:#E5EFC5;}
	.st30{fill:#F0FCD3;}
	.st31{fill:url(#SVGID_9_);}
	.st32{fill:url(#SVGID_10_);}
	.st33{fill:url(#SVGID_11_);}
	.st34{fill:url(#SVGID_12_);}
	.st35{fill:#FFE594;}
	.st36{clip-path:url(#SVGID_14_);fill:url(#SVGID_15_);}
	.st37{fill:#5B2A1E;}
	.st38{fill:#917673;}
	.st39{fill:url(#SVGID_16_);}
	.st40{fill:url(#SVGID_17_);}
	.st41{fill:url(#SVGID_18_);}
	.st42{fill:url(#SVGID_19_);}
	.st43{fill:#EF8FC7;}
	.st44{opacity:0.62;clip-path:url(#SVGID_21_);fill:#FFFFFF;}
	.st45{opacity:0.75;clip-path:url(#SVGID_21_);fill:#FFFFFF;}
	.st46{opacity:0.41;clip-path:url(#SVGID_21_);fill:#FFFFFF;}
	.st47{clip-path:url(#SVGID_21_);fill:none;}
	.st48{clip-path:url(#SVGID_23_);}
	.st49{opacity:0.26;fill:#FFFFFF;}
	.st50{opacity:0.69;fill:#FFFFFF;}
	.st51{fill:none;}
	.st52{opacity:0.16;fill:#FFFFFF;}
	.st53{opacity:0.3;fill:#FFFFFF;}
	.st54{opacity:0.23;fill:#FFFFFF;}
	.st55{opacity:0.24;fill:#FFFFFF;}
	.st56{opacity:0.17;}
	.st57{opacity:0.05;fill:#E3E9E5;}
	.st58{clip-path:url(#SVGID_25_);}
	.st59{opacity:0.76;clip-path:url(#SVGID_25_);fill:#FFFFFF;}
	.st60{clip-path:url(#SVGID_25_);fill:url(#SVGID_26_);}
	.st61{clip-path:url(#SVGID_25_);fill:none;stroke:#FFFFFF;stroke-width:2;stroke-linecap:round;stroke-miterlimit:10;}
	.st62{clip-path:url(#SVGID_25_);fill:url(#SVGID_27_);}
	.st63{clip-path:url(#SVGID_25_);fill:url(#SVGID_28_);}
	.st64{clip-path:url(#SVGID_25_);fill:url(#SVGID_29_);}
	.st65{clip-path:url(#SVGID_25_);fill:url(#SVGID_30_);}
	.st66{clip-path:url(#SVGID_25_);fill:#FFFFFF;}
	.st67{clip-path:url(#SVGID_25_);fill:url(#SVGID_31_);}
	.st68{opacity:0.62;clip-path:url(#SVGID_33_);fill:#FFFFFF;}
	.st69{clip-path:url(#SVGID_33_);fill:#FFFFFF;}
	.st70{opacity:0.41;clip-path:url(#SVGID_33_);fill:#FFFFFF;}
	.st71{clip-path:url(#SVGID_33_);fill:none;}
	.st72{clip-path:url(#SVGID_35_);}
	.st73{fill:url(#SVGID_36_);}
	.st74{opacity:0.74;clip-path:url(#SVGID_38_);fill:url(#SVGID_39_);}
	.st75{fill:#E6E6E6;}
	.st76{fill:none;stroke:#4D4D4D;stroke-width:0.75;stroke-linecap:round;stroke-miterlimit:10;}
	.st77{fill:url(#SVGID_40_);}
	.st78{opacity:0.74;fill:url(#SVGID_41_);}
	.st79{opacity:0.74;fill:url(#SVGID_42_);}
	.st80{opacity:0.74;fill:url(#SVGID_43_);}
	.st81{opacity:0.74;fill:url(#SVGID_44_);}
	.st82{fill:url(#SVGID_45_);}
	.st83{opacity:0.66;}
	.st84{opacity:0.37;fill:#FFFFFF;}
	.st85{fill:url(#SVGID_46_);}
	.st86{fill:url(#SVGID_47_);}
	.st87{opacity:0.44;clip-path:url(#SVGID_49_);fill:#FFFDDD;}
	.st88{opacity:0.43;clip-path:url(#SVGID_51_);fill:#FFFFFF;}
	.st89{clip-path:url(#SVGID_51_);fill:none;stroke:#FFFFFF;stroke-miterlimit:10;}
	.st90{opacity:0.76;clip-path:url(#SVGID_51_);fill:#FFFFFF;}
	.st91{clip-path:url(#SVGID_51_);fill:#FFFFFF;}
	.st92{opacity:0.08;clip-path:url(#SVGID_51_);fill:#FFFFFF;}
	.st93{opacity:0.27;clip-path:url(#SVGID_51_);fill:#FFFFFF;}
	.st94{opacity:0.37;clip-path:url(#SVGID_51_);fill:#FFFFFF;}
	.st95{clip-path:url(#SVGID_51_);fill:none;}
	.st96{fill:url(#SVGID_52_);}
	.st97{opacity:0.62;clip-path:url(#SVGID_54_);fill:#FFFFFF;}
	.st98{clip-path:url(#SVGID_54_);fill:#FFFFFF;}
	.st99{opacity:0.41;clip-path:url(#SVGID_54_);fill:#FFFFFF;}
	.st100{clip-path:url(#SVGID_54_);fill:none;}
	.st101{clip-path:url(#SVGID_56_);}
	.st102{opacity:0.55;fill:url(#SVGID_57_);}
	.st103{fill:url(#SVGID_58_);}
	.st104{fill:url(#SVGID_59_);}
	.st105{opacity:0.28;}
	.st106{opacity:0.56;clip-path:url(#SVGID_61_);fill:#FFFFFF;}
	.st107{opacity:0.43;clip-path:url(#SVGID_63_);fill:#FFFFFF;}
	.st108{clip-path:url(#SVGID_63_);fill:none;stroke:#FFFFFF;stroke-miterlimit:10;}
	.st109{opacity:0.76;clip-path:url(#SVGID_63_);fill:#FFFFFF;}
	.st110{clip-path:url(#SVGID_63_);fill:#FFFFFF;}
	.st111{opacity:0.08;clip-path:url(#SVGID_63_);fill:#FFFFFF;}
	.st112{opacity:0.27;clip-path:url(#SVGID_63_);fill:#FFFFFF;}
	.st113{opacity:0.37;clip-path:url(#SVGID_63_);fill:#FFFFFF;}
	.st114{clip-path:url(#SVGID_63_);fill:none;}
	.st115{clip-path:url(#SVGID_65_);fill:none;}
	.st116{opacity:0.46;}
	.st117{opacity:0.86;fill:#FFFFFF;}
	.st118{opacity:0.4;}
	.st119{opacity:0.73;fill:#FFFFFF;}
	.st120{opacity:0.54;clip-path:url(#SVGID_67_);fill:#FFFFFF;}
	.st121{fill:#F79291;}
	.st122{opacity:0.75;fill:#FFFFFF;}
	.st123{fill:#FFC28E;}
	.st124{clip-path:url(#SVGID_69_);fill:#FFE0C3;}
	.st125{clip-path:url(#SVGID_69_);fill:#FF9F36;}
	.st126{clip-path:url(#SVGID_69_);fill:#FFF3E2;}
	.st127{clip-path:url(#SVGID_71_);fill:#FAC1E3;}
	.st128{opacity:0.8;clip-path:url(#SVGID_71_);fill:#EF8FC7;}
	.st129{clip-path:url(#SVGID_71_);fill:#EF8FC7;}
	.st130{opacity:0.79;clip-path:url(#SVGID_71_);fill:#FAC1E3;}
	.st131{fill:#FFFDEC;}
	.st132{fill:#78CB99;}
	.st133{fill:#B2E1C4;}
	.st134{fill:#D8EFE2;}
	.st135{opacity:0.44;fill:#FFFFFF;}
	.st136{clip-path:url(#SVGID_73_);fill:#FFF7C8;}
	.st137{opacity:0.86;fill:#FFD0D7;}
	.st138{opacity:0.62;clip-path:url(#SVGID_75_);fill:#FFFFFF;}
	.st139{opacity:0.75;clip-path:url(#SVGID_75_);fill:#FFFFFF;}
	.st140{opacity:0.41;clip-path:url(#SVGID_75_);fill:#FFFFFF;}
	.st141{clip-path:url(#SVGID_75_);fill:none;}
	.st142{clip-path:url(#SVGID_77_);}
	.st143{opacity:0.44;clip-path:url(#SVGID_79_);fill:#FFFFFF;}
	.st144{opacity:0.43;clip-path:url(#SVGID_81_);fill:#FFFFFF;}
	.st145{clip-path:url(#SVGID_81_);fill:none;stroke:#FFFFFF;stroke-miterlimit:10;}
	.st146{opacity:0.76;clip-path:url(#SVGID_81_);fill:#FFFFFF;}
	.st147{clip-path:url(#SVGID_81_);fill:#FFFFFF;}
	.st148{opacity:0.08;clip-path:url(#SVGID_81_);fill:#FFFFFF;}
	.st149{opacity:0.27;clip-path:url(#SVGID_81_);fill:#FFFFFF;}
	.st150{opacity:0.37;clip-path:url(#SVGID_81_);fill:#FFFFFF;}
	.st151{clip-path:url(#SVGID_81_);fill:none;}
	.st152{opacity:0.54;clip-path:url(#SVGID_83_);fill:#FFFFFF;}
	.st153{opacity:0.62;fill:#FFFFFF;}
	.st154{opacity:0.41;fill:#FFFFFF;}
	.st155{opacity:0.43;fill:#FFFFFF;}
	.st156{opacity:0.76;fill:#FFFFFF;}
	.st157{opacity:0.08;fill:#FFFFFF;}
	.st158{opacity:0.27;fill:#FFFFFF;}
	.st159{opacity:0.54;fill:#FFFFFF;}
	.st160{clip-path:url(#SVGID_85_);fill:#F17171;}
	.st161{clip-path:url(#SVGID_85_);fill:#F79291;}
	.st162{clip-path:url(#SVGID_85_);fill:#FFC5C4;}
	.st163{clip-path:url(#SVGID_85_);fill:#FFFFFF;}
	.st164{clip-path:url(#SVGID_87_);fill:#E2EAFD;}
	.st165{clip-path:url(#SVGID_87_);fill:#EEF3FE;}
	.st166{opacity:0.54;clip-path:url(#SVGID_87_);fill:#EEF3FE;}
	.st167{opacity:0.54;clip-path:url(#SVGID_87_);fill:#91AEEB;}
	.st168{clip-path:url(#SVGID_89_);}
	.st169{fill:#FF7B89;}
	.st170{clip-path:url(#SVGID_89_);fill:none;}
	.st171{fill:#F64776;}
	.st172{clip-path:url(#SVGID_91_);fill:#FFE0C3;}
	.st173{clip-path:url(#SVGID_91_);fill:#FF9F36;}
	.st174{clip-path:url(#SVGID_91_);fill:#FFF3E2;}
	.st175{clip-path:url(#SVGID_93_);fill:#E9CBF2;}
	.st176{opacity:0.8;clip-path:url(#SVGID_93_);fill:#F5E5F7;}
	.st177{clip-path:url(#SVGID_93_);fill:#F5E5F7;}
	.st178{opacity:0.79;clip-path:url(#SVGID_93_);fill:#E9CBF2;}
	.st179{clip-path:url(#SVGID_95_);fill:#FFF7C8;}
	.st180{clip-path:url(#SVGID_97_);fill:#FFC9D7;}
	.st181{clip-path:url(#SVGID_97_);fill:#FF9DB5;}
	.st182{clip-path:url(#SVGID_97_);fill:#FC7798;}
	.st183{clip-path:url(#SVGID_97_);fill:#FFFFFF;}
	.st184{clip-path:url(#SVGID_99_);fill:#6D93E0;}
	.st185{clip-path:url(#SVGID_99_);fill:#91AEEB;}
	.st186{opacity:0.54;clip-path:url(#SVGID_99_);fill:#91AEEB;}
	.st187{clip-path:url(#SVGID_101_);}
	.st188{clip-path:url(#SVGID_101_);fill:none;}
	.st189{opacity:0.46;clip-path:url(#SVGID_103_);}
	.st190{clip-path:url(#SVGID_103_);fill:none;}
	.st191{clip-path:url(#SVGID_105_);}
	.st192{fill:#E4A280;}
	.st193{fill:#FFFFFF;stroke:#FFFFFF;stroke-width:0.25;stroke-miterlimit:10;}
	.st194{fill:none;stroke:#FFFFFF;stroke-width:2;stroke-miterlimit:10;}
	.st195{opacity:0.45;fill:#FFFFFF;}
	.st196{opacity:0.8;fill:#FFFFFF;}
	.st197{opacity:0.79;fill:#FFFFFF;}
	.st198{fill:#F3C6AB;}
	.st199{fill:none;stroke:#FFFFFF;stroke-width:0.75;stroke-miterlimit:10;}
	.st200{fill:#D4C2B3;}
	.st201{fill:#93693D;}
	.st202{fill:#F2BECD;}
	.st203{fill:#D87290;}
	.st204{fill:#574435;}
	.st205{fill:#CAA57C;}
	.st206{fill:#641F1E;}
	.st207{fill:#E16C8D;}
	.st208{fill:#D63665;}
	.st209{fill:#DFB88B;}
	.st210{fill:#E0B88B;}
	.st211{fill:#7E7E7E;}
	.st212{fill:#FFE4EB;}
	.st213{fill:#C73F69;}
	.st214{fill:#F7F7F7;}
	.st215{fill:#F2F2F2;}
	.st216{fill:#FFFBF1;}
	.st217{fill:#F8C3D1;}
	.st218{fill:#FFD0D7;}
	.st219{fill:#FFBEC5;}
	.st220{fill:#FE6D7B;}
	.st221{fill:#B59F90;}
	.st222{fill:#FDFDFC;}
	.st223{fill:#F3F3F3;}
	.st224{fill:#A4C6DD;}
	.st225{fill:#DB966B;}
	.st226{fill:#BEA696;}
	.st227{fill:#583B34;}
	.st228{fill:#63443C;}
	.st229{fill:#E2D1C9;}
	.st230{fill:#B3D1E6;}
	.st231{fill:#D1ADA2;}
	.st232{fill:#A3C5DC;}
	.st233{fill:#9D7972;}
	.st234{fill:#77573F;}
	.st235{fill:#FFA5B2;}
	.st236{fill:#F4769D;}
	.st237{fill:#FCFCFA;}
	.st238{fill:#F9C5DD;}
	.st239{fill:#E5BBB6;}
	.st240{clip-path:url(#SVGID_113_);fill:#EA90A7;}
	.st241{clip-path:url(#SVGID_113_);fill:#FFEBF2;}
	.st242{clip-path:url(#SVGID_113_);fill:#D3CFB3;}
	.st243{clip-path:url(#SVGID_113_);fill:#FCDDE6;}
	.st244{clip-path:url(#SVGID_113_);}
	.st245{clip-path:url(#SVGID_113_);fill:#FFC9D7;}
</style>
<path class="st0" d="M285.55,442.49c10.33,12.24,35.42,41.96,74.34,44.6c6.74,0.46,30.57,1.84,50.97-13.81
	c28-21.47,27.67-57.43,27.61-63.72c-0.25-27.97-20.94-29.72-32.92-67.96c-4.02-12.84-12.18-38.89-3.19-65.84
	c7.42-22.25,18.61-21.35,36.11-49.91c10.79-17.61,28.9-47.17,21.24-75.4c-6.69-24.66-32.66-46.88-58.41-49.91
	C336.2,92.89,250.37,205.39,246.26,314C245.59,331.45,244.13,393.43,285.55,442.49z"/>
<path class="st213" d="M560.9,183.28c2.9,16.83,5.28,19.2,13.05,45.71c3.86,13.18,7.06,23.84,9.16,39.03c0,0,1.32,9.53,1.78,20.03
	c0.96,21.71-4.78,63.12-18.8,114.55c1.24-30.77,0.16-56.22-1.28-75c-1.56-20.34-3.85-32.83-8.64-47.11
	c-3.78-11.27-8.7-21.98-15.93-31.52c-3.67-5.84-7.34-11.67-11.01-17.51c-6.28-11.83-12.12-23.77-15.06-37.04
	c-1.13-5.09-0.93-8.68-1.12-15.74c-0.62-22.61-0.99-37.32,7.71-49.88c1.54-2.23,10.05-14.82,18.59-13.38
	c8.5,1.44,12.48,16.02,15.93,28.67C559.87,160.92,557.78,165.2,560.9,183.28z"/>
<path class="st213" d="M80.79,228.85c2.64-7.58,4.41-11.82,7.66-16.62c3.02-4.46,6.16-7.7,8.45-9.81c3.53-4.75,8.1-8.52,12.3-12.63
	c11.95-8.19,26.16-9.21,39.65-12.52c2.77-0.68,4.1,1.7,5.98,2.9c0.45,0.53,0.86,1.09,1.23,1.68c1.31,2.91-1,4.72-2.12,6.88
	c-2.05,3.95-4.08,7.91-5.39,12.19c-7.58,21.16-9.45,43.49-13.6,65.35c-2.01,10.56-3.51,21.26-6.67,31.61
	c-5.34,5.73-3.56,11.82-0.88,17.93c4.36,5.69,2.11,12.68,3.64,18.97c1.05,4.34,1.2,9.11-0.03,13.48c-1.27,4.53,1.74,8.54,0.78,12.88
	c-0.89,0.94-1.83,1.45-2.8,1.59c-1.63,0.24-2.99-0.63-3.52-0.97c-25.34-16.1-34.34-17.35-42.15-31.31
	c-3.46-6.19-5.23-15.26-9.44-33.25c-1.33-5.69-2.41-11.48-3.32-17.29c-0.1-1.88-0.21-4.98-0.08-8.8
	C70.99,257.21,74.32,247.39,80.79,228.85z"/>
<path class="st213" d="M165.32,172.14c3.67,9.06,3.44,17.81-1.81,26.3c-1.56,2.53-2.52,5.43-4.11,7.94
	c-3.56,5.62-4.45,11.07-1.19,17.35c2.5,4.82,2.19,10.36,1.19,15.68c-2.21,11.73-4.56,23.44-9.21,34.5
	c-3.58,8.5-5.99,22.11-11.6,49.01C136.06,335,133.88,346.7,132,358c-1.22-4.14-2.76-9.85-4.11-16.75c-1.02-5.21-3.4-19.62-3.37-35.8
	c0.02-11.47,2.86-22.83,5.4-34.11c3.85-17.1,4.95-34.7,9.09-51.75c1.49-6.12,2.78-12.3,5.05-18.2c2.26-6.9,4.93-13.61,9.64-19.29
	l-0.02,0.06c0.87-1.86,0.43-3.89,0.81-5.82c2.11-3.21,4.1-6.59,8.72-6.45C163.91,170.63,164.62,171.39,165.32,172.14z"/>
<path class="st0" d="M355.56,75.14c5.89-8.02,14.23-12.41,23.33-15.67c7.96,0.05,15.68,1.4,23.3,3.19
	c12.57,2.95,13.33,4.31,22.77,5.85c17.58,2.86,24.48-1.42,29.22,3.44c2.69,2.76,4.91,8.69,0.21,23.29
	c-32.93-5.81-65.87-11.62-98.8-17.43C355.58,76.92,355.57,76.03,355.56,75.14z"/>
<path class="st214" d="M441.65,74c-3.43,2.48-8.79,0.39-11.89-0.76c-10.98-4.1-27-9.03-50.88-13.76c6.95-2.78,14.8-5.47,23.48-7.77
	c14.22-3.78,27.2-5.59,38.23-6.37C442.63,51.34,448.23,69.24,441.65,74z"/>
<path class="st215" d="M455.64,87.5c0.3,4.07-2.9,2.26-4.42,2.29c-9.21,0.21-18.43,0.11-27.65,0.11c2.24-2.48,5.24-2.32,8.17-2.34
	C439.71,87.52,447.67,87.52,455.64,87.5z"/>
<path class="st216" d="M386.43,100.54c-23.95,17.85-87.6,70.44-108.32,160.35c-4.71,20.43-22.46,97.45,19.11,161.42
	c9.28,14.28,29.59,45.52,64.78,49.91c3.36,0.42,37.09,3.98,57.34-20.18c17.91-21.37,18.18-55.96-1.06-83.89
	c5.38,5.25,15.13,16.28,19.11,32.92c6.53,27.27-5.63,56.27-26.55,72.21c-21.58,16.44-46.5,14.44-53.1,13.81
	c-51.75-4.95-82.66-58.55-89.2-70.09c-51.75-91.32-0.02-198.01,8.5-215.57c11.27-23.25,33.08-66.71,80.71-90.27
	C369.09,105.56,379.23,102.39,386.43,100.54z"/>
<path class="st217" d="M434.22,114.35c3.24,15.38,5.44,34.98,3.19,57.34c-6.53,64.89-45.91,107.81-61.59,123.19
	c8.14,8.85,16.28,17.7,24.42,26.55c-5.17-30.52,1.22-47.43,8.5-57.34c2.48-3.38,3.03-3.18,9.56-10.62
	c4.8-5.47,19.46-22.19,28.67-39.29c7.6-14.1,18.54-34.41,13.81-58.41C456.58,134.56,442.18,120.76,434.22,114.35z"/>
<path class="st213" d="M481.8,242.15c1.25,1.48,2.13,2.76,2.63,3.51c-5.42,6.04-14.94,18.31-19.41,36.47
	c-4.12,16.71-1.94,30.16-0.54,38.25c3.37,19.51,11.54,34.17,17.77,43.22c-1.9,2.7-4.7,5.95-8.74,8.79
	c-11.12,7.83-23.46,6.78-27.61,6.37c-5.14-0.51-9.45-1.84-12.74-3.19c3.49,0.51,8.69,0.91,14.87,0c4.76-0.7,10.73-2.28,10.62-3.19
	c-0.14-1.21-10.86,0.78-24.42-3.19c-3.65-1.07-6.56-2.29-8.5-3.19c3.7,1.09,9.77,2.31,16.99,1.06c2.88-0.5,5.37-1.29,7.43-2.12
	c-5.66-0.76-11.7-1.8-18.05-3.19c-4.47-0.98-8.72-2.05-12.74-3.19c3.91,0.51,9.01,0.78,14.87,0c3.65-0.48,6.86-1.27,9.56-2.12
	c-4.96,0.1-10.69-0.14-16.99-1.06c-3.85-0.56-7.4-1.3-10.62-2.12c2.57,0.78,8.32,2.11,14.87,0c2.68-0.87,4.81-2.09,6.37-3.19
	c-3.37,0.95-9.05,2.06-15.93,1.06c-4.45-0.65-8.05-1.98-10.62-3.19c2.91,0.75,8.43,1.72,14.87,0c3.1-0.83,5.59-2.07,7.43-3.19
	c-3.49,0.75-11.73,1.99-20.18-2.12c-2.63-1.28-4.74-2.81-6.37-4.25c1.91,0.7,12.27,4.3,19.11-1.06c0.72-0.56,1.44-1.26,2.12-2.12
	c-2.52,0.12-5.84-0.03-9.56-1.06c-8.6-2.39-13.81-8.02-15.93-10.62c2.58,1.49,7.38,3.8,13.81,4.25c4.44,0.31,8.13-0.38,10.62-1.06
	c-2.36,0.18-8.42,0.34-14.87-3.19c-6.35-3.47-9.48-8.54-10.62-10.62c4.09,4.32,11.06,10.11,19.11,9.56
	c2.65-0.18,6.36-1.11,6.37-2.12c0.02-1.04-3.63-2.09-8.5-3.19c-3.41-0.77-7.96-3-12.74-9.56c0.67,0.83,5.35,6.47,12.74,6.37
	c3.4-0.05,6.01-1.29,7.43-2.12c-2.48-0.62-5.4-1.6-8.5-3.19c-6.95-3.56-11.36-8.44-13.81-11.68c1.16,1.21,6.1,6.09,13.81,6.37
	c4.39,0.16,7.79-1.23,9.56-2.12c-1.92-0.1-4.08-0.4-6.37-1.06c-9.31-2.68-14.77-9.54-16.99-12.74c2.8,2.35,7.49,5.52,13.81,6.37
	c4.34,0.58,9.39,0.07,9.56-1.06c0.15-1.03-3.88-1.98-8.5-4.25c-6.24-3.07-10.72-7.16-13.81-10.62c1.97,1.63,5.16,3.84,9.56,5.31
	c6.44,2.15,12.03,1.57,14.87,1.06c-2.38-0.81-5.38-2.11-8.5-4.25c-5.71-3.93-8.95-8.73-10.62-11.68c1.45,1.5,3.55,3.45,6.37,5.31
	c6.97,4.6,14.49,6.16,14.87,5.31c0.4-0.91-7.85-3.35-13.81-11.68c-2.26-3.16-3.52-6.24-4.25-8.5c0.86,1.51,5.24,8.87,13.81,10.62
	c2.95,0.6,5.54,0.37,7.43,0c-2.44-2.34-4.93-4.81-7.43-7.43c-3.45-3.61-6.63-7.16-9.56-10.62c1.16,1.55,6.6,8.49,15.93,9.56
	c4.05,0.47,7.42-0.34,9.56-1.06c-1.94-0.67-4.15-1.67-6.37-3.19c-7.94-5.4-10.75-13.64-11.68-16.99c1.38,1.88,4.08,5.02,8.5,7.43
	c5.33,2.91,10.33,3.2,12.74,3.19c-2.09-1.24-5.39-3.61-7.91-7.66c-4.95-7.98-3.84-17.63-2.71-17.83c0.79-0.14,1.05,4.42,3.96,8.47
	c5.02,6.99,15.06,8.52,23.65,8.52c-1.68-0.81-13.21-6.64-15.46-18.79c-0.74-4.02-0.26-7.54,0.38-10.06
	c1.02,3.49,2.45,5.88,3.44,7.32C458.83,231.18,471.44,229.88,481.8,242.15z"/>
<path class="st213" d="M462.89,54.88c2.5-11.92,8.78-20.82,13.81-26.55c-4.94-0.94-10.77-2.53-16.99-5.31
	c-15.07-6.73-24.62-16.89-29.73-23.36c0.51,3.15,2.31,11.52,9.56,18.05c3.01,2.71,6.1,4.33,8.5,5.31c-4.42-1.5-10.13-3.97-16.1-8.1
	c-4.05-2.81-7.29-5.74-9.79-8.34c-0.13,0-0.27,0-0.4,0c1.45,3.75,3.99,8.7,8.45,13.35c2.41,2.51,4.85,4.39,6.99,5.78
	c-1.62,0.32-4.49,0.65-7.72-0.42c-7.02-2.32-9.61-9.18-9.97-10.18c2.38,7.76,5.96,11.35,8.93,13.19c4.24,2.63,7.34,4.81,6.99,5.78
	c-0.34,0.95-4.15,0.62-6.72-0.07c-7.79-2.11-12.49-9.86-14.95-15.27c0.4,2.34,1.7,8.15,6.57,13.5c4.95,5.44,10.72,7.27,13.01,7.86
	c-2.58-0.17-6.29-0.72-10.38-2.46c-5.92-2.52-9.71-6.27-11.66-8.52c1.16,3.15,4.25,10.17,11.59,15.24c3.17,2.19,6.27,3.41,8.69,4.12
	c-0.93,0.6-1.84,1.02-2.7,1.31c-8.22,2.84-16.84-3.95-18.42-5.23c1.08,1.89,2.57,4.03,4.64,6.09c6.65,6.64,14.84,8.16,18.38,8.59
	c-2.11,0.46-4.86,0.81-8.07,0.59c-6.65-0.47-11.55-3.19-14.05-4.85c2.04,1.98,5.01,4.41,9,6.48c6.18,3.19,11.91,3.99,15.4,4.19
	c-1.84,0.53-4.24,0.99-7.06,0.93c-4.74-0.1-8.59-1.62-11.23-3.07c2.02,1.24,4.19,2.48,6.53,3.69c5.65,2.92,10.99,5.02,15.71,6.55
	c-2.83-0.08-6.12-0.38-9.73-1.11c-5.79-1.18-10.53-3.09-14.05-4.85c3.43,2.38,7.1,4.78,11.01,7.17c5.55,3.39,10.92,6.33,16.03,8.9
	c-2.22,0.12-4.83,0.05-7.72-0.42c-7.23-1.18-12.58-4.31-15.71-6.55c1.54,1.48,3.89,3.58,6.99,5.78
	c11.53,8.18,22.31,9.79,22.05,10.98c-0.2,0.89-6.35,0.44-11.08-0.45c-6.13-1.15-10.92-3.23-14.05-4.85
	c2.68,2.35,6.31,5.01,11.01,7.17c2.5,1.15,20.84,9.46,28.18,2.99C470.1,91.93,458.29,76.84,462.89,54.88z"/>
<path class="st217" d="M52.98,269.39c-12.23,8.56-34.09,26.76-45.66,57.34c-12.84,33.94-5.85,64.2-1.06,84.96
	c6.69,28.99,18.85,50.59,27.61,63.72c-6.51-8.43-37.79-50.77-30.8-110.44C9.53,309.91,44.21,277.21,52.98,269.39z"/>
<path class="st13" d="M148.56,183.38c-1.3,1.45-3.19,3.63-5.31,6.37c-29.44,38.06-27.57,85.55-26.55,111.5
	c0.59,15.07,2.73,36.02,9.56,60.53c-8.54-40.44-14.4-104.24,16.99-164.6c3.32-6.38,6.88-12.39,10.62-18.05
	C152.1,180.54,150.33,181.96,148.56,183.38z"/>
<path class="st217" d="M337.05,107.45c-12.23,3.18-31.72,6.55-54.16,2.12c-40.37-7.96-61.82-35.52-80.71-25.49
	c-9.17,4.87-14.18,16.71-16.99,23.36c-3.85,9.11-4.49,16.71-5.31,27.61c-0.62,8.3-0.84,19.96,1.06,33.98
	c-1.82-7.65-8.9-40.97,10.62-65.84c4.38-5.58,9.88-12.58,19.11-14.87c19.19-4.74,32.13,16.44,56.28,25.49
	C281.66,119.32,303.91,121.61,337.05,107.45z"/>
</svg>
