<svg version="1.1" id="Слой_1" xmlns="http://www.w3.org/2000/svg" x="0" y="0" viewBox="0 0 585 488" xml:space="preserve"><style>.st0{fill:#ffc9d7}.st213{fill:#c73f69}.st217{fill:#f8c3d1}</style><path class="st0" d="M285.55 442.49c10.33 12.24 35.42 41.96 74.34 44.6 6.74.46 30.57 1.84 50.97-13.81 28-21.47 27.67-57.43 27.61-63.72-.25-27.97-20.94-29.72-32.92-67.96-4.02-12.84-12.18-38.89-3.19-65.84 7.42-22.25 18.61-21.35 36.11-49.91 10.79-17.61 28.9-47.17 21.24-75.4-6.69-24.66-32.66-46.88-58.41-49.91C336.2 92.89 250.37 205.39 246.26 314c-.67 17.45-2.13 79.43 39.29 128.49z"/><path class="st213" d="M560.9 183.28c2.9 16.83 5.28 19.2 13.05 45.71 3.86 13.18 7.06 23.84 9.16 39.03 0 0 1.32 9.53 1.78 20.03.96 21.71-4.78 63.12-18.8 114.55 1.24-30.77.16-56.22-1.28-75-1.56-20.34-3.85-32.83-8.64-47.11-3.78-11.27-8.7-21.98-15.93-31.52-3.67-5.84-7.34-11.67-11.01-17.51-6.28-11.83-12.12-23.77-15.06-37.04-1.13-5.09-.93-8.68-1.12-15.74-.62-22.61-.99-37.32 7.71-49.88 1.54-2.23 10.05-14.82 18.59-13.38 8.5 1.44 12.48 16.02 15.93 28.67 4.59 16.83 2.5 21.11 5.62 39.19zM80.79 228.85c2.64-7.58 4.41-11.82 7.66-16.62 3.02-4.46 6.16-7.7 8.45-9.81 3.53-4.75 8.1-8.52 12.3-12.63 11.95-8.19 26.16-9.21 39.65-12.52 2.77-.68 4.1 1.7 5.98 2.9.45.53.86 1.09 1.23 1.68 1.31 2.91-1 4.72-2.12 6.88-2.05 3.95-4.08 7.91-5.39 12.19-7.58 21.16-9.45 43.49-13.6 65.35-2.01 10.56-3.51 21.26-6.67 31.61-5.34 5.73-3.56 11.82-.88 17.93 4.36 5.69 2.11 12.68 3.64 18.97 1.05 4.34 1.2 9.11-.03 13.48-1.27 4.53 1.74 8.54.78 12.88-.89.94-1.83 1.45-2.8 1.59-1.63.24-2.99-.63-3.52-.97-25.34-16.1-34.34-17.35-42.15-31.31-3.46-6.19-5.23-15.26-9.44-33.25-1.33-5.69-2.41-11.48-3.32-17.29-.1-1.88-.21-4.98-.08-8.8.51-13.9 3.84-23.72 10.31-42.26z"/><path class="st213" d="M165.32 172.14c3.67 9.06 3.44 17.81-1.81 26.3-1.56 2.53-2.52 5.43-4.11 7.94-3.56 5.62-4.45 11.07-1.19 17.35 2.5 4.82 2.19 10.36 1.19 15.68-2.21 11.73-4.56 23.44-9.21 34.5-3.58 8.5-5.99 22.11-11.6 49.01A858.048 858.048 0 00132 358c-1.22-4.14-2.76-9.85-4.11-16.75-1.02-5.21-3.4-19.62-3.37-35.8.02-11.47 2.86-22.83 5.4-34.11 3.85-17.1 4.95-34.7 9.09-51.75 1.49-6.12 2.78-12.3 5.05-18.2 2.26-6.9 4.93-13.61 9.64-19.29l-.02.06c.87-1.86.43-3.89.81-5.82 2.11-3.21 4.1-6.59 8.72-6.45.7.74 1.41 1.5 2.11 2.25z"/><path class="st0" d="M355.56 75.14c5.89-8.02 14.23-12.41 23.33-15.67 7.96.05 15.68 1.4 23.3 3.19 12.57 2.95 13.33 4.31 22.77 5.85 17.58 2.86 24.48-1.42 29.22 3.44 2.69 2.76 4.91 8.69.21 23.29l-98.8-17.43-.03-2.67z"/><path d="M441.65 74c-3.43 2.48-8.79.39-11.89-.76-10.98-4.1-27-9.03-50.88-13.76 6.95-2.78 14.8-5.47 23.48-7.77 14.22-3.78 27.2-5.59 38.23-6.37 2.04 6 7.64 23.9 1.06 28.66z" fill="#f7f7f7"/><path d="M455.64 87.5c.3 4.07-2.9 2.26-4.42 2.29-9.21.21-18.43.11-27.65.11 2.24-2.48 5.24-2.32 8.17-2.34 7.97-.04 15.93-.04 23.9-.06z" fill="#f2f2f2"/><path d="M386.43 100.54c-23.95 17.85-87.6 70.44-108.32 160.35-4.71 20.43-22.46 97.45 19.11 161.42 9.28 14.28 29.59 45.52 64.78 49.91 3.36.42 37.09 3.98 57.34-20.18 17.91-21.37 18.18-55.96-1.06-83.89 5.38 5.25 15.13 16.28 19.11 32.92 6.53 27.27-5.63 56.27-26.55 72.21-21.58 16.44-46.5 14.44-53.1 13.81-51.75-4.95-82.66-58.55-89.2-70.09-51.75-91.32-.02-198.01 8.5-215.57 11.27-23.25 33.08-66.71 80.71-90.27a147.94 147.94 0 0128.68-10.62z" fill="#fffbf1"/><path class="st217" d="M434.22 114.35c3.24 15.38 5.44 34.98 3.19 57.34-6.53 64.89-45.91 107.81-61.59 123.19l24.42 26.55c-5.17-30.52 1.22-47.43 8.5-57.34 2.48-3.38 3.03-3.18 9.56-10.62 4.8-5.47 19.46-22.19 28.67-39.29 7.6-14.1 18.54-34.41 13.81-58.41-4.2-21.21-18.6-35.01-26.56-41.42z"/><path class="st213" d="M481.8 242.15c1.25 1.48 2.13 2.76 2.63 3.51-5.42 6.04-14.94 18.31-19.41 36.47-4.12 16.71-1.94 30.16-.54 38.25 3.37 19.51 11.54 34.17 17.77 43.22-1.9 2.7-4.7 5.95-8.74 8.79-11.12 7.83-23.46 6.78-27.61 6.37-5.14-.51-9.45-1.84-12.74-3.19 3.49.51 8.69.91 14.87 0 4.76-.7 10.73-2.28 10.62-3.19-.14-1.21-10.86.78-24.42-3.19a61.123 61.123 0 01-8.5-3.19c3.7 1.09 9.77 2.31 16.99 1.06 2.88-.5 5.37-1.29 7.43-2.12a223.711 223.711 0 01-30.79-6.38c3.91.51 9.01.78 14.87 0 3.65-.48 6.86-1.27 9.56-2.12-4.96.1-10.69-.14-16.99-1.06-3.85-.56-7.4-1.3-10.62-2.12 2.57.78 8.32 2.11 14.87 0 2.68-.87 4.81-2.09 6.37-3.19-3.37.95-9.05 2.06-15.93 1.06a37.79 37.79 0 01-10.62-3.19c2.91.75 8.43 1.72 14.87 0 3.1-.83 5.59-2.07 7.43-3.19-3.49.75-11.73 1.99-20.18-2.12a28.386 28.386 0 01-6.37-4.25c1.91.7 12.27 4.3 19.11-1.06.72-.56 1.44-1.26 2.12-2.12-2.52.12-5.84-.03-9.56-1.06-8.6-2.39-13.81-8.02-15.93-10.62 2.58 1.49 7.38 3.8 13.81 4.25a31.9 31.9 0 0010.62-1.06c-2.36.18-8.42.34-14.87-3.19-6.35-3.47-9.48-8.54-10.62-10.62 4.09 4.32 11.06 10.11 19.11 9.56 2.65-.18 6.36-1.11 6.37-2.12.02-1.04-3.63-2.09-8.5-3.19-3.41-.77-7.96-3-12.74-9.56.67.83 5.35 6.47 12.74 6.37 3.4-.05 6.01-1.29 7.43-2.12-2.48-.62-5.4-1.6-8.5-3.19-6.95-3.56-11.36-8.44-13.81-11.68 1.16 1.21 6.1 6.09 13.81 6.37 4.39.16 7.79-1.23 9.56-2.12-1.92-.1-4.08-.4-6.37-1.06-9.31-2.68-14.77-9.54-16.99-12.74 2.8 2.35 7.49 5.52 13.81 6.37 4.34.58 9.39.07 9.56-1.06.15-1.03-3.88-1.98-8.5-4.25-6.24-3.07-10.72-7.16-13.81-10.62 1.97 1.63 5.16 3.84 9.56 5.31 6.44 2.15 12.03 1.57 14.87 1.06a34.88 34.88 0 01-8.5-4.25c-5.71-3.93-8.95-8.73-10.62-11.68 1.45 1.5 3.55 3.45 6.37 5.31 6.97 4.6 14.49 6.16 14.87 5.31.4-.91-7.85-3.35-13.81-11.68-2.26-3.16-3.52-6.24-4.25-8.5.86 1.51 5.24 8.87 13.81 10.62 2.95.6 5.54.37 7.43 0a236.54 236.54 0 01-16.99-18.05c1.16 1.55 6.6 8.49 15.93 9.56 4.05.47 7.42-.34 9.56-1.06a26.66 26.66 0 01-6.37-3.19c-7.94-5.4-10.75-13.64-11.68-16.99a26.03 26.03 0 008.5 7.43c5.33 2.91 10.33 3.2 12.74 3.19-2.09-1.24-5.39-3.61-7.91-7.66-4.95-7.98-3.84-17.63-2.71-17.83.79-.14 1.05 4.42 3.96 8.47 5.02 6.99 15.06 8.52 23.65 8.52-1.68-.81-13.21-6.64-15.46-18.79-.74-4.02-.26-7.54.38-10.06 1.02 3.49 2.45 5.88 3.44 7.32 7.59 10.96 20.2 9.66 30.56 21.93zM462.89 54.88c2.5-11.92 8.78-20.82 13.81-26.55a76.68 76.68 0 01-16.99-5.31c-15.07-6.73-24.62-16.89-29.73-23.36.51 3.15 2.31 11.52 9.56 18.05 3.01 2.71 6.1 4.33 8.5 5.31a65.079 65.079 0 01-16.1-8.1 65 65 0 01-9.79-8.34h-.4c1.45 3.75 3.99 8.7 8.45 13.35 2.41 2.51 4.85 4.39 6.99 5.78-1.62.32-4.49.65-7.72-.42-7.02-2.32-9.61-9.18-9.97-10.18 2.38 7.76 5.96 11.35 8.93 13.19 4.24 2.63 7.34 4.81 6.99 5.78-.34.95-4.15.62-6.72-.07-7.79-2.11-12.49-9.86-14.95-15.27.4 2.34 1.7 8.15 6.57 13.5a26.78 26.78 0 0013.01 7.86c-2.58-.17-6.29-.72-10.38-2.46-5.92-2.52-9.71-6.27-11.66-8.52 1.16 3.15 4.25 10.17 11.59 15.24 3.17 2.19 6.27 3.41 8.69 4.12-.93.6-1.84 1.02-2.7 1.31-8.22 2.84-16.84-3.95-18.42-5.23 1.08 1.89 2.57 4.03 4.64 6.09 6.65 6.64 14.84 8.16 18.38 8.59-2.11.46-4.86.81-8.07.59-6.65-.47-11.55-3.19-14.05-4.85a38.18 38.18 0 009 6.48c6.18 3.19 11.91 3.99 15.4 4.19-1.84.53-4.24.99-7.06.93-4.74-.1-8.59-1.62-11.23-3.07 2.02 1.24 4.19 2.48 6.53 3.69 5.65 2.92 10.99 5.02 15.71 6.55-2.83-.08-6.12-.38-9.73-1.11a56.822 56.822 0 01-14.05-4.85c3.43 2.38 7.1 4.78 11.01 7.17 5.55 3.39 10.92 6.33 16.03 8.9-2.22.12-4.83.05-7.72-.42-7.23-1.18-12.58-4.31-15.71-6.55a61.34 61.34 0 006.99 5.78c11.53 8.18 22.31 9.79 22.05 10.98-.2.89-6.35.44-11.08-.45a51.073 51.073 0 01-14.05-4.85c2.68 2.35 6.31 5.01 11.01 7.17 2.5 1.15 20.84 9.46 28.18 2.99 7.47-6.58-4.34-21.67.26-43.63z"/><path class="st217" d="M52.98 269.39c-12.23 8.56-34.09 26.76-45.66 57.34-12.84 33.94-5.85 64.2-1.06 84.96 6.69 28.99 18.85 50.59 27.61 63.72-6.51-8.43-37.79-50.77-30.8-110.44 6.46-55.06 41.14-87.76 49.91-95.58z"/><path d="M148.56 183.38c-1.3 1.45-3.19 3.63-5.31 6.37-29.44 38.06-27.57 85.55-26.55 111.5.59 15.07 2.73 36.02 9.56 60.53-8.54-40.44-14.4-104.24 16.99-164.6 3.32-6.38 6.88-12.39 10.62-18.05-1.77 1.41-3.54 2.83-5.31 4.25z" fill="#fc7798"/><path class="st217" d="M337.05 107.45c-12.23 3.18-31.72 6.55-54.16 2.12-40.37-7.96-61.82-35.52-80.71-25.49-9.17 4.87-14.18 16.71-16.99 23.36-3.85 9.11-4.49 16.71-5.31 27.61-.62 8.3-.84 19.96 1.06 33.98-1.82-7.65-8.9-40.97 10.62-65.84 4.38-5.58 9.88-12.58 19.11-14.87 19.19-4.74 32.13 16.44 56.28 25.49 14.71 5.51 36.96 7.8 70.1-6.36z"/></svg>