<svg version="1.1" id="Слой_1" xmlns="http://www.w3.org/2000/svg" x="0" y="0" viewBox="0 0 585 808" xml:space="preserve"><style>.st203{fill:#f2becd}.st204{fill:#d87290}.st205{fill:#574435}.st209{fill:#d63665}.st211{fill:#f64776}</style><path d="M583 701c.38-3.92.72-7.92 1-12a422.26 422.26 0 001-32c-25.93-11.85-60.28-32.1-91.29-66.5-32.62-36.18-47.18-72.13-57.06-96.29a393.308 393.308 0 01-23.11-79.78c-2.91-22.57-5.83-45.15-8.74-67.72 3.68-.08 9.21-.71 14.84-3.68 15.89-8.38 19.73-28.66 22.76-44.69 1.48-7.82 4.01-21.41.72-38.58-2.71-14.11-7.55-27.39-18.86-37.09-8.96-7.69-18.41-6.61-25.92 2.51-5.77 7-8.98 15.29-11.58 23.82-1.67 5.48-3.01 11.07-4.57 16.87-2.4-1.71-2.88-3.97-3.84-5.88-9.86-19.71-20.07-39.2-33.55-56.76-7.49-9.75-16.19-17.81-28.01-22.36-7.87-3.03-15.33-7.17-22.38-11.92-1.78-.8-3.56-1.59-5.83-2.61v.36c-1.95-1.46-4.05-2.91-6.26-4.44-2.43-1.68-5.01-3.2-5.01-3.2-1.94-1.04-3.92-2.02-5.83-3.14-18.28-10.69-36.26-21.93-55.53-30.85-9.93-4.6-16.54-4.66-19.39-4.95-8.19-.83-15.06.02-19.76.94 9.25 4.01 16.58 7.59 21.29 9.97 37.36 18.83 49.03 31.95 68.86 38.51 4.41 1.46 3.41 1.13 4.96 1.81 0 0 41.7 18.29 46.85 126.75.02.53.2 4.68.74 10.36.13 1.33.27 2.72.45 4.23.47 3.99 2.65 21.3 10.67 46.62 2.61 8.24 2.78 7.53 4.35 13.22 2.9 10.48 6.3 20.82 5.76 32.02-.71 14.76-3.21 29.1-6.89 43.43-5.07 19.74-11.17 39.08-18.79 57.96-3.48 8.63-6.77 17.35-10.77 27.63 9.64-5.48 17.35-10.79 26.65-13.26 11.23-2.98 22.45-5.43 34.01-4.09 4.98.58 9.46 1.81 13.42 4.45 4.28 2.86 6.52 6.37 7.12 7.26 11.45 16.95 93.92 85.16 93.92 85.16 16.67 13.69 21.32 18.38 29.64 25.37 2.35 1.97 4.49 3.71 6.34 5.19 3.58 2.86 6.25 4.89 6.62 5.17 3.74 2.83 19.41 16.11 61 52.18zM418.66 231.36c3.5-1.8 6.8-.43 8.25 2.73 4.62 10.06 7.86 20.61 9.43 31.61.06.42-.51.94-.89 1.59-3.89-5.84-7.59-11.5-11.38-17.1-5.98-8.85-8.75-9.32-17.64-3.17-1.23.85-2.16 2.39-5.18 2.05 5.9-6.59 9.88-13.83 17.41-17.71zm-20.8 31.26c-.54-4.16 2.84-4.15 5.79-4.1 4.66-.04 8.65 1.41 11.83 5.01 3.37 3.81 6.02 8.08 8.55 12.45 2.76 4.78 1.38 8.74-3.02 11.37-3.53 2.12-6.61 4.59-9.24 7.69-3.08 3.65-6.29 2.54-7.46-1.09-3.3-10.16-5.08-20.73-6.45-31.33z" fill="#ea90a7"/><path d="M68.85 432.22l.06-.05-.06.05z" fill="#93693d"/><path class="st203" d="M88.93 377.54c3.99 8.15 5.01 17.6 11.05 24.82 1.72 2.06 2.95 4.32 6 4.31 4.65-21.22 7.54-42.68 9.87-65.41-8.68 5.28-13.11 12.2-15.99 20.37-1.04 2.94-1.84 6.26-7.22 5.92 3.66-1.77 4.57-4.29 5.34-7.08 2.47-8.88 7.22-16.24 15.31-20.99 2.19-1.28 3.08-2.81 3.29-5.24 1.41-16.31 3.05-32.6 3.04-48.99 2.53-48.4.31-96.68-3.45-144.93-.3-3.91-1.77-3.86-4.94-3.26-11.02 2.09-20.58 6.91-29.04 14.19-19.09 16.42-32.52 27.15-38.47 46.59-1.8 5.87-3.81 15.37-2.53 27.84 2.15 27.94 6.49 55.38 18.79 81.65 5.92-6.83 13.47-10.14 21.09-13.32 7.34-2.21 14.65-4.57 22.05-6.58 5.52-1.5 12.8 3.83 14.4 10.16 1.52 5.99-.44 8.41-8.29 10.45-11.34 2.95-22.76 5.8-33.41 10.76-16.38 7.62-15.37 8.37-7.66 23.22 2.87 5.53 7.7 9.93 9.35 16.17 4.2 6.21 8.07 12.51 11.42 19.35z"/><path class="st203" d="M482 612c-10.95-7.84-31.25-22.48-54-43-25.19-22.71-37.78-34.07-42.49-41.07-.64-.96-2.88-4.43-7.12-7.26-3.96-2.65-8.45-3.88-13.42-4.45-11.56-1.34-22.78 1.11-34.01 4.09-9.3 2.47-17.01 7.78-26.65 13.26 4-10.28 7.29-19 10.77-27.63 7.62-18.88 13.71-38.22 18.79-57.96 3.68-14.32 6.18-28.66 6.89-43.43.54-11.2-2.86-21.54-5.76-32.02-1.89-6.84-3.8-11.73-4.35-13.22-8.01-21.58-9.81-50.66-17.47-91.02-7.37-38.82-15.92-65.77-22.73-84.44-.52-1.43-.96-2.62-1.26-3.41-3.52.39-5.51-2.37-7.82-4.11-24.43-18.38-50.3-34.29-77.89-47.55-5.28-2.54-11.72-3.31-15.78-8.29-1.22.05-2.44.1-3.66.16-1.26.18-2.53.35-3.79.53-10.8.65-21.25 3.13-31.62 6.04-.31.08-.61.15-.92.23-8.58 2.24-17.12 4.65-25.76 6.64-3.48.8-3.91 2.6-3.48 5.6.77 5.4 1.31 10.83 1.91 16.25 1.63 14.67 6.77 97.77 4.66 149.63-.88 21.65-2.59 37.74-3.04 41.88-.23 2.09-.58 6.69-1.75 14.39-2.66 17.49-5.41 34.98-8.13 52.46.12 3.01.35 6.03.33 9.04 0 0 .41 3.34 1.24 6.6 1.42 5.58 9.2 18.22 23.19 31.76 1.45 1.98 3.59 4.85 6.28 8.23 16.98 21.29 38.38 43.59 66.92 58.65 15.89 8.39 34.87 10.51 34.65 17.19 0 .08 0 .18-.02.32 0 0-.2 2.17-2.59 4.15-20.32 16.84-47.94 22.19-47.94 22.19-38.75 7.51-58.35 11.52-71.85 18.98-7.67 4.24-18.14 11-29.15 21.57-.35.34-3.06 2.94-4.94 4.97C75.21 632.12 71.42 652.76 70 664c-2.9 22.96-4.57 75.06-.42 144.08h402.63c11.66-1.48 37.66-6.4 62.95-26.23 5.47-4.29 29.26-23.68 41.97-59.02 7.35-20.44 8.21-38.49 7.87-49.84-44.02-21.26-78.32-43.3-103-60.99zM133.49 428.62c.03-.16.03-.33.11-.46.05-.08.22-.07.34-.1.05.15.09.3.14.44-.21.03-.4.08-.59.12zm90.48-153.25c12.18-12.37 27.6-14.51 43.89-13.93 2.79.1 5.59-.01 8.39-.02 3.53-.97 7.05-1.94 11.96-3.29-4.19 3.75-7.86 4.89-11.85 5.26-5.91 1.53-11.96.43-17.95.86-12.8.93-24.24 4.85-34 13.33-3.68 4.14-6.9 8.61-9.77 13.37 1.48-6.18 4.48-11.43 9.33-15.58zm-39.22-6.21c.5.96.85 1.77 1.07 2.29-.72-.81-1.03-1.57-1.07-2.29zm103.93 169.56c-6.95 29.59-22.71 52.26-50.43 65.98-16.46 8.15-28.83 3.55-36.2-14.31-1.38-3.34-2.98-4.88-6.48-5.79-10.46-2.71-14.73-9.64-13.99-21.59.67-10.81 6.66-18.56 16.17-19.82 5.19-.69 8.86-2.64 12.94-6.18 8.37-7.25 19.04-9.25 30.08-8.72 14.97.62 29.69 3.28 44.48 5.34 3.33.47 4.27 1.49 3.43 5.09z"/><path class="st204" d="M528.28 688.35c-6.09 2.93-19.01 9.64-35.81 23.66-37.51 31.32-63.08 73.37-75.47 95.99h-26c9.4-22.62 25.24-52.11 52.07-80.36 15.13-15.92 42.17-43.75 86.97-59.49 22.15-7.78 41.66-10.16 54.96-10.9v15.74c-13.45 1.14-34.15 4.49-56.72 15.36z"/><path class="st205" d="M429.27 126.08l.22-.13-.25.2z"/><path d="M184.06 120.64c-1.18.78-2.46.81-3.79.53 1.27-.17 2.53-.35 3.79-.53z" fill="#caa57c"/><path class="st205" d="M125.75 334.94c.58-.08 1.15-.16 1.73-.23-.58.07-1.15.15-1.73.23z"/><path d="M163.51 620.47c-.44-.03-.88-.05-1.32-.08l-.66-3.02c.26-.22.54-.43.81-.64 1.1 1.03 2.19 2.06 1.17 3.74z" fill="#641f1e"/><path d="M240.78 428.28c14.97.63 29.68 3.28 44.47 5.35 3.33.47 4.27 1.49 3.42 5.09-6.95 29.59-22.71 52.26-50.43 65.98-16.46 8.15-28.83 3.55-36.2-14.31-1.38-3.34-2.98-4.88-6.48-5.79-10.46-2.71-14.73-9.64-13.99-21.59.67-10.81 6.66-18.56 16.17-19.82 5.19-.69 8.86-2.64 12.94-6.18 8.39-7.26 19.06-9.25 30.1-8.73zm-30.5 47.8c4.84.88 7.85-2.51 11.54-3.77 10.92-3.75 20.36-10.49 30.54-15.74 1.27-.65 3.46-1.55 2.58-3.5-.95-2.12-2.82-.72-4.18-.12-3.57 1.57-7.23 2.55-11.14 2.38-15.05-.68-22.92 8.69-29.34 20.75z" fill="#e16c8d"/><path class="st204" d="M316.78 639.98c16.41-33.89 32.14-66.37 47.8-98.7 2.22.66 2.33 1.69 2.35 2.69.59 24.23-3.24 47.42-15.91 68.6-8 13.38-15.99 20.1-34.24 27.41zM207.26 571.9c-18.06 12.53-31.29 26.34-44.92 43.39-25.52 31.91-45.9 57.4-60.06 98.02-6.97 19.99-15.58 52.68-14.32 94.77 11.69-.03 23.37-.06 35.06-.08-5.4-23.3-10.94-63.05 2.79-107.64 1.57-5.11 5.5-17.09 14.23-34.18 12.84-25.14 38.8-66.65 91.16-108.42-6 2.97-14.46 7.56-23.94 14.14z"/><path class="st209" d="M271.52 689.61c-8.81-12.27-19.31-29.68-27.19-52.12-11.63-33.1-12.36-62.31-11.33-80.64.69 20.45 3.83 47.98 14.04 78.82a280.189 280.189 0 0024.48 53.94z"/><path d="M322.89 372.59l.24-8.22c.77 2.77.94 5.51-.24 8.22z" fill="#dfb88b"/><path class="st204" d="M403.64 258.51c4.67-.04 8.65 1.42 11.84 5.02 3.37 3.81 6.02 8.08 8.55 12.45 2.76 4.78 1.38 8.74-3.02 11.37-3.53 2.12-6.61 4.59-9.24 7.69-3.08 3.65-6.29 2.54-7.46-1.09-3.3-10.17-5.08-20.74-6.45-31.34-.54-4.15 2.83-4.14 5.78-4.1zm-2.37-9.45c5.88-6.58 9.86-13.83 17.4-17.71 3.5-1.8 6.8-.43 8.25 2.73 4.62 10.06 7.86 20.61 9.43 31.61.06.42-.51.94-.89 1.59-3.89-5.84-7.59-11.5-11.38-17.1-5.98-8.85-8.75-9.32-17.64-3.17-1.23.86-2.15 2.4-5.17 2.05z"/><path class="st211" d="M204.46 525.14c-2.46 2.22-7.24 5.91-14.25 7.68-11.76 2.98-21.42-1.54-24.13-2.92-3.62-1.38-15.21-6.33-22.71-19.09-7.46-12.69-6.14-25.11-5.62-29.47.71-5.93 2.39-10.65 3.73-13.74a51.08 51.08 0 00-.25 14.3c2.6 20.83 19 44.3 41.56 47.02 4.15.51 11.87.69 21.67-3.78z"/><path class="st205" d="M320.67 373.83c.06-.56.11-1.12.17-1.68-.06.56-.11 1.12-.17 1.68z"/><path class="st204" d="M457.61 251.1c-.14-.38-.27-.75-.41-1.13-3.4-15.45-8.95-30.15-15.12-44.68a122.43 122.43 0 00-10.51-19.59c-3.95-3.73-6.42-7.21.65-10.43 1.91-.87 3.46-2.78 4.89-4.46 4.5-5.29 3.83-10.41-1.87-14.43-3.66-2.59-7.75-4.36-12.13-5.31-3.86-.84-7.24-2.43-9.9-5.4l-2.31-2.16c-2.46-3.2-4.73-6.53-6-10.38-3.54-10.7-8.06-20.96-13.41-30.86-3.3-4.04-6.31-8.36-9.96-12.06-6.97-7.06-15.23-10.38-25.23-7.06-1.01.33-2.2.95-3.05.49-.66-.36-.82-1.19-.87-1.4-.3-1.24-8.46-32.61-23.21-44.88-6.88-5.72-19.25-11.68-23.48-11.87-2.56-.11-4.52-1.44-6.59-2.63-1.51-1.04-3.02-2.07-4.53-3.1C274.28 8.68 252.62 2.08 229.53.4c-26.95-1.97-52.48 3.28-75.23 17.93-8.79 5.67-17.78 10.76-26.95 15.64-5.13 3.41-10.26 6.81-15.39 10.22l-.19-.25.14.28c-6.5 7.12-13.54 13.42-22.22 18.02-5.78 3.06-11.51 6.82-13.94 13.62-.7 1.96-2.99 2.15-3.82 2.7-16.49 10.99-30.48 16.07-43.13 27.26-6.81 6.03-10.02 9.14-12.75 14.51-6.19 12.17-11.75 24.65-4.75 38.52.99 1.95-.09 3.48-.42 5.22-1.25 6.48-1.06 12.72 5.04 16.82 2.76 1.85 2.19 3.91 1.72 6.28-2.15 10.7-4.5 21.37-6.41 32.11-3.62 20.3-8.54 40.67-7.13 61.32 1.82 26.67 1.84 53.36 3.03 80.02.59 13.33.63 26.83 3.92 39.8 6.28 24.8 9.42 50.04 11.92 75.41l1.8-.06c-.18-21.3-1.07-38.39-1.75-49.04-6.27-98.32-25.72-143.7-1.56-196.96 3.36-7.41 6.69-13.05 8.56-16.06 0 8.59-.21 16.78.07 24.96.21 5.88.97 12.03 4.94 16.59 6.43 7.38 8.27 16.04 8.47 25.3.22 9.9-.6 19.89.38 29.71 1.7 17.02 2.58 34.55 15.97 47.79.77.76.94 2.2 1.25 3.37 5.28 19.96 10.29 40.03 11.58 60.68 1.42 22.61 2.5 45.24 6.05 67.64.69 4.35.44 8.22-1.52 12.26-9.44 19.46-18.69 39-27.99 58.53-14.08 29.56-28.43 58.99-41.4 89.06.83-.02 1.67-.04 2.5-.05 23.33-46.32 46.66-92.64 69.98-138.95 3.77 19.67 6.03 39.05 5.75 58.68-.21 14.97.29 29.87 7.16 43.7 3.46 3.18 6.93 6.37 11.31 10.39-1.54-6.9-5.97-11.53-6.53-17.51-1.08-6.22-1.98-13.01-2.51-20.32-.89-12.26-.59-23.36.26-32.98-.02-20.98.93-42-3.68-62.72-.61-2.73-.77-5.5.29-8.33 7.76-20.82 13.74-42.17 18.59-63.85.26-1.15.8-2.23 1.21-3.35 2.72-17.49 5.47-34.97 8.13-52.46.73-4.78 1.25-9.59 1.75-14.39 1.06-10.13 1.03-10.14 11.07-11.37 10.9.8 13.33.56 13.38.16.08-.56-4.41-2.09-9.06-2.27-2.25-.08-7.65.04-9.94.74-.2.06-.86.27-1.73.23-.96-.04-1.72-.38-2.17-.62.8-12.38 1.24-22.4 1.49-28.76 2.66-68.32-3.21-136.54-4.66-149.63-.6-5.42-1.14-10.85-1.91-16.25-.43-3.01 0-4.8 3.48-5.6 8.64-1.99 17.18-4.4 25.76-6.64.25-.29.56-.37.92-.23 10.37-2.9 20.82-5.38 31.62-6.04 1.26-.18 2.53-.35 3.79-.53 1.22-.05 2.44-.1 3.66-.16 9.88-1.31 19.24.4 28.26 4.58 10.7 4.95 20.99 10.62 31.16 16.51 20.1 11.64 21.22 12.23 24.37 14.35 18.13 12.23 24.88 45.19 37.64 110.59.38 1.94 6.82 33.09 9.89 68.1.9 10.32 1.4 19.04 1.69 25.4-.4 12.31-.8 24.62-1.19 36.93.46-2.37 2.92-15.19 3.36-24.35.18-3.67.24-8.22.24-8.22s.05-3.79-.01-7.67c-.66-42.23-12.12-99.43-12.12-99.43A955.218 955.218 0 00294.4 188l-.13-.28.27-.14-5.91-21.24c2.26 1.01 4.05 1.81 5.83 2.61 7.05 4.74 14.51 8.89 22.38 11.92 11.82 4.55 20.52 12.6 28.01 22.36 13.48 17.56 23.69 37.05 33.55 56.76.96 1.91 1.44 4.17 3.84 5.88 1.56-5.8 2.9-11.38 4.57-16.87 2.59-8.54 5.81-16.83 11.58-23.82 7.51-9.11 16.96-10.2 25.92-2.51 11.31 9.71 16.15 22.98 18.86 37.09 5.51 28.7-1.76 53.98-21.04 75.85 4.39 11.88 3.3 24.27 3.37 36.55.01 2.34-.86 4.89 1.21 6.89 7.78-7.22 28.34-28.22 35.61-62.72 6.37-30.43-.99-55.01-4.71-65.23zm-337.98 34.14c.02 16.39-1.63 32.68-3.04 48.99-.21 2.43-1.11 3.96-3.29 5.24-8.09 4.75-12.85 12.1-15.31 20.99-.77 2.79-1.68 5.31-5.34 7.08 5.38.34 6.19-2.98 7.22-5.92 2.88-8.17 7.31-15.08 15.99-20.37-2.33 22.73-5.22 44.2-9.87 65.41-3.69 20.49-9.19 40.51-16.74 60.31-.91-10.3-2.3-20.58-2.63-30.9-.75-23.77-5.64-46.92-9.58-70.22-.43-2.57-1.08-5.21.49-7.68-1.65-6.24-6.48-10.64-9.35-16.17-7.71-14.85-8.72-15.6 7.66-23.22 10.65-4.95 22.07-7.81 33.41-10.76 7.85-2.04 9.81-4.46 8.29-10.45-1.6-6.33-8.88-11.65-14.4-10.16-7.4 2-14.7 4.37-22.05 6.58-7.62 3.19-15.17 6.49-21.09 13.32-12.3-26.27-16.64-53.7-18.79-81.65-.7-7.26-1.46-14.51-.03-21.77.84-2.03 1.43-4.22 2.56-6.07 10.61-17.35 22.97-33.26 38.47-46.59 8.46-7.28 18.02-12.1 29.04-14.19 3.17-.6 4.63-.65 4.94 3.26 3.75 48.26 5.97 96.54 3.44 144.94z"/><path class="st204" d="M197.5 246.68c-5.26 5.82-10.48 11.67-15.79 17.45-3.66 3.98-6.66 6.02-9.75 6.17-4.85.24-8.68-3.56-10.6-5.46-4.23-4.19-5.73-9.08-6.31-11.72l13.07-16.46c.31-.02.46-.19.43-.51 2.8-3.06 5.6-6.11 8.41-9.17 1.17-1.23 2.34-2.47 3.51-3.7 5.37-6.37 11.7-11.7 18.29-16.73 13.8-10.55 29.26-14.05 46.31-11 12.01 2.15 23.47 5.95 34.53 11.02 1.82.83 5.02 1.79.41 3.5-13.7-2.63-27.45-3.05-41.27-1.03l-2.6.57c-5.03.49-8.43 3.59-11.54 7.17-.26.01-.41.14-.45.41-6.93 5.68-12.74 12.41-18.18 19.47l-.01.02-1.68 1.98-.13.09-4.35 5.16c-.76.92-1.53 1.84-2.3 2.77zm78.86 16.71c-5.91 1.53-11.96.43-17.95.86-12.8.93-24.24 4.85-33.99 13.33-.15-.74-.3-1.47-.45-2.2 12.18-12.37 27.6-14.51 43.89-13.93 2.79.1 5.59-.01 8.39-.02.03.65.07 1.3.11 1.96z"/><path class="st204" d="M223.97 275.37l.45 2.2c-3.68 4.14-6.9 8.61-9.77 13.37 1.47-6.17 4.47-11.42 9.32-15.57zm52.39-11.98c-.04-.65-.07-1.31-.11-1.96 3.53-.97 7.05-1.94 11.96-3.29-4.19 3.74-7.86 4.88-11.85 5.25zM418.35 340c2.31 3.24 1.43 6.97 1.35 10.45-.31 12.6-.92 25.2-1.41 37.8-4.78 2.84-6.52 8.96-11.97 11.08-3.4-15.98-2.12-32.22-2.57-48.36-.09-3.28.46-5.47 4.62-4.96 4.72.59 6.94-3.51 9.98-6.01z"/><path class="st203" d="M210.28 476.08c6.42-12.07 14.29-21.43 29.34-20.75 3.92.18 7.58-.81 11.14-2.38 1.36-.6 3.23-2 4.18.12.87 1.95-1.31 2.85-2.58 3.5-10.19 5.24-19.63 11.98-30.54 15.74-3.69 1.26-6.7 4.66-11.54 3.77z"/><path class="st211" d="M407.85 414.84c-4-1.46-5.8-5.07-6.23-6.03 1.09.6 4.29 2.15 8.06 1.26 0 0 2.09-.49 3.88-1.84 5.14-3.86 4.82-16.14 4.73-19.98-.75-31.86 1.24-38.52-4.53-52.48-.91-2.21-1.76-3.98-2.34-5.14.57-.41 2.41-1.78 4.69-1.32 1.83.37 3.42 2.27 5.98 6.28 3.2 15.24 3.62 27.81 3.37 36.55-.09 3.01-.43 6.74-1.12 14.21-1.97 21.34-3.61 25.23-6.84 27.33-2.49 1.63-6.24 2.41-9.65 1.16z"/><path class="st204" d="M332.21 508.38c9.21-7.13 20.39-17.18 31.26-30.81a184.686 184.686 0 0025.82-43.49c-3 9.66-8.14 22.42-17.21 35.79-13.52 19.92-29.52 31.96-39.87 38.51"/><path class="st209" d="M282.93 702.54c.52 2.18 1.9 8.42-.84 15.43-1.19 3.05-3.08 5.89-5.73 8.49-9.12 8.95-22.29 5.81-26.76-6.21-3.37-9.06-.27-17.13.21-18.15 4.65-9.96 17.47-16.93 25.32-12.97 5.24 2.64 6.85 9.43 7.8 13.41z"/><path class="st209" d="M279.21 692.76a291.47 291.47 0 0090.6-40.77c36.04-24.36 59.35-51.89 72.94-70.67-10.59 17.35-28.91 42.51-58.44 65.23-41.17 31.69-82.8 42.24-105.1 46.21z"/></svg>