<?xml version="1.0" encoding="utf-8"?>
<!-- Generator: Adobe Illustrator 24.2.3, SVG Export Plug-In . SVG Version: 6.00 Build 0)  -->
<svg version="1.1" id="Слой_1" xmlns="http://www.w3.org/2000/svg" xmlns:xlink="http://www.w3.org/1999/xlink" x="0px" y="0px"
	 viewBox="0 0 585 499" style="enable-background:new 0 0 585 499;" xml:space="preserve">
<style type="text/css">
	.st0{fill:#FFC9D7;}
	.st1{clip-path:url(#SVGID_2_);fill:#EA90A7;}
	.st2{clip-path:url(#SVGID_2_);fill:#FFEBF2;}
	.st3{clip-path:url(#SVGID_2_);fill:#D3CFB3;}
	.st4{clip-path:url(#SVGID_2_);fill:#FCDDE6;}
	.st5{clip-path:url(#SVGID_2_);}
	.st6{fill:#FFEBF2;}
	.st7{fill:#EA90A7;}
	.st8{fill:#F2CCC1;}
	.st9{fill:#DF4E50;}
	.st10{clip-path:url(#SVGID_2_);fill:#FFC9D7;}
	.st11{fill:#FCDDE6;}
	.st12{fill:#FFC5C4;}
	.st13{fill:#FC7798;}
	.st14{fill:#FFFFFF;}
	.st15{fill:#F17171;}
	.st16{fill:url(#SVGID_3_);}
	.st17{fill:#AED9C4;}
	.st18{fill:none;stroke:#FFFFFF;stroke-miterlimit:10;}
	.st19{fill:#A3CCAC;}
	.st20{fill:#97CEA2;}
	.st21{opacity:0.76;}
	.st22{fill:#C5EACE;}
	.st23{fill:url(#SVGID_4_);}
	.st24{fill:url(#SVGID_5_);}
	.st25{fill:#F7E7BF;}
	.st26{fill:url(#SVGID_6_);}
	.st27{fill:url(#SVGID_7_);}
	.st28{fill:url(#SVGID_8_);}
	.st29{fill:#E5EFC5;}
	.st30{fill:#F0FCD3;}
	.st31{fill:url(#SVGID_9_);}
	.st32{fill:url(#SVGID_10_);}
	.st33{fill:url(#SVGID_11_);}
	.st34{fill:url(#SVGID_12_);}
	.st35{fill:#FFE594;}
	.st36{clip-path:url(#SVGID_14_);fill:url(#SVGID_15_);}
	.st37{fill:#5B2A1E;}
	.st38{fill:#917673;}
	.st39{fill:url(#SVGID_16_);}
	.st40{fill:url(#SVGID_17_);}
	.st41{fill:url(#SVGID_18_);}
	.st42{fill:url(#SVGID_19_);}
	.st43{fill:#EF8FC7;}
	.st44{opacity:0.62;clip-path:url(#SVGID_21_);fill:#FFFFFF;}
	.st45{opacity:0.75;clip-path:url(#SVGID_21_);fill:#FFFFFF;}
	.st46{opacity:0.41;clip-path:url(#SVGID_21_);fill:#FFFFFF;}
	.st47{clip-path:url(#SVGID_21_);fill:none;}
	.st48{clip-path:url(#SVGID_23_);}
	.st49{opacity:0.26;fill:#FFFFFF;}
	.st50{opacity:0.69;fill:#FFFFFF;}
	.st51{fill:none;}
	.st52{opacity:0.16;fill:#FFFFFF;}
	.st53{opacity:0.3;fill:#FFFFFF;}
	.st54{opacity:0.23;fill:#FFFFFF;}
	.st55{opacity:0.24;fill:#FFFFFF;}
	.st56{opacity:0.17;}
	.st57{opacity:0.05;fill:#E3E9E5;}
	.st58{clip-path:url(#SVGID_25_);}
	.st59{opacity:0.76;clip-path:url(#SVGID_25_);fill:#FFFFFF;}
	.st60{clip-path:url(#SVGID_25_);fill:url(#SVGID_26_);}
	.st61{clip-path:url(#SVGID_25_);fill:none;stroke:#FFFFFF;stroke-width:2;stroke-linecap:round;stroke-miterlimit:10;}
	.st62{clip-path:url(#SVGID_25_);fill:url(#SVGID_27_);}
	.st63{clip-path:url(#SVGID_25_);fill:url(#SVGID_28_);}
	.st64{clip-path:url(#SVGID_25_);fill:url(#SVGID_29_);}
	.st65{clip-path:url(#SVGID_25_);fill:url(#SVGID_30_);}
	.st66{clip-path:url(#SVGID_25_);fill:#FFFFFF;}
	.st67{clip-path:url(#SVGID_25_);fill:url(#SVGID_31_);}
	.st68{opacity:0.62;clip-path:url(#SVGID_33_);fill:#FFFFFF;}
	.st69{clip-path:url(#SVGID_33_);fill:#FFFFFF;}
	.st70{opacity:0.41;clip-path:url(#SVGID_33_);fill:#FFFFFF;}
	.st71{clip-path:url(#SVGID_33_);fill:none;}
	.st72{clip-path:url(#SVGID_35_);}
	.st73{fill:url(#SVGID_36_);}
	.st74{opacity:0.74;clip-path:url(#SVGID_38_);fill:url(#SVGID_39_);}
	.st75{fill:#E6E6E6;}
	.st76{fill:none;stroke:#4D4D4D;stroke-width:0.75;stroke-linecap:round;stroke-miterlimit:10;}
	.st77{fill:url(#SVGID_40_);}
	.st78{opacity:0.74;fill:url(#SVGID_41_);}
	.st79{opacity:0.74;fill:url(#SVGID_42_);}
	.st80{opacity:0.74;fill:url(#SVGID_43_);}
	.st81{opacity:0.74;fill:url(#SVGID_44_);}
	.st82{fill:url(#SVGID_45_);}
	.st83{opacity:0.66;}
	.st84{opacity:0.37;fill:#FFFFFF;}
	.st85{fill:url(#SVGID_46_);}
	.st86{fill:url(#SVGID_47_);}
	.st87{opacity:0.44;clip-path:url(#SVGID_49_);fill:#FFFDDD;}
	.st88{opacity:0.43;clip-path:url(#SVGID_51_);fill:#FFFFFF;}
	.st89{clip-path:url(#SVGID_51_);fill:none;stroke:#FFFFFF;stroke-miterlimit:10;}
	.st90{opacity:0.76;clip-path:url(#SVGID_51_);fill:#FFFFFF;}
	.st91{clip-path:url(#SVGID_51_);fill:#FFFFFF;}
	.st92{opacity:0.08;clip-path:url(#SVGID_51_);fill:#FFFFFF;}
	.st93{opacity:0.27;clip-path:url(#SVGID_51_);fill:#FFFFFF;}
	.st94{opacity:0.37;clip-path:url(#SVGID_51_);fill:#FFFFFF;}
	.st95{clip-path:url(#SVGID_51_);fill:none;}
	.st96{fill:url(#SVGID_52_);}
	.st97{opacity:0.62;clip-path:url(#SVGID_54_);fill:#FFFFFF;}
	.st98{clip-path:url(#SVGID_54_);fill:#FFFFFF;}
	.st99{opacity:0.41;clip-path:url(#SVGID_54_);fill:#FFFFFF;}
	.st100{clip-path:url(#SVGID_54_);fill:none;}
	.st101{clip-path:url(#SVGID_56_);}
	.st102{opacity:0.55;fill:url(#SVGID_57_);}
	.st103{fill:url(#SVGID_58_);}
	.st104{fill:url(#SVGID_59_);}
	.st105{opacity:0.28;}
	.st106{opacity:0.56;clip-path:url(#SVGID_61_);fill:#FFFFFF;}
	.st107{opacity:0.43;clip-path:url(#SVGID_63_);fill:#FFFFFF;}
	.st108{clip-path:url(#SVGID_63_);fill:none;stroke:#FFFFFF;stroke-miterlimit:10;}
	.st109{opacity:0.76;clip-path:url(#SVGID_63_);fill:#FFFFFF;}
	.st110{clip-path:url(#SVGID_63_);fill:#FFFFFF;}
	.st111{opacity:0.08;clip-path:url(#SVGID_63_);fill:#FFFFFF;}
	.st112{opacity:0.27;clip-path:url(#SVGID_63_);fill:#FFFFFF;}
	.st113{opacity:0.37;clip-path:url(#SVGID_63_);fill:#FFFFFF;}
	.st114{clip-path:url(#SVGID_63_);fill:none;}
	.st115{clip-path:url(#SVGID_65_);fill:none;}
	.st116{opacity:0.46;}
	.st117{opacity:0.86;fill:#FFFFFF;}
	.st118{opacity:0.4;}
	.st119{opacity:0.73;fill:#FFFFFF;}
	.st120{opacity:0.54;clip-path:url(#SVGID_67_);fill:#FFFFFF;}
	.st121{fill:#F79291;}
	.st122{opacity:0.75;fill:#FFFFFF;}
	.st123{fill:#FFC28E;}
	.st124{clip-path:url(#SVGID_69_);fill:#FFE0C3;}
	.st125{clip-path:url(#SVGID_69_);fill:#FF9F36;}
	.st126{clip-path:url(#SVGID_69_);fill:#FFF3E2;}
	.st127{clip-path:url(#SVGID_71_);fill:#FAC1E3;}
	.st128{opacity:0.8;clip-path:url(#SVGID_71_);fill:#EF8FC7;}
	.st129{clip-path:url(#SVGID_71_);fill:#EF8FC7;}
	.st130{opacity:0.79;clip-path:url(#SVGID_71_);fill:#FAC1E3;}
	.st131{fill:#FFFDEC;}
	.st132{fill:#78CB99;}
	.st133{fill:#B2E1C4;}
	.st134{fill:#D8EFE2;}
	.st135{opacity:0.44;fill:#FFFFFF;}
	.st136{clip-path:url(#SVGID_73_);fill:#FFF7C8;}
	.st137{opacity:0.86;fill:#FFD0D7;}
	.st138{opacity:0.62;clip-path:url(#SVGID_75_);fill:#FFFFFF;}
	.st139{opacity:0.75;clip-path:url(#SVGID_75_);fill:#FFFFFF;}
	.st140{opacity:0.41;clip-path:url(#SVGID_75_);fill:#FFFFFF;}
	.st141{clip-path:url(#SVGID_75_);fill:none;}
	.st142{clip-path:url(#SVGID_77_);}
	.st143{opacity:0.44;clip-path:url(#SVGID_79_);fill:#FFFFFF;}
	.st144{opacity:0.43;clip-path:url(#SVGID_81_);fill:#FFFFFF;}
	.st145{clip-path:url(#SVGID_81_);fill:none;stroke:#FFFFFF;stroke-miterlimit:10;}
	.st146{opacity:0.76;clip-path:url(#SVGID_81_);fill:#FFFFFF;}
	.st147{clip-path:url(#SVGID_81_);fill:#FFFFFF;}
	.st148{opacity:0.08;clip-path:url(#SVGID_81_);fill:#FFFFFF;}
	.st149{opacity:0.27;clip-path:url(#SVGID_81_);fill:#FFFFFF;}
	.st150{opacity:0.37;clip-path:url(#SVGID_81_);fill:#FFFFFF;}
	.st151{clip-path:url(#SVGID_81_);fill:none;}
	.st152{opacity:0.54;clip-path:url(#SVGID_83_);fill:#FFFFFF;}
	.st153{opacity:0.62;fill:#FFFFFF;}
	.st154{opacity:0.41;fill:#FFFFFF;}
	.st155{opacity:0.43;fill:#FFFFFF;}
	.st156{opacity:0.76;fill:#FFFFFF;}
	.st157{opacity:0.08;fill:#FFFFFF;}
	.st158{opacity:0.27;fill:#FFFFFF;}
	.st159{opacity:0.54;fill:#FFFFFF;}
	.st160{clip-path:url(#SVGID_85_);fill:#F17171;}
	.st161{clip-path:url(#SVGID_85_);fill:#F79291;}
	.st162{clip-path:url(#SVGID_85_);fill:#FFC5C4;}
	.st163{clip-path:url(#SVGID_85_);fill:#FFFFFF;}
	.st164{clip-path:url(#SVGID_87_);fill:#E2EAFD;}
	.st165{clip-path:url(#SVGID_87_);fill:#EEF3FE;}
	.st166{opacity:0.54;clip-path:url(#SVGID_87_);fill:#EEF3FE;}
	.st167{opacity:0.54;clip-path:url(#SVGID_87_);fill:#91AEEB;}
	.st168{clip-path:url(#SVGID_89_);}
	.st169{fill:#FF7B89;}
	.st170{clip-path:url(#SVGID_89_);fill:none;}
	.st171{fill:#F64776;}
	.st172{clip-path:url(#SVGID_91_);fill:#FFE0C3;}
	.st173{clip-path:url(#SVGID_91_);fill:#FF9F36;}
	.st174{clip-path:url(#SVGID_91_);fill:#FFF3E2;}
	.st175{clip-path:url(#SVGID_93_);fill:#E9CBF2;}
	.st176{opacity:0.8;clip-path:url(#SVGID_93_);fill:#F5E5F7;}
	.st177{clip-path:url(#SVGID_93_);fill:#F5E5F7;}
	.st178{opacity:0.79;clip-path:url(#SVGID_93_);fill:#E9CBF2;}
	.st179{clip-path:url(#SVGID_95_);fill:#FFF7C8;}
	.st180{clip-path:url(#SVGID_97_);fill:#FFC9D7;}
	.st181{clip-path:url(#SVGID_97_);fill:#FF9DB5;}
	.st182{clip-path:url(#SVGID_97_);fill:#FC7798;}
	.st183{clip-path:url(#SVGID_97_);fill:#FFFFFF;}
	.st184{clip-path:url(#SVGID_99_);fill:#6D93E0;}
	.st185{clip-path:url(#SVGID_99_);fill:#91AEEB;}
	.st186{opacity:0.54;clip-path:url(#SVGID_99_);fill:#91AEEB;}
	.st187{clip-path:url(#SVGID_101_);}
	.st188{clip-path:url(#SVGID_101_);fill:none;}
	.st189{opacity:0.46;clip-path:url(#SVGID_103_);}
	.st190{clip-path:url(#SVGID_103_);fill:none;}
	.st191{clip-path:url(#SVGID_105_);}
	.st192{fill:#E4A280;}
	.st193{fill:#FFFFFF;stroke:#FFFFFF;stroke-width:0.25;stroke-miterlimit:10;}
	.st194{fill:none;stroke:#FFFFFF;stroke-width:2;stroke-miterlimit:10;}
	.st195{opacity:0.45;fill:#FFFFFF;}
	.st196{opacity:0.8;fill:#FFFFFF;}
	.st197{opacity:0.79;fill:#FFFFFF;}
	.st198{fill:#F3C6AB;}
	.st199{fill:none;stroke:#FFFFFF;stroke-width:0.75;stroke-miterlimit:10;}
	.st200{fill:#D4C2B3;}
	.st201{fill:#93693D;}
	.st202{fill:#F2BECD;}
	.st203{fill:#D87290;}
	.st204{fill:#574435;}
	.st205{fill:#CAA57C;}
	.st206{fill:#641F1E;}
	.st207{fill:#E16C8D;}
	.st208{fill:#D63665;}
	.st209{fill:#DFB88B;}
	.st210{fill:#E0B88B;}
	.st211{fill:#7E7E7E;}
	.st212{fill:#FFE4EB;}
	.st213{fill:#C73F69;}
	.st214{fill:#F7F7F7;}
	.st215{fill:#F2F2F2;}
	.st216{fill:#FFFBF1;}
	.st217{fill:#F8C3D1;}
	.st218{fill:#FFD0D7;}
	.st219{fill:#FFBEC5;}
	.st220{fill:#FE6D7B;}
	.st221{fill:#B59F90;}
	.st222{fill:#FDFDFC;}
	.st223{fill:#F3F3F3;}
	.st224{fill:#A4C6DD;}
	.st225{fill:#DB966B;}
	.st226{fill:#BEA696;}
	.st227{fill:#583B34;}
	.st228{fill:#63443C;}
	.st229{fill:#E2D1C9;}
	.st230{fill:#B3D1E6;}
	.st231{fill:#D1ADA2;}
	.st232{fill:#A3C5DC;}
	.st233{fill:#9D7972;}
	.st234{fill:#77573F;}
	.st235{fill:#FFA5B2;}
	.st236{fill:#F4769D;}
	.st237{fill:#FCFCFA;}
	.st238{fill:#F9C5DD;}
	.st239{fill:#E5BBB6;}
	.st240{clip-path:url(#SVGID_113_);fill:#EA90A7;}
	.st241{clip-path:url(#SVGID_113_);fill:#FFEBF2;}
	.st242{clip-path:url(#SVGID_113_);fill:#D3CFB3;}
	.st243{clip-path:url(#SVGID_113_);fill:#FCDDE6;}
	.st244{clip-path:url(#SVGID_113_);}
	.st245{clip-path:url(#SVGID_113_);fill:#FFC9D7;}
</style>
<path class="st12" d="M124.76,215.04c2.47,22.2,4.93,44.4,7.4,66.59c15.29-6.91,30.58-13.81,45.88-20.72
	c23.81-35.14,19.62-54.13,16.28-62.15c-2.87-6.9-5.9-7.57-22.2-28.12c-18.36-23.14-20.52-29.86-25.16-29.6
	C140.18,141.43,132.07,156.5,124.76,215.04z"/>
<path class="st218" d="M391.59,498.2c-2.43,0-4.87,0-7.3,0c0.07-4.1-0.6-8.14-1.57-12.08c-1.78-7.16-3.83-14.25-5.89-21.34
	c-0.41-1.43-0.24-4.04-2.52-3.57c-2.64,0.54-1.99,2.98-1.42,4.88c3.17,10.71,6.38,21.41,9.59,32.11c-2.74,0-5.48,0-8.21,0
	c0.11-3.63-0.12-7.22-0.91-10.8c-1.35-6.17-2.49-12.39-3.72-18.59c-0.26-1.29-0.79-2.46-2.31-2.21c-1.37,0.22-1.3,1.53-1.22,2.57
	c0.08,1.04,0.29,2.1,0.6,3.1c2.62,8.49,2.67,17.54,5.74,25.93c-2.43,0-4.87,0-7.3,0c-1.76-4.65-3.07-9.4-3.86-14.32
	c-0.35-2.18-1.49-4.24-2.31-6.35c-0.31-0.79-0.48-2.03-1.7-1.54c-0.74,0.3-1.42,1.11-1.8,1.86c-0.62,1.19,0.31,2.31,0.54,3.47
	c1.15,5.73,4,10.99,4.57,16.88c-24.34,0-48.67,0-73.01,0c0.04-1.98-0.53-3.75-1.19-5.66c-2.42-7.04-6.05-14.08-2.21-21.94
	c0.07,5.46,2.53,9.76,5.86,13.74c0.8,0.95,0.77,3.13,2.63,2.27c1.86-0.87,1.46-2.82,0.85-4.43c-1.01-2.67-2.26-5.25-3.22-7.93
	c-3.22-8.94-5.44-18.23-8.7-27.11c-5.25-14.29-9.04-28.98-13.36-43.53c-3.06-10.31-4.83-20.9-7.35-31.3
	c-2.41-9.92-3.38-19.91-4.28-29.96c-1.11-12.53-3.34-24.85-5.65-37.19c-0.76-4.07-3.61-8.05-1.59-12.52
	c2.87,2.21,5.2,4.93,7.24,7.91c0.01,0.9,0.12,1.76,0.99,2.29l0.04-0.3l0.29-0.09c-1.93,2.21-1.97,4.56-0.85,7.2
	c0.64,1.51,1.01,3.19,1.24,4.82c2.54,18.23,4.3,36.56,7.47,54.69c2.16,12.36,4.02,24.79,7.93,36.78c2.95,9.04,5.08,18.32,8.27,27.32
	c4.74,13.37,8.61,27.04,14.22,40.1c0.51,1.18,0.99,3.04,2.73,2.36c1.63-0.64,2.57-2.3,1.58-4.12c-5.16-9.52-7.37-20.12-10.83-30.24
	c-5.42-15.82-10.48-31.81-14.6-48c-3.12-12.25-4.68-24.91-6.65-37.43c-1.95-12.39-2.68-24.94-5.09-37.29
	c-0.7-3.58-1.8-7.55-0.01-11.3c2.34,2.3,4.69,4.59,7.03,6.89c0.11,3.42-0.46,7.06,0.51,10.22c1.08,3.52,1.61,7.02,2.08,10.59
	c1.69,12.74,3,25.54,5.17,38.2c1.88,10.99,4.64,21.84,7.18,32.72c1.09,4.69,2.54,9.31,3.93,13.93c2.13,7.07,4.26,14.15,6.55,21.17
	c2.93,8.96,5.98,17.88,9.85,26.63c3.67-2.12,3.2-4.77,2.08-7.69c-5.35-13.96-9.72-28.25-14.02-42.55
	c-2.43-8.1-4.36-16.36-6.65-24.48c-2.36-8.35-2.88-16.93-4.83-25.3c-1.74-7.48-2.28-15.24-3.41-22.86
	c-1.21-8.15-3.02-16.23-2.82-24.55c2.93,2.34,5.85,4.69,8.78,7.03c0.49,6.76,1.3,13.43,2.52,20.15c2.45,13.45,4.03,27.06,6.46,40.55
	c3.03,16.87,6.71,33.53,12.18,49.77c2.07,6.16,4.8,12.08,6.51,18.38c0.45,1.68,1.69,3.16,3.7,2.41c1.92-0.71,1.43-2.32,0.81-3.84
	c-1.03-2.51-1.85-5.12-2.94-7.6c-3.04-6.92-5.38-14.11-7.1-21.4c-2.01-8.51-5.11-16.73-6.39-25.46c-1.11-7.58-3.43-14.97-4.64-22.54
	c-1.72-10.74-3.4-21.52-4.12-32.35c-0.38-5.68-4.12-10.51-3.21-16.3c2.41,0.04,4.81,0.08,7.22,0.12c-0.12,1.18-0.81,2.87-0.27,3.47
	c3.58,4.01,2.82,9.32,3.55,13.79c3.19,19.54,7.08,38.95,10.49,58.44c1.73,9.9,3.72,19.75,7.18,29.24c1.65,4.54,3.14,9.15,4.52,13.77
	c0.47,1.58,0.27,3.85,2.61,3.42c2.75-0.5,2.27-2.92,1.67-4.79c-1.67-5.17-3.38-10.34-5.12-15.46c-3.43-10.08-5.26-20.5-7.02-30.84
	c-2.38-14.01-5.7-27.84-7.33-42c-0.92-7.93-3.1-15.72-4.71-23.57c3.36,3.84,6.72,7.68,10.07,11.52c0.89,11.91,2.41,23.76,4.65,35.46
	c2.17,11.35,5,22.61,8.16,33.73c2.47,8.68,5.92,17.08,7.36,26.07c0.19,1.2,0.96,2.37,2.38,2.39c1.31,0.01,1.43-1.37,1.99-2.22
	c0.84-1.29,0.37-2.59,0.15-3.94c-1.51-9.11-4.78-17.72-7.49-26.49c-3.74-12.1-6.55-24.41-8.04-36.99c-0.55-4.65-2.54-9.07-1.99-13.9
	c0.2-1.76,0.2-3.39,2.45-3.68c1.79,0.82,2.62,2.61,3.99,3.86c4.33,13.57,4.71,27.98,9.02,41.6c3.05,9.64,4.99,19.63,7.63,29.4
	c0.49,1.8,0.82,5,3.69,4.14c2.5-0.75,1.93-3.79,1.3-5.62c-1.24-3.59-2.16-7.25-3.2-10.89c-5.03-17.61-8.8-35.5-12.31-53.45
	c-0.33-1.71-1.58-3.77,1.39-4.25c2.22-0.36,3.6-0.04,4.55,2.86c3.11,9.54,3.6,19.59,6.19,29.21c2.91,10.82,5.68,21.68,8.61,32.49
	c0.35,1.28,0.63,3.43,2.92,2.36c1.7-0.8,2.12-2.19,1.69-4.18c-2.11-9.7-5.25-19.13-7.59-28.79c-2.52-10.43-3.76-21.06-6.35-31.45
	c-0.87-3.48-1.56-7.46,0.09-11.15c0.36-0.81,0.57-1.84,1.71-1.87c0.86-0.02,1.49,0.67,1.61,1.37c0.75,4.37,4.56,8.09,4.31,12.21
	c-0.42,6.81,3.38,12.12,4.87,18.18c2.64,10.7,5.54,21.31,7.37,32.19c0.31,1.84-0.15,5.11,2.37,4.95c2.49-0.16,2.13-3.24,2.07-5.34
	c-0.03-1.05-0.26-2.1-0.49-3.13c-1.04-4.69-1.7-9.44-3.02-14.1c-3.99-14.03-7.23-28.29-11.57-42.21c-1.24-3.98-0.42-4.17,2.77-4.82
	c4.74-0.96,4.66,2.64,4.92,5.17c0.62,5.91,3.8,11.03,4.43,17.03c0.6,5.7,3.34,11.15,4.66,16.82c1.56,6.75,2.62,13.62,3.86,20.44
	c0.24,1.3,0.66,2.48,2.16,2.47c1.36-0.01,1.44-1.36,1.83-2.3c0.55-1.31,0.79-2.73,0.25-4.01c-2.37-5.63-2.47-11.78-3.84-17.63
	c-3.17-13.5-7.03-26.78-10.8-40.1c-0.51-1.8-0.62-3.58-0.58-5.4c0.03-1.37-0.04-2.85,1.83-3.15c1.8-0.29,3.38-0.01,4.11,1.93
	c0.48,1.28,0.77,2.63,1.28,3.89c3.02,7.44,3.86,15.46,6.13,23.11c2.29,7.76,3.93,15.72,5.66,23.64c0.51,2.32-0.24,4.91,1.52,6.96
	c0.75,0.88-0.07,3.34,2.15,2.61c1.71-0.57,3.16-1.77,2.61-4.15c-0.94-4.08-1.27-8.25-2.4-12.35c-2.6-9.42-4.4-19.04-7.29-28.41
	c-2.27-7.37-6.53-15.53,3.69-20.88c0.13-0.07,0.29-0.09,0.8-0.25c1.81,6.19,3.96,12.31,5.37,18.6c2.45,10.92,4.92,21.87,5.58,33.11
	c0.05,0.78,0.2,1.72,1.12,1.65c0.63-0.05,1.32-0.67,1.78-1.21c0.85-0.99,0.6-2.29,0.74-3.49c0.5-4.31-1.14-8.29-1.75-12.42
	c-2.08-14.15-5.61-27.82-11.98-40.68c0.5-1.98,0.18-3.87-0.45-5.78c-4.14-12.61-8.28-25.23-12.36-37.86
	c-0.97-2.99-2.9-5.68-2.89-8.99c1.93,0.98,2.58,2.79,3.31,4.68c5.31,13.73,10.56,27.48,17.05,40.72c0.96,1.95,1.74,3.94,4.54,3.53
	c5.1-0.76,10.27-1.3,14.63-4.46c0.33,2.79-1.73,3.74-3.62,5.01c-2.57,1.73-5.64,3.55-5.26,7.19c1.26,11.85,2.81,23.68,4.23,35.52
	c0.15,1.21,0.12,2.73,1.67,2.79c1.92,0.08,1.98-1.64,1.92-2.97c-0.31-6.49-0.46-13.01-1.21-19.46c-0.45-3.84-0.62-7.78-2.25-11.5
	c-2.05-4.66-1-8.11,4.43-9.96c2.31-0.79,2.58-0.46,2.74,1.56c0.24,3.01,0.59,6.01,0.92,9.01c0.09,0.85-0.19,2.04,1.04,2.19
	c1.14,0.14,1.43-0.9,1.59-1.81c1.43-8.57,1.81-17.26,0.43-25.78c-1.29-7.98-2.19-16.03-3.83-23.98c-2.1-10.21-2.9-20.7-7.47-31.65
	c0,2.77,0.06,4.36-0.02,5.94c-0.07,1.57,0.49,3.53-1.96,3.94c1.8-7.65,1.16-15.22-0.8-22.74c7.03-0.14,14.05-0.05,21.03,0.93
	c-4.7,0-9.4-0.07-14.1,0.03c-1.34,0.03-3.55-0.8-3.67,1.4c-0.09,1.84,1.97,2.18,3.44,2.14c3.7-0.12,4.71,2.06,5.64,5.18
	c1.95,6.46,2.16,13.24,3.9,20.58c2.66-5.63,3.95-10.48,2.27-15.83c-0.63-2-0.88-4.14-1.06-6.24c-0.21-2.42,1.81-4.68,3.37-3.35
	c5.05,4.31,6.29-0.27,8.51-2.9c1.04-1.23,2.46-0.96,3.8-1.01c1.53-0.06,3.16,0.08,3.33-2.11c0.98-0.46,1.96-0.93,2.94-1.39
	c4.2-0.76,6.12,1.55,7.18,5.2c1.85,6.34,1.7,12.91,2.38,19.38c0.1,0.58,0.2,1.16,0.3,1.74c-0.91,6.69-0.36,13.38-0.02,20.08
	c-0.49,1.08,0.22,1.83,0.71,2.64c-1.55,1.34-0.77,3.12-0.81,4.69c-0.52,20.93-1.01,41.85-3.21,62.7
	c-1.37,12.96-2.91,25.86-0.38,38.95c3.44,17.84,10.88,34.38,16.02,51.65c0.49,2.81,0.91,5.63,2.22,8.21c0.19,1.79,0.3,3.6,0.58,5.38
	c1.08,6.7,2.72,13.33,2.03,20.2c-3.89-0.29-4.8,1.71-3.95,5.11c0.52,2.08,1.27,4.21-0.52,6.36c-2.61-3.05-1.46-6.37-1.6-9.44
	c-0.17-3.62-0.9-7.42-3.73-9.32c-2.3-1.54-3.67-3.03-4.61-5.47c-0.57-1.47-1.73-3.44-3.5-2.99c-1.75,0.45-0.72,2.62-0.99,4.02
	c-0.14,0.68,0.11,1.57-0.87,1.8c-0.8-0.16-0.84-0.8-0.97-1.36c-0.73-3.09-1.27-6.24-2.26-9.24c-0.5-1.51-1.88-3.3-3.66-2.87
	c-2.37,0.58-0.55,2.49-0.5,3.8c0.04,1.05,0.26,2.1,0.53,3.13c2.57,10.05,5.16,20.09,7.75,30.13c-1.52,0-3.04,0-4.56,0
	c0-0.91,0.15-1.85-0.04-2.72c-2.53-12.1-5.09-24.19-7.7-36.27c-0.25-1.18-0.96-2.28-2.12-2.84c-1.03-0.49-1.87-2.04-3.15-1.25
	c-1.16,0.72-0.83,2.26-0.54,3.36c1.49,5.64,3.25,11.21,4.65,16.87c1.88,7.58,3.51,15.23,5.24,22.84c-1.52,0-3.04,0-4.56,0
	c-0.06-1.51,0.19-3.12-0.23-4.52c-3.25-10.72-3.9-21.95-6.56-32.78c-0.5-2.04-0.64-4.19-1.35-6.15c-0.53-1.47-1.47-3.38-3.61-2.45
	c-1.93,0.84-1.31,2.43-1,4.22c0.73,4.27,2.24,8.32,2.85,12.64c0.95,6.69,2.41,13.34,4.26,19.84c0.87,3.05,2.04,5.96,1.99,9.18
	c-1.83,0-3.65,0-5.48,0c-0.52-15.53-4.99-30.35-8.24-45.38c-0.26-1.2-0.76-2.1-2.07-1.86c-1.66,0.3-1.56,1.62-1.27,2.87
	c1.5,6.47,3.16,12.9,4.5,19.4c1.71,8.27,4.81,16.31,4.34,24.97c-1.83,0-3.65,0-5.48,0c-0.14-1.8-0.21-3.61-0.45-5.4
	c-1.29-9.87-3.98-19.45-6.32-29.1c-0.88-3.65-0.41-7.56-2.17-11.06c-0.53-1.06-0.69-2.68-2.25-2.31c-1.79,0.42-1.4,1.93-1.08,3.35
	c2.2,9.81,4.4,19.62,6.46,29.47c1.05,5.01,3.16,9.81,3.08,15.05c-3.04,0-6.08,0-9.13,0c0.27-8.63-1.15-17.15-3.12-25.42
	c-1.4-5.87-2.41-11.83-4.02-17.66c-0.46-1.67-0.71-3.55-2.96-3.24c-2.48,0.33-1.59,2.51-1.76,4.03c-0.39,3.56,1.39,6.77,2.2,10.03
	c2.67,10.69,5.04,21.42,6.92,32.26c-2.13,0-4.26,0-6.39,0c-0.74-8.25-2.34-16.34-4.49-24.34c-1.37-5.1-2.54-10.26-3.83-15.39
	c-0.4-1.57-1.31-3.04-3.04-2.82c-1.9,0.23-1.52,2.1-1.3,3.32c0.43,2.38,1.12,4.71,1.79,7.04
	C387.41,476.6,391.37,486.98,391.59,498.2z M393.85,330.21c-0.19-0.14-0.36-0.31-0.57-0.41c-0.05-0.03-0.31,0.19-0.29,0.23
	c0.08,0.22,0.22,0.43,0.33,0.64C393.5,330.52,393.67,330.37,393.85,330.21z"/>
<path class="st219" d="M249.22,498.2c-69.36,0-138.72,0-208.07,0c0.45-3.5,2.97-5.62,5.45-7.55c8.91-6.95,17.16-14.72,25.64-22.1
	c9.38-8.17,18.62-16.68,27.98-24.92c21.84-19.25,39.63-32.59,45.6-37.09c8.33-6.28,18.85-13.95,31.29-22.38
	c2.19-1.17,15.93-8.27,29.05-2.32c10.99,4.98,17.7,17.44,19.09,26.99c0.48,3.31,0.07,6.57,2.2,11.26c2.03,4.47,4.75,8.25,7.44,12
	c5.01,6.99,10.82,13.41,16.25,20.1c5.85,7.21,5.26,15.55,3.62,23.82C253.27,483.46,251.09,490.8,249.22,498.2z"/>
<path class="st169" d="M462.84,459c-10.16-23.35-14.92-43.69-17.35-58.43c-7.14-43.44-1.11-81.51,2.49-103.14
	c0.33-2.01,0.62-3.65,0.81-4.69c45.4,13.75,90.8,27.5,136.2,41.25c0,55,0,110,0,165C544.28,485.67,503.56,472.34,462.84,459z"/>
<path class="st169" d="M447.81,268.29c-0.67-6.47-0.53-13.04-2.38-19.38c-1.06-3.66-2.98-5.96-7.18-5.2
	c-0.15-1.61-0.31-3.22-0.46-4.82c0.13-1.5,0.12-2.84-0.67-4.34c-1.73-3.3-3.21-6.76-4.46-10.27c-2.99-8.44-6.56-16.68-7.92-25.65
	c-0.91-6.03-3.78-11.73-3.07-18.04c3.83,1.41,7.97,1.59,11.91,2.31c24.23,4.45,41.21,12.81,46.21,14.93
	c14.2,6.04,42.65,16.31,105.21,34.97c0,26.14,0,52.29,0,78.43c-35.79-10.85-71.79-22.04-107.98-33.57
	C467.25,274.55,457.52,271.43,447.81,268.29z"/>
<path class="st219" d="M249.35,292.63c-2.01,4.47,0.83,8.45,1.59,12.52c2.31,12.34,4.54,24.66,5.65,37.19
	c0.89,10.04,1.87,20.03,4.28,29.96c2.52,10.4,4.29,21,7.35,31.3c4.32,14.55,8.11,29.23,13.36,43.53c3.26,8.88,5.47,18.17,8.7,27.11
	c0.97,2.68,2.21,5.26,3.22,7.93c0.61,1.61,1.01,3.56-0.85,4.43c-1.85,0.86-1.83-1.31-2.63-2.27c-3.33-3.98-5.79-8.28-5.86-13.74
	c-3.84,7.86-0.21,14.9,2.21,21.94c0.66,1.91,1.23,3.68,1.19,5.66c-4.87,0-9.73,0-14.6,0c5.12-16.78,7.88-33.75,2.7-51.01
	c-4.03-13.43-10.96-25.57-17.93-37.64c-3.07-6.46-6.13-12.91-9.2-19.37c0.06-0.25-0.02-0.45-0.24-0.59
	c-4.83-11.92-9.67-23.84-14.5-35.76c-0.38-1.15-0.7-2.31-1.13-3.43c-4.68-12.01-10.33-23.63-14.49-35.85
	c-2.28-6.73-2.33-12.8,4.53-17.06c2.59-2.27,5.08-4.68,7.79-6.8C240.83,282.56,238.85,281.18,249.35,292.63z M244.48,365.79
	c1.03-1.66,1.77-3.23,1.59-4.9c-0.95-8.7-2.05-17.38-3.03-26.07c-1.05-9.36-4.27-18.24-6.01-27.45c-0.71-3.78-3.18-7.12-4-11.01
	c-0.33-1.56-1.87-1.87-3.35-1.5c-1.12,0.28-1.35,1.06-0.88,2.08c2.31,4.95,3.12,10.35,4.18,15.61c1.66,8.27,3.47,16.51,4.68,24.91
	C239.04,346.97,237.97,357.28,244.48,365.79z M252.86,353.85c-0.01,0-0.02,0-0.04,0c0-1.06,0.14-2.15-0.02-3.19
	c-1.76-11.32-1.91-22.8-4.16-34.13c-1.51-7.59-4.15-14.82-5.58-22.38c-0.19-1.03-0.67-2.02-1.12-2.97
	c-0.56-1.16-1.38-2.08-2.85-1.67c-1.2,0.33-1.61,1.33-1.68,2.45c-0.13,2.13,0.02,4.2,0.66,6.29c2.36,7.78,5.28,15.43,6.6,23.49
	c1.9,11.6,3.65,23.23,5.46,34.85c0.16,1.01-0.09,2.45,1.38,2.44c1.44-0.01,1.29-1.42,1.35-2.45
	C252.9,355.68,252.86,354.77,252.86,353.85z M264.39,409.05c-2.23-3.44-0.39-7.57-1.83-10.83c-3.29-7.43-3.63-15.52-5.99-23.13
	c-0.4-1.3-0.14-2.96-2.26-2.48c-1.61,0.36-1.81,1.37-1.74,3.05c0.5,11.6,4.26,22.18,9.65,32.3
	C262.59,408.67,263.01,409.26,264.39,409.05z M231.95,327.03c-1.63-4.08-1.78-8.93-2.32-13.72c-0.16-1.45-0.98-2.87-1.68-4.21
	c-1.18-2.25-3.36-1.68-5.27-1.54c-1.34,0.1-1.6,1.06-1.37,2.32c1.21,6.68,4.89,12.54,6.38,19.13c0.26,1.17,1.18,2.26,2.68,1.92
	C232.25,330.52,231.73,328.88,231.95,327.03z M223.66,305.61c1.29-0.06,2.54-0.16,2.55-1.82c0.01-1.35-0.89-1.79-2.08-1.65
	c-1.27,0.15-2.39,0.83-2.58,2.08C221.31,305.86,222.79,305.44,223.66,305.61z M247.83,374.94c-0.19-0.14-0.36-0.31-0.57-0.41
	c-0.05-0.03-0.3,0.19-0.29,0.23c0.08,0.22,0.22,0.43,0.33,0.64C247.48,375.24,247.65,375.09,247.83,374.94z M245.13,369.3l-0.2,0.3
	l0.31,0.05L245.13,369.3z"/>
<path class="st221" d="M512.99,208.93c0.29-0.07,0.59-0.08,0.89-0.05c0,0.3,0,0.61,0,0.91C513.58,209.5,513.29,209.22,512.99,208.93
	z"/>
<path class="st212" d="M137.91,3.41c4.99,2.27,12.54,6.57,18.46,14.53c4.66,6.27,6.59,12.49,10.31,32.13
	c1.77,9.32,3.88,21.35,5.92,35.52c-0.15,6.91-0.29,13.82-0.43,20.73c-0.76,0.91-1.51,1.82-2.27,2.72c-0.21,0.23-0.47,0.37-0.78,0.43
	c-0.33,0.39-0.67,0.77-1,1.16c-3.18,3.85-6.29,7.76-9.56,11.52c-11.37,13.06-17.78,27.97-18.28,45.51
	c-0.23,7.79,1.13,15.4,1.27,23.12c-0.6-0.02-1.2-0.03-1.8-0.05c-1.39-4.5-4.87-7.54-7.66-11.07c-3.43-4.34-4.39-4.36-6.3,0.66
	c-2.59,6.79-6.74,12.4-11.86,17.44c-4.65,4.58-10.19,8.04-15.06,12.33c-0.93,0.82-2.81,1.29-2.38,2.96c0.42,1.63,2.1,1.79,3.58,2.29
	c3.87,1.33,7.54,3.19,11.35,4.69c3.08,1.21,5.54,2.35,6.48,2.82c3.56,1.74,8.56,4.98,13.73,11.57c-1.46,4.99-1.94,9.24-2.1,12.26
	c-0.15,2.91-0.28,5.72,0.48,9.33c0.5,2.39,1.19,5.65,3.57,8.95c2.88,4,6.69,5.91,8.89,6.78c0.01,0.18,0.01,0.35,0,0.51
	c-0.16,2.55-2.51,4.33-3.66,5.09l0.14,0.16c-1.51,1.09-3.87,2.57-6.99,3.7c-6.94,2.5-12.97,1.55-17.5,0.83
	c-3.84-0.61-9.93-2.05-16.7-5.89c-1.8-1.84-3.67-3.95-5.54-6.33c-3.09-3.95-5.48-7.77-7.31-11.18c-1.89-3.77-4.09-8.9-5.77-15.2
	c-1.2-4.48-1.98-8.98-2.41-13.6c-1.68-18.11,5.06-38.95,5.06-38.95c4.52-13.69,7-24.93,8.38-32.1c4.92-25.67,6.23-54.09,7.6-83.91
	c0.03-0.62,0.47-8.27,1.81-18.51c3.46-26.34,8.16-33.59,10.41-36.65c5.53-7.52,11.91-11.08,13.32-11.84
	C129.11,4.71,134.54,3.74,137.91,3.41z"/>
<path class="st212" d="M109.69,290.19c-2.61,2.78-5.34,5.37-9.24,6.26c-0.48-0.81-1.09-1.48-2.06-1.65
	c-5.29-0.95-9.14-4.37-13.14-7.57c-9.57-7.66-14.69-18.21-19.01-29.24c-4.14-10.56-5.01-21.52-4.28-32.81
	c0.47-7.28,1.94-14.36,2.86-21.53c0.52-4.06-0.53-7.42-4.35-9.06c-3.17-1.35-4.64-3.75-5.61-6.66c-1.05-3.15-3.31-4.15-5.92-2.67
	c-3.64,2.07-6.12,1.56-8.05-2.07c-0.43-4.37,1.84-7.96,3.6-11.59c10.04-20.73,16.56-42.14,16.03-65.58
	c-0.4-17.57,0.44-35.24,5.33-52.32c2.96-10.35,6.27-20.73,12.25-29.8C88.75,7.79,103.22-1.34,123.3,0.75
	c-1.97,3.19-5.56,4.43-8.25,6.79c-2.54,2.23-7.34,6.82-11.28,12.75c-4.58,6.88-6.13,12.98-8.61,23.09
	c-2.48,10.1-3.35,18.03-3.58,20.23c-2.37,22.7-1.81,48.22-2.09,60.04c-0.03,1.19-0.42,2.37-0.68,3.54
	c-0.97,4.4-1.96,8.79-2.95,13.19c-1.48,6.62-2.84,13.26-4.46,19.85c-2.7,10.98-5.13,22.06-8.56,32.83c-1.41,4.44-0.87,9-2.4,13.28
	c-2.17,6.08-2.67,12.48-2.74,18.81c-0.13,12.02,1.13,23.96,5.52,35.27c4.6,11.86,11.7,21.31,24.59,25.56
	C101.77,287.27,105.86,288.44,109.69,290.19z"/>
<path class="st223" d="M109.69,290.19c-3.83-1.75-7.93-2.92-11.87-4.22c-12.89-4.26-19.99-13.71-24.59-25.56
	c-4.39-11.31-5.65-23.25-5.52-35.27c0.07-6.33,0.56-12.73,2.74-18.81c1.53-4.28,0.98-8.83,2.4-13.28
	c3.43-10.76,5.86-21.84,8.56-32.83c0.45-1.82,0.88-3.65,1.29-5.48c0.58-2.55,2.33-10.07,3.17-14.37c1.29-6.69,1.61-11.92,1.9-17.09
	c1.29-22.8,1.92-40.25,3.82-59.69c0.66-6.76,1.44-13.4,3.58-21.71c2.01-7.8,3.76-14.35,8.61-21.61c4.01-5.99,8.72-10.5,11.28-12.75
	c2.69-2.36,6.27-3.6,8.25-6.79c5,0.17,10.21-0.83,14.61,2.65c-0.5,1.01-1.23,1.83-2.41,1.83c-10.07-0.05-16.29,6.62-21.85,13.43
	c-8.85,10.84-12.21,24.06-14.09,37.68c-1.13,8.13-1.62,14.17-1.81,18.51c-1.89,41.46-2.83,62.19-4.84,73.02
	c-1.71,9.25-4.85,20.5-11.14,42.99c-2.93,10.49-6.54,22.84-5.06,38.95c0.64,6.99,2.01,12.16,2.41,13.6
	c4.3,15.73,12.86,26.6,18.63,32.72c5.44,3.77,10.39,6.35,16.7,5.89c3.2-0.23,6.67-1.11,9.77,0.84
	C118.13,282.85,114.28,287.24,109.69,290.19z"/>
<path class="st12" d="M437.79,238.88c-2.41-5.42-8.29-3.96-12.4-5.97c-9.01-4.4-16.85-9.85-23-17.84
	c-5.37-6.99-7.7-15.3-10.87-23.27c-0.67-1.68-1.29-3.41-2.19-4.97c-3.22-5.6-3.06-11.55-1.99-17.61c0.18-1.04,0.56-2.09,0.54-3.12
	c-0.03-1.44,0.78-3.43-0.9-4.14c-1.92-0.81-2.47,1.41-3.17,2.53c-1.71,2.76-3.12,2.89-5.03,0.19c-7.23-10.23-16.37-19.3-20.05-31.7
	c-2.41-8.13-4.29-16.42-6.34-24.66c-0.26-1.05-0.19-2.16-1.54-2.46c0.93-3.01,1.6-6.16,4.11-8.4c0.54,0.51,1.36,0.92,1.58,1.54
	c2.61,7.43,6.28,14.37,10.5,20.94c5.99,9.35,14.12,15.79,25.41,7.85c4.79,7.18,12.13,11.98,17.51,18.63
	c3.22,3.98,5.55,8.2,6.52,13.26c1.06,5.49,2.96,10.81,3.5,16.42c0.1,1.01,0.75,1.62,1.58,2.08c0.03,0.8,0.07,1.59,0.1,2.39
	c-0.72,6.31,2.15,12.01,3.07,18.04c1.36,8.96,4.93,17.21,7.92,25.65c1.25,3.51,2.73,6.97,4.46,10.27
	C437.91,236.05,437.92,237.38,437.79,238.88z M404.49,160.5c1.17,0,1.93,0.06,2.67-0.01c1.53-0.16,3.92,0.48,3.87-1.85
	c-0.05-2.29-2.42-1.67-3.96-1.75c-3.42-0.18-6.94,0.53-10.13-1.38c-0.66-0.4-1.62-0.53-2,0.24c-0.49,0.99,0.33,1.78,1.11,2.17
	C398.84,159.33,401.51,161.22,404.49,160.5z M397.82,168.17c3.08,4.92,11.54,7.6,14.98,5.66c0.44-0.25,0.88-0.84,0.95-1.33
	c0.11-0.75-0.67-0.87-1.22-1.04C407.99,170.04,403.09,171.02,397.82,168.17z M386.59,142.83c4.04,2.46,7.01,2.81,10.04,0.89
	c0.81-0.51,1.43-1.29,0.96-2.28c-0.41-0.87-1.26-0.52-1.99-0.37C392.96,141.6,390.33,142.1,386.59,142.83z"/>
<path class="st212" d="M49.36,294.71c-7.07-4.37-11.87-10.68-11.87-10.68c-2.21-2.91-3.57-5.39-4.61-7.58
	c-7.14-15.05-9.67-31.05-8-47.46c1.49-14.7,5.15-28.98,12.63-42c1.43,0.16,2.09,1.2,2.45,2.39c1.29,4.37,3.77,4.69,7.13,2.18
	c1.18-0.88,3.15-1.54,3.76-0.6c2.3,3.53,6.28,5.87,7.95,9.42c1.64,3.48,1.9,7.86,1.37,12.05c-0.73,5.85-1.77,11.75-1.56,17.6
	c0.43,12.05,1.81,23.93,6.78,35.29c6.06,13.85,14.62,24.97,28.79,31.1c0.93,0.4,1.55,0.9,1.71,1.9c-4.5,1.18-9.06,1.91-13.72,1.96
	C79.54,300.66,62.79,303,49.36,294.71z"/>
<path class="st212" d="M357.15,93.9c0.12-2.43-1.32-4.32-2.33-6.32c-4.3-8.52-8.58-17.05-13.1-25.45c-1.62-3.01-0.87-4.15,2.18-5.11
	c6.87-2.16,10.55-1.52,14.56,3.62c9.71,12.44,18.89,25.24,25.26,39.8c3.41,7.79,6.53,15.7,6.06,24.47
	c-5.63,4.36-12.05,3.69-16.74-1.69c-3.62-4.16-5.55-9.29-8.17-14.02C362.1,104.18,360.89,98.4,357.15,93.9z"/>
<path class="st223" d="M95.9,298.3c-0.16-1-0.78-1.5-1.71-1.9c-14.17-6.12-22.74-17.25-28.79-31.1
	c-4.97-11.36-6.34-23.23-6.78-35.29c-0.21-5.84,0.82-11.75,1.56-17.6c0.53-4.18,0.27-8.57-1.37-12.05
	c-1.67-3.54-5.66-5.88-7.95-9.42c-0.61-0.94-2.58-0.28-3.76,0.6c-3.36,2.51-5.84,2.19-7.13-2.18c-0.35-1.2-1.01-2.23-2.45-2.39
	c0.32-2,0.95-3.7,3.39-3.79c1.93,3.62,4.41,4.13,8.05,2.07c2.6-1.48,4.86-0.48,5.92,2.67c0.97,2.91,2.44,5.31,5.61,6.66
	c3.82,1.63,4.87,4.99,4.35,9.06c-0.92,7.18-2.4,14.26-2.86,21.53c-0.73,11.29,0.15,22.25,4.28,32.81
	c4.32,11.03,9.45,21.59,19.01,29.24c4,3.2,7.85,6.62,13.14,7.57c0.97,0.17,1.58,0.84,2.06,1.65C99.24,297.8,97.32,297.45,95.9,298.3
	z"/>
<path class="st218" d="M333.91,186.21c-1.96-2.21-2.67-4.16-2.95-5.55c-0.3-1.49-0.36-3.06-1.53-4.25c-0.81-0.82-1.49-0.5-1.75-0.93
	c-1.12-1.88,7.98-12.73,20.73-15.53c4.8-1.06,8.92-0.7,11.42-0.31c1.63,1.84,3.26,3.74,4.89,5.7c5.05,6.07,9.56,12.08,13.58,17.92
	c-0.57-0.74-9.36-11.68-23.68-10.36C341.17,174.14,334.53,185.15,333.91,186.21z"/>
<path class="st235" d="M357.15,93.9c3.74,4.5,4.95,10.28,7.72,15.28c2.62,4.74,4.55,9.86,8.17,14.02
	c4.69,5.39,11.11,6.06,16.74,1.69c1.2,0.68,2.13,1.62,2.68,2.91c-11.29,7.94-19.42,1.5-25.41-7.85c-4.21-6.58-7.89-13.51-10.5-20.94
	c-0.22-0.62-1.04-1.03-1.58-1.54C355.27,96.01,355.72,94.66,357.15,93.9z"/>
<path class="st224" d="M511.08,205.38c-0.62,0.7-1.2,0.62-1.74-0.1C509.92,205.32,510.5,205.35,511.08,205.38z"/>
<path class="st12" d="M365.12,270.92c-2.06,0.97-1.9-1.1-2.18-1.88c-2.07-5.85-3.84-11.82-5.94-17.66
	c-4.15-11.54-8.43-23.03-12.7-34.52c-2.79-7.52-5.73-14.98-8.43-22.53c-1.61-4.52,0.04-8.67,4.01-11.31c1-0.66,1.94-1.46,2.79-2.32
	c9.82-10.01,33.07-3.69,36.53,12.42c2.16,10.1,6.84,19.38,10.06,29.14c2.41,7.31,5.17,14.51,7.7,21.79
	c0.37,1.06,0.58,2.04,1.88,2.22c1.96,7.52,2.6,15.09,0.8,22.74c-0.22,0.04-0.44,0.09-0.66,0.14c-0.9-0.77-0.78-1.87-1.03-2.89
	c-1.67-6.71-3-13.54-6.94-19.45c-5.55-8.34-20.52-8.06-25.86,0.52c-0.47,5.99-0.63,12.41-0.3,19.21
	C364.91,268.04,365.01,269.49,365.12,270.92z M368.61,214.32c-5.13,0.49-10.35,1.17-14.07,5.64c-0.68,0.82-1.58,1.71-0.78,2.76
	c0.87,1.15,1.9,0.43,2.74-0.25c3.58-2.95,7.43-4.94,12.31-4.61c1.4,0.09,3.94-0.07,3.82-2.11
	C372.51,213.98,370.23,214.49,368.61,214.32z"/>
<path class="st219" d="M369.64,287.53c4.35,13.32,8.36,25.5,14.1,42.94c-2.47,0.99-4.93,1.97-7.4,2.96
	c-0.89-5.42-2.55-13.22-5.92-22.24c-0.87-2.32-1.69-3.96-3.03-7.36c-4-10.17-9.52-19.54-15.48-28.66c-1.6-2.45-2.68-3.62-3.46-4.34
	c0,0-0.46-0.41-0.95-0.8c-1.98-1.53-8.42-2.86-17.03-3.19c-0.01-1.23,0.14-3.54,1.48-5.92c2.72-4.81,8-5.78,8.88-5.92
	c0.93-0.15,5.29-0.78,11.16,3.12C362.29,264.96,366.11,276.75,369.64,287.53z"/>
<path class="st218" d="M275.98,320.27c-1.58-2.28-3.44-4.31-5.62-6.03c-2.34-2.3-4.69-4.6-7.03-6.89c-1.64-1.81-2.85-4.1-5.41-4.88
	c0,0-0.28,0.08-0.28,0.08s-0.04,0.3-0.04,0.29c0.65-1.19-0.27-1.69-0.99-2.29c-2.04-2.98-4.37-5.7-7.24-7.91
	c-10.5-11.45-8.52-10.08-18.88-1.96c-2.71,2.12-5.2,4.53-7.79,6.8c-0.84-0.37-1.67-0.74-2.51-1.11c-0.39-1.26-0.75-2.82-0.93-4.63
	c-0.12-1.25-0.13-2.4-0.08-3.4c-1.15-9.53,1.87-18.75,2.07-28.18c0.02-1,0.55-1.68,1.51-2.01c-0.98,5.42,1.75,9.33,5.45,12.67
	c3.25,2.93,6.73,5.62,10.16,8.35c2.83,2.25,6.15,4.04,8.56,6.67c11.98,13.04,24.62,25.43,37.32,37.75c2.44,2.37,5.59,3.66,9.2,2.72
	c1.07,0.92,2.14,1.83,3.21,2.75c-0.31-0.05-0.61-0.01-0.89,0.1c-2.41-0.04-4.81-0.08-7.22-0.12c-1.26-0.59-2.52-1.17-3.77-1.76
	C281.83,324.95,278.9,322.61,275.98,320.27z"/>
<path class="st227" d="M393.85,330.21c-0.18,0.15-0.35,0.31-0.53,0.46c-0.12-0.21-0.25-0.42-0.33-0.64
	c-0.01-0.04,0.24-0.26,0.29-0.23C393.48,329.91,393.66,330.07,393.85,330.21z"/>
<path class="st224" d="M467.34,455.31c-0.14,0.58-0.14,1.27-0.98,1.27c-0.1,0-0.3-0.2-0.3-0.3
	C466.07,455.44,466.76,455.44,467.34,455.31C467.33,455.3,467.34,455.31,467.34,455.31z"/>
<path class="st223" d="M139.74,190.72c-4.4,3.4-9.46,6.15-11.46,11.87c-1.06-0.03-2.13-0.1-3.19-0.09
	c-2.86,0.03-13.87,6.77-13.07,7.83c2.46,3.25,6.73,2.77,10.22,3.94c0.82,0.27,2.22-0.05,2.92,0.83c0.84,1.07,0.24,2.95-0.39,4.38
	c-5.56-1.79-11.12-3.58-16.67-5.37c1.37,2.02,3.23,2.28,4.83,3.03c5.9,2.76,11.61,5.79,14.94,11.8c0.45,0.79,0.89,1.58,1.34,2.37
	c-5.06-4.66-9.79-7.31-13.32-8.88c-5.62-2.51-18.88-7.08-19.4-9.39c-0.1-0.45-0.01-0.86-0.01-0.86c0.28-1.01,1.64-1.44,2.39-2.1
	c4.86-4.29,10.4-7.75,15.06-12.33c5.12-5.04,9.28-10.65,11.86-17.44c1.91-5.02,2.86-5,6.3-0.66
	C134.87,183.19,138.35,186.23,139.74,190.72z"/>
<path class="st12" d="M284.84,187.09c-0.27-6.94-0.42-13.86,5.24-19.16c0.51-0.48,1.21-0.75,1.82-1.12
	c14.28,2.03,25.01,8.69,31.32,22.29c4.84,10.43,9.1,21.08,13.7,31.59c3.7,8.45,6.57,17.22,10.26,25.66
	c0.99,2.26,0.38,3.31-2.17,3.63c-14.01,1.74-19.62,9.75-16.62,23.56c0.06,0.27-0.07,0.57-0.33,2.34
	c-5.43-11.39-10.1-21.8-15.29-31.94c-5.27-10.3-8.58-21.46-14.32-31.52c-0.61-1.4-1.21-2.81-1.82-4.21
	C293.26,200.85,290.44,193.19,284.84,187.09z M316.55,231.2c4.79-1.77,9.13-4.55,14.3-5.02c0.87-0.08,1.93-0.57,1.78-1.67
	c-0.21-1.49-1.61-1.85-2.77-1.72C324.17,223.44,319,225.06,316.55,231.2z"/>
<path class="st235" d="M296.43,328.99c-2.2-0.26-5.49-0.94-8.88-2.96c-1.3-0.78-2.26-1.54-3.31-2.43c-5.57-4.71-8.97-8.74-8.97-8.74
	c-9.66-9.46-19.19-19.05-28.35-29.01c-2.41-2.63-5.72-4.42-8.56-6.67c-3.43-2.73-6.91-5.41-10.16-8.35
	c-3.7-3.34-6.43-7.25-5.45-12.67c-0.33-1-0.94-3.3-0.32-6.12c0.54-2.44,1.76-4.1,2.43-4.9c3.08-1.81,8.73-4.38,15.39-3.52
	c4.95,0.64,9.69,3.12,14.14,7.47c5.34,5.23,10.96,9.99,17.35,13.89c7.24,4.42,11.37,11.57,15.57,18.59c1.24,2.08,0.36,3.58-1.7,4.83
	c-9.57,5.8-7.18,22.25,0.25,28.08c0,0-0.07,0.02-0.07,0.02C289.33,320.66,292.88,324.83,296.43,328.99z M271.53,269.42
	c-0.19-1.27-1.18-1.17-2.07-1.17c-4.25,0.01-10.29,6.4-10.08,10.64c0.04,0.8,0.16,1.58,1.07,1.74c0.91,0.16,1.34-0.51,1.58-1.27
	c1.25-3.91,4.45-5.98,7.62-8.09C270.39,270.78,271.3,270.45,271.53,269.42z"/>
<path class="st219" d="M335.89,344.57c-3.04-4.13-4.81-7.1-4.81-7.1c-3.66-7.5-8.93-13.96-13.28-21.01
	c-4.34-7.03-9.4-13.58-14.79-19.86c2.58-3.22,0.21-6.26-0.8-8.98c-2.43-6.52-1.28-13,4.22-17.1c3.45-2.57,7.39-1.73,11.2-0.49
	c5.36,1.73,8.62,5.83,11.51,10.29c1.09,1.69,2.22,3.25,3.98,4.28c3.11,5.83,5.63,10.67,7.39,14.07
	c13.06,25.24,9.67,20.74,11.96,24.19c1.08,1.62,2.49,5.31,5.31,12.69c0.33,0.86,0.99,2.69,0.25,4.43c-0.42,0.99-1.3,1.82-2.74,2.56
	c-3.34,1.73-6.58,3.7-9.74,5.75c-1.88,1.21-3.12,1.28-4.15,1.12C339.52,349.14,338.21,347.72,335.89,344.57z"/>
<path class="st12" d="M297.32,288.17c-2.06,0.9-8.61-15.36-20.68-31.77c-3.59-4.89-6.98-8.83-9.22-15.76
	c-1.16-3.57-3.24-10.31,0.09-15.91c0.8-1.34,1.64-2.12,3.32-3.69c1.96-1.82,10.25-9.53,15.9-7.22c1.92,0.79,2.87,2.48,3.62,3.75
	c6.49,11.07,11.95,22.65,17.09,34.38c1.33,3.03,2.47,6.13,4.18,9.01c0.88,1.49,1.37,3.53-1.21,4.46
	c-8.71,3.15-13.56,8.77-11.95,18.6c0.04,0.22,0.25,0.99,0.05,1.94C298.32,286.92,297.74,287.99,297.32,288.17z M283.12,252.8
	c5.07-3.35,8.22-8.17,14.03-8.36c1.2-0.04,2.7-0.19,2.66-1.77c-0.05-1.87-1.72-1.78-3.05-1.82
	C291.21,240.66,285.64,245.23,283.12,252.8z"/>
<path class="st212" d="M343.35,303.33c-1.14-1.86-1.64-2.55-2.84-4.65c-2.61-4.59-4.88-9.41-7.39-14.07
	c-1.17-3.33-1.78-6.2-2.12-8.34c-0.35-2.22-0.47-3.97-0.53-5c-0.19-2.97-0.12-5.5,0-7.4c8.72,2.28,15.09,4.62,17.03,6.15
	c0.47,0.37,0.9,0.76,0.9,0.76c0.78,0.7,1.91,1.92,3.51,4.37c5.96,9.12,11.48,18.49,15.48,28.66c2.37,6.02,5.33,11.82,6.25,18.39
	c0.52,3.72,1.69,7.36,3.35,10.78c-5.94,3.38-9.09,5.02-11.65,4.37c-2.33-0.59-3.78-2.17-8.06-9.24
	C350.93,317.61,349.11,312.75,343.35,303.33z M341.64,282.26c-2.14,0.4-2.12,2-1.96,3.52c0.36,3.36,1.9,6.38,3.34,9.34
	c3.23,6.63,6.02,13.57,11.33,18.98c0.65,0.66,1.19,1.48,2.25,0.97c0.93-0.45,1.23-1.37,1.09-2.3c-0.13-0.88-0.42-1.77-0.81-2.57
	c-3.86-7.88-7.96-15.66-11.17-23.85C344.98,284.5,343.43,283.17,341.64,282.26z"/>
<path class="st12" d="M253.51,195.8c2.81-0.76,11.43-2.68,20.72,1.48c5.26,2.35,8.7,5.74,10.59,7.96c-2.1-0.16-8.75-0.33-14.78,4.14
	c-1.99,1.48-3.75,3.41-5.24,5.91c-1.9,3.67-3.8,7.33-5.7,11c-2.41-0.32-4.82-0.65-7.23-0.97c0.12-1.34,0.24-3.37,0.16-5.83
	c-0.19-5.77-1.31-8.26-1.48-11.84C250.42,204.85,250.85,200.83,253.51,195.8z"/>
<path class="st235" d="M437.79,238.88c-2.41-5.42-8.29-3.96-12.4-5.97c-9.01-4.4-16.85-9.85-23-17.84
	c-5.37-6.99-7.7-15.3-10.87-23.27c-0.67-1.68-1.29-3.41-2.19-4.97c-3.22-5.6-3.06-11.55-1.99-17.61c0.18-1.04,0.57-2.09,0.54-3.12
	c-0.03-1.44,0.78-3.43-0.9-4.14c-1.92-0.81-2.47,1.41-3.17,2.53c-1.71,2.76-3.12,2.89-5.03,0.19c-7.22-10.23-16.37-19.3-20.05-31.7
	c-2.41-8.13-4.29-16.42-6.34-24.66c-0.26-1.05-0.19-2.16-1.54-2.46c-1.85,18.73,0.74,36.72,8.97,53.77c1.53,1.7,3.09,3.5,4.65,5.41
	c2.59,3.17,4.9,6.28,6.96,9.26c2.24,3.4,4.47,6.81,6.71,10.21c-2.55-3.1-5.23-6.01-8.32-8.52c-10.36-7.13-23.24-5.38-31.4,3.9
	c-1.45,1.65-1.91,5.09-5.41,4.38c-1.95-0.48-1.61-2.3-2.06-3.61c-0.07-0.2-0.03-0.09-1.53-4.25c-0.34-0.95-0.62-1.72-0.8-2.21
	c-0.99-3.55-3.73-6.04-5.54-9.09c-1.97-1.64-5.29-3.91-9.9-5.02c-0.7-0.17-2.41-0.54-4.65-0.65c-1.9-0.09-4.55-0.19-7.68,0.84
	c-3.15,1.03-5.22,2.69-6.76,3.92c-1.62,1.29-2.81,2.55-3.6,3.48c5.2,0.17,14.52,1.31,22.53,7.81c1.7,1.38,5.6,3.72,10.19,13.6
	c4.84,10.43,9.1,21.08,13.7,31.59c3.7,8.45,6.57,17.22,10.26,25.66c0.99,2.26,0.38,3.31-2.17,3.63
	c-14.01,1.74-19.62,9.75-16.62,23.56c0.06,0.27-0.07,0.57-0.33,2.34c-5.43-11.39-10.1-21.8-15.29-31.94
	c-5.27-10.3-8.58-21.46-14.32-31.52c-0.61-1.4-1.21-2.81-1.82-4.21c-3.91-1.09-7.53-3.32-11.8-2.97
	c-8.35,0.01-15.49,2.43-20.02,10.05c-1.9,3.67-3.8,7.33-5.7,11c-0.48-0.09-1.12-0.26-1.82-0.59c-4.69-2.2-5.72-8.54-6.24-8.4
	c-0.52,0.15,0.61,6.72,0.84,8.01c0.57,3.27,1.01,6.03-0.36,7.98c-1.54,2.19-4.42-0.77-6.88-0.98c-9.72-0.85-16.96,2.96-19.77,14.83
	c10.59-5.94,20.64-4.74,29.52,3.95c5.34,5.23,10.96,9.99,17.35,13.89c7.24,4.42,11.38,11.57,15.57,18.59
	c1.25,2.08,0.36,3.58-1.7,4.83c-9.57,5.8-7.18,22.25,0.25,28.08c-0.09-2.87-1.95-5.05-2.99-7.53c-2.93-6.99-1.47-13.5,3.99-16.76
	c5.26-3.14,11.53-1.43,16.15,4.42c2.58-3.22,0.21-6.26-0.8-8.98c-2.43-6.52-1.28-13,4.22-17.1c3.45-2.57,7.39-1.73,11.2-0.49
	c5.36,1.73,8.62,5.83,11.51,10.29c1.09,1.69,2.22,3.25,3.98,4.28c-2.97-7.26-2.95-13.06-2.65-16.3c0.35-3.76,1.21-5.42,1.48-5.92
	c2.55-4.67,8.32-7.5,13.57-6.91c2.34,0.26,4.31,1.17,6.48,2.63c7.93,5.36,12.02,13.8,13.99,19.08c-0.71-1.84-1.79-4.68-3.04-8.15
	c-3.12-8.62-4.99-15.01-5.94-17.66c-4.15-11.54-8.43-23.03-12.7-34.52c-2.79-7.52-5.73-14.98-8.43-22.53
	c-1.61-4.52,0.04-8.67,4.01-11.31c1-0.66,1.94-1.46,2.79-2.32c9.82-10.01,33.07-3.69,36.53,12.42c2.16,10.1,6.84,19.38,10.06,29.14
	c2.41,7.31,5.17,14.51,7.7,21.79c0.37,1.06,0.58,2.04,1.88,2.22c7.03-0.14,14.05-0.05,21.03,0.93c5.25,0.06,10.27-1.61,15.45-2.12
	c0.98-0.46,1.96-0.93,2.94-1.39C438.09,242.1,437.94,240.49,437.79,238.88z M310.41,265.43c-8.71,3.15-13.56,8.77-11.95,18.6
	c0.18,1.11,0.39,2.42-1.14,4.15c-5.96-11.5-13.1-21.78-20.68-31.77c-1.19-1.57-2.4-3.13-3.68-4.62c-1.65-1.93-3.99-5.84-5.55-11.14
	c-1.23-4.19-3.1-10.6,0.09-15.91c0.64-1.06,1.25-2.28,3.32-3.69c3.47-2.37,6.32-5.51,10.55-6.85c4.6-1.46,6.57-0.7,8.97,3.38
	c6.49,11.07,11.95,22.65,17.09,34.38c1.33,3.03,2.47,6.13,4.18,9.01C312.5,262.46,312.99,264.5,310.41,265.43z"/>
<path class="st230" d="M243.76,204.33c-0.06,0.09-0.11,0.18-0.17,0.27c0.05-0.1,0.1-0.19,0.15-0.29
	C243.74,204.3,243.76,204.33,243.76,204.33z"/>
<path class="st235" d="M404.49,160.5c-2.99,0.72-5.66-1.17-8.44-2.58c-0.77-0.39-1.59-1.19-1.11-2.17c0.38-0.77,1.34-0.64,2-0.24
	c3.19,1.92,6.71,1.2,10.13,1.38c1.54,0.08,3.91-0.54,3.96,1.75c0.05,2.33-2.34,1.69-3.87,1.85
	C406.43,160.56,405.67,160.5,404.49,160.5z"/>
<path class="st235" d="M397.82,168.17c5.27,2.85,10.17,1.87,14.71,3.3c0.56,0.18,1.34,0.29,1.22,1.04
	c-0.07,0.49-0.51,1.08-0.95,1.33C409.36,175.77,400.9,173.09,397.82,168.17z"/>
<path class="st235" d="M386.59,142.83c3.74-0.73,6.38-1.23,9-1.76c0.74-0.15,1.58-0.5,1.99,0.37c0.47,0.99-0.15,1.77-0.96,2.28
	C393.6,145.64,390.63,145.29,386.59,142.83z"/>
<path class="st218" d="M296.62,208.21c-3.91-1.09-7.53-3.32-11.81-2.97c-3.34-2.42-6.39-4.06-8.71-5.15
	c-5.35-2.52-11.31-5.44-18.79-4.86c-1.63,0.13-2.96,0.39-3.81,0.58c0.51-1.21,1.35-2.87,2.75-4.59c2.02-2.49,4.15-3.79,5.45-4.6
	c2.6-1.63,5.68-3.29,9.78-3.49c4.03-0.2,8.01,1.11,12.05,3.63c0.36,0.23,0.86,0.23,1.3,0.34
	C290.44,193.19,293.26,200.85,296.62,208.21z"/>
<path class="st222" d="M131.01,229.22c-1.2,1.66-2.06-0.61-3.15-0.28c-3.33-6.02-9.04-9.05-14.94-11.8
	c-1.6-0.75-3.47-1.01-4.83-3.03c5.04-0.23,9.25,2.09,13.75,2.65c1.27,0.16,3.18,1,3.45-0.72c0.3-1.85-1.86-1.36-3.05-1.77
	c-3.49-1.17-7.76-0.69-10.22-3.94c-0.8-1.06,10.21-7.79,13.07-7.83c1.06-0.01,2.13,0.06,3.19,0.09c-2.42,7.17-0.24,14.01,1.46,20.89
	C130.21,225.39,130.59,227.31,131.01,229.22z"/>
<path class="st229" d="M181.7,222.58c0.05-0.28,0.1-0.55,0.15-0.83c0.14,0.07,0.27,0.15,0.41,0.22c-0.19,0.2-0.38,0.39-0.58,0.59
	C181.68,222.56,181.7,222.58,181.7,222.58z"/>
<path class="st235" d="M398.97,269.17c-0.04,1.28,0.34,2.67-0.94,3.63c-0.56-0.12-0.95-0.34-1.23-0.63c-0.8-0.86-0.66-2.2-0.64-2.53
	c0.22-2.74-2.24-16-9.91-22.53c-1.26-1.07-3.82-3.19-7.61-3.58c-3.47-0.35-6.16,0.94-7.26,1.48c-4.21,2.09-6.21,5.62-6.9,7.02
	c-0.94-5.32,0.61-7.83,1.48-8.88c4.77-5.75,19.53-3.71,25.02,3.67c1.72,2.31,2.85,3.02,6.94,19.45
	C398.2,267.29,398.07,268.4,398.97,269.17z"/>
<path class="st235" d="M368.61,214.32c1.62,0.17,3.91-0.34,4.01,1.43c0.12,2.04-2.42,2.2-3.82,2.11c-4.88-0.33-8.74,1.66-12.31,4.61
	c-0.83,0.69-1.87,1.4-2.74,0.25c-0.8-1.06,0.1-1.95,0.78-2.76C358.26,215.49,363.48,214.81,368.61,214.32z"/>
<path class="st169" d="M306.87,154.5c-6.66-2.09-10.42-2.99-18.31-5.6c-7.09-2.34-15.12-5.19-23.91-8.65
	c-0.92,0.09-1.89,0.19-2.91,0.33c-3.57-2.58-20.72-14.62-34.87-18.77c-3.52-1.03-9.32-2.73-16.91-2.6
	c-2.44,0.04-2.37-0.48-6.46,0.45c-11.03,2.5-21.71,0.04-30.36-8.19c-0.97-0.92-2.15-1.62-3.24-2.42c-0.21,0.23-0.47,0.37-0.77,0.43
	c-0.33,0.39-0.67,0.77-1,1.16c-3.18,3.85-6.29,7.76-9.56,11.52c-11.37,13.06-17.78,27.97-18.28,45.51
	c-0.23,7.79,1.13,15.4,1.27,23.12c0.01,0.64,0.13-8.85,2.45-21.61c1.49-8.18,3.54-14.74,5.09-19.08
	c6.95,4.6,15.94,11.67,24.51,22.04c9.55,11.56,15.18,23.14,18.54,32.11c-1.25,3.05-2.5,6.3-3.67,9.67
	c-3.69,10.58-8.08,26.35-9.85,46.74c9.62,8.42,19.23,16.85,28.85,25.27c-6.84,13.17-17.51,31.01-33.58,49.77
	c-6.75,7.88-12.98,14.2-20.01,20.89c-48.3,45.93-82.06,78.03-122.2,95.49c-6.38,2.77-20.21,9.55-28.13,23.5
	c-2.59,4.56-4.87,11.88-2.64,23.61c13.41-0.32,26.83-0.65,40.24-0.97c3.82-4.05,10.47-10.94,19.1-19.11
	c36.35-34.41,48.25-33.99,80.34-63.9c20.7-19.3,21.65-22.79,31.95-25.56c22.38-6.03,50.22,6.5,52.71,19.19
	c0.48,2.47-0.18,6.02,2.2,11.26c2.03,4.47,4.75,8.25,7.44,12c5.01,6.99,10.82,13.41,16.25,20.1c5.85,7.21,5.26,15.55,3.62,23.82
	c-1.48,7.48-3.66,14.82-5.53,22.22h23.73c5.12-16.78,7.88-33.75,2.7-51.01c-3.45-11.49-5.91-12.91-17.93-37.64
	c-19.48-40.08-12.17-38.2-25.07-59.16c-2.97-4.82-7.39-14.96-14.49-35.85c-2.28-6.73-2.33-12.8,4.53-17.06
	c-1.03-1.11-2.07-2.23-3.1-3.34c0.95-19.17,1.63-32.91,1.66-33.98c0-0.16,0.01-0.69,0.35-1.18c0.25-0.38,0.65-0.65,1.16-0.83
	c0.06-1.24,0.18-2.58,0.4-4.01c0.4-2.68,1.04-5.04,1.72-7.01c0.16-1.18,1.25-8.04,7.34-12.21c3.37-2.31,7.59-3.04,12.44-2.62
	c2.46,0.21,5.34,3.18,6.88,0.98c1.29-1.84,0.32-5.26,0.36-7.98c-0.44-6.38-0.88-12.76-1.32-19.15c0.08-1.79,0.39-4.42,1.48-7.4
	c0.79-2.15,3.32-8.08,9.68-12.15c3.09-1.98,6.04-3.31,9.78-3.49c4.03-0.2,8.01,1.11,12.05,3.63c0.36,0.23,0.86,0.23,1.3,0.34
	c-0.27-3.2-0.6-12.16,5.24-19.16c0.48-0.57,1.84-2.14,4.02-3.72c2.3-1.67,9.85-6.51,19.09-4.12c7.85,2.03,11.96,7.88,12.98,9.38
	c1.23,1.81,1.99,3.5,2.46,4.73c2.68-2.9,5.37-5.79,8.05-8.69C324.33,160.27,314.07,156.76,306.87,154.5z M243.59,204.6
	c0.05-0.1,0.1-0.19,0.15-0.29l0.02,0.02C243.7,204.42,243.65,204.51,243.59,204.6z"/>
<path class="st235" d="M316.55,231.2c2.45-6.15,7.62-7.77,13.3-8.4c1.16-0.13,2.56,0.23,2.77,1.72c0.16,1.1-0.9,1.59-1.78,1.67
	C325.68,226.65,321.34,229.43,316.55,231.2z"/>
<path class="st235" d="M283.12,252.8c2.53-7.57,8.09-12.15,13.63-11.95c1.34,0.05,3.01-0.05,3.05,1.82
	c0.04,1.58-1.45,1.74-2.66,1.77C291.33,244.63,288.18,249.45,283.12,252.8z"/>
<path class="st131" d="M341.64,282.26c1.79,0.91,3.34,2.24,4.06,4.08c3.22,8.19,7.31,15.97,11.17,23.85
	c0.39,0.8,0.68,1.69,0.81,2.57c0.14,0.93-0.17,1.85-1.09,2.3c-1.06,0.52-1.6-0.3-2.25-0.97c-5.3-5.42-8.09-12.35-11.33-18.98
	c-1.44-2.96-2.98-5.97-3.34-9.34C339.52,284.27,339.5,282.66,341.64,282.26z"/>
<path class="st219" d="M447.37,268.31C493.25,281.88,539.12,295.44,585,309c0,11.67,0,23.33,0,35
	c-45.88-13.39-91.75-26.78-137.63-40.17C447.37,291.99,447.37,280.15,447.37,268.31z"/>
<path class="st212" d="M339.34,349.71c-1.22,1.42-2.69,2.93-4.44,4.44c-3.55,3.05-7.08,5.03-9.93,6.32
	c-3.52-3.54-8.22-8.38-13.59-14.3c-2.87-3.17-3.8-4.21-10.07-11.52c-16.04-18.67-18.74-22.24-19.69-27.86
	c-0.28-1.63-1.16-7.29,1.7-11.32c1.47-2.06,3.53-3.28,3.53-3.28c5.26-3.14,11.53-1.43,16.15,4.42c5.39,6.27,10.45,12.83,14.79,19.86
	c0.83,1.35,1.7,2.69,2.59,4.01c5.67,8.45,7.46,11.95,10.69,17C332.95,340.39,335.73,344.62,339.34,349.71z"/>
<path class="st212" d="M367.46,277.19c-1.86-3.81-3.59-8.92-3.7-14.98c-0.06-3.2-0.22-12.03,4.69-15.57
	c0.71-0.51,1.83-1.12,2.95-1.62c2.75-1.23,5.06-1.72,7.26-1.48c3.58,0.38,6.08,2.3,7.61,3.58c5.19,4.32,7.13,10.14,7.83,12.32
	c8.03,25.08,10.36,44.4,10.36,44.4c0.55,4.54,1.26,11.14,1.83,19.17c-4.29,2.79-12.21,7.21-16.71,4.23
	c-1.6-1.06-2.22-2.69-2.46-3.29C384.6,317.46,377.32,300.38,367.46,277.19z"/>
</svg>
