<svg version="1.1" id="Слой_1" xmlns="http://www.w3.org/2000/svg" x="0" y="0" viewBox="0 0 585 499" xml:space="preserve"><style>.st12{fill:#ffc5c4}.st169{fill:#ff7b89}.st212{fill:#ffe4eb}.st218{fill:#ffd0d7}.st219{fill:#ffbec5}.st223{fill:#f3f3f3}.st224{fill:#a4c6dd}.st235{fill:#ffa5b2}</style><path class="st12" d="M124.76 215.04c2.47 22.2 4.93 44.4 7.4 66.59 15.29-6.91 30.58-13.81 45.88-20.72 23.81-35.14 19.62-54.13 16.28-62.15-2.87-6.9-5.9-7.57-22.2-28.12-18.36-23.14-20.52-29.86-25.16-29.6-6.78.39-14.89 15.46-22.2 74z"/><path class="st218" d="M391.59 498.2h-7.3c.07-4.1-.6-8.14-1.57-12.08-1.78-7.16-3.83-14.25-5.89-21.34-.41-1.43-.24-4.04-2.52-3.57-2.64.54-1.99 2.98-1.42 4.88 3.17 10.71 6.38 21.41 9.59 32.11h-8.21c.11-3.63-.12-7.22-.91-10.8-1.35-6.17-2.49-12.39-3.72-18.59-.26-1.29-.79-2.46-2.31-2.21-1.37.22-1.3 1.53-1.22 2.57.08 1.04.29 2.1.6 3.1 2.62 8.49 2.67 17.54 5.74 25.93h-7.3c-1.76-4.65-3.07-9.4-3.86-14.32-.35-2.18-1.49-4.24-2.31-6.35-.31-.79-.48-2.03-1.7-1.54-.74.3-1.42 1.11-1.8 1.86-.62 1.19.31 2.31.54 3.47 1.15 5.73 4 10.99 4.57 16.88h-73.01c.04-1.98-.53-3.75-1.19-5.66-2.42-7.04-6.05-14.08-2.21-21.94.07 5.46 2.53 9.76 5.86 13.74.8.95.77 3.13 2.63 2.27 1.86-.87 1.46-2.82.85-4.43-1.01-2.67-2.26-5.25-3.22-7.93-3.22-8.94-5.44-18.23-8.7-27.11-5.25-14.29-9.04-28.98-13.36-43.53-3.06-10.31-4.83-20.9-7.35-31.3-2.41-9.92-3.38-19.91-4.28-29.96-1.11-12.53-3.34-24.85-5.65-37.19-.76-4.07-3.61-8.05-1.59-12.52 2.87 2.21 5.2 4.93 7.24 7.91.01.9.12 1.76.99 2.29l.04-.3.29-.09c-1.93 2.21-1.97 4.56-.85 7.2.64 1.51 1.01 3.19 1.24 4.82 2.54 18.23 4.3 36.56 7.47 54.69 2.16 12.36 4.02 24.79 7.93 36.78 2.95 9.04 5.08 18.32 8.27 27.32 4.74 13.37 8.61 27.04 14.22 40.1.51 1.18.99 3.04 2.73 2.36 1.63-.64 2.57-2.3 1.58-4.12-5.16-9.52-7.37-20.12-10.83-30.24-5.42-15.82-10.48-31.81-14.6-48-3.12-12.25-4.68-24.91-6.65-37.43-1.95-12.39-2.68-24.94-5.09-37.29-.7-3.58-1.8-7.55-.01-11.3 2.34 2.3 4.69 4.59 7.03 6.89.11 3.42-.46 7.06.51 10.22 1.08 3.52 1.61 7.02 2.08 10.59 1.69 12.74 3 25.54 5.17 38.2 1.88 10.99 4.64 21.84 7.18 32.72 1.09 4.69 2.54 9.31 3.93 13.93 2.13 7.07 4.26 14.15 6.55 21.17 2.93 8.96 5.98 17.88 9.85 26.63 3.67-2.12 3.2-4.77 2.08-7.69-5.35-13.96-9.72-28.25-14.02-42.55-2.43-8.1-4.36-16.36-6.65-24.48-2.36-8.35-2.88-16.93-4.83-25.3-1.74-7.48-2.28-15.24-3.41-22.86-1.21-8.15-3.02-16.23-2.82-24.55 2.93 2.34 5.85 4.69 8.78 7.03.49 6.76 1.3 13.43 2.52 20.15 2.45 13.45 4.03 27.06 6.46 40.55 3.03 16.87 6.71 33.53 12.18 49.77 2.07 6.16 4.8 12.08 6.51 18.38.45 1.68 1.69 3.16 3.7 2.41 1.92-.71 1.43-2.32.81-3.84-1.03-2.51-1.85-5.12-2.94-7.6-3.04-6.92-5.38-14.11-7.1-21.4-2.01-8.51-5.11-16.73-6.39-25.46-1.11-7.58-3.43-14.97-4.64-22.54-1.72-10.74-3.4-21.52-4.12-32.35-.38-5.68-4.12-10.51-3.21-16.3l7.22.12c-.12 1.18-.81 2.87-.27 3.47 3.58 4.01 2.82 9.32 3.55 13.79 3.19 19.54 7.08 38.95 10.49 58.44 1.73 9.9 3.72 19.75 7.18 29.24 1.65 4.54 3.14 9.15 4.52 13.77.47 1.58.27 3.85 2.61 3.42 2.75-.5 2.27-2.92 1.67-4.79-1.67-5.17-3.38-10.34-5.12-15.46-3.43-10.08-5.26-20.5-7.02-30.84-2.38-14.01-5.7-27.84-7.33-42-.92-7.93-3.1-15.72-4.71-23.57 3.36 3.84 6.72 7.68 10.07 11.52.89 11.91 2.41 23.76 4.65 35.46 2.17 11.35 5 22.61 8.16 33.73 2.47 8.68 5.92 17.08 7.36 26.07.19 1.2.96 2.37 2.38 2.39 1.31.01 1.43-1.37 1.99-2.22.84-1.29.37-2.59.15-3.94-1.51-9.11-4.78-17.72-7.49-26.49-3.74-12.1-6.55-24.41-8.04-36.99-.55-4.65-2.54-9.07-1.99-13.9.2-1.76.2-3.39 2.45-3.68 1.79.82 2.62 2.61 3.99 3.86 4.33 13.57 4.71 27.98 9.02 41.6 3.05 9.64 4.99 19.63 7.63 29.4.49 1.8.82 5 3.69 4.14 2.5-.75 1.93-3.79 1.3-5.62-1.24-3.59-2.16-7.25-3.2-10.89-5.03-17.61-8.8-35.5-12.31-53.45-.33-1.71-1.58-3.77 1.39-4.25 2.22-.36 3.6-.04 4.55 2.86 3.11 9.54 3.6 19.59 6.19 29.21 2.91 10.82 5.68 21.68 8.61 32.49.35 1.28.63 3.43 2.92 2.36 1.7-.8 2.12-2.19 1.69-4.18-2.11-9.7-5.25-19.13-7.59-28.79-2.52-10.43-3.76-21.06-6.35-31.45-.87-3.48-1.56-7.46.09-11.15.36-.81.57-1.84 1.71-1.87.86-.02 1.49.67 1.61 1.37.75 4.37 4.56 8.09 4.31 12.21-.42 6.81 3.38 12.12 4.87 18.18 2.64 10.7 5.54 21.31 7.37 32.19.31 1.84-.15 5.11 2.37 4.95 2.49-.16 2.13-3.24 2.07-5.34-.03-1.05-.26-2.1-.49-3.13-1.04-4.69-1.7-9.44-3.02-14.1-3.99-14.03-7.23-28.29-11.57-42.21-1.24-3.98-.42-4.17 2.77-4.82 4.74-.96 4.66 2.64 4.92 5.17.62 5.91 3.8 11.03 4.43 17.03.6 5.7 3.34 11.15 4.66 16.82 1.56 6.75 2.62 13.62 3.86 20.44.24 1.3.66 2.48 2.16 2.47 1.36-.01 1.44-1.36 1.83-2.3.55-1.31.79-2.73.25-4.01-2.37-5.63-2.47-11.78-3.84-17.63-3.17-13.5-7.03-26.78-10.8-40.1-.51-1.8-.62-3.58-.58-5.4.03-1.37-.04-2.85 1.83-3.15 1.8-.29 3.38-.01 4.11 1.93.48 1.28.77 2.63 1.28 3.89 3.02 7.44 3.86 15.46 6.13 23.11 2.29 7.76 3.93 15.72 5.66 23.64.51 2.32-.24 4.91 1.52 6.96.75.88-.07 3.34 2.15 2.61 1.71-.57 3.16-1.77 2.61-4.15-.94-4.08-1.27-8.25-2.4-12.35-2.6-9.42-4.4-19.04-7.29-28.41-2.27-7.37-6.53-15.53 3.69-20.88.13-.07.29-.09.8-.25 1.81 6.19 3.96 12.31 5.37 18.6 2.45 10.92 4.92 21.87 5.58 33.11.05.78.2 1.72 1.12 1.65.63-.05 1.32-.67 1.78-1.21.85-.99.6-2.29.74-3.49.5-4.31-1.14-8.29-1.75-12.42-2.08-14.15-5.61-27.82-11.98-40.68.5-1.98.18-3.87-.45-5.78-4.14-12.61-8.28-25.23-12.36-37.86-.97-2.99-2.9-5.68-2.89-8.99 1.93.98 2.58 2.79 3.31 4.68 5.31 13.73 10.56 27.48 17.05 40.72.96 1.95 1.74 3.94 4.54 3.53 5.1-.76 10.27-1.3 14.63-4.46.33 2.79-1.73 3.74-3.62 5.01-2.57 1.73-5.64 3.55-5.26 7.19 1.26 11.85 2.81 23.68 4.23 35.52.15 1.21.12 2.73 1.67 2.79 1.92.08 1.98-1.64 1.92-2.97-.31-6.49-.46-13.01-1.21-19.46-.45-3.84-.62-7.78-2.25-11.5-2.05-4.66-1-8.11 4.43-9.96 2.31-.79 2.58-.46 2.74 1.56.24 3.01.59 6.01.92 9.01.09.85-.19 2.04 1.04 2.19 1.14.14 1.43-.9 1.59-1.81 1.43-8.57 1.81-17.26.43-25.78-1.29-7.98-2.19-16.03-3.83-23.98-2.1-10.21-2.9-20.7-7.47-31.65 0 2.77.06 4.36-.02 5.94-.07 1.57.49 3.53-1.96 3.94 1.8-7.65 1.16-15.22-.8-22.74 7.03-.14 14.05-.05 21.03.93-4.7 0-9.4-.07-14.1.03-1.34.03-3.55-.8-3.67 1.4-.09 1.84 1.97 2.18 3.44 2.14 3.7-.12 4.71 2.06 5.64 5.18 1.95 6.46 2.16 13.24 3.9 20.58 2.66-5.63 3.95-10.48 2.27-15.83-.63-2-.88-4.14-1.06-6.24-.21-2.42 1.81-4.68 3.37-3.35 5.05 4.31 6.29-.27 8.51-2.9 1.04-1.23 2.46-.96 3.8-1.01 1.53-.06 3.16.08 3.33-2.11.98-.46 1.96-.93 2.94-1.39 4.2-.76 6.12 1.55 7.18 5.2 1.85 6.34 1.7 12.91 2.38 19.38l.3 1.74c-.91 6.69-.36 13.38-.02 20.08-.49 1.08.22 1.83.71 2.64-1.55 1.34-.77 3.12-.81 4.69-.52 20.93-1.01 41.85-3.21 62.7-1.37 12.96-2.91 25.86-.38 38.95 3.44 17.84 10.88 34.38 16.02 51.65.49 2.81.91 5.63 2.22 8.21.19 1.79.3 3.6.58 5.38 1.08 6.7 2.72 13.33 2.03 20.2-3.89-.29-4.8 1.71-3.95 5.11.52 2.08 1.27 4.21-.52 6.36-2.61-3.05-1.46-6.37-1.6-9.44-.17-3.62-.9-7.42-3.73-9.32-2.3-1.54-3.67-3.03-4.61-5.47-.57-1.47-1.73-3.44-3.5-2.99-1.75.45-.72 2.62-.99 4.02-.14.68.11 1.57-.87 1.8-.8-.16-.84-.8-.97-1.36-.73-3.09-1.27-6.24-2.26-9.24-.5-1.51-1.88-3.3-3.66-2.87-2.37.58-.55 2.49-.5 3.8.04 1.05.26 2.1.53 3.13 2.57 10.05 5.16 20.09 7.75 30.13h-4.56c0-.91.15-1.85-.04-2.72-2.53-12.1-5.09-24.19-7.7-36.27-.25-1.18-.96-2.28-2.12-2.84-1.03-.49-1.87-2.04-3.15-1.25-1.16.72-.83 2.26-.54 3.36 1.49 5.64 3.25 11.21 4.65 16.87 1.88 7.58 3.51 15.23 5.24 22.84h-4.56c-.06-1.51.19-3.12-.23-4.52-3.25-10.72-3.9-21.95-6.56-32.78-.5-2.04-.64-4.19-1.35-6.15-.53-1.47-1.47-3.38-3.61-2.45-1.93.84-1.31 2.43-1 4.22.73 4.27 2.24 8.32 2.85 12.64.95 6.69 2.41 13.34 4.26 19.84.87 3.05 2.04 5.96 1.99 9.18h-5.48c-.52-15.53-4.99-30.35-8.24-45.38-.26-1.2-.76-2.1-2.07-1.86-1.66.3-1.56 1.62-1.27 2.87 1.5 6.47 3.16 12.9 4.5 19.4 1.71 8.27 4.81 16.31 4.34 24.97h-5.48c-.14-1.8-.21-3.61-.45-5.4-1.29-9.87-3.98-19.45-6.32-29.1-.88-3.65-.41-7.56-2.17-11.06-.53-1.06-.69-2.68-2.25-2.31-1.79.42-1.4 1.93-1.08 3.35 2.2 9.81 4.4 19.62 6.46 29.47 1.05 5.01 3.16 9.81 3.08 15.05h-9.13c.27-8.63-1.15-17.15-3.12-25.42-1.4-5.87-2.41-11.83-4.02-17.66-.46-1.67-.71-3.55-2.96-3.24-2.48.33-1.59 2.51-1.76 4.03-.39 3.56 1.39 6.77 2.2 10.03 2.67 10.69 5.04 21.42 6.92 32.26h-6.39c-.74-8.25-2.34-16.34-4.49-24.34-1.37-5.1-2.54-10.26-3.83-15.39-.4-1.57-1.31-3.04-3.04-2.82-1.9.23-1.52 2.1-1.3 3.32.43 2.38 1.12 4.71 1.79 7.04 3.01 10.6 6.97 20.98 7.19 32.2zm2.26-167.99c-.19-.14-.36-.31-.57-.41-.05-.03-.31.19-.29.23.08.22.22.43.33.64.18-.15.35-.3.53-.46z"/><path class="st219" d="M249.22 498.2H41.15c.45-3.5 2.97-5.62 5.45-7.55 8.91-6.95 17.16-14.72 25.64-22.1 9.38-8.17 18.62-16.68 27.98-24.92 21.84-19.25 39.63-32.59 45.6-37.09 8.33-6.28 18.85-13.95 31.29-22.38 2.19-1.17 15.93-8.27 29.05-2.32 10.99 4.98 17.7 17.44 19.09 26.99.48 3.31.07 6.57 2.2 11.26 2.03 4.47 4.75 8.25 7.44 12 5.01 6.99 10.82 13.41 16.25 20.1 5.85 7.21 5.26 15.55 3.62 23.82-1.49 7.45-3.67 14.79-5.54 22.19z"/><path class="st169" d="M462.84 459c-10.16-23.35-14.92-43.69-17.35-58.43-7.14-43.44-1.11-81.51 2.49-103.14.33-2.01.62-3.65.81-4.69l136.2 41.25v165A346415.4 346415.4 0 01462.84 459zm-15.03-190.71c-.67-6.47-.53-13.04-2.38-19.38-1.06-3.66-2.98-5.96-7.18-5.2-.15-1.61-.31-3.22-.46-4.82.13-1.5.12-2.84-.67-4.34-1.73-3.3-3.21-6.76-4.46-10.27-2.99-8.44-6.56-16.68-7.92-25.65-.91-6.03-3.78-11.73-3.07-18.04 3.83 1.41 7.97 1.59 11.91 2.31 24.23 4.45 41.21 12.81 46.21 14.93 14.2 6.04 42.65 16.31 105.21 34.97v78.43a8032.89 8032.89 0 01-137.19-42.94z"/><path class="st219" d="M249.35 292.63c-2.01 4.47.83 8.45 1.59 12.52 2.31 12.34 4.54 24.66 5.65 37.19.89 10.04 1.87 20.03 4.28 29.96 2.52 10.4 4.29 21 7.35 31.3 4.32 14.55 8.11 29.23 13.36 43.53 3.26 8.88 5.47 18.17 8.7 27.11.97 2.68 2.21 5.26 3.22 7.93.61 1.61 1.01 3.56-.85 4.43-1.85.86-1.83-1.31-2.63-2.27-3.33-3.98-5.79-8.28-5.86-13.74-3.84 7.86-.21 14.9 2.21 21.94.66 1.91 1.23 3.68 1.19 5.66h-14.6c5.12-16.78 7.88-33.75 2.7-51.01-4.03-13.43-10.96-25.57-17.93-37.64-3.07-6.46-6.13-12.91-9.2-19.37a.506.506 0 00-.24-.59c-4.83-11.92-9.67-23.84-14.5-35.76-.38-1.15-.7-2.31-1.13-3.43-4.68-12.01-10.33-23.63-14.49-35.85-2.28-6.73-2.33-12.8 4.53-17.06 2.59-2.27 5.08-4.68 7.79-6.8 10.34-8.12 8.36-9.5 18.86 1.95zm-4.87 73.16c1.03-1.66 1.77-3.23 1.59-4.9-.95-8.7-2.05-17.38-3.03-26.07-1.05-9.36-4.27-18.24-6.01-27.45-.71-3.78-3.18-7.12-4-11.01-.33-1.56-1.87-1.87-3.35-1.5-1.12.28-1.35 1.06-.88 2.08 2.31 4.95 3.12 10.35 4.18 15.61 1.66 8.27 3.47 16.51 4.68 24.91 1.38 9.51.31 19.82 6.82 28.33zm8.38-11.94h-.04c0-1.06.14-2.15-.02-3.19-1.76-11.32-1.91-22.8-4.16-34.13-1.51-7.59-4.15-14.82-5.58-22.38-.19-1.03-.67-2.02-1.12-2.97-.56-1.16-1.38-2.08-2.85-1.67-1.2.33-1.61 1.33-1.68 2.45-.13 2.13.02 4.2.66 6.29 2.36 7.78 5.28 15.43 6.6 23.49 1.9 11.6 3.65 23.23 5.46 34.85.16 1.01-.09 2.45 1.38 2.44 1.44-.01 1.29-1.42 1.35-2.45.04-.9 0-1.81 0-2.73zm11.53 55.2c-2.23-3.44-.39-7.57-1.83-10.83-3.29-7.43-3.63-15.52-5.99-23.13-.4-1.3-.14-2.96-2.26-2.48-1.61.36-1.81 1.37-1.74 3.05.5 11.6 4.26 22.18 9.65 32.3.37.71.79 1.3 2.17 1.09zm-32.44-82.02c-1.63-4.08-1.78-8.93-2.32-13.72-.16-1.45-.98-2.87-1.68-4.21-1.18-2.25-3.36-1.68-5.27-1.54-1.34.1-1.6 1.06-1.37 2.32 1.21 6.68 4.89 12.54 6.38 19.13.26 1.17 1.18 2.26 2.68 1.92 1.88-.41 1.36-2.05 1.58-3.9zm-8.29-21.42c1.29-.06 2.54-.16 2.55-1.82.01-1.35-.89-1.79-2.08-1.65-1.27.15-2.39.83-2.58 2.08-.24 1.64 1.24 1.22 2.11 1.39zm24.17 69.33c-.19-.14-.36-.31-.57-.41-.05-.03-.3.19-.29.23.08.22.22.43.33.64.18-.16.35-.31.53-.46zm-2.7-5.64l-.2.3.31.05-.11-.35z"/><path d="M512.99 208.93c.29-.07.59-.08.89-.05v.91l-.89-.86z" fill="#b59f90"/><path class="st212" d="M137.91 3.41c4.99 2.27 12.54 6.57 18.46 14.53 4.66 6.27 6.59 12.49 10.31 32.13 1.77 9.32 3.88 21.35 5.92 35.52-.15 6.91-.29 13.82-.43 20.73-.76.91-1.51 1.82-2.27 2.72-.21.23-.47.37-.78.43-.33.39-.67.77-1 1.16-3.18 3.85-6.29 7.76-9.56 11.52-11.37 13.06-17.78 27.97-18.28 45.51-.23 7.79 1.13 15.4 1.27 23.12-.6-.02-1.2-.03-1.8-.05-1.39-4.5-4.87-7.54-7.66-11.07-3.43-4.34-4.39-4.36-6.3.66-2.59 6.79-6.74 12.4-11.86 17.44-4.65 4.58-10.19 8.04-15.06 12.33-.93.82-2.81 1.29-2.38 2.96.42 1.63 2.1 1.79 3.58 2.29 3.87 1.33 7.54 3.19 11.35 4.69 3.08 1.21 5.54 2.35 6.48 2.82 3.56 1.74 8.56 4.98 13.73 11.57a53.62 53.62 0 00-2.1 12.26c-.15 2.91-.28 5.72.48 9.33.5 2.39 1.19 5.65 3.57 8.95 2.88 4 6.69 5.91 8.89 6.78.01.18.01.35 0 .51-.16 2.55-2.51 4.33-3.66 5.09l.14.16a28.642 28.642 0 01-6.99 3.7c-6.94 2.5-12.97 1.55-17.5.83-3.84-.61-9.93-2.05-16.7-5.89-1.8-1.84-3.67-3.95-5.54-6.33a78.176 78.176 0 01-7.31-11.18c-1.89-3.77-4.09-8.9-5.77-15.2-1.2-4.48-1.98-8.98-2.41-13.6-1.68-18.11 5.06-38.95 5.06-38.95 4.52-13.69 7-24.93 8.38-32.1 4.92-25.67 6.23-54.09 7.6-83.91.03-.62.47-8.27 1.81-18.51 3.46-26.34 8.16-33.59 10.41-36.65 5.53-7.52 11.91-11.08 13.32-11.84 5.8-3.16 11.23-4.13 14.6-4.46z"/><path class="st212" d="M109.69 290.19c-2.61 2.78-5.34 5.37-9.24 6.26-.48-.81-1.09-1.48-2.06-1.65-5.29-.95-9.14-4.37-13.14-7.57-9.57-7.66-14.69-18.21-19.01-29.24-4.14-10.56-5.01-21.52-4.28-32.81.47-7.28 1.94-14.36 2.86-21.53.52-4.06-.53-7.42-4.35-9.06-3.17-1.35-4.64-3.75-5.61-6.66-1.05-3.15-3.31-4.15-5.92-2.67-3.64 2.07-6.12 1.56-8.05-2.07-.43-4.37 1.84-7.96 3.6-11.59 10.04-20.73 16.56-42.14 16.03-65.58-.4-17.57.44-35.24 5.33-52.32 2.96-10.35 6.27-20.73 12.25-29.8C88.75 7.79 103.22-1.34 123.3.75c-1.97 3.19-5.56 4.43-8.25 6.79-2.54 2.23-7.34 6.82-11.28 12.75-4.58 6.88-6.13 12.98-8.61 23.09-2.48 10.1-3.35 18.03-3.58 20.23-2.37 22.7-1.81 48.22-2.09 60.04-.03 1.19-.42 2.37-.68 3.54-.97 4.4-1.96 8.79-2.95 13.19-1.48 6.62-2.84 13.26-4.46 19.85-2.7 10.98-5.13 22.06-8.56 32.83-1.41 4.44-.87 9-2.4 13.28-2.17 6.08-2.67 12.48-2.74 18.81-.13 12.02 1.13 23.96 5.52 35.27 4.6 11.86 11.7 21.31 24.59 25.56 3.96 1.29 8.05 2.46 11.88 4.21z"/><path class="st223" d="M109.69 290.19c-3.83-1.75-7.93-2.92-11.87-4.22-12.89-4.26-19.99-13.71-24.59-25.56-4.39-11.31-5.65-23.25-5.52-35.27.07-6.33.56-12.73 2.74-18.81 1.53-4.28.98-8.83 2.4-13.28 3.43-10.76 5.86-21.84 8.56-32.83.45-1.82.88-3.65 1.29-5.48.58-2.55 2.33-10.07 3.17-14.37 1.29-6.69 1.61-11.92 1.9-17.09 1.29-22.8 1.92-40.25 3.82-59.69.66-6.76 1.44-13.4 3.58-21.71 2.01-7.8 3.76-14.35 8.61-21.61 4.01-5.99 8.72-10.5 11.28-12.75 2.69-2.36 6.27-3.6 8.25-6.79 5 .17 10.21-.83 14.61 2.65-.5 1.01-1.23 1.83-2.41 1.83-10.07-.05-16.29 6.62-21.85 13.43-8.85 10.84-12.21 24.06-14.09 37.68-1.13 8.13-1.62 14.17-1.81 18.51-1.89 41.46-2.83 62.19-4.84 73.02-1.71 9.25-4.85 20.5-11.14 42.99-2.93 10.49-6.54 22.84-5.06 38.95.64 6.99 2.01 12.16 2.41 13.6 4.3 15.73 12.86 26.6 18.63 32.72 5.44 3.77 10.39 6.35 16.7 5.89 3.2-.23 6.67-1.11 9.77.84-6.1.01-9.95 4.4-14.54 7.35z"/><path class="st12" d="M437.79 238.88c-2.41-5.42-8.29-3.96-12.4-5.97-9.01-4.4-16.85-9.85-23-17.84-5.37-6.99-7.7-15.3-10.87-23.27-.67-1.68-1.29-3.41-2.19-4.97-3.22-5.6-3.06-11.55-1.99-17.61.18-1.04.56-2.09.54-3.12-.03-1.44.78-3.43-.9-4.14-1.92-.81-2.47 1.41-3.17 2.53-1.71 2.76-3.12 2.89-5.03.19-7.23-10.23-16.37-19.3-20.05-31.7-2.41-8.13-4.29-16.42-6.34-24.66-.26-1.05-.19-2.16-1.54-2.46.93-3.01 1.6-6.16 4.11-8.4.54.51 1.36.92 1.58 1.54 2.61 7.43 6.28 14.37 10.5 20.94 5.99 9.35 14.12 15.79 25.41 7.85 4.79 7.18 12.13 11.98 17.51 18.63 3.22 3.98 5.55 8.2 6.52 13.26 1.06 5.49 2.96 10.81 3.5 16.42.1 1.01.75 1.62 1.58 2.08.03.8.07 1.59.1 2.39-.72 6.31 2.15 12.01 3.07 18.04 1.36 8.96 4.93 17.21 7.92 25.65 1.25 3.51 2.73 6.97 4.46 10.27.8 1.52.81 2.85.68 4.35zm-33.3-78.38c1.17 0 1.93.06 2.67-.01 1.53-.16 3.92.48 3.87-1.85-.05-2.29-2.42-1.67-3.96-1.75-3.42-.18-6.94.53-10.13-1.38-.66-.4-1.62-.53-2 .24-.49.99.33 1.78 1.11 2.17 2.79 1.41 5.46 3.3 8.44 2.58zm-6.67 7.67c3.08 4.92 11.54 7.6 14.98 5.66.44-.25.88-.84.95-1.33.11-.75-.67-.87-1.22-1.04-4.54-1.42-9.44-.44-14.71-3.29zm-11.23-25.34c4.04 2.46 7.01 2.81 10.04.89.81-.51 1.43-1.29.96-2.28-.41-.87-1.26-.52-1.99-.37-2.64.53-5.27 1.03-9.01 1.76z"/><path class="st212" d="M49.36 294.71c-7.07-4.37-11.87-10.68-11.87-10.68a41.615 41.615 0 01-4.61-7.58c-7.14-15.05-9.67-31.05-8-47.46 1.49-14.7 5.15-28.98 12.63-42 1.43.16 2.09 1.2 2.45 2.39 1.29 4.37 3.77 4.69 7.13 2.18 1.18-.88 3.15-1.54 3.76-.6 2.3 3.53 6.28 5.87 7.95 9.42 1.64 3.48 1.9 7.86 1.37 12.05-.73 5.85-1.77 11.75-1.56 17.6.43 12.05 1.81 23.93 6.78 35.29 6.06 13.85 14.62 24.97 28.79 31.1.93.4 1.55.9 1.71 1.9-4.5 1.18-9.06 1.91-13.72 1.96-2.63.38-19.38 2.72-32.81-5.57zM357.15 93.9c.12-2.43-1.32-4.32-2.33-6.32-4.3-8.52-8.58-17.05-13.1-25.45-1.62-3.01-.87-4.15 2.18-5.11 6.87-2.16 10.55-1.52 14.56 3.62 9.71 12.44 18.89 25.24 25.26 39.8 3.41 7.79 6.53 15.7 6.06 24.47-5.63 4.36-12.05 3.69-16.74-1.69-3.62-4.16-5.55-9.29-8.17-14.02-2.77-5.02-3.98-10.8-7.72-15.3z"/><path class="st223" d="M95.9 298.3c-.16-1-.78-1.5-1.71-1.9-14.17-6.12-22.74-17.25-28.79-31.1-4.97-11.36-6.34-23.23-6.78-35.29-.21-5.84.82-11.75 1.56-17.6.53-4.18.27-8.57-1.37-12.05-1.67-3.54-5.66-5.88-7.95-9.42-.61-.94-2.58-.28-3.76.6-3.36 2.51-5.84 2.19-7.13-2.18-.35-1.2-1.01-2.23-2.45-2.39.32-2 .95-3.7 3.39-3.79 1.93 3.62 4.41 4.13 8.05 2.07 2.6-1.48 4.86-.48 5.92 2.67.97 2.91 2.44 5.31 5.61 6.66 3.82 1.63 4.87 4.99 4.35 9.06-.92 7.18-2.4 14.26-2.86 21.53-.73 11.29.15 22.25 4.28 32.81 4.32 11.03 9.45 21.59 19.01 29.24 4 3.2 7.85 6.62 13.14 7.57.97.17 1.58.84 2.06 1.65-1.23 1.36-3.15 1.01-4.57 1.86z"/><path class="st218" d="M333.91 186.21c-1.96-2.21-2.67-4.16-2.95-5.55-.3-1.49-.36-3.06-1.53-4.25-.81-.82-1.49-.5-1.75-.93-1.12-1.88 7.98-12.73 20.73-15.53 4.8-1.06 8.92-.7 11.42-.31a247.04 247.04 0 0118.47 23.62c-.57-.74-9.36-11.68-23.68-10.36-13.45 1.24-20.09 12.25-20.71 13.31z"/><path class="st235" d="M357.15 93.9c3.74 4.5 4.95 10.28 7.72 15.28 2.62 4.74 4.55 9.86 8.17 14.02 4.69 5.39 11.11 6.06 16.74 1.69 1.2.68 2.13 1.62 2.68 2.91-11.29 7.94-19.42 1.5-25.41-7.85-4.21-6.58-7.89-13.51-10.5-20.94-.22-.62-1.04-1.03-1.58-1.54.3-1.46.75-2.81 2.18-3.57z"/><path class="st224" d="M511.08 205.38c-.62.7-1.2.62-1.74-.1.58.04 1.16.07 1.74.1z"/><path class="st12" d="M365.12 270.92c-2.06.97-1.9-1.1-2.18-1.88-2.07-5.85-3.84-11.82-5.94-17.66-4.15-11.54-8.43-23.03-12.7-34.52-2.79-7.52-5.73-14.98-8.43-22.53-1.61-4.52.04-8.67 4.01-11.31 1-.66 1.94-1.46 2.79-2.32 9.82-10.01 33.07-3.69 36.53 12.42 2.16 10.1 6.84 19.38 10.06 29.14 2.41 7.31 5.17 14.51 7.7 21.79.37 1.06.58 2.04 1.88 2.22 1.96 7.52 2.6 15.09.8 22.74-.22.04-.44.09-.66.14-.9-.77-.78-1.87-1.03-2.89-1.67-6.71-3-13.54-6.94-19.45-5.55-8.34-20.52-8.06-25.86.52-.47 5.99-.63 12.41-.3 19.21.06 1.5.16 2.95.27 4.38zm3.49-56.6c-5.13.49-10.35 1.17-14.07 5.64-.68.82-1.58 1.71-.78 2.76.87 1.15 1.9.43 2.74-.25 3.58-2.95 7.43-4.94 12.31-4.61 1.4.09 3.94-.07 3.82-2.11-.12-1.77-2.4-1.26-4.02-1.43z"/><path class="st219" d="M369.64 287.53c4.35 13.32 8.36 25.5 14.1 42.94-2.47.99-4.93 1.97-7.4 2.96-.89-5.42-2.55-13.22-5.92-22.24-.87-2.32-1.69-3.96-3.03-7.36-4-10.17-9.52-19.54-15.48-28.66-1.6-2.45-2.68-3.62-3.46-4.34 0 0-.46-.41-.95-.8-1.98-1.53-8.42-2.86-17.03-3.19-.01-1.23.14-3.54 1.48-5.92 2.72-4.81 8-5.78 8.88-5.92.93-.15 5.29-.78 11.16 3.12 10.3 6.84 14.12 18.63 17.65 29.41z"/><path class="st218" d="M275.98 320.27c-1.58-2.28-3.44-4.31-5.62-6.03-2.34-2.3-4.69-4.6-7.03-6.89-1.64-1.81-2.85-4.1-5.41-4.88l-.28.08s-.04.3-.04.29c.65-1.19-.27-1.69-.99-2.29-2.04-2.98-4.37-5.7-7.24-7.91-10.5-11.45-8.52-10.08-18.88-1.96-2.71 2.12-5.2 4.53-7.79 6.8-.84-.37-1.67-.74-2.51-1.11-.39-1.26-.75-2.82-.93-4.63-.12-1.25-.13-2.4-.08-3.4-1.15-9.53 1.87-18.75 2.07-28.18.02-1 .55-1.68 1.51-2.01-.98 5.42 1.75 9.33 5.45 12.67 3.25 2.93 6.73 5.62 10.16 8.35 2.83 2.25 6.15 4.04 8.56 6.67 11.98 13.04 24.62 25.43 37.32 37.75 2.44 2.37 5.59 3.66 9.2 2.72 1.07.92 2.14 1.83 3.21 2.75-.31-.05-.61-.01-.89.1l-7.22-.12c-1.26-.59-2.52-1.17-3.77-1.76-2.95-2.33-5.88-4.67-8.8-7.01z"/><path d="M393.85 330.21c-.18.15-.35.31-.53.46-.12-.21-.25-.42-.33-.64-.01-.04.24-.26.29-.23.2.11.38.27.57.41z" fill="#583b34"/><path class="st224" d="M467.34 455.31c-.14.58-.14 1.27-.98 1.27-.1 0-.3-.2-.3-.3.01-.84.7-.84 1.28-.97-.01-.01 0 0 0 0z"/><path class="st223" d="M139.74 190.72c-4.4 3.4-9.46 6.15-11.46 11.87-1.06-.03-2.13-.1-3.19-.09-2.86.03-13.87 6.77-13.07 7.83 2.46 3.25 6.73 2.77 10.22 3.94.82.27 2.22-.05 2.92.83.84 1.07.24 2.95-.39 4.38-5.56-1.79-11.12-3.58-16.67-5.37 1.37 2.02 3.23 2.28 4.83 3.03 5.9 2.76 11.61 5.79 14.94 11.8.45.79.89 1.58 1.34 2.37-5.06-4.66-9.79-7.31-13.32-8.88-5.62-2.51-18.88-7.08-19.4-9.39-.1-.45-.01-.86-.01-.86.28-1.01 1.64-1.44 2.39-2.1 4.86-4.29 10.4-7.75 15.06-12.33 5.12-5.04 9.28-10.65 11.86-17.44 1.91-5.02 2.86-5 6.3-.66 2.78 3.54 6.26 6.58 7.65 11.07z"/><path class="st12" d="M284.84 187.09c-.27-6.94-.42-13.86 5.24-19.16.51-.48 1.21-.75 1.82-1.12 14.28 2.03 25.01 8.69 31.32 22.29 4.84 10.43 9.1 21.08 13.7 31.59 3.7 8.45 6.57 17.22 10.26 25.66.99 2.26.38 3.31-2.17 3.63-14.01 1.74-19.62 9.75-16.62 23.56.06.27-.07.57-.33 2.34-5.43-11.39-10.1-21.8-15.29-31.94-5.27-10.3-8.58-21.46-14.32-31.52-.61-1.4-1.21-2.81-1.82-4.21-3.37-7.36-6.19-15.02-11.79-21.12zm31.71 44.11c4.79-1.77 9.13-4.55 14.3-5.02.87-.08 1.93-.57 1.78-1.67-.21-1.49-1.61-1.85-2.77-1.72-5.69.65-10.86 2.27-13.31 8.41z"/><path class="st235" d="M296.43 328.99c-2.2-.26-5.49-.94-8.88-2.96-1.3-.78-2.26-1.54-3.31-2.43-5.57-4.71-8.97-8.74-8.97-8.74-9.66-9.46-19.19-19.05-28.35-29.01-2.41-2.63-5.72-4.42-8.56-6.67-3.43-2.73-6.91-5.41-10.16-8.35-3.7-3.34-6.43-7.25-5.45-12.67-.33-1-.94-3.3-.32-6.12.54-2.44 1.76-4.1 2.43-4.9 3.08-1.81 8.73-4.38 15.39-3.52 4.95.64 9.69 3.12 14.14 7.47 5.34 5.23 10.96 9.99 17.35 13.89 7.24 4.42 11.37 11.57 15.57 18.59 1.24 2.08.36 3.58-1.7 4.83-9.57 5.8-7.18 22.25.25 28.08l-.07.02c3.54 4.16 7.09 8.33 10.64 12.49zm-24.9-59.57c-.19-1.27-1.18-1.17-2.07-1.17-4.25.01-10.29 6.4-10.08 10.64.04.8.16 1.58 1.07 1.74.91.16 1.34-.51 1.58-1.27 1.25-3.91 4.45-5.98 7.62-8.09.74-.49 1.65-.82 1.88-1.85z"/><path class="st219" d="M335.89 344.57c-3.04-4.13-4.81-7.1-4.81-7.1-3.66-7.5-8.93-13.96-13.28-21.01-4.34-7.03-9.4-13.58-14.79-19.86 2.58-3.22.21-6.26-.8-8.98-2.43-6.52-1.28-13 4.22-17.1 3.45-2.57 7.39-1.73 11.2-.49 5.36 1.73 8.62 5.83 11.51 10.29 1.09 1.69 2.22 3.25 3.98 4.28 3.11 5.83 5.63 10.67 7.39 14.07 13.06 25.24 9.67 20.74 11.96 24.19 1.08 1.62 2.49 5.31 5.31 12.69.33.86.99 2.69.25 4.43-.42.99-1.3 1.82-2.74 2.56-3.34 1.73-6.58 3.7-9.74 5.75-1.88 1.21-3.12 1.28-4.15 1.12-1.88-.27-3.19-1.69-5.51-4.84z"/><path class="st12" d="M297.32 288.17c-2.06.9-8.61-15.36-20.68-31.77-3.59-4.89-6.98-8.83-9.22-15.76-1.16-3.57-3.24-10.31.09-15.91.8-1.34 1.64-2.12 3.32-3.69 1.96-1.82 10.25-9.53 15.9-7.22 1.92.79 2.87 2.48 3.62 3.75 6.49 11.07 11.95 22.65 17.09 34.38 1.33 3.03 2.47 6.13 4.18 9.01.88 1.49 1.37 3.53-1.21 4.46-8.71 3.15-13.56 8.77-11.95 18.6.04.22.25.99.05 1.94-.19.96-.77 2.03-1.19 2.21zm-14.2-35.37c5.07-3.35 8.22-8.17 14.03-8.36 1.2-.04 2.7-.19 2.66-1.77-.05-1.87-1.72-1.78-3.05-1.82-5.55-.19-11.12 4.38-13.64 11.95z"/><path class="st212" d="M343.35 303.33c-1.14-1.86-1.64-2.55-2.84-4.65-2.61-4.59-4.88-9.41-7.39-14.07-1.17-3.33-1.78-6.2-2.12-8.34-.35-2.22-.47-3.97-.53-5-.19-2.97-.12-5.5 0-7.4 8.72 2.28 15.09 4.62 17.03 6.15.47.37.9.76.9.76.78.7 1.91 1.92 3.51 4.37 5.96 9.12 11.48 18.49 15.48 28.66 2.37 6.02 5.33 11.82 6.25 18.39.52 3.72 1.69 7.36 3.35 10.78-5.94 3.38-9.09 5.02-11.65 4.37-2.33-.59-3.78-2.17-8.06-9.24-6.35-10.5-8.17-15.36-13.93-24.78zm-1.71-21.07c-2.14.4-2.12 2-1.96 3.52.36 3.36 1.9 6.38 3.34 9.34 3.23 6.63 6.02 13.57 11.33 18.98.65.66 1.19 1.48 2.25.97.93-.45 1.23-1.37 1.09-2.3-.13-.88-.42-1.77-.81-2.57-3.86-7.88-7.96-15.66-11.17-23.85-.73-1.85-2.28-3.18-4.07-4.09z"/><path class="st12" d="M253.51 195.8c2.81-.76 11.43-2.68 20.72 1.48 5.26 2.35 8.7 5.74 10.59 7.96-2.1-.16-8.75-.33-14.78 4.14-1.99 1.48-3.75 3.41-5.24 5.91-1.9 3.67-3.8 7.33-5.7 11-2.41-.32-4.82-.65-7.23-.97.12-1.34.24-3.37.16-5.83-.19-5.77-1.31-8.26-1.48-11.84-.13-2.8.3-6.82 2.96-11.85z"/><path class="st235" d="M437.79 238.88c-2.41-5.42-8.29-3.96-12.4-5.97-9.01-4.4-16.85-9.85-23-17.84-5.37-6.99-7.7-15.3-10.87-23.27-.67-1.68-1.29-3.41-2.19-4.97-3.22-5.6-3.06-11.55-1.99-17.61.18-1.04.57-2.09.54-3.12-.03-1.44.78-3.43-.9-4.14-1.92-.81-2.47 1.41-3.17 2.53-1.71 2.76-3.12 2.89-5.03.19-7.22-10.23-16.37-19.3-20.05-31.7-2.41-8.13-4.29-16.42-6.34-24.66-.26-1.05-.19-2.16-1.54-2.46-1.85 18.73.74 36.72 8.97 53.77 1.53 1.7 3.09 3.5 4.65 5.41 2.59 3.17 4.9 6.28 6.96 9.26 2.24 3.4 4.47 6.81 6.71 10.21-2.55-3.1-5.23-6.01-8.32-8.52-10.36-7.13-23.24-5.38-31.4 3.9-1.45 1.65-1.91 5.09-5.41 4.38-1.95-.48-1.61-2.3-2.06-3.61-.07-.2-.03-.09-1.53-4.25-.34-.95-.62-1.72-.8-2.21-.99-3.55-3.73-6.04-5.54-9.09-1.97-1.64-5.29-3.91-9.9-5.02-.7-.17-2.41-.54-4.65-.65-1.9-.09-4.55-.19-7.68.84-3.15 1.03-5.22 2.69-6.76 3.92a25.915 25.915 0 00-3.6 3.48c5.2.17 14.52 1.31 22.53 7.81 1.7 1.38 5.6 3.72 10.19 13.6 4.84 10.43 9.1 21.08 13.7 31.59 3.7 8.45 6.57 17.22 10.26 25.66.99 2.26.38 3.31-2.17 3.63-14.01 1.74-19.62 9.75-16.62 23.56.06.27-.07.57-.33 2.34-5.43-11.39-10.1-21.8-15.29-31.94-5.27-10.3-8.58-21.46-14.32-31.52-.61-1.4-1.21-2.81-1.82-4.21-3.91-1.09-7.53-3.32-11.8-2.97-8.35.01-15.49 2.43-20.02 10.05-1.9 3.67-3.8 7.33-5.7 11-.48-.09-1.12-.26-1.82-.59-4.69-2.2-5.72-8.54-6.24-8.4-.52.15.61 6.72.84 8.01.57 3.27 1.01 6.03-.36 7.98-1.54 2.19-4.42-.77-6.88-.98-9.72-.85-16.96 2.96-19.77 14.83 10.59-5.94 20.64-4.74 29.52 3.95 5.34 5.23 10.96 9.99 17.35 13.89 7.24 4.42 11.38 11.57 15.57 18.59 1.25 2.08.36 3.58-1.7 4.83-9.57 5.8-7.18 22.25.25 28.08-.09-2.87-1.95-5.05-2.99-7.53-2.93-6.99-1.47-13.5 3.99-16.76 5.26-3.14 11.53-1.43 16.15 4.42 2.58-3.22.21-6.26-.8-8.98-2.43-6.52-1.28-13 4.22-17.1 3.45-2.57 7.39-1.73 11.2-.49 5.36 1.73 8.62 5.83 11.51 10.29 1.09 1.69 2.22 3.25 3.98 4.28-2.97-7.26-2.95-13.06-2.65-16.3.35-3.76 1.21-5.42 1.48-5.92 2.55-4.67 8.32-7.5 13.57-6.91 2.34.26 4.31 1.17 6.48 2.63 7.93 5.36 12.02 13.8 13.99 19.08-.71-1.84-1.79-4.68-3.04-8.15-3.12-8.62-4.99-15.01-5.94-17.66-4.15-11.54-8.43-23.03-12.7-34.52-2.79-7.52-5.73-14.98-8.43-22.53-1.61-4.52.04-8.67 4.01-11.31 1-.66 1.94-1.46 2.79-2.32 9.82-10.01 33.07-3.69 36.53 12.42 2.16 10.1 6.84 19.38 10.06 29.14 2.41 7.31 5.17 14.51 7.7 21.79.37 1.06.58 2.04 1.88 2.22 7.03-.14 14.05-.05 21.03.93 5.25.06 10.27-1.61 15.45-2.12.98-.46 1.96-.93 2.94-1.39-.18-1.58-.33-3.19-.48-4.8zm-127.38 26.55c-8.71 3.15-13.56 8.77-11.95 18.6.18 1.11.39 2.42-1.14 4.15-5.96-11.5-13.1-21.78-20.68-31.77-1.19-1.57-2.4-3.13-3.68-4.62-1.65-1.93-3.99-5.84-5.55-11.14-1.23-4.19-3.1-10.6.09-15.91.64-1.06 1.25-2.28 3.32-3.69 3.47-2.37 6.32-5.51 10.55-6.85 4.6-1.46 6.57-.7 8.97 3.38 6.49 11.07 11.95 22.65 17.09 34.38 1.33 3.03 2.47 6.13 4.18 9.01.89 1.49 1.38 3.53-1.2 4.46z"/><path d="M243.76 204.33c-.06.09-.11.18-.17.27.05-.1.1-.19.15-.29 0-.01.02.02.02.02z" fill="#b3d1e6"/><path class="st235" d="M404.49 160.5c-2.99.72-5.66-1.17-8.44-2.58-.77-.39-1.59-1.19-1.11-2.17.38-.77 1.34-.64 2-.24 3.19 1.92 6.71 1.2 10.13 1.38 1.54.08 3.91-.54 3.96 1.75.05 2.33-2.34 1.69-3.87 1.85-.73.07-1.49.01-2.67.01zm-6.67 7.67c5.27 2.85 10.17 1.87 14.71 3.3.56.18 1.34.29 1.22 1.04-.07.49-.51 1.08-.95 1.33-3.44 1.93-11.9-.75-14.98-5.67zm-11.23-25.34c3.74-.73 6.38-1.23 9-1.76.74-.15 1.58-.5 1.99.37.47.99-.15 1.77-.96 2.28-3.02 1.92-5.99 1.57-10.03-.89z"/><path class="st218" d="M296.62 208.21c-3.91-1.09-7.53-3.32-11.81-2.97a53.94 53.94 0 00-8.71-5.15c-5.35-2.52-11.31-5.44-18.79-4.86-1.63.13-2.96.39-3.81.58.51-1.21 1.35-2.87 2.75-4.59 2.02-2.49 4.15-3.79 5.45-4.6 2.6-1.63 5.68-3.29 9.78-3.49 4.03-.2 8.01 1.11 12.05 3.63.36.23.86.23 1.3.34 5.61 6.09 8.43 13.75 11.79 21.11z"/><path d="M131.01 229.22c-1.2 1.66-2.06-.61-3.15-.28-3.33-6.02-9.04-9.05-14.94-11.8-1.6-.75-3.47-1.01-4.83-3.03 5.04-.23 9.25 2.09 13.75 2.65 1.27.16 3.18 1 3.45-.72.3-1.85-1.86-1.36-3.05-1.77-3.49-1.17-7.76-.69-10.22-3.94-.8-1.06 10.21-7.79 13.07-7.83 1.06-.01 2.13.06 3.19.09-2.42 7.17-.24 14.01 1.46 20.89.47 1.91.85 3.83 1.27 5.74z" fill="#fdfdfc"/><path d="M181.7 222.58l.15-.83c.14.07.27.15.41.22-.19.2-.38.39-.58.59l.02.02z" fill="#e2d1c9"/><path class="st235" d="M398.97 269.17c-.04 1.28.34 2.67-.94 3.63-.56-.12-.95-.34-1.23-.63-.8-.86-.66-2.2-.64-2.53.22-2.74-2.24-16-9.91-22.53-1.26-1.07-3.82-3.19-7.61-3.58-3.47-.35-6.16.94-7.26 1.48-4.21 2.09-6.21 5.62-6.9 7.02-.94-5.32.61-7.83 1.48-8.88 4.77-5.75 19.53-3.71 25.02 3.67 1.72 2.31 2.85 3.02 6.94 19.45.28 1.02.15 2.13 1.05 2.9zm-30.36-54.85c1.62.17 3.91-.34 4.01 1.43.12 2.04-2.42 2.2-3.82 2.11-4.88-.33-8.74 1.66-12.31 4.61-.83.69-1.87 1.4-2.74.25-.8-1.06.1-1.95.78-2.76 3.73-4.47 8.95-5.15 14.08-5.64z"/><path class="st169" d="M306.87 154.5c-6.66-2.09-10.42-2.99-18.31-5.6-7.09-2.34-15.12-5.19-23.91-8.65-.92.09-1.89.19-2.91.33-3.57-2.58-20.72-14.62-34.87-18.77-3.52-1.03-9.32-2.73-16.91-2.6-2.44.04-2.37-.48-6.46.45-11.03 2.5-21.71.04-30.36-8.19-.97-.92-2.15-1.62-3.24-2.42-.21.23-.47.37-.77.43-.33.39-.67.77-1 1.16-3.18 3.85-6.29 7.76-9.56 11.52-11.37 13.06-17.78 27.97-18.28 45.51-.23 7.79 1.13 15.4 1.27 23.12.01.64.13-8.85 2.45-21.61 1.49-8.18 3.54-14.74 5.09-19.08a112.04 112.04 0 0124.51 22.04c9.55 11.56 15.18 23.14 18.54 32.11-1.25 3.05-2.5 6.3-3.67 9.67-3.69 10.58-8.08 26.35-9.85 46.74 9.62 8.42 19.23 16.85 28.85 25.27a262.446 262.446 0 01-33.58 49.77c-6.75 7.88-12.98 14.2-20.01 20.89-48.3 45.93-82.06 78.03-122.2 95.49-6.38 2.77-20.21 9.55-28.13 23.5-2.59 4.56-4.87 11.88-2.64 23.61 13.41-.32 26.83-.65 40.24-.97 3.82-4.05 10.47-10.94 19.1-19.11 36.35-34.41 48.25-33.99 80.34-63.9 20.7-19.3 21.65-22.79 31.95-25.56 22.38-6.03 50.22 6.5 52.71 19.19.48 2.47-.18 6.02 2.2 11.26 2.03 4.47 4.75 8.25 7.44 12 5.01 6.99 10.82 13.41 16.25 20.1 5.85 7.21 5.26 15.55 3.62 23.82-1.48 7.48-3.66 14.82-5.53 22.22h23.73c5.12-16.78 7.88-33.75 2.7-51.01-3.45-11.49-5.91-12.91-17.93-37.64-19.48-40.08-12.17-38.2-25.07-59.16-2.97-4.82-7.39-14.96-14.49-35.85-2.28-6.73-2.33-12.8 4.53-17.06l-3.1-3.34c.95-19.17 1.63-32.91 1.66-33.98 0-.16.01-.69.35-1.18.25-.38.65-.65 1.16-.83.06-1.24.18-2.58.4-4.01.4-2.68 1.04-5.04 1.72-7.01.16-1.18 1.25-8.04 7.34-12.21 3.37-2.31 7.59-3.04 12.44-2.62 2.46.21 5.34 3.18 6.88.98 1.29-1.84.32-5.26.36-7.98l-1.32-19.15c.08-1.79.39-4.42 1.48-7.4.79-2.15 3.32-8.08 9.68-12.15 3.09-1.98 6.04-3.31 9.78-3.49 4.03-.2 8.01 1.11 12.05 3.63.36.23.86.23 1.3.34-.27-3.2-.6-12.16 5.24-19.16.48-.57 1.84-2.14 4.02-3.72 2.3-1.67 9.85-6.51 19.09-4.12 7.85 2.03 11.96 7.88 12.98 9.38 1.23 1.81 1.99 3.5 2.46 4.73 2.68-2.9 5.37-5.79 8.05-8.69-12.4-5.27-22.66-8.78-29.86-11.04zm-63.28 50.1c.05-.1.1-.19.15-.29l.02.02c-.06.09-.11.18-.17.27z"/><path class="st235" d="M316.55 231.2c2.45-6.15 7.62-7.77 13.3-8.4 1.16-.13 2.56.23 2.77 1.72.16 1.1-.9 1.59-1.78 1.67-5.16.46-9.5 3.24-14.29 5.01zm-33.43 21.6c2.53-7.57 8.09-12.15 13.63-11.95 1.34.05 3.01-.05 3.05 1.82.04 1.58-1.45 1.74-2.66 1.77-5.81.19-8.96 5.01-14.02 8.36z"/><path d="M341.64 282.26c1.79.91 3.34 2.24 4.06 4.08 3.22 8.19 7.31 15.97 11.17 23.85.39.8.68 1.69.81 2.57.14.93-.17 1.85-1.09 2.3-1.06.52-1.6-.3-2.25-.97-5.3-5.42-8.09-12.35-11.33-18.98-1.44-2.96-2.98-5.97-3.34-9.34-.15-1.5-.17-3.11 1.97-3.51z" fill="#fffdec"/><path class="st219" d="M447.37 268.31C493.25 281.88 539.12 295.44 585 309v35l-137.63-40.17v-35.52z"/><path class="st212" d="M339.34 349.71a42.184 42.184 0 01-4.44 4.44 41.46 41.46 0 01-9.93 6.32c-3.52-3.54-8.22-8.38-13.59-14.3-2.87-3.17-3.8-4.21-10.07-11.52-16.04-18.67-18.74-22.24-19.69-27.86-.28-1.63-1.16-7.29 1.7-11.32 1.47-2.06 3.53-3.28 3.53-3.28 5.26-3.14 11.53-1.43 16.15 4.42 5.39 6.27 10.45 12.83 14.79 19.86.83 1.35 1.7 2.69 2.59 4.01 5.67 8.45 7.46 11.95 10.69 17 1.88 2.91 4.66 7.14 8.27 12.23zm28.12-72.52c-1.86-3.81-3.59-8.92-3.7-14.98-.06-3.2-.22-12.03 4.69-15.57.71-.51 1.83-1.12 2.95-1.62 2.75-1.23 5.06-1.72 7.26-1.48 3.58.38 6.08 2.3 7.61 3.58 5.19 4.32 7.13 10.14 7.83 12.32 8.03 25.08 10.36 44.4 10.36 44.4.55 4.54 1.26 11.14 1.83 19.17-4.29 2.79-12.21 7.21-16.71 4.23-1.6-1.06-2.22-2.69-2.46-3.29-2.52-6.49-9.8-23.57-19.66-46.76z"/></svg>