<svg version="1.1" id="Слой_1" xmlns="http://www.w3.org/2000/svg" x="0" y="0" viewBox="0 0 585 437" xml:space="preserve"><style>.st6{fill:#ffebf2}.st7{fill:#ea90a7}.st8{fill:#f2ccc1}.st11{fill:#fcdde6}</style><path class="st7" d="M585 152c-88.1-.22-150.29-19.59-191.07-37.49-29.98-13.16-58.64-23.16-117.77-53.42-19.58-10.02-63.28-25.04-109.27-30.05-64.32-7-85.52 1.6-93.09 12.69C22.13 45.94 3.66 67.57 3.66 240.35c0 160.43-31.97 196.66 108.84 196.66 61.49 0 88.65-.68 100.36-49.06 2.87-.46 5.75-.94 8.67-1.48 35.91-6.67 75.47-27.14 97.13-26.71 60.71 1.21 104.42-12.24 149.33-15.78 30.39-2.4 45.24-3.35 62.76-5.02 4.82-.46 16.38-4.2 31.94-3.48 9.52.44 17.25 2.15 22.31 3.52V152z"/><path class="st6" d="M249.38 212.31c0-162.16 7.61-196.66-108.84-196.66C59.1 15.65 31.7 1.85 31.7 212.31c0 160.43-31.97 196.66 108.84 196.66 98.18 0 108.84-1.72 108.84-196.66z"/><path class="st11" d="M585 120c-73.91-2.67-127.71-19.12-163.03-33.53-37.73-15.39-55.91-21.77-117.77-53.42C284.62 23.03 240.92 8.01 194.93 3 101.17-7.21 99.02 15.75 97.2 31.23c-1.82 15.48 12.75 99.55 12.75 99.55l68.59 4.25c1.82-78.31-10.32-88.02-10.32-88.02l23.07 11.53c31.87 9.1 89.54 36.73 95.91 55.85 6.37 19.12 3.34 65.26 3.34 65.26l-15.22 59.91c8.45 21.67-6.93 25.98-15.43 34.48-28.92 28.92-122.02 33.39-122.02 33.39 18.21-15.48 26.1-61.31 26.1-61.31l-61-36.42s-16.39 54.63-20.03 98.34c-3.64 43.71 16.04 43.4 29.44 46.75 35.92 8.95 82.22 13.85 137.19 3.64 35.91-6.67 75.47-27.14 97.13-26.71 60.71 1.21 104.42-12.24 149.33-15.78 7.29-.58 30.97-1.78 62.77-5.02 11.1-1.13 20.2-2.19 26.21-2.91C585 245.33 585 182.67 585 120z"/><path class="st6" d="M165.23 113.76c-3.71.6-7.07-1.1-7.51-3.79-.2-1.22.16-8.54-.36-17.05-.47-7.64-1.26-16.07.25-20.36.51-1.48.95-1.79 2.12-2.08.59-.16 1.62.01 2.35 1.53 3.74 7.79 8.71 33.52 9.08 35.78.43 2.69-2.22 5.36-5.93 5.97z"/><path class="st6" d="M153.38 119.55c-3.71.6-7.07-1.1-7.51-3.8-.31-1.91-2.34-21.13-1.12-32.28.5-4.57 1.63-6.09 3.56-6.2.93-.05 1.96.4 3.13 3.68 3.55 9.98 7.53 30.59 7.86 32.62.44 2.7-2.21 5.38-5.92 5.98zm-17.5 2.99c-3.35-.24-5.93-2.41-5.76-4.85.13-1.79 4.12-19.95 7.14-29.25.99-3.07 2.29-3.96 3.16-3.74 1.54.4 2.39 1.62 2.79 5.44 1.04 9.82-.81 26.66-.94 28.41-.17 2.44-3.03 4.23-6.39 3.99zm-14.39-.45c-2.75-.69-4.57-2.87-4.07-4.87.39-1.54 4.28-17.24 9.09-24.03 1.45-2.05 2.75-2.58 4.13-1.85.85.45 1.57 1.7 1.33 3.89-.86 8-4.23 23.02-4.6 24.5-.5 1.99-3.14 3.05-5.88 2.36z"/><path class="st7" d="M125.82 96.69s1.88.11 5.1 1.27c0 0 .23-1.5.3-3.11.07-1.61-.27-2.2-.88-2.63-.53-.37-1.67-.09-2.79 1.36-.63.83-1.06 1.88-1.73 3.11zm11.69-5.2s1.84-.38 5.25-.11c0 0-.17-1.5-.53-3.08-.36-1.57-.84-2.05-1.55-2.3-.61-.22-1.63.35-2.33 2.04-.39.97-.53 2.1-.84 3.45zm8.48-7.3s1.79-.59 5.21-.7c0 0-.34-1.47-.87-2.99-.53-1.52-1.06-1.94-1.8-2.12-.63-.15-1.58.53-2.08 2.29-.29 1-.29 2.14-.46 3.52zm12.81-6.95s.8-.83 4.23-.95c0 0-.34-1.48-.87-3-.52-1.53-1.06-1.94-1.79-2.12-.63-.15-2.17.3-2.24 2.13-.04 1.12.21 2.03.67 3.94z"/><path class="st8" d="M149.88 315.85c-3.76.05-6.77 2.32-6.73 5.05.02 1.23 1.66 8.38 2.64 16.84.87 7.6 1.58 16.04 3.81 20 .77 1.36 1.26 1.59 2.45 1.68.61.05 1.6-.3 2.05-1.92 2.32-8.32 2.69-34.53 2.66-36.82-.04-2.72-3.12-4.88-6.88-4.83z"/><path class="st8" d="M136.44 315.01c-3.76.06-6.77 2.32-6.72 5.06.03 1.94 1.4 21.21 4.56 31.97 1.29 4.41 2.67 5.71 4.59 5.48.92-.11 1.86-.74 2.43-4.17 1.74-10.45 2.05-31.43 2.02-33.49-.04-2.74-3.12-4.9-6.88-4.85zm-17.75.13c-3.25.82-5.41 3.41-4.82 5.79.44 1.74 7.55 18.91 12.16 27.55 1.52 2.85 2.96 3.5 3.77 3.13 1.45-.66 2.06-2.02 1.79-5.84-.71-9.85-5.48-26.1-5.91-27.81-.59-2.38-3.72-3.64-6.99-2.82z"/><path class="st8" d="M109.18 316.06c-2.77.6-4.66 2.72-4.23 4.73.34 1.55 3.71 17.37 8.3 24.32 1.38 2.1 2.66 2.66 4.07 1.98.86-.42 1.61-1.65 1.46-3.84-.59-8.03-3.47-23.15-3.79-24.64-.44-2.01-3.04-3.15-5.81-2.55z"/><path d="M112.68 341.59s1.87-.05 5.14-1.11c0 0 .17 1.51.19 3.12.02 1.61-.34 2.19-.97 2.6-.54.35-1.67.03-2.74-1.45-.61-.85-1-1.92-1.62-3.16zm13.06 3.84s1.88.06 5.19-.81c0 0 .1 1.51.02 3.12-.07 1.61-.47 2.17-1.12 2.54-.57.32-1.67-.06-2.65-1.61-.56-.88-.89-1.96-1.44-3.24zm9.63 5.7s1.87.27 5.26-.23c0 0-.08 1.51-.33 3.11-.25 1.59-.7 2.1-1.4 2.4-.59.26-1.65-.25-2.46-1.89-.45-.95-.66-2.06-1.07-3.39zm14.59 1.8s.94.68 4.33.19c0 0-.07 1.51-.33 3.11-.25 1.59-.7 2.1-1.4 2.4-.6.26-2.19.08-2.57-1.7-.23-1.1-.15-2.04-.03-4z" fill="#df4e50"/><path d="M200.57 206.12s55.49 24.55 75.04 39.12c0 0 8.83-1.86 15.41-5.22 14.09-7.2 38.58-29.46 3.32-58.62 0 0-19.01 1.74-43.59-23.7l-50.18 48.42z" fill="#ffc9d7"/><path class="st7" d="M225.76 213.12s34.06 3.07 52.04-35.59c0 0-4.38-2.1-6.83-3.57-3.45-2.06-5.58-3.56-5.58-3.56l-23.41 4.69-16.39 36.73.17 1.3zM92.89 134.35s15.06-30.71 46.61-20.67l-33.32 26.86-13.29-6.19z"/><path class="st7" d="M85.55 197.29s-57.73 40.86 8.63 98.24c0 0 2.64 60.07 98.9 40.54 96.26-19.52 128.13-105.03 50.64-120.05-4.46-.87-17.96-2.9-17.96-2.9L85.55 197.29zm79.67-98.53c.71.28 1.3.67 1.89 1.1.56.47 1.11.93 1.57 1.5l.72.8.62.89c.43.58.83 1.17 1.15 1.83.34.64.71 1.26 1.02 1.92l.83 2.03.84 2.08.83 2.11c1.11 2.81 2.27 5.61 3.49 8.38.61 1.38 1.18 2.78 1.83 4.15.65 1.37 1.26 2.75 1.95 4.1l.75 1.47.14-1.56c.93-4.2 1.72-8.42 2.5-12.65.41-2.11.74-4.23 1.11-6.35l1.08-6.35.02-.09-.01-.09c-.01-.16-.01-.41.01-.63.01-.23.05-.46.08-.68.06-.46.16-.92.29-1.37.11-.47.29-.91.46-1.37.15-.48.42-.89.6-1.39v-.02c.02-.06-.01-.13-.07-.15-.04-.01-.09-.01-.12.02-.2.16-.4.34-.58.53-.19.19-.4.36-.55.58l-.48.65c-.17.22-.26.47-.4.71-.13.24-.25.49-.33.75-.09.26-.19.51-.25.78s-.12.54-.15.82c-.04.29-.06.54-.05.89l.01-.19-1.11 6.35c-.36 2.12-.76 4.23-1.08 6.36-.68 4.24-1.34 8.49-1.88 12.75l.89-.09c-.43-1.45-.93-2.89-1.39-4.33-.47-1.44-1.01-2.85-1.52-4.28-1.01-2.85-2.08-5.68-3.2-8.49l-.84-2.11c-.14-.34-.28-.73-.42-1.03l-.49-1.07-.98-2.13c-.39-.68-.84-1.33-1.27-2-.39-.68-.93-1.27-1.46-1.86l-.8-.87-.93-.75c-.58-.54-1.31-.9-2-1.28-.71-.33-1.49-.61-2.26-.67-.09-.01-.16.06-.17.14 0 .07.05.14.11.16z"/><path class="st6" d="M109.06 126.79s14.23-13.68 28.38-14.18c7.72-.27 21.34 2.4 30.81-2.2 9.47-4.6 22.73-22.74 25.65-26 3.29-3.69 7.57-1.62 11.56 1.97 5.61 5.04 5.22 9.17 5.22 9.17s6.73-2.7 8.05-6.19c0 0 4.32-3.58 10.24 8.02 0 0 3.78-5.63 8.31-2.55 0 0-.21 6.16 8.06 4.92 8.27-1.25 18.21-2.65 22.27 3.4 11.88 17.72 3.52 101.95-41.85 109.99 0 0 12.45 19.24-33.98 27.34-32.18 5.61-23.62-29.28-15.08-33.28 0 0-48.98 10.78-70.12-10.84-21.15-21.64-9.92-62.03 2.48-69.57z"/><path class="st7" d="M237.28 94.82s1.04 9.02-6.12 17.29l-.65-.93-1.54-13.81s4.05-5.97 8.31-2.55z"/><path class="st7" d="M218.73 89.35s-.46 3.17.03 4.05c2.76 4.99 10.68 6.81 11.22 19.84 0 0-.1 1.15.15 1.43.19.21.9-.98 1.11-2.4.28-1.92-.17-11.25-2.26-14.89-.01-.01-5.39-11.38-10.25-8.03zm-13.09 3.47c.57-.24 1.59.92 2.28 2.59.7 1.67 1.47 3.89.9 4.13-.57.24-2.25-1.6-2.95-3.27-.69-1.68-.79-3.22-.23-3.45zm-1.49 138.29c-7.36 3.08-19.55-1.29-20.84-4.63-1.1-2.86 4.51-8.89 10.79-12.4 1.09-.61 4.42.45 5.52.02 2.05-.79 1.86-2.93 3.73-3.23 4.96-.8 4.73.77 5.67 3.2 1.31 3.36 13.48 9.37-4.87 17.04z"/><path class="st11" d="M188.66 217.87c1.63-1.39 3.5-2.71 5.44-3.78 1.09-.61 4.42.45 5.52.02 2.05-.79 1.86-2.93 3.73-3.23 4.96-.8 4.73.77 5.67 3.2.32.84-1.87 5.19-8.05 5.74-6.63.59-10.07.14-12.31-1.95zm11.3-54.73c-4.22.45-7.47-7.22-8.39-15.94-.92-8.72 5.46-18.72 9.67-19.17 4.22-.45 5.48 8.48 6.39 17.2.93 8.72-3.45 17.46-7.67 17.91z"/><path class="st7" d="M144.44 151.32c-2.1-1.96-3.25-18.73-3.88-21.2-.36-1.45-.12-2.97 1.36-3.34 1.48-.37 4.1.87 4.37 1.97.17.66.49 13.5.86 18.7.23 3.26 8.63 13.75 8.4 14.73-.4 1.79-10.82-10.59-11.11-10.86z"/><path class="st11" d="M177.87 149.89l-.3 5.64s-12.78-11.36-13.74-27.46c0 0 4.57-2.54 10.28-3.03.82-.07 1.55-.11 2.2-.13 0 .01 2.79 9.71 1.56 24.98z"/><path class="st7" d="M170.69 119.03c-.05.05-.01.13.06.18.85.61 1.48 1.26 2.09 1.94.53.69 1.05 1.37 1.4 2.09l.59 1.05.39 1.08c.28.71.53 1.41.61 2.13.12.71.3 1.42.38 2.13l.05 2.12.04 2.17v2.18c.01 2.91.09 5.83.28 8.76.1 1.46.13 2.92.29 4.4.15 1.47.25 2.94.48 4.43l.24 1.61 1.18-1.42c.21-1.43.3-2.87.44-4.3.14-1.43.16-2.89.24-4.33.16-2.89.21-5.78.19-8.7l-.02-2.18c-.01-.36.01-.74-.02-1.07l-.09-1.14-.2-2.28c-.18-.77-.46-1.55-.68-2.33-.17-.77-.62-1.55-1.06-2.32l-.64-1.15-.91-1.13c-.53-.76-1.37-1.45-2.14-2.14-.83-.66-1.78-1.32-2.86-1.79-.14-.07-.28-.06-.33.01zm-86.03 12.7s63.61-9.98 97.21 49.67c0 0 9.12 9.4-5.17 25.78l-54.01 42.42S42 208.81 84.66 131.73z"/></svg>