<?xml version="1.0" encoding="utf-8"?>
<!-- Generator: Adobe Illustrator 24.2.3, SVG Export Plug-In . SVG Version: 6.00 Build 0)  -->
<svg version="1.1" id="Слой_1" xmlns="http://www.w3.org/2000/svg" xmlns:xlink="http://www.w3.org/1999/xlink" x="0px" y="0px"
	 viewBox="0 0 500 355" style="enable-background:new 0 0 500 355;" xml:space="preserve">
<style type="text/css">
	.st0{fill:#58D196;}
	.st1{fill:#FFE473;}
	.st2{fill:#000600;}
	.st3{clip-path:url(#SVGID_2_);fill:url(#SVGID_3_);}
	.st4{clip-path:url(#SVGID_2_);fill:#FF977E;}
	.st5{clip-path:url(#SVGID_2_);fill:#FE3000;}
	.st6{clip-path:url(#SVGID_2_);fill:#EF0B00;}
	.st7{clip-path:url(#SVGID_2_);fill:#FE7B24;}
	.st8{clip-path:url(#SVGID_2_);fill:#FE3100;}
	.st9{clip-path:url(#SVGID_2_);fill:#F1DFD8;}
	.st10{clip-path:url(#SVGID_2_);fill:#F60000;}
	.st11{clip-path:url(#SVGID_2_);fill:#BF1200;}
	.st12{clip-path:url(#SVGID_2_);fill:#FF0000;}
	.st13{clip-path:url(#SVGID_2_);fill:#AC7401;}
	.st14{clip-path:url(#SVGID_5_);fill:#EFE300;}
	.st15{clip-path:url(#SVGID_5_);fill:#FCEA68;}
	.st16{clip-path:url(#SVGID_5_);fill:#FFFEB4;}
	.st17{clip-path:url(#SVGID_5_);fill:#FFFA9F;}
	.st18{clip-path:url(#SVGID_5_);fill:#FFF68A;}
	.st19{clip-path:url(#SVGID_5_);fill:#FFFBD4;}
	.st20{opacity:0.87;clip-path:url(#SVGID_5_);fill:#FFFDE0;}
	.st21{clip-path:url(#SVGID_5_);fill:#EE9658;}
	.st22{clip-path:url(#SVGID_5_);fill:#314255;}
	.st23{clip-path:url(#SVGID_5_);fill:#FEDBB1;}
	.st24{clip-path:url(#SVGID_5_);fill:#FDBA8B;}
	.st25{clip-path:url(#SVGID_5_);}
	.st26{fill:#FFFBD4;}
	.st27{clip-path:url(#SVGID_5_);fill:#FFFDE0;}
	.st28{clip-path:url(#SVGID_7_);fill:#00A7CA;}
	.st29{clip-path:url(#SVGID_7_);fill:none;}
	.st30{clip-path:url(#SVGID_7_);fill:#4DD4F7;}
	.st31{clip-path:url(#SVGID_7_);fill:#6EDBF4;}
	.st32{clip-path:url(#SVGID_7_);fill:#D50C25;}
	.st33{clip-path:url(#SVGID_7_);fill:#B0F1F6;}
	.st34{clip-path:url(#SVGID_7_);fill:#0088B4;}
	.st35{opacity:0.81;}
	.st36{filter:url(#Adobe_OpacityMaskFilter);}
	.st37{opacity:0.74;mask:url(#SVGID_10_);}
	.st38{clip-path:url(#SVGID_12_);fill:#000202;}
	.st39{filter:url(#Adobe_OpacityMaskFilter_1_);}
	.st40{opacity:0.74;mask:url(#SVGID_15_);}
	.st41{clip-path:url(#SVGID_17_);fill:#000202;}
	.st42{opacity:0.75;fill:url(#SVGID_18_);}
	.st43{clip-path:url(#SVGID_20_);fill:#2B747C;}
	.st44{clip-path:url(#SVGID_20_);fill:#55AFB7;}
	.st45{clip-path:url(#SVGID_20_);fill:#3FA5B0;}
	.st46{clip-path:url(#SVGID_20_);fill:#6DCDCF;}
	.st47{clip-path:url(#SVGID_20_);fill:#214180;}
	.st48{fill:#0071C5;}
	.st49{clip-path:url(#SVGID_22_);fill:#83D5FB;}
	.st50{clip-path:url(#SVGID_22_);fill:#00ABF0;}
	.st51{clip-path:url(#SVGID_22_);fill:#57CAF9;}
	.st52{clip-path:url(#SVGID_22_);fill:#0071C5;}
	.st53{clip-path:url(#SVGID_22_);fill:#31C5F8;}
	.st54{clip-path:url(#SVGID_22_);fill:#3DCFF7;}
	.st55{clip-path:url(#SVGID_24_);fill:#00ABF0;}
	.st56{clip-path:url(#SVGID_24_);fill:#83D5FB;}
	.st57{clip-path:url(#SVGID_24_);fill:#31C5F8;}
	.st58{clip-path:url(#SVGID_24_);fill:#0071C5;}
	.st59{clip-path:url(#SVGID_24_);fill:#57CAF9;}
	.st60{clip-path:url(#SVGID_24_);fill:#A6A6A6;}
	.st61{clip-path:url(#SVGID_26_);fill:#D670E1;}
	.st62{clip-path:url(#SVGID_26_);fill:#E5B1EC;}
	.st63{clip-path:url(#SVGID_26_);fill:#8A9093;}
	.st64{clip-path:url(#SVGID_26_);fill:#901C9D;}
	.st65{clip-path:url(#SVGID_26_);fill:#CBCED1;}
	.st66{clip-path:url(#SVGID_26_);fill:#DDD9CF;}
	.st67{clip-path:url(#SVGID_26_);fill:#543F31;}
	.st68{clip-path:url(#SVGID_26_);fill:#C18875;}
	.st69{clip-path:url(#SVGID_26_);fill:#B1B7BA;}
	.st70{clip-path:url(#SVGID_26_);fill:#899093;}
	.st71{clip-path:url(#SVGID_26_);fill:#D39A85;}
	.st72{fill:#E5B1EC;}
	.st73{clip-path:url(#SVGID_28_);}
	.st74{fill:#E097E9;}
	.st75{fill:#D670E1;}
	.st76{clip-path:url(#SVGID_30_);fill:#FFE406;}
	.st77{opacity:0.5;clip-path:url(#SVGID_30_);}
	.st78{fill:#A0C7FF;}
	.st79{fill:#FF8900;}
	.st80{clip-path:url(#SVGID_30_);fill:#FFEA9E;}
	.st81{clip-path:url(#SVGID_30_);}
	.st82{fill:#FFCB33;}
	.st83{fill:#FFEA9E;}
	.st84{fill:#2A356B;}
	.st85{clip-path:url(#SVGID_30_);fill:#FFCB33;}
	.st86{clip-path:url(#SVGID_30_);fill:#A0C7FF;}
	.st87{clip-path:url(#SVGID_30_);fill:#FF8900;}
	.st88{clip-path:url(#SVGID_30_);fill:#2A356B;}
	.st89{fill:#1B254E;}
	.st90{clip-path:url(#SVGID_30_);fill:#C02C28;}
	.st91{clip-path:url(#SVGID_30_);fill:#FF7400;}
	.st92{fill:#FFE406;}
	.st93{clip-path:url(#SVGID_30_);fill:#FFEF6E;}
	.st94{clip-path:url(#SVGID_32_);fill:#FFE473;}
	.st95{fill:#FFFFFF;}
	.st96{fill:#AAD5C0;}
	.st97{fill:none;stroke:#FFFFFF;stroke-miterlimit:10;}
	.st98{fill:#9FC8A8;}
	.st99{fill:#93CA9E;}
	.st100{opacity:0.76;}
	.st101{fill:#C1E6CA;}
	.st102{fill:url(#SVGID_33_);}
	.st103{fill:url(#SVGID_34_);}
	.st104{fill:url(#SVGID_35_);}
	.st105{fill:#F3E3BB;}
	.st106{fill:url(#SVGID_36_);}
	.st107{fill:url(#SVGID_37_);}
	.st108{fill:url(#SVGID_38_);}
	.st109{fill:url(#SVGID_39_);}
	.st110{fill:url(#SVGID_40_);}
	.st111{fill:url(#SVGID_41_);}
	.st112{fill:#E1EBC1;}
	.st113{fill:#ECF8CF;}
	.st114{fill:url(#SVGID_42_);}
	.st115{fill:url(#SVGID_43_);}
	.st116{fill:url(#SVGID_44_);}
	.st117{fill:url(#SVGID_45_);}
	.st118{fill:url(#SVGID_46_);}
	.st119{fill:#FFE190;}
	.st120{clip-path:url(#SVGID_48_);fill:url(#SVGID_49_);}
	.st121{fill:#5B2A1E;}
	.st122{fill:#8D7673;}
	.st123{fill:url(#SVGID_50_);}
	.st124{fill:url(#SVGID_51_);}
	.st125{fill:url(#SVGID_52_);}
	.st126{fill:url(#SVGID_53_);}
	.st127{fill:none;}
	.st128{opacity:0.93;fill:#FFFFFF;}
	.st129{opacity:0.71;fill:#FFFFFF;}
	.st130{opacity:0.9;fill:#FFFFFF;}
	.st131{opacity:0.26;fill:#FFFFFF;}
	.st132{opacity:0.62;fill:#FFFFFF;}
	.st133{opacity:0.75;fill:#FFFFFF;}
	.st134{opacity:0.41;fill:#FFFFFF;}
	.st135{opacity:0.69;fill:#FFFFFF;}
	.st136{opacity:0.44;fill:#FFFFFF;}
	.st137{opacity:0.73;fill:#FFFFFF;}
	.st138{opacity:0.16;fill:#FFFFFF;}
	.st139{opacity:0.3;fill:#FFFFFF;}
	.st140{opacity:0.23;fill:#FFFFFF;}
	.st141{opacity:0.24;fill:#FFFFFF;}
	.st142{opacity:0.43;fill:#FFFFFF;}
	.st143{opacity:0.76;fill:#FFFFFF;}
	.st144{opacity:0.08;fill:#FFFFFF;}
	.st145{opacity:0.27;fill:#FFFFFF;}
	.st146{opacity:0.37;fill:#FFFFFF;}
	.st147{opacity:0.54;fill:#FFFFFF;}
	.st148{opacity:0.66;}
	.st149{opacity:0.28;}
	.st150{fill:#55AFB7;}
	.st151{fill:#2AB1B8;}
	.st152{fill:#00ACBD;}
	.st153{fill:#F787A5;}
	.st154{fill:#8F693D;}
	.st155{fill:#FBBACC;}
	.st156{fill:#E6678D;}
	.st157{fill:#574435;}
	.st158{fill:#C6A17C;}
	.st159{fill:#641F1E;}
	.st160{fill:#F15E89;}
	.st161{fill:#E7005E;}
	.st162{fill:#DBB487;}
	.st163{fill:#FF1B6F;}
	.st164{fill:#DCB487;}
	.st165{fill:#F07699;}
	.st166{fill:#F8F8F6;}
	.st167{fill:#F5C1D9;}
	.st168{fill:#E1B7B2;}
	.st169{fill:#FFB9C3;}
	.st170{fill:#FFC5D6;}
	.st171{fill:#D72264;}
	.st172{fill:#F7F7F7;}
	.st173{fill:#F2F2F2;}
	.st174{fill:#FFFBF0;}
	.st175{fill:#FFBFCF;}
	.st176{fill:#FF6794;}
	.st177{fill:#FFC2C1;}
	.st178{fill:#FFCCD5;}
	.st179{fill:#FF6B81;}
	.st180{fill:#B19B8C;}
	.st181{fill:#FFE2EA;}
	.st182{fill:#EFEFEF;}
	.st183{fill:#FF9DAE;}
	.st184{fill:#A0C2D9;}
	.st185{fill:#583B34;}
	.st186{fill:#AFCDE2;}
	.st187{fill:#F9F9F8;}
	.st188{fill:#DECDC5;}
	.st189{fill:#FFFEEA;}
	.st190{fill:#D7926B;}
	.st191{fill:#FFE9F2;}
	.st192{fill:#FFDBE5;}
	.st193{fill:#F2CCC1;}
	.st194{fill:#DF4E50;}
	.st195{fill:#FFFFFF;stroke:#FFFFFF;stroke-width:0.25;stroke-miterlimit:10;}
	.st196{fill:#00C377;}
	.st197{fill:#A6E5C3;}
	.st198{fill:#85E2AC;}
	.st199{fill:#00B45A;}
	.st200{fill:#7FD7A7;}
	.st201{fill:#EFB93A;}
	.st202{fill:#B69C65;}
	.st203{fill:#95CF81;}
	.st204{fill:#3C3724;}
	.st205{fill:#D3BB9F;}
	.st206{fill:#998074;}
	.st207{fill:#587147;}
	.st208{fill:#E4D3BB;}
	.st209{fill:#5CC386;}
	.st210{clip-path:url(#SVGID_55_);fill:#A6E5C3;}
	.st211{clip-path:url(#SVGID_55_);fill:#FFFFFF;}
	.st212{clip-path:url(#SVGID_55_);fill:#58D196;}
	.st213{fill:#FFEF6E;}
	.st214{fill:#FFE200;}
	.st215{clip-path:url(#SVGID_57_);fill:#FDA157;}
	.st216{clip-path:url(#SVGID_57_);fill-rule:evenodd;clip-rule:evenodd;fill:#FF8429;}
	.st217{clip-path:url(#SVGID_57_);fill:#F35000;}
	.st218{clip-path:url(#SVGID_57_);fill:#F6B646;}
	.st219{fill:#F35000;}
	.st220{fill:#FF8429;}
	.st221{fill:#FFA933;}
	.st222{fill:#E26D00;}
	.st223{fill:#EC6406;}
	.st224{fill:#FF9900;}
	.st225{fill:#130077;}
	.st226{fill:#FFB58D;}
	.st227{opacity:0.3;}
	.st228{fill:#FF7300;}
	.st229{fill:#6E0000;}
	.st230{fill-rule:evenodd;clip-rule:evenodd;fill:#FF9900;}
	.st231{fill-rule:evenodd;clip-rule:evenodd;fill:url(#SVGID_58_);}
	.st232{opacity:0.3;fill-rule:evenodd;clip-rule:evenodd;fill:#A1002C;}
	.st233{fill-rule:evenodd;clip-rule:evenodd;fill:url(#SVGID_59_);}
	.st234{fill-rule:evenodd;clip-rule:evenodd;fill:url(#SVGID_60_);}
	.st235{opacity:0.5;fill-rule:evenodd;clip-rule:evenodd;fill:url(#SVGID_61_);}
	.st236{fill-rule:evenodd;clip-rule:evenodd;fill:#FFC182;}
	.st237{fill-rule:evenodd;clip-rule:evenodd;fill:url(#SVGID_62_);}
	.st238{fill-rule:evenodd;clip-rule:evenodd;fill:url(#SVGID_63_);}
	.st239{fill-rule:evenodd;clip-rule:evenodd;fill:url(#SVGID_64_);}
	.st240{opacity:0.5;fill-rule:evenodd;clip-rule:evenodd;fill:url(#SVGID_65_);}
	.st241{fill-rule:evenodd;clip-rule:evenodd;fill:#FDA157;}
	.st242{opacity:0.5;fill-rule:evenodd;clip-rule:evenodd;fill:#FDA157;}
	.st243{fill-rule:evenodd;clip-rule:evenodd;fill:#FF8429;}
	.st244{fill-rule:evenodd;clip-rule:evenodd;fill:#FFA933;}
	.st245{opacity:0.62;fill-rule:evenodd;clip-rule:evenodd;fill:#C5002A;}
	.st246{opacity:0.5;fill-rule:evenodd;clip-rule:evenodd;fill:#FF8429;}
	.st247{opacity:0.5;fill-rule:evenodd;clip-rule:evenodd;fill:#8C5472;}
	.st248{opacity:0.3;fill-rule:evenodd;clip-rule:evenodd;fill:url(#SVGID_66_);}
	.st249{opacity:0.5;fill-rule:evenodd;clip-rule:evenodd;fill:url(#SVGID_67_);}
	.st250{opacity:0.3;fill-rule:evenodd;clip-rule:evenodd;fill:url(#SVGID_68_);}
	.st251{opacity:0.3;fill-rule:evenodd;clip-rule:evenodd;fill:url(#SVGID_69_);}
	.st252{clip-path:url(#SVGID_71_);}
	.st253{clip-path:url(#SVGID_71_);fill:#FF8429;}
	.st254{fill:#FDA157;}
	.st255{clip-path:url(#SVGID_73_);}
	.st256{fill:#F58800;}
	.st257{clip-path:url(#SVGID_75_);}
	.st258{fill:#F6B646;}
	.st259{clip-path:url(#SVGID_77_);}
	.st260{clip-path:url(#SVGID_77_);fill:#FF8429;}
	.st261{fill-rule:evenodd;clip-rule:evenodd;fill:url(#SVGID_78_);}
	.st262{fill-rule:evenodd;clip-rule:evenodd;fill:url(#SVGID_79_);}
	.st263{fill-rule:evenodd;clip-rule:evenodd;fill:url(#SVGID_80_);}
	.st264{opacity:0.5;fill-rule:evenodd;clip-rule:evenodd;fill:url(#SVGID_81_);}
	.st265{fill-rule:evenodd;clip-rule:evenodd;fill:url(#SVGID_82_);}
	.st266{fill-rule:evenodd;clip-rule:evenodd;fill:url(#SVGID_83_);}
	.st267{fill-rule:evenodd;clip-rule:evenodd;fill:url(#SVGID_84_);}
	.st268{opacity:0.5;fill-rule:evenodd;clip-rule:evenodd;fill:url(#SVGID_85_);}
	.st269{opacity:0.3;fill-rule:evenodd;clip-rule:evenodd;fill:url(#SVGID_86_);}
	.st270{opacity:0.5;fill-rule:evenodd;clip-rule:evenodd;fill:url(#SVGID_87_);}
	.st271{opacity:0.3;fill-rule:evenodd;clip-rule:evenodd;fill:url(#SVGID_88_);}
	.st272{opacity:0.3;fill-rule:evenodd;clip-rule:evenodd;fill:url(#SVGID_89_);}
	.st273{opacity:0.88;fill:#FFFEF3;}
	.st274{fill:#FFCD66;}
	.st275{fill:#ADA9AA;}
	.st276{fill:#FFE585;}
	.st277{fill:#F4C500;}
	.st278{fill:#FFE894;}
	.st279{clip-path:url(#SVGID_91_);fill:#FFCB33;}
	.st280{clip-path:url(#SVGID_91_);fill:#FFE406;}
	.st281{clip-path:url(#SVGID_93_);fill:#901C9D;}
	.st282{opacity:0.5;clip-path:url(#SVGID_93_);}
	.st283{fill:#901C9D;}
	.st284{clip-path:url(#SVGID_93_);}
	.st285{clip-path:url(#SVGID_95_);fill:#E097E9;}
	.st286{fill:#CC37D8;}
	.st287{opacity:0.5;fill:#FFFFFF;}
	.st288{opacity:0.5;fill:#FFFFFF;stroke:#FFFFFF;stroke-miterlimit:10;}
	.st289{opacity:0.68;fill:#FFFFFF;}
	.st290{fill:#F0C6F4;}
	.st291{fill:#D7A0DF;}
	.st292{fill:#A87B41;}
	.st293{fill:#8A9093;}
	.st294{fill:#CBCED1;}
	.st295{fill:#DDD9CF;}
	.st296{fill:#543F31;}
	.st297{fill:#C18875;}
	.st298{fill:#B1B7BA;}
	.st299{fill:#899093;}
	.st300{fill:#D39A85;}
	.st301{fill:#3DCFF7;}
	.st302{fill:#57CAF9;}
	.st303{fill:#F92405;}
	.st304{fill:#B30000;}
	.st305{fill:#FA3C20;}
	.st306{fill:#E09E80;}
	.st307{fill:#950000;}
	.st308{fill:#F50000;}
	.st309{clip-path:url(#SVGID_97_);fill:#F787A5;}
	.st310{clip-path:url(#SVGID_97_);fill:#FFE9F2;}
	.st311{clip-path:url(#SVGID_97_);fill:#D3CFB3;}
	.st312{clip-path:url(#SVGID_97_);fill:#FFDBE5;}
	.st313{clip-path:url(#SVGID_97_);}
	.st314{clip-path:url(#SVGID_97_);fill:#FFC5D6;}
	.st315{fill:#F88EB2;}
	.st316{fill:#BAA292;}
	.st317{fill:#63443C;}
	.st318{fill:#CDA99E;}
	.st319{fill:#9FC1D8;}
	.st320{fill:#997972;}
	.st321{fill:#77573F;}
	.st322{opacity:0.45;fill:#FFFFFF;}
	.st323{opacity:0.8;fill:#FFFFFF;}
	.st324{opacity:0.79;fill:#FFFFFF;}
	.st325{opacity:0.46;}
	.st326{opacity:0.86;fill:#FFFFFF;}
	.st327{fill-rule:evenodd;clip-rule:evenodd;fill:#FA3C20;}
	.st328{fill-rule:evenodd;clip-rule:evenodd;fill:#CE0707;}
	.st329{fill-rule:evenodd;clip-rule:evenodd;fill:#F92405;}
	.st330{fill-rule:evenodd;clip-rule:evenodd;fill:#F50000;}
	.st331{fill-rule:evenodd;clip-rule:evenodd;fill:#F75F53;}
	.st332{fill:#F75F53;}
	.st333{clip-path:url(#SVGID_99_);fill:#574435;}
	.st334{clip-path:url(#SVGID_99_);fill:#C6A17C;}
	.st335{clip-path:url(#SVGID_99_);fill:#8F693D;}
	.st336{clip-path:url(#SVGID_99_);fill:#CE0707;}
	.st337{clip-path:url(#SVGID_99_);fill:#FA3C20;}
	.st338{clip-path:url(#SVGID_99_);fill:#950000;}
	.st339{clip-path:url(#SVGID_99_);fill:#F75F53;}
	.st340{clip-path:url(#SVGID_99_);fill:#131212;}
	.st341{clip-path:url(#SVGID_99_);fill:#B30000;}
	.st342{clip-path:url(#SVGID_99_);fill:#412A1A;}
	.st343{clip-path:url(#SVGID_99_);fill:#DCC4AD;}
	.st344{clip-path:url(#SVGID_99_);fill:#BD835C;}
	.st345{fill:#CE0707;}
	.st346{fill:#A99BB6;}
	.st347{fill:#381A12;}
	.st348{fill:#E9C9B6;}
	.st349{fill:#AA9CB9;}
	.st350{fill:#F6F4F3;}
	.st351{fill:#0A345E;}
	.st352{fill:#412A1A;}
	.st353{fill:#131212;}
	.st354{fill:#DCC4AD;}
	.st355{fill:#BD835C;}
	.st356{fill:#83D5FB;}
	.st357{fill:#00ABF0;}
	.st358{fill:#31C5F8;}
	.st359{opacity:0.34;fill:#FFFFFF;}
	.st360{opacity:0.25;fill:#FFFFFF;}
	.st361{opacity:0.6;fill:#FFFFFF;}
	.st362{fill:#B0AEAB;}
	.st363{fill:#0D0707;}
	.st364{fill:#A6A6A6;}
	.st365{fill:#0068A6;}
	.st366{opacity:0.6;}
	.st367{fill:#FF8A8A;}
	.st368{fill:url(#SVGID_100_);}
	.st369{fill:#FF963A;}
	.st370{fill:#FFC181;}
	.st371{clip-path:url(#SVGID_102_);fill:#FFDFBD;}
	.st372{clip-path:url(#SVGID_102_);fill:#FF9D00;}
	.st373{clip-path:url(#SVGID_102_);fill:#FFF3DF;}
	.st374{clip-path:url(#SVGID_104_);fill:#FFBAE4;}
	.st375{opacity:0.8;clip-path:url(#SVGID_104_);fill:#FE82C8;}
	.st376{clip-path:url(#SVGID_104_);fill:#FE82C8;}
	.st377{opacity:0.79;clip-path:url(#SVGID_104_);fill:#FFBAE4;}
	.st378{fill:url(#SVGID_105_);}
	.st379{fill:#D2F2E1;}
	.st380{clip-path:url(#SVGID_107_);fill:#FFF9C1;}
	.st381{fill:url(#SVGID_108_);}
	.st382{fill:url(#SVGID_109_);}
	.st383{opacity:0.86;fill:#FFCCD5;}
	.st384{fill:url(#SVGID_110_);}
	.st385{opacity:0.4;}
	.st386{clip-path:url(#SVGID_112_);}
	.st387{clip-path:url(#SVGID_112_);fill:none;}
	.st388{opacity:0.17;fill:#FFFFFF;}
	.st389{opacity:0.39;fill:#FFFFFF;}
	.st390{fill:#6DCDCF;}
	.st391{fill:#2B747C;}
	.st392{fill:#1E1E1E;}
	.st393{fill:#272727;}
	.st394{fill:#3FA5B0;}
	.st395{fill:#1F1F1F;}
	.st396{fill:#242424;}
	.st397{fill-rule:evenodd;clip-rule:evenodd;fill:#2B747C;}
	.st398{fill-rule:evenodd;clip-rule:evenodd;fill:#6DCDCF;}
	.st399{fill-rule:evenodd;clip-rule:evenodd;fill:#3FA5B0;}
	.st400{clip-path:url(#SVGID_114_);fill:#3FA5B0;}
	.st401{clip-path:url(#SVGID_114_);fill:#2AB1B8;}
	.st402{clip-path:url(#SVGID_114_);fill:#55AFB7;}
	.st403{clip-path:url(#SVGID_114_);fill:#00ACBD;}
	.st404{clip-path:url(#SVGID_114_);fill:#616161;}
	.st405{clip-path:url(#SVGID_114_);fill:#6DCDCF;}
	.st406{clip-path:url(#SVGID_114_);fill:#2B747C;}
	.st407{fill:url(#SVGID_115_);}
	.st408{fill:url(#SVGID_116_);}
	.st409{fill:url(#SVGID_117_);}
	.st410{fill:url(#SVGID_118_);}
	.st411{fill:url(#SVGID_119_);}
	.st412{fill:url(#SVGID_120_);}
	.st413{fill:url(#SVGID_121_);}
	.st414{fill:url(#SVGID_122_);}
	.st415{fill:url(#SVGID_123_);}
	.st416{fill:url(#SVGID_124_);}
	.st417{fill:url(#SVGID_125_);}
	.st418{fill:url(#SVGID_126_);}
	.st419{fill:url(#SVGID_127_);}
	.st420{fill:url(#SVGID_128_);}
	.st421{clip-path:url(#SVGID_130_);fill:url(#SVGID_131_);}
	.st422{fill:url(#SVGID_132_);}
	.st423{fill:url(#SVGID_133_);}
	.st424{fill:url(#SVGID_134_);}
	.st425{fill:url(#SVGID_135_);}
	.st426{clip-path:url(#SVGID_137_);fill:url(#SVGID_138_);}
	.st427{clip-path:url(#SVGID_137_);}
	.st428{opacity:0.75;clip-path:url(#SVGID_137_);fill:url(#SVGID_141_);}
	.st429{fill:none;stroke:#FFFFFF;stroke-width:2;stroke-miterlimit:10;}
	.st430{fill:#EFC2A7;}
	.st431{fill:none;stroke:#FFFFFF;stroke-width:0.75;stroke-miterlimit:10;}
	.st432{fill:none;stroke:#FFFFFF;stroke-width:3;stroke-miterlimit:10;}
	.st433{fill:url(#SVGID_148_);}
	.st434{fill:url(#SVGID_149_);}
	.st435{filter:url(#Adobe_OpacityMaskFilter_2_);}
	.st436{opacity:0.74;mask:url(#SVGID_151_);}
	.st437{clip-path:url(#SVGID_152_);fill:#000202;}
	.st438{opacity:0.75;fill:url(#SVGID_153_);}
	.st439{clip-path:url(#SVGID_156_);}
	.st440{fill:#1A1A1A;}
	.st441{fill:url(#SVGID_157_);}
	.st442{fill:url(#SVGID_159_);}
	.st443{clip-path:url(#SVGID_161_);}
	.st444{fill:url(#SVGID_172_);}
	.st445{filter:url(#Adobe_OpacityMaskFilter_3_);}
	.st446{opacity:0.74;mask:url(#SVGID_174_);}
	.st447{clip-path:url(#SVGID_175_);fill:#000202;}
	.st448{opacity:0.75;fill:url(#SVGID_176_);}
	.st449{fill:none;stroke:#FFFFFF;stroke-width:4;stroke-miterlimit:10;}
	.st450{fill:#FFFFFF;stroke:#FFFFFF;stroke-miterlimit:10;}
	.st451{clip-path:url(#SVGID_188_);}
	.st452{opacity:0.37;clip-path:url(#SVGID_188_);}
	.st453{opacity:0.53;clip-path:url(#SVGID_188_);}
	.st454{fill:#352417;}
	.st455{fill:#FEC3B5;}
	.st456{fill:#FFE4DA;}
	.st457{fill:#9E7458;}
	.st458{fill:#B0805C;}
	.st459{opacity:0.87;fill:#FFFDE0;}
	.st460{fill:#314255;}
	.st461{fill:#FDBA8B;}
	.st462{fill:#FFFDE0;}
	.st463{opacity:0.95;fill:#F9B4E7;}
	.st464{fill:#FE82C8;}
	.st465{opacity:0.63;fill:#F94BAB;}
	.st466{opacity:0.37;fill:#F94BAB;}
	.st467{fill:#FFDFBD;}
	.st468{fill:#FFF3DF;}
	.st469{fill:#58595B;}
	.st470{fill:#FCD1A9;}
	.st471{fill:#FF5700;}
	.st472{fill:#FFF6E2;}
	.st473{opacity:0.37;fill:#FFDFBD;}
	.st474{opacity:0.53;}
	.st475{fill:#8B5E50;}
	.st476{fill:#29CE61;}
	.st477{fill:#02B769;}
	.st478{fill:#C18C65;}
	.st479{fill:#B49B83;}
	.st480{fill:#C6AC94;}
	.st481{fill:#F0EEE6;}
	.st482{fill:#DDD7CF;}
	.st483{fill:#FF977E;}
	.st484{fill:#FE3000;}
	.st485{fill:#EF0B00;}
	.st486{fill:#FE7B24;}
	.st487{fill:#F60000;}
	.st488{fill:#BF1200;}
	.st489{fill:#FE3100;}
	.st490{fill:#FF0000;}
	.st491{fill:#AC7401;}
	.st492{fill:#656768;}
	.st493{fill:#4DD4F7;}
	.st494{fill:#00A7CA;}
	.st495{fill:#6EDBF4;}
	.st496{fill:#D50C25;}
	.st497{fill:#B0F1F6;}
	.st498{fill:#0088B4;}
	.st499{fill:#005EB1;}
	.st500{fill:none;stroke:#259ADD;stroke-miterlimit:10;}
	.st501{fill:#259ADD;}
	.st502{opacity:0.4;fill:#00336C;}
	.st503{fill:#0089D9;}
	.st504{fill:none;stroke:#005EB1;stroke-width:0.8397;stroke-linecap:round;stroke-linejoin:round;stroke-miterlimit:10;}
	.st505{fill:none;stroke:#83D5FB;stroke-miterlimit:10;}
	.st506{opacity:0.88;fill:#FFFFFF;}
	.st507{opacity:0.46;fill:#FFFFFF;}
	.st508{opacity:0.87;fill:#FFFFFF;}
	.st509{opacity:0.75;}
	.st510{opacity:0.65;fill:#FFFFFF;}
	.st511{opacity:0.54;}
</style>
<g class="st148">
	<path class="st95" d="M145.65,272.94c-23.31-0.81-42.37-13.24-50.85-33.16l-0.86-2.02h103.17c34.65,0,65.38,12.63,86.69,35.18
		H145.65z"/>
	<path class="st95" d="M259.78,253.97H133.37c-15.7-0.55-29.46-6.38-39.37-16.21h-0.06l0.86,2.02
		c8.48,19.92,27.54,32.35,50.85,33.16H283.8C276.76,265.49,268.68,259.15,259.78,253.97z"/>
	<path class="st95" d="M96.2,242.75c9.64,8.32,22.34,13.24,36.67,13.74h131c-1.35-0.86-2.71-1.71-4.09-2.52H133.37
		c-15.7-0.55-29.46-6.38-39.37-16.21h-0.06l0.86,2.02C95.23,240.79,95.71,241.77,96.2,242.75z"/>
</g>
<path class="st132" d="M375.76,349.62c-3.28-7.9-7.51-15.14-12.55-21.66l0,0c0,0-0.01-0.01-0.01-0.01
	c-0.92-1.19-1.87-2.34-2.84-3.48c-0.25-0.3-0.51-0.6-0.77-0.89c-0.4-0.46-0.81-0.91-1.22-1.36c-0.27-0.3-0.55-0.6-0.83-0.9
	c-0.41-0.44-0.83-0.88-1.25-1.32c-0.27-0.28-0.55-0.55-0.83-0.83c-0.78-0.78-1.57-1.55-2.38-2.3c-0.3-0.28-0.59-0.56-0.89-0.83
	c-0.43-0.39-0.87-0.78-1.31-1.16c-0.33-0.29-0.66-0.58-0.99-0.86c-0.44-0.37-0.88-0.74-1.32-1.11c-0.35-0.29-0.71-0.58-1.07-0.86
	c-0.44-0.35-0.87-0.7-1.32-1.04c-0.72-0.55-1.45-1.1-2.19-1.63c-0.43-0.31-0.86-0.61-1.3-0.91c-0.42-0.29-0.83-0.58-1.25-0.86
	c-0.44-0.3-0.89-0.59-1.33-0.88c-0.43-0.28-0.87-0.56-1.31-0.84c-0.44-0.27-0.87-0.55-1.31-0.82c-0.53-0.32-1.07-0.64-1.61-0.95
	c-0.59-0.34-1.19-0.68-1.79-1.02c-0.6-0.33-1.21-0.66-1.82-0.99c-0.42-0.22-0.84-0.43-1.27-0.65c-0.53-0.27-1.06-0.53-1.59-0.79
	c-0.43-0.21-0.86-0.41-1.29-0.61c-0.58-0.27-1.17-0.54-1.76-0.8c-0.38-0.17-0.75-0.34-1.13-0.5c-0.93-0.4-1.86-0.78-2.8-1.16
	c-0.34-0.14-0.69-0.26-1.04-0.4c-0.66-0.25-1.33-0.51-2-0.75c-0.41-0.15-0.81-0.29-1.22-0.43c-0.65-0.23-1.31-0.44-1.96-0.66
	c-0.39-0.12-0.77-0.25-1.16-0.37c-0.9-0.28-1.81-0.55-2.73-0.81c-0.2-0.06-0.39-0.11-0.59-0.17c-0.97-0.27-1.95-0.52-2.94-0.77
	c-0.36-0.09-0.73-0.17-1.1-0.26c-0.74-0.17-1.48-0.34-2.22-0.5c-0.39-0.08-0.77-0.16-1.16-0.24c-0.82-0.17-1.64-0.32-2.46-0.47
	c-0.29-0.05-0.57-0.11-0.86-0.16c-1.1-0.19-2.21-0.36-3.33-0.52c-0.27-0.04-0.55-0.07-0.82-0.11c-0.87-0.12-1.74-0.23-2.61-0.32
	c-0.38-0.04-0.76-0.08-1.14-0.12c-0.82-0.08-1.64-0.16-2.46-0.22c-0.36-0.03-0.71-0.06-1.07-0.09c-1.16-0.08-2.32-0.16-3.49-0.21
	l-131.32-1.11c-15.41,1.01-36.67,0.11-59.66-8.44C27.71,255.43,4.14,186.35,0.48,175.06c0.28,18.29,0.55,36.58,0.83,54.87
	l-0.83-0.54l0,0c0,0,0,0,0,0c-0.74,5.98-6.54,60.49,33.64,97.06c21.88,19.91,46.75,24.82,57.82,26.28
	c34.11-0.35,68.23-0.7,102.34-1.06l182.97,1.55L375.76,349.62z"/>
<g class="st35">
	<g>
		<g>
			<g>
				<path class="st95" d="M457.28,249.54c-40-4.37-58.83-30.52-75.55-63.82c-16.61-33.05-30.41-72-21.49-109.12
					c0.32-1.37-0.96-2.42-2.12-2.68c-11.57-2.54-31.43-3.87-41.51,3.23c-5.38,3.77-8.05,8.03-9.95,14.26
					c-1.73,5.71,4.3,10.89,1.14,10.2c-11.57-2.57-22.41-8.35-32.02-15.12c-12.08-8.48-49.87-50.96-29.86-64.24
					c4.55-3.02,12.96-11.84,7.52-17.53c-4.24-4.44-14.49,1.52-18.35,3.39c-37.64,18.2-70.68,53.1-92.62,88
					c-3.15,4.07-6.3,8.16-9.45,12.24c-0.11,0.14-0.13,0.27-0.21,0.39c-0.03,0.06-0.08,0.09-0.12,0.16
					c-10.62,21.46,13.97,41.02,28.75,52.6c29.66,23.27,64.19,39.34,95.53,60.06c41.64,27.54,74.34,64.92,124.21,78.07
					c35.64,9.38,105.81,2.35,117.96-34.19C503.74,251.62,462.51,250.11,457.28,249.54z M357.92,286.59
					c-38.15-15.87-66.86-48.28-100.86-70.78c-23.96-15.82-49.59-29.02-73.66-44.73c-16.46-10.73-58.05-35.49-46.36-60.05
					c2.13-2.73,4.23-5.44,6.32-8.17c6.35,16.46,32.31,29.99,44.37,37.2c22.73,13.56,46.81,24.15,68.59,39.38
					c18.38,12.85,34.22,28.86,49.72,44.96c14.65,15.24,28.52,33.7,47.48,43.87c18.45,9.9,38.13,13.66,58.82,15.74
					c29.36,2.94,74.38-10.21,78.23-11.04C457.18,298.09,394.36,301.75,357.92,286.59z"/>
			</g>
		</g>
		<g>
			<path class="st95" d="M356.66,292.91c-38.33-15.43-71.53-54.6-105.53-77.1c-23.96-15.82-49.59-29.02-73.66-44.73
				c-16.46-10.73-58.05-35.49-46.36-60.05c2.13-2.73,4.23-5.44,6.32-8.17c6.35,16.46,32.31,29.99,44.37,37.2
				c22.73,13.56,46.81,24.15,68.59,39.38c18.38,12.85,34.22,28.86,49.72,44.96c14.65,15.24,28.52,33.7,47.48,43.87
				c18.45,9.9,42.25,19.68,74.27,18.64c36.02-1.17,71.02-15.1,74.87-15.93C470.66,312.88,394.1,307.97,356.66,292.91z"/>
		</g>
	</g>
</g>
</svg>
