<?xml version="1.0" encoding="utf-8"?>
<!-- Generator: Adobe Illustrator 24.2.3, SVG Export Plug-In . SVG Version: 6.00 Build 0)  -->
<svg version="1.1" id="Слой_1" xmlns="http://www.w3.org/2000/svg" xmlns:xlink="http://www.w3.org/1999/xlink" x="0px" y="0px"
	 viewBox="0 0 515 483" style="enable-background:new 0 0 515 483;" xml:space="preserve">
<style type="text/css">
	.st0{fill:#FFE473;}
	.st1{fill:#000600;}
	.st2{clip-path:url(#SVGID_2_);fill:url(#SVGID_3_);}
	.st3{clip-path:url(#SVGID_2_);fill:#FF977E;}
	.st4{clip-path:url(#SVGID_2_);fill:#FE3000;}
	.st5{clip-path:url(#SVGID_2_);fill:#EF0B00;}
	.st6{clip-path:url(#SVGID_2_);fill:#FE7B24;}
	.st7{clip-path:url(#SVGID_2_);fill:#FE3100;}
	.st8{clip-path:url(#SVGID_2_);fill:#F1DFD8;}
	.st9{clip-path:url(#SVGID_2_);fill:#F60000;}
	.st10{clip-path:url(#SVGID_2_);fill:#BF1200;}
	.st11{clip-path:url(#SVGID_2_);fill:#FF0000;}
	.st12{clip-path:url(#SVGID_2_);fill:#AC7401;}
	.st13{clip-path:url(#SVGID_5_);fill:#EFE300;}
	.st14{clip-path:url(#SVGID_5_);fill:#FCEA68;}
	.st15{clip-path:url(#SVGID_5_);fill:#FFFEB4;}
	.st16{clip-path:url(#SVGID_5_);fill:#FFFA9F;}
	.st17{clip-path:url(#SVGID_5_);fill:#FFF68A;}
	.st18{clip-path:url(#SVGID_5_);fill:#FFFBD4;}
	.st19{opacity:0.87;clip-path:url(#SVGID_5_);fill:#FFFDE0;}
	.st20{clip-path:url(#SVGID_5_);fill:#EE9658;}
	.st21{clip-path:url(#SVGID_5_);fill:#314255;}
	.st22{clip-path:url(#SVGID_5_);fill:#FEDBB1;}
	.st23{clip-path:url(#SVGID_5_);fill:#FDBA8B;}
	.st24{clip-path:url(#SVGID_5_);}
	.st25{fill:#FFFBD4;}
	.st26{clip-path:url(#SVGID_5_);fill:#FFFDE0;}
	.st27{clip-path:url(#SVGID_7_);fill:#00A7CA;}
	.st28{clip-path:url(#SVGID_7_);fill:none;}
	.st29{clip-path:url(#SVGID_7_);fill:#4DD4F7;}
	.st30{clip-path:url(#SVGID_7_);fill:#6EDBF4;}
	.st31{clip-path:url(#SVGID_7_);fill:#D50C25;}
	.st32{clip-path:url(#SVGID_7_);fill:#B0F1F6;}
	.st33{clip-path:url(#SVGID_7_);fill:#0088B4;}
	.st34{opacity:0.81;}
	.st35{filter:url(#Adobe_OpacityMaskFilter);}
	.st36{opacity:0.74;mask:url(#SVGID_10_);}
	.st37{clip-path:url(#SVGID_12_);fill:#000202;}
	.st38{filter:url(#Adobe_OpacityMaskFilter_1_);}
	.st39{opacity:0.74;mask:url(#SVGID_15_);}
	.st40{clip-path:url(#SVGID_17_);fill:#000202;}
	.st41{opacity:0.75;fill:url(#SVGID_18_);}
	.st42{clip-path:url(#SVGID_20_);fill:#2B747C;}
	.st43{clip-path:url(#SVGID_20_);fill:#55AFB7;}
	.st44{clip-path:url(#SVGID_20_);fill:#3FA5B0;}
	.st45{clip-path:url(#SVGID_20_);fill:#6DCDCF;}
	.st46{clip-path:url(#SVGID_20_);fill:#214180;}
	.st47{fill:#0071C5;}
	.st48{clip-path:url(#SVGID_22_);fill:#83D5FB;}
	.st49{clip-path:url(#SVGID_22_);fill:#00ABF0;}
	.st50{clip-path:url(#SVGID_22_);fill:#57CAF9;}
	.st51{clip-path:url(#SVGID_22_);fill:#0071C5;}
	.st52{clip-path:url(#SVGID_22_);fill:#31C5F8;}
	.st53{clip-path:url(#SVGID_22_);fill:#3DCFF7;}
	.st54{clip-path:url(#SVGID_24_);fill:#00ABF0;}
	.st55{clip-path:url(#SVGID_24_);fill:#83D5FB;}
	.st56{clip-path:url(#SVGID_24_);fill:#31C5F8;}
	.st57{clip-path:url(#SVGID_24_);fill:#0071C5;}
	.st58{clip-path:url(#SVGID_24_);fill:#57CAF9;}
	.st59{clip-path:url(#SVGID_24_);fill:#A6A6A6;}
	.st60{clip-path:url(#SVGID_26_);fill:#D670E1;}
	.st61{clip-path:url(#SVGID_26_);fill:#E5B1EC;}
	.st62{clip-path:url(#SVGID_26_);fill:#8A9093;}
	.st63{clip-path:url(#SVGID_26_);fill:#901C9D;}
	.st64{clip-path:url(#SVGID_26_);fill:#CBCED1;}
	.st65{clip-path:url(#SVGID_26_);fill:#DDD9CF;}
	.st66{clip-path:url(#SVGID_26_);fill:#543F31;}
	.st67{clip-path:url(#SVGID_26_);fill:#C18875;}
	.st68{clip-path:url(#SVGID_26_);fill:#B1B7BA;}
	.st69{clip-path:url(#SVGID_26_);fill:#899093;}
	.st70{clip-path:url(#SVGID_26_);fill:#D39A85;}
	.st71{fill:#E5B1EC;}
	.st72{clip-path:url(#SVGID_28_);}
	.st73{fill:#E097E9;}
	.st74{fill:#D670E1;}
	.st75{clip-path:url(#SVGID_30_);fill:#FFE406;}
	.st76{opacity:0.5;clip-path:url(#SVGID_30_);}
	.st77{fill:#A0C7FF;}
	.st78{fill:#FF8900;}
	.st79{clip-path:url(#SVGID_30_);fill:#FFEA9E;}
	.st80{clip-path:url(#SVGID_30_);}
	.st81{fill:#FFCB33;}
	.st82{fill:#FFEA9E;}
	.st83{fill:#2A356B;}
	.st84{clip-path:url(#SVGID_30_);fill:#FFCB33;}
	.st85{clip-path:url(#SVGID_30_);fill:#A0C7FF;}
	.st86{clip-path:url(#SVGID_30_);fill:#FF8900;}
	.st87{clip-path:url(#SVGID_30_);fill:#2A356B;}
	.st88{fill:#1B254E;}
	.st89{clip-path:url(#SVGID_30_);fill:#C02C28;}
	.st90{clip-path:url(#SVGID_30_);fill:#FF7400;}
	.st91{fill:#FFE406;}
	.st92{clip-path:url(#SVGID_30_);fill:#FFEF6E;}
	.st93{clip-path:url(#SVGID_32_);fill:#FFE473;}
	.st94{fill:#FFFFFF;}
	.st95{fill:#AAD5C0;}
	.st96{fill:none;stroke:#FFFFFF;stroke-miterlimit:10;}
	.st97{fill:#9FC8A8;}
	.st98{fill:#93CA9E;}
	.st99{opacity:0.76;}
	.st100{fill:#C1E6CA;}
	.st101{fill:url(#SVGID_33_);}
	.st102{fill:url(#SVGID_34_);}
	.st103{fill:url(#SVGID_35_);}
	.st104{fill:#F3E3BB;}
	.st105{fill:url(#SVGID_36_);}
	.st106{fill:url(#SVGID_37_);}
	.st107{fill:url(#SVGID_38_);}
	.st108{fill:url(#SVGID_39_);}
	.st109{fill:url(#SVGID_40_);}
	.st110{fill:url(#SVGID_41_);}
	.st111{fill:#E1EBC1;}
	.st112{fill:#ECF8CF;}
	.st113{fill:url(#SVGID_42_);}
	.st114{fill:url(#SVGID_43_);}
	.st115{fill:url(#SVGID_44_);}
	.st116{fill:url(#SVGID_45_);}
	.st117{fill:url(#SVGID_46_);}
	.st118{fill:#FFE190;}
	.st119{clip-path:url(#SVGID_48_);fill:url(#SVGID_49_);}
	.st120{fill:#5B2A1E;}
	.st121{fill:#8D7673;}
	.st122{fill:url(#SVGID_50_);}
	.st123{fill:url(#SVGID_51_);}
	.st124{fill:url(#SVGID_52_);}
	.st125{fill:url(#SVGID_53_);}
	.st126{fill:#FF8A8A;}
	.st127{fill:#FF963A;}
	.st128{opacity:0.75;fill:#FFFFFF;}
	.st129{fill:#FFC181;}
	.st130{fill:none;}
	.st131{clip-path:url(#SVGID_55_);fill:#FFDFBD;}
	.st132{clip-path:url(#SVGID_55_);fill:#FF9D00;}
	.st133{clip-path:url(#SVGID_55_);fill:#FFF3DF;}
	.st134{fill:url(#SVGID_56_);}
	.st135{fill:#FFFEEA;}
	.st136{fill:#58D196;}
	.st137{fill:#A6E5C3;}
	.st138{fill:#D2F2E1;}
	.st139{opacity:0.44;fill:#FFFFFF;}
	.st140{clip-path:url(#SVGID_58_);fill:#FFF9C1;}
	.st141{opacity:0.26;fill:#FFFFFF;}
	.st142{opacity:0.62;fill:#FFFFFF;}
	.st143{opacity:0.41;fill:#FFFFFF;}
	.st144{opacity:0.69;fill:#FFFFFF;}
	.st145{opacity:0.73;fill:#FFFFFF;}
	.st146{opacity:0.16;fill:#FFFFFF;}
	.st147{opacity:0.3;fill:#FFFFFF;}
	.st148{opacity:0.23;fill:#FFFFFF;}
	.st149{opacity:0.24;fill:#FFFFFF;}
	.st150{opacity:0.43;fill:#FFFFFF;}
	.st151{opacity:0.76;fill:#FFFFFF;}
	.st152{opacity:0.08;fill:#FFFFFF;}
	.st153{opacity:0.27;fill:#FFFFFF;}
	.st154{opacity:0.37;fill:#FFFFFF;}
	.st155{opacity:0.54;fill:#FFFFFF;}
	.st156{opacity:0.66;}
	.st157{opacity:0.28;}
	.st158{fill:#55AFB7;}
	.st159{fill:#2AB1B8;}
	.st160{fill:#00ACBD;}
	.st161{fill:#F787A5;}
	.st162{fill:#8F693D;}
	.st163{fill:#FBBACC;}
	.st164{fill:#E6678D;}
	.st165{fill:#574435;}
	.st166{fill:#C6A17C;}
	.st167{fill:#641F1E;}
	.st168{fill:#F15E89;}
	.st169{fill:#E7005E;}
	.st170{fill:#DBB487;}
	.st171{fill:#FF1B6F;}
	.st172{fill:#DCB487;}
	.st173{fill:#F07699;}
	.st174{fill:#F8F8F6;}
	.st175{fill:#F5C1D9;}
	.st176{fill:#E1B7B2;}
	.st177{fill:#FFB9C3;}
	.st178{fill:#FFC5D6;}
	.st179{fill:#D72264;}
	.st180{fill:#F7F7F7;}
	.st181{fill:#F2F2F2;}
	.st182{fill:#FFFBF0;}
	.st183{fill:#FFBFCF;}
	.st184{fill:#FF6794;}
	.st185{fill:#FFC2C1;}
	.st186{fill:#FFCCD5;}
	.st187{fill:#FF6B81;}
	.st188{fill:#B19B8C;}
	.st189{fill:#FFE2EA;}
	.st190{fill:#EFEFEF;}
	.st191{fill:#FF9DAE;}
	.st192{fill:#A0C2D9;}
	.st193{fill:#583B34;}
	.st194{fill:#AFCDE2;}
	.st195{fill:#F9F9F8;}
	.st196{fill:#DECDC5;}
	.st197{fill:#D7926B;}
	.st198{fill:#FFE9F2;}
	.st199{fill:#FFDBE5;}
	.st200{fill:#F2CCC1;}
	.st201{fill:#DF4E50;}
	.st202{fill:#FFFFFF;stroke:#FFFFFF;stroke-width:0.25;stroke-miterlimit:10;}
	.st203{fill:#00C377;}
	.st204{fill:#85E2AC;}
	.st205{fill:#00B45A;}
	.st206{fill:#7FD7A7;}
	.st207{fill:#EFB93A;}
	.st208{fill:#B69C65;}
	.st209{fill:#95CF81;}
	.st210{fill:#3C3724;}
	.st211{fill:#D3BB9F;}
	.st212{fill:#998074;}
	.st213{fill:#587147;}
	.st214{fill:#E4D3BB;}
	.st215{fill:#5CC386;}
	.st216{clip-path:url(#SVGID_60_);fill:#A6E5C3;}
	.st217{clip-path:url(#SVGID_60_);fill:#FFFFFF;}
	.st218{clip-path:url(#SVGID_60_);fill:#58D196;}
	.st219{fill:#FFEF6E;}
	.st220{fill:#FFE200;}
	.st221{clip-path:url(#SVGID_62_);fill:#FDA157;}
	.st222{clip-path:url(#SVGID_62_);fill-rule:evenodd;clip-rule:evenodd;fill:#FF8429;}
	.st223{clip-path:url(#SVGID_62_);fill:#F35000;}
	.st224{clip-path:url(#SVGID_62_);fill:#F6B646;}
	.st225{fill:#F35000;}
	.st226{fill:#FF8429;}
	.st227{fill:#FFA933;}
	.st228{fill:#E26D00;}
	.st229{fill:#EC6406;}
	.st230{fill:#FF9900;}
	.st231{fill:#130077;}
	.st232{fill:#FFB58D;}
	.st233{opacity:0.3;}
	.st234{fill:#FF7300;}
	.st235{fill:#6E0000;}
	.st236{fill-rule:evenodd;clip-rule:evenodd;fill:#FF9900;}
	.st237{fill-rule:evenodd;clip-rule:evenodd;fill:url(#SVGID_63_);}
	.st238{opacity:0.3;fill-rule:evenodd;clip-rule:evenodd;fill:#A1002C;}
	.st239{fill-rule:evenodd;clip-rule:evenodd;fill:url(#SVGID_64_);}
	.st240{fill-rule:evenodd;clip-rule:evenodd;fill:url(#SVGID_65_);}
	.st241{opacity:0.5;fill-rule:evenodd;clip-rule:evenodd;fill:url(#SVGID_66_);}
	.st242{fill-rule:evenodd;clip-rule:evenodd;fill:#FFC182;}
	.st243{fill-rule:evenodd;clip-rule:evenodd;fill:url(#SVGID_67_);}
	.st244{fill-rule:evenodd;clip-rule:evenodd;fill:url(#SVGID_68_);}
	.st245{fill-rule:evenodd;clip-rule:evenodd;fill:url(#SVGID_69_);}
	.st246{opacity:0.5;fill-rule:evenodd;clip-rule:evenodd;fill:url(#SVGID_70_);}
	.st247{fill-rule:evenodd;clip-rule:evenodd;fill:#FDA157;}
	.st248{opacity:0.5;fill-rule:evenodd;clip-rule:evenodd;fill:#FDA157;}
	.st249{fill-rule:evenodd;clip-rule:evenodd;fill:#FF8429;}
	.st250{fill-rule:evenodd;clip-rule:evenodd;fill:#FFA933;}
	.st251{opacity:0.62;fill-rule:evenodd;clip-rule:evenodd;fill:#C5002A;}
	.st252{opacity:0.5;fill-rule:evenodd;clip-rule:evenodd;fill:#FF8429;}
	.st253{opacity:0.5;fill-rule:evenodd;clip-rule:evenodd;fill:#8C5472;}
	.st254{opacity:0.3;fill-rule:evenodd;clip-rule:evenodd;fill:url(#SVGID_71_);}
	.st255{opacity:0.5;fill-rule:evenodd;clip-rule:evenodd;fill:url(#SVGID_72_);}
	.st256{opacity:0.3;fill-rule:evenodd;clip-rule:evenodd;fill:url(#SVGID_73_);}
	.st257{opacity:0.3;fill-rule:evenodd;clip-rule:evenodd;fill:url(#SVGID_74_);}
	.st258{clip-path:url(#SVGID_76_);}
	.st259{clip-path:url(#SVGID_76_);fill:#FF8429;}
	.st260{fill:#FDA157;}
	.st261{clip-path:url(#SVGID_78_);}
	.st262{fill:#F58800;}
	.st263{clip-path:url(#SVGID_80_);}
	.st264{fill:#F6B646;}
	.st265{clip-path:url(#SVGID_82_);}
	.st266{clip-path:url(#SVGID_82_);fill:#FF8429;}
	.st267{fill-rule:evenodd;clip-rule:evenodd;fill:url(#SVGID_83_);}
	.st268{fill-rule:evenodd;clip-rule:evenodd;fill:url(#SVGID_84_);}
	.st269{fill-rule:evenodd;clip-rule:evenodd;fill:url(#SVGID_85_);}
	.st270{opacity:0.5;fill-rule:evenodd;clip-rule:evenodd;fill:url(#SVGID_86_);}
	.st271{fill-rule:evenodd;clip-rule:evenodd;fill:url(#SVGID_87_);}
	.st272{fill-rule:evenodd;clip-rule:evenodd;fill:url(#SVGID_88_);}
	.st273{fill-rule:evenodd;clip-rule:evenodd;fill:url(#SVGID_89_);}
	.st274{opacity:0.5;fill-rule:evenodd;clip-rule:evenodd;fill:url(#SVGID_90_);}
	.st275{opacity:0.3;fill-rule:evenodd;clip-rule:evenodd;fill:url(#SVGID_91_);}
	.st276{opacity:0.5;fill-rule:evenodd;clip-rule:evenodd;fill:url(#SVGID_92_);}
	.st277{opacity:0.3;fill-rule:evenodd;clip-rule:evenodd;fill:url(#SVGID_93_);}
	.st278{opacity:0.3;fill-rule:evenodd;clip-rule:evenodd;fill:url(#SVGID_94_);}
	.st279{opacity:0.88;fill:#FFFEF3;}
	.st280{fill:#FFCD66;}
	.st281{fill:#ADA9AA;}
	.st282{fill:#FFE585;}
	.st283{fill:#F4C500;}
	.st284{fill:#FFE894;}
	.st285{clip-path:url(#SVGID_96_);fill:#FFCB33;}
	.st286{clip-path:url(#SVGID_96_);fill:#FFE406;}
	.st287{clip-path:url(#SVGID_98_);fill:#901C9D;}
	.st288{opacity:0.5;clip-path:url(#SVGID_98_);}
	.st289{fill:#901C9D;}
	.st290{clip-path:url(#SVGID_98_);}
	.st291{clip-path:url(#SVGID_100_);fill:#E097E9;}
	.st292{fill:#CC37D8;}
	.st293{opacity:0.5;fill:#FFFFFF;}
	.st294{opacity:0.5;fill:#FFFFFF;stroke:#FFFFFF;stroke-miterlimit:10;}
	.st295{opacity:0.68;fill:#FFFFFF;}
	.st296{fill:#F0C6F4;}
	.st297{fill:#D7A0DF;}
	.st298{fill:#A87B41;}
	.st299{fill:#8A9093;}
	.st300{fill:#CBCED1;}
	.st301{fill:#DDD9CF;}
	.st302{fill:#543F31;}
	.st303{fill:#C18875;}
	.st304{fill:#B1B7BA;}
	.st305{fill:#899093;}
	.st306{fill:#D39A85;}
	.st307{fill:#3DCFF7;}
	.st308{fill:#57CAF9;}
	.st309{fill:#F92405;}
	.st310{fill:#B30000;}
	.st311{fill:#FA3C20;}
	.st312{fill:#E09E80;}
	.st313{fill:#950000;}
	.st314{fill:#F50000;}
	.st315{clip-path:url(#SVGID_102_);fill:#F787A5;}
	.st316{clip-path:url(#SVGID_102_);fill:#FFE9F2;}
	.st317{clip-path:url(#SVGID_102_);fill:#D3CFB3;}
	.st318{clip-path:url(#SVGID_102_);fill:#FFDBE5;}
	.st319{clip-path:url(#SVGID_102_);}
	.st320{clip-path:url(#SVGID_102_);fill:#FFC5D6;}
	.st321{fill:#F88EB2;}
	.st322{fill:#BAA292;}
	.st323{fill:#63443C;}
	.st324{fill:#CDA99E;}
	.st325{fill:#9FC1D8;}
	.st326{fill:#997972;}
	.st327{fill:#77573F;}
	.st328{opacity:0.45;fill:#FFFFFF;}
	.st329{opacity:0.8;fill:#FFFFFF;}
	.st330{opacity:0.79;fill:#FFFFFF;}
	.st331{opacity:0.46;}
	.st332{opacity:0.86;fill:#FFFFFF;}
	.st333{fill-rule:evenodd;clip-rule:evenodd;fill:#FA3C20;}
	.st334{fill-rule:evenodd;clip-rule:evenodd;fill:#CE0707;}
	.st335{fill-rule:evenodd;clip-rule:evenodd;fill:#F92405;}
	.st336{fill-rule:evenodd;clip-rule:evenodd;fill:#F50000;}
	.st337{fill-rule:evenodd;clip-rule:evenodd;fill:#F75F53;}
	.st338{fill:#F75F53;}
	.st339{clip-path:url(#SVGID_104_);fill:#574435;}
	.st340{clip-path:url(#SVGID_104_);fill:#C6A17C;}
	.st341{clip-path:url(#SVGID_104_);fill:#8F693D;}
	.st342{clip-path:url(#SVGID_104_);fill:#CE0707;}
	.st343{clip-path:url(#SVGID_104_);fill:#FA3C20;}
	.st344{clip-path:url(#SVGID_104_);fill:#950000;}
	.st345{clip-path:url(#SVGID_104_);fill:#F75F53;}
	.st346{clip-path:url(#SVGID_104_);fill:#131212;}
	.st347{clip-path:url(#SVGID_104_);fill:#B30000;}
	.st348{clip-path:url(#SVGID_104_);fill:#412A1A;}
	.st349{clip-path:url(#SVGID_104_);fill:#DCC4AD;}
	.st350{clip-path:url(#SVGID_104_);fill:#BD835C;}
	.st351{fill:#CE0707;}
	.st352{fill:#A99BB6;}
	.st353{fill:#381A12;}
	.st354{fill:#E9C9B6;}
	.st355{fill:#AA9CB9;}
	.st356{fill:#F6F4F3;}
	.st357{fill:#0A345E;}
	.st358{fill:#412A1A;}
	.st359{fill:#131212;}
	.st360{fill:#DCC4AD;}
	.st361{fill:#BD835C;}
	.st362{fill:#83D5FB;}
	.st363{fill:#00ABF0;}
	.st364{fill:#31C5F8;}
	.st365{opacity:0.34;fill:#FFFFFF;}
	.st366{opacity:0.25;fill:#FFFFFF;}
	.st367{opacity:0.6;fill:#FFFFFF;}
	.st368{fill:#B0AEAB;}
	.st369{fill:#0D0707;}
	.st370{fill:#A6A6A6;}
	.st371{fill:#0068A6;}
	.st372{opacity:0.6;}
	.st373{opacity:0.17;fill:#FFFFFF;}
	.st374{opacity:0.39;fill:#FFFFFF;}
	.st375{opacity:0.71;fill:#FFFFFF;}
	.st376{fill:url(#SVGID_105_);}
	.st377{clip-path:url(#SVGID_107_);fill:#FFDFBD;}
	.st378{clip-path:url(#SVGID_107_);fill:#FF9D00;}
	.st379{clip-path:url(#SVGID_107_);fill:#FFF3DF;}
	.st380{clip-path:url(#SVGID_109_);fill:#FFBAE4;}
	.st381{opacity:0.8;clip-path:url(#SVGID_109_);fill:#FE82C8;}
	.st382{clip-path:url(#SVGID_109_);fill:#FE82C8;}
	.st383{opacity:0.79;clip-path:url(#SVGID_109_);fill:#FFBAE4;}
	.st384{fill:url(#SVGID_110_);}
	.st385{clip-path:url(#SVGID_112_);fill:#FFF9C1;}
	.st386{fill:url(#SVGID_113_);}
	.st387{fill:url(#SVGID_114_);}
	.st388{opacity:0.86;fill:#FFCCD5;}
	.st389{fill:url(#SVGID_115_);}
	.st390{opacity:0.4;}
	.st391{clip-path:url(#SVGID_117_);}
	.st392{clip-path:url(#SVGID_117_);fill:none;}
	.st393{fill:#6DCDCF;}
	.st394{fill:#2B747C;}
	.st395{fill:#1E1E1E;}
	.st396{fill:#272727;}
	.st397{fill:#3FA5B0;}
	.st398{fill:#1F1F1F;}
	.st399{fill:#242424;}
	.st400{fill-rule:evenodd;clip-rule:evenodd;fill:#2B747C;}
	.st401{fill-rule:evenodd;clip-rule:evenodd;fill:#6DCDCF;}
	.st402{fill-rule:evenodd;clip-rule:evenodd;fill:#3FA5B0;}
	.st403{clip-path:url(#SVGID_119_);fill:#3FA5B0;}
	.st404{clip-path:url(#SVGID_119_);fill:#2AB1B8;}
	.st405{clip-path:url(#SVGID_119_);fill:#55AFB7;}
	.st406{clip-path:url(#SVGID_119_);fill:#00ACBD;}
	.st407{clip-path:url(#SVGID_119_);fill:#616161;}
	.st408{clip-path:url(#SVGID_119_);fill:#6DCDCF;}
	.st409{clip-path:url(#SVGID_119_);fill:#2B747C;}
	.st410{fill:url(#SVGID_120_);}
	.st411{fill:url(#SVGID_121_);}
	.st412{fill:url(#SVGID_122_);}
	.st413{fill:url(#SVGID_123_);}
	.st414{fill:url(#SVGID_124_);}
	.st415{fill:url(#SVGID_125_);}
	.st416{fill:url(#SVGID_126_);}
	.st417{fill:url(#SVGID_127_);}
	.st418{fill:url(#SVGID_128_);}
	.st419{fill:url(#SVGID_129_);}
	.st420{fill:url(#SVGID_130_);}
	.st421{fill:url(#SVGID_131_);}
	.st422{fill:url(#SVGID_132_);}
	.st423{fill:url(#SVGID_133_);}
	.st424{clip-path:url(#SVGID_135_);fill:url(#SVGID_136_);}
	.st425{fill:url(#SVGID_137_);}
	.st426{fill:url(#SVGID_138_);}
	.st427{fill:url(#SVGID_139_);}
	.st428{fill:url(#SVGID_140_);}
	.st429{clip-path:url(#SVGID_142_);fill:url(#SVGID_143_);}
	.st430{clip-path:url(#SVGID_142_);}
	.st431{opacity:0.75;clip-path:url(#SVGID_142_);fill:url(#SVGID_146_);}
	.st432{fill:none;stroke:#FFFFFF;stroke-width:2;stroke-miterlimit:10;}
	.st433{fill:#EFC2A7;}
	.st434{fill:none;stroke:#FFFFFF;stroke-width:0.75;stroke-miterlimit:10;}
	.st435{fill:none;stroke:#FFFFFF;stroke-width:3;stroke-miterlimit:10;}
	.st436{fill:url(#SVGID_153_);}
	.st437{fill:url(#SVGID_154_);}
	.st438{filter:url(#Adobe_OpacityMaskFilter_2_);}
	.st439{opacity:0.74;mask:url(#SVGID_157_);}
	.st440{clip-path:url(#SVGID_159_);fill:#000202;}
	.st441{opacity:0.75;fill:url(#SVGID_160_);}
	.st442{clip-path:url(#SVGID_162_);}
	.st443{fill:#1A1A1A;}
	.st444{fill:url(#SVGID_163_);}
	.st445{fill:url(#SVGID_164_);}
	.st446{clip-path:url(#SVGID_166_);}
	.st447{fill:url(#SVGID_177_);}
	.st448{filter:url(#Adobe_OpacityMaskFilter_3_);}
	.st449{opacity:0.74;mask:url(#SVGID_180_);}
	.st450{clip-path:url(#SVGID_182_);fill:#000202;}
	.st451{opacity:0.75;fill:url(#SVGID_183_);}
	.st452{fill:none;stroke:#FFFFFF;stroke-width:4;stroke-miterlimit:10;}
	.st453{fill:#FFFFFF;stroke:#FFFFFF;stroke-miterlimit:10;}
	.st454{clip-path:url(#SVGID_193_);}
	.st455{opacity:0.37;clip-path:url(#SVGID_193_);}
	.st456{opacity:0.53;clip-path:url(#SVGID_193_);}
	.st457{fill:#352417;}
	.st458{fill:#FEC3B5;}
	.st459{fill:#FFE4DA;}
	.st460{fill:#9E7458;}
	.st461{fill:#B0805C;}
	.st462{opacity:0.87;fill:#FFFDE0;}
	.st463{fill:#314255;}
	.st464{fill:#FDBA8B;}
	.st465{fill:#FFFDE0;}
	.st466{opacity:0.95;fill:#F9B4E7;}
	.st467{fill:#FE82C8;}
	.st468{opacity:0.63;fill:#F94BAB;}
	.st469{opacity:0.37;fill:#F94BAB;}
	.st470{fill:#FFDFBD;}
	.st471{fill:#FFF3DF;}
	.st472{fill:#58595B;}
	.st473{fill:#FCD1A9;}
	.st474{fill:#FF5700;}
	.st475{fill:#FFF6E2;}
	.st476{opacity:0.37;fill:#FFDFBD;}
	.st477{opacity:0.53;}
	.st478{fill:#8B5E50;}
	.st479{fill:#29CE61;}
	.st480{fill:#02B769;}
	.st481{fill:#E3CCAC;}
	.st482{fill:#C18C65;}
	.st483{fill:#B49B83;}
	.st484{fill:#C6AC94;}
	.st485{fill:#F0EEE6;}
	.st486{fill:#DDD7CF;}
	.st487{fill:#FF977E;}
	.st488{fill:#FE3000;}
	.st489{fill:#EF0B00;}
	.st490{fill:#FE7B24;}
	.st491{fill:#F60000;}
	.st492{fill:#BF1200;}
	.st493{fill:#FE3100;}
	.st494{fill:#FF0000;}
	.st495{fill:#AC7401;}
	.st496{fill:#656768;}
	.st497{fill:#4DD4F7;}
	.st498{fill:#00A7CA;}
	.st499{fill:#6EDBF4;}
	.st500{fill:#D50C25;}
	.st501{fill:#B0F1F6;}
	.st502{fill:#0088B4;}
	.st503{fill:#005EB1;}
	.st504{fill:none;stroke:#259ADD;stroke-miterlimit:10;}
	.st505{fill:#259ADD;}
	.st506{opacity:0.4;fill:#00336C;}
	.st507{fill:#0089D9;}
	.st508{fill:none;stroke:#005EB1;stroke-width:0.8397;stroke-linecap:round;stroke-linejoin:round;stroke-miterlimit:10;}
	.st509{fill:none;stroke:#83D5FB;stroke-miterlimit:10;}
</style>
<path class="st0" d="M515,483c-171.67,0-343.33,0-515,0c0-8.11,0-16.22,0-24.33c14.26-2.71,33.97-7.79,56-17.99
	c18.77-8.69,49.3-23.21,76-55.02c31.26-37.24,40.53-78.22,47-106.86c4.25-18.78,6.11-34.91,7-46.55c46.33,0.35,92.67,0.71,139,1.06
	c0.43,22.95,4.22,62.44,25,104.74c8.32,16.93,30.61,60.88,80,90.99c34.35,20.95,66.84,26.07,85,27.51C515,465.37,515,474.18,515,483
	z"/>
<path class="st25" d="M376.81,372.68c1.25,2.07,3.73,6.14,7.61,10.91c1.08,1.32,2.26,2.69,3.56,4.08c0,0,3.61,3.88,7.88,7.44
	c15.99,13.33,52.57,28.9,54.8,29.88c18.86,8.31,35.35,13.67,47.19,17.05c6.09,1.74,11.28,3.05,15.15,3.97
	c0.1,3.96,0.2,7.91,0.29,11.87c-10.29-0.09-20.1-3.27-29.89-5.92c-38.55-10.41-73.9-28.31-106.54-52.29l-0.03,0.01
	c-3.87-4.01-7.73-8.02-11.6-12.03l0.07,0.11c-0.4-0.48-0.8-0.97-1.2-1.45l0.15,0.15c-0.39-0.48-0.77-0.97-1.16-1.45l0.12,0.11
	c-0.38-0.47-0.75-0.94-1.13-1.41l0.1,0.05c-0.83-1.16-1.66-2.32-2.49-3.48l0.06,0.08c-0.34-0.5-0.69-0.99-1.03-1.49l0.12,0.1
	c-0.54-0.87-1.08-1.73-1.61-2.6c-0.81-1.39-1.62-2.79-2.43-4.18c-1.57-2.7-7.67-16.22-10.15-24.08
	c-3.44-10.91-13.6-54.65-24.67-114.81c4.33-0.35,8.67-0.71,13-1.06c9.25,41.47,12.56,59.03,13.74,67.09
	c0.34,2.33,1.56,10.59,4.38,21.49c0.78,3.02,1.7,6.15,2.89,9.81C356.89,339.53,363.53,350.58,376.81,372.68z M450.16,429.02
	c-0.08-0.16-0.16-0.32-0.24-0.49c-0.26,0.21-0.53,0.41-0.76,0.65c-0.03,0.03,0.15,0.29,0.24,0.44
	C449.65,429.43,449.91,429.23,450.16,429.02z"/>
<path class="st462" d="M330.86,130.95c24.79-2.88,51.39-7.05,79.48-12.95c27.82-5.85,53.75-12.69,77.66-20c0,11.67,0,23.33,0,35
	C435.62,132.32,383.24,131.64,330.86,130.95z"/>
<path class="st462" d="M25,99c31.94,9.51,66.69,18.13,104.04,25c20.33,3.74,40,6.69,58.96,9c-54.2,0.04-108.39,0.09-162.59,0.13
	C25.27,121.75,25.14,110.38,25,99z"/>
<path class="st25" d="M288,72c-24.62-11.86-48.63-3.09-54.56-0.68c-6.12,2.48-21.54,9.01-31.48,26.02
	c-8.54,14.6-8.33,28.87-7.93,34.65c28.41,0.02,56.81,0.1,85.22,0.05c15.35-0.03,30.7-0.28,46.04-0.42
	C324.23,105.69,309.99,82.6,288,72z"/>
<path class="st25" d="M298.71,226.75c-5.12-4.68-6.56-10.67-8.15-16.94c-2.88-11.36-6.58-22.48-9.35-33.88
	c-1.77-7.28-4.52-17.76-8.61-30.43c1.8,0,3.6,0,5.41,0c4.12,20.4,11.08,44,23.01,68.61c3.13,6.46,6.37,12.52,9.67,18.2
	C307.51,231.8,302.81,230.49,298.71,226.75z"/>
<path class="st463" d="M243.14,215.37c-1.08-0.01-1.96-0.39-2.46-1.48C242.21,213.06,242.59,214.37,243.14,215.37z"/>
<path class="st464" d="M375.35,375.85c-0.08,0.13-0.16,0.26-0.23,0.38c0.06-0.14,0.13-0.29,0.19-0.43
	C375.31,375.8,375.35,375.85,375.35,375.85z"/>
<path class="st25" d="M186.16,232.57L186.16,232.57C186.16,232.57,186.16,232.57,186.16,232.57c-3.7-0.05-7.4-0.11-11.1-0.16
	c-0.53,3.12-0.85,6.29-1.61,9.35c-2.96,11.85-4.22,24.16-8.71,35.59c-2.93,13.27-4.48,26.9-9.19,39.72
	c-0.64,3.41-1.27,6.82-1.9,10.23c-0.9,2.64-1.86,5.27-2.68,7.94c-7.92,25.61-20.64,47.85-40.67,64.95
	C99,409.81,86.41,417.11,73.2,423.32c-23.5,11.05-48.19,18.36-72.7,26.27c-0.07,5.52-0.14,11.04-0.2,16.56
	c0.74-0.12,1.54-0.08,2.21-0.38c24.83-11.34,49.66-22.7,74.47-34.09c17.16-7.88,33.68-17.09,49.8-27.1
	c10.33-7.95,18.48-18.05,25.62-29.14l0.05,0c0.45-0.79,0.91-1.58,1.36-2.37l-0.1,0.14c0.44-0.83,0.88-1.66,1.33-2.5l-0.08,0.12
	c1.5-3.28,3-6.55,4.5-9.83l-0.12,0.1c0.32-0.86,0.64-1.72,0.96-2.58c0,0,0.46-0.01,0.46-0.01l-0.46-0.04
	c0.48-1.16,0.97-2.32,1.45-3.49l-0.12,0.12c0.4-1.2,0.8-2.4,1.2-3.6c1.42-4.9,2.85-9.81,4.27-14.71c3.66-16.76,6.5-30.33,8.39-39.5
	c2.34-11.31,3.47-17.21,6.61-32.37c2.24-10.78,4.49-21.56,6.72-32.34C187.94,232.58,187.05,232.57,186.16,232.57z"/>
<path class="st25" d="M254.71,243.68c0-1.2-0.01-2.4,0-3.61c0.03-2.05-0.08-4.06,2.87-3.94c2.65,0.1,2.41,1.99,2.5,3.75
	c0.1,2,0.15,4.01,0.16,6.01c0.01,2.1,0.74,4.5-2.73,4.55c-3.33,0.05-3.05-2.09-2.97-4.35c0.03-0.8,0-1.6,0-2.41
	C254.6,243.68,254.65,243.68,254.71,243.68z"/>
<path class="st25" d="M257.18,183.54c-1.68-0.52-1.23-1.98-1.24-3.18c-0.01-1.12,0.17-2.44,1.71-2.17c1.8,0.32,1.24,1.97,1.28,3.15
	C258.97,182.45,258.88,183.64,257.18,183.54z"/>
<path class="st25" d="M258.89,158.89c0,1.12,0.02,2.58-1.43,2.5c-1.8-0.1-1.45-1.8-1.47-3.03c-0.03-1.11,0.04-2.58,1.45-2.51
	C259.27,155.94,258.72,157.7,258.89,158.89z"/>
<g>
	<path class="st25" d="M250.18,472.08c-0.24,2.75-0.48,5.5-0.72,8.24c5.51,0.03,11.01,0.06,16.52,0.08
		c-0.32-3.02-0.65-6.03-0.97-9.05C260.06,471.6,255.12,471.84,250.18,472.08z"/>
	<path class="st25" d="M251.29,454.06c-0.06,2.16-0.11,4.33-0.17,6.49c4.63,0.08,9.26,0.15,13.88,0.23
		c-0.38-2.32-0.76-4.64-1.15-6.96C259.67,453.9,255.48,453.98,251.29,454.06z"/>
	<path class="st25" d="M262.5,441.07c0.09-1.94,0.17-3.88,0.26-5.82c-3.46,0-6.92,0-10.38,0c-0.03,1.99-0.06,3.99-0.08,5.98
		C255.7,441.18,259.1,441.13,262.5,441.07z"/>
	<path class="st25" d="M252.83,419.29c3.12,0.15,6.24,0.3,9.36,0.45c-0.06-2.54-0.13-5.08-0.19-7.63c-3,0-6,0-9,0
		C252.94,414.51,252.89,416.9,252.83,419.29z"/>
	<path class="st25" d="M254.63,389.37c-0.25,2.95-0.5,5.89-0.75,8.84c2.46-0.01,4.93-0.03,7.39-0.04c-0.09-3.11-0.18-6.22-0.27-9.33
		C258.88,389.02,256.75,389.19,254.63,389.37z"/>
	<path class="st25" d="M252,302.08c4,0,8,0,12,0c-0.67-9.87-1.33-19.75-2-29.62c-3.03-0.22-6.05-0.43-9.08-0.65
		C252.62,281.9,252.31,291.99,252,302.08z"/>
	<path class="st25" d="M261.3,339.31c-0.04-6.59-0.09-13.18-0.13-19.77c-2.72-0.18-5.44-0.36-8.17-0.53
		c-0.17,6.68-0.33,13.36-0.5,20.04C255.43,339.14,258.37,339.23,261.3,339.31z M253.48,336.51c0.1,0.11,0.19,0.22,0.26,0.33
		C253.66,336.73,253.57,336.62,253.48,336.51C253.48,336.51,253.48,336.51,253.48,336.51z"/>
	<path class="st25" d="M262,359.21c-2.67,0-5.33,0-8,0c-0.33,4.94-0.67,9.87-1,14.81c3.33,0,6.67,0,10,0
		C262.67,369.09,262.33,364.15,262,359.21z"/>
</g>
<path class="st25" d="M230.3,215.68c2.44-5.96,4.87-11.91,7.31-17.87c12.18-0.27,24.37-0.54,36.55-0.81
	c3.25,6.77,6.5,13.54,9.75,20.31c-0.27,5.14-0.54,10.29-0.81,15.43c-2.98,0-5.96,0-8.94,0c0-1.08,0-2.17,0-3.25
	c-11.91,0-23.83,0-35.74,0c0,1.35,0,2.71,0,4.06c-2.71,0-5.42,0-8.12,0C230.3,227.6,230.3,221.64,230.3,215.68z"/>
<path class="st25" d="M211.21,226.25c5.12-4.68,6.56-10.67,8.15-16.94c2.88-11.36,6.58-22.48,9.35-33.88
	c1.77-7.28,4.52-17.76,8.61-30.43c-1.8,0-3.6,0-5.41,0c-4.12,20.4-11.08,44-23.01,68.61c-3.13,6.46-6.37,12.52-9.67,18.2
	C202.4,231.3,207.11,229.99,211.21,226.25z"/>
<path class="st462" d="M109.8,65.93c14.38,8.75,30.24,17.54,47.6,25.98c9.45,4.59,18.68,8.75,27.64,12.53
	c-26.47-8-52.94-16-79.41-24C107.02,75.6,108.41,70.77,109.8,65.93z"/>
<path class="st462" d="M410.36,65.47c-14.38,8.75-30.24,17.54-47.6,25.98c-9.45,4.59-18.68,8.75-27.64,12.53
	c26.47-8,52.94-16,79.41-24C413.14,75.15,411.75,70.31,410.36,65.47z"/>
<path class="st462" d="M171.94,23.98c6.42,9.23,13.82,18.64,22.36,27.86c4.65,5.02,9.31,9.63,13.92,13.88
	c-14.81-9.68-29.63-19.35-44.44-29.03C166.5,32.45,169.22,28.22,171.94,23.98z"/>
<path class="st462" d="M341.84,23.96c-6.42,9.23-13.82,18.64-22.36,27.86c-4.65,5.02-9.31,9.63-13.92,13.88
	c14.81-9.68,29.63-19.35,44.44-29.03C347.28,32.43,344.56,28.2,341.84,23.96z"/>
</svg>
