<?xml version="1.0" encoding="utf-8"?>
<!-- Generator: Adobe Illustrator 24.2.3, SVG Export Plug-In . SVG Version: 6.00 Build 0)  -->
<svg version="1.1" id="Слой_1" xmlns="http://www.w3.org/2000/svg" xmlns:xlink="http://www.w3.org/1999/xlink" x="0px" y="0px"
	 viewBox="0 0 515 671" style="enable-background:new 0 0 515 671;" xml:space="preserve">
<style type="text/css">
	.st0{fill:#000600;}
	.st1{clip-path:url(#SVGID_2_);fill:url(#SVGID_3_);}
	.st2{clip-path:url(#SVGID_2_);fill:#FF977E;}
	.st3{clip-path:url(#SVGID_2_);fill:#FE3000;}
	.st4{clip-path:url(#SVGID_2_);fill:#EF0B00;}
	.st5{clip-path:url(#SVGID_2_);fill:#FE7B24;}
	.st6{clip-path:url(#SVGID_2_);fill:#FE3100;}
	.st7{clip-path:url(#SVGID_2_);fill:#F1DFD8;}
	.st8{clip-path:url(#SVGID_2_);fill:#F60000;}
	.st9{clip-path:url(#SVGID_2_);fill:#BF1200;}
	.st10{clip-path:url(#SVGID_2_);fill:#FF0000;}
	.st11{clip-path:url(#SVGID_2_);fill:#AC7401;}
	.st12{clip-path:url(#SVGID_5_);fill:#EFE300;}
	.st13{clip-path:url(#SVGID_5_);fill:#FCEA68;}
	.st14{clip-path:url(#SVGID_5_);fill:#FFFEB4;}
	.st15{clip-path:url(#SVGID_5_);fill:#FFFA9F;}
	.st16{clip-path:url(#SVGID_5_);fill:#FFF68A;}
	.st17{clip-path:url(#SVGID_5_);fill:#FFFBD4;}
	.st18{opacity:0.87;clip-path:url(#SVGID_5_);fill:#FFFDE0;}
	.st19{clip-path:url(#SVGID_5_);fill:#EE9658;}
	.st20{clip-path:url(#SVGID_5_);fill:#314255;}
	.st21{clip-path:url(#SVGID_5_);fill:#FEDBB1;}
	.st22{clip-path:url(#SVGID_5_);fill:#FDBA8B;}
	.st23{clip-path:url(#SVGID_5_);}
	.st24{fill:#FFFBD4;}
	.st25{clip-path:url(#SVGID_5_);fill:#FFFDE0;}
	.st26{clip-path:url(#SVGID_7_);fill:#00A7CA;}
	.st27{clip-path:url(#SVGID_7_);fill:none;}
	.st28{clip-path:url(#SVGID_7_);fill:#4DD4F7;}
	.st29{clip-path:url(#SVGID_7_);fill:#6EDBF4;}
	.st30{clip-path:url(#SVGID_7_);fill:#D50C25;}
	.st31{clip-path:url(#SVGID_7_);fill:#B0F1F6;}
	.st32{clip-path:url(#SVGID_7_);fill:#0088B4;}
	.st33{opacity:0.81;}
	.st34{filter:url(#Adobe_OpacityMaskFilter);}
	.st35{opacity:0.74;mask:url(#SVGID_10_);}
	.st36{clip-path:url(#SVGID_12_);fill:#000202;}
	.st37{filter:url(#Adobe_OpacityMaskFilter_1_);}
	.st38{opacity:0.74;mask:url(#SVGID_15_);}
	.st39{clip-path:url(#SVGID_17_);fill:#000202;}
	.st40{opacity:0.75;fill:url(#SVGID_18_);}
	.st41{clip-path:url(#SVGID_20_);fill:#2B747C;}
	.st42{clip-path:url(#SVGID_20_);fill:#55AFB7;}
	.st43{clip-path:url(#SVGID_20_);fill:#3FA5B0;}
	.st44{clip-path:url(#SVGID_20_);fill:#6DCDCF;}
	.st45{clip-path:url(#SVGID_20_);fill:#214180;}
	.st46{fill:#0071C5;}
	.st47{clip-path:url(#SVGID_22_);fill:#83D5FB;}
	.st48{clip-path:url(#SVGID_22_);fill:#00ABF0;}
	.st49{clip-path:url(#SVGID_22_);fill:#57CAF9;}
	.st50{clip-path:url(#SVGID_22_);fill:#0071C5;}
	.st51{clip-path:url(#SVGID_22_);fill:#31C5F8;}
	.st52{clip-path:url(#SVGID_22_);fill:#3DCFF7;}
	.st53{clip-path:url(#SVGID_24_);fill:#00ABF0;}
	.st54{clip-path:url(#SVGID_24_);fill:#83D5FB;}
	.st55{clip-path:url(#SVGID_24_);fill:#31C5F8;}
	.st56{clip-path:url(#SVGID_24_);fill:#0071C5;}
	.st57{clip-path:url(#SVGID_24_);fill:#57CAF9;}
	.st58{clip-path:url(#SVGID_24_);fill:#A6A6A6;}
	.st59{clip-path:url(#SVGID_26_);fill:#D670E1;}
	.st60{clip-path:url(#SVGID_26_);fill:#E5B1EC;}
	.st61{clip-path:url(#SVGID_26_);fill:#8A9093;}
	.st62{clip-path:url(#SVGID_26_);fill:#901C9D;}
	.st63{clip-path:url(#SVGID_26_);fill:#CBCED1;}
	.st64{clip-path:url(#SVGID_26_);fill:#DDD9CF;}
	.st65{clip-path:url(#SVGID_26_);fill:#543F31;}
	.st66{clip-path:url(#SVGID_26_);fill:#C18875;}
	.st67{clip-path:url(#SVGID_26_);fill:#B1B7BA;}
	.st68{clip-path:url(#SVGID_26_);fill:#899093;}
	.st69{clip-path:url(#SVGID_26_);fill:#D39A85;}
	.st70{fill:#E5B1EC;}
	.st71{clip-path:url(#SVGID_28_);}
	.st72{fill:#E097E9;}
	.st73{fill:#D670E1;}
	.st74{clip-path:url(#SVGID_30_);fill:#FFE406;}
	.st75{opacity:0.5;clip-path:url(#SVGID_30_);}
	.st76{fill:#A0C7FF;}
	.st77{fill:#FF8900;}
	.st78{clip-path:url(#SVGID_30_);fill:#FFEA9E;}
	.st79{clip-path:url(#SVGID_30_);}
	.st80{fill:#FFCB33;}
	.st81{fill:#FFEA9E;}
	.st82{fill:#2A356B;}
	.st83{clip-path:url(#SVGID_30_);fill:#FFCB33;}
	.st84{clip-path:url(#SVGID_30_);fill:#A0C7FF;}
	.st85{clip-path:url(#SVGID_30_);fill:#FF8900;}
	.st86{clip-path:url(#SVGID_30_);fill:#2A356B;}
	.st87{fill:#1B254E;}
	.st88{clip-path:url(#SVGID_30_);fill:#C02C28;}
	.st89{clip-path:url(#SVGID_30_);fill:#FF7400;}
	.st90{fill:#FFE406;}
	.st91{clip-path:url(#SVGID_30_);fill:#FFEF6E;}
	.st92{clip-path:url(#SVGID_32_);fill:#FFE473;}
	.st93{fill:#FFFFFF;}
	.st94{fill:#AAD5C0;}
	.st95{fill:none;stroke:#FFFFFF;stroke-miterlimit:10;}
	.st96{fill:#9FC8A8;}
	.st97{fill:#93CA9E;}
	.st98{opacity:0.76;}
	.st99{fill:#C1E6CA;}
	.st100{fill:url(#SVGID_33_);}
	.st101{fill:url(#SVGID_34_);}
	.st102{fill:url(#SVGID_35_);}
	.st103{fill:#F3E3BB;}
	.st104{fill:url(#SVGID_36_);}
	.st105{fill:url(#SVGID_37_);}
	.st106{fill:url(#SVGID_38_);}
	.st107{fill:url(#SVGID_39_);}
	.st108{fill:url(#SVGID_40_);}
	.st109{fill:url(#SVGID_41_);}
	.st110{fill:#E1EBC1;}
	.st111{fill:#ECF8CF;}
	.st112{fill:url(#SVGID_42_);}
	.st113{fill:url(#SVGID_43_);}
	.st114{fill:url(#SVGID_44_);}
	.st115{fill:url(#SVGID_45_);}
	.st116{fill:url(#SVGID_46_);}
	.st117{fill:#FFE190;}
	.st118{clip-path:url(#SVGID_48_);fill:url(#SVGID_49_);}
	.st119{fill:#5B2A1E;}
	.st120{fill:#8D7673;}
	.st121{fill:url(#SVGID_50_);}
	.st122{fill:url(#SVGID_51_);}
	.st123{fill:url(#SVGID_52_);}
	.st124{fill:url(#SVGID_53_);}
	.st125{fill:#FF8A8A;}
	.st126{fill:#FF963A;}
	.st127{opacity:0.75;fill:#FFFFFF;}
	.st128{fill:#FFC181;}
	.st129{fill:none;}
	.st130{clip-path:url(#SVGID_55_);fill:#FFDFBD;}
	.st131{clip-path:url(#SVGID_55_);fill:#FF9D00;}
	.st132{clip-path:url(#SVGID_55_);fill:#FFF3DF;}
	.st133{fill:url(#SVGID_56_);}
	.st134{fill:#FFFEEA;}
	.st135{fill:#58D196;}
	.st136{fill:#A6E5C3;}
	.st137{fill:#D2F2E1;}
	.st138{opacity:0.44;fill:#FFFFFF;}
	.st139{clip-path:url(#SVGID_58_);fill:#FFF9C1;}
	.st140{opacity:0.26;fill:#FFFFFF;}
	.st141{opacity:0.62;fill:#FFFFFF;}
	.st142{opacity:0.41;fill:#FFFFFF;}
	.st143{opacity:0.69;fill:#FFFFFF;}
	.st144{opacity:0.73;fill:#FFFFFF;}
	.st145{opacity:0.16;fill:#FFFFFF;}
	.st146{opacity:0.3;fill:#FFFFFF;}
	.st147{opacity:0.23;fill:#FFFFFF;}
	.st148{opacity:0.24;fill:#FFFFFF;}
	.st149{opacity:0.43;fill:#FFFFFF;}
	.st150{opacity:0.76;fill:#FFFFFF;}
	.st151{opacity:0.08;fill:#FFFFFF;}
	.st152{opacity:0.27;fill:#FFFFFF;}
	.st153{opacity:0.37;fill:#FFFFFF;}
	.st154{opacity:0.54;fill:#FFFFFF;}
	.st155{opacity:0.66;}
	.st156{opacity:0.28;}
	.st157{fill:#55AFB7;}
	.st158{fill:#2AB1B8;}
	.st159{fill:#00ACBD;}
	.st160{fill:#F787A5;}
	.st161{fill:#8F693D;}
	.st162{fill:#FBBACC;}
	.st163{fill:#E6678D;}
	.st164{fill:#574435;}
	.st165{fill:#C6A17C;}
	.st166{fill:#641F1E;}
	.st167{fill:#F15E89;}
	.st168{fill:#E7005E;}
	.st169{fill:#DBB487;}
	.st170{fill:#FF1B6F;}
	.st171{fill:#DCB487;}
	.st172{fill:#F07699;}
	.st173{fill:#F8F8F6;}
	.st174{fill:#F5C1D9;}
	.st175{fill:#E1B7B2;}
	.st176{fill:#FFB9C3;}
	.st177{fill:#FFC5D6;}
	.st178{fill:#D72264;}
	.st179{fill:#F7F7F7;}
	.st180{fill:#F2F2F2;}
	.st181{fill:#FFFBF0;}
	.st182{fill:#FFBFCF;}
	.st183{fill:#FF6794;}
	.st184{fill:#FFC2C1;}
	.st185{fill:#FFCCD5;}
	.st186{fill:#FF6B81;}
	.st187{fill:#B19B8C;}
	.st188{fill:#FFE2EA;}
	.st189{fill:#EFEFEF;}
	.st190{fill:#FF9DAE;}
	.st191{fill:#A0C2D9;}
	.st192{fill:#583B34;}
	.st193{fill:#AFCDE2;}
	.st194{fill:#F9F9F8;}
	.st195{fill:#DECDC5;}
	.st196{fill:#D7926B;}
	.st197{fill:#FFE9F2;}
	.st198{fill:#FFDBE5;}
	.st199{fill:#F2CCC1;}
	.st200{fill:#DF4E50;}
	.st201{fill:#FFFFFF;stroke:#FFFFFF;stroke-width:0.25;stroke-miterlimit:10;}
	.st202{fill:#00C377;}
	.st203{fill:#85E2AC;}
	.st204{fill:#00B45A;}
	.st205{fill:#7FD7A7;}
	.st206{fill:#EFB93A;}
	.st207{fill:#B69C65;}
	.st208{fill:#95CF81;}
	.st209{fill:#3C3724;}
	.st210{fill:#D3BB9F;}
	.st211{fill:#998074;}
	.st212{fill:#587147;}
	.st213{fill:#E4D3BB;}
	.st214{fill:#5CC386;}
	.st215{clip-path:url(#SVGID_60_);fill:#A6E5C3;}
	.st216{clip-path:url(#SVGID_60_);fill:#FFFFFF;}
	.st217{clip-path:url(#SVGID_60_);fill:#58D196;}
	.st218{fill:#FFEF6E;}
	.st219{fill:#FFE200;}
	.st220{clip-path:url(#SVGID_62_);fill:#FDA157;}
	.st221{clip-path:url(#SVGID_62_);fill-rule:evenodd;clip-rule:evenodd;fill:#FF8429;}
	.st222{clip-path:url(#SVGID_62_);fill:#F35000;}
	.st223{clip-path:url(#SVGID_62_);fill:#F6B646;}
	.st224{fill:#F35000;}
	.st225{fill:#FF8429;}
	.st226{fill:#FFA933;}
	.st227{fill:#E26D00;}
	.st228{fill:#EC6406;}
	.st229{fill:#FF9900;}
	.st230{fill:#130077;}
	.st231{fill:#FFB58D;}
	.st232{opacity:0.3;}
	.st233{fill:#FF7300;}
	.st234{fill:#6E0000;}
	.st235{fill-rule:evenodd;clip-rule:evenodd;fill:#FF9900;}
	.st236{fill-rule:evenodd;clip-rule:evenodd;fill:url(#SVGID_63_);}
	.st237{opacity:0.3;fill-rule:evenodd;clip-rule:evenodd;fill:#A1002C;}
	.st238{fill-rule:evenodd;clip-rule:evenodd;fill:url(#SVGID_64_);}
	.st239{fill-rule:evenodd;clip-rule:evenodd;fill:url(#SVGID_65_);}
	.st240{opacity:0.5;fill-rule:evenodd;clip-rule:evenodd;fill:url(#SVGID_66_);}
	.st241{fill-rule:evenodd;clip-rule:evenodd;fill:#FFC182;}
	.st242{fill-rule:evenodd;clip-rule:evenodd;fill:url(#SVGID_67_);}
	.st243{fill-rule:evenodd;clip-rule:evenodd;fill:url(#SVGID_68_);}
	.st244{fill-rule:evenodd;clip-rule:evenodd;fill:url(#SVGID_69_);}
	.st245{opacity:0.5;fill-rule:evenodd;clip-rule:evenodd;fill:url(#SVGID_70_);}
	.st246{fill-rule:evenodd;clip-rule:evenodd;fill:#FDA157;}
	.st247{opacity:0.5;fill-rule:evenodd;clip-rule:evenodd;fill:#FDA157;}
	.st248{fill-rule:evenodd;clip-rule:evenodd;fill:#FF8429;}
	.st249{fill-rule:evenodd;clip-rule:evenodd;fill:#FFA933;}
	.st250{opacity:0.62;fill-rule:evenodd;clip-rule:evenodd;fill:#C5002A;}
	.st251{opacity:0.5;fill-rule:evenodd;clip-rule:evenodd;fill:#FF8429;}
	.st252{opacity:0.5;fill-rule:evenodd;clip-rule:evenodd;fill:#8C5472;}
	.st253{opacity:0.3;fill-rule:evenodd;clip-rule:evenodd;fill:url(#SVGID_71_);}
	.st254{opacity:0.5;fill-rule:evenodd;clip-rule:evenodd;fill:url(#SVGID_72_);}
	.st255{opacity:0.3;fill-rule:evenodd;clip-rule:evenodd;fill:url(#SVGID_73_);}
	.st256{opacity:0.3;fill-rule:evenodd;clip-rule:evenodd;fill:url(#SVGID_74_);}
	.st257{clip-path:url(#SVGID_76_);}
	.st258{clip-path:url(#SVGID_76_);fill:#FF8429;}
	.st259{fill:#FDA157;}
	.st260{clip-path:url(#SVGID_78_);}
	.st261{fill:#F58800;}
	.st262{clip-path:url(#SVGID_80_);}
	.st263{fill:#F6B646;}
	.st264{clip-path:url(#SVGID_82_);}
	.st265{clip-path:url(#SVGID_82_);fill:#FF8429;}
	.st266{fill-rule:evenodd;clip-rule:evenodd;fill:url(#SVGID_83_);}
	.st267{fill-rule:evenodd;clip-rule:evenodd;fill:url(#SVGID_84_);}
	.st268{fill-rule:evenodd;clip-rule:evenodd;fill:url(#SVGID_85_);}
	.st269{opacity:0.5;fill-rule:evenodd;clip-rule:evenodd;fill:url(#SVGID_86_);}
	.st270{fill-rule:evenodd;clip-rule:evenodd;fill:url(#SVGID_87_);}
	.st271{fill-rule:evenodd;clip-rule:evenodd;fill:url(#SVGID_88_);}
	.st272{fill-rule:evenodd;clip-rule:evenodd;fill:url(#SVGID_89_);}
	.st273{opacity:0.5;fill-rule:evenodd;clip-rule:evenodd;fill:url(#SVGID_90_);}
	.st274{opacity:0.3;fill-rule:evenodd;clip-rule:evenodd;fill:url(#SVGID_91_);}
	.st275{opacity:0.5;fill-rule:evenodd;clip-rule:evenodd;fill:url(#SVGID_92_);}
	.st276{opacity:0.3;fill-rule:evenodd;clip-rule:evenodd;fill:url(#SVGID_93_);}
	.st277{opacity:0.3;fill-rule:evenodd;clip-rule:evenodd;fill:url(#SVGID_94_);}
	.st278{opacity:0.88;fill:#FFFEF3;}
	.st279{fill:#FFCD66;}
	.st280{fill:#ADA9AA;}
	.st281{fill:#FFE473;}
	.st282{fill:#FFE585;}
	.st283{fill:#F4C500;}
	.st284{fill:#FFE894;}
	.st285{clip-path:url(#SVGID_96_);fill:#FFCB33;}
	.st286{clip-path:url(#SVGID_96_);fill:#FFE406;}
	.st287{clip-path:url(#SVGID_98_);fill:#901C9D;}
	.st288{opacity:0.5;clip-path:url(#SVGID_98_);}
	.st289{fill:#901C9D;}
	.st290{clip-path:url(#SVGID_98_);}
	.st291{clip-path:url(#SVGID_100_);fill:#E097E9;}
	.st292{fill:#CC37D8;}
	.st293{opacity:0.5;fill:#FFFFFF;}
	.st294{opacity:0.5;fill:#FFFFFF;stroke:#FFFFFF;stroke-miterlimit:10;}
	.st295{opacity:0.68;fill:#FFFFFF;}
	.st296{fill:#F0C6F4;}
	.st297{fill:#D7A0DF;}
	.st298{fill:#A87B41;}
	.st299{fill:#8A9093;}
	.st300{fill:#CBCED1;}
	.st301{fill:#DDD9CF;}
	.st302{fill:#543F31;}
	.st303{fill:#C18875;}
	.st304{fill:#B1B7BA;}
	.st305{fill:#899093;}
	.st306{fill:#D39A85;}
	.st307{fill:#3DCFF7;}
	.st308{fill:#57CAF9;}
	.st309{fill:#F92405;}
	.st310{fill:#B30000;}
	.st311{fill:#FA3C20;}
	.st312{fill:#E09E80;}
	.st313{fill:#950000;}
	.st314{fill:#F50000;}
	.st315{clip-path:url(#SVGID_102_);fill:#F787A5;}
	.st316{clip-path:url(#SVGID_102_);fill:#FFE9F2;}
	.st317{clip-path:url(#SVGID_102_);fill:#D3CFB3;}
	.st318{clip-path:url(#SVGID_102_);fill:#FFDBE5;}
	.st319{clip-path:url(#SVGID_102_);}
	.st320{clip-path:url(#SVGID_102_);fill:#FFC5D6;}
	.st321{fill:#F88EB2;}
	.st322{fill:#BAA292;}
	.st323{fill:#63443C;}
	.st324{fill:#CDA99E;}
	.st325{fill:#9FC1D8;}
	.st326{fill:#997972;}
	.st327{fill:#77573F;}
	.st328{opacity:0.45;fill:#FFFFFF;}
	.st329{opacity:0.8;fill:#FFFFFF;}
	.st330{opacity:0.79;fill:#FFFFFF;}
	.st331{opacity:0.46;}
	.st332{opacity:0.86;fill:#FFFFFF;}
	.st333{fill-rule:evenodd;clip-rule:evenodd;fill:#FA3C20;}
	.st334{fill-rule:evenodd;clip-rule:evenodd;fill:#CE0707;}
	.st335{fill-rule:evenodd;clip-rule:evenodd;fill:#F92405;}
	.st336{fill-rule:evenodd;clip-rule:evenodd;fill:#F50000;}
	.st337{fill-rule:evenodd;clip-rule:evenodd;fill:#F75F53;}
	.st338{fill:#F75F53;}
	.st339{clip-path:url(#SVGID_104_);fill:#574435;}
	.st340{clip-path:url(#SVGID_104_);fill:#C6A17C;}
	.st341{clip-path:url(#SVGID_104_);fill:#8F693D;}
	.st342{clip-path:url(#SVGID_104_);fill:#CE0707;}
	.st343{clip-path:url(#SVGID_104_);fill:#FA3C20;}
	.st344{clip-path:url(#SVGID_104_);fill:#950000;}
	.st345{clip-path:url(#SVGID_104_);fill:#F75F53;}
	.st346{clip-path:url(#SVGID_104_);fill:#131212;}
	.st347{clip-path:url(#SVGID_104_);fill:#B30000;}
	.st348{clip-path:url(#SVGID_104_);fill:#412A1A;}
	.st349{clip-path:url(#SVGID_104_);fill:#DCC4AD;}
	.st350{clip-path:url(#SVGID_104_);fill:#BD835C;}
	.st351{fill:#CE0707;}
	.st352{fill:#A99BB6;}
	.st353{fill:#381A12;}
	.st354{fill:#E9C9B6;}
	.st355{fill:#AA9CB9;}
	.st356{fill:#F6F4F3;}
	.st357{fill:#0A345E;}
	.st358{fill:#412A1A;}
	.st359{fill:#131212;}
	.st360{fill:#DCC4AD;}
	.st361{fill:#BD835C;}
	.st362{fill:#83D5FB;}
	.st363{fill:#00ABF0;}
	.st364{fill:#31C5F8;}
	.st365{opacity:0.34;fill:#FFFFFF;}
	.st366{opacity:0.25;fill:#FFFFFF;}
	.st367{opacity:0.6;fill:#FFFFFF;}
	.st368{fill:#B0AEAB;}
	.st369{fill:#0D0707;}
	.st370{fill:#A6A6A6;}
	.st371{fill:#0068A6;}
	.st372{opacity:0.6;}
	.st373{opacity:0.17;fill:#FFFFFF;}
	.st374{opacity:0.39;fill:#FFFFFF;}
	.st375{opacity:0.71;fill:#FFFFFF;}
	.st376{fill:url(#SVGID_105_);}
	.st377{clip-path:url(#SVGID_107_);fill:#FFDFBD;}
	.st378{clip-path:url(#SVGID_107_);fill:#FF9D00;}
	.st379{clip-path:url(#SVGID_107_);fill:#FFF3DF;}
	.st380{clip-path:url(#SVGID_109_);fill:#FFBAE4;}
	.st381{opacity:0.8;clip-path:url(#SVGID_109_);fill:#FE82C8;}
	.st382{clip-path:url(#SVGID_109_);fill:#FE82C8;}
	.st383{opacity:0.79;clip-path:url(#SVGID_109_);fill:#FFBAE4;}
	.st384{fill:url(#SVGID_110_);}
	.st385{clip-path:url(#SVGID_112_);fill:#FFF9C1;}
	.st386{fill:url(#SVGID_113_);}
	.st387{fill:url(#SVGID_114_);}
	.st388{opacity:0.86;fill:#FFCCD5;}
	.st389{fill:url(#SVGID_115_);}
	.st390{opacity:0.4;}
	.st391{clip-path:url(#SVGID_117_);}
	.st392{clip-path:url(#SVGID_117_);fill:none;}
	.st393{fill:#6DCDCF;}
	.st394{fill:#2B747C;}
	.st395{fill:#1E1E1E;}
	.st396{fill:#272727;}
	.st397{fill:#3FA5B0;}
	.st398{fill:#1F1F1F;}
	.st399{fill:#242424;}
	.st400{fill-rule:evenodd;clip-rule:evenodd;fill:#2B747C;}
	.st401{fill-rule:evenodd;clip-rule:evenodd;fill:#6DCDCF;}
	.st402{fill-rule:evenodd;clip-rule:evenodd;fill:#3FA5B0;}
	.st403{clip-path:url(#SVGID_119_);fill:#3FA5B0;}
	.st404{clip-path:url(#SVGID_119_);fill:#2AB1B8;}
	.st405{clip-path:url(#SVGID_119_);fill:#55AFB7;}
	.st406{clip-path:url(#SVGID_119_);fill:#00ACBD;}
	.st407{clip-path:url(#SVGID_119_);fill:#616161;}
	.st408{clip-path:url(#SVGID_119_);fill:#6DCDCF;}
	.st409{clip-path:url(#SVGID_119_);fill:#2B747C;}
	.st410{fill:url(#SVGID_120_);}
	.st411{fill:url(#SVGID_121_);}
	.st412{fill:url(#SVGID_122_);}
	.st413{fill:url(#SVGID_123_);}
	.st414{fill:url(#SVGID_124_);}
	.st415{fill:url(#SVGID_125_);}
	.st416{fill:url(#SVGID_126_);}
	.st417{fill:url(#SVGID_127_);}
	.st418{fill:url(#SVGID_128_);}
	.st419{fill:url(#SVGID_129_);}
	.st420{fill:url(#SVGID_130_);}
	.st421{fill:url(#SVGID_131_);}
	.st422{fill:url(#SVGID_132_);}
	.st423{fill:url(#SVGID_133_);}
	.st424{clip-path:url(#SVGID_135_);fill:url(#SVGID_136_);}
	.st425{fill:url(#SVGID_137_);}
	.st426{fill:url(#SVGID_138_);}
	.st427{fill:url(#SVGID_139_);}
	.st428{fill:url(#SVGID_140_);}
	.st429{clip-path:url(#SVGID_142_);fill:url(#SVGID_143_);}
	.st430{clip-path:url(#SVGID_142_);}
	.st431{opacity:0.75;clip-path:url(#SVGID_142_);fill:url(#SVGID_146_);}
	.st432{fill:none;stroke:#FFFFFF;stroke-width:2;stroke-miterlimit:10;}
	.st433{fill:#EFC2A7;}
	.st434{fill:none;stroke:#FFFFFF;stroke-width:0.75;stroke-miterlimit:10;}
	.st435{fill:none;stroke:#FFFFFF;stroke-width:3;stroke-miterlimit:10;}
	.st436{fill:url(#SVGID_153_);}
	.st437{fill:url(#SVGID_154_);}
	.st438{filter:url(#Adobe_OpacityMaskFilter_2_);}
	.st439{opacity:0.74;mask:url(#SVGID_157_);}
	.st440{clip-path:url(#SVGID_159_);fill:#000202;}
	.st441{opacity:0.75;fill:url(#SVGID_160_);}
	.st442{clip-path:url(#SVGID_162_);}
	.st443{fill:#1A1A1A;}
	.st444{fill:url(#SVGID_163_);}
	.st445{fill:url(#SVGID_164_);}
	.st446{clip-path:url(#SVGID_166_);}
	.st447{fill:url(#SVGID_177_);}
	.st448{filter:url(#Adobe_OpacityMaskFilter_3_);}
	.st449{opacity:0.74;mask:url(#SVGID_180_);}
	.st450{clip-path:url(#SVGID_182_);fill:#000202;}
	.st451{opacity:0.75;fill:url(#SVGID_183_);}
	.st452{fill:none;stroke:#FFFFFF;stroke-width:4;stroke-miterlimit:10;}
	.st453{fill:#FFFFFF;stroke:#FFFFFF;stroke-miterlimit:10;}
	.st454{clip-path:url(#SVGID_193_);}
	.st455{opacity:0.37;clip-path:url(#SVGID_193_);}
	.st456{opacity:0.53;clip-path:url(#SVGID_193_);}
	.st457{fill:#352417;}
	.st458{fill:#FEC3B5;}
	.st459{fill:#FFE4DA;}
	.st460{fill:#9E7458;}
	.st461{fill:#B0805C;}
	.st462{fill:#EFE300;}
	.st463{fill:#FCEA68;}
	.st464{fill:#FFFEB4;}
	.st465{fill:#FFFA9F;}
	.st466{fill:#FFF68A;}
	.st467{opacity:0.87;fill:#FFFDE0;}
	.st468{fill:#EE9658;}
	.st469{fill:#314255;}
	.st470{fill:#FEDBB1;}
	.st471{fill:#FDBA8B;}
	.st472{fill:#FFFDE0;}
	.st473{opacity:0.95;fill:#F9B4E7;}
	.st474{fill:#FE82C8;}
	.st475{opacity:0.63;fill:#F94BAB;}
	.st476{opacity:0.37;fill:#F94BAB;}
	.st477{fill:#FFDFBD;}
	.st478{fill:#FFF3DF;}
	.st479{fill:#58595B;}
	.st480{fill:#FCD1A9;}
	.st481{fill:#FF5700;}
	.st482{fill:#FFF6E2;}
	.st483{opacity:0.37;fill:#FFDFBD;}
	.st484{opacity:0.53;}
	.st485{fill:#8B5E50;}
	.st486{fill:#29CE61;}
	.st487{fill:#02B769;}
	.st488{fill:#E3CCAC;}
	.st489{fill:#C18C65;}
	.st490{fill:#B49B83;}
	.st491{fill:#C6AC94;}
	.st492{fill:#F0EEE6;}
	.st493{fill:#DDD7CF;}
	.st494{fill:#FF977E;}
	.st495{fill:#FE3000;}
	.st496{fill:#EF0B00;}
	.st497{fill:#FE7B24;}
	.st498{fill:#FE3100;}
	.st499{fill:#F1DFD8;}
	.st500{fill:#F60000;}
	.st501{fill:#BF1200;}
	.st502{fill:#FF0000;}
	.st503{fill:#AC7401;}
	.st504{fill:#656768;}
	.st505{fill:#4DD4F7;}
	.st506{fill:#00A7CA;}
	.st507{fill:#6EDBF4;}
	.st508{fill:#D50C25;}
	.st509{fill:#B0F1F6;}
	.st510{fill:#0088B4;}
	.st511{fill:#005EB1;}
	.st512{fill:none;stroke:#259ADD;stroke-miterlimit:10;}
	.st513{fill:#259ADD;}
	.st514{opacity:0.4;fill:#00336C;}
	.st515{fill:#0089D9;}
	.st516{fill:none;stroke:#005EB1;stroke-width:0.8397;stroke-linecap:round;stroke-linejoin:round;stroke-miterlimit:10;}
	.st517{fill:none;stroke:#83D5FB;stroke-miterlimit:10;}
</style>
<g>
	<path class="st186" d="M366.58,565.17c2.92,18.78,7.09,31.66,10.17,51.49c2.8,18.06,6.5,36.01,7.3,54.34c-35.59,0-71.18,0-106.78,0
		c-2.66-9.13-25.62-87.74-28.85-92.97c-1.52-2.45-3.42-2.89-3.42-2.89c-1.23-0.3-2.59,0.03-4.23,0.91
		c-6.74,3.61-9.7,9.73-11.02,16.77c-2.38,12.63-4.69,25.29-6.69,37.99c-2.05,13.02-5.11,25.88-6.14,39.06
		c0.06,0.38,0.12,0.76,0.18,1.14c-37.7,0-75.4,0-113.09,0c6.77-31.27,13.04-63.31,18.72-96.12c1.07-6.19,2.11-12.36,3.13-18.51
		c2.7-9.6,4.77-19.43,10.05-28.12c4.57-7.53,7.19-15.82,9.51-24.24c7.02-25.48,11.86-51.63,23.35-75.73
		c2.55-2.99,1.92-8.16,6.63-9.67c2.41-2.2,7.46-1.07,7.68-6.06c1.04-0.67,0.96-1.66,0.78-2.69c0-1.02,0.01-2.04,0.01-3.06
		c0.05-0.47,0.18-0.96,0.14-1.42c-0.34-3.91,0.61-5.07,4.21-2.38c5.71,4.27,11.61,8.29,17.43,12.41c5.23,2.42,5.89,2.1,9.57-4.67
		c3.2-0.09,6.4-0.17,9.59-0.26c12.99,0.03,25.98,0.05,38.96,0.08c11.28,0.23,22.57,0.54,33.76,2.06c9.45,1.28,18.21-1.29,26.92-4.36
		c-2.87,5.02-7.81,8.88-8.45,15.14c-1.82,2.89-0.95,5.77,0.83,8.04c1.2,1.54,4.02,1.29,5.43,0.39c2.55-1.63,3.41-4.76,4.46-7.55
		c3.04-2.79,3.51-7.7,7.78-9.47c5.25,22.75,9.97,45.65,15.96,68.2c2.96,11.13,0.77,22.88,5.27,33.66c0.49,1.17-0.02,2.89-0.44,4.25
		c-0.72,2.36-0.14,3.99,1.97,5.3c1.52,0.94,2.63,2.05,3.37,3.34c1.41,2.45,1.24,5.28,1.13,6.37
		C360.74,545.76,365.06,555.41,366.58,565.17z"/>
	<path class="st458" d="M366.58,565.17c-0.27-1.04-0.54-2.07-0.81-3.11c2.21-0.32,1.72-2.09,1.65-3.41
		c-0.29-4.98-0.5-9.98-1.13-14.92c-2.57-20.07-7.61-39.7-10.92-59.63c-2-12.04-2.86-24.26-4.23-36.4c3.5-2.21,3.63-6.32,4.53-9.56
		c3.77-13.5,5.42-27.35,5.14-41.42c-0.21-10.61,5.88-18.46,15.9-22.25c5.54-2.09,11.12-1.33,16.7-1.6c1.09-0.05,2.42,0.27,2.94-1.08
		c0.49-1.27-0.55-2.05-1.26-2.91c-1.67-2.05-4.58-3.32-4.22-6.65c3.95-3.45,0.07-4.38-1.91-5.93c-2.51-7.29-6.7-13.56-11.71-19.33
		c-0.33-2.34-2.02-2.28-3.63-1.85c-2.32,0.61-4.55,1.52-6.84,2.24c-5.71,1.8-10.27,5.75-15.63,8.2
		c3.38-15.54,6.62-31.11,10.18-46.61c4.87-21.17,10.82-42.06,17-62.89c1.24-0.11,2.48-0.21,3.89-0.33
		c-3.19-1.85-3.19-1.85-3.98-4.61c0.99-1.04,1.66-2.15,2.12-3.62c2.34-7.38,3.89-14.93,4.55-22.59
		c1.17-13.47-1.08-25.71-14.02-33.37c-1.27-0.75-2.3-1.78-2.42-3.41c4.56,0.05,8,2.72,10.96,5.56c6.4,6.14,13.73,10.54,21.8,14.06
		c13.04,5.68,23.28,15.57,34.52,23.91c17.22,12.78,34.26,25.81,51.17,39c8.27,6.45,15.96,13.59,20.87,23.15
		c0.88,1.72,1.83,3.45,1.6,5.5c-1.47,1.99-4.21,4.03-4.13,5.95c0.16,3.95-2.07,4.42-4.71,5.1l0.01,0.01
		c0.02-0.31,0.03-0.63,0.04-0.94c0.06-0.15,0.11-0.3,0.17-0.44c-0.08,0.12-0.17,0.24-0.25,0.36c-1.07,0.02-2.16-0.05-2.9,0.96
		c-0.33,0.34-0.65,0.68-0.98,1.02l0.04-0.03c-5.36,0.88-10.73,1.73-16.09,2.66c-4.6,0.8-9.35-0.4-13.88,1.1
		c-1.19,0.39-2.82,0.56-2.59,2.27c0.21,1.61,1.76,1.62,3.05,1.69c4.66,0.28,9.29,0.02,13.9-0.71c-2.79,5.79-3.92,12.08-5.64,18.2
		c-1.98,7.04-1.53,7.8,5.72,7.86c-0.01,0.94-0.02,1.88-0.03,2.82c-6.61,6.44-13.57,12.46-21.16,17.72c-2.11-1.93-4.55-1.3-6.83-0.64
		c-7.85,2.26-15.84,4.14-23.37,7.42c-7.93,3.45-15.84,6.99-22.68,12.4c-2.11,1.67-4.57,3.65-3.34,6.86
		c1.19,3.09,4.03,4.17,7.11,3.84c2.76-0.29,4.93,0.85,7.19,1.99c1.97,4.75,1.19,9.86,1.65,14.77c2.07,21.83,3.5,43.72,5.25,65.58
		c1.79,22.34,3.75,44.66,5.51,67c0.72,9.17,1.07,18.37,1.71,27.54c0.17,2.5-1.73,2.88-3.19,3.67c-11.9,6.37-24.76,9.23-38.12,9.8
		C382.76,565.46,374.67,565.17,366.58,565.17z M421.97,300.27c0.11,0.3,0.18,0.84,0.33,0.86c5.48,0.84,10.08-1.57,13.99-4.78
		c2.28-1.87-0.52-1.87-1.75-2.11c-0.69-3.45-10.06-9.38-13.1-8.19c-0.83,0.33-1.83,1.07-2.1,1.84c-1.66,4.76-5.34,8.97-4.12,14.54
		c-7.61,5.35-12.57,14.05-22.11,16.96c6.82,0.48,16.46-6.29,24.88-16.91C419.32,301.75,420.65,301.01,421.97,300.27z M463.65,236.95
		c-0.12-0.07-0.24-0.14-0.36-0.21C463.41,236.81,463.53,236.87,463.65,236.95c0.51,8.82-3.05,16.32-8.14,23.08
		c-4.14,5.51-8.87,10.58-13.35,15.83c-1.03,1.21-2.45,2.21-1,4.09c1.48,1.91,2.95,1.18,4.67,0.42c4.7-2.08,7.19-6.44,10.11-10.16
		c6.49-8.29,11.68-17.26,11.64-28.36C467.58,238.91,466.67,237.21,463.65,236.95z M453.85,282.09c9.18-1.68,18.57-2.78,25.98-9.39
		c4.07-3.62,6.33-8.03,6.12-13.55c-0.05-1.21,0.51-2.91-1.08-3.37c-1.87-0.55-2.6,1.42-3,2.53c-1.1,3.05-3.49,4.94-5.5,7.21
		C470.08,272.62,462.46,277.82,453.85,282.09z M446.12,239.21c0-4.62,0.04-7.85-0.02-11.08c-0.03-1.44-0.75-2.61-2.29-2.62
		c-1.51-0.01-2.97,0.61-3.27,2.3c-0.25,1.41-0.48,3.03-0.05,4.33c2.02,6.09,0.02,11.43-2.84,16.59c-1.03,1.86-2,3.76,0.11,5.08
		c2.14,1.34,3.97,0.56,5.78-1.58C447.27,247.81,445.85,242.72,446.12,239.21z M480.53,282.36c-5.91-0.52-11.73-1.47-17.51,0.29
		c-1.88,0.57-3.55,1.5-4.85,3.02c-0.86,1-1.65,2.06-1.05,3.47c0.56,1.3,1.83,1.13,2.93,1.15
		C467.89,290.39,474.37,286.92,480.53,282.36z M502.51,279.63c1.24-0.41,3.21,0.79,3.32-1.58c0.07-1.43-5.21-7.13-6.3-6.81
		c-2.52,0.74-2.56,3.34-2.61,5.11C496.82,280.31,500.27,279.18,502.51,279.63z"/>
	<path class="st186" d="M137.6,196.05c0.44-8.94-2.52-16.74-7.61-23.97c-5.06-7.19-5.37-14.83-0.71-22.29
		c5.87-9.4,7.36-19.44,5.75-30.23c-1.39-9.32,0.97-17.69,7.49-24.62c10.14-10.76,12.9-23.17,10.05-37.61
		c-3.17-16.07,4.67-29.27,21.28-37.22c4.44-2.13,8.1-3.86,9.38-9.64c1.26-5.65,6.75-8.78,12.36-8.34
		c18.94,1.49,37.14,6.35,54.31,14.52c5.15,2.45,7.46,7.89,9.87,12.85c8.18,16.85,16.19,33.77,24.53,50.54
		c15.54,31.24,36.33,58.33,63.9,79.98c1.11,0.87,2.51,1.53,2.92,3.1c-13.95-0.36-27.54,1.79-40.86,5.84c-3.85-0.06-7,0.98-9.56,4.29
		c-1.8,2.34-4.53,3.98-6.94,5.82c-2.76,2.11-6.2,3.37-8.12,6.53c-2.76,2.59-4.12,5.79-3.58,10.92c-2.91-4.47-2.82-7.84-1.8-11.36
		c1.07-3.69,2.6-7.28,2.49-11.23c-0.36-4.06-1.39-8.09-6.3-7.93c-4.2,0.14-2.96,4.09-3.23,6.77c-0.2,1.32-0.39,2.64-0.59,3.96
		c-0.04,0.33-0.08,0.66-0.12,0.99c-1.95,8.89-8.03,14.9-14.49,20.59c-5.49,4.84-7.52,10.6-5.53,17.78
		c1.6,5.77,0.49,11.14-2.88,16.12c-2.26,3.33-4.32,6.78-6.47,10.18c-2.04,1.89-1.51,5.5-4.46,7.03c-1.58-4.2,0.62-7.79,0.86-11.54
		c3.36-5.55,1.84-11.27,0.35-16.86c-2.43-9.14-2.2-18.17,2.38-26.38c5.69-10.2,3.8-19.63-1.12-29.26c-0.44,0.29-0.87,0.51-1.21,0.83
		c-7.94,7.44-8.65,16.6-5.9,26.36c2.27,8.08,0.99,15.26-4.11,21.91c-2.26,2.94-4.07,6.19-5.03,9.84c-1.6,4.63-0.17,9.35-0.44,14.08
		c-2.55-7.81-8.23-14.66-6.77-23.58c4.88-7.89,5.27-15.76,0.7-24.07c-3.91-7.09-8.37-14.13-7.62-22.83
		c1.16-5.76,5.12-9.66,9.25-13.26c7.72-6.72,9.82-14.43,5.16-23.73c-1.14-7.93,0.14-15.36,4.5-22.17c0.17-0.78-0.06-1.32-0.89-1.53
		l0.18,0.01c9.78-7.36,11.3-14.27,5.35-24.63c-1.93-3.36-3.83-6.76-6.07-9.91c-6.01-8.45-9.52-17.55-8.36-28.12
		c0.33-2.96-0.21-5.86-1.96-8.33c-4.66-6.58-9.28-13.2-15.04-18.91c-2.41-2.43-5.19-3.42-8.69-2.92
		c-15.17,2.18-31.4,22.29-30.31,37.71c7.43-3.1,8.55-2.85,8.99,2.07c-9.89,1.82-10.97,3.01-10.13,13.01
		c0.43,5.11,1.57,10.17,0.93,15.34c-1.06,3.99-0.76,7.97-0.02,11.97c3,16.35,11.67,26.21,25.6,29.08c0,0,0.01,0.03,0.02,0.03
		c-0.44,1.37-0.37,1.44,1.55,1.69l-0.06,0.01c1.21,1.02,2.41,2.05,3.62,3.07c0.31,0.28,0.62,0.56,0.93,0.85
		c0.43,0.46,0.85,0.92,1.28,1.39c-0.09,0.2-0.05,0.36,0.12,0.49c0.29,0.35,0.58,0.7,0.88,1.06l-0.08-0.01
		c2.56,5.02,4.43,10.26,4.92,15.92c0.6,6.9,2.64,13.45,4.78,19.98c0.51,2.36,0.9,4.75,1.56,7.07c4.05,14.29,7.27,28.54,1.19,43.15
		c-1.02,2.45-1.39,5.33,0.24,7.92c2.4,8.54,4.45,17.03-3.16,24.26c-5.3,3.97-7.24,9.6-6.37,15.77c1.63,11.49-4.37,20.94-7.27,31.94
		c-2.12-4.31-4.71-7.4-7.3-10.47c-5.3-6.28-7.3-13.52-6.36-21.62c0.65-5.6,1.49-11.19,2.04-16.8c0.62-6.3,0.94-12.72-2.69-18.3
		c-2.49-3.83-5.69-7.19-7.33-11.9c-8.14,7.49-12.42,15.86-10.9,26.58c0.1,5.32-0.84,10.49-2.4,15.56c-1.64,1.73-2.07,4.34-4.78,6.26
		c3.07-10.37-0.03-18.81-5.75-26.68c-4.28-5.88-4.35-12.25-1.64-18.78c0.98-2.37,2.14-4.66,3.21-6.99c0.1-0.33,0.21-0.66,0.32-0.99
		c-0.26,0.17-0.53,0.34-0.79,0.51c-6.33,4.52-12.88,8.78-18,15.74c-0.9-6.09,1.31-10.71,3.58-15.26c2.39-4.8,4.62-9.63,4.55-15.11
		C139.19,198.55,140.14,196.48,137.6,196.05z"/>
	<path class="st458" d="M160.92,245.66c-1.52-10.72,2.76-19.09,10.9-26.58c1.64,4.71,4.84,8.07,7.33,11.9
		c3.63,5.58,3.31,12,2.69,18.3c-0.55,5.61-1.39,11.2-2.04,16.8c-0.95,8.1,1.06,15.34,6.36,21.62c2.59,3.07,5.18,6.16,7.3,10.47
		c2.91-11,8.9-20.45,7.27-31.94c-0.87-6.18,1.07-11.8,6.37-15.77c1.99,0.87,0.8,2.59,1.05,3.93c-0.27,0.74-0.66,1.46-0.79,2.23
		c-3.28,19.66-7.54,39.13-12.12,58.51c-4.96,20.98-6.89,42.16-6.15,63.64c-0.03,0.96-0.06,1.92-0.09,2.87
		c-0.34,0.64-0.68,1.27-1.01,1.91c-3.79-1.2-6.72-3.93-7.84-7.34c-3.03-9.23-9.31-15.24-17.43-19.79
		c-2.81-4.46-7.53-6.79-11.35-10.12c-1.57-1.37-2.96-3.36-6.12-2.83c3.94,3.77,7.32,7.44,11.18,10.52c1.96,1.56,2.58,3.1,2.45,5.31
		c-0.94,2.29-1.89,4.57-2.83,6.86c-0.35,0.89-0.48,2-1.09,2.63c-3.16,3.25-3.39,6.22,0.42,9.14c0.43,0.33,0.48,1.15,0.71,1.74
		c-0.8,0.1-1.79-0.08-2.36,0.33c-6.69,4.84-15.28,16.22-11.56,26.62c1.82,5.08,1.23,9.56-1.55,14.28c-2.83,4.8-5.32,9.85-6.7,15.41
		c-2.98,12.03-5.49,24.17-6.92,36.46c-0.66,5.66-2.52,11.45-0.26,17.22c0.28,0.72,0.15,1.75,1.22,1.8c0.93,0.04,1.34-0.72,1.61-1.52
		c1.7-4.97,3.45-9.93,5.07-14.92c4.37-13.43,8.25-26.97,16.82-38.68c5.12-6.99,11.38-13.11,15.37-21.03
		c2.13-4.22,3.19-9.07,6.54-12.66c2.24,4.29,0.45,8.55-0.28,12.74c-0.4,2.3,0.2,2.96,2.28,2.89c-4.7,1.51-4.08,6.68-6.63,9.67
		c-1.19-1.09-1.74,0.08-2.24,0.75c-10.27,14.01-18.24,29.24-24.09,45.58c-3.25,9.1-4.75,18.68-7.27,27.95
		c-2.48,9.14,0.64,18.87-4.16,27.77c-1.25,2.32-1.84,3.83-4.36,4.36c-8.99,1.89-17.8,4.5-26.52,7.35c-2.25,0.73-5.27,0.63-6.29,3.66
		c-3.42-2.3-3.25-5.69-2.57-9.09c4.13-20.66,8.35-41.31,12.51-61.97c4.79-23.81,9.54-47.64,14.34-71.45
		c0.28-1.41,0.82-2.77,1.24-4.15c3.72,0.91,6.19,4.03,9.62,5.45c0.91,0.38,1.88,0.62,2.77,0.02c0.7-0.46,0.58-1.32,0.03-1.61
		c-4.09-2.21-7.62-5.64-12.66-5.77c-5.23-4.58-11.88-6.48-18.02-9.21c-28.77-12.82-57.01-26.66-84.51-42.02
		c-2.54-1.42-4.86-3.15-6.94-5.22c-6.09-6.08-7.46-12.87-3.86-20.75c4.63-10.14,12.28-18.15,19.47-26.39
		C49.34,265.94,77.11,242.37,106,220c10.45-8.09,21.05-15.99,31.6-23.95c2.54,0.43,1.59,2.5,1.61,3.86
		c0.07,5.49-2.15,10.32-4.55,15.11c-2.27,4.55-4.47,9.17-3.58,15.26c5.12-6.96,11.67-11.22,18-15.74c0.15,0.17,0.31,0.33,0.48,0.49
		c-1.08,2.33-2.23,4.62-3.21,6.99c-2.71,6.53-2.64,12.9,1.64,18.78c5.72,7.87,8.82,16.31,5.75,26.68c2.72-1.92,3.14-4.53,4.78-6.26
		c0.1,1.45,0.4,2.91,0.27,4.34c-1.49,15.59-1.58,31.19,0.12,46.76c0.66,6.09,1.58,12.19,4.32,17.81c0.32-0.67,0.41-1.31,0.31-1.91
		c-1.9-10.5-2.21-20.98-1.05-31.65c0.9-8.28,2.92-16.57,2.07-24.93c-0.78-7.67-2.19-15.27-1.83-23.03
		C162.78,247.25,162.6,245.99,160.92,245.66z M93.82,297.15c5.7-0.44,9.97-4.22,14.88-6.48c4.97-2.28,9.7-5.13,15.43-5.02
		c-0.77,0.56-1.46,1.3-2.31,1.66c-15.05,6.42-28.97,14.78-42.25,24.28c-4.14,2.97-4.19,3.3,0.54,5.38
		c13.85,6.09,27.7,12.2,41.67,18.02c3.72,1.55,6.96,4.91,11.58,3.82c3.48,0.86,6.39,3.4,10.83,3.81c-3-3.46-6.95-3.23-9.91-5
		c1.55-4.84,4.74-8.38,9.06-10.84c1.98-1.13,2.49-2.21,2.14-4.59c-1.88-12.71-3.48-25.47-5.13-38.22c-0.23-1.76-0.59-3.21-2.77-3.18
		c-0.06-4.31-1.57-8.4-1.37-12.85c0.32-7.27,1.78-14.02,5.57-20.24c0.42-0.68,0.73-1.53,0.09-2.25c-0.71-0.81-1.54-0.28-2.17,0.13
		c-2.27,1.49-4.61,2.74-6.29,5.13c-5.52,7.86-8.23,17.69-16.38,23.68c-4.95,3.64-7.22,11.77-15.77,9.6c-0.4-0.1-1.21,0.93-1.65,1.57
		C97.11,289.15,94.48,292.66,93.82,297.15c-0.32,0.34-1.2,0.52-0.34,1.19C93.59,297.95,93.7,297.55,93.82,297.15z M76.36,370.95
		c1.18,1.18,1.38,1.57,1.62,1.6c16.69,1.67,33.36,2.75,50.01-0.45c2.51-0.48,5.65-1.17,5.05-3.79c-0.57-2.49-3.91-1.38-5.94-0.78
		c-8.73,2.6-17.65,3.49-26.71,3.44C92.7,370.92,85,370.95,76.36,370.95z M78.4,322.52c0.03-2.31-0.11-4.94-2.51-5.3
		c-2.48-0.37-2.51,2.57-2.89,4.24c-1.72,7.51-6.19,12.99-12.18,17.48c-0.6,0.45-1.45,1.21-1.4,1.75c0.11,1.25,1.37,1.12,2.3,1.11
		c1.6-0.02,3.27,0.35,4.74-0.55C73.53,336.94,76.98,330.35,78.4,322.52z M72.95,315.01c-10.2-3.87-37.33-8-46.45-7.1
		c-4.04,0.4-8.16,1.08-11.35,5.65c4.07-0.01,7.32,0.34,10.67-0.34c11.25-2.29,22.45-2.92,33.79,0.03
		C63.47,314.25,67.46,316.15,72.95,315.01z M106.26,333.52c-0.13-1.15-1.07-1.54-1.92-1.97c-2.29-1.17-4.63-2.26-6.91-3.46
		c-2.39-1.25-3.66-0.68-4.79,1.9c-1.12,2.58-2.11,5.37-4.46,7.31c-1.01,0.84-2.65,1.86-1.35,3.55c1.01,1.32,2.7,1.24,4.03,0.73
		c4.32-1.68,8.6-3.49,12.81-5.44C104.72,335.66,106.09,335.07,106.26,333.52z M50.03,328.45c7.26-0.77,12.43-7.16,19.44-9.67
		c0.63-0.23,0.82-1.14,0.32-1.61c-0.4-0.37-1.17-0.51-1.76-0.47c-7.32,0.49-14.37,1.85-20.43,6.42c-1.4,1.06-3.57,1.88-2.91,3.89
		C45.38,329.2,47.77,327.86,50.03,328.45z"/>
	<path class="st459" d="M243.16,242.4c2.15-3.4,4.22-6.86,6.47-10.18c3.37-4.97,4.48-10.35,2.88-16.12
		c-1.99-7.19,0.04-12.94,5.53-17.78c6.46-5.69,12.54-11.71,14.49-20.59c0.11-0.09,0.32-0.18,0.31-0.26
		c-0.02-0.25-0.12-0.49-0.19-0.73c0.2-1.32,0.39-2.64,0.59-3.96c3.23-0.09,6.42,0.25,9.53,1.15c0.1,3.95-1.43,7.55-2.49,11.23
		c-1.02,3.52-1.1,6.89,1.8,11.36c-0.54-5.13,0.81-8.33,3.58-10.92c0.52,1.62,1.76,1.26,2.76,0.81c8.42-3.74,16.05-8.72,22.91-14.85
		c1.51-1.35-0.92-1.64-1.06-2.61c13.32-4.05,26.91-6.2,40.86-5.84c0,0-0.08-0.05-0.08-0.05c0.16,0.8,0.45,1.02,0.97,0.21
		c5.48,1.61,10.97,3.22,16.45,4.84c0.12,1.62,1.16,2.66,2.42,3.41c12.94,7.65,15.19,19.9,14.02,33.37
		c-0.66,7.66-2.22,15.22-4.55,22.59c-0.47,1.47-1.14,2.58-2.12,3.62c-1.47,0.88-2.93,0.51-4.55,0.38
		c-11.18-0.88-20.06,1.62-23.62,14.17c-1.39,3.37-3.7,6.23-4.89,9.75c-3.16,9.37-1.95,18.79-0.81,28.25
		c-2.58,1.5-4.46-1.76-6.93-1.01c-6.38-2.8-13.19-4.19-19.9-5.91c-16.37-4.21-33.08-7.42-48.06-15.85c-5.68-2.3-12.79-6-19.8-12.06
		C247.18,246.67,245.02,244.49,243.16,242.4z M285.42,206.86c3.14,0.01,5.79-2.16,8.76-3.3c9.38-3.6,16.25-9.63,17.68-20.3
		c0.15-1.13,0.68-2.34-0.41-3.12c-1.14-0.82-2.12,0.11-3.02,0.79c-8.84,6.74-15.41,16.04-24.86,22.11c-0.91,0.58-1.7,1.65-1.02,2.93
		C283.12,207.02,284.22,206.75,285.42,206.86z"/>
	<path class="st459" d="M93.84,545.71c1.02-3.03,4.04-2.93,6.29-3.66c8.72-2.85,17.53-5.46,26.52-7.35
		c2.52-0.53,3.11-2.04,4.36-4.36c4.8-8.91,1.68-18.64,4.16-27.77c2.51-9.28,4.01-18.86,7.27-27.95
		c5.84-16.34,13.82-31.57,24.09-45.58c0.5-0.68,1.05-1.84,2.24-0.75c-11.49,24.1-16.32,50.26-23.35,75.73
		c-2.32,8.42-4.94,16.72-9.51,24.24c-5.28,8.69-7.34,18.52-10.05,28.12C115.16,552.86,103.85,551.23,93.84,545.71z"/>
	<path class="st458" d="M418.01,376.76c-2.26-1.14-4.43-2.28-7.19-1.99c-3.08,0.32-5.92-0.75-7.11-3.84
		c-1.23-3.21,1.23-5.19,3.34-6.86c6.84-5.42,14.75-8.95,22.68-12.4c7.53-3.28,15.52-5.15,23.37-7.42c2.28-0.66,4.72-1.29,6.83,0.64
		c-12.17,10.77-25.74,19.61-39.31,28.44C419.2,374.25,417.82,374.79,418.01,376.76z"/>
	<path class="st458" d="M500.58,289.41c-0.01,0.31-0.02,0.63-0.04,0.94c-0.07,0.12-0.13,0.24-0.2,0.36
		c0.06-0.12,0.13-0.24,0.19-0.36c2.64-0.68,4.88-1.15,4.71-5.1c-0.08-1.92,2.67-3.96,4.13-5.95c4.44,9.46,0.49,17.2-5.03,24.63
		c-1.23,0.11-1.84,0.79-1.85,2.02c-0.14,0.31-0.29,0.62-0.43,0.93c-0.26,0.18-0.48,0.4-0.63,0.69c0,0-0.18,0.15-0.18,0.15
		c-6.59,1.76-10.26,7.31-14.89,11.6c-0.25,0.23,0.39,1.42,0.62,2.16c0,0,0,0,0,0c-2.46-0.06-4.53,0.68-5.86,2.89
		c-7.25-0.06-7.7-0.81-5.72-7.86c1.72-6.12,2.85-12.42,5.64-18.2c5.48-1.73,11.54-2.16,15.61-7.01c0,0-0.04,0.03-0.04,0.03
		c0.48-0.19,1.79,0.41,0.98-1.02c0.74-1.01,1.83-0.94,2.9-0.96L500.58,289.41z"/>
	<path class="st458" d="M486.99,321.46c-0.23-0.74-0.87-1.93-0.62-2.16c4.63-4.29,8.3-9.84,14.89-11.6
		C497.09,312.9,492.7,317.86,486.99,321.46z"/>
	<path class="st458" d="M481.13,324.35c1.34-2.22,3.4-2.95,5.86-2.89c-0.95,2.96-3.82,3.92-5.89,5.71
		C481.11,326.23,481.12,325.29,481.13,324.35z"/>
	<path class="st459" d="M377.24,336.96c5.02,5.77,9.2,12.05,11.71,19.33c-4.92,4.94-11.84,6.25-17.62,9.65
		c-5.12,3.02-10.86,5.02-15.54,8.75c-1.98,1.58-5.47,3.21-2.79,6.95c-0.04,1.44-0.56,2.71-1.02,4.07c-1.62,4.8-7.17,7.07-7.74,12.43
		c-4.39,4.88-8.5,9.93-9.76,16.64c-4.28,1.77-4.74,6.68-7.78,9.48c-4.47-5.41-7.48-4.85-10.36,2.25c-0.15-1.26-0.25-2.19-0.36-3.12
		c0.64-6.26,5.58-10.12,8.44-15.13c0.46-0.75,0.93-1.5,1.39-2.26c3.89-4.24,5.65-9.61,7.9-14.73c4.58-10.43,7.26-21.54,11.35-32.15
		c0.41,4.74,2.31,1.48,3.19,0.44C356.37,350.03,365.87,342.3,377.24,336.96z"/>
	<path class="st459" d="M334.49,414.8c1.26-6.72,5.37-11.76,9.76-16.64c-0.14,16.85,4.84,32.99,6.89,49.54
		c1.37,12.14,2.23,24.36,4.23,36.4c3.31,19.93,8.36,39.56,10.92,59.63c0.63,4.94,0.84,9.94,1.13,14.92
		c0.08,1.32,0.56,3.09-1.65,3.41c-2.36-8.56-4.77-17.16-4.02-26.13c0.36-4.37-0.92-7.49-4.51-9.71c-2.11-1.31-2.68-2.93-1.97-5.3
		c0.41-1.36,0.92-3.09,0.44-4.25c-4.49-10.79-2.31-22.53-5.27-33.66C344.46,460.44,339.73,437.55,334.49,414.8z"/>
	<path class="st459" d="M156.05,366.16c0.94-2.29,1.89-4.57,2.83-6.86c0.34-0.01,0.68-0.02,1.02-0.02
		c7.93,1.24,12.16,6.93,15.17,13.47c2.67,5.79,6.25,10.4,11.91,13.37c0.88,0.46,1.67,1.31,1.93-0.47c0.28,0.01,0.55,0.04,0.82,0.11
		c1.21,2.85,2.36,5.74,5.42,7.2c0.62,3.77,4.17,4.39,6.67,6.03c3.29,2.14,7.14,3.47,9.39,7c-2.43,0.12-5.45-1.06-6.44,2.5
		c-1.23,4.42,3.06,4.92,5.69,6.93c-1.95,0-3.39,0-4.82,0c-5.82-4.12-11.71-8.15-17.43-12.41c-3.6-2.69-4.55-1.53-4.21,2.38
		c0.04,0.47-0.09,0.95-0.14,1.42c-4.4-7.51-10.22-13.98-15.39-20.93c-4.24-5.7-10.65-10.14-10.71-18.31
		C157.75,366.61,156.91,366.28,156.05,366.16z"/>
	<path class="st459" d="M211.21,405.98c-2.25-3.53-6.1-4.86-9.39-7c-2.51-1.63-6.06-2.25-6.68-6.02c7.83,2.47,15.55,5.31,23.58,7.14
		c32.78,7.45,66.07,5.89,99.29,5.67c2.6,0.08,5.2,0.16,7.8,0.25c-0.47,0.76-0.93,1.51-1.39,2.26c-8.7,3.06-17.46,5.63-26.91,4.35
		c-11.2-1.51-22.48-1.83-33.76-2.06c-5.37-1.62-10.89-0.75-16.32-0.72c-7.55,0.05-15.14-0.91-22.65,0.64
		c-3.2,0.09-6.4,0.17-9.59,0.26C212.64,410.19,212.55,407.56,211.21,405.98z"/>
	<path class="st186" d="M156.05,366.16c0.85,0.12,1.7,0.45,1.71,1.39c0.06,8.17,6.47,12.61,10.71,18.31
		c5.16,6.95,10.99,13.42,15.39,20.93c0,1.02-0.01,2.04-0.01,3.06c-0.8,0.74-0.72,1.73-0.78,2.69c-0.22,4.99-5.26,3.85-7.68,6.06
		c-2.08,0.07-2.68-0.59-2.28-2.89c0.74-4.19,2.52-8.45,0.28-12.74c0.01-2.6-1.79-4.48-3.02-6.4c-3.99-6.24-8.12-12.46-14.28-16.9
		c-0.23-0.59-0.28-1.41-0.71-1.74c-3.81-2.91-3.59-5.88-0.42-9.14C155.57,368.16,155.7,367.05,156.05,366.16z"/>
	<path class="st186" d="M315.98,423.41c0.11,0.93,0.22,1.86,0.36,3.12c2.88-7.1,5.88-7.66,10.36-2.25
		c-1.05,2.79-1.91,5.92-4.46,7.55c-1.41,0.9-4.23,1.15-5.43-0.39C315.04,429.18,314.17,426.29,315.98,423.41z"/>
	<path class="st186" d="M211.21,405.98c1.34,1.58,1.44,4.2,3.99,4.76c-3.68,6.77-4.33,7.09-9.57,4.67c1.44,0,2.87,0,4.82,0
		c-2.63-2.01-6.91-2.51-5.69-6.93C205.75,404.93,208.78,406.1,211.21,405.98z"/>
	<path class="st489" d="M183.06,412.55c0.06-0.95-0.02-1.95,0.78-2.69C184.02,410.89,184.09,411.88,183.06,412.55z"/>
	<path class="st459" d="M344.36,283.65c-1.14-9.45-2.35-18.88,0.81-28.25c1.18-3.52,3.5-6.38,4.89-9.75
		c3.26,0.83,2.89-2.7,4.53-3.91c7.19-5.32,15.12-6.7,23.72-5.7c-6.18,20.82-12.13,41.71-17,62.89c-3.56,15.5-6.8,31.07-10.18,46.61
		c-2.14,0.84-2.3,3.07-3.34,4.69c-0.88,1.35,0.12,3.76-2.35,4.19c0.44-5.93,1.11-11.86,1.26-17.8c0.33-13.19,3.58-26.19,2.42-39.47
		c0.72-1.22,0.73-2.55,0.64-3.9c0.01-0.32,0.03-0.64,0.04-0.96c0.05-3.51-1.36-6.16-4.57-7.73
		C344.94,284.26,344.65,283.96,344.36,283.65z"/>
	<path class="st458" d="M351.13,447.7c-2.05-16.55-7.03-32.69-6.89-49.54c0.56-5.36,6.11-7.63,7.74-12.43
		c0.46-1.36,0.98-2.63,1.02-4.07c3.69-2.56,7.24-5.35,11.09-7.62c8.45-4.97,17.09-9.57,26.77-11.81c-0.36,3.33,2.56,4.6,4.22,6.65
		c0.71,0.87,1.74,1.65,1.26,2.91c-0.52,1.35-1.85,1.03-2.94,1.08c-5.59,0.27-11.16-0.48-16.7,1.6
		c-10.02,3.78-16.11,11.64-15.9,22.25c0.28,14.08-1.36,27.92-5.14,41.42C354.76,441.37,354.63,445.49,351.13,447.7z"/>
	<path class="st458" d="M463.65,236.95c3.02,0.26,3.93,1.96,3.94,4.89c0.04,11.1-5.15,20.07-11.64,28.36
		c-2.92,3.72-5.41,8.08-10.11,10.16c-1.72,0.76-3.19,1.49-4.67-0.42c-1.45-1.88-0.03-2.88,1-4.09c4.48-5.25,9.21-10.32,13.35-15.83
		C460.6,253.26,464.15,245.77,463.65,236.95L463.65,236.95z"/>
	<path class="st125" d="M419.65,246.83c-1.58,9.78-6.13,18.41-10.92,26.9c-9.75,17.3-22.06,32.87-33.32,49.16
		c-2.4,3.47-3.56,7.76-7.48,11.88c0.58-7.14,4.38-11.34,7.45-15.75c13.87-19.96,29.15-39.01,39.36-61.3
		C416.38,254.13,417.14,250.13,419.65,246.83z"/>
	<path class="st458" d="M453.85,282.09c8.61-4.28,16.23-9.47,22.51-16.57c2.01-2.27,4.4-4.16,5.5-7.21c0.4-1.11,1.13-3.08,3-2.53
		c1.59,0.47,1.04,2.16,1.08,3.37c0.21,5.52-2.05,9.93-6.12,13.55C472.42,279.31,463.04,280.42,453.85,282.09z"/>
	<path class="st186" d="M345.44,354.42c2.47-0.43,1.47-2.84,2.35-4.19c1.05-1.62,1.21-3.84,3.34-4.69c5.36-2.45,9.93-6.4,15.63-8.2
		c2.29-0.72,4.53-1.62,6.84-2.24c1.61-0.43,3.31-0.49,3.63,1.85c-11.37,5.34-20.87,13.06-28.98,22.61c-0.89,1.05-2.78,4.3-3.19-0.43
		C345.19,357.56,345.32,355.99,345.44,354.42z"/>
	<path class="st186" d="M390.86,362.22c-9.67,2.23-18.32,6.83-26.77,11.81c-3.86,2.27-7.4,5.06-11.09,7.62
		c-2.68-3.74,0.81-5.37,2.79-6.95c4.67-3.73,10.41-5.74,15.54-8.75c5.78-3.4,12.69-4.71,17.62-9.65
		C390.93,357.84,394.81,358.77,390.86,362.22z"/>
	<path class="st458" d="M446.12,239.21c-0.27,3.5,1.15,8.6-2.58,13.01c-1.81,2.14-3.64,2.92-5.78,1.58
		c-2.11-1.32-1.14-3.22-0.11-5.08c2.86-5.16,4.86-10.5,2.84-16.59c-0.43-1.3-0.19-2.91,0.05-4.33c0.29-1.69,1.76-2.31,3.27-2.3
		c1.54,0.01,2.27,1.19,2.29,2.62C446.16,231.36,446.12,234.6,446.12,239.21z"/>
	<path class="st459" d="M378.31,236.05c-8.6-1-16.54,0.38-23.72,5.7c-1.65,1.22-1.27,4.75-4.53,3.91
		c3.56-12.55,12.44-15.05,23.62-14.17c1.63,0.13,3.09,0.51,4.55-0.38c0.79,2.76,0.79,2.76,3.98,4.61
		C380.8,235.84,379.56,235.94,378.31,236.05z"/>
	<path class="st458" d="M480.53,282.36c-6.16,4.57-12.64,8.03-20.49,7.92c-1.1-0.01-2.36,0.16-2.93-1.15
		c-0.6-1.4,0.19-2.46,1.05-3.47c1.3-1.52,2.97-2.44,4.85-3.02C468.8,280.89,474.62,281.84,480.53,282.36z"/>
	<path class="st458" d="M496.66,291.29c-4.07,4.85-10.13,5.28-15.61,7.01c-4.61,0.73-9.24,0.99-13.9,0.71
		c-1.28-0.08-2.83-0.08-3.05-1.69c-0.23-1.71,1.4-1.88,2.59-2.27c4.54-1.5,9.29-0.29,13.88-1.1
		C485.92,293.01,491.29,292.17,496.66,291.29z"/>
	<path class="st458" d="M415.23,302.44c0.92,0.02,1.84,0.04,2.77,0.05c-8.42,10.62-18.06,17.39-24.88,16.91
		C402.66,316.49,407.62,307.79,415.23,302.44z"/>
	<path class="st458" d="M502.51,279.63c-2.24-0.45-5.7,0.68-5.59-3.28c0.05-1.77,0.09-4.37,2.61-5.11c1.09-0.32,6.36,5.39,6.3,6.81
		C505.72,280.42,503.75,279.22,502.51,279.63z"/>
	<path class="st458" d="M497.6,290.29c0.81,1.43-0.5,0.83-0.98,1.02C496.95,290.97,497.27,290.63,497.6,290.29z"/>
	<path class="st490" d="M463.65,236.94c-0.12-0.07-0.24-0.13-0.36-0.2C463.41,236.81,463.53,236.88,463.65,236.94
		C463.65,236.95,463.65,236.94,463.65,236.94z"/>
	<path class="st458" d="M318.02,405.77c-33.22,0.22-66.51,1.77-99.29-5.67c-8.03-1.82-15.75-4.67-23.58-7.14
		c-3.06-1.46-4.21-4.35-5.42-7.2c0.11-1.43,0.55-2.92-0.73-4.11c0.03-0.96,0.06-1.92,0.09-2.87c1.96-0.26,2.48-1.6,2.85-3.35
		c0.74-3.46,1.89-6.83,2.62-10.29c1.13-5.37,3.68-9.12,9.59-9.88c1.69-0.22,3.7-0.85,3.97-2.98c0.23-1.88-1.74-2.05-2.89-2.79
		c-2.68-1.74-4.3-4.31-5.58-7.13c-4.33-9.44-1.13-19.08-0.43-28.56c0.99-13.4,5.74-25.99,9.42-38.82
		c1.93-6.73,3.18-13.81-0.49-20.58c-0.25-1.34,0.94-3.06-1.05-3.93c7.61-7.23,5.56-15.72,3.16-24.26c1.33-2.93,1.38-6.12,1.97-9.2
		c0.99-5.27,1.25-5.33,5.48-2.19c-1.46,8.92,4.22,15.77,6.77,23.58c0.27-4.73-1.16-9.45,0.44-14.08c5.52,3.83,8.91,9.97,14.64,13.57
		c-0.24,3.75-2.44,7.33-0.86,11.54c2.95-1.52,2.42-5.14,4.46-7.03c1.13,0.76,2.25,1.52,3.38,2.28c6.9,6.46,14.36,12.13,22.93,16.21
		c14.98,8.42,31.69,11.64,48.06,15.85c6.71,1.72,13.51,3.11,19.9,5.91c-1.73,1.35-2.12,2.9-1.37,5.09
		c3.08,8.91,4.19,17.95,2.42,27.38c-2.95,15.81-14.26,28.24-31.57,28.67c-1.78,0.05-4.73-0.81-4.76,1.8
		c-0.04,2.78,2.98,2.94,5.22,2.95c1.41,0.01,2.84-0.47,4.23-0.86c2.95-0.82,5.84-1.88,8.82-2.58c7.39-1.75,12.24,1.89,12.16,9.41
		c-0.18,15.59-3.87,30.29-12.24,43.58C318.79,400.54,317.8,402.9,318.02,405.77z"/>
	<path class="st459" d="M239.56,237.89c-5.73-3.6-9.12-9.74-14.64-13.57c0.96-3.65,2.77-6.9,5.03-9.84
		c5.1-6.65,6.38-13.82,4.11-21.91c-2.74-9.75-2.04-18.92,5.9-26.36c0.34-0.32,0.78-0.54,1.21-0.83c4.92,9.63,6.8,19.06,1.12,29.26
		c-4.58,8.22-4.81,17.25-2.38,26.38C241.4,226.62,242.92,232.34,239.56,237.89z"/>
	<path class="st458" d="M160.92,245.66c1.68,0.32,1.86,1.58,1.8,2.95c-0.35,7.76,1.05,15.36,1.83,23.03
		c0.85,8.36-1.18,16.65-2.07,24.93c-1.15,10.68-0.85,21.15,1.05,31.65c0.11,0.6,0.01,1.23-0.31,1.91
		c-2.75-5.63-3.66-11.73-4.32-17.81c-1.69-15.57-1.6-31.17-0.12-46.76c0.14-1.42-0.17-2.89-0.27-4.34
		C160.08,256.15,161.02,250.99,160.92,245.66z"/>
	<path class="st459" d="M207.26,168.06c1.18-0.05,2.35-0.1,3.53-0.14c-0.76,8.7,3.71,15.74,7.62,22.83
		c4.58,8.3,4.18,16.18-0.7,24.07c-4.23-3.14-4.49-3.08-5.48,2.19c-0.58,3.09-0.64,6.28-1.97,9.2c-1.63-2.59-1.27-5.46-0.24-7.92
		c6.08-14.61,2.86-28.87-1.19-43.15C208.16,172.82,207.78,170.42,207.26,168.06z"/>
	<path class="st491" d="M149.08,214.54c0.26-0.17,0.53-0.34,0.79-0.51c-0.11,0.33-0.21,0.66-0.32,0.99
		C149.4,214.87,149.24,214.71,149.08,214.54z"/>
	<path class="st458" d="M137.59,280.81c-4.49,1.61-8.97,3.23-13.46,4.84c-5.72-0.11-10.46,2.74-15.43,5.02
		c-4.92,2.25-9.18,6.04-14.88,6.48l0,0c0.67-4.49,3.3-8,5.8-11.56c0.44-0.63,1.25-1.67,1.65-1.57c8.56,2.17,10.82-5.96,15.77-9.6
		c8.15-5.99,10.86-15.83,16.38-23.68c1.68-2.39,4.02-3.65,6.29-5.13c0.63-0.41,1.46-0.94,2.17-0.13c0.63,0.72,0.32,1.57-0.09,2.25
		c-3.79,6.22-5.25,12.97-5.57,20.24C136.02,272.41,137.53,276.5,137.59,280.81z"/>
	<path class="st459" d="M208.15,254.4c3.66,6.77,2.42,13.85,0.49,20.58c-3.68,12.82-8.43,25.42-9.42,38.82
		c-0.7,9.48-3.89,19.12,0.43,28.56c1.29,2.81,2.9,5.39,5.58,7.13c1.15,0.74,3.12,0.91,2.89,2.79c-0.27,2.13-2.27,2.76-3.97,2.98
		c-5.91,0.76-8.45,4.51-9.59,9.88c-0.73,3.46-1.88,6.83-2.62,10.29c-0.38,1.75-0.89,3.09-2.85,3.35
		c-0.74-21.48,1.19-42.65,6.15-63.64c4.58-19.38,8.84-38.85,12.12-58.51C207.49,255.86,207.88,255.14,208.15,254.4z"/>
	<path class="st186" d="M188.91,385.65c-0.25,1.78-1.05,0.94-1.93,0.47c-5.65-2.97-9.24-7.58-11.91-13.37
		c-3.01-6.54-7.23-12.23-15.17-13.47c0-1.87,1.59-2.19,2.81-2.86c8.12,4.55,14.4,10.56,17.43,19.79c1.12,3.41,4.05,6.14,7.84,7.34
		C188.29,384.26,188.6,384.95,188.91,385.65z"/>
	<path class="st186" d="M188.91,385.65c-0.31-0.7-0.61-1.4-0.92-2.09c0.34-0.64,0.68-1.27,1.01-1.91c1.28,1.19,0.83,2.68,0.73,4.11
		C189.46,385.69,189.18,385.66,188.91,385.65z"/>
	<path class="st490" d="M93.82,297.15c-0.11,0.4-0.23,0.8-0.34,1.19C92.62,297.67,93.5,297.49,93.82,297.15L93.82,297.15z"/>
	<path class="st459" d="M318.02,405.77c-0.21-2.86,0.77-5.23,2.32-7.68c8.38-13.29,12.06-27.99,12.24-43.58
		c0.09-7.52-4.77-11.16-12.16-9.41c-2.98,0.7-5.87,1.75-8.82,2.58c-1.39,0.39-2.82,0.87-4.23,0.86c-2.23-0.01-5.25-0.17-5.22-2.95
		c0.03-2.61,2.98-1.75,4.76-1.8c17.3-0.44,28.61-12.87,31.57-28.67c1.76-9.43,0.65-18.48-2.42-27.38c-0.76-2.19-0.36-3.73,1.37-5.09
		c2.47-0.75,4.35,2.51,6.93,1.01c0.29,0.3,0.57,0.61,0.86,0.91c1.3,4.2,2.59,8.39,3.89,12.59c1.16,13.27-2.09,26.28-2.42,39.47
		c-0.15,5.94-0.82,11.87-1.26,17.8c-0.12,1.57-0.24,3.14-0.37,4.71c-4.1,10.61-6.77,21.72-11.35,32.15
		c-2.25,5.11-4.01,10.49-7.9,14.73C323.22,405.93,320.62,405.85,318.02,405.77z"/>
	<path class="st492" d="M349.12,297.16c-1.3-4.2-2.59-8.39-3.89-12.59c3.22,1.58,4.63,4.22,4.57,7.73c-0.09,0.09-0.27,0.2-0.26,0.28
		c0.03,0.23,0.14,0.45,0.21,0.68C349.84,294.61,349.83,295.94,349.12,297.16z"/>
	<path class="st493" d="M349.76,293.26c-0.08-0.23-0.18-0.45-0.21-0.68c-0.01-0.08,0.17-0.19,0.26-0.28
		C349.78,292.62,349.77,292.94,349.76,293.26z"/>
</g>
</svg>
