<svg id="Слой_1" data-name="Слой 1" xmlns="http://www.w3.org/2000/svg" viewBox="0 0 515 993"><defs><style>.cls-1{fill:#ff977e;}.cls-2{fill:#fe3000;}.cls-3{fill:#ef0b00;}.cls-4{fill:#fe7b24;}.cls-5{fill:#f60000;}.cls-6{fill:#bf1200;}.cls-7{fill:#fe3100;}.cls-8{fill:red;}.cls-9{fill:#ac7401;}</style></defs><path class="cls-1" d="M429,149a39.61,39.61,0,0,0-17-19c-3.3-1.79-9.72-5.18-18.27-4.34-10.88,1.07-17.68,8.23-20,11.05a31.52,31.52,0,0,0-7,16.09A33,33,0,0,0,372,175l-13,6-29.57-63.78c6.17-11.83,5.93-23.4-1.83-34.4A29.64,29.64,0,0,0,307,70.31q-3-6.15-6-12.31c27.34,2.92,47.3,4.78,50.83,4.91A11.44,11.44,0,0,0,357,62a10.61,10.61,0,0,0,3-2q11.44-15.16,22.9-30.34l-4.9-2,4.15-5.85-43.72-4.11c3.63-3.62,7.35-7.16,9.42-12,.7-1.64,1.74-3.17,1.57-5.07H460.61L515,109ZM446.75,47.67a31.52,31.52,0,1,0-31.55,31.4A31.36,31.36,0,0,0,446.75,47.67Z"/><path class="cls-1" d="M46,.59c2.19,6.19,5.42,11.9,8.22,17.8,8,16.92,16.14,33.76,24.23,50.63.34.7.75,1.35,1.13,2,1.2-.49,2.37-1.06,3.6-1.44,8.83-2.7,17.34-2.24,25.39,2.62a4.88,4.88,0,0,0,2.67-.84c10-4.73,20-9.44,29.91-14.22,2.15-1,4.49-1.75,6.46-3.31-3.44-3.88-3.16-8.67-3.6-13.28a6.11,6.11,0,0,1-.38-3.11l-.19-.82a2.2,2.2,0,0,1-.27-1.8,72.47,72.47,0,0,1-1-10.9c-.2-1-.35-2.05-.63-3-1.38-4.9-.17-7.34,4.58-9a49.79,49.79,0,0,1,15.06-2.42c20.46-.71,40.81,1.42,61.21,2.23,5.23.21,10.51,1.13,15.72-.29.7-.63.55-1.26.15-2-1.41-2.73-2.74-5.5-4.11-8.26A1.06,1.06,0,0,1,233,.59H140c-6.15,19.69-31.73,27.63-48.41,15C86.54,11.7,82.45,7,80.81.59Z"/><path class="cls-2" d="M143.17,34.85a72.47,72.47,0,0,1-1-10.9c.84-.51.27-1.48.71-2.18,7.95,6.54,17.5,7.14,27.18,7.41,16.84.47,33.28-2.15,49.61-6,7.05-1.65,14-3.71,21-5.55,2.83-.74,2.48-3.24,3.54-4.92.44-.7-.73-.65-1.26-.7-1.61-.13-3.3.34-4.81-.63.7-.63.55-1.26.15-2-1.41-2.73-2.74-5.5-4.11-8.26a.65.65,0,0,0,0-.51h18.18a13.58,13.58,0,0,1,.93,1.82c.47,1.35,1.42,1,2.26.63,1.7-.81.19-1.63-.07-2.45h41.05c-2.33,2.2-5.21,3.54-7.94,5.11a109.07,109.07,0,0,1-11.74,5.89c-.33-1-.66-2-1-3l-.46.12c.57,4.11,1,8.23,1.73,12.32.63,3.66-.22,5.75-3.49,7.34-3.79,1.85-7.61,3.66-11.43,5.45-3.3,1.55-5,1-7.41-1.74-2-2.24-3.45-5-6.16-6.51l.06,0-.49-.57-.23-.21.2.24,0,.57c-6.78,2.77-13.45,5.81-20.42,8.15a167.48,167.48,0,0,1-30.08,7.39A135.27,135.27,0,0,1,177,42.66,111.71,111.71,0,0,1,145.89,38c-.74-.22-1.51-.33-2.26-.5-.07-.27-.13-.55-.19-.82A1.47,1.47,0,0,0,143.17,34.85ZM246.76,23.14l-.2-.22-.22-.21.2.22Z"/><path class="cls-3" d="M276.75,11.59c-.33-1-.66-2-1-3l-.46.12c.57,4.11,1,8.23,1.73,12.32.63,3.66-.22,5.75-3.49,7.34-3.79,1.85-7.61,3.66-11.43,5.45-3.3,1.55-5,1-7.41-1.74-2-2.24-3.45-5-6.16-6.51.22.84.43,1.68.65,2.52,1.9,1.37,2.51,3.67,3.87,5.44a1.61,1.61,0,0,1-.53,2.29A18.21,18.21,0,0,1,249.35,38a292.71,292.71,0,0,1-43.69,16.67c-11.78,3.39-23.67,6-36,5.7-3.1-.08-6.2,0-9.3-.4,1.86,1.6,4.5,1.31,6.24,3l1-.12c.19-.24.38-.25.57,0l3,.67a70.62,70.62,0,0,0,31.94.67c3.61-.73,7.21-1.53,10.81-2.3a2.07,2.07,0,0,0,.43-.1l.57-.4h0c.23-.48.66-.52,1.11-.51L228.49,55c-1.66,3.29-4.16,5.33-4.9,8.37,3-2,5.16-5,8.09-7.19a71.39,71.39,0,0,1,17.55-9.82l4.49-2.56c3.67-1.68,7.36-3.29,11-5.05,1.67-.81,2.44-1,2.79,1.34.61,4,.29,7.89.23,11.83,0,1.11-.73,2.2-.06,3.48,2.27-2.62,4.32-5.28,7.58-6.5l.05-.86c-1.8-3.71-3.59-7.43-5.4-11.13-.35-.71-.49-1.27.4-1.68.7-.32,1.35-.49,1.75.35,1.89,3.84,4.14,7.53,5.17,11.74l.92.12a22.08,22.08,0,0,1,10.91-1.32c-5.27-3.23-9.75-6.16-13.36-10.27-1.45-1.66-.58-2,.75-2.67,3.87-1.83,7.71-3.73,11.57-5.6l.08,0,.59-.41a3.45,3.45,0,0,0,2.6-1c.08-.39.23-.46.49-.12l1.52,0a1.39,1.39,0,0,1,.86-1.18c8.19-4.23,16.75-7.21,26.05-7.66.91-.05,2.16.63,2.68-.82l-9.64-.91-.16-.67L323.41,9.9a1.1,1.1,0,0,1,1-.5l0,0a1,1,0,0,1,1-.5h0a1,1,0,0,1,1-.5l0,0a1,1,0,0,1,1-.49h0a1,1,0,0,1,1-.52h0c0-.91.74-1.2,1.31-1.71,1.94-1.75,4.49-2.75,6-5H320.85a7.71,7.71,0,0,1-1.08,1.06,297.07,297.07,0,0,1-34.45,19.27,8.57,8.57,0,0,1-4.23,1c-1.08-.06-2-.51-2.19-1.49-.37-1.93-1.47-3.72-1.2-5.78l-.65-1-.34-.59Z"/><path class="cls-3" d="M80.81.59c1.64,6.41,5.73,11.11,10.82,15,16.68,12.66,42.26,4.72,48.41-15Z"/><path class="cls-2" d="M277.7,14.62c-.27,2.06.83,3.85,1.2,5.78.2,1,1.11,1.43,2.19,1.49a8.57,8.57,0,0,0,4.23-1A297.07,297.07,0,0,0,319.77,1.65,7.71,7.71,0,0,0,320.85.59H301.1c-.82,1.44-2.35,2-3.62,2.83C291.17,7.65,284.33,10.94,277.7,14.62Z"/><path class="cls-3" d="M323.41,9.9l-10.33,4.89.16.67,9.64.9c5.18.46,10.4.42,15.55,1.3,3.63-3.62,7.35-7.16,9.42-12,.7-1.64,1.74-3.17,1.57-5.07h-6.75a87.13,87.13,0,0,1-14.05,6.73h0a1,1,0,0,1-1,.52h0a1,1,0,0,1-1,.49l0,0a1,1,0,0,1-1,.5h0a1,1,0,0,1-1,.5l0,0A1,1,0,0,1,323.41,9.9Z"/><path class="cls-4" d="M277.7,14.62c6.63-3.68,13.47-7,19.78-11.2,1.27-.86,2.8-1.39,3.62-2.83h-4.67c-2.33,2.2-5.21,3.54-7.94,5.11a109.07,109.07,0,0,1-11.74,5.89c0,.47,0,.95,0,1.42l.34.59Z"/><path class="cls-1" d="M123.5,107.75A23.39,23.39,0,0,0,124,105c3.31-2.39,7.17-3.71,10.8-5.46q27.27-13.07,54.61-26a11.67,11.67,0,0,1,1.22-.42c7.3,4.2,15.13,4.72,23.24,3.36-2.15,4.22-5.11,7.91-7.68,11.86-4.87,7.48-9.84,14.9-14.76,22.35-.2.94-2.81,1.52-.46,2.87a10.53,10.53,0,0,1,2.74.62c6.9,3.59,14.35,1.57,21.53,2.34,7,.74,14-.16,20.91.94,1.81.29,3-.43,4-2q10.64-16.68,21.49-33.22A83.92,83.92,0,0,0,268,71.66c1.18,2.35,2.37,4.73,3.55,7.15S273.88,83.63,275,86a28.9,28.9,0,0,0-4.44,12.85,29.94,29.94,0,0,0,2.84,15.35,30.78,30.78,0,0,0,6.23,9.24c2.07,2.09,7.28,7.58,15.13,8.44A18.83,18.83,0,0,0,297,132l2,4.19q13.88,29.12,28,57.81l-11,5c-11.39-16.45-30.2-22.95-44.06-17.19a30.71,30.71,0,0,0-17.35,19.5C250.9,214,257,224.31,258,226l-57,26a31.28,31.28,0,0,0-7.89-11.26,32,32,0,0,0-15.26-7.5,29.13,29.13,0,0,0-19.43,2.39c-.48-.92-1-1.82-1.45-2.75q-22.2-46.38-44.4-92.76c-2-4.1-3.83-8.26-5.74-12.39A31.31,31.31,0,0,0,123.5,107.75Zm65.57,78.43a31.32,31.32,0,1,0-31.53-31.28A31.3,31.3,0,0,0,189.07,186.18Z"/><path class="cls-1" d="M490.64,668.56c.06,2.51-2.23,3.37-3.6,4.68-19.49,18.76-39.13,37.38-58.67,56.1-10.29,9.86-20.47,19.84-30.7,29.77-4.64,0-9-2-13.59-2.09-.46-.31-.88-.81-1.38-.92q-13.09-2.73-26.22-5.38a6.74,6.74,0,0,0-1-.34c-8-1.56-16-3-23.72-5.41,1.2-.71.4-1.61.18-2.41q-6.06-22-12.16-44c-1.53-5.51-3.11-11-4.67-16.49l-.66.08L307.66,725c-2.67-3.55-4-7.22-5.59-10.64-5.43-11.31-10.55-22.76-15.84-34.13q-7.43-16-14.93-31.89c-.34-.71-.59-1.54-1.6-1.57a24.29,24.29,0,0,1-.82-2.59q-2.7-13.05-5.35-26.1-4.62-22.75-9.22-45.53c0-1.28.09-1.71,1.71-1,9.47,4.4,19.64,6.08,29.92,7.23,4,1.19,8.23,1,12.33,1.65,9.41,1.47,18.92,1.8,28.41,2.31l23.85.68c9.8.47,19.6,1,29.41,1.39,16.09.57,32.18,1,48.28,1.47,9.36.38,18.72.83,28.08,1.12,2.68.08,3,.79,2.05,3.28-4.81,12.79-9.41,25.65-14.06,38.5a8,8,0,0,0-.22,1.64c-.23.24-.59.44-.69.73-4,11.15-8.32,22.22-12,33.49-5.27,16.14-10.12,32.42-15.12,48.64-1.52,4.93-3,9.88-4.43,14.82,7.11-11.1,13.75-22.38,20.37-33.67,5-8.56,10-17.14,15.06-25.68.78-1.33,1.45-2.69,3.63-2.44C464.08,668.26,477.27,670.37,490.64,668.56Z"/><path class="cls-5" d="M177,262c6.76,2.55,18,6.68,31.43,11a31.06,31.06,0,0,0,14,1.71,28.29,28.29,0,0,0,8.55-2.52c11.07-5.2,22.08-10.52,33.13-15.75,11.52-5.45,23.08-10.82,34.59-16.29,7.4-3.52,14.69-7.24,22.1-10.73,12.56-5.93,25.18-11.72,37.75-17.63,6.54-3.08,13-6.35,19.54-9.46,8.48-4,17-8,25.51-12,0,0,8.94-4.26,22.76-11.06C443.22,171,474.64,155,515,134V109Z"/><path class="cls-6" d="M254.31,572.5q4.6,22.77,9.22,45.53,2.64,13.05,5.35,26.1a24.29,24.29,0,0,0,.82,2.59,12.57,12.57,0,0,0,.09,2q8.77,42.59,17.57,85.16c-.07.67,0,1.4-.83,1.72-2.89,1.14-3.24,3.22-2.11,5.81.33.76-.14,1.29-.4,1.9l-3.53,2.86a37.52,37.52,0,0,0-9.1,2.3,23.36,23.36,0,0,0-2.66.4c-5.67,1.48-11.33,3-17,4.52.12-1.29,1.13-2,2-2.71,1.37-1.21,2.18-2.39,1.47-4.4-.45-1.27-.29-3.05,1.18-3.61,2.83-1.08,2-2.85,1.59-5-4.21-20.33-8.31-40.68-12.46-61q-3.54-17.34-7.15-34.65-6-28.65-12-57.29c-.51-2.44-.9-4.91-1.35-7.36-.52-2.78.07-4.5,3.16-5.75,6.35-2.58,13-2.92,19.64-3.87,2-.29,4-1.21,6.07-.64C252.69,569.06,253.94,570.75,254.31,572.5Z"/><path class="cls-7" d="M166.55,62.94c-1.74-1.68-4.38-1.39-6.24-3,3.1.36,6.2.32,9.3.4,12.38.32,24.27-2.31,36-5.7A292.71,292.71,0,0,0,249.35,38a18.21,18.21,0,0,0,3.19-2.15,1.61,1.61,0,0,0,.53-2.29c-1.36-1.77-2-4.07-3.87-5.44a227.49,227.49,0,0,1-26.6,10c-15.38,4.44-31,7.17-47,7.15A110.5,110.5,0,0,1,144,40.58c.44,4.61.16,9.4,3.6,13.28-2,1.56-4.31,2.27-6.46,3.31-10,4.78-19.93,9.49-29.91,14.22a4.88,4.88,0,0,1-2.67.84,12,12,0,0,1-1.3.84q-9.7,4.64-19.42,9.23c-.93.45-1.94.8-2.35,1.89l6.81,14.07c9.59-3.9,18.71-8.79,28.12-13.1s18.94-8.77,28.29-13.42C154.65,68.79,160.89,66.44,166.55,62.94Z"/><path class="cls-7" d="M124,105c3.31-2.39,7.17-3.71,10.8-5.46q27.27-13.07,54.61-26a12.34,12.34,0,0,1,1.21-.42c3.52-1.64,7.05-3.25,10.54-4.94,4.26-2.06,8.48-4.2,12.72-6.3-3.6.77-7.2,1.57-10.81,2.3a70.62,70.62,0,0,1-31.94-.67c-.38,1.05-1.41,1.22-2.24,1.61q-15.78,7.53-31.57,15c-12.72,6-25.45,12-38.15,18.09-1.84.88-3.9,1.44-5.36,3,2,4.84,4.34,9.5,6.76,14.14,3-.48,5.54-2.2,8.26-3.4C113.91,109.72,118.93,107.32,124,105Z"/><path class="cls-6" d="M490.64,668.56c-13.37,1.81-26.56-.3-39.76-1.86-2.18-.25-2.85,1.11-3.63,2.44-5.05,8.54-10,17.12-15.06,25.68-6.62,11.29-13.26,22.57-20.37,33.67,1.47-4.94,2.91-9.89,4.43-14.82,5-16.22,9.85-32.5,15.12-48.64,3.69-11.27,8-22.34,12-33.49.1-.29.46-.49.69-.73l14.19,8.39,2.13,1.42c1.77,1.78,4.1,2.71,6.15,4.06,7.94,5.51,16.32,10.43,23.18,17.38C491.65,664,492.86,666,490.64,668.56Z"/><path class="cls-8" d="M177,262l25-11a39.22,39.22,0,0,0-8.89-10.26,35.8,35.8,0,0,0-15.26-7.5,29.13,29.13,0,0,0-19.43,2.39c.48,1,5.47,11.19,9.58,18.37a18.15,18.15,0,0,0,4,5A17.31,17.31,0,0,0,177,262Z"/><path class="cls-3" d="M284.12,592.56c7.45-.37,14.9-.75,22.35-1.1,1.28-.06,2.56,0,3.84,0a47.23,47.23,0,0,1-2.53,10.7,111.33,111.33,0,0,0-26.24,3.76,58,58,0,0,0-14.17,5.26c-9.59-1.07-19.09-2.64-27.94-6.75-1.51-.7-1.56-.3-1.59.9-.35-1.64-1.52-3.21-.41-5,5.94-3.58,12.68-4.25,19.31-5.05C265.85,594.19,275,593.46,284.12,592.56Z"/><path class="cls-3" d="M85.5,84.19c.41-1.09,1.42-1.44,2.35-1.89q9.72-4.6,19.42-9.23a12,12,0,0,0,1.3-.84c-8-4.86-16.56-5.32-25.39-2.62-1.23.38-2.4,1-3.6,1.44Q82.54,77.62,85.5,84.19Z"/><path class="cls-3" d="M124,105c-5,2.35-10.07,4.75-15.17,7-2.72,1.2-5.24,2.92-8.26,3.4l6.28,12.35a31.31,31.31,0,0,0,16.67-20A23.39,23.39,0,0,0,124,105Z"/><path class="cls-4" d="M93.79,101.24c1.46-1.59,3.52-2.15,5.36-3,12.7-6.07,25.43-12.06,38.15-18.09q15.8-7.49,31.57-15c.83-.39,1.86-.56,2.24-1.61l-3-.67h-.57l-1,.12c-5.66,3.5-11.9,5.85-17.83,8.8-9.35,4.65-18.8,9.08-28.29,13.42s-18.53,9.2-28.12,13.1Z"/><path class="cls-1" d="M146,798.07c4.51-3.47,9.72-5.73,14.7-8.35,3.09-1.63,6.06-3.55,9.46-4.55l2.73,5.88-23.43,12.31C148.19,801.68,147.64,799.52,146,798.07Z"/><path class="cls-1" d="M194.64,774.23c2.62-2.12,5.93-2.73,8.94-4a129.91,129.91,0,0,1,16.28-6l2.19,6.05-24.87,9.74C196.33,778.13,195.49,776.18,194.64,774.23Z"/><path class="cls-1" d="M62.16,865a141.51,141.51,0,0,1,18.65-19.34l4.53,4.49q-9.15,9.51-18.31,19Z"/><path class="cls-1" d="M101.31,828a150.88,150.88,0,0,1,21.92-15.86q1.74,2.73,3.49,5.45c-.81.6-1.6,1.22-2.42,1.8-6,4.23-12.31,8.12-17.69,13.21l0,0-1.44.45Z"/><path class="cls-6" d="M222.05,770.33l-2.19-6.05a200.56,200.56,0,0,1,25.51-8.34q1,3,2,6C239,765,230.6,767.85,222.05,770.33Z"/><path class="cls-1" d="M247.4,761.94q-1-3-2-6l6.37-2.51c5.66-1.51,11.32-3,17-4.52a23.36,23.36,0,0,1,2.66-.4c.38,1.34.77,2.68,1.16,4a26.67,26.67,0,0,1-6.11,4.61,6.22,6.22,0,0,0-2.67.31C258.26,758.75,253,761,247.4,761.94Z"/><path class="cls-6" d="M62.16,865,67,869.18,50.68,890.09c-1.65-1.55-4.18-2.06-5.21-4.35l1.05-2.2.59-.46a3.06,3.06,0,0,0,1.47-2.28c4.06-3.73,6.77-8.59,10.52-12.58C60.11,867.15,61.14,866.09,62.16,865Z"/><path class="cls-6" d="M126.72,817.55q-1.75-2.71-3.49-5.45a152.26,152.26,0,0,1,22.79-14c1.62,1.45,2.17,3.61,3.45,5.29Z"/><path class="cls-6" d="M194.64,774.23q1.28,2.92,2.53,5.85l-24.27,11-2.73-5.88A176.8,176.8,0,0,1,194.64,774.23Z"/><path class="cls-6" d="M101.31,828l3.91,5c-.45.59-.88,1.17-1.32,1.76l-1.34,1.11-.58.36q-8.33,7-16.63,14l-4.54-4.5A170.39,170.39,0,0,1,101.31,828Z"/><path class="cls-1" d="M514.68,993.29l-60-.1c1.54-9.64-3.45-16.86-12.76-18.48-13.11-2.27-30.19,6.44-36.26,18.5l-5.84,0c-6.15-10.18-8-21.21-6.51-32.91.49-3.7.63-3.76,3.75-1.82a53.09,53.09,0,0,0,32.74,7.83c11.64-.85,22.49-4,31.35-12.08,6.63-6,10-13.42,7.79-22.42s-8.63-14.44-17.65-16.17c-13.41-2.56-25.58,1.5-36.93,8.27a48.38,48.38,0,0,0-20.84,24.23c-.84,2.12-1.61,2.35-3.18.56a56,56,0,0,1-6.71-9.07,56.93,56.93,0,0,1-4.75-11c-.37-1.15-.86-2.34-2.32-2-1.72.47-1.27,1.88-1,3.11.11.44.31.86.46,1.29a51.59,51.59,0,0,0,13.48,21.55c.92.87,1.8,1.63,1.44,3.18a54.52,54.52,0,0,0,4.46,37.28l-27.84.12q-17.52-43.85-35.11-87.65c-.83-2-.77-3.32.7-5.14,11.38-14,22.6-28.13,33.87-42.23,1.39,0,2.21,1,3.19,1.73a153.72,153.72,0,0,0,16,10.16c.22.3.43.61.64.92a7.09,7.09,0,0,0,6,7.07A7.33,7.33,0,0,0,401,873.6c1.41-3.5.29-6.77-3.08-9-1.75-1.54-3.84-1.4-5.81-.88-1.25.33-2.28.39-3.09-.55-2-2.28-3.11-1.09-4.25.82a31.22,31.22,0,0,1-2.05,2.72c-5.47-3.19-9.73-8-15.06-11.34l-6.13-5.44c1.48-1.73,2.77-3.64,4.67-5a52.09,52.09,0,0,1,4.44,3.64c2,2.05,3.35,1.74,4.91-.61,2.32-3.49,4.58-7.43,10-5.66a11.77,11.77,0,0,1,2.31.42c2.75,1,3.54-.12,3.52-2.76,0-3.25.22-6.5.35-9.75l6.64.28c0,3.76.09,7.52-.15,11.26-.12,2,.49,2.58,2.34,2.81,6.1.74,12.16,1.75,18.26,2.43,7.91.87,15.71,2.66,23.69,3,4.38,1.39,9,1.25,13.48,2.11a3.58,3.58,0,0,1,3.14,2.52q19.13,48,38.36,95.85c5.61,14,11.35,27.84,17,41.76Z"/><path class="cls-7" d="M442.52,849.94c-8-.32-15.78-2.11-23.69-3-6.1-.68-12.16-1.69-18.26-2.43-1.85-.23-2.46-.85-2.34-2.81.24-3.74.12-7.5.15-11.25.05-1.48.11-3,.15-4.45.24-7.65-.32-15.32.44-22.95.07-1.7.24-3.4.21-5.1-.13-7.35.6-14.7.05-22.05.26-1.31.51-2.61.77-3.92l.73.38c.11.2.23.39.35.58,10.23,19.36,21.38,38.21,32.34,57.16A91.94,91.94,0,0,1,442.52,849.94Z"/><path class="cls-6" d="M400,772c-.26,1.31-.51,2.61-.77,3.92h-6.55c-.05-2.93-.17-5.87-.13-8.79,0-1.52-.41-2.16-2-2.38-3.2-.46-6.36-1.23-9.54-1.88,1.19.07,1.78-.42,2-1.67a36.38,36.38,0,0,1,1.13-4.18c4.63.05,8.95,2.11,13.59,2.09a5.79,5.79,0,0,1,2.2,5.07C399.77,766.78,400,769.39,400,772Z"/><path class="cls-9" d="M401.08,773c-.12-.19-.24-.38-.35-.58C401.15,772.39,401.19,772.63,401.08,773Z"/><path class="cls-5" d="M345,186l14-6c-15.14-32.1-24.09-51.1-29.57-62.78-3.42-7.28-4.45-9.48-6.41-13.56-6.7-14-9.68-20.06-16.06-33.35-2.29-4.76-5.73-12-9.95-20.92,6.11,1.61,12.23,1.76,18.28,2.4Q335,53.85,354.7,55.93c.8.08,1.53.17,2.09-.59q5.46-7.38,10.95-14.73l-23.69-3.67c-15.8-2.44-31.61-4.8-47.38-7.4-2.9-.48-6.07-.06-8.66-2-3.86,1.87-7.7,3.77-11.57,5.6-1.33.64-2.2,1-.75,2.67,3.61,4.11,8.09,7,13.36,10.27a22.08,22.08,0,0,0-10.91,1.32c3.93,9.3,8.6,18.25,12.95,27.35,7.79,16.28,15.47,32.61,23.27,48.88,10.95,22.84,15,32.12,23.44,48.54C340.77,178,343.28,182.76,345,186Z"/><path class="cls-8" d="M415.2,79.07a31.41,31.41,0,1,0-31.49-31.53A31.31,31.31,0,0,0,415.2,79.07Z"/><path class="cls-8" d="M372,175l58-26c-7.57-15.81-22.46-25.08-36.27-23.34-11.84,1.49-19.72,10.67-20,11.05a31.61,31.61,0,0,0-7,16.09A33,33,0,0,0,372,175Z"/><path class="cls-7" d="M338.43,17.66q-7.8-.68-15.55-1.3A34.08,34.08,0,0,0,318,16c-13-.05-20.54,7.24-23.85,8.85a1.52,1.52,0,0,0-.7.63,1.31,1.31,0,0,0-.16.55c7.19,1.71,14.54,2.46,21.82,3.65,10.59,1.72,21.2,3.34,31.8,5,7.64,1.17,15.29,2.28,22.93,3.42L378,27.62l4.15-5.85Q360.54,19.57,338.43,17.66Z"/><path class="cls-8" d="M307,70.31Q315,87,323,103.66c2.17,4.51,4.27,9,6.41,13.56,6.17-11.83,5.93-23.4-1.83-34.4A29.64,29.64,0,0,0,307,70.31Z"/><path class="cls-3" d="M142.13,24c.84-.51.27-1.48.71-2.18,7.95,6.54,17.5,7.14,27.18,7.41,16.84.47,33.28-2.15,49.61-6,7.05-1.65,14-3.71,21-5.55,2.83-.74,2.48-3.24,3.54-4.92.44-.7-.73-.65-1.26-.7-1.61-.13-3.3.34-4.81-.63-5.21,1.42-10.49.5-15.72.29-20.4-.81-40.75-2.94-61.21-2.23a49.79,49.79,0,0,0-15.06,2.42c-4.75,1.69-6,4.13-4.58,9C141.78,21.9,141.93,22.93,142.13,24Z"/><path class="cls-4" d="M144,40.58a110.5,110.5,0,0,0,31.54,4.63c16,0,31.67-2.71,47-7.15a227.49,227.49,0,0,0,26.6-10c-.22-.84-.43-1.68-.65-2.52l.06,0-.54,0c-6.78,2.77-13.45,5.81-20.42,8.15a167.48,167.48,0,0,1-30.08,7.39A135.27,135.27,0,0,1,177,42.66,111.71,111.71,0,0,1,145.89,38c-.74-.22-1.51-.33-2.26-.5A6.11,6.11,0,0,0,144,40.58Z"/><path class="cls-4" d="M143.44,36.65a1.47,1.47,0,0,0-.27-1.8A2.2,2.2,0,0,0,143.44,36.65Z"/><path class="cls-3" d="M246.56,22.92l-.22-.21.2.22Z"/><path class="cls-3" d="M248.13,25l-.24-.21.2.24Z"/><path class="cls-3" d="M246.54,22.93l.22.21-.2-.22Z"/><path class="cls-3" d="M248.07,25.59l.54,0-.49-.57,0,0C248.08,25.21,248.08,25.4,248.07,25.59Z"/><path class="cls-5" d="M327,195l16-7c-5.13-10.48-37.79-77.28-46.07-94.54l-5.32-11.11c-3.25-6.77-6.42-13.59-9.7-20.34-2.15-4.42-4.43-8.76-6.66-13.13-3.26,1.22-5.31,3.88-7.58,6.5-.67-1.28,0-2.37.06-3.48.06-3.94.38-7.87-.23-11.83-.35-2.34-1.12-2.15-2.79-1.34-3.63,1.76-7.32,3.37-11,5.05,0,1.28-.84,2.22-1.44,3.25q-8.88,15.3-17.78,30.6Q223.9,95.81,213.24,114l1.36.13c1.15-.18,2.32-.55,3.4.24,3.37.08,6.79-.17,10.09.34,3.57.56,5.39-.84,7.19-3.74,9.59-15.47,20.25-30.26,29.38-46.06Q281.91,100.5,299,136.19,313,165.56,327,195Z"/><path class="cls-7" d="M213.85,76.46c-2.15,4.22-5.11,7.91-7.68,11.86-4.87,7.48-9.84,14.9-14.76,22.35,1.15.61-.36,1.34.08,2,6.27.5,12.6-.56,18.84.69,3.43-5.77,6.9-11.52,10.29-17.31,7.08-12.13,14.2-24.23,21.15-36.43,2.51-4.41,5.45-8.58,7.46-13.28a71.39,71.39,0,0,0-17.55,9.82c-2.93,2.16-5,5.2-8.09,7.19l.07.06-.52.52h0a1,1,0,0,1-.53,1h0l-.74.51C218.72,68.78,216.76,73,213.85,76.46Z"/><path class="cls-4" d="M275.25,48.88,343,188l2-2q-33.44-69.28-66.86-138.58Z"/><path class="cls-3" d="M213.85,76.46c2.91-3.49,4.87-7.68,8-11l.74-.51h0c-.11-.49,0-.88.53-1h0c0-.33.17-.53.52-.52l-.07-.06c.74-3,3.24-5.08,4.9-8.37L216,60.85a1.21,1.21,0,0,1-1.11.51h0l-.57.4a2.07,2.07,0,0,1-.43.1c-4.24,2.1-8.46,4.24-12.72,6.3-3.49,1.69-7,3.3-10.54,4.94C197.91,77.3,205.74,77.82,213.85,76.46Z"/><path class="cls-4" d="M367.74,40.61l2.1-2.54c-7.64-1.14-15.29-2.25-22.93-3.42-10.6-1.63-21.21-3.25-31.8-5-7.28-1.19-14.63-1.94-21.82-3.65l-1.52,0a3.89,3.89,0,0,1-.49.12,3.45,3.45,0,0,1-2.6,1l-.59.41-.08,0c2.59,1.92,5.76,1.5,8.66,2,15.77,2.6,31.58,5,47.38,7.4Z"/><path class="cls-4" d="M249.23,46.34c-2,4.7-4.95,8.87-7.46,13.28-7,12.2-14.07,24.3-21.15,36.43-3.39,5.79-6.86,11.54-10.29,17.31,0,.18-.05.36-.07.54l3,.06q10.63-18.17,21.26-36.33,8.91-15.28,17.78-30.6c.6-1,1.4-2,1.44-3.25Z"/><path class="cls-7" d="M275,50l4-2c-3.82-6.78-6.58-11.69-6.95-12.44a1,1,0,0,0-.51-.55,1.61,1.61,0,0,0-1.24.2,1.05,1.05,0,0,0-.62.56,1.37,1.37,0,0,0,.22,1.12C270.41,37.75,272.33,42.77,275,50Z"/><path class="cls-7" d="M214.86,61.36a1.21,1.21,0,0,0,1.11-.51C215.52,60.84,215.09,60.88,214.86,61.36Z"/><path class="cls-7" d="M291.28,26.12a3.89,3.89,0,0,0,.49-.12C291.51,25.66,291.36,25.73,291.28,26.12Z"/><path class="cls-7" d="M288.09,27.52l.59-.41Z"/><path class="cls-7" d="M167.55,62.82h.57C167.93,62.57,167.74,62.58,167.55,62.82Z"/><path class="cls-7" d="M214.29,61.76l.57-.4Z"/><path class="cls-2" d="M367.06,858.25c-11.27,14.1-22.49,28.23-33.87,42.23-1.47,1.82-1.53,3.09-.7,5.14q17.64,43.78,35.11,87.65l-169.88,0a8.83,8.83,0,0,1-1-.11c.62-5.54,2.24-10.88,3.35-16.33q5.94-29,12.37-58c2.71-12.2,4.68-24.56,8.34-36.54a198.52,198.52,0,0,1,31.08-61.62c12.34-16.42,28-29.71,42.16-44.46,1.18-1.24,1.68-.81,2.48.48q5.32,8.54,10.86,17A274,274,0,0,0,354.56,848c3.9,3.46,8.29,6.37,12.45,9.54C367,857.75,367.05,858,367.06,858.25Z"/><path class="cls-8" d="M102.56,835.83l1.34-1.11c1.73.28,2.47-.69,2.76-2.21l0,0c1.52.17,2.56-.76,3.67-1.56,16.44-12,34.11-21.88,52.12-31.21,12.34-6.4,25.18-11.77,38.07-16.95,6.29-2.52,12.71-4.71,19.06-7.05.4,1.09,0,1.46-.5,1.79-8.06,5.54-15.85,11.46-23.67,17.33A128.08,128.08,0,0,0,172.64,817a152.8,152.8,0,0,0-18.11,28.42,133.1,133.1,0,0,0-9.85,26.87c-3,11.89-5.19,24-7.7,36q-5.5,26.32-11,52.65c-2.26,10.77-4.58,21.53-6.87,32.3q-22.3.06-44.61.11-31.23,0-62.46,0c.12-2,.23-4.1.35-6.15q2.58-12.86,5.15-25.73,4.07-12.5,8.12-25,5.55-12,11.09-23.94l13.91-22.36L67,869.18q9.16-9.49,18.31-19l16.64-14C102.58,836.73,102.52,836.2,102.56,835.83Z"/><path class="cls-3" d="M367,857.5c-4.16-3.17-8.55-6.08-12.45-9.54a274,274,0,0,1-47.22-54.26q-5.55-8.4-10.86-17c-.8-1.29-1.3-1.72-2.48-.48-14.13,14.75-29.82,28-42.16,44.46a198.52,198.52,0,0,0-31.08,61.62c-3.66,12-5.63,24.34-8.34,36.54q-6.42,28.93-12.37,58c-1.11,5.45-2.73,10.79-3.35,16.33H146.85c1.19-5.92,2.32-11.85,3.56-17.76,7.1-33.56,14.31-67.1,21.32-100.68a152.26,152.26,0,0,1,16.36-44.42c11.66-20.6,28-36.66,47.35-50.07,10.58-7.35,20.95-15,31-23.12a26.67,26.67,0,0,0,6.11-4.61,37.92,37.92,0,0,0,7.94-6.33l3.53-2.86c1.17.14,1.26,1.15,1.63,2,3.13,6.73,6.09,13.55,9.7,20.05,4.36,7.78,8.45,15.73,13.81,22.9,4.51,8,10.13,15.23,15.83,22.4a191.39,191.39,0,0,0,17.25,20c5.68,7.17,12.69,13,19.33,19.19l6.13,5.44C367.7,856.13,367.82,857,367,857.5Z"/><path class="cls-6" d="M266.44,757.15c-10.05,8.09-20.42,15.77-31,23.12-19.32,13.41-35.69,29.47-47.35,50.07a152.26,152.26,0,0,0-16.36,44.42c-7,33.58-14.22,67.12-21.32,100.68-1.24,5.91-2.37,11.84-3.56,17.76H119.13c2.29-10.77,4.61-21.53,6.87-32.3q5.52-26.32,11-52.65c2.51-12,4.73-24.07,7.7-36a133.1,133.1,0,0,1,9.85-26.87A152.8,152.8,0,0,1,172.64,817a128.08,128.08,0,0,1,22.72-22.09C203.18,789,211,783.12,219,777.58c.48-.33.9-.7.5-1.79-6.35,2.34-12.77,4.53-19.06,7.05-12.89,5.18-25.73,10.55-38.07,16.95-18,9.33-35.68,19.25-52.12,31.21-1.11.8-2.15,1.73-3.67,1.56,5.38-5.09,11.66-9,17.69-13.21.82-.58,1.61-1.2,2.42-1.8l22.75-14.19,23.43-12.31,24.27-11,24.88-9.75c8.55-2.48,17-5.36,25.35-8.39,5.62-.91,10.86-3.19,16.37-4.48A6.22,6.22,0,0,1,266.44,757.15Z"/><path class="cls-6" d="M395.44,993.15A54.52,54.52,0,0,1,391,955.87c.36-1.55-.52-2.31-1.44-3.18a51.59,51.59,0,0,1-13.48-21.55c-.15-.43-.35-.85-.46-1.29-.31-1.23-.76-2.64,1-3.11,1.46-.38,1.95.81,2.32,2a56.93,56.93,0,0,0,4.75,11,56,56,0,0,0,6.71,9.07c1.57,1.79,2.34,1.56,3.18-.56a48.38,48.38,0,0,1,20.84-24.23c11.35-6.77,23.52-10.83,36.93-8.27,9,1.73,15.39,7,17.65,16.17s-1.16,16.41-7.79,22.42c-8.86,8-19.71,11.23-31.35,12.08a53.09,53.09,0,0,1-32.74-7.83c-3.12-1.94-3.26-1.88-3.75,1.82-1.53,11.7.36,22.73,6.51,32.91Zm31.81-30.06c2.12-.22,5.22-.36,8.24-.91,10.11-1.82,19.45-5.34,26.27-13.5,8.59-10.29,4.1-24.92-8.7-28.89a32.41,32.41,0,0,0-16.61-.66c-18.21,3.86-31.89,13.65-40.07,30.67-1.18,2.46-.78,3.77,1.56,5.24C406.63,960.48,416.14,962.8,427.25,963.09Z"/><path class="cls-1" d="M451,993.17c-13.69.21-27.38.29-41.08,0,6.88-9.81,16.36-15.13,28.27-15.2C448.05,977.87,452.85,984,451,993.17Z"/><path class="cls-6" d="M451,993.17c1.81-9.15-3-15.3-12.81-15.24-11.91.07-21.39,5.39-28.27,15.2l-4.3.08c6.07-12.06,23.15-20.77,36.26-18.5,9.31,1.62,14.3,8.84,12.76,18.48Z"/><path class="cls-1" d="M12.41,987.11c-.12,2-.23,4.1-.35,6.15l-7,0c.21-2.29.11-4.62,1-6.82Z"/><path class="cls-8" d="M157.54,154.9a31.52,31.52,0,0,0,63-.15,31.52,31.52,0,0,0-63,.15Z"/><path class="cls-8" d="M257,226l59-27c-11.25-16.49-30.11-23-44.06-17.19a31.45,31.45,0,0,0-17.35,19.5A32.74,32.74,0,0,0,257,226Z"/><path class="cls-8" d="M297,132,275,86a28.9,28.9,0,0,0-4.44,12.84,29.82,29.82,0,0,0,2.84,15.36,35,35,0,0,0,6.23,9.24C282.3,126.3,287,131.35,294,132A15.56,15.56,0,0,0,297,132Z"/><path class="cls-2" d="M191,113.54l17.51.42c.6,0,1.2,0,1.8-.06,0-.18.05-.36.07-.54-6.24-1.25-12.57-.19-18.84-.69-.44-.66,1.07-1.39-.08-2C191.21,111.62,188.6,112.19,191,113.54Z"/><path class="cls-3" d="M287.36,733.92q-8.79-42.57-17.57-85.16a12.57,12.57,0,0,1-.09-2c1,0,1.26.86,1.6,1.57q7.47,15.93,14.93,31.89c5.29,11.37,10.41,22.82,15.84,34.13,1.64,3.42,2.92,7.09,5.59,10.64l6.84-42.85.66-.08c1.56,5.49,3.14,11,4.67,16.49q6.1,22,12.16,44c.22.8,1,1.7-.18,2.4h-3.32c-8.94-2.86-18.18-4.41-27.36-6.2-3.29-.74-6.57-1.53-9.87-2.21C289.56,736.21,288.08,735.67,287.36,733.92Z"/><path class="cls-6" d="M285.94,578.77c4.74-2.71,9.93-4.25,15.17-5.64a118.44,118.44,0,0,1,28.09-4c-.5,4.6-2.61,8.9-2.52,13.61-9.49-.51-19-.84-28.41-2.31C294.17,579.78,290,580,285.94,578.77Z"/><path class="cls-1" d="M384.08,757A36.38,36.38,0,0,0,383,761.2c-.2,1.25-.79,1.74-2,1.67L355,757l1.53-6.3q13.11,2.67,26.22,5.38C383.2,756.21,383.62,756.71,384.08,757Z"/><path class="cls-6" d="M356.48,750.72,355,757l-28.34-5.78c1.66-1.78,1.22-4.19,1.88-6.27h3.32c7.76,2.46,15.76,3.86,23.72,5.42A6.74,6.74,0,0,1,356.48,750.72Z"/><path class="cls-6" d="M287.36,733.92c.72,1.75,2.2,2.29,3.9,2.64,3.3.68,6.58,1.47,9.87,2.21a26.34,26.34,0,0,0-1.43,6.56c-1.33-.22-2.66-.45-4-.65-.63-.09-1.34-.71-1.89,0s.06,1.5.39,2.17c2.45,5.09,4.94,10.16,7.42,15.24a16.48,16.48,0,0,0-6.27,3.31c-3.61-6.5-6.57-13.32-9.7-20.05-.37-.81-.46-1.82-1.63-2,.26-.61.73-1.14.4-1.9-1.13-2.59-.78-4.67,2.11-5.81C287.33,735.32,287.29,734.59,287.36,733.92Z"/><path class="cls-1" d="M50.68,890.09,36.77,912.45l-5.65-3c3.72-7.87,8.52-15.08,13.44-22.22a2.31,2.31,0,0,0,.56-1.52,1,1,0,0,0,.35,0C46.5,888,49,888.54,50.68,890.09Z"/><path class="cls-1" d="M25.68,936.39q-4,12.5-8.12,25l-6.28-1.77a143.68,143.68,0,0,1,8.38-25.72Z"/><path class="cls-6" d="M11.28,959.61l6.28,1.77Q15,974.25,12.41,987.11l-6.36-.69c.2-7.28,2.35-14.23,3.66-21.32C10.05,963.24,10.2,961.28,11.28,959.61Z"/><path class="cls-6" d="M25.68,936.39l-6-2.5a141.43,141.43,0,0,1,11.46-24.45l5.65,3Q31.23,924.42,25.68,936.39Z"/><path class="cls-2" d="M385.56,842.27c-5.39-1.77-7.65,2.17-10,5.66-1.56,2.35-2.88,2.66-4.91.61a52.09,52.09,0,0,0-4.44-3.64c-1.76-1.61-3.55-3.17-5.25-4.83-4.65-4.52-9.26-9.08-13.89-13.62L330,806.21c-.72-1-1.43-2-2.17-3.05L314.6,785c.19-1.16-.64-1.88-1.18-2.74-3.3-5.33-6.67-10.62-9.5-16.22,2.92-3.05,5.84-6.08,8.74-9.14a3.21,3.21,0,0,1,3.41-.85q11.79,2.7,23.61,5.23c15.21,3.25,30.41,6.5,45.64,9.63,2.78.58,3.89,1.69,3.74,4.72-.48,10.13.07,20.27-.62,30.42-.74,10.9.19,21.88-.74,32.82A3.78,3.78,0,0,1,385.56,842.27Z"/><path class="cls-3" d="M385.56,842.27a3.78,3.78,0,0,0,2.14-3.37c.93-10.94,0-21.92.74-32.82.69-10.15.14-20.29.62-30.42.15-3-1-4.14-3.74-4.72-15.23-3.13-30.43-6.38-45.64-9.63q-11.82-2.52-23.61-5.23a3.21,3.21,0,0,0-3.41.85c-2.9,3.06-5.82,6.09-8.74,9.14l-2.3-4c-2.48-5.08-5-10.15-7.42-15.24-.33-.67-1-1.41-.39-2.17s1.26,0,1.89,0c1.34.2,2.67.43,4,.65l26.91,5.91L355,757l26,5.85c3.18.65,6.34,1.42,9.54,1.88,1.63.22,2.06.86,2,2.38,0,2.92.08,5.86.13,8.79l-.45,15.8c-.76,2.13-.39,4.31-.25,6.48,0,1.44,0,2.88,0,4.32q-.15,13.83-.28,27.66c-.13,3.25-.37,6.5-.35,9.75,0,2.64-.77,3.8-3.52,2.76A11.77,11.77,0,0,0,385.56,842.27Z"/><path class="cls-6" d="M347.1,826.45c4.63,4.54,9.24,9.1,13.89,13.62,1.7,1.66,3.49,3.22,5.25,4.83-1.9,1.35-3.19,3.26-4.67,5-6.64-6.19-13.65-12-19.33-19.19Z"/><path class="cls-6" d="M391.74,830.18q.13-13.83.28-27.66c2.24,1.08,4.63.37,7,.55-.76,7.63-.2,15.3-.44,22.95,0,1.48-.1,3-.15,4.45Z"/><path class="cls-3" d="M386.85,871.06c2-.13,3.23,1.41,4.76,2.29,3.45,2,6,.6,6.19-3.39.1-1.8.11-3.6.16-5.4,3.37,2.27,4.49,5.54,3.08,9a7.33,7.33,0,0,1-8.22,4.53A7.09,7.09,0,0,1,386.85,871.06Z"/><path class="cls-7" d="M382.76,866.67c1.09,1.21,3.13,1.48,3.45,3.47a153.72,153.72,0,0,1-16-10.16c-1-.69-1.8-1.76-3.19-1.73,0-.25,0-.5-.05-.75.81-.54.69-1.37.69-2.17C373,858.7,377.29,863.48,382.76,866.67Z"/><path class="cls-1" d="M399,803.07c-2.32-.18-4.71.53-7-.55,0-1.44,0-2.88,0-4.32.74-2.13.38-4.31.25-6.48l.45-15.8h6.55c.55,7.35-.18,14.7-.05,22.05C399.21,799.67,399,801.37,399,803.07Z"/><path class="cls-4" d="M214.6,114.09c1.1.62,2.25.33,3.4.24C216.92,113.54,215.75,113.91,214.6,114.09Z"/><path class="cls-3" d="M223.14,63.93c-.55.16-.64.55-.53,1A1,1,0,0,0,223.14,63.93Z"/><path class="cls-3" d="M223.66,63.41c-.35,0-.5.19-.52.52Z"/><path class="cls-3" d="M222.63,65l-.74.51Z"/><path class="cls-1" d="M301.62,762.05l2.3,4c2.83,5.6,6.2,10.89,9.5,16.22.54.86,1.37,1.58,1.18,2.75a20.62,20.62,0,0,0-5.44,3.22c-5.36-7.17-9.45-15.12-13.81-22.9A16.48,16.48,0,0,1,301.62,762.05Z"/><path class="cls-1" d="M347.1,826.45l-4.86,4.25a191.39,191.39,0,0,1-17.25-20c1.24-2,3.43-2.86,5-4.45Z"/><path class="cls-6" d="M330,806.21c-1.57,1.59-3.76,2.49-5,4.45-5.7-7.17-11.32-14.38-15.83-22.4A20.62,20.62,0,0,1,314.6,785l13.22,18.12C328.56,804.17,329.27,805.19,330,806.21Z"/><path class="cls-1" d="M427.25,963.09c-11.11-.29-20.62-2.61-29.31-8.05-2.34-1.47-2.74-2.78-1.56-5.24,8.18-17,21.86-26.81,40.07-30.67a32.41,32.41,0,0,1,16.61.66c12.8,4,17.29,18.6,8.7,28.89-6.82,8.16-16.16,11.68-26.27,13.5C432.47,962.73,429.37,962.87,427.25,963.09Z"/><path class="cls-1" d="M326.61,751.24l-26.91-5.91a26.34,26.34,0,0,1,1.43-6.56c9.18,1.79,18.42,3.34,27.36,6.2C327.83,747.05,328.27,749.46,326.61,751.24Z"/><path class="cls-9" d="M392.23,791.72c.13,2.17.49,4.35-.25,6.48C391.84,796,391.47,793.85,392.23,791.72Z"/></svg>