<?xml version="1.0" encoding="utf-8"?>
<!-- Generator: Adobe Illustrator 24.2.3, SVG Export Plug-In . SVG Version: 6.00 Build 0)  -->
<svg version="1.1" id="Слой_1" xmlns="http://www.w3.org/2000/svg" xmlns:xlink="http://www.w3.org/1999/xlink" x="0px" y="0px"
	 viewBox="0 0 515 286" style="enable-background:new 0 0 515 286;" xml:space="preserve">
<style type="text/css">
	.st0{fill:#58D196;}
	.st1{fill:#FFE473;}
	.st2{fill:#000600;}
	.st3{clip-path:url(#SVGID_2_);fill:url(#SVGID_3_);}
	.st4{clip-path:url(#SVGID_2_);fill:#FF977E;}
	.st5{clip-path:url(#SVGID_2_);fill:#FE3000;}
	.st6{clip-path:url(#SVGID_2_);fill:#EF0B00;}
	.st7{clip-path:url(#SVGID_2_);fill:#FE7B24;}
	.st8{clip-path:url(#SVGID_2_);fill:#FE3100;}
	.st9{clip-path:url(#SVGID_2_);fill:#F1DFD8;}
	.st10{clip-path:url(#SVGID_2_);fill:#F60000;}
	.st11{clip-path:url(#SVGID_2_);fill:#BF1200;}
	.st12{clip-path:url(#SVGID_2_);fill:#FF0000;}
	.st13{clip-path:url(#SVGID_2_);fill:#AC7401;}
	.st14{clip-path:url(#SVGID_5_);fill:#EFE300;}
	.st15{clip-path:url(#SVGID_5_);fill:#FCEA68;}
	.st16{clip-path:url(#SVGID_5_);fill:#FFFEB4;}
	.st17{clip-path:url(#SVGID_5_);fill:#FFFA9F;}
	.st18{clip-path:url(#SVGID_5_);fill:#FFF68A;}
	.st19{clip-path:url(#SVGID_5_);fill:#FFFBD4;}
	.st20{opacity:0.87;clip-path:url(#SVGID_5_);fill:#FFFDE0;}
	.st21{clip-path:url(#SVGID_5_);fill:#EE9658;}
	.st22{clip-path:url(#SVGID_5_);fill:#314255;}
	.st23{clip-path:url(#SVGID_5_);fill:#FEDBB1;}
	.st24{clip-path:url(#SVGID_5_);fill:#FDBA8B;}
	.st25{clip-path:url(#SVGID_5_);}
	.st26{fill:#FFFBD4;}
	.st27{clip-path:url(#SVGID_5_);fill:#FFFDE0;}
	.st28{clip-path:url(#SVGID_7_);fill:#00A7CA;}
	.st29{clip-path:url(#SVGID_7_);fill:none;}
	.st30{clip-path:url(#SVGID_7_);fill:#4DD4F7;}
	.st31{clip-path:url(#SVGID_7_);fill:#6EDBF4;}
	.st32{clip-path:url(#SVGID_7_);fill:#D50C25;}
	.st33{clip-path:url(#SVGID_7_);fill:#B0F1F6;}
	.st34{clip-path:url(#SVGID_7_);fill:#0088B4;}
	.st35{opacity:0.81;}
	.st36{filter:url(#Adobe_OpacityMaskFilter);}
	.st37{opacity:0.74;mask:url(#SVGID_10_);}
	.st38{clip-path:url(#SVGID_12_);fill:#000202;}
	.st39{filter:url(#Adobe_OpacityMaskFilter_1_);}
	.st40{opacity:0.74;mask:url(#SVGID_15_);}
	.st41{clip-path:url(#SVGID_17_);fill:#000202;}
	.st42{opacity:0.75;fill:url(#SVGID_18_);}
	.st43{clip-path:url(#SVGID_20_);fill:#2B747C;}
	.st44{clip-path:url(#SVGID_20_);fill:#55AFB7;}
	.st45{clip-path:url(#SVGID_20_);fill:#3FA5B0;}
	.st46{clip-path:url(#SVGID_20_);fill:#6DCDCF;}
	.st47{clip-path:url(#SVGID_20_);fill:#214180;}
	.st48{fill:#0071C5;}
	.st49{clip-path:url(#SVGID_22_);fill:#83D5FB;}
	.st50{clip-path:url(#SVGID_22_);fill:#00ABF0;}
	.st51{clip-path:url(#SVGID_22_);fill:#57CAF9;}
	.st52{clip-path:url(#SVGID_22_);fill:#0071C5;}
	.st53{clip-path:url(#SVGID_22_);fill:#31C5F8;}
	.st54{clip-path:url(#SVGID_22_);fill:#3DCFF7;}
	.st55{clip-path:url(#SVGID_24_);fill:#00ABF0;}
	.st56{clip-path:url(#SVGID_24_);fill:#83D5FB;}
	.st57{clip-path:url(#SVGID_24_);fill:#31C5F8;}
	.st58{clip-path:url(#SVGID_24_);fill:#0071C5;}
	.st59{clip-path:url(#SVGID_24_);fill:#57CAF9;}
	.st60{clip-path:url(#SVGID_24_);fill:#A6A6A6;}
	.st61{clip-path:url(#SVGID_26_);fill:#D670E1;}
	.st62{clip-path:url(#SVGID_26_);fill:#E5B1EC;}
	.st63{clip-path:url(#SVGID_26_);fill:#8A9093;}
	.st64{clip-path:url(#SVGID_26_);fill:#901C9D;}
	.st65{clip-path:url(#SVGID_26_);fill:#CBCED1;}
	.st66{clip-path:url(#SVGID_26_);fill:#DDD9CF;}
	.st67{clip-path:url(#SVGID_26_);fill:#543F31;}
	.st68{clip-path:url(#SVGID_26_);fill:#C18875;}
	.st69{clip-path:url(#SVGID_26_);fill:#B1B7BA;}
	.st70{clip-path:url(#SVGID_26_);fill:#899093;}
	.st71{clip-path:url(#SVGID_26_);fill:#D39A85;}
	.st72{fill:#E5B1EC;}
	.st73{clip-path:url(#SVGID_28_);}
	.st74{fill:#E097E9;}
	.st75{fill:#D670E1;}
	.st76{clip-path:url(#SVGID_30_);fill:#FFE406;}
	.st77{opacity:0.5;clip-path:url(#SVGID_30_);}
	.st78{fill:#A0C7FF;}
	.st79{fill:#FF8900;}
	.st80{clip-path:url(#SVGID_30_);fill:#FFEA9E;}
	.st81{clip-path:url(#SVGID_30_);}
	.st82{fill:#FFCB33;}
	.st83{fill:#FFEA9E;}
	.st84{fill:#2A356B;}
	.st85{clip-path:url(#SVGID_30_);fill:#FFCB33;}
	.st86{clip-path:url(#SVGID_30_);fill:#A0C7FF;}
	.st87{clip-path:url(#SVGID_30_);fill:#FF8900;}
	.st88{clip-path:url(#SVGID_30_);fill:#2A356B;}
	.st89{fill:#1B254E;}
	.st90{clip-path:url(#SVGID_30_);fill:#C02C28;}
	.st91{clip-path:url(#SVGID_30_);fill:#FF7400;}
	.st92{fill:#FFE406;}
	.st93{clip-path:url(#SVGID_30_);fill:#FFEF6E;}
	.st94{clip-path:url(#SVGID_32_);fill:#FFE473;}
	.st95{fill:#FFFFFF;}
	.st96{fill:#AAD5C0;}
	.st97{fill:none;stroke:#FFFFFF;stroke-miterlimit:10;}
	.st98{fill:#9FC8A8;}
	.st99{fill:#93CA9E;}
	.st100{opacity:0.76;}
	.st101{fill:#C1E6CA;}
	.st102{fill:url(#SVGID_33_);}
	.st103{fill:url(#SVGID_34_);}
	.st104{fill:url(#SVGID_35_);}
	.st105{fill:#F3E3BB;}
	.st106{fill:url(#SVGID_36_);}
	.st107{fill:url(#SVGID_37_);}
	.st108{fill:url(#SVGID_38_);}
	.st109{fill:url(#SVGID_39_);}
	.st110{fill:url(#SVGID_40_);}
	.st111{fill:url(#SVGID_41_);}
	.st112{fill:#E1EBC1;}
	.st113{fill:#ECF8CF;}
	.st114{fill:url(#SVGID_42_);}
	.st115{fill:url(#SVGID_43_);}
	.st116{fill:url(#SVGID_44_);}
	.st117{fill:url(#SVGID_45_);}
	.st118{fill:url(#SVGID_46_);}
	.st119{fill:#FFE190;}
	.st120{clip-path:url(#SVGID_48_);fill:url(#SVGID_49_);}
	.st121{fill:#5B2A1E;}
	.st122{fill:#8D7673;}
	.st123{fill:url(#SVGID_50_);}
	.st124{fill:url(#SVGID_51_);}
	.st125{fill:url(#SVGID_52_);}
	.st126{fill:url(#SVGID_53_);}
	.st127{fill:#FF8A8A;}
	.st128{fill:#FF963A;}
	.st129{opacity:0.75;fill:#FFFFFF;}
	.st130{fill:#FFC181;}
	.st131{fill:none;}
	.st132{clip-path:url(#SVGID_55_);fill:#FFDFBD;}
	.st133{clip-path:url(#SVGID_55_);fill:#FF9D00;}
	.st134{clip-path:url(#SVGID_55_);fill:#FFF3DF;}
	.st135{fill:url(#SVGID_56_);}
	.st136{fill:#FFFEEA;}
	.st137{fill:#A6E5C3;}
	.st138{fill:#D2F2E1;}
	.st139{opacity:0.44;fill:#FFFFFF;}
	.st140{clip-path:url(#SVGID_58_);fill:#FFF9C1;}
	.st141{opacity:0.26;fill:#FFFFFF;}
	.st142{opacity:0.62;fill:#FFFFFF;}
	.st143{opacity:0.41;fill:#FFFFFF;}
	.st144{opacity:0.69;fill:#FFFFFF;}
	.st145{opacity:0.73;fill:#FFFFFF;}
	.st146{opacity:0.16;fill:#FFFFFF;}
	.st147{opacity:0.3;fill:#FFFFFF;}
	.st148{opacity:0.23;fill:#FFFFFF;}
	.st149{opacity:0.24;fill:#FFFFFF;}
	.st150{opacity:0.43;fill:#FFFFFF;}
	.st151{opacity:0.76;fill:#FFFFFF;}
	.st152{opacity:0.08;fill:#FFFFFF;}
	.st153{opacity:0.27;fill:#FFFFFF;}
	.st154{opacity:0.37;fill:#FFFFFF;}
	.st155{opacity:0.54;fill:#FFFFFF;}
	.st156{opacity:0.66;}
	.st157{opacity:0.28;}
	.st158{fill:#55AFB7;}
	.st159{fill:#2AB1B8;}
	.st160{fill:#00ACBD;}
	.st161{fill:#F787A5;}
	.st162{fill:#8F693D;}
	.st163{fill:#FBBACC;}
	.st164{fill:#E6678D;}
	.st165{fill:#574435;}
	.st166{fill:#C6A17C;}
	.st167{fill:#641F1E;}
	.st168{fill:#F15E89;}
	.st169{fill:#E7005E;}
	.st170{fill:#DBB487;}
	.st171{fill:#FF1B6F;}
	.st172{fill:#DCB487;}
	.st173{fill:#F07699;}
	.st174{fill:#F8F8F6;}
	.st175{fill:#F5C1D9;}
	.st176{fill:#E1B7B2;}
	.st177{fill:#FFB9C3;}
	.st178{fill:#FFC5D6;}
	.st179{fill:#D72264;}
	.st180{fill:#F7F7F7;}
	.st181{fill:#F2F2F2;}
	.st182{fill:#FFFBF0;}
	.st183{fill:#FFBFCF;}
	.st184{fill:#FF6794;}
	.st185{fill:#FFC2C1;}
	.st186{fill:#FFCCD5;}
	.st187{fill:#FF6B81;}
	.st188{fill:#B19B8C;}
	.st189{fill:#FFE2EA;}
	.st190{fill:#EFEFEF;}
	.st191{fill:#FF9DAE;}
	.st192{fill:#A0C2D9;}
	.st193{fill:#583B34;}
	.st194{fill:#AFCDE2;}
	.st195{fill:#F9F9F8;}
	.st196{fill:#DECDC5;}
	.st197{fill:#D7926B;}
	.st198{fill:#FFE9F2;}
	.st199{fill:#FFDBE5;}
	.st200{fill:#F2CCC1;}
	.st201{fill:#DF4E50;}
	.st202{fill:#FFFFFF;stroke:#FFFFFF;stroke-width:0.25;stroke-miterlimit:10;}
	.st203{fill:#00C377;}
	.st204{fill:#85E2AC;}
	.st205{fill:#00B45A;}
	.st206{fill:#7FD7A7;}
	.st207{fill:#EFB93A;}
	.st208{fill:#B69C65;}
	.st209{fill:#95CF81;}
	.st210{fill:#3C3724;}
	.st211{fill:#D3BB9F;}
	.st212{fill:#998074;}
	.st213{fill:#587147;}
	.st214{fill:#E4D3BB;}
	.st215{fill:#5CC386;}
	.st216{clip-path:url(#SVGID_60_);fill:#A6E5C3;}
	.st217{clip-path:url(#SVGID_60_);fill:#FFFFFF;}
	.st218{clip-path:url(#SVGID_60_);fill:#58D196;}
	.st219{fill:#FFEF6E;}
	.st220{fill:#FFE200;}
	.st221{clip-path:url(#SVGID_62_);fill:#FDA157;}
	.st222{clip-path:url(#SVGID_62_);fill-rule:evenodd;clip-rule:evenodd;fill:#FF8429;}
	.st223{clip-path:url(#SVGID_62_);fill:#F35000;}
	.st224{clip-path:url(#SVGID_62_);fill:#F6B646;}
	.st225{fill:#F35000;}
	.st226{fill:#FF8429;}
	.st227{fill:#FFA933;}
	.st228{fill:#E26D00;}
	.st229{fill:#EC6406;}
	.st230{fill:#FF9900;}
	.st231{fill:#130077;}
	.st232{fill:#FFB58D;}
	.st233{opacity:0.3;}
	.st234{fill:#FF7300;}
	.st235{fill:#6E0000;}
	.st236{fill-rule:evenodd;clip-rule:evenodd;fill:#FF9900;}
	.st237{fill-rule:evenodd;clip-rule:evenodd;fill:url(#SVGID_63_);}
	.st238{opacity:0.3;fill-rule:evenodd;clip-rule:evenodd;fill:#A1002C;}
	.st239{fill-rule:evenodd;clip-rule:evenodd;fill:url(#SVGID_64_);}
	.st240{fill-rule:evenodd;clip-rule:evenodd;fill:url(#SVGID_65_);}
	.st241{opacity:0.5;fill-rule:evenodd;clip-rule:evenodd;fill:url(#SVGID_66_);}
	.st242{fill-rule:evenodd;clip-rule:evenodd;fill:#FFC182;}
	.st243{fill-rule:evenodd;clip-rule:evenodd;fill:url(#SVGID_67_);}
	.st244{fill-rule:evenodd;clip-rule:evenodd;fill:url(#SVGID_68_);}
	.st245{fill-rule:evenodd;clip-rule:evenodd;fill:url(#SVGID_69_);}
	.st246{opacity:0.5;fill-rule:evenodd;clip-rule:evenodd;fill:url(#SVGID_70_);}
	.st247{fill-rule:evenodd;clip-rule:evenodd;fill:#FDA157;}
	.st248{opacity:0.5;fill-rule:evenodd;clip-rule:evenodd;fill:#FDA157;}
	.st249{fill-rule:evenodd;clip-rule:evenodd;fill:#FF8429;}
	.st250{fill-rule:evenodd;clip-rule:evenodd;fill:#FFA933;}
	.st251{opacity:0.62;fill-rule:evenodd;clip-rule:evenodd;fill:#C5002A;}
	.st252{opacity:0.5;fill-rule:evenodd;clip-rule:evenodd;fill:#FF8429;}
	.st253{opacity:0.5;fill-rule:evenodd;clip-rule:evenodd;fill:#8C5472;}
	.st254{opacity:0.3;fill-rule:evenodd;clip-rule:evenodd;fill:url(#SVGID_71_);}
	.st255{opacity:0.5;fill-rule:evenodd;clip-rule:evenodd;fill:url(#SVGID_72_);}
	.st256{opacity:0.3;fill-rule:evenodd;clip-rule:evenodd;fill:url(#SVGID_73_);}
	.st257{opacity:0.3;fill-rule:evenodd;clip-rule:evenodd;fill:url(#SVGID_74_);}
	.st258{clip-path:url(#SVGID_76_);}
	.st259{clip-path:url(#SVGID_76_);fill:#FF8429;}
	.st260{fill:#FDA157;}
	.st261{clip-path:url(#SVGID_78_);}
	.st262{fill:#F58800;}
	.st263{clip-path:url(#SVGID_80_);}
	.st264{fill:#F6B646;}
	.st265{clip-path:url(#SVGID_82_);}
	.st266{clip-path:url(#SVGID_82_);fill:#FF8429;}
	.st267{fill-rule:evenodd;clip-rule:evenodd;fill:url(#SVGID_83_);}
	.st268{fill-rule:evenodd;clip-rule:evenodd;fill:url(#SVGID_84_);}
	.st269{fill-rule:evenodd;clip-rule:evenodd;fill:url(#SVGID_85_);}
	.st270{opacity:0.5;fill-rule:evenodd;clip-rule:evenodd;fill:url(#SVGID_86_);}
	.st271{fill-rule:evenodd;clip-rule:evenodd;fill:url(#SVGID_87_);}
	.st272{fill-rule:evenodd;clip-rule:evenodd;fill:url(#SVGID_88_);}
	.st273{fill-rule:evenodd;clip-rule:evenodd;fill:url(#SVGID_89_);}
	.st274{opacity:0.5;fill-rule:evenodd;clip-rule:evenodd;fill:url(#SVGID_90_);}
	.st275{opacity:0.3;fill-rule:evenodd;clip-rule:evenodd;fill:url(#SVGID_91_);}
	.st276{opacity:0.5;fill-rule:evenodd;clip-rule:evenodd;fill:url(#SVGID_92_);}
	.st277{opacity:0.3;fill-rule:evenodd;clip-rule:evenodd;fill:url(#SVGID_93_);}
	.st278{opacity:0.3;fill-rule:evenodd;clip-rule:evenodd;fill:url(#SVGID_94_);}
	.st279{opacity:0.88;fill:#FFFEF3;}
	.st280{fill:#FFCD66;}
	.st281{fill:#ADA9AA;}
	.st282{fill:#FFE585;}
	.st283{fill:#F4C500;}
	.st284{fill:#FFE894;}
	.st285{clip-path:url(#SVGID_96_);fill:#FFCB33;}
	.st286{clip-path:url(#SVGID_96_);fill:#FFE406;}
	.st287{clip-path:url(#SVGID_98_);fill:#901C9D;}
	.st288{opacity:0.5;clip-path:url(#SVGID_98_);}
	.st289{fill:#901C9D;}
	.st290{clip-path:url(#SVGID_98_);}
	.st291{clip-path:url(#SVGID_100_);fill:#E097E9;}
	.st292{fill:#CC37D8;}
	.st293{opacity:0.5;fill:#FFFFFF;}
	.st294{opacity:0.5;fill:#FFFFFF;stroke:#FFFFFF;stroke-miterlimit:10;}
	.st295{opacity:0.68;fill:#FFFFFF;}
	.st296{fill:#F0C6F4;}
	.st297{fill:#D7A0DF;}
	.st298{fill:#A87B41;}
	.st299{fill:#8A9093;}
	.st300{fill:#CBCED1;}
	.st301{fill:#DDD9CF;}
	.st302{fill:#543F31;}
	.st303{fill:#C18875;}
	.st304{fill:#B1B7BA;}
	.st305{fill:#899093;}
	.st306{fill:#D39A85;}
	.st307{fill:#3DCFF7;}
	.st308{fill:#57CAF9;}
	.st309{fill:#F92405;}
	.st310{fill:#B30000;}
	.st311{fill:#FA3C20;}
	.st312{fill:#E09E80;}
	.st313{fill:#950000;}
	.st314{fill:#F50000;}
	.st315{clip-path:url(#SVGID_102_);fill:#F787A5;}
	.st316{clip-path:url(#SVGID_102_);fill:#FFE9F2;}
	.st317{clip-path:url(#SVGID_102_);fill:#D3CFB3;}
	.st318{clip-path:url(#SVGID_102_);fill:#FFDBE5;}
	.st319{clip-path:url(#SVGID_102_);}
	.st320{clip-path:url(#SVGID_102_);fill:#FFC5D6;}
	.st321{fill:#F88EB2;}
	.st322{fill:#BAA292;}
	.st323{fill:#63443C;}
	.st324{fill:#CDA99E;}
	.st325{fill:#9FC1D8;}
	.st326{fill:#997972;}
	.st327{fill:#77573F;}
	.st328{opacity:0.45;fill:#FFFFFF;}
	.st329{opacity:0.8;fill:#FFFFFF;}
	.st330{opacity:0.79;fill:#FFFFFF;}
	.st331{opacity:0.46;}
	.st332{opacity:0.86;fill:#FFFFFF;}
	.st333{fill-rule:evenodd;clip-rule:evenodd;fill:#FA3C20;}
	.st334{fill-rule:evenodd;clip-rule:evenodd;fill:#CE0707;}
	.st335{fill-rule:evenodd;clip-rule:evenodd;fill:#F92405;}
	.st336{fill-rule:evenodd;clip-rule:evenodd;fill:#F50000;}
	.st337{fill-rule:evenodd;clip-rule:evenodd;fill:#F75F53;}
	.st338{fill:#F75F53;}
	.st339{clip-path:url(#SVGID_104_);fill:#574435;}
	.st340{clip-path:url(#SVGID_104_);fill:#C6A17C;}
	.st341{clip-path:url(#SVGID_104_);fill:#8F693D;}
	.st342{clip-path:url(#SVGID_104_);fill:#CE0707;}
	.st343{clip-path:url(#SVGID_104_);fill:#FA3C20;}
	.st344{clip-path:url(#SVGID_104_);fill:#950000;}
	.st345{clip-path:url(#SVGID_104_);fill:#F75F53;}
	.st346{clip-path:url(#SVGID_104_);fill:#131212;}
	.st347{clip-path:url(#SVGID_104_);fill:#B30000;}
	.st348{clip-path:url(#SVGID_104_);fill:#412A1A;}
	.st349{clip-path:url(#SVGID_104_);fill:#DCC4AD;}
	.st350{clip-path:url(#SVGID_104_);fill:#BD835C;}
	.st351{fill:#CE0707;}
	.st352{fill:#A99BB6;}
	.st353{fill:#381A12;}
	.st354{fill:#E9C9B6;}
	.st355{fill:#AA9CB9;}
	.st356{fill:#F6F4F3;}
	.st357{fill:#0A345E;}
	.st358{fill:#412A1A;}
	.st359{fill:#131212;}
	.st360{fill:#DCC4AD;}
	.st361{fill:#BD835C;}
	.st362{fill:#83D5FB;}
	.st363{fill:#00ABF0;}
	.st364{fill:#31C5F8;}
	.st365{opacity:0.34;fill:#FFFFFF;}
	.st366{opacity:0.25;fill:#FFFFFF;}
	.st367{opacity:0.6;fill:#FFFFFF;}
	.st368{fill:#B0AEAB;}
	.st369{fill:#0D0707;}
	.st370{fill:#A6A6A6;}
	.st371{fill:#0068A6;}
	.st372{opacity:0.6;}
	.st373{opacity:0.17;fill:#FFFFFF;}
	.st374{opacity:0.39;fill:#FFFFFF;}
	.st375{opacity:0.71;fill:#FFFFFF;}
	.st376{fill:url(#SVGID_105_);}
	.st377{clip-path:url(#SVGID_107_);fill:#FFDFBD;}
	.st378{clip-path:url(#SVGID_107_);fill:#FF9D00;}
	.st379{clip-path:url(#SVGID_107_);fill:#FFF3DF;}
	.st380{clip-path:url(#SVGID_109_);fill:#FFBAE4;}
	.st381{opacity:0.8;clip-path:url(#SVGID_109_);fill:#FE82C8;}
	.st382{clip-path:url(#SVGID_109_);fill:#FE82C8;}
	.st383{opacity:0.79;clip-path:url(#SVGID_109_);fill:#FFBAE4;}
	.st384{fill:url(#SVGID_110_);}
	.st385{clip-path:url(#SVGID_112_);fill:#FFF9C1;}
	.st386{fill:url(#SVGID_113_);}
	.st387{fill:url(#SVGID_114_);}
	.st388{opacity:0.86;fill:#FFCCD5;}
	.st389{fill:url(#SVGID_115_);}
	.st390{opacity:0.4;}
	.st391{clip-path:url(#SVGID_117_);}
	.st392{clip-path:url(#SVGID_117_);fill:none;}
	.st393{fill:#6DCDCF;}
	.st394{fill:#2B747C;}
	.st395{fill:#1E1E1E;}
	.st396{fill:#272727;}
	.st397{fill:#3FA5B0;}
	.st398{fill:#1F1F1F;}
	.st399{fill:#242424;}
	.st400{fill-rule:evenodd;clip-rule:evenodd;fill:#2B747C;}
	.st401{fill-rule:evenodd;clip-rule:evenodd;fill:#6DCDCF;}
	.st402{fill-rule:evenodd;clip-rule:evenodd;fill:#3FA5B0;}
	.st403{clip-path:url(#SVGID_119_);fill:#3FA5B0;}
	.st404{clip-path:url(#SVGID_119_);fill:#2AB1B8;}
	.st405{clip-path:url(#SVGID_119_);fill:#55AFB7;}
	.st406{clip-path:url(#SVGID_119_);fill:#00ACBD;}
	.st407{clip-path:url(#SVGID_119_);fill:#616161;}
	.st408{clip-path:url(#SVGID_119_);fill:#6DCDCF;}
	.st409{clip-path:url(#SVGID_119_);fill:#2B747C;}
	.st410{fill:url(#SVGID_120_);}
	.st411{fill:url(#SVGID_121_);}
	.st412{fill:url(#SVGID_122_);}
	.st413{fill:url(#SVGID_123_);}
	.st414{fill:url(#SVGID_124_);}
	.st415{fill:url(#SVGID_125_);}
	.st416{fill:url(#SVGID_126_);}
	.st417{fill:url(#SVGID_127_);}
	.st418{fill:url(#SVGID_128_);}
	.st419{fill:url(#SVGID_129_);}
	.st420{fill:url(#SVGID_130_);}
	.st421{fill:url(#SVGID_131_);}
	.st422{fill:url(#SVGID_132_);}
	.st423{fill:url(#SVGID_133_);}
	.st424{clip-path:url(#SVGID_135_);fill:url(#SVGID_136_);}
	.st425{fill:url(#SVGID_137_);}
	.st426{fill:url(#SVGID_138_);}
	.st427{fill:url(#SVGID_139_);}
	.st428{fill:url(#SVGID_140_);}
	.st429{clip-path:url(#SVGID_142_);fill:url(#SVGID_143_);}
	.st430{clip-path:url(#SVGID_142_);}
	.st431{opacity:0.75;clip-path:url(#SVGID_142_);fill:url(#SVGID_146_);}
	.st432{fill:none;stroke:#FFFFFF;stroke-width:2;stroke-miterlimit:10;}
	.st433{fill:#EFC2A7;}
	.st434{fill:none;stroke:#FFFFFF;stroke-width:0.75;stroke-miterlimit:10;}
	.st435{fill:none;stroke:#FFFFFF;stroke-width:3;stroke-miterlimit:10;}
	.st436{fill:url(#SVGID_153_);}
	.st437{fill:url(#SVGID_154_);}
	.st438{filter:url(#Adobe_OpacityMaskFilter_2_);}
	.st439{opacity:0.74;mask:url(#SVGID_157_);}
	.st440{clip-path:url(#SVGID_159_);fill:#000202;}
	.st441{opacity:0.75;fill:url(#SVGID_160_);}
	.st442{clip-path:url(#SVGID_162_);}
	.st443{fill:#1A1A1A;}
	.st444{fill:url(#SVGID_163_);}
	.st445{fill:url(#SVGID_164_);}
	.st446{clip-path:url(#SVGID_166_);}
	.st447{fill:url(#SVGID_177_);}
	.st448{filter:url(#Adobe_OpacityMaskFilter_3_);}
	.st449{opacity:0.74;mask:url(#SVGID_180_);}
	.st450{clip-path:url(#SVGID_182_);fill:#000202;}
	.st451{opacity:0.75;fill:url(#SVGID_183_);}
	.st452{fill:none;stroke:#FFFFFF;stroke-width:4;stroke-miterlimit:10;}
	.st453{fill:#FFFFFF;stroke:#FFFFFF;stroke-miterlimit:10;}
	.st454{clip-path:url(#SVGID_193_);}
	.st455{opacity:0.37;clip-path:url(#SVGID_193_);}
	.st456{opacity:0.53;clip-path:url(#SVGID_193_);}
	.st457{fill:#352417;}
	.st458{fill:#FEC3B5;}
	.st459{fill:#FFE4DA;}
	.st460{fill:#9E7458;}
	.st461{fill:#B0805C;}
	.st462{opacity:0.87;fill:#FFFDE0;}
	.st463{fill:#314255;}
	.st464{fill:#FDBA8B;}
	.st465{fill:#FFFDE0;}
	.st466{opacity:0.95;fill:#F9B4E7;}
	.st467{fill:#FE82C8;}
	.st468{opacity:0.63;fill:#F94BAB;}
	.st469{opacity:0.37;fill:#F94BAB;}
	.st470{fill:#FFDFBD;}
	.st471{fill:#FFF3DF;}
	.st472{fill:#58595B;}
	.st473{fill:#FCD1A9;}
	.st474{fill:#FF5700;}
	.st475{fill:#FFF6E2;}
	.st476{opacity:0.37;fill:#FFDFBD;}
	.st477{opacity:0.53;}
	.st478{fill:#8B5E50;}
	.st479{fill:#29CE61;}
	.st480{fill:#02B769;}
	.st481{fill:#C18C65;}
	.st482{fill:#B49B83;}
	.st483{fill:#C6AC94;}
	.st484{fill:#F0EEE6;}
	.st485{fill:#DDD7CF;}
	.st486{fill:#FF977E;}
	.st487{fill:#FE3000;}
	.st488{fill:#EF0B00;}
	.st489{fill:#FE7B24;}
	.st490{fill:#F60000;}
	.st491{fill:#BF1200;}
	.st492{fill:#FE3100;}
	.st493{fill:#FF0000;}
	.st494{fill:#AC7401;}
	.st495{fill:#656768;}
	.st496{fill:#4DD4F7;}
	.st497{fill:#00A7CA;}
	.st498{fill:#6EDBF4;}
	.st499{fill:#D50C25;}
	.st500{fill:#B0F1F6;}
	.st501{fill:#0088B4;}
	.st502{fill:#005EB1;}
	.st503{fill:none;stroke:#259ADD;stroke-miterlimit:10;}
	.st504{fill:#259ADD;}
	.st505{opacity:0.4;fill:#00336C;}
	.st506{fill:#0089D9;}
	.st507{fill:none;stroke:#005EB1;stroke-width:0.8397;stroke-linecap:round;stroke-linejoin:round;stroke-miterlimit:10;}
	.st508{fill:none;stroke:#83D5FB;stroke-miterlimit:10;}
</style>
<path class="st0" d="M82,243c126.23,0,252.47,0,378.7,0c18.43,14.33,36.87,28.67,55.3,43c-172,0-344,0-516,0
	C27.33,271.67,54.67,257.33,82,243z"/>
<g>
	<polygon class="st478" points="401.08,199.41 249.89,199.41 244.5,11.33 406.47,11.33 	"/>
	<polygon class="st137" points="253.24,195.96 247.95,11.33 403.03,11.33 397.73,195.96 	"/>
	<g>
		<rect x="289.72" y="11.33" class="st203" width="1.15" height="186.06"/>
	</g>
	<g>
		<rect x="362.47" y="11.33" class="st203" width="1.15" height="186.06"/>
	</g>
	<g>
		
			<rect x="250.39" y="148.51" transform="matrix(0.9999 -0.0136 0.0136 0.9999 -2.0045 4.4585)" class="st203" width="150.51" height="1.15"/>
	</g>
	<g>
		
			<rect x="324.91" y="6.9" transform="matrix(2.765765e-03 -1 1 2.765765e-03 240.1506 409.6873)" class="st203" width="1.15" height="155.08"/>
	</g>
</g>
<path class="st479" d="M242.91,2.48c-3.21,11.51-2.18,24.45-2.11,36.27c0.05,9.16,0.34,18.31,0.35,27.47c0,0.5,0.01,1-0.01,1.49
	c-0.33,13.47-1.63,26.89-2.38,40.34c-0.96,17.1-1.04,34.24-1.12,51.37c-0.07,14.72-0.13,29.46,1.3,44.11
	c1.21,12.41,3.42,25.42-1.2,37.01c-5.85-0.5-11.97-2.44-17.8-1.69c6.01-7.4,8-18.85,8.95-28.06c1.7-16.44-0.01-32.97-0.32-49.44
	c-0.6-31.73,1.18-63.45,1.54-95.08c0.18-15.77-1.6-31.49-2.37-47.22c-0.31-6.32-0.57-12.63-0.8-18.95
	c5.23,1.66,10.82,2.13,16.25,1.37C243.1,1.8,243,2.14,242.91,2.48z"/>
<path class="st203" d="M248.78,3.09c0.17,0.03,0.35,0.06,0.52,0.09c-1.56,9.15,0.33,17.8,0.43,26.9
	c0.12,10.18,0.09,20.36-0.01,30.55c-0.2,20.37-0.73,40.74-1.09,61.11c-0.51,28.72-0.71,57.45-0.9,86.19
	c-0.07,10.46-0.14,20.92-0.21,31.38c-3.66,0.3-8.24-0.36-11.86,0.51c2.76-49.79,2.62-101.25,1.4-151.19
	c-0.67-27.25-0.17-54.51,1.95-81.72c0.05-0.64,0.11-1.3,0.45-1.85c0.43-0.68,1.22-1.04,1.98-1.31
	C243.79,2.94,246.33,2.72,248.78,3.09z"/>
<path class="st479" d="M256.9,6.09c0.13,53.87,0.26,107.81-2.32,161.53c-0.66,13.75-1.5,27.56-0.73,41.29
	c0.56,9.93,1.95,19.7,3.34,29.43c-4.01,1.82-8.66,1.18-12.83,1.57c-3.25-77.98,3.67-156.98,0.45-234.96
	C247.93,4.81,253.77,6.22,256.9,6.09z"/>
<path class="st479" d="M398.68,2.48c3.21,11.51,2.18,24.45,2.11,36.27c-0.05,9.16-0.34,18.31-0.35,27.47c0,0.5-0.01,1,0.01,1.49
	c0.33,13.47,1.63,26.89,2.38,40.34c0.96,17.1,1.04,34.24,1.12,51.37c0.07,14.72,0.13,29.46-1.3,44.11
	c-1.21,12.41-3.42,25.42,1.2,37.01c5.85-0.5,11.97-2.44,17.8-1.69c-6.01-7.4-8-18.85-8.95-28.06c-1.7-16.44,0.01-32.97,0.32-49.44
	c0.6-31.73-1.18-63.45-1.54-95.08c-0.18-15.77,1.6-31.49,2.37-47.22c0.31-6.32,0.57-12.63,0.8-18.95
	c-5.23,1.66-10.82,2.13-16.25,1.37C398.49,1.8,398.59,2.14,398.68,2.48z"/>
<path class="st203" d="M392.81,3.09c-0.17,0.03-0.35,0.06-0.52,0.09c1.56,9.15-0.33,17.8-0.43,26.9
	c-0.12,10.18-0.09,20.36,0.01,30.55c0.2,20.37,0.73,40.74,1.09,61.11c0.51,28.72,0.71,57.45,0.9,86.19
	c0.07,10.46,0.14,20.92,0.21,31.38c3.66,0.3,8.24-0.36,11.86,0.51c-2.76-49.79-2.62-101.25-1.4-151.19
	c0.67-27.25,0.17-54.51-1.95-81.72c-0.05-0.64-0.11-1.3-0.45-1.85c-0.43-0.68-1.22-1.04-1.98-1.31
	C397.81,2.94,395.26,2.72,392.81,3.09z"/>
<path class="st479" d="M384.69,6.09c-0.13,53.87-0.26,107.81,2.32,161.53c0.66,13.75,1.5,27.56,0.73,41.29
	c-0.56,9.93-1.95,19.7-3.34,29.43c4.01,1.82,8.66,1.18,12.83,1.57c3.25-77.98-3.67-156.98-0.45-234.96
	C393.66,4.81,387.82,6.22,384.69,6.09z"/>
<path class="st480" d="M442.61,168.91c-1.98,17.44-2.74,35.99-2.24,54.26c0.78-0.16,2.03,0.3,2.75-0.58
	c0.72-0.89,0.63-2.69,0.69-4.78c0.16-5.51,0.22-11.04,0.18-16.57c-0.04-5.53-0.18-11.05-0.41-16.54c-0.12-2.74-0.26-5.48-0.43-8.2
	C443.04,174.73,442.42,170.51,442.61,168.91z"/>
<path class="st480" d="M445.3,223.63c-0.1-30.85-0.16-62.12,7.53-91.92c-7.9,30.09-11.95,61.06-10.26,92.2
	C443.33,223.69,444.54,223.84,445.3,223.63z"/>
<path class="st480" d="M439.76,223.76c-0.05-14.57-0.11-29.13-0.16-43.7c-0.09-23.75-0.22-47.86-6.6-70.68
	c3.93,5.91,6.13,13.35,7.15,20.44c1.02,7.1,1,14.31,0.97,21.48c-0.09,24.21-0.19,48.42-0.28,72.63
	C440.82,223.55,439.76,224.16,439.76,223.76z"/>
<path class="st480" d="M438.49,224.26c0.75-18.6,1.5-37.33-1.06-55.76c-1.69-12.15-4.82-24.08-9.29-35.45
	c5.01,6.25,8.14,14.07,9.58,22.06c1.43,7.99,1.55,16.16,1.66,24.29c0.21,15.04,0.41,30.08,0.62,45.12
	C439.4,224.51,439.09,224.28,438.49,224.26z"/>
<path class="st480" d="M445.15,224.16c0.52,0.02,0.91,0.25,1.43,0.26c-0.31-16.05,1.65-32.15,5.79-47.62
	c-3.13,2.83-4.68,6.55-5.62,10.74c-0.94,4.2-1.03,8.54-1.11,12.85C445.49,208.41,445.3,216.15,445.15,224.16z"/>
<path class="st480" d="M439.36,224.12c-0.59,0.02-1.04,0.28-1.63,0.3c0.35-18.3-1.88-36.65-6.6-54.29c3.57,3.23,5.33,7.46,6.4,12.25
	c1.07,4.79,1.17,9.74,1.27,14.65C438.97,206.17,439.18,214.99,439.36,224.12z"/>
<g>
	<path class="st137" d="M432.63,243.31h17.71c7.44-2.09,11.11-15.46,5.87-20.83h-29.45C422.59,227.18,424.82,240.83,432.63,243.31z"
		/>
	<path class="st137" d="M426.75,222.48h29.45c1.93,1.98,2.64,5.04,2.41,8.23c-0.2,0.11-0.42,0.21-0.69,0.26
		c-1.28,0.27-2.39-0.92-3.21-2.02c-0.82-1.1-1.85-2.34-3.14-2.22c-1.36,0.13-2.19,1.7-2.61,3.13c-0.42,1.43-0.76,3.05-1.9,3.88
		c-1.01,0.73-2.41,0.57-3.43-0.15c-1.83-1.31-1.42-3.11-2.42-4.95c-0.54-0.99-1.55-1.77-2.6-1.62c-1.09,0.16-1.87,1.24-2.35,2.32
		c-0.48,1.09-0.79,2.29-1.52,3.19c-0.73,0.9-2.09,1.38-2.93,0.6c-0.63-0.58-0.73-1.58-0.88-2.46c-0.15-0.89-0.53-1.89-1.34-2.08
		c-0.69-0.16-1.33,0.36-2,0.57c-0.98,0.31-2.03-0.06-2.86-0.75C424.88,226.02,425.53,223.86,426.75,222.48z"/>
</g>
<g>
	<path class="st137" d="M461.02,224.55c-4.24-4.27-8.5-8.57-11.95-13.55c-3.45-4.98-6.49-10.44-7.03-16.55
		c3.59,0.56,6.59,2.13,9.59,4.27c1.24-3.84,3.36-7.38,6.14-10.23C461.26,200.04,462.76,212.59,461.02,224.55z"/>
	<path class="st203" d="M451.83,205.98c1.2,0.06,2.53,0.33,3.48,0.63c-0.54-1.28-1.06-2.46-1.54-3.5l-0.03,0c0-0.01,0-0.03,0-0.04
		c-0.96-0.6-2.56-1.5-4.08-2.06c-1.6-0.63-3.04-0.93-3.04-0.93s1.46,0.1,3.15,0.56c1.18,0.3,2.45,0.8,3.44,1.28
		c-0.08-0.16-0.16-0.33-0.23-0.48c-0.87-1.75-1.41-2.84-1.41-2.84s0.72,0.97,1.74,2.65c0.18,0.29,0.36,0.61,0.56,0.94
		c0.23-1.34,0.74-3.14,1.48-4.59c0.44-0.92,0.94-1.71,1.32-2.27c0.38-0.56,0.65-0.88,0.65-0.88s-0.94,1.42-1.63,3.31
		c-0.74,1.87-1.11,4.17-1.21,5.44l-0.06-0.01c0.55,1.01,1.12,2.15,1.67,3.39c0.3-1,0.8-2.2,1.4-3.18c0.84-1.43,1.8-2.41,1.8-2.41
		s-0.81,1.11-1.47,2.59c-0.65,1.39-1.06,3.08-1.25,4.12c0.06,0.14,0.12,0.28,0.18,0.43c0.26,0.64,0.49,1.28,0.71,1.9
		c0.38-0.52,0.88-1.1,1.41-1.55c0.79-0.71,1.55-1.13,1.55-1.13s-0.66,0.59-1.29,1.4c-0.56,0.7-1.06,1.56-1.38,2.15
		c0.57,1.74,0.98,3.33,1.26,4.61c0.42,1.93,0.58,3.15,0.58,3.15s-0.36-1.16-0.94-3.04c-0.38-1.2-0.89-2.69-1.5-4.33
		c-0.64-0.01-1.67,0-2.58,0.2c-0.98,0.19-1.77,0.53-1.77,0.53s0.7-0.52,1.67-0.91c0.78-0.34,1.71-0.53,2.4-0.58
		c-0.26-0.68-0.53-1.39-0.82-2.11c-0.12-0.29-0.23-0.57-0.35-0.85l0,0c-0.86-0.35-2.47-0.93-3.92-1.2
		c-1.45-0.29-2.71-0.31-2.71-0.31S450.33,205.88,451.83,205.98z"/>
</g>
<path class="st137" d="M418.91,214.2c1.27-0.96,2.55-1.92,3.82-2.88c2.24-1.69,4.48-3.38,6.68-5.12c3.21-2.54,6.4-5.25,8.64-8.73
	c2.24-3.49,3.46-8.1,2.35-12.13c-2.49-0.3-5.06,0.1-7.36,1.15c-1.24-1.69-2.88-2.96-4.75-3.82c-2.61,2.97-5.77,5.44-7.92,8.78
	c-2.11,3.29-3.09,7.25-3.3,11.19C416.87,206.57,418.22,210.32,418.91,214.2z"/>
<path class="st203" d="M420.3,206.41c0.41-1.42,1.01-3.14,1.81-5c-0.27-0.68-0.83-1.71-1.59-2.44c-0.79-0.82-1.67-1.24-1.67-1.24
	s0.23,0.06,0.59,0.21c0.36,0.15,0.84,0.39,1.31,0.75c0.7,0.49,1.33,1.24,1.73,1.9c0.45-1,0.96-2.02,1.54-3.06
	c0.18-0.32,0.36-0.63,0.55-0.94c-0.1-0.87-0.37-2.22-0.85-3.34c-0.5-1.24-1.19-2.16-1.19-2.16s0.82,0.79,1.5,2
	c0.49,0.81,0.86,1.8,1.07,2.64c0.82-1.3,1.65-2.48,2.46-3.52l-0.04-0.05c0.02-0.02,0.04-0.03,0.06-0.05c0.03-0.76,0-2.05-0.27-3.17
	c-0.25-1.16-0.69-2.08-0.69-2.08s0.59,0.82,1.02,1.97c0.32,0.79,0.52,1.74,0.6,2.51c0.47-0.58,0.93-1.11,1.36-1.57
	c0.82-0.9,1.51-1.6,2.01-2.06c0.49-0.46,0.77-0.72,0.77-0.72s-0.25,0.29-0.69,0.8c-0.45,0.51-1.07,1.27-1.82,2.22
	c-0.25,0.32-0.52,0.68-0.8,1.04c1.08-0.64,2.44-1.25,3.74-1.55c1.02-0.26,1.98-0.36,2.68-0.39c0.7-0.03,1.13,0,1.13,0
	s-0.44,0.02-1.12,0.12c-0.68,0.1-1.62,0.29-2.59,0.63c-1.97,0.63-3.96,1.99-4.94,2.86l-0.05-0.06c-0.77,1.11-1.58,2.36-2.39,3.71
	c1.41-0.39,3.38-0.74,5.15-0.75c1.1-0.03,2.11,0.05,2.83,0.13c0.73,0.08,1.18,0.16,1.18,0.16s-1.84-0.16-3.99,0.08
	c-2.08,0.19-4.39,0.84-5.72,1.31c-0.12,0.2-0.23,0.4-0.35,0.6c-0.57,1.01-1.08,2.01-1.55,2.98c0.97-0.45,2.29-0.85,3.5-0.88
	c0.82-0.05,1.57,0.03,2.1,0.12c0.54,0.09,0.86,0.19,0.86,0.19s-0.34-0.05-0.87-0.07c-0.54-0.02-1.27-0.01-2.05,0.13
	c-1.58,0.23-3.23,1.06-4.05,1.63l-0.01-0.02c-0.79,1.69-1.44,3.26-1.92,4.56c-0.43,1.15-0.75,2.09-0.95,2.74
	c-0.21,0.65-0.33,1.02-0.33,1.02s0.08-0.37,0.22-1.05C419.72,208.56,419.96,207.59,420.3,206.41z"/>
<path class="st137" d="M447.78,158.82c-2.73-0.55-5.64-0.11-8.11,1.23c4.4,8.89,10.69,16.87,18.51,22.7
	c0.65-5.03,0.87-9.97,0.14-14.98c-0.4-2.73-1.02-5.47-2.38-7.85c-1.36-2.37-3.56-4.34-6.17-4.85
	C449.11,156.21,448.43,157.68,447.78,158.82z"/>
<path class="st203" d="M444.63,163.77c0.53-0.21,1.27-0.46,2.11-0.63c1.43-0.33,3.11-0.33,4.25-0.18c-0.3-0.44-0.6-0.84-0.88-1.19
	c-0.51-0.65-0.95-1.17-1.27-1.5c-0.31-0.34-0.49-0.54-0.49-0.54s0.2,0.16,0.56,0.45c0.37,0.29,0.87,0.74,1.46,1.34
	c0.37,0.38,0.77,0.83,1.18,1.34c0.23-0.7,0.44-1.66,0.4-2.56c-0.01-1.18-0.37-2.13-0.37-2.13s0.13,0.22,0.28,0.59
	c0.16,0.37,0.34,0.9,0.44,1.51c0.22,1.13,0.05,2.49-0.24,3.27c0.63,0.86,1.26,1.87,1.82,2.99c0.5-0.39,1.19-1.07,1.58-1.87
	c0.48-0.89,0.58-1.78,0.58-1.78s0.02,0.22,0,0.57c-0.02,0.35-0.09,0.84-0.26,1.36c-0.29,0.99-1.02,1.95-1.59,2.39
	c0.39,0.87,0.69,1.73,0.93,2.56c0.7-0.39,2.01-0.93,2.01-0.93s-1.22,1.23-1.81,1.65c0.27,1.08,0.43,2.08,0.51,2.92
	c0.08,0.85,0.11,1.54,0.09,2.02c-0.01,0.47-0.02,0.74-0.02,0.74s-0.03-0.26-0.1-0.73c-0.05-0.47-0.16-1.14-0.33-1.97
	c-0.15-0.77-0.38-1.67-0.68-2.64c-0.64,0.62-1.84,1.56-1.84,1.56s1.06-1.74,1.57-2.31l0.04,0.04c-0.29-0.87-0.64-1.78-1.07-2.7
	c-0.83,0.07-2.22,0.32-3.35,0.88c-1.2,0.54-2.06,1.31-2.06,1.31s0.73-0.9,1.89-1.63c0.98-0.66,2.28-1.1,3.19-1.25
	c-0.56-1.15-1.17-2.19-1.76-3.1l-0.03,0.17c-1.02-0.23-2.93-0.47-4.59-0.27c-1.66,0.15-3.01,0.64-3.01,0.64
	S444.1,163.98,444.63,163.77z"/>
<path class="st137" d="M431.88,177.33c4.49-2.14,8.19-6,10.23-10.66c-1.54-0.82-2.9-1.16-4.57-0.68c-0.79-1.05-1.41-1.99-2.2-3.04
	c-0.6,1.18-1.71,2.18-2.48,3.25C430.68,169.22,430.79,173.73,431.88,177.33z"/>
<path class="st203" d="M433.52,173.7c0,0,0-0.46,0.12-1.21c0.12-0.74,0.37-1.76,0.87-2.78c0.08-0.16,0.17-0.31,0.25-0.46
	c-0.1-0.4-0.25-1.06-0.49-1.62c-0.24-0.61-0.53-1.09-0.53-1.09s0.43,0.35,0.84,0.9c0.25,0.32,0.47,0.7,0.64,1.06
	c0.32-0.47,0.64-0.87,0.93-1.18c0.5-0.54,0.86-0.82,0.86-0.82s-0.22,0.4-0.58,1.04c-0.17,0.3-0.36,0.66-0.56,1.06
	c0.61-0.22,1.37-0.42,2.07-0.5c1.05-0.14,1.92-0.06,1.92-0.06s-0.87,0.11-1.85,0.42c-0.98,0.29-2.04,0.82-2.61,1.13l-0.02-0.04
	c-0.08,0.16-0.16,0.32-0.24,0.49c-0.01,0.02-0.02,0.04-0.03,0.06c0.3-0.01,0.64,0,0.94,0.07c0.52,0.1,0.91,0.28,0.91,0.28
	s-0.43,0-0.91,0.08c-0.49,0.08-1,0.26-1.29,0.35l-0.01-0.02c-0.31,0.66-0.57,1.26-0.77,1.74C433.7,173.28,433.52,173.7,433.52,173.7
	z"/>
<path class="st480" d="M168.21,181.84c2.42-4.56,5.89-11.04,5.54-15.58c-1.88,4.56-3.18,9.28-6.01,13.38
	c-1.44-5.72-0.33-11.37,2.31-16.57c-1.73,0.88-3.3,5.71-3.95,8.25c-1.22-1.95-0.64-5.84-1.52-7.05c-0.98,8.24,4.33,16.56,0.89,24.89
	c-2.94-9.13-11.57-20.5-3.87-29.48c3.3-1.19,5.42-3.62,6.33-7.04c0.66-1.03,2.77-9.4,0.48-7.38c-0.14,2.66-1.25,5.15-2.31,7.56
	c-3.14-10.88-3.15-6.71-1.05,1.15c-1.63,6.42-8.11,1.49-7.51,15.82c-2.63-3.84-3.68-8.56-2.4-13.09c0.09-0.45-0.58-0.65-0.69-0.19
	c-3.16,10.79,6.51,21.8,9.59,31.96c1.57,4.51-3.18,7.59-3.12,11.9c-3.13-4.56,0.19-13.32-3.07-16.74c1.63,6.3-1.69,14.02,3.45,19.11
	c0.27,1.05,2.72,6.94,3.44,4.31c0.06,0.01,0.12,0.01,0.18,0c1.56,2.35,1.66-3.32,2.08-4.21c1.21-4.44,3.36-8.46,3.4-13.14
	c0.09-0.26-0.33-0.45-0.45-0.19c-1.03,5.43-4.24,10.04-5.02,15.6c-4.37-4.02,1.71-9.27,1.33-13.93c0.95-2.96,1.81-6.02,1.69-9.14
	C168.05,182.02,168.15,181.95,168.21,181.84z"/>
<g id="XMLID_3_">
	<path class="st479" d="M180.01,231.08c0.63,2.96-0.79,6.07-2.84,8.06c-2.06,2-4.69,3.11-7.24,4.17h-5.34h-5.33
		c-2.57-1.06-5.19-2.17-7.25-4.17c-2.06-1.99-3.46-5.11-2.84-8.06c1.14-5.43,9.57-6.86,9.33-12.42c-0.2-4.46-0.45-9.02-1.35-13.38
		h7.45h7.45c-0.9,4.36-1.14,8.92-1.34,13.38C170.44,224.23,178.87,225.66,180.01,231.08z"/>
</g>
<path class="st203" d="M160.1,215.66c-0.07,3.73-0.86,7.53-2.86,10.67c-1.09,1.71-2.53,3.23-3.17,5.15
	c-0.76,2.29-0.25,4.85,0.85,6.99c0.86,1.69,2.06,3.16,3.33,4.59c0.2,0.08,0.4,0.17,0.6,0.25h2.13c-1.42-4.04-1.81-8.44-1.09-12.66
	c0.52-3.03,1.58-5.94,2.23-8.95c1.15-5.38,1.21-10.92,0.96-16.42h-4C159.64,208.72,160.17,212.18,160.1,215.66z"/>
<path class="st0" d="M180.15,232.22c-0.02-0.38-0.06-0.76-0.14-1.13c-0.01-0.06-0.03-0.12-0.05-0.18c-1.43,4.23-5.2,6.51-10.01,6.24
	c-3.98,1.28-7.21,3.21-10.68,0.09c-8.61-3.11,12.57-6.95,15.11-9.17c0.47-1.52,0.76-2.37,0.89-2.79c-0.03-0.02-0.05-0.04-0.08-0.06
	c-0.5,0.86-2.11,3.63-4.38,3.7c-8.46-0.15-14.15,9.45-21.24,4.52c-0.19,0.12-0.34,0.2-0.48,0.25c0.06,0.37,0.14,0.73,0.24,1.09
	c3.3,1.52,9.21,3.2,10.43,4.01c4.36,4.85,10.02-2.83,15.32-1.04C176.92,237.3,179.01,234.7,180.15,232.22z"/>
<path class="st0" d="M162.75,224.13c3.38,1.89,6.21-0.37,8.56-2.82c-0.11-0.2-0.21-0.41-0.29-0.63c-3.1,2.19-7.72,5.43-6.92,1.61
	c0.12-3.58,4.02-4.64,6.71-5.93c0.02-0.32,0.03-0.63,0.05-0.95c-1.74,0.67-3.78,0.76-5.16,2.21c-1.4,3.24-7.02,9.01-9.49,5.74
	c-0.26,0.25-0.54,0.49-0.83,0.73C156.56,225.3,158.85,226,162.75,224.13z"/>
<path class="st203" d="M169.73,215.66c0.07,3.73,0.9,7.53,3,10.67c1.14,1.71,2.65,3.23,3.31,5.15c0.79,2.29,0.26,4.85-0.89,6.99
	c-0.9,1.69-1.4,2.33-2.72,3.75c-0.21,0.08-2.29,1-2.5,1.08h-1.11c1.48-4.04,1.89-8.44,1.13-12.66c-0.54-3.03-1.66-5.94-2.33-8.95
	c-1.21-5.38-1.27-10.92-1-16.42h4.19C170.21,208.72,169.66,212.18,169.73,215.66z"/>
<g>
	<path class="st0" d="M161.36,224.72c0.21-0.75,0.41-1.51,0.59-2.27c-1.2,1.03-2.49,1.79-3.64,1.87c-0.14,0.31-0.28,0.62-0.44,0.92
		C158.8,225.35,159.95,225.22,161.36,224.72z"/>
	<path class="st0" d="M154.17,236.63c2.5,0.88,4.88,1.66,5.6,2.14c0.03,0.03,0.06,0.06,0.09,0.09c-0.07-0.43-0.12-0.86-0.17-1.29
		c-0.14-0.11-0.28-0.22-0.42-0.35c-3.22-1.16-2.27-2.43,0.31-3.67c0.01-0.19,0.03-0.37,0.04-0.56c-1.97,1.03-3.88,1.84-5.84,1.83
		C153.85,235.44,153.98,236.04,154.17,236.63z"/>
</g>
<path class="st480" d="M427.37,252.18c1.82,0,4.19,0.44,4.48,2.34c0.21,1.34-0.85,2.51-1.88,3.33c-7.87,6.24-18.56,6.2-28.4,5.89
	c-48.72-1.54-97.44-3.08-146.17-4.62c-14.29-0.45-28.17,1.03-42.46-1.54c-0.87-0.16-1.88-0.43-2.23-1.29
	c-0.35-0.86,0.2-1.88,0.97-2.33c0.77-0.45,1.69-0.47,2.57-0.48c23.77-0.33,47.41-0.99,71.17-0.99c30.24-0.07,60.48-0.13,90.72-0.2
	C393.23,252.26,410.3,252.22,427.37,252.18z"/>
<path class="st203" d="M230.53,196.3c0.22,7.4,0.97,14.78,2.24,22.07c6.9-0.59,13.8-1.04,20.71-1.38
	c0.83-7.71,1.87-15.41,3.27-23.17C247.85,193.75,239.25,194.45,230.53,196.3z"/>
<path class="st0" d="M214.44,196.04c0.56,12.15,0.85,24.05,4.64,35.57c0.59,1.82,1.27,3.68,2.55,5.07c1.11,1.2,2.59,1.96,4.15,2.36
	c0.42,0.12,0.85,0.2,1.28,0.27c2,0.3,4.02,0.11,6.03-0.05c-4.08-5.89-5.12-13.9-2.65-20.67c0.78-0.07,1.55-0.14,2.33-0.2
	c-1.28-7.28-2.03-14.67-2.24-22.07C224.56,195.32,220.31,195.31,214.44,196.04z"/>
<g>
	<path class="st203" d="M406.12,164.71c-1.8-0.04-3.6-0.08-5.41-0.1c2.05,0.02,3.31,0.85,4.13,2.35c0.84,1.56,0.93,3.43,0.94,5.21
		c0.03,7.08-0.89,14.16-2.74,20.99c3.87-0.33,7.77-0.45,11.66-0.38c1.36-5.73,2.13-11.61,2.27-17.51c0.07-2.57-0.05-5.36-1.59-7.38
		C413.32,165.15,409.49,164.8,406.12,164.71z"/>
	<path class="st203" d="M313.68,215.9c2.64,0,5.29,0,7.93,0c1.62,0,3.24,0,4.86,0c0.35-3.93,0.81-7.84,1.4-11.73
		c1.05-6.78,2.48-13.5,4.29-20.1c0.82-2.95,1.56-6.08,2.67-8.96c-0.08-3.11-2.55-5.88-5.42-7.05c-2.3-0.93-4.83-1.15-7.34-1.22
		c2.17,0.62,3.68,3.19,3.85,5.4c0.28,3.68,0.26,7.41,0.07,11.09c-0.35,6.76-1.38,13.48-3.1,20.02
		C321.51,208.56,319.83,215.33,313.68,215.9z"/>
	<path class="st0" d="M256.75,193.83c-1.4,7.76-2.44,15.46-3.27,23.17c20.04-1.01,40.14-1.1,60.2-1.09
		c6.15-0.57,7.83-7.35,9.2-12.56c1.72-6.54,2.76-13.25,3.1-20.02c0.19-3.68,0.21-7.41-0.07-11.09c-0.17-2.2-1.67-4.77-3.85-5.4
		c0,0,0,0-0.01,0c-0.89-0.02-1.79-0.03-2.67-0.04c-13.93-0.22-29.08,0.71-43.04,2.83c-4.55,0.68-9.36,1.13-12.81,4.27
		c-3.32,3.03-4.33,7.85-5.29,12.3c-0.46,2.16-0.89,4.32-1.29,6.46C256.89,193.05,256.82,193.44,256.75,193.83z"/>
	<path class="st0" d="M334.84,175.11c-1.11,2.88-1.85,6.01-2.67,8.96c-1.81,6.6-3.24,13.31-4.29,20.1c-0.59,3.9-1.06,7.8-1.4,11.73
		c14.96,0.01,29.91,0.02,44.87,0.03c4.71,0,9.4,0.01,14.11,0.01c0.85-6.83,1.52-13.71,1.91-20.28c5.05-1.22,10.33-2.06,15.69-2.51
		c1.85-6.83,2.77-13.91,2.74-20.99c-0.01-1.79-0.1-3.65-0.94-5.21c-0.82-1.5-2.09-2.33-4.13-2.35c-0.08,0-0.16,0-0.24,0
		c-16.42-0.2-32.86,0.49-49.23,1.91c-3.47,0.31-7.01,0.65-10.18,2.13c-2.39,1.11-4.83,3.09-5.89,5.61
		C335.05,174.54,334.95,174.82,334.84,175.11z"/>
</g>
<g>
	<path class="st203" d="M228.62,191.71c2.57,8.55,7.19,16.46,13.8,22.24C237,207.13,232.36,199.65,228.62,191.71z"/>
	<path class="st203" d="M262.18,215.18c-6,0.94-12.24,1.8-18.07,0.05c-4.54-1.35-8.59-4.33-11.4-8.22c2.1,3.93,4.47,7.7,6.86,11.46
		c11.93,0.19,24.12-0.39,35.92-2.18c-0.54-4.75-1.88-9.41-3.88-13.72c0.06,0.21,0.12,0.44,0.18,0.66c0.76,3.03,0.38,6.57-1.74,8.81
		C268.05,214.16,265.02,214.73,262.18,215.18z"/>
	<path class="st203" d="M228.62,191.71c2.57,8.55,7.19,16.46,13.8,22.24C237,207.13,232.36,199.65,228.62,191.71z M258.29,185.99
		c5.69,4.25,10.27,10.04,13.32,16.57c0.06,0.21,0.12,0.44,0.18,0.66c0.76,3.03,0.38,6.57-1.74,8.81c-2,2.12-5.03,2.69-7.87,3.14
		c-6,0.94-12.24,1.8-18.07,0.05c-4.54-1.35-8.59-4.33-11.4-8.22c-0.82-1.52-1.59-3.06-2.31-4.63c-2.58-5.62-4.11-11.79-4.47-18.01
		C236.67,183.58,249.81,184.16,258.29,185.99z"/>
	<path class="st203" d="M225.93,184.37c3.14,4.39,7.2,9.82,10.34,14.21c10.7,2.55,23.31,3.03,34.23,1.76
		c-2.55-5.09-7.9-11.35-12.21-14.35C247.89,184.13,236.45,183.5,225.93,184.37z"/>
	<g>
		<path class="st203" d="M258.29,185.99c-2.63-0.68-5.31-1.14-8-1.5c-2.69-0.34-5.4-0.59-8.11-0.75c-5.42-0.24-10.86-0.3-16.28,0.15
			l-0.46,0.04l0.03,0.47c0.13,2.01,0.38,4.01,0.74,5.98c0.36,1.98,0.88,3.92,1.49,5.82c0.63,1.9,1.33,3.77,2.2,5.56
			c0.89,1.78,1.86,3.51,2.81,5.24c-0.79-1.82-1.68-3.59-2.44-5.42c-0.74-1.83-1.4-3.7-1.93-5.6c-0.55-1.9-0.94-3.84-1.29-5.78
			c-0.33-1.94-0.55-3.91-0.66-5.88l-0.43,0.51c2.69-0.17,5.39-0.26,8.09-0.32c2.7-0.05,5.4-0.02,8.1,0.07
			c2.7,0.07,5.4,0.2,8.09,0.43C252.93,185.25,255.62,185.55,258.29,185.99z"/>
	</g>
</g>
<g>
	<path class="st203" d="M370.8,214.38c3.3-7.86,7.36-15.37,12.1-22.41C377.07,197.6,372.48,205.76,370.8,214.38z M365.81,216.91
		c1.93-10.83,7.05-21.04,14.23-29.19c10.06-2.52,20.69-2.6,30.9-0.78c-0.1,1.09-0.36,2.16-0.69,3.22
		c-7.85,1.37-15.78,2.21-23.72,2.54c-3.43,9.2-9.05,17.6-15.86,24.54C369.05,217.16,367.43,217.05,365.81,216.91z"/>
	<path class="st203" d="M370.8,214.38c3.3-7.86,7.36-15.37,12.1-22.41C377.07,197.6,372.48,205.76,370.8,214.38z"/>
	<path class="st203" d="M370.67,217.25c1.19,0.08,2.38,0.14,3.58,0.2c6.89,0.34,13.79,0.43,20.68,0.27
		c0.61-0.01,2.37-0.09,2.37-0.09s0.82-1.19,1.1-1.66c0.87-1.47,1.7-2.95,2.51-4.45c1.58-2.93,3.06-5.93,4.43-8.97
		c1.17-2.6,2.25-5.24,3.26-7.91c0.54-1.46,1.18-2.95,1.64-4.47c-7.85,1.37-15.78,2.21-23.72,2.54
		C383.1,201.92,377.48,210.31,370.67,217.25z"/>
	<g>
		<path class="st203" d="M410.94,186.95c-5.08-1.12-10.29-1.65-15.5-1.63c-2.61-0.01-5.21,0.19-7.81,0.5
			c-2.59,0.32-5.17,0.79-7.71,1.41l-0.15,0.04l-0.1,0.12c-1.81,2.06-3.47,4.26-4.99,6.55c-1.51,2.3-2.9,4.68-4.07,7.19
			c-1.17,2.5-2.18,5.07-3.01,7.71c-0.79,2.65-1.43,5.34-1.8,8.08c0.59-2.69,1.32-5.34,2.26-7.91c0.91-2.58,1.99-5.09,3.23-7.52
			c1.25-2.41,2.6-4.78,4.13-7.02c1.52-2.25,3.19-4.38,4.97-6.4l-0.25,0.15c2.5-0.64,5.04-1.13,7.59-1.48
			c2.56-0.35,5.13-0.53,7.71-0.65C400.61,185.91,405.79,186.24,410.94,186.95z"/>
	</g>
</g>
<path class="st203" d="M375.36,239.97c-47.92,0.41-94.83,0.27-142-0.33c-0.1-0.13-0.19-0.27-0.28-0.4
	c-2.01,0.16-4.03,0.35-6.03,0.05c-0.43-0.06-0.86-0.14-1.28-0.27l0.9,5.92h2.88h3.62h21.46h3.62h129.1h3.62h2.28l0.84-4.82
	c-0.89-0.01-1.78-0.02-2.67-0.03c-3.16-0.04-6.37-0.1-9.64-0.18C379.65,239.94,377.5,239.96,375.36,239.97z"/>
<polygon class="st203" points="393.78,241.99 226.06,240.88 225.78,239.03 394.1,240.13 "/>
<polygon class="st203" points="229.56,244.95 227.88,255.02 229.56,255.02 233.17,244.95 "/>
<polygon class="st203" points="387.36,244.95 390.98,255.02 392.66,255.02 390.98,244.95 "/>
<polygon class="st203" points="254.64,244.95 252.96,255.02 254.64,255.02 258.25,244.95 "/>
<polygon class="st203" points="412.44,244.95 416.06,255.02 417.75,255.02 416.06,244.95 "/>
<path class="st203" d="M394.1,240.13l-0.84,4.82h19.18h3.62h3.84l0.87-5.21C411.77,240.09,403.07,240.2,394.1,240.13z"/>
<path class="st0" d="M403.05,193.15c-5.36,0.45-10.64,1.29-15.69,2.51c5.44-0.95,11.07-0.71,16.57-0.32
	c9.14-0.63,19.09-0.77,29.57-0.57c-6.04-1.21-12.39-1.88-18.78-2C410.82,192.7,406.91,192.83,403.05,193.15z"/>
<path class="st203" d="M399.79,227.06c-1.34,5.01-3.39,11.59-8.35,13.04c0.89,0.01,1.78,0.02,2.67,0.03
	c8.97,0.07,17.67-0.04,26.66-0.4c0.53-0.02,1.07-0.04,1.6-0.06c3.04-0.13,5.83-2.45,7.66-4.96c1.84-2.51,2.94-5.51,3.77-8.53
	c2.78-10.09,2.44-21.32-0.3-31.41c-10.48-0.19-20.42-0.06-29.57,0.57C404.67,206.04,402.38,217.35,399.79,227.06z"/>
<path class="st203" d="M371.34,215.93c-0.69,8.18,0.7,16.56,4.01,24.04c2.15-0.01,4.29-0.03,6.44-0.05
	c1.32-7.41,2.62-15.64,3.66-23.98C380.75,215.94,376.05,215.93,371.34,215.93z"/>
<path class="st0" d="M385.45,215.94c-1.04,8.34-2.33,16.57-3.66,23.98c3.27,0.08,6.48,0.14,9.64,0.18
	c4.96-1.45,7.01-8.03,8.35-13.04c2.59-9.71,4.88-21.03,4.14-31.72c-5.5-0.4-11.13-0.63-16.57,0.32
	C386.97,202.23,386.3,209.12,385.45,215.94z"/>
<path class="st0" d="M233.09,239.25c0.09,0.13,0.18,0.27,0.28,0.4c47.16,0.59,94.07,0.73,142,0.33c-3.31-7.48-4.71-15.85-4.01-24.04
	c-14.96-0.01-29.91-0.02-44.87-0.03c-1.62,0-3.24,0-4.86,0c-2.64,0-5.29,0-7.93,0c-20.07-0.01-40.16,0.08-60.2,1.09
	c-6.91,0.34-13.81,0.79-20.71,1.38c-0.78,0.06-1.55,0.13-2.33,0.2C227.97,225.35,229,233.36,233.09,239.25z"/>
<polygon class="st203" points="392.25,255.02 389.52,245.99 387.65,245.76 387.36,244.95 390.98,244.95 392.66,255.02 "/>
<polygon class="st203" points="229.44,245.63 231.25,246.05 228.89,255.02 229.56,255.02 233.17,244.95 229.56,244.95 "/>
</svg>
