<svg id="Слой_1" data-name="Слой 1" xmlns="http://www.w3.org/2000/svg" viewBox="0 0 515 468"><defs><style>.cls-1{fill:#005eb1;}.cls-2,.cls-7,.cls-8{fill:none;}.cls-2{stroke:#259add;}.cls-2,.cls-8{stroke-miterlimit:10;}.cls-3{fill:#259add;}.cls-4{fill:#83d5fb;}.cls-5{fill:#00336c;opacity:0.4;}.cls-6{fill:#0089d9;}.cls-7{stroke:#005eb1;stroke-linecap:round;stroke-linejoin:round;stroke-width:0.84px;}.cls-8{stroke:#83d5fb;}</style></defs><ellipse class="cls-1" cx="257.8" cy="438.39" rx="197.46" ry="31.61"/><path class="cls-2" d="M194,309.45c-19.59-17.85-33.34-41.4-42.68-66.21s-14.49-51-18.92-77.09q-7.77-46-12.69-92.44"/><path class="cls-3" d="M119.76,74.72a105.36,105.36,0,0,1-15.18-56.45c.07-3.73.46-7.72,2.06-11a5.6,5.6,0,0,1,7.92-2.43,5.51,5.51,0,0,1,1.84,2c1.46,2.6,1.93,5.62,2.33,8.57A256.52,256.52,0,0,1,119.76,74.72Z"/><path class="cls-3" d="M120.8,84.33A89.85,89.85,0,0,1,145.39,41c2.29-2.22,4.91-4.4,7.85-5.43a4.76,4.76,0,0,1,6.25,3.27,4.58,4.58,0,0,1-.06,2.29,20.13,20.13,0,0,1-3.73,6.6A218.74,218.74,0,0,1,120.8,84.33Z"/><path class="cls-3" d="M120.81,83.62A89.79,89.79,0,0,1,77.47,59,22.68,22.68,0,0,1,72,51.17a4.76,4.76,0,0,1,3.27-6.25A4.59,4.59,0,0,1,77.6,45a20.2,20.2,0,0,1,6.6,3.72A219.2,219.2,0,0,1,120.81,83.62Z"/><path class="cls-3" d="M155.43,253.91c3.35-16.87,12.51-33.23,26.08-46.57a29.61,29.61,0,0,1,9-6.48c3.08-1.27,6.83-.2,7.79,2.42a3.87,3.87,0,0,1,.11,2.3c-.61,2.54-2.27,4.86-3.94,7.09A255.3,255.3,0,0,1,155.43,253.91Z"/><path class="cls-3" d="M155.79,253.74c-20-1.68-39.06-8.25-54.18-18.71-2.86-2-5.7-4.31-7.18-7.1-1.33-2.5.21-5.71,3.43-6.68a6.8,6.8,0,0,1,2.77-.25,25.54,25.54,0,0,1,8.25,2.83A240.27,240.27,0,0,1,155.79,253.74Z"/><path class="cls-3" d="M174.75,287.26c.87-17.17,7.57-34.68,19.07-49.85a29.27,29.27,0,0,1,8-7.71c2.87-1.71,6.73-1.2,8.06,1.26a3.94,3.94,0,0,1,.44,2.27c-.24,2.6-1.54,5.13-2.88,7.58A255.51,255.51,0,0,1,174.75,287.26Z"/><path class="cls-3" d="M175.14,287.66c-20.06,1.23-39.85-2.52-56.32-10.68-3.11-1.54-6.26-3.43-8.13-6-1.68-2.28-.62-5.68,2.42-7.11a6.75,6.75,0,0,1,2.71-.64,25.31,25.31,0,0,1,8.57,1.6A240.35,240.35,0,0,1,175.14,287.66Z"/><path class="cls-3" d="M124.62,114.85a89.79,89.79,0,0,1,32.82-37.5,22.67,22.67,0,0,1,8.77-3.75,4.78,4.78,0,0,1,5.47,4.46,4.52,4.52,0,0,1-.53,2.24,20.4,20.4,0,0,1-5,5.72A219.38,219.38,0,0,1,124.62,114.85Z"/><path class="cls-3" d="M124.78,114.27A89.79,89.79,0,0,1,77.72,97.89,22.6,22.6,0,0,1,71,91.16a4.76,4.76,0,0,1,2.09-6.74,4.54,4.54,0,0,1,2.27-.35,20.21,20.21,0,0,1,7.16,2.47A218.63,218.63,0,0,1,124.78,114.27Z"/><path class="cls-3" d="M129.25,147.82a103.07,103.07,0,0,1,37.62-43c3.08-2,6.53-3.81,10.07-4.29a5.46,5.46,0,0,1,6.26,5.11,5.31,5.31,0,0,1-.6,2.57,23.29,23.29,0,0,1-5.7,6.55A250.58,250.58,0,0,1,129.25,147.82Z"/><path class="cls-3" d="M129.44,147.16a103,103,0,0,1-53.95-18.77c-3-2.12-6-4.63-7.75-7.73a5.46,5.46,0,0,1,2.39-7.72,5.31,5.31,0,0,1,2.61-.4A23.32,23.32,0,0,1,81,115.37,250.25,250.25,0,0,1,129.44,147.16Z"/><path class="cls-3" d="M134.74,179.62A106.71,106.71,0,0,1,175,136.43c3.28-2,7-3.85,10.73-4.35,3.37-.45,6.59,1.9,6.64,5.09a5.09,5.09,0,0,1-.65,2.57c-1.42,2.6-3.77,4.64-6.1,6.58A271.72,271.72,0,0,1,134.74,179.62Z"/><path class="cls-3" d="M134.94,179a113.17,113.17,0,0,1-57.31-18.52c-3.15-2.1-6.34-4.59-8.21-7.68A5.37,5.37,0,0,1,72,145a6.08,6.08,0,0,1,2.77-.41,25.72,25.72,0,0,1,8.73,2.79A266.18,266.18,0,0,1,134.94,179Z"/><path class="cls-3" d="M142.3,216.38a106.71,106.71,0,0,1,40.23-43.19c3.28-2,7-3.84,10.73-4.34,3.37-.45,6.59,1.89,6.64,5.08a5.06,5.06,0,0,1-.65,2.57c-1.42,2.61-3.77,4.64-6.1,6.58A271.06,271.06,0,0,1,142.3,216.38Z"/><path class="cls-3" d="M142.5,215.72a113.25,113.25,0,0,1-57.31-18.51c-3.15-2.1-6.34-4.6-8.21-7.69a5.36,5.36,0,0,1,2.59-7.74,6.08,6.08,0,0,1,2.77-.42,25.61,25.61,0,0,1,8.72,2.8A265.42,265.42,0,0,1,142.5,215.72Z"/><path class="cls-1" d="M200.41,244.78l124.5-78.54,37.93,28.33c-19.55,6.6-40.73,14-60.28,20.56-8.13,2.74-16.27,5.49-24.24,8.69-7.26,2.91-14.36,6.2-21.68,9C238.57,239.59,219.73,244.78,200.41,244.78Z"/><path class="cls-1" d="M215,241q60.45-33.2,120.3-67.48"/><path class="cls-1" d="M216.07,240.44s77.4-33.35,131.64-56.9"/><path class="cls-4" d="M189.14,245.3q18.8-27.59,39.14-54V143.63l-.4-.4a1136.48,1136.48,0,0,0-54.14,106.66"/><path class="cls-3" d="M228,142.9c-5.72-3.19-19.87-6.5-19.87-6.5-15.3,32.06-30.26,65.23-44.43,97.81,2.76.93,12.39,5.16,14.69,5.59C179,238.85,212.12,174.49,228,142.9Z"/><path class="cls-3" d="M189,241.47c24.91-33.62,53.77-68.28,80-100.91,0,18.35.15,42.61.11,61-22.61,13.87-65.76,42-65.76,42"/><polygon class="cls-3" points="268.92 140.56 264.27 139.54 183.1 240.56 187.94 242.99 268.92 140.56"/><path class="cls-3" d="M186.76,239.92s78.42-98.52,79.06-99.31"/><path class="cls-3" d="M203.63,235.5,264,169.73"/><line class="cls-3" x1="233.89" y1="214.14" x2="258.32" y2="188.78"/><path class="cls-3" d="M223.34,240.11,364.51,189.7a2,2,0,0,1,2.68,1.94V410.18a4.09,4.09,0,0,1-2.64,3.82L224,466.6l-5-3.18"/><polygon class="cls-5" points="242.24 261.93 351.42 224.81 351.42 257.91 242.24 295.95 242.24 261.93"/><polygon class="cls-5" points="242.24 303.99 351.42 266.88 351.42 273.68 242.24 311.72 242.24 303.99"/><path class="cls-4" d="M248.8,401.27s.72-154.64-1.05-166.27c-1.09-7.11-6.16-12.1-10.34-13.49a.68.68,0,0,1-.12-1.22l7.28-4.44a.67.67,0,0,1,.63,0c13.53,5.66,12.06,25,12.06,25L257,398.37l-4.41-4.23Z"/><path class="cls-3" d="M159.44,230.14l44.37-95.57a1.42,1.42,0,0,1,1.71-.76l1.93.6a1.43,1.43,0,0,1,.88,2l-44.6,97.85Z"/><path class="cls-6" d="M224,466.72l0-226.86a97.11,97.11,0,0,1-33.68,1.61c-11.54-1.48-23-5.14-30.92-11.33V445.58c0,14.44,18.16,20,28.06,20.93C199.6,467.64,213,468.42,224,466.72Z"/><ellipse class="cls-1" cx="191.37" cy="356.1" rx="18.09" ry="58.45"/><path class="cls-7" d="M160.7,250.8a125.81,125.81,0,0,0,67.18,9"/><path class="cls-7" d="M159.74,263.75a125.8,125.8,0,0,0,67.18,9"/><path class="cls-7" d="M160.7,427.08a125.81,125.81,0,0,0,67.18,9"/><path class="cls-7" d="M159.74,440a125.8,125.8,0,0,0,67.18,9"/><path class="cls-8" d="M367.76,391.76c11.5-23.7,15.15-48.2,17.45-76.58,3-36.79,2.82-77.54,1.41-118.43"/><path class="cls-4" d="M387.55,236.26a149.55,149.55,0,0,0,23.59-34.56"/><path class="cls-4" d="M386.75,293.11q16.92-17.21,32.7-35.49"/><path class="cls-4" d="M405.65,273.42c9.54-1.85,20.33-3.89,29.87-5.74"/><path class="cls-4" d="M356.1,222.85a50.68,50.68,0,0,0,31.71,29.72"/><path class="cls-4" d="M355.64,279.91c7.42,11,18.46,21,29.83,27.78"/><path class="cls-4" d="M381.13,349.9c13.27-11.42,34.69-28.4,48-39.83"/><line class="cls-4" x1="411.38" y1="295.8" x2="410.73" y2="324.87"/><path class="cls-4" d="M370.41,307.47l11.12-2.57"/><path class="cls-4" d="M378.49,292.28s3,12.62,2.93,12.87"/><path class="cls-4" d="M352,334.34a172.42,172.42,0,0,0,24.31,34.07"/><line class="cls-4" x1="356.92" y1="364.35" x2="371.46" y2="363.12"/><path class="cls-4" d="M397.37,337q17,.94,33.83,3.24"/><ellipse class="cls-4" cx="413.55" cy="201.32" rx="9.52" ry="10.22"/><path class="cls-4" d="M407.84,208.43l11.3-14.28"/><ellipse class="cls-4" cx="386.19" cy="195.26" rx="9.52" ry="10.22"/><line class="cls-4" x1="385.87" y1="185.48" x2="386.88" y2="205.12"/><ellipse class="cls-4" cx="357.64" cy="224.87" rx="9.52" ry="10.22"/><path class="cls-4" d="M355.34,215.7q1.8,7.68,3.59,15.36"/><ellipse class="cls-4" cx="357.64" cy="241.26" rx="9.52" ry="10.22"/><path class="cls-4" d="M349.31,245.75a80.74,80.74,0,0,0,11.06-4.12"/><ellipse class="cls-4" cx="367.95" cy="235.18" rx="9.52" ry="10.22"/><path class="cls-4" d="M372.23,243.78q-4.46-8.62-8.08-17.63"/><path class="cls-4" d="M418.4,296.42a7.13,7.13,0,1,1-7.12-7.65A7.39,7.39,0,0,1,418.4,296.42Z"/><path class="cls-4" d="M411.3,303.73q.1-7.32.22-14.63"/><ellipse class="cls-4" cx="422.28" cy="249.71" rx="11.76" ry="12.64"/><path class="cls-4" d="M417,260.23q6.64-8.9,13.64-17.53"/><ellipse class="cls-4" cx="432.85" cy="262.93" rx="11.76" ry="12.64"/><path class="cls-4" d="M424.13,269.49q9.28-6.11,18.26-12.71"/><path class="cls-4" d="M424,269.69l19.75-8.44"/><ellipse class="cls-4" cx="357.29" cy="278.79" rx="9.52" ry="10.22"/><path class="cls-4" d="M353.63,270a158.94,158.94,0,0,0,7.06,17.41"/><path class="cls-4" d="M382.8,284.79a7.13,7.13,0,1,1-7.11-7.65A7.39,7.39,0,0,1,382.8,284.79Z"/><path class="cls-4" d="M373.79,278.1q2.15,6.47,4.28,12.94"/><ellipse class="cls-4" cx="362.43" cy="308.14" rx="9.59" ry="8.93"/><path class="cls-4" d="M353.75,309.68a81.36,81.36,0,0,0,17.15-2.38"/><ellipse class="cls-4" cx="432.45" cy="308.14" rx="9.52" ry="10.22"/><path class="cls-4" d="M425.41,313.27q7.05-5.5,13.92-11.21"/><ellipse class="cls-4" cx="350.37" cy="331.66" rx="11.76" ry="12.64"/><path class="cls-4" d="M344.94,321.1a156.56,156.56,0,0,0,11.43,21"/><ellipse class="cls-4" cx="369.09" cy="343.03" rx="7.12" ry="7.64"/><path class="cls-4" d="M368.2,350.3c1.15-4.83,2.09-9.71,2.8-14.61"/><ellipse class="cls-4" cx="347.84" cy="363.39" rx="9.23" ry="9.91"/><path class="cls-4" d="M339,365.06l18-.39"/><path class="cls-4" d="M367.88,350.49a89.76,89.76,0,0,0,3.17,12"/><ellipse class="cls-4" cx="430.95" cy="338.8" rx="7.12" ry="7.64" transform="matrix(0.05, -1, 1, 0.05, 73.08, 754.06)"/><path class="cls-4" d="M423.26,338.79a106.17,106.17,0,0,0,15.34.3"/><path class="cls-1" d="M222.54,229.41c0-13.88,5.74-30.35,9.26-43.77a92.82,92.82,0,0,0,1.9-37.9c-2.28-14.47-8-28.63-7-43.24"/><path class="cls-1" d="M223.85,215.81a9.21,9.21,0,0,1-4.5-1.55,35.55,35.55,0,0,1-16.93-25c4.19-.46,8.39,1.69,11.24,4.81s4.63,7,6.37,10.87S222.15,212.06,223.85,215.81Z"/><path class="cls-1" d="M249.75,192.67A38.68,38.68,0,0,0,224.2,215a14.63,14.63,0,0,0,8-1.43C240.12,209.94,247.12,201,249.75,192.67Z"/><path class="cls-1" d="M227.93,198.15a14.07,14.07,0,0,1-4.35-3.93,50.3,50.3,0,0,1-11-29.08c4.68,1.73,7.92,5.73,10.1,10.22C226.65,183.47,227.3,189.15,227.93,198.15Z"/><path class="cls-1" d="M253.33,176.32,247,179.38a46.26,46.26,0,0,0-7.34,4.11c-4.89,3.56-8.19,8.85-11.36,14C238.77,195.26,249.07,186.14,253.33,176.32Z"/><path class="cls-1" d="M233.91,176.25l-8.46-10.33a71.54,71.54,0,0,1-6.5-8.82A36,36,0,0,1,214.49,133a29.33,29.33,0,0,1,12.35,13.24c2,4.26,3,8.94,3.95,13.56C231.94,165.37,232.76,170.64,233.91,176.25Z"/><path class="cls-1" d="M261.78,137.3a29.28,29.28,0,0,0-17.4,11.38c-3.24,4.5-5.12,9.83-7,15.07l-3.42,9.8c6.64-3.56,12.92-6.86,18.12-12.31S261.27,144.82,261.78,137.3Z"/><path class="cls-1" d="M253.77,118c-5.67,2.91-11.52,6.12-15.09,11.4-3.2,4.75-4.17,10.62-5.06,16.28A74,74,0,0,0,253.77,118Z"/><path class="cls-1" d="M241.71,97.18c-4.11,2.11-8.34,4.43-10.92,8.25-2.32,3.44-3,7.68-3.66,11.77C234.48,113.79,240.19,107.75,241.71,97.18Z"/><path class="cls-1" d="M231,136.8a25.6,25.6,0,0,1-19.71-22.92,20.35,20.35,0,0,1,6.44,5A92.64,92.64,0,0,1,231,136.8Z"/><path class="cls-1" d="M228.23,84a25.48,25.48,0,0,0-4.7,21.13c.86,3.7,2.55,7.17,3.39,10.88a38.29,38.29,0,0,0,3.54-16.64C230.32,93.6,229.23,89.59,228.23,84Z"/><path class="cls-6" d="M295.59,136.56A18.06,18.06,0,0,0,281.22,146C286.93,146.12,294,142,295.59,136.56Z"/><path class="cls-6" d="M294,172.28a18,18,0,0,0-14.37,9.42C285.31,181.84,292.42,177.67,294,172.28Z"/><path class="cls-6" d="M300.39,158.88c-7.67.43-14.9,4-18.47,9.14C289.26,168.16,298.4,164.11,300.39,158.88Z"/><path class="cls-6" d="M300,147.64a13.4,13.4,0,0,0-10.69,1.17,17.05,17.05,0,0,0-7.14,8.2C290,156.33,297,152.3,300,147.64Z"/><path class="cls-6" d="M279.7,188.7a13.45,13.45,0,0,0-5.49-9.24,17,17,0,0,0-10.43-3.1C267.64,183.19,274.24,188,279.7,188.7Z"/><path class="cls-6" d="M281,172.77a13.44,13.44,0,0,0-3.43-10.19,17,17,0,0,0-9.54-5.21C270.36,164.85,275.81,170.91,281,172.77Z"/><path class="cls-6" d="M282.14,157.48a11.82,11.82,0,0,0-4.43-8.34,15,15,0,0,0-9-3.16C271.79,152.14,277.38,156.61,282.14,157.48Z"/><path class="cls-6" d="M280.85,146.33a11,11,0,0,0-4-7.82,13.88,13.88,0,0,0-8.31-3.08C271.34,141.19,276.46,145.44,280.85,146.33Z"/><path class="cls-6" d="M281,136.06l1,24.31c.44,10.86-3.9,22.4-1.82,33.77"/><path class="cls-3" d="M270.44,113.19s.09,13.1,2.93,18.45a9.12,9.12,0,0,0,9.91,4.72c9.4-2.19,7.22-17.83,6.72-24.48Z"/><path class="cls-3" d="M281.2,122.4c.06-3.57-.65-8-2.62-11a7.06,7.06,0,0,0-5.35-3.24,5.58,5.58,0,0,0-5.32,3,7.31,7.31,0,0,0-.5,3.74c.18,2.09,3.68,13.83,4.73,15.65,2.1.59,4.23,1.14,6.33,1.73"/><path class="cls-3" d="M281.77,122.36a18.57,18.57,0,0,1,1.13-10.67,7.09,7.09,0,0,1,4.88-3.93,5.6,5.6,0,0,1,5.67,2.29,7.41,7.41,0,0,1,1,3.64c.11,2.09-3.38,15.47-4.18,17.41a9.29,9.29,0,0,0-5.38,1.67"/><path class="cls-3" d="M285.47,112.6a4.88,4.88,0,0,0-8.55-4.66,3.41,3.41,0,0,0-.57,2.23,5.37,5.37,0,0,0,1.59,2.7,15.19,15.19,0,0,0,4.11.74C283.45,113.61,284.88,113.86,285.47,112.6Z"/><path class="cls-8" d="M279.26,136a57.76,57.76,0,0,1-2.89-27.18"/><path class="cls-8" d="M283,136a186.56,186.56,0,0,0,2.11-28.24"/><path class="cls-4" d="M281.36,137.69a8,8,0,0,1-3.62-.93,13.06,13.06,0,0,1-2.89-2.18,7.84,7.84,0,0,1-2.71-4A15,15,0,0,1,281.36,137.69Z"/><path class="cls-4" d="M280.6,137.58a8.21,8.21,0,0,1,2-3.14,13.87,13.87,0,0,1,3-2,7.86,7.86,0,0,1,4.63-1.3A11.43,11.43,0,0,1,280.6,137.58Z"/><path class="cls-4" d="M281.22,138c-1.2-.93-3.32-5.55-.64-10C283.49,131.63,283,134.14,281.22,138Z"/></svg>