<svg id="Слой_1" data-name="Слой 1" xmlns="http://www.w3.org/2000/svg" viewBox="0 0 515 599"><defs><style>.cls-1{fill:#365acc;}.cls-2{fill:#6b95e8;}.cls-3{fill:#83d5fb;}.cls-4{fill:#4c73d6;}.cls-5{fill:none;stroke:#83d5fb;stroke-miterlimit:10;}</style></defs><ellipse class="cls-1" cx="261.35" cy="556.83" rx="253.65" ry="40.6"/><path class="cls-2" d="M184.31,444.43c-26-23.73-46.88-56.07-62-96.11C109.52,314.24,102.1,279,94.92,236.56c-7.48-44.23-13.67-89.28-18.38-133.9l1.21-.12c4.71,44.59,10.89,89.61,18.37,133.82,7.17,42.36,14.57,77.54,27.37,111.53,15,39.86,35.74,72,61.63,95.65Z"/><path class="cls-2" d="M77.2,104.05a152.56,152.56,0,0,1-22-81.74c.11-5.4.68-11.18,3-15.93C60.28,2.13,65.68.32,69.66,2.87a7.94,7.94,0,0,1,2.67,2.86c2.11,3.76,2.8,8.14,3.37,12.42A371.72,371.72,0,0,1,77.2,104.05Z"/><path class="cls-2" d="M78.7,118a130.07,130.07,0,0,1,35.62-62.75c3.3-3.22,7.11-6.38,11.36-7.87a6.91,6.91,0,0,1,9.06,4.73,6.76,6.76,0,0,1-.1,3.33c-1,3.55-3.18,6.62-5.39,9.56A317.06,317.06,0,0,1,78.7,118Z"/><path class="cls-2" d="M78.71,117A130,130,0,0,1,16,81.32C12.74,78,9.58,74.22,8.09,70a6.9,6.9,0,0,1,4.73-9,6.75,6.75,0,0,1,3.33.09c3.55,1,6.62,3.18,9.56,5.4A316.65,316.65,0,0,1,78.71,117Z"/><path class="cls-2" d="M128.85,363.55c4.86-24.43,18.12-48.12,37.77-67.44,3.72-3.65,8-7.32,13-9.38,4.47-1.85,9.9-.3,11.29,3.51a5.64,5.64,0,0,1,.16,3.33c-.88,3.67-3.29,7-5.72,10.26A369.72,369.72,0,0,1,128.85,363.55Z"/><path class="cls-2" d="M129.38,363.31c-29-2.44-56.58-12-78.47-27.11-4.14-2.86-8.25-6.23-10.4-10.27-1.92-3.62.3-8.26,5-9.68a9.62,9.62,0,0,1,4-.35c4.35.49,8.22,2.28,11.95,4.09A348,348,0,0,1,129.38,363.31Z"/><path class="cls-2" d="M156.82,411.85c1.27-24.88,11-50.23,27.62-72.19,3.15-4.15,6.89-8.41,11.54-11.17,4.16-2.48,9.75-1.73,11.68,1.83a5.67,5.67,0,0,1,.64,3.28c-.35,3.76-2.24,7.43-4.17,11A369.42,369.42,0,0,1,156.82,411.85Z"/><path class="cls-2" d="M157.4,412.42c-29.06,1.79-57.71-3.64-81.56-15.46-4.51-2.24-9.07-5-11.78-8.67-2.42-3.3-.9-8.21,3.51-10.29a9.87,9.87,0,0,1,3.92-.93c4.38-.14,8.47,1.07,12.41,2.32A348,348,0,0,1,157.4,412.42Z"/><path class="cls-2" d="M84.23,162.17a130.2,130.2,0,0,1,47.52-54.31c3.89-2.48,8.25-4.81,12.72-5.42a6.9,6.9,0,0,1,7.91,6.46,6.58,6.58,0,0,1-.76,3.24c-1.67,3.28-4.44,5.84-7.2,8.28A317.12,317.12,0,0,1,84.23,162.17Z"/><path class="cls-2" d="M84.47,161.33a130.06,130.06,0,0,1-68.16-23.71c-3.75-2.67-7.55-5.84-9.79-9.76a6.91,6.91,0,0,1,3-9.76,6.69,6.69,0,0,1,3.29-.5c3.66.31,7.08,1.93,10.37,3.58A316.8,316.8,0,0,1,84.47,161.33Z"/><path class="cls-2" d="M91,209.92a149.17,149.17,0,0,1,54.47-62.26c4.45-2.84,9.46-5.51,14.58-6.21a7.91,7.91,0,0,1,9.07,7.4,7.65,7.65,0,0,1-.87,3.72c-1.91,3.76-5.1,6.69-8.26,9.49A363.87,363.87,0,0,1,91,209.92Z"/><path class="cls-2" d="M91.22,209a149.16,149.16,0,0,1-78.13-27.18c-4.31-3.07-8.66-6.7-11.23-11.19A7.93,7.93,0,0,1,5.33,159.4a7.74,7.74,0,0,1,3.77-.58c4.2.36,8.12,2.22,11.89,4.11A363,363,0,0,1,91.22,209Z"/><path class="cls-2" d="M98.89,256a154.57,154.57,0,0,1,58.26-62.55c4.75-2.87,10.09-5.57,15.54-6.29,4.87-.65,9.54,2.74,9.62,7.36a7.44,7.44,0,0,1-.95,3.72c-2.05,3.77-5.46,6.73-8.84,9.53A393.12,393.12,0,0,1,98.89,256Z"/><path class="cls-2" d="M99.18,255a164,164,0,0,1-83-26.81c-4.57-3-9.18-6.66-11.89-11.13a7.76,7.76,0,0,1,3.75-11.21,8.59,8.59,0,0,1,4-.6c4.47.34,8.63,2.17,12.64,4A385.33,385.33,0,0,1,99.18,255Z"/><path class="cls-2" d="M109.83,309.21c12.68-25.4,33.15-47.37,58.27-62.55,4.75-2.87,10.08-5.57,15.53-6.29,4.88-.65,9.55,2.74,9.62,7.36a7.45,7.45,0,0,1-.94,3.72c-2.06,3.77-5.46,6.73-8.84,9.53A393.2,393.2,0,0,1,109.83,309.21Z"/><path class="cls-2" d="M110.13,308.25a163.94,163.94,0,0,1-83-26.81c-4.57-3-9.18-6.66-11.89-11.13A7.76,7.76,0,0,1,19,259.1a8.7,8.7,0,0,1,4-.61c4.47.35,8.63,2.18,12.63,4.05A384.62,384.62,0,0,1,110.13,308.25Z"/><path class="cls-1" d="M187.63,308.13l159.93-100.9,48.72,36.39C371.17,252.1,344,261.55,318.85,270c-10.45,3.53-20.91,7.06-31.14,11.17-9.32,3.74-18.45,8-27.84,11.5C236.65,301.45,212.45,308.13,187.63,308.13Z"/><path class="cls-1" d="M206.38,303.29Q284,260.65,360.92,216.61"/><path class="cls-1" d="M207.75,302.55s99.42-42.85,169.1-73.1"/><path class="cls-3" d="M173.16,308.79q24.14-35.43,50.28-69.38V178.19c-.18-.17-.35-.34-.52-.52-25.39,44.52-49,90.07-69.55,137"/><path class="cls-3" d="M223.11,177.25c-7.34-4.1-25.52-8.35-25.52-8.35-19.66,41.18-38.87,83.79-57.08,125.64,3.55,1.2,15.92,6.64,18.88,7.19C160.17,300.51,202.68,217.83,223.11,177.25Z"/><path class="cls-2" d="M172.91,303.87c32-43.19,69.07-87.71,102.73-129.63-.05,23.58.19,54.74.14,78.32-29,17.82-84.48,53.9-84.48,53.9"/><polygon class="cls-2" points="275.64 174.24 269.66 172.93 165.39 302.71 171.61 305.82 275.64 174.24"/><path class="cls-2" d="M170.1,301.88S270.83,175.33,271.66,174.31"/><path class="cls-2" d="M191.77,296.2l77.57-84.49"/><line class="cls-2" x1="230.64" y1="268.77" x2="262.03" y2="236.19"/><path class="cls-2" d="M217.09,302.12l181.34-64.75a2.63,2.63,0,0,1,3.44,2.49V520.59a5.23,5.23,0,0,1-3.4,4.9L217.93,593.06,211.47,589"/><polygon class="cls-1" points="241.37 330.15 381.61 282.47 381.61 324.98 241.37 373.85 241.37 330.15"/><polygon class="cls-1" points="241.37 384.18 381.61 336.5 381.61 345.24 241.37 394.11 241.37 384.18"/><path class="cls-3" d="M249.8,509.15s.92-198.65-1.36-213.6c-1.4-9.13-7.91-15.53-13.28-17.33a.86.86,0,0,1-.15-1.55l9.35-5.71a.89.89,0,0,1,.81-.07c17.37,7.28,15.49,32.13,15.49,32.13l-.34,202.39L254.66,500Z"/><path class="cls-4" d="M135,289.32l57-122.77a1.82,1.82,0,0,1,2.19-1l2.49.77a1.83,1.83,0,0,1,1.12,2.51L140.51,294.54Z"/><path class="cls-4" d="M218,593.22l0-291.42a124.58,124.58,0,0,1-43.27,2.07c-14.82-1.9-29.54-6.6-39.71-14.55V566.06c0,18.54,23.32,25.7,36,26.89C186.59,594.4,203.74,595.4,218,593.22Z"/><ellipse class="cls-1" cx="176.01" cy="451.12" rx="23.24" ry="75.09"/><path class="cls-1" d="M200.73,329.48a163.3,163.3,0,0,1-64.31-13.16.52.52,0,0,1-.26-.67.51.51,0,0,1,.67-.27,161.51,161.51,0,0,0,86,11.48.52.52,0,0,1,.58.42.52.52,0,0,1-.43.58A150.47,150.47,0,0,1,200.73,329.48Z"/><path class="cls-1" d="M199.49,346.12A163.3,163.3,0,0,1,135.18,333a.52.52,0,0,1-.26-.67.51.51,0,0,1,.67-.27,161.51,161.51,0,0,0,86,11.48.51.51,0,0,1,.15,1A150.47,150.47,0,0,1,199.49,346.12Z"/><path class="cls-1" d="M200.73,555.93a163.3,163.3,0,0,1-64.31-13.16.52.52,0,0,1-.26-.67.51.51,0,0,1,.67-.27,161.5,161.5,0,0,0,86,11.48.52.52,0,0,1,.58.42.52.52,0,0,1-.43.58A150.47,150.47,0,0,1,200.73,555.93Z"/><path class="cls-1" d="M199.49,572.57a163.3,163.3,0,0,1-64.31-13.16.52.52,0,0,1-.26-.67.51.51,0,0,1,.67-.27,161.51,161.51,0,0,0,86,11.48.52.52,0,0,1,.57.42.5.5,0,0,1-.42.58A150.47,150.47,0,0,1,199.49,572.57Z"/><path class="cls-5" d="M402.6,496.92C417.38,466.48,422.06,435,425,398.56c3.83-47.26,3.62-99.61,1.81-152.13"/><path class="cls-3" d="M428,297.18a192.35,192.35,0,0,0,30.31-44.39"/><path class="cls-3" d="M427,370.2q21.74-22.11,42-45.58"/><path class="cls-3" d="M451.28,344.91c12.24-2.38,26.12-5,38.36-7.37"/><path class="cls-3" d="M387.62,280a65.14,65.14,0,0,0,40.74,38.18"/><path class="cls-3" d="M387,353.24c9.52,14.14,23.7,26.93,38.32,35.7"/><path class="cls-3" d="M419.78,443.16c17.05-14.68,44.56-36.49,61.61-51.17"/><line class="cls-3" x1="458.63" y1="373.66" x2="457.8" y2="411"/><path class="cls-3" d="M406,388.65l14.28-3.31"/><path class="cls-3" d="M416.39,369.14s3.9,16.2,3.77,16.53"/><path class="cls-3" d="M382.36,423.16a221.43,221.43,0,0,0,31.22,43.77"/><line class="cls-3" x1="388.68" y1="461.72" x2="407.36" y2="460.13"/><path class="cls-3" d="M440.64,426.57q21.8,1.23,43.46,4.16"/><ellipse class="cls-3" cx="461.43" cy="252.3" rx="12.22" ry="13.13"/><path class="cls-3" d="M454.09,261.43l14.52-18.34"/><ellipse class="cls-3" cx="426.28" cy="244.51" rx="12.22" ry="13.13"/><line class="cls-3" x1="425.86" y1="231.95" x2="427.17" y2="257.18"/><ellipse class="cls-3" cx="389.6" cy="282.54" rx="12.22" ry="13.13"/><path class="cls-3" d="M386.65,270.76q2.31,9.87,4.61,19.73"/><ellipse class="cls-3" cx="389.6" cy="303.59" rx="12.22" ry="13.13"/><path class="cls-3" d="M378.9,309.37a104.12,104.12,0,0,0,14.21-5.3"/><ellipse class="cls-3" cx="402.85" cy="295.78" rx="12.22" ry="13.13"/><path class="cls-3" d="M408.34,306.83q-5.73-11.06-10.37-22.64"/><path class="cls-3" d="M467.66,374.45c0,5.43-4.1,9.82-9.15,9.82s-9.14-4.39-9.14-9.82,4.09-9.82,9.14-9.82S467.66,369,467.66,374.45Z"/><path class="cls-3" d="M458.53,383.84q.15-9.39.29-18.79"/><ellipse class="cls-3" cx="472.63" cy="314.46" rx="15.11" ry="16.23"/><path class="cls-3" d="M465.82,328q8.54-11.43,17.52-22.51"/><ellipse class="cls-3" cx="486.21" cy="331.44" rx="15.11" ry="16.23"/><path class="cls-3" d="M475,339.87Q487,332,498.47,323.54"/><path class="cls-3" d="M474.81,340.12l25.36-10.84"/><ellipse class="cls-3" cx="389.15" cy="351.81" rx="12.22" ry="13.13"/><path class="cls-3" d="M384.46,340.54a204.33,204.33,0,0,0,9.05,22.37"/><path class="cls-3" d="M421.93,359.51c0,5.42-4.1,9.82-9.15,9.82s-9.14-4.4-9.14-9.82,4.09-9.82,9.14-9.82S421.93,354.09,421.93,359.51Z"/><path class="cls-3" d="M410.35,350.93l5.49,16.61"/><ellipse class="cls-3" cx="395.75" cy="389.51" rx="12.32" ry="11.47"/><path class="cls-3" d="M384.6,391.49a104.4,104.4,0,0,0,22-3.06"/><ellipse class="cls-3" cx="485.7" cy="389.51" rx="12.22" ry="13.13"/><path class="cls-3" d="M476.66,396.11q9-7.08,17.88-14.41"/><ellipse class="cls-3" cx="380.27" cy="419.73" rx="15.11" ry="16.23"/><path class="cls-3" d="M373.29,406.15a201.29,201.29,0,0,0,14.68,27"/><ellipse class="cls-3" cx="404.31" cy="434.33" rx="9.14" ry="9.82"/><path class="cls-3" d="M403.17,443.66q2.22-9.3,3.6-18.76"/><ellipse class="cls-3" cx="377.01" cy="460.48" rx="11.86" ry="12.74"/><path class="cls-3" d="M365.59,462.63l23.1-.51"/><path class="cls-3" d="M402.76,443.92a114.79,114.79,0,0,0,4.07,15.37"/><ellipse class="cls-3" cx="483.77" cy="428.9" rx="9.14" ry="9.82" transform="translate(33.52 892.87) rotate(-87.42)"/><path class="cls-3" d="M473.89,428.89a136.65,136.65,0,0,0,19.72.38"/><path class="cls-1" d="M216.06,288.37c0-17.82,7.38-39,11.9-56.22a119.48,119.48,0,0,0,2.44-48.68c-2.93-18.59-10.28-36.77-9-55.55"/><path class="cls-1" d="M217.74,270.91a11.86,11.86,0,0,1-5.77-2,45.69,45.69,0,0,1-21.76-32.07c5.39-.59,10.78,2.16,14.44,6.17s5.95,9,8.19,14S215.56,266.1,217.74,270.91Z"/><path class="cls-1" d="M251,241.19a49.68,49.68,0,0,0-32.82,28.7c3.31.56,7.2-.44,10.26-1.84C238.64,263.37,247.63,251.88,251,241.19Z"/><path class="cls-1" d="M223,248.22a18.09,18.09,0,0,1-5.6-5,64.7,64.7,0,0,1-14.1-37.36c6,2.23,10.17,7.36,13,13.13C221.34,229.37,222.18,236.66,223,248.22Z"/><path class="cls-1" d="M255.6,220.19l-8.1,3.92a59.59,59.59,0,0,0-9.43,5.28c-6.29,4.58-10.52,11.37-14.6,18C236.9,244.51,250.14,232.79,255.6,220.19Z"/><path class="cls-1" d="M230.66,220.08,219.8,206.82a91.4,91.4,0,0,1-8.36-11.33,46.4,46.4,0,0,1-5.73-31,37.7,37.7,0,0,1,15.88,17c2.61,5.47,3.85,11.48,5.07,17.42C228.14,206.11,229.18,212.88,230.66,220.08Z"/><path class="cls-1" d="M266.47,170.06a37.53,37.53,0,0,0-22.35,14.61c-4.17,5.79-6.58,12.63-8.94,19.37l-4.41,12.59c8.54-4.58,16.6-8.82,23.29-15.82S265.81,179.72,266.47,170.06Z"/><path class="cls-1" d="M256.18,145.24c-7.29,3.74-14.8,7.86-19.38,14.65-4.12,6.1-5.36,13.63-6.51,20.9A94.93,94.93,0,0,0,256.18,145.24Z"/><path class="cls-1" d="M240.68,118.52c-5.27,2.7-10.71,5.68-14,10.6-3,4.41-3.88,9.86-4.71,15.12C231.4,139.86,238.73,132.1,240.68,118.52Z"/><path class="cls-1" d="M227,169.41A32.81,32.81,0,0,1,201.66,140c3.12,1.31,6,3.89,8.27,6.36A119.24,119.24,0,0,1,227,169.41Z"/><path class="cls-1" d="M223.37,101.52a32.72,32.72,0,0,0-6,27.14c1.1,4.76,3.27,9.22,4.35,14a49,49,0,0,0,4.55-21.37C226.05,113.92,224.65,108.76,223.37,101.52Z"/><path class="cls-2" d="M309.9,169.1a23.2,23.2,0,0,0-18.46,12.11C298.77,181.39,307.91,176,309.9,169.1Z"/><path class="cls-2" d="M307.81,215a23.21,23.21,0,0,0-18.46,12.11C296.69,227.28,305.83,221.91,307.81,215Z"/><path class="cls-2" d="M316.06,197.78c-9.85.55-19.13,5.14-23.73,11.74C301.76,209.69,313.5,204.49,316.06,197.78Z"/><path class="cls-2" d="M315.51,183.34a17.25,17.25,0,0,0-13.73,1.5,21.84,21.84,0,0,0-9.17,10.54C302.65,194.5,311.75,189.33,315.51,183.34Z"/><path class="cls-2" d="M289.48,236.08a17.27,17.27,0,0,0-7.05-11.87,21.84,21.84,0,0,0-13.39-4C274,229,282.47,235.14,289.48,236.08Z"/><path class="cls-2" d="M291.14,215.62a17.27,17.27,0,0,0-4.41-13.09,21.85,21.85,0,0,0-12.25-6.7C277.48,205.45,284.49,213.24,291.14,215.62Z"/><path class="cls-2" d="M292.61,196a15.11,15.11,0,0,0-5.68-10.71,19.27,19.27,0,0,0-11.58-4.07C279.33,189.11,286.51,194.86,292.61,196Z"/><path class="cls-2" d="M291,181.65a14.11,14.11,0,0,0-5.1-10,17.82,17.82,0,0,0-10.67-4C278.75,175.06,285.32,180.51,291,181.65Z"/><path class="cls-2" d="M291.19,168.47q.63,15.61,1.27,31.22c.58,13.95-5,28.78-2.33,43.38"/><path class="cls-2" d="M277.59,139.09s.11,16.82,3.76,23.69a11.72,11.72,0,0,0,12.74,6.07c12.06-2.82,9.27-22.9,8.62-31.44Z"/><path class="cls-2" d="M291.41,150.92c.08-4.59-.84-10.24-3.36-14.07a9.11,9.11,0,0,0-6.88-4.17,7.19,7.19,0,0,0-6.83,3.89,9.43,9.43,0,0,0-.64,4.8c.22,2.68,4.72,17.77,6.07,20.1,2.7.76,5.43,1.47,8.14,2.23"/><path class="cls-2" d="M292.14,150.87c-.69-4.54-.54-9.58,1.45-13.71a9.13,9.13,0,0,1,6.27-5,7.2,7.2,0,0,1,7.29,2.94,9.48,9.48,0,0,1,1.27,4.67c.13,2.7-4.35,19.88-5.37,22.37a11.94,11.94,0,0,0-6.91,2.14"/><path class="cls-2" d="M296.9,138.32a6.27,6.27,0,0,0-11-6,4.45,4.45,0,0,0-.73,2.86,6.85,6.85,0,0,0,2,3.47,18.82,18.82,0,0,0,5.29,1C294.31,139.63,296.13,140,296.9,138.32Z"/><path class="cls-2" d="M288.92,168.39a74.12,74.12,0,0,1-3.71-34.91"/><path class="cls-2" d="M293.75,168.39a240.63,240.63,0,0,0,2.71-36.28"/><path class="cls-2" d="M291.62,170.56a10.49,10.49,0,0,1-4.66-1.19,17.73,17.73,0,0,1-3.71-2.8c-1.54-1.42-3.07-3-3.48-5.1A19.33,19.33,0,0,1,291.62,170.56Z"/><path class="cls-2" d="M290.64,170.42a10.54,10.54,0,0,1,2.62-4,18,18,0,0,1,3.84-2.62c1.84-1,3.87-1.93,5.95-1.67C300.19,167.37,296.1,170,290.64,170.42Z"/><path class="cls-3" d="M291.44,171c-1.54-1.18-4.27-7.11-.83-12.87C294.35,162.78,293.74,166,291.44,171Z"/></svg>