<svg version="1.1" id="Слой_1" xmlns="http://www.w3.org/2000/svg" xmlns:xlink="http://www.w3.org/1999/xlink" x="0" y="0" viewBox="0 0 585 309" xml:space="preserve"><style>.st263{fill:#f35000}.st272{fill:#ff7300}.st298{fill:#fda157}</style><defs><path id="SVGID_132_" d="M-48-50.32h648.68v359.49H-48z"/></defs><clipPath id="SVGID_2_"><use xlink:href="#SVGID_132_" overflow="visible"/></clipPath><g clip-path="url(#SVGID_2_)"><path class="st298" d="M114 105.32l-6.96 132.08-27.4-1.32.03-.55 17.12.83 4.87-89.19.88-17.93 1.21-24.95c.16-3.33-1.74-6.27-4.59-7.54l7.38.35a7.83 7.83 0 017.46 8.22z"/></g><g clip-path="url(#SVGID_2_)"><path class="st263" d="M93.04 105.63l-6.89 130.7-7.6-.37 6.95-132.09c.21-4.34 3.89-7.67 8.23-7.47l11.71.57c1.67.07 3.19.68 4.41 1.62l-8.58-.43c-4.33-.2-8 3.13-8.23 7.47z"/></g><g clip-path="url(#SVGID_2_)"><path class="st298" d="M54.33 102.94L69.69 234.3l-27.23 3.3-.07-.55 17.02-2.07-10.21-88.73-2.15-17.82-3-24.8c-.4-3.31-2.77-5.89-5.8-6.66l7.33-.89a7.85 7.85 0 018.75 6.86z"/></g><g clip-path="url(#SVGID_2_)"><path class="st263" d="M33.71 106.77L48.9 236.76l-7.56.92L25.99 106.3a7.846 7.846 0 016.86-8.74l11.64-1.41c1.66-.21 3.26.14 4.62.85l-8.53 1.02c-4.31.53-7.37 4.43-6.87 8.75z"/></g><g clip-path="url(#SVGID_2_)"><path class="st298" d="M164.33 174.38l-27.18-3.72.07-.55 16.99 2.33 6.83-49.87c-3.19-6.59-2.43-12.52 2.44-17.77l3.39-24.77a7.827 7.827 0 00-3.92-7.91l7.32 1.01c4.31.59 7.31 4.54 6.72 8.85l-12.66 92.4z"/><path class="st298" d="M164.93 175.17l-28.56-3.91.23-1.94 17 2.33 6.71-48.97c-3.19-6.75-2.35-12.87 2.49-18.2l3.36-24.55c.4-2.94-.99-5.77-3.56-7.2l-3.25-1.81 11.01 1.51c2.27.31 4.28 1.48 5.66 3.3a8.514 8.514 0 011.66 6.34l-12.75 93.1zm-10.01-2.78l8.81 1.21 12.57-91.71c.26-1.9-.23-3.78-1.39-5.3a7.093 7.093 0 00-4.73-2.76l-4.78-.66c1.7 1.84 2.52 4.36 2.16 6.96l-3.42 24.98-.15.16c-4.66 5.02-5.42 10.58-2.32 16.99l.09.19-6.84 49.94z"/></g><g clip-path="url(#SVGID_2_)"><path class="st263" d="M156.08 80.46l-12.48 91.03-7.54-1.03 12.66-92.41a7.844 7.844 0 018.85-6.72l11.61 1.59c1.66.22 3.12.96 4.26 2l-8.51-1.18c-4.28-.59-8.24 2.41-8.85 6.72z"/></g><g clip-path="url(#SVGID_2_)"><path class="st298" d="M84.12 231.08l-27.39 1.47-.04-.55 17.12-.92-2.7-50.26c-4.37-5.87-4.76-11.84-.96-17.91l-1.34-24.96a7.837 7.837 0 00-5.34-7.03l7.38-.39c4.34-.24 8.03 3.08 8.27 7.42l5 93.13z"/></g><g clip-path="url(#SVGID_2_)"><path class="st263" d="M58.29 140.39l4.93 91.74-7.6.41-5.01-93.14c-.24-4.34 3.08-8.03 7.42-8.27l11.7-.63c1.67-.1 3.24.35 4.56 1.16l-8.58.45c-4.31.25-7.63 3.94-7.42 8.28z"/></g><g clip-path="url(#SVGID_2_)"><path class="st298" d="M143.87 140.39L129.2 271.84l-27.28-2.93.06-.55 17.04 1.83 10.08-88.76 1.92-17.85 2.67-24.84c.35-3.32-1.37-6.36-4.14-7.8l7.34.79c4.33.48 7.45 4.34 6.98 8.66z"/></g><g clip-path="url(#SVGID_2_)"><path class="st263" d="M122.93 139.48L108.4 269.55l-7.57-.81 14.67-131.46c.46-4.32 4.33-7.43 8.65-6.97l11.65 1.25c1.66.17 3.14.87 4.31 1.87l-8.54-.93c-4.29-.46-8.16 2.66-8.64 6.98z"/></g><g clip-path="url(#SVGID_2_)"><path class="st298" d="M222.45 111.95L207.77 243.4l-27.28-2.93.06-.55 17.04 1.83 10.08-88.76 1.92-17.85 2.67-24.84c.35-3.32-1.37-6.36-4.14-7.8l7.34.79c4.34.47 7.46 4.34 6.99 8.66z"/></g><g clip-path="url(#SVGID_2_)"><path class="st263" d="M201.5 111.03L186.98 241.1l-7.57-.81 14.67-131.46c.46-4.32 4.33-7.43 8.65-6.97l11.65 1.25c1.66.17 3.14.87 4.31 1.87l-8.54-.93c-4.3-.45-8.16 2.66-8.65 6.98z"/></g><g clip-path="url(#SVGID_2_)"><path class="st298" d="M196.02 225.21l-27.42.86-.03-.55 17.14-.54-1.57-50.31c-4.24-5.97-4.49-11.94-.56-17.93l-.78-24.99c-.1-3.32-2.24-6.1-5.18-7.15l7.39-.23c4.34-.14 7.96 3.26 8.1 7.61l2.91 93.23z"/></g><g clip-path="url(#SVGID_2_)"><path class="st263" d="M172.23 133.97l2.87 91.83-7.61.24-2.92-93.23c-.14-4.34 3.26-7.96 7.61-8.1l11.71-.37c1.67-.06 3.23.43 4.53 1.26l-8.59.26c-4.32.15-7.72 3.77-7.6 8.11z"/></g><g clip-path="url(#SVGID_2_)"><path class="st298" d="M153.35 254.66l-26.77-6.01.11-.54 16.73 3.75 11.02-49.11c-2.62-6.84-1.37-12.69 3.93-17.5l5.47-24.39c.73-3.24-.65-6.47-3.24-8.21l7.21 1.62a7.85 7.85 0 015.95 9.39l-20.41 91z"/><path class="st298" d="M153.88 255.5l-28.12-6.31.39-1.91 16.74 3.76 10.83-48.22c-2.61-6.99-1.26-13.02 4.02-17.92l5.43-24.18c.65-2.9-.5-5.83-2.94-7.48l-3.08-2.08 10.84 2.44c2.23.5 4.14 1.84 5.36 3.77a8.526 8.526 0 011.12 6.46l-20.59 91.67zm-9.73-3.62l8.68 1.95 20.27-90.32c.42-1.87.09-3.79-.93-5.4a7.11 7.11 0 00-4.48-3.15l-4.71-1.06c1.54 1.97 2.14 4.56 1.57 7.12l-5.52 24.61-.16.15c-5.07 4.61-6.29 10.08-3.74 16.73l.08.2-11.06 49.17z"/></g><g clip-path="url(#SVGID_2_)"><path class="st263" d="M153.07 160.37l-20.13 89.64-7.43-1.66 20.43-91.01c.95-4.24 5.14-6.89 9.39-5.95l11.44 2.57c1.63.36 3.02 1.22 4.07 2.35l-8.38-1.89c-4.22-.94-8.42 1.72-9.39 5.95z"/></g><g clip-path="url(#SVGID_2_)"><path class="st272" d="M241.15 187.33l-14.2 88.29-5.42 33.64-13 80.83c-.88 5.6-5.71 9.7-11.39 9.7h-18.07c-2.34 0-4.61-.71-6.46-2.12-29.77-22.8-67.35-21.6-96.95-.08-1.92 1.39-4.2 2.2-6.58 2.2h-18.2c-5.68 0-10.51-4.1-11.41-9.7l-12.39-77.04-6.22-38.74-13.98-86.98c-1.14-7.01 4.28-13.37 11.39-13.37h15c3.59 0 6.97 1.67 9.15 4.54 20.89 27.39 46.74 43.2 81.59 41.81 34.97-.43 60.7-14.41 81.59-41.81 2.16-2.87 5.56-4.54 9.15-4.54h15c7.12-.01 12.54 6.36 11.4 13.37z"/></g><g clip-path="url(#SVGID_2_)"><path class="st298" d="M197.15 404.13h-18.07c-3.38 0-6.53-1.04-9.1-3.02-27.57-21.11-62.73-21.12-91.75-.01-2.74 1.98-5.89 3.03-9.13 3.03H50.9c-7.85 0-14.45-5.62-15.7-13.35L2.59 188.02c-.75-4.59.56-9.27 3.58-12.82 3.02-3.55 7.43-5.59 12.1-5.59h15c4.99 0 9.59 2.28 12.61 6.25 21.52 28.22 47.03 41.34 77.96 40.09 32.92-.42 57.76-13.16 78.31-40.1 2.94-3.9 7.66-6.25 12.61-6.25h15c4.67 0 9.08 2.04 12.1 5.59a15.86 15.86 0 013.58 12.82l-32.62 202.75c-1.21 7.74-7.81 13.37-15.67 13.37zm-72.52-27.36c17.82 0 35.46 5.81 50.63 17.43 1.05.8 2.37 1.23 3.82 1.23h18.07c3.56 0 6.54-2.54 7.1-6.03l32.62-202.76v-.01c.34-2.08-.25-4.19-1.62-5.8a7.186 7.186 0 00-5.48-2.53h-15c-2.23 0-4.36 1.05-5.68 2.8-22.32 29.26-49.33 43.09-85.01 43.54-1.47.06-2.94.09-4.39.09-31.89 0-58.35-14.3-80.71-43.61a7.085 7.085 0 00-5.69-2.82h-15c-2.11 0-4.11.92-5.48 2.53a7.22 7.22 0 00-1.62 5.8l32.6 202.76c.57 3.5 3.56 6.04 7.12 6.04h18.2c1.4 0 2.79-.47 4.03-1.37 15.83-11.53 33.75-17.29 51.49-17.29z"/></g><g clip-path="url(#SVGID_2_)"><path class="st263" d="M576.63 150.25H384.41c-5.34 0-9.66-4.33-9.66-9.66v-1.54c0-5.34 4.33-9.66 9.66-9.66h192.23c5.34 0 9.66 4.33 9.66 9.66v1.54c-.01 5.34-4.33 9.66-9.67 9.66z"/></g><g clip-path="url(#SVGID_2_)"><path class="st263" d="M586.3 139.6v.43c0 5.65-4.57 10.22-10.22 10.22h-42.3c5.63 0 10.21-4.57 10.21-10.22v-.43c0-5.63-4.57-10.21-10.21-10.21h42.3c5.64 0 10.22 4.58 10.22 10.21z"/></g><g clip-path="url(#SVGID_2_)"><path class="st298" d="M489.42 116.64c-.2 0-.41-.01-.62-.04l-22.38-3.19a4.369 4.369 0 01-2.89-1.73 4.34 4.34 0 01-.79-3.27l12.29-76.36c.87-6.13 5.36-11.19 11.41-12.82L553.76 1.1c7.79-2.09 15.82 2.53 17.92 10.32l.53 1.99c2.09 7.78-2.53 15.82-10.32 17.92l-57.41 15.46L493.7 113a4.336 4.336 0 01-4.28 3.64zm-17.39-11.22l13.78 1.96 10.55-64.77a4.343 4.343 0 013.16-3.5l60.12-16.19c3.15-.85 5.03-4.11 4.18-7.26l-.53-1.99c-.85-3.15-4.11-5.04-7.26-4.18L488.7 27.63a6.948 6.948 0 00-5.08 5.73l-11.59 72.06z"/></g><g clip-path="url(#SVGID_2_)"><path d="M553.11 104.47H407.93c-5.49 0-10.23 3.85-11.35 9.22l-3.29 15.7h174.45l-3.29-15.7c-1.11-5.38-5.85-9.22-11.34-9.22z" fill="#ef6406"/></g><g clip-path="url(#SVGID_2_)"><path class="st272" d="M567.75 129.39h-27.52l-3.29-15.7c-1.13-5.37-5.86-9.23-11.35-9.23h27.52c5.49 0 10.22 3.86 11.35 9.23l3.29 15.7z"/></g><g clip-path="url(#SVGID_2_)"><path class="st272" d="M567.75 133.73H393.29c-1.31 0-2.55-.59-3.37-1.61a4.326 4.326 0 01-.88-3.63l3.29-15.7c1.54-7.35 8.1-12.68 15.6-12.68h145.18c7.5 0 14.07 5.33 15.6 12.68l3.29 15.7a4.352 4.352 0 01-4.25 5.24zm-169.11-8.69h163.75l-2.19-10.46c-.7-3.34-3.68-5.76-7.1-5.76H407.93c-3.41 0-6.4 2.42-7.1 5.76l-2.19 10.46z"/></g><g clip-path="url(#SVGID_2_)"><path class="st272" d="M567.75 150.26l-5.74 83.29-3.44 49.73-6.38 92.57c-1.03 14.88-13.41 26.45-28.32 26.45h-86.68c-14.92 0-27.3-11.56-28.32-26.45l-5.42-78.54-3.7-53.74-6.43-93.3h174.43z"/></g><g clip-path="url(#SVGID_2_)"><path fill="#ff8429" d="M562.01 233.54l-3.45 49.73-1.96-1.08-29.7 18.19-29.7-18.19-29.71 18.19-29.7-18.19-29.71 18.19-4.65-3.08-3.7-53.74 8.33 4.55 29.7-18.17 29.69 18.17 29.72-18.17 29.7 18.17 29.71-18.17z"/></g><g clip-path="url(#SVGID_2_)"><path class="st298" d="M523.85 406.63h-86.67c-17.14 0-31.49-13.39-32.67-30.49l-15.56-225.59c-.08-1.2.34-2.38 1.16-3.27.82-.88 1.97-1.38 3.18-1.38h174.45c1.21 0 2.36.5 3.18 1.38.82.88 1.24 2.06 1.16 3.27l-15.56 225.59c-1.18 17.1-15.53 30.49-32.67 30.49zM397.95 154.6l15.24 220.94c.87 12.56 11.41 22.39 23.99 22.39h86.67c12.59 0 23.13-9.84 23.99-22.39l15.24-220.94H397.95z"/></g><g clip-path="url(#SVGID_2_)"><path class="st298" d="M424.04 240.96v11.44c0 10.43-8.47 18.9-18.9 18.9h-206.5c-10.43 0-18.9-8.47-18.9-18.9v-11.44c0-.82.05-1.6.16-2.38 1.16-9.34 9.13-16.54 18.74-16.54h206.49c9.91 0 18.07 7.65 18.83 17.39.06.5.08 1 .08 1.53z"/></g><g clip-path="url(#SVGID_2_)"><path class="st272" d="M424.04 240.96v11.44c0 10.43-8.47 18.9-18.9 18.9h-48.91c10.43 0 18.9-8.47 18.9-18.9v-1.23c-1.63 0-3.3-.42-5.04-1.25-1.7-1.36-3.41-2.57-5.09-3.63-6.89-4.31-15.61-4.52-22.81-.77-6.73 3.49-14.38 3.15-22.52.7-19.73-6.38-36.37-5.48-48.89 5.01-7.25 5.46-14.57 5.77-21.96 1.08-4.05-2.7-8.28-5.04-12.71-6.9-4.69-1.96-9.89-2.21-14.8-.87-20.69 5.65-38.41 3.03-41.4-5.95 1.16-9.34 9.13-16.54 18.74-16.54h206.49c9.91 0 18.07 7.65 18.83 17.39.05.49.07.99.07 1.52z"/></g><g clip-path="url(#SVGID_2_)"><path class="st298" d="M424.04 304.63v8.69c0 8.15-6.62 14.78-14.78 14.78H194.52c-8.15 0-14.78-6.62-14.78-14.78v-8.69c0-8.15 6.62-14.78 14.78-14.78h214.73c8.16 0 14.79 6.62 14.79 14.78z"/></g><g clip-path="url(#SVGID_2_)"><path class="st263" d="M392.1 231.44c-3.08-.97-6.47.54-8.61 2.96-4.14 4.68-8.73 5.77-13.79 3.34-1.7-1.36-3.41-2.57-5.09-3.63-6.89-4.31-15.61-4.52-22.81-.77-5.51 2.85-11.63 3.15-18.12 1.81h-.03c-1.44-.3-2.9-.68-4.36-1.11-19.75-6.38-36.37-5.48-48.89 5.01-7.25 5.46-14.57 5.77-21.96 1.08-4.05-2.7-8.28-5.04-12.71-6.9-4.69-1.96-9.89-2.21-14.8-.87-32.24 8.82-57.26-2.49-30.58-26.57l161.7 1.86 63.03.73c20.69 20.32 3.01 31.34-22.98 23.06z"/></g><g clip-path="url(#SVGID_2_)"><path class="st272" d="M403 210.46c-.28.02-.56.02-.83.02H201.62c-10.52 0-18.2-10.05-15.32-20.17 13.72-48.08 60.26-83.46 115.59-83.46 17.56 0 34.24 3.56 49.24 9.96 32.32 13.77 56.98 40.67 66.35 73.5 2.82 9.84-4.4 19.63-14.48 20.15z"/></g><g clip-path="url(#SVGID_2_)"><path class="st263" d="M418.09 279.99v1.17c0 4.8-3.89 8.69-8.69 8.69H194.38a8.69 8.69 0 01-8.69-8.69v-1.17c0-4.8 3.89-8.69 8.69-8.69H409.4c4.8 0 8.69 3.89 8.69 8.69z"/></g><g clip-path="url(#SVGID_2_)"><path class="st298" d="M392.1 231.44c-3.08-.97-6.47.54-8.61 2.96-4.14 4.68-8.73 5.77-13.79 3.34-1.7-1.36-3.41-2.57-5.09-3.63-6.89-4.31-15.61-4.52-22.81-.77-5.51 2.85-11.63 3.15-18.12 1.81 15.18 1.53 23.26-6.03 22.76-24.69l5.6-2.82 63.03.73c20.7 20.33 3.02 31.35-22.97 23.07z"/></g><g clip-path="url(#SVGID_2_)"><path d="M397.73 289.85v4.94a7 7 0 01-7.01 7.02c-7.08 0-13.98 2.19-19.75 6.29l-28.15 20-.52.37a22.9 22.9 0 01-24.31 1.41l-3.23-1.77-40.6-22.27a32.655 32.655 0 00-15.7-4.02h-3.27c-4.99 0-9.91-1.34-14.22-3.86l-13.84-8.1h170.6z" fill="#f58800"/></g><g clip-path="url(#SVGID_2_)"><path class="st298" d="M344.32 327.04l-1.5 1.06-.52.37a22.9 22.9 0 01-24.31 1.41l-3.23-1.77-40.6-22.27a32.655 32.655 0 00-15.7-4.02h-3.27c-4.99 0-9.91-1.34-14.22-3.86l-13.84-8.1h16.27l5.96 3.49c4.31 2.52 9.23 3.86 14.22 3.86h3.27c5.49 0 10.88 1.37 15.7 4.02l40.6 22.27 3.23 1.77a22.842 22.842 0 0017.94 1.77z"/></g><g clip-path="url(#SVGID_2_)"><path class="st298" d="M403 210.46H285.81c100.41 4.63 103.6-74.45 65.29-93.65h.03c32.32 13.77 56.98 40.67 66.35 73.5 2.82 9.84-4.4 19.63-14.48 20.15z"/></g></svg>