<svg version="1.1" id="Слой_1" xmlns="http://www.w3.org/2000/svg" xmlns:xlink="http://www.w3.org/1999/xlink" x="0" y="0" viewBox="0 0 585 837" xml:space="preserve"><style>.st263{fill:#f35000}.st264{fill:#ff8429}</style><defs><path id="SVGID_132_" d="M581 477.68h648.68v359.49H581z"/></defs><clipPath id="SVGID_2_"><use xlink:href="#SVGID_132_" overflow="visible"/></clipPath><path d="M575.49 455.93L200 837c-66.79.31-133.58.61-200.36.92L0 95c27.51-26.08 55.02-52.16 82.52-78.24l6.44 3.14 8.52 6.05 2.12-14.41 8.68-4.08 10.47 11.13V5.5l4.75-5.73 8.18 4.09 7.03 11.78-2.29 11.62 15.34-15.24 12.81 1.17-1.31 9.16 7.2-6.71 9.99 6.88-4.09 9.82 12.77-11.79 1.8 2.46 1.63 2.45 15.99-15.35 17.73.95-7.03 17.01 14.24-13.26 9.33 4.25-3.76 11.62 16.2-8.02 4.42 7.2 7.03-6.91 8.02-2.09.33 14.58 9.49-18.83 7.86 4.42 4.75-8.67 6.88-.83 7.04 6.71 2.13 7.53L330.4 8.61l1.64-1.48 11.62-1.63.65 17.84 10.15-9.99 8.02 2.79-2.13 16.21 15.88-10.48 3.76 3.77 9.01-9.01 7.69-1.8 2.29 16.7 7.53-20.95 12.76 8.02 1.97-13.27 7.2.66 6.71 14.24L452.5 2.88l5.07-2.79 6.88.66 1.64 3.11-2.62 16.86 11.95-12.93 8.67 4.25-5.07 15.55 13.09-12.93 9.99 4.91-1.8 11.62-5.63 15.1-13.85 14.04-9.49 48.77-2.3 83.15 13.76 29.79 12.76 9.99 1.31 38.14 12.11 19.48 1.64 9.99-1.64 28.16 4.74 12.6 1.07 26.57-29.22 29.42-9.99 24.54 20.3 18.18 79.62 16.82z" fill-rule="evenodd" clip-rule="evenodd" fill="#ff8429"/><path class="st263" d="M581.82 443.85c0 32.08-128.33 58.1-286.45 58.1-158.28 0-286.45-26.02-286.45-58.1 0-32.09 128.17-58.1 286.45-58.1 158.12 0 286.45 26.02 286.45 58.1zM137.41 12.04a34.157 34.157 0 00-5.56-8.67l-.17.16c-2.62-4.08-7.85-5.73-12.44-3.59-3.77 1.63-5.89 5.07-6.05 8.84-2.79-2.14-6.55-2.62-9.99-1.15-3.76 1.64-6.05 5.4-6.05 9.17-2.95-2.95-7.37-4.09-11.46-2.29-4.09 1.8-6.38 6.05-5.89 10.32-.17 0 .65 7.85 2.45 11.78 6.88 15.72 24.88 23.08 40.28 16.21 15.21-6.72 21.92-25.06 14.88-40.78zM86.84 35.78c-5.56-10.48-1.31-15.06 1.31-15.38 2.45-.49-1.47 6.38 4.91 17.18 3.93 6.54 12.12 13.09 12.12 13.09S92.57 46.1 86.84 35.78zm18.49-23.4c6.55-1.8 13.26 29.13 13.26 29.13s-19.81-27.33-13.26-29.13zm27.83 7.68c-2.62-10.96-10.31-14.73-9.5-16.69.82-1.8 4.91-1.97 10.15 9.65 5.24 11.46-.98 23.4-.98 23.4s2.46-7.03.33-16.36zm328.03 32.75c15.22 6.87 33.22-.49 40.27-16.21 1.63-3.93 2.45-11.78 2.45-11.78.32-4.26-1.8-8.51-5.89-10.32-4.09-1.8-8.68-.66-11.46 2.29 0-3.77-2.29-7.53-6.06-9.17-3.44-1.46-7.2-.98-9.99 1.15-.16-3.77-2.45-7.2-6.06-8.84-3.27-1.48-6.88-1.15-9.49.65-1.48.99-4.09 3.93-5.24 5.4-1.31 1.8-2.62 3.92-3.6 6.05-6.86 15.73-.15 34.07 15.07 40.78zm17.35-2.14s8.18-6.55 11.95-13.09c6.55-10.81 2.45-17.68 5.07-17.18 2.62.32 6.88 4.9 1.15 15.38-5.57 10.32-18.17 14.89-18.17 14.89zm-13.42-9.16s6.71-30.93 13.26-29.13c6.38 1.8-13.26 29.13-13.26 29.13zm-14.24-5.08s-6.38-11.95-1.15-23.4c5.24-11.62 9.33-11.45 10.15-9.65.82 1.96-6.87 5.73-9.33 16.69-2.13 9.32.33 16.36.33 16.36zm-193.32 7.7c.98-1.96 1.8-3.92 2.29-5.89.33-1.47 1.14-5.88.98-7.53-.16-3.43-2.13-6.71-5.57-8.51-3.6-1.63-7.69-1.14-10.64 1.15-.17-3.43-2.13-6.88-5.57-8.51-3.6-1.8-7.86-1.14-10.8 1.31.49-4.09-1.64-8.34-5.56-10.31-8.18-3.93-16.05 5.08-19.32 11.47-7.53 15.38-1.64 33.87 13.26 41.4 15.07 7.35 33.4.81 40.93-14.58zM207.15 20.4c4.26-11.13 10.64-10.65 12.61-9.01 1.96 1.8-5.9 2.94-10.15 14.89-2.46 7.2-2.29 17.69-2.29 17.69s-4.6-12.61-.17-23.57zm29.79-.83c5.4 3.77-13.91 28.82-13.91 28.82s8.34-32.58 13.91-28.82zm11.79 26.2c6.71-8.85 4.91-17.19 6.87-17.84 1.96-.49 4.58 2.62-.98 14.07-5.56 11.3-18.82 14.07-18.82 14.07s7.03-2.61 12.93-10.3zm129.8-2.63c.98-1.8 1.63-3.76 2.29-5.73.33-1.47 1.15-5.89.98-7.53-.16-3.43-2.12-6.87-5.56-8.51-3.6-1.8-7.69-1.31-10.64.98-.16-3.43-2.12-6.71-5.56-8.34-3.61-1.97-7.86-1.31-10.97 1.14.49-4.08-1.47-8.35-5.4-10.15-8.19-4.09-16.04 4.91-19.31 11.3-7.54 15.55-1.64 34.04 13.26 41.41 14.88 7.37 33.21.98 40.91-14.57zm-50.42-23.73c1.47-3.77 7.36-13.26 12.6-8.84 1.8 1.63-5.89 2.94-10.15 14.89-2.45 7.04-2.45 17.52-2.45 17.52s-4.42-12.6 0-23.57zm29.63-.81c5.56 3.92-13.91 28.8-13.91 28.8s8.51-32.57 13.91-28.8zm11.95 26.34c6.71-8.84 4.74-17.35 6.71-17.84 1.96-.65 4.75 2.46-.82 13.92s-18.82 14.24-18.82 14.24 7.04-2.62 12.93-10.32zm-175.96-7.36c.49-1.31.82-2.79.98-4.09.33-1.48.65-5.56.33-7.2-.49-2.94-2.62-5.56-5.57-6.54-3.27-1.14-6.55-.17-8.67 1.97-.66-2.79-2.62-5.4-5.57-6.39-3.27-.98-6.71 0-9 2.29 0-3.43-2.13-6.71-5.56-7.86-3.6-1.14-7.37.17-9.5 2.95-.15 0-4.09 5.24-5.23 8.67-4.58 13.59 2.29 28.16 15.55 32.74 13.24 4.42 27.65-2.96 32.24-16.54zm-44.36-14.24c2.29-9.5 7.53-9.82 9.33-8.68 1.79 1.15-4.42 3.11-6.55 13.42-1.31 6.22-.16 14.9-.16 14.9s-5.08-9.98-2.62-19.64zm24.55-3.77c4.91 2.46-8.35 25.37-8.35 25.37s3.28-27.99 8.35-25.37zm12.61 20.31c4.74-8.02 2.12-14.73 3.76-15.39 1.48-.82 4.1 1.48.66 11.62-3.28 9.99-13.92 13.75-13.92 13.75s5.57-2.95 9.5-9.98zm111.63 15.05c13.09-4.42 20.14-19.15 15.55-32.74-1.96-5.73-7.53-13.9-14.73-11.45-3.44 1.15-5.57 4.42-5.73 7.86-2.13-2.46-5.57-3.45-8.84-2.29-2.95.98-4.91 3.43-5.57 6.38-2.12-2.13-5.56-3.11-8.67-2.13-2.62.98-4.42 2.95-5.24 5.4-.82 2.29-.33 7.04 0 9.16.33 1.15.48 2.29.98 3.28 4.58 13.75 18.99 21.12 32.25 16.53zm9.49-11.13s1.14-8.51-.17-14.73c-2.13-10.31-8.51-12.27-6.71-13.42 1.96-1.31 7.03-.82 9.49 8.68 2.47 9.65-2.61 19.47-2.61 19.47zm-13.58 1.97s-13.26-22.75-8.35-25.37c5.07-2.46 8.35 25.37 8.35 25.37zm-11.46 5.07s-10.64-3.76-14.08-13.92c-3.27-9.98-.65-12.27.82-11.62 1.64.83-.98 7.54 3.77 15.56 3.92 7.04 9.49 9.98 9.49 9.98zm137.49-1.96c13.26-4.43 20.13-19.15 15.55-32.74-1.15-3.28-5.07-8.67-5.07-8.51-2.13-2.94-5.89-4.25-9.5-2.94-3.61 1.14-5.73 4.25-5.73 7.85-2.12-2.45-5.73-3.43-8.84-2.29-3.11.98-5.07 3.45-5.56 6.39-2.29-2.29-5.57-3.11-8.68-2.13-2.95 1.14-5.07 3.43-5.56 6.38-.49 1.8 0 6.39.32 8.19.17 1.14.49 2.29.82 3.28 4.75 13.57 19.16 21.1 32.25 16.52zm9.5-11.13s1.31-8.68 0-14.73c-2.12-10.31-8.51-12.28-6.71-13.42 1.8-1.31 7.03-.82 9.49 8.67 2.29 9.66-2.78 19.48-2.78 19.48zm-13.43 1.96s-13.42-22.75-8.35-25.37c4.92-2.45 8.35 25.37 8.35 25.37zm-11.61 5.08s-10.64-3.77-13.92-13.92c-3.27-9.99-.82-12.27.82-11.62 1.47.82-.99 7.53 3.6 15.55 4.09 7.03 9.5 9.99 9.5 9.99z"/><path d="M468.39 43.8H122.36c-9.99 0-18 8.02-18 17.84v346.2c0 9.82 8.02 17.84 18 17.84 9.82 0 17.84-8.02 17.84-17.84V233.52C250.03 186.7 289.16 126.78 302.9 91.6c13.26 33.55 49.27 89.53 147.65 135.2v181.03c0 9.82 8.02 17.84 17.83 17.84 9.82 0 17.85-8.02 17.85-17.84V61.64c0-9.82-8.02-17.84-17.84-17.84z" fill="#f9b946"/><path class="st263" d="M167.86 348.09c-1.48-10.15-7.53-16.2-6.06-27.01 1.15-9.65 4.26-15.22 1.31-24.88-3.76-12.44-13.26-18.34-13.42-32.9-.17-9.17 3.11-28.33-7.37-34.05-9-4.91-30.44-5.4-39.45-.49-11.13 6.06-8.84 25.21-8.68 35.36.66 20.46-18.66 31.1-13.59 52.54 2.79 11.46-2.45 17.84-3.92 27.82-1.31 9.17 1.47 17.52 2.29 26.52.32 3.11 8.02 1.31 7.69-2.14-.49-5.07-1.47-9.98-2.45-15.21-2.62-12.77 4.25-12.93 5.73-22.43.98-6.05 0-10.47-1.63-16.53-3.77-13.42 1.8-21.77 9.16-31.92 6.22-8.84 4.42-20.14 4.26-30.12-.16-6.88 1.64-16.04 7.53-19.64 8.84-5.57 29.14-.49 32.08 10.64 2.95 11.13-3.27 26.02 2.95 36.34 5.89 9.99 13.09 17.52 12.77 30.12-.17 6.06-4.74 11.96-3.77 18.18.98 6.22 3.93 11.13 6.22 16.86 2.78 7.04-1.64 18-2.29 25.21-.33 3.6 7.53 2.29 7.69-.82.66-6.71 3.94-14.74 2.95-21.45zM518.48 344c-1.47-9.98-7.53-16.2-6.06-27 1.15-9.5 4.26-15.23 1.31-24.71-3.76-12.44-13.26-18.33-13.42-32.9-.17-12.28 2.62-27.83-9.82-35.04-4.75-2.79-10.48-2.62-15.88-1.8-22.09-.32-36.5.49-35.68 32.25.16 11.29-.65 18.83-7.53 28.31-4.59 6.54-9.33 15.39-7.36 23.74 1.96 8.35 5.4 15.55 1.47 24.71-1.14 2.78-3.6 5.89-3.92 9-1.47 9.16 1.31 17.35 2.29 26.51.16 3.11 7.85 1.32 7.53-2.13-.33-5.23-1.48-10.15-2.45-15.23-2.45-12.76 4.26-12.92 5.73-22.42 1.15-6.06.16-10.64-1.64-16.7-3.6-13.26 1.8-21.6 9.17-31.92 6.22-8.67 4.59-19.97 4.26-30.12-.17-10.31 3.44-15.55 8.83-18.33 10.81-1.14 26.36-6.05 33.89 1.97 8.67 8.99 1.8 31.26 5.4 43.2 1.8 6.22 8.68 13.27 11.46 18.99 4.58 9.33-.98 19.8-2.12 29.13-.65 4.59 2.62 9.5 4.58 13.27 4.75 9.49.33 19.8-.65 29.62-.33 3.6 7.53 2.29 7.69-.82.62-6.68 3.9-14.7 2.92-21.58z"/><defs><path id="SVGID_134_" d="M-677.21-323h610.75V833.98h-610.75z"/></defs><clipPath id="SVGID_3_"><use xlink:href="#SVGID_134_" overflow="visible"/></clipPath><g clip-path="url(#SVGID_3_)"><path class="st264" d="M17.95 833.44c-14.75 0-29.55-1.18-44.09-2.35-14.32-1.14-29.13-2.32-43.46-2.32-14.33 0-29.14 1.18-43.48 2.32-28.18 2.25-57.35 4.61-85.27-1.76-29.05-6.6-54.56-21.57-79.24-36.05-12.52-7.34-24.35-14.29-36.58-20.18-12.55-6.06-26.16-11.35-39.32-16.45-26.54-10.29-53.99-20.92-76.79-39.13-22.89-18.29-39.34-42.68-55.25-66.27-7.87-11.7-16.02-23.78-24.67-34.63-8.59-10.74-18.06-20.83-28.11-31.52-19.55-20.75-39.76-42.23-52.57-68.82-12.61-26.14-16.86-55.26-20.97-83.43-2.05-14.01-4.15-28.48-7.27-42.16-2.97-13.12-7.08-26.12-11.43-39.89-8.61-27.27-17.51-55.5-17.51-85.54 0-30.05 8.9-58.27 17.51-85.54 4.34-13.77 8.46-26.77 11.43-39.89 3.12-13.69 5.23-28.16 7.27-42.17 4.11-28.17 8.35-57.31 20.97-83.45 12.82-26.57 33.03-48.05 52.57-68.82 10.05-10.67 19.53-20.75 28.11-31.51 8.66-10.84 16.82-22.93 24.69-34.62 15.9-23.6 32.35-48 55.24-66.28 22.81-18.21 50.26-28.86 76.81-39.14 13.17-5.11 26.76-10.38 39.31-16.44 12.23-5.89 24.06-12.84 36.58-20.18 24.68-14.47 50.19-29.45 79.24-36.05 27.91-6.33 57.08-4.01 85.27-1.77 14.33 1.14 29.15 2.32 43.48 2.32 14.33 0 29.15-1.18 43.47-2.32 28.2-2.24 57.35-4.57 85.26 1.77 29.07 6.6 54.59 21.58 79.26 36.05 12.53 7.35 24.35 14.3 36.56 20.2 12.57 6.05 26.16 11.32 39.33 16.43 26.54 10.28 54 20.93 76.81 39.14 22.88 18.28 39.33 42.69 55.24 66.28 7.87 11.69 16.02 23.78 24.68 34.62 8.58 10.74 18.06 20.82 28.1 31.49 19.55 20.78 39.75 42.25 52.58 68.82 12.6 26.14 16.85 55.27 20.97 83.44 2.04 14.01 4.14 28.48 7.26 42.17 2.98 13.12 7.07 26.12 11.42 39.89 8.63 27.28 17.52 55.49 17.52 85.54 0 30.04-8.9 58.27-17.52 85.54-4.34 13.77-8.44 26.77-11.42 39.89-3.12 13.68-5.22 28.15-7.27 42.17-4.11 28.15-8.36 57.29-20.95 83.43-12.83 26.58-33.05 48.05-52.6 68.83-10.03 10.67-19.51 20.77-28.1 31.49-8.65 10.85-16.79 22.92-24.67 34.62-15.91 23.6-32.36 47.99-55.25 66.28-22.79 18.21-50.26 28.85-76.79 39.14-13.17 5.1-26.76 10.39-39.33 16.44-12.23 5.89-24.03 12.84-36.58 20.18-24.67 14.48-50.19 29.45-79.25 36.05-13.52 3.1-27.34 4.14-41.2 4.14zM-69.6 806.4c15.22 0 30.48 1.2 45.24 2.38 27.75 2.19 53.95 4.29 78.53-1.29 25.69-5.83 49.67-19.93 72.86-33.51 12.37-7.27 25.15-14.77 38.2-21.07 13.33-6.43 27.36-11.88 40.96-17.14 26.11-10.11 50.78-19.68 70.92-35.75 20.2-16.16 34.98-38.08 50.64-61.31 8.12-12.05 16.51-24.53 25.74-36.06 9.15-11.47 19.4-22.34 29.3-32.88 19.24-20.44 37.39-39.74 48.72-63.21 11.1-23.04 14.94-49.22 18.98-76.93 2.1-14.43 4.29-29.37 7.6-43.91 3.18-14.02 7.62-28.08 11.9-41.67 8.1-25.66 16.47-52.2 16.47-78.79 0-26.61-8.38-53.14-16.47-78.8-4.28-13.61-8.72-27.66-11.9-41.68-3.3-14.54-5.5-29.46-7.6-43.9-4.03-27.71-7.87-53.89-18.98-76.94-11.33-23.47-29.48-42.77-48.71-63.2-9.91-10.54-20.17-21.43-29.3-32.88-9.24-11.55-17.62-24.01-25.75-36.08-15.66-23.23-30.43-45.16-50.64-61.3-20.14-16.07-44.81-25.63-70.92-35.76-13.59-5.26-27.61-10.7-40.96-17.14-13.05-6.3-25.82-13.79-38.2-21.04-23.18-13.61-47.18-27.69-72.86-33.53-24.58-5.58-50.78-3.5-78.53-1.3-14.76 1.17-30.02 2.4-45.24 2.4-15.22 0-30.5-1.23-45.26-2.4-27.74-2.2-53.94-4.29-78.53 1.3-25.67 5.83-49.67 19.91-72.87 33.53-12.35 7.25-25.13 14.73-38.17 21.03-13.36 6.45-27.39 11.88-40.96 17.15-26.12 10.13-50.79 19.69-70.92 35.76-20.21 16.14-34.99 38.07-50.65 61.3-8.12 12.05-16.53 24.53-25.76 36.08-9.16 11.45-19.4 22.34-29.31 32.88-19.23 20.43-37.38 39.73-48.7 63.19-11.12 23.04-14.93 49.24-18.98 76.95-2.11 14.44-4.28 29.36-7.58 43.9-3.19 14.01-7.64 28.07-11.92 41.68-8.1 25.65-16.47 52.18-16.47 78.8 0 26.6 8.38 53.14 16.47 78.79 4.29 13.59 8.74 27.65 11.93 41.67 3.3 14.55 5.47 29.48 7.58 43.91 4.04 27.71 7.85 53.87 18.98 76.93 11.32 23.47 29.48 42.76 48.7 63.21 9.91 10.53 20.15 21.42 29.31 32.88 9.22 11.53 17.63 24.01 25.76 36.06 15.65 23.23 30.43 45.15 50.64 61.31 20.12 16.06 44.79 25.62 70.92 35.75 13.56 5.26 27.59 10.69 40.96 17.14 13.04 6.3 25.82 13.79 38.17 21.03 23.2 13.62 47.2 27.71 72.87 33.55 24.58 5.58 50.79 3.49 78.53 1.29 14.77-1.17 30.04-2.38 45.26-2.38z"/><path class="st264" d="M-150.55 787.72c-12.64 0-25.19-.95-37.44-3.71-26.43-6.02-49.83-19.75-72.45-33.02-11.63-6.82-22.61-13.28-34.02-18.78-11.71-5.66-24.35-10.55-36.58-15.29-24.35-9.43-49.51-19.18-70.25-35.76-20.82-16.62-35.9-38.99-50.48-60.63-7.32-10.87-14.89-22.08-22.96-32.21-8.02-10.01-17.24-19.81-26.15-29.29-17.93-19.06-36.45-38.74-48.11-62.9-11.47-23.78-15.37-50.49-19.13-76.34-1.89-12.99-3.85-26.44-6.76-39.2-2.77-12.23-6.59-24.31-10.63-37.11-7.89-25.01-16.05-50.86-16.05-78.21 0-27.35 8.16-53.22 16.05-78.22 4.04-12.79 7.85-24.87 10.63-37.11 2.91-12.77 4.87-26.22 6.77-39.23 3.77-25.82 7.66-52.54 19.13-76.31 11.66-24.16 30.18-43.85 48.11-62.9 8.92-9.48 18.14-19.28 26.15-29.31 8.06-10.11 15.63-21.33 22.95-32.19 14.58-21.64 29.67-44.03 50.49-60.65 20.74-16.57 45.91-26.33 70.25-35.76 12.23-4.74 24.86-9.64 36.57-15.3 11.41-5.5 22.39-11.93 34.02-18.76 22.62-13.28 46.02-27.01 72.45-33.02 25.38-5.75 52.12-3.63 77.98-1.57 13.3 1.05 27.05 2.15 40.42 2.15 13.36 0 27.13-1.1 40.43-2.15 25.85-2.07 52.57-4.19 77.97 1.57 26.41 6.01 49.82 19.74 72.45 33.03 11.63 6.82 22.61 13.26 34.02 18.76 11.7 5.66 24.33 10.55 36.55 15.3 24.35 9.43 49.52 19.18 70.27 35.75 20.82 16.62 35.9 39 50.48 60.64 7.3 10.86 14.87 22.09 22.96 32.19 8.01 10.03 17.22 19.84 26.14 29.31 17.93 19.04 36.46 38.74 48.12 62.91 11.47 23.76 15.36 50.48 19.13 76.3 1.9 13 3.86 26.46 6.76 39.23 2.78 12.25 6.61 24.32 10.64 37.12 7.89 25 16.06 50.86 16.06 78.21 0 27.34-8.17 53.2-16.06 78.19-4.03 12.82-7.86 24.9-10.64 37.13-2.9 12.78-4.86 26.22-6.76 39.23-3.77 25.84-7.66 52.55-19.13 76.32-11.65 24.17-30.19 43.85-48.12 62.9-8.91 9.48-18.14 19.29-26.14 29.29-8.09 10.14-15.66 21.35-22.96 32.22-14.58 21.63-29.67 44.01-50.5 60.63-20.74 16.57-45.91 26.32-70.26 35.75-12.22 4.74-24.85 9.64-36.55 15.29-11.43 5.5-22.39 11.95-34.02 18.78-22.63 13.27-46.04 27-72.45 33.02-25.4 5.72-52.12 3.62-77.97 1.55-13.3-1.06-27.06-2.15-40.43-2.15-13.37 0-27.12 1.09-40.43 2.15-13.37 1.07-26.98 2.16-40.52 2.16zm80.95-19.24c13.96 0 28.01 1.13 41.62 2.2 25.86 2.08 50.29 4.02 73.46-1.24 24.18-5.51 46.56-18.63 68.19-31.33 11.39-6.67 23.14-13.58 35.11-19.35 12.23-5.89 25.16-10.9 37.65-15.76 24.35-9.44 47.38-18.35 66.33-33.48 19.04-15.22 32.83-35.66 47.42-57.33 7.48-11.1 15.23-22.58 23.68-33.16 8.39-10.5 17.81-20.51 26.94-30.23 17.14-18.21 34.87-37.08 45.52-59.17 10.48-21.69 14.03-46.13 17.8-71.97 1.95-13.28 3.97-27.04 7-40.37 2.9-12.84 7-25.8 10.94-38.32 7.57-23.92 15.36-48.67 15.36-73.71 0-25.06-7.79-49.79-15.36-73.73-3.94-12.52-8.04-25.46-10.94-38.3-3.03-13.34-5.04-27.08-7-40.37-3.77-25.86-7.32-50.27-17.8-71.97C385.67 18.8 367.94-.05 350.8-18.27c-9.11-9.69-18.54-19.73-26.94-30.23-8.45-10.58-16.2-22.07-23.67-33.17-14.59-21.66-28.39-42.12-47.43-57.32-18.95-15.14-41.98-24.06-66.33-33.5-12.49-4.84-25.41-9.86-37.65-15.76-11.94-5.76-23.72-12.66-35.11-19.35-21.63-12.69-44.01-25.84-68.19-31.32-23.17-5.27-47.6-3.32-73.48-1.25-13.59 1.08-27.64 2.2-41.61 2.2-13.97 0-28.02-1.12-41.61-2.2-25.89-2.06-50.33-4.01-73.48 1.25-24.17 5.49-46.56 18.63-68.2 31.32-11.37 6.68-23.13 13.59-35.09 19.35-12.25 5.9-25.16 10.91-37.65 15.76-24.37 9.44-47.38 18.36-66.33 33.5-19.05 15.2-32.83 35.67-47.43 57.33-7.48 11.1-15.22 22.58-23.67 33.17-8.39 10.49-17.81 20.53-26.94 30.22-17.15 18.22-34.89 37.06-45.54 59.16-10.46 21.7-14.04 46.11-17.81 71.97-1.93 13.29-3.94 27.03-6.97 40.37-2.92 12.84-7.01 25.78-10.95 38.3-7.55 23.94-15.36 48.67-15.36 73.73 0 25.05 7.81 49.79 15.36 73.74 3.94 12.49 8.03 25.45 10.95 38.29 3.03 13.33 5.03 27.07 6.97 40.35 3.77 25.85 7.34 50.3 17.81 71.99 10.66 22.09 28.39 40.94 45.54 59.17 9.12 9.7 18.55 19.73 26.93 30.22 8.46 10.58 16.19 22.06 23.68 33.16 14.59 21.67 28.38 42.12 47.42 57.34 18.96 15.13 41.97 24.05 66.33 33.48 12.5 4.83 25.42 9.86 37.66 15.76 11.95 5.77 23.72 12.68 35.09 19.35 21.64 12.7 44.03 25.82 68.2 31.33 23.15 5.26 47.6 3.32 73.48 1.24 13.6-1.08 27.66-2.2 41.62-2.2z"/><path class="st264" d="M-135.39 785.41c-68.24 0-82.83-23.59-91.31-27.89-4.87-2.48-10.44-3.18-15.35-5.54-8.72-4.21-11.81-14.23-21.62-16.87-43.03-11.55 10.39 6.42-72.77-26.97-111.92-44.96-99.72-81.79-160.4-162.02-16.55-21.87-38.35-37.06-48.6-63.52-13.54-34.91-14.98-84.22-21.15-104.87-1.66-5.56-5.09-10.26-7.79-15.3-6.05-11.37-4.41-24.98-7.41-37.31-7.75-31.97-14.34-8.66-11.59-79.36.53-13.69 7.92-25 11.8-37.87 29.84-99.08 19.81-69.72 16.39-100.21-1.01-8.89 3.06-67.29 31.22-92.97 10.11-9.21 21.85-16.62 30.68-27.2 8.91-10.63 15.43-22.98 23.18-34.43 7.74-11.44 16.65-22.06 24.58-33.38 24.7-35.32 18.14-29.77 56.21-58.85 11.06-8.44 21.54-18.31 34.27-24.27 11.58-5.43 24.64-7.57 36.37-12.7 6.08-2.66 9.84-7.57 14.86-11.67 5.13-4.21 10.95-7.54 16.83-10.55 38.49-19.7 43.56-6.25 73.48-29.71 30.68-24.05 38.67-26.54 78.17-17.84 30.63 6.74 27.09.14 42.15 1.08 14.23.89 27.44 4.56 41.91 3.77 35.67-1.9 35.73-7.27 62.37-2.48 7.37 1.33 15.33-1.45 22.74-2.13 50.49-4.69 100.61 35.52 113.29 43.72 35 22.69 101.64 37.91 116.65 46.23 24.66 13.66 29.14 42.58 46.11 62.87 23.44 28.05 27.05 17.3 48.94 63.51 11.2 23.6 38.62 18.04 75.13 137.95 4.28 14.05 8.53 28.41 11.25 42.86 2.7 14.26-2.25 28.65 1.36 42.7 1.46 5.73 3.9 11.18 5.21 16.95 1.61 7.14 2.08 13.06 6.07 19.45 7.02 11.22 10.4 22.82 10.4 36.08-.01 24.01-2.52 50.63-14.04 72.2-21.54 40.27-19.54 7.81-32.55 120.35-8.01 69.3-70.3 92.75-93.1 131.06-15.23 25.56-15.66 40.07-48.04 66.3-43.37 35.14-46.8 30.49-104.88 54.57-57.18 23.71-26.14 48.6-100.89 59.04-61.88 8.65-5.01 10.09-124.01 5.97-25.68-.88-28.2-3.4-37.16-.06-13.27 4.92-24.54 9.31-38.96 9.31zM-211-218.92c-43.04 33.9-31.94 8.98-86.65 38.27-14.59 7.81-18.8 23.74-46.94 32.97-63.77 20.9-47.06 59.74-138.23 132.61-30.87 24.69-60.08 80.59-57.01 109.9 3.42 32.66-.98 45.93-3.04 59.63-2.24 14.89-16.51 62-25.54 80.53-25.9 53.18 6.96 39.84 13.71 118.52.03.4 12.73 82.04 12.73 82.04 11.05 67.7 32.46 70.13 55.49 99.57 50.36 64.35 55.5 113.4 123.61 145.68 6.88 3.25 84.13 35.67 91.54 37.45 13.15 3.15 26.86 4.53 39.19 10.41 28.58 13.66 21.55 31.69 67.37 39.19 43.05 7.05 49.32-.74 72.14-9.53 25.84-9.99 55.85-3.3 82.76-1.3 46.95 3.52 24.32 6.47 82.84-3.15 39.49-6.46 37.2-23.51 59.23-42.04 17.99-15.12 75.88-29.6 103.69-47.6 56.7-36.7 54.83-59.66 73.28-87.11 15.1-22.45 63.22-57.17 79.49-88.45 6.56-12.6 7.05-21.14 13.91-76.94 9.9-80.59 19.43-44.46 36.7-103.08 14.65-49.66 8.09-51.58-8.05-76.07-7.49-11.37-12.04-22.73-12.04-36.5.02-27.07 12.17-31.32-21.73-118.52-27.54-70.88-43.47-55.86-60.67-96.79-18.37-43.83-23.71-34.84-48.1-63.73-18.44-21.84-21.44-49-43.52-60.44-10.97-5.68-78.42-22.67-112.39-43.6-15.93-9.85-64.46-46.28-104.49-44.02-13.67.76-27.05 4.3-40.72 5.35-58.64 4.5-45.32 8.66-123.37-3.15-36-5.46-41.78-16.41-75.19 9.9z"/></g><path clip-path="url(#SVGID_3_)" fill="#ff8429" d="M497.53 259.66H-56.08l381-381.01-7.91-7.91L-64 251.75v-538.82h-11.2v538.82l-380.99-381.01-7.92 7.91 381 381.01h-553.61v11.19h553.61l-381 381 7.92 7.93L-75.2 278.75v538.84H-64V278.75l381.01 381.03 7.91-7.93-381-381h553.61z"/></svg>