<svg version="1.1" id="Слой_1" xmlns="http://www.w3.org/2000/svg" xmlns:xlink="http://www.w3.org/1999/xlink" x="0" y="0" viewBox="0 0 585 1140" xml:space="preserve"><style>.st263{fill:#f35000}.st264{fill:#ff8429}.st298{fill:#fda157}</style><defs><path id="SVGID_134_" d="M-26.21-20h610.75v1156.98H-26.21z"/></defs><clipPath id="SVGID_2_"><use xlink:href="#SVGID_134_" overflow="visible"/></clipPath><g clip-path="url(#SVGID_2_)"><path class="st264" d="M668.95 1136.44c-14.75 0-29.55-1.18-44.09-2.35-14.32-1.14-29.13-2.32-43.46-2.32-14.33 0-29.14 1.18-43.48 2.32-28.18 2.25-57.35 4.61-85.27-1.76-29.05-6.6-54.56-21.57-79.24-36.05-12.52-7.34-24.35-14.29-36.58-20.18-12.55-6.06-26.16-11.35-39.32-16.45-26.54-10.29-53.99-20.92-76.79-39.13-22.89-18.29-39.34-42.68-55.25-66.27-7.87-11.7-16.02-23.78-24.67-34.63-8.59-10.74-18.06-20.83-28.11-31.52-19.55-20.75-39.76-42.23-52.57-68.82-12.61-26.14-16.86-55.26-20.97-83.43-2.05-14.01-4.15-28.48-7.27-42.16-2.97-13.12-7.08-26.12-11.43-39.89-8.61-27.27-17.51-55.5-17.51-85.54 0-30.05 8.9-58.27 17.51-85.54 4.34-13.77 8.46-26.77 11.43-39.89 3.12-13.69 5.23-28.16 7.27-42.17 4.11-28.17 8.35-57.31 20.97-83.45 12.82-26.57 33.03-48.05 52.57-68.82 10.05-10.67 19.53-20.75 28.11-31.51 8.66-10.84 16.82-22.93 24.69-34.62 15.9-23.6 32.35-48 55.24-66.28 22.81-18.21 50.26-28.86 76.81-39.14 13.17-5.11 26.76-10.38 39.31-16.44 12.23-5.89 24.06-12.84 36.58-20.18 24.68-14.47 50.19-29.45 79.24-36.05 27.91-6.33 57.08-4.01 85.27-1.77 14.33 1.14 29.15 2.32 43.48 2.32 14.33 0 29.15-1.18 43.47-2.32 28.2-2.24 57.35-4.57 85.26 1.77 29.07 6.6 54.59 21.58 79.26 36.05 12.53 7.35 24.35 14.3 36.56 20.2 12.57 6.05 26.16 11.32 39.33 16.43 26.54 10.28 54 20.93 76.8 39.14 22.88 18.28 39.33 42.69 55.24 66.28 7.87 11.69 16.02 23.78 24.68 34.62 8.58 10.74 18.06 20.82 28.1 31.49 19.55 20.78 39.75 42.25 52.58 68.82 12.6 26.14 16.85 55.27 20.97 83.44 2.04 14.01 4.14 28.48 7.26 42.17 2.98 13.12 7.07 26.12 11.42 39.89 8.63 27.28 17.52 55.49 17.52 85.54 0 30.04-8.9 58.27-17.52 85.54-4.34 13.77-8.44 26.77-11.42 39.89-3.12 13.68-5.22 28.15-7.27 42.17-4.11 28.15-8.36 57.29-20.95 83.43-12.83 26.58-33.05 48.05-52.6 68.83-10.03 10.67-19.52 20.77-28.1 31.49-8.65 10.85-16.79 22.92-24.67 34.62-15.91 23.6-32.36 47.99-55.25 66.28-22.79 18.21-50.26 28.85-76.79 39.14-13.17 5.09-26.76 10.39-39.33 16.44-12.23 5.89-24.03 12.84-36.58 20.18-24.67 14.48-50.19 29.45-79.25 36.05-13.51 3.1-27.33 4.14-41.19 4.14zm-87.55-27.04c15.22 0 30.48 1.2 45.24 2.38 27.75 2.19 53.95 4.29 78.53-1.29 25.69-5.83 49.67-19.93 72.86-33.51 12.37-7.27 25.15-14.77 38.2-21.07 13.33-6.43 27.36-11.88 40.96-17.14 26.11-10.11 50.78-19.68 70.92-35.75 20.2-16.16 34.98-38.08 50.64-61.31 8.12-12.05 16.51-24.53 25.74-36.06 9.15-11.47 19.4-22.34 29.3-32.88 19.24-20.44 37.39-39.74 48.72-63.21 11.1-23.04 14.94-49.22 18.97-76.93 2.1-14.43 4.29-29.37 7.6-43.91 3.18-14.02 7.62-28.08 11.9-41.67 8.1-25.66 16.47-52.2 16.47-78.79 0-26.61-8.38-53.14-16.47-78.8-4.28-13.61-8.72-27.66-11.9-41.68-3.3-14.54-5.5-29.46-7.6-43.9-4.03-27.71-7.87-53.89-18.97-76.94-11.33-23.47-29.48-42.77-48.71-63.2-9.91-10.54-20.17-21.43-29.3-32.88-9.24-11.55-17.62-24.01-25.75-36.08-15.66-23.23-30.43-45.16-50.64-61.3-20.14-16.07-44.81-25.63-70.92-35.76-13.59-5.26-27.61-10.7-40.96-17.14-13.05-6.3-25.82-13.79-38.2-21.04-23.18-13.61-47.18-27.69-72.86-33.53-24.58-5.58-50.78-3.5-78.53-1.3-14.76 1.17-30.02 2.4-45.24 2.4-15.22 0-30.5-1.23-45.26-2.4-27.74-2.2-53.94-4.29-78.53 1.3-25.67 5.83-49.67 19.91-72.87 33.53-12.35 7.25-25.13 14.73-38.17 21.03-13.36 6.45-27.39 11.88-40.96 17.15-26.12 10.13-50.79 19.69-70.92 35.76-20.21 16.14-34.99 38.07-50.65 61.3-8.12 12.05-16.53 24.53-25.76 36.08-9.16 11.45-19.4 22.34-29.31 32.88-19.23 20.43-37.38 39.73-48.7 63.19-11.12 23.04-14.93 49.24-18.98 76.95-2.11 14.44-4.28 29.36-7.58 43.9-3.19 14.01-7.64 28.07-11.92 41.68-8.1 25.65-16.47 52.18-16.47 78.8 0 26.6 8.38 53.14 16.47 78.79 4.29 13.59 8.74 27.65 11.93 41.67 3.3 14.55 5.47 29.48 7.58 43.91 4.04 27.71 7.85 53.87 18.98 76.93 11.32 23.47 29.48 42.76 48.7 63.21 9.91 10.53 20.15 21.42 29.31 32.88 9.22 11.53 17.63 24.01 25.76 36.06 15.65 23.23 30.43 45.15 50.64 61.31 20.12 16.06 44.79 25.62 70.92 35.75 13.56 5.26 27.59 10.69 40.96 17.14 13.04 6.3 25.82 13.79 38.17 21.03 23.2 13.62 47.2 27.71 72.87 33.55 24.58 5.58 50.79 3.49 78.53 1.29 14.77-1.17 30.04-2.38 45.26-2.38z"/><path class="st264" d="M500.45 1090.72c-12.64 0-25.19-.95-37.44-3.71-26.43-6.02-49.83-19.75-72.45-33.02-11.63-6.82-22.61-13.28-34.02-18.78-11.71-5.66-24.35-10.55-36.58-15.29-24.35-9.43-49.51-19.18-70.25-35.76-20.82-16.62-35.9-38.99-50.48-60.63-7.32-10.87-14.89-22.08-22.96-32.21-8.02-10.01-17.24-19.81-26.15-29.29-17.93-19.06-36.45-38.74-48.11-62.9-11.47-23.78-15.37-50.49-19.13-76.34-1.89-12.99-3.85-26.44-6.76-39.2-2.77-12.23-6.59-24.31-10.63-37.11-7.89-25.01-16.05-50.86-16.05-78.21 0-27.35 8.16-53.22 16.05-78.22 4.04-12.79 7.85-24.87 10.63-37.11 2.91-12.77 4.87-26.22 6.77-39.23 3.77-25.82 7.66-52.54 19.13-76.31 11.66-24.16 30.18-43.85 48.11-62.9 8.92-9.48 18.14-19.28 26.15-29.31 8.06-10.11 15.63-21.33 22.95-32.19 14.58-21.64 29.67-44.03 50.49-60.65 20.74-16.57 45.91-26.33 70.25-35.76 12.23-4.74 24.86-9.64 36.57-15.3 11.41-5.5 22.39-11.93 34.02-18.76 22.62-13.28 46.02-27.01 72.45-33.02 25.38-5.75 52.12-3.63 77.98-1.57 13.3 1.05 27.05 2.15 40.42 2.15 13.36 0 27.13-1.1 40.43-2.15 25.85-2.07 52.57-4.19 77.97 1.57 26.41 6.01 49.82 19.74 72.45 33.03 11.63 6.82 22.61 13.26 34.02 18.76 11.7 5.66 24.33 10.55 36.55 15.3 24.35 9.43 49.52 19.18 70.27 35.75 20.82 16.62 35.9 39 50.48 60.64 7.3 10.86 14.87 22.09 22.96 32.19 8.01 10.03 17.22 19.84 26.14 29.31 17.93 19.04 36.46 38.74 48.12 62.91 11.47 23.76 15.36 50.48 19.13 76.3 1.9 13 3.86 26.46 6.76 39.23 2.78 12.25 6.61 24.32 10.64 37.12 7.89 25 16.06 50.86 16.06 78.21 0 27.34-8.17 53.2-16.06 78.19-4.03 12.82-7.86 24.9-10.64 37.13-2.9 12.78-4.86 26.22-6.76 39.23-3.77 25.84-7.66 52.55-19.13 76.32-11.65 24.17-30.19 43.85-48.12 62.9-8.91 9.48-18.14 19.29-26.14 29.29-8.09 10.14-15.66 21.35-22.96 32.22-14.58 21.63-29.67 44.01-50.5 60.63-20.74 16.57-45.91 26.32-70.26 35.75-12.22 4.74-24.85 9.64-36.55 15.29-11.43 5.5-22.39 11.95-34.02 18.78-22.63 13.27-46.04 27-72.45 33.02-25.4 5.72-52.12 3.62-77.97 1.55-13.3-1.06-27.06-2.15-40.43-2.15-13.37 0-27.12 1.09-40.43 2.15-13.37 1.07-26.98 2.16-40.52 2.16zm80.95-19.24c13.96 0 28.01 1.13 41.62 2.2 25.86 2.08 50.29 4.02 73.46-1.24 24.18-5.51 46.56-18.63 68.19-31.33 11.39-6.67 23.14-13.58 35.11-19.35 12.23-5.89 25.16-10.9 37.65-15.76 24.35-9.44 47.38-18.35 66.33-33.48 19.04-15.22 32.83-35.66 47.42-57.33 7.48-11.1 15.23-22.58 23.68-33.16 8.39-10.5 17.81-20.51 26.94-30.23 17.14-18.21 34.87-37.08 45.52-59.17 10.48-21.69 14.03-46.13 17.8-71.97 1.95-13.28 3.97-27.04 7-40.37 2.9-12.84 7-25.8 10.94-38.32 7.57-23.92 15.36-48.67 15.36-73.71 0-25.06-7.79-49.79-15.36-73.73-3.94-12.52-8.04-25.46-10.94-38.3-3.03-13.34-5.04-27.08-7-40.37-3.77-25.86-7.32-50.27-17.8-71.97-10.65-22.09-28.38-40.94-45.52-59.16-9.11-9.69-18.54-19.73-26.94-30.23-8.45-10.58-16.2-22.07-23.67-33.17-14.59-21.66-28.39-42.12-47.43-57.32-18.95-15.14-41.98-24.06-66.33-33.5-12.49-4.84-25.41-9.86-37.65-15.76-11.94-5.76-23.72-12.66-35.11-19.35-21.63-12.69-44.01-25.84-68.19-31.32-23.17-5.27-47.6-3.32-73.48-1.25-13.59 1.08-27.64 2.2-41.61 2.2-13.97 0-28.02-1.12-41.61-2.2-25.89-2.06-50.33-4.01-73.48 1.25-24.17 5.49-46.56 18.63-68.2 31.32-11.37 6.68-23.13 13.59-35.09 19.35-12.25 5.9-25.16 10.91-37.65 15.76-24.37 9.44-47.38 18.36-66.33 33.5-19.05 15.2-32.83 35.67-47.43 57.33-7.48 11.1-15.22 22.58-23.67 33.17-8.39 10.49-17.81 20.53-26.94 30.22-17.15 18.22-34.89 37.06-45.54 59.16-10.46 21.7-14.04 46.11-17.81 71.97-1.93 13.29-3.94 27.03-6.97 40.37-2.92 12.84-7.01 25.78-10.95 38.3-7.55 23.94-15.36 48.67-15.36 73.73 0 25.05 7.81 49.79 15.36 73.74 3.94 12.49 8.03 25.45 10.95 38.29 3.03 13.33 5.03 27.07 6.97 40.35 3.77 25.85 7.34 50.3 17.81 71.99 10.66 22.09 28.39 40.94 45.54 59.17 9.12 9.7 18.55 19.73 26.93 30.22 8.46 10.58 16.19 22.06 23.68 33.16 14.59 21.67 28.38 42.12 47.42 57.34 18.96 15.13 41.97 24.05 66.33 33.48 12.5 4.83 25.42 9.86 37.66 15.76 11.95 5.77 23.72 12.68 35.09 19.35 21.64 12.7 44.03 25.82 68.2 31.33 23.15 5.26 47.6 3.32 73.48 1.24 13.6-1.08 27.66-2.2 41.62-2.2z"/><path class="st264" d="M515.61 1088.41c-68.24 0-82.83-23.59-91.31-27.89-4.87-2.48-10.44-3.18-15.35-5.54-8.72-4.21-11.81-14.23-21.62-16.87-43.03-11.55 10.39 6.42-72.77-26.97-111.92-44.96-99.72-81.79-160.4-162.02-16.55-21.87-38.35-37.06-48.6-63.52-13.54-34.91-14.98-84.22-21.15-104.87-1.66-5.56-5.09-10.26-7.79-15.3-6.05-11.37-4.41-24.98-7.41-37.31-7.75-31.97-14.34-8.66-11.59-79.36.53-13.69 7.92-25 11.8-37.87 29.84-99.08 19.81-69.72 16.39-100.21-1.01-8.89 3.06-67.29 31.22-92.97 10.11-9.21 21.85-16.62 30.68-27.2 8.91-10.63 15.43-22.98 23.18-34.43 7.74-11.44 16.65-22.06 24.58-33.38 24.7-35.32 18.14-29.77 56.21-58.85 11.06-8.44 21.54-18.31 34.27-24.27 11.58-5.43 24.64-7.57 36.37-12.7 6.08-2.66 9.84-7.57 14.86-11.67 5.13-4.21 10.95-7.54 16.83-10.55 38.49-19.7 43.56-6.25 73.48-29.71 30.68-24.05 38.67-26.54 78.17-17.84 30.63 6.74 27.09.14 42.15 1.08 14.23.89 27.44 4.56 41.91 3.77 35.67-1.9 35.73-7.27 62.37-2.48 7.37 1.33 15.33-1.45 22.74-2.13 50.49-4.69 100.61 35.52 113.29 43.72 35 22.69 101.64 37.91 116.65 46.23 24.66 13.66 29.14 42.58 46.11 62.87 23.44 28.05 27.05 17.3 48.94 63.51 11.2 23.6 38.62 18.04 75.13 137.95 4.28 14.05 8.53 28.41 11.25 42.86 2.7 14.26-2.25 28.65 1.36 42.7 1.46 5.73 3.9 11.18 5.21 16.95 1.61 7.14 2.08 13.06 6.07 19.45 7.02 11.22 10.4 22.82 10.4 36.08-.01 24.01-2.52 50.63-14.04 72.2-21.54 40.27-19.54 7.81-32.55 120.35-8.01 69.3-70.3 92.75-93.1 131.06-15.23 25.56-15.66 40.07-48.04 66.3-43.37 35.14-46.8 30.49-104.88 54.57-57.18 23.71-26.14 48.6-100.89 59.04-61.88 8.65-5.01 10.09-124.01 5.97-25.68-.88-28.2-3.4-37.16-.06-13.27 4.92-24.54 9.31-38.96 9.31zM440 84.08c-43.04 33.9-31.94 8.98-86.65 38.27-14.59 7.81-18.8 23.74-46.94 32.97-63.77 20.9-47.06 59.74-138.23 132.61-30.87 24.69-60.08 80.59-57.01 109.9 3.42 32.66-.98 45.93-3.04 59.63-2.24 14.89-16.51 62-25.54 80.53-25.9 53.18 6.96 39.84 13.71 118.52.03.4 12.73 82.04 12.73 82.04 11.05 67.7 32.46 70.13 55.49 99.57 50.36 64.35 55.5 113.4 123.61 145.68 6.88 3.25 84.13 35.67 91.54 37.45 13.15 3.15 26.86 4.53 39.19 10.41 28.58 13.66 21.55 31.69 67.37 39.19 43.05 7.05 49.32-.74 72.14-9.53 25.84-9.99 55.85-3.3 82.76-1.3 46.95 3.52 24.32 6.47 82.84-3.15 39.49-6.46 37.2-23.51 59.23-42.04 17.99-15.12 75.88-29.6 103.69-47.6 56.7-36.7 54.83-59.66 73.28-87.11 15.1-22.45 63.22-57.17 79.49-88.45 6.56-12.6 7.05-21.14 13.91-76.94 9.9-80.59 19.43-44.46 36.7-103.08 14.65-49.66 8.09-51.58-8.05-76.07-7.49-11.37-12.04-22.73-12.04-36.5.02-27.07 12.17-31.32-21.73-118.52-27.54-70.88-43.47-55.86-60.67-96.79-18.37-43.83-23.71-34.84-48.1-63.73-18.44-21.84-21.44-49-43.52-60.44-10.97-5.68-78.42-22.67-112.39-43.6-15.93-9.85-64.46-46.28-104.49-44.02-13.67.76-27.05 4.3-40.72 5.35-58.64 4.5-45.32 8.66-123.37-3.15-36-5.46-41.78-16.41-75.19 9.9z"/></g><path clip-path="url(#SVGID_2_)" fill="#ff8429" d="M1148.53 562.66H594.92l381-381.01-7.91-7.91L587 554.75V15.93h-11.2v538.82L194.81 173.74l-7.92 7.91 381 381.01H14.28v11.19h553.61l-381 381 7.92 7.93L575.8 581.75v538.84H587V581.75l381.01 381.03 7.91-7.93-381-381h553.61z"/><g clip-path="url(#SVGID_2_)"><path class="st298" d="M229.4 551.4c-33.45 0-60.68 27.21-60.68 60.66 0 33.45 27.22 60.66 60.68 60.66 33.45 0 60.66-27.21 60.66-60.66 0-33.45-27.21-60.66-60.66-60.66z"/><path class="st263" d="M221.98 589.3c4.57 0 8.27-3.69 8.27-8.28 0-4.57-3.7-8.26-8.27-8.26-4.57 0-8.27 3.69-8.27 8.26 0 4.59 3.7 8.28 8.27 8.28zm-17.45 8.62c-3.23 0-5.85 2.63-5.85 5.86 0 3.23 2.62 5.86 5.85 5.86 3.23 0 5.85-2.63 5.85-5.86 0-3.23-2.62-5.86-5.85-5.86zm9.18 31.74c-2.67 0-4.82 2.18-4.82 4.83 0 2.67 2.15 4.83 4.82 4.83 2.67 0 4.84-2.16 4.84-4.83-.01-2.66-2.18-4.83-4.84-4.83zm16.54 18.11c-2.23 0-4.04 1.8-4.04 4.04 0 2.25 1.81 4.05 4.04 4.05 2.25 0 4.06-1.8 4.06-4.05a4.04 4.04 0 00-4.06-4.04zm-38.05-26.41c-1.59 0-2.87 1.3-2.87 2.88 0 1.59 1.28 2.87 2.87 2.87 1.58 0 2.85-1.28 2.85-2.87 0-1.58-1.28-2.88-2.85-2.88zm28.76-9.27a2.852 2.852 0 00-2.38 3.27 2.854 2.854 0 003.27 2.38c1.56-.23 2.63-1.7 2.38-3.28-.25-1.55-1.71-2.63-3.27-2.37zm26.57-33.15a2.88 2.88 0 00-2.38 3.27c.24 1.58 1.72 2.63 3.27 2.4a2.869 2.869 0 002.38-3.28 2.856 2.856 0 00-3.27-2.39zm-46.02 5.67a2.869 2.869 0 002.38-3.28c-.24-1.56-1.71-2.63-3.28-2.39-1.56.25-2.63 1.72-2.37 3.27.24 1.57 1.7 2.62 3.27 2.4zm65.21 35.36c-2.35 0-4.25 1.91-4.25 4.27 0 2.37 1.9 4.26 4.25 4.26 2.34 0 4.25-1.89 4.25-4.26 0-2.36-1.91-4.27-4.25-4.27zm-31.64-11.37c2.67 0 4.84-2.15 4.84-4.82 0-2.68-2.17-4.83-4.84-4.83s-4.83 2.15-4.83 4.83c0 2.67 2.16 4.82 4.83 4.82zm4.85 15.64c-4.45 0-8.05 3.61-8.05 8.05 0 4.46 3.61 8.05 8.05 8.05 4.46 0 8.05-3.59 8.05-8.05 0-4.45-3.59-8.05-8.05-8.05zm24.92-24.26c0-3.79-3.05-6.82-6.82-6.82-3.77 0-6.82 3.03-6.82 6.82 0 3.75 3.05 6.8 6.82 6.8 3.77-.01 6.82-3.05 6.82-6.8z"/></g><g clip-path="url(#SVGID_2_)"><path class="st298" d="M408.84 324.28c-33.45 0-60.68 27.21-60.68 60.66 0 33.45 27.22 60.66 60.68 60.66 33.45 0 60.66-27.21 60.66-60.66 0-33.45-27.21-60.66-60.66-60.66z"/><path class="st263" d="M401.42 362.18c4.57 0 8.27-3.69 8.27-8.28 0-4.57-3.7-8.26-8.27-8.26-4.57 0-8.27 3.69-8.27 8.26a8.256 8.256 0 008.27 8.28zm-17.45 8.62c-3.23 0-5.85 2.63-5.85 5.86 0 3.23 2.62 5.86 5.85 5.86 3.23 0 5.85-2.63 5.85-5.86 0-3.23-2.62-5.86-5.85-5.86zm9.17 31.73c-2.67 0-4.82 2.18-4.82 4.83 0 2.67 2.15 4.83 4.82 4.83 2.67 0 4.84-2.16 4.84-4.83 0-2.65-2.17-4.83-4.84-4.83zm16.55 18.12c-2.23 0-4.04 1.8-4.04 4.04 0 2.25 1.81 4.05 4.04 4.05 2.25 0 4.06-1.8 4.06-4.05a4.04 4.04 0 00-4.06-4.04zm-38.06-26.41c-1.59 0-2.87 1.3-2.87 2.88 0 1.59 1.28 2.87 2.87 2.87 1.58 0 2.85-1.28 2.85-2.87a2.862 2.862 0 00-2.85-2.88zm28.77-9.27a2.852 2.852 0 00-2.38 3.27 2.854 2.854 0 003.27 2.38c1.56-.23 2.63-1.7 2.38-3.28-.25-1.55-1.71-2.63-3.27-2.37zm26.57-33.15a2.88 2.88 0 00-2.38 3.27c.24 1.58 1.72 2.63 3.27 2.4a2.869 2.869 0 002.38-3.28 2.856 2.856 0 00-3.27-2.39zm-46.02 5.66a2.869 2.869 0 002.38-3.28c-.24-1.56-1.71-2.63-3.28-2.39-1.56.25-2.63 1.72-2.37 3.27.24 1.58 1.7 2.63 3.27 2.4zm65.2 35.37c-2.35 0-4.25 1.91-4.25 4.27 0 2.37 1.9 4.26 4.25 4.26 2.34 0 4.25-1.89 4.25-4.26 0-2.36-1.9-4.27-4.25-4.27zm-31.63-11.37c2.67 0 4.84-2.15 4.84-4.82 0-2.68-2.17-4.83-4.84-4.83a4.82 4.82 0 00-4.83 4.83c0 2.67 2.16 4.82 4.83 4.82zm4.85 15.63c-4.45 0-8.05 3.61-8.05 8.05 0 4.46 3.61 8.05 8.05 8.05 4.46 0 8.05-3.59 8.05-8.05 0-4.44-3.6-8.05-8.05-8.05zm24.91-24.25c0-3.79-3.05-6.82-6.82-6.82-3.77 0-6.82 3.03-6.82 6.82 0 3.75 3.05 6.8 6.82 6.8 3.78-.01 6.82-3.05 6.82-6.8z"/></g><g clip-path="url(#SVGID_2_)"><path class="st298" d="M540.61 739.7c-33.45 0-60.68 27.21-60.68 60.66 0 33.45 27.22 60.66 60.68 60.66 33.45 0 60.66-27.21 60.66-60.66 0-33.45-27.21-60.66-60.66-60.66z"/><path class="st263" d="M533.18 777.6c4.57 0 8.27-3.69 8.27-8.28 0-4.57-3.7-8.26-8.27-8.26-4.57 0-8.27 3.69-8.27 8.26 0 4.59 3.71 8.28 8.27 8.28zm-17.44 8.62c-3.23 0-5.85 2.63-5.85 5.86 0 3.23 2.62 5.86 5.85 5.86 3.23 0 5.85-2.63 5.85-5.86 0-3.23-2.62-5.86-5.85-5.86zm9.17 31.73c-2.67 0-4.82 2.18-4.82 4.83 0 2.67 2.15 4.83 4.82 4.83 2.67 0 4.84-2.16 4.84-4.83 0-2.65-2.17-4.83-4.84-4.83zm16.54 18.12c-2.23 0-4.04 1.8-4.04 4.04 0 2.25 1.81 4.05 4.04 4.05 2.25 0 4.06-1.8 4.06-4.05.01-2.24-1.8-4.04-4.06-4.04zm-38.05-26.42c-1.59 0-2.87 1.3-2.87 2.88 0 1.59 1.28 2.87 2.87 2.87 1.58 0 2.85-1.28 2.85-2.87 0-1.57-1.27-2.88-2.85-2.88zm28.77-9.26a2.852 2.852 0 00-2.38 3.27 2.854 2.854 0 003.27 2.38c1.56-.23 2.63-1.7 2.38-3.28-.25-1.55-1.72-2.63-3.27-2.37zm26.57-33.16a2.88 2.88 0 00-2.38 3.27c.24 1.58 1.72 2.63 3.27 2.4a2.869 2.869 0 00-.89-5.67zm-46.03 5.67a2.869 2.869 0 002.38-3.28c-.24-1.56-1.71-2.63-3.28-2.39-1.56.25-2.63 1.72-2.37 3.27.24 1.58 1.71 2.63 3.27 2.4zm65.21 35.36c-2.35 0-4.25 1.91-4.25 4.27 0 2.37 1.9 4.26 4.25 4.26 2.34 0 4.25-1.89 4.25-4.26 0-2.35-1.91-4.27-4.25-4.27zm-31.64-11.36c2.67 0 4.84-2.15 4.84-4.82 0-2.68-2.17-4.83-4.84-4.83a4.825 4.825 0 100 9.65zm4.85 15.63c-4.45 0-8.05 3.61-8.05 8.05 0 4.46 3.61 8.05 8.05 8.05 4.46 0 8.05-3.59 8.05-8.05 0-4.44-3.59-8.05-8.05-8.05zm24.92-24.25c0-3.79-3.05-6.82-6.82-6.82-3.77 0-6.82 3.03-6.82 6.82 0 3.75 3.05 6.8 6.82 6.8 3.77-.01 6.82-3.05 6.82-6.8z"/></g><g clip-path="url(#SVGID_2_)"><path class="st264" d="M530.72 198.02c-1.71-7.35-5.61-13.96-11.09-18.79 2.04-8.12 1.13-16.8-2.6-24.68-6.8-14.31-22.05-22.54-36.27-19.46-10.9 2.33-19.4 10.52-22.71 21.45-9.64-6.14-21.42-6.83-31.2-1.5-12.77 6.95-19.02 23.1-14.84 38.39 2.28 8.41 7.25 15.6 14.07 20.43-1 7.23.34 14.79 3.83 21.48 5.88 11.26 17.01 18.14 28.47 18.14 2.04 0 4.09-.22 6.13-.67 10.3-2.28 18.38-10.05 21.62-20.38 9.2 5.73 20.39 6.37 29.69 1.4 12.16-6.52 18.28-21.23 14.9-35.81zm-20.17 25.92c-6.73 3.61-14.86 2.44-21.22-3.04-2.24-1.93-5.3-2.5-8.02-1.5-2.7.99-4.64 3.43-5.1 6.35-1.25 8.29-6.67 14.46-14.12 16.12-8.39 1.88-17.74-3.06-22.25-11.72-2.63-5.03-3.5-10.71-2.47-16.01.66-3.38-.85-6.89-3.75-8.72-5.26-3.3-9.1-8.62-10.82-14.95-2.82-10.34 1.13-21.11 9.39-25.61 2.8-1.51 5.81-2.26 8.84-2.26 4.81 0 9.68 1.87 13.83 5.49 2.23 1.95 5.32 2.55 8.03 1.54 2.73-1.01 4.68-3.45 5.11-6.41 1.29-8.88 7.07-15.47 15.1-17.2 9.22-1.93 19.21 3.64 23.8 13.32v.01c2.81 5.93 3.35 12.45 1.52 18.39-1.01 3.27.12 6.92 2.82 9.06 4.24 3.35 7.27 8.24 8.56 13.76 2.22 9.5-1.66 19.32-9.25 23.38zM421.8 950.23c5.89-4.74 10.15-11.12 12.13-18.16 8.2-1.7 15.62-6.28 21.1-13.05 9.95-12.33 10.73-29.65 1.79-41.12-6.83-8.79-17.89-12.91-29.18-11.15 1.34-11.34-3.15-22.24-12.19-28.75-11.81-8.47-29.06-7.11-41.03 3.29-6.58 5.7-10.9 13.31-12.29 21.54-6.94 2.24-13.18 6.72-17.7 12.78-7.59 10.18-8.95 23.19-3.98 33.53a29.62 29.62 0 003.27 5.23c6.53 8.26 17.04 12.18 27.76 10.6-1.16 10.79 3.12 21.14 11.63 27.36 11.13 8.13 27.04 7.27 38.69-2.1zm-32.09-6.93c-6.17-4.51-8.65-12.32-6.47-20.43.76-2.87-.05-5.87-2.13-7.89-2.08-2-5.12-2.69-7.93-1.83-8.01 2.46-15.93.27-20.66-5.73-5.33-6.75-4.94-17.3.89-25.12 3.39-4.54 8.14-7.8 13.36-9.19 3.32-.85 5.83-3.73 6.22-7.15.7-6.17 3.82-11.93 8.77-16.23 8.09-7.03 19.51-8.15 27.15-2.65 2.58 1.85 4.55 4.24 5.87 6.98 2.08 4.32 2.52 9.51 1.06 14.83-.79 2.84.01 5.9 2.1 7.9 2.1 2.02 5.15 2.7 7.99 1.83 8.57-2.7 17.02-.35 22.04 6.12 5.74 7.47 5.08 18.91-1.67 27.24-4.12 5.11-9.77 8.44-15.9 9.36-3.4.51-6.18 3.1-6.94 6.47-1.18 5.28-4.26 10.14-8.67 13.67-7.59 6.11-18.15 6.89-25.08 1.82zm-111.2-491.99c.64-6.72-.78-13.42-4.04-19.06 4.03-6.29 5.73-13.9 4.81-21.64-1.68-14.04-12.24-25.33-25.15-26.77-9.89-1.12-19.4 3.39-25.32 11.69-6.41-7.94-16.18-11.85-25.99-10.13-12.77 2.25-22.65 14.13-23.47 28.26-.45 7.77 1.7 15.26 6.11 21.29-2.9 5.83-3.92 12.61-2.87 19.26 1.78 11.21 9.24 20.19 18.94 23.46 1.73.56 3.53.97 5.38 1.17 9.36.99 18.41-3.29 24.09-11.12 6.15 7.46 15.43 11.18 24.73 9.63 12.12-2.04 21.49-12.75 22.78-26.04zm-24.42 16.19c-6.74 1.14-13.29-2.15-17.1-8.59-1.35-2.27-3.78-3.63-6.36-3.56-2.57.08-4.91 1.6-6.12 3.94-3.42 6.65-9.75 10.35-16.54 9.63-7.64-.81-14.14-7.65-15.5-16.25-.79-4.99.09-10.05 2.48-14.24 1.51-2.67 1.23-6.07-.71-8.45-3.5-4.29-5.25-9.87-4.91-15.72.55-9.56 6.96-17.54 15.24-19 2.79-.49 5.54-.27 8.11.6 4.07 1.36 7.66 4.32 10.14 8.57 1.33 2.29 3.79 3.67 6.35 3.59 2.6-.08 4.94-1.58 6.15-3.97 3.62-7.16 10.38-11.09 17.67-10.26 8.35.98 15.23 8.53 16.36 18.03.7 5.81-.7 11.5-3.94 16-1.8 2.49-1.87 5.89-.19 8.47 2.63 4.04 3.81 9.04 3.33 14.08-.83 8.65-6.91 15.86-14.46 17.13z"/></g><g clip-path="url(#SVGID_2_)"><path class="st264" d="M399.18 608.49c-14.71-12.28-42.25-2.04-42.25-2.04s-28.01 8.85-32.08 27.58c-4.24 19.42 2.69 34.64 15.5 37.01 1.93.35 3.27-1.86 2.01-3.39-2.02-2.47-3.56-6.01-1.06-10.05 4.8-7.67 13.77-12.6 19.5-2.05 5.71 10.58 8.64 42.76 8.64 42.76s-1.31 16.82 22.06 8.8c23.36-8.02 12-20.48 12-20.48s-17.47-27.2-19.44-39.05c-1.98-11.85 8.14-13.46 16.64-10.35 4.45 1.63 5.42 5.38 5.33 8.57-.06 1.98 2.37 2.92 3.66 1.44 8.64-9.76 4.77-26.02-10.51-38.75zm-35.83-349.07c.64-19.14-24.34-34.59-24.34-34.59s-24.18-16.67-41.46-8.41c-17.94 8.59-25.67 23.39-19.7 34.97.9 1.75 3.48 1.43 3.9-.49.7-3.12 2.57-6.51 7.28-7 9.01-.94 18.42 3.12 13.59 14.12-4.84 11.01-28.45 33.08-28.45 33.08s-14.07 9.29 6.6 22.81c20.68 13.51 23.55-3.11 23.55-3.11s10.73-30.48 18.88-39.33c8.14-8.84 15.63-1.85 18.39 6.78 1.45 4.52-.92 7.59-3.49 9.47-1.59 1.17-.84 3.66 1.12 3.78 13.02.84 23.47-12.21 24.13-32.08z"/></g><g clip-path="url(#SVGID_2_)"><path class="st298" d="M314.95 723.86l-134.96 30c-2.07.46-3.41 2.58-2.85 4.62 10.48 38.04 48.41 61.71 86.52 53.24 38.11-8.45 62.44-45.98 55.82-84.87-.35-2.09-2.47-3.45-4.53-2.99z"/><path class="st263" d="M301.56 745.53c-1.93-1.38-4.47-1.59-6.59-.48-28.13 14.41-58.22 20.69-87.88 19.58-2.37-.1-4.59 1.16-5.76 3.23a6.31 6.31 0 00.25 6.58c12.75 19.14 35.98 29.53 59.21 24.36 23.25-5.15 39.89-24.45 43.32-47.18.36-2.37-.63-4.71-2.55-6.09z"/><path class="st298" d="M272.32 773.3a39.733 39.733 0 00-7.89-7.76v.01c.23 3.68.98 7.31 2.19 10.82l.07.21c.33.95 1.07 1.7 2 2.08.94.35 1.99.29 2.87-.19.84-.46 1.43-1.25 1.63-2.19.2-.91-.02-1.88-.6-2.64l-.27-.34zm11.36-7c-2.8-2.43-5.91-4.47-9.27-6.05l.01.01c.96 3.57 2.39 6.99 4.26 10.16l.12.21c.51.85 1.38 1.47 2.38 1.63.98.17 2-.1 2.78-.74a3.19 3.19 0 001.16-2.44c.01-.95-.4-1.87-1.11-2.49l-.33-.29zm8.78-7.18a34.706 34.706 0 00-8.44-4.32l.01.02c1.17 2.9 2.73 5.7 4.65 8.21l.11.15c.53.69 1.31 1.1 2.17 1.18.86.06 1.68-.25 2.27-.85.54-.6.82-1.4.73-2.19-.09-.8-.53-1.53-1.2-2l-.3-.2zm-52.9 21.46c.81-3.6 2.1-7.1 3.86-10.36l.01.01a40.18 40.18 0 012.6 10.73l.02.21c.1 1.01-.24 2-.94 2.74-.69.71-1.68 1.1-2.68 1.05-.95-.08-1.81-.53-2.39-1.29-.58-.76-.77-1.73-.58-2.65l.1-.44zm-13.25-1.51c1.5-3.42 3.45-6.57 5.83-9.45v.03c.65 3.65.8 7.35.44 11.04l-.02.23c-.1 1-.63 1.91-1.46 2.48-.83.58-1.87.76-2.83.51-.92-.25-1.68-.88-2.09-1.73-.42-.85-.43-1.85-.05-2.72l.18-.39zm-11-2.8c1.6-2.76 3.55-5.26 5.81-7.49l.01.01c.18 3.15-.07 6.31-.73 9.4l-.04.2a3 3 0 01-1.46 1.99c-.74.43-1.64.48-2.43.16-.75-.27-1.32-.88-1.58-1.66-.26-.75-.17-1.6.23-2.29l.19-.32zm44.25 2.09c-1.37-3.44-3.21-6.7-5.46-9.61h-.01c-.79 3.62-1.08 7.31-.86 11.01l.01.23c.06 1 .56 1.93 1.36 2.52.8.63 1.83.85 2.81.63.93-.2 1.72-.81 2.16-1.64.44-.84.49-1.83.14-2.7l-.15-.44zm258.61-202.97l-91.31-103.82c-1.4-1.59-3.9-1.75-5.42-.27-28.29 27.5-30.76 72.15-4.97 101.46 25.76 29.32 70.37 32.57 101.26 8.03 1.66-1.3 1.84-3.82.44-5.4z"/><path class="st263" d="M492.73 574.09c.28-2.36-.76-4.69-2.76-6-26.18-17.71-46.18-41.05-59.49-67.58-1.05-2.13-3.23-3.46-5.6-3.49a6.32 6.32 0 00-5.65 3.39c-10.63 20.39-8.55 45.75 7.18 63.62 15.71 17.9 40.64 23.18 62.21 15.23a6.28 6.28 0 004.11-5.17z"/><path class="st298" d="M454.31 561.85c1.49-3.4 2.5-6.98 3-10.65l-.01.01a40.979 40.979 0 00-8.42 7.13l-.15.17c-.67.75-.98 1.76-.86 2.76.15.99.71 1.88 1.55 2.43.81.52 1.79.65 2.7.37a3.26 3.26 0 002.03-1.8l.16-.42zm11.61 6.57c.78-3.62 1.07-7.34.83-11.03v.02a40.734 40.734 0 00-6.85 8.63l-.13.21c-.5.86-.62 1.92-.28 2.87.32.94 1.05 1.71 1.99 2.08.87.35 1.87.29 2.7-.16.84-.45 1.44-1.25 1.65-2.17l.09-.45zm10.52 4.25c.34-3.17.24-6.35-.28-9.48l-.02.02a35.401 35.401 0 00-4.96 8.03l-.08.17c-.35.79-.33 1.68.02 2.47.36.78 1.03 1.35 1.84 1.58.79.19 1.62.04 2.27-.41.66-.47 1.09-1.2 1.18-2.01l.03-.37zm-44.29-36.03a40.44 40.44 0 0110.94-1.61l-.01.01a39.786 39.786 0 01-8.15 7.44l-.18.12c-.84.58-1.87.76-2.86.5-.96-.27-1.77-.94-2.21-1.85-.39-.87-.41-1.84-.02-2.72.39-.87 1.14-1.51 2.05-1.78l.44-.11zm-5.06-12.33c3.72-.33 7.42-.14 11.09.55l-.02.01a40.685 40.685 0 01-9.46 5.71l-.21.09c-.93.39-1.98.37-2.87-.08-.9-.45-1.57-1.27-1.82-2.24-.22-.93-.04-1.89.51-2.66a3.19 3.19 0 012.36-1.35l.42-.03zm-2.85-10.99c3.18.07 6.32.58 9.36 1.49l-.01.01a35.202 35.202 0 01-8.59 3.89l-.19.06c-.82.25-1.71.13-2.45-.32a2.802 2.802 0 01-1.31-2.05c-.12-.79.13-1.58.7-2.19.53-.59 1.32-.92 2.12-.9l.37.01zm19.49 39.78a39.68 39.68 0 005.79-9.41v-.01a40.6 40.6 0 00-10.07 4.55l-.19.12c-.85.54-1.42 1.42-1.55 2.41-.17 1 .14 2.02.81 2.76.62.72 1.54 1.11 2.48 1.11.95-.01 1.84-.45 2.44-1.18l.29-.35zm191.6 341.84l-134.96 30c-2.07.46-3.41 2.58-2.85 4.62 10.48 38.04 48.41 61.71 86.52 53.24 38.11-8.45 62.44-45.98 55.82-84.87-.35-2.08-2.47-3.45-4.53-2.99z"/><path class="st263" d="M621.94 916.61c-1.93-1.38-4.47-1.59-6.59-.48-28.13 14.41-58.22 20.69-87.88 19.58-2.37-.1-4.59 1.16-5.76 3.23a6.31 6.31 0 00.25 6.58c12.75 19.14 35.98 29.53 59.21 24.36 23.25-5.15 39.89-24.45 43.32-47.18.37-2.37-.63-4.71-2.55-6.09z"/><path class="st298" d="M592.71 944.39a39.733 39.733 0 00-7.89-7.76v.01c.23 3.68.98 7.31 2.19 10.82l.07.21c.33.95 1.07 1.7 2 2.08.94.35 1.99.29 2.87-.19.84-.46 1.43-1.25 1.63-2.19.2-.91-.02-1.88-.6-2.64l-.27-.34zm-32.77 7.27c.81-3.6 2.1-7.1 3.86-10.36l.01.01a40.18 40.18 0 012.6 10.73l.02.21c.1 1.01-.24 2-.94 2.74-.69.71-1.68 1.1-2.68 1.05-.95-.08-1.82-.53-2.39-1.29-.58-.76-.77-1.73-.58-2.65l.1-.44zm-13.25-1.5c1.5-3.42 3.46-6.57 5.83-9.45v.03c.65 3.65.8 7.35.44 11.04l-.02.23c-.1 1-.63 1.91-1.46 2.48-.83.58-1.87.76-2.83.51-.92-.25-1.68-.88-2.09-1.73-.42-.85-.43-1.85-.05-2.72l.18-.39zm-11-2.8c1.6-2.76 3.55-5.26 5.81-7.49l.01.01c.18 3.15-.07 6.31-.73 9.4l-.04.2a3 3 0 01-1.46 1.99c-.74.43-1.64.48-2.43.16-.75-.27-1.32-.88-1.58-1.66-.26-.75-.17-1.6.23-2.29l.19-.32zm44.25 2.08c-1.37-3.44-3.21-6.7-5.46-9.61h-.01c-.79 3.62-1.08 7.31-.86 11.01l.01.23c.06 1 .56 1.93 1.36 2.52.8.63 1.83.85 2.81.63.93-.2 1.72-.81 2.16-1.64.44-.84.49-1.83.14-2.7l-.15-.44zM456.62 300.72l90.51 104.51c1.39 1.6 3.89 1.78 5.42.31 28.5-27.29 31.31-71.91 5.75-101.42-25.54-29.52-70.12-33.11-101.2-8.81-1.67 1.3-1.86 3.82-.48 5.41z"/><path class="st263" d="M482.05 302.21c-.29 2.36.73 4.69 2.71 6.03 26.04 17.91 45.86 41.4 58.97 68.03 1.04 2.13 3.21 3.49 5.58 3.53 2.37.04 4.56-1.25 5.68-3.35 10.79-20.31 8.9-45.68-6.69-63.68-15.57-18.02-40.46-23.49-62.09-15.71-2.27.82-3.86 2.81-4.16 5.15z"/><path class="st298" d="M520.38 314.75a39.877 39.877 0 00-3.08 10.63l.01-.01c3.13-1.95 5.97-4.33 8.48-7.07l.15-.17c.68-.74.99-1.75.88-2.75-.14-.99-.69-1.89-1.53-2.44-.81-.52-1.78-.67-2.7-.39-.9.26-1.64.91-2.04 1.78l-.17.42zm-11.56-6.67c-.81 3.61-1.12 7.33-.92 11.03v-.02c2.69-2.54 5.01-5.42 6.92-8.58l.13-.2c.5-.86.63-1.91.3-2.87a3.423 3.423 0 00-1.97-2.09c-.86-.36-1.87-.3-2.7.13-.84.44-1.45 1.24-1.67 2.16l-.09.44zm-10.49-4.32c-.37 3.16-.29 6.35.21 9.48l.02-.02c2-2.41 3.72-5.11 5.02-7.99l.08-.17c.35-.79.34-1.68 0-2.47a2.91 2.91 0 00-1.83-1.6c-.79-.19-1.62-.06-2.28.4-.66.46-1.09 1.19-1.19 2l-.03.37zm44.01 36.36c-3.56 1-7.24 1.53-10.95 1.52l.01-.01c2.38-2.82 5.13-5.3 8.21-7.38l.18-.12c.84-.57 1.88-.74 2.86-.48.96.27 1.77.95 2.2 1.86.38.87.4 1.85 0 2.72-.4.87-1.15 1.5-2.06 1.77l-.45.12zm4.97 12.38c-3.72.3-7.42.08-11.08-.64l.02-.01c2.91-2.3 6.08-4.2 9.5-5.64l.21-.09a3.39 3.39 0 012.87.11c.9.45 1.56 1.28 1.8 2.25.22.93.02 1.89-.53 2.66-.55.77-1.42 1.26-2.37 1.33l-.42.03zm2.76 11.01c-3.18-.1-6.31-.63-9.35-1.56l.01-.01c2.69-1.66 5.58-2.94 8.62-3.82l.19-.06c.82-.24 1.71-.12 2.45.34.73.45 1.2 1.22 1.3 2.06.11.79-.14 1.58-.71 2.18-.54.59-1.33.91-2.13.88l-.38-.01zm-19.18-39.93a40.073 40.073 0 00-5.87 9.37v.01c3.56-1.02 6.94-2.52 10.1-4.47l.19-.12a3.4 3.4 0 001.57-2.4c.17-1-.12-2.02-.78-2.77-.62-.73-1.53-1.12-2.47-1.13-.95.01-1.84.43-2.45 1.16l-.29.35z"/></g><g clip-path="url(#SVGID_2_)"><path class="st298" d="M475.33 765.69s2-1.69 3.07-3.42c6.11-10.03-.58-20.99-10.07-24.7-9.48-3.73-24.67-1.23-26.39 10.38-.42 2.8 2.04 5.02 2.04 5.02-7.51.39-16.01 2.67-19.29 11.04-4.29 10.94.69 23.41 10.18 27.12 2.59 1.03 3.18.06 5.83-.26-3.05 9.24-1.97 12.64-5.29 20.63-.21.54-.19 1.13.06 1.64.26.51.72.89 1.27 1.04 3.56.94 10.15 2.5 10.51 1.41 3.24-10-3.59-12.52.79-22.09 1.71 2.07 5.58 4.18 8.16 5.21 9.48 3.72 18.36-2.51 22.65-13.44 3.17-8.16 1.4-14.16-3.52-19.58zm2.76 207.18s-.73-2.52-1.89-4.19c-6.7-9.64-19.43-7.91-26.67-.73-7.23 7.2-11.04 22.09-1.11 28.36 2.4 1.49 5.41.14 5.41.14-2.67 7.01-3.99 15.71 2.36 22.09 8.26 8.33 21.69 8.79 28.91 1.62 1.97-1.97 1.36-2.88 2.11-5.44 7.24 6.51 10.77 6.9 16.75 13.16.4.41.95.61 1.53.59.57-.01 1.1-.29 1.45-.73 2.29-2.89 6.38-8.29 5.52-9.06-7.85-6.98-12.9-1.74-19.89-9.61 2.57-.73 6.06-3.4 8.04-5.37 7.22-7.19 5.09-17.81-3.19-26.15-6.17-6.22-12.38-7.03-19.33-4.68z"/></g></svg>