<?xml version="1.0" encoding="utf-8"?>
<!-- Generator: Adobe Illustrator 24.2.3, SVG Export Plug-In . SVG Version: 6.00 Build 0)  -->
<svg version="1.1" id="Слой_1" xmlns="http://www.w3.org/2000/svg" xmlns:xlink="http://www.w3.org/1999/xlink" x="0px" y="0px"
	 viewBox="0 0 585 1140" style="enable-background:new 0 0 585 1140;" xml:space="preserve">
<style type="text/css">
	.st0{clip-path:url(#SVGID_2_);fill:#FDA157;}
	.st1{clip-path:url(#SVGID_2_);fill-rule:evenodd;clip-rule:evenodd;fill:#FF8429;}
	.st2{clip-path:url(#SVGID_2_);fill:#F35000;}
	.st3{clip-path:url(#SVGID_2_);fill:#F9B946;}
	.st4{fill:#FFFFFF;}
	.st5{fill:#FF6567;}
	.st6{fill:url(#SVGID_3_);}
	.st7{fill:#ADD8C3;}
	.st8{fill:none;stroke:#FFFFFF;stroke-miterlimit:10;}
	.st9{fill:#A2CBAB;}
	.st10{fill:#96CDA1;}
	.st11{opacity:0.76;}
	.st12{fill:#C4E9CD;}
	.st13{fill:url(#SVGID_4_);}
	.st14{fill:url(#SVGID_5_);}
	.st15{fill:#F6E6BE;}
	.st16{fill:url(#SVGID_6_);}
	.st17{fill:url(#SVGID_7_);}
	.st18{fill:url(#SVGID_8_);}
	.st19{fill:#E4EEC4;}
	.st20{fill:#EFFBD2;}
	.st21{fill:url(#SVGID_9_);}
	.st22{fill:url(#SVGID_10_);}
	.st23{fill:url(#SVGID_11_);}
	.st24{fill:url(#SVGID_12_);}
	.st25{fill:#FFE493;}
	.st26{clip-path:url(#SVGID_14_);fill:url(#SVGID_15_);}
	.st27{fill:#5B2A1E;}
	.st28{fill:#907673;}
	.st29{fill:url(#SVGID_16_);}
	.st30{fill:url(#SVGID_17_);}
	.st31{fill:url(#SVGID_18_);}
	.st32{fill:url(#SVGID_19_);}
	.st33{fill:#FE82C8;}
	.st34{opacity:0.62;clip-path:url(#SVGID_21_);fill:#FFFFFF;}
	.st35{opacity:0.75;clip-path:url(#SVGID_21_);fill:#FFFFFF;}
	.st36{opacity:0.41;clip-path:url(#SVGID_21_);fill:#FFFFFF;}
	.st37{clip-path:url(#SVGID_21_);fill:none;}
	.st38{clip-path:url(#SVGID_23_);}
	.st39{opacity:0.26;fill:#FFFFFF;}
	.st40{opacity:0.69;fill:#FFFFFF;}
	.st41{fill:none;}
	.st42{opacity:0.16;fill:#FFFFFF;}
	.st43{opacity:0.3;fill:#FFFFFF;}
	.st44{opacity:0.23;fill:#FFFFFF;}
	.st45{opacity:0.24;fill:#FFFFFF;}
	.st46{opacity:0.17;}
	.st47{opacity:0.05;fill:#E2E8E4;}
	.st48{clip-path:url(#SVGID_25_);}
	.st49{opacity:0.76;clip-path:url(#SVGID_25_);fill:#FFFFFF;}
	.st50{clip-path:url(#SVGID_25_);fill:url(#SVGID_26_);}
	.st51{clip-path:url(#SVGID_25_);fill:none;stroke:#FFFFFF;stroke-width:2;stroke-linecap:round;stroke-miterlimit:10;}
	.st52{clip-path:url(#SVGID_25_);fill:url(#SVGID_27_);}
	.st53{clip-path:url(#SVGID_25_);fill:url(#SVGID_28_);}
	.st54{clip-path:url(#SVGID_25_);fill:url(#SVGID_29_);}
	.st55{clip-path:url(#SVGID_25_);fill:url(#SVGID_30_);}
	.st56{clip-path:url(#SVGID_25_);fill:#FFFFFF;}
	.st57{clip-path:url(#SVGID_25_);fill:url(#SVGID_31_);}
	.st58{opacity:0.62;clip-path:url(#SVGID_33_);fill:#FFFFFF;}
	.st59{clip-path:url(#SVGID_33_);fill:#FFFFFF;}
	.st60{opacity:0.41;clip-path:url(#SVGID_33_);fill:#FFFFFF;}
	.st61{clip-path:url(#SVGID_33_);fill:none;}
	.st62{clip-path:url(#SVGID_35_);}
	.st63{fill:url(#SVGID_36_);}
	.st64{opacity:0.74;clip-path:url(#SVGID_38_);fill:url(#SVGID_39_);}
	.st65{fill:#E5E5E5;}
	.st66{fill:none;stroke:#4D4D4D;stroke-width:0.75;stroke-linecap:round;stroke-miterlimit:10;}
	.st67{fill:url(#SVGID_40_);}
	.st68{opacity:0.74;fill:url(#SVGID_41_);}
	.st69{opacity:0.74;fill:url(#SVGID_42_);}
	.st70{opacity:0.74;fill:url(#SVGID_43_);}
	.st71{opacity:0.74;fill:url(#SVGID_44_);}
	.st72{fill:url(#SVGID_45_);}
	.st73{opacity:0.66;}
	.st74{opacity:0.37;fill:#FFFFFF;}
	.st75{fill:url(#SVGID_46_);}
	.st76{fill:url(#SVGID_47_);}
	.st77{opacity:0.44;clip-path:url(#SVGID_49_);fill:#FFFFD9;}
	.st78{opacity:0.43;clip-path:url(#SVGID_51_);fill:#FFFFFF;}
	.st79{clip-path:url(#SVGID_51_);fill:none;stroke:#FFFFFF;stroke-miterlimit:10;}
	.st80{opacity:0.76;clip-path:url(#SVGID_51_);fill:#FFFFFF;}
	.st81{clip-path:url(#SVGID_51_);fill:#FFFFFF;}
	.st82{opacity:0.08;clip-path:url(#SVGID_51_);fill:#FFFFFF;}
	.st83{opacity:0.27;clip-path:url(#SVGID_51_);fill:#FFFFFF;}
	.st84{opacity:0.37;clip-path:url(#SVGID_51_);fill:#FFFFFF;}
	.st85{clip-path:url(#SVGID_51_);fill:none;}
	.st86{fill:url(#SVGID_52_);}
	.st87{opacity:0.62;clip-path:url(#SVGID_54_);fill:#FFFFFF;}
	.st88{clip-path:url(#SVGID_54_);fill:#FFFFFF;}
	.st89{opacity:0.41;clip-path:url(#SVGID_54_);fill:#FFFFFF;}
	.st90{clip-path:url(#SVGID_54_);fill:none;}
	.st91{clip-path:url(#SVGID_56_);}
	.st92{opacity:0.55;fill:url(#SVGID_57_);}
	.st93{fill:url(#SVGID_58_);}
	.st94{fill:url(#SVGID_59_);}
	.st95{opacity:0.28;}
	.st96{opacity:0.56;clip-path:url(#SVGID_61_);fill:#FFFFFF;}
	.st97{opacity:0.43;clip-path:url(#SVGID_63_);fill:#FFFFFF;}
	.st98{clip-path:url(#SVGID_63_);fill:none;stroke:#FFFFFF;stroke-miterlimit:10;}
	.st99{opacity:0.76;clip-path:url(#SVGID_63_);fill:#FFFFFF;}
	.st100{clip-path:url(#SVGID_63_);fill:#FFFFFF;}
	.st101{opacity:0.08;clip-path:url(#SVGID_63_);fill:#FFFFFF;}
	.st102{opacity:0.27;clip-path:url(#SVGID_63_);fill:#FFFFFF;}
	.st103{opacity:0.37;clip-path:url(#SVGID_63_);fill:#FFFFFF;}
	.st104{clip-path:url(#SVGID_63_);fill:none;}
	.st105{clip-path:url(#SVGID_65_);fill:none;}
	.st106{opacity:0.46;}
	.st107{opacity:0.86;fill:#FFFFFF;}
	.st108{opacity:0.4;}
	.st109{opacity:0.73;fill:#FFFFFF;}
	.st110{opacity:0.54;clip-path:url(#SVGID_67_);fill:#FFFFFF;}
	.st111{fill:#FF8A8A;}
	.st112{opacity:0.75;fill:#FFFFFF;}
	.st113{fill:#FFC181;}
	.st114{clip-path:url(#SVGID_69_);fill:#FFDFBD;}
	.st115{clip-path:url(#SVGID_69_);fill:#FF9D00;}
	.st116{clip-path:url(#SVGID_69_);fill:#FFF3DF;}
	.st117{clip-path:url(#SVGID_71_);fill:#FFBAE4;}
	.st118{opacity:0.8;clip-path:url(#SVGID_71_);fill:#FE82C8;}
	.st119{clip-path:url(#SVGID_71_);fill:#FE82C8;}
	.st120{opacity:0.79;clip-path:url(#SVGID_71_);fill:#FFBAE4;}
	.st121{fill:#FFFEEA;}
	.st122{fill:#58D196;}
	.st123{fill:#A6E5C3;}
	.st124{fill:#D2F2E1;}
	.st125{opacity:0.44;fill:#FFFFFF;}
	.st126{clip-path:url(#SVGID_73_);fill:#FFF9C1;}
	.st127{opacity:0.86;fill:#FFCCD5;}
	.st128{opacity:0.62;clip-path:url(#SVGID_75_);fill:#FFFFFF;}
	.st129{opacity:0.75;clip-path:url(#SVGID_75_);fill:#FFFFFF;}
	.st130{opacity:0.41;clip-path:url(#SVGID_75_);fill:#FFFFFF;}
	.st131{clip-path:url(#SVGID_75_);fill:none;}
	.st132{clip-path:url(#SVGID_77_);}
	.st133{opacity:0.44;clip-path:url(#SVGID_79_);fill:#FFFFFF;}
	.st134{opacity:0.43;clip-path:url(#SVGID_81_);fill:#FFFFFF;}
	.st135{clip-path:url(#SVGID_81_);fill:none;stroke:#FFFFFF;stroke-miterlimit:10;}
	.st136{opacity:0.76;clip-path:url(#SVGID_81_);fill:#FFFFFF;}
	.st137{clip-path:url(#SVGID_81_);fill:#FFFFFF;}
	.st138{opacity:0.08;clip-path:url(#SVGID_81_);fill:#FFFFFF;}
	.st139{opacity:0.27;clip-path:url(#SVGID_81_);fill:#FFFFFF;}
	.st140{opacity:0.37;clip-path:url(#SVGID_81_);fill:#FFFFFF;}
	.st141{clip-path:url(#SVGID_81_);fill:none;}
	.st142{opacity:0.54;clip-path:url(#SVGID_83_);fill:#FFFFFF;}
	.st143{opacity:0.62;fill:#FFFFFF;}
	.st144{opacity:0.41;fill:#FFFFFF;}
	.st145{opacity:0.43;fill:#FFFFFF;}
	.st146{opacity:0.76;fill:#FFFFFF;}
	.st147{opacity:0.08;fill:#FFFFFF;}
	.st148{opacity:0.27;fill:#FFFFFF;}
	.st149{opacity:0.54;fill:#FFFFFF;}
	.st150{clip-path:url(#SVGID_85_);fill:#FF6567;}
	.st151{clip-path:url(#SVGID_85_);fill:#FF8A8A;}
	.st152{clip-path:url(#SVGID_85_);fill:#FFC2C1;}
	.st153{clip-path:url(#SVGID_85_);fill:#FFFFFF;}
	.st154{clip-path:url(#SVGID_87_);fill:#E2E9FF;}
	.st155{clip-path:url(#SVGID_87_);fill:#EEF2FF;}
	.st156{opacity:0.54;clip-path:url(#SVGID_87_);fill:#EEF2FF;}
	.st157{opacity:0.54;clip-path:url(#SVGID_87_);fill:#8FAAF0;}
	.st158{clip-path:url(#SVGID_89_);}
	.st159{fill:#FF6B81;}
	.st160{clip-path:url(#SVGID_89_);fill:none;}
	.st161{fill:#FF1B6F;}
	.st162{clip-path:url(#SVGID_91_);fill:#FFDFBD;}
	.st163{clip-path:url(#SVGID_91_);fill:#FF9D00;}
	.st164{clip-path:url(#SVGID_91_);fill:#FFF3DF;}
	.st165{clip-path:url(#SVGID_93_);fill:#F0C6F4;}
	.st166{opacity:0.8;clip-path:url(#SVGID_93_);fill:#F8E3F8;}
	.st167{clip-path:url(#SVGID_93_);fill:#F8E3F8;}
	.st168{opacity:0.79;clip-path:url(#SVGID_93_);fill:#F0C6F4;}
	.st169{clip-path:url(#SVGID_95_);fill:#FFF9C1;}
	.st170{clip-path:url(#SVGID_97_);fill:#FFC5D6;}
	.st171{clip-path:url(#SVGID_97_);fill:#FF94B3;}
	.st172{clip-path:url(#SVGID_97_);fill:#FF6794;}
	.st173{clip-path:url(#SVGID_97_);fill:#FFFFFF;}
	.st174{clip-path:url(#SVGID_99_);fill:#698DE6;}
	.st175{clip-path:url(#SVGID_99_);fill:#8FAAF0;}
	.st176{opacity:0.54;clip-path:url(#SVGID_99_);fill:#8FAAF0;}
	.st177{clip-path:url(#SVGID_101_);}
	.st178{clip-path:url(#SVGID_101_);fill:none;}
	.st179{opacity:0.46;clip-path:url(#SVGID_103_);}
	.st180{clip-path:url(#SVGID_103_);fill:none;}
	.st181{fill:none;stroke:#FFFFFF;stroke-width:2;stroke-miterlimit:10;}
	.st182{opacity:0.45;fill:#FFFFFF;}
	.st183{opacity:0.8;fill:#FFFFFF;}
	.st184{opacity:0.79;fill:#FFFFFF;}
	.st185{fill:#F2C5AA;}
	.st186{fill:none;stroke:#FFFFFF;stroke-width:0.75;stroke-miterlimit:10;}
	.st187{fill:#FFFFFF;stroke:#FFFFFF;stroke-width:0.25;stroke-miterlimit:10;}
	.st188{fill:#D3C1B2;}
	.st189{fill:#FFC5D6;}
	.st190{clip-path:url(#SVGID_111_);fill:#F787A5;}
	.st191{clip-path:url(#SVGID_111_);fill:#FFE9F2;}
	.st192{clip-path:url(#SVGID_111_);fill:#D3CFB3;}
	.st193{clip-path:url(#SVGID_111_);fill:#FFDBE5;}
	.st194{clip-path:url(#SVGID_111_);}
	.st195{fill:#FFE9F2;}
	.st196{fill:#F787A5;}
	.st197{fill:#F2CCC1;}
	.st198{fill:#DF4E50;}
	.st199{clip-path:url(#SVGID_111_);fill:#FFC5D6;}
	.st200{fill:#FFDBE5;}
	.st201{fill:#FFB9C3;}
	.st202{fill:#FB91B5;}
	.st203{fill:#E3A180;}
	.st204{fill:#92693D;}
	.st205{fill:#FBBACC;}
	.st206{fill:#E6678D;}
	.st207{fill:#574435;}
	.st208{fill:#C9A47C;}
	.st209{fill:#641F1E;}
	.st210{fill:#F15E89;}
	.st211{fill:#E7005E;}
	.st212{fill:#DEB78A;}
	.st213{fill:#DFB78A;}
	.st214{fill:#FF6794;}
	.st215{fill:#D72264;}
	.st216{fill:#F7F7F7;}
	.st217{fill:#F2F2F2;}
	.st218{fill:#FFFBF0;}
	.st219{fill:#FFBFCF;}
	.st220{fill:#FF9DAE;}
	.st221{fill:#FFC2C1;}
	.st222{fill:#FFCCD5;}
	.st223{fill:#B49E8F;}
	.st224{fill:#FFE2EA;}
	.st225{fill:#A3C5DC;}
	.st226{fill:#DA956B;}
	.st227{fill:#BDA595;}
	.st228{fill:#583B34;}
	.st229{fill:#63443C;}
	.st230{fill:#B2D0E5;}
	.st231{fill:#FCFCFB;}
	.st232{fill:#D0ACA1;}
	.st233{fill:#A2C4DB;}
	.st234{fill:#E1D0C8;}
	.st235{fill:#9C7972;}
	.st236{fill:#77573F;}
	.st237{fill:#F3769C;}
	.st238{fill:#FBFBF9;}
	.st239{fill:#F8C4DC;}
	.st240{fill:#E4BAB5;}
	.st241{clip-path:url(#SVGID_113_);fill:#F787A5;}
	.st242{clip-path:url(#SVGID_113_);fill:#FFE9F2;}
	.st243{clip-path:url(#SVGID_113_);fill:#D3CFB3;}
	.st244{clip-path:url(#SVGID_113_);fill:#FFDBE5;}
	.st245{clip-path:url(#SVGID_113_);}
	.st246{clip-path:url(#SVGID_113_);fill:#FFC5D6;}
	.st247{fill:#00C377;}
	.st248{fill:#88E5AF;}
	.st249{fill:#00B45A;}
	.st250{fill:#7FDAAA;}
	.st251{fill:#F2BC3A;}
	.st252{fill:#B99F65;}
	.st253{fill:#98D284;}
	.st254{fill:#3C3724;}
	.st255{fill:#D6BEA2;}
	.st256{fill:#9C8274;}
	.st257{fill:#587147;}
	.st258{fill:#E7D6BE;}
	.st259{fill:#5CC689;}
	.st260{clip-path:url(#SVGID_115_);fill:#A6E5C3;}
	.st261{clip-path:url(#SVGID_115_);fill:#FFFFFF;}
	.st262{clip-path:url(#SVGID_115_);fill:#58D196;}
	.st263{fill:#F35000;}
	.st264{fill:#FF8429;}
	.st265{fill:#FFAC33;}
	.st266{fill:#F58800;}
	.st267{fill:#EF6406;}
	.st268{fill:#FF9C00;}
	.st269{fill:#130077;}
	.st270{fill:#FFB58D;}
	.st271{opacity:0.3;}
	.st272{fill:#FF7300;}
	.st273{fill:#6E0000;}
	.st274{fill-rule:evenodd;clip-rule:evenodd;fill:#FF9C00;}
	.st275{fill-rule:evenodd;clip-rule:evenodd;fill:url(#SVGID_116_);}
	.st276{opacity:0.3;fill-rule:evenodd;clip-rule:evenodd;fill:#A4002C;}
	.st277{fill-rule:evenodd;clip-rule:evenodd;fill:url(#SVGID_117_);}
	.st278{fill-rule:evenodd;clip-rule:evenodd;fill:url(#SVGID_118_);}
	.st279{opacity:0.5;fill-rule:evenodd;clip-rule:evenodd;fill:url(#SVGID_119_);}
	.st280{fill-rule:evenodd;clip-rule:evenodd;fill:#FFC485;}
	.st281{fill-rule:evenodd;clip-rule:evenodd;fill:url(#SVGID_120_);}
	.st282{fill-rule:evenodd;clip-rule:evenodd;fill:url(#SVGID_121_);}
	.st283{fill-rule:evenodd;clip-rule:evenodd;fill:url(#SVGID_122_);}
	.st284{opacity:0.5;fill-rule:evenodd;clip-rule:evenodd;fill:url(#SVGID_123_);}
	.st285{fill-rule:evenodd;clip-rule:evenodd;fill:#FDA157;}
	.st286{opacity:0.5;fill-rule:evenodd;clip-rule:evenodd;fill:#FDA157;}
	.st287{fill-rule:evenodd;clip-rule:evenodd;fill:#FF8429;}
	.st288{fill-rule:evenodd;clip-rule:evenodd;fill:#FFAC33;}
	.st289{opacity:0.62;fill-rule:evenodd;clip-rule:evenodd;fill:#C8002A;}
	.st290{opacity:0.5;fill-rule:evenodd;clip-rule:evenodd;fill:#FF8429;}
	.st291{opacity:0.5;fill-rule:evenodd;clip-rule:evenodd;fill:#8F5472;}
	.st292{opacity:0.3;fill-rule:evenodd;clip-rule:evenodd;fill:url(#SVGID_124_);}
	.st293{opacity:0.5;fill-rule:evenodd;clip-rule:evenodd;fill:url(#SVGID_125_);}
	.st294{opacity:0.3;fill-rule:evenodd;clip-rule:evenodd;fill:url(#SVGID_126_);}
	.st295{opacity:0.3;fill-rule:evenodd;clip-rule:evenodd;fill:url(#SVGID_127_);}
	.st296{clip-path:url(#SVGID_129_);}
	.st297{clip-path:url(#SVGID_129_);fill:#FF8429;}
	.st298{fill:#FDA157;}
	.st299{clip-path:url(#SVGID_131_);}
	.st300{clip-path:url(#SVGID_133_);}
	.st301{fill:#F9B946;}
	.st302{clip-path:url(#SVGID_135_);}
	.st303{clip-path:url(#SVGID_135_);fill:#FF8429;}
	.st304{fill-rule:evenodd;clip-rule:evenodd;fill:url(#SVGID_136_);}
	.st305{fill-rule:evenodd;clip-rule:evenodd;fill:url(#SVGID_137_);}
	.st306{fill-rule:evenodd;clip-rule:evenodd;fill:url(#SVGID_138_);}
	.st307{opacity:0.5;fill-rule:evenodd;clip-rule:evenodd;fill:url(#SVGID_139_);}
	.st308{fill-rule:evenodd;clip-rule:evenodd;fill:url(#SVGID_140_);}
	.st309{fill-rule:evenodd;clip-rule:evenodd;fill:url(#SVGID_141_);}
	.st310{fill-rule:evenodd;clip-rule:evenodd;fill:url(#SVGID_142_);}
	.st311{opacity:0.5;fill-rule:evenodd;clip-rule:evenodd;fill:url(#SVGID_143_);}
	.st312{opacity:0.3;fill-rule:evenodd;clip-rule:evenodd;fill:url(#SVGID_144_);}
	.st313{opacity:0.5;fill-rule:evenodd;clip-rule:evenodd;fill:url(#SVGID_145_);}
	.st314{opacity:0.3;fill-rule:evenodd;clip-rule:evenodd;fill:url(#SVGID_146_);}
	.st315{opacity:0.3;fill-rule:evenodd;clip-rule:evenodd;fill:url(#SVGID_147_);}
</style>
<g>
	<defs>
		<rect id="SVGID_134_" x="-26.21" y="-20" width="610.75" height="1156.98"/>
	</defs>
	<clipPath id="SVGID_2_">
		<use xlink:href="#SVGID_134_"  style="overflow:visible;"/>
	</clipPath>
	<g style="clip-path:url(#SVGID_2_);">
		<g>
			<path class="st264" d="M668.95,1136.44c-14.75,0-29.55-1.18-44.09-2.35c-14.32-1.14-29.13-2.32-43.46-2.32
				c-14.33,0-29.14,1.18-43.48,2.32c-28.18,2.25-57.35,4.61-85.27-1.76c-29.05-6.6-54.56-21.57-79.24-36.05
				c-12.52-7.34-24.35-14.29-36.58-20.18c-12.55-6.06-26.16-11.35-39.32-16.45c-26.54-10.29-53.99-20.92-76.79-39.13
				c-22.89-18.29-39.34-42.68-55.25-66.27c-7.87-11.7-16.02-23.78-24.67-34.63c-8.59-10.74-18.06-20.83-28.11-31.52
				c-19.55-20.75-39.76-42.23-52.57-68.82c-12.61-26.14-16.86-55.26-20.97-83.43c-2.05-14.01-4.15-28.48-7.27-42.16
				c-2.97-13.12-7.08-26.12-11.43-39.89c-8.61-27.27-17.51-55.5-17.51-85.54c0-30.05,8.9-58.27,17.51-85.54
				c4.34-13.77,8.46-26.77,11.43-39.89c3.12-13.69,5.23-28.16,7.27-42.17c4.11-28.17,8.35-57.31,20.97-83.45
				c12.82-26.57,33.03-48.05,52.57-68.82c10.05-10.67,19.53-20.75,28.11-31.51c8.66-10.84,16.82-22.93,24.69-34.62
				c15.9-23.6,32.35-48,55.24-66.28c22.81-18.21,50.26-28.86,76.81-39.14c13.17-5.11,26.76-10.38,39.31-16.44
				c12.23-5.89,24.06-12.84,36.58-20.18c24.68-14.47,50.19-29.45,79.24-36.05c27.91-6.33,57.08-4.01,85.27-1.77
				c14.33,1.14,29.15,2.32,43.48,2.32c14.33,0,29.15-1.18,43.47-2.32c28.2-2.24,57.35-4.57,85.26,1.77
				c29.07,6.6,54.59,21.58,79.26,36.05c12.53,7.35,24.35,14.3,36.56,20.2c12.57,6.05,26.16,11.32,39.33,16.43
				c26.54,10.28,54,20.93,76.8,39.14c22.88,18.28,39.33,42.69,55.24,66.28c7.87,11.69,16.02,23.78,24.68,34.62
				c8.58,10.74,18.06,20.82,28.1,31.49c19.55,20.78,39.75,42.25,52.58,68.82c12.6,26.14,16.85,55.27,20.97,83.44
				c2.04,14.01,4.14,28.48,7.26,42.17c2.98,13.12,7.07,26.12,11.42,39.89c8.63,27.28,17.52,55.49,17.52,85.54
				c0,30.04-8.9,58.27-17.52,85.54c-4.34,13.77-8.44,26.77-11.42,39.89c-3.12,13.68-5.22,28.15-7.27,42.17
				c-4.11,28.15-8.36,57.29-20.95,83.43c-12.83,26.58-33.05,48.05-52.6,68.83c-10.03,10.67-19.52,20.77-28.1,31.49
				c-8.65,10.85-16.79,22.92-24.67,34.62c-15.91,23.6-32.36,47.99-55.25,66.28c-22.79,18.21-50.26,28.85-76.79,39.14
				c-13.17,5.09-26.76,10.39-39.33,16.44c-12.23,5.89-24.03,12.84-36.58,20.18c-24.67,14.48-50.19,29.45-79.25,36.05
				C696.63,1135.4,682.81,1136.44,668.95,1136.44z M581.4,1109.4c15.22,0,30.48,1.2,45.24,2.38c27.75,2.19,53.95,4.29,78.53-1.29
				c25.69-5.83,49.67-19.93,72.86-33.51c12.37-7.27,25.15-14.77,38.2-21.07c13.33-6.43,27.36-11.88,40.96-17.14
				c26.11-10.11,50.78-19.68,70.92-35.75c20.2-16.16,34.98-38.08,50.64-61.31c8.12-12.05,16.51-24.53,25.74-36.06
				c9.15-11.47,19.4-22.34,29.3-32.88c19.24-20.44,37.39-39.74,48.72-63.21c11.1-23.04,14.94-49.22,18.97-76.93
				c2.1-14.43,4.29-29.37,7.6-43.91c3.18-14.02,7.62-28.08,11.9-41.67c8.1-25.66,16.47-52.2,16.47-78.79
				c0-26.61-8.38-53.14-16.47-78.8c-4.28-13.61-8.72-27.66-11.9-41.68c-3.3-14.54-5.5-29.46-7.6-43.9
				c-4.03-27.71-7.87-53.89-18.97-76.94c-11.33-23.47-29.48-42.77-48.71-63.2c-9.91-10.54-20.17-21.43-29.3-32.88
				c-9.24-11.55-17.62-24.01-25.75-36.08c-15.66-23.23-30.43-45.16-50.64-61.3c-20.14-16.07-44.81-25.63-70.92-35.76
				c-13.59-5.26-27.61-10.7-40.96-17.14c-13.05-6.3-25.82-13.79-38.2-21.04c-23.18-13.61-47.18-27.69-72.86-33.53
				c-24.58-5.58-50.78-3.5-78.53-1.3c-14.76,1.17-30.02,2.4-45.24,2.4c-15.22,0-30.5-1.23-45.26-2.4
				c-27.74-2.2-53.94-4.29-78.53,1.3c-25.67,5.83-49.67,19.91-72.87,33.53c-12.35,7.25-25.13,14.73-38.17,21.03
				c-13.36,6.45-27.39,11.88-40.96,17.15c-26.12,10.13-50.79,19.69-70.92,35.76c-20.21,16.14-34.99,38.07-50.65,61.3
				c-8.12,12.05-16.53,24.53-25.76,36.08c-9.16,11.45-19.4,22.34-29.31,32.88c-19.23,20.43-37.38,39.73-48.7,63.19
				c-11.12,23.04-14.93,49.24-18.98,76.95c-2.11,14.44-4.28,29.36-7.58,43.9c-3.19,14.01-7.64,28.07-11.92,41.68
				c-8.1,25.65-16.47,52.18-16.47,78.8c0,26.6,8.38,53.14,16.47,78.79c4.29,13.59,8.74,27.65,11.93,41.67
				c3.3,14.55,5.47,29.48,7.58,43.91c4.04,27.71,7.85,53.87,18.98,76.93c11.32,23.47,29.48,42.76,48.7,63.21
				c9.91,10.53,20.15,21.42,29.31,32.88c9.22,11.53,17.63,24.01,25.76,36.06c15.65,23.23,30.43,45.15,50.64,61.31
				c20.12,16.06,44.79,25.62,70.92,35.75c13.56,5.26,27.59,10.69,40.96,17.14c13.04,6.3,25.82,13.79,38.17,21.03
				c23.2,13.62,47.2,27.71,72.87,33.55c24.58,5.58,50.79,3.49,78.53,1.29C550.91,1110.61,566.18,1109.4,581.4,1109.4z"/>
		</g>
		<path class="st264" d="M500.45,1090.72c-12.64,0-25.19-0.95-37.44-3.71c-26.43-6.02-49.83-19.75-72.45-33.02
			c-11.63-6.82-22.61-13.28-34.02-18.78c-11.71-5.66-24.35-10.55-36.58-15.29c-24.35-9.43-49.51-19.18-70.25-35.76
			c-20.82-16.62-35.9-38.99-50.48-60.63c-7.32-10.87-14.89-22.08-22.96-32.21c-8.02-10.01-17.24-19.81-26.15-29.29
			c-17.93-19.06-36.45-38.74-48.11-62.9c-11.47-23.78-15.37-50.49-19.13-76.34c-1.89-12.99-3.85-26.44-6.76-39.2
			c-2.77-12.23-6.59-24.31-10.63-37.11c-7.89-25.01-16.05-50.86-16.05-78.21c0-27.35,8.16-53.22,16.05-78.22
			c4.04-12.79,7.85-24.87,10.63-37.11c2.91-12.77,4.87-26.22,6.77-39.23c3.77-25.82,7.66-52.54,19.13-76.31
			c11.66-24.16,30.18-43.85,48.11-62.9c8.92-9.48,18.14-19.28,26.15-29.31c8.06-10.11,15.63-21.33,22.95-32.19
			c14.58-21.64,29.67-44.03,50.49-60.65c20.74-16.57,45.91-26.33,70.25-35.76c12.23-4.74,24.86-9.64,36.57-15.3
			c11.41-5.5,22.39-11.93,34.02-18.76c22.62-13.28,46.02-27.01,72.45-33.02c25.38-5.75,52.12-3.63,77.98-1.57
			c13.3,1.05,27.05,2.15,40.42,2.15c13.36,0,27.13-1.1,40.43-2.15c25.85-2.07,52.57-4.19,77.97,1.57
			c26.41,6.01,49.82,19.74,72.45,33.03c11.63,6.82,22.61,13.26,34.02,18.76c11.7,5.66,24.33,10.55,36.55,15.3
			c24.35,9.43,49.52,19.18,70.27,35.75c20.82,16.62,35.9,39,50.48,60.64c7.3,10.86,14.87,22.09,22.96,32.19
			c8.01,10.03,17.22,19.84,26.14,29.31c17.93,19.04,36.46,38.74,48.12,62.91c11.47,23.76,15.36,50.48,19.13,76.3
			c1.9,13,3.86,26.46,6.76,39.23c2.78,12.25,6.61,24.32,10.64,37.12c7.89,25,16.06,50.86,16.06,78.21c0,27.34-8.17,53.2-16.06,78.19
			c-4.03,12.82-7.86,24.9-10.64,37.13c-2.9,12.78-4.86,26.22-6.76,39.23c-3.77,25.84-7.66,52.55-19.13,76.32
			c-11.65,24.17-30.19,43.85-48.12,62.9c-8.91,9.48-18.14,19.29-26.14,29.29c-8.09,10.14-15.66,21.35-22.96,32.22
			c-14.58,21.63-29.67,44.01-50.5,60.63c-20.74,16.57-45.91,26.32-70.26,35.75c-12.22,4.74-24.85,9.64-36.55,15.29
			c-11.43,5.5-22.39,11.95-34.02,18.78c-22.63,13.27-46.04,27-72.45,33.02c-25.4,5.72-52.12,3.62-77.97,1.55
			c-13.3-1.06-27.06-2.15-40.43-2.15c-13.37,0-27.12,1.09-40.43,2.15C527.6,1089.63,513.99,1090.72,500.45,1090.72z M581.4,1071.48
			c13.96,0,28.01,1.13,41.62,2.2c25.86,2.08,50.29,4.02,73.46-1.24c24.18-5.51,46.56-18.63,68.19-31.33
			c11.39-6.67,23.14-13.58,35.11-19.35c12.23-5.89,25.16-10.9,37.65-15.76c24.35-9.44,47.38-18.35,66.33-33.48
			c19.04-15.22,32.83-35.66,47.42-57.33c7.48-11.1,15.23-22.58,23.68-33.16c8.39-10.5,17.81-20.51,26.94-30.23
			c17.14-18.21,34.87-37.08,45.52-59.17c10.48-21.69,14.03-46.13,17.8-71.97c1.95-13.28,3.97-27.04,7-40.37
			c2.9-12.84,7-25.8,10.94-38.32c7.57-23.92,15.36-48.67,15.36-73.71c0-25.06-7.79-49.79-15.36-73.73
			c-3.94-12.52-8.04-25.46-10.94-38.3c-3.03-13.34-5.04-27.08-7-40.37c-3.77-25.86-7.32-50.27-17.8-71.97
			c-10.65-22.09-28.38-40.94-45.52-59.16c-9.11-9.69-18.54-19.73-26.94-30.23c-8.45-10.58-16.2-22.07-23.67-33.17
			c-14.59-21.66-28.39-42.12-47.43-57.32c-18.95-15.14-41.98-24.06-66.33-33.5c-12.49-4.84-25.41-9.86-37.65-15.76
			c-11.94-5.76-23.72-12.66-35.11-19.35c-21.63-12.69-44.01-25.84-68.19-31.32c-23.17-5.27-47.6-3.32-73.48-1.25
			c-13.59,1.08-27.64,2.2-41.61,2.2c-13.97,0-28.02-1.12-41.61-2.2c-25.89-2.06-50.33-4.01-73.48,1.25
			c-24.17,5.49-46.56,18.63-68.2,31.32c-11.37,6.68-23.13,13.59-35.09,19.35c-12.25,5.9-25.16,10.91-37.65,15.76
			c-24.37,9.44-47.38,18.36-66.33,33.5c-19.05,15.2-32.83,35.67-47.43,57.33c-7.48,11.1-15.22,22.58-23.67,33.17
			c-8.39,10.49-17.81,20.53-26.94,30.22c-17.15,18.22-34.89,37.06-45.54,59.16c-10.46,21.7-14.04,46.11-17.81,71.97
			c-1.93,13.29-3.94,27.03-6.97,40.37c-2.92,12.84-7.01,25.78-10.95,38.3c-7.55,23.94-15.36,48.67-15.36,73.73
			c0,25.05,7.81,49.79,15.36,73.74c3.94,12.49,8.03,25.45,10.95,38.29c3.03,13.33,5.03,27.07,6.97,40.35
			c3.77,25.85,7.34,50.3,17.81,71.99c10.66,22.09,28.39,40.94,45.54,59.17c9.12,9.7,18.55,19.73,26.93,30.22
			c8.46,10.58,16.19,22.06,23.68,33.16c14.59,21.67,28.38,42.12,47.42,57.34c18.96,15.13,41.97,24.05,66.33,33.48
			c12.5,4.83,25.42,9.86,37.66,15.76c11.95,5.77,23.72,12.68,35.09,19.35c21.64,12.7,44.03,25.82,68.2,31.33
			c23.15,5.26,47.6,3.32,73.48,1.24C553.38,1072.6,567.44,1071.48,581.4,1071.48z"/>
		<path class="st264" d="M515.61,1088.41c-68.24,0-82.83-23.59-91.31-27.89c-4.87-2.48-10.44-3.18-15.35-5.54
			c-8.72-4.21-11.81-14.23-21.62-16.87c-43.03-11.55,10.39,6.42-72.77-26.97c-111.92-44.96-99.72-81.79-160.4-162.02
			c-16.55-21.87-38.35-37.06-48.6-63.52c-13.54-34.91-14.98-84.22-21.15-104.87c-1.66-5.56-5.09-10.26-7.79-15.3
			c-6.05-11.37-4.41-24.98-7.41-37.31c-7.75-31.97-14.34-8.66-11.59-79.36c0.53-13.69,7.92-25,11.8-37.87
			c29.84-99.08,19.81-69.72,16.39-100.21c-1.01-8.89,3.06-67.29,31.22-92.97c10.11-9.21,21.85-16.62,30.68-27.2
			c8.91-10.63,15.43-22.98,23.18-34.43c7.74-11.44,16.65-22.06,24.58-33.38c24.7-35.32,18.14-29.77,56.21-58.85
			c11.06-8.44,21.54-18.31,34.27-24.27c11.58-5.43,24.64-7.57,36.37-12.7c6.08-2.66,9.84-7.57,14.86-11.67
			c5.13-4.21,10.95-7.54,16.83-10.55c38.49-19.7,43.56-6.25,73.48-29.71c30.68-24.05,38.67-26.54,78.17-17.84
			c30.63,6.74,27.09,0.14,42.15,1.08c14.23,0.89,27.44,4.56,41.91,3.77c35.67-1.9,35.73-7.27,62.37-2.48
			c7.37,1.33,15.33-1.45,22.74-2.13c50.49-4.69,100.61,35.52,113.29,43.72c35,22.69,101.64,37.91,116.65,46.23
			c24.66,13.66,29.14,42.58,46.11,62.87c23.44,28.05,27.05,17.3,48.94,63.51c11.2,23.6,38.62,18.04,75.13,137.95
			c4.28,14.05,8.53,28.41,11.25,42.86c2.7,14.26-2.25,28.65,1.36,42.7c1.46,5.73,3.9,11.18,5.21,16.95
			c1.61,7.14,2.08,13.06,6.07,19.45c7.02,11.22,10.4,22.82,10.4,36.08c-0.01,24.01-2.52,50.63-14.04,72.2
			c-21.54,40.27-19.54,7.81-32.55,120.35c-8.01,69.3-70.3,92.75-93.1,131.06c-15.23,25.56-15.66,40.07-48.04,66.3
			c-43.37,35.14-46.8,30.49-104.88,54.57c-57.18,23.71-26.14,48.6-100.89,59.04c-61.88,8.65-5.01,10.09-124.01,5.97
			c-25.68-0.88-28.2-3.4-37.16-0.06C541.3,1084.02,530.03,1088.41,515.61,1088.41z M440,84.08c-43.04,33.9-31.94,8.98-86.65,38.27
			c-14.59,7.81-18.8,23.74-46.94,32.97c-63.77,20.9-47.06,59.74-138.23,132.61c-30.87,24.69-60.08,80.59-57.01,109.9
			c3.42,32.66-0.98,45.93-3.04,59.63c-2.24,14.89-16.51,62-25.54,80.53c-25.9,53.18,6.96,39.84,13.71,118.52
			c0.03,0.4,12.73,82.04,12.73,82.04c11.05,67.7,32.46,70.13,55.49,99.57c50.36,64.35,55.5,113.4,123.61,145.68
			c6.88,3.25,84.13,35.67,91.54,37.45c13.15,3.15,26.86,4.53,39.19,10.41c28.58,13.66,21.55,31.69,67.37,39.19
			c43.05,7.05,49.32-0.74,72.14-9.53c25.84-9.99,55.85-3.3,82.76-1.3c46.95,3.52,24.32,6.47,82.84-3.15
			c39.49-6.46,37.2-23.51,59.23-42.04c17.99-15.12,75.88-29.6,103.69-47.6c56.7-36.7,54.83-59.66,73.28-87.11
			c15.1-22.45,63.22-57.17,79.49-88.45c6.56-12.6,7.05-21.14,13.91-76.94c9.9-80.59,19.43-44.46,36.7-103.08
			c14.65-49.66,8.09-51.58-8.05-76.07c-7.49-11.37-12.04-22.73-12.04-36.5c0.02-27.07,12.17-31.32-21.73-118.52
			c-27.54-70.88-43.47-55.86-60.67-96.79c-18.37-43.83-23.71-34.84-48.1-63.73c-18.44-21.84-21.44-49-43.52-60.44
			c-10.97-5.68-78.42-22.67-112.39-43.6c-15.93-9.85-64.46-46.28-104.49-44.02c-13.67,0.76-27.05,4.3-40.72,5.35
			c-58.64,4.5-45.32,8.66-123.37-3.15C479.19,68.72,473.41,57.77,440,84.08z"/>
	</g>
	<polygon style="clip-path:url(#SVGID_2_);fill:#FF8429;" points="1148.53,562.66 594.92,562.66 975.92,181.65 968.01,173.74 
		587,554.75 587,15.93 575.8,15.93 575.8,554.75 194.81,173.74 186.89,181.65 567.89,562.66 14.28,562.66 14.28,573.85 
		567.89,573.85 186.89,954.85 194.81,962.78 575.8,581.75 575.8,1120.59 587,1120.59 587,581.75 968.01,962.78 975.92,954.85 
		594.92,573.85 1148.53,573.85 	"/>
	<g style="clip-path:url(#SVGID_2_);">
		<path class="st298" d="M229.4,551.4c-33.45,0-60.68,27.21-60.68,60.66c0,33.45,27.22,60.66,60.68,60.66
			c33.45,0,60.66-27.21,60.66-60.66C290.06,578.61,262.85,551.4,229.4,551.4z"/>
		<g>
			<path class="st263" d="M221.98,589.3c4.57,0,8.27-3.69,8.27-8.28c0-4.57-3.7-8.26-8.27-8.26c-4.57,0-8.27,3.69-8.27,8.26
				C213.71,585.61,217.41,589.3,221.98,589.3z"/>
			<path class="st263" d="M204.53,597.92c-3.23,0-5.85,2.63-5.85,5.86c0,3.23,2.62,5.86,5.85,5.86c3.23,0,5.85-2.63,5.85-5.86
				C210.38,600.55,207.76,597.92,204.53,597.92z"/>
			<path class="st263" d="M213.71,629.66c-2.67,0-4.82,2.18-4.82,4.83c0,2.67,2.15,4.83,4.82,4.83c2.67,0,4.84-2.16,4.84-4.83
				C218.54,631.83,216.37,629.66,213.71,629.66z"/>
			<path class="st263" d="M230.25,647.77c-2.23,0-4.04,1.8-4.04,4.04c0,2.25,1.81,4.05,4.04,4.05c2.25,0,4.06-1.8,4.06-4.05
				C234.31,649.57,232.5,647.77,230.25,647.77z"/>
			<path class="st263" d="M192.2,621.36c-1.59,0-2.87,1.3-2.87,2.88c0,1.59,1.28,2.87,2.87,2.87c1.58,0,2.85-1.28,2.85-2.87
				C195.05,622.66,193.77,621.36,192.2,621.36z"/>
			<path class="st263" d="M220.96,612.09c-1.57,0.24-2.63,1.72-2.38,3.27c0.24,1.56,1.71,2.63,3.27,2.38
				c1.56-0.23,2.63-1.7,2.38-3.28C223.98,612.91,222.52,611.83,220.96,612.09z"/>
			<path class="st263" d="M247.53,578.94c-1.55,0.25-2.62,1.72-2.38,3.27c0.24,1.58,1.72,2.63,3.27,2.4
				c1.56-0.26,2.63-1.71,2.38-3.28C250.56,579.76,249.1,578.7,247.53,578.94z"/>
			<path class="st263" d="M201.51,584.61c1.56-0.26,2.63-1.71,2.38-3.28c-0.24-1.56-1.71-2.63-3.28-2.39
				c-1.56,0.25-2.63,1.72-2.37,3.27C198.48,583.78,199.94,584.83,201.51,584.61z"/>
			<path class="st263" d="M266.72,619.97c-2.35,0-4.25,1.91-4.25,4.27c0,2.37,1.9,4.26,4.25,4.26c2.34,0,4.25-1.89,4.25-4.26
				C270.97,621.88,269.06,619.97,266.72,619.97z"/>
			<path class="st263" d="M235.08,608.6c2.67,0,4.84-2.15,4.84-4.82c0-2.68-2.17-4.83-4.84-4.83s-4.83,2.15-4.83,4.83
				C230.25,606.45,232.41,608.6,235.08,608.6z"/>
			<path class="st263" d="M239.93,624.24c-4.45,0-8.05,3.61-8.05,8.05c0,4.46,3.61,8.05,8.05,8.05c4.46,0,8.05-3.59,8.05-8.05
				C247.98,627.84,244.39,624.24,239.93,624.24z"/>
			<path class="st263" d="M264.85,599.98c0-3.79-3.05-6.82-6.82-6.82c-3.77,0-6.82,3.03-6.82,6.82c0,3.75,3.05,6.8,6.82,6.8
				C261.8,606.77,264.85,603.73,264.85,599.98z"/>
		</g>
	</g>
	<g style="clip-path:url(#SVGID_2_);">
		<path class="st298" d="M408.84,324.28c-33.45,0-60.68,27.21-60.68,60.66c0,33.45,27.22,60.66,60.68,60.66
			c33.45,0,60.66-27.21,60.66-60.66C469.5,351.49,442.29,324.28,408.84,324.28z"/>
		<g>
			<path class="st263" d="M401.42,362.18c4.57,0,8.27-3.69,8.27-8.28c0-4.57-3.7-8.26-8.27-8.26c-4.57,0-8.27,3.69-8.27,8.26
				C393.14,358.49,396.85,362.18,401.42,362.18z"/>
			<path class="st263" d="M383.97,370.8c-3.23,0-5.85,2.63-5.85,5.86c0,3.23,2.62,5.86,5.85,5.86c3.23,0,5.85-2.63,5.85-5.86
				C389.82,373.43,387.2,370.8,383.97,370.8z"/>
			<path class="st263" d="M393.14,402.53c-2.67,0-4.82,2.18-4.82,4.83c0,2.67,2.15,4.83,4.82,4.83c2.67,0,4.84-2.16,4.84-4.83
				C397.98,404.71,395.81,402.53,393.14,402.53z"/>
			<path class="st263" d="M409.69,420.65c-2.23,0-4.04,1.8-4.04,4.04c0,2.25,1.81,4.05,4.04,4.05c2.25,0,4.06-1.8,4.06-4.05
				C413.75,422.45,411.94,420.65,409.69,420.65z"/>
			<path class="st263" d="M371.63,394.24c-1.59,0-2.87,1.3-2.87,2.88c0,1.59,1.28,2.87,2.87,2.87c1.58,0,2.85-1.28,2.85-2.87
				C374.49,395.54,373.21,394.24,371.63,394.24z"/>
			<path class="st263" d="M400.4,384.97c-1.57,0.24-2.63,1.72-2.38,3.27c0.24,1.56,1.71,2.63,3.27,2.38
				c1.56-0.23,2.63-1.7,2.38-3.28C403.42,385.79,401.96,384.71,400.4,384.97z"/>
			<path class="st263" d="M426.97,351.82c-1.55,0.25-2.62,1.72-2.38,3.27c0.24,1.58,1.72,2.63,3.27,2.4
				c1.56-0.26,2.63-1.71,2.38-3.28C430,352.64,428.54,351.58,426.97,351.82z"/>
			<path class="st263" d="M380.95,357.48c1.56-0.26,2.63-1.71,2.38-3.28c-0.24-1.56-1.71-2.63-3.28-2.39
				c-1.56,0.25-2.63,1.72-2.37,3.27C377.92,356.66,379.38,357.71,380.95,357.48z"/>
			<path class="st263" d="M446.15,392.85c-2.35,0-4.25,1.91-4.25,4.27c0,2.37,1.9,4.26,4.25,4.26c2.34,0,4.25-1.89,4.25-4.26
				C450.4,394.76,448.5,392.85,446.15,392.85z"/>
			<path class="st263" d="M414.52,381.48c2.67,0,4.84-2.15,4.84-4.82c0-2.68-2.17-4.83-4.84-4.83c-2.67,0-4.83,2.15-4.83,4.83
				C409.69,379.33,411.85,381.48,414.52,381.48z"/>
			<path class="st263" d="M419.37,397.11c-4.45,0-8.05,3.61-8.05,8.05c0,4.46,3.61,8.05,8.05,8.05c4.46,0,8.05-3.59,8.05-8.05
				C427.42,400.72,423.82,397.11,419.37,397.11z"/>
			<path class="st263" d="M444.28,372.86c0-3.79-3.05-6.82-6.82-6.82c-3.77,0-6.82,3.03-6.82,6.82c0,3.75,3.05,6.8,6.82,6.8
				C441.24,379.65,444.28,376.61,444.28,372.86z"/>
		</g>
	</g>
	<g style="clip-path:url(#SVGID_2_);">
		<path class="st298" d="M540.61,739.7c-33.45,0-60.68,27.21-60.68,60.66c0,33.45,27.22,60.66,60.68,60.66
			c33.45,0,60.66-27.21,60.66-60.66C601.27,766.91,574.06,739.7,540.61,739.7z"/>
		<g>
			<path class="st263" d="M533.18,777.6c4.57,0,8.27-3.69,8.27-8.28c0-4.57-3.7-8.26-8.27-8.26c-4.57,0-8.27,3.69-8.27,8.26
				C524.91,773.91,528.62,777.6,533.18,777.6z"/>
			<path class="st263" d="M515.74,786.22c-3.23,0-5.85,2.63-5.85,5.86c0,3.23,2.62,5.86,5.85,5.86c3.23,0,5.85-2.63,5.85-5.86
				C521.59,788.85,518.97,786.22,515.74,786.22z"/>
			<path class="st263" d="M524.91,817.95c-2.67,0-4.82,2.18-4.82,4.83c0,2.67,2.15,4.83,4.82,4.83c2.67,0,4.84-2.16,4.84-4.83
				C529.75,820.13,527.58,817.95,524.91,817.95z"/>
			<path class="st263" d="M541.45,836.07c-2.23,0-4.04,1.8-4.04,4.04c0,2.25,1.81,4.05,4.04,4.05c2.25,0,4.06-1.8,4.06-4.05
				C545.52,837.87,543.71,836.07,541.45,836.07z"/>
			<path class="st263" d="M503.4,809.65c-1.59,0-2.87,1.3-2.87,2.88c0,1.59,1.28,2.87,2.87,2.87c1.58,0,2.85-1.28,2.85-2.87
				C506.25,810.96,504.98,809.65,503.4,809.65z"/>
			<path class="st263" d="M532.17,800.39c-1.57,0.24-2.63,1.72-2.38,3.27c0.24,1.56,1.71,2.63,3.27,2.38
				c1.56-0.23,2.63-1.7,2.38-3.28C535.19,801.21,533.72,800.13,532.17,800.39z"/>
			<path class="st263" d="M558.74,767.23c-1.55,0.25-2.62,1.72-2.38,3.27c0.24,1.58,1.72,2.63,3.27,2.4
				c1.56-0.26,2.63-1.71,2.38-3.28C561.77,768.06,560.3,767,558.74,767.23z"/>
			<path class="st263" d="M512.71,772.9c1.56-0.26,2.63-1.71,2.38-3.28c-0.24-1.56-1.71-2.63-3.28-2.39
				c-1.56,0.25-2.63,1.72-2.37,3.27C509.68,772.08,511.15,773.13,512.71,772.9z"/>
			<path class="st263" d="M577.92,808.26c-2.35,0-4.25,1.91-4.25,4.27c0,2.37,1.9,4.26,4.25,4.26c2.34,0,4.25-1.89,4.25-4.26
				C582.17,810.18,580.26,808.26,577.92,808.26z"/>
			<path class="st263" d="M546.28,796.9c2.67,0,4.84-2.15,4.84-4.82c0-2.68-2.17-4.83-4.84-4.83c-2.67,0-4.83,2.15-4.83,4.83
				C541.45,794.75,543.62,796.9,546.28,796.9z"/>
			<path class="st263" d="M551.13,812.53c-4.45,0-8.05,3.61-8.05,8.05c0,4.46,3.61,8.05,8.05,8.05c4.46,0,8.05-3.59,8.05-8.05
				C559.18,816.14,555.59,812.53,551.13,812.53z"/>
			<path class="st263" d="M576.05,788.28c0-3.79-3.05-6.82-6.82-6.82c-3.77,0-6.82,3.03-6.82,6.82c0,3.75,3.05,6.8,6.82,6.8
				C573,795.07,576.05,792.03,576.05,788.28z"/>
		</g>
	</g>
	<g style="clip-path:url(#SVGID_2_);">
		<path class="st264" d="M530.72,198.02c-1.71-7.35-5.61-13.96-11.09-18.79c2.04-8.12,1.13-16.8-2.6-24.68
			c-6.8-14.31-22.05-22.54-36.27-19.46c-10.9,2.33-19.4,10.52-22.71,21.45c-9.64-6.14-21.42-6.83-31.2-1.5
			c-12.77,6.95-19.02,23.1-14.84,38.39c2.28,8.41,7.25,15.6,14.07,20.43c-1,7.23,0.34,14.79,3.83,21.48
			c5.88,11.26,17.01,18.14,28.47,18.14c2.04,0,4.09-0.22,6.13-0.67c10.3-2.28,18.38-10.05,21.62-20.38
			c9.2,5.73,20.39,6.37,29.69,1.4C527.98,227.31,534.1,212.6,530.72,198.02z M510.55,223.94c-6.73,3.61-14.86,2.44-21.22-3.04
			c-2.24-1.93-5.3-2.5-8.02-1.5c-2.7,0.99-4.64,3.43-5.1,6.35c-1.25,8.29-6.67,14.46-14.12,16.12c-8.39,1.88-17.74-3.06-22.25-11.72
			c-2.63-5.03-3.5-10.71-2.47-16.01c0.66-3.38-0.85-6.89-3.75-8.72c-5.26-3.3-9.1-8.62-10.82-14.95
			c-2.82-10.34,1.13-21.11,9.39-25.61c2.8-1.51,5.81-2.26,8.84-2.26c4.81,0,9.68,1.87,13.83,5.49c2.23,1.95,5.32,2.55,8.03,1.54
			c2.73-1.01,4.68-3.45,5.11-6.41c1.29-8.88,7.07-15.47,15.1-17.2c9.22-1.93,19.21,3.64,23.8,13.32v0.01
			c2.81,5.93,3.35,12.45,1.52,18.39c-1.01,3.27,0.12,6.92,2.82,9.06c4.24,3.35,7.27,8.24,8.56,13.76
			C522.02,210.06,518.14,219.88,510.55,223.94z"/>
		<path class="st264" d="M421.8,950.23c5.89-4.74,10.15-11.12,12.13-18.16c8.2-1.7,15.62-6.28,21.1-13.05
			c9.95-12.33,10.73-29.65,1.79-41.12c-6.83-8.79-17.89-12.91-29.18-11.15c1.34-11.34-3.15-22.24-12.19-28.75
			c-11.81-8.47-29.06-7.11-41.03,3.29c-6.58,5.7-10.9,13.31-12.29,21.54c-6.94,2.24-13.18,6.72-17.7,12.78
			c-7.59,10.18-8.95,23.19-3.98,33.53c0.89,1.82,1.98,3.58,3.27,5.23c6.53,8.26,17.04,12.18,27.76,10.6
			c-1.16,10.79,3.12,21.14,11.63,27.36C394.24,960.46,410.15,959.6,421.8,950.23z M389.71,943.3c-6.17-4.51-8.65-12.32-6.47-20.43
			c0.76-2.87-0.05-5.87-2.13-7.89c-2.08-2-5.12-2.69-7.93-1.83c-8.01,2.46-15.93,0.27-20.66-5.73c-5.33-6.75-4.94-17.3,0.89-25.12
			c3.39-4.54,8.14-7.8,13.36-9.19c3.32-0.85,5.83-3.73,6.22-7.15c0.7-6.17,3.82-11.93,8.77-16.23c8.09-7.03,19.51-8.15,27.15-2.65
			c2.58,1.85,4.55,4.24,5.87,6.98c2.08,4.32,2.52,9.51,1.06,14.83c-0.79,2.84,0.01,5.9,2.1,7.9c2.1,2.02,5.15,2.7,7.99,1.83
			c8.57-2.7,17.02-0.35,22.04,6.12c5.74,7.47,5.08,18.91-1.67,27.24l0,0c-4.12,5.11-9.77,8.44-15.9,9.36
			c-3.4,0.51-6.18,3.1-6.94,6.47c-1.18,5.28-4.26,10.14-8.67,13.67C407.2,947.59,396.64,948.37,389.71,943.3z"/>
		<path class="st264" d="M278.51,451.31c0.64-6.72-0.78-13.42-4.04-19.06c4.03-6.29,5.73-13.9,4.81-21.64
			c-1.68-14.04-12.24-25.33-25.15-26.77c-9.89-1.12-19.4,3.39-25.32,11.69c-6.41-7.94-16.18-11.85-25.99-10.13
			c-12.77,2.25-22.65,14.13-23.47,28.26c-0.45,7.77,1.7,15.26,6.11,21.29c-2.9,5.83-3.92,12.61-2.87,19.26
			c1.78,11.21,9.24,20.19,18.94,23.46c1.73,0.56,3.53,0.97,5.38,1.17c9.36,0.99,18.41-3.29,24.09-11.12
			c6.15,7.46,15.43,11.18,24.73,9.63C267.85,475.31,277.22,464.6,278.51,451.31z M254.09,467.5c-6.74,1.14-13.29-2.15-17.1-8.59
			c-1.35-2.27-3.78-3.63-6.36-3.56c-2.57,0.08-4.91,1.6-6.12,3.94c-3.42,6.65-9.75,10.35-16.54,9.63
			c-7.64-0.81-14.14-7.65-15.5-16.25c-0.79-4.99,0.09-10.05,2.48-14.24c1.51-2.67,1.23-6.07-0.71-8.45
			c-3.5-4.29-5.25-9.87-4.91-15.72c0.55-9.56,6.96-17.54,15.24-19c2.79-0.49,5.54-0.27,8.11,0.6c4.07,1.36,7.66,4.32,10.14,8.57
			c1.33,2.29,3.79,3.67,6.35,3.59c2.6-0.08,4.94-1.58,6.15-3.97c3.62-7.16,10.38-11.09,17.67-10.26
			c8.35,0.98,15.23,8.53,16.36,18.03l0,0c0.7,5.81-0.7,11.5-3.94,16c-1.8,2.49-1.87,5.89-0.19,8.47c2.63,4.04,3.81,9.04,3.33,14.08
			C267.72,459.02,261.64,466.23,254.09,467.5z"/>
	</g>
	<g style="clip-path:url(#SVGID_2_);">
		<path class="st264" d="M399.18,608.49c-14.71-12.28-42.25-2.04-42.25-2.04s-28.01,8.85-32.08,27.58
			c-4.24,19.42,2.69,34.64,15.5,37.01c1.93,0.35,3.27-1.86,2.01-3.39c-2.02-2.47-3.56-6.01-1.06-10.05
			c4.8-7.67,13.77-12.6,19.5-2.05c5.71,10.58,8.64,42.76,8.64,42.76s-1.31,16.82,22.06,8.8c23.36-8.02,12-20.48,12-20.48
			s-17.47-27.2-19.44-39.05c-1.98-11.85,8.14-13.46,16.64-10.35c4.45,1.63,5.42,5.38,5.33,8.57c-0.06,1.98,2.37,2.92,3.66,1.44
			C418.33,637.48,414.46,621.22,399.18,608.49z"/>
		<path class="st264" d="M363.35,259.42c0.64-19.14-24.34-34.59-24.34-34.59s-24.18-16.67-41.46-8.41
			c-17.94,8.59-25.67,23.39-19.7,34.97c0.9,1.75,3.48,1.43,3.9-0.49c0.7-3.12,2.57-6.51,7.28-7c9.01-0.94,18.42,3.12,13.59,14.12
			c-4.84,11.01-28.45,33.08-28.45,33.08s-14.07,9.29,6.6,22.81c20.68,13.51,23.55-3.11,23.55-3.11s10.73-30.48,18.88-39.33
			c8.14-8.84,15.63-1.85,18.39,6.78c1.45,4.52-0.92,7.59-3.49,9.47c-1.59,1.17-0.84,3.66,1.12,3.78
			C352.24,292.34,362.69,279.29,363.35,259.42z"/>
	</g>
	<g style="clip-path:url(#SVGID_2_);">
		<g>
			<path class="st298" d="M314.95,723.86l-134.96,30c-2.07,0.46-3.41,2.58-2.85,4.62c10.48,38.04,48.41,61.71,86.52,53.24
				c38.11-8.45,62.44-45.98,55.82-84.87C319.13,724.76,317.01,723.4,314.95,723.86z"/>
			<path class="st263" d="M301.56,745.53c-1.93-1.38-4.47-1.59-6.59-0.48c-28.13,14.41-58.22,20.69-87.88,19.58
				c-2.37-0.1-4.59,1.16-5.76,3.23c-1.16,2.07-1.06,4.61,0.25,6.58c12.75,19.14,35.98,29.53,59.21,24.36
				c23.25-5.15,39.89-24.45,43.32-47.18C304.47,749.25,303.48,746.91,301.56,745.53z"/>
			<g>
				<path class="st298" d="M272.32,773.3c-2.26-2.94-4.91-5.56-7.89-7.76v0.01c0.23,3.68,0.98,7.31,2.19,10.82l0.07,0.21
					c0.33,0.95,1.07,1.7,2,2.08c0.94,0.35,1.99,0.29,2.87-0.19c0.84-0.46,1.43-1.25,1.63-2.19c0.2-0.91-0.02-1.88-0.6-2.64
					L272.32,773.3z"/>
				<path class="st298" d="M283.68,766.3c-2.8-2.43-5.91-4.47-9.27-6.05l0.01,0.01c0.96,3.57,2.39,6.99,4.26,10.16l0.12,0.21
					c0.51,0.85,1.38,1.47,2.38,1.63c0.98,0.17,2-0.1,2.78-0.74c0.73-0.59,1.15-1.5,1.16-2.44c0.01-0.95-0.4-1.87-1.11-2.49
					L283.68,766.3z"/>
				<path class="st298" d="M292.46,759.12c-2.61-1.83-5.45-3.27-8.44-4.32l0.01,0.02c1.17,2.9,2.73,5.7,4.65,8.21l0.11,0.15
					c0.53,0.69,1.31,1.1,2.17,1.18c0.86,0.06,1.68-0.25,2.27-0.85c0.54-0.6,0.82-1.4,0.73-2.19c-0.09-0.8-0.53-1.53-1.2-2
					L292.46,759.12z"/>
				<path class="st298" d="M239.56,780.58c0.81-3.6,2.1-7.1,3.86-10.36l0.01,0.01c1.35,3.43,2.23,7.03,2.6,10.73l0.02,0.21
					c0.1,1.01-0.24,2-0.94,2.74c-0.69,0.71-1.68,1.1-2.68,1.05c-0.95-0.08-1.81-0.53-2.39-1.29c-0.58-0.76-0.77-1.73-0.58-2.65
					L239.56,780.58z"/>
				<path class="st298" d="M226.31,779.07c1.5-3.42,3.45-6.57,5.83-9.45v0.03c0.65,3.65,0.8,7.35,0.44,11.04l-0.02,0.23
					c-0.1,1-0.63,1.91-1.46,2.48c-0.83,0.58-1.87,0.76-2.83,0.51c-0.92-0.25-1.68-0.88-2.09-1.73c-0.42-0.85-0.43-1.85-0.05-2.72
					L226.31,779.07z"/>
				<path class="st298" d="M215.31,776.27c1.6-2.76,3.55-5.26,5.81-7.49l0.01,0.01c0.18,3.15-0.07,6.31-0.73,9.4l-0.04,0.2
					c-0.18,0.84-0.71,1.57-1.46,1.99c-0.74,0.43-1.64,0.48-2.43,0.16c-0.75-0.27-1.32-0.88-1.58-1.66c-0.26-0.75-0.17-1.6,0.23-2.29
					L215.31,776.27z"/>
				<path class="st298" d="M259.56,778.36c-1.37-3.44-3.21-6.7-5.46-9.61h-0.01c-0.79,3.62-1.08,7.31-0.86,11.01l0.01,0.23
					c0.06,1,0.56,1.93,1.36,2.52c0.8,0.63,1.83,0.85,2.81,0.63c0.93-0.2,1.72-0.81,2.16-1.64c0.44-0.84,0.49-1.83,0.14-2.7
					L259.56,778.36z"/>
			</g>
		</g>
		<g>
			<path class="st298" d="M518.17,575.39l-91.31-103.82c-1.4-1.59-3.9-1.75-5.42-0.27c-28.29,27.5-30.76,72.15-4.97,101.46
				c25.76,29.32,70.37,32.57,101.26,8.03C519.39,579.49,519.57,576.97,518.17,575.39z"/>
			<path class="st263" d="M492.73,574.09c0.28-2.36-0.76-4.69-2.76-6c-26.18-17.71-46.18-41.05-59.49-67.58
				c-1.05-2.13-3.23-3.46-5.6-3.49c-2.37-0.02-4.55,1.29-5.65,3.39c-10.63,20.39-8.55,45.75,7.18,63.62
				c15.71,17.9,40.64,23.18,62.21,15.23C490.88,578.44,492.45,576.44,492.73,574.09z"/>
			<g>
				<path class="st298" d="M454.31,561.85c1.49-3.4,2.5-6.98,3-10.65l-0.01,0.01c-3.11,1.98-5.94,4.38-8.42,7.13l-0.15,0.17
					c-0.67,0.75-0.98,1.76-0.86,2.76c0.15,0.99,0.71,1.88,1.55,2.43c0.81,0.52,1.79,0.65,2.7,0.37c0.89-0.27,1.64-0.92,2.03-1.8
					L454.31,561.85z"/>
				<path class="st298" d="M465.92,568.42c0.78-3.62,1.07-7.34,0.83-11.03l0,0.02c-2.67,2.56-4.97,5.46-6.85,8.63l-0.13,0.21
					c-0.5,0.86-0.62,1.92-0.28,2.87c0.32,0.94,1.05,1.71,1.99,2.08c0.87,0.35,1.87,0.29,2.7-0.16c0.84-0.45,1.44-1.25,1.65-2.17
					L465.92,568.42z"/>
				<path class="st298" d="M476.44,572.67c0.34-3.17,0.24-6.35-0.28-9.48l-0.02,0.02c-1.98,2.42-3.68,5.14-4.96,8.03l-0.08,0.17
					c-0.35,0.79-0.33,1.68,0.02,2.47c0.36,0.78,1.03,1.35,1.84,1.58c0.79,0.19,1.62,0.04,2.27-0.41c0.66-0.47,1.09-1.2,1.18-2.01
					L476.44,572.67z"/>
				<path class="st298" d="M432.15,536.64c3.55-1.03,7.23-1.58,10.94-1.61l-0.01,0.01c-2.35,2.84-5.09,5.34-8.15,7.44l-0.18,0.12
					c-0.84,0.58-1.87,0.76-2.86,0.5c-0.96-0.27-1.77-0.94-2.21-1.85c-0.39-0.87-0.41-1.84-0.02-2.72c0.39-0.87,1.14-1.51,2.05-1.78
					L432.15,536.64z"/>
				<path class="st298" d="M427.09,524.31c3.72-0.33,7.42-0.14,11.09,0.55l-0.02,0.01c-2.89,2.33-6.05,4.24-9.46,5.71l-0.21,0.09
					c-0.93,0.39-1.98,0.37-2.87-0.08c-0.9-0.45-1.57-1.27-1.82-2.24c-0.22-0.93-0.04-1.89,0.51-2.66c0.54-0.78,1.41-1.27,2.36-1.35
					L427.09,524.31z"/>
				<path class="st298" d="M424.24,513.32c3.18,0.07,6.32,0.58,9.36,1.49l-0.01,0.01c-2.68,1.68-5.56,2.98-8.59,3.89l-0.19,0.06
					c-0.82,0.25-1.71,0.13-2.45-0.32c-0.73-0.45-1.21-1.21-1.31-2.05c-0.12-0.79,0.13-1.58,0.7-2.19c0.53-0.59,1.32-0.92,2.12-0.9
					L424.24,513.32z"/>
				<path class="st298" d="M443.73,553.1c2.36-2.85,4.32-6.04,5.79-9.41l0-0.01c-3.55,1.05-6.93,2.58-10.07,4.55l-0.19,0.12
					c-0.85,0.54-1.42,1.42-1.55,2.41c-0.17,1,0.14,2.02,0.81,2.76c0.62,0.72,1.54,1.11,2.48,1.11c0.95-0.01,1.84-0.45,2.44-1.18
					L443.73,553.1z"/>
			</g>
		</g>
		<g>
			<path class="st298" d="M635.33,894.94l-134.96,30c-2.07,0.46-3.41,2.58-2.85,4.62c10.48,38.04,48.41,61.71,86.52,53.24
				c38.11-8.45,62.44-45.98,55.82-84.87C639.51,895.85,637.39,894.48,635.33,894.94z"/>
			<path class="st263" d="M621.94,916.61c-1.93-1.38-4.47-1.59-6.59-0.48c-28.13,14.41-58.22,20.69-87.88,19.58
				c-2.37-0.1-4.59,1.16-5.76,3.23c-1.16,2.07-1.06,4.61,0.25,6.58c12.75,19.14,35.98,29.53,59.21,24.36
				c23.25-5.15,39.89-24.45,43.32-47.18C624.86,920.33,623.86,917.99,621.94,916.61z"/>
			<g>
				<path class="st298" d="M592.71,944.39c-2.26-2.94-4.91-5.56-7.89-7.76v0.01c0.23,3.68,0.98,7.31,2.19,10.82l0.07,0.21
					c0.33,0.95,1.07,1.7,2,2.08c0.94,0.35,1.99,0.29,2.87-0.19c0.84-0.46,1.43-1.25,1.63-2.19c0.2-0.91-0.02-1.88-0.6-2.64
					L592.71,944.39z"/>
				<path class="st298" d="M559.94,951.66c0.81-3.6,2.1-7.1,3.86-10.36l0.01,0.01c1.35,3.43,2.23,7.03,2.6,10.73l0.02,0.21
					c0.1,1.01-0.24,2-0.94,2.74c-0.69,0.71-1.68,1.1-2.68,1.05c-0.95-0.08-1.82-0.53-2.39-1.29c-0.58-0.76-0.77-1.73-0.58-2.65
					L559.94,951.66z"/>
				<path class="st298" d="M546.69,950.16c1.5-3.42,3.46-6.57,5.83-9.45v0.03c0.65,3.65,0.8,7.35,0.44,11.04l-0.02,0.23
					c-0.1,1-0.63,1.91-1.46,2.48c-0.83,0.58-1.87,0.76-2.83,0.51c-0.92-0.25-1.68-0.88-2.09-1.73c-0.42-0.85-0.43-1.85-0.05-2.72
					L546.69,950.16z"/>
				<path class="st298" d="M535.69,947.36c1.6-2.76,3.55-5.26,5.81-7.49l0.01,0.01c0.18,3.15-0.07,6.31-0.73,9.4l-0.04,0.2
					c-0.18,0.84-0.71,1.57-1.46,1.99c-0.74,0.43-1.64,0.48-2.43,0.16c-0.75-0.27-1.32-0.88-1.58-1.66c-0.26-0.75-0.17-1.6,0.23-2.29
					L535.69,947.36z"/>
				<path class="st298" d="M579.94,949.44c-1.37-3.44-3.21-6.7-5.46-9.61h-0.01c-0.79,3.62-1.08,7.31-0.86,11.01l0.01,0.23
					c0.06,1,0.56,1.93,1.36,2.52c0.8,0.63,1.83,0.85,2.81,0.63c0.93-0.2,1.72-0.81,2.16-1.64c0.44-0.84,0.49-1.83,0.14-2.7
					L579.94,949.44z"/>
			</g>
		</g>
		<g>
			<path class="st298" d="M456.62,300.72l90.51,104.51c1.39,1.6,3.89,1.78,5.42,0.31c28.5-27.29,31.31-71.91,5.75-101.42
				c-25.54-29.52-70.12-33.11-101.2-8.81C455.43,296.61,455.24,299.13,456.62,300.72z"/>
			<path class="st263" d="M482.05,302.21c-0.29,2.36,0.73,4.69,2.71,6.03c26.04,17.91,45.86,41.4,58.97,68.03
				c1.04,2.13,3.21,3.49,5.58,3.53c2.37,0.04,4.56-1.25,5.68-3.35c10.79-20.31,8.9-45.68-6.69-63.68
				c-15.57-18.02-40.46-23.49-62.09-15.71C483.94,297.88,482.35,299.87,482.05,302.21z"/>
			<g>
				<path class="st298" d="M520.38,314.75c-1.51,3.39-2.56,6.96-3.08,10.63l0.01-0.01c3.13-1.95,5.97-4.33,8.48-7.07l0.15-0.17
					c0.68-0.74,0.99-1.75,0.88-2.75c-0.14-0.99-0.69-1.89-1.53-2.44c-0.81-0.52-1.78-0.67-2.7-0.39c-0.9,0.26-1.64,0.91-2.04,1.78
					L520.38,314.75z"/>
				<path class="st298" d="M508.82,308.08c-0.81,3.61-1.12,7.33-0.92,11.03l0-0.02c2.69-2.54,5.01-5.42,6.92-8.58l0.13-0.2
					c0.5-0.86,0.63-1.91,0.3-2.87c-0.31-0.95-1.04-1.71-1.97-2.09c-0.86-0.36-1.87-0.3-2.7,0.13c-0.84,0.44-1.45,1.24-1.67,2.16
					L508.82,308.08z"/>
				<path class="st298" d="M498.33,303.76c-0.37,3.16-0.29,6.35,0.21,9.48l0.02-0.02c2-2.41,3.72-5.11,5.02-7.99l0.08-0.17
					c0.35-0.79,0.34-1.68,0-2.47c-0.35-0.78-1.02-1.36-1.83-1.6c-0.79-0.19-1.62-0.06-2.28,0.4c-0.66,0.46-1.09,1.19-1.19,2
					L498.33,303.76z"/>
				<path class="st298" d="M542.34,340.12c-3.56,1-7.24,1.53-10.95,1.52l0.01-0.01c2.38-2.82,5.13-5.3,8.21-7.38l0.18-0.12
					c0.84-0.57,1.88-0.74,2.86-0.48c0.96,0.27,1.77,0.95,2.2,1.86c0.38,0.87,0.4,1.85,0,2.72c-0.4,0.87-1.15,1.5-2.06,1.77
					L542.34,340.12z"/>
				<path class="st298" d="M547.31,352.5c-3.72,0.3-7.42,0.08-11.08-0.64l0.02-0.01c2.91-2.3,6.08-4.2,9.5-5.64l0.21-0.09
					c0.93-0.39,1.99-0.35,2.87,0.11c0.9,0.45,1.56,1.28,1.8,2.25c0.22,0.93,0.02,1.89-0.53,2.66c-0.55,0.77-1.42,1.26-2.37,1.33
					L547.31,352.5z"/>
				<path class="st298" d="M550.07,363.51c-3.18-0.1-6.31-0.63-9.35-1.56l0.01-0.01c2.69-1.66,5.58-2.94,8.62-3.82l0.19-0.06
					c0.82-0.24,1.71-0.12,2.45,0.34c0.73,0.45,1.2,1.22,1.3,2.06c0.11,0.79-0.14,1.58-0.71,2.18c-0.54,0.59-1.33,0.91-2.13,0.88
					L550.07,363.51z"/>
				<path class="st298" d="M530.89,323.58c-2.38,2.84-4.37,6.01-5.87,9.37l0,0.01c3.56-1.02,6.94-2.52,10.1-4.47l0.19-0.12
					c0.85-0.53,1.43-1.41,1.57-2.4c0.17-1-0.12-2.02-0.78-2.77c-0.62-0.73-1.53-1.12-2.47-1.13c-0.95,0.01-1.84,0.43-2.45,1.16
					L530.89,323.58z"/>
			</g>
		</g>
	</g>
	<g style="clip-path:url(#SVGID_2_);">
		<path class="st298" d="M475.33,765.69c0,0,2-1.69,3.07-3.42c6.11-10.03-0.58-20.99-10.07-24.7c-9.48-3.73-24.67-1.23-26.39,10.38
			c-0.42,2.8,2.04,5.02,2.04,5.02c-7.51,0.39-16.01,2.67-19.29,11.04c-4.29,10.94,0.69,23.41,10.18,27.12
			c2.59,1.03,3.18,0.06,5.83-0.26c-3.05,9.24-1.97,12.64-5.29,20.63c-0.21,0.54-0.19,1.13,0.06,1.64c0.26,0.51,0.72,0.89,1.27,1.04
			c3.56,0.94,10.15,2.5,10.51,1.41c3.24-10-3.59-12.52,0.79-22.09c1.71,2.07,5.58,4.18,8.16,5.21c9.48,3.72,18.36-2.51,22.65-13.44
			C482.02,777.11,480.25,771.11,475.33,765.69z"/>
		<path class="st298" d="M478.09,972.87c0,0-0.73-2.52-1.89-4.19c-6.7-9.64-19.43-7.91-26.67-0.73c-7.23,7.2-11.04,22.09-1.11,28.36
			c2.4,1.49,5.41,0.14,5.41,0.14c-2.67,7.01-3.99,15.71,2.36,22.09c8.26,8.33,21.69,8.79,28.91,1.62c1.97-1.97,1.36-2.88,2.11-5.44
			c7.24,6.51,10.77,6.9,16.75,13.16c0.4,0.41,0.95,0.61,1.53,0.59c0.57-0.01,1.1-0.29,1.45-0.73c2.29-2.89,6.38-8.29,5.52-9.06
			c-7.85-6.98-12.9-1.74-19.89-9.61c2.57-0.73,6.06-3.4,8.04-5.37c7.22-7.19,5.09-17.81-3.19-26.15
			C491.25,971.33,485.04,970.52,478.09,972.87z"/>
	</g>
</g>
</svg>
