<?xml version="1.0" encoding="utf-8"?>
<!-- Generator: Adobe Illustrator 24.2.3, SVG Export Plug-In . SVG Version: 6.00 Build 0)  -->
<svg version="1.1" id="Слой_1" xmlns="http://www.w3.org/2000/svg" xmlns:xlink="http://www.w3.org/1999/xlink" x="0px" y="0px"
	 viewBox="0 0 585 799" style="enable-background:new 0 0 585 799;" xml:space="preserve">
<style type="text/css">
	.st0{clip-path:url(#SVGID_2_);fill:#FDA157;}
	.st1{clip-path:url(#SVGID_2_);fill-rule:evenodd;clip-rule:evenodd;fill:#FF8429;}
	.st2{clip-path:url(#SVGID_2_);fill:#F35000;}
	.st3{clip-path:url(#SVGID_2_);fill:#F9B946;}
	.st4{fill:#FFFFFF;}
	.st5{fill:#FF6567;}
	.st6{fill:url(#SVGID_3_);}
	.st7{fill:#ADD8C3;}
	.st8{fill:none;stroke:#FFFFFF;stroke-miterlimit:10;}
	.st9{fill:#A2CBAB;}
	.st10{fill:#96CDA1;}
	.st11{opacity:0.76;}
	.st12{fill:#C4E9CD;}
	.st13{fill:url(#SVGID_4_);}
	.st14{fill:url(#SVGID_5_);}
	.st15{fill:#F6E6BE;}
	.st16{fill:url(#SVGID_6_);}
	.st17{fill:url(#SVGID_7_);}
	.st18{fill:url(#SVGID_8_);}
	.st19{fill:#E4EEC4;}
	.st20{fill:#EFFBD2;}
	.st21{fill:url(#SVGID_9_);}
	.st22{fill:url(#SVGID_10_);}
	.st23{fill:url(#SVGID_11_);}
	.st24{fill:url(#SVGID_12_);}
	.st25{fill:#FFE493;}
	.st26{clip-path:url(#SVGID_14_);fill:url(#SVGID_15_);}
	.st27{fill:#5B2A1E;}
	.st28{fill:#907673;}
	.st29{fill:url(#SVGID_16_);}
	.st30{fill:url(#SVGID_17_);}
	.st31{fill:url(#SVGID_18_);}
	.st32{fill:url(#SVGID_19_);}
	.st33{fill:#FE82C8;}
	.st34{opacity:0.62;clip-path:url(#SVGID_21_);fill:#FFFFFF;}
	.st35{opacity:0.75;clip-path:url(#SVGID_21_);fill:#FFFFFF;}
	.st36{opacity:0.41;clip-path:url(#SVGID_21_);fill:#FFFFFF;}
	.st37{clip-path:url(#SVGID_21_);fill:none;}
	.st38{clip-path:url(#SVGID_23_);}
	.st39{opacity:0.26;fill:#FFFFFF;}
	.st40{opacity:0.69;fill:#FFFFFF;}
	.st41{fill:none;}
	.st42{opacity:0.16;fill:#FFFFFF;}
	.st43{opacity:0.3;fill:#FFFFFF;}
	.st44{opacity:0.23;fill:#FFFFFF;}
	.st45{opacity:0.24;fill:#FFFFFF;}
	.st46{opacity:0.17;}
	.st47{opacity:0.05;fill:#E2E8E4;}
	.st48{clip-path:url(#SVGID_25_);}
	.st49{opacity:0.76;clip-path:url(#SVGID_25_);fill:#FFFFFF;}
	.st50{clip-path:url(#SVGID_25_);fill:url(#SVGID_26_);}
	.st51{clip-path:url(#SVGID_25_);fill:none;stroke:#FFFFFF;stroke-width:2;stroke-linecap:round;stroke-miterlimit:10;}
	.st52{clip-path:url(#SVGID_25_);fill:url(#SVGID_27_);}
	.st53{clip-path:url(#SVGID_25_);fill:url(#SVGID_28_);}
	.st54{clip-path:url(#SVGID_25_);fill:url(#SVGID_29_);}
	.st55{clip-path:url(#SVGID_25_);fill:url(#SVGID_30_);}
	.st56{clip-path:url(#SVGID_25_);fill:#FFFFFF;}
	.st57{clip-path:url(#SVGID_25_);fill:url(#SVGID_31_);}
	.st58{opacity:0.62;clip-path:url(#SVGID_33_);fill:#FFFFFF;}
	.st59{clip-path:url(#SVGID_33_);fill:#FFFFFF;}
	.st60{opacity:0.41;clip-path:url(#SVGID_33_);fill:#FFFFFF;}
	.st61{clip-path:url(#SVGID_33_);fill:none;}
	.st62{clip-path:url(#SVGID_35_);}
	.st63{fill:url(#SVGID_36_);}
	.st64{opacity:0.74;clip-path:url(#SVGID_38_);fill:url(#SVGID_39_);}
	.st65{fill:#E5E5E5;}
	.st66{fill:none;stroke:#4D4D4D;stroke-width:0.75;stroke-linecap:round;stroke-miterlimit:10;}
	.st67{fill:url(#SVGID_40_);}
	.st68{opacity:0.74;fill:url(#SVGID_41_);}
	.st69{opacity:0.74;fill:url(#SVGID_42_);}
	.st70{opacity:0.74;fill:url(#SVGID_43_);}
	.st71{opacity:0.74;fill:url(#SVGID_44_);}
	.st72{fill:url(#SVGID_45_);}
	.st73{opacity:0.66;}
	.st74{opacity:0.37;fill:#FFFFFF;}
	.st75{fill:url(#SVGID_46_);}
	.st76{fill:url(#SVGID_47_);}
	.st77{opacity:0.44;clip-path:url(#SVGID_49_);fill:#FFFFD9;}
	.st78{opacity:0.43;clip-path:url(#SVGID_51_);fill:#FFFFFF;}
	.st79{clip-path:url(#SVGID_51_);fill:none;stroke:#FFFFFF;stroke-miterlimit:10;}
	.st80{opacity:0.76;clip-path:url(#SVGID_51_);fill:#FFFFFF;}
	.st81{clip-path:url(#SVGID_51_);fill:#FFFFFF;}
	.st82{opacity:0.08;clip-path:url(#SVGID_51_);fill:#FFFFFF;}
	.st83{opacity:0.27;clip-path:url(#SVGID_51_);fill:#FFFFFF;}
	.st84{opacity:0.37;clip-path:url(#SVGID_51_);fill:#FFFFFF;}
	.st85{clip-path:url(#SVGID_51_);fill:none;}
	.st86{fill:url(#SVGID_52_);}
	.st87{opacity:0.62;clip-path:url(#SVGID_54_);fill:#FFFFFF;}
	.st88{clip-path:url(#SVGID_54_);fill:#FFFFFF;}
	.st89{opacity:0.41;clip-path:url(#SVGID_54_);fill:#FFFFFF;}
	.st90{clip-path:url(#SVGID_54_);fill:none;}
	.st91{clip-path:url(#SVGID_56_);}
	.st92{opacity:0.55;fill:url(#SVGID_57_);}
	.st93{fill:url(#SVGID_58_);}
	.st94{fill:url(#SVGID_59_);}
	.st95{opacity:0.28;}
	.st96{opacity:0.56;clip-path:url(#SVGID_61_);fill:#FFFFFF;}
	.st97{opacity:0.43;clip-path:url(#SVGID_63_);fill:#FFFFFF;}
	.st98{clip-path:url(#SVGID_63_);fill:none;stroke:#FFFFFF;stroke-miterlimit:10;}
	.st99{opacity:0.76;clip-path:url(#SVGID_63_);fill:#FFFFFF;}
	.st100{clip-path:url(#SVGID_63_);fill:#FFFFFF;}
	.st101{opacity:0.08;clip-path:url(#SVGID_63_);fill:#FFFFFF;}
	.st102{opacity:0.27;clip-path:url(#SVGID_63_);fill:#FFFFFF;}
	.st103{opacity:0.37;clip-path:url(#SVGID_63_);fill:#FFFFFF;}
	.st104{clip-path:url(#SVGID_63_);fill:none;}
	.st105{clip-path:url(#SVGID_65_);fill:none;}
	.st106{opacity:0.46;}
	.st107{opacity:0.86;fill:#FFFFFF;}
	.st108{opacity:0.4;}
	.st109{opacity:0.73;fill:#FFFFFF;}
	.st110{opacity:0.54;clip-path:url(#SVGID_67_);fill:#FFFFFF;}
	.st111{fill:#FF8A8A;}
	.st112{opacity:0.75;fill:#FFFFFF;}
	.st113{fill:#FFC181;}
	.st114{clip-path:url(#SVGID_69_);fill:#FFDFBD;}
	.st115{clip-path:url(#SVGID_69_);fill:#FF9D00;}
	.st116{clip-path:url(#SVGID_69_);fill:#FFF3DF;}
	.st117{clip-path:url(#SVGID_71_);fill:#FFBAE4;}
	.st118{opacity:0.8;clip-path:url(#SVGID_71_);fill:#FE82C8;}
	.st119{clip-path:url(#SVGID_71_);fill:#FE82C8;}
	.st120{opacity:0.79;clip-path:url(#SVGID_71_);fill:#FFBAE4;}
	.st121{fill:#FFFEEA;}
	.st122{fill:#58D196;}
	.st123{fill:#A6E5C3;}
	.st124{fill:#D2F2E1;}
	.st125{opacity:0.44;fill:#FFFFFF;}
	.st126{clip-path:url(#SVGID_73_);fill:#FFF9C1;}
	.st127{opacity:0.86;fill:#FFCCD5;}
	.st128{opacity:0.62;clip-path:url(#SVGID_75_);fill:#FFFFFF;}
	.st129{opacity:0.75;clip-path:url(#SVGID_75_);fill:#FFFFFF;}
	.st130{opacity:0.41;clip-path:url(#SVGID_75_);fill:#FFFFFF;}
	.st131{clip-path:url(#SVGID_75_);fill:none;}
	.st132{clip-path:url(#SVGID_77_);}
	.st133{opacity:0.44;clip-path:url(#SVGID_79_);fill:#FFFFFF;}
	.st134{opacity:0.43;clip-path:url(#SVGID_81_);fill:#FFFFFF;}
	.st135{clip-path:url(#SVGID_81_);fill:none;stroke:#FFFFFF;stroke-miterlimit:10;}
	.st136{opacity:0.76;clip-path:url(#SVGID_81_);fill:#FFFFFF;}
	.st137{clip-path:url(#SVGID_81_);fill:#FFFFFF;}
	.st138{opacity:0.08;clip-path:url(#SVGID_81_);fill:#FFFFFF;}
	.st139{opacity:0.27;clip-path:url(#SVGID_81_);fill:#FFFFFF;}
	.st140{opacity:0.37;clip-path:url(#SVGID_81_);fill:#FFFFFF;}
	.st141{clip-path:url(#SVGID_81_);fill:none;}
	.st142{opacity:0.54;clip-path:url(#SVGID_83_);fill:#FFFFFF;}
	.st143{opacity:0.62;fill:#FFFFFF;}
	.st144{opacity:0.41;fill:#FFFFFF;}
	.st145{opacity:0.43;fill:#FFFFFF;}
	.st146{opacity:0.76;fill:#FFFFFF;}
	.st147{opacity:0.08;fill:#FFFFFF;}
	.st148{opacity:0.27;fill:#FFFFFF;}
	.st149{opacity:0.54;fill:#FFFFFF;}
	.st150{clip-path:url(#SVGID_85_);fill:#FF6567;}
	.st151{clip-path:url(#SVGID_85_);fill:#FF8A8A;}
	.st152{clip-path:url(#SVGID_85_);fill:#FFC2C1;}
	.st153{clip-path:url(#SVGID_85_);fill:#FFFFFF;}
	.st154{clip-path:url(#SVGID_87_);fill:#E2E9FF;}
	.st155{clip-path:url(#SVGID_87_);fill:#EEF2FF;}
	.st156{opacity:0.54;clip-path:url(#SVGID_87_);fill:#EEF2FF;}
	.st157{opacity:0.54;clip-path:url(#SVGID_87_);fill:#8FAAF0;}
	.st158{clip-path:url(#SVGID_89_);}
	.st159{fill:#FF6B81;}
	.st160{clip-path:url(#SVGID_89_);fill:none;}
	.st161{fill:#FF1B6F;}
	.st162{clip-path:url(#SVGID_91_);fill:#FFDFBD;}
	.st163{clip-path:url(#SVGID_91_);fill:#FF9D00;}
	.st164{clip-path:url(#SVGID_91_);fill:#FFF3DF;}
	.st165{clip-path:url(#SVGID_93_);fill:#F0C6F4;}
	.st166{opacity:0.8;clip-path:url(#SVGID_93_);fill:#F8E3F8;}
	.st167{clip-path:url(#SVGID_93_);fill:#F8E3F8;}
	.st168{opacity:0.79;clip-path:url(#SVGID_93_);fill:#F0C6F4;}
	.st169{clip-path:url(#SVGID_95_);fill:#FFF9C1;}
	.st170{clip-path:url(#SVGID_97_);fill:#FFC5D6;}
	.st171{clip-path:url(#SVGID_97_);fill:#FF94B3;}
	.st172{clip-path:url(#SVGID_97_);fill:#FF6794;}
	.st173{clip-path:url(#SVGID_97_);fill:#FFFFFF;}
	.st174{clip-path:url(#SVGID_99_);fill:#698DE6;}
	.st175{clip-path:url(#SVGID_99_);fill:#8FAAF0;}
	.st176{opacity:0.54;clip-path:url(#SVGID_99_);fill:#8FAAF0;}
	.st177{clip-path:url(#SVGID_101_);}
	.st178{clip-path:url(#SVGID_101_);fill:none;}
	.st179{opacity:0.46;clip-path:url(#SVGID_103_);}
	.st180{clip-path:url(#SVGID_103_);fill:none;}
	.st181{fill:none;stroke:#FFFFFF;stroke-width:2;stroke-miterlimit:10;}
	.st182{opacity:0.45;fill:#FFFFFF;}
	.st183{opacity:0.8;fill:#FFFFFF;}
	.st184{opacity:0.79;fill:#FFFFFF;}
	.st185{fill:#F2C5AA;}
	.st186{fill:none;stroke:#FFFFFF;stroke-width:0.75;stroke-miterlimit:10;}
	.st187{fill:#FFFFFF;stroke:#FFFFFF;stroke-width:0.25;stroke-miterlimit:10;}
	.st188{fill:#D3C1B2;}
	.st189{fill:#FFC5D6;}
	.st190{clip-path:url(#SVGID_111_);fill:#F787A5;}
	.st191{clip-path:url(#SVGID_111_);fill:#FFE9F2;}
	.st192{clip-path:url(#SVGID_111_);fill:#D3CFB3;}
	.st193{clip-path:url(#SVGID_111_);fill:#FFDBE5;}
	.st194{clip-path:url(#SVGID_111_);}
	.st195{fill:#FFE9F2;}
	.st196{fill:#F787A5;}
	.st197{fill:#F2CCC1;}
	.st198{fill:#DF4E50;}
	.st199{clip-path:url(#SVGID_111_);fill:#FFC5D6;}
	.st200{fill:#FFDBE5;}
	.st201{fill:#FFB9C3;}
	.st202{fill:#FB91B5;}
	.st203{fill:#E3A180;}
	.st204{fill:#92693D;}
	.st205{fill:#FBBACC;}
	.st206{fill:#E6678D;}
	.st207{fill:#574435;}
	.st208{fill:#C9A47C;}
	.st209{fill:#641F1E;}
	.st210{fill:#F15E89;}
	.st211{fill:#E7005E;}
	.st212{fill:#DEB78A;}
	.st213{fill:#DFB78A;}
	.st214{fill:#FF6794;}
	.st215{fill:#D72264;}
	.st216{fill:#F7F7F7;}
	.st217{fill:#F2F2F2;}
	.st218{fill:#FFFBF0;}
	.st219{fill:#FFBFCF;}
	.st220{fill:#FF9DAE;}
	.st221{fill:#FFC2C1;}
	.st222{fill:#FFCCD5;}
	.st223{fill:#B49E8F;}
	.st224{fill:#FFE2EA;}
	.st225{fill:#A3C5DC;}
	.st226{fill:#DA956B;}
	.st227{fill:#BDA595;}
	.st228{fill:#583B34;}
	.st229{fill:#63443C;}
	.st230{fill:#B2D0E5;}
	.st231{fill:#FCFCFB;}
	.st232{fill:#D0ACA1;}
	.st233{fill:#A2C4DB;}
	.st234{fill:#E1D0C8;}
	.st235{fill:#9C7972;}
	.st236{fill:#77573F;}
	.st237{fill:#F3769C;}
	.st238{fill:#FBFBF9;}
	.st239{fill:#F8C4DC;}
	.st240{fill:#E4BAB5;}
	.st241{clip-path:url(#SVGID_113_);fill:#F787A5;}
	.st242{clip-path:url(#SVGID_113_);fill:#FFE9F2;}
	.st243{clip-path:url(#SVGID_113_);fill:#D3CFB3;}
	.st244{clip-path:url(#SVGID_113_);fill:#FFDBE5;}
	.st245{clip-path:url(#SVGID_113_);}
	.st246{clip-path:url(#SVGID_113_);fill:#FFC5D6;}
	.st247{fill:#00C377;}
	.st248{fill:#88E5AF;}
	.st249{fill:#00B45A;}
	.st250{fill:#7FDAAA;}
	.st251{fill:#F2BC3A;}
	.st252{fill:#B99F65;}
	.st253{fill:#98D284;}
	.st254{fill:#3C3724;}
	.st255{fill:#D6BEA2;}
	.st256{fill:#9C8274;}
	.st257{fill:#587147;}
	.st258{fill:#E7D6BE;}
	.st259{fill:#5CC689;}
	.st260{clip-path:url(#SVGID_115_);fill:#A6E5C3;}
	.st261{clip-path:url(#SVGID_115_);fill:#FFFFFF;}
	.st262{clip-path:url(#SVGID_115_);fill:#58D196;}
	.st263{fill:#F35000;}
	.st264{fill:#FF8429;}
	.st265{fill:#FFAC33;}
	.st266{fill:#F58800;}
	.st267{fill:#EF6406;}
	.st268{fill:#FF9C00;}
	.st269{fill:#130077;}
	.st270{fill:#FFB58D;}
	.st271{opacity:0.3;}
	.st272{fill:#FF7300;}
	.st273{fill:#6E0000;}
	.st274{fill-rule:evenodd;clip-rule:evenodd;fill:#FF9C00;}
	.st275{fill-rule:evenodd;clip-rule:evenodd;fill:url(#SVGID_116_);}
	.st276{opacity:0.3;fill-rule:evenodd;clip-rule:evenodd;fill:#A4002C;}
	.st277{fill-rule:evenodd;clip-rule:evenodd;fill:url(#SVGID_117_);}
	.st278{fill-rule:evenodd;clip-rule:evenodd;fill:url(#SVGID_118_);}
	.st279{opacity:0.5;fill-rule:evenodd;clip-rule:evenodd;fill:url(#SVGID_119_);}
	.st280{fill-rule:evenodd;clip-rule:evenodd;fill:#FFC485;}
	.st281{fill-rule:evenodd;clip-rule:evenodd;fill:url(#SVGID_120_);}
	.st282{fill-rule:evenodd;clip-rule:evenodd;fill:url(#SVGID_121_);}
	.st283{fill-rule:evenodd;clip-rule:evenodd;fill:url(#SVGID_122_);}
	.st284{opacity:0.5;fill-rule:evenodd;clip-rule:evenodd;fill:url(#SVGID_123_);}
	.st285{fill-rule:evenodd;clip-rule:evenodd;fill:#FDA157;}
	.st286{opacity:0.5;fill-rule:evenodd;clip-rule:evenodd;fill:#FDA157;}
	.st287{fill-rule:evenodd;clip-rule:evenodd;fill:#FF8429;}
	.st288{fill-rule:evenodd;clip-rule:evenodd;fill:#FFAC33;}
	.st289{opacity:0.62;fill-rule:evenodd;clip-rule:evenodd;fill:#C8002A;}
	.st290{opacity:0.5;fill-rule:evenodd;clip-rule:evenodd;fill:#FF8429;}
	.st291{opacity:0.5;fill-rule:evenodd;clip-rule:evenodd;fill:#8F5472;}
	.st292{opacity:0.3;fill-rule:evenodd;clip-rule:evenodd;fill:url(#SVGID_124_);}
	.st293{opacity:0.5;fill-rule:evenodd;clip-rule:evenodd;fill:url(#SVGID_125_);}
	.st294{opacity:0.3;fill-rule:evenodd;clip-rule:evenodd;fill:url(#SVGID_126_);}
	.st295{opacity:0.3;fill-rule:evenodd;clip-rule:evenodd;fill:url(#SVGID_127_);}
	.st296{clip-path:url(#SVGID_129_);}
	.st297{clip-path:url(#SVGID_129_);fill:#FF8429;}
	.st298{fill:#FDA157;}
	.st299{clip-path:url(#SVGID_131_);}
	.st300{clip-path:url(#SVGID_133_);}
	.st301{fill:#F9B946;}
	.st302{clip-path:url(#SVGID_135_);}
	.st303{clip-path:url(#SVGID_135_);fill:#FF8429;}
	.st304{fill-rule:evenodd;clip-rule:evenodd;fill:url(#SVGID_136_);}
	.st305{fill-rule:evenodd;clip-rule:evenodd;fill:url(#SVGID_137_);}
	.st306{fill-rule:evenodd;clip-rule:evenodd;fill:url(#SVGID_138_);}
	.st307{opacity:0.5;fill-rule:evenodd;clip-rule:evenodd;fill:url(#SVGID_139_);}
	.st308{fill-rule:evenodd;clip-rule:evenodd;fill:url(#SVGID_140_);}
	.st309{fill-rule:evenodd;clip-rule:evenodd;fill:url(#SVGID_141_);}
	.st310{fill-rule:evenodd;clip-rule:evenodd;fill:url(#SVGID_142_);}
	.st311{opacity:0.5;fill-rule:evenodd;clip-rule:evenodd;fill:url(#SVGID_143_);}
	.st312{opacity:0.3;fill-rule:evenodd;clip-rule:evenodd;fill:url(#SVGID_144_);}
	.st313{opacity:0.5;fill-rule:evenodd;clip-rule:evenodd;fill:url(#SVGID_145_);}
	.st314{opacity:0.3;fill-rule:evenodd;clip-rule:evenodd;fill:url(#SVGID_146_);}
	.st315{opacity:0.3;fill-rule:evenodd;clip-rule:evenodd;fill:url(#SVGID_147_);}
</style>
<path class="st252" d="M230.86,724.74c0.02-0.02,0.04-0.04,0.06-0.06c0.01,0.02,0.01,0.04,0.02,0.06
	C230.92,724.74,230.89,724.74,230.86,724.74L230.86,724.74z"/>
<path class="st274" d="M211.65,402.99c-0.21-0.07-0.42-0.17-0.62-0.26c-66.03-30.21-35.69-176.06,26.35-259.01
	c0.03-0.01,0.04-0.03,0.04-0.05l0.01-0.02c32.89-43.94,74.68-70.2,115.77-52.16c36.14,15.88,42.71,64.53,31.43,119.1
	c0,0-0.01,0.02,0,0.05c-0.04,0.18-0.22,1.07-0.53,2.55C362.28,314.08,280.41,433.54,211.65,402.99z"/>
<linearGradient id="SVGID_2_" gradientUnits="userSpaceOnUse" x1="-1832.6864" y1="2421.8315" x2="-1832.6864" y2="2368.6196" gradientTransform="matrix(0.9103 0.414 -0.414 0.9103 2948.5181 -1188.0609)">
	<stop  offset="0.0223" style="stop-color:#FF8E21"/>
	<stop  offset="0.9541" style="stop-color:#FF7F31"/>
</linearGradient>
<path style="fill-rule:evenodd;clip-rule:evenodd;fill:url(#SVGID_2_);" d="M359.61,236.85c0,0-2.45,2.49-7.82,5.44l-0.02-0.01
	c-15.72,8.65-56.49,21.39-134.26-11.8c0,0,0.01-0.02,0.04-0.03c0.03-0.01,0.08-0.03,0.12-0.06
	C220.79,228.25,273.94,193.78,359.61,236.85z"/>
<path class="st276" d="M359.61,236.85c0,0-2.45,2.49-7.82,5.44l-0.02-0.01c-75.23-41.22-130.71-13.66-134.1-11.89
	C220.79,228.25,273.94,193.78,359.61,236.85z"/>
<linearGradient id="SVGID_3_" gradientUnits="userSpaceOnUse" x1="-1826.5076" y1="2514.1648" x2="-1826.5076" y2="2460.9543" gradientTransform="matrix(0.9103 0.414 -0.414 0.9103 2948.5181 -1188.0609)">
	<stop  offset="0.0223" style="stop-color:#FF8E21"/>
	<stop  offset="0.9541" style="stop-color:#FF7F31"/>
</linearGradient>
<path style="fill-rule:evenodd;clip-rule:evenodd;fill:url(#SVGID_3_);" d="M315.81,318.37c0,0-2.25,2.58-6.99,5.81l-0.02-0.01
	c-13.9,9.47-49.27,24.67-112.69-2c0,0,0.01-0.02,0.03-0.03c0.02-0.01,0.07-0.04,0.1-0.07C199.03,319.8,246.4,282.69,315.81,318.37z"
	/>
<path class="st276" d="M315.81,318.37c0,0-2.25,2.58-6.99,5.81l-0.02-0.01c-60.72-34.62-109.56-4.04-112.56-2.09
	C199.03,319.8,246.4,282.69,315.81,318.37z"/>
<linearGradient id="SVGID_4_" gradientUnits="userSpaceOnUse" x1="-2419.408" y1="3377.5073" x2="-2419.408" y2="3324.2969" gradientTransform="matrix(0.8256 0.5642 -0.5642 0.8256 4207.5679 -1250.9503)">
	<stop  offset="0.0223" style="stop-color:#FF8E21"/>
	<stop  offset="0.9541" style="stop-color:#FF7F31"/>
</linearGradient>
<path style="fill-rule:evenodd;clip-rule:evenodd;fill:url(#SVGID_4_);" d="M370.43,153.32c0,0-2.51,2.26-7.28,4.95l-0.01-0.01
	c-13.97,7.87-47.4,19.51-94.63-10.37c0,0,0.01-0.02,0.03-0.03c0.02-0.01,0.07-0.03,0.1-0.05
	C271.54,145.86,320.28,114.5,370.43,153.32z"/>
<path class="st276" d="M370.43,153.32c0,0-2.51,2.26-7.28,4.95l-0.01-0.01c-43.07-37.16-91.51-12.06-94.5-10.45
	C271.54,145.86,320.28,114.5,370.43,153.32z"/>
<linearGradient id="SVGID_5_" gradientUnits="userSpaceOnUse" x1="-1759.6444" y1="2547.6079" x2="-1891.0784" y2="2319.9578" gradientTransform="matrix(0.9103 0.414 -0.414 0.9103 2948.5181 -1188.0609)">
	<stop  offset="0" style="stop-color:#DF6374"/>
	<stop  offset="1" style="stop-color:#FFFFFF"/>
</linearGradient>
<path style="opacity:0.5;fill-rule:evenodd;clip-rule:evenodd;fill:url(#SVGID_5_);" d="M211.65,402.99
	c-0.21-0.07-0.42-0.17-0.62-0.26c-66.03-30.21-35.69-176.06,26.35-259.01c-2.24,4.08-92.81,168.66-8.85,206.84
	c85.01,38.66,156.11-139.97,156.11-139.97s-0.01,0.02,0,0.05c-0.04,0.18-0.22,1.07-0.53,2.55
	C362.28,314.08,280.41,433.54,211.65,402.99z"/>
<path class="st280" d="M303.6,275.97c0,0,7.66,4.46,6.65,11.74C310.25,287.71,302.82,282.02,303.6,275.97z"/>
<path class="st280" d="M225.66,358.81c0,0,7.66,4.46,6.65,11.74C232.31,370.56,224.88,364.86,225.66,358.81z"/>
<path class="st280" d="M295.6,269c0,0-1.81,9.42-9.6,11C286,280.01,289.14,270.38,295.6,269z"/>
<path class="st280" d="M220,303.48c0,0-4.27-8.58,0.96-14.57C220.96,288.91,224.3,298.47,220,303.48z"/>
<path class="st274" d="M366.12,524.22c0.1,0.05,0.22,0.07,0.33,0.09c36.12,6.45,99.22-211.43,120.82-367.27c0-0.03,0-0.06,0.01-0.1
	l0.01-0.03C498.72,74.35,498.5,9.22,476.4,4.18c-19.44-4.41-45.81,56.37-69.44,137.83c0,0-0.01,0.03-0.02,0.06
	c-0.08,0.27-0.46,1.59-1.1,3.82C362.46,297.18,328.96,516.3,366.12,524.22z"/>
<linearGradient id="SVGID_6_" gradientUnits="userSpaceOnUse" x1="8819.2598" y1="1146.9199" x2="8819.2598" y2="1065.4298" gradientTransform="matrix(-0.9795 -0.2013 -0.2013 0.9795 9287.2598 933.186)">
	<stop  offset="0.0223" style="stop-color:#FF8E21"/>
	<stop  offset="0.9541" style="stop-color:#FF7F31"/>
</linearGradient>
<path style="fill-rule:evenodd;clip-rule:evenodd;fill:url(#SVGID_6_);" d="M401.84,195.18c0,0-0.46,5.1-0.22,12.89l0.01,0
	c0.7,22.85,7.34,69.06,48.69,79.86c0,0,0.01-0.03,0-0.06c0-0.03-0.01-0.1-0.01-0.16C450.39,282.61,450.64,198.32,401.84,195.18z"/>
<linearGradient id="SVGID_7_" gradientUnits="userSpaceOnUse" x1="8823.2666" y1="1290.5659" x2="8823.2666" y2="1208.8568" gradientTransform="matrix(-0.9795 -0.2013 -0.2013 0.9795 9287.2598 933.186)">
	<stop  offset="0.0223" style="stop-color:#FF8E21"/>
	<stop  offset="0.9541" style="stop-color:#FF7F31"/>
</linearGradient>
<path style="fill-rule:evenodd;clip-rule:evenodd;fill:url(#SVGID_7_);" d="M375.13,336.09c0,0-0.57,5.07-0.67,12.81l0.01,0
	c-0.29,22.66,3.4,68.33,36.93,77.67c0,0,0.01-0.03,0-0.06c0-0.03-0.01-0.1,0-0.16C411.65,421.29,415.07,337.58,375.13,336.09z"/>
<path class="st276" d="M375.13,336.09c0,0-0.57,5.07-0.67,12.81l0.01,0c36.63-3.27,36.95,72.69,36.93,77.45
	C411.65,421.29,415.07,337.58,375.13,336.09z"/>
<linearGradient id="SVGID_8_" gradientUnits="userSpaceOnUse" x1="7845.3794" y1="234.7247" x2="7845.3794" y2="166.9352" gradientTransform="matrix(-0.9996 -0.03 -0.03 0.9996 8305.9404 141.5348)">
	<stop  offset="0.0223" style="stop-color:#FF8E21"/>
	<stop  offset="0.9541" style="stop-color:#FF7F31"/>
</linearGradient>
<path style="fill-rule:evenodd;clip-rule:evenodd;fill:url(#SVGID_8_);" d="M440.07,75.07c0,0-0.33,4.83-0.15,11.84l0.01,0
	c0.53,20.55,5.38,60.06,35.34,53.53c0,0,0-0.03,0-0.06c0-0.03-0.01-0.09-0.01-0.15C475.32,135.56,475.42,58.62,440.07,75.07z"/>
<linearGradient id="SVGID_9_" gradientUnits="userSpaceOnUse" x1="8915.7178" y1="1342.2096" x2="8737.5693" y2="1033.6471" gradientTransform="matrix(-0.9795 -0.2013 -0.2013 0.9795 9287.2598 933.186)">
	<stop  offset="0" style="stop-color:#DF6374"/>
	<stop  offset="1" style="stop-color:#FFFFFF"/>
</linearGradient>
<path style="opacity:0.5;fill-rule:evenodd;clip-rule:evenodd;fill:url(#SVGID_9_);" d="M366.12,524.22
	c0.1,0.05,0.22,0.07,0.33,0.09c36.12,6.45,99.22-211.43,120.82-367.27c-1.32,7.09-54.56,293.11-100.37,284.61
	c-46.39-8.61,20.06-299.64,20.06-299.64s-0.01,0.03-0.02,0.06c-0.08,0.27-0.46,1.59-1.1,3.82
	C362.46,297.18,328.96,516.3,366.12,524.22z"/>
<path class="st280" d="M400.18,287.75c0,0-4.67,0.55-7.98,11.06C392.2,298.81,397.41,296.45,400.18,287.75z"/>
<path class="st280" d="M383.7,454.8c0,0-4.67,0.55-7.98,11.06C375.72,465.86,380.93,463.49,383.7,454.8z"/>
<path class="st280" d="M406.21,284.09c0,0-4.12,13.96-2.43,21.65C403.78,305.74,407.58,290.54,406.21,284.09z"/>
<path class="st280" d="M413.11,384.38c0,0,5.65-8.5,6.97-20.29C420.07,364.09,414.24,374.57,413.11,384.38z"/>
<g>
	<path class="st285" d="M350.05,328.4c-19.01,23.86-51.12,29.9-71.69,13.51c-0.55-0.44-1.11-0.91-1.64-1.38
		c-0.12-0.12-0.25-0.22-0.37-0.34l-0.09-0.07c-18.54-16.9-19.09-48.08-0.73-71.11c19.01-23.86,51.11-29.91,71.69-13.51
		c20,15.94,21.76,47.26,4.34,70.91c0,0,0,0-0.01,0.01C351.07,327.09,350.56,327.76,350.05,328.4z"/>
	<path class="st285" d="M335.71,249.03c0,0,11.15-8.38,17.51-5.41c6.36,2.96,1.73,20.01,1.73,20.01L335.71,249.03z"/>
	<path class="st285" d="M271.37,334.81c0,0-2.79,11.63,0.24,15.55c3.04,3.93,15.23-3.22,15.23-3.22L271.37,334.81z"/>
	<path class="st286" d="M350.05,328.4c-19.01,23.86-51.12,29.9-71.69,13.51c-0.55-0.44-1.11-0.91-1.64-1.38
		c-0.12-0.12-0.25-0.22-0.37-0.34l-0.09-0.07c-18.54-16.9-19.09-48.08-0.73-71.11c0,0-25.33,31.78,11.93,61.48
		c34.31,27.34,61.24-1.62,64.09-4.06C351.07,327.09,350.56,327.76,350.05,328.4z"/>
	<path class="st286" d="M358.04,289.51c-0.72,2.94-2.89,4.94-4.84,4.47c-1.96-0.48-2.96-3.25-2.24-6.2
		c0.72-2.94,2.89-4.94,4.84-4.47C357.76,283.79,358.76,286.56,358.04,289.51z"/>
</g>
<path class="st287" d="M194.57,481.61c0,0,60.62-1.56,93.23-36.92L156.74,119.82c0,0-54.97-11.6-95.37,38.48L194.57,481.61z"/>
<path class="st288" d="M196.95,478.43c0,0,57.83-4.73,84.19-33.96L152.38,125.28c0,0-66.65-5.03-84.19,33.97L196.95,478.43z"/>
<path class="st289" d="M236.99,318.76l-93.91,37.88l51.48,124.96c0,0,54.21-3.5,93.23-36.92L236.99,318.76z"/>
<path class="st287" d="M61.36,158.3c0,0-49.34,228.64,133.21,323.31L61.36,158.3z"/>
<g>
	
		<ellipse transform="matrix(0.2282 -0.9736 0.9736 0.2282 -124.5231 400.0286)" class="st287" cx="190.04" cy="278.55" rx="50.57" ry="50.57"/>
	<path class="st287" d="M174.49,233.52c0,0,11.75,3.52,34.07,0C208.56,233.52,190.11,223.18,174.49,233.52z"/>
	<path class="st287" d="M195.11,212.02c0,0-4.31,5.08-5.06,19.99h2.95c0,0,4.05-11.53,9.52-17.52
		C202.51,214.49,198.45,210.43,195.11,212.02z"/>
	<path class="st290" d="M139.47,274.76c0,0-0.35,37.01,52.05,37.01c52.4,0,49.09-37.01,49.09-37.01s1.29,54.36-50.57,54.36
		C138.18,329.12,139.47,274.76,139.47,274.76z"/>
</g>
<polygon class="st274" points="465.5,798.28 584.09,798.28 549.53,265.76 508.89,277.05 479.99,272.06 465.5,554.15 "/>
<polygon class="st288" points="3.27,798.28 0,765.47 27.39,444.33 17.87,323.43 33.59,308.31 10.26,266.06 117.55,285.17 
	385.23,285.52 479.99,272.06 465.5,554.15 470.6,744.11 473.9,798.28 "/>
<polygon class="st291" points="428.88,344.33 430.7,420.01 434.32,660.94 396.88,697.82 345.76,739.12 396.88,634.23 418.48,375.86 
	429.59,313.13 "/>
<linearGradient id="SVGID_10_" gradientUnits="userSpaceOnUse" x1="99.5496" y1="783.8589" x2="99.5496" y2="323.4282">
	<stop  offset="0" style="stop-color:#FFFFFF"/>
	<stop  offset="1" style="stop-color:#952E7A"/>
</linearGradient>
<polygon style="opacity:0.3;fill-rule:evenodd;clip-rule:evenodd;fill:url(#SVGID_10_);" points="17.87,323.43 127.64,553.64 
	199.1,702.18 17.87,783.86 0,765.47 27.39,444.33 "/>
<linearGradient id="SVGID_11_" gradientUnits="userSpaceOnUse" x1="10.2628" y1="304.0251" x2="341.5462" y2="304.0251">
	<stop  offset="0" style="stop-color:#952E7A"/>
	<stop  offset="1" style="stop-color:#FFFFFF"/>
</linearGradient>
<polygon style="opacity:0.5;fill-rule:evenodd;clip-rule:evenodd;fill:url(#SVGID_11_);" points="10.26,266.06 113.05,294.18 
	238.32,335.16 341.55,323.74 253.62,341.99 33.59,308.31 "/>
<linearGradient id="SVGID_12_" gradientUnits="userSpaceOnUse" x1="17.872" y1="507.2277" x2="193.7326" y2="507.2277">
	<stop  offset="0" style="stop-color:#952E7A"/>
	<stop  offset="1" style="stop-color:#FFFFFF"/>
</linearGradient>
<polygon style="opacity:0.3;fill-rule:evenodd;clip-rule:evenodd;fill:url(#SVGID_12_);" points="17.87,323.43 27.39,444.33 
	114.45,555.68 193.73,691.03 "/>
<path class="st287" d="M67.52,315.06c0,0-20.47,325.41-20.47,339.68c0,0,51.78,65.93,64.05,73.32
	c116.73,70.22,253.18,5.77,253.18,5.77l56.85-79.09c0,0-10.38-243,8.46-348.02l-53.38,6.1c0,0-7.08,240.67-13.8,369.22
	c0,0-150.49,46.02-255.1,0.63c-7.05-31.47-2.27-249.69,10.23-367.6H67.52z"/>
<linearGradient id="SVGID_14_" gradientUnits="userSpaceOnUse" x1="424.4873" y1="569.931" x2="572.4096" y2="313.722">
	<stop  offset="0" style="stop-color:#FFFFFF"/>
	<stop  offset="1" style="stop-color:#952E7A"/>
</linearGradient>
<polygon style="opacity:0.3;fill-rule:evenodd;clip-rule:evenodd;fill:url(#SVGID_14_);" points="511.84,620.37 465.5,554.15 
	479.99,272.06 508.89,277.05 "/>
</svg>
