<svg version="1.1" id="Слой_1" xmlns="http://www.w3.org/2000/svg" x="0" y="0" viewBox="0 0 585 799" xml:space="preserve"><style>.st274{fill:#ff9c00}.st274,.st276,.st280{fill-rule:evenodd;clip-rule:evenodd}.st276{opacity:.3;fill:#a4002c}.st280{fill:#ffc485}.st285{fill:#fda157}.st285,.st287,.st288{fill-rule:evenodd;clip-rule:evenodd}.st287{fill:#ff8429}.st288{fill:#ffac33}</style><path d="M230.86 724.74l.06-.06c.01.02.01.04.02.06h-.08z" fill="#b99f65"/><path class="st274" d="M211.65 402.99c-.21-.07-.42-.17-.62-.26-66.03-30.21-35.69-176.06 26.35-259.01.03-.01.04-.03.04-.05l.01-.02c32.89-43.94 74.68-70.2 115.77-52.16 36.14 15.88 42.71 64.53 31.43 119.1 0 0-.01.02 0 .05-.04.18-.22 1.07-.53 2.55-21.82 100.89-103.69 220.35-172.45 189.8z"/><linearGradient id="SVGID_2_" gradientUnits="userSpaceOnUse" x1="-1832.686" y1="2421.831" x2="-1832.686" y2="2368.62" gradientTransform="rotate(24.453 4214.95 6208.785)"><stop offset=".022" stop-color="#ff8e21"/><stop offset=".954" stop-color="#ff7f31"/></linearGradient><path d="M359.61 236.85s-2.45 2.49-7.82 5.44l-.02-.01c-15.72 8.65-56.49 21.39-134.26-11.8 0 0 .01-.02.04-.03.03-.01.08-.03.12-.06 3.12-2.14 56.27-36.61 141.94 6.46z" fill-rule="evenodd" clip-rule="evenodd" fill="url(#SVGID_2_)"/><path class="st276" d="M359.61 236.85s-2.45 2.49-7.82 5.44l-.02-.01c-75.23-41.22-130.71-13.66-134.1-11.89 3.12-2.14 56.27-36.61 141.94 6.46z"/><linearGradient id="SVGID_3_" gradientUnits="userSpaceOnUse" x1="-1826.508" y1="2514.165" x2="-1826.508" y2="2460.954" gradientTransform="rotate(24.453 4214.95 6208.785)"><stop offset=".022" stop-color="#ff8e21"/><stop offset=".954" stop-color="#ff7f31"/></linearGradient><path d="M315.81 318.37s-2.25 2.58-6.99 5.81l-.02-.01c-13.9 9.47-49.27 24.67-112.69-2 0 0 .01-.02.03-.03.02-.01.07-.04.1-.07 2.79-2.27 50.16-39.38 119.57-3.7z" fill-rule="evenodd" clip-rule="evenodd" fill="url(#SVGID_3_)"/><path class="st276" d="M315.81 318.37s-2.25 2.58-6.99 5.81l-.02-.01c-60.72-34.62-109.56-4.04-112.56-2.09 2.79-2.28 50.16-39.39 119.57-3.71z"/><linearGradient id="SVGID_4_" gradientUnits="userSpaceOnUse" x1="-2419.408" y1="3377.507" x2="-2419.408" y2="3324.297" gradientTransform="rotate(34.348 4127.749 6181.883)"><stop offset=".022" stop-color="#ff8e21"/><stop offset=".954" stop-color="#ff7f31"/></linearGradient><path d="M370.43 153.32s-2.51 2.26-7.28 4.95l-.01-.01c-13.97 7.87-47.4 19.51-94.63-10.37 0 0 .01-.02.03-.03.02-.01.07-.03.1-.05 2.9-1.95 51.64-33.31 101.79 5.51z" fill-rule="evenodd" clip-rule="evenodd" fill="url(#SVGID_4_)"/><path class="st276" d="M370.43 153.32s-2.51 2.26-7.28 4.95l-.01-.01c-43.07-37.16-91.51-12.06-94.5-10.45 2.9-1.95 51.64-33.31 101.79 5.51z"/><linearGradient id="SVGID_5_" gradientUnits="userSpaceOnUse" x1="-1759.644" y1="2547.608" x2="-1891.078" y2="2319.958" gradientTransform="rotate(24.453 4214.95 6208.785)"><stop offset="0" stop-color="#df6374"/><stop offset="1" stop-color="#fff"/></linearGradient><path d="M211.65 402.99c-.21-.07-.42-.17-.62-.26-66.03-30.21-35.69-176.06 26.35-259.01-2.24 4.08-92.81 168.66-8.85 206.84 85.01 38.66 156.11-139.97 156.11-139.97s-.01.02 0 .05c-.04.18-.22 1.07-.53 2.55-21.83 100.89-103.7 220.35-172.46 189.8z" opacity=".5" fill-rule="evenodd" clip-rule="evenodd" fill="url(#SVGID_5_)"/><path class="st280" d="M303.6 275.97s7.66 4.46 6.65 11.74c0 0-7.43-5.69-6.65-11.74zm-77.94 82.84s7.66 4.46 6.65 11.74c0 .01-7.43-5.69-6.65-11.74zM295.6 269s-1.81 9.42-9.6 11c0 .01 3.14-9.62 9.6-11zM220 303.48s-4.27-8.58.96-14.57c0 0 3.34 9.56-.96 14.57z"/><path class="st274" d="M366.12 524.22c.1.05.22.07.33.09 36.12 6.45 99.22-211.43 120.82-367.27 0-.03 0-.06.01-.1l.01-.03C498.72 74.35 498.5 9.22 476.4 4.18c-19.44-4.41-45.81 56.37-69.44 137.83l-.02.06c-.08.27-.46 1.59-1.1 3.82-43.38 151.29-76.88 370.41-39.72 378.33z"/><linearGradient id="SVGID_6_" gradientUnits="userSpaceOnUse" x1="8819.26" y1="1146.92" x2="8819.26" y2="1065.43" gradientTransform="scale(-1 1) rotate(-11.613 -55.418 46130.777)"><stop offset=".022" stop-color="#ff8e21"/><stop offset=".954" stop-color="#ff7f31"/></linearGradient><path d="M401.84 195.18s-.46 5.1-.22 12.89h.01c.7 22.85 7.34 69.06 48.69 79.86 0 0 .01-.03 0-.06 0-.03-.01-.1-.01-.16.08-5.1.33-89.39-48.47-92.53z" fill-rule="evenodd" clip-rule="evenodd" fill="url(#SVGID_6_)"/><linearGradient id="SVGID_7_" gradientUnits="userSpaceOnUse" x1="8823.267" y1="1290.566" x2="8823.267" y2="1208.857" gradientTransform="scale(-1 1) rotate(-11.613 -55.418 46130.777)"><stop offset=".022" stop-color="#ff8e21"/><stop offset=".954" stop-color="#ff7f31"/></linearGradient><path d="M375.13 336.09s-.57 5.07-.67 12.81h.01c-.29 22.66 3.4 68.33 36.93 77.67 0 0 .01-.03 0-.06 0-.03-.01-.1 0-.16.25-5.06 3.67-88.77-36.27-90.26z" fill-rule="evenodd" clip-rule="evenodd" fill="url(#SVGID_7_)"/><path class="st276" d="M375.13 336.09s-.57 5.07-.67 12.81h.01c36.63-3.27 36.95 72.69 36.93 77.45.25-5.06 3.67-88.77-36.27-90.26z"/><linearGradient id="SVGID_8_" gradientUnits="userSpaceOnUse" x1="7845.379" y1="234.725" x2="7845.379" y2="166.935" gradientTransform="scale(-1 1) rotate(-1.719 564.003 276873.142)"><stop offset=".022" stop-color="#ff8e21"/><stop offset=".954" stop-color="#ff7f31"/></linearGradient><path d="M440.07 75.07s-.33 4.83-.15 11.84h.01c.53 20.55 5.38 60.06 35.34 53.53v-.06c0-.03-.01-.09-.01-.15.06-4.67.16-81.61-35.19-65.16z" fill-rule="evenodd" clip-rule="evenodd" fill="url(#SVGID_8_)"/><linearGradient id="SVGID_9_" gradientUnits="userSpaceOnUse" x1="8915.718" y1="1342.21" x2="8737.569" y2="1033.647" gradientTransform="scale(-1 1) rotate(-11.613 -55.418 46130.777)"><stop offset="0" stop-color="#df6374"/><stop offset="1" stop-color="#fff"/></linearGradient><path d="M366.12 524.22c.1.05.22.07.33.09 36.12 6.45 99.22-211.43 120.82-367.27-1.32 7.09-54.56 293.11-100.37 284.61-46.39-8.61 20.06-299.64 20.06-299.64l-.02.06c-.08.27-.46 1.59-1.1 3.82-43.38 151.29-76.88 370.41-39.72 378.33z" opacity=".5" fill-rule="evenodd" clip-rule="evenodd" fill="url(#SVGID_9_)"/><path class="st280" d="M400.18 287.75s-4.67.55-7.98 11.06c0 0 5.21-2.36 7.98-11.06zM383.7 454.8s-4.67.55-7.98 11.06c0 0 5.21-2.37 7.98-11.06zm22.51-170.71s-4.12 13.96-2.43 21.65c0 0 3.8-15.2 2.43-21.65zm6.9 100.29s5.65-8.5 6.97-20.29c-.01 0-5.84 10.48-6.97 20.29z"/><path class="st285" d="M350.05 328.4c-19.01 23.86-51.12 29.9-71.69 13.51-.55-.44-1.11-.91-1.64-1.38-.12-.12-.25-.22-.37-.34l-.09-.07c-18.54-16.9-19.09-48.08-.73-71.11 19.01-23.86 51.11-29.91 71.69-13.51 20 15.94 21.76 47.26 4.34 70.91l-.01.01c-.48.67-.99 1.34-1.5 1.98z"/><path class="st285" d="M335.71 249.03s11.15-8.38 17.51-5.41c6.36 2.96 1.73 20.01 1.73 20.01l-19.24-14.6zm-64.34 85.78s-2.79 11.63.24 15.55c3.04 3.93 15.23-3.22 15.23-3.22l-15.47-12.33z"/><path d="M350.05 328.4c-19.01 23.86-51.12 29.9-71.69 13.51-.55-.44-1.11-.91-1.64-1.38-.12-.12-.25-.22-.37-.34l-.09-.07c-18.54-16.9-19.09-48.08-.73-71.11 0 0-25.33 31.78 11.93 61.48 34.31 27.34 61.24-1.62 64.09-4.06-.48.66-.99 1.33-1.5 1.97zm7.99-38.89c-.72 2.94-2.89 4.94-4.84 4.47-1.96-.48-2.96-3.25-2.24-6.2.72-2.94 2.89-4.94 4.84-4.47 1.96.48 2.96 3.25 2.24 6.2z" opacity=".5" fill="#fda157" fill-rule="evenodd" clip-rule="evenodd"/><path class="st287" d="M194.57 481.61s60.62-1.56 93.23-36.92L156.74 119.82s-54.97-11.6-95.37 38.48l133.2 323.31z"/><path class="st288" d="M196.95 478.43s57.83-4.73 84.19-33.96L152.38 125.28s-66.65-5.03-84.19 33.97l128.76 319.18z"/><path d="M236.99 318.76l-93.91 37.88 51.48 124.96s54.21-3.5 93.23-36.92l-50.8-125.92z" opacity=".62" fill-rule="evenodd" clip-rule="evenodd" fill="#c8002a"/><path class="st287" d="M61.36 158.3S12.02 386.94 194.57 481.61L61.36 158.3z"/><circle transform="rotate(-76.809 190.053 278.56)" class="st287" cx="190.04" cy="278.55" r="50.57"/><path class="st287" d="M174.49 233.52s11.75 3.52 34.07 0c0 0-18.45-10.34-34.07 0z"/><path class="st287" d="M195.11 212.02s-4.31 5.08-5.06 19.99H193s4.05-11.53 9.52-17.52c-.01 0-4.07-4.06-7.41-2.47z"/><path d="M139.47 274.76s-.35 37.01 52.05 37.01 49.09-37.01 49.09-37.01 1.29 54.36-50.57 54.36-50.57-54.36-50.57-54.36z" opacity=".5" fill-rule="evenodd" clip-rule="evenodd" fill="#ff8429"/><path class="st274" d="M465.5 798.28h118.59l-34.56-532.52-40.64 11.29-28.9-4.99-14.49 282.09z"/><path class="st288" d="M3.27 798.28L0 765.47l27.39-321.14-9.52-120.9 15.72-15.12-23.33-42.25 107.29 19.11 267.68.35 94.76-13.46-14.49 282.09 5.1 189.96 3.3 54.17z"/><path opacity=".5" fill-rule="evenodd" clip-rule="evenodd" fill="#8f5472" d="M428.88 344.33l1.82 75.68 3.62 240.93-37.44 36.88-51.12 41.3 51.12-104.89 21.6-258.37 11.11-62.73z"/><linearGradient id="SVGID_10_" gradientUnits="userSpaceOnUse" x1="99.55" y1="783.859" x2="99.55" y2="323.428"><stop offset="0" stop-color="#fff"/><stop offset="1" stop-color="#952e7a"/></linearGradient><path opacity=".3" fill-rule="evenodd" clip-rule="evenodd" fill="url(#SVGID_10_)" d="M17.87 323.43l109.77 230.21 71.46 148.54-181.23 81.68L0 765.47l27.39-321.14z"/><linearGradient id="SVGID_11_" gradientUnits="userSpaceOnUse" x1="10.263" y1="304.025" x2="341.546" y2="304.025"><stop offset="0" stop-color="#952e7a"/><stop offset="1" stop-color="#fff"/></linearGradient><path opacity=".5" fill-rule="evenodd" clip-rule="evenodd" fill="url(#SVGID_11_)" d="M10.26 266.06l102.79 28.12 125.27 40.98 103.23-11.42-87.93 18.25-220.03-33.68z"/><linearGradient id="SVGID_12_" gradientUnits="userSpaceOnUse" x1="17.872" y1="507.228" x2="193.733" y2="507.228"><stop offset="0" stop-color="#952e7a"/><stop offset="1" stop-color="#fff"/></linearGradient><path opacity=".3" fill-rule="evenodd" clip-rule="evenodd" fill="url(#SVGID_12_)" d="M17.87 323.43l9.52 120.9 87.06 111.35 79.28 135.35z"/><path class="st287" d="M67.52 315.06S47.05 640.47 47.05 654.74c0 0 51.78 65.93 64.05 73.32 116.73 70.22 253.18 5.77 253.18 5.77l56.85-79.09s-10.38-243 8.46-348.02l-53.38 6.1s-7.08 240.67-13.8 369.22c0 0-150.49 46.02-255.1.63-7.05-31.47-2.27-249.69 10.23-367.6H67.52z"/><linearGradient id="SVGID_14_" gradientUnits="userSpaceOnUse" x1="424.487" y1="569.931" x2="572.41" y2="313.722"><stop offset="0" stop-color="#fff"/><stop offset="1" stop-color="#952e7a"/></linearGradient><path opacity=".3" fill-rule="evenodd" clip-rule="evenodd" fill="url(#SVGID_14_)" d="M511.84 620.37l-46.34-66.22 14.49-282.09 28.9 4.99z"/></svg>