<svg version="1.1" id="Слой_1" xmlns="http://www.w3.org/2000/svg" x="0" y="0" viewBox="0 0 585 799" xml:space="preserve"><style>.st263{fill:#f35000}.st268{fill:#ff9c00}.st270{fill:#ffb58d}.st271{opacity:.3}.st272{fill:#ff7300}</style><path d="M525.8 745.21c0 28.05-107.89 50.79-240.97 50.79S43.86 773.26 43.86 745.21s107.89-50.79 240.97-50.79" fill="#ef6406"/><path class="st268" d="M525.55 383.76L435.57 584.1c-9.32 20.76-27.25 36.44-49.11 42.75-70.5 20.29-137.4 19.81-200.7-1.49l-.05-.01c-32.85-11.05-64.72-27.69-95.62-49.94-18.46-13.3-30.05-34.11-31.83-56.8l-17.2-218.93 484.49 84.08z"/><path d="M285.82 642.46c-34.47 0-67.98-5.44-100.31-16.31-32.82-11.03-65.06-27.87-95.89-50.06-18.63-13.43-30.36-34.35-32.17-57.4l-17.29-220 1.04.18 485.53 84.26-.43.97-89.97 200.34c-9.47 21.09-27.56 36.84-49.63 43.21-34.34 9.87-68.04 14.81-100.88 14.81zM41.96 300.67l17.13 217.88c1.77 22.56 13.25 43.05 31.49 56.2 30.69 22.09 62.79 38.86 95.4 49.83 62.86 21.14 130.22 21.64 200.26 1.48 21.6-6.23 39.31-21.65 48.59-42.3l89.54-199.37-482.41-83.72z" fill="#130077"/><path class="st270" d="M241.16 638.56c-18.75-2.67-37.22-7.07-55.4-13.19l-.05-.01c-32.85-11.05-64.72-27.69-95.62-49.94-18.46-13.3-30.05-34.11-31.83-56.8l-17.2-218.94 17.72 3.07L75.99 521.7c1.78 22.68 13.38 43.5 31.83 56.8 30.9 22.24 62.78 38.89 95.62 49.94l.05.01c12.41 4.18 24.97 7.55 37.67 10.11z"/><g class="st271"><path class="st263" d="M277.67 641.61c30.25-.72 61.22-5.63 92.93-14.75 21.86-6.31 39.79-21.99 49.11-42.75l89.97-200.34-247.42-42.94-59.51 31.15 133.37 69.33c20.73 10.78 30.3 35.2 22.4 57.19l-26.28 73.2s-34.54 76.51-146.46 53.68c31.87 10.72 64.66 16.16 98.36 16.33-2.17-.02-4.32-.05-6.47-.1zm116.98-67.12l55.84-129.92a5.546 5.546 0 017.29-2.91c2.82 1.21 4.12 4.48 2.92 7.3l-55.84 129.91c-1.03 2.41-3.58 3.71-6.05 3.28-.42-.07-.84-.19-1.26-.38-2.81-1.2-4.11-4.47-2.9-7.28zm-63.85 6.18l45.75-127.37c1.03-2.88 4.21-4.38 7.1-3.34 2.88 1.03 4.39 4.23 3.34 7.1l-45.74 127.38a5.572 5.572 0 01-7.1 3.36 5.585 5.585 0 01-3.35-7.13z"/></g><path class="st268" d="M286.17 647.16c-70.4 0-137.12-22.46-199.32-67.23-19.77-14.25-32.2-36.44-34.12-60.87L35.52 300.12a5.548 5.548 0 015.1-5.97c3.05-.22 5.73 2.04 5.97 5.1L63.8 518.19c1.66 21.17 12.43 40.39 29.54 52.73 88.58 63.77 186.69 80.8 291.58 50.6 20.26-5.85 36.88-20.31 45.58-39.69l89.97-200.34a5.547 5.547 0 017.34-2.79 5.547 5.547 0 012.79 7.34l-89.97 200.34c-10.04 22.36-29.23 39.06-52.64 45.81-34.67 9.99-68.66 14.97-101.82 14.97z"/><path class="st268" d="M588.52 295.56c-21.44 123.54-153.32 116.76-312.67 89.1-77.39-13.43-147.03-29.32-195.72-56.26-.02 0-.04-.02-.06-.04C28.53 299.84.46 258.94 11.48 195.42 21.33 138.68 54.2 90.7 101.11 56.59 163.44 11.26 250.59-9.55 341.53 6.23c70.37 12.21 131.23 44.3 175.27 87.7 3.03 2.97 5.96 6.01 8.83 9.09 3.47 3.74 6.82 7.56 10.05 11.44 18.73 22.52 33.26 47.35 42.81 73.57l.01.02c12.45 34.2 16.4 70.76 10.02 107.51z"/><path class="st272" d="M588.52 295.56c-21.44 123.54-153.32 116.76-312.67 89.1-159.35-27.65-285.8-65.7-264.36-189.24C21.33 138.68 54.2 90.7 101.11 56.59h.02c-56.21 94.27-2.76 120.53 103.09 114.29 42.12-.55 79.65 35.99 117.79 72.65 31.16 29.94 79.6 33.74 114.32 8.02 10.31-7.63 20.42-17.21 30.3-28.68 43.37-27.11 99.53 10.73 111.85-34.83l.01.02c12.46 34.19 16.41 70.75 10.03 107.5z"/><g class="st271"><path class="st263" d="M572.65 295.56c6.38-36.75 2.43-73.31-10.03-107.51l-.01-.02a199.126 199.126 0 00-17.96-38.18 199.673 199.673 0 00-18.94-26.12c-6.38 218.58-243.59 291.32-445.62 204.63-.02 0-.02 0-.03-.01 0 0 .03.02.09.05 48.69 26.94 118.33 42.83 195.72 56.26 51.95 9.02 100.98 15.81 144.22 16.59 81.09-1.49 138.98-27.45 152.56-105.69z"/></g><path class="st270" d="M108.06 531.69a5.55 5.55 0 01-4.59-5.13l-8.8-141.14a5.559 5.559 0 015.2-5.89c3.06-.19 5.7 2.14 5.89 5.2l8.8 141.14c.19 3.06-2.14 5.7-5.2 5.89-.45.03-.88.01-1.3-.07zm58.01 27.01a5.556 5.556 0 01-4.6-5.47l-.15-135.34c0-3.07 2.48-5.56 5.55-5.56s5.56 2.48 5.56 5.55l.15 135.34c0 3.07-2.48 5.56-5.55 5.56-.32.01-.65-.02-.96-.08zm57.05 19.27a5.561 5.561 0 01-4.59-5.83l8.37-131.52a5.547 5.547 0 015.9-5.19c3.05.2 5.39 2.83 5.19 5.9l-8.37 131.52a5.547 5.547 0 01-5.9 5.19c-.2-.01-.4-.03-.6-.07zm51.76 8.99c-.2-.03-.4-.08-.59-.14a5.55 5.55 0 01-3.8-6.87l36.43-126.65a5.55 5.55 0 1110.67 3.07l-36.43 126.65c-.79 2.75-3.52 4.41-6.28 3.94z"/><path class="st263" d="M224.72 201.25l-6.5 20.93a24.5 24.5 0 01-12.26 14.58L195 242.35a20.351 20.351 0 01-16.61.82l-22.78-8.88a18.2 18.2 0 01-11.6-16.03l-.16-2.91 20.46 7.98a20.234 20.234 0 0016.59-.83l10.96-5.59a24.58 24.58 0 0012.28-14.57l6.48-20.93c1.1-3.58 1.27-7.32.58-10.87l8.34 8.73c5.6 5.85 7.57 14.26 5.18 21.98z"/><path class="st263" d="M185.79 245.35c-2.6 0-5.2-.48-7.68-1.44l-22.78-8.88c-6.96-2.7-11.71-9.27-12.11-16.73l-.22-4.14 21.6 8.43a19.455 19.455 0 0015.94-.79l10.96-5.59c5.66-2.89 9.99-8.03 11.88-14.1l6.48-20.93c1.04-3.38 1.24-7 .56-10.48l-.51-2.65 10.21 10.68a23.106 23.106 0 015.36 22.77l-6.5 20.93c-2 6.48-6.61 11.96-12.66 15.05l-10.96 5.59a21.196 21.196 0 01-9.57 2.28zm-41.07-28.82l.09 1.68c.37 6.84 4.72 12.86 11.1 15.33l22.78 8.88a19.57 19.57 0 0015.96-.79l10.96-5.59c5.66-2.89 9.99-8.03 11.86-14.1l6.5-20.93c2.3-7.44.39-15.57-4.99-21.2l-6.65-6.96c.25 2.96-.07 5.95-.94 8.78l-6.48 20.93c-2.02 6.48-6.64 11.96-12.67 15.05l-10.96 5.59a21.051 21.051 0 01-17.24.86l-19.32-7.53z"/><path class="st268" d="M210.62 181.41l-6.48 20.93a24.552 24.552 0 01-12.28 14.57l-10.96 5.59c-5.16 2.63-11.21 2.94-16.59.83l-22.8-8.89a18.176 18.176 0 01-11.36-13.92l18.59 7.24c5.4 2.11 11.45 1.81 16.61-.82l10.96-5.59a24.49 24.49 0 0012.26-14.56l6.49-20.94c2.4-7.72.42-16.13-5.16-21.97l-9.87-10.33c1.06.65 2.07 1.45 2.97 2.4l22.45 23.5c5.59 5.83 7.56 14.24 5.17 21.96z"/><path class="st270" d="M140.64 178.83l1.52 27.89c.18 3.35 1.27 6.5 3.06 9.17l-3.71-1.45a18.222 18.222 0 01-11.61-16.01l-1.52-27.89a24.5 24.5 0 0111.64-22.22l24.03-14.81c6.1-3.76 13.99-2.74 18.94 2.43l3.62 3.8c-3.48-.56-7.14.11-10.31 2.06l-24.03 14.81a24.544 24.544 0 00-11.63 22.22z"/><path class="st263" d="M310.84 83.52l-18.07 12.53a17.694 17.694 0 00-6.89 19.56l6.8 23.05a22.842 22.842 0 0015.02 15.32l22.42 7.09c8.48 2.68 17.62-1.4 21.28-9.51l10.7-23.71a18.903 18.903 0 00-4.35-21.62l-22.48-20.94c-6.72-6.27-16.89-7-24.43-1.77z"/><path class="st263" d="M335.41 162.68c-1.84 0-3.7-.28-5.53-.86l-22.42-7.09a23.625 23.625 0 01-15.55-15.85l-6.8-23.05c-2.26-7.67.63-15.88 7.2-20.44l18.07-12.53c7.79-5.4 18.48-4.63 25.41 1.83l22.48 20.94a19.698 19.698 0 014.53 22.53l-10.7 23.71c-3.01 6.73-9.66 10.81-16.69 10.81zm-24.12-78.51L293.22 96.7a16.866 16.866 0 00-6.58 18.68l6.8 23.05c2.08 7.04 7.5 12.57 14.5 14.79l22.42 7.09c8.09 2.55 16.82-1.34 20.31-9.08l10.7-23.71c3.2-7.09 1.52-15.41-4.17-20.71l-22.48-20.94c-6.39-5.97-16.24-6.68-23.43-1.7z"/><path class="st272" d="M377.4 145.9l-10.7 23.71c-3.65 8.11-12.8 12.2-21.27 9.52l-22.42-7.1a22.856 22.856 0 01-15.03-15.32l-.87-2.95c.2.08.39.15.59.22l22.42 7.1c8.48 2.68 17.62-1.4 21.27-9.52l10.7-23.71c1.86-4.14 2.14-8.7.98-12.86l9.98 9.3c5.94 5.52 7.68 14.22 4.35 21.61z"/><path class="st270" d="M339.15 88.91a19.46 19.46 0 00-16.81 2.62l-18.07 12.52c-6.28 4.35-9.05 12.23-6.89 19.57l6.79 23.04c.8 2.72 2.08 5.19 3.74 7.38l-.21-.07a22.856 22.856 0 01-15.03-15.32l-6.79-23.05c-2.16-7.32.61-15.2 6.89-19.55l18.08-12.54c7.54-5.22 17.71-4.48 24.42 1.77l3.88 3.63z"/><path class="st272" d="M466.99 175.97l-14.36 26.37c-2.39 4.39-2.6 9.64-.56 14.2l15.91 35.61c2.18 4.87 6.63 8.34 11.89 9.25l27.07 4.7c5.2.9 10.51-.81 14.2-4.59l8.8-9c4.21-4.3 5.65-10.6 3.73-16.31l-18.27-54.36a15.993 15.993 0 00-12.45-10.68l-19.15-3.32a16.04 16.04 0 00-16.81 8.13z"/><path d="M509.69 267.13c-.96 0-1.92-.08-2.88-.25l-27.07-4.7a16.795 16.795 0 01-12.48-9.71l-15.91-35.61c-2.12-4.76-1.91-10.33.59-14.9l14.36-26.37a16.81 16.81 0 0117.65-8.53l19.15 3.32a16.81 16.81 0 0113.07 11.21l18.27 54.35c2.02 6.02.52 12.58-3.92 17.12l-8.8 9c-3.2 3.27-7.54 5.07-12.03 5.07zm-42-90.78l-14.36 26.37c-2.26 4.14-2.45 9.19-.53 13.5l15.91 35.61c2.07 4.64 6.3 7.93 11.3 8.79l27.07 4.7c4.95.85 9.99-.77 13.5-4.36l8.8-9a15.17 15.17 0 003.55-15.5l-18.27-54.35a15.22 15.22 0 00-11.83-10.16l-19.15-3.32a15.263 15.263 0 00-15.99 7.72z" fill="#6e0000"/><path class="st270" d="M518.78 191.91a16.054 16.054 0 00-11.1-7.71l-19.16-3.32c-6.77-1.18-13.52 2.1-16.81 8.13l-14.35 26.36a15.813 15.813 0 00-1.91 8.69l-3.37-7.53c-2.04-4.56-1.84-9.81.55-14.19L467 175.98c3.29-6.03 10.04-9.31 16.81-8.13l19.14 3.32c5.8 1.01 10.58 5.11 12.45 10.68l3.38 10.06z"/><path class="st263" d="M171.68 229.47c-3.08 0-6.17-.57-9.1-1.71l-22.79-8.88c-8.4-3.27-14.14-11.2-14.63-20.2l-1.51-27.89a29.293 29.293 0 0113.88-26.53l24.03-14.81c7.96-4.91 18.43-3.56 24.89 3.2l22.46 23.49a27.056 27.056 0 016.28 26.67l-6.49 20.94c-2.32 7.49-7.66 13.83-14.65 17.4l-10.96 5.59a25.287 25.287 0 01-11.41 2.73zm-5.13-91.91l-24.03 14.81a19.78 19.78 0 00-9.37 17.9l1.51 27.89c.29 5.28 3.65 9.93 8.58 11.85l22.79 8.88c4.13 1.6 8.76 1.37 12.71-.64l10.96-5.59c4.71-2.4 8.31-6.68 9.88-11.73l6.49-20.93c1.88-6.06.32-12.68-4.06-17.27l-22.46-23.49c-3.37-3.54-8.84-4.25-13-1.68zm168.86 29.09c-2.23 0-4.5-.34-6.72-1.04l-22.41-7.09a27.578 27.578 0 01-18.16-18.51l-6.8-23.05c-2.75-9.31.77-19.29 8.75-24.82l18.07-12.53c9.31-6.45 22.09-5.53 30.38 2.19L361 102.74c7.43 6.93 9.62 17.8 5.44 27.07l-10.7 23.71c-3.69 8.17-11.77 13.13-20.33 13.13zm-21.86-79.22l-18.07 12.53c-4.6 3.19-6.62 8.93-5.04 14.3l6.8 23.05a18.06 18.06 0 0011.89 12.13l22.41 7.09c6.17 1.95 12.84-1.02 15.5-6.93l10.7-23.71a14.15 14.15 0 00-3.25-16.18l-22.48-20.94c-5.03-4.7-12.8-5.26-18.46-1.34z"/><path class="st268" d="M509.69 271.1c-1.18 0-2.37-.1-3.56-.31l-27.07-4.7a20.72 20.72 0 01-15.42-12l-15.91-35.61c-2.63-5.88-2.36-12.77.72-18.42l14.36-26.37a20.78 20.78 0 0121.81-10.54l19.15 3.32a20.77 20.77 0 0116.15 13.86l18.27 54.35c2.5 7.44.64 15.54-4.84 21.16l-8.8 9a20.747 20.747 0 01-14.86 6.26zm-38.51-92.85l-14.36 26.37a11.3 11.3 0 00-.39 9.98l15.91 35.61c1.53 3.43 4.66 5.86 8.36 6.5l27.07 4.7c3.65.63 7.38-.57 9.98-3.22l8.8-9c2.97-3.04 3.98-7.43 2.62-11.46l-18.27-54.35c-1.32-3.92-4.67-6.8-8.75-7.51L483 172.55c-4.76-.85-9.51 1.46-11.82 5.7z"/><ellipse transform="rotate(-80.154 57.322 226.012)" class="st263" cx="57.32" cy="226.02" rx="20.54" ry="13.09"/></svg>