<?xml version="1.0" encoding="utf-8"?>
<!-- Generator: Adobe Illustrator 24.2.3, SVG Export Plug-In . SVG Version: 6.00 Build 0)  -->
<svg version="1.1" id="Слой_1" xmlns="http://www.w3.org/2000/svg" xmlns:xlink="http://www.w3.org/1999/xlink" x="0px" y="0px"
	 viewBox="0 0 585 237" style="enable-background:new 0 0 585 237;" xml:space="preserve">
<style type="text/css">
	.st0{clip-path:url(#SVGID_2_);fill:#FFE406;}
	.st1{opacity:0.5;clip-path:url(#SVGID_2_);}
	.st2{fill:#A3CAFF;}
	.st3{fill:#FF8C00;}
	.st4{clip-path:url(#SVGID_2_);fill:#FFEDA1;}
	.st5{clip-path:url(#SVGID_2_);}
	.st6{fill:#FFCB33;}
	.st7{fill:#FFEDA1;}
	.st8{fill:#2A356B;}
	.st9{clip-path:url(#SVGID_2_);fill:#FFCB33;}
	.st10{clip-path:url(#SVGID_2_);fill:#A3CAFF;}
	.st11{clip-path:url(#SVGID_2_);fill:#FF8C00;}
	.st12{clip-path:url(#SVGID_2_);fill:#2A356B;}
	.st13{fill:#1B254E;}
	.st14{clip-path:url(#SVGID_2_);fill:#C32C28;}
	.st15{clip-path:url(#SVGID_2_);fill:#FF7400;}
	.st16{fill:#FFE406;}
	.st17{clip-path:url(#SVGID_2_);fill:#FFEF6E;}
	.st18{clip-path:url(#SVGID_4_);fill:#FFE473;}
	.st19{fill:#FFFFFF;}
	.st20{fill:#FF6567;}
	.st21{fill:url(#SVGID_5_);}
	.st22{fill:#ADD8C3;}
	.st23{fill:none;stroke:#FFFFFF;stroke-miterlimit:10;}
	.st24{fill:#A2CBAB;}
	.st25{fill:#96CDA1;}
	.st26{opacity:0.76;}
	.st27{fill:#C4E9CD;}
	.st28{fill:url(#SVGID_6_);}
	.st29{fill:url(#SVGID_7_);}
	.st30{fill:#F6E6BE;}
	.st31{fill:url(#SVGID_8_);}
	.st32{fill:url(#SVGID_9_);}
	.st33{fill:url(#SVGID_10_);}
	.st34{fill:#E4EEC4;}
	.st35{fill:#EFFBD2;}
	.st36{fill:url(#SVGID_11_);}
	.st37{fill:url(#SVGID_12_);}
	.st38{fill:url(#SVGID_13_);}
	.st39{fill:url(#SVGID_14_);}
	.st40{fill:#FFE493;}
	.st41{clip-path:url(#SVGID_16_);fill:url(#SVGID_17_);}
	.st42{fill:#5B2A1E;}
	.st43{fill:#907673;}
	.st44{fill:url(#SVGID_18_);}
	.st45{fill:url(#SVGID_19_);}
	.st46{fill:url(#SVGID_20_);}
	.st47{fill:url(#SVGID_21_);}
	.st48{fill:#FE82C8;}
	.st49{opacity:0.62;clip-path:url(#SVGID_23_);fill:#FFFFFF;}
	.st50{opacity:0.75;clip-path:url(#SVGID_23_);fill:#FFFFFF;}
	.st51{opacity:0.41;clip-path:url(#SVGID_23_);fill:#FFFFFF;}
	.st52{clip-path:url(#SVGID_23_);fill:none;}
	.st53{clip-path:url(#SVGID_25_);}
	.st54{opacity:0.26;fill:#FFFFFF;}
	.st55{opacity:0.69;fill:#FFFFFF;}
	.st56{fill:none;}
	.st57{opacity:0.16;fill:#FFFFFF;}
	.st58{opacity:0.3;fill:#FFFFFF;}
	.st59{opacity:0.23;fill:#FFFFFF;}
	.st60{opacity:0.24;fill:#FFFFFF;}
	.st61{opacity:0.17;}
	.st62{opacity:0.05;fill:#E2E8E4;}
	.st63{clip-path:url(#SVGID_27_);}
	.st64{opacity:0.76;clip-path:url(#SVGID_27_);fill:#FFFFFF;}
	.st65{clip-path:url(#SVGID_27_);fill:url(#SVGID_28_);}
	.st66{clip-path:url(#SVGID_27_);fill:none;stroke:#FFFFFF;stroke-width:2;stroke-linecap:round;stroke-miterlimit:10;}
	.st67{clip-path:url(#SVGID_27_);fill:url(#SVGID_29_);}
	.st68{clip-path:url(#SVGID_27_);fill:url(#SVGID_30_);}
	.st69{clip-path:url(#SVGID_27_);fill:url(#SVGID_31_);}
	.st70{clip-path:url(#SVGID_27_);fill:url(#SVGID_32_);}
	.st71{clip-path:url(#SVGID_27_);fill:#FFFFFF;}
	.st72{clip-path:url(#SVGID_27_);fill:url(#SVGID_33_);}
	.st73{opacity:0.62;clip-path:url(#SVGID_35_);fill:#FFFFFF;}
	.st74{clip-path:url(#SVGID_35_);fill:#FFFFFF;}
	.st75{opacity:0.41;clip-path:url(#SVGID_35_);fill:#FFFFFF;}
	.st76{clip-path:url(#SVGID_35_);fill:none;}
	.st77{clip-path:url(#SVGID_37_);}
	.st78{fill:url(#SVGID_38_);}
	.st79{opacity:0.74;clip-path:url(#SVGID_40_);fill:url(#SVGID_41_);}
	.st80{fill:#E5E5E5;}
	.st81{fill:none;stroke:#4D4D4D;stroke-width:0.75;stroke-linecap:round;stroke-miterlimit:10;}
	.st82{fill:url(#SVGID_42_);}
	.st83{opacity:0.74;fill:url(#SVGID_43_);}
	.st84{opacity:0.74;fill:url(#SVGID_44_);}
	.st85{opacity:0.74;fill:url(#SVGID_45_);}
	.st86{opacity:0.74;fill:url(#SVGID_46_);}
	.st87{fill:url(#SVGID_47_);}
	.st88{opacity:0.66;}
	.st89{opacity:0.37;fill:#FFFFFF;}
	.st90{fill:url(#SVGID_48_);}
	.st91{fill:url(#SVGID_49_);}
	.st92{opacity:0.44;clip-path:url(#SVGID_51_);fill:#FFFFD9;}
	.st93{opacity:0.43;clip-path:url(#SVGID_53_);fill:#FFFFFF;}
	.st94{clip-path:url(#SVGID_53_);fill:none;stroke:#FFFFFF;stroke-miterlimit:10;}
	.st95{opacity:0.76;clip-path:url(#SVGID_53_);fill:#FFFFFF;}
	.st96{clip-path:url(#SVGID_53_);fill:#FFFFFF;}
	.st97{opacity:0.08;clip-path:url(#SVGID_53_);fill:#FFFFFF;}
	.st98{opacity:0.27;clip-path:url(#SVGID_53_);fill:#FFFFFF;}
	.st99{opacity:0.37;clip-path:url(#SVGID_53_);fill:#FFFFFF;}
	.st100{clip-path:url(#SVGID_53_);fill:none;}
	.st101{fill:url(#SVGID_54_);}
	.st102{opacity:0.62;clip-path:url(#SVGID_56_);fill:#FFFFFF;}
	.st103{clip-path:url(#SVGID_56_);fill:#FFFFFF;}
	.st104{opacity:0.41;clip-path:url(#SVGID_56_);fill:#FFFFFF;}
	.st105{clip-path:url(#SVGID_56_);fill:none;}
	.st106{clip-path:url(#SVGID_58_);}
	.st107{opacity:0.55;fill:url(#SVGID_59_);}
	.st108{fill:url(#SVGID_60_);}
	.st109{fill:url(#SVGID_61_);}
	.st110{opacity:0.28;}
	.st111{opacity:0.56;clip-path:url(#SVGID_63_);fill:#FFFFFF;}
	.st112{opacity:0.43;clip-path:url(#SVGID_65_);fill:#FFFFFF;}
	.st113{clip-path:url(#SVGID_65_);fill:none;stroke:#FFFFFF;stroke-miterlimit:10;}
	.st114{opacity:0.76;clip-path:url(#SVGID_65_);fill:#FFFFFF;}
	.st115{clip-path:url(#SVGID_65_);fill:#FFFFFF;}
	.st116{opacity:0.08;clip-path:url(#SVGID_65_);fill:#FFFFFF;}
	.st117{opacity:0.27;clip-path:url(#SVGID_65_);fill:#FFFFFF;}
	.st118{opacity:0.37;clip-path:url(#SVGID_65_);fill:#FFFFFF;}
	.st119{clip-path:url(#SVGID_65_);fill:none;}
	.st120{clip-path:url(#SVGID_67_);fill:none;}
	.st121{opacity:0.46;}
	.st122{opacity:0.86;fill:#FFFFFF;}
	.st123{opacity:0.4;}
	.st124{opacity:0.73;fill:#FFFFFF;}
	.st125{opacity:0.54;clip-path:url(#SVGID_69_);fill:#FFFFFF;}
	.st126{fill:#FF8A8A;}
	.st127{opacity:0.75;fill:#FFFFFF;}
	.st128{fill:#FFC181;}
	.st129{clip-path:url(#SVGID_71_);fill:#FFDFBD;}
	.st130{clip-path:url(#SVGID_71_);fill:#FF9D00;}
	.st131{clip-path:url(#SVGID_71_);fill:#FFF3DF;}
	.st132{clip-path:url(#SVGID_73_);fill:#FFBAE4;}
	.st133{opacity:0.8;clip-path:url(#SVGID_73_);fill:#FE82C8;}
	.st134{clip-path:url(#SVGID_73_);fill:#FE82C8;}
	.st135{opacity:0.79;clip-path:url(#SVGID_73_);fill:#FFBAE4;}
	.st136{fill:#FFFEEA;}
	.st137{fill:#58D196;}
	.st138{fill:#A6E5C3;}
	.st139{fill:#D2F2E1;}
	.st140{opacity:0.44;fill:#FFFFFF;}
	.st141{clip-path:url(#SVGID_75_);fill:#FFF9C1;}
	.st142{opacity:0.86;fill:#FFCCD5;}
	.st143{opacity:0.62;clip-path:url(#SVGID_77_);fill:#FFFFFF;}
	.st144{opacity:0.75;clip-path:url(#SVGID_77_);fill:#FFFFFF;}
	.st145{opacity:0.41;clip-path:url(#SVGID_77_);fill:#FFFFFF;}
	.st146{clip-path:url(#SVGID_77_);fill:none;}
	.st147{clip-path:url(#SVGID_79_);}
	.st148{opacity:0.44;clip-path:url(#SVGID_81_);fill:#FFFFFF;}
	.st149{opacity:0.43;clip-path:url(#SVGID_83_);fill:#FFFFFF;}
	.st150{clip-path:url(#SVGID_83_);fill:none;stroke:#FFFFFF;stroke-miterlimit:10;}
	.st151{opacity:0.76;clip-path:url(#SVGID_83_);fill:#FFFFFF;}
	.st152{clip-path:url(#SVGID_83_);fill:#FFFFFF;}
	.st153{opacity:0.08;clip-path:url(#SVGID_83_);fill:#FFFFFF;}
	.st154{opacity:0.27;clip-path:url(#SVGID_83_);fill:#FFFFFF;}
	.st155{opacity:0.37;clip-path:url(#SVGID_83_);fill:#FFFFFF;}
	.st156{clip-path:url(#SVGID_83_);fill:none;}
	.st157{opacity:0.54;clip-path:url(#SVGID_85_);fill:#FFFFFF;}
	.st158{opacity:0.62;fill:#FFFFFF;}
	.st159{opacity:0.41;fill:#FFFFFF;}
	.st160{opacity:0.43;fill:#FFFFFF;}
	.st161{opacity:0.76;fill:#FFFFFF;}
	.st162{opacity:0.08;fill:#FFFFFF;}
	.st163{opacity:0.27;fill:#FFFFFF;}
	.st164{opacity:0.54;fill:#FFFFFF;}
	.st165{clip-path:url(#SVGID_87_);fill:#FF6567;}
	.st166{clip-path:url(#SVGID_87_);fill:#FF8A8A;}
	.st167{clip-path:url(#SVGID_87_);fill:#FFC2C1;}
	.st168{clip-path:url(#SVGID_87_);fill:#FFFFFF;}
	.st169{clip-path:url(#SVGID_89_);fill:#E2E9FF;}
	.st170{clip-path:url(#SVGID_89_);fill:#EEF2FF;}
	.st171{opacity:0.54;clip-path:url(#SVGID_89_);fill:#EEF2FF;}
	.st172{opacity:0.54;clip-path:url(#SVGID_89_);fill:#8FAAF0;}
	.st173{clip-path:url(#SVGID_91_);}
	.st174{fill:#FF6B81;}
	.st175{clip-path:url(#SVGID_91_);fill:none;}
	.st176{fill:#FF1B6F;}
	.st177{clip-path:url(#SVGID_93_);fill:#FFDFBD;}
	.st178{clip-path:url(#SVGID_93_);fill:#FF9D00;}
	.st179{clip-path:url(#SVGID_93_);fill:#FFF3DF;}
	.st180{clip-path:url(#SVGID_95_);fill:#F0C6F4;}
	.st181{opacity:0.8;clip-path:url(#SVGID_95_);fill:#F8E3F8;}
	.st182{clip-path:url(#SVGID_95_);fill:#F8E3F8;}
	.st183{opacity:0.79;clip-path:url(#SVGID_95_);fill:#F0C6F4;}
	.st184{clip-path:url(#SVGID_97_);fill:#FFF9C1;}
	.st185{clip-path:url(#SVGID_99_);fill:#FFC5D6;}
	.st186{clip-path:url(#SVGID_99_);fill:#FF94B3;}
	.st187{clip-path:url(#SVGID_99_);fill:#FF6794;}
	.st188{clip-path:url(#SVGID_99_);fill:#FFFFFF;}
	.st189{clip-path:url(#SVGID_101_);fill:#698DE6;}
	.st190{clip-path:url(#SVGID_101_);fill:#8FAAF0;}
	.st191{opacity:0.54;clip-path:url(#SVGID_101_);fill:#8FAAF0;}
	.st192{clip-path:url(#SVGID_103_);}
	.st193{clip-path:url(#SVGID_103_);fill:none;}
	.st194{opacity:0.46;clip-path:url(#SVGID_107_);}
	.st195{clip-path:url(#SVGID_107_);fill:none;}
	.st196{fill:none;stroke:#FFFFFF;stroke-width:2;stroke-miterlimit:10;}
	.st197{opacity:0.45;fill:#FFFFFF;}
	.st198{opacity:0.8;fill:#FFFFFF;}
	.st199{opacity:0.79;fill:#FFFFFF;}
	.st200{fill:#F2C5AA;}
	.st201{fill:none;stroke:#FFFFFF;stroke-width:0.75;stroke-miterlimit:10;}
	.st202{fill:#FFFFFF;stroke:#FFFFFF;stroke-width:0.25;stroke-miterlimit:10;}
	.st203{fill:#D3C1B2;}
	.st204{fill:#FFC5D6;}
	.st205{clip-path:url(#SVGID_113_);fill:#F787A5;}
	.st206{clip-path:url(#SVGID_113_);fill:#FFE9F2;}
	.st207{clip-path:url(#SVGID_113_);fill:#D3CFB3;}
	.st208{clip-path:url(#SVGID_113_);fill:#FFDBE5;}
	.st209{clip-path:url(#SVGID_113_);}
	.st210{fill:#FFE9F2;}
	.st211{fill:#F787A5;}
	.st212{fill:#F2CCC1;}
	.st213{fill:#DF4E50;}
	.st214{clip-path:url(#SVGID_113_);fill:#FFC5D6;}
	.st215{fill:#FFDBE5;}
	.st216{fill:#FFB9C3;}
	.st217{fill:#FB91B5;}
	.st218{fill:#E3A180;}
	.st219{fill:#92693D;}
	.st220{fill:#FBBACC;}
	.st221{fill:#E6678D;}
	.st222{fill:#574435;}
	.st223{fill:#C9A47C;}
	.st224{fill:#641F1E;}
	.st225{fill:#F15E89;}
	.st226{fill:#E7005E;}
	.st227{fill:#DEB78A;}
	.st228{fill:#DFB78A;}
	.st229{fill:#FF6794;}
	.st230{fill:#D72264;}
	.st231{fill:#F7F7F7;}
	.st232{fill:#F2F2F2;}
	.st233{fill:#FFFBF0;}
	.st234{fill:#FFBFCF;}
	.st235{fill:#FF9DAE;}
	.st236{fill:#FFC2C1;}
	.st237{fill:#FFCCD5;}
	.st238{fill:#B49E8F;}
	.st239{fill:#FFE2EA;}
	.st240{fill:#A3C5DC;}
	.st241{fill:#DA956B;}
	.st242{fill:#BDA595;}
	.st243{fill:#583B34;}
	.st244{fill:#63443C;}
	.st245{fill:#B2D0E5;}
	.st246{fill:#FCFCFB;}
	.st247{fill:#D0ACA1;}
	.st248{fill:#A2C4DB;}
	.st249{fill:#E1D0C8;}
	.st250{fill:#9C7972;}
	.st251{fill:#77573F;}
	.st252{fill:#F3769C;}
	.st253{fill:#FBFBF9;}
	.st254{fill:#F8C4DC;}
	.st255{fill:#E4BAB5;}
	.st256{clip-path:url(#SVGID_115_);fill:#F787A5;}
	.st257{clip-path:url(#SVGID_115_);fill:#FFE9F2;}
	.st258{clip-path:url(#SVGID_115_);fill:#D3CFB3;}
	.st259{clip-path:url(#SVGID_115_);fill:#FFDBE5;}
	.st260{clip-path:url(#SVGID_115_);}
	.st261{clip-path:url(#SVGID_115_);fill:#FFC5D6;}
	.st262{fill:#00C377;}
	.st263{fill:#88E5AF;}
	.st264{fill:#00B45A;}
	.st265{fill:#7FDAAA;}
	.st266{fill:#F2BC3A;}
	.st267{fill:#B99F65;}
	.st268{fill:#98D284;}
	.st269{fill:#3C3724;}
	.st270{fill:#D6BEA2;}
	.st271{fill:#9C8274;}
	.st272{fill:#587147;}
	.st273{fill:#E7D6BE;}
	.st274{fill:#5CC689;}
	.st275{clip-path:url(#SVGID_117_);fill:#A6E5C3;}
	.st276{clip-path:url(#SVGID_117_);fill:#FFFFFF;}
	.st277{clip-path:url(#SVGID_117_);fill:#58D196;}
	.st278{fill:#FFEF6E;}
	.st279{fill:#FFE200;}
	.st280{clip-path:url(#SVGID_119_);fill:#FDA157;}
	.st281{clip-path:url(#SVGID_119_);fill-rule:evenodd;clip-rule:evenodd;fill:#FF8429;}
	.st282{clip-path:url(#SVGID_119_);fill:#F35000;}
	.st283{clip-path:url(#SVGID_119_);fill:#F9B946;}
	.st284{fill:#F35000;}
	.st285{fill:#FF8429;}
	.st286{fill:#FFAC33;}
	.st287{fill:#E56D00;}
	.st288{fill:#EF6406;}
	.st289{fill:#FF9C00;}
	.st290{fill:#130077;}
	.st291{fill:#FFB58D;}
	.st292{opacity:0.3;}
	.st293{fill:#FF7300;}
	.st294{fill:#6E0000;}
	.st295{fill-rule:evenodd;clip-rule:evenodd;fill:#FF9C00;}
	.st296{fill-rule:evenodd;clip-rule:evenodd;fill:url(#SVGID_120_);}
	.st297{opacity:0.3;fill-rule:evenodd;clip-rule:evenodd;fill:#A4002C;}
	.st298{fill-rule:evenodd;clip-rule:evenodd;fill:url(#SVGID_121_);}
	.st299{fill-rule:evenodd;clip-rule:evenodd;fill:url(#SVGID_122_);}
	.st300{opacity:0.5;fill-rule:evenodd;clip-rule:evenodd;fill:url(#SVGID_123_);}
	.st301{fill-rule:evenodd;clip-rule:evenodd;fill:#FFC485;}
	.st302{fill-rule:evenodd;clip-rule:evenodd;fill:url(#SVGID_124_);}
	.st303{fill-rule:evenodd;clip-rule:evenodd;fill:url(#SVGID_125_);}
	.st304{fill-rule:evenodd;clip-rule:evenodd;fill:url(#SVGID_126_);}
	.st305{opacity:0.5;fill-rule:evenodd;clip-rule:evenodd;fill:url(#SVGID_127_);}
	.st306{fill-rule:evenodd;clip-rule:evenodd;fill:#FDA157;}
	.st307{opacity:0.5;fill-rule:evenodd;clip-rule:evenodd;fill:#FDA157;}
	.st308{fill-rule:evenodd;clip-rule:evenodd;fill:#FF8429;}
	.st309{fill-rule:evenodd;clip-rule:evenodd;fill:#FFAC33;}
	.st310{opacity:0.62;fill-rule:evenodd;clip-rule:evenodd;fill:#C8002A;}
	.st311{opacity:0.5;fill-rule:evenodd;clip-rule:evenodd;fill:#FF8429;}
	.st312{opacity:0.5;fill-rule:evenodd;clip-rule:evenodd;fill:#8F5472;}
	.st313{opacity:0.3;fill-rule:evenodd;clip-rule:evenodd;fill:url(#SVGID_128_);}
	.st314{opacity:0.5;fill-rule:evenodd;clip-rule:evenodd;fill:url(#SVGID_129_);}
	.st315{opacity:0.3;fill-rule:evenodd;clip-rule:evenodd;fill:url(#SVGID_130_);}
	.st316{opacity:0.3;fill-rule:evenodd;clip-rule:evenodd;fill:url(#SVGID_131_);}
	.st317{clip-path:url(#SVGID_133_);}
	.st318{clip-path:url(#SVGID_133_);fill:#FF8429;}
	.st319{fill:#FDA157;}
	.st320{clip-path:url(#SVGID_135_);}
	.st321{fill:#F58800;}
	.st322{clip-path:url(#SVGID_137_);}
	.st323{fill:#F9B946;}
	.st324{clip-path:url(#SVGID_139_);}
	.st325{clip-path:url(#SVGID_139_);fill:#FF8429;}
	.st326{fill-rule:evenodd;clip-rule:evenodd;fill:url(#SVGID_140_);}
	.st327{fill-rule:evenodd;clip-rule:evenodd;fill:url(#SVGID_141_);}
	.st328{fill-rule:evenodd;clip-rule:evenodd;fill:url(#SVGID_142_);}
	.st329{opacity:0.5;fill-rule:evenodd;clip-rule:evenodd;fill:url(#SVGID_143_);}
	.st330{fill-rule:evenodd;clip-rule:evenodd;fill:url(#SVGID_144_);}
	.st331{fill-rule:evenodd;clip-rule:evenodd;fill:url(#SVGID_145_);}
	.st332{fill-rule:evenodd;clip-rule:evenodd;fill:url(#SVGID_146_);}
	.st333{opacity:0.5;fill-rule:evenodd;clip-rule:evenodd;fill:url(#SVGID_147_);}
	.st334{opacity:0.3;fill-rule:evenodd;clip-rule:evenodd;fill:url(#SVGID_148_);}
	.st335{opacity:0.5;fill-rule:evenodd;clip-rule:evenodd;fill:url(#SVGID_149_);}
	.st336{opacity:0.3;fill-rule:evenodd;clip-rule:evenodd;fill:url(#SVGID_150_);}
	.st337{opacity:0.3;fill-rule:evenodd;clip-rule:evenodd;fill:url(#SVGID_151_);}
	.st338{opacity:0.88;fill:#FFFEF3;}
	.st339{fill:#FFD066;}
	.st340{fill:#B0ACAD;}
	.st341{fill:#FFE473;}
	.st342{fill:#FFE888;}
	.st343{fill:#F7C800;}
	.st344{fill:#FFEB97;}
	.st345{clip-path:url(#SVGID_153_);fill:#FFCB33;}
	.st346{clip-path:url(#SVGID_153_);fill:#FFE406;}
</style>
<path class="st6" d="M12.17,137.78H7.7c-3.99,0-7.23-3.24-7.23-7.23l0-17.1c0-3.99,3.24-7.23,7.23-7.23h4.47
	c3.99,0,7.23,3.24,7.23,7.23v17.1C19.41,134.54,16.17,137.78,12.17,137.78z"/>
<path class="st6" d="M44.95,147.38h-4.47c-3.99,0-7.23-3.24-7.23-7.23v-35.82c0-3.99,3.24-7.23,7.23-7.23h4.47
	c3.99,0,7.23,3.24,7.23,7.23v35.82C52.18,144.15,48.95,147.38,44.95,147.38z"/>
<path class="st6" d="M76.51,127.26h-4.47c-3.99,0-7.23-3.24-7.23-7.23v-8.19c0-3.99,3.24-7.23,7.23-7.23h4.47
	c3.99,0,7.23,3.24,7.23,7.23v8.19C83.75,124.02,80.51,127.26,76.51,127.26z"/>
<path class="st6" d="M106.16,144.55h-4.47c-3.99,0-7.23-3.24-7.23-7.23V98.5c0-3.99,3.24-7.23,7.23-7.23h4.47
	c3.99,0,7.23,3.24,7.23,7.23v38.81C113.39,141.31,110.15,144.55,106.16,144.55z"/>
<path class="st6" d="M137.72,165.84h-4.47c-3.99,0-7.23-3.24-7.23-7.23V73.26c0-3.99,3.24-7.23,7.23-7.23h4.47
	c3.99,0,7.23,3.24,7.23,7.23v85.34C144.95,162.6,141.71,165.84,137.72,165.84z"/>
<path class="st6" d="M169.09,156.02h-4.47c-3.99,0-7.23-3.24-7.23-7.23V86.83c0-3.99,3.24-7.23,7.23-7.23h4.47
	c3.99,0,7.23,3.24,7.23,7.23v61.95C176.32,152.78,173.09,156.02,169.09,156.02z"/>
<path class="st343" d="M200.84,190.38h-4.47c-3.99,0-7.23-3.24-7.23-7.23V50.32c0-3.99,3.24-7.23,7.23-7.23h4.47
	c3.99,0,7.23,3.24,7.23,7.23v132.83C208.07,187.14,204.84,190.38,200.84,190.38z"/>
<path class="st343" d="M230.3,201.6h-4.47c-3.99,0-7.23-3.24-7.23-7.23V27.57c0-3.99,3.24-7.23,7.23-7.23h4.47
	c3.99,0,7.23,3.24,7.23,7.23v166.81C237.53,198.37,234.29,201.6,230.3,201.6z"/>
<path class="st344" d="M261.67,217.74l-4.47,0c-3.99,0-7.23-3.24-7.23-7.23V32.07c0-3.99,3.24-7.23,7.23-7.23h4.47
	c3.99,0,7.23,3.24,7.23,7.23V210.5C268.9,214.5,265.67,217.74,261.67,217.74z"/>
<path class="st6" d="M573.3,136.62h4.47c3.99,0,7.23-3.24,7.23-7.23v-17.1c0-3.99-3.24-7.23-7.23-7.23h-4.47
	c-3.99,0-7.23,3.24-7.23,7.23v17.1C566.06,133.38,569.3,136.62,573.3,136.62z"/>
<path class="st6" d="M540.52,146.22h4.47c3.99,0,7.23-3.24,7.23-7.23v-35.82c0-3.99-3.24-7.23-7.23-7.23h-4.47
	c-3.99,0-7.23,3.24-7.23,7.23v35.82C533.29,142.98,536.52,146.22,540.52,146.22z"/>
<path class="st6" d="M508.96,126.1h4.47c3.99,0,7.23-3.24,7.23-7.23v-8.19c0-3.99-3.24-7.23-7.23-7.23h-4.47
	c-3.99,0-7.23,3.24-7.23,7.23v8.19C501.72,122.86,504.96,126.1,508.96,126.1z"/>
<path class="st6" d="M479.31,143.39h4.47c3.99,0,7.23-3.24,7.23-7.23V97.34c0-3.99-3.24-7.23-7.23-7.23h-4.47
	c-3.99,0-7.23,3.24-7.23,7.23v38.81C472.08,140.15,475.32,143.39,479.31,143.39z"/>
<path class="st6" d="M447.75,164.68h4.47c3.99,0,7.23-3.24,7.23-7.23V72.1c0-3.99-3.24-7.23-7.23-7.23h-4.47
	c-3.99,0-7.23,3.24-7.23,7.23v85.34C440.52,161.44,443.76,164.68,447.75,164.68z"/>
<path class="st6" d="M416.38,154.86h4.47c3.99,0,7.23-3.24,7.23-7.23l0-61.95c0-3.99-3.24-7.23-7.23-7.23h-4.47
	c-3.99,0-7.23,3.24-7.23,7.23v61.95C409.14,151.62,412.38,154.86,416.38,154.86z"/>
<path class="st343" d="M384.63,189.22h4.47c3.99,0,7.23-3.24,7.23-7.23V49.16c0-3.99-3.24-7.23-7.23-7.23h-4.47
	c-3.99,0-7.23,3.24-7.23,7.23v132.83C377.4,185.98,380.63,189.22,384.63,189.22z"/>
<path class="st343" d="M355.17,200.44h4.47c3.99,0,7.23-3.24,7.23-7.23V26.41c0-3.99-3.24-7.23-7.23-7.23h-4.47
	c-3.99,0-7.23,3.24-7.23,7.23v166.81C347.94,197.21,351.18,200.44,355.17,200.44z"/>
<path class="st344" d="M323.8,216.58l4.47,0c3.99,0,7.23-3.24,7.23-7.23V30.91c0-3.99-3.24-7.23-7.23-7.23h-4.47
	c-3.99,0-7.23,3.24-7.23,7.23v178.43C316.56,213.34,319.8,216.58,323.8,216.58z"/>
<path class="st344" d="M294.82,235.97h-4.47c-3.99,0-7.23-3.24-7.23-7.23V7.75c0-3.99,3.24-7.23,7.23-7.23l4.47,0
	c3.99,0,7.23,3.24,7.23,7.23v220.99C302.06,232.73,298.82,235.97,294.82,235.97z"/>
</svg>
