<?xml version="1.0" encoding="utf-8"?>
<!-- Generator: Adobe Illustrator 24.2.3, SVG Export Plug-In . SVG Version: 6.00 Build 0)  -->
<svg version="1.1" id="Слой_1" xmlns="http://www.w3.org/2000/svg" xmlns:xlink="http://www.w3.org/1999/xlink" x="0px" y="0px"
	 viewBox="0 0 585 1017" style="enable-background:new 0 0 585 1017;" xml:space="preserve">
<style type="text/css">
	.st0{clip-path:url(#SVGID_2_);fill:#FFE406;}
	.st1{opacity:0.5;clip-path:url(#SVGID_2_);}
	.st2{fill:#A3CAFF;}
	.st3{fill:#FF8C00;}
	.st4{clip-path:url(#SVGID_2_);fill:#FFEDA1;}
	.st5{clip-path:url(#SVGID_2_);}
	.st6{fill:#FFCB33;}
	.st7{fill:#FFEDA1;}
	.st8{fill:#2A356B;}
	.st9{clip-path:url(#SVGID_2_);fill:#FFCB33;}
	.st10{clip-path:url(#SVGID_2_);fill:#A3CAFF;}
	.st11{clip-path:url(#SVGID_2_);fill:#FF8C00;}
	.st12{clip-path:url(#SVGID_2_);fill:#2A356B;}
	.st13{fill:#1B254E;}
	.st14{clip-path:url(#SVGID_2_);fill:#C32C28;}
	.st15{clip-path:url(#SVGID_2_);fill:#FF7400;}
	.st16{fill:#FFE406;}
	.st17{clip-path:url(#SVGID_2_);fill:#FFEF6E;}
	.st18{clip-path:url(#SVGID_4_);fill:#FFE473;}
	.st19{fill:#FFFFFF;}
	.st20{fill:#FF6567;}
	.st21{fill:url(#SVGID_5_);}
	.st22{fill:#ADD8C3;}
	.st23{fill:none;stroke:#FFFFFF;stroke-miterlimit:10;}
	.st24{fill:#A2CBAB;}
	.st25{fill:#96CDA1;}
	.st26{opacity:0.76;}
	.st27{fill:#C4E9CD;}
	.st28{fill:url(#SVGID_6_);}
	.st29{fill:url(#SVGID_7_);}
	.st30{fill:#F6E6BE;}
	.st31{fill:url(#SVGID_8_);}
	.st32{fill:url(#SVGID_9_);}
	.st33{fill:url(#SVGID_10_);}
	.st34{fill:#E4EEC4;}
	.st35{fill:#EFFBD2;}
	.st36{fill:url(#SVGID_11_);}
	.st37{fill:url(#SVGID_12_);}
	.st38{fill:url(#SVGID_13_);}
	.st39{fill:url(#SVGID_14_);}
	.st40{fill:#FFE493;}
	.st41{clip-path:url(#SVGID_16_);fill:url(#SVGID_17_);}
	.st42{fill:#5B2A1E;}
	.st43{fill:#907673;}
	.st44{fill:url(#SVGID_18_);}
	.st45{fill:url(#SVGID_19_);}
	.st46{fill:url(#SVGID_20_);}
	.st47{fill:url(#SVGID_21_);}
	.st48{fill:#FE82C8;}
	.st49{opacity:0.62;clip-path:url(#SVGID_23_);fill:#FFFFFF;}
	.st50{opacity:0.75;clip-path:url(#SVGID_23_);fill:#FFFFFF;}
	.st51{opacity:0.41;clip-path:url(#SVGID_23_);fill:#FFFFFF;}
	.st52{clip-path:url(#SVGID_23_);fill:none;}
	.st53{clip-path:url(#SVGID_25_);}
	.st54{opacity:0.26;fill:#FFFFFF;}
	.st55{opacity:0.69;fill:#FFFFFF;}
	.st56{fill:none;}
	.st57{opacity:0.16;fill:#FFFFFF;}
	.st58{opacity:0.3;fill:#FFFFFF;}
	.st59{opacity:0.23;fill:#FFFFFF;}
	.st60{opacity:0.24;fill:#FFFFFF;}
	.st61{opacity:0.17;}
	.st62{opacity:0.05;fill:#E2E8E4;}
	.st63{clip-path:url(#SVGID_27_);}
	.st64{opacity:0.76;clip-path:url(#SVGID_27_);fill:#FFFFFF;}
	.st65{clip-path:url(#SVGID_27_);fill:url(#SVGID_28_);}
	.st66{clip-path:url(#SVGID_27_);fill:none;stroke:#FFFFFF;stroke-width:2;stroke-linecap:round;stroke-miterlimit:10;}
	.st67{clip-path:url(#SVGID_27_);fill:url(#SVGID_29_);}
	.st68{clip-path:url(#SVGID_27_);fill:url(#SVGID_30_);}
	.st69{clip-path:url(#SVGID_27_);fill:url(#SVGID_31_);}
	.st70{clip-path:url(#SVGID_27_);fill:url(#SVGID_32_);}
	.st71{clip-path:url(#SVGID_27_);fill:#FFFFFF;}
	.st72{clip-path:url(#SVGID_27_);fill:url(#SVGID_33_);}
	.st73{opacity:0.62;clip-path:url(#SVGID_35_);fill:#FFFFFF;}
	.st74{clip-path:url(#SVGID_35_);fill:#FFFFFF;}
	.st75{opacity:0.41;clip-path:url(#SVGID_35_);fill:#FFFFFF;}
	.st76{clip-path:url(#SVGID_35_);fill:none;}
	.st77{clip-path:url(#SVGID_37_);}
	.st78{fill:url(#SVGID_38_);}
	.st79{opacity:0.74;clip-path:url(#SVGID_40_);fill:url(#SVGID_41_);}
	.st80{fill:#E5E5E5;}
	.st81{fill:none;stroke:#4D4D4D;stroke-width:0.75;stroke-linecap:round;stroke-miterlimit:10;}
	.st82{fill:url(#SVGID_42_);}
	.st83{opacity:0.74;fill:url(#SVGID_43_);}
	.st84{opacity:0.74;fill:url(#SVGID_44_);}
	.st85{opacity:0.74;fill:url(#SVGID_45_);}
	.st86{opacity:0.74;fill:url(#SVGID_46_);}
	.st87{fill:url(#SVGID_47_);}
	.st88{opacity:0.66;}
	.st89{opacity:0.37;fill:#FFFFFF;}
	.st90{fill:url(#SVGID_48_);}
	.st91{fill:url(#SVGID_49_);}
	.st92{opacity:0.44;clip-path:url(#SVGID_51_);fill:#FFFFD9;}
	.st93{opacity:0.43;clip-path:url(#SVGID_53_);fill:#FFFFFF;}
	.st94{clip-path:url(#SVGID_53_);fill:none;stroke:#FFFFFF;stroke-miterlimit:10;}
	.st95{opacity:0.76;clip-path:url(#SVGID_53_);fill:#FFFFFF;}
	.st96{clip-path:url(#SVGID_53_);fill:#FFFFFF;}
	.st97{opacity:0.08;clip-path:url(#SVGID_53_);fill:#FFFFFF;}
	.st98{opacity:0.27;clip-path:url(#SVGID_53_);fill:#FFFFFF;}
	.st99{opacity:0.37;clip-path:url(#SVGID_53_);fill:#FFFFFF;}
	.st100{clip-path:url(#SVGID_53_);fill:none;}
	.st101{fill:url(#SVGID_54_);}
	.st102{opacity:0.62;clip-path:url(#SVGID_56_);fill:#FFFFFF;}
	.st103{clip-path:url(#SVGID_56_);fill:#FFFFFF;}
	.st104{opacity:0.41;clip-path:url(#SVGID_56_);fill:#FFFFFF;}
	.st105{clip-path:url(#SVGID_56_);fill:none;}
	.st106{clip-path:url(#SVGID_58_);}
	.st107{opacity:0.55;fill:url(#SVGID_59_);}
	.st108{fill:url(#SVGID_60_);}
	.st109{fill:url(#SVGID_61_);}
	.st110{opacity:0.28;}
	.st111{opacity:0.56;clip-path:url(#SVGID_63_);fill:#FFFFFF;}
	.st112{opacity:0.43;clip-path:url(#SVGID_65_);fill:#FFFFFF;}
	.st113{clip-path:url(#SVGID_65_);fill:none;stroke:#FFFFFF;stroke-miterlimit:10;}
	.st114{opacity:0.76;clip-path:url(#SVGID_65_);fill:#FFFFFF;}
	.st115{clip-path:url(#SVGID_65_);fill:#FFFFFF;}
	.st116{opacity:0.08;clip-path:url(#SVGID_65_);fill:#FFFFFF;}
	.st117{opacity:0.27;clip-path:url(#SVGID_65_);fill:#FFFFFF;}
	.st118{opacity:0.37;clip-path:url(#SVGID_65_);fill:#FFFFFF;}
	.st119{clip-path:url(#SVGID_65_);fill:none;}
	.st120{clip-path:url(#SVGID_67_);fill:none;}
	.st121{opacity:0.46;}
	.st122{opacity:0.86;fill:#FFFFFF;}
	.st123{opacity:0.4;}
	.st124{opacity:0.73;fill:#FFFFFF;}
	.st125{opacity:0.54;clip-path:url(#SVGID_69_);fill:#FFFFFF;}
	.st126{fill:#FF8A8A;}
	.st127{opacity:0.75;fill:#FFFFFF;}
	.st128{fill:#FFC181;}
	.st129{clip-path:url(#SVGID_71_);fill:#FFDFBD;}
	.st130{clip-path:url(#SVGID_71_);fill:#FF9D00;}
	.st131{clip-path:url(#SVGID_71_);fill:#FFF3DF;}
	.st132{clip-path:url(#SVGID_73_);fill:#FFBAE4;}
	.st133{opacity:0.8;clip-path:url(#SVGID_73_);fill:#FE82C8;}
	.st134{clip-path:url(#SVGID_73_);fill:#FE82C8;}
	.st135{opacity:0.79;clip-path:url(#SVGID_73_);fill:#FFBAE4;}
	.st136{fill:#FFFEEA;}
	.st137{fill:#58D196;}
	.st138{fill:#A6E5C3;}
	.st139{fill:#D2F2E1;}
	.st140{opacity:0.44;fill:#FFFFFF;}
	.st141{clip-path:url(#SVGID_75_);fill:#FFF9C1;}
	.st142{opacity:0.86;fill:#FFCCD5;}
	.st143{opacity:0.62;clip-path:url(#SVGID_77_);fill:#FFFFFF;}
	.st144{opacity:0.75;clip-path:url(#SVGID_77_);fill:#FFFFFF;}
	.st145{opacity:0.41;clip-path:url(#SVGID_77_);fill:#FFFFFF;}
	.st146{clip-path:url(#SVGID_77_);fill:none;}
	.st147{clip-path:url(#SVGID_79_);}
	.st148{opacity:0.44;clip-path:url(#SVGID_81_);fill:#FFFFFF;}
	.st149{opacity:0.43;clip-path:url(#SVGID_83_);fill:#FFFFFF;}
	.st150{clip-path:url(#SVGID_83_);fill:none;stroke:#FFFFFF;stroke-miterlimit:10;}
	.st151{opacity:0.76;clip-path:url(#SVGID_83_);fill:#FFFFFF;}
	.st152{clip-path:url(#SVGID_83_);fill:#FFFFFF;}
	.st153{opacity:0.08;clip-path:url(#SVGID_83_);fill:#FFFFFF;}
	.st154{opacity:0.27;clip-path:url(#SVGID_83_);fill:#FFFFFF;}
	.st155{opacity:0.37;clip-path:url(#SVGID_83_);fill:#FFFFFF;}
	.st156{clip-path:url(#SVGID_83_);fill:none;}
	.st157{opacity:0.54;clip-path:url(#SVGID_85_);fill:#FFFFFF;}
	.st158{opacity:0.62;fill:#FFFFFF;}
	.st159{opacity:0.41;fill:#FFFFFF;}
	.st160{opacity:0.43;fill:#FFFFFF;}
	.st161{opacity:0.76;fill:#FFFFFF;}
	.st162{opacity:0.08;fill:#FFFFFF;}
	.st163{opacity:0.27;fill:#FFFFFF;}
	.st164{opacity:0.54;fill:#FFFFFF;}
	.st165{clip-path:url(#SVGID_87_);fill:#FF6567;}
	.st166{clip-path:url(#SVGID_87_);fill:#FF8A8A;}
	.st167{clip-path:url(#SVGID_87_);fill:#FFC2C1;}
	.st168{clip-path:url(#SVGID_87_);fill:#FFFFFF;}
	.st169{clip-path:url(#SVGID_89_);fill:#E2E9FF;}
	.st170{clip-path:url(#SVGID_89_);fill:#EEF2FF;}
	.st171{opacity:0.54;clip-path:url(#SVGID_89_);fill:#EEF2FF;}
	.st172{opacity:0.54;clip-path:url(#SVGID_89_);fill:#8FAAF0;}
	.st173{clip-path:url(#SVGID_91_);}
	.st174{fill:#FF6B81;}
	.st175{clip-path:url(#SVGID_91_);fill:none;}
	.st176{fill:#FF1B6F;}
	.st177{clip-path:url(#SVGID_93_);fill:#FFDFBD;}
	.st178{clip-path:url(#SVGID_93_);fill:#FF9D00;}
	.st179{clip-path:url(#SVGID_93_);fill:#FFF3DF;}
	.st180{clip-path:url(#SVGID_95_);fill:#F0C6F4;}
	.st181{opacity:0.8;clip-path:url(#SVGID_95_);fill:#F8E3F8;}
	.st182{clip-path:url(#SVGID_95_);fill:#F8E3F8;}
	.st183{opacity:0.79;clip-path:url(#SVGID_95_);fill:#F0C6F4;}
	.st184{clip-path:url(#SVGID_97_);fill:#FFF9C1;}
	.st185{clip-path:url(#SVGID_99_);fill:#FFC5D6;}
	.st186{clip-path:url(#SVGID_99_);fill:#FF94B3;}
	.st187{clip-path:url(#SVGID_99_);fill:#FF6794;}
	.st188{clip-path:url(#SVGID_99_);fill:#FFFFFF;}
	.st189{clip-path:url(#SVGID_101_);fill:#698DE6;}
	.st190{clip-path:url(#SVGID_101_);fill:#8FAAF0;}
	.st191{opacity:0.54;clip-path:url(#SVGID_101_);fill:#8FAAF0;}
	.st192{clip-path:url(#SVGID_103_);}
	.st193{clip-path:url(#SVGID_103_);fill:none;}
	.st194{opacity:0.46;clip-path:url(#SVGID_107_);}
	.st195{clip-path:url(#SVGID_107_);fill:none;}
	.st196{fill:none;stroke:#FFFFFF;stroke-width:2;stroke-miterlimit:10;}
	.st197{opacity:0.45;fill:#FFFFFF;}
	.st198{opacity:0.8;fill:#FFFFFF;}
	.st199{opacity:0.79;fill:#FFFFFF;}
	.st200{fill:#F2C5AA;}
	.st201{fill:none;stroke:#FFFFFF;stroke-width:0.75;stroke-miterlimit:10;}
	.st202{fill:#FFFFFF;stroke:#FFFFFF;stroke-width:0.25;stroke-miterlimit:10;}
	.st203{fill:#D3C1B2;}
	.st204{fill:#FFC5D6;}
	.st205{clip-path:url(#SVGID_113_);fill:#F787A5;}
	.st206{clip-path:url(#SVGID_113_);fill:#FFE9F2;}
	.st207{clip-path:url(#SVGID_113_);fill:#D3CFB3;}
	.st208{clip-path:url(#SVGID_113_);fill:#FFDBE5;}
	.st209{clip-path:url(#SVGID_113_);}
	.st210{fill:#FFE9F2;}
	.st211{fill:#F787A5;}
	.st212{fill:#F2CCC1;}
	.st213{fill:#DF4E50;}
	.st214{clip-path:url(#SVGID_113_);fill:#FFC5D6;}
	.st215{fill:#FFDBE5;}
	.st216{fill:#FFB9C3;}
	.st217{fill:#FB91B5;}
	.st218{fill:#E3A180;}
	.st219{fill:#92693D;}
	.st220{fill:#FBBACC;}
	.st221{fill:#E6678D;}
	.st222{fill:#574435;}
	.st223{fill:#C9A47C;}
	.st224{fill:#641F1E;}
	.st225{fill:#F15E89;}
	.st226{fill:#E7005E;}
	.st227{fill:#DEB78A;}
	.st228{fill:#DFB78A;}
	.st229{fill:#FF6794;}
	.st230{fill:#D72264;}
	.st231{fill:#F7F7F7;}
	.st232{fill:#F2F2F2;}
	.st233{fill:#FFFBF0;}
	.st234{fill:#FFBFCF;}
	.st235{fill:#FF9DAE;}
	.st236{fill:#FFC2C1;}
	.st237{fill:#FFCCD5;}
	.st238{fill:#B49E8F;}
	.st239{fill:#FFE2EA;}
	.st240{fill:#A3C5DC;}
	.st241{fill:#DA956B;}
	.st242{fill:#BDA595;}
	.st243{fill:#583B34;}
	.st244{fill:#63443C;}
	.st245{fill:#B2D0E5;}
	.st246{fill:#FCFCFB;}
	.st247{fill:#D0ACA1;}
	.st248{fill:#A2C4DB;}
	.st249{fill:#E1D0C8;}
	.st250{fill:#9C7972;}
	.st251{fill:#77573F;}
	.st252{fill:#F3769C;}
	.st253{fill:#FBFBF9;}
	.st254{fill:#F8C4DC;}
	.st255{fill:#E4BAB5;}
	.st256{clip-path:url(#SVGID_115_);fill:#F787A5;}
	.st257{clip-path:url(#SVGID_115_);fill:#FFE9F2;}
	.st258{clip-path:url(#SVGID_115_);fill:#D3CFB3;}
	.st259{clip-path:url(#SVGID_115_);fill:#FFDBE5;}
	.st260{clip-path:url(#SVGID_115_);}
	.st261{clip-path:url(#SVGID_115_);fill:#FFC5D6;}
	.st262{fill:#00C377;}
	.st263{fill:#88E5AF;}
	.st264{fill:#00B45A;}
	.st265{fill:#7FDAAA;}
	.st266{fill:#F2BC3A;}
	.st267{fill:#B99F65;}
	.st268{fill:#98D284;}
	.st269{fill:#3C3724;}
	.st270{fill:#D6BEA2;}
	.st271{fill:#9C8274;}
	.st272{fill:#587147;}
	.st273{fill:#E7D6BE;}
	.st274{fill:#5CC689;}
	.st275{clip-path:url(#SVGID_117_);fill:#A6E5C3;}
	.st276{clip-path:url(#SVGID_117_);fill:#FFFFFF;}
	.st277{clip-path:url(#SVGID_117_);fill:#58D196;}
	.st278{fill:#FFEF6E;}
	.st279{fill:#FFE200;}
	.st280{clip-path:url(#SVGID_119_);fill:#FDA157;}
	.st281{clip-path:url(#SVGID_119_);fill-rule:evenodd;clip-rule:evenodd;fill:#FF8429;}
	.st282{clip-path:url(#SVGID_119_);fill:#F35000;}
	.st283{clip-path:url(#SVGID_119_);fill:#F9B946;}
	.st284{fill:#F35000;}
	.st285{fill:#FF8429;}
	.st286{fill:#FFAC33;}
	.st287{fill:#E56D00;}
	.st288{fill:#EF6406;}
	.st289{fill:#FF9C00;}
	.st290{fill:#130077;}
	.st291{fill:#FFB58D;}
	.st292{opacity:0.3;}
	.st293{fill:#FF7300;}
	.st294{fill:#6E0000;}
	.st295{fill-rule:evenodd;clip-rule:evenodd;fill:#FF9C00;}
	.st296{fill-rule:evenodd;clip-rule:evenodd;fill:url(#SVGID_120_);}
	.st297{opacity:0.3;fill-rule:evenodd;clip-rule:evenodd;fill:#A4002C;}
	.st298{fill-rule:evenodd;clip-rule:evenodd;fill:url(#SVGID_121_);}
	.st299{fill-rule:evenodd;clip-rule:evenodd;fill:url(#SVGID_122_);}
	.st300{opacity:0.5;fill-rule:evenodd;clip-rule:evenodd;fill:url(#SVGID_123_);}
	.st301{fill-rule:evenodd;clip-rule:evenodd;fill:#FFC485;}
	.st302{fill-rule:evenodd;clip-rule:evenodd;fill:url(#SVGID_124_);}
	.st303{fill-rule:evenodd;clip-rule:evenodd;fill:url(#SVGID_125_);}
	.st304{fill-rule:evenodd;clip-rule:evenodd;fill:url(#SVGID_126_);}
	.st305{opacity:0.5;fill-rule:evenodd;clip-rule:evenodd;fill:url(#SVGID_127_);}
	.st306{fill-rule:evenodd;clip-rule:evenodd;fill:#FDA157;}
	.st307{opacity:0.5;fill-rule:evenodd;clip-rule:evenodd;fill:#FDA157;}
	.st308{fill-rule:evenodd;clip-rule:evenodd;fill:#FF8429;}
	.st309{fill-rule:evenodd;clip-rule:evenodd;fill:#FFAC33;}
	.st310{opacity:0.62;fill-rule:evenodd;clip-rule:evenodd;fill:#C8002A;}
	.st311{opacity:0.5;fill-rule:evenodd;clip-rule:evenodd;fill:#FF8429;}
	.st312{opacity:0.5;fill-rule:evenodd;clip-rule:evenodd;fill:#8F5472;}
	.st313{opacity:0.3;fill-rule:evenodd;clip-rule:evenodd;fill:url(#SVGID_128_);}
	.st314{opacity:0.5;fill-rule:evenodd;clip-rule:evenodd;fill:url(#SVGID_129_);}
	.st315{opacity:0.3;fill-rule:evenodd;clip-rule:evenodd;fill:url(#SVGID_130_);}
	.st316{opacity:0.3;fill-rule:evenodd;clip-rule:evenodd;fill:url(#SVGID_131_);}
	.st317{clip-path:url(#SVGID_133_);}
	.st318{clip-path:url(#SVGID_133_);fill:#FF8429;}
	.st319{fill:#FDA157;}
	.st320{clip-path:url(#SVGID_135_);}
	.st321{fill:#F58800;}
	.st322{clip-path:url(#SVGID_137_);}
	.st323{fill:#F9B946;}
	.st324{clip-path:url(#SVGID_139_);}
	.st325{clip-path:url(#SVGID_139_);fill:#FF8429;}
	.st326{fill-rule:evenodd;clip-rule:evenodd;fill:url(#SVGID_140_);}
	.st327{fill-rule:evenodd;clip-rule:evenodd;fill:url(#SVGID_141_);}
	.st328{fill-rule:evenodd;clip-rule:evenodd;fill:url(#SVGID_142_);}
	.st329{opacity:0.5;fill-rule:evenodd;clip-rule:evenodd;fill:url(#SVGID_143_);}
	.st330{fill-rule:evenodd;clip-rule:evenodd;fill:url(#SVGID_144_);}
	.st331{fill-rule:evenodd;clip-rule:evenodd;fill:url(#SVGID_145_);}
	.st332{fill-rule:evenodd;clip-rule:evenodd;fill:url(#SVGID_146_);}
	.st333{opacity:0.5;fill-rule:evenodd;clip-rule:evenodd;fill:url(#SVGID_147_);}
	.st334{opacity:0.3;fill-rule:evenodd;clip-rule:evenodd;fill:url(#SVGID_148_);}
	.st335{opacity:0.5;fill-rule:evenodd;clip-rule:evenodd;fill:url(#SVGID_149_);}
	.st336{opacity:0.3;fill-rule:evenodd;clip-rule:evenodd;fill:url(#SVGID_150_);}
	.st337{opacity:0.3;fill-rule:evenodd;clip-rule:evenodd;fill:url(#SVGID_151_);}
	.st338{opacity:0.88;fill:#FFFEF3;}
	.st339{fill:#FFD066;}
	.st340{fill:#B0ACAD;}
	.st341{fill:#FFE473;}
	.st342{fill:#FFE888;}
	.st343{fill:#F7C800;}
	.st344{fill:#FFEB97;}
	.st345{clip-path:url(#SVGID_153_);fill:#FFCB33;}
	.st346{clip-path:url(#SVGID_153_);fill:#FFE406;}
</style>
<g>
	<path class="st341" d="M565.52,1016c0.47-128.46,0.52-232.53,0.47-306.01c-0.06-80.16-0.27-135.25-0.16-251.85
		c0.04-45.43,0.15-90.86,0.12-136.3c-0.06-70.21-0.21-140.42-0.32-210.64c-3.4-44.63-29.69-82.76-77.36-90.13
		c-3.06-0.47-6.19-0.78-9.29-0.78c-32.26-0.03-64.53-0.53-96.77,0.21c-25.74,0.6-50.68,6.05-69.83,24.52
		c-20.24,19.53-28.99,43.48-23.58,71.98c1.19,6.26,4.92,6.56,9.02,7.72c27.13,7.65,47.63,23.11,59.3,49.13
		c3.55,7.91,5.92,16.13,6.86,24.73c0.34,3.08,0.17,6.09,3.22,8.23c2.89,2.02,3.51,5.15,2.14,8.3c-1.48,3.4-4.75,3.56-7.97,3.55
		c-12.49-0.04-24.97-0.09-37.46-0.09c-42.31-0.01-84.63,0.03-126.95-0.03c-4.01,0-8.81,1.21-11.08-3.54c-2-4.19,1.78-6.53,3.53-9.77
		c2.34-4.33,2.53-9.8,3.67-14.77c7.52-32.65,27.87-54.04,59.62-63.95c11.51-3.59,15.46-11.01,15.38-20.79
		c-0.46-55.43,38.23-92.32,91.33-99.99c46.79-6.76,93.78-6.41,140.66,0.01c10.78,1.48,20.07,7.37,30.29,10.53
		c6.21,4.08,12.41,8.15,18.62,12.22c15.08,15.37,27.75,32.13,32.4,53.74c3.85,17.91,3.47,31.98,3.21,35.8
		c-2.53,37.17-1.84,390.31,0.42,897.94C578.51,1016,572.02,1016,565.52,1016z"/>
	<path class="st342" d="M0.16,818.75c2.01-25.69,17.23-41.17,39.43-51.47c5.59-2.59,10.54-6.28,13.06-14.28
		c-12.4,3.9-23.24,0.74-34.17-0.22c-7.79-0.68-15.96-1.65-18.05-10.91c-2-8.85,3.3-15.68,9.71-20.44
		c10.63-7.89,23.31-5.62,35.19-3.87c5.5,0.81,5.56,7.29,6.05,12.11c0.39,3.82,0.08,8.09,5,9.1c5.7,1.17,5.6-4.4,7.02-7.29
		c9.78-19.82,18.02-40.39,29.75-59.28c5.44-8.76,12.66-12.89,22.69-13.96c83.37-8.89,166.87-7.3,250.4-3.13
		c2.74,0.14,5.49,1.42,8.16,1.24c26.6-1.82,40.89,12.83,50.68,35.6c7.23,16.81,16.76,32.64,25.15,48.96c1.63,3.18,2.91,6.61,7.4,5.7
		c4.32-0.88,5.78-3.88,6.44-8.17c2.23-14.54,2.41-14.32,17.02-14.62c11.73-0.24,23.02-0.07,30.44,11.31
		c7.84,12.03,3.74,21.68-10.45,24.05c-11.97,2-23.98,3.43-36.84,1.83c1.32,6.54,6.49,8.31,10.85,10.18
		c28.7,12.36,38.65,35.24,38.73,64.98c0.07,24.96-1.75,49.8-2.54,74.7c-1.92,10.03-4.52,19.99-5.6,30.1
		c-1.56,14.56-14.29,27.58-29.04,28.19c-11.03,0.46-22.06,0.74-33.09,1.1c-29.49-0.04-58.98,0.1-88.47-0.15
		c-94.71-0.82-189.42-1.78-284.13-2.69c-13.84-5.13-28.73-0.25-43.04-5.6c-10.31-3.86-15.28-6.66-18.25-17.7
		c-2.73-10.16-4.09-20.34-4.15-33.4c-1.82,4.39-2.55,6.16-3.28,7.93c1.14-19.53,0.37-39-1.99-58.4
		C0.23,846.43,0.2,832.59,0.16,818.75z M446.41,756.59c-4.25-17.64-9.62-31.46-13.98-41.14c-5.4-12.01-9.45-18.14-12.98-22.72
		c-2.98-3.86-8.36-10.85-16.23-16.23c-12.84-8.78-26.64-9.42-32.46-9.74c-144.41-7.97-173.1-6.4-230.48-3.25
		c-8.76,0.48-25.53,1.39-38.95,12.98c-5.96,5.15-9.4,10.81-19.48,32.46c-5.22,11.21-11.83,25.89-19.14,43.39
		C190.61,753.77,318.51,755.18,446.41,756.59z M263,824.14c0-0.02,0-0.04,0-0.05c-32.91,0-65.82-0.11-98.73,0.06
		c-11.98,0.06-15.13,5.72-10.34,16.75c2.3,5.3,4.47,10.8,5.6,16.43c4.38,21.74,12.98,42.21,18.81,63.5
		c1.11,4.05,3.14,7.31,8.58,7.29c48.84-0.18,97.69-0.12,146.53-0.17c5.51,0,8.09-2.32,9.81-8.22c7.49-25.82,15.7-51.44,24.01-77.01
		c4.26-13.1,0.91-18.51-12.82-18.55C323.96,824.08,293.48,824.14,263,824.14z M421.9,865.68c13.79,1.55,30.31-1.1,46.43-4.84
		c8.65-2.01,20.35-1.16,23.6-13.49c1.89-7.16,1.82-14.5,0.44-21.64c-1.47-7.64-5.59-10.73-14.5-10.97
		c-23.31-0.62-45.64,4.23-67.83,9.85c-5.4,1.37-13.11,1.26-16,7.03c-3.81,7.6-6.11,16.01-8.49,24.24c-1.75,6.05,0.03,10.1,7.5,9.87
		C401.67,865.48,410.3,865.68,421.9,865.68z M47.02,807.32c-1.04,0-2.08,0.01-3.12,0c-9.08-0.15-18.65-1.4-21.11,11.17
		c-3.63,18.56,0.05,28.22,14.25,32.66c26.35,8.25,53.85,8.31,81.07,9.33c10.14,0.38,12.43-3.91,10.08-13.57
		c-1.06-4.36-2.62-8.61-3.53-13c-1.63-7.84-5.84-12.4-13.83-14.85C89.97,812.66,68.71,808.94,47.02,807.32z M442.14,906.89
		c-17.29-0.24-34.44,0.93-51.42,4.31c-2,0.4-4.63,0.07-5.34,2.39c-2.75,8.99,1.85,16.94,4.35,25.04c1.71,5.53,7.11,5.46,12.17,5.7
		c17.04,0.8,33.76-2.29,50.63-3.61c16.21-1.28,25.01-9.22,25.46-25.45c0.16-5.68-0.76-9.78-8.84-8.66
		C460.3,907.84,451.15,906.89,442.14,906.89z M95.93,936.22c6.57,0,13.15-0.06,19.72,0.02c4.11,0.05,7.35-0.72,8.87-5.32
		c2.56-7.74,7.92-14.82,5.6-23.64c-0.48-1.83-2.7-1.75-4.39-2.1c-25.98-5.33-52.49-3.82-78.71-6.08c-2.55-0.22-5.56-0.87-7.37,2.27
		c-5.32,9.25,2.57,28.47,13.15,30.85C66.97,935.39,81.39,936.64,95.93,936.22z M261.9,938.78c0-0.08,0-0.17,0-0.25
		c-18.03,0-36.06-0.04-54.08,0.04c-3.09,0.01-6.36-0.03-9.21,0.95c-2.89,0.99-6.25,3.38-6.07,6.49c0.27,4.67,4.87,2.84,7.48,2.88
		c40.87,0.64,81.74,1.09,122.61,1.47c3.17,0.03,8.02,1.27,8.31-3.49c0.21-3.32-3.34-6-6.78-6.95c-2.95-0.82-6.13-1.06-9.21-1.08
		C297.26,938.73,279.58,938.78,261.9,938.78z"/>
	<path class="st341" d="M443.56,970.27c11.03-0.36,22.07-0.64,33.1-1.1c14.75-0.62,27.48-13.64,29.04-28.19
		c1.08-10.12,3.68-20.07,5.6-30.1c2.84,30.08,5.46,60.15-2.08,90c-19.6,20.1-42,20.04-60.28-0.16
		C443.2,991.26,446.05,980.3,443.56,970.27z"/>
	<path class="st341" d="M2.25,918.66c0.73-1.77,1.46-3.54,3.28-7.93c0.06,13.07,1.41,23.24,4.15,33.4
		c2.97,11.03,7.94,13.84,18.25,17.7c14.31,5.35,29.2,0.47,43.03,5.61c0.07,11.33-0.14,22.57-8.95,31.35
		c-11.49,12.43-38.63,13.54-51.37-0.53c-5.92-6.39-8.59-14.06-8.59-22.66C2.05,956.62,2.18,937.64,2.25,918.66z"/>
	<path class="st341" d="M305.23,502.84c-1.34,10.93-5.12,20.58-14.47,24.44c-9.81,4.04-20.94,4.9-30.09-3.51
		c-8.76-8.04-11.05-17.64-7.81-29.12c4.36-15.51,13.43-28.55,21.17-42.3c1.25-2.23,3.12-6.29,5.85-2.41
		C291.41,466.34,301.76,483.41,305.23,502.84z"/>
	<path class="st341" d="M56.95,653.22c-18.86-0.26-29.93-17.58-23.95-35.62c4.81-14.5,15.29-25.76,20.76-39.8
		c1.63-4.18,5.53-4.34,7.9-0.25c8.3,14.3,18.35,27.94,20.94,44.78C85.43,640.63,74.41,653.46,56.95,653.22z"/>
	<path class="st341" d="M280.19,386.54c-15.45-0.23-27.27-14.27-24.11-29.66c3.32-16.16,12.6-29.7,20.98-43.55
		c2.21-3.66,4.74-3.75,7.15-0.15c9.08,13.55,17.96,27.31,20.98,43.64C308.18,373.05,296.25,386.78,280.19,386.54z"/>
	<path class="st341" d="M360.1,602.94c-16.96-0.13-28.74-14.31-24.87-30.62c3.39-14.3,10.58-27.07,17.84-39.68
		c3.95-6.87,7.95-7.42,12.53,0.34c7.22,12.24,14.39,24.33,17.76,38.38C386.99,586.56,375.1,603.05,360.1,602.94z"/>
	<path class="st341" d="M188.83,587.25c-0.54-15.36,7.89-26.11,13.93-37.51c9.44-17.82,10.17-17.71,20.53-0.38
		c6.15,10.27,12.16,20.76,13.91,32.97c2.21,15.33-7.55,28.38-21.86,29.15C198.75,612.38,188.67,602.67,188.83,587.25z"/>
	<path class="st341" d="M101.75,478.41c1.15,11.41-5.25,18.6-13.94,23.71c-6.93,4.08-21.96,1.26-27.18-4.88
		c-6.65-7.82-10.56-15.85-6.23-27.38c4.91-13.07,11.51-25.02,18.14-37.1c2.11-3.84,5.64-6.83,8.63-1.99
		C90.36,445.61,101.21,459.89,101.75,478.41z"/>
	<path class="st341" d="M463.99,373.54c-0.29,12.75-4.34,21.23-14.92,25.76c-10.45,4.48-20.15,2.38-27.76-5.22
		c-7.31-7.3-8.91-16.43-5.12-26.77c4.65-12.7,10.74-24.52,17.98-35.86c3.65-5.72,5.97-6.38,10.09,0.04
		C453.03,345.18,461.96,358.64,463.99,373.54z"/>
	<path class="st341" d="M420.07,515.6c1.15-10.34,6.27-21.6,12.79-32.25c12.79-20.9,13.15-21,24.95,1.19
		c4.98,9.36,9.62,18.98,10.89,29.95c1.69,14.62-8.27,27.04-23.48,28.13C432.07,543.56,420.2,531.9,420.07,515.6z"/>
	<path class="st341" d="M347.06,426.84c-0.01-12.3,6.14-22.4,12.15-32.36c10.46-17.31,11.15-17.46,21.74-0.38
		c6.25,10.08,12.34,20.63,12.18,33.3c-0.19,14.85-9.43,24.18-23.84,23.84C355.56,450.92,346.97,441.48,347.06,426.84z"/>
	<path class="st341" d="M497.06,634.77c-0.38,10.67-4.99,17.46-13.44,21.64c-8.98,4.45-17.5,3.27-25.16-2.98
		c-6.98-5.7-9.59-13.21-7.73-22.08c3.18-15.12,11.28-28.08,18.47-41.42c2.22-4.11,6.04-4.04,8.24-0.32
		C486.07,604.11,495.03,618.54,497.06,634.77z"/>
	<path class="st341" d="M172.22,421.6c0.78-11.89,10.51-25.54,19.05-39.66c2.21-3.66,4.61-3.28,7.06,0.3
		c8.67,12.67,16.34,25.89,19.33,41.1c2.91,14.82-7.04,26.97-21.95,27.83C181.79,451.98,171.98,441.95,172.22,421.6z"/>
	<path class="st341" d="M232.72,279.34c-0.28,9.53-3.82,16.61-13.17,20.33c-9.17,3.65-17.36,1.81-23.81-4.82
		c-6.07-6.23-7.79-13.9-4.53-22.84c4.15-11.38,10.56-21.54,15.8-32.32c1.38-2.84,4.28-6.74,7.58-1.38
		C222.49,251.18,231.72,263.51,232.72,279.34z"/>
	<path class="st341" d="M161.23,353.79c-0.54,9.01-3.79,16.09-11.75,19.81c-7.64,3.57-15.08,3.46-22.47-1.81
		c-8.22-5.86-10.79-13.96-8.28-22.69c3.61-12.59,10.02-24.16,17.29-35.12c1.94-2.93,4.68-4.84,7.24-0.78
		C151.32,326,159.36,338.85,161.23,353.79z"/>
	<path class="st341" d="M122.18,518.47c0.78-13.16,8.32-23.58,14.7-34.44c1.9-3.23,4.43-2.77,6.15,0.67
		c5.06,10.1,12.29,19.18,14.16,30.77c1.29,7.97-1.66,14.61-7.72,19.1c-5.26,3.9-12.21,3.36-17.81,0.73
		C125.15,532.22,120.78,526.76,122.18,518.47z"/>
	<path class="st341" d="M372.54,275.04c0.84,5.54-2.13,11.53-9.26,14.58c-6.64,2.84-13.72,2.62-19.6-2.03
		c-5.96-4.72-7.04-11.14-5.44-18.57c2.39-11.04,8.89-20.02,13.9-29.73c1.67-3.22,4.98-3.42,6.51-0.38
		C364.12,249.8,372.36,259.65,372.54,275.04z"/>
	<path class="st6" d="M421.9,865.68c-11.6,0-20.23-0.2-28.85,0.06c-7.47,0.23-9.25-3.82-7.5-9.87c2.38-8.23,4.68-16.65,8.49-24.24
		c2.89-5.77,10.61-5.67,16-7.03c22.19-5.62,44.52-10.47,67.83-9.85c8.92,0.24,13.03,3.33,14.5,10.97
		c1.38,7.15,1.44,14.49-0.44,21.64c-3.25,12.33-14.95,11.48-23.6,13.49C452.21,864.58,435.7,867.23,421.9,865.68z"/>
	<path class="st6" d="M47.02,807.32c21.7,1.62,42.95,5.33,63.81,11.74c7.99,2.45,12.2,7.01,13.83,14.85c0.91,4.39,2.47,8.64,3.53,13
		c2.35,9.65,0.05,13.95-10.08,13.57c-27.22-1.02-54.72-1.08-81.07-9.33c-14.2-4.45-17.88-14.11-14.25-32.66
		c2.46-12.57,12.03-11.31,21.11-11.17C44.94,807.34,45.98,807.32,47.02,807.32z M56.07,847.25c-16.15-6.84-19.2-20.92-22.39-34.9
		C23.24,839.57,33.06,851.58,56.07,847.25z"/>
	<path class="st6" d="M442.14,906.89c9.01,0,18.16,0.95,27-0.28c8.08-1.12,9,2.97,8.84,8.66c-0.45,16.23-9.26,24.17-25.46,25.45
		c-16.87,1.33-33.58,4.42-50.63,3.61c-5.06-0.24-10.46-0.17-12.17-5.7c-2.5-8.1-7.1-16.05-4.35-25.04c0.71-2.32,3.34-1.99,5.34-2.39
		C407.7,907.82,424.85,906.65,442.14,906.89z"/>
	<path class="st6" d="M95.93,936.22c-14.54,0.42-28.96-0.82-43.13-4c-10.59-2.37-18.48-21.6-13.15-30.85
		c1.81-3.14,4.82-2.49,7.37-2.27c26.22,2.26,52.73,0.75,78.71,6.08c1.69,0.35,3.91,0.27,4.39,2.1c2.32,8.82-3.04,15.89-5.6,23.64
		c-1.52,4.6-4.77,5.37-8.87,5.32C109.07,936.16,102.5,936.22,95.93,936.22z"/>
	<path class="st6" d="M261.9,938.78c17.68,0,35.36-0.05,53.04,0.05c3.08,0.02,6.26,0.26,9.21,1.08c3.45,0.96,6.99,3.63,6.78,6.95
		c-0.29,4.76-5.14,3.52-8.31,3.49c-40.87-0.38-81.74-0.83-122.61-1.47c-2.61-0.04-7.21,1.79-7.48-2.88
		c-0.18-3.12,3.18-5.5,6.07-6.49c2.85-0.98,6.12-0.94,9.21-0.95c18.03-0.08,36.06-0.04,54.08-0.04
		C261.9,938.61,261.9,938.69,261.9,938.78z"/>
</g>
</svg>
