<?xml version="1.0" encoding="utf-8"?>
<!-- Generator: Adobe Illustrator 24.2.3, SVG Export Plug-In . SVG Version: 6.00 Build 0)  -->
<svg version="1.1" id="Слой_1" xmlns="http://www.w3.org/2000/svg" xmlns:xlink="http://www.w3.org/1999/xlink" x="0px" y="0px"
	 viewBox="0 0 585 503" style="enable-background:new 0 0 585 503;" xml:space="preserve">
<style type="text/css">
	.st0{clip-path:url(#SVGID_2_);fill:#FFE406;}
	.st1{opacity:0.5;clip-path:url(#SVGID_2_);}
	.st2{fill:#A3CAFF;}
	.st3{fill:#FF8C00;}
	.st4{clip-path:url(#SVGID_2_);fill:#FFEDA1;}
	.st5{clip-path:url(#SVGID_2_);}
	.st6{fill:#FFCB33;}
	.st7{fill:#FFEDA1;}
	.st8{fill:#2A356B;}
	.st9{clip-path:url(#SVGID_2_);fill:#FFCB33;}
	.st10{clip-path:url(#SVGID_2_);fill:#A3CAFF;}
	.st11{clip-path:url(#SVGID_2_);fill:#FF8C00;}
	.st12{clip-path:url(#SVGID_2_);fill:#2A356B;}
	.st13{fill:#1B254E;}
	.st14{clip-path:url(#SVGID_2_);fill:#C32C28;}
	.st15{clip-path:url(#SVGID_2_);fill:#FF7400;}
	.st16{fill:#FFE406;}
	.st17{clip-path:url(#SVGID_2_);fill:#FFEF6E;}
	.st18{clip-path:url(#SVGID_4_);fill:#FFE473;}
	.st19{fill:#FFFFFF;}
	.st20{fill:#FF6567;}
	.st21{fill:url(#SVGID_5_);}
	.st22{fill:#ADD8C3;}
	.st23{fill:none;stroke:#FFFFFF;stroke-miterlimit:10;}
	.st24{fill:#A2CBAB;}
	.st25{fill:#96CDA1;}
	.st26{opacity:0.76;}
	.st27{fill:#C4E9CD;}
	.st28{fill:url(#SVGID_6_);}
	.st29{fill:url(#SVGID_7_);}
	.st30{fill:#F6E6BE;}
	.st31{fill:url(#SVGID_8_);}
	.st32{fill:url(#SVGID_9_);}
	.st33{fill:url(#SVGID_10_);}
	.st34{fill:#E4EEC4;}
	.st35{fill:#EFFBD2;}
	.st36{fill:url(#SVGID_11_);}
	.st37{fill:url(#SVGID_12_);}
	.st38{fill:url(#SVGID_13_);}
	.st39{fill:url(#SVGID_14_);}
	.st40{fill:#FFE493;}
	.st41{clip-path:url(#SVGID_16_);fill:url(#SVGID_17_);}
	.st42{fill:#5B2A1E;}
	.st43{fill:#907673;}
	.st44{fill:url(#SVGID_18_);}
	.st45{fill:url(#SVGID_19_);}
	.st46{fill:url(#SVGID_20_);}
	.st47{fill:url(#SVGID_21_);}
	.st48{fill:#FE82C8;}
	.st49{opacity:0.62;clip-path:url(#SVGID_23_);fill:#FFFFFF;}
	.st50{opacity:0.75;clip-path:url(#SVGID_23_);fill:#FFFFFF;}
	.st51{opacity:0.41;clip-path:url(#SVGID_23_);fill:#FFFFFF;}
	.st52{clip-path:url(#SVGID_23_);fill:none;}
	.st53{clip-path:url(#SVGID_25_);}
	.st54{opacity:0.26;fill:#FFFFFF;}
	.st55{opacity:0.69;fill:#FFFFFF;}
	.st56{fill:none;}
	.st57{opacity:0.16;fill:#FFFFFF;}
	.st58{opacity:0.3;fill:#FFFFFF;}
	.st59{opacity:0.23;fill:#FFFFFF;}
	.st60{opacity:0.24;fill:#FFFFFF;}
	.st61{opacity:0.17;}
	.st62{opacity:0.05;fill:#E2E8E4;}
	.st63{clip-path:url(#SVGID_27_);}
	.st64{opacity:0.76;clip-path:url(#SVGID_27_);fill:#FFFFFF;}
	.st65{clip-path:url(#SVGID_27_);fill:url(#SVGID_28_);}
	.st66{clip-path:url(#SVGID_27_);fill:none;stroke:#FFFFFF;stroke-width:2;stroke-linecap:round;stroke-miterlimit:10;}
	.st67{clip-path:url(#SVGID_27_);fill:url(#SVGID_29_);}
	.st68{clip-path:url(#SVGID_27_);fill:url(#SVGID_30_);}
	.st69{clip-path:url(#SVGID_27_);fill:url(#SVGID_31_);}
	.st70{clip-path:url(#SVGID_27_);fill:url(#SVGID_32_);}
	.st71{clip-path:url(#SVGID_27_);fill:#FFFFFF;}
	.st72{clip-path:url(#SVGID_27_);fill:url(#SVGID_33_);}
	.st73{opacity:0.62;clip-path:url(#SVGID_35_);fill:#FFFFFF;}
	.st74{clip-path:url(#SVGID_35_);fill:#FFFFFF;}
	.st75{opacity:0.41;clip-path:url(#SVGID_35_);fill:#FFFFFF;}
	.st76{clip-path:url(#SVGID_35_);fill:none;}
	.st77{clip-path:url(#SVGID_37_);}
	.st78{fill:url(#SVGID_38_);}
	.st79{opacity:0.74;clip-path:url(#SVGID_40_);fill:url(#SVGID_41_);}
	.st80{fill:#E5E5E5;}
	.st81{fill:none;stroke:#4D4D4D;stroke-width:0.75;stroke-linecap:round;stroke-miterlimit:10;}
	.st82{fill:url(#SVGID_42_);}
	.st83{opacity:0.74;fill:url(#SVGID_43_);}
	.st84{opacity:0.74;fill:url(#SVGID_44_);}
	.st85{opacity:0.74;fill:url(#SVGID_45_);}
	.st86{opacity:0.74;fill:url(#SVGID_46_);}
	.st87{fill:url(#SVGID_47_);}
	.st88{opacity:0.66;}
	.st89{opacity:0.37;fill:#FFFFFF;}
	.st90{fill:url(#SVGID_48_);}
	.st91{fill:url(#SVGID_49_);}
	.st92{opacity:0.44;clip-path:url(#SVGID_51_);fill:#FFFFD9;}
	.st93{opacity:0.43;clip-path:url(#SVGID_53_);fill:#FFFFFF;}
	.st94{clip-path:url(#SVGID_53_);fill:none;stroke:#FFFFFF;stroke-miterlimit:10;}
	.st95{opacity:0.76;clip-path:url(#SVGID_53_);fill:#FFFFFF;}
	.st96{clip-path:url(#SVGID_53_);fill:#FFFFFF;}
	.st97{opacity:0.08;clip-path:url(#SVGID_53_);fill:#FFFFFF;}
	.st98{opacity:0.27;clip-path:url(#SVGID_53_);fill:#FFFFFF;}
	.st99{opacity:0.37;clip-path:url(#SVGID_53_);fill:#FFFFFF;}
	.st100{clip-path:url(#SVGID_53_);fill:none;}
	.st101{fill:url(#SVGID_54_);}
	.st102{opacity:0.62;clip-path:url(#SVGID_56_);fill:#FFFFFF;}
	.st103{clip-path:url(#SVGID_56_);fill:#FFFFFF;}
	.st104{opacity:0.41;clip-path:url(#SVGID_56_);fill:#FFFFFF;}
	.st105{clip-path:url(#SVGID_56_);fill:none;}
	.st106{clip-path:url(#SVGID_58_);}
	.st107{opacity:0.55;fill:url(#SVGID_59_);}
	.st108{fill:url(#SVGID_60_);}
	.st109{fill:url(#SVGID_61_);}
	.st110{opacity:0.28;}
	.st111{opacity:0.56;clip-path:url(#SVGID_63_);fill:#FFFFFF;}
	.st112{opacity:0.43;clip-path:url(#SVGID_65_);fill:#FFFFFF;}
	.st113{clip-path:url(#SVGID_65_);fill:none;stroke:#FFFFFF;stroke-miterlimit:10;}
	.st114{opacity:0.76;clip-path:url(#SVGID_65_);fill:#FFFFFF;}
	.st115{clip-path:url(#SVGID_65_);fill:#FFFFFF;}
	.st116{opacity:0.08;clip-path:url(#SVGID_65_);fill:#FFFFFF;}
	.st117{opacity:0.27;clip-path:url(#SVGID_65_);fill:#FFFFFF;}
	.st118{opacity:0.37;clip-path:url(#SVGID_65_);fill:#FFFFFF;}
	.st119{clip-path:url(#SVGID_65_);fill:none;}
	.st120{clip-path:url(#SVGID_67_);fill:none;}
	.st121{opacity:0.46;}
	.st122{opacity:0.86;fill:#FFFFFF;}
	.st123{opacity:0.4;}
	.st124{opacity:0.73;fill:#FFFFFF;}
	.st125{opacity:0.54;clip-path:url(#SVGID_69_);fill:#FFFFFF;}
	.st126{fill:#FF8A8A;}
	.st127{opacity:0.75;fill:#FFFFFF;}
	.st128{fill:#FFC181;}
	.st129{clip-path:url(#SVGID_71_);fill:#FFDFBD;}
	.st130{clip-path:url(#SVGID_71_);fill:#FF9D00;}
	.st131{clip-path:url(#SVGID_71_);fill:#FFF3DF;}
	.st132{clip-path:url(#SVGID_73_);fill:#FFBAE4;}
	.st133{opacity:0.8;clip-path:url(#SVGID_73_);fill:#FE82C8;}
	.st134{clip-path:url(#SVGID_73_);fill:#FE82C8;}
	.st135{opacity:0.79;clip-path:url(#SVGID_73_);fill:#FFBAE4;}
	.st136{fill:#FFFEEA;}
	.st137{fill:#58D196;}
	.st138{fill:#A6E5C3;}
	.st139{fill:#D2F2E1;}
	.st140{opacity:0.44;fill:#FFFFFF;}
	.st141{clip-path:url(#SVGID_75_);fill:#FFF9C1;}
	.st142{opacity:0.86;fill:#FFCCD5;}
	.st143{opacity:0.62;clip-path:url(#SVGID_77_);fill:#FFFFFF;}
	.st144{opacity:0.75;clip-path:url(#SVGID_77_);fill:#FFFFFF;}
	.st145{opacity:0.41;clip-path:url(#SVGID_77_);fill:#FFFFFF;}
	.st146{clip-path:url(#SVGID_77_);fill:none;}
	.st147{clip-path:url(#SVGID_79_);}
	.st148{opacity:0.44;clip-path:url(#SVGID_81_);fill:#FFFFFF;}
	.st149{opacity:0.43;clip-path:url(#SVGID_83_);fill:#FFFFFF;}
	.st150{clip-path:url(#SVGID_83_);fill:none;stroke:#FFFFFF;stroke-miterlimit:10;}
	.st151{opacity:0.76;clip-path:url(#SVGID_83_);fill:#FFFFFF;}
	.st152{clip-path:url(#SVGID_83_);fill:#FFFFFF;}
	.st153{opacity:0.08;clip-path:url(#SVGID_83_);fill:#FFFFFF;}
	.st154{opacity:0.27;clip-path:url(#SVGID_83_);fill:#FFFFFF;}
	.st155{opacity:0.37;clip-path:url(#SVGID_83_);fill:#FFFFFF;}
	.st156{clip-path:url(#SVGID_83_);fill:none;}
	.st157{opacity:0.54;clip-path:url(#SVGID_85_);fill:#FFFFFF;}
	.st158{opacity:0.62;fill:#FFFFFF;}
	.st159{opacity:0.41;fill:#FFFFFF;}
	.st160{opacity:0.43;fill:#FFFFFF;}
	.st161{opacity:0.76;fill:#FFFFFF;}
	.st162{opacity:0.08;fill:#FFFFFF;}
	.st163{opacity:0.27;fill:#FFFFFF;}
	.st164{opacity:0.54;fill:#FFFFFF;}
	.st165{clip-path:url(#SVGID_87_);fill:#FF6567;}
	.st166{clip-path:url(#SVGID_87_);fill:#FF8A8A;}
	.st167{clip-path:url(#SVGID_87_);fill:#FFC2C1;}
	.st168{clip-path:url(#SVGID_87_);fill:#FFFFFF;}
	.st169{clip-path:url(#SVGID_89_);fill:#E2E9FF;}
	.st170{clip-path:url(#SVGID_89_);fill:#EEF2FF;}
	.st171{opacity:0.54;clip-path:url(#SVGID_89_);fill:#EEF2FF;}
	.st172{opacity:0.54;clip-path:url(#SVGID_89_);fill:#8FAAF0;}
	.st173{clip-path:url(#SVGID_91_);}
	.st174{fill:#FF6B81;}
	.st175{clip-path:url(#SVGID_91_);fill:none;}
	.st176{fill:#FF1B6F;}
	.st177{clip-path:url(#SVGID_93_);fill:#FFDFBD;}
	.st178{clip-path:url(#SVGID_93_);fill:#FF9D00;}
	.st179{clip-path:url(#SVGID_93_);fill:#FFF3DF;}
	.st180{clip-path:url(#SVGID_95_);fill:#F0C6F4;}
	.st181{opacity:0.8;clip-path:url(#SVGID_95_);fill:#F8E3F8;}
	.st182{clip-path:url(#SVGID_95_);fill:#F8E3F8;}
	.st183{opacity:0.79;clip-path:url(#SVGID_95_);fill:#F0C6F4;}
	.st184{clip-path:url(#SVGID_97_);fill:#FFF9C1;}
	.st185{clip-path:url(#SVGID_99_);fill:#FFC5D6;}
	.st186{clip-path:url(#SVGID_99_);fill:#FF94B3;}
	.st187{clip-path:url(#SVGID_99_);fill:#FF6794;}
	.st188{clip-path:url(#SVGID_99_);fill:#FFFFFF;}
	.st189{clip-path:url(#SVGID_101_);fill:#698DE6;}
	.st190{clip-path:url(#SVGID_101_);fill:#8FAAF0;}
	.st191{opacity:0.54;clip-path:url(#SVGID_101_);fill:#8FAAF0;}
	.st192{clip-path:url(#SVGID_103_);}
	.st193{clip-path:url(#SVGID_103_);fill:none;}
	.st194{opacity:0.46;clip-path:url(#SVGID_107_);}
	.st195{clip-path:url(#SVGID_107_);fill:none;}
	.st196{fill:none;stroke:#FFFFFF;stroke-width:2;stroke-miterlimit:10;}
	.st197{opacity:0.45;fill:#FFFFFF;}
	.st198{opacity:0.8;fill:#FFFFFF;}
	.st199{opacity:0.79;fill:#FFFFFF;}
	.st200{fill:#F2C5AA;}
	.st201{fill:none;stroke:#FFFFFF;stroke-width:0.75;stroke-miterlimit:10;}
	.st202{fill:#FFFFFF;stroke:#FFFFFF;stroke-width:0.25;stroke-miterlimit:10;}
	.st203{fill:#D3C1B2;}
	.st204{fill:#FFC5D6;}
	.st205{clip-path:url(#SVGID_113_);fill:#F787A5;}
	.st206{clip-path:url(#SVGID_113_);fill:#FFE9F2;}
	.st207{clip-path:url(#SVGID_113_);fill:#D3CFB3;}
	.st208{clip-path:url(#SVGID_113_);fill:#FFDBE5;}
	.st209{clip-path:url(#SVGID_113_);}
	.st210{fill:#FFE9F2;}
	.st211{fill:#F787A5;}
	.st212{fill:#F2CCC1;}
	.st213{fill:#DF4E50;}
	.st214{clip-path:url(#SVGID_113_);fill:#FFC5D6;}
	.st215{fill:#FFDBE5;}
	.st216{fill:#FFB9C3;}
	.st217{fill:#FB91B5;}
	.st218{fill:#E3A180;}
	.st219{fill:#92693D;}
	.st220{fill:#FBBACC;}
	.st221{fill:#E6678D;}
	.st222{fill:#574435;}
	.st223{fill:#C9A47C;}
	.st224{fill:#641F1E;}
	.st225{fill:#F15E89;}
	.st226{fill:#E7005E;}
	.st227{fill:#DEB78A;}
	.st228{fill:#DFB78A;}
	.st229{fill:#FF6794;}
	.st230{fill:#D72264;}
	.st231{fill:#F7F7F7;}
	.st232{fill:#F2F2F2;}
	.st233{fill:#FFFBF0;}
	.st234{fill:#FFBFCF;}
	.st235{fill:#FF9DAE;}
	.st236{fill:#FFC2C1;}
	.st237{fill:#FFCCD5;}
	.st238{fill:#B49E8F;}
	.st239{fill:#FFE2EA;}
	.st240{fill:#A3C5DC;}
	.st241{fill:#DA956B;}
	.st242{fill:#BDA595;}
	.st243{fill:#583B34;}
	.st244{fill:#63443C;}
	.st245{fill:#B2D0E5;}
	.st246{fill:#FCFCFB;}
	.st247{fill:#D0ACA1;}
	.st248{fill:#A2C4DB;}
	.st249{fill:#E1D0C8;}
	.st250{fill:#9C7972;}
	.st251{fill:#77573F;}
	.st252{fill:#F3769C;}
	.st253{fill:#FBFBF9;}
	.st254{fill:#F8C4DC;}
	.st255{fill:#E4BAB5;}
	.st256{clip-path:url(#SVGID_115_);fill:#F787A5;}
	.st257{clip-path:url(#SVGID_115_);fill:#FFE9F2;}
	.st258{clip-path:url(#SVGID_115_);fill:#D3CFB3;}
	.st259{clip-path:url(#SVGID_115_);fill:#FFDBE5;}
	.st260{clip-path:url(#SVGID_115_);}
	.st261{clip-path:url(#SVGID_115_);fill:#FFC5D6;}
	.st262{fill:#00C377;}
	.st263{fill:#88E5AF;}
	.st264{fill:#00B45A;}
	.st265{fill:#7FDAAA;}
	.st266{fill:#F2BC3A;}
	.st267{fill:#B99F65;}
	.st268{fill:#98D284;}
	.st269{fill:#3C3724;}
	.st270{fill:#D6BEA2;}
	.st271{fill:#9C8274;}
	.st272{fill:#587147;}
	.st273{fill:#E7D6BE;}
	.st274{fill:#5CC689;}
	.st275{clip-path:url(#SVGID_117_);fill:#A6E5C3;}
	.st276{clip-path:url(#SVGID_117_);fill:#FFFFFF;}
	.st277{clip-path:url(#SVGID_117_);fill:#58D196;}
	.st278{fill:#FFEF6E;}
	.st279{fill:#FFE200;}
	.st280{clip-path:url(#SVGID_119_);fill:#FDA157;}
	.st281{clip-path:url(#SVGID_119_);fill-rule:evenodd;clip-rule:evenodd;fill:#FF8429;}
	.st282{clip-path:url(#SVGID_119_);fill:#F35000;}
	.st283{clip-path:url(#SVGID_119_);fill:#F9B946;}
	.st284{fill:#F35000;}
	.st285{fill:#FF8429;}
	.st286{fill:#FFAC33;}
	.st287{fill:#E56D00;}
	.st288{fill:#EF6406;}
	.st289{fill:#FF9C00;}
	.st290{fill:#130077;}
	.st291{fill:#FFB58D;}
	.st292{opacity:0.3;}
	.st293{fill:#FF7300;}
	.st294{fill:#6E0000;}
	.st295{fill-rule:evenodd;clip-rule:evenodd;fill:#FF9C00;}
	.st296{fill-rule:evenodd;clip-rule:evenodd;fill:url(#SVGID_120_);}
	.st297{opacity:0.3;fill-rule:evenodd;clip-rule:evenodd;fill:#A4002C;}
	.st298{fill-rule:evenodd;clip-rule:evenodd;fill:url(#SVGID_121_);}
	.st299{fill-rule:evenodd;clip-rule:evenodd;fill:url(#SVGID_122_);}
	.st300{opacity:0.5;fill-rule:evenodd;clip-rule:evenodd;fill:url(#SVGID_123_);}
	.st301{fill-rule:evenodd;clip-rule:evenodd;fill:#FFC485;}
	.st302{fill-rule:evenodd;clip-rule:evenodd;fill:url(#SVGID_124_);}
	.st303{fill-rule:evenodd;clip-rule:evenodd;fill:url(#SVGID_125_);}
	.st304{fill-rule:evenodd;clip-rule:evenodd;fill:url(#SVGID_126_);}
	.st305{opacity:0.5;fill-rule:evenodd;clip-rule:evenodd;fill:url(#SVGID_127_);}
	.st306{fill-rule:evenodd;clip-rule:evenodd;fill:#FDA157;}
	.st307{opacity:0.5;fill-rule:evenodd;clip-rule:evenodd;fill:#FDA157;}
	.st308{fill-rule:evenodd;clip-rule:evenodd;fill:#FF8429;}
	.st309{fill-rule:evenodd;clip-rule:evenodd;fill:#FFAC33;}
	.st310{opacity:0.62;fill-rule:evenodd;clip-rule:evenodd;fill:#C8002A;}
	.st311{opacity:0.5;fill-rule:evenodd;clip-rule:evenodd;fill:#FF8429;}
	.st312{opacity:0.5;fill-rule:evenodd;clip-rule:evenodd;fill:#8F5472;}
	.st313{opacity:0.3;fill-rule:evenodd;clip-rule:evenodd;fill:url(#SVGID_128_);}
	.st314{opacity:0.5;fill-rule:evenodd;clip-rule:evenodd;fill:url(#SVGID_129_);}
	.st315{opacity:0.3;fill-rule:evenodd;clip-rule:evenodd;fill:url(#SVGID_130_);}
	.st316{opacity:0.3;fill-rule:evenodd;clip-rule:evenodd;fill:url(#SVGID_131_);}
	.st317{clip-path:url(#SVGID_133_);}
	.st318{clip-path:url(#SVGID_133_);fill:#FF8429;}
	.st319{fill:#FDA157;}
	.st320{clip-path:url(#SVGID_135_);}
	.st321{fill:#F58800;}
	.st322{clip-path:url(#SVGID_137_);}
	.st323{fill:#F9B946;}
	.st324{clip-path:url(#SVGID_139_);}
	.st325{clip-path:url(#SVGID_139_);fill:#FF8429;}
	.st326{fill-rule:evenodd;clip-rule:evenodd;fill:url(#SVGID_140_);}
	.st327{fill-rule:evenodd;clip-rule:evenodd;fill:url(#SVGID_141_);}
	.st328{fill-rule:evenodd;clip-rule:evenodd;fill:url(#SVGID_142_);}
	.st329{opacity:0.5;fill-rule:evenodd;clip-rule:evenodd;fill:url(#SVGID_143_);}
	.st330{fill-rule:evenodd;clip-rule:evenodd;fill:url(#SVGID_144_);}
	.st331{fill-rule:evenodd;clip-rule:evenodd;fill:url(#SVGID_145_);}
	.st332{fill-rule:evenodd;clip-rule:evenodd;fill:url(#SVGID_146_);}
	.st333{opacity:0.5;fill-rule:evenodd;clip-rule:evenodd;fill:url(#SVGID_147_);}
	.st334{opacity:0.3;fill-rule:evenodd;clip-rule:evenodd;fill:url(#SVGID_148_);}
	.st335{opacity:0.5;fill-rule:evenodd;clip-rule:evenodd;fill:url(#SVGID_149_);}
	.st336{opacity:0.3;fill-rule:evenodd;clip-rule:evenodd;fill:url(#SVGID_150_);}
	.st337{opacity:0.3;fill-rule:evenodd;clip-rule:evenodd;fill:url(#SVGID_151_);}
	.st338{opacity:0.88;fill:#FFFEF3;}
	.st339{fill:#FFD066;}
	.st340{fill:#B0ACAD;}
	.st341{fill:#FFE473;}
	.st342{fill:#FFE888;}
	.st343{fill:#F7C800;}
	.st344{fill:#FFEB97;}
	.st345{clip-path:url(#SVGID_153_);fill:#FFCB33;}
	.st346{clip-path:url(#SVGID_153_);fill:#FFE406;}
</style>
<path class="st278" d="M133.64,195.65c0,0,7.16,52.48,40.18,73.82c6.16,3.98,17.55-2.69,18.67-11.37
	c1.11-8.68-1.02-26.89-11.73-37.64C170.05,209.71,133.64,195.65,133.64,195.65z"/>
<path class="st6" d="M254.16,73.28l-37.32,7.94l-29.54,39.58c0,0-10.39,11.05-18.46,17.24c-8.07,6.19-37.27,47.56-35.2,57.61
	c2.07,10.05,38.83,0.41,38.83,0.41s39.49-33.62,47.79-36.98c8.3-3.36,64.88-1.21,82.3,1.86C319.99,164.03,254.16,73.28,254.16,73.28
	z"/>
<g>
	<g>
		<g>
			<g>
				<path class="st6" d="M188.67,326.92c0,0-0.6-2.93-3.84-5.73c-2.47-2.14-6.48-4.19-12.93-4.82c-10.64-1.02-21.39-0.75-26.68-0.52
					c-5.3,0.09-16.05,0.49-26.6,2.17c-6.4,1.02-10.27,3.32-12.61,5.61c-3.06,3-3.48,5.96-3.48,5.96s-3.95,56.2-4.86,76.83
					c1.59,25.22,4.31,55.71,7.13,70.78c3.05,16.34,6.67,23.34,14.58,25.98c10.26,1.39,24.4,1.04,30.2,0.81
					c0.22-0.03,0.32-0.05,0.32-0.05s0.42,0,1.16-0.01c0.74-0.03,1.16-0.06,1.16-0.06s0.1,0.01,0.32,0.03
					c5.8-0.13,19.94-0.66,30.09-2.69c7.74-3.12,10.91-10.34,12.94-26.83c1.87-15.21,2.69-45.81,2.72-71.08
					C196.1,382.77,188.67,326.92,188.67,326.92z"/>
			</g>
		</g>
		<g>
			<g>
				<g>
					<path class="st6" d="M152.91,300.07l-16.35,0.51c-8.23,0.26-14.69,7.13-14.43,15.36l0.88,28.17
						c0.26,8.23,7.13,14.69,15.36,14.43l16.35-0.51c8.23-0.26,14.69-7.13,14.43-15.36l-0.88-28.17
						C168.01,306.28,161.14,299.82,152.91,300.07z M162.67,340.31c0.21,6.73-2.94,10.75-9.66,10.95l-13.37,0.42
						c-6.73,0.21-10.49-3.6-10.7-10.32l-0.72-23.04c-0.21-6.73,3.22-13.82,9.95-14.03l13.37-0.42c6.73-0.21,10.21,6.68,10.42,13.4
						L162.67,340.31z"/>
				</g>
			</g>
		</g>
		<g>
			<g>
				<path class="st6" d="M176.37,484.41c-0.86-0.4-1.83-0.61-2.84-0.58c-3.48,0.11-6.22,3.02-6.11,6.5c0.08,2.49,1.59,4.6,3.73,5.56
					c-0.26-0.81-0.41-1.66-0.43-2.55C170.59,489.37,172.94,485.9,176.37,484.41z"/>
			</g>
			<g>
				<path class="st6" d="M180.03,489.94c-0.08-2.47-1.56-4.56-3.66-5.53c-3.43,1.49-5.78,4.97-5.66,8.93
					c0.03,0.89,0.18,1.74,0.43,2.55c0.85,0.38,1.79,0.58,2.78,0.55C177.41,496.33,180.14,493.42,180.03,489.94z"/>
			</g>
		</g>
	</g>
</g>
<g>
	<g>
		<path class="st339" d="M133.64,195.65c-26.59,4.9-44.18,30.42-39.29,57.02c4.9,26.59,30.42,44.18,57.02,39.29
			c26.59-4.9,44.18-30.42,39.29-57.02C185.76,208.35,160.24,190.76,133.64,195.65z M150.56,287.58
			c-24.18,4.45-47.38-11.54-51.83-35.72c-4.45-24.18,11.54-47.38,35.72-51.83c24.18-4.45,47.38,11.54,51.83,35.72
			C190.73,259.92,174.74,283.13,150.56,287.58z"/>
		<path class="st339" d="M134.45,200.03c-24.18,4.45-40.17,27.66-35.72,51.83c4.45,24.18,27.66,40.17,51.83,35.72
			c24.18-4.45,40.17-27.66,35.72-51.83C181.83,211.57,158.62,195.58,134.45,200.03z M150.39,286.62
			c-23.64,4.35-46.34-11.29-50.69-34.93c-4.35-23.64,11.29-46.34,34.93-50.69c23.64-4.35,46.34,11.28,50.69,34.93
			C189.67,259.57,174.03,282.26,150.39,286.62z"/>
	</g>
</g>
<g>
	<polygon class="st6" points="44.8,328.98 19.99,371.96 20.97,373.94 0.38,407.41 1.2,409.08 -0.22,410.82 0,420.06 3.15,422.23 
		10.16,418.76 11.91,416.85 13.99,416.86 34.08,384.89 37.16,384.4 65.12,340.23 	"/>
	
		<rect x="-30.84" y="361.53" transform="matrix(0.5329 -0.8462 0.8462 0.5329 -289.1852 201.9129)" class="st278" width="138.27" height="2.72"/>
	<g>
		<g>
			<g>
				<g>
					<path class="st6" d="M95.6,269.56c-7.86-4.66-16.28-10.16-26-7.23c-8.4,2.53-37.91,31.26-35.65,47.02
						c2.26,15.76,19.63,27.03,19.63,27.03c3.86,2.89,9.15,6.33,24.98,8.89s25.53-15.19,34.88-39.71
						C122.79,281.06,103.45,274.22,95.6,269.56z M103.75,290.39c-1.41,2.49-3.16,0.88-5.65-0.53l-23.65-13.36
						c-2.49-1.41-4.78-2.08-3.37-4.57c1.41-2.49,5.97-5.86,8.47-4.45l23.65,13.36C105.68,282.25,105.16,287.9,103.75,290.39z"/>
				</g>
			</g>
			<g>
				<g>
					<path class="st6" d="M103.19,280.84l-23.65-13.36c-2.49-1.41-7.06,1.96-8.47,4.45c-1.41,2.49,0.88,3.16,3.37,4.57l23.65,13.36
						c2.49,1.41,4.25,3.02,5.65,0.53C105.16,287.9,105.68,282.25,103.19,280.84z M96.65,284.53c-1.22,2.26-3.44,2-5.7,0.78
						l-7.08-3.82c-2.26-1.22-3.7-2.93-2.48-5.19c1.22-2.26,4.63-4.2,6.89-2.99l7.08,3.82C97.62,278.35,97.87,282.27,96.65,284.53z"
						/>
				</g>
			</g>
		</g>
	</g>
</g>
<path class="st340" d="M102.99,257.25c1.15,0.73,1.43,2.34,0.64,3.58l-12.44,19.03c-0.79,1.24-2.37,1.65-3.52,0.92l0,0
	c-1.15-0.73-1.43-2.34-0.64-3.58l12.44-19.03C100.26,256.93,101.84,256.51,102.99,257.25L102.99,257.25z"/>
<path class="st340" d="M148.13,306.93c0.05,1.76-1.33,3.23-3.08,3.28l0,0c-1.76,0.05-3.23-1.33-3.28-3.08l-0.66-21.27
	c-0.05-1.76,1.33-3.23,3.09-3.28l0,0c1.76-0.05,3.23,1.33,3.28,3.08L148.13,306.93z"/>
<path class="st278" d="M181.39,356c-0.26-8.48-7.36-15.15-15.84-14.88l-39.05,1.21c-8.48,0.26-15.15,7.36-14.89,15.84l3.28,105.62
	c0.26,8.48,7.36,15.15,15.84,14.88l39.05-1.21c8.48-0.26,15.15-7.36,14.88-15.84L181.39,356z"/>
<path class="st6" d="M175.56,374.95c0.05,1.65-1.24,3.02-2.89,3.07l-51.01,1.59c-1.65,0.05-3.02-1.24-3.07-2.89l-0.65-20.88
	c-0.05-1.64,1.24-3.02,2.89-3.07l51.01-1.59c1.65-0.05,3.02,1.24,3.07,2.89L175.56,374.95z"/>
<path class="st278" d="M85.93,324.34c-4.03,6.22-17.71,9.64-23.93,5.6l-7.14-4.63c-6.22-4.03-8.45-17.75-4.42-23.97l0,0
	c4.03-6.22,8.69-2.37,14.92,1.67l12.96,8.4C84.54,315.44,89.96,318.12,85.93,324.34L85.93,324.34z"/>
<rect x="118.52" y="394.73" transform="matrix(0.9995 -0.0311 0.0311 0.9995 -12.2901 4.784)" class="st6" width="58.49" height="6.1"/>
<rect x="119.89" y="438.87" transform="matrix(0.9995 -0.0311 0.0311 0.9995 -13.6635 4.8488)" class="st6" width="58.49" height="6.1"/>
<path class="st339" d="M281.5,238.97c0,0,20.3,5.81,30.8,0.57c10.5-5.24,23.98-34.61,21.75-39.31c-2.23-4.7-41.38,3.46-41.38,3.46
	S274.47,230.15,281.5,238.97z"/>
<path class="st339" d="M218.82,149.19l-9.4,69.64c0,0,34.75,42.97,49.51,43.53c14.76,0.56,43.34-22.64,42.54-33.74
	c-0.8-11.11-5.87-26.23-12.67-26.96c-6.8-0.73-42.82,18.96-42.82,18.96l27.73-67.5L218.82,149.19z"/>
<g>
	<path class="st6" d="M148.4,226.76c-7.9-27.63,0.16-32.34,9.41-37.97c78.7-23.45,113.55-40.27,113.55-40.27s7.95-17.38,2.78-30.08
		c-0.99-2.44-5.72-1.37-12.67,1.92l-78.51,6.56c18.88-26.64,45.71-64.26,59.5-70.71c11.07-5.17,34.4-8.65,65.02-12.08
		c23.12-2.59,167.87,0.85,183.92-9.59c19.19,17.64,5.99,19.63,30.8,42.44c8.84,8.14,24.01,45.04,21.35,56.02
		c-27.03,45.33-61.98,26.73-83.6,41.01c-22.6,14.94-80.73,43.03-139.41,43.28c-57.2,0.24-38.92,1.85-101.46,16.82
		c-1.62,0.39-10.25,2.55-11.94,3.1C150.82,255.74,148.4,226.76,148.4,226.76z"/>
</g>
<g>
	<path class="st6" d="M465.47,106.59l5.7,69.1c0.6,7.27,6.97,12.6,14.23,11.88l17.68-1.78c10.14-22.8,19.19-40.58,18.59-47.85
		l22.5-39.09l-17.89,1.76L465.47,106.59z"/>
	<path class="st6" d="M459.76,37.5l5.71,69.1l60.81-5.98l17.89-1.76l-5.7-69.1c-0.6-7.28-6.97-12.59-14.23-11.88l-52.43,5.16
		C464.55,23.74,459.16,30.22,459.76,37.5z"/>
</g>
<path class="st6" d="M487.55,24.73c-0.58-7.06,2.88-13.18,7.75-13.65L585,0.3v95.59l-90.85,8.77L487.55,24.73z"/>
<g>
	<path class="st278" d="M162.8,240.08l-12.85-38.04c0,0,1.4-0.89,3.75-2.17l13.18,39.99C164.36,240.07,162.8,240.08,162.8,240.08z"
		/>
	<path class="st278" d="M153.7,199.87c10.97-5.99,42.67-20.64,49.58,6.13c7.16,27.75-24.8,32.91-36.4,33.87L153.7,199.87z"/>
</g>
<path class="st278" d="M224.81,176.46c0,0,0.1,0.74,0.33,2.01c0.23,1.27,0.6,3.08,1.1,5.23c0.25,1.07,0.54,2.23,0.85,3.45
	c0.32,1.22,0.66,2.5,1.04,3.82c0.18,0.66,0.38,1.33,0.58,2.01c0.2,0.68,0.4,1.36,0.62,2.05c0.42,1.38,0.87,2.77,1.32,4.16
	c0.47,1.39,0.93,2.78,1.41,4.13c0.12,0.34,0.24,0.68,0.36,1.02c0.12,0.34,0.24,0.67,0.37,1c0.24,0.66,0.48,1.32,0.73,1.96
	c0.48,1.29,0.97,2.52,1.44,3.69c0.47,1.17,0.93,2.27,1.37,3.28c0.44,1.01,0.85,1.94,1.23,2.75c0.38,0.81,0.71,1.52,1,2.1
	c0.57,1.16,0.93,1.81,0.93,1.81s-0.1-0.74-0.33-2.01c-0.11-0.64-0.26-1.41-0.45-2.29c-0.18-0.88-0.4-1.87-0.65-2.94
	c-0.25-1.07-0.54-2.23-0.85-3.45c-0.32-1.22-0.66-2.5-1.04-3.82c-0.18-0.66-0.38-1.33-0.58-2.01c-0.1-0.34-0.2-0.68-0.3-1.02
	c-0.11-0.34-0.21-0.68-0.32-1.03c-0.42-1.38-0.87-2.77-1.32-4.16c-0.47-1.39-0.93-2.78-1.42-4.13c-0.24-0.68-0.48-1.35-0.72-2.02
	c-0.24-0.66-0.48-1.32-0.73-1.96c-0.48-1.29-0.97-2.52-1.44-3.69c-0.47-1.17-0.93-2.27-1.37-3.28c-0.87-2.02-1.66-3.69-2.23-4.85
	C225.17,177.11,224.81,176.46,224.81,176.46z"/>
<path class="st278" d="M231.24,172.76c0,0,0.1,0.79,0.33,2.15c0.23,1.36,0.6,3.29,1.1,5.6c0.25,1.15,0.54,2.39,0.86,3.7
	c0.32,1.31,0.66,2.69,1.04,4.1c0.18,0.71,0.38,1.43,0.58,2.16c0.2,0.73,0.4,1.47,0.62,2.2c0.42,1.48,0.88,2.98,1.33,4.48
	c0.47,1.49,0.93,2.99,1.42,4.45c0.12,0.37,0.24,0.73,0.36,1.09c0.12,0.36,0.25,0.72,0.37,1.08c0.24,0.71,0.48,1.42,0.73,2.11
	c0.49,1.39,0.97,2.72,1.45,3.98c0.48,1.26,0.94,2.45,1.38,3.54c0.44,1.09,0.86,2.09,1.23,2.97c0.38,0.88,0.72,1.65,1.01,2.27
	c0.57,1.26,0.94,1.96,0.94,1.96s-0.1-0.79-0.33-2.15c-0.11-0.68-0.27-1.5-0.45-2.45c-0.18-0.94-0.4-2-0.65-3.15
	c-0.25-1.15-0.54-2.39-0.86-3.7c-0.32-1.31-0.67-2.69-1.04-4.1c-0.18-0.71-0.39-1.43-0.59-2.16c-0.1-0.36-0.2-0.73-0.3-1.1
	c-0.11-0.37-0.21-0.73-0.32-1.11c-0.42-1.48-0.88-2.98-1.33-4.48c-0.47-1.49-0.93-2.99-1.42-4.45c-0.24-0.73-0.48-1.46-0.73-2.17
	c-0.24-0.71-0.48-1.42-0.73-2.11c-0.49-1.39-0.97-2.72-1.45-3.98c-0.47-1.26-0.94-2.45-1.38-3.54c-0.88-2.19-1.66-3.99-2.24-5.25
	C231.6,173.47,231.24,172.76,231.24,172.76z"/>
<path class="st278" d="M236.12,170.67c0,0,0.08,0.74,0.29,2.02c0.21,1.28,0.54,3.09,1,5.25c0.23,1.08,0.49,2.24,0.79,3.47
	c0.3,1.23,0.62,2.52,0.97,3.84c0.17,0.67,0.36,1.34,0.54,2.02c0.19,0.68,0.38,1.37,0.58,2.06c0.39,1.39,0.82,2.79,1.25,4.19
	c0.44,1.4,0.88,2.79,1.34,4.16c0.11,0.34,0.23,0.68,0.34,1.02c0.12,0.34,0.23,0.67,0.35,1.01c0.23,0.67,0.45,1.33,0.69,1.97
	c0.46,1.3,0.92,2.54,1.37,3.72c0.45,1.18,0.89,2.29,1.31,3.31c0.42,1.02,0.82,1.95,1.18,2.77c0.36,0.82,0.69,1.54,0.96,2.12
	c0.55,1.17,0.9,1.83,0.9,1.83s-0.08-0.74-0.29-2.02c-0.1-0.64-0.24-1.41-0.4-2.29c-0.17-0.88-0.37-1.87-0.6-2.95
	c-0.23-1.08-0.49-2.24-0.79-3.47c-0.3-1.23-0.62-2.52-0.97-3.84c-0.17-0.67-0.36-1.34-0.55-2.02c-0.09-0.34-0.19-0.68-0.28-1.03
	c-0.1-0.34-0.2-0.69-0.3-1.03c-0.39-1.39-0.82-2.79-1.25-4.19c-0.44-1.4-0.88-2.79-1.34-4.16c-0.22-0.69-0.45-1.36-0.69-2.03
	c-0.23-0.67-0.46-1.33-0.69-1.97c-0.46-1.29-0.92-2.54-1.37-3.72c-0.45-1.18-0.89-2.29-1.31-3.31c-0.84-2.04-1.59-3.72-2.14-4.9
	C236.47,171.33,236.12,170.67,236.12,170.67z"/>
</svg>
