<?xml version="1.0" encoding="utf-8"?>
<!-- Generator: Adobe Illustrator 24.2.3, SVG Export Plug-In . SVG Version: 6.00 Build 0)  -->
<svg version="1.1" id="Слой_1" xmlns="http://www.w3.org/2000/svg" xmlns:xlink="http://www.w3.org/1999/xlink" x="0px" y="0px"
	 viewBox="0 0 585 233" style="enable-background:new 0 0 585 233;" xml:space="preserve">
<style type="text/css">
	.st0{clip-path:url(#SVGID_2_);fill:#FFE406;}
	.st1{opacity:0.5;clip-path:url(#SVGID_2_);}
	.st2{fill:#A3CAFF;}
	.st3{fill:#FF8C00;}
	.st4{clip-path:url(#SVGID_2_);fill:#FFEDA1;}
	.st5{clip-path:url(#SVGID_2_);}
	.st6{fill:#FFCB33;}
	.st7{fill:#FFEDA1;}
	.st8{fill:#2A356B;}
	.st9{clip-path:url(#SVGID_2_);fill:#FFCB33;}
	.st10{clip-path:url(#SVGID_2_);fill:#A3CAFF;}
	.st11{clip-path:url(#SVGID_2_);fill:#FF8C00;}
	.st12{clip-path:url(#SVGID_2_);fill:#2A356B;}
	.st13{fill:#1B254E;}
	.st14{clip-path:url(#SVGID_2_);fill:#C32C28;}
	.st15{clip-path:url(#SVGID_2_);fill:#FF7400;}
	.st16{fill:#FFE406;}
	.st17{clip-path:url(#SVGID_2_);fill:#FFEF6E;}
	.st18{clip-path:url(#SVGID_4_);fill:#FFE473;}
	.st19{fill:#FFFFFF;}
	.st20{fill:#FF6567;}
	.st21{fill:url(#SVGID_5_);}
	.st22{fill:#ADD8C3;}
	.st23{fill:none;stroke:#FFFFFF;stroke-miterlimit:10;}
	.st24{fill:#A2CBAB;}
	.st25{fill:#96CDA1;}
	.st26{opacity:0.76;}
	.st27{fill:#C4E9CD;}
	.st28{fill:url(#SVGID_6_);}
	.st29{fill:url(#SVGID_7_);}
	.st30{fill:#F6E6BE;}
	.st31{fill:url(#SVGID_8_);}
	.st32{fill:url(#SVGID_9_);}
	.st33{fill:url(#SVGID_10_);}
	.st34{fill:#E4EEC4;}
	.st35{fill:#EFFBD2;}
	.st36{fill:url(#SVGID_11_);}
	.st37{fill:url(#SVGID_12_);}
	.st38{fill:url(#SVGID_13_);}
	.st39{fill:url(#SVGID_14_);}
	.st40{fill:#FFE493;}
	.st41{clip-path:url(#SVGID_16_);fill:url(#SVGID_17_);}
	.st42{fill:#5B2A1E;}
	.st43{fill:#907673;}
	.st44{fill:url(#SVGID_18_);}
	.st45{fill:url(#SVGID_19_);}
	.st46{fill:url(#SVGID_20_);}
	.st47{fill:url(#SVGID_21_);}
	.st48{fill:#FE82C8;}
	.st49{opacity:0.62;clip-path:url(#SVGID_23_);fill:#FFFFFF;}
	.st50{opacity:0.75;clip-path:url(#SVGID_23_);fill:#FFFFFF;}
	.st51{opacity:0.41;clip-path:url(#SVGID_23_);fill:#FFFFFF;}
	.st52{clip-path:url(#SVGID_23_);fill:none;}
	.st53{clip-path:url(#SVGID_25_);}
	.st54{opacity:0.26;fill:#FFFFFF;}
	.st55{opacity:0.69;fill:#FFFFFF;}
	.st56{fill:none;}
	.st57{opacity:0.16;fill:#FFFFFF;}
	.st58{opacity:0.3;fill:#FFFFFF;}
	.st59{opacity:0.23;fill:#FFFFFF;}
	.st60{opacity:0.24;fill:#FFFFFF;}
	.st61{opacity:0.17;}
	.st62{opacity:0.05;fill:#E2E8E4;}
	.st63{clip-path:url(#SVGID_27_);}
	.st64{opacity:0.76;clip-path:url(#SVGID_27_);fill:#FFFFFF;}
	.st65{clip-path:url(#SVGID_27_);fill:url(#SVGID_28_);}
	.st66{clip-path:url(#SVGID_27_);fill:none;stroke:#FFFFFF;stroke-width:2;stroke-linecap:round;stroke-miterlimit:10;}
	.st67{clip-path:url(#SVGID_27_);fill:url(#SVGID_29_);}
	.st68{clip-path:url(#SVGID_27_);fill:url(#SVGID_30_);}
	.st69{clip-path:url(#SVGID_27_);fill:url(#SVGID_31_);}
	.st70{clip-path:url(#SVGID_27_);fill:url(#SVGID_32_);}
	.st71{clip-path:url(#SVGID_27_);fill:#FFFFFF;}
	.st72{clip-path:url(#SVGID_27_);fill:url(#SVGID_33_);}
	.st73{opacity:0.62;clip-path:url(#SVGID_35_);fill:#FFFFFF;}
	.st74{clip-path:url(#SVGID_35_);fill:#FFFFFF;}
	.st75{opacity:0.41;clip-path:url(#SVGID_35_);fill:#FFFFFF;}
	.st76{clip-path:url(#SVGID_35_);fill:none;}
	.st77{clip-path:url(#SVGID_37_);}
	.st78{fill:url(#SVGID_38_);}
	.st79{opacity:0.74;clip-path:url(#SVGID_40_);fill:url(#SVGID_41_);}
	.st80{fill:#E5E5E5;}
	.st81{fill:none;stroke:#4D4D4D;stroke-width:0.75;stroke-linecap:round;stroke-miterlimit:10;}
	.st82{fill:url(#SVGID_42_);}
	.st83{opacity:0.74;fill:url(#SVGID_43_);}
	.st84{opacity:0.74;fill:url(#SVGID_44_);}
	.st85{opacity:0.74;fill:url(#SVGID_45_);}
	.st86{opacity:0.74;fill:url(#SVGID_46_);}
	.st87{fill:url(#SVGID_47_);}
	.st88{opacity:0.66;}
	.st89{opacity:0.37;fill:#FFFFFF;}
	.st90{fill:url(#SVGID_48_);}
	.st91{fill:url(#SVGID_49_);}
	.st92{opacity:0.44;clip-path:url(#SVGID_51_);fill:#FFFFD9;}
	.st93{opacity:0.43;clip-path:url(#SVGID_53_);fill:#FFFFFF;}
	.st94{clip-path:url(#SVGID_53_);fill:none;stroke:#FFFFFF;stroke-miterlimit:10;}
	.st95{opacity:0.76;clip-path:url(#SVGID_53_);fill:#FFFFFF;}
	.st96{clip-path:url(#SVGID_53_);fill:#FFFFFF;}
	.st97{opacity:0.08;clip-path:url(#SVGID_53_);fill:#FFFFFF;}
	.st98{opacity:0.27;clip-path:url(#SVGID_53_);fill:#FFFFFF;}
	.st99{opacity:0.37;clip-path:url(#SVGID_53_);fill:#FFFFFF;}
	.st100{clip-path:url(#SVGID_53_);fill:none;}
	.st101{fill:url(#SVGID_54_);}
	.st102{opacity:0.62;clip-path:url(#SVGID_56_);fill:#FFFFFF;}
	.st103{clip-path:url(#SVGID_56_);fill:#FFFFFF;}
	.st104{opacity:0.41;clip-path:url(#SVGID_56_);fill:#FFFFFF;}
	.st105{clip-path:url(#SVGID_56_);fill:none;}
	.st106{clip-path:url(#SVGID_58_);}
	.st107{opacity:0.55;fill:url(#SVGID_59_);}
	.st108{fill:url(#SVGID_60_);}
	.st109{fill:url(#SVGID_61_);}
	.st110{opacity:0.28;}
	.st111{opacity:0.56;clip-path:url(#SVGID_63_);fill:#FFFFFF;}
	.st112{opacity:0.43;clip-path:url(#SVGID_65_);fill:#FFFFFF;}
	.st113{clip-path:url(#SVGID_65_);fill:none;stroke:#FFFFFF;stroke-miterlimit:10;}
	.st114{opacity:0.76;clip-path:url(#SVGID_65_);fill:#FFFFFF;}
	.st115{clip-path:url(#SVGID_65_);fill:#FFFFFF;}
	.st116{opacity:0.08;clip-path:url(#SVGID_65_);fill:#FFFFFF;}
	.st117{opacity:0.27;clip-path:url(#SVGID_65_);fill:#FFFFFF;}
	.st118{opacity:0.37;clip-path:url(#SVGID_65_);fill:#FFFFFF;}
	.st119{clip-path:url(#SVGID_65_);fill:none;}
	.st120{clip-path:url(#SVGID_67_);fill:none;}
	.st121{opacity:0.46;}
	.st122{opacity:0.86;fill:#FFFFFF;}
	.st123{opacity:0.4;}
	.st124{opacity:0.73;fill:#FFFFFF;}
	.st125{opacity:0.54;clip-path:url(#SVGID_69_);fill:#FFFFFF;}
	.st126{fill:#FF8A8A;}
	.st127{opacity:0.75;fill:#FFFFFF;}
	.st128{fill:#FFC181;}
	.st129{clip-path:url(#SVGID_71_);fill:#FFDFBD;}
	.st130{clip-path:url(#SVGID_71_);fill:#FF9D00;}
	.st131{clip-path:url(#SVGID_71_);fill:#FFF3DF;}
	.st132{clip-path:url(#SVGID_73_);fill:#FFBAE4;}
	.st133{opacity:0.8;clip-path:url(#SVGID_73_);fill:#FE82C8;}
	.st134{clip-path:url(#SVGID_73_);fill:#FE82C8;}
	.st135{opacity:0.79;clip-path:url(#SVGID_73_);fill:#FFBAE4;}
	.st136{fill:#FFFEEA;}
	.st137{fill:#58D196;}
	.st138{fill:#A6E5C3;}
	.st139{fill:#D2F2E1;}
	.st140{opacity:0.44;fill:#FFFFFF;}
	.st141{clip-path:url(#SVGID_75_);fill:#FFF9C1;}
	.st142{opacity:0.86;fill:#FFCCD5;}
	.st143{opacity:0.62;clip-path:url(#SVGID_77_);fill:#FFFFFF;}
	.st144{opacity:0.75;clip-path:url(#SVGID_77_);fill:#FFFFFF;}
	.st145{opacity:0.41;clip-path:url(#SVGID_77_);fill:#FFFFFF;}
	.st146{clip-path:url(#SVGID_77_);fill:none;}
	.st147{clip-path:url(#SVGID_79_);}
	.st148{opacity:0.44;clip-path:url(#SVGID_81_);fill:#FFFFFF;}
	.st149{opacity:0.43;clip-path:url(#SVGID_83_);fill:#FFFFFF;}
	.st150{clip-path:url(#SVGID_83_);fill:none;stroke:#FFFFFF;stroke-miterlimit:10;}
	.st151{opacity:0.76;clip-path:url(#SVGID_83_);fill:#FFFFFF;}
	.st152{clip-path:url(#SVGID_83_);fill:#FFFFFF;}
	.st153{opacity:0.08;clip-path:url(#SVGID_83_);fill:#FFFFFF;}
	.st154{opacity:0.27;clip-path:url(#SVGID_83_);fill:#FFFFFF;}
	.st155{opacity:0.37;clip-path:url(#SVGID_83_);fill:#FFFFFF;}
	.st156{clip-path:url(#SVGID_83_);fill:none;}
	.st157{opacity:0.54;clip-path:url(#SVGID_85_);fill:#FFFFFF;}
	.st158{opacity:0.62;fill:#FFFFFF;}
	.st159{opacity:0.41;fill:#FFFFFF;}
	.st160{opacity:0.43;fill:#FFFFFF;}
	.st161{opacity:0.76;fill:#FFFFFF;}
	.st162{opacity:0.08;fill:#FFFFFF;}
	.st163{opacity:0.27;fill:#FFFFFF;}
	.st164{opacity:0.54;fill:#FFFFFF;}
	.st165{clip-path:url(#SVGID_87_);fill:#FF6567;}
	.st166{clip-path:url(#SVGID_87_);fill:#FF8A8A;}
	.st167{clip-path:url(#SVGID_87_);fill:#FFC2C1;}
	.st168{clip-path:url(#SVGID_87_);fill:#FFFFFF;}
	.st169{clip-path:url(#SVGID_89_);fill:#E2E9FF;}
	.st170{clip-path:url(#SVGID_89_);fill:#EEF2FF;}
	.st171{opacity:0.54;clip-path:url(#SVGID_89_);fill:#EEF2FF;}
	.st172{opacity:0.54;clip-path:url(#SVGID_89_);fill:#8FAAF0;}
	.st173{clip-path:url(#SVGID_91_);}
	.st174{fill:#FF6B81;}
	.st175{clip-path:url(#SVGID_91_);fill:none;}
	.st176{fill:#FF1B6F;}
	.st177{clip-path:url(#SVGID_93_);fill:#FFDFBD;}
	.st178{clip-path:url(#SVGID_93_);fill:#FF9D00;}
	.st179{clip-path:url(#SVGID_93_);fill:#FFF3DF;}
	.st180{clip-path:url(#SVGID_95_);fill:#F0C6F4;}
	.st181{opacity:0.8;clip-path:url(#SVGID_95_);fill:#F8E3F8;}
	.st182{clip-path:url(#SVGID_95_);fill:#F8E3F8;}
	.st183{opacity:0.79;clip-path:url(#SVGID_95_);fill:#F0C6F4;}
	.st184{clip-path:url(#SVGID_97_);fill:#FFF9C1;}
	.st185{clip-path:url(#SVGID_99_);fill:#FFC5D6;}
	.st186{clip-path:url(#SVGID_99_);fill:#FF94B3;}
	.st187{clip-path:url(#SVGID_99_);fill:#FF6794;}
	.st188{clip-path:url(#SVGID_99_);fill:#FFFFFF;}
	.st189{clip-path:url(#SVGID_101_);fill:#698DE6;}
	.st190{clip-path:url(#SVGID_101_);fill:#8FAAF0;}
	.st191{opacity:0.54;clip-path:url(#SVGID_101_);fill:#8FAAF0;}
	.st192{clip-path:url(#SVGID_103_);}
	.st193{clip-path:url(#SVGID_103_);fill:none;}
	.st194{opacity:0.46;clip-path:url(#SVGID_107_);}
	.st195{clip-path:url(#SVGID_107_);fill:none;}
	.st196{fill:none;stroke:#FFFFFF;stroke-width:2;stroke-miterlimit:10;}
	.st197{opacity:0.45;fill:#FFFFFF;}
	.st198{opacity:0.8;fill:#FFFFFF;}
	.st199{opacity:0.79;fill:#FFFFFF;}
	.st200{fill:#F2C5AA;}
	.st201{fill:none;stroke:#FFFFFF;stroke-width:0.75;stroke-miterlimit:10;}
	.st202{fill:#FFFFFF;stroke:#FFFFFF;stroke-width:0.25;stroke-miterlimit:10;}
	.st203{fill:#D3C1B2;}
	.st204{fill:#FFC5D6;}
	.st205{clip-path:url(#SVGID_113_);fill:#F787A5;}
	.st206{clip-path:url(#SVGID_113_);fill:#FFE9F2;}
	.st207{clip-path:url(#SVGID_113_);fill:#D3CFB3;}
	.st208{clip-path:url(#SVGID_113_);fill:#FFDBE5;}
	.st209{clip-path:url(#SVGID_113_);}
	.st210{fill:#FFE9F2;}
	.st211{fill:#F787A5;}
	.st212{fill:#F2CCC1;}
	.st213{fill:#DF4E50;}
	.st214{clip-path:url(#SVGID_113_);fill:#FFC5D6;}
	.st215{fill:#FFDBE5;}
	.st216{fill:#FFB9C3;}
	.st217{fill:#FB91B5;}
	.st218{fill:#E3A180;}
	.st219{fill:#92693D;}
	.st220{fill:#FBBACC;}
	.st221{fill:#E6678D;}
	.st222{fill:#574435;}
	.st223{fill:#C9A47C;}
	.st224{fill:#641F1E;}
	.st225{fill:#F15E89;}
	.st226{fill:#E7005E;}
	.st227{fill:#DEB78A;}
	.st228{fill:#DFB78A;}
	.st229{fill:#FF6794;}
	.st230{fill:#D72264;}
	.st231{fill:#F7F7F7;}
	.st232{fill:#F2F2F2;}
	.st233{fill:#FFFBF0;}
	.st234{fill:#FFBFCF;}
	.st235{fill:#FF9DAE;}
	.st236{fill:#FFC2C1;}
	.st237{fill:#FFCCD5;}
	.st238{fill:#B49E8F;}
	.st239{fill:#FFE2EA;}
	.st240{fill:#A3C5DC;}
	.st241{fill:#DA956B;}
	.st242{fill:#BDA595;}
	.st243{fill:#583B34;}
	.st244{fill:#63443C;}
	.st245{fill:#B2D0E5;}
	.st246{fill:#FCFCFB;}
	.st247{fill:#D0ACA1;}
	.st248{fill:#A2C4DB;}
	.st249{fill:#E1D0C8;}
	.st250{fill:#9C7972;}
	.st251{fill:#77573F;}
	.st252{fill:#F3769C;}
	.st253{fill:#FBFBF9;}
	.st254{fill:#F8C4DC;}
	.st255{fill:#E4BAB5;}
	.st256{clip-path:url(#SVGID_115_);fill:#F787A5;}
	.st257{clip-path:url(#SVGID_115_);fill:#FFE9F2;}
	.st258{clip-path:url(#SVGID_115_);fill:#D3CFB3;}
	.st259{clip-path:url(#SVGID_115_);fill:#FFDBE5;}
	.st260{clip-path:url(#SVGID_115_);}
	.st261{clip-path:url(#SVGID_115_);fill:#FFC5D6;}
	.st262{fill:#00C377;}
	.st263{fill:#88E5AF;}
	.st264{fill:#00B45A;}
	.st265{fill:#7FDAAA;}
	.st266{fill:#F2BC3A;}
	.st267{fill:#B99F65;}
	.st268{fill:#98D284;}
	.st269{fill:#3C3724;}
	.st270{fill:#D6BEA2;}
	.st271{fill:#9C8274;}
	.st272{fill:#587147;}
	.st273{fill:#E7D6BE;}
	.st274{fill:#5CC689;}
	.st275{clip-path:url(#SVGID_117_);fill:#A6E5C3;}
	.st276{clip-path:url(#SVGID_117_);fill:#FFFFFF;}
	.st277{clip-path:url(#SVGID_117_);fill:#58D196;}
	.st278{fill:#FFEF6E;}
	.st279{fill:#FFE200;}
	.st280{clip-path:url(#SVGID_119_);fill:#FDA157;}
	.st281{clip-path:url(#SVGID_119_);fill-rule:evenodd;clip-rule:evenodd;fill:#FF8429;}
	.st282{clip-path:url(#SVGID_119_);fill:#F35000;}
	.st283{clip-path:url(#SVGID_119_);fill:#F9B946;}
	.st284{fill:#F35000;}
	.st285{fill:#FF8429;}
	.st286{fill:#FFAC33;}
	.st287{fill:#E56D00;}
	.st288{fill:#EF6406;}
	.st289{fill:#FF9C00;}
	.st290{fill:#130077;}
	.st291{fill:#FFB58D;}
	.st292{opacity:0.3;}
	.st293{fill:#FF7300;}
	.st294{fill:#6E0000;}
	.st295{fill-rule:evenodd;clip-rule:evenodd;fill:#FF9C00;}
	.st296{fill-rule:evenodd;clip-rule:evenodd;fill:url(#SVGID_120_);}
	.st297{opacity:0.3;fill-rule:evenodd;clip-rule:evenodd;fill:#A4002C;}
	.st298{fill-rule:evenodd;clip-rule:evenodd;fill:url(#SVGID_121_);}
	.st299{fill-rule:evenodd;clip-rule:evenodd;fill:url(#SVGID_122_);}
	.st300{opacity:0.5;fill-rule:evenodd;clip-rule:evenodd;fill:url(#SVGID_123_);}
	.st301{fill-rule:evenodd;clip-rule:evenodd;fill:#FFC485;}
	.st302{fill-rule:evenodd;clip-rule:evenodd;fill:url(#SVGID_124_);}
	.st303{fill-rule:evenodd;clip-rule:evenodd;fill:url(#SVGID_125_);}
	.st304{fill-rule:evenodd;clip-rule:evenodd;fill:url(#SVGID_126_);}
	.st305{opacity:0.5;fill-rule:evenodd;clip-rule:evenodd;fill:url(#SVGID_127_);}
	.st306{fill-rule:evenodd;clip-rule:evenodd;fill:#FDA157;}
	.st307{opacity:0.5;fill-rule:evenodd;clip-rule:evenodd;fill:#FDA157;}
	.st308{fill-rule:evenodd;clip-rule:evenodd;fill:#FF8429;}
	.st309{fill-rule:evenodd;clip-rule:evenodd;fill:#FFAC33;}
	.st310{opacity:0.62;fill-rule:evenodd;clip-rule:evenodd;fill:#C8002A;}
	.st311{opacity:0.5;fill-rule:evenodd;clip-rule:evenodd;fill:#FF8429;}
	.st312{opacity:0.5;fill-rule:evenodd;clip-rule:evenodd;fill:#8F5472;}
	.st313{opacity:0.3;fill-rule:evenodd;clip-rule:evenodd;fill:url(#SVGID_128_);}
	.st314{opacity:0.5;fill-rule:evenodd;clip-rule:evenodd;fill:url(#SVGID_129_);}
	.st315{opacity:0.3;fill-rule:evenodd;clip-rule:evenodd;fill:url(#SVGID_130_);}
	.st316{opacity:0.3;fill-rule:evenodd;clip-rule:evenodd;fill:url(#SVGID_131_);}
	.st317{clip-path:url(#SVGID_133_);}
	.st318{clip-path:url(#SVGID_133_);fill:#FF8429;}
	.st319{fill:#FDA157;}
	.st320{clip-path:url(#SVGID_135_);}
	.st321{fill:#F58800;}
	.st322{clip-path:url(#SVGID_137_);}
	.st323{fill:#F9B946;}
	.st324{clip-path:url(#SVGID_139_);}
	.st325{clip-path:url(#SVGID_139_);fill:#FF8429;}
	.st326{fill-rule:evenodd;clip-rule:evenodd;fill:url(#SVGID_140_);}
	.st327{fill-rule:evenodd;clip-rule:evenodd;fill:url(#SVGID_141_);}
	.st328{fill-rule:evenodd;clip-rule:evenodd;fill:url(#SVGID_142_);}
	.st329{opacity:0.5;fill-rule:evenodd;clip-rule:evenodd;fill:url(#SVGID_143_);}
	.st330{fill-rule:evenodd;clip-rule:evenodd;fill:url(#SVGID_144_);}
	.st331{fill-rule:evenodd;clip-rule:evenodd;fill:url(#SVGID_145_);}
	.st332{fill-rule:evenodd;clip-rule:evenodd;fill:url(#SVGID_146_);}
	.st333{opacity:0.5;fill-rule:evenodd;clip-rule:evenodd;fill:url(#SVGID_147_);}
	.st334{opacity:0.3;fill-rule:evenodd;clip-rule:evenodd;fill:url(#SVGID_148_);}
	.st335{opacity:0.5;fill-rule:evenodd;clip-rule:evenodd;fill:url(#SVGID_149_);}
	.st336{opacity:0.3;fill-rule:evenodd;clip-rule:evenodd;fill:url(#SVGID_150_);}
	.st337{opacity:0.3;fill-rule:evenodd;clip-rule:evenodd;fill:url(#SVGID_151_);}
	.st338{opacity:0.88;fill:#FFFEF3;}
	.st339{fill:#FFD066;}
	.st340{fill:#B0ACAD;}
	.st341{fill:#FFE473;}
	.st342{fill:#FFE888;}
	.st343{fill:#F7C800;}
	.st344{fill:#FFEB97;}
	.st345{clip-path:url(#SVGID_153_);fill:#FFCB33;}
	.st346{clip-path:url(#SVGID_153_);fill:#FFE406;}
</style>
<path class="st16" d="M102.23,202.14h321.76l108.67-9.79c0,0-19.45-48.45-24.75-49.18c-5.3-0.73-395.49,0-395.49,0L102.23,202.14z"
	/>
<path class="st7" d="M579.08,197.37c-8.01,3.28-56.41,4-56.41,4s1.09-59.32-48.77-52.41c-49.86,6.91-41.14,56.15-41.14,56.15
	l-239.7,4.28c0,0,3.89-62.54-49.03-55.96c-43.97,5.46-32.68,55.72-32.68,55.72c-43.83,2.27-48.36-12.62-48.36-12.62v-6.15h2.75
	v-16.18h-2.75v-12.05l9.22-21.11c0,0,0,0,0,0c15.53-26.69,137.33-33.97,137.33-33.97c18.5-10.63,33.84-18.54,45.83-24.28
	c19.14-9.16,40.96-18.09,62.07-20.17c57.17-5.65,104.18,0.75,115.7,2.62c13.46,2.18,81.16,31.66,86.25,34.21
	c5.1,2.55,46.65,6,51.99,6.65c5.34,0.65,5.18,5.98,5.18,5.98l0.73,4.74l2.79,18.04l0.68,4.4c3.88,1.94,3.89,7.5,3.89,7.5
	S587.08,194.09,579.08,197.37z"/>
<g>
	
		<ellipse transform="matrix(0.2152 -0.9766 0.9766 0.2152 -69.2448 298.539)" class="st6" cx="151.12" cy="192.35" rx="36.91" ry="36.91"/>
	<g>
		<path class="st6" d="M151.12,221.22c-15.92,0-28.87-12.95-28.87-28.87s12.95-28.87,28.87-28.87c15.92,0,28.87,12.95,28.87,28.87
			S167.03,221.22,151.12,221.22z M151.12,166.15c-14.45,0-26.2,11.75-26.2,26.2c0,14.45,11.75,26.2,26.2,26.2
			c14.45,0,26.2-11.75,26.2-26.2C177.31,177.91,165.56,166.15,151.12,166.15z"/>
	</g>
	<g>
		<g>
			<polygon class="st7" points="156.04,219.91 145.7,219.91 149.02,191.57 145.23,164.64 157.05,165.37 153.11,191.57 			"/>
		</g>
		<g>
			<polygon class="st7" points="129.66,210.34 124.49,201.38 150.69,190.09 172.12,173.34 177.39,183.95 152.74,193.63 			"/>
		</g>
		<g>
			<polygon class="st7" points="125.51,181.67 131.19,173.03 153.05,191.37 177.63,203 170.53,212.47 150.81,194.79 			"/>
		</g>
		<circle class="st7" cx="151.06" cy="192.3" r="9.63"/>
	</g>
</g>
<path class="st6" d="M113.91,140.94H89.77c-7.99,0-15.36,4.32-19.25,11.3l-0.83,1.48c-0.84,1.5,0.25,3.34,1.96,3.34h29.06
	c2.01,0,3.92-0.84,5.28-2.31l9.48-10.27C116.71,143.12,115.75,140.94,113.91,140.94z"/>
<path class="st6" d="M84.59,192.35h-8.24c-2.73,0-5.24,1.47-6.57,3.86l-0.28,0.51c-0.29,0.51,0.08,1.14,0.67,1.14h9.92
	c0.68,0,1.34-0.29,1.8-0.79l3.23-3.51C85.54,193.1,85.22,192.35,84.59,192.35z"/>
<path class="st7" d="M483.71,103.6l-123.21,2.93c-2.42,0.06-4.4-1.89-4.4-4.3V73.84c0-2.23,1.83-4.03,4.06-4
	c52.54,0.73,70.55,2.19,81.35,5.92c9.52,3.29,31.8,16.8,43.31,23.65C486.75,100.56,485.97,103.54,483.71,103.6z"/>
<path class="st2" d="M483.29,103.61l-0.07,0v-5.15c0.42,0.25,0.83,0.5,1.23,0.73C486.49,100.41,485.67,103.55,483.29,103.61z"/>
<path class="st8" d="M247.2,97.12l3.62,12.01L231,109.6c-1.16,0.03-1.66-1.46-0.72-2.13C234.76,104.25,243.05,98.51,247.2,97.12z"/>
<g>
	<path class="st6" d="M230.14,110.59c-0.81,0-1.52-0.51-1.77-1.29c-0.26-0.79,0.03-1.64,0.71-2.11l0.41-0.28
		c0.43-0.3,0.91-0.63,1.44-0.98c0.44-0.29,0.9-0.6,1.4-0.93l0.75-0.49c0.57-0.37,1.17-0.76,1.81-1.17c0.46-0.29,0.93-0.59,1.42-0.9
		l0.08-0.05c0.07-0.04,0.14-0.09,0.21-0.13c0.41-0.26,0.85-0.53,1.29-0.8l0.1-0.06c0.15-0.09,0.3-0.18,0.45-0.27
		c0.22-0.14,0.45-0.28,0.69-0.42c0.33-0.2,0.66-0.4,1-0.6c0.95-0.57,1.98-1.18,3.04-1.79c0.33-0.19,0.66-0.38,1.01-0.58
		c0.67-0.39,1.36-0.78,2.07-1.17v0l0.5-0.28c1.43-0.8,2.88-1.59,4.31-2.35l0.47-0.25c0.22-0.11,0.44-0.23,0.66-0.35
		c2.73-1.43,5.53-2.83,8.33-4.17l0.87-0.41c0.87-0.41,1.76-0.83,2.66-1.24c0.3-0.14,0.6-0.28,0.91-0.41
		c0.6-0.27,1.21-0.55,1.83-0.82l0.93-0.41c0.93-0.41,1.91-0.83,3.01-1.3c0.57-0.24,1.14-0.48,1.72-0.72
		c3.88-1.6,7.84-3.11,11.77-4.47l0.86-0.3c0.32-0.11,0.65-0.22,0.97-0.33l1.22-0.41c0.33-0.11,0.66-0.22,0.99-0.33l0.04-0.01
		c0.35-0.11,0.69-0.23,1.04-0.34c0.63-0.2,1.27-0.4,1.9-0.6c0.43-0.14,0.87-0.27,1.32-0.4c0.67-0.2,1.35-0.4,2.03-0.6l1.13-0.32
		c0.71-0.2,1.42-0.4,2.14-0.6c1.42-0.39,2.86-0.77,4.3-1.13l0.09-0.02c0.13-0.03,0.25-0.06,0.38-0.09c0.61-0.15,1.23-0.3,1.86-0.45
		c0.37-0.09,0.74-0.18,1.12-0.26l0.28-0.06c0.28-0.06,0.56-0.13,0.84-0.19c0.37-0.08,0.75-0.17,1.13-0.25
		c0.38-0.08,0.76-0.16,1.13-0.24c0.38-0.08,0.76-0.16,1.14-0.24c0.38-0.08,0.76-0.16,1.14-0.23l0.06-0.01
		c0.36-0.07,0.72-0.14,1.09-0.21c0.36-0.07,0.72-0.14,1.09-0.21c0.41-0.08,0.82-0.15,1.23-0.22c0.26-0.05,0.52-0.09,0.79-0.14
		l0.37-0.06c0.77-0.13,1.55-0.26,2.32-0.38c0.39-0.06,0.78-0.12,1.17-0.18l0.06-0.01c0.69-0.1,1.37-0.2,2.06-0.3
		c1.28-0.18,2.57-0.34,3.84-0.49l0.08-0.01c0.35-0.04,0.71-0.08,1.06-0.12c0.25-0.03,0.51-0.06,0.77-0.08
		c0.25-0.03,0.53-0.06,0.8-0.08c0.29-0.03,0.59-0.06,0.9-0.09c0.4-0.04,0.8-0.08,1.21-0.11c0.38-0.03,0.77-0.07,1.16-0.1
		c0.31-0.03,0.61-0.05,0.9-0.07l1.73-0.12c0.34-0.02,0.68-0.04,1.02-0.06l0.15-0.01c0.37-0.02,0.76-0.04,1.14-0.06
		c0.3-0.01,0.61-0.03,0.91-0.04l0.03,0c0.27-0.01,0.55-0.02,0.82-0.03l0.68-0.02c0.27-0.01,0.54-0.02,0.81-0.02
		c1.06-0.03,2.05,0.36,2.8,1.1c0.75,0.73,1.17,1.72,1.17,2.77v30.68c0,2.55-2.07,4.67-4.62,4.74l-108.66,2.58
		C230.17,110.59,230.15,110.59,230.14,110.59z M248.08,97.74l-0.67,0.38c-0.78,0.44-1.55,0.87-2.29,1.29
		c-0.34,0.19-0.67,0.39-1,0.58c-1.06,0.61-2.07,1.21-3.02,1.78c-0.34,0.2-0.67,0.4-0.99,0.6c-0.23,0.14-0.46,0.28-0.68,0.42
		c-0.15,0.09-0.3,0.18-0.44,0.27l-0.1,0.06c-0.44,0.27-0.87,0.54-1.29,0.8l-0.28,0.17c-0.48,0.3-0.95,0.6-1.4,0.89
		c-0.63,0.4-1.23,0.79-1.79,1.15l-0.75,0.49c-0.49,0.33-0.95,0.63-1.38,0.92c-0.52,0.35-0.99,0.67-1.42,0.97l-0.2,0.14l20.41-0.48
		l88-2.09c1.5-0.04,2.73-1.29,2.73-2.79V72.59c0-0.52-0.21-1.01-0.58-1.38c-0.38-0.37-0.87-0.56-1.4-0.55
		c-0.27,0.01-0.53,0.02-0.79,0.02l-0.68,0.02c-0.27,0.01-0.53,0.02-0.8,0.03l-0.03,0c-0.3,0.01-0.6,0.03-0.9,0.04
		c-0.38,0.02-0.75,0.04-1.12,0.06l-0.15,0.01c-0.33,0.02-0.67,0.04-1,0.06l-1.71,0.12c-0.29,0.02-0.58,0.04-0.87,0.07
		c-0.4,0.03-0.78,0.06-1.16,0.1c-0.4,0.03-0.8,0.07-1.19,0.11c-0.3,0.03-0.59,0.06-0.89,0.09c-0.27,0.02-0.53,0.05-0.79,0.08
		c-0.27,0.03-0.52,0.05-0.76,0.08c-0.36,0.04-0.7,0.08-1.05,0.12l-0.08,0.01c-1.25,0.14-2.52,0.31-3.79,0.48
		c-0.68,0.09-1.36,0.19-2.04,0.29l-0.06,0.01c-0.39,0.06-0.78,0.12-1.16,0.18c-0.77,0.12-1.54,0.25-2.3,0.38l-0.37,0.06
		c-0.26,0.05-0.52,0.09-0.78,0.14c-0.41,0.07-0.81,0.15-1.22,0.22c-0.36,0.07-0.71,0.13-1.07,0.2c-0.36,0.07-0.72,0.14-1.08,0.21
		l-0.06,0.01c-0.38,0.07-0.75,0.15-1.13,0.23c-0.38,0.08-0.76,0.16-1.14,0.24c-0.37,0.08-0.75,0.16-1.12,0.24
		c-0.37,0.08-0.75,0.16-1.12,0.25c-0.28,0.06-0.56,0.13-0.83,0.19l-0.29,0.07c-0.37,0.08-0.74,0.17-1.1,0.26
		c-0.62,0.15-1.24,0.3-1.85,0.45c-0.13,0.03-0.24,0.06-0.36,0.09l-0.09,0.02c-1.42,0.35-2.85,0.73-4.26,1.12
		c-0.71,0.19-1.42,0.39-2.12,0.59l-1.12,0.32c-0.67,0.2-1.34,0.4-2.01,0.6c-0.43,0.13-0.87,0.26-1.3,0.4
		c-0.64,0.2-1.26,0.4-1.89,0.6c-0.34,0.11-0.68,0.22-1.02,0.33l-0.04,0.01c-0.33,0.11-0.65,0.21-0.98,0.32l-1.22,0.41
		c-0.32,0.11-0.64,0.22-0.96,0.33l-0.86,0.3c-3.89,1.36-7.82,2.85-11.67,4.44c-0.57,0.24-1.14,0.47-1.71,0.71
		c-1.09,0.46-2.07,0.88-2.99,1.28l-0.93,0.41c-0.61,0.27-1.22,0.54-1.82,0.81c-0.31,0.14-0.6,0.27-0.9,0.41
		c-0.9,0.41-1.78,0.82-2.65,1.23l-0.87,0.41c-2.78,1.32-5.55,2.71-8.25,4.13c-0.22,0.11-0.44,0.23-0.66,0.35l-0.46,0.25
		C250.67,96.32,249.37,97.03,248.08,97.74z"/>
</g>
<g>
	<path class="st6" d="M450.32,105.4c-0.72,0-1.42-0.28-1.95-0.81c-0.6-0.58-0.94-1.41-0.94-2.27V81.6c0-1.18,0.17-2.68,1.13-3.28
		c0.86-0.54,2.32-0.15,3.23,0.3c1.01,0.5,1.72,0.85,2.1,1.06c0.04,0.02,0.1,0.05,0.15,0.08l0.41,0.22
		c5.16,2.82,12.51,7.26,21.85,13.19c0.4,0.25,0.79,0.5,1.19,0.75c0.94,0.6,1.86,1.19,2.74,1.75l3.27,2.11
		c0.57,0.37,1.11,0.72,1.64,1.06c0.07,0.04,0.15,0.1,0.23,0.15l0.07,0.05c1.09,0.71,1.57,2.06,1.2,3.37
		c-0.35,1.24-1.36,2.06-2.58,2.09l-0.36,0.01l-33.32,0.87C450.37,105.4,450.35,105.4,450.32,105.4z M450.5,80.04
		c-0.28,0-0.5,0.11-0.64,0.19c-0.45,0.28-0.71,0.79-0.71,1.37v20.72c0,0.4,0.15,0.78,0.42,1.04c0.22,0.21,0.49,0.32,0.78,0.32
		l33.67-0.87c0.69-0.02,0.92-0.65,0.97-0.84c0.13-0.45,0.07-1.09-0.49-1.46l-0.07-0.05c-0.07-0.05-0.15-0.1-0.23-0.15
		c-0.53-0.34-1.07-0.7-1.64-1.07l-3.27-2.11c-0.88-0.57-1.79-1.15-2.73-1.75c-0.39-0.25-0.78-0.5-1.18-0.75
		c-9.31-5.92-16.62-10.34-21.75-13.14l-0.42-0.23c-0.04-0.02-0.08-0.05-0.13-0.07c-0.37-0.2-1.08-0.56-2.06-1.04
		C450.84,80.07,450.66,80.04,450.5,80.04z"/>
</g>
<path class="st6" d="M247.2,97.12l3.62,12.01L231,109.6c-1.16,0.03-1.66-1.46-0.72-2.13C234.76,104.25,243.05,98.51,247.2,97.12z"/>
<g>
	<path class="st6" d="M360.38,107.49c-1.38,0-2.68-0.53-3.67-1.5c-1.02-1-1.59-2.34-1.59-3.77V73.84c0-1.34,0.53-2.6,1.48-3.54
		c0.96-0.94,2.22-1.44,3.56-1.43c54.23,0.75,71.03,1.98,81.68,5.98l0.63,0.24v30.47l-81.95,1.94
		C360.47,107.49,360.43,107.49,360.38,107.49z M360.09,70.8c-0.8,0-1.56,0.31-2.13,0.87c-0.58,0.57-0.9,1.34-0.9,2.16v28.39
		c0,0.9,0.36,1.75,1,2.38c0.65,0.63,1.51,0.97,2.41,0.94l80.06-1.9V76.43c-10.36-3.68-28.14-4.9-80.39-5.63
		C360.12,70.8,360.11,70.8,360.09,70.8z"/>
</g>
<path class="st6" d="M209.54,107.09l-0.95,1.58c-3.66,6.13-10.09,10.08-17.21,10.58c-19.2,1.35-57.94,4.08-78.41,5.51
	c-27.68,1.93-40.56,16.07-40.76,16.3C87.74,114.37,209.54,107.09,209.54,107.09z"/>
<g>
	
		<rect x="287.86" y="131.02" transform="matrix(0.0118 -0.9999 0.9999 0.0118 214.3983 479.9583)" class="st6" width="124.32" height="0.97"/>
</g>
<g>
	
		<rect x="192.56" y="194.23" transform="matrix(0.9998 -0.0197 0.0197 0.9998 -3.7705 6.1859)" class="st6" width="239.87" height="0.97"/>
</g>
<g>
	<path class="st6" d="M423.05,192.38l-0.97-0.05c0.67-12.36,4.33-22.77,10.89-30.96c5.24-6.55,12.33-11.68,21.07-15.26
		c13.3-5.44,26.46-5.58,29.18-5.54V103.6h0.97v37.97l-0.51-0.02c-0.15-0.01-14.65-0.53-29.3,5.47c-8.58,3.52-15.53,8.55-20.67,14.97
		C427.3,170.01,423.71,180.23,423.05,192.38z"/>
</g>
<g>
	<path class="st16" d="M221.82,196.5c-0.38-32.06,1.41-54.25,2.97-67.21c1.7-14.07,3.51-20.64,3.53-20.71l0.93,0.26
		c-0.07,0.26-7.19,26.44-6.47,87.65L221.82,196.5z"/>
</g>
<g>
	<g>
		
			<rect x="168.1" y="99.45" transform="matrix(0.3712 -0.9286 0.9286 0.3712 24.503 236.3332)" class="st6" width="37.28" height="1.24"/>
	</g>
	<path class="st6" d="M178.09,117.86c0-0.51,0.78-0.92,1.74-0.92c0.96,0,1.74,0.41,1.74,0.92c0,0.51-0.78,0.92-1.74,0.92
		C178.87,118.78,178.09,118.37,178.09,117.86z"/>
</g>
<g>
	<path class="st7" d="M208.96,111.02c-0.57-0.11-1.09-0.46-1.4-1.01c-0.11-0.2-11.04-19.92-28.19-42.77
		c-15.76-21.01-40.14-49.03-66.78-63.25c-0.98-0.53-1.36-1.75-0.83-2.74c0.53-0.99,1.75-1.36,2.74-0.83
		c12.09,6.45,24.69,16.14,37.47,28.8c10.18,10.09,20.5,22.08,30.67,35.64c17.3,23.07,28.35,42.99,28.46,43.19
		c0.54,0.98,0.18,2.21-0.79,2.75C209.88,111.04,209.41,111.1,208.96,111.02z"/>
</g>
<path class="st6" d="M103.35,117.9c0,0,4.91-0.05,7.47,0.46c2.56,0.51,6.95,2.08,5.53,2.46c-1.42,0.38-7.05,0.94-8.58,1.19
	c-1.53,0.25-2.83,1.95-4.43,1.7c-1.6-0.25-3.83-2.46-3.83-2.46L103.35,117.9z"/>
<path class="st6" d="M101.84,120.1c1.52-1.81,1.51-2.2,1.51-2.2S89.07,100.23,87.8,98.51c-1.27-1.72-11.85-29.96-11.85-29.96l0,0
	c-8.91-1.14-15.24,8.47-10.68,16.21c5.45,9.25,11.2,18.84,12.81,20.93c5.44,7.08,21.05,16.32,21.05,16.32
	S100.65,121.52,101.84,120.1z"/>
<g>
	
		<rect x="83.55" y="115.93" transform="matrix(0.7735 0.6338 -0.6338 0.7735 96.5021 -26.2242)" class="st7" width="2.79" height="11.96"/>
	<path class="st7" d="M92.9,115.53c-0.01,0.01-0.02,0.02-0.02,0.03c-0.71,0.83-1.97,0.98-2.85,0.33c-0.99-0.72-1.15-2.11-0.39-3.05
		c0-0.01,0.01-0.01,0.01-0.02c0.28-0.33-0.06-0.81-0.46-0.65c-0.57,0.23-1.08,0.62-1.47,1.16c-0.95,1.33-0.75,3.2,0.44,4.31
		c1.41,1.31,3.6,1.14,4.79-0.32c0.35-0.43,0.58-0.93,0.68-1.44C93.73,115.45,93.18,115.19,92.9,115.53z"/>
	<path class="st7" d="M81.04,130.01c0.01-0.01,0.01-0.02,0.02-0.03c0.67-0.86,0.57-2.12-0.24-2.86c-0.9-0.83-2.3-0.72-3.06,0.22
		c0,0.01-0.01,0.01-0.01,0.02c-0.27,0.33-0.81,0.1-0.73-0.32c0.11-0.6,0.39-1.18,0.85-1.67c1.12-1.19,2.99-1.37,4.31-0.41
		c1.56,1.12,1.83,3.3,0.63,4.76c-0.35,0.43-0.8,0.75-1.28,0.95C81.12,130.83,80.76,130.35,81.04,130.01z"/>
</g>
<path class="st6" d="M77.83,119.5c0,0,5.47-0.28,6.35-0.06c0.88,0.22,3.44,1.43,3.44,1.69c0,0.26-0.02,1.04-0.57,0.98
	c-0.54-0.06-1.02-0.44-0.95-0.21c0.07,0.23,2.12,0.44,2,1.47c-0.12,1.03-1.48,4-3.85,3.71c-2.37-0.29-6.51-3.83-6.9-3.93
	C74.04,122.27,77.83,119.5,77.83,119.5z"/>
<g>
	<path class="st7" d="M2.83,215.71c0,0-3.4,3.15-2.74,5.4c0.66,2.24,3.74,3.74,4.15,6.47c0.42,2.74,2.08,4.23,3.57,4.23
		c1.49,0,7.12,0,7.12,0s1.1-1.93-1.56-2.51c-2.66-0.58-3.66-3.8-3.49-6.79c0.17-2.99-0.25-6.97-0.25-6.97l-5.64-1.33L2.83,215.71z"
		/>
	<path class="st7" d="M44.58,224.31c0,0-0.83,6.64,0.66,7.39c1.49,0.75,19.34,0.5,19.34,0.5s0-2.24-3.07-2.74
		c-3.07-0.5-8.47-2.32-9.38-6.39C51.22,219,44.58,224.31,44.58,224.31z"/>
	<path class="st7" d="M60.72,122.91c0,0-1.01,12.58-2.19,27.71c-1.61,20.55-3.55,45.79-3.74,50.57c-0.33,8.3-1.66,21.58-1.66,21.58
		s-3.15,3.16-9.46,1.83c0,0-5.62-18.96-7.23-39.02c-0.02-0.33-0.05-0.66-0.07-0.99c-1.49-20.42-3.82-63.42-3.82-63.42L60.72,122.91z
		"/>
	<path class="st7" d="M52.63,132.97l-16.2,52.6c-0.02-0.33-0.05-0.66-0.07-0.99c-1.49-20.42-3.82-63.42-3.82-63.42L52.63,132.97z"/>
	<path class="st7" d="M56.12,124.41c0,0-18.18,45.57-30.13,66.99S10.3,218.79,10.3,218.79s-6.85-2.74-7.47-4.61
		c0,0,4.57-41.34,12.58-51.42c4.52-5.7,4.67-16.91,6.71-28.47c2.8-15.86,8.83-32.92,8.83-32.92L56.12,124.41z"/>
</g>
<path class="st6" d="M64.44,60.91c0,0,7.57,12.96,14.84,14.58c0,0-0.26-3.25-1.49-6.05c-0.37-0.84-0.25-1.81,0.32-2.52
	c0.32-0.4,0.62-0.78,0.89-1.15c1.8-2.36,2.65-3.8,2.65-3.8l-2.54-6.58l-1.72-4.47c-0.78,1.47-1.65,2.72-2.56,3.79
	C70.14,60.22,64.44,60.91,64.44,60.91z"/>
<path class="st7" d="M74.83,54.7c0,0-0.81,6.55,4.18,11.06c1.8-2.36,2.65-3.8,2.65-3.8l-2.54-6.58
	C76.47,54.61,74.83,54.7,74.83,54.7z"/>
<path class="st6" d="M83.62,62.91c0,0-11.13-4.19-8.42-11.08c2.71-6.89,3.1-12.08,10.33-9.69c7.22,2.38,7.56,5.55,7.21,8.07
	C92.4,52.73,86.59,63.82,83.62,62.91z"/>
<path class="st278" d="M72.1,104.49c0.33-0.66,0.67-1.32,1.03-1.99c1.81-3.39,3.35-6.97,4.51-10.47c0.91-2.72,1.58-5.39,1.99-7.88
	c0.6-3.67,0.47-6.54-0.12-9.43c0-0.02-1.13-4.43-1.14-4.45c-7.02-3.15-8.77-11.25-8.77-11.25s-23.78,4.57-36.75,36.5
	c0,0-0.84,2.37-1.92,5.84c-0.23,0.76-0.48,1.56-0.73,2.41C28.5,109.54,67.7,113.24,72.1,104.49z"/>
<path class="st6" d="M49.26,81.98c0,0-6.77,11.84-2.63,20.89c4.13,9.04,14.09-4.84,14.09-4.84L49.26,81.98z"/>
<path class="st278" d="M73.46,39.1c-0.08-0.15-0.31-0.31-0.86-0.48c0,0,0.51-0.18,1.12-0.05c0.3-0.76,1.04-2.06,2.46-2.09
	c0,0-0.81,0.22-1.1,1.04c1.93-1.26,5.53-1.66,14.56,1.23c11.9,3.81,6.06,10.76,4.27,11.33c-1.79,0.57-5.14-2.93-8.12-3.37
	c-2.98-0.45-4.54,3.72-5.67,4.07c-1.13,0.36-0.5-0.59-1.7-1.52c-1.2-0.93-1.85,1.3-1.81,2.86c0.04,1.56-2.25,3.07-2.25,3.07
	s0,0-1.39-2.47c-1.39-2.47-1.13-11.52,0.15-13.17C73.23,39.4,73.34,39.25,73.46,39.1z"/>
<path class="st7" d="M60.3,128.21c0.42-13.41,7.4-14.96,11.8-23.72c0.33-0.66,0.67-1.32,1.03-1.99c1.81-3.39,3.35-6.97,4.51-10.47
	c0.91-2.72,1.58-5.39,1.99-7.88l-12.08-4.59c-2.32-0.88-4.93,0.1-6.09,2.29c-2.99,5.63-9.41,15.56-18.23,17.42
	c-6.36,1.34-10.12,1.88-12.29,2.09c-0.23,0.76-0.48,1.56-0.73,2.41c-1.71,5.76-4.08,12.99-3.31,18.35
	C27.48,126.26,60.27,129.28,60.3,128.21z"/>
<path class="st7" d="M63.18,61.05c0,0,2.38,2.91,3.31,10.49c0.79,6.43-0.45,11.45-0.45,11.45l-2.07-0.65c0,0,2.71-10.94-2.63-20.67
	C61.35,61.67,61.47,61.5,63.18,61.05z"/>
<path class="st278" d="M79.62,122.52c0.86-2.36,0-4.08,0-4.08S66.6,106.53,65.82,104.4c-0.78-2.13,2.55-26.92,2.55-26.92
	s-8.78-9.12-14.16-8.03c-2.42,0.49-5.68,5.81-5.65,6.03c1.08,10.13,3.03,27.19,4.58,31.17c3.44,8.85,23.07,17.9,23.07,17.9
	S78.92,124.44,79.62,122.52z"/>
<g>
	
		<ellipse transform="matrix(0.2152 -0.9766 0.9766 0.2152 184.0795 618.9896)" class="st6" cx="477.15" cy="194.97" rx="36.91" ry="36.91"/>
	<g>
		<path class="st6" d="M477.15,223.83c-15.92,0-28.87-12.95-28.87-28.87s12.95-28.87,28.87-28.87c15.92,0,28.87,12.95,28.87,28.87
			S493.06,223.83,477.15,223.83z M477.15,168.77c-14.45,0-26.2,11.75-26.2,26.2c0,14.45,11.75,26.2,26.2,26.2
			c14.45,0,26.2-11.75,26.2-26.2C503.35,180.52,491.59,168.77,477.15,168.77z"/>
	</g>
	<g>
		<g>
			<polygon class="st7" points="482.08,222.53 471.73,222.53 475.05,194.18 471.26,167.26 483.08,167.99 479.14,194.18 			"/>
		</g>
		<g>
			<polygon class="st7" points="455.69,212.96 450.52,204 476.73,192.71 498.15,175.96 503.42,186.56 478.77,196.25 			"/>
		</g>
		<g>
			<polygon class="st7" points="451.54,184.29 457.22,175.65 479.08,193.99 503.66,205.61 496.56,215.09 476.84,197.41 			"/>
		</g>
		<circle class="st7" cx="477.09" cy="194.92" r="9.63"/>
	</g>
</g>
</svg>
