<svg id="Layer_1" enable-background="new 0 0 511.306 511.306" height="512" viewBox="0 0 511.306 511.306" width="512" xmlns="http://www.w3.org/2000/svg"><g><circle cx="255.653" cy="255.653" fill="#004a63" r="255.653"/><path d="m256.153 0-.072 511.291c.067 0 .133.002.2.002 141.193-.347 255.371-115.087 255.024-256.28-.346-140.816-114.478-254.749-255.152-255.013z" fill="#002431"/><g><path d="m444.836 271.074c-8.788.023-15.93-7.083-15.953-15.87-.248-95.519-78.161-173.028-173.68-172.78-95.52.248-173.029 78.161-172.781 173.68.023 8.788-7.083 15.93-15.87 15.953-8.788.023-15.93-7.083-15.953-15.87-.293-113.067 91.455-205.293 204.522-205.587 113.066-.294 205.292 91.454 205.586 204.521.022 8.787-7.083 15.93-15.871 15.953z" fill="#fff5f5"/></g><path d="m331.288 227.062-151.435.393c-6.882.018-12.476-5.547-12.493-12.429l-.099-38.115c-.018-6.882 5.547-12.476 12.429-12.493l151.435-.393c6.882-.018 12.476 5.547 12.493 12.429l.099 38.115c.018 6.882-5.547 12.475-12.429 12.493z" fill="#e6ffff"/><g><g><path d="m299.454 413.36c-4.072.011-8.149-1.532-11.264-4.632-17.617-17.525-46.207-17.451-63.733.165-6.197 6.231-16.273 6.257-22.503.058-6.23-6.198-6.256-16.273-.058-22.503 29.902-30.057 78.681-30.184 108.739-.282 6.23 6.198 6.256 16.273.058 22.503-3.098 3.116-7.166 4.68-11.239 4.691z" fill="#74fff4"/></g><g><path d="m340.272 372.33c-4.073.011-8.148-1.532-11.264-4.632-19.494-19.392-45.372-30.033-72.868-29.962s-53.319 10.847-72.712 30.34c-6.197 6.231-16.273 6.257-22.503.058-6.23-6.197-6.256-16.273-.058-22.503 25.387-25.52 59.193-39.626 95.19-39.72s69.876 13.837 95.395 39.225c6.23 6.198 6.256 16.273.058 22.503-3.098 3.116-7.166 4.68-11.238 4.691z" fill="#00eed0"/></g><g><circle cx="256.407" cy="440.677" fill="#00eed0" r="15.912"/></g><path d="m256.057 305.912c-.013 0-.026.001-.039.001l.083 31.824c.013 0 .026-.001.039-.001 27.496-.071 53.375 10.57 72.868 29.962 3.115 3.099 7.191 4.642 11.264 4.632 4.072-.011 8.141-1.575 11.239-4.69 6.198-6.23 6.172-16.305-.058-22.503-25.52-25.388-59.399-39.319-95.396-39.225z" fill="#00ccb2"/><path d="m256.169 363.824.083 31.809c11.553-.04 23.121 4.322 31.939 13.094 3.115 3.099 7.191 4.642 11.264 4.632 4.072-.011 8.141-1.575 11.239-4.69 6.198-6.23 6.172-16.305-.058-22.503-15.039-14.961-34.765-22.403-54.467-22.342z" fill="#00eed0"/><path d="m256.327 424.765.083 31.821c4.085-.001 8.169-1.563 11.278-4.688 6.198-6.23 6.172-16.305-.058-22.503-3.125-3.109-7.218-4.65-11.303-4.63z" fill="#00ccb2"/></g><path d="m256.117 50.6v31.822c95.101.248 172.519 77.557 172.766 172.771.023 8.788 7.165 15.893 15.953 15.87s15.893-7.165 15.87-15.953c-.292-112.733-91.979-204.263-204.589-204.51z" fill="#cdd7e8"/><path d="m331.124 164.025-75.007.195v63.038l75.171-.195c6.882-.018 12.447-5.612 12.429-12.493l-.099-38.115c-.018-6.884-5.612-12.448-12.494-12.43z" fill="#b3ffff"/></g></svg>