<svg id="wordPeople" data-name="wordPeople" xmlns="http://www.w3.org/2000/svg" viewBox="0 0 679.88 426.47">
<defs>
<style>
.word-people-svg{
    fill:#ed4233;
}
</style>
</defs>
<title>people</title>
<path class="word-people-svg" d="M46.12,63.35A65.88,65.88,0,0,0,31.68,82.8q-5.59,11.3-5.59,17.82a22.62,22.62,0,0,1,1.4,6.76q0,5.36-6.52,9.08-7.22-.7-14-11.41Q0,94.1,0,84.55,0,70.34,25.16,48.21,48.68,26.55,68.48,17.7,106.21,1.4,134.86,1.4q25.38,0,35.87,10.48a64,64,0,0,1,7.69,9.67q4,5.94,6.17,10.13T189.71,42q2.91,6.17,3.38,7.1l.93,2.79q0,1.87.47,9.9T195,72q0,10.48-2.33,17.24a39.82,39.82,0,0,1-2.1,7,88.25,88.25,0,0,1-4.54,9.2q-3.15,5.71-4.31,8.27a285.49,285.49,0,0,1-51.47,70.57q-4,6.06-14.67,15t-18.05,16q-7.34,7-6.41,11.41,0,34,2.33,56.83,2.56,19.1,10.95,45.65a80.22,80.22,0,0,0,2.91,7.69q2.91,7.22,2.91,8.62,0,3.72-13,3.73-14.91,0-27-36.1T58,259.93q0-3,.23-7.57t.47-11.3q.23-6.75.47-12.11a21.45,21.45,0,0,0-.35-2.79,21.59,21.59,0,0,1-.35-2.79,44.87,44.87,0,0,1,1-5.24,33.38,33.38,0,0,0,1-6.4q0-2.79-.47-15.49t-.47-17.82q0-17.47,2.33-22.83,2.79-14.21,4.19-47.28,1.4-31,5.36-45.88,2.33-8.85,2.33-10,0-5.12-2.33-5.12-2.56,0-11.18,5.36A86.74,86.74,0,0,0,46.12,63.35m58.7,110.4q24.92-26.55,45-70.11,12.81-26.32,12.81-53.1,0-10.48-8.5-18.05T131.6,24.92a118.92,118.92,0,0,0-27.72,3.73Q89.67,32.14,89.67,40.06q0,4,9.09,19.1,2.32,7.69,2.33,26.32,0,12.11-4.89,47.75-4.66,33.31-4.66,46.58,0,4.43.47,4.42.93,0,6.17-4.31a46.58,46.58,0,0,0,6.64-6.17"/>
<path class="word-people-svg" d="M217.31,275.3q6.29-6.29,18.63-22.36a55.35,55.35,0,0,0,5.82-7.69q.93-1.4,2.33-3.38c.93-1.32,1.67-2.33,2.21-3s1.16-1.51,1.86-2.45,1.24-1.67,1.63-2.21a11.85,11.85,0,0,1,1.28-1.51,11.17,11.17,0,0,1,1.16-1,1.54,1.54,0,0,1,.93-.35q2.32,0,2.33,4,0,3-8.62,17.24-20.27,35.64-33.31,48-12.35,11.65-26.79,11.65-17.47,0-30.16-15.26T143.94,259l7.22-42.86a197.86,197.86,0,0,1,18.17-31.44q10.71-16.3,20.5-16.3,9.55,0,16,4.66a15.21,15.21,0,0,1,6.4,13,18.67,18.67,0,0,0,2.1,2.91,44.57,44.57,0,0,1,4.31,7,19,19,0,0,1,2.21,8.73q0,9.78-11.41,27.48-11.18,18.17-20,25.85A51.26,51.26,0,0,1,174,269a23.08,23.08,0,0,0,4.89,14.79A15.11,15.11,0,0,0,191.22,290q11.41,0,26.09-14.67m-34.7-67.78V208q-11.42,24.23-11.41,46.35c0,1.24.15,1.86.47,1.86q1.4-.23,8.38-12.35a.68.68,0,0,1,.23-.46,269.36,269.36,0,0,0,14.21-29.11q7.22-17,7.22-25.85,0-3.26-1.86-3.26-4.89,0-17.23,22.36"/>
<path class="word-people-svg" d="M337,251.78a58.3,58.3,0,0,0,8.62-9.2q4.19-5.47,6.52-8.85t3.49-3.38q3.26,0,3.26,5.36,0,5.82-12.34,22.36-12.12,16.31-24.69,16.3-10.95,0-20-16.3l-2.1-3.26a128,128,0,0,1-5.59,17q-7.46,20-12.58,27t-11.88,7q-33.31,0-33.31-50.54,0-17.47,5.12-40.53,5.12-19.1,13-32.61,10.71-16.07,19.56-16.07A17.67,17.67,0,0,1,287.88,172q5.36,5.94,5.36,15,19.1,0,19.1,15.84,0,2.57-1.28,13.28a147.77,147.77,0,0,0-1.28,15.14,38.24,38.24,0,0,0,4.78,18.4q4.77,8.85,9.2,8.85,4.66,0,13.28-6.76m-51,0a34.3,34.3,0,0,0,2.33-11.88,10.76,10.76,0,0,0-1.28-2.79,42.33,42.33,0,0,1-2.56-5.82,20.15,20.15,0,0,1-1.28-7q0-3.26.47-11.3t.47-8.74q0-5.35-2.33-5.36-.7-.46-2.68,2.1a50.6,50.6,0,0,0-4.54,7.57,109.07,109.07,0,0,0-4.89,11.18,86.13,86.13,0,0,0-3.84,14,66,66,0,0,0-1.28,14.79q0,1.63-.23,7.34t-.23,7.57q0,9.55,5.12,22.36a128.25,128.25,0,0,0,16.77-34"/>
<path class="word-people-svg" d="M419.48,309.08q-7.69,5.36-21,5.36a14.12,14.12,0,0,1-9.9-4.31q-4.54-4.31-4.54-8.73a190.44,190.44,0,0,1,2.1-26.09q2.1-15.6,4.19-16.3.46-.47,1.4,2.33.7,2.57,2.33,11.65,4.66,25.85,8.15,30.51,8.15-9.31,12.93-31.09a215.62,215.62,0,0,0,4.77-46.23q0-34-6.29-34-6.06,0-19.1,29.58-12.81,30.52-17.47,56.37Q368.71,319.56,366.61,406a64.6,64.6,0,0,0,.93,6.75l.93,5.59a7,7,0,0,1-3,5.94,10.86,10.86,0,0,1-6.52,2.21q-15.37-8.16-15.37-34.24,0-47.75,4.89-150Q354,131.37,354,103.65a110.12,110.12,0,0,0-1.28-18.75,46.77,46.77,0,0,0-2.56-9.9,11.48,11.48,0,0,1-1.28-4q0-5.59,6.75-5.59,9.55,0,18.52,7.69t9,20.5q0,15.84-1.4,33.77-.47,9.08-3.26,39.6l-2.8,30q-.7,9.78-1.28,18.52t-.93,12.81q-.35,4.08-.35,4.54c0,2.18.47,3.26,1.4,3.26Q382,202.64,393.28,183t22.47-19.68q10.71,0,21.43,10,11.41,9.32,11.41,19.56a299.78,299.78,0,0,1-8.62,72.9q-7.92,34.24-20.5,43.32"/>
<path class="word-people-svg" d="M500.53,327.24l46.82-66.38L555.27,249q12.81-18.63,15.84-18.63,2.79,0,2.8,5.36,0,2.57-7.45,15.14l-17.24,29.58q-8.38,14.21-11.41,21,0,.24-18.17,33.07-7.92,14.67-25.85,14.67-32.84,0-32.84-83.38,0-40.29,2.33-79.19,4.66-73.83,19.1-131.6,14.2-55,30.51-55,7.92,0,15.84,10,8.15,9.55,9.55,17.7a214.79,214.79,0,0,1,3.26,39.6q0,49.61-20,106.44a479,479,0,0,1-32.38,72,429.43,429.43,0,0,0,2.8,47.28q3.26,24,8.62,34.24m-7.69-202.17a335.36,335.36,0,0,0-3.73,48.68l-1.86,36.57v4.89q23.76-67.54,30-117.39,2.79-31.44,2.8-39.13,0-29.11-4.43-29.12-7.69,0-22.82,95.49"/>
<path class="word-people-svg" d="M604.88,362.65q-20.5,0-34.82-21.66t-14.32-55.67q0-31,10.48-69.18a197,197,0,0,1,21.43-41.92q13.51-19.1,25.85-19.1,9.55,0,16,4.54t6.41,12.93a20.46,20.46,0,0,0,2.44,3,46.38,46.38,0,0,1,5,7.22,17.55,17.55,0,0,1,2.56,8.85q0,20.73-17.7,50.54-17.24,29.58-28.65,39.6Q591.37,290,584.38,293a126.89,126.89,0,0,0,5.82,36.57q5.59,18.63,16.07,18.63,20.73,0,38.66-32.84,18.17-34.24,18.17-64.52,0-4.42.58-5.71t3.61-1.28q4.19,0,8.39,6.52a26.16,26.16,0,0,1,4.19,14.44q0,34.71-21.66,66.61-21,31.21-53.34,31.21m-5.36-160.48q-3.26,6.52-3.26,7.69-4.66,10.71-9.55,31-5.13,24.23-5.12,37.27,0,1.4.93,1.4,1.4,0,11.41-16.07,9.08-13.74,21-42.16,10.48-25.62,10.48-46.12,0-3.49-1.86-3.49-10.48,0-24,30.51"/>
</svg>