<svg xmlns="http://www.w3.org/2000/svg" viewBox="0 0 283.46 275.32">
    <defs>
        <style>
            .cls-5{fill:#020407}
        </style>
    </defs>
    <g style="isolation:isolate">
        <g id="Слой_1" data-name="Слой 1">
            <path d="M283.26,262.62c0,6-63.26,10.84-141.3,10.84S.67,268.61.67,262.62,63.93,251.78,142,251.78,283.26,256.64,283.26,262.62Z" style="fill:#808686;opacity:.2;mix-blend-mode:multiply"/>
            <path d="M77.44,50.17s-9.39,50.46,31.36,76.74,50.77,16.25,43-9.44S141.3,74.18,141.3,74.18s-.49-9.9-16-5.8-26.52,3.05-32.63-4.52S77.44,50.17,77.44,50.17Z" style="stroke:#020407;stroke-miterlimit:10;fill:#020407"/>
            <path class="cls-5" d="M53.65,63.5c-1.9,2.6-4.71,3.79-6.28,2.64L37,58.6c-1.57-1.15-1.3-4.18.61-6.79h0c1.9-2.6,4.71-3.79,6.28-2.64l10.33,7.54c1.56,1.14,1.29,4.18-.61,6.79Z"/>
            <path d="M27.19,75.68S-22,85.83,26.32,121s77.07,52.1,77.07,52.1,68.29,52.59,109.27,46.79,50.47-21.8,37.92-37.6,4.32,42.55-68.44,9.09C143,171.87,121.34,153.88,120,152s-33.92-24.66-52.65-35.36S26.93,86.47,27.19,75.68Z" style="fill:#fff"/>
            <path class="cls-5" d="M206,222.8c-41.13,0-100-44.62-104-47.67C99.78,173.82,71,156.57,24.85,123c-16.58-12-24-22.89-22-32.2C5.72,77.7,25.83,73.41,26.69,73.23l3.08-.64-.08,3.15c-.21,8.55,18.33,27,38.89,38.77C86.24,124.6,120.13,148,122,150.56c1.35,1.61,22.07,19.07,61.25,38.54,20.81,9.57,36.32,12.48,46,8.62,7.53-3,10.16-9.51,12.08-14.28,1.36-3.37,2.43-6,5.13-6.43,2.45-.36,4.43,1.67,6,3.69,5.48,6.9,7,13.87,4.54,20.16-4.21,10.56-19.44,18-44.07,21.47A50,50,0,0,1,206,222.8ZM25.06,78.82c-5,1.48-15.65,5.47-17.28,13-1.53,7.1,5.39,16.47,20,27.1,47.63,34.65,76.58,51.8,76.87,52l.25.18c.68.52,67.94,51.89,107.4,46.3,22.42-3.18,36.67-9.7,40.13-18.37,1.83-4.59.55-9.71-3.82-15.21a12.47,12.47,0,0,0-1.31-1.46c-.4.74-.91,2-1.3,3-2,5-5.36,13.28-14.87,17.06-11.19,4.44-27.55,1.58-50-8.76-38.75-19.26-60.77-37.2-63-40-2.3-2.33-33.34-24.13-52-34.76C50.53,110,28.19,91.91,25.06,78.82ZM118,153.52l.06.08Z"/>
        </g>
    </g>
</svg>
