<?xml version="1.0" encoding="utf-8"?>
<!-- Generator: Adobe Illustrator 24.2.3, SVG Export Plug-In . SVG Version: 6.00 Build 0)  -->
<svg version="1.1" id="Слой_1" xmlns="http://www.w3.org/2000/svg" xmlns:xlink="http://www.w3.org/1999/xlink" x="0px" y="0px"
	 viewBox="0 0 585 309" style="enable-background:new 0 0 585 309;" xml:space="preserve">
<style type="text/css">
	.st0{clip-path:url(#SVGID_2_);fill:#FDA157;}
	.st1{clip-path:url(#SVGID_2_);fill-rule:evenodd;clip-rule:evenodd;fill:#FF8429;}
	.st2{clip-path:url(#SVGID_2_);fill:#F35000;}
	.st3{clip-path:url(#SVGID_2_);fill:#F9B946;}
	.st4{fill:#FFFFFF;}
	.st5{fill:#FF6567;}
	.st6{fill:url(#SVGID_3_);}
	.st7{fill:#ADD8C3;}
	.st8{fill:none;stroke:#FFFFFF;stroke-miterlimit:10;}
	.st9{fill:#A2CBAB;}
	.st10{fill:#96CDA1;}
	.st11{opacity:0.76;}
	.st12{fill:#C4E9CD;}
	.st13{fill:url(#SVGID_4_);}
	.st14{fill:url(#SVGID_5_);}
	.st15{fill:#F6E6BE;}
	.st16{fill:url(#SVGID_6_);}
	.st17{fill:url(#SVGID_7_);}
	.st18{fill:url(#SVGID_8_);}
	.st19{fill:#E4EEC4;}
	.st20{fill:#EFFBD2;}
	.st21{fill:url(#SVGID_9_);}
	.st22{fill:url(#SVGID_10_);}
	.st23{fill:url(#SVGID_11_);}
	.st24{fill:url(#SVGID_12_);}
	.st25{fill:#FFE493;}
	.st26{clip-path:url(#SVGID_14_);fill:url(#SVGID_15_);}
	.st27{fill:#5B2A1E;}
	.st28{fill:#907673;}
	.st29{fill:url(#SVGID_16_);}
	.st30{fill:url(#SVGID_17_);}
	.st31{fill:url(#SVGID_18_);}
	.st32{fill:url(#SVGID_19_);}
	.st33{fill:#FE82C8;}
	.st34{opacity:0.62;clip-path:url(#SVGID_21_);fill:#FFFFFF;}
	.st35{opacity:0.75;clip-path:url(#SVGID_21_);fill:#FFFFFF;}
	.st36{opacity:0.41;clip-path:url(#SVGID_21_);fill:#FFFFFF;}
	.st37{clip-path:url(#SVGID_21_);fill:none;}
	.st38{clip-path:url(#SVGID_23_);}
	.st39{opacity:0.26;fill:#FFFFFF;}
	.st40{opacity:0.69;fill:#FFFFFF;}
	.st41{fill:none;}
	.st42{opacity:0.16;fill:#FFFFFF;}
	.st43{opacity:0.3;fill:#FFFFFF;}
	.st44{opacity:0.23;fill:#FFFFFF;}
	.st45{opacity:0.24;fill:#FFFFFF;}
	.st46{opacity:0.17;}
	.st47{opacity:0.05;fill:#E2E8E4;}
	.st48{clip-path:url(#SVGID_25_);}
	.st49{opacity:0.76;clip-path:url(#SVGID_25_);fill:#FFFFFF;}
	.st50{clip-path:url(#SVGID_25_);fill:url(#SVGID_26_);}
	.st51{clip-path:url(#SVGID_25_);fill:none;stroke:#FFFFFF;stroke-width:2;stroke-linecap:round;stroke-miterlimit:10;}
	.st52{clip-path:url(#SVGID_25_);fill:url(#SVGID_27_);}
	.st53{clip-path:url(#SVGID_25_);fill:url(#SVGID_28_);}
	.st54{clip-path:url(#SVGID_25_);fill:url(#SVGID_29_);}
	.st55{clip-path:url(#SVGID_25_);fill:url(#SVGID_30_);}
	.st56{clip-path:url(#SVGID_25_);fill:#FFFFFF;}
	.st57{clip-path:url(#SVGID_25_);fill:url(#SVGID_31_);}
	.st58{opacity:0.62;clip-path:url(#SVGID_33_);fill:#FFFFFF;}
	.st59{clip-path:url(#SVGID_33_);fill:#FFFFFF;}
	.st60{opacity:0.41;clip-path:url(#SVGID_33_);fill:#FFFFFF;}
	.st61{clip-path:url(#SVGID_33_);fill:none;}
	.st62{clip-path:url(#SVGID_35_);}
	.st63{fill:url(#SVGID_36_);}
	.st64{opacity:0.74;clip-path:url(#SVGID_38_);fill:url(#SVGID_39_);}
	.st65{fill:#E5E5E5;}
	.st66{fill:none;stroke:#4D4D4D;stroke-width:0.75;stroke-linecap:round;stroke-miterlimit:10;}
	.st67{fill:url(#SVGID_40_);}
	.st68{opacity:0.74;fill:url(#SVGID_41_);}
	.st69{opacity:0.74;fill:url(#SVGID_42_);}
	.st70{opacity:0.74;fill:url(#SVGID_43_);}
	.st71{opacity:0.74;fill:url(#SVGID_44_);}
	.st72{fill:url(#SVGID_45_);}
	.st73{opacity:0.66;}
	.st74{opacity:0.37;fill:#FFFFFF;}
	.st75{fill:url(#SVGID_46_);}
	.st76{fill:url(#SVGID_47_);}
	.st77{opacity:0.44;clip-path:url(#SVGID_49_);fill:#FFFFD9;}
	.st78{opacity:0.43;clip-path:url(#SVGID_51_);fill:#FFFFFF;}
	.st79{clip-path:url(#SVGID_51_);fill:none;stroke:#FFFFFF;stroke-miterlimit:10;}
	.st80{opacity:0.76;clip-path:url(#SVGID_51_);fill:#FFFFFF;}
	.st81{clip-path:url(#SVGID_51_);fill:#FFFFFF;}
	.st82{opacity:0.08;clip-path:url(#SVGID_51_);fill:#FFFFFF;}
	.st83{opacity:0.27;clip-path:url(#SVGID_51_);fill:#FFFFFF;}
	.st84{opacity:0.37;clip-path:url(#SVGID_51_);fill:#FFFFFF;}
	.st85{clip-path:url(#SVGID_51_);fill:none;}
	.st86{fill:url(#SVGID_52_);}
	.st87{opacity:0.62;clip-path:url(#SVGID_54_);fill:#FFFFFF;}
	.st88{clip-path:url(#SVGID_54_);fill:#FFFFFF;}
	.st89{opacity:0.41;clip-path:url(#SVGID_54_);fill:#FFFFFF;}
	.st90{clip-path:url(#SVGID_54_);fill:none;}
	.st91{clip-path:url(#SVGID_56_);}
	.st92{opacity:0.55;fill:url(#SVGID_57_);}
	.st93{fill:url(#SVGID_58_);}
	.st94{fill:url(#SVGID_59_);}
	.st95{opacity:0.28;}
	.st96{opacity:0.56;clip-path:url(#SVGID_61_);fill:#FFFFFF;}
	.st97{opacity:0.43;clip-path:url(#SVGID_63_);fill:#FFFFFF;}
	.st98{clip-path:url(#SVGID_63_);fill:none;stroke:#FFFFFF;stroke-miterlimit:10;}
	.st99{opacity:0.76;clip-path:url(#SVGID_63_);fill:#FFFFFF;}
	.st100{clip-path:url(#SVGID_63_);fill:#FFFFFF;}
	.st101{opacity:0.08;clip-path:url(#SVGID_63_);fill:#FFFFFF;}
	.st102{opacity:0.27;clip-path:url(#SVGID_63_);fill:#FFFFFF;}
	.st103{opacity:0.37;clip-path:url(#SVGID_63_);fill:#FFFFFF;}
	.st104{clip-path:url(#SVGID_63_);fill:none;}
	.st105{clip-path:url(#SVGID_65_);fill:none;}
	.st106{opacity:0.46;}
	.st107{opacity:0.86;fill:#FFFFFF;}
	.st108{opacity:0.4;}
	.st109{opacity:0.73;fill:#FFFFFF;}
	.st110{opacity:0.54;clip-path:url(#SVGID_67_);fill:#FFFFFF;}
	.st111{fill:#FF8A8A;}
	.st112{opacity:0.75;fill:#FFFFFF;}
	.st113{fill:#FFC181;}
	.st114{clip-path:url(#SVGID_69_);fill:#FFDFBD;}
	.st115{clip-path:url(#SVGID_69_);fill:#FF9D00;}
	.st116{clip-path:url(#SVGID_69_);fill:#FFF3DF;}
	.st117{clip-path:url(#SVGID_71_);fill:#FFBAE4;}
	.st118{opacity:0.8;clip-path:url(#SVGID_71_);fill:#FE82C8;}
	.st119{clip-path:url(#SVGID_71_);fill:#FE82C8;}
	.st120{opacity:0.79;clip-path:url(#SVGID_71_);fill:#FFBAE4;}
	.st121{fill:#FFFEEA;}
	.st122{fill:#58D196;}
	.st123{fill:#A6E5C3;}
	.st124{fill:#D2F2E1;}
	.st125{opacity:0.44;fill:#FFFFFF;}
	.st126{clip-path:url(#SVGID_73_);fill:#FFF9C1;}
	.st127{opacity:0.86;fill:#FFCCD5;}
	.st128{opacity:0.62;clip-path:url(#SVGID_75_);fill:#FFFFFF;}
	.st129{opacity:0.75;clip-path:url(#SVGID_75_);fill:#FFFFFF;}
	.st130{opacity:0.41;clip-path:url(#SVGID_75_);fill:#FFFFFF;}
	.st131{clip-path:url(#SVGID_75_);fill:none;}
	.st132{clip-path:url(#SVGID_77_);}
	.st133{opacity:0.44;clip-path:url(#SVGID_79_);fill:#FFFFFF;}
	.st134{opacity:0.43;clip-path:url(#SVGID_81_);fill:#FFFFFF;}
	.st135{clip-path:url(#SVGID_81_);fill:none;stroke:#FFFFFF;stroke-miterlimit:10;}
	.st136{opacity:0.76;clip-path:url(#SVGID_81_);fill:#FFFFFF;}
	.st137{clip-path:url(#SVGID_81_);fill:#FFFFFF;}
	.st138{opacity:0.08;clip-path:url(#SVGID_81_);fill:#FFFFFF;}
	.st139{opacity:0.27;clip-path:url(#SVGID_81_);fill:#FFFFFF;}
	.st140{opacity:0.37;clip-path:url(#SVGID_81_);fill:#FFFFFF;}
	.st141{clip-path:url(#SVGID_81_);fill:none;}
	.st142{opacity:0.54;clip-path:url(#SVGID_83_);fill:#FFFFFF;}
	.st143{opacity:0.62;fill:#FFFFFF;}
	.st144{opacity:0.41;fill:#FFFFFF;}
	.st145{opacity:0.43;fill:#FFFFFF;}
	.st146{opacity:0.76;fill:#FFFFFF;}
	.st147{opacity:0.08;fill:#FFFFFF;}
	.st148{opacity:0.27;fill:#FFFFFF;}
	.st149{opacity:0.54;fill:#FFFFFF;}
	.st150{clip-path:url(#SVGID_85_);fill:#FF6567;}
	.st151{clip-path:url(#SVGID_85_);fill:#FF8A8A;}
	.st152{clip-path:url(#SVGID_85_);fill:#FFC2C1;}
	.st153{clip-path:url(#SVGID_85_);fill:#FFFFFF;}
	.st154{clip-path:url(#SVGID_87_);fill:#E2E9FF;}
	.st155{clip-path:url(#SVGID_87_);fill:#EEF2FF;}
	.st156{opacity:0.54;clip-path:url(#SVGID_87_);fill:#EEF2FF;}
	.st157{opacity:0.54;clip-path:url(#SVGID_87_);fill:#8FAAF0;}
	.st158{clip-path:url(#SVGID_89_);}
	.st159{fill:#FF6B81;}
	.st160{clip-path:url(#SVGID_89_);fill:none;}
	.st161{fill:#FF1B6F;}
	.st162{clip-path:url(#SVGID_91_);fill:#FFDFBD;}
	.st163{clip-path:url(#SVGID_91_);fill:#FF9D00;}
	.st164{clip-path:url(#SVGID_91_);fill:#FFF3DF;}
	.st165{clip-path:url(#SVGID_93_);fill:#F0C6F4;}
	.st166{opacity:0.8;clip-path:url(#SVGID_93_);fill:#F8E3F8;}
	.st167{clip-path:url(#SVGID_93_);fill:#F8E3F8;}
	.st168{opacity:0.79;clip-path:url(#SVGID_93_);fill:#F0C6F4;}
	.st169{clip-path:url(#SVGID_95_);fill:#FFF9C1;}
	.st170{clip-path:url(#SVGID_97_);fill:#FFC5D6;}
	.st171{clip-path:url(#SVGID_97_);fill:#FF94B3;}
	.st172{clip-path:url(#SVGID_97_);fill:#FF6794;}
	.st173{clip-path:url(#SVGID_97_);fill:#FFFFFF;}
	.st174{clip-path:url(#SVGID_99_);fill:#698DE6;}
	.st175{clip-path:url(#SVGID_99_);fill:#8FAAF0;}
	.st176{opacity:0.54;clip-path:url(#SVGID_99_);fill:#8FAAF0;}
	.st177{clip-path:url(#SVGID_101_);}
	.st178{clip-path:url(#SVGID_101_);fill:none;}
	.st179{opacity:0.46;clip-path:url(#SVGID_103_);}
	.st180{clip-path:url(#SVGID_103_);fill:none;}
	.st181{fill:none;stroke:#FFFFFF;stroke-width:2;stroke-miterlimit:10;}
	.st182{opacity:0.45;fill:#FFFFFF;}
	.st183{opacity:0.8;fill:#FFFFFF;}
	.st184{opacity:0.79;fill:#FFFFFF;}
	.st185{fill:#F2C5AA;}
	.st186{fill:none;stroke:#FFFFFF;stroke-width:0.75;stroke-miterlimit:10;}
	.st187{fill:#FFFFFF;stroke:#FFFFFF;stroke-width:0.25;stroke-miterlimit:10;}
	.st188{fill:#D3C1B2;}
	.st189{fill:#FFC5D6;}
	.st190{clip-path:url(#SVGID_111_);fill:#F787A5;}
	.st191{clip-path:url(#SVGID_111_);fill:#FFE9F2;}
	.st192{clip-path:url(#SVGID_111_);fill:#D3CFB3;}
	.st193{clip-path:url(#SVGID_111_);fill:#FFDBE5;}
	.st194{clip-path:url(#SVGID_111_);}
	.st195{fill:#FFE9F2;}
	.st196{fill:#F787A5;}
	.st197{fill:#F2CCC1;}
	.st198{fill:#DF4E50;}
	.st199{clip-path:url(#SVGID_111_);fill:#FFC5D6;}
	.st200{fill:#FFDBE5;}
	.st201{fill:#FFB9C3;}
	.st202{fill:#FB91B5;}
	.st203{fill:#E3A180;}
	.st204{fill:#92693D;}
	.st205{fill:#FBBACC;}
	.st206{fill:#E6678D;}
	.st207{fill:#574435;}
	.st208{fill:#C9A47C;}
	.st209{fill:#641F1E;}
	.st210{fill:#F15E89;}
	.st211{fill:#E7005E;}
	.st212{fill:#DEB78A;}
	.st213{fill:#DFB78A;}
	.st214{fill:#FF6794;}
	.st215{fill:#D72264;}
	.st216{fill:#F7F7F7;}
	.st217{fill:#F2F2F2;}
	.st218{fill:#FFFBF0;}
	.st219{fill:#FFBFCF;}
	.st220{fill:#FF9DAE;}
	.st221{fill:#FFC2C1;}
	.st222{fill:#FFCCD5;}
	.st223{fill:#B49E8F;}
	.st224{fill:#FFE2EA;}
	.st225{fill:#A3C5DC;}
	.st226{fill:#DA956B;}
	.st227{fill:#BDA595;}
	.st228{fill:#583B34;}
	.st229{fill:#63443C;}
	.st230{fill:#B2D0E5;}
	.st231{fill:#FCFCFB;}
	.st232{fill:#D0ACA1;}
	.st233{fill:#A2C4DB;}
	.st234{fill:#E1D0C8;}
	.st235{fill:#9C7972;}
	.st236{fill:#77573F;}
	.st237{fill:#F3769C;}
	.st238{fill:#FBFBF9;}
	.st239{fill:#F8C4DC;}
	.st240{fill:#E4BAB5;}
	.st241{clip-path:url(#SVGID_113_);fill:#F787A5;}
	.st242{clip-path:url(#SVGID_113_);fill:#FFE9F2;}
	.st243{clip-path:url(#SVGID_113_);fill:#D3CFB3;}
	.st244{clip-path:url(#SVGID_113_);fill:#FFDBE5;}
	.st245{clip-path:url(#SVGID_113_);}
	.st246{clip-path:url(#SVGID_113_);fill:#FFC5D6;}
	.st247{fill:#00C377;}
	.st248{fill:#88E5AF;}
	.st249{fill:#00B45A;}
	.st250{fill:#7FDAAA;}
	.st251{fill:#F2BC3A;}
	.st252{fill:#B99F65;}
	.st253{fill:#98D284;}
	.st254{fill:#3C3724;}
	.st255{fill:#D6BEA2;}
	.st256{fill:#9C8274;}
	.st257{fill:#587147;}
	.st258{fill:#E7D6BE;}
	.st259{fill:#5CC689;}
	.st260{clip-path:url(#SVGID_115_);fill:#A6E5C3;}
	.st261{clip-path:url(#SVGID_115_);fill:#FFFFFF;}
	.st262{clip-path:url(#SVGID_115_);fill:#58D196;}
	.st263{fill:#F35000;}
	.st264{fill:#FF8429;}
	.st265{fill:#FFAC33;}
	.st266{fill:#F58800;}
	.st267{fill:#EF6406;}
	.st268{fill:#FF9C00;}
	.st269{fill:#130077;}
	.st270{fill:#FFB58D;}
	.st271{opacity:0.3;}
	.st272{fill:#FF7300;}
	.st273{fill:#6E0000;}
	.st274{fill-rule:evenodd;clip-rule:evenodd;fill:#FF9C00;}
	.st275{fill-rule:evenodd;clip-rule:evenodd;fill:url(#SVGID_116_);}
	.st276{opacity:0.3;fill-rule:evenodd;clip-rule:evenodd;fill:#A4002C;}
	.st277{fill-rule:evenodd;clip-rule:evenodd;fill:url(#SVGID_117_);}
	.st278{fill-rule:evenodd;clip-rule:evenodd;fill:url(#SVGID_118_);}
	.st279{opacity:0.5;fill-rule:evenodd;clip-rule:evenodd;fill:url(#SVGID_119_);}
	.st280{fill-rule:evenodd;clip-rule:evenodd;fill:#FFC485;}
	.st281{fill-rule:evenodd;clip-rule:evenodd;fill:url(#SVGID_120_);}
	.st282{fill-rule:evenodd;clip-rule:evenodd;fill:url(#SVGID_121_);}
	.st283{fill-rule:evenodd;clip-rule:evenodd;fill:url(#SVGID_122_);}
	.st284{opacity:0.5;fill-rule:evenodd;clip-rule:evenodd;fill:url(#SVGID_123_);}
	.st285{fill-rule:evenodd;clip-rule:evenodd;fill:#FDA157;}
	.st286{opacity:0.5;fill-rule:evenodd;clip-rule:evenodd;fill:#FDA157;}
	.st287{fill-rule:evenodd;clip-rule:evenodd;fill:#FF8429;}
	.st288{fill-rule:evenodd;clip-rule:evenodd;fill:#FFAC33;}
	.st289{opacity:0.62;fill-rule:evenodd;clip-rule:evenodd;fill:#C8002A;}
	.st290{opacity:0.5;fill-rule:evenodd;clip-rule:evenodd;fill:#FF8429;}
	.st291{opacity:0.5;fill-rule:evenodd;clip-rule:evenodd;fill:#8F5472;}
	.st292{opacity:0.3;fill-rule:evenodd;clip-rule:evenodd;fill:url(#SVGID_124_);}
	.st293{opacity:0.5;fill-rule:evenodd;clip-rule:evenodd;fill:url(#SVGID_125_);}
	.st294{opacity:0.3;fill-rule:evenodd;clip-rule:evenodd;fill:url(#SVGID_126_);}
	.st295{opacity:0.3;fill-rule:evenodd;clip-rule:evenodd;fill:url(#SVGID_127_);}
	.st296{clip-path:url(#SVGID_129_);}
	.st297{clip-path:url(#SVGID_129_);fill:#FF8429;}
	.st298{fill:#FDA157;}
	.st299{clip-path:url(#SVGID_131_);}
	.st300{clip-path:url(#SVGID_133_);}
	.st301{fill:#F9B946;}
	.st302{clip-path:url(#SVGID_135_);}
	.st303{clip-path:url(#SVGID_135_);fill:#FF8429;}
	.st304{fill-rule:evenodd;clip-rule:evenodd;fill:url(#SVGID_136_);}
	.st305{fill-rule:evenodd;clip-rule:evenodd;fill:url(#SVGID_137_);}
	.st306{fill-rule:evenodd;clip-rule:evenodd;fill:url(#SVGID_138_);}
	.st307{opacity:0.5;fill-rule:evenodd;clip-rule:evenodd;fill:url(#SVGID_139_);}
	.st308{fill-rule:evenodd;clip-rule:evenodd;fill:url(#SVGID_140_);}
	.st309{fill-rule:evenodd;clip-rule:evenodd;fill:url(#SVGID_141_);}
	.st310{fill-rule:evenodd;clip-rule:evenodd;fill:url(#SVGID_142_);}
	.st311{opacity:0.5;fill-rule:evenodd;clip-rule:evenodd;fill:url(#SVGID_143_);}
	.st312{opacity:0.3;fill-rule:evenodd;clip-rule:evenodd;fill:url(#SVGID_144_);}
	.st313{opacity:0.5;fill-rule:evenodd;clip-rule:evenodd;fill:url(#SVGID_145_);}
	.st314{opacity:0.3;fill-rule:evenodd;clip-rule:evenodd;fill:url(#SVGID_146_);}
	.st315{opacity:0.3;fill-rule:evenodd;clip-rule:evenodd;fill:url(#SVGID_147_);}
</style>
<g>
	<defs>
		<rect id="SVGID_132_" x="-48" y="-50.32" width="648.68" height="359.49"/>
	</defs>
	<clipPath id="SVGID_2_">
		<use xlink:href="#SVGID_132_"  style="overflow:visible;"/>
	</clipPath>
	<g style="clip-path:url(#SVGID_2_);">
		<path class="st298" d="M114,105.32l-6.96,132.08l-27.4-1.32l0.03-0.55l17.12,0.83l4.87-89.19l0.88-17.93l1.21-24.95
			c0.16-3.33-1.74-6.27-4.59-7.54l7.38,0.35C110.87,97.3,114.22,100.98,114,105.32z"/>
	</g>
	<g style="clip-path:url(#SVGID_2_);">
		<path class="st263" d="M93.04,105.63l-6.89,130.7l-7.6-0.37l6.95-132.09c0.21-4.34,3.89-7.67,8.23-7.47l11.71,0.57
			c1.67,0.07,3.19,0.68,4.41,1.62l-8.58-0.43C96.94,97.96,93.27,101.29,93.04,105.63z"/>
	</g>
	<g style="clip-path:url(#SVGID_2_);">
		<path class="st298" d="M54.33,102.94L69.69,234.3l-27.23,3.3l-0.07-0.55l17.02-2.07L49.2,146.25l-2.15-17.82l-3-24.8
			c-0.4-3.31-2.77-5.89-5.8-6.66l7.33-0.89C49.9,95.56,53.81,98.62,54.33,102.94z"/>
	</g>
	<g style="clip-path:url(#SVGID_2_);">
		<path class="st263" d="M33.71,106.77l15.19,129.99l-7.56,0.92L25.99,106.3c-0.52-4.31,2.54-8.22,6.86-8.74l11.64-1.41
			c1.66-0.21,3.26,0.14,4.62,0.85l-8.53,1.02C36.27,98.55,33.21,102.45,33.71,106.77z"/>
	</g>
	<g style="clip-path:url(#SVGID_2_);">
		<path class="st298" d="M164.33,174.38l-27.18-3.72l0.07-0.55l16.99,2.33l6.83-49.87c-3.19-6.59-2.43-12.52,2.44-17.77l3.39-24.77
			c0.45-3.29-1.19-6.39-3.92-7.91l7.32,1.01c4.31,0.59,7.31,4.54,6.72,8.85L164.33,174.38z"/>
		<path class="st298" d="M164.93,175.17l-28.56-3.91l0.23-1.94l17,2.33l6.71-48.97c-3.19-6.75-2.35-12.87,2.49-18.2l3.36-24.55
			c0.4-2.94-0.99-5.77-3.56-7.2l-3.25-1.81l11.01,1.51c2.27,0.31,4.28,1.48,5.66,3.3c1.38,1.82,1.97,4.07,1.66,6.34L164.93,175.17z
			 M154.92,172.39l8.81,1.21l12.57-91.71c0.26-1.9-0.23-3.78-1.39-5.3c-1.15-1.52-2.83-2.5-4.73-2.76l-4.78-0.66
			c1.7,1.84,2.52,4.36,2.16,6.96l-3.42,24.98l-0.15,0.16c-4.66,5.02-5.42,10.58-2.32,16.99l0.09,0.19L154.92,172.39z"/>
	</g>
	<g style="clip-path:url(#SVGID_2_);">
		<path class="st263" d="M156.08,80.46l-12.48,91.03l-7.54-1.03l12.66-92.41c0.59-4.31,4.54-7.31,8.85-6.72l11.61,1.59
			c1.66,0.22,3.12,0.96,4.26,2l-8.51-1.18C160.65,73.15,156.69,76.15,156.08,80.46z"/>
	</g>
	<g style="clip-path:url(#SVGID_2_);">
		<path class="st298" d="M84.12,231.08l-27.39,1.47L56.69,232l17.12-0.92l-2.7-50.26c-4.37-5.87-4.76-11.84-0.96-17.91l-1.34-24.96
			c-0.18-3.32-2.38-6.05-5.34-7.03l7.38-0.39c4.34-0.24,8.03,3.08,8.27,7.42L84.12,231.08z"/>
	</g>
	<g style="clip-path:url(#SVGID_2_);">
		<path class="st263" d="M58.29,140.39l4.93,91.74l-7.6,0.41l-5.01-93.14c-0.24-4.34,3.08-8.03,7.42-8.27l11.7-0.63
			c1.67-0.1,3.24,0.35,4.56,1.16l-8.58,0.45C61.4,132.36,58.08,136.05,58.29,140.39z"/>
	</g>
	<g style="clip-path:url(#SVGID_2_);">
		<path class="st298" d="M143.87,140.39L129.2,271.84l-27.28-2.93l0.06-0.55l17.04,1.83l10.08-88.76l1.92-17.85l2.67-24.84
			c0.35-3.32-1.37-6.36-4.14-7.8l7.34,0.79C141.22,132.21,144.34,136.07,143.87,140.39z"/>
	</g>
	<g style="clip-path:url(#SVGID_2_);">
		<path class="st263" d="M122.93,139.48L108.4,269.55l-7.57-0.81l14.67-131.46c0.46-4.32,4.33-7.43,8.65-6.97l11.65,1.25
			c1.66,0.17,3.14,0.87,4.31,1.87l-8.54-0.93C127.28,132.04,123.41,135.16,122.93,139.48z"/>
	</g>
	<g style="clip-path:url(#SVGID_2_);">
		<path class="st298" d="M222.45,111.95L207.77,243.4l-27.28-2.93l0.06-0.55l17.04,1.83l10.08-88.76l1.92-17.85l2.67-24.84
			c0.35-3.32-1.37-6.36-4.14-7.8l7.34,0.79C219.8,103.76,222.92,107.63,222.45,111.95z"/>
	</g>
	<g style="clip-path:url(#SVGID_2_);">
		<path class="st263" d="M201.5,111.03L186.98,241.1l-7.57-0.81l14.67-131.46c0.46-4.32,4.33-7.43,8.65-6.97l11.65,1.25
			c1.66,0.17,3.14,0.87,4.31,1.87l-8.54-0.93C205.85,103.6,201.99,106.71,201.5,111.03z"/>
	</g>
	<g style="clip-path:url(#SVGID_2_);">
		<path class="st298" d="M196.02,225.21l-27.42,0.86l-0.03-0.55l17.14-0.54l-1.57-50.31c-4.24-5.97-4.49-11.94-0.56-17.93
			l-0.78-24.99c-0.1-3.32-2.24-6.1-5.18-7.15l7.39-0.23c4.34-0.14,7.96,3.26,8.1,7.61L196.02,225.21z"/>
	</g>
	<g style="clip-path:url(#SVGID_2_);">
		<path class="st263" d="M172.23,133.97l2.87,91.83l-7.61,0.24l-2.92-93.23c-0.14-4.34,3.26-7.96,7.61-8.1l11.71-0.37
			c1.67-0.06,3.23,0.43,4.53,1.26l-8.59,0.26C175.51,126.01,172.11,129.63,172.23,133.97z"/>
	</g>
	<g style="clip-path:url(#SVGID_2_);">
		<path class="st298" d="M153.35,254.66l-26.77-6.01l0.11-0.54l16.73,3.75l11.02-49.11c-2.62-6.84-1.37-12.69,3.93-17.5l5.47-24.39
			c0.73-3.24-0.65-6.47-3.24-8.21l7.21,1.62c4.24,0.95,6.9,5.14,5.95,9.39L153.35,254.66z"/>
		<path class="st298" d="M153.88,255.5l-28.12-6.31l0.39-1.91l16.74,3.76l10.83-48.22c-2.61-6.99-1.26-13.02,4.02-17.92l5.43-24.18
			c0.65-2.9-0.5-5.83-2.94-7.48l-3.08-2.08l10.84,2.44c2.23,0.5,4.14,1.84,5.36,3.77c1.22,1.93,1.62,4.22,1.12,6.46L153.88,255.5z
			 M144.15,251.88l8.68,1.95l20.27-90.32c0.42-1.87,0.09-3.79-0.93-5.4c-1.02-1.61-2.61-2.73-4.48-3.15l-4.71-1.06
			c1.54,1.97,2.14,4.56,1.57,7.12l-5.52,24.61l-0.16,0.15c-5.07,4.61-6.29,10.08-3.74,16.73l0.08,0.2L144.15,251.88z"/>
	</g>
	<g style="clip-path:url(#SVGID_2_);">
		<path class="st263" d="M153.07,160.37l-20.13,89.64l-7.43-1.66l20.43-91.01c0.95-4.24,5.14-6.89,9.39-5.95l11.44,2.57
			c1.63,0.36,3.02,1.22,4.07,2.35l-8.38-1.89C158.24,153.48,154.04,156.14,153.07,160.37z"/>
	</g>
	<g style="clip-path:url(#SVGID_2_);">
		<path class="st272" d="M241.15,187.33l-14.2,88.29l-5.42,33.64l-13,80.83c-0.88,5.6-5.71,9.7-11.39,9.7h-18.07
			c-2.34,0-4.61-0.71-6.46-2.12c-29.77-22.8-67.35-21.6-96.95-0.08c-1.92,1.39-4.2,2.2-6.58,2.2h-18.2c-5.68,0-10.51-4.1-11.41-9.7
			l-12.39-77.04l-6.22-38.74L6.88,187.33c-1.14-7.01,4.28-13.37,11.39-13.37h15c3.59,0,6.97,1.67,9.15,4.54
			c20.89,27.39,46.74,43.2,81.59,41.81c34.97-0.43,60.7-14.41,81.59-41.81c2.16-2.87,5.56-4.54,9.15-4.54h15
			C236.87,173.95,242.29,180.32,241.15,187.33z"/>
	</g>
	<g style="clip-path:url(#SVGID_2_);">
		<path class="st298" d="M197.15,404.13h-18.07c-3.38,0-6.53-1.04-9.1-3.02c-27.57-21.11-62.73-21.12-91.75-0.01
			c-2.74,1.98-5.89,3.03-9.13,3.03h-18.2c-7.85,0-14.45-5.62-15.7-13.35L2.59,188.02c-0.75-4.59,0.56-9.27,3.58-12.82
			c3.02-3.55,7.43-5.59,12.1-5.59h15c4.99,0,9.59,2.28,12.61,6.25c21.52,28.22,47.03,41.34,77.96,40.09
			c32.92-0.42,57.76-13.16,78.31-40.1c2.94-3.9,7.66-6.25,12.61-6.25h15c4.67,0,9.08,2.04,12.1,5.59c3.02,3.55,4.32,8.22,3.58,12.82
			l-32.62,202.75C211.61,398.5,205.01,404.13,197.15,404.13z M124.63,376.77c17.82,0,35.46,5.81,50.63,17.43
			c1.05,0.8,2.37,1.23,3.82,1.23h18.07c3.56,0,6.54-2.54,7.1-6.03l32.62-202.76c0,0,0,0,0-0.01c0.34-2.08-0.25-4.19-1.62-5.8
			c-1.37-1.61-3.37-2.53-5.48-2.53h-15c-2.23,0-4.36,1.05-5.68,2.8c-22.32,29.26-49.33,43.09-85.01,43.54
			c-1.47,0.06-2.94,0.09-4.39,0.09c-31.89,0-58.35-14.3-80.71-43.61c-1.37-1.8-3.44-2.82-5.69-2.82h-15c-2.11,0-4.11,0.92-5.48,2.53
			c-1.36,1.61-1.95,3.72-1.62,5.8l32.6,202.76c0.57,3.5,3.56,6.04,7.12,6.04h18.2c1.4,0,2.79-0.47,4.03-1.37
			C88.97,382.53,106.89,376.77,124.63,376.77z"/>
	</g>
	<g style="clip-path:url(#SVGID_2_);">
		<path class="st263" d="M576.63,150.25H384.41c-5.34,0-9.66-4.33-9.66-9.66v-1.54c0-5.34,4.33-9.66,9.66-9.66h192.23
			c5.34,0,9.66,4.33,9.66,9.66v1.54C586.29,145.93,581.97,150.25,576.63,150.25z"/>
	</g>
	<g style="clip-path:url(#SVGID_2_);">
		<path class="st263" d="M586.3,139.6v0.43c0,5.65-4.57,10.22-10.22,10.22h-42.3c5.63,0,10.21-4.57,10.21-10.22v-0.43
			c0-5.63-4.57-10.21-10.21-10.21h42.3C581.72,129.39,586.3,133.97,586.3,139.6z"/>
	</g>
	<g style="clip-path:url(#SVGID_2_);">
		<g>
			<path class="st298" d="M489.42,116.64c-0.2,0-0.41-0.01-0.62-0.04l-22.38-3.19c-1.15-0.16-2.19-0.79-2.89-1.73
				c-0.69-0.94-0.98-2.12-0.79-3.27l12.29-76.36c0.87-6.13,5.36-11.19,11.41-12.82l67.32-18.13c7.79-2.09,15.82,2.53,17.92,10.32
				l0.53,1.99c2.09,7.78-2.53,15.82-10.32,17.92l-57.41,15.46l-10.78,66.21C493.36,115.12,491.52,116.64,489.42,116.64z
				 M472.03,105.42l13.78,1.96l10.55-64.77c0.27-1.69,1.51-3.05,3.16-3.5l60.12-16.19c3.15-0.85,5.03-4.11,4.18-7.26l-0.53-1.99
				c-0.85-3.15-4.11-5.04-7.26-4.18L488.7,27.63c-2.69,0.72-4.68,2.97-5.08,5.73L472.03,105.42z"/>
		</g>
	</g>
	<g style="clip-path:url(#SVGID_2_);">
		<path class="st267" d="M553.11,104.47H407.93c-5.49,0-10.23,3.85-11.35,9.22l-3.29,15.7h174.45l-3.29-15.7
			C563.34,108.31,558.6,104.47,553.11,104.47z"/>
	</g>
	<g style="clip-path:url(#SVGID_2_);">
		<path class="st272" d="M567.75,129.39h-27.52l-3.29-15.7c-1.13-5.37-5.86-9.23-11.35-9.23h27.52c5.49,0,10.22,3.86,11.35,9.23
			L567.75,129.39z"/>
	</g>
	<g style="clip-path:url(#SVGID_2_);">
		<path class="st272" d="M567.75,133.73H393.29c-1.31,0-2.55-0.59-3.37-1.61c-0.83-1.02-1.15-2.35-0.88-3.63l3.29-15.7
			c1.54-7.35,8.1-12.68,15.6-12.68h145.18c7.5,0,14.07,5.33,15.6,12.68l3.29,15.7c0.27,1.28-0.06,2.62-0.88,3.63
			C570.29,133.14,569.06,133.73,567.75,133.73z M398.64,125.04h163.75l-2.19-10.46c-0.7-3.34-3.68-5.76-7.1-5.76H407.93
			c-3.41,0-6.4,2.42-7.1,5.76L398.64,125.04z"/>
	</g>
	<g style="clip-path:url(#SVGID_2_);">
		<path class="st272" d="M567.75,150.26l-5.74,83.29l-3.44,49.73l-6.38,92.57c-1.03,14.88-13.41,26.45-28.32,26.45h-86.68
			c-14.92,0-27.3-11.56-28.32-26.45l-5.42-78.54l-3.7-53.74l-6.43-93.3H567.75z"/>
	</g>
	<g style="clip-path:url(#SVGID_2_);">
		<polygon class="st264" points="562.01,233.54 558.56,283.27 556.6,282.19 526.9,300.38 497.2,282.19 467.49,300.38 437.79,282.19 
			408.08,300.38 403.43,297.3 399.73,243.56 408.06,248.11 437.76,229.94 467.45,248.11 497.17,229.94 526.87,248.11 556.58,229.94 
					"/>
	</g>
	<g style="clip-path:url(#SVGID_2_);">
		<path class="st298" d="M523.85,406.63h-86.67c-17.14,0-31.49-13.39-32.67-30.49l-15.56-225.59c-0.08-1.2,0.34-2.38,1.16-3.27
			c0.82-0.88,1.97-1.38,3.18-1.38h174.45c1.21,0,2.36,0.5,3.18,1.38c0.82,0.88,1.24,2.06,1.16,3.27l-15.56,225.59
			C555.34,393.24,540.99,406.63,523.85,406.63z M397.95,154.6l15.24,220.94c0.87,12.56,11.41,22.39,23.99,22.39h86.67
			c12.59,0,23.13-9.84,23.99-22.39l15.24-220.94H397.95z"/>
	</g>
	<g style="clip-path:url(#SVGID_2_);">
		<path class="st298" d="M424.04,240.96v11.44c0,10.43-8.47,18.9-18.9,18.9H198.64c-10.43,0-18.9-8.47-18.9-18.9v-11.44
			c0-0.82,0.05-1.6,0.16-2.38c1.16-9.34,9.13-16.54,18.74-16.54h206.49c9.91,0,18.07,7.65,18.83,17.39
			C424.02,239.93,424.04,240.43,424.04,240.96z"/>
	</g>
	<g style="clip-path:url(#SVGID_2_);">
		<path class="st272" d="M424.04,240.96v11.44c0,10.43-8.47,18.9-18.9,18.9h-48.91c10.43,0,18.9-8.47,18.9-18.9v-1.23
			c-1.63,0-3.3-0.42-5.04-1.25c-1.7-1.36-3.41-2.57-5.09-3.63c-6.89-4.31-15.61-4.52-22.81-0.77c-6.73,3.49-14.38,3.15-22.52,0.7
			c-19.73-6.38-36.37-5.48-48.89,5.01c-7.25,5.46-14.57,5.77-21.96,1.08c-4.05-2.7-8.28-5.04-12.71-6.9
			c-4.69-1.96-9.89-2.21-14.8-0.87c-20.69,5.65-38.41,3.03-41.4-5.95c1.16-9.34,9.13-16.54,18.74-16.54h206.49
			c9.91,0,18.07,7.65,18.83,17.39C424.02,239.93,424.04,240.43,424.04,240.96z"/>
	</g>
	<g style="clip-path:url(#SVGID_2_);">
		<path class="st298" d="M424.04,304.63v8.69c0,8.15-6.62,14.78-14.78,14.78H194.52c-8.15,0-14.78-6.62-14.78-14.78v-8.69
			c0-8.15,6.62-14.78,14.78-14.78h214.73C417.41,289.85,424.04,296.47,424.04,304.63z"/>
	</g>
	<g style="clip-path:url(#SVGID_2_);">
		<path class="st263" d="M392.1,231.44c-3.08-0.97-6.47,0.54-8.61,2.96c-4.14,4.68-8.73,5.77-13.79,3.34
			c-1.7-1.36-3.41-2.57-5.09-3.63c-6.89-4.31-15.61-4.52-22.81-0.77c-5.51,2.85-11.63,3.15-18.12,1.81c0,0-0.02,0-0.03,0
			c-1.44-0.3-2.9-0.68-4.36-1.11c-19.75-6.38-36.37-5.48-48.89,5.01c-7.25,5.46-14.57,5.77-21.96,1.08
			c-4.05-2.7-8.28-5.04-12.71-6.9c-4.69-1.96-9.89-2.21-14.8-0.87c-32.24,8.82-57.26-2.49-30.58-26.57l161.7,1.86l63.03,0.73
			C435.77,228.7,418.09,239.72,392.1,231.44z"/>
	</g>
	<g style="clip-path:url(#SVGID_2_);">
		<path class="st272" d="M403,210.46c-0.28,0.02-0.56,0.02-0.83,0.02H201.62c-10.52,0-18.2-10.05-15.32-20.17
			c13.72-48.08,60.26-83.46,115.59-83.46c17.56,0,34.24,3.56,49.24,9.96c32.32,13.77,56.98,40.67,66.35,73.5
			C420.3,200.15,413.08,209.94,403,210.46z"/>
	</g>
	<g style="clip-path:url(#SVGID_2_);">
		<path class="st263" d="M418.09,279.99v1.17c0,4.8-3.89,8.69-8.69,8.69H194.38c-4.8,0-8.69-3.89-8.69-8.69v-1.17
			c0-4.8,3.89-8.69,8.69-8.69H409.4C414.2,271.3,418.09,275.19,418.09,279.99z"/>
	</g>
	<g style="clip-path:url(#SVGID_2_);">
		<path class="st298" d="M392.1,231.44c-3.08-0.97-6.47,0.54-8.61,2.96c-4.14,4.68-8.73,5.77-13.79,3.34
			c-1.7-1.36-3.41-2.57-5.09-3.63c-6.89-4.31-15.61-4.52-22.81-0.77c-5.51,2.85-11.63,3.15-18.12,1.81
			c15.18,1.53,23.26-6.03,22.76-24.69l5.6-2.82l63.03,0.73C435.77,228.7,418.09,239.72,392.1,231.44z"/>
	</g>
	<g style="clip-path:url(#SVGID_2_);">
		<path class="st266" d="M397.73,289.85v4.94c0,1.95-0.78,3.69-2.05,4.97c-1.27,1.27-3.03,2.05-4.96,2.05
			c-7.08,0-13.98,2.19-19.75,6.29l-28.15,20l-0.52,0.37c-7.16,5.09-16.6,5.65-24.31,1.41l-3.23-1.77l-40.6-22.27
			c-4.82-2.64-10.21-4.02-15.7-4.02h-3.27c-4.99,0-9.91-1.34-14.22-3.86l-13.84-8.1H397.73z"/>
	</g>
	<g style="clip-path:url(#SVGID_2_);">
		<path class="st298" d="M344.32,327.04l-1.5,1.06l-0.52,0.37c-7.16,5.09-16.6,5.65-24.31,1.41l-3.23-1.77l-40.6-22.27
			c-4.82-2.64-10.21-4.02-15.7-4.02h-3.27c-4.99,0-9.91-1.34-14.22-3.86l-13.84-8.1h16.27l5.96,3.49c4.31,2.52,9.23,3.86,14.22,3.86
			h3.27c5.49,0,10.88,1.37,15.7,4.02l40.6,22.27l3.23,1.77C331.97,328.35,338.46,328.9,344.32,327.04z"/>
	</g>
	<g style="clip-path:url(#SVGID_2_);">
		<path class="st298" d="M403,210.46H285.81c100.41,4.63,103.6-74.45,65.29-93.65c0,0,0.02,0,0.03,0
			c32.32,13.77,56.98,40.67,66.35,73.5C420.3,200.15,413.08,209.94,403,210.46z"/>
	</g>
</g>
</svg>
