<?xml version="1.0" encoding="utf-8"?>
<!-- Generator: Adobe Illustrator 24.2.3, SVG Export Plug-In . SVG Version: 6.00 Build 0)  -->
<svg version="1.1" id="Слой_1" xmlns="http://www.w3.org/2000/svg" xmlns:xlink="http://www.w3.org/1999/xlink" x="0px" y="0px"
	 viewBox="0 0 585 837" style="enable-background:new 0 0 585 837;" xml:space="preserve">
<style type="text/css">
	.st0{clip-path:url(#SVGID_2_);fill:#FDA157;}
	.st1{clip-path:url(#SVGID_2_);fill-rule:evenodd;clip-rule:evenodd;fill:#FF8429;}
	.st2{clip-path:url(#SVGID_2_);fill:#F35000;}
	.st3{clip-path:url(#SVGID_2_);fill:#F9B946;}
	.st4{fill:#FFFFFF;}
	.st5{fill:#FF6567;}
	.st6{fill:url(#SVGID_3_);}
	.st7{fill:#ADD8C3;}
	.st8{fill:none;stroke:#FFFFFF;stroke-miterlimit:10;}
	.st9{fill:#A2CBAB;}
	.st10{fill:#96CDA1;}
	.st11{opacity:0.76;}
	.st12{fill:#C4E9CD;}
	.st13{fill:url(#SVGID_4_);}
	.st14{fill:url(#SVGID_5_);}
	.st15{fill:#F6E6BE;}
	.st16{fill:url(#SVGID_6_);}
	.st17{fill:url(#SVGID_7_);}
	.st18{fill:url(#SVGID_8_);}
	.st19{fill:#E4EEC4;}
	.st20{fill:#EFFBD2;}
	.st21{fill:url(#SVGID_9_);}
	.st22{fill:url(#SVGID_10_);}
	.st23{fill:url(#SVGID_11_);}
	.st24{fill:url(#SVGID_12_);}
	.st25{fill:#FFE493;}
	.st26{clip-path:url(#SVGID_14_);fill:url(#SVGID_15_);}
	.st27{fill:#5B2A1E;}
	.st28{fill:#907673;}
	.st29{fill:url(#SVGID_16_);}
	.st30{fill:url(#SVGID_17_);}
	.st31{fill:url(#SVGID_18_);}
	.st32{fill:url(#SVGID_19_);}
	.st33{fill:#FE82C8;}
	.st34{opacity:0.62;clip-path:url(#SVGID_21_);fill:#FFFFFF;}
	.st35{opacity:0.75;clip-path:url(#SVGID_21_);fill:#FFFFFF;}
	.st36{opacity:0.41;clip-path:url(#SVGID_21_);fill:#FFFFFF;}
	.st37{clip-path:url(#SVGID_21_);fill:none;}
	.st38{clip-path:url(#SVGID_23_);}
	.st39{opacity:0.26;fill:#FFFFFF;}
	.st40{opacity:0.69;fill:#FFFFFF;}
	.st41{fill:none;}
	.st42{opacity:0.16;fill:#FFFFFF;}
	.st43{opacity:0.3;fill:#FFFFFF;}
	.st44{opacity:0.23;fill:#FFFFFF;}
	.st45{opacity:0.24;fill:#FFFFFF;}
	.st46{opacity:0.17;}
	.st47{opacity:0.05;fill:#E2E8E4;}
	.st48{clip-path:url(#SVGID_25_);}
	.st49{opacity:0.76;clip-path:url(#SVGID_25_);fill:#FFFFFF;}
	.st50{clip-path:url(#SVGID_25_);fill:url(#SVGID_26_);}
	.st51{clip-path:url(#SVGID_25_);fill:none;stroke:#FFFFFF;stroke-width:2;stroke-linecap:round;stroke-miterlimit:10;}
	.st52{clip-path:url(#SVGID_25_);fill:url(#SVGID_27_);}
	.st53{clip-path:url(#SVGID_25_);fill:url(#SVGID_28_);}
	.st54{clip-path:url(#SVGID_25_);fill:url(#SVGID_29_);}
	.st55{clip-path:url(#SVGID_25_);fill:url(#SVGID_30_);}
	.st56{clip-path:url(#SVGID_25_);fill:#FFFFFF;}
	.st57{clip-path:url(#SVGID_25_);fill:url(#SVGID_31_);}
	.st58{opacity:0.62;clip-path:url(#SVGID_33_);fill:#FFFFFF;}
	.st59{clip-path:url(#SVGID_33_);fill:#FFFFFF;}
	.st60{opacity:0.41;clip-path:url(#SVGID_33_);fill:#FFFFFF;}
	.st61{clip-path:url(#SVGID_33_);fill:none;}
	.st62{clip-path:url(#SVGID_35_);}
	.st63{fill:url(#SVGID_36_);}
	.st64{opacity:0.74;clip-path:url(#SVGID_38_);fill:url(#SVGID_39_);}
	.st65{fill:#E5E5E5;}
	.st66{fill:none;stroke:#4D4D4D;stroke-width:0.75;stroke-linecap:round;stroke-miterlimit:10;}
	.st67{fill:url(#SVGID_40_);}
	.st68{opacity:0.74;fill:url(#SVGID_41_);}
	.st69{opacity:0.74;fill:url(#SVGID_42_);}
	.st70{opacity:0.74;fill:url(#SVGID_43_);}
	.st71{opacity:0.74;fill:url(#SVGID_44_);}
	.st72{fill:url(#SVGID_45_);}
	.st73{opacity:0.66;}
	.st74{opacity:0.37;fill:#FFFFFF;}
	.st75{fill:url(#SVGID_46_);}
	.st76{fill:url(#SVGID_47_);}
	.st77{opacity:0.44;clip-path:url(#SVGID_49_);fill:#FFFFD9;}
	.st78{opacity:0.43;clip-path:url(#SVGID_51_);fill:#FFFFFF;}
	.st79{clip-path:url(#SVGID_51_);fill:none;stroke:#FFFFFF;stroke-miterlimit:10;}
	.st80{opacity:0.76;clip-path:url(#SVGID_51_);fill:#FFFFFF;}
	.st81{clip-path:url(#SVGID_51_);fill:#FFFFFF;}
	.st82{opacity:0.08;clip-path:url(#SVGID_51_);fill:#FFFFFF;}
	.st83{opacity:0.27;clip-path:url(#SVGID_51_);fill:#FFFFFF;}
	.st84{opacity:0.37;clip-path:url(#SVGID_51_);fill:#FFFFFF;}
	.st85{clip-path:url(#SVGID_51_);fill:none;}
	.st86{fill:url(#SVGID_52_);}
	.st87{opacity:0.62;clip-path:url(#SVGID_54_);fill:#FFFFFF;}
	.st88{clip-path:url(#SVGID_54_);fill:#FFFFFF;}
	.st89{opacity:0.41;clip-path:url(#SVGID_54_);fill:#FFFFFF;}
	.st90{clip-path:url(#SVGID_54_);fill:none;}
	.st91{clip-path:url(#SVGID_56_);}
	.st92{opacity:0.55;fill:url(#SVGID_57_);}
	.st93{fill:url(#SVGID_58_);}
	.st94{fill:url(#SVGID_59_);}
	.st95{opacity:0.28;}
	.st96{opacity:0.56;clip-path:url(#SVGID_61_);fill:#FFFFFF;}
	.st97{opacity:0.43;clip-path:url(#SVGID_63_);fill:#FFFFFF;}
	.st98{clip-path:url(#SVGID_63_);fill:none;stroke:#FFFFFF;stroke-miterlimit:10;}
	.st99{opacity:0.76;clip-path:url(#SVGID_63_);fill:#FFFFFF;}
	.st100{clip-path:url(#SVGID_63_);fill:#FFFFFF;}
	.st101{opacity:0.08;clip-path:url(#SVGID_63_);fill:#FFFFFF;}
	.st102{opacity:0.27;clip-path:url(#SVGID_63_);fill:#FFFFFF;}
	.st103{opacity:0.37;clip-path:url(#SVGID_63_);fill:#FFFFFF;}
	.st104{clip-path:url(#SVGID_63_);fill:none;}
	.st105{clip-path:url(#SVGID_65_);fill:none;}
	.st106{opacity:0.46;}
	.st107{opacity:0.86;fill:#FFFFFF;}
	.st108{opacity:0.4;}
	.st109{opacity:0.73;fill:#FFFFFF;}
	.st110{opacity:0.54;clip-path:url(#SVGID_67_);fill:#FFFFFF;}
	.st111{fill:#FF8A8A;}
	.st112{opacity:0.75;fill:#FFFFFF;}
	.st113{fill:#FFC181;}
	.st114{clip-path:url(#SVGID_69_);fill:#FFDFBD;}
	.st115{clip-path:url(#SVGID_69_);fill:#FF9D00;}
	.st116{clip-path:url(#SVGID_69_);fill:#FFF3DF;}
	.st117{clip-path:url(#SVGID_71_);fill:#FFBAE4;}
	.st118{opacity:0.8;clip-path:url(#SVGID_71_);fill:#FE82C8;}
	.st119{clip-path:url(#SVGID_71_);fill:#FE82C8;}
	.st120{opacity:0.79;clip-path:url(#SVGID_71_);fill:#FFBAE4;}
	.st121{fill:#FFFEEA;}
	.st122{fill:#58D196;}
	.st123{fill:#A6E5C3;}
	.st124{fill:#D2F2E1;}
	.st125{opacity:0.44;fill:#FFFFFF;}
	.st126{clip-path:url(#SVGID_73_);fill:#FFF9C1;}
	.st127{opacity:0.86;fill:#FFCCD5;}
	.st128{opacity:0.62;clip-path:url(#SVGID_75_);fill:#FFFFFF;}
	.st129{opacity:0.75;clip-path:url(#SVGID_75_);fill:#FFFFFF;}
	.st130{opacity:0.41;clip-path:url(#SVGID_75_);fill:#FFFFFF;}
	.st131{clip-path:url(#SVGID_75_);fill:none;}
	.st132{clip-path:url(#SVGID_77_);}
	.st133{opacity:0.44;clip-path:url(#SVGID_79_);fill:#FFFFFF;}
	.st134{opacity:0.43;clip-path:url(#SVGID_81_);fill:#FFFFFF;}
	.st135{clip-path:url(#SVGID_81_);fill:none;stroke:#FFFFFF;stroke-miterlimit:10;}
	.st136{opacity:0.76;clip-path:url(#SVGID_81_);fill:#FFFFFF;}
	.st137{clip-path:url(#SVGID_81_);fill:#FFFFFF;}
	.st138{opacity:0.08;clip-path:url(#SVGID_81_);fill:#FFFFFF;}
	.st139{opacity:0.27;clip-path:url(#SVGID_81_);fill:#FFFFFF;}
	.st140{opacity:0.37;clip-path:url(#SVGID_81_);fill:#FFFFFF;}
	.st141{clip-path:url(#SVGID_81_);fill:none;}
	.st142{opacity:0.54;clip-path:url(#SVGID_83_);fill:#FFFFFF;}
	.st143{opacity:0.62;fill:#FFFFFF;}
	.st144{opacity:0.41;fill:#FFFFFF;}
	.st145{opacity:0.43;fill:#FFFFFF;}
	.st146{opacity:0.76;fill:#FFFFFF;}
	.st147{opacity:0.08;fill:#FFFFFF;}
	.st148{opacity:0.27;fill:#FFFFFF;}
	.st149{opacity:0.54;fill:#FFFFFF;}
	.st150{clip-path:url(#SVGID_85_);fill:#FF6567;}
	.st151{clip-path:url(#SVGID_85_);fill:#FF8A8A;}
	.st152{clip-path:url(#SVGID_85_);fill:#FFC2C1;}
	.st153{clip-path:url(#SVGID_85_);fill:#FFFFFF;}
	.st154{clip-path:url(#SVGID_87_);fill:#E2E9FF;}
	.st155{clip-path:url(#SVGID_87_);fill:#EEF2FF;}
	.st156{opacity:0.54;clip-path:url(#SVGID_87_);fill:#EEF2FF;}
	.st157{opacity:0.54;clip-path:url(#SVGID_87_);fill:#8FAAF0;}
	.st158{clip-path:url(#SVGID_89_);}
	.st159{fill:#FF6B81;}
	.st160{clip-path:url(#SVGID_89_);fill:none;}
	.st161{fill:#FF1B6F;}
	.st162{clip-path:url(#SVGID_91_);fill:#FFDFBD;}
	.st163{clip-path:url(#SVGID_91_);fill:#FF9D00;}
	.st164{clip-path:url(#SVGID_91_);fill:#FFF3DF;}
	.st165{clip-path:url(#SVGID_93_);fill:#F0C6F4;}
	.st166{opacity:0.8;clip-path:url(#SVGID_93_);fill:#F8E3F8;}
	.st167{clip-path:url(#SVGID_93_);fill:#F8E3F8;}
	.st168{opacity:0.79;clip-path:url(#SVGID_93_);fill:#F0C6F4;}
	.st169{clip-path:url(#SVGID_95_);fill:#FFF9C1;}
	.st170{clip-path:url(#SVGID_97_);fill:#FFC5D6;}
	.st171{clip-path:url(#SVGID_97_);fill:#FF94B3;}
	.st172{clip-path:url(#SVGID_97_);fill:#FF6794;}
	.st173{clip-path:url(#SVGID_97_);fill:#FFFFFF;}
	.st174{clip-path:url(#SVGID_99_);fill:#698DE6;}
	.st175{clip-path:url(#SVGID_99_);fill:#8FAAF0;}
	.st176{opacity:0.54;clip-path:url(#SVGID_99_);fill:#8FAAF0;}
	.st177{clip-path:url(#SVGID_101_);}
	.st178{clip-path:url(#SVGID_101_);fill:none;}
	.st179{opacity:0.46;clip-path:url(#SVGID_103_);}
	.st180{clip-path:url(#SVGID_103_);fill:none;}
	.st181{fill:none;stroke:#FFFFFF;stroke-width:2;stroke-miterlimit:10;}
	.st182{opacity:0.45;fill:#FFFFFF;}
	.st183{opacity:0.8;fill:#FFFFFF;}
	.st184{opacity:0.79;fill:#FFFFFF;}
	.st185{fill:#F2C5AA;}
	.st186{fill:none;stroke:#FFFFFF;stroke-width:0.75;stroke-miterlimit:10;}
	.st187{fill:#FFFFFF;stroke:#FFFFFF;stroke-width:0.25;stroke-miterlimit:10;}
	.st188{fill:#D3C1B2;}
	.st189{fill:#FFC5D6;}
	.st190{clip-path:url(#SVGID_111_);fill:#F787A5;}
	.st191{clip-path:url(#SVGID_111_);fill:#FFE9F2;}
	.st192{clip-path:url(#SVGID_111_);fill:#D3CFB3;}
	.st193{clip-path:url(#SVGID_111_);fill:#FFDBE5;}
	.st194{clip-path:url(#SVGID_111_);}
	.st195{fill:#FFE9F2;}
	.st196{fill:#F787A5;}
	.st197{fill:#F2CCC1;}
	.st198{fill:#DF4E50;}
	.st199{clip-path:url(#SVGID_111_);fill:#FFC5D6;}
	.st200{fill:#FFDBE5;}
	.st201{fill:#FFB9C3;}
	.st202{fill:#FB91B5;}
	.st203{fill:#E3A180;}
	.st204{fill:#92693D;}
	.st205{fill:#FBBACC;}
	.st206{fill:#E6678D;}
	.st207{fill:#574435;}
	.st208{fill:#C9A47C;}
	.st209{fill:#641F1E;}
	.st210{fill:#F15E89;}
	.st211{fill:#E7005E;}
	.st212{fill:#DEB78A;}
	.st213{fill:#DFB78A;}
	.st214{fill:#FF6794;}
	.st215{fill:#D72264;}
	.st216{fill:#F7F7F7;}
	.st217{fill:#F2F2F2;}
	.st218{fill:#FFFBF0;}
	.st219{fill:#FFBFCF;}
	.st220{fill:#FF9DAE;}
	.st221{fill:#FFC2C1;}
	.st222{fill:#FFCCD5;}
	.st223{fill:#B49E8F;}
	.st224{fill:#FFE2EA;}
	.st225{fill:#A3C5DC;}
	.st226{fill:#DA956B;}
	.st227{fill:#BDA595;}
	.st228{fill:#583B34;}
	.st229{fill:#63443C;}
	.st230{fill:#B2D0E5;}
	.st231{fill:#FCFCFB;}
	.st232{fill:#D0ACA1;}
	.st233{fill:#A2C4DB;}
	.st234{fill:#E1D0C8;}
	.st235{fill:#9C7972;}
	.st236{fill:#77573F;}
	.st237{fill:#F3769C;}
	.st238{fill:#FBFBF9;}
	.st239{fill:#F8C4DC;}
	.st240{fill:#E4BAB5;}
	.st241{clip-path:url(#SVGID_113_);fill:#F787A5;}
	.st242{clip-path:url(#SVGID_113_);fill:#FFE9F2;}
	.st243{clip-path:url(#SVGID_113_);fill:#D3CFB3;}
	.st244{clip-path:url(#SVGID_113_);fill:#FFDBE5;}
	.st245{clip-path:url(#SVGID_113_);}
	.st246{clip-path:url(#SVGID_113_);fill:#FFC5D6;}
	.st247{fill:#00C377;}
	.st248{fill:#88E5AF;}
	.st249{fill:#00B45A;}
	.st250{fill:#7FDAAA;}
	.st251{fill:#F2BC3A;}
	.st252{fill:#B99F65;}
	.st253{fill:#98D284;}
	.st254{fill:#3C3724;}
	.st255{fill:#D6BEA2;}
	.st256{fill:#9C8274;}
	.st257{fill:#587147;}
	.st258{fill:#E7D6BE;}
	.st259{fill:#5CC689;}
	.st260{clip-path:url(#SVGID_115_);fill:#A6E5C3;}
	.st261{clip-path:url(#SVGID_115_);fill:#FFFFFF;}
	.st262{clip-path:url(#SVGID_115_);fill:#58D196;}
	.st263{fill:#F35000;}
	.st264{fill:#FF8429;}
	.st265{fill:#FFAC33;}
	.st266{fill:#F58800;}
	.st267{fill:#EF6406;}
	.st268{fill:#FF9C00;}
	.st269{fill:#130077;}
	.st270{fill:#FFB58D;}
	.st271{opacity:0.3;}
	.st272{fill:#FF7300;}
	.st273{fill:#6E0000;}
	.st274{fill-rule:evenodd;clip-rule:evenodd;fill:#FF9C00;}
	.st275{fill-rule:evenodd;clip-rule:evenodd;fill:url(#SVGID_116_);}
	.st276{opacity:0.3;fill-rule:evenodd;clip-rule:evenodd;fill:#A4002C;}
	.st277{fill-rule:evenodd;clip-rule:evenodd;fill:url(#SVGID_117_);}
	.st278{fill-rule:evenodd;clip-rule:evenodd;fill:url(#SVGID_118_);}
	.st279{opacity:0.5;fill-rule:evenodd;clip-rule:evenodd;fill:url(#SVGID_119_);}
	.st280{fill-rule:evenodd;clip-rule:evenodd;fill:#FFC485;}
	.st281{fill-rule:evenodd;clip-rule:evenodd;fill:url(#SVGID_120_);}
	.st282{fill-rule:evenodd;clip-rule:evenodd;fill:url(#SVGID_121_);}
	.st283{fill-rule:evenodd;clip-rule:evenodd;fill:url(#SVGID_122_);}
	.st284{opacity:0.5;fill-rule:evenodd;clip-rule:evenodd;fill:url(#SVGID_123_);}
	.st285{fill-rule:evenodd;clip-rule:evenodd;fill:#FDA157;}
	.st286{opacity:0.5;fill-rule:evenodd;clip-rule:evenodd;fill:#FDA157;}
	.st287{fill-rule:evenodd;clip-rule:evenodd;fill:#FF8429;}
	.st288{fill-rule:evenodd;clip-rule:evenodd;fill:#FFAC33;}
	.st289{opacity:0.62;fill-rule:evenodd;clip-rule:evenodd;fill:#C8002A;}
	.st290{opacity:0.5;fill-rule:evenodd;clip-rule:evenodd;fill:#FF8429;}
	.st291{opacity:0.5;fill-rule:evenodd;clip-rule:evenodd;fill:#8F5472;}
	.st292{opacity:0.3;fill-rule:evenodd;clip-rule:evenodd;fill:url(#SVGID_124_);}
	.st293{opacity:0.5;fill-rule:evenodd;clip-rule:evenodd;fill:url(#SVGID_125_);}
	.st294{opacity:0.3;fill-rule:evenodd;clip-rule:evenodd;fill:url(#SVGID_126_);}
	.st295{opacity:0.3;fill-rule:evenodd;clip-rule:evenodd;fill:url(#SVGID_127_);}
	.st296{clip-path:url(#SVGID_129_);}
	.st297{clip-path:url(#SVGID_129_);fill:#FF8429;}
	.st298{fill:#FDA157;}
	.st299{clip-path:url(#SVGID_131_);}
	.st300{clip-path:url(#SVGID_133_);}
	.st301{fill:#F9B946;}
	.st302{clip-path:url(#SVGID_135_);}
	.st303{clip-path:url(#SVGID_135_);fill:#FF8429;}
	.st304{fill-rule:evenodd;clip-rule:evenodd;fill:url(#SVGID_136_);}
	.st305{fill-rule:evenodd;clip-rule:evenodd;fill:url(#SVGID_137_);}
	.st306{fill-rule:evenodd;clip-rule:evenodd;fill:url(#SVGID_138_);}
	.st307{opacity:0.5;fill-rule:evenodd;clip-rule:evenodd;fill:url(#SVGID_139_);}
	.st308{fill-rule:evenodd;clip-rule:evenodd;fill:url(#SVGID_140_);}
	.st309{fill-rule:evenodd;clip-rule:evenodd;fill:url(#SVGID_141_);}
	.st310{fill-rule:evenodd;clip-rule:evenodd;fill:url(#SVGID_142_);}
	.st311{opacity:0.5;fill-rule:evenodd;clip-rule:evenodd;fill:url(#SVGID_143_);}
	.st312{opacity:0.3;fill-rule:evenodd;clip-rule:evenodd;fill:url(#SVGID_144_);}
	.st313{opacity:0.5;fill-rule:evenodd;clip-rule:evenodd;fill:url(#SVGID_145_);}
	.st314{opacity:0.3;fill-rule:evenodd;clip-rule:evenodd;fill:url(#SVGID_146_);}
	.st315{opacity:0.3;fill-rule:evenodd;clip-rule:evenodd;fill:url(#SVGID_147_);}
</style>
<g>
	<defs>
		<rect id="SVGID_132_" x="581" y="477.68" width="648.68" height="359.49"/>
	</defs>
	<clipPath id="SVGID_2_">
		<use xlink:href="#SVGID_132_"  style="overflow:visible;"/>
	</clipPath>
</g>
<path class="st287" d="M575.49,455.93C450.33,582.95,325.16,709.98,200,837c-66.79,0.31-133.58,0.61-200.36,0.92
	C-0.24,590.28-0.12,342.64,0,95c27.51-26.08,55.02-52.16,82.52-78.24l6.44,3.14l8.52,6.05l2.12-14.41l8.68-4.08l10.47,11.13V5.5
	l4.75-5.73l8.18,4.09l7.03,11.78l-2.29,11.62l15.34-15.24l12.81,1.17l-1.31,9.16l7.2-6.71l9.99,6.88l-4.09,9.82l12.77-11.79
	l1.8,2.46l1.63,2.45l15.99-15.35l17.73,0.95l-7.03,17.01l14.24-13.26l9.33,4.25l-3.76,11.62l16.2-8.02l4.42,7.2l7.03-6.91l8.02-2.09
	l0.33,14.58l9.49-18.83l7.86,4.42l4.75-8.67l6.88-0.83l7.04,6.71l2.13,7.53L330.4,8.61l1.64-1.48l11.62-1.63l0.65,17.84l10.15-9.99
	l8.02,2.79l-2.13,16.21l15.88-10.48l3.76,3.77l9.01-9.01l7.69-1.8l2.29,16.7l7.53-20.95l12.76,8.02l1.97-13.27l7.2,0.66l6.71,14.24
	l17.35-17.35l5.07-2.79l6.88,0.66l1.64,3.11l-2.62,16.86l11.95-12.93l8.67,4.25l-5.07,15.55l13.09-12.93l9.99,4.91l-1.8,11.62
	l-5.63,15.1l-13.85,14.04l-9.49,48.77l-2.3,83.15l13.76,29.79l12.76,9.99l1.31,38.14l12.11,19.48l1.64,9.99l-1.64,28.16l4.74,12.6
	l1.07,26.57l-29.22,29.42l-9.99,24.54l20.3,18.18L575.49,455.93z"/>
<path class="st263" d="M581.82,443.85c0,32.08-128.33,58.1-286.45,58.1c-158.28,0-286.45-26.02-286.45-58.1
	c0-32.09,128.17-58.1,286.45-58.1C453.49,385.75,581.82,411.77,581.82,443.85L581.82,443.85z"/>
<path class="st263" d="M137.41,12.04c-1.47-3.27-3.27-6.05-5.56-8.67c-0.17,0.16-0.17,0.16-0.17,0.16
	c-2.62-4.08-7.85-5.73-12.44-3.59c-3.77,1.63-5.89,5.07-6.05,8.84c-2.79-2.14-6.55-2.62-9.99-1.15c-3.76,1.64-6.05,5.4-6.05,9.17
	c-2.95-2.95-7.37-4.09-11.46-2.29c-4.09,1.8-6.38,6.05-5.89,10.32c-0.17,0,0.65,7.85,2.45,11.78c6.88,15.72,24.88,23.08,40.28,16.21
	C137.74,46.1,144.45,27.76,137.41,12.04L137.41,12.04z M86.84,35.78L86.84,35.78c-5.56-10.48-1.31-15.06,1.31-15.38
	c2.45-0.49-1.47,6.38,4.91,17.18c3.93,6.54,12.12,13.09,12.12,13.09S92.57,46.1,86.84,35.78L86.84,35.78z M105.33,12.38
	L105.33,12.38c6.55-1.8,13.26,29.13,13.26,29.13S98.78,14.18,105.33,12.38L105.33,12.38z M133.16,20.06L133.16,20.06
	c-2.62-10.96-10.31-14.73-9.5-16.69c0.82-1.8,4.91-1.97,10.15,9.65c5.24,11.46-0.98,23.4-0.98,23.4S135.29,29.39,133.16,20.06
	L133.16,20.06z"/>
<path class="st263" d="M461.19,52.81c15.22,6.87,33.22-0.49,40.27-16.21c1.63-3.93,2.45-11.78,2.45-11.78
	c0.32-4.26-1.8-8.51-5.89-10.32c-4.09-1.8-8.68-0.66-11.46,2.29c0-3.77-2.29-7.53-6.06-9.17c-3.44-1.46-7.2-0.98-9.99,1.15
	c-0.16-3.77-2.45-7.2-6.06-8.84c-3.27-1.48-6.88-1.15-9.49,0.65c-1.48,0.99-4.09,3.93-5.24,5.4c-1.31,1.8-2.62,3.92-3.6,6.05
	C439.26,27.76,445.97,46.1,461.19,52.81L461.19,52.81z M478.54,50.67L478.54,50.67c0,0,8.18-6.55,11.95-13.09
	c6.55-10.81,2.45-17.68,5.07-17.18c2.62,0.32,6.88,4.9,1.15,15.38C491.14,46.1,478.54,50.67,478.54,50.67L478.54,50.67z
	 M465.12,41.51L465.12,41.51c0,0,6.71-30.93,13.26-29.13C484.76,14.18,465.12,41.51,465.12,41.51L465.12,41.51z M450.88,36.43
	L450.88,36.43c0,0-6.38-11.95-1.15-23.4c5.24-11.62,9.33-11.45,10.15-9.65c0.82,1.96-6.87,5.73-9.33,16.69
	C448.42,29.39,450.88,36.43,450.88,36.43L450.88,36.43z"/>
<path class="st263" d="M257.56,44.13c0.98-1.96,1.8-3.92,2.29-5.89c0.33-1.47,1.14-5.88,0.98-7.53c-0.16-3.43-2.13-6.71-5.57-8.51
	c-3.6-1.63-7.69-1.14-10.64,1.15c-0.17-3.43-2.13-6.88-5.57-8.51c-3.6-1.8-7.86-1.14-10.8,1.31c0.49-4.09-1.64-8.34-5.56-10.31
	c-8.18-3.93-16.05,5.08-19.32,11.47c-7.53,15.38-1.64,33.87,13.26,41.4C231.7,66.06,250.03,59.52,257.56,44.13L257.56,44.13z
	 M207.15,20.4L207.15,20.4c4.26-11.13,10.64-10.65,12.61-9.01c1.96,1.8-5.9,2.94-10.15,14.89c-2.46,7.2-2.29,17.69-2.29,17.69
	S202.72,31.36,207.15,20.4L207.15,20.4z M236.94,19.57L236.94,19.57c5.4,3.77-13.91,28.82-13.91,28.82S231.37,15.81,236.94,19.57
	L236.94,19.57z M248.73,45.77L248.73,45.77c6.71-8.85,4.91-17.19,6.87-17.84c1.96-0.49,4.58,2.62-0.98,14.07
	c-5.56,11.3-18.82,14.07-18.82,14.07S242.83,53.46,248.73,45.77L248.73,45.77z"/>
<path class="st263" d="M378.53,43.14c0.98-1.8,1.63-3.76,2.29-5.73c0.33-1.47,1.15-5.89,0.98-7.53c-0.16-3.43-2.12-6.87-5.56-8.51
	c-3.6-1.8-7.69-1.31-10.64,0.98c-0.16-3.43-2.12-6.71-5.56-8.34c-3.61-1.97-7.86-1.31-10.97,1.14c0.49-4.08-1.47-8.35-5.4-10.15
	c-8.19-4.09-16.04,4.91-19.31,11.3c-7.54,15.55-1.64,34.04,13.26,41.41C352.5,65.08,370.83,58.69,378.53,43.14L378.53,43.14z
	 M328.11,19.41c1.47-3.77,7.36-13.26,12.6-8.84c1.8,1.63-5.89,2.94-10.15,14.89c-2.45,7.04-2.45,17.52-2.45,17.52
	S323.69,30.38,328.11,19.41L328.11,19.41z M357.74,18.6L357.74,18.6c5.56,3.92-13.91,28.8-13.91,28.8S352.34,14.83,357.74,18.6
	L357.74,18.6z M369.69,44.94L369.69,44.94c6.71-8.84,4.74-17.35,6.71-17.84c1.96-0.65,4.75,2.46-0.82,13.92
	c-5.57,11.46-18.82,14.24-18.82,14.24S363.8,52.64,369.69,44.94L369.69,44.94z"/>
<path class="st263" d="M193.73,37.58c0.49-1.31,0.82-2.79,0.98-4.09c0.33-1.48,0.65-5.56,0.33-7.2c-0.49-2.94-2.62-5.56-5.57-6.54
	c-3.27-1.14-6.55-0.17-8.67,1.97c-0.66-2.79-2.62-5.4-5.57-6.39c-3.27-0.98-6.71,0-9,2.29c0-3.43-2.13-6.71-5.56-7.86
	c-3.6-1.14-7.37,0.17-9.5,2.95c-0.15,0-4.09,5.24-5.23,8.67c-4.58,13.59,2.29,28.16,15.55,32.74
	C174.73,58.54,189.14,51.16,193.73,37.58L193.73,37.58z M149.37,23.34L149.37,23.34c2.29-9.5,7.53-9.82,9.33-8.68
	c1.79,1.15-4.42,3.11-6.55,13.42c-1.31,6.22-0.16,14.9-0.16,14.9S146.91,33,149.37,23.34L149.37,23.34z M173.92,19.57L173.92,19.57
	c4.91,2.46-8.35,25.37-8.35,25.37S168.85,16.95,173.92,19.57L173.92,19.57z M186.53,39.88L186.53,39.88
	c4.74-8.02,2.12-14.73,3.76-15.39c1.48-0.82,4.1,1.48,0.66,11.62c-3.28,9.99-13.92,13.75-13.92,13.75S182.6,46.91,186.53,39.88
	L186.53,39.88z"/>
<path class="st263" d="M298.16,54.93c13.09-4.42,20.14-19.15,15.55-32.74c-1.96-5.73-7.53-13.9-14.73-11.45
	c-3.44,1.15-5.57,4.42-5.73,7.86c-2.13-2.46-5.57-3.45-8.84-2.29c-2.95,0.98-4.91,3.43-5.57,6.38c-2.12-2.13-5.56-3.11-8.67-2.13
	c-2.62,0.98-4.42,2.95-5.24,5.4c-0.82,2.29-0.33,7.04,0,9.16c0.33,1.15,0.48,2.29,0.98,3.28C270.49,52.15,284.9,59.52,298.16,54.93
	L298.16,54.93z M307.65,43.8L307.65,43.8c0,0,1.14-8.51-0.17-14.73c-2.13-10.31-8.51-12.27-6.71-13.42
	c1.96-1.31,7.03-0.82,9.49,8.68C312.73,33.98,307.65,43.8,307.65,43.8L307.65,43.8z M294.07,45.77L294.07,45.77
	c0,0-13.26-22.75-8.35-25.37C290.79,17.94,294.07,45.77,294.07,45.77L294.07,45.77z M282.61,50.84L282.61,50.84
	c0,0-10.64-3.76-14.08-13.92c-3.27-9.98-0.65-12.27,0.82-11.62c1.64,0.83-0.98,7.54,3.77,15.56
	C277.04,47.9,282.61,50.84,282.61,50.84L282.61,50.84z"/>
<path class="st263" d="M420.1,48.88c13.26-4.43,20.13-19.15,15.55-32.74c-1.15-3.28-5.07-8.67-5.07-8.51
	c-2.13-2.94-5.89-4.25-9.5-2.94c-3.61,1.14-5.73,4.25-5.73,7.85c-2.12-2.45-5.73-3.43-8.84-2.29c-3.11,0.98-5.07,3.45-5.56,6.39
	c-2.29-2.29-5.57-3.11-8.68-2.13c-2.95,1.14-5.07,3.43-5.56,6.38c-0.49,1.8,0,6.39,0.32,8.19c0.17,1.14,0.49,2.29,0.82,3.28
	C392.6,45.93,407.01,53.46,420.1,48.88L420.1,48.88z M429.6,37.75L429.6,37.75c0,0,1.31-8.68,0-14.73
	c-2.12-10.31-8.51-12.28-6.71-13.42c1.8-1.31,7.03-0.82,9.49,8.67C434.67,27.93,429.6,37.75,429.6,37.75L429.6,37.75z M416.17,39.71
	L416.17,39.71c0,0-13.42-22.75-8.35-25.37C412.74,11.89,416.17,39.71,416.17,39.71L416.17,39.71z M404.56,44.79L404.56,44.79
	c0,0-10.64-3.77-13.92-13.92c-3.27-9.99-0.82-12.27,0.82-11.62c1.47,0.82-0.99,7.53,3.6,15.55
	C399.15,41.83,404.56,44.79,404.56,44.79L404.56,44.79z"/>
<path class="st301" d="M468.39,43.8H122.36c-9.99,0-18,8.02-18,17.84v346.2c0,9.82,8.02,17.84,18,17.84
	c9.82,0,17.84-8.02,17.84-17.84V233.52C250.03,186.7,289.16,126.78,302.9,91.6c13.26,33.55,49.27,89.53,147.65,135.2v181.03
	c0,9.82,8.02,17.84,17.83,17.84c9.82,0,17.85-8.02,17.85-17.84V61.64C486.23,51.82,478.21,43.8,468.39,43.8L468.39,43.8z"/>
<path class="st263" d="M167.86,348.09c-1.48-10.15-7.53-16.2-6.06-27.01c1.15-9.65,4.26-15.22,1.31-24.88
	c-3.76-12.44-13.26-18.34-13.42-32.9c-0.17-9.17,3.11-28.33-7.37-34.05c-9-4.91-30.44-5.4-39.45-0.49
	c-11.13,6.06-8.84,25.21-8.68,35.36c0.66,20.46-18.66,31.1-13.59,52.54c2.79,11.46-2.45,17.84-3.92,27.82
	c-1.31,9.17,1.47,17.52,2.29,26.52c0.32,3.11,8.02,1.31,7.69-2.14c-0.49-5.07-1.47-9.98-2.45-15.21
	c-2.62-12.77,4.25-12.93,5.73-22.43c0.98-6.05,0-10.47-1.63-16.53c-3.77-13.42,1.8-21.77,9.16-31.92
	c6.22-8.84,4.42-20.14,4.26-30.12c-0.16-6.88,1.64-16.04,7.53-19.64c8.84-5.57,29.14-0.49,32.08,10.64
	c2.95,11.13-3.27,26.02,2.95,36.34c5.89,9.99,13.09,17.52,12.77,30.12c-0.17,6.06-4.74,11.96-3.77,18.18
	c0.98,6.22,3.93,11.13,6.22,16.86c2.78,7.04-1.64,18-2.29,25.21c-0.33,3.6,7.53,2.29,7.69-0.82
	C165.57,362.83,168.85,354.8,167.86,348.09L167.86,348.09z"/>
<path class="st263" d="M518.48,344c-1.47-9.98-7.53-16.2-6.06-27c1.15-9.5,4.26-15.23,1.31-24.71
	c-3.76-12.44-13.26-18.33-13.42-32.9c-0.17-12.28,2.62-27.83-9.82-35.04c-4.75-2.79-10.48-2.62-15.88-1.8
	c-22.09-0.32-36.5,0.49-35.68,32.25c0.16,11.29-0.65,18.83-7.53,28.31c-4.59,6.54-9.33,15.39-7.36,23.74
	c1.96,8.35,5.4,15.55,1.47,24.71c-1.14,2.78-3.6,5.89-3.92,9c-1.47,9.16,1.31,17.35,2.29,26.51c0.16,3.11,7.85,1.32,7.53-2.13
	c-0.33-5.23-1.48-10.15-2.45-15.23c-2.45-12.76,4.26-12.92,5.73-22.42c1.15-6.06,0.16-10.64-1.64-16.7
	c-3.6-13.26,1.8-21.6,9.17-31.92c6.22-8.67,4.59-19.97,4.26-30.12c-0.17-10.31,3.44-15.55,8.83-18.33
	c10.81-1.14,26.36-6.05,33.89,1.97c8.67,8.99,1.8,31.26,5.4,43.2c1.8,6.22,8.68,13.27,11.46,18.99c4.58,9.33-0.98,19.8-2.12,29.13
	c-0.65,4.59,2.62,9.5,4.58,13.27c4.75,9.49,0.33,19.8-0.65,29.62c-0.33,3.6,7.53,2.29,7.69-0.82
	C516.18,358.9,519.46,350.88,518.48,344L518.48,344z"/>
<g>
	<defs>
		<rect id="SVGID_134_" x="-677.21" y="-323" width="610.75" height="1156.98"/>
	</defs>
	<clipPath id="SVGID_3_">
		<use xlink:href="#SVGID_134_"  style="overflow:visible;"/>
	</clipPath>
	<g style="clip-path:url(#SVGID_3_);">
		<g>
			<path class="st264" d="M17.95,833.44c-14.75,0-29.55-1.18-44.09-2.35c-14.32-1.14-29.13-2.32-43.46-2.32
				c-14.33,0-29.14,1.18-43.48,2.32c-28.18,2.25-57.35,4.61-85.27-1.76c-29.05-6.6-54.56-21.57-79.24-36.05
				c-12.52-7.34-24.35-14.29-36.58-20.18c-12.55-6.06-26.16-11.35-39.32-16.45c-26.54-10.29-53.99-20.92-76.79-39.13
				c-22.89-18.29-39.34-42.68-55.25-66.27c-7.87-11.7-16.02-23.78-24.67-34.63c-8.59-10.74-18.06-20.83-28.11-31.52
				c-19.55-20.75-39.76-42.23-52.57-68.82c-12.61-26.14-16.86-55.26-20.97-83.43c-2.05-14.01-4.15-28.48-7.27-42.16
				c-2.97-13.12-7.08-26.12-11.43-39.89c-8.61-27.27-17.51-55.5-17.51-85.54c0-30.05,8.9-58.27,17.51-85.54
				c4.34-13.77,8.46-26.77,11.43-39.89c3.12-13.69,5.23-28.16,7.27-42.17c4.11-28.17,8.35-57.31,20.97-83.45
				c12.82-26.57,33.03-48.05,52.57-68.82c10.05-10.67,19.53-20.75,28.11-31.51c8.66-10.84,16.82-22.93,24.69-34.62
				c15.9-23.6,32.35-48,55.24-66.28c22.81-18.21,50.26-28.86,76.81-39.14c13.17-5.11,26.76-10.38,39.31-16.44
				c12.23-5.89,24.06-12.84,36.58-20.18c24.68-14.47,50.19-29.45,79.24-36.05c27.91-6.33,57.08-4.01,85.27-1.77
				c14.33,1.14,29.15,2.32,43.48,2.32c14.33,0,29.15-1.18,43.47-2.32c28.2-2.24,57.35-4.57,85.26,1.77
				c29.07,6.6,54.59,21.58,79.26,36.05c12.53,7.35,24.35,14.3,36.56,20.2c12.57,6.05,26.16,11.32,39.33,16.43
				c26.54,10.28,54,20.93,76.81,39.14c22.88,18.28,39.33,42.69,55.24,66.28c7.87,11.69,16.02,23.78,24.68,34.62
				c8.58,10.74,18.06,20.82,28.1,31.49c19.55,20.78,39.75,42.25,52.58,68.82c12.6,26.14,16.85,55.27,20.97,83.44
				c2.04,14.01,4.14,28.48,7.26,42.17c2.98,13.12,7.07,26.12,11.42,39.89c8.63,27.28,17.52,55.49,17.52,85.54
				c0,30.04-8.9,58.27-17.52,85.54c-4.34,13.77-8.44,26.77-11.42,39.89c-3.12,13.68-5.22,28.15-7.27,42.17
				c-4.11,28.15-8.36,57.29-20.95,83.43c-12.83,26.58-33.05,48.05-52.6,68.83c-10.03,10.67-19.51,20.77-28.1,31.49
				c-8.65,10.85-16.79,22.92-24.67,34.62c-15.91,23.6-32.36,47.99-55.25,66.28c-22.79,18.21-50.26,28.85-76.79,39.14
				c-13.17,5.1-26.76,10.39-39.33,16.44c-12.23,5.89-24.03,12.84-36.58,20.18c-24.67,14.48-50.19,29.45-79.25,36.05
				C45.63,832.4,31.81,833.44,17.95,833.44z M-69.6,806.4c15.22,0,30.48,1.2,45.24,2.38c27.75,2.19,53.95,4.29,78.53-1.29
				c25.69-5.83,49.67-19.93,72.86-33.51c12.37-7.27,25.15-14.77,38.2-21.07c13.33-6.43,27.36-11.88,40.96-17.14
				c26.11-10.11,50.78-19.68,70.92-35.75c20.2-16.16,34.98-38.08,50.64-61.31c8.12-12.05,16.51-24.53,25.74-36.06
				c9.15-11.47,19.4-22.34,29.3-32.88c19.24-20.44,37.39-39.74,48.72-63.21c11.1-23.04,14.94-49.22,18.98-76.93
				c2.1-14.43,4.29-29.37,7.6-43.91c3.18-14.02,7.62-28.08,11.9-41.67c8.1-25.66,16.47-52.2,16.47-78.79
				c0-26.61-8.38-53.14-16.47-78.8c-4.28-13.61-8.72-27.66-11.9-41.68c-3.3-14.54-5.5-29.46-7.6-43.9
				c-4.03-27.71-7.87-53.89-18.98-76.94c-11.33-23.47-29.48-42.77-48.71-63.2c-9.91-10.54-20.17-21.43-29.3-32.88
				c-9.24-11.55-17.62-24.01-25.75-36.08c-15.66-23.23-30.43-45.16-50.64-61.3c-20.14-16.07-44.81-25.63-70.92-35.76
				c-13.59-5.26-27.61-10.7-40.96-17.14c-13.05-6.3-25.82-13.79-38.2-21.04c-23.18-13.61-47.18-27.69-72.86-33.53
				c-24.58-5.58-50.78-3.5-78.53-1.3c-14.76,1.17-30.02,2.4-45.24,2.4c-15.22,0-30.5-1.23-45.26-2.4
				c-27.74-2.2-53.94-4.29-78.53,1.3c-25.67,5.83-49.67,19.91-72.87,33.53c-12.35,7.25-25.13,14.73-38.17,21.03
				c-13.36,6.45-27.39,11.88-40.96,17.15c-26.12,10.13-50.79,19.69-70.92,35.76c-20.21,16.14-34.99,38.07-50.65,61.3
				c-8.12,12.05-16.53,24.53-25.76,36.08c-9.16,11.45-19.4,22.34-29.31,32.88c-19.23,20.43-37.38,39.73-48.7,63.19
				c-11.12,23.04-14.93,49.24-18.98,76.95c-2.11,14.44-4.28,29.36-7.58,43.9c-3.19,14.01-7.64,28.07-11.92,41.68
				c-8.1,25.65-16.47,52.18-16.47,78.8c0,26.6,8.38,53.14,16.47,78.79c4.29,13.59,8.74,27.65,11.93,41.67
				c3.3,14.55,5.47,29.48,7.58,43.91c4.04,27.71,7.85,53.87,18.98,76.93c11.32,23.47,29.48,42.76,48.7,63.21
				c9.91,10.53,20.15,21.42,29.31,32.88c9.22,11.53,17.63,24.01,25.76,36.06c15.65,23.23,30.43,45.15,50.64,61.31
				c20.12,16.06,44.79,25.62,70.92,35.75c13.56,5.26,27.59,10.69,40.96,17.14c13.04,6.3,25.82,13.79,38.17,21.03
				c23.2,13.62,47.2,27.71,72.87,33.55c24.58,5.58,50.79,3.49,78.53,1.29C-100.09,807.61-84.82,806.4-69.6,806.4z"/>
		</g>
		<path class="st264" d="M-150.55,787.72c-12.64,0-25.19-0.95-37.44-3.71c-26.43-6.02-49.83-19.75-72.45-33.02
			c-11.63-6.82-22.61-13.28-34.02-18.78c-11.71-5.66-24.35-10.55-36.58-15.29c-24.35-9.43-49.51-19.18-70.25-35.76
			c-20.82-16.62-35.9-38.99-50.48-60.63c-7.32-10.87-14.89-22.08-22.96-32.21c-8.02-10.01-17.24-19.81-26.15-29.29
			c-17.93-19.06-36.45-38.74-48.11-62.9c-11.47-23.78-15.37-50.49-19.13-76.34c-1.89-12.99-3.85-26.44-6.76-39.2
			c-2.77-12.23-6.59-24.31-10.63-37.11c-7.89-25.01-16.05-50.86-16.05-78.21c0-27.35,8.16-53.22,16.05-78.22
			c4.04-12.79,7.85-24.87,10.63-37.11c2.91-12.77,4.87-26.22,6.77-39.23c3.77-25.82,7.66-52.54,19.13-76.31
			c11.66-24.16,30.18-43.85,48.11-62.9c8.92-9.48,18.14-19.28,26.15-29.31c8.06-10.11,15.63-21.33,22.95-32.19
			c14.58-21.64,29.67-44.03,50.49-60.65c20.74-16.57,45.91-26.33,70.25-35.76c12.23-4.74,24.86-9.64,36.57-15.3
			c11.41-5.5,22.39-11.93,34.02-18.76c22.62-13.28,46.02-27.01,72.45-33.02c25.38-5.75,52.12-3.63,77.98-1.57
			c13.3,1.05,27.05,2.15,40.42,2.15c13.36,0,27.13-1.1,40.43-2.15c25.85-2.07,52.57-4.19,77.97,1.57
			c26.41,6.01,49.82,19.74,72.45,33.03c11.63,6.82,22.61,13.26,34.02,18.76c11.7,5.66,24.33,10.55,36.55,15.3
			c24.35,9.43,49.52,19.18,70.27,35.75c20.82,16.62,35.9,39,50.48,60.64c7.3,10.86,14.87,22.09,22.96,32.19
			c8.01,10.03,17.22,19.84,26.14,29.31c17.93,19.04,36.46,38.74,48.12,62.91c11.47,23.76,15.36,50.48,19.13,76.3
			c1.9,13,3.86,26.46,6.76,39.23c2.78,12.25,6.61,24.32,10.64,37.12c7.89,25,16.06,50.86,16.06,78.21c0,27.34-8.17,53.2-16.06,78.19
			c-4.03,12.82-7.86,24.9-10.64,37.13c-2.9,12.78-4.86,26.22-6.76,39.23c-3.77,25.84-7.66,52.55-19.13,76.32
			c-11.65,24.17-30.19,43.85-48.12,62.9c-8.91,9.48-18.14,19.29-26.14,29.29c-8.09,10.14-15.66,21.35-22.96,32.22
			c-14.58,21.63-29.67,44.01-50.5,60.63c-20.74,16.57-45.91,26.32-70.26,35.75c-12.22,4.74-24.85,9.64-36.55,15.29
			c-11.43,5.5-22.39,11.95-34.02,18.78c-22.63,13.27-46.04,27-72.45,33.02c-25.4,5.72-52.12,3.62-77.97,1.55
			c-13.3-1.06-27.06-2.15-40.43-2.15c-13.37,0-27.12,1.09-40.43,2.15C-123.4,786.63-137.01,787.72-150.55,787.72z M-69.6,768.48
			c13.96,0,28.01,1.13,41.62,2.2c25.86,2.08,50.29,4.02,73.46-1.24c24.18-5.51,46.56-18.63,68.19-31.33
			c11.39-6.67,23.14-13.58,35.11-19.35c12.23-5.89,25.16-10.9,37.65-15.76c24.35-9.44,47.38-18.35,66.33-33.48
			c19.04-15.22,32.83-35.66,47.42-57.33c7.48-11.1,15.23-22.58,23.68-33.16c8.39-10.5,17.81-20.51,26.94-30.23
			c17.14-18.21,34.87-37.08,45.52-59.17c10.48-21.69,14.03-46.13,17.8-71.97c1.95-13.28,3.97-27.04,7-40.37
			c2.9-12.84,7-25.8,10.94-38.32c7.57-23.92,15.36-48.67,15.36-73.71c0-25.06-7.79-49.79-15.36-73.73
			c-3.94-12.52-8.04-25.46-10.94-38.3c-3.03-13.34-5.04-27.08-7-40.37c-3.77-25.86-7.32-50.27-17.8-71.97
			c-10.65-22.09-28.38-40.94-45.52-59.16c-9.11-9.69-18.54-19.73-26.94-30.23c-8.45-10.58-16.2-22.07-23.67-33.17
			c-14.59-21.66-28.39-42.12-47.43-57.32c-18.95-15.14-41.98-24.06-66.33-33.5c-12.49-4.84-25.41-9.86-37.65-15.76
			c-11.94-5.76-23.72-12.66-35.11-19.35c-21.63-12.69-44.01-25.84-68.19-31.32c-23.17-5.27-47.6-3.32-73.48-1.25
			c-13.59,1.08-27.64,2.2-41.61,2.2c-13.97,0-28.02-1.12-41.61-2.2c-25.89-2.06-50.33-4.01-73.48,1.25
			c-24.17,5.49-46.56,18.63-68.2,31.32c-11.37,6.68-23.13,13.59-35.09,19.35c-12.25,5.9-25.16,10.91-37.65,15.76
			c-24.37,9.44-47.38,18.36-66.33,33.5c-19.05,15.2-32.83,35.67-47.43,57.33c-7.48,11.1-15.22,22.58-23.67,33.17
			c-8.39,10.49-17.81,20.53-26.94,30.22c-17.15,18.22-34.89,37.06-45.54,59.16c-10.46,21.7-14.04,46.11-17.81,71.97
			c-1.93,13.29-3.94,27.03-6.97,40.37c-2.92,12.84-7.01,25.78-10.95,38.3c-7.55,23.94-15.36,48.67-15.36,73.73
			c0,25.05,7.81,49.79,15.36,73.74c3.94,12.49,8.03,25.45,10.95,38.29c3.03,13.33,5.03,27.07,6.97,40.35
			c3.77,25.85,7.34,50.3,17.81,71.99c10.66,22.09,28.39,40.94,45.54,59.17c9.12,9.7,18.55,19.73,26.93,30.22
			c8.46,10.58,16.19,22.06,23.68,33.16c14.59,21.67,28.38,42.12,47.42,57.34c18.96,15.13,41.97,24.05,66.33,33.48
			c12.5,4.83,25.42,9.86,37.66,15.76c11.95,5.77,23.72,12.68,35.09,19.35c21.64,12.7,44.03,25.82,68.2,31.33
			c23.15,5.26,47.6,3.32,73.48,1.24C-97.62,769.6-83.56,768.48-69.6,768.48z"/>
		<path class="st264" d="M-135.39,785.41c-68.24,0-82.83-23.59-91.31-27.89c-4.87-2.48-10.44-3.18-15.35-5.54
			c-8.72-4.21-11.81-14.23-21.62-16.87c-43.03-11.55,10.39,6.42-72.77-26.97c-111.92-44.96-99.72-81.79-160.4-162.02
			c-16.55-21.87-38.35-37.06-48.6-63.52c-13.54-34.91-14.98-84.22-21.15-104.87c-1.66-5.56-5.09-10.26-7.79-15.3
			c-6.05-11.37-4.41-24.98-7.41-37.31c-7.75-31.97-14.34-8.66-11.59-79.36c0.53-13.69,7.92-25,11.8-37.87
			c29.84-99.08,19.81-69.72,16.39-100.21c-1.01-8.89,3.06-67.29,31.22-92.97c10.11-9.21,21.85-16.62,30.68-27.2
			c8.91-10.63,15.43-22.98,23.18-34.43c7.74-11.44,16.65-22.06,24.58-33.38c24.7-35.32,18.14-29.77,56.21-58.85
			c11.06-8.44,21.54-18.31,34.27-24.27c11.58-5.43,24.64-7.57,36.37-12.7c6.08-2.66,9.84-7.57,14.86-11.67
			c5.13-4.21,10.95-7.54,16.83-10.55c38.49-19.7,43.56-6.25,73.48-29.71c30.68-24.05,38.67-26.54,78.17-17.84
			c30.63,6.74,27.09,0.14,42.15,1.08c14.23,0.89,27.44,4.56,41.91,3.77c35.67-1.9,35.73-7.27,62.37-2.48
			c7.37,1.33,15.33-1.45,22.74-2.13c50.49-4.69,100.61,35.52,113.29,43.72c35,22.69,101.64,37.91,116.65,46.23
			c24.66,13.66,29.14,42.58,46.11,62.87c23.44,28.05,27.05,17.3,48.94,63.51c11.2,23.6,38.62,18.04,75.13,137.95
			c4.28,14.05,8.53,28.41,11.25,42.86c2.7,14.26-2.25,28.65,1.36,42.7c1.46,5.73,3.9,11.18,5.21,16.95
			c1.61,7.14,2.08,13.06,6.07,19.45c7.02,11.22,10.4,22.82,10.4,36.08c-0.01,24.01-2.52,50.63-14.04,72.2
			c-21.54,40.27-19.54,7.81-32.55,120.35c-8.01,69.3-70.3,92.75-93.1,131.06c-15.23,25.56-15.66,40.07-48.04,66.3
			c-43.37,35.14-46.8,30.49-104.88,54.57c-57.18,23.71-26.14,48.6-100.89,59.04c-61.88,8.65-5.01,10.09-124.01,5.97
			c-25.68-0.88-28.2-3.4-37.16-0.06C-109.7,781.02-120.97,785.41-135.39,785.41z M-211-218.92c-43.04,33.9-31.94,8.98-86.65,38.27
			c-14.59,7.81-18.8,23.74-46.94,32.97c-63.77,20.9-47.06,59.74-138.23,132.61c-30.87,24.69-60.08,80.59-57.01,109.9
			c3.42,32.66-0.98,45.93-3.04,59.63c-2.24,14.89-16.51,62-25.54,80.53c-25.9,53.18,6.96,39.84,13.71,118.52
			c0.03,0.4,12.73,82.04,12.73,82.04c11.05,67.7,32.46,70.13,55.49,99.57c50.36,64.35,55.5,113.4,123.61,145.68
			c6.88,3.25,84.13,35.67,91.54,37.45c13.15,3.15,26.86,4.53,39.19,10.41c28.58,13.66,21.55,31.69,67.37,39.19
			c43.05,7.05,49.32-0.74,72.14-9.53c25.84-9.99,55.85-3.3,82.76-1.3c46.95,3.52,24.32,6.47,82.84-3.15
			c39.49-6.46,37.2-23.51,59.23-42.04c17.99-15.12,75.88-29.6,103.69-47.6c56.7-36.7,54.83-59.66,73.28-87.11
			c15.1-22.45,63.22-57.17,79.49-88.45c6.56-12.6,7.05-21.14,13.91-76.94c9.9-80.59,19.43-44.46,36.7-103.08
			c14.65-49.66,8.09-51.58-8.05-76.07c-7.49-11.37-12.04-22.73-12.04-36.5c0.02-27.07,12.17-31.32-21.73-118.52
			c-27.54-70.88-43.47-55.86-60.67-96.79c-18.37-43.83-23.71-34.84-48.1-63.73c-18.44-21.84-21.44-49-43.52-60.44
			c-10.97-5.68-78.42-22.67-112.39-43.6c-15.93-9.85-64.46-46.28-104.49-44.02c-13.67,0.76-27.05,4.3-40.72,5.35
			c-58.64,4.5-45.32,8.66-123.37-3.15C-171.81-234.28-177.59-245.23-211-218.92z"/>
	</g>
	<polygon style="clip-path:url(#SVGID_3_);fill:#FF8429;" points="497.53,259.66 -56.08,259.66 324.92,-121.35 317.01,-129.26 
		-64,251.75 -64,-287.07 -75.2,-287.07 -75.2,251.75 -456.19,-129.26 -464.11,-121.35 -83.11,259.66 -636.72,259.66 -636.72,270.85 
		-83.11,270.85 -464.11,651.85 -456.19,659.78 -75.2,278.75 -75.2,817.59 -64,817.59 -64,278.75 317.01,659.78 324.92,651.85 
		-56.08,270.85 497.53,270.85 	"/>
</g>
</svg>
