<?xml version="1.0" encoding="utf-8"?>
<!-- Generator: Adobe Illustrator 24.2.3, SVG Export Plug-In . SVG Version: 6.00 Build 0)  -->
<svg version="1.1" id="Слой_1" xmlns="http://www.w3.org/2000/svg" xmlns:xlink="http://www.w3.org/1999/xlink" x="0px" y="0px"
	 viewBox="0 0 585 799" style="enable-background:new 0 0 585 799;" xml:space="preserve">
<style type="text/css">
	.st0{clip-path:url(#SVGID_2_);fill:#FDA157;}
	.st1{clip-path:url(#SVGID_2_);fill-rule:evenodd;clip-rule:evenodd;fill:#FF8429;}
	.st2{clip-path:url(#SVGID_2_);fill:#F35000;}
	.st3{clip-path:url(#SVGID_2_);fill:#F9B946;}
	.st4{fill:#FFFFFF;}
	.st5{fill:#FF6567;}
	.st6{fill:url(#SVGID_3_);}
	.st7{fill:#ADD8C3;}
	.st8{fill:none;stroke:#FFFFFF;stroke-miterlimit:10;}
	.st9{fill:#A2CBAB;}
	.st10{fill:#96CDA1;}
	.st11{opacity:0.76;}
	.st12{fill:#C4E9CD;}
	.st13{fill:url(#SVGID_4_);}
	.st14{fill:url(#SVGID_5_);}
	.st15{fill:#F6E6BE;}
	.st16{fill:url(#SVGID_6_);}
	.st17{fill:url(#SVGID_7_);}
	.st18{fill:url(#SVGID_8_);}
	.st19{fill:#E4EEC4;}
	.st20{fill:#EFFBD2;}
	.st21{fill:url(#SVGID_9_);}
	.st22{fill:url(#SVGID_10_);}
	.st23{fill:url(#SVGID_11_);}
	.st24{fill:url(#SVGID_12_);}
	.st25{fill:#FFE493;}
	.st26{clip-path:url(#SVGID_14_);fill:url(#SVGID_15_);}
	.st27{fill:#5B2A1E;}
	.st28{fill:#907673;}
	.st29{fill:url(#SVGID_16_);}
	.st30{fill:url(#SVGID_17_);}
	.st31{fill:url(#SVGID_18_);}
	.st32{fill:url(#SVGID_19_);}
	.st33{fill:#FE82C8;}
	.st34{opacity:0.62;clip-path:url(#SVGID_21_);fill:#FFFFFF;}
	.st35{opacity:0.75;clip-path:url(#SVGID_21_);fill:#FFFFFF;}
	.st36{opacity:0.41;clip-path:url(#SVGID_21_);fill:#FFFFFF;}
	.st37{clip-path:url(#SVGID_21_);fill:none;}
	.st38{clip-path:url(#SVGID_23_);}
	.st39{opacity:0.26;fill:#FFFFFF;}
	.st40{opacity:0.69;fill:#FFFFFF;}
	.st41{fill:none;}
	.st42{opacity:0.16;fill:#FFFFFF;}
	.st43{opacity:0.3;fill:#FFFFFF;}
	.st44{opacity:0.23;fill:#FFFFFF;}
	.st45{opacity:0.24;fill:#FFFFFF;}
	.st46{opacity:0.17;}
	.st47{opacity:0.05;fill:#E2E8E4;}
	.st48{clip-path:url(#SVGID_25_);}
	.st49{opacity:0.76;clip-path:url(#SVGID_25_);fill:#FFFFFF;}
	.st50{clip-path:url(#SVGID_25_);fill:url(#SVGID_26_);}
	.st51{clip-path:url(#SVGID_25_);fill:none;stroke:#FFFFFF;stroke-width:2;stroke-linecap:round;stroke-miterlimit:10;}
	.st52{clip-path:url(#SVGID_25_);fill:url(#SVGID_27_);}
	.st53{clip-path:url(#SVGID_25_);fill:url(#SVGID_28_);}
	.st54{clip-path:url(#SVGID_25_);fill:url(#SVGID_29_);}
	.st55{clip-path:url(#SVGID_25_);fill:url(#SVGID_30_);}
	.st56{clip-path:url(#SVGID_25_);fill:#FFFFFF;}
	.st57{clip-path:url(#SVGID_25_);fill:url(#SVGID_31_);}
	.st58{opacity:0.62;clip-path:url(#SVGID_33_);fill:#FFFFFF;}
	.st59{clip-path:url(#SVGID_33_);fill:#FFFFFF;}
	.st60{opacity:0.41;clip-path:url(#SVGID_33_);fill:#FFFFFF;}
	.st61{clip-path:url(#SVGID_33_);fill:none;}
	.st62{clip-path:url(#SVGID_35_);}
	.st63{fill:url(#SVGID_36_);}
	.st64{opacity:0.74;clip-path:url(#SVGID_38_);fill:url(#SVGID_39_);}
	.st65{fill:#E5E5E5;}
	.st66{fill:none;stroke:#4D4D4D;stroke-width:0.75;stroke-linecap:round;stroke-miterlimit:10;}
	.st67{fill:url(#SVGID_40_);}
	.st68{opacity:0.74;fill:url(#SVGID_41_);}
	.st69{opacity:0.74;fill:url(#SVGID_42_);}
	.st70{opacity:0.74;fill:url(#SVGID_43_);}
	.st71{opacity:0.74;fill:url(#SVGID_44_);}
	.st72{fill:url(#SVGID_45_);}
	.st73{opacity:0.66;}
	.st74{opacity:0.37;fill:#FFFFFF;}
	.st75{fill:url(#SVGID_46_);}
	.st76{fill:url(#SVGID_47_);}
	.st77{opacity:0.44;clip-path:url(#SVGID_49_);fill:#FFFFD9;}
	.st78{opacity:0.43;clip-path:url(#SVGID_51_);fill:#FFFFFF;}
	.st79{clip-path:url(#SVGID_51_);fill:none;stroke:#FFFFFF;stroke-miterlimit:10;}
	.st80{opacity:0.76;clip-path:url(#SVGID_51_);fill:#FFFFFF;}
	.st81{clip-path:url(#SVGID_51_);fill:#FFFFFF;}
	.st82{opacity:0.08;clip-path:url(#SVGID_51_);fill:#FFFFFF;}
	.st83{opacity:0.27;clip-path:url(#SVGID_51_);fill:#FFFFFF;}
	.st84{opacity:0.37;clip-path:url(#SVGID_51_);fill:#FFFFFF;}
	.st85{clip-path:url(#SVGID_51_);fill:none;}
	.st86{fill:url(#SVGID_52_);}
	.st87{opacity:0.62;clip-path:url(#SVGID_54_);fill:#FFFFFF;}
	.st88{clip-path:url(#SVGID_54_);fill:#FFFFFF;}
	.st89{opacity:0.41;clip-path:url(#SVGID_54_);fill:#FFFFFF;}
	.st90{clip-path:url(#SVGID_54_);fill:none;}
	.st91{clip-path:url(#SVGID_56_);}
	.st92{opacity:0.55;fill:url(#SVGID_57_);}
	.st93{fill:url(#SVGID_58_);}
	.st94{fill:url(#SVGID_59_);}
	.st95{opacity:0.28;}
	.st96{opacity:0.56;clip-path:url(#SVGID_61_);fill:#FFFFFF;}
	.st97{opacity:0.43;clip-path:url(#SVGID_63_);fill:#FFFFFF;}
	.st98{clip-path:url(#SVGID_63_);fill:none;stroke:#FFFFFF;stroke-miterlimit:10;}
	.st99{opacity:0.76;clip-path:url(#SVGID_63_);fill:#FFFFFF;}
	.st100{clip-path:url(#SVGID_63_);fill:#FFFFFF;}
	.st101{opacity:0.08;clip-path:url(#SVGID_63_);fill:#FFFFFF;}
	.st102{opacity:0.27;clip-path:url(#SVGID_63_);fill:#FFFFFF;}
	.st103{opacity:0.37;clip-path:url(#SVGID_63_);fill:#FFFFFF;}
	.st104{clip-path:url(#SVGID_63_);fill:none;}
	.st105{clip-path:url(#SVGID_65_);fill:none;}
	.st106{opacity:0.46;}
	.st107{opacity:0.86;fill:#FFFFFF;}
	.st108{opacity:0.4;}
	.st109{opacity:0.73;fill:#FFFFFF;}
	.st110{opacity:0.54;clip-path:url(#SVGID_67_);fill:#FFFFFF;}
	.st111{fill:#FF8A8A;}
	.st112{opacity:0.75;fill:#FFFFFF;}
	.st113{fill:#FFC181;}
	.st114{clip-path:url(#SVGID_69_);fill:#FFDFBD;}
	.st115{clip-path:url(#SVGID_69_);fill:#FF9D00;}
	.st116{clip-path:url(#SVGID_69_);fill:#FFF3DF;}
	.st117{clip-path:url(#SVGID_71_);fill:#FFBAE4;}
	.st118{opacity:0.8;clip-path:url(#SVGID_71_);fill:#FE82C8;}
	.st119{clip-path:url(#SVGID_71_);fill:#FE82C8;}
	.st120{opacity:0.79;clip-path:url(#SVGID_71_);fill:#FFBAE4;}
	.st121{fill:#FFFEEA;}
	.st122{fill:#58D196;}
	.st123{fill:#A6E5C3;}
	.st124{fill:#D2F2E1;}
	.st125{opacity:0.44;fill:#FFFFFF;}
	.st126{clip-path:url(#SVGID_73_);fill:#FFF9C1;}
	.st127{opacity:0.86;fill:#FFCCD5;}
	.st128{opacity:0.62;clip-path:url(#SVGID_75_);fill:#FFFFFF;}
	.st129{opacity:0.75;clip-path:url(#SVGID_75_);fill:#FFFFFF;}
	.st130{opacity:0.41;clip-path:url(#SVGID_75_);fill:#FFFFFF;}
	.st131{clip-path:url(#SVGID_75_);fill:none;}
	.st132{clip-path:url(#SVGID_77_);}
	.st133{opacity:0.44;clip-path:url(#SVGID_79_);fill:#FFFFFF;}
	.st134{opacity:0.43;clip-path:url(#SVGID_81_);fill:#FFFFFF;}
	.st135{clip-path:url(#SVGID_81_);fill:none;stroke:#FFFFFF;stroke-miterlimit:10;}
	.st136{opacity:0.76;clip-path:url(#SVGID_81_);fill:#FFFFFF;}
	.st137{clip-path:url(#SVGID_81_);fill:#FFFFFF;}
	.st138{opacity:0.08;clip-path:url(#SVGID_81_);fill:#FFFFFF;}
	.st139{opacity:0.27;clip-path:url(#SVGID_81_);fill:#FFFFFF;}
	.st140{opacity:0.37;clip-path:url(#SVGID_81_);fill:#FFFFFF;}
	.st141{clip-path:url(#SVGID_81_);fill:none;}
	.st142{opacity:0.54;clip-path:url(#SVGID_83_);fill:#FFFFFF;}
	.st143{opacity:0.62;fill:#FFFFFF;}
	.st144{opacity:0.41;fill:#FFFFFF;}
	.st145{opacity:0.43;fill:#FFFFFF;}
	.st146{opacity:0.76;fill:#FFFFFF;}
	.st147{opacity:0.08;fill:#FFFFFF;}
	.st148{opacity:0.27;fill:#FFFFFF;}
	.st149{opacity:0.54;fill:#FFFFFF;}
	.st150{clip-path:url(#SVGID_85_);fill:#FF6567;}
	.st151{clip-path:url(#SVGID_85_);fill:#FF8A8A;}
	.st152{clip-path:url(#SVGID_85_);fill:#FFC2C1;}
	.st153{clip-path:url(#SVGID_85_);fill:#FFFFFF;}
	.st154{clip-path:url(#SVGID_87_);fill:#E2E9FF;}
	.st155{clip-path:url(#SVGID_87_);fill:#EEF2FF;}
	.st156{opacity:0.54;clip-path:url(#SVGID_87_);fill:#EEF2FF;}
	.st157{opacity:0.54;clip-path:url(#SVGID_87_);fill:#8FAAF0;}
	.st158{clip-path:url(#SVGID_89_);}
	.st159{fill:#FF6B81;}
	.st160{clip-path:url(#SVGID_89_);fill:none;}
	.st161{fill:#FF1B6F;}
	.st162{clip-path:url(#SVGID_91_);fill:#FFDFBD;}
	.st163{clip-path:url(#SVGID_91_);fill:#FF9D00;}
	.st164{clip-path:url(#SVGID_91_);fill:#FFF3DF;}
	.st165{clip-path:url(#SVGID_93_);fill:#F0C6F4;}
	.st166{opacity:0.8;clip-path:url(#SVGID_93_);fill:#F8E3F8;}
	.st167{clip-path:url(#SVGID_93_);fill:#F8E3F8;}
	.st168{opacity:0.79;clip-path:url(#SVGID_93_);fill:#F0C6F4;}
	.st169{clip-path:url(#SVGID_95_);fill:#FFF9C1;}
	.st170{clip-path:url(#SVGID_97_);fill:#FFC5D6;}
	.st171{clip-path:url(#SVGID_97_);fill:#FF94B3;}
	.st172{clip-path:url(#SVGID_97_);fill:#FF6794;}
	.st173{clip-path:url(#SVGID_97_);fill:#FFFFFF;}
	.st174{clip-path:url(#SVGID_99_);fill:#698DE6;}
	.st175{clip-path:url(#SVGID_99_);fill:#8FAAF0;}
	.st176{opacity:0.54;clip-path:url(#SVGID_99_);fill:#8FAAF0;}
	.st177{clip-path:url(#SVGID_101_);}
	.st178{clip-path:url(#SVGID_101_);fill:none;}
	.st179{opacity:0.46;clip-path:url(#SVGID_103_);}
	.st180{clip-path:url(#SVGID_103_);fill:none;}
	.st181{fill:none;stroke:#FFFFFF;stroke-width:2;stroke-miterlimit:10;}
	.st182{opacity:0.45;fill:#FFFFFF;}
	.st183{opacity:0.8;fill:#FFFFFF;}
	.st184{opacity:0.79;fill:#FFFFFF;}
	.st185{fill:#F2C5AA;}
	.st186{fill:none;stroke:#FFFFFF;stroke-width:0.75;stroke-miterlimit:10;}
	.st187{fill:#FFFFFF;stroke:#FFFFFF;stroke-width:0.25;stroke-miterlimit:10;}
	.st188{fill:#D3C1B2;}
	.st189{fill:#FFC5D6;}
	.st190{clip-path:url(#SVGID_111_);fill:#F787A5;}
	.st191{clip-path:url(#SVGID_111_);fill:#FFE9F2;}
	.st192{clip-path:url(#SVGID_111_);fill:#D3CFB3;}
	.st193{clip-path:url(#SVGID_111_);fill:#FFDBE5;}
	.st194{clip-path:url(#SVGID_111_);}
	.st195{fill:#FFE9F2;}
	.st196{fill:#F787A5;}
	.st197{fill:#F2CCC1;}
	.st198{fill:#DF4E50;}
	.st199{clip-path:url(#SVGID_111_);fill:#FFC5D6;}
	.st200{fill:#FFDBE5;}
	.st201{fill:#FFB9C3;}
	.st202{fill:#FB91B5;}
	.st203{fill:#E3A180;}
	.st204{fill:#92693D;}
	.st205{fill:#FBBACC;}
	.st206{fill:#E6678D;}
	.st207{fill:#574435;}
	.st208{fill:#C9A47C;}
	.st209{fill:#641F1E;}
	.st210{fill:#F15E89;}
	.st211{fill:#E7005E;}
	.st212{fill:#DEB78A;}
	.st213{fill:#DFB78A;}
	.st214{fill:#FF6794;}
	.st215{fill:#D72264;}
	.st216{fill:#F7F7F7;}
	.st217{fill:#F2F2F2;}
	.st218{fill:#FFFBF0;}
	.st219{fill:#FFBFCF;}
	.st220{fill:#FF9DAE;}
	.st221{fill:#FFC2C1;}
	.st222{fill:#FFCCD5;}
	.st223{fill:#B49E8F;}
	.st224{fill:#FFE2EA;}
	.st225{fill:#A3C5DC;}
	.st226{fill:#DA956B;}
	.st227{fill:#BDA595;}
	.st228{fill:#583B34;}
	.st229{fill:#63443C;}
	.st230{fill:#B2D0E5;}
	.st231{fill:#FCFCFB;}
	.st232{fill:#D0ACA1;}
	.st233{fill:#A2C4DB;}
	.st234{fill:#E1D0C8;}
	.st235{fill:#9C7972;}
	.st236{fill:#77573F;}
	.st237{fill:#F3769C;}
	.st238{fill:#FBFBF9;}
	.st239{fill:#F8C4DC;}
	.st240{fill:#E4BAB5;}
	.st241{clip-path:url(#SVGID_113_);fill:#F787A5;}
	.st242{clip-path:url(#SVGID_113_);fill:#FFE9F2;}
	.st243{clip-path:url(#SVGID_113_);fill:#D3CFB3;}
	.st244{clip-path:url(#SVGID_113_);fill:#FFDBE5;}
	.st245{clip-path:url(#SVGID_113_);}
	.st246{clip-path:url(#SVGID_113_);fill:#FFC5D6;}
	.st247{fill:#00C377;}
	.st248{fill:#88E5AF;}
	.st249{fill:#00B45A;}
	.st250{fill:#7FDAAA;}
	.st251{fill:#F2BC3A;}
	.st252{fill:#B99F65;}
	.st253{fill:#98D284;}
	.st254{fill:#3C3724;}
	.st255{fill:#D6BEA2;}
	.st256{fill:#9C8274;}
	.st257{fill:#587147;}
	.st258{fill:#E7D6BE;}
	.st259{fill:#5CC689;}
	.st260{clip-path:url(#SVGID_115_);fill:#A6E5C3;}
	.st261{clip-path:url(#SVGID_115_);fill:#FFFFFF;}
	.st262{clip-path:url(#SVGID_115_);fill:#58D196;}
	.st263{fill:#F35000;}
	.st264{fill:#FF8429;}
	.st265{fill:#FFAC33;}
	.st266{fill:#F58800;}
	.st267{fill:#EF6406;}
	.st268{fill:#FF9C00;}
	.st269{fill:#130077;}
	.st270{fill:#FFB58D;}
	.st271{opacity:0.3;}
	.st272{fill:#FF7300;}
	.st273{fill:#6E0000;}
	.st274{fill-rule:evenodd;clip-rule:evenodd;fill:#FF9C00;}
	.st275{fill-rule:evenodd;clip-rule:evenodd;fill:url(#SVGID_116_);}
	.st276{opacity:0.3;fill-rule:evenodd;clip-rule:evenodd;fill:#A4002C;}
	.st277{fill-rule:evenodd;clip-rule:evenodd;fill:url(#SVGID_117_);}
	.st278{fill-rule:evenodd;clip-rule:evenodd;fill:url(#SVGID_118_);}
	.st279{opacity:0.5;fill-rule:evenodd;clip-rule:evenodd;fill:url(#SVGID_119_);}
	.st280{fill-rule:evenodd;clip-rule:evenodd;fill:#FFC485;}
	.st281{fill-rule:evenodd;clip-rule:evenodd;fill:url(#SVGID_120_);}
	.st282{fill-rule:evenodd;clip-rule:evenodd;fill:url(#SVGID_121_);}
	.st283{fill-rule:evenodd;clip-rule:evenodd;fill:url(#SVGID_122_);}
	.st284{opacity:0.5;fill-rule:evenodd;clip-rule:evenodd;fill:url(#SVGID_123_);}
	.st285{fill-rule:evenodd;clip-rule:evenodd;fill:#FDA157;}
	.st286{opacity:0.5;fill-rule:evenodd;clip-rule:evenodd;fill:#FDA157;}
	.st287{fill-rule:evenodd;clip-rule:evenodd;fill:#FF8429;}
	.st288{fill-rule:evenodd;clip-rule:evenodd;fill:#FFAC33;}
	.st289{opacity:0.62;fill-rule:evenodd;clip-rule:evenodd;fill:#C8002A;}
	.st290{opacity:0.5;fill-rule:evenodd;clip-rule:evenodd;fill:#FF8429;}
	.st291{opacity:0.5;fill-rule:evenodd;clip-rule:evenodd;fill:#8F5472;}
	.st292{opacity:0.3;fill-rule:evenodd;clip-rule:evenodd;fill:url(#SVGID_124_);}
	.st293{opacity:0.5;fill-rule:evenodd;clip-rule:evenodd;fill:url(#SVGID_125_);}
	.st294{opacity:0.3;fill-rule:evenodd;clip-rule:evenodd;fill:url(#SVGID_126_);}
	.st295{opacity:0.3;fill-rule:evenodd;clip-rule:evenodd;fill:url(#SVGID_127_);}
	.st296{clip-path:url(#SVGID_129_);}
	.st297{clip-path:url(#SVGID_129_);fill:#FF8429;}
	.st298{fill:#FDA157;}
	.st299{clip-path:url(#SVGID_131_);}
	.st300{clip-path:url(#SVGID_133_);}
	.st301{fill:#F9B946;}
	.st302{clip-path:url(#SVGID_135_);}
	.st303{clip-path:url(#SVGID_135_);fill:#FF8429;}
	.st304{fill-rule:evenodd;clip-rule:evenodd;fill:url(#SVGID_136_);}
	.st305{fill-rule:evenodd;clip-rule:evenodd;fill:url(#SVGID_137_);}
	.st306{fill-rule:evenodd;clip-rule:evenodd;fill:url(#SVGID_138_);}
	.st307{opacity:0.5;fill-rule:evenodd;clip-rule:evenodd;fill:url(#SVGID_139_);}
	.st308{fill-rule:evenodd;clip-rule:evenodd;fill:url(#SVGID_140_);}
	.st309{fill-rule:evenodd;clip-rule:evenodd;fill:url(#SVGID_141_);}
	.st310{fill-rule:evenodd;clip-rule:evenodd;fill:url(#SVGID_142_);}
	.st311{opacity:0.5;fill-rule:evenodd;clip-rule:evenodd;fill:url(#SVGID_143_);}
	.st312{opacity:0.3;fill-rule:evenodd;clip-rule:evenodd;fill:url(#SVGID_144_);}
	.st313{opacity:0.5;fill-rule:evenodd;clip-rule:evenodd;fill:url(#SVGID_145_);}
	.st314{opacity:0.3;fill-rule:evenodd;clip-rule:evenodd;fill:url(#SVGID_146_);}
	.st315{opacity:0.3;fill-rule:evenodd;clip-rule:evenodd;fill:url(#SVGID_147_);}
</style>
<g>
	<path class="st267" d="M525.8,745.21c0,28.05-107.89,50.79-240.97,50.79S43.86,773.26,43.86,745.21s107.89-50.79,240.97-50.79"/>
</g>
<g>
	<path class="st268" d="M525.55,383.76L435.57,584.1c-9.32,20.76-27.25,36.44-49.11,42.75c-70.5,20.29-137.4,19.81-200.7-1.49
		l-0.05-0.01c-32.85-11.05-64.72-27.69-95.62-49.94c-18.46-13.3-30.05-34.11-31.83-56.8L41.06,299.68L525.55,383.76z"/>
	<path class="st269" d="M285.82,642.46c-34.47,0-67.98-5.44-100.31-16.31c-32.82-11.03-65.06-27.87-95.89-50.06
		c-18.63-13.43-30.36-34.35-32.17-57.4L40.16,298.69l1.04,0.18l485.53,84.26l-0.43,0.97l-89.97,200.34
		c-9.47,21.09-27.56,36.84-49.63,43.21C352.36,637.52,318.66,642.46,285.82,642.46z M41.96,300.67l17.13,217.88
		c1.77,22.56,13.25,43.05,31.49,56.2c30.69,22.09,62.79,38.86,95.4,49.83c62.86,21.14,130.22,21.64,200.26,1.48
		c21.6-6.23,39.31-21.65,48.59-42.3l89.54-199.37L41.96,300.67z"/>
</g>
<g>
	<path class="st270" d="M241.16,638.56c-18.75-2.67-37.22-7.07-55.4-13.19l-0.05-0.01c-32.85-11.05-64.72-27.69-95.62-49.94
		c-18.46-13.3-30.05-34.11-31.83-56.8L41.06,299.68l17.72,3.07L75.99,521.7c1.78,22.68,13.38,43.5,31.83,56.8
		c30.9,22.24,62.78,38.89,95.62,49.94l0.05,0.01C215.9,632.63,228.46,636,241.16,638.56z"/>
</g>
<g>
	<g class="st271">
		<path class="st263" d="M277.67,641.61c30.25-0.72,61.22-5.63,92.93-14.75c21.86-6.31,39.79-21.99,49.11-42.75l89.97-200.34
			l-247.42-42.94l-59.51,31.15l133.37,69.33c20.73,10.78,30.3,35.2,22.4,57.19l-26.28,73.2c0,0-34.54,76.51-146.46,53.68
			c31.87,10.72,64.66,16.16,98.36,16.33C281.97,641.69,279.82,641.66,277.67,641.61z M394.65,574.49l55.84-129.92
			c1.21-2.82,4.47-4.12,7.29-2.91c2.82,1.21,4.12,4.48,2.92,7.3l-55.84,129.91c-1.03,2.41-3.58,3.71-6.05,3.28
			c-0.42-0.07-0.84-0.19-1.26-0.38C394.74,580.57,393.44,577.3,394.65,574.49z M330.8,580.67l45.75-127.37
			c1.03-2.88,4.21-4.38,7.1-3.34c2.88,1.03,4.39,4.23,3.34,7.1l-45.74,127.38c-0.93,2.58-3.57,4.05-6.18,3.6
			c-0.31-0.05-0.62-0.14-0.92-0.24C331.26,586.75,329.77,583.57,330.8,580.67z"/>
	</g>
</g>
<g>
	<path class="st268" d="M286.17,647.16c-70.4,0-137.12-22.46-199.32-67.23c-19.77-14.25-32.2-36.44-34.12-60.87L35.52,300.12
		c-0.24-3.06,2.04-5.73,5.1-5.97c3.05-0.22,5.73,2.04,5.97,5.1l17.21,218.94c1.66,21.17,12.43,40.39,29.54,52.73
		c88.58,63.77,186.69,80.8,291.58,50.6c20.26-5.85,36.88-20.31,45.58-39.69l89.97-200.34c1.26-2.8,4.54-4.05,7.34-2.79
		c2.8,1.26,4.05,4.54,2.79,7.34l-89.97,200.34c-10.04,22.36-29.23,39.06-52.64,45.81C353.32,642.18,319.33,647.16,286.17,647.16z"/>
</g>
<g>
	<path class="st268" d="M588.52,295.56c-21.44,123.54-153.32,116.76-312.67,89.1c-77.39-13.43-147.03-29.32-195.72-56.26
		c-0.02,0-0.04-0.02-0.06-0.04c-51.54-28.52-79.61-69.42-68.59-132.94C21.33,138.68,54.2,90.7,101.11,56.59
		C163.44,11.26,250.59-9.55,341.53,6.23c70.37,12.21,131.23,44.3,175.27,87.7c3.03,2.97,5.96,6.01,8.83,9.09
		c3.47,3.74,6.82,7.56,10.05,11.44c18.73,22.52,33.26,47.35,42.81,73.57c0,0,0,0,0.01,0.02
		C590.95,222.25,594.9,258.81,588.52,295.56z"/>
</g>
<g>
	<path class="st272" d="M588.52,295.56c-21.44,123.54-153.32,116.76-312.67,89.1C116.5,357.01-9.95,318.96,11.49,195.42
		C21.33,138.68,54.2,90.7,101.11,56.59c0.02,0,0.02,0,0.02,0c-56.21,94.27-2.76,120.53,103.09,114.29
		c42.12-0.55,79.65,35.99,117.79,72.65c31.16,29.94,79.6,33.74,114.32,8.02c10.31-7.63,20.42-17.21,30.3-28.68
		c43.37-27.11,99.53,10.73,111.85-34.83c0,0,0,0,0.01,0.02C590.95,222.25,594.9,258.81,588.52,295.56z"/>
</g>
<g>
	<g class="st271">
		<path class="st263" d="M572.65,295.56c6.38-36.75,2.43-73.31-10.03-107.51c-0.01-0.02-0.01-0.02-0.01-0.02
			c-3.81-10.98-9.45-24.18-17.96-38.18c-6.3-10.36-12.87-19.03-18.94-26.12c-6.38,218.58-243.59,291.32-445.62,204.63
			c-0.02,0-0.02,0-0.03-0.01c0,0,0.03,0.02,0.09,0.05c48.69,26.94,118.33,42.83,195.72,56.26c51.95,9.02,100.98,15.81,144.22,16.59
			C501.18,399.76,559.07,373.8,572.65,295.56z"/>
	</g>
</g>
<g>
	<g>
		<g>
			<path class="st270" d="M108.06,531.69c-2.48-0.43-4.43-2.51-4.59-5.13l-8.8-141.14c-0.19-3.06,2.14-5.7,5.2-5.89
				c3.06-0.19,5.7,2.14,5.89,5.2l8.8,141.14c0.19,3.06-2.14,5.7-5.2,5.89C108.91,531.79,108.48,531.77,108.06,531.69z"/>
		</g>
	</g>
	<g>
		<g>
			<path class="st270" d="M166.07,558.7c-2.61-0.45-4.6-2.73-4.6-5.47l-0.15-135.34c0-3.07,2.48-5.56,5.55-5.56
				c3.07,0,5.56,2.48,5.56,5.55l0.15,135.34c0,3.07-2.48,5.56-5.55,5.56C166.71,558.79,166.38,558.76,166.07,558.7z"/>
		</g>
	</g>
	<g>
		<g>
			<path class="st270" d="M223.12,577.97c-2.76-0.48-4.77-2.97-4.59-5.83l8.37-131.52c0.19-3.06,2.83-5.39,5.9-5.19
				c3.05,0.2,5.39,2.83,5.19,5.9l-8.37,131.52c-0.19,3.06-2.83,5.39-5.9,5.19C223.52,578.03,223.32,578.01,223.12,577.97z"/>
		</g>
	</g>
	<g>
		<g>
			<path class="st270" d="M274.88,586.96c-0.2-0.03-0.4-0.08-0.59-0.14c-2.95-0.85-4.65-3.93-3.8-6.87l36.43-126.65
				c0.85-2.95,3.93-4.64,6.87-3.8c2.95,0.85,4.65,3.93,3.8,6.87l-36.43,126.65C280.37,585.77,277.64,587.43,274.88,586.96z"/>
		</g>
	</g>
</g>
<g>
	<path class="st263" d="M224.72,201.25l-6.5,20.93c-1.95,6.31-6.37,11.57-12.26,14.58l-10.96,5.59c-5.16,2.63-11.2,2.92-16.61,0.82
		l-22.78-8.88c-6.69-2.59-11.22-8.86-11.6-16.03l-0.16-2.91l20.46,7.98c5.38,2.11,11.43,1.81,16.59-0.83l10.96-5.59
		c5.89-3.01,10.31-8.26,12.28-14.57l6.48-20.93c1.1-3.58,1.27-7.32,0.58-10.87l8.34,8.73C225.14,185.12,227.11,193.53,224.72,201.25
		z"/>
	<path class="st263" d="M185.79,245.35c-2.6,0-5.2-0.48-7.68-1.44l-22.78-8.88c-6.96-2.7-11.71-9.27-12.11-16.73l-0.22-4.14
		l21.6,8.43c5.17,2.03,10.98,1.74,15.94-0.79l10.96-5.59c5.66-2.89,9.99-8.03,11.88-14.1l6.48-20.93c1.04-3.38,1.24-7,0.56-10.48
		l-0.51-2.65l10.21,10.68c5.78,6.05,7.83,14.77,5.36,22.77v0l-6.5,20.93c-2,6.48-6.61,11.96-12.66,15.05l-10.96,5.59
		C192.38,244.58,189.09,245.35,185.79,245.35z M144.72,216.53l0.09,1.68c0.37,6.84,4.72,12.86,11.1,15.33l22.78,8.88
		c5.2,2.02,11.02,1.73,15.96-0.79l10.96-5.59c5.66-2.89,9.99-8.03,11.86-14.1l6.5-20.93c2.3-7.44,0.39-15.57-4.99-21.2l-6.65-6.96
		c0.25,2.96-0.07,5.95-0.94,8.78l-6.48,20.93c-2.02,6.48-6.64,11.96-12.67,15.05l-10.96,5.59c-5.37,2.74-11.65,3.05-17.24,0.86
		L144.72,216.53z"/>
</g>
<g>
	<path class="st268" d="M210.62,181.41l-6.48,20.93c-1.97,6.31-6.39,11.57-12.28,14.57l-10.96,5.59
		c-5.16,2.63-11.21,2.94-16.59,0.83l-22.8-8.89c-6.02-2.33-10.3-7.65-11.36-13.92l18.59,7.24c5.4,2.11,11.45,1.81,16.61-0.82
		l10.96-5.59c5.89-3.01,10.31-8.26,12.26-14.56l6.49-20.94c2.4-7.72,0.42-16.13-5.16-21.97l-9.87-10.33
		c1.06,0.65,2.07,1.45,2.97,2.4l22.45,23.5C211.04,165.28,213.01,173.69,210.62,181.41z"/>
</g>
<g>
	<path class="st270" d="M140.64,178.83l1.52,27.89c0.18,3.35,1.27,6.5,3.06,9.17l-3.71-1.45c-6.69-2.59-11.22-8.86-11.61-16.01
		l-1.52-27.89c-0.49-8.98,3.97-17.51,11.64-22.22l24.03-14.81c6.1-3.76,13.99-2.74,18.94,2.43l3.62,3.8
		c-3.48-0.56-7.14,0.11-10.31,2.06l-24.03,14.81C144.61,161.34,140.15,169.86,140.64,178.83z"/>
</g>
<g>
	<path class="st263" d="M310.84,83.52l-18.07,12.53c-6.28,4.35-9.05,12.23-6.89,19.56l6.8,23.05c2.15,7.29,7.78,13.03,15.02,15.32
		l22.42,7.09c8.48,2.68,17.62-1.4,21.28-9.51l10.7-23.71c3.34-7.39,1.59-16.09-4.35-21.62l-22.48-20.94
		C328.55,79.02,318.38,78.29,310.84,83.52z"/>
	<path class="st263" d="M335.41,162.68c-1.84,0-3.7-0.28-5.53-0.86l-22.42-7.09c-7.51-2.38-13.32-8.3-15.55-15.85l-6.8-23.05
		c-2.26-7.67,0.63-15.88,7.2-20.44l18.07-12.53c7.79-5.4,18.48-4.63,25.41,1.83l22.48,20.94c6.19,5.77,8.01,14.82,4.53,22.53
		l-10.7,23.71C349.09,158.6,342.44,162.68,335.41,162.68z M311.29,84.17L293.22,96.7c-6.01,4.16-8.65,11.67-6.58,18.68l6.8,23.05
		c2.08,7.04,7.5,12.57,14.5,14.79l22.42,7.09c8.09,2.55,16.82-1.34,20.31-9.08l10.7-23.71c3.2-7.09,1.52-15.41-4.17-20.71
		l-22.48-20.94C328.33,79.9,318.48,79.19,311.29,84.17L311.29,84.17z"/>
</g>
<g>
	<path class="st272" d="M377.4,145.9l-10.7,23.71c-3.65,8.11-12.8,12.2-21.27,9.52l-22.42-7.1c-7.24-2.29-12.88-8.03-15.03-15.32
		l-0.87-2.95c0.2,0.08,0.39,0.15,0.59,0.22l22.42,7.1c8.48,2.68,17.62-1.4,21.27-9.52l10.7-23.71c1.86-4.14,2.14-8.7,0.98-12.86
		l9.98,9.3C378.99,129.81,380.73,138.51,377.4,145.9z"/>
</g>
<g>
	<path class="st270" d="M339.15,88.91c-5.57-1.71-11.77-0.87-16.81,2.62l-18.07,12.52c-6.28,4.35-9.05,12.23-6.89,19.57l6.79,23.04
		c0.8,2.72,2.08,5.19,3.74,7.38l-0.21-0.07c-7.24-2.29-12.88-8.03-15.03-15.32l-6.79-23.05c-2.16-7.32,0.61-15.2,6.89-19.55
		l18.08-12.54c7.54-5.22,17.71-4.48,24.42,1.77L339.15,88.91z"/>
</g>
<g>
	<path class="st272" d="M466.99,175.97l-14.36,26.37c-2.39,4.39-2.6,9.64-0.56,14.2l15.91,35.61c2.18,4.87,6.63,8.34,11.89,9.25
		l27.07,4.7c5.2,0.9,10.51-0.81,14.2-4.59l8.8-9c4.21-4.3,5.65-10.6,3.73-16.31l-18.27-54.36c-1.87-5.58-6.65-9.68-12.45-10.68
		l-19.15-3.32C477.04,166.67,470.28,169.94,466.99,175.97z"/>
	<path class="st273" d="M509.69,267.13c-0.96,0-1.92-0.08-2.88-0.25l-27.07-4.7c-5.53-0.96-10.19-4.59-12.48-9.71l-15.91-35.61
		c-2.12-4.76-1.91-10.33,0.59-14.9l14.36-26.37c3.45-6.33,10.54-9.77,17.65-8.53l19.15,3.32c6.09,1.06,11.1,5.35,13.07,11.21
		l18.27,54.35c2.02,6.02,0.52,12.58-3.92,17.12l-8.8,9C518.52,265.33,514.18,267.13,509.69,267.13z M467.69,176.35l-14.36,26.37
		c-2.26,4.14-2.45,9.19-0.53,13.5l15.91,35.61c2.07,4.64,6.3,7.93,11.3,8.79l27.07,4.7c4.95,0.85,9.99-0.77,13.5-4.36l8.8-9
		c4.02-4.11,5.38-10.05,3.55-15.5l-18.27-54.35c-1.78-5.31-6.32-9.2-11.83-10.16l-19.15-3.32
		C477.23,167.53,470.82,170.62,467.69,176.35L467.69,176.35z"/>
</g>
<g>
	<path class="st270" d="M518.78,191.91c-2.36-4.03-6.39-6.89-11.1-7.71l-19.16-3.32c-6.77-1.18-13.52,2.1-16.81,8.13l-14.35,26.36
		c-1.47,2.69-2.12,5.71-1.91,8.69l-3.37-7.53c-2.04-4.56-1.84-9.81,0.55-14.19L467,175.98c3.29-6.03,10.04-9.31,16.81-8.13
		l19.14,3.32c5.8,1.01,10.58,5.11,12.45,10.68L518.78,191.91z"/>
</g>
<g>
	<path class="st263" d="M171.68,229.47c-3.08,0-6.17-0.57-9.1-1.71l-22.79-8.88c-8.4-3.27-14.14-11.2-14.63-20.2l-1.51-27.89
		c-0.58-10.73,4.74-20.89,13.88-26.53l24.03-14.81c0,0,0,0,0,0c7.96-4.91,18.43-3.56,24.89,3.2l22.46,23.49
		c6.77,7.09,9.18,17.31,6.28,26.67l-6.49,20.94c-2.32,7.49-7.66,13.83-14.65,17.4l-10.96,5.59
		C179.51,228.55,175.6,229.47,171.68,229.47z M166.55,137.56l-24.03,14.81c-6.17,3.81-9.76,10.67-9.37,17.9l1.51,27.89
		c0.29,5.28,3.65,9.93,8.58,11.85l22.79,8.88c4.13,1.6,8.76,1.37,12.71-0.64l10.96-5.59c4.71-2.4,8.31-6.68,9.88-11.73l6.49-20.93
		c1.88-6.06,0.32-12.68-4.06-17.27l-22.46-23.49C176.18,135.7,170.71,134.99,166.55,137.56L166.55,137.56z"/>
</g>
<g>
	<path class="st263" d="M335.41,166.65c-2.23,0-4.5-0.34-6.72-1.04l-22.41-7.09c-8.77-2.77-15.55-9.69-18.16-18.51l-6.8-23.05
		c-2.75-9.31,0.77-19.29,8.75-24.82l18.07-12.53c0,0,0,0,0,0c9.31-6.45,22.09-5.53,30.38,2.19l22.48,20.94
		c7.43,6.93,9.62,17.8,5.44,27.07l-10.7,23.71C352.05,161.69,343.97,166.65,335.41,166.65z M313.55,87.43l-18.07,12.53
		c-4.6,3.19-6.62,8.93-5.04,14.3l6.8,23.05c1.7,5.78,6.15,10.31,11.89,12.13l22.41,7.09c6.17,1.95,12.84-1.02,15.5-6.93l10.7-23.71
		c2.5-5.54,1.19-12.04-3.25-16.18l-22.48-20.94C326.98,84.07,319.21,83.51,313.55,87.43L313.55,87.43z"/>
</g>
<g>
	<path class="st268" d="M509.69,271.1c-1.18,0-2.37-0.1-3.56-0.31l-27.07-4.7c-6.83-1.18-12.6-5.67-15.42-12l-15.91-35.61
		c-2.63-5.88-2.36-12.77,0.72-18.42l14.36-26.37l0,0c4.26-7.83,13.03-12.06,21.81-10.54l19.15,3.32
		c7.53,1.31,13.72,6.62,16.15,13.86l18.27,54.35c2.5,7.44,0.64,15.54-4.84,21.16l-8.8,9C520.61,268.88,515.24,271.1,509.69,271.1z
		 M471.18,178.25l-14.36,26.37c-1.67,3.06-1.82,6.8-0.39,9.98l15.91,35.61c1.53,3.43,4.66,5.86,8.36,6.5l27.07,4.7
		c3.65,0.63,7.38-0.57,9.98-3.22l8.8-9c2.97-3.04,3.98-7.43,2.62-11.46l-18.27-54.35c-1.32-3.92-4.67-6.8-8.75-7.51l-19.15-3.32
		C478.24,171.7,473.49,174.01,471.18,178.25L471.18,178.25z"/>
</g>
<g>
	
		<ellipse transform="matrix(0.171 -0.9853 0.9853 0.171 -175.168 243.8504)" class="st263" cx="57.32" cy="226.02" rx="20.54" ry="13.09"/>
</g>
</svg>
