<svg version="1.1" id="Слой_1" xmlns="http://www.w3.org/2000/svg" x="0" y="0" viewBox="0 0 585 432" xml:space="preserve"><style>.st339{fill:#83d5fb}.st340{fill:#00abf0}.st348{fill:#0068a8}</style><path class="st340" d="M128.45 5.27h56.3c13.34 1.91 26.06 5.36 36.14 15.03 2.82 2.71 6.88 5.07 4.54 10.16-4.71 5.49-8.25 11.45-9.07 18.92-.6 5.5-3.06 10.58-6.28 15.01-3.1 4.26-3.99 8.49-2.18 13.36-.26 1.79-.57 3.58-.57 5.4 3.58 15.7 5.07 31.68 6.45 47.67 2.68 12.37 3.97 24.87 3.45 37.53-.21 5.09 1.26 9.87 2.66 14.67.22 1.65-.07 3.26-.32 4.88 3.17 30.53 8.68 60.62 16.65 90.26 3.92 18.04 9.22 35.72 13.97 53.55 4.13 15.53 8.44 31 12.97 46.42 1.93 6.57 1.01 13.83 4.91 19.9.91 1.63.77 3.37-.18 4.79-6.25 9.37-12.64 18.65-20.52 26.78-1.52 1.56-3.42 2.62-5.58 3.14-1.58 0-3.2.29-4.59-.8-5.24-8.38-4.14-18.08-5.38-27.22-2.4-17.59-4.21-35.26-8.91-52.46 1.09-4.39.29-8.38-1.05-12.79-4.88-16.1-9.36-32.33-13.77-48.57.61-6.09-4.26-9.99-6.15-15.09-2.41-6.5-5.56-12.52-3.39-20 1.31-4.52-1.03-8.98-4.02-12.61-11.64-14.12-27.33-21.54-44.52-26.24-5.47-1.5-9.61 1.53-13.48 5.12-13.21 12.25-22.63 27.3-31.39 42.75-17.73 31.27-37.64 61.3-53.56 93.61-1.78 3.62-3.97 7.09-7.32 9.6-6.44 2.43-6.48 9.25-9.26 14.07-1.79 3.11-2.71 6.54-6.86 5.1-4.41-1.53-3.14-5.15-1.88-8.43 5.54-14.47 12.22-28.47 17.88-42.89 4.11-6.21 6.49-13.2 8.45-20.24 7.42-26.59 17.19-52.18 30.96-76.21 3.36-5.86 7.98-10.7 11.59-16.3 1.44-1.55 1.72-3.68 2.69-5.46 6.06-5.66 10.97-12.66 18.82-16.3.91-.42 1.07-1.52 1.15-2.47-.07-1.32-.65-2.52-1.97-2.49-9.91.21-20.23-.8-27.28 8.58-.58.77-1.64.95-2.51 1.35-8.19 2.78-16.7 4.48-24.74 7.74-2.65 1.07-5.6 1.86-7.92-.99-2.5-4.79 1.25-7.68 3.58-10.76C65.82 190.66 75.31 179.5 85 168.5c2.53-2.87 4.29-5.78 3.09-9.74-4.57-14.32-8.85-28.7-9.46-43.86-3.17-13.44-4.56-26.98-2.88-40.79 2.24-18.4 8.16-35.48 19.02-50.5 8.17-11.28 19.85-17.02 33.68-18.34z"/><path class="st348" d="M532.32 22.54c7.57 7.85 14.86 20.71 16.26 22.95 7.9 12.63 13.11 26.42 17.52 40.55 1.83 5.32 3.66 10.65 5.48 15.97-.67 7.55 2.12 14.4 4.32 21.38.49 2.96.99 5.92 1.48 8.88-.59 7.83 1.92 15.23 3.13 22.82 4.41 25.08 6.41 50.27 2.1 75.55-1.03 6.05-3.57 11.87-5.69 17.7-1.85 5.07-6.65 5.26-10.86 5.2-4.45-.07-7.38 1.19-8.7 5.53-5.48-2.25-10.94-4.02-16.98-4.87-9.56-1.34-17.74-6.96-26.07-11.62-3.34-1.87-2.72-4.99-.94-8.14 2.18-3.85 4.82-7.51 5.97-11.89-4.98 15.08-13.36 21.2-28.78 21.35-5.77.06-11.52-.24-17.28-.27-10.4-.04-20.28.24-28.95 7.69-4.45 3.82-10.94 4.8-16.86 5.88-6.01 1.09-7.95-.87-7.51-6.84.34-4.72 1.45-8.48 6.13-11.26 6.28-3.73 9.15-10.07 9.67-17.37.43-6.02 1.08-12.02 1.7-18.02-2.28-20.89 2.12-40.45 11.68-59a36.79 36.79 0 001.7-4.29c12.27-10.27 8.71-24.08 8.22-37.16-.1-2.77-2.11-4.61-4.88-3.89-12.7 3.29-19.56-6.12-26.87-13.01-14.3-13.49-23.78-29.9-25.57-50.01-.13-1.44-1.1-2.64-1.67-3.96-.15-9.98 4.89-15.92 14.11-19.26 7.21-2.61 14.25-5.6 21.97-6.33 5.26.56 10.52 1.5 15.76-.17.47-.43.93-.88 1.38-1.34 12.27-1.89 55.49-7.14 79.03 17.25z"/><path class="st340" d="M347.87 431.8c-3.7-6.29-2.38-11.17 2.94-15.13 6.7-5 14.79-7.63 20.95-13.68 5.26-5.17 7.71-10.65 7.24-17.84-.49-7.57.54-14.82 5.27-21.16 1.46-1.95 2.95-3.53 5.37-4.49 8.96-3.55 10-7.22 4.63-15.1-.54-.79-1.18-1.51-1.66-2.36-1.45-3.86 1.89-5.73 3.87-7.37 15.63-13.03 29.75-27.71 45.16-40.95 3.02-1.8 4.98-5.15 8.68-5.95.82-.93 1.64-1.86 2.45-2.8-.1.09-.27.12-.34.21-3.78 3.01-7.66 5.72-11.18 8.92-13.77 12.07-27 24.73-40.42 37.17-1.98 1.84-4.03 3.67-7.1 3.01-3.96-3.66-8.8-6.47-11.48-11.43-.95-3.28 1.64-4.66 3.48-6.42 12.04-11.53 25.16-21.87 37.25-33.35 2.59-2.46 5.3-4.79 7.48-7.63 6.46-6.43 13.3-12.45 20.2-18.13-.13.11-.1.02-.2.12-7.57 6.29-14.95 12.59-21.59 19.7-15.9 12.44-31.22 25.52-45.43 39.87-2.29 2.31-4.76 4.55-8.36 4.59-2.48-.68-4.96-1.35-6.78-3.34-1.45-1.67-3.2-2.76-5.49-2.67-5.32.2-7.67-2.65-8.03-7.66.81-2.04 1.45-4.17 2.34-6.2 2.44-8.39 6.86-15.02 15.13-18.95 3.63-1.73 5.71-5.68 8.94-8.24 3.84-3.03 7.68-5.49 12.62-6.43 6.96-1.32 9.92-7.21 12.8-12.7 4.68-8.93 9.23-17.68 18.02-23.64 5-3.39 5.58-9.5 2.68-15.59-1.34-2.81-3.13-5.42-3.23-8.67-.17-5.4 1.52-9.41 7.65-10.04 4.92-.06 5.95 4.36 8.35 7.21.01 11.65-.39 23.41-8.41 32.75-4.25 4.95-9.27 9.02-7.65 16.88 9-1.3 18.04-4.37 25.74-10.86 1.43-1.21 2.36-3 4.63-3.06 8.39-.21 16.89-1.5 25.15-.6 23.4 2.57 31.23-1.66 40.54-23.75.36-.84.85-1.63 1.42-2.69 1.61 7.25.93 9.8-7.07 26.73 9.63-1.89 13.61 8.17 22.12 9.52 6.49 1.03 6.31 2.22 11.79-3.21-1.5 8.01 11.4 4.06 9.02 12.68-3.85 35.16-11.88 69.5-20.48 103.72-1.07 1.54-.19 3.45-.95 5.05-3.33 24.31-14.81 44.18-32.88 60.52-2.3 2.08-5.35 2.03-7.84 3.45-49.13-.01-98.23-.01-147.34-.01zM13.13 322.81c2.81-14.27 4.36-28.8 8.99-42.69 6.69-20.05 17.22-38.28 27.03-56.86 3.85-.69 4.26 2.11 4.56 4.71.6 5.26.41 10.4-3.35 14.68-.8 1.88-1.02 3.9-1.32 5.89-2.19 7.12-6.32 13.36-9.15 20.21-8.93 21.57-14.38 44.03-17.37 67.11-.59 4.51-2.57 8.74-2.36 13.36-.83 3.09-3.11 5.58-3.56 8.86-.33 2.38-1.12 5.39-4.01 4.78-3.21-.67-1.57-3.7-1.31-5.85.6-11.39 1.22-22.8 1.85-34.2z"/><path class="st339" d="M238.38 431.88c-9.78-.03-19.57-.05-29.35-.08-3.24-.81-5.89-2.02-5.52-6.18.62-6.97-.59-13.85-1.43-20.74-.7-15.48-3.54-30.68-6.24-45.89-.7-3.96-1.41-7.96-2.26-11.9-1.75-10.82-5.12-21.28-7.39-31.99 2.56 11.66 6.13 23.09 7.94 34.94 3.23 14.73 4.94 29.69 7.31 44.54 1.02 6.4-.32 13 1.99 19.24-.52 5.97 1.51 12.1-1.2 17.92-2.51.02-5.01.03-7.52.05-2.31-1.61-2.75-4.02-2.77-6.58-.31-33.39-5.77-66.11-12.93-98.6-.89-4.03-1.18-8.17-1.84-10.71 2.39 18.7 4.66 38.93 8.43 58.91 2.7 14.33 5.2 28.66 6.15 43.19.3 4.6 1.97 9.86-2.51 13.76-4.9.04-9.8.09-14.69.13-2.66-9.98-1.45-20.32-2.75-30.4-1.72-13.36-2.8-26.83-6.14-39.97-.92-3.63-3.01-6.46-5.02-9.4-1.75-11.04-6.9-20.41-14.22-28.68 9.11 11.84 13.4 25.78 16.96 39.96.81 3.23 1.46 6.4 3.22 9.28 4.58 13.76 5.3 28.08 6.02 42.34.28 5.53 2.18 11.32-.72 16.78-33.29.01-66.57.03-99.86.04-4.89-5.95-6.87-13-7.85-20.45-.49-3.76-.5-7.68-3.35-10.7-3.28-4.45-4.89-9.63-6.47-14.83 1.64 5.37 3.26 10.74 6.82 15.25 1.8 2.07 2.2 4.57 2.56 7.18.94 6.75 1.86 13.53 5.48 19.57.7 1.17 1.31 2.58.09 3.9-18.79.02-37.59.05-56.38.07-3.46-2.85-2.16-6.13-.42-9.04 6.77-11.3 12.71-23.06 19.35-34.43 4.28-7.32 6.42-15.69 11.39-22.66 7.41-13.6 14.41-27.43 22.31-40.74 17.52-29.53 33.64-59.91 53.22-88.19 5.61-8.11 12.11-15.54 20-21.64 2.99-2.32 6.07-3.82 9.98-2.69 17.3 5 33.53 11.91 46.23 25.3 6.24 6.58 10.34 13.67 6.29 23.07-1.06 2.46.36 4.65 1.25 6.88 2.85 7.13 5.64 14.29 8.46 21.44.91 4.83-1.62 4.99-4.88 3.31-2.12-1.09-3.75-3.03-5.13-4.98-8.26-11.67-16.6-23.27-23.59-35.8-4.52-8.1-9.01-16.35-16.33-20.87 5.91 2.79 9.38 9.36 13.18 15.36a353.6 353.6 0 0124.95 46.92c8.62 19.66 19.65 38.17 27.31 58.26 6.04 20.48 7.28 41.73 10.03 62.74.78 5.93 1.23 11.88 1.84 17.81zM24.5 345.53c-3.41-1.66-4.67 1.94-7.02 2.87 3.37-35.38 10.89-69.58 28.98-100.74-1.13-1.13 3.81-.15.73-2.12-.62-.4-.28-1.71.23-2.53 3.02-6.37 5.08-12.82 1.72-19.74.3-4.58.91-9.03 5.28-11.8 10.68-1.31 20.27-6.49 30.7-8.68 9.75-4.42 19.91-7.11 30.67-6.36 2.84.2 6.83.05 6.79 4.84-8.57 4.67-15.34 11.43-21.73 18.63-4.94 2.9-10.33 4.84-14.58 7.09 3.47-.73 6.72-4.59 11.49-4.43.15 0 .31.33.42.53.22.4.09.81-.33 1.2-14.72 19.24-23.86 41.33-32.64 63.62-6.36 16.16-8.38 33.87-17.65 48.97-3.87 3.88-5.15 1.33-5.74-2.4-.94-5.93-1.03-11.89-.15-17.84.42-2.82 1.13-5.61.6-9.02-6.13 10.18-8.35 21.42-12.61 31.85-1.03 2.51-1.33 5.84-5.16 6.06zm208.19-66.45c14.57 2.24 23.78 11.94 32.67 22.6 5.38 6.46 12.82 7.03 20.44 3.45 2.47.68 3.85 2.22 4.91 4.64 4.74 10.74 7.53 21.85 8.99 33.54.84 6.7.7 13.46 1.93 20.1-1.71 4.16-3.77 8.04-8.07 10.12-2.8.09-4-1.25-4.98-3.99-4.29-11.96-7.83-24.03-7.7-36.9-.16 15 4.51 28.85 10.03 42.51-.9 8.25-8.23 9.21-13.86 11.33-5.26 1.99-8 4.45-6.72 10.19-.95 1.93-2.26 3.12-4.58 2.22-6.89-18.95-11.38-38.6-16.92-57.93-5.87-20.48-10.8-41.24-16.14-61.88z"/><path class="st348" d="M253.9 144.79c-.97 2.93-2.12 5.81-2.87 8.79-4.35 17.29-15.52 27.23-32.82 30.64-4.13-2.15-4.29-6.3-4.28-9.97.05-14.58-1.14-29.04-3.2-43.46 4.54-5.71 10.64-2.88 16.2-2.96 3.43 0 3.67-1.86 4.08-4.96.95-7.17-.55-13.6-3.75-19.86-.38-1.49-.82-2.97-.08-4.48.7-1.93 1.94-3.57 2.86-5.39 3.14-4.72 6.93-2.34 10.12-.46 1.93 1.14 3.69 2.97 5.31 4.71 1.36.67 2.71 1.33 4.07 2 1.08 7.52 3.87 14.57 5.91 21.83 2.26 8.02 1.78 15.91-1.55 23.57z"/><path class="st339" d="M24.5 345.53c4.1-15.45 8.98-30.61 16.67-44.73.96-1.77 1.83-4.69 4.42-3.76 2.72.97.92 3.71.92 5.7.01 10.46-3.13 20.8-1.08 31.34.27 1.37-.14 3.04 2.13 2.8-6.26 15.03-12.51 30.05-18.77 45.08-.43 1.04-1.49 2 .17 3.67 4.35-3.94 5.42-9.77 8.25-14.47 1.55-2.57 2.77-5.02 6.07-5.43-1.69 13.94-9.71 25.27-15.41 37.58-4.52 9.76-12.04 17.94-14.92 28.54-4.32-.01-8.63-.03-12.95-.04 4.46-13.36 7.39-26.96 9.43-40.97 1.25-8.58 6.04-16.86 7.38-25.72 1.08-7.25 6.51-12.54 7.69-19.59zm241.25 53.37c.92-.96 1.83-1.93 2.75-2.89-.69-5.02 2.98-7.15 6.49-8.86 3.44-1.68 5.72 1.23 7.97 3.29 10.27 9.42 19.23 20.01 27.49 31.19 2.14 2.89 5.41 6.05 1.71 10.13-23.31.01-46.63.02-69.94.04 7.91-10.93 17-21 23.53-32.9zM245.48 97.41c-4.57.65-8.13-6-13.2-1.83-.82 1.79-2.61 1.54-3.65.98-8.76-4.74-17.69-9.3-23.62-17.8-3.67-5.67-3.77-10.7 1.43-15.9 3.7-3.7 6.19-8.79 6.29-14.08.15-8.07 4.1-13.81 9.5-19.04 9.6 9.22 11.31 22.8 18.49 33.37 2.01 2.96 2.76 6.65.92 9.52-4.97 7.74-2.87 14.32 2.14 20.87.83 1.1 1.14 2.6 1.7 3.91z"/><path class="st339" d="M229.49 99.01c.51.93 1.03 1.86 1.54 2.79.21 7.57.17 15.15.19 22.72 0 2.5-.54 4.95-3.05 6.35-5.82 1.45-11.61-1.05-17.43-.08-2.08-16.33-4.92-32.56-5.78-49.03 4.53-.54 7.17 3 10.2 5.2 5.02 3.66 11.1 6.22 14.33 12.05z"/><path class="st348" d="M229.49 99.01c-8.18-5.75-16.36-11.5-24.53-17.25l.06-3c7.23 4.83 14.48 9.64 21.69 14.5 1.72 1.16 3.11 3.02 5.58 2.32l-2.8 3.43z"/><path class="st339" d="M370.78 100.58c4.23-3.37 6-7.83 5.9-13.14 1.16-1.57 2.68-2.57 4.62-2.88 1.73-2.15 3.69-2.78 6.03-.88-2.05-1.7-4.24-1.17-6.44-.43-1.98-4.61-2.05-9.64-.49-14 4.9-13.67 10.19-27.27 22.32-36.62 4.98 7.58 4.5 16.92 8.31 25.03 7.38 15.69 18.67 27.6 32.67 37.34 2.94 2.05 6.02 2.33 9.54 1.99 6.66-.64 10.09 2.35 9.95 9.02-.17 8.35-.84 16.7-1.63 25.02-.5 5.2-4.39 8.3-8.27 11.22-.74.84-2.11 1.36-1.46 2.89-8.12 19.01-12.41 38.78-11.78 59.52-3.86.18-4.94-4.45-8.46-4.87-4.56-6.72-7.94-14.44-15.99-18.18-1.2-.56-1.4-2.36-.97-3.85.68-1.76 2.16-2.45 3.86-2.8 6.17-1.26 10.44-5.39 13.46-8.46-8.14 4.73-15.41 7.48-20.72 9.14-9.71 3.03-20.89 6.51-27.39 1.01-1.39-1.18-2.25-2.5-2.77-3.47-6.36-6.31-6.12-14.78-7.3-22.75-.34-2.31.82-4.1 2.77-5.47 1.87-1.31 4.02-2.44 4.99-4.85-2.9-1.66-4.87.49-7.06.98-3.51.79-6.38.31-7.54-3.42-1.07-3.45.47-5.8 3.58-7.7 2.7-1.65 7.79.06 8.11-4.43.23-3.29-3.35-5.63-4.79-8.57-2.48-5.08-3.64-10.63-3.05-16.39z"/><path class="st348" d="M380.9 83.24c6.03-7.73 7.51 1.62 11.15 2.98-3.73.3-7.01-2.16-10.73-1.67-.15-.44-.28-.87-.42-1.31zm-68.74 348.52c-8.65-15.89-20.71-29.01-34.26-40.7-5.55-4.79-6.26 3.22-9.41 4.95-3.9-4.63-.73-7.08 2.89-9.43 5.7-3.71 12.54-5.63 17.21-10.94 1.06-1.71 2.39-3.16 4.03-4.32l6.08-8.72c1.12-5.42 4.44-9.11 8.51-12.82 8.48-7.74 16.92-15.58 23.57-25.13 2.44-3.51 4.83-8.05 10.54-7.22.65.16 1.27.43 1.83.81 1.42 2.38 2.28 5.27 5.4 6.18 4.35 2.8 8.36.19 12.48-.74 3.86-.16 6.97-3.05 10.9-2.97 1.99.59 3.89 1.45 6.02.25 2.47-1.39 4.49-.28 6.24 1.58 4.29 2.38 8.81 4.53 9.93 10.03 3.08 2.89-3.16 5.73-.04 8.62 5.32 1.97 8.53 6.02 8.11 11.43-.41 5.27-3.55 9.41-9.46 10.22-3.83.52-5.75 3.16-7.37 6.2-2.57 4.82-3.26 10.08-2.78 15.37 1.36 14.85-6.68 23.11-19.14 28.95-7.82 3.66-15.49 8.01-15.59 18.45-11.88-.03-23.79-.04-35.69-.05z"/><path class="st339" d="M384.2 322.53c-3.74.37-7.48.75-11.22 1.12-1.86-2.92.68-3.24 2.39-4.04 16.78-15.46 32.85-31.75 51.58-44.97 2.89-1 5.57-1.57 5.9 2.8-9.28 11.63-21.39 20.27-32.15 30.34-5.38 5.04-11 9.84-16.5 14.75z"/><path class="st348" d="M394.09 341.18c-1.56.55-3.26 1.28-4.43-.5-.91-1.39-.01-2.68.89-3.8 1.17-1.46 2.38-2.89 3.58-4.33 9.12-5.86 16.73-13.46 24.56-20.86 7.1-6.71 14.04-13.74 23.04-18.08-1.34 4.71-5.27 7.32-8.54 10.44-13.01 12.41-26.07 24.76-39.1 37.13z"/><path class="st339" d="M432.85 277.44c-1.97-.93-3.93-1.87-5.9-2.8 7.69-7.31 15.39-14.61 23.08-21.92 3.12.29 5.02 1.79 5.09 5.1-7.42 6.54-14.85 13.08-22.27 19.62z"/><path class="st348" d="M454.73 286.4c-1.81.42-3.27 1.37-4.35 2.89-2.52 2.16-4.87 4.66-8.65 4.34 1.91-6.13 7.73-8.22 12.15-11.76 1.72-1.66 3.42-1.83 5.1.04l-4.25 4.49z"/><path class="st339" d="M455.12 257.82c-1.7-1.7-3.39-3.4-5.09-5.1 2.21-1.2 3.19-6.34 6.8-2.84 2.96 2.86 1.64 5.87-1.71 7.94z"/><path class="st348" d="M458.99 281.91c-1.7-.01-3.4-.03-5.1-.04.34-3.29 2.27-5.95 5.41-4.99 3.35 1.02.7 3.34-.31 5.03z"/><path class="st339" d="M354.94 299.11c-.97 3-1.95 6-2.92 9-.75 5.89-8.61 5.55-9.74 11.1-2.99.57-5.35 2.3-6.82 4.78-9.28 15.71-24.27 25.95-36.75 38.59-1.05-6.96-2.83-13.9-2.99-20.88-.3-13.12-7.66-24.13-9.91-36.59 11.21-7.41 17.28-19.06 24.25-29.87 3.22-4.99 6.16-10.31 7.8-16.15 6.38-13.98 8.84-29.19 13.8-43.62 1.08-3.16 2.05-6.36 3.06-9.54 1.78-1.99 3.47-1.08 4.91.34 7.49 7.31 17.45 10.67 25.98 16.34 1.98 1.32 4.3 2.13 5.28 4.56-.72 14.69-5.34 28.59-8.68 42.75-2.31 9.77-4.84 19.47-7.27 29.19z"/><path class="st348" d="M370.88 227.19c-12.55-2.88-23.12-9.44-32.71-17.75-1.23-1.07-2.31-2.32-3.45-3.48-.84-.63-1.47-1.66-.89-2.45 9.24-12.59 3.39-24.44-1.69-36.33-.47-1.09-1.28-2.05-1.68-3.16-2.44-6.74-12.43-10.83-7.69-19.98 3.38-6.52 7.33-12.73 11.84-18.64 9.4-12.33 22.41-19.03 36.18-24.81 3.69 2.31 5.44 5.09 5.16 9.97-.26 4.64 2.81 8.66 6.96 11.22 2.2 1.36 3.9 2.88 3.43 5.67-.47 2.82-2.73 3.8-5.17 4.27-3.05.59-6.18.81-9.2 1.49-1.87.42-2.86 1.88-1.94 3.84.88 1.86 2.48 1.05 3.71.5 2.4-1.07 4.59-2.68 7.06-3.47 3.28-1.05 6.26-.06 8 3.08 1.53 2.76.82 5.98-2.06 6.52-10.35 1.92-9.8 8.64-7.86 16.17.95 3.69 2.14 7.31 3.22 10.96-2.12 1.58-3.33 3.71-2.29 6.23 3.62 8.73 1.12 16.99-1.97 25.06-1.41 3.68-2.21 7.06-1.67 11.05.73 5.41-.94 10.32-5.29 14.04zm-142.72-96.32c-.42-9.83.87-19.48 2.86-29.07 2.81 7.92 2.53 16.35 4.04 24.5 1 5.36-2.84 5.65-6.9 4.57zm229.56-9.47c-.34 1.21-.57 3.17-1.41 4.83-1.86 3.65-5.39 4.49-9.14 4.66-1.56.07-3.18-.31-3.19-2.09-.01-3.3 1.56-6.54 4.19-7.94 4.59-2.44 4.05-5 1.88-8.62-.95-1.58-1.43-3.6-1.61-5.46-.27-2.69 1.13-4.89 3.8-5.33 4.01-.66 2.61 3.14 2.59 4.53-.1 5.16 2.53 9.7 2.89 15.42z"/></svg>