<svg version="1.1" id="Слой_1" xmlns="http://www.w3.org/2000/svg" x="0" y="0" viewBox="0 0 585 660" xml:space="preserve"><style>.st1{fill:#0071c5}.st140{fill:#31c5f8}.st141{fill:#57caf9}.st339{fill:#83d5fb}.st340{fill:#00abf0}</style><path class="st339" d="M526.58 400.08c19.21.19 37.54 5.92 56.3 8.91 1.38-.07 1.33 1.41 2.12 1.98v177.52c-3.4 5.44-8.55 7.1-14.68 7.55-51.23 3.79-102.33 2.99-153.39-3.06-60.4-7.16-119.96-18.76-179-33.13-51.66-12.57-101.86-29.33-149.1-54.2-8.73-4.6-16.9-10.04-24.99-15.64-10.79-7.46-17.69-17.67-19.59-30.58-.8-5.48-4.58-10.08-3.87-15.8 8.97-24.22 27.41-37.58 51.4-44.15 4.56-1.25 8.44-3.02 11.84-6.16 11.67-2.18 23.43-2.92 35.29-2.29 2.9.15 3.79 1.32 10.77 4.44 25.36 11.31 50.16 22.37 62.66 22.72 1.14.03 5.51-.6 10.32 1.68 10.04 4.77 20.23 9.11 31.04 11.75 7.64 1.86 12.87 8.17 20.16 10.65 23.81 6.15 47.4.56 70.99-1.62 47.07-4.35 94.11-8.97 141.14-13.78 14.98-1.53 19.52-4.47 24.43-18.65 3.98-11.54 3.98-11.54 16.16-8.14z"/><path class="st340" d="M46.6 441.94c-.59 21.79 9.08 37.29 27.59 48.68 30.47 18.75 63.1 32.52 96.85 43.69 88.13 29.16 178.85 46.29 270.99 55.63 47.55 4.82 95.38 5.56 142.97-1.45v2.11c-2.75 11.37.39 23.03-1.72 34.43-5.7 9.71-15.32 5.77-23.51 6.77-46.28 1.09-92.41-1.82-138.5-5.29-19.27-2.23-38.48-5.01-57.69-7.72-24.9-3.99-49.66-8.66-74.29-14.09-6.14-1.35-11.57-6.46-18.53-3.75-50.52-13.67-100.71-28.37-149.22-48.29-15.61-6.41-30.92-13.34-45.2-22.49-19.8-12.69-32.79-30.35-39.73-52.7-2.35-9.83-1.16-19.48 1.61-28.97 1.13-3.94 2.29-8.62 8.38-6.56z"/><path class="st140" d="M526.58 400.08c-7.04.21-9.3 4.99-10.85 10.88-4.36 16.57-9.7 19.9-26.33 21.35-38.47 3.35-76.87 7.58-115.31 11.39-8.44.84-39.33 5.4-75.5 7.16-8.9.43-24.85 1.04-26.31-3.92-.78-2.63 2.76-6.03 6-8.57 9.79-49.84 19.23-99.74 28.34-149.7 1.73-9.49 3.45-18.98 5.15-28.48 1.36-2.55 5.61-9.71 14.49-13.73 5.74-2.6 10.97-2.79 13.89-2.67 30.94.39 57.63.57 78.95.63 39.32.11 78.64.02 117.96.03 3.16 0 6.32-.06 9.48.07 14.99.63 18.82 5.41 14.92 20.09-3.61 13.58-8.04 26.95-12.19 40.38-8.42 27.2-16.94 54.38-25.3 81.6-1.5 4.8-4.55 10.23 2.61 13.49zM144.14 163.73c6.65-18.45 7-37.88 8.19-57.06 1.9-30.51 5.78-59.62 25.52-85.26 19.75-25.65 60.13-27.46 79.58-5.11 19.96 22.93 35.55 47.96 36.34 79.71-4.31-1.55-8.62-3.09-12.94-4.64-.76-4.81-2.46-12.36-6.78-20.66-4.25-8.16-7.47-14.47-14.38-16.88-6.45-2.24-14.14-.94-21.8 4.35-11.24 7.77-17.68 18.55-19.18 32.21-1.08 2.69-3.87 4.35-4.47 7.32-7.22 5.35-7.13 12.22-2.99 19.04 2.55 4.2 4.17 8.56 5.54 13.15 1.12 10.51 3.69 20.8 4.24 31.37.25 4.77-.46 8.92-2.05 14.33-2.73 9.24-6.25 11.15-7.52 18.58-.86 5.05.22 7.35 1.71 16.28.65 3.86 2.74 16.37 2.46 25.46-.4 12.66-.77 18.64-13.87 38.76-4.8 7.38-6.79 15.75-7.9 24.36 3.84 23.32.08 26.49-22.73 19.18-10.23-3.28-10.9-4.1-13.67-16.89-1.98-.08-2.83 1.82-4.34 2.52-7.41 3.42-11.75.67-11.03-7.37.67-7.4 2.29-14.69 4.01-21.76-1.14 1.44-2.19 3.29-3.89 4.53-3.91 2.85-7.68 6.89-13.09 3.52-5.58-3.47-3.67-8.03-1.76-12.92 5.15-13.17 2.52-26.28-.85-39.38-5.23-20.3-3.14-39.73 7.28-58.11 2.4-4.22 4.77-8.33 10.37-8.63z"/><path class="st1" d="M42.86 478.59c9.01 29.68 31.03 46.84 57.71 58.89 50.24 22.7 102.54 39.55 155.81 53.51 4.73 1.24 9.39 2.77 14.08 4.17 16.99 9.12 23.11 26.36 31.05 42.13 2.02 4 3.29 8.44 5.2 12.59 3.29 5.11 1.06 7.91-3.99 9.2-2.36.6-4.89.2-7.35.2-49.48.01-98.96.02-148.44 0-13.61 0-15.4-2.38-12.18-15.55 1.05-4.31 4.02-8.41 1.71-13.16 1.98-16.58.23-18.3-16.47-20.06-21.96-2.31-43.36-7.34-64.05-15.16-9.91-3.74-16.26-11.77-22.72-19.52-1.82-2.18-2.5-5.32-1.1-8.33-11.04-15.9-17.46-33.48-19.11-52.8-1.74-7.26-.83-14.64-.66-21.94.17-7.43 16.1-24.6 22.87-25.48 3.29-.43 5.35 1.38 6.32 4.25.76 2.26-.49 4.95 1.32 7.06zm101.28-314.86c-14.77 23.27-18.91 47.8-10.43 74.57 4.06 12.82 3.34 26.17-3.28 39.96 12.11-1.91 14.6-11.28 20.48-19.48 1.98 14.83-2.69 27.22-3.09 40.77 7.86-2.5 10.43-9.11 15.47-15.07 0 5.95.05 10.57-.01 15.19-.09 7.43 3.12 12.81 9.77 16.1 11.11 5.49 15.23 3.08 15.75-9 .12-2.76.99-5.49 1.52-8.23 4.07-4.91 6.64-10.62 7.72-16.8.7-4.04 1.71-7.72 6.25-7.69 5.08.04 5.58 4.51 6.04 8.4 1.11 9.39 1.79 18.76 4.9 27.91.9 2.64.51 4.79.53 5 .86 8.63 4.52 24.18 16.26 54.45-30.05-8.72-60.1-17.45-90.15-26.17-6.12 5.16-12.03.85-17.85-.65-8.52-2.19-7.31-8.61-6.32-15.23 1.11-7.45-2.56-12.97-8.9-16.57-10.78-6.12-22.47-8.09-34.63-6.18-9 1.42-12.15 6.25-13.43 17.46-.55 4.79 1.94 11.15-5.49 13.2-8.89-1.13-10.16-8.02-11.13-14.97-1.6-11.48 2.99-21.75 6.59-32.19-.26-5.05 3.75-7.36 6.64-10.39 4.96-17.51 9.79-35.07 14.92-52.53 3.67-12.47 8.63-24.45 15.51-35.53 11.33-18.25 39.05-31.12 56.36-26.33z"/><path class="st140" d="M32.11 567.51c10.13 14.89 23.87 23.84 41.58 28.02 20.15 4.76 40.04 10.62 61 9.64 5.88-.27 8.58 2.04 8.87 7.49.28 5.24.14 10.5.19 15.76-3.13 5.99-7.99 9.56-14.51 11.47-16.78 4.92-31.69 14.39-48.1 20.22-21.11-.18-42.28 1.5-63.31-1.69-3.26-7.73.81-15.06 1.59-22.49 1.99-18.78 4.88-37.47 7.75-56.15.66-4.31.69-9.25 4.94-12.27z"/><path class="st339" d="M57.33 278.13c-.78 3.23-1.57 6.46-2.35 9.69-3.44 5.41-8.92 8.05-14.37 10.84-17.96 9.21-25.34 22.74-23.52 42.88 2.85 31.43 7.1 62.76 8.1 94.3.32 10.24 1.84 20.01 4.01 29.86-2.77 4.21-3.25 12.47-11.69 6.67-6.09-2.15-5.38-7.75-5.84-12.39-3.6-36-7.03-72.02-10.44-108.05-3.9-41.18 13.79-64.42 56.1-73.8z"/><path class="st1" d="M17.51 472.36c5.01-.71 4.88-5.16 6.23-8.55-.11-13.94 2.89-26.65 11.36-38.35 8.6-11.88 16.53-24.35 23.45-37.34 2.8-5.26 6.51-8.92 12.09-10.78 10.68 3.52 20.65 8.68 30.78 13.47 4.82 2.28 6.76 5.03 2.51 9.56-7.53 2.81-15.07 5.61-22.6 8.43-16.29 6.09-27.29 17.75-34.74 33.14-7.5 11.58-4.75 24.2-3.74 36.65-2.64-6.31-5.26-6.71-11.6-2.72-14.84 9.34-20.73 21.86-18.25 38.84-3.23-10.88-2.19-21.95-1.4-33 .31-4.09 2.68-7.03 5.91-9.35zm322.63-228.58c-13.22-.53-19.6 7.47-23.31 18.78-3.61 3.71-6.73 2.9-9.41-1.11-6.02-9.01-11.6-18.25-14.63-28.8 8.08-9.21 9.3-20.68 10.5-32.15.47-4.46.04-9.33 5.49-11.36 8-.78 13.26 2.7 16.63 9.97 6.66 14.34 13.27 28.64 14.73 44.67z"/><path class="st140" d="M308.78 189.15c2.17 16.16-2.49 30.67-10.71 44.31-5.89 2.14-6.16-2.77-7.7-6.12 3.86-9.12 1.26-16.59-5.88-22.88-1.12-6.68-2.08-13.36 2.27-19.41 8.52-11.84 4.43-20.91-10.45-27.84-5.35-2.49-8.04-3.66-8.81-5.59-1.16-2.92.53-6.11 2.46-9.76 3.27-6.18 6.42-7.37 9.17-13.63.94-2.14 1.44-3.99 1.71-5.14l8.78-1.65c3.66.57 4.22 3.36 4.1 6.24-.92 21.95 8.92 41.25 15.06 61.47z"/><path class="st1" d="M289.62 121.42c-2.72 1.46-4.67 6.21-8.7 2.02-8.1-6.68-4.41-14.83-2.83-22.72 1.5-7.44 8.06-2.14 11.54-4.6 1.38-.04 2.77-.07 4.15-.11 5.09 3.95 4.43 8.62 1.78 13.63-2.05 3.89-3.96 7.85-5.94 11.78z"/><path class="st141" d="M103.93 400.37c-6.06-6.49-14.5-8.78-22.16-12.37-4.05-1.9-8.48-2.97-11.78-6.26-5.81-.87-8.58-4.38-10.1-10.01-2.62-9.71-5.49-19.35-7.48-29.23-.77-3.79-1.68-7.67 2.95-9.85.09-4.21.23-8.41.25-12.62.09-15.8 4.79-20.83 20.37-21.48 13.56-.56 26.53 1.77 38.35 8.81 7.21 4.3 12.52 11.05 9.95 19.09-1.43 4.46-1.29 7.39-.04 9.39 1.74 2.77 4.71 2.83 9.34 4.38 11.02 3.69 17.85 11.68 20.47 14.74 1.74 2.03 4.24 5.31 6.53 9.98 2.35.75 5.28 1.73 8.59 2.99 30.47 11.57 60.33 33.53 57.68 40.44-1.81 4.71-19.64 4.72-78.9-10.05-14.89-4.26-29.53-2.77-44.02 2.05z"/><path class="st140" d="M164.32 402.38c13.57.51 27.58 1.35 41.98 2.57 6.08.52 12.08 1.09 17.99 1.71 14.42 8.76 24.91 12.1 32.07 13.47 2.41.46 7.68 3.71 15.33 5.66 4.23 1.08 6.28 5.3 9.34 8.06-5.05 3.11-.44 13.95-10.44 13.09-7.01-3.06-14.03-6.12-21.04-9.18-10.74-4.68-19.41-8.44-21.05-9.15-8.29-3.58-26.44-11.27-64.18-26.23z"/><path class="st141" d="M295.66 224.72c.8 2.91 1.6 5.82 2.41 8.73 5.9 9.93 8.77 21.83 18.76 29.11-3.5 17.63-7.11 35.39-10.83 53.25-4.32 20.77-8.71 41.34-13.17 61.72-.33-2.27-.96-5.77-2.22-9.93-1.14-3.77-2.53-6.39-2.67-7.32-1.44-9.16-4.93-17.59-8-26.19-2.36-17.07-7.02-33.8-8.05-51.05-.23-3.89-3.03-5.65-4.21-8.6.32-6.2 2.26-12.58-4.58-17.27-2.29-1.57-1.8-5.74-2.72-8.68-1.56-5.43-4.73-10.57-3.04-16.61 2.74-11.01 9.56-18.24 20.41-21.3 10.24-2.89 12.9-1.07 15.82 9.49.45 1.59.73 3.4 2.09 4.65zm-81.92 182.09c.29-1.96-.1-3.6-2.06-4.53-.89-.79-1.52-1.81-2.43-2.58l-6.32-4.37c-73.46-34.31-83.71-45.4-82.29-49.5 1.43-4.15 16.75-6.69 101.11 13.15 14.44 8.12 29.97 7.09 45.58 5.4 6.82 1.53 14.02 1.72 20.12 5.71 2.01 4.39 1.51 8.65-.69 12.87-3.3 6.31-3.17 12.88-1.24 19.54 1.87 6.64-.01 12.89-2.03 19.12-6.95-4.67-13.88-9.38-20.6-14.35-.3-.51-.69-.97-1.13-1.37.05.02.08.07.18.17 1.95 2.29 4.18 4.38 3.2 7.78-.99 2.69-1.91 5.41-4 7.51-9.95.16-17.71-6.16-26.62-9.06-7.31-.38-13.3-5.76-20.78-5.49z"/><path class="st339" d="M234.52 412.3c9.4-.81 16.4 7.01 25.55 7.12 3.08-1.61 3.11-3.99 1.69-6.73.29-2.91-1.49-4.56-3.65-5.96.54-5.57 3.61-2.9 6.17-1.9 6.52 5.46 17.23 6.12 19.2 16.8-.82 4.08-1.63 8.16-2.45 12.24-16.5-5.05-32.32-11.54-46.51-21.57z"/><path class="st141" d="M285.24 375.12c3.39 1.19 6.26.67 8.31-2.54-.72 5-1.55 10.13-2.51 15.37a396.17 396.17 0 01-7.62 33.28c-3.68-23.76-6.47-31.43-8.54-32.54-.18-.1-1.03-.52-1.39-1.39-.82-1.97 1.34-4.71 3.3-6.31 2.64-2.17 5.62-3.93 8.45-5.87z"/><path class="st1" d="M285.8 332.48c-4.7 13.58-6.63 28.58-19.49 37.95-5.78.74-11.56 1.18-17.33 1.17 0 0-8.52-.1-17.29-1.56-19.82-3.3-109.31-28.74-107.63-34.49.79-2.72 21.72-.37 95.94 16.88.72-9.5-1.78-17.36-11.15-21.65-2.95-1.36-4.05-3.66-3.59-6.8 7.93-14.21-2.34-27.85-2.49-42.42-2.74 6.32-5.44 12.66-8.23 18.96-.59 1.33-.73 4.16-3.21 2-.84-.73-.69-2.6-1-3.95.5-9.63 4.44-18.19 8.33-26.74 5.33-11.74 10.58-23.49 13.09-36.25 5.3-3.97 4-10.39 5.77-15.67 3.3-9.68 14.67-9.75 20.1-16.92 1.33-1.1 2.77-1.91 4.52-2.1 6.15.14 8.87 4.54 11.37 9.18-.19 3.5-1.18 6.75-2.63 9.99-6.44 14.47-7.21 21.78-4.43 35.75-2.18-6.11-1.29-12.99 1.45-19.78 2.01-4.96 5.16-7.28 10.53-4.74.69.78 1.06 1.69 1.17 2.72 2.33 4.04 4.65 8.09 6.98 12.13 3.4 12.93 2.69 25.23-4.76 36.84-3.3 5.15-4.24 11.22-4.21 17.44-.04-9.55 4.03-17.64 8.33-25.74 2.23-4.21 4.37-6.41 8.75-2.78 3.69 20.18 7.4 40.38 11.11 60.58z"/><path class="st339" d="M249.65 212.32c-2.82-2.88-4.43-6.93-8.44-8.64-.99-.18-1.83-.65-2.55-1.35-1.44-8.54-4.42-14.8-14.53-16.88-8.47-1.74-10.56-10.06-8.33-23.85 1.29-10.73-2.64-21.11-2.09-31.78.81-1.1 1.59-2.69 3.05-2.52 13.52 1.59 20.89-8.07 29.27-15.9 4.09-5.44 8.46-3.52 12.89-.55 7.03 5.22 10.06 14.27 17.83 18.83 5.11 5.36.1 9.71-1.58 14.26-1.37 3.72-2.93 5.6 3.29 6.68 14.86 2.57 22.41 21.1 14.76 34.19-3.03 5.18-5.85 10.4-5.42 16.69-.14 3.47-2.38 4.66-5.41 5.11-10.53 1.55-18.81 6.5-24.07 16.03-1.33 2.41-3.49 3.19-6.17 2.67-6.06-3.33.28-9.03-2.5-12.99z"/><path class="st339" d="M215.99 89.37c-4.29-16.85 7.52-25.78 17.8-34.95 9.07-8.09 20.69-9.83 31.42-5.06 9.31 4.14 13.8 13.6 15.19 23.77.75 5.5.5 11.14.71 16.71-5.62 3.2-13.18 3.26-16.51 10.18-1.08 1.23-2.22 2.4-3.58 3.33-4.53 2.82-9.05 5.69-14.71 3.05-5.19.25-7.24-4.43-10.75-6.81-6.35-3.73-14.83-3.4-19.57-10.22z"/><path class="st340" d="M215.8 161.6c.72 14.98 6.85 21.15 22.09 20.79 7.55-.18 11.9-.12 6.18 8.78-1.96 3.04-2.14 7.23-3.14 10.89-3.32 1.87-6.26 4.26-9.72 6.04-4.17 2.15-6.55 1.68-8.84-1.99-7.91.03-11.15-4.16-10.76-11.78.56-11.02 1.24-22.02 4.19-32.73z"/><path class="st1" d="M238.71 95.97c1.98 3.52 5.62 4.91 8.81 6.87 3.12 3.39 2.81 6.8.06 10.22-6.45-1.31-11.29-6.82-18.23-6.95-4.68-.09-9.36-.1-11.84 4.8-1.65 3.25-.58 6.29 2.33 8.32 4.33 3.02 8.48 1.4 12.87-.52 4.14-1.81 5.18-9.25 11.74-6.46 1.1.94 2.71 1.33 3.15 2.97-9.16 15.91-15.97 18.85-33.88 14.6-10.96-10.78-11.77-23.42-2.18-33.73 9.02-7.12 18.09-3.38 27.17-.12zm-16.33 110.15l18.56-4.05.27 1.61-2.23 2.32c-3.65 7.69-12.88 9.89-16.91 17.22-.73 6.4-2.6 11.84-10.34 12.36-.02-4.79.47-9.65-.16-14.35-1.17-8.74 2.11-13.74 10.81-15.11z"/><path class="st1" d="M238.71 95.97c-9.07-1.66-18.12-.86-27.17.11.61-2.82 1.8-5.26 4.46-6.71 7.96.83 16.27.47 22.71 6.6zm23.18 2.18c3.56-9.37 11.17-9.36 19.22-8.31l-.06 4.16c-5.33 6.31-11.08 10.63-19.16 4.15z"/><path class="st1" d="M261.89 98.15c6.72.14 12.81-2.62 19.16-4.15-.07-.88-.14-1.76-.2-2.64 4.28 1.43 8.57 2.86 12.85 4.28-2.42.51-5.3 1.34-8.38 2.73-1.61.72-3.04 1.5-4.31 2.27-4.73 4.75-10.27 6.92-17 5.45-1.96-1.62-3.76-3.4-4.36-6.04.74-.62 1.49-1.26 2.24-1.9z"/><path class="st140" d="M55.37 332.66c4.83 16.38 6.87 33.58 14.63 49.09-8.14 8.08-11.68 19.09-17.99 28.35-11.44 16.8-23.52 33.34-28.26 53.71-4.6-27.03-5.27-54.46-8.31-81.65-1.17-10.47-1.79-20.99-2.9-31.47-4.05-38.24 5.6-52.59 42.45-62.88-1.71 7.14-3.66 14.23-5.07 21.43-1.69 8.53-1.45 16.8 5.45 23.42z"/><path class="st1" d="M253.61 222.99c3.97-14.78 16.56-22.7 34.18-21.49 8.39 5.78 8.68 14.32 7.88 23.22-14.13-14.33-22.45-12.19-36.08 9.27a3.79 3.79 0 01-1.39-.83c-2.64-2.88-11.31-3.04-4.59-10.17zm10.59-120.7c5.54-1.15 11.09-2.26 16.8-1.64 1.01 1.61 3.25 5.66 3.27 11.28.02 5.77-2.32 9.91-3.34 11.51l-6.24 4.11c-10.97 2.17-12.8.82-17.81-13.13-3.32-7.54-.89-11.59 7.32-12.13z"/><path class="st1" d="M257.99 115.11c.24.88 2.64 9.23 9.52 11.19 2.4.68 4.57.36 5.63.2 5.61-.89 9.09-4.59 10.28-6 1.71.57 3.43 1.14 5.14 1.71-8.27 9.02-20.08 10.55-26.71 5.53-5.21-3.94-5.82-10.87-5.93-12.65.69.01 1.38.01 2.07.02z"/><path class="st340" d="M274.66 271.88c-11.68 11.62-12.7 27.29-16.58 42.26-6.24-10.82-6.05-21.89-.78-32.99 5.29-11.13 10.46-22.21 9.26-35.02 2.71 8.58 5.4 17.17 8.1 25.75z"/><path class="st141" d="M264.28 404.82c-2.06.63-4.11 1.27-6.17 1.9-3.31-2.07-7.93-2.84-8.31-8.73 6.37-.45 9.84 4.55 14.48 6.83z"/><path class="st340" d="M253.61 222.99l4.59 10.17c-8.93 5.36-7.73 14.17-7.42 22.51.2 5.45 1.95 10.92-.71 16.77-13.25-20.47-13.63-40.29-.42-60.13 1.32 3.57 2.64 7.12 3.96 10.68z"/><path class="st140" d="M220.5 143.21c13.21 3.55 23.84 4.27 34.59 2.89 5.46-.7 5.82 2.18 3.83 6.38-3.83 8.07-14.81 11.81-23.38 7.29-5.82-3.06-10.45-7.69-15.04-16.56z"/><path class="st1" d="M257.99 115.11c-.69 0-1.38 0-2.07-.02-2.83-3.67-5.59-2.75-8.33.13-.78-.77-1.56-1.54-2.34-2.3l-.04.01c1.85-3.11 2.24-6.56 2.29-10.08 4.76 2.21 8.37-.61 12.13-2.77l4.56 2.22c-4.83 2.91-6 7.62-6.2 12.81z"/><path class="st1" d="M245.26 112.91c-5.16 8.37-11.19 15.4-22.34 14.45-8.63-.73-13.31-5.21-13.64-14.13-.34-9.19 5.02-12.18 13.03-12.83 14.94-1.22 21.38 2.23 22.92 12.52-.01 0 .03-.01.03-.01z"/><path class="st339" d="M252.68 150.68c-6.72 6.46-13.48 4.57-20.15 0h20.15z"/></svg>