<?xml version="1.0" encoding="utf-8"?>
<!-- Generator: Adobe Illustrator 24.2.3, SVG Export Plug-In . SVG Version: 6.00 Build 0)  -->
<svg version="1.1" id="Слой_1" xmlns="http://www.w3.org/2000/svg" xmlns:xlink="http://www.w3.org/1999/xlink" x="0px" y="0px"
	 viewBox="0 0 585 660" style="enable-background:new 0 0 585 660;" xml:space="preserve">
<style type="text/css">
	.st0{fill:#000600;}
	.st1{fill:#0071C5;}
	.st2{clip-path:url(#SVGID_2_);fill:#83D5FB;}
	.st3{clip-path:url(#SVGID_2_);fill:#00ABF0;}
	.st4{clip-path:url(#SVGID_2_);fill:#57CAF9;}
	.st5{clip-path:url(#SVGID_2_);fill:#0071C5;}
	.st6{clip-path:url(#SVGID_2_);fill:#31C5F8;}
	.st7{clip-path:url(#SVGID_2_);fill:#3DD1F9;}
	.st8{clip-path:url(#SVGID_4_);fill:#00ABF0;}
	.st9{clip-path:url(#SVGID_4_);fill:#83D5FB;}
	.st10{clip-path:url(#SVGID_4_);fill:#31C5F8;}
	.st11{clip-path:url(#SVGID_4_);fill:#0071C5;}
	.st12{clip-path:url(#SVGID_4_);fill:#57CAF9;}
	.st13{clip-path:url(#SVGID_4_);fill:#A6A6A6;}
	.st14{opacity:0.14;fill:#000600;}
	.st15{clip-path:url(#SVGID_8_);fill:#C980DD;}
	.st16{clip-path:url(#SVGID_8_);fill:#E7B3EE;}
	.st17{clip-path:url(#SVGID_8_);fill:#8C9295;}
	.st18{clip-path:url(#SVGID_8_);fill:#921C9F;}
	.st19{clip-path:url(#SVGID_8_);fill:#CDD0D3;}
	.st20{clip-path:url(#SVGID_8_);fill:#DFDBD1;}
	.st21{clip-path:url(#SVGID_8_);fill:#543F31;}
	.st22{clip-path:url(#SVGID_8_);fill:#C38A75;}
	.st23{clip-path:url(#SVGID_8_);fill:#B3B9BC;}
	.st24{clip-path:url(#SVGID_8_);fill:#8B9295;}
	.st25{clip-path:url(#SVGID_8_);fill:#D59C87;}
	.st26{fill:#E7B3EE;}
	.st27{clip-path:url(#SVGID_10_);}
	.st28{fill:#D6A1E6;}
	.st29{fill:#C980DD;}
	.st30{clip-path:url(#SVGID_12_);fill:#FFE050;}
	.st31{opacity:0.5;clip-path:url(#SVGID_12_);}
	.st32{fill:#A2C9FF;}
	.st33{fill:#FF8B00;}
	.st34{clip-path:url(#SVGID_12_);fill:#FFECA0;}
	.st35{clip-path:url(#SVGID_12_);}
	.st36{fill:#F9C956;}
	.st37{fill:#FFECA0;}
	.st38{fill:#2A356B;}
	.st39{clip-path:url(#SVGID_12_);fill:#F9C956;}
	.st40{clip-path:url(#SVGID_12_);fill:#A2C9FF;}
	.st41{clip-path:url(#SVGID_12_);fill:#FF8B00;}
	.st42{clip-path:url(#SVGID_12_);fill:#2A356B;}
	.st43{fill:#1B254E;}
	.st44{clip-path:url(#SVGID_12_);fill:#C22C28;}
	.st45{clip-path:url(#SVGID_12_);fill:#FF7400;}
	.st46{fill:#FFE050;}
	.st47{clip-path:url(#SVGID_12_);fill:#FFEB82;}
	.st48{clip-path:url(#SVGID_14_);fill:#FFE286;}
	.st49{fill:#FFFFFF;}
	.st50{fill:#ACD7C2;}
	.st51{fill:none;stroke:#FFFFFF;stroke-miterlimit:10;}
	.st52{fill:#A1CAAA;}
	.st53{fill:#95CCA0;}
	.st54{opacity:0.76;}
	.st55{fill:#C3E8CC;}
	.st56{fill:url(#SVGID_15_);}
	.st57{fill:url(#SVGID_16_);}
	.st58{fill:url(#SVGID_17_);}
	.st59{fill:#F5E5BD;}
	.st60{fill:url(#SVGID_18_);}
	.st61{fill:url(#SVGID_19_);}
	.st62{fill:url(#SVGID_20_);}
	.st63{fill:url(#SVGID_21_);}
	.st64{fill:url(#SVGID_22_);}
	.st65{fill:url(#SVGID_23_);}
	.st66{fill:#E3EDC3;}
	.st67{fill:#EEFAD1;}
	.st68{fill:url(#SVGID_24_);}
	.st69{fill:url(#SVGID_25_);}
	.st70{fill:url(#SVGID_26_);}
	.st71{fill:url(#SVGID_27_);}
	.st72{fill:url(#SVGID_28_);}
	.st73{fill:#FFE392;}
	.st74{clip-path:url(#SVGID_30_);fill:url(#SVGID_31_);}
	.st75{fill:#5B2A1E;}
	.st76{fill:#8F7673;}
	.st77{fill:url(#SVGID_32_);}
	.st78{fill:url(#SVGID_33_);}
	.st79{fill:url(#SVGID_34_);}
	.st80{fill:url(#SVGID_35_);}
	.st81{fill:#F79291;}
	.st82{fill:url(#SVGID_36_);}
	.st83{fill:#FF9D5B;}
	.st84{opacity:0.75;fill:#FFFFFF;}
	.st85{fill:#FFC28E;}
	.st86{fill:none;}
	.st87{clip-path:url(#SVGID_38_);fill:#FFE0C3;}
	.st88{clip-path:url(#SVGID_38_);fill:#FF9F36;}
	.st89{clip-path:url(#SVGID_38_);fill:#FFF3E2;}
	.st90{clip-path:url(#SVGID_40_);fill:#FAC1E3;}
	.st91{opacity:0.8;clip-path:url(#SVGID_40_);fill:#EF8FC7;}
	.st92{clip-path:url(#SVGID_40_);fill:#EF8FC7;}
	.st93{opacity:0.79;clip-path:url(#SVGID_40_);fill:#FAC1E3;}
	.st94{fill:url(#SVGID_41_);}
	.st95{fill:#FFFDEC;}
	.st96{fill:#78CB99;}
	.st97{fill:#B2E1C4;}
	.st98{fill:#D8EFE2;}
	.st99{opacity:0.44;fill:#FFFFFF;}
	.st100{clip-path:url(#SVGID_43_);fill:#FFF7C8;}
	.st101{fill:url(#SVGID_44_);}
	.st102{fill:url(#SVGID_45_);}
	.st103{opacity:0.86;fill:#FFD0D7;}
	.st104{fill:url(#SVGID_46_);}
	.st105{opacity:0.66;}
	.st106{opacity:0.37;fill:#FFFFFF;}
	.st107{opacity:0.4;}
	.st108{opacity:0.26;fill:#FFFFFF;}
	.st109{opacity:0.62;fill:#FFFFFF;}
	.st110{opacity:0.41;fill:#FFFFFF;}
	.st111{opacity:0.69;fill:#FFFFFF;}
	.st112{opacity:0.73;fill:#FFFFFF;}
	.st113{opacity:0.16;fill:#FFFFFF;}
	.st114{opacity:0.3;fill:#FFFFFF;}
	.st115{opacity:0.23;fill:#FFFFFF;}
	.st116{opacity:0.24;fill:#FFFFFF;}
	.st117{opacity:0.43;fill:#FFFFFF;}
	.st118{opacity:0.76;fill:#FFFFFF;}
	.st119{opacity:0.08;fill:#FFFFFF;}
	.st120{opacity:0.27;fill:#FFFFFF;}
	.st121{opacity:0.46;}
	.st122{opacity:0.86;fill:#FFFFFF;}
	.st123{opacity:0.54;fill:#FFFFFF;}
	.st124{opacity:0.28;}
	.st125{clip-path:url(#SVGID_48_);fill:#F17171;}
	.st126{clip-path:url(#SVGID_48_);fill:#F79291;}
	.st127{clip-path:url(#SVGID_48_);fill:#FFC5C4;}
	.st128{clip-path:url(#SVGID_48_);fill:#FFFFFF;}
	.st129{clip-path:url(#SVGID_50_);}
	.st130{fill:#FF7B89;}
	.st131{clip-path:url(#SVGID_50_);fill:none;}
	.st132{fill:none;stroke:#FFFFFF;stroke-width:2;stroke-miterlimit:10;}
	.st133{opacity:0.45;fill:#FFFFFF;}
	.st134{opacity:0.8;fill:#FFFFFF;}
	.st135{opacity:0.79;fill:#FFFFFF;}
	.st136{fill:#F1C4A9;}
	.st137{fill:none;stroke:#FFFFFF;stroke-width:0.75;stroke-miterlimit:10;}
	.st138{fill:#FFFFFF;stroke:#FFFFFF;stroke-width:0.25;stroke-miterlimit:10;}
	.st139{fill:#00A5C4;}
	.st140{fill:#31C5F8;}
	.st141{fill:#57CAF9;}
	.st142{fill:#00A8B8;}
	.st143{fill:#EA90A7;}
	.st144{fill:#91693D;}
	.st145{fill:#F2BECD;}
	.st146{fill:#D87290;}
	.st147{fill:#574435;}
	.st148{fill:#C8A37C;}
	.st149{fill:#641F1E;}
	.st150{fill:#E16C8D;}
	.st151{fill:#D63665;}
	.st152{fill:#DDB689;}
	.st153{fill:#F64776;}
	.st154{fill:#DEB689;}
	.st155{fill:#F2769B;}
	.st156{fill:#FAFAF8;}
	.st157{fill:#F7C3DB;}
	.st158{fill:#E3B9B4;}
	.st159{fill:#FFBEC5;}
	.st160{fill:#FFC9D7;}
	.st161{fill:#C73F69;}
	.st162{fill:#F7F7F7;}
	.st163{fill:#F2F2F2;}
	.st164{fill:#FFFBF1;}
	.st165{fill:#F8C3D1;}
	.st166{fill:#FC7798;}
	.st167{fill:#FFC5C4;}
	.st168{fill:#FFD0D7;}
	.st169{fill:#B39D8E;}
	.st170{fill:#FFE4EB;}
	.st171{fill:#F1F1F1;}
	.st172{fill:#FFA5B2;}
	.st173{fill:#A2C4DB;}
	.st174{fill:#583B34;}
	.st175{fill:#B1CFE4;}
	.st176{fill:#FBFBFA;}
	.st177{fill:#E0CFC7;}
	.st178{fill:#D9946B;}
	.st179{fill:#FFEBF2;}
	.st180{fill:#FCDDE6;}
	.st181{fill:#F2CCC1;}
	.st182{fill:#DF4E50;}
	.st183{fill:#45BC7A;}
	.st184{fill:#87E4AE;}
	.st185{fill:#00AC5F;}
	.st186{fill:#7FD9A9;}
	.st187{fill:#F1BB3A;}
	.st188{fill:#B89E65;}
	.st189{fill:#97D183;}
	.st190{fill:#3C3724;}
	.st191{fill:#D5BDA1;}
	.st192{fill:#9B8174;}
	.st193{fill:#587147;}
	.st194{fill:#E6D5BD;}
	.st195{fill:#5CC588;}
	.st196{clip-path:url(#SVGID_58_);fill:#B2E1C4;}
	.st197{clip-path:url(#SVGID_58_);fill:#FFFFFF;}
	.st198{clip-path:url(#SVGID_58_);fill:#78CB99;}
	.st199{fill:#FFEB82;}
	.st200{fill:#FFDF47;}
	.st201{clip-path:url(#SVGID_60_);fill:#F3A368;}
	.st202{clip-path:url(#SVGID_60_);fill-rule:evenodd;clip-rule:evenodd;fill:#FF8D4F;}
	.st203{clip-path:url(#SVGID_60_);fill:#E45C26;}
	.st204{clip-path:url(#SVGID_60_);fill:#F8B846;}
	.st205{fill:#E45C26;}
	.st206{fill:#FF8D4F;}
	.st207{fill:#FFAB33;}
	.st208{fill:#E46D00;}
	.st209{fill:#EE6406;}
	.st210{fill:#FF9B00;}
	.st211{fill:#130077;}
	.st212{fill:#FFBA98;}
	.st213{opacity:0.3;}
	.st214{fill:#FF7300;}
	.st215{fill:#6E0000;}
	.st216{fill-rule:evenodd;clip-rule:evenodd;fill:#FF9B00;}
	.st217{fill-rule:evenodd;clip-rule:evenodd;fill:url(#SVGID_61_);}
	.st218{opacity:0.3;fill-rule:evenodd;clip-rule:evenodd;fill:#A3002C;}
	.st219{fill-rule:evenodd;clip-rule:evenodd;fill:url(#SVGID_62_);}
	.st220{fill-rule:evenodd;clip-rule:evenodd;fill:url(#SVGID_63_);}
	.st221{opacity:0.5;fill-rule:evenodd;clip-rule:evenodd;fill:url(#SVGID_64_);}
	.st222{fill-rule:evenodd;clip-rule:evenodd;fill:#FFC384;}
	.st223{fill-rule:evenodd;clip-rule:evenodd;fill:url(#SVGID_65_);}
	.st224{fill-rule:evenodd;clip-rule:evenodd;fill:url(#SVGID_66_);}
	.st225{fill-rule:evenodd;clip-rule:evenodd;fill:url(#SVGID_67_);}
	.st226{opacity:0.5;fill-rule:evenodd;clip-rule:evenodd;fill:url(#SVGID_68_);}
	.st227{fill-rule:evenodd;clip-rule:evenodd;fill:#F3A368;}
	.st228{opacity:0.5;fill-rule:evenodd;clip-rule:evenodd;fill:#F3A368;}
	.st229{fill-rule:evenodd;clip-rule:evenodd;fill:#FF8D4F;}
	.st230{fill-rule:evenodd;clip-rule:evenodd;fill:#FFAB33;}
	.st231{opacity:0.62;fill-rule:evenodd;clip-rule:evenodd;fill:#C7002A;}
	.st232{opacity:0.5;fill-rule:evenodd;clip-rule:evenodd;fill:#FF8D4F;}
	.st233{opacity:0.5;fill-rule:evenodd;clip-rule:evenodd;fill:#8E5472;}
	.st234{opacity:0.3;fill-rule:evenodd;clip-rule:evenodd;fill:url(#SVGID_69_);}
	.st235{opacity:0.5;fill-rule:evenodd;clip-rule:evenodd;fill:url(#SVGID_70_);}
	.st236{opacity:0.3;fill-rule:evenodd;clip-rule:evenodd;fill:url(#SVGID_71_);}
	.st237{opacity:0.3;fill-rule:evenodd;clip-rule:evenodd;fill:url(#SVGID_72_);}
	.st238{clip-path:url(#SVGID_74_);}
	.st239{clip-path:url(#SVGID_74_);fill:#FF8D4F;}
	.st240{fill:#F3A368;}
	.st241{clip-path:url(#SVGID_76_);}
	.st242{fill:#E98B38;}
	.st243{clip-path:url(#SVGID_78_);}
	.st244{fill:#F8B846;}
	.st245{clip-path:url(#SVGID_80_);}
	.st246{clip-path:url(#SVGID_80_);fill:#FF8D4F;}
	.st247{fill-rule:evenodd;clip-rule:evenodd;fill:url(#SVGID_81_);}
	.st248{fill-rule:evenodd;clip-rule:evenodd;fill:url(#SVGID_82_);}
	.st249{fill-rule:evenodd;clip-rule:evenodd;fill:url(#SVGID_83_);}
	.st250{opacity:0.5;fill-rule:evenodd;clip-rule:evenodd;fill:url(#SVGID_84_);}
	.st251{fill-rule:evenodd;clip-rule:evenodd;fill:url(#SVGID_85_);}
	.st252{fill-rule:evenodd;clip-rule:evenodd;fill:url(#SVGID_86_);}
	.st253{fill-rule:evenodd;clip-rule:evenodd;fill:url(#SVGID_87_);}
	.st254{opacity:0.5;fill-rule:evenodd;clip-rule:evenodd;fill:url(#SVGID_88_);}
	.st255{opacity:0.3;fill-rule:evenodd;clip-rule:evenodd;fill:url(#SVGID_89_);}
	.st256{opacity:0.5;fill-rule:evenodd;clip-rule:evenodd;fill:url(#SVGID_90_);}
	.st257{opacity:0.3;fill-rule:evenodd;clip-rule:evenodd;fill:url(#SVGID_91_);}
	.st258{opacity:0.3;fill-rule:evenodd;clip-rule:evenodd;fill:url(#SVGID_92_);}
	.st259{opacity:0.88;fill:#FFFEF4;}
	.st260{fill:#FFCF66;}
	.st261{fill:#AFABAC;}
	.st262{fill:#FFE286;}
	.st263{fill:#FFE787;}
	.st264{fill:#F6C700;}
	.st265{fill:#FFEA96;}
	.st266{clip-path:url(#SVGID_94_);fill:#F9C956;}
	.st267{clip-path:url(#SVGID_94_);fill:#FFE050;}
	.st268{clip-path:url(#SVGID_96_);fill:#921C9F;}
	.st269{opacity:0.5;clip-path:url(#SVGID_96_);}
	.st270{fill:#921C9F;}
	.st271{clip-path:url(#SVGID_96_);}
	.st272{clip-path:url(#SVGID_98_);fill:#D6A1E6;}
	.st273{fill:#BC59D3;}
	.st274{opacity:0.5;fill:#FFFFFF;}
	.st275{opacity:0.5;fill:#FFFFFF;stroke:#FFFFFF;stroke-miterlimit:10;}
	.st276{opacity:0.68;fill:#FFFFFF;}
	.st277{fill:#E9CBF2;}
	.st278{fill:#D9A2E1;}
	.st279{fill:#AA7B41;}
	.st280{fill:#8C9295;}
	.st281{fill:#CDD0D3;}
	.st282{fill:#DFDBD1;}
	.st283{fill:#543F31;}
	.st284{fill:#C38A75;}
	.st285{fill:#B3B9BC;}
	.st286{fill:#8B9295;}
	.st287{fill:#D59C87;}
	.st288{fill:#3DD1F9;}
	.st289{fill:#F92405;}
	.st290{fill:#B30000;}
	.st291{fill:#FA3C20;}
	.st292{fill:#E2A080;}
	.st293{fill:#950000;}
	.st294{fill:#F50000;}
	.st295{clip-path:url(#SVGID_100_);fill:#EA90A7;}
	.st296{clip-path:url(#SVGID_100_);fill:#FFEBF2;}
	.st297{clip-path:url(#SVGID_100_);fill:#D3CFB3;}
	.st298{clip-path:url(#SVGID_100_);fill:#FCDDE6;}
	.st299{clip-path:url(#SVGID_100_);}
	.st300{clip-path:url(#SVGID_100_);fill:#FFC9D7;}
	.st301{fill:#FA90B4;}
	.st302{fill:#BCA494;}
	.st303{fill:#63443C;}
	.st304{fill:#CFABA0;}
	.st305{fill:#A1C3DA;}
	.st306{fill:#9B7972;}
	.st307{fill:#77573F;}
	.st308{fill-rule:evenodd;clip-rule:evenodd;fill:#FA3C20;}
	.st309{fill-rule:evenodd;clip-rule:evenodd;fill:#D00707;}
	.st310{fill-rule:evenodd;clip-rule:evenodd;fill:#F92405;}
	.st311{fill-rule:evenodd;clip-rule:evenodd;fill:#F50000;}
	.st312{fill-rule:evenodd;clip-rule:evenodd;fill:#F95F53;}
	.st313{fill:#F95F53;}
	.st314{clip-path:url(#SVGID_102_);fill:#574435;}
	.st315{clip-path:url(#SVGID_102_);fill:#C8A37C;}
	.st316{clip-path:url(#SVGID_102_);fill:#91693D;}
	.st317{clip-path:url(#SVGID_102_);fill:#D00707;}
	.st318{clip-path:url(#SVGID_102_);fill:#FA3C20;}
	.st319{clip-path:url(#SVGID_102_);fill:#950000;}
	.st320{clip-path:url(#SVGID_102_);fill:#F95F53;}
	.st321{clip-path:url(#SVGID_102_);fill:#131212;}
	.st322{clip-path:url(#SVGID_102_);fill:#B30000;}
	.st323{clip-path:url(#SVGID_102_);fill:#412A1A;}
	.st324{clip-path:url(#SVGID_102_);fill:#DEC6AF;}
	.st325{clip-path:url(#SVGID_102_);fill:#BF855C;}
	.st326{fill:#D00707;}
	.st327{fill:#AB9DB8;}
	.st328{fill:#381A12;}
	.st329{fill:#EBCBB8;}
	.st330{fill:#AC9EBB;}
	.st331{fill:#F8F6F5;}
	.st332{fill:#0A345E;}
	.st333{fill:#412A1A;}
	.st334{fill:#131212;}
	.st335{fill:#DEC6AF;}
	.st336{fill:#BF855C;}
	.st337{opacity:0.79;fill:#FFBEC5;}
	.st338{opacity:0.79;fill:#FA90B4;}
	.st339{fill:#83D5FB;}
	.st340{fill:#00ABF0;}
	.st341{opacity:0.6;fill:#FFFFFF;}
	.st342{opacity:0.34;fill:#FFFFFF;}
	.st343{opacity:0.25;fill:#FFFFFF;}
	.st344{opacity:0.6;}
	.st345{fill:#B2B0AD;}
	.st346{fill:#0D0707;}
	.st347{fill:#A6A6A6;}
	.st348{fill:#0068A8;}
</style>
<g>
	<path class="st339" d="M526.58,400.08c19.21,0.19,37.54,5.92,56.3,8.91c1.38-0.07,1.33,1.41,2.12,1.98c0,59.17,0,118.34,0,177.52
		c-3.4,5.44-8.55,7.1-14.68,7.55c-51.23,3.79-102.33,2.99-153.39-3.06c-60.4-7.16-119.96-18.76-179-33.13
		c-51.66-12.57-101.86-29.33-149.1-54.2c-8.73-4.6-16.9-10.04-24.99-15.64c-10.79-7.46-17.69-17.67-19.59-30.58
		c-0.8-5.48-4.58-10.08-3.87-15.8c8.97-24.22,27.41-37.58,51.4-44.15c4.56-1.25,8.44-3.02,11.84-6.16
		c11.67-2.18,23.43-2.92,35.29-2.29c2.9,0.15,3.79,1.32,10.77,4.44c25.36,11.31,50.16,22.37,62.66,22.72
		c1.14,0.03,5.51-0.6,10.32,1.68c10.04,4.77,20.23,9.11,31.04,11.75c7.64,1.86,12.87,8.17,20.16,10.65
		c23.81,6.15,47.4,0.56,70.99-1.62c47.07-4.35,94.11-8.97,141.14-13.78c14.98-1.53,19.52-4.47,24.43-18.65
		C514.4,396.68,514.4,396.68,526.58,400.08z"/>
	<path class="st340" d="M46.6,441.94c-0.59,21.79,9.08,37.29,27.59,48.68c30.47,18.75,63.1,32.52,96.85,43.69
		c88.13,29.16,178.85,46.29,270.99,55.63c47.55,4.82,95.38,5.56,142.97-1.45c0,0.7,0,1.41,0,2.11c-2.75,11.37,0.39,23.03-1.72,34.43
		c-5.7,9.71-15.32,5.77-23.51,6.77c-46.28,1.09-92.41-1.82-138.5-5.29c-19.27-2.23-38.48-5.01-57.69-7.72
		c-24.9-3.99-49.66-8.66-74.29-14.09c-6.14-1.35-11.57-6.46-18.53-3.75c-50.52-13.67-100.71-28.37-149.22-48.29
		c-15.61-6.41-30.92-13.34-45.2-22.49c-19.8-12.69-32.79-30.35-39.73-52.7c-2.35-9.83-1.16-19.48,1.61-28.97
		C39.35,444.56,40.51,439.88,46.6,441.94z"/>
	<path class="st140" d="M526.58,400.08c-7.04,0.21-9.3,4.99-10.85,10.88c-4.36,16.57-9.7,19.9-26.33,21.35
		c-38.47,3.35-76.87,7.58-115.31,11.39c-8.44,0.84-39.33,5.4-75.5,7.16c-8.9,0.43-24.85,1.04-26.31-3.92
		c-0.78-2.63,2.76-6.03,6-8.57c9.79-49.84,19.23-99.74,28.34-149.7c1.73-9.49,3.45-18.98,5.15-28.48
		c1.36-2.55,5.61-9.71,14.49-13.73c5.74-2.6,10.97-2.79,13.89-2.67c30.94,0.39,57.63,0.57,78.95,0.63
		c39.32,0.11,78.64,0.02,117.96,0.03c3.16,0,6.32-0.06,9.48,0.07c14.99,0.63,18.82,5.41,14.92,20.09
		c-3.61,13.58-8.04,26.95-12.19,40.38c-8.42,27.2-16.94,54.38-25.3,81.6C522.47,391.39,519.42,396.82,526.58,400.08z"/>
	<path class="st140" d="M144.14,163.73c6.65-18.45,7-37.88,8.19-57.06c1.9-30.51,5.78-59.62,25.52-85.26
		c19.75-25.65,60.13-27.46,79.58-5.11c19.96,22.93,35.55,47.96,36.34,79.71c-4.31-1.55-8.62-3.09-12.94-4.64
		c-0.76-4.81-2.46-12.36-6.78-20.66c-4.25-8.16-7.47-14.47-14.38-16.88c-6.45-2.24-14.14-0.94-21.8,4.35
		c-11.24,7.77-17.68,18.55-19.18,32.21c-1.08,2.69-3.87,4.35-4.47,7.32c-7.22,5.35-7.13,12.22-2.99,19.04
		c2.55,4.2,4.17,8.56,5.54,13.15c1.12,10.51,3.69,20.8,4.24,31.37c0.25,4.77-0.46,8.92-2.05,14.33c-2.73,9.24-6.25,11.15-7.52,18.58
		c-0.86,5.05,0.22,7.35,1.71,16.28c0.65,3.86,2.74,16.37,2.46,25.46c-0.4,12.66-0.77,18.64-13.87,38.76
		c-4.8,7.38-6.79,15.75-7.9,24.36c3.84,23.32,0.08,26.49-22.73,19.18c-10.23-3.28-10.9-4.1-13.67-16.89
		c-1.98-0.08-2.83,1.82-4.34,2.52c-7.41,3.42-11.75,0.67-11.03-7.37c0.67-7.4,2.29-14.69,4.01-21.76c-1.14,1.44-2.19,3.29-3.89,4.53
		c-3.91,2.85-7.68,6.89-13.09,3.52c-5.58-3.47-3.67-8.03-1.76-12.92c5.15-13.17,2.52-26.28-0.85-39.38
		c-5.23-20.3-3.14-39.73,7.28-58.11C136.17,168.14,138.54,164.03,144.14,163.73z"/>
	<path class="st1" d="M42.86,478.59c9.01,29.68,31.03,46.84,57.71,58.89c50.24,22.7,102.54,39.55,155.81,53.51
		c4.73,1.24,9.39,2.77,14.08,4.17c16.99,9.12,23.11,26.36,31.05,42.13c2.02,4,3.29,8.44,5.2,12.59c3.29,5.11,1.06,7.91-3.99,9.2
		c-2.36,0.6-4.89,0.2-7.35,0.2c-49.48,0.01-98.96,0.02-148.44,0c-13.61,0-15.4-2.38-12.18-15.55c1.05-4.31,4.02-8.41,1.71-13.16
		c1.98-16.58,0.23-18.3-16.47-20.06c-21.96-2.31-43.36-7.34-64.05-15.16c-9.91-3.74-16.26-11.77-22.72-19.52
		c-1.82-2.18-2.5-5.32-1.1-8.33c-11.04-15.9-17.46-33.48-19.11-52.8c-1.74-7.26-0.83-14.64-0.66-21.94
		c0.17-7.43,16.1-24.6,22.87-25.48c3.29-0.43,5.35,1.38,6.32,4.25C42.3,473.79,41.05,476.48,42.86,478.59z"/>
	<path class="st1" d="M144.14,163.73c-14.77,23.27-18.91,47.8-10.43,74.57c4.06,12.82,3.34,26.17-3.28,39.96
		c12.11-1.91,14.6-11.28,20.48-19.48c1.98,14.83-2.69,27.22-3.09,40.77c7.86-2.5,10.43-9.11,15.47-15.07
		c0,5.95,0.05,10.57-0.01,15.19c-0.09,7.43,3.12,12.81,9.77,16.1c11.11,5.49,15.23,3.08,15.75-9c0.12-2.76,0.99-5.49,1.52-8.23
		c4.07-4.91,6.64-10.62,7.72-16.8c0.7-4.04,1.71-7.72,6.25-7.69c5.08,0.04,5.58,4.51,6.04,8.4c1.11,9.39,1.79,18.76,4.9,27.91
		c0.9,2.64,0.51,4.79,0.53,5c0.86,8.63,4.52,24.18,16.26,54.45c-30.05-8.72-60.1-17.45-90.15-26.17
		c-6.12,5.16-12.03,0.85-17.85-0.65c-8.52-2.19-7.31-8.61-6.32-15.23c1.11-7.45-2.56-12.97-8.9-16.57
		c-10.78-6.12-22.47-8.09-34.63-6.18c-9,1.42-12.15,6.25-13.43,17.46c-0.55,4.79,1.94,11.15-5.49,13.2
		c-8.89-1.13-10.16-8.02-11.13-14.97c-1.6-11.48,2.99-21.75,6.59-32.19c-0.26-5.05,3.75-7.36,6.64-10.39
		c4.96-17.51,9.79-35.07,14.92-52.53c3.67-12.47,8.63-24.45,15.51-35.53C99.11,171.81,126.83,158.94,144.14,163.73z"/>
	<path class="st140" d="M32.11,567.51c10.13,14.89,23.87,23.84,41.58,28.02c20.15,4.76,40.04,10.62,61,9.64
		c5.88-0.27,8.58,2.04,8.87,7.49c0.28,5.24,0.14,10.5,0.19,15.76c-3.13,5.99-7.99,9.56-14.51,11.47
		c-16.78,4.92-31.69,14.39-48.1,20.22c-21.11-0.18-42.28,1.5-63.31-1.69c-3.26-7.73,0.81-15.06,1.59-22.49
		c1.99-18.78,4.88-37.47,7.75-56.15C27.83,575.47,27.86,570.53,32.11,567.51z"/>
	<path class="st339" d="M57.33,278.13c-0.78,3.23-1.57,6.46-2.35,9.69c-3.44,5.41-8.92,8.05-14.37,10.84
		c-17.96,9.21-25.34,22.74-23.52,42.88c2.85,31.43,7.1,62.76,8.1,94.3c0.32,10.24,1.84,20.01,4.01,29.86
		c-2.77,4.21-3.25,12.47-11.69,6.67c-6.09-2.15-5.38-7.75-5.84-12.39c-3.6-36-7.03-72.02-10.44-108.05
		C-2.67,310.75,15.02,287.51,57.33,278.13z"/>
	<path class="st1" d="M17.51,472.36c5.01-0.71,4.88-5.16,6.23-8.55c-0.11-13.94,2.89-26.65,11.36-38.35
		c8.6-11.88,16.53-24.35,23.45-37.34c2.8-5.26,6.51-8.92,12.09-10.78c10.68,3.52,20.65,8.68,30.78,13.47
		c4.82,2.28,6.76,5.03,2.51,9.56c-7.53,2.81-15.07,5.61-22.6,8.43c-16.29,6.09-27.29,17.75-34.74,33.14
		c-7.5,11.58-4.75,24.2-3.74,36.65c-2.64-6.31-5.26-6.71-11.6-2.72c-14.84,9.34-20.73,21.86-18.25,38.84
		c-3.23-10.88-2.19-21.95-1.4-33C11.91,477.62,14.28,474.68,17.51,472.36z"/>
	<path class="st1" d="M340.14,243.78c-13.22-0.53-19.6,7.47-23.31,18.78c-3.61,3.71-6.73,2.9-9.41-1.11
		c-6.02-9.01-11.6-18.25-14.63-28.8c8.08-9.21,9.3-20.68,10.5-32.15c0.47-4.46,0.04-9.33,5.49-11.36c8-0.78,13.26,2.7,16.63,9.97
		C332.07,213.45,338.68,227.75,340.14,243.78z"/>
	<path class="st140" d="M308.78,189.15c2.17,16.16-2.49,30.67-10.71,44.31c-5.89,2.14-6.16-2.77-7.7-6.12
		c3.86-9.12,1.26-16.59-5.88-22.88c-1.12-6.68-2.08-13.36,2.27-19.41c8.52-11.84,4.43-20.91-10.45-27.84
		c-5.35-2.49-8.04-3.66-8.81-5.59c-1.16-2.92,0.53-6.11,2.46-9.76c3.27-6.18,6.42-7.37,9.17-13.63c0.94-2.14,1.44-3.99,1.71-5.14
		c2.93-0.55,5.85-1.1,8.78-1.65c3.66,0.57,4.22,3.36,4.1,6.24C292.8,149.63,302.64,168.93,308.78,189.15z"/>
	<path class="st1" d="M289.62,121.42c-2.72,1.46-4.67,6.21-8.7,2.02c-8.1-6.68-4.41-14.83-2.83-22.72c1.5-7.44,8.06-2.14,11.54-4.6
		c1.38-0.04,2.77-0.07,4.15-0.11c5.09,3.95,4.43,8.62,1.78,13.63C293.51,113.53,291.6,117.49,289.62,121.42z"/>
	<path class="st141" d="M103.93,400.37c-6.06-6.49-14.5-8.78-22.16-12.37c-4.05-1.9-8.48-2.97-11.78-6.26
		c-5.81-0.87-8.58-4.38-10.1-10.01c-2.62-9.71-5.49-19.35-7.48-29.23c-0.77-3.79-1.68-7.67,2.95-9.85
		c0.09-4.21,0.23-8.41,0.25-12.62c0.09-15.8,4.79-20.83,20.37-21.48c13.56-0.56,26.53,1.77,38.35,8.81
		c7.21,4.3,12.52,11.05,9.95,19.09c-1.43,4.46-1.29,7.39-0.04,9.39c1.74,2.77,4.71,2.83,9.34,4.38
		c11.02,3.69,17.85,11.68,20.47,14.74c1.74,2.03,4.24,5.31,6.53,9.98c2.35,0.75,5.28,1.73,8.59,2.99
		c30.47,11.57,60.33,33.53,57.68,40.44c-1.81,4.71-19.64,4.72-78.9-10.05C133.06,394.06,118.42,395.55,103.93,400.37z"/>
	<path class="st140" d="M164.32,402.38c13.57,0.51,27.58,1.35,41.98,2.57c6.08,0.52,12.08,1.09,17.99,1.71
		c14.42,8.76,24.91,12.1,32.07,13.47c2.41,0.46,7.68,3.71,15.33,5.66c4.23,1.08,6.28,5.3,9.34,8.06
		c-5.05,3.11-0.44,13.95-10.44,13.09c-7.01-3.06-14.03-6.12-21.04-9.18c-10.74-4.68-19.41-8.44-21.05-9.15
		C220.21,425.03,202.06,417.34,164.32,402.38z"/>
	<path class="st141" d="M295.66,224.72c0.8,2.91,1.6,5.82,2.41,8.73c5.9,9.93,8.77,21.83,18.76,29.11
		c-3.5,17.63-7.11,35.39-10.83,53.25c-4.32,20.77-8.71,41.34-13.17,61.72c-0.33-2.27-0.96-5.77-2.22-9.93
		c-1.14-3.77-2.53-6.39-2.67-7.32c-1.44-9.16-4.93-17.59-8-26.19c-2.36-17.07-7.02-33.8-8.05-51.05c-0.23-3.89-3.03-5.65-4.21-8.6
		c0.32-6.2,2.26-12.58-4.58-17.27c-2.29-1.57-1.8-5.74-2.72-8.68c-1.56-5.43-4.73-10.57-3.04-16.61
		c2.74-11.01,9.56-18.24,20.41-21.3c10.24-2.89,12.9-1.07,15.82,9.49C294.02,221.66,294.3,223.47,295.66,224.72z"/>
	<path class="st141" d="M213.74,406.81c0.29-1.96-0.1-3.6-2.06-4.53c-0.89-0.79-1.52-1.81-2.43-2.58c-2.11-1.46-4.21-2.91-6.32-4.37
		c-73.46-34.31-83.71-45.4-82.29-49.5c1.43-4.15,16.75-6.69,101.11,13.15c14.44,8.12,29.97,7.09,45.58,5.4
		c6.82,1.53,14.02,1.72,20.12,5.71c2.01,4.39,1.51,8.65-0.69,12.87c-3.3,6.31-3.17,12.88-1.24,19.54
		c1.87,6.64-0.01,12.89-2.03,19.12c-6.95-4.67-13.88-9.38-20.6-14.35c-0.3-0.51-0.69-0.97-1.13-1.37c0.05,0.02,0.08,0.07,0.18,0.17
		c1.95,2.29,4.18,4.38,3.2,7.78c-0.99,2.69-1.91,5.41-4,7.51c-9.95,0.16-17.71-6.16-26.62-9.06
		C227.21,411.92,221.22,406.54,213.74,406.81z"/>
	<path class="st339" d="M234.52,412.3c9.4-0.81,16.4,7.01,25.55,7.12c3.08-1.61,3.11-3.99,1.69-6.73c0.29-2.91-1.49-4.56-3.65-5.96
		c0.54-5.57,3.61-2.9,6.17-1.9c6.52,5.46,17.23,6.12,19.2,16.8c-0.82,4.08-1.63,8.16-2.45,12.24
		C264.53,428.82,248.71,422.33,234.52,412.3z"/>
	<path class="st141" d="M285.24,375.12c3.39,1.19,6.26,0.67,8.31-2.54c-0.72,5-1.55,10.13-2.51,15.37
		c-2.18,11.84-4.78,22.95-7.62,33.28c-3.68-23.76-6.47-31.43-8.54-32.54c-0.18-0.1-1.03-0.52-1.39-1.39
		c-0.82-1.97,1.34-4.71,3.3-6.31C279.43,378.82,282.41,377.06,285.24,375.12z"/>
	<path class="st1" d="M285.8,332.48c-4.7,13.58-6.63,28.58-19.49,37.95c-5.78,0.74-11.56,1.18-17.33,1.17c0,0-8.52-0.1-17.29-1.56
		c-19.82-3.3-109.31-28.74-107.63-34.49c0.79-2.72,21.72-0.37,95.94,16.88c0.72-9.5-1.78-17.36-11.15-21.65
		c-2.95-1.36-4.05-3.66-3.59-6.8c7.93-14.21-2.34-27.85-2.49-42.42c-2.74,6.32-5.44,12.66-8.23,18.96c-0.59,1.33-0.73,4.16-3.21,2
		c-0.84-0.73-0.69-2.6-1-3.95c0.5-9.63,4.44-18.19,8.33-26.74c5.33-11.74,10.58-23.49,13.09-36.25c5.3-3.97,4-10.39,5.77-15.67
		c3.3-9.68,14.67-9.75,20.1-16.92c1.33-1.1,2.77-1.91,4.52-2.1c6.15,0.14,8.87,4.54,11.37,9.18c-0.19,3.5-1.18,6.75-2.63,9.99
		c-6.44,14.47-7.21,21.78-4.43,35.75c-2.18-6.11-1.29-12.99,1.45-19.78c2.01-4.96,5.16-7.28,10.53-4.74
		c0.69,0.78,1.06,1.69,1.17,2.72c2.33,4.04,4.65,8.09,6.98,12.13c3.4,12.93,2.69,25.23-4.76,36.84c-3.3,5.15-4.24,11.22-4.21,17.44
		c-0.04-9.55,4.03-17.64,8.33-25.74c2.23-4.21,4.37-6.41,8.75-2.78C278.38,292.08,282.09,312.28,285.8,332.48z"/>
	<path class="st339" d="M249.65,212.32c-2.82-2.88-4.43-6.93-8.44-8.64c-0.99-0.18-1.83-0.65-2.55-1.35
		c-1.44-8.54-4.42-14.8-14.53-16.88c-8.47-1.74-10.56-10.06-8.33-23.85c1.29-10.73-2.64-21.11-2.09-31.78
		c0.81-1.1,1.59-2.69,3.05-2.52c13.52,1.59,20.89-8.07,29.27-15.9c4.09-5.44,8.46-3.52,12.89-0.55
		c7.03,5.22,10.06,14.27,17.83,18.83c5.11,5.36,0.1,9.71-1.58,14.26c-1.37,3.72-2.93,5.6,3.29,6.68
		c14.86,2.57,22.41,21.1,14.76,34.19c-3.03,5.18-5.85,10.4-5.42,16.69c-0.14,3.47-2.38,4.66-5.41,5.11
		c-10.53,1.55-18.81,6.5-24.07,16.03c-1.33,2.41-3.49,3.19-6.17,2.67C246.09,221.98,252.43,216.28,249.65,212.32z"/>
	<path class="st339" d="M215.99,89.37c-4.29-16.85,7.52-25.78,17.8-34.95c9.07-8.09,20.69-9.83,31.42-5.06
		c9.31,4.14,13.8,13.6,15.19,23.77c0.75,5.5,0.5,11.14,0.71,16.71c-5.62,3.2-13.18,3.26-16.51,10.18c-1.08,1.23-2.22,2.4-3.58,3.33
		c-4.53,2.82-9.05,5.69-14.71,3.05c-5.19,0.25-7.24-4.43-10.75-6.81C229.21,95.86,220.73,96.19,215.99,89.37z"/>
	<path class="st340" d="M215.8,161.6c0.72,14.98,6.85,21.15,22.09,20.79c7.55-0.18,11.9-0.12,6.18,8.78
		c-1.96,3.04-2.14,7.23-3.14,10.89c-3.32,1.87-6.26,4.26-9.72,6.04c-4.17,2.15-6.55,1.68-8.84-1.99
		c-7.91,0.03-11.15-4.16-10.76-11.78C212.17,183.31,212.85,172.31,215.8,161.6z"/>
	<path class="st1" d="M238.71,95.97c1.98,3.52,5.62,4.91,8.81,6.87c3.12,3.39,2.81,6.8,0.06,10.22c-6.45-1.31-11.29-6.82-18.23-6.95
		c-4.68-0.09-9.36-0.1-11.84,4.8c-1.65,3.25-0.58,6.29,2.33,8.32c4.33,3.02,8.48,1.4,12.87-0.52c4.14-1.81,5.18-9.25,11.74-6.46
		c1.1,0.94,2.71,1.33,3.15,2.97c-9.16,15.91-15.97,18.85-33.88,14.6c-10.96-10.78-11.77-23.42-2.18-33.73
		C220.56,88.97,229.63,92.71,238.71,95.97z"/>
	<path class="st1" d="M222.38,206.12c6.19-1.35,12.37-2.7,18.56-4.05c0.09,0.54,0.18,1.07,0.27,1.61c-0.74,0.77-1.48,1.54-2.23,2.32
		c-3.65,7.69-12.88,9.89-16.91,17.22c-0.73,6.4-2.6,11.84-10.34,12.36c-0.02-4.79,0.47-9.65-0.16-14.35
		C210.4,212.49,213.68,207.49,222.38,206.12z"/>
	<path class="st1" d="M238.71,95.97c-9.07-1.66-18.12-0.86-27.17,0.11c0.61-2.82,1.8-5.26,4.46-6.71
		C223.96,90.2,232.27,89.84,238.71,95.97z"/>
	<path class="st1" d="M261.89,98.15c3.56-9.37,11.17-9.36,19.22-8.31c-0.02,1.39-0.04,2.77-0.06,4.16
		C275.72,100.31,269.97,104.63,261.89,98.15z"/>
	<path class="st1" d="M261.89,98.15c6.72,0.14,12.81-2.62,19.16-4.15c-0.07-0.88-0.14-1.76-0.2-2.64c4.28,1.43,8.57,2.86,12.85,4.28
		c-2.42,0.51-5.3,1.34-8.38,2.73c-1.61,0.72-3.04,1.5-4.31,2.27c-4.73,4.75-10.27,6.92-17,5.45c-1.96-1.62-3.76-3.4-4.36-6.04
		C260.39,99.43,261.14,98.79,261.89,98.15z"/>
	<path class="st140" d="M55.37,332.66c4.83,16.38,6.87,33.58,14.63,49.09c-8.14,8.08-11.68,19.09-17.99,28.35
		c-11.44,16.8-23.52,33.34-28.26,53.71c-4.6-27.03-5.27-54.46-8.31-81.65c-1.17-10.47-1.79-20.99-2.9-31.47
		c-4.05-38.24,5.6-52.59,42.45-62.88c-1.71,7.14-3.66,14.23-5.07,21.43C48.23,317.77,48.47,326.04,55.37,332.66z"/>
	<path class="st1" d="M253.61,222.99c3.97-14.78,16.56-22.7,34.18-21.49c8.39,5.78,8.68,14.32,7.88,23.22
		c-14.13-14.33-22.45-12.19-36.08,9.27c-0.52-0.18-0.99-0.45-1.39-0.83C255.56,230.28,246.89,230.12,253.61,222.99z"/>
	<path class="st1" d="M264.2,102.29c5.54-1.15,11.09-2.26,16.8-1.64c1.01,1.61,3.25,5.66,3.27,11.28c0.02,5.77-2.32,9.91-3.34,11.51
		c-2.08,1.37-4.16,2.74-6.24,4.11c-10.97,2.17-12.8,0.82-17.81-13.13C253.56,106.88,255.99,102.83,264.2,102.29z"/>
	<path class="st1" d="M257.99,115.11c0.24,0.88,2.64,9.23,9.52,11.19c2.4,0.68,4.57,0.36,5.63,0.2c5.61-0.89,9.09-4.59,10.28-6
		c1.71,0.57,3.43,1.14,5.14,1.71c-8.27,9.02-20.08,10.55-26.71,5.53c-5.21-3.94-5.82-10.87-5.93-12.65
		C256.61,115.1,257.3,115.1,257.99,115.11z"/>
	<path class="st340" d="M274.66,271.88c-11.68,11.62-12.7,27.29-16.58,42.26c-6.24-10.82-6.05-21.89-0.78-32.99
		c5.29-11.13,10.46-22.21,9.26-35.02C269.27,254.71,271.96,263.3,274.66,271.88z"/>
	<path class="st141" d="M264.28,404.82c-2.06,0.63-4.11,1.27-6.17,1.9c-3.31-2.07-7.93-2.84-8.31-8.73
		C256.17,397.54,259.64,402.54,264.28,404.82z"/>
	<path class="st340" d="M253.61,222.99c1.53,3.39,3.06,6.78,4.59,10.17c-8.93,5.36-7.73,14.17-7.42,22.51
		c0.2,5.45,1.95,10.92-0.71,16.77c-13.25-20.47-13.63-40.29-0.42-60.13C250.97,215.88,252.29,219.43,253.61,222.99z"/>
	<path class="st140" d="M220.5,143.21c13.21,3.55,23.84,4.27,34.59,2.89c5.46-0.7,5.82,2.18,3.83,6.38
		c-3.83,8.07-14.81,11.81-23.38,7.29C229.72,156.71,225.09,152.08,220.5,143.21z"/>
	<path class="st1" d="M257.99,115.11c-0.69,0-1.38,0-2.07-0.02c-2.83-3.67-5.59-2.75-8.33,0.13c-0.78-0.77-1.56-1.54-2.34-2.3
		l-0.04,0.01c1.85-3.11,2.24-6.56,2.29-10.08c4.76,2.21,8.37-0.61,12.13-2.77c1.52,0.74,3.04,1.48,4.56,2.22
		C259.36,105.21,258.19,109.92,257.99,115.11z"/>
	<path class="st1" d="M245.26,112.91c-5.16,8.37-11.19,15.4-22.34,14.45c-8.63-0.73-13.31-5.21-13.64-14.13
		c-0.34-9.19,5.02-12.18,13.03-12.83c14.94-1.22,21.38,2.23,22.92,12.52C245.22,112.92,245.26,112.91,245.26,112.91z"/>
	<path class="st339" d="M252.68,150.68c-6.72,6.46-13.48,4.57-20.15,0C239.25,150.68,245.96,150.68,252.68,150.68z"/>
</g>
</svg>
