<svg version="1.1" id="Слой_1" xmlns="http://www.w3.org/2000/svg" x="0" y="0" viewBox="0 0 585 357" xml:space="preserve"><style>.st1{fill:#0071c5}.st141{fill:#57caf9}.st339{fill:#83d5fb}.st340{fill:#00abf0}</style><path class="st340" d="M0 247.42c89.14-54.48 120.88-82.08 131.21-97.13 10.49-15.3 26.58-25.91 40.52-38.15 3.89-3.41 7.83-5.79 13.02-2.81 6.95-.56 11.88 4.09 17.36 7.04 6.72 3.62 13.09 7.93 19.17 12.62 5.13 5.07 5.96 14.3 2.01 20.46-1.23 1.92-2.87 2.38-4.87 2.39-6.01-.13-11.9.9-17.78 1.99-3 .35-5.91.24-8.97-.16-4.96-.64-9.93.52-14.35 3.18-1.65.99-2.53 2.58-2.92 4.44-.42 2.02-.77 4.05-.84 6.13-1.17 38.6-.84 77.21-.63 115.81.04 6.53.62 13.08.56 19.64-.02 2.06.01 4.14-.99 6.03-.65.82-1.3 1.64-1.94 2.47-11.29 14.65-19.95 30.06-26.56 45.63H0V247.42zM585 357H449c-8.54-15.19-17.09-30.37-25.63-45.56-.48-7.05-.63-14.08.11-21.11.23-2.18.29-4.36.29-6.55V167.11c0-.97.01-1.94-.03-2.92-.23-6.72-1.82-8.41-8.46-9.49-5.25-.86-10.43-2.12-15.74-.21-1.33.48-2.89.23-4.34-.01-8.23-1.85-16.57-2.78-25.01-2.6-5.48.41-10.78-1.24-16.21-1.46-1.94-.08-2.73-1.47-3.37-2.88-1.64-3.64-2.97-7.4-3.68-11.36-.67-3.76 1.98-5.65 4.34-7.69 6.16-5.64 12.89-10.49 20.17-14.65 3.76-2.15 7.54-3.54 11.88-3.09 1.14-.27 2.23-.36 3.28-.29 0 0 3.38.2 6.66 2.5 3.62 2.54 83.27 71.73 191.74 166.48V357z"/><path class="st339" d="M219.79 129.71c-3.78-1.71-6.83-4.54-10.29-6.74-7.98-5.05-16.21-9.61-24.74-13.65 5.69-2.64 7.19-5.13 6.34-11.15-.88-6.27-.39-12.58-.97-18.88-.76-8.44-.68-16.95-.99-25.43-.09-2.49.31-4.82 1.79-6.91.41-.58.93-1.29.92-1.94-.04-6.21 4.09-9.47 8.57-12.63 8.24-5.8 16.48-11.55 25.73-15.73 8.57-3.87 11.99-2.89 16.7 5.25.36.63.72 1.27 1.06 1.91 2.26 4.19 2.27 4.21 5.89 1.2 1.25-1.04 2.59-1.79 4.21-1.98 1.52.6 1.5 1.66.86 2.89-.5.96-.91 1.94-1.21 2.98-1.23 4.3-.26 5.86 4.12 6.53.65.1 1.07.46 1.5.87-.94 3.19-.19 7.23-4.42 8.76-.72 1.35-1.97 1.1-3.18 1.11-5.34.07-10.6-.85-15.91-1.03-4.3-3.19-4.38-4.7-1.1-11.12-1.58 1.22-4.93 4.15-6.8 9.16a20.45 20.45 0 00-1.26 8.39c.64 4.74 1.48 7.16 2.52 7.25.49.04 1.01-.43 1.59-1.4 8.04-.95 15.88.58 23.77 1.69 2.59.37 3.42 2.09 3.51 4.17.04 1.01.35 1.94.39 2.91-3.53 3.17-2.98 7.73-3.97 11.77-1.75 7.15-4.97 13.68-9.19 19.61-6.87 9.65-14.33 18.88-20.96 28.72-1.08 1.61-2.35 3.12-4.48 3.42zm163.53-18.96c-10.49 3.45-19.44 9.52-27.91 16.41-.84.68-1.79 1.22-2.69 1.83-4.45-.94-5.64-5.07-7.38-8.25-3.16-5.78-4.63-12.04-1-18.29.84-1.44-.25-2.81.47-4.09.15-.4.31-.79.48-1.19 6.25-5.74 9.52-13.31 11.25-21.21 1.48-6.73 3.7-13.5 3.05-20.62-.08-.91-.23-1.92.28-2.81-1.54-4.84-3.09-9.68-4.63-14.51-2.25-3.79-4.52-7.54-7.2-11.08-5.29-7-11.97-12.18-19.59-16.3-.75-.4-1.52-.76-1.94-1.57-.03-.18-.07-.35-.1-.53-3.09-2.39-2.71-5.12-.79-8.01 1.33.31 2.27 1.16 2.98 2.26 1.5 2.31 3.4 2.86 5.8 1.41.52-.2 1.04-.4 1.55-.59 1.35.75 2.06 2.05 2.91 3.24 1.95 2.74 4.39 4.7 8 4.61 5.69 2.22 14.32 6.39 22.84 14.17a73.213 73.213 0 0114.34 17.96c7.82 7.28 8.13 15.87 4.83 25.38-3.31 9.52-6.22 19.17-9.24 28.79-.88 2.81-1.05 5.73-.47 8.65.46 2.31 1.51 4.11 4.16 4.34z"/><path class="st340" d="M346.83 98.37c-.01.22-.04.43-.09.65-4.54 8.37-11.94 12.38-21 14.27-18.23 3.81-35.11.01-50.38-9.87-11.13-7.2-17.5-18.17-19.52-31.46-.29-1.93.09-3.56 1.14-5.12-1.66-5.88-1.66-5.89-8-6.63-6.24-.74-12.47-1.64-18.79-1.21-3.49 1-3.18-2.34-4.35-3.9-.72-.96-.46-2.27-.5-3.44.03-2.88.77-5.46 2.93-7.56 2.57-2.49 3.63-2.61 6.91-.51 6.6.11 13.18.42 19.71 1.49 2.88 1.27 3.65-.67 4.27-2.81 3.62-12.61 10.35-22.98 21.86-29.74 13.71-8.05 28.1-10.28 43.29-4.49.67.26 1.41.34 2.11.5l-.04.04c1.38.89 2.64 1.89 4.26 2.49 2.98 1.1 3.27 2.96 1.14 5.18-1.83 1.02-3.27-.28-4.78-.88-15.03-6.01-29.75-5.66-43.7 2.86-19.15 11.69-27.09 35.86-19.1 57.08 5.03 13.35 14.48 22.25 27.86 26.89 9.15 3.17 18.52 4.49 28.32 3.28 8.89-1.1 16.16-4.79 22.38-11.06 1.41-1.42 2.56-3.85 5.37-2.79 1.32.87 1.19 2.05.53 3.19-.69 1.15-1.22 2.37-1.83 3.55z"/><path class="st340" d="M259.29 36.32c-1.9 1.37-3.86 1.85-6 .53-2.21-1.37-2.12-3.52-2.07-5.72.08-3 2.09-5.3 2.79-8.07 1.01-.4 1.99-.93 3.03-1.17 3.49-.8 5.43.79 5.2 4.4-.22 3.54-1.39 6.86-2.95 10.03z"/><path class="st339" d="M200.92 151.61c5.76-.52 11.43-1.96 17.28-1.62 7.24-2.68 14.76-2.67 22.33-2.48 15.59.4 30.89 2.41 45.56 8.02 2.51.96 4.77 2.33 6.96 3.86.48 1.3 1.44 2.23 2.66 2.71 1.69.66 2.58 1.83 2.88 3.55.65 5.18-.69 10.31-.37 15.48.8 12.84.37 25.7.33 38.54-.03 11.13-.41 22.26-.24 33.38.28 17.84-.75 35.66-.22 53.5.11 3.87.13 7.74.38 11.6.13 1.95-.43 3.19-2.49 3.43-2.54.29-5.11.55-7.59-.23-11.21-3.55-22.82-4.61-34.44-5.26-14.78-.83-29.59-.75-44.35.65-8.72.82-17.37 2.03-25.6 5.31-1.53.61-3.11 1.55-4.88.64-1.78-2.09-1.18-4.63-1.18-6.98-.06-40.78.07-81.56-.1-122.34-.05-11.17 1.02-22.3.81-33.46-.06-3.33 1.47-4.75 4.58-5.48 5.83-1.38 11.77-1.99 17.69-2.82z"/><path class="st1" d="M425.57 312.03c-1.76 3.39-1.29 7.09-1.44 10.69-.23 5.29-.96 6.08-6.29 6.11-10.86.06-21.5-2.18-32.23-3.35-21.05-2.29-42.11-3.49-63.27-1.91-1.57.12-3.16.08-4.74.15-4.33.19-8.02 1.19-11.18 4.83-5.15 5.92-10.74 6.09-15.94.26-3.7-4.15-7.97-4.8-12.91-5.16-30.81-2.27-61.1 1.54-91.2 7.63-2.84.58-5.77.88-8.67 1.02-2.63.13-4.17-1.16-4.68-4-.95-5.31-.13-10.7-1.07-15.98-.2-1.14.46-2.9-1.6-3.17 2.33-5.62 1.42-11.53 1.14-17.27-1.04-21.24-.39-42.48-.64-63.72-.24-20.4.48-40.78.93-61.16.03-1.21.13-2.43.28-3.63 1.01-7.92 1.49-8.51 9.31-9.92 6.45-1.16 12.99-1.63 19.54-1.84-5.48 1.57-11.21 1.98-16.65 3.8-2.67.89-3.91 2.26-3.96 5.21-.91 53.39-.47 106.78-.7 160.17 0 .48.05.97.08 1.45 1.85 1.19 3.84.53 5.67.17 15.65-3.04 31.46-4.3 47.37-5.19 16.48-.92 32.73.46 49.01 2.34 3.74.43 7 1.95 10.11 3.88 4.65 2.88 9.07 2.88 13.55-.42 5.2-3.82 11.57-3.82 17.53-4.61 14.09-1.87 28.27-2.88 42.51-2.39 15.07.53 30.05 1.86 44.72 5.61 4.39 1.12 4.35.88 5.03-3.7 1.91-12.81 1.22-25.67 1.25-38.52.08-33.29-.01-66.57.05-99.86.01-6.22-1.45-12.26-1.9-18.41-.65-2.09-2.26-3.07-4.24-3.57-4.11-1.05-8.18-2.29-12.41-2.83-1.42-.18-3.43.11-3.03-2.44 7.52-.01 15.04-.21 22.55.65 6.35.72 7.84 1.93 7.95 8.36.19 11.29.18 22.58.17 33.88-.02 30.11-.04 60.23-.14 90.34-.02 6.55-.38 13.1-.61 19.64-.07 2.34.11 4.62.75 6.86z"/><path class="st339" d="M394.92 152.31c5.55.95 11.1 1.96 16.52 3.54 2.18.63 4.49 1.15 5.43 3.66.6 1.15.32 2.39.32 3.59.02 51.79.01 103.57.01 155.36 0 4.6-.63 5.05-5.04 3.66-12.14-3.84-24.63-5.3-37.3-6.21-17.21-1.23-34.23.2-51.24 2.34-5.2.65-10.45 1.38-15.47 3.06-.23.08-.46.15-.69.2-7.06 1.55-9.15-.2-9.31-7.32-.57-25.04.35-50.08.19-75.13-.1-15.84.58-31.7.13-47.54-.24-8.51.13-17.01-.11-25.51-.24-3.41 2.06-4.02 4.7-4.25 5.31-4.63 11.91-6.31 18.47-8.01 11.46-2.97 23.11-4.06 34.94-3.65 4.6.16 9.21-.06 13.82-.11 8.3-.11 16.47 1.03 24.63 2.32z"/><path class="st340" d="M346.83 98.37c-.2-2.02 1.86-3.81.61-5.95-1.55-1.79-.14-3.16.69-4.56 5.62-9.46 8.83-19.49 8.63-30.68-.21-11.36-5.18-20.49-12.16-28.83-3.28-3.92-7.15-7.24-11.65-9.76-1.32-.74-2.58-1.58-1.56-3.42.49-1.8-.09-3.12-1.88-3.71-1.52-.5-2.33-1.67-3.14-2.89 5.66 2.5 20.38 9.93 28.88 26.54 3.28 6.41 4.76 12.49 5.45 17.22.16 13.05-2.28 25.55-7.96 37.36-1.55 3.19-3.5 6.09-5.91 8.68z"/><path class="st141" d="M331.39 15.18c6.21 4.06 12.11 8.44 16.77 14.37 14.34 18.26 13.23 39.12 2.17 58.24-.91 1.58-1.92 3.1-2.88 4.64-2.47 2.33-4.82 4.81-7.44 6.97-10.74 8.88-23.38 9.39-36.31 7.6-16.08-2.23-29.57-9.21-37.8-23.74-17.85-31.52 2.09-69.78 36.14-73.42 10.43-1.13 19.97 1.32 29.35 5.34zM299.4 165.46c.94 36.44.85 72.89.57 109.34-.1 12.74-.65 25.49-.59 38.24.03 6.69 1.13 7.74 7.78 6.84 2.88-.39 5.72-1.16 8.53-1.91 8.5-2.29 17.24-2.98 25.94-3.65 18.58-1.43 37.13-1.01 55.54 2.11 5.5.93 11.01 2.05 16.14 4.39 2.56 1.17 3.57.45 3.54-2.33-.07-6.44-.02-12.88-.02-19.32.01-46.55.02-93.1.04-139.64.87 1.57.7 3.3.7 4.99.01 51.02.01 102.05 0 153.07 0 6.55-1.16 7.55-7.6 5.96-20.1-4.95-40.54-6.32-61.12-5.56-12.37.46-24.68 1.96-36.96 3.63-2.61.35-4.34 2.1-6.23 3.58-4.11 3.22-8.64 3.95-12.83.94-6.41-4.61-13.74-5.24-21.09-5.97-26.49-2.62-52.86-1.42-79.11 2.86-3 .49-5.97 1.13-8.95 1.69-2.07.39-3.66-.02-4-2.45 8.73-5.23 18.62-5.95 28.35-7.33 8.08-1.15 16.27-1.11 24.35-1.19 17.47-.17 34.97.57 52.16 4.35 2.58.57 4.89 2.06 7.7 1.99 4.34-.12 4.98-.5 4.89-4.74-.08-4-.64-7.99-.65-11.99-.07-21.87-.23-43.75.03-65.62.25-21.21.76-42.41.68-63.63-.01-2.9.91-5.8-.02-8.69.77-.7 1.51-.73 2.23.04z"/><path class="st141" d="M194.28 242.2c1.07-1.85 2.55-1.72 3.76-2.04 16.31-4.29 32.77-4.32 49.44-2.32 12.52 1.5 24.49 4.79 36.3 8.94 1.52.53 4.53.69 3.79 2.83-.54 1.59-2.99-.16-4.52-.56-15.49-4.06-30.85-8.76-46.97-9.82-9.86-.65-19.63.5-29.39 1.66-4.01.46-8.04.85-12.41 1.31zm-.53-20.23c3.98-.86 7.94-1.87 11.95-2.54 26.77-4.47 53.02-2.6 78.64 6.6.57.2 1.16.39 1.68.69.89.52 1.62 1.26 1.19 2.37-.47 1.2-1.54.99-2.5.71-3.73-1.1-7.45-2.23-11.17-3.35-14.84-4.48-29.88-7.77-45.52-7.07-10.21.46-20.32 1.75-30.38 3.54-1.24.21-2.5.94-3.89-.95zm2.91 79.12c2.94-2.56 6.49-2.87 9.87-3.5 27.12-5.1 53.7-1.97 79.96 5.56 1.02.29 2.61.47 2.37 1.78-.32 1.73-1.94.96-3.03.75-9.78-1.87-19.58-3.7-29.33-5.73-14.57-3.03-29.17-2.76-43.81-.77-5.33.73-10.69 1.28-16.03 1.91zm-2.42-22.01c9.75-2.9 18.89-4.5 28.25-5.04 16.58-.95 32.69 1.85 48.58 6.11 5.24 1.41 10.23 3.75 15.33 5.68.95.36 1.98.97 1.61 2.07-.55 1.62-1.85.68-2.75.33-5.19-2.03-10.37-4.02-15.74-5.62-23.31-6.93-46.84-7.34-70.61-3.16-1.29.24-2.58.78-4.67-.37zm.45-76.91c13.65-10.51 81.2-4.1 92.6 8.96-15.64-4.56-30.35-9.79-45.96-11.5-15.7-1.71-31.17-.39-46.64 2.54zm.4-18.68c.26-1.46 1.34-1.6 2.22-1.79 29.77-6.63 58.83-5.01 86.9 7.66.66.3 1.32.61 1.96.96.95.51 2.3 1.02 1.7 2.34-.67 1.49-1.9.42-2.82.06-6.66-2.59-13.2-5.44-20.12-7.44-10.1-2.92-20.35-4.68-30.78-5.24-12.66-.68-25.23.34-37.61 3.26-.44.11-.89.12-1.45.19zm-.53-18.08c3.28-2.58 7.12-3.38 10.85-4.12 13.32-2.62 26.7-2.59 40.17-.71 10.24 1.43 20.51 2.51 30.22 6.33 3.5 1.38 6.92 2.93 10.38 4.42 1.11.48 2.18 1.02 2.55 3.1-30.85-11.22-61.67-18.9-94.17-9.02zm.86 95.52c31.52-8.4 61.05-3.28 90.22 6.6-3.89 1.25-7.48-.48-11.05-1.44-10.43-2.81-20.85-5.72-31.61-6.8-13.55-1.37-27.11-1.15-40.53 1.62-1.97.4-3.94 1.19-7.03.02zm117.26 43.69c1.11-1.24 2.49-1.41 3.75-1.75 20.65-5.56 41.59-8.84 63.06-7.63 8.15.46 16.15 2 24.05 3.99 1.04.26 2.82.48 2.23 2.19-.46 1.33-1.87.66-2.9.44-11.91-2.54-24-3.99-36.12-4.27-11.54-.27-22.96 1.96-34.3 4.14-5.96 1.15-11.91 2.32-17.87 3.47-.59.11-1.22.17-1.9-.58zm-1.78-76.07c3.83-3.63 8.66-4.04 13.16-5.37 13.61-4.01 27.62-5.76 41.73-5.87 11.79-.09 23.48 1.7 34.89 4.9 1.29.36 2.99.62 2.49 2.41-.47 1.68-2.17 1.28-3.44.98-7.1-1.65-14.21-3.11-21.43-4.24-19.27-3.03-38.01-.66-56.58 4.52-3.58 1-7.22 1.79-10.82 2.67zm95.67-56.91c-1.5 1.1-2.77.27-4 .02-13.1-2.72-26.23-5.42-39.65-5.46-14.07-.04-27.81 2.47-41.15 7.01-2.87.98-5.77 1.88-8.66 2.81-.88.28-2.09 1.17-2.58.04-.57-1.29 1-1.43 1.81-1.7 5.2-1.7 10.36-3.54 15.65-4.91 14.16-3.7 28.52-6.2 43.22-5.47 10.81.54 21.55 1.79 31.84 5.47 1.23.44 2.67.57 3.52 2.19zm-94.61 36.3c19.23-12.25 79.47-12.39 91.27-.32-30.48-10.8-60.87-7.71-91.27.32zm-.92-15.72c1.82-2.11 3.62-2.21 5.21-2.65 19.13-5.29 38.42-9.61 58.47-8.86 9.71.36 18.95 2.7 27.81 6.6 1.09.48 2.51 1.02 1.99 2.56-.37 1.11-1.43.47-2.19.16-19.64-8.25-39.85-8.49-60.42-4.51-9.17 1.77-18.36 3.4-27.36 5.97-.9.25-1.84.39-3.51.73zm-1.22 95.88c.77-1.32 1.98-1.29 2.96-1.59 13.73-4.23 27.73-6.68 42.13-7.48 12.89-.71 25.69-1.16 38.39 1.53 3.19.68 6.28 1.82 9.4 2.81.91.29 2.13.74 1.82 1.89-.41 1.51-1.77.91-2.76.62-4.99-1.47-9.92-3.04-15.08-4.07-15.4-3.07-30.68-1.74-45.93.59-9.1 1.39-18.23 2.73-27.08 5.44-1.11.36-2.3.84-3.85.26zm.89-39.98c17.94-11.03 80.07-12.84 91.1-2.58-30.69-9.34-60.92-4.73-91.1 2.58zm2.68 18.54c5.31-2.38 10.8-4.14 16.51-5.2 13.76-2.55 27.56-4.77 41.61-4.11 9.23.43 18.37 1.77 27.37 3.94.82.2 1.6.57 2.38.91.64.28 1.64.51 1.39 1.37-.34 1.16-1.38.63-2.16.44-5.78-1.46-11.67-2.27-17.55-3.18-14.94-2.31-29.77-1.49-44.59 1.13-7.65 1.35-15.32 2.59-22.85 4.53-.68.17-1.41.12-2.11.17z"/><path class="st339" d="M349.78 55.12c-.14 23.26-10.88 38.38-28.17 44.13-14.34 4.77-32.45-.34-42.14-11.93-11.29-13.51-14.07-29.04-7.87-45.09 9.16-23.73 35.47-32.18 56.04-21 14.97 8.14 21.63 21.64 22.14 33.89z"/><path class="st1" d="M338.77 54.51c2.6 23.34-22.03 40.03-42.44 31.04-14.04-6.18-20.65-23.43-14.24-37.39.5-1.1.87-2.26 1.3-3.39 5.12-6.82 12.89-8.74 20.49-9.99 13.54-2.24 24.36 3.21 32.74 13.83 1.36 1.73 2.2 3.65 2.15 5.9z"/><path class="st340" d="M338.77 54.51c-1.87-2.84-3.93-5.55-6.34-7.94-12.46-12.35-26.5-14.2-45.18-3.65-1.24.7-2.24 1.93-3.85 1.86-.57-5.31 1.87-9.27 6.11-11.95 13.44-8.5 32.2-9.37 45.13 4.67 4.47 4.85 6.25 10.48 4.13 17.01zm8.73-42.46c-3.3 3.08-5.82.78-8.2-1.33-2.04-1.81-3.32-4.14-3.35-6.99 3.39-.84 5.32 1.65 7.41 3.47 1.58 1.38 2.77 3.21 4.14 4.85zm-14.2-7.69c.31 1.54.48 3.23-1.06 4.07-1.58.87-2.88-.46-4.04-1.37-2.14-1.69-3.44-3.98-4.2-6.59 4.45-1.94 6.41 2.1 9.3 3.89z"/></svg>