<?xml version="1.0" encoding="utf-8"?>
<!-- Generator: Adobe Illustrator 24.2.3, SVG Export Plug-In . SVG Version: 6.00 Build 0)  -->
<svg version="1.1" id="Слой_1" xmlns="http://www.w3.org/2000/svg" xmlns:xlink="http://www.w3.org/1999/xlink" x="0px" y="0px"
	 viewBox="0 0 585 357" style="enable-background:new 0 0 585 357;" xml:space="preserve">
<style type="text/css">
	.st0{fill:#000600;}
	.st1{fill:#0071C5;}
	.st2{clip-path:url(#SVGID_2_);fill:#83D5FB;}
	.st3{clip-path:url(#SVGID_2_);fill:#00ABF0;}
	.st4{clip-path:url(#SVGID_2_);fill:#57CAF9;}
	.st5{clip-path:url(#SVGID_2_);fill:#0071C5;}
	.st6{clip-path:url(#SVGID_2_);fill:#31C5F8;}
	.st7{clip-path:url(#SVGID_2_);fill:#3DD1F9;}
	.st8{clip-path:url(#SVGID_4_);fill:#00ABF0;}
	.st9{clip-path:url(#SVGID_4_);fill:#83D5FB;}
	.st10{clip-path:url(#SVGID_4_);fill:#31C5F8;}
	.st11{clip-path:url(#SVGID_4_);fill:#0071C5;}
	.st12{clip-path:url(#SVGID_4_);fill:#57CAF9;}
	.st13{clip-path:url(#SVGID_4_);fill:#A6A6A6;}
	.st14{opacity:0.14;fill:#000600;}
	.st15{clip-path:url(#SVGID_8_);fill:#C980DD;}
	.st16{clip-path:url(#SVGID_8_);fill:#E7B3EE;}
	.st17{clip-path:url(#SVGID_8_);fill:#8C9295;}
	.st18{clip-path:url(#SVGID_8_);fill:#921C9F;}
	.st19{clip-path:url(#SVGID_8_);fill:#CDD0D3;}
	.st20{clip-path:url(#SVGID_8_);fill:#DFDBD1;}
	.st21{clip-path:url(#SVGID_8_);fill:#543F31;}
	.st22{clip-path:url(#SVGID_8_);fill:#C38A75;}
	.st23{clip-path:url(#SVGID_8_);fill:#B3B9BC;}
	.st24{clip-path:url(#SVGID_8_);fill:#8B9295;}
	.st25{clip-path:url(#SVGID_8_);fill:#D59C87;}
	.st26{fill:#E7B3EE;}
	.st27{clip-path:url(#SVGID_10_);}
	.st28{fill:#D6A1E6;}
	.st29{fill:#C980DD;}
	.st30{clip-path:url(#SVGID_12_);fill:#FFE050;}
	.st31{opacity:0.5;clip-path:url(#SVGID_12_);}
	.st32{fill:#A2C9FF;}
	.st33{fill:#FF8B00;}
	.st34{clip-path:url(#SVGID_12_);fill:#FFECA0;}
	.st35{clip-path:url(#SVGID_12_);}
	.st36{fill:#F9C956;}
	.st37{fill:#FFECA0;}
	.st38{fill:#2A356B;}
	.st39{clip-path:url(#SVGID_12_);fill:#F9C956;}
	.st40{clip-path:url(#SVGID_12_);fill:#A2C9FF;}
	.st41{clip-path:url(#SVGID_12_);fill:#FF8B00;}
	.st42{clip-path:url(#SVGID_12_);fill:#2A356B;}
	.st43{fill:#1B254E;}
	.st44{clip-path:url(#SVGID_12_);fill:#C22C28;}
	.st45{clip-path:url(#SVGID_12_);fill:#FF7400;}
	.st46{fill:#FFE050;}
	.st47{clip-path:url(#SVGID_12_);fill:#FFEB82;}
	.st48{clip-path:url(#SVGID_14_);fill:#FFE286;}
	.st49{fill:#FFFFFF;}
	.st50{fill:#ACD7C2;}
	.st51{fill:none;stroke:#FFFFFF;stroke-miterlimit:10;}
	.st52{fill:#A1CAAA;}
	.st53{fill:#95CCA0;}
	.st54{opacity:0.76;}
	.st55{fill:#C3E8CC;}
	.st56{fill:url(#SVGID_15_);}
	.st57{fill:url(#SVGID_16_);}
	.st58{fill:url(#SVGID_17_);}
	.st59{fill:#F5E5BD;}
	.st60{fill:url(#SVGID_18_);}
	.st61{fill:url(#SVGID_19_);}
	.st62{fill:url(#SVGID_20_);}
	.st63{fill:url(#SVGID_21_);}
	.st64{fill:url(#SVGID_22_);}
	.st65{fill:url(#SVGID_23_);}
	.st66{fill:#E3EDC3;}
	.st67{fill:#EEFAD1;}
	.st68{fill:url(#SVGID_24_);}
	.st69{fill:url(#SVGID_25_);}
	.st70{fill:url(#SVGID_26_);}
	.st71{fill:url(#SVGID_27_);}
	.st72{fill:url(#SVGID_28_);}
	.st73{fill:#FFE392;}
	.st74{clip-path:url(#SVGID_30_);fill:url(#SVGID_31_);}
	.st75{fill:#5B2A1E;}
	.st76{fill:#8F7673;}
	.st77{fill:url(#SVGID_32_);}
	.st78{fill:url(#SVGID_33_);}
	.st79{fill:url(#SVGID_34_);}
	.st80{fill:url(#SVGID_35_);}
	.st81{fill:#F79291;}
	.st82{fill:url(#SVGID_36_);}
	.st83{fill:#FF9D5B;}
	.st84{opacity:0.75;fill:#FFFFFF;}
	.st85{fill:#FFC28E;}
	.st86{fill:none;}
	.st87{clip-path:url(#SVGID_38_);fill:#FFE0C3;}
	.st88{clip-path:url(#SVGID_38_);fill:#FF9F36;}
	.st89{clip-path:url(#SVGID_38_);fill:#FFF3E2;}
	.st90{clip-path:url(#SVGID_40_);fill:#FAC1E3;}
	.st91{opacity:0.8;clip-path:url(#SVGID_40_);fill:#EF8FC7;}
	.st92{clip-path:url(#SVGID_40_);fill:#EF8FC7;}
	.st93{opacity:0.79;clip-path:url(#SVGID_40_);fill:#FAC1E3;}
	.st94{fill:url(#SVGID_41_);}
	.st95{fill:#FFFDEC;}
	.st96{fill:#78CB99;}
	.st97{fill:#B2E1C4;}
	.st98{fill:#D8EFE2;}
	.st99{opacity:0.44;fill:#FFFFFF;}
	.st100{clip-path:url(#SVGID_43_);fill:#FFF7C8;}
	.st101{fill:url(#SVGID_44_);}
	.st102{fill:url(#SVGID_45_);}
	.st103{opacity:0.86;fill:#FFD0D7;}
	.st104{fill:url(#SVGID_46_);}
	.st105{opacity:0.66;}
	.st106{opacity:0.37;fill:#FFFFFF;}
	.st107{opacity:0.4;}
	.st108{opacity:0.26;fill:#FFFFFF;}
	.st109{opacity:0.62;fill:#FFFFFF;}
	.st110{opacity:0.41;fill:#FFFFFF;}
	.st111{opacity:0.69;fill:#FFFFFF;}
	.st112{opacity:0.73;fill:#FFFFFF;}
	.st113{opacity:0.16;fill:#FFFFFF;}
	.st114{opacity:0.3;fill:#FFFFFF;}
	.st115{opacity:0.23;fill:#FFFFFF;}
	.st116{opacity:0.24;fill:#FFFFFF;}
	.st117{opacity:0.43;fill:#FFFFFF;}
	.st118{opacity:0.76;fill:#FFFFFF;}
	.st119{opacity:0.08;fill:#FFFFFF;}
	.st120{opacity:0.27;fill:#FFFFFF;}
	.st121{opacity:0.46;}
	.st122{opacity:0.86;fill:#FFFFFF;}
	.st123{opacity:0.54;fill:#FFFFFF;}
	.st124{opacity:0.28;}
	.st125{clip-path:url(#SVGID_48_);fill:#F17171;}
	.st126{clip-path:url(#SVGID_48_);fill:#F79291;}
	.st127{clip-path:url(#SVGID_48_);fill:#FFC5C4;}
	.st128{clip-path:url(#SVGID_48_);fill:#FFFFFF;}
	.st129{clip-path:url(#SVGID_50_);}
	.st130{fill:#FF7B89;}
	.st131{clip-path:url(#SVGID_50_);fill:none;}
	.st132{fill:none;stroke:#FFFFFF;stroke-width:2;stroke-miterlimit:10;}
	.st133{opacity:0.45;fill:#FFFFFF;}
	.st134{opacity:0.8;fill:#FFFFFF;}
	.st135{opacity:0.79;fill:#FFFFFF;}
	.st136{fill:#F1C4A9;}
	.st137{fill:none;stroke:#FFFFFF;stroke-width:0.75;stroke-miterlimit:10;}
	.st138{fill:#FFFFFF;stroke:#FFFFFF;stroke-width:0.25;stroke-miterlimit:10;}
	.st139{fill:#00A5C4;}
	.st140{fill:#31C5F8;}
	.st141{fill:#57CAF9;}
	.st142{fill:#00A8B8;}
	.st143{fill:#EA90A7;}
	.st144{fill:#91693D;}
	.st145{fill:#F2BECD;}
	.st146{fill:#D87290;}
	.st147{fill:#574435;}
	.st148{fill:#C8A37C;}
	.st149{fill:#641F1E;}
	.st150{fill:#E16C8D;}
	.st151{fill:#D63665;}
	.st152{fill:#DDB689;}
	.st153{fill:#F64776;}
	.st154{fill:#DEB689;}
	.st155{fill:#F2769B;}
	.st156{fill:#FAFAF8;}
	.st157{fill:#F7C3DB;}
	.st158{fill:#E3B9B4;}
	.st159{fill:#FFBEC5;}
	.st160{fill:#FFC9D7;}
	.st161{fill:#C73F69;}
	.st162{fill:#F7F7F7;}
	.st163{fill:#F2F2F2;}
	.st164{fill:#FFFBF1;}
	.st165{fill:#F8C3D1;}
	.st166{fill:#FC7798;}
	.st167{fill:#FFC5C4;}
	.st168{fill:#FFD0D7;}
	.st169{fill:#B39D8E;}
	.st170{fill:#FFE4EB;}
	.st171{fill:#F1F1F1;}
	.st172{fill:#FFA5B2;}
	.st173{fill:#A2C4DB;}
	.st174{fill:#583B34;}
	.st175{fill:#B1CFE4;}
	.st176{fill:#FBFBFA;}
	.st177{fill:#E0CFC7;}
	.st178{fill:#D9946B;}
	.st179{fill:#FFEBF2;}
	.st180{fill:#FCDDE6;}
	.st181{fill:#F2CCC1;}
	.st182{fill:#DF4E50;}
	.st183{fill:#45BC7A;}
	.st184{fill:#87E4AE;}
	.st185{fill:#00AC5F;}
	.st186{fill:#7FD9A9;}
	.st187{fill:#F1BB3A;}
	.st188{fill:#B89E65;}
	.st189{fill:#97D183;}
	.st190{fill:#3C3724;}
	.st191{fill:#D5BDA1;}
	.st192{fill:#9B8174;}
	.st193{fill:#587147;}
	.st194{fill:#E6D5BD;}
	.st195{fill:#5CC588;}
	.st196{clip-path:url(#SVGID_58_);fill:#B2E1C4;}
	.st197{clip-path:url(#SVGID_58_);fill:#FFFFFF;}
	.st198{clip-path:url(#SVGID_58_);fill:#78CB99;}
	.st199{fill:#FFEB82;}
	.st200{fill:#FFDF47;}
	.st201{clip-path:url(#SVGID_60_);fill:#F3A368;}
	.st202{clip-path:url(#SVGID_60_);fill-rule:evenodd;clip-rule:evenodd;fill:#FF8D4F;}
	.st203{clip-path:url(#SVGID_60_);fill:#E45C26;}
	.st204{clip-path:url(#SVGID_60_);fill:#F8B846;}
	.st205{fill:#E45C26;}
	.st206{fill:#FF8D4F;}
	.st207{fill:#FFAB33;}
	.st208{fill:#E46D00;}
	.st209{fill:#EE6406;}
	.st210{fill:#FF9B00;}
	.st211{fill:#130077;}
	.st212{fill:#FFBA98;}
	.st213{opacity:0.3;}
	.st214{fill:#FF7300;}
	.st215{fill:#6E0000;}
	.st216{fill-rule:evenodd;clip-rule:evenodd;fill:#FF9B00;}
	.st217{fill-rule:evenodd;clip-rule:evenodd;fill:url(#SVGID_61_);}
	.st218{opacity:0.3;fill-rule:evenodd;clip-rule:evenodd;fill:#A3002C;}
	.st219{fill-rule:evenodd;clip-rule:evenodd;fill:url(#SVGID_62_);}
	.st220{fill-rule:evenodd;clip-rule:evenodd;fill:url(#SVGID_63_);}
	.st221{opacity:0.5;fill-rule:evenodd;clip-rule:evenodd;fill:url(#SVGID_64_);}
	.st222{fill-rule:evenodd;clip-rule:evenodd;fill:#FFC384;}
	.st223{fill-rule:evenodd;clip-rule:evenodd;fill:url(#SVGID_65_);}
	.st224{fill-rule:evenodd;clip-rule:evenodd;fill:url(#SVGID_66_);}
	.st225{fill-rule:evenodd;clip-rule:evenodd;fill:url(#SVGID_67_);}
	.st226{opacity:0.5;fill-rule:evenodd;clip-rule:evenodd;fill:url(#SVGID_68_);}
	.st227{fill-rule:evenodd;clip-rule:evenodd;fill:#F3A368;}
	.st228{opacity:0.5;fill-rule:evenodd;clip-rule:evenodd;fill:#F3A368;}
	.st229{fill-rule:evenodd;clip-rule:evenodd;fill:#FF8D4F;}
	.st230{fill-rule:evenodd;clip-rule:evenodd;fill:#FFAB33;}
	.st231{opacity:0.62;fill-rule:evenodd;clip-rule:evenodd;fill:#C7002A;}
	.st232{opacity:0.5;fill-rule:evenodd;clip-rule:evenodd;fill:#FF8D4F;}
	.st233{opacity:0.5;fill-rule:evenodd;clip-rule:evenodd;fill:#8E5472;}
	.st234{opacity:0.3;fill-rule:evenodd;clip-rule:evenodd;fill:url(#SVGID_69_);}
	.st235{opacity:0.5;fill-rule:evenodd;clip-rule:evenodd;fill:url(#SVGID_70_);}
	.st236{opacity:0.3;fill-rule:evenodd;clip-rule:evenodd;fill:url(#SVGID_71_);}
	.st237{opacity:0.3;fill-rule:evenodd;clip-rule:evenodd;fill:url(#SVGID_72_);}
	.st238{clip-path:url(#SVGID_74_);}
	.st239{clip-path:url(#SVGID_74_);fill:#FF8D4F;}
	.st240{fill:#F3A368;}
	.st241{clip-path:url(#SVGID_76_);}
	.st242{fill:#E98B38;}
	.st243{clip-path:url(#SVGID_78_);}
	.st244{fill:#F8B846;}
	.st245{clip-path:url(#SVGID_80_);}
	.st246{clip-path:url(#SVGID_80_);fill:#FF8D4F;}
	.st247{fill-rule:evenodd;clip-rule:evenodd;fill:url(#SVGID_81_);}
	.st248{fill-rule:evenodd;clip-rule:evenodd;fill:url(#SVGID_82_);}
	.st249{fill-rule:evenodd;clip-rule:evenodd;fill:url(#SVGID_83_);}
	.st250{opacity:0.5;fill-rule:evenodd;clip-rule:evenodd;fill:url(#SVGID_84_);}
	.st251{fill-rule:evenodd;clip-rule:evenodd;fill:url(#SVGID_85_);}
	.st252{fill-rule:evenodd;clip-rule:evenodd;fill:url(#SVGID_86_);}
	.st253{fill-rule:evenodd;clip-rule:evenodd;fill:url(#SVGID_87_);}
	.st254{opacity:0.5;fill-rule:evenodd;clip-rule:evenodd;fill:url(#SVGID_88_);}
	.st255{opacity:0.3;fill-rule:evenodd;clip-rule:evenodd;fill:url(#SVGID_89_);}
	.st256{opacity:0.5;fill-rule:evenodd;clip-rule:evenodd;fill:url(#SVGID_90_);}
	.st257{opacity:0.3;fill-rule:evenodd;clip-rule:evenodd;fill:url(#SVGID_91_);}
	.st258{opacity:0.3;fill-rule:evenodd;clip-rule:evenodd;fill:url(#SVGID_92_);}
	.st259{opacity:0.88;fill:#FFFEF4;}
	.st260{fill:#FFCF66;}
	.st261{fill:#AFABAC;}
	.st262{fill:#FFE286;}
	.st263{fill:#FFE787;}
	.st264{fill:#F6C700;}
	.st265{fill:#FFEA96;}
	.st266{clip-path:url(#SVGID_94_);fill:#F9C956;}
	.st267{clip-path:url(#SVGID_94_);fill:#FFE050;}
	.st268{clip-path:url(#SVGID_96_);fill:#921C9F;}
	.st269{opacity:0.5;clip-path:url(#SVGID_96_);}
	.st270{fill:#921C9F;}
	.st271{clip-path:url(#SVGID_96_);}
	.st272{clip-path:url(#SVGID_98_);fill:#D6A1E6;}
	.st273{fill:#BC59D3;}
	.st274{opacity:0.5;fill:#FFFFFF;}
	.st275{opacity:0.5;fill:#FFFFFF;stroke:#FFFFFF;stroke-miterlimit:10;}
	.st276{opacity:0.68;fill:#FFFFFF;}
	.st277{fill:#E9CBF2;}
	.st278{fill:#D9A2E1;}
	.st279{fill:#AA7B41;}
	.st280{fill:#8C9295;}
	.st281{fill:#CDD0D3;}
	.st282{fill:#DFDBD1;}
	.st283{fill:#543F31;}
	.st284{fill:#C38A75;}
	.st285{fill:#B3B9BC;}
	.st286{fill:#8B9295;}
	.st287{fill:#D59C87;}
	.st288{fill:#3DD1F9;}
	.st289{fill:#F92405;}
	.st290{fill:#B30000;}
	.st291{fill:#FA3C20;}
	.st292{fill:#E2A080;}
	.st293{fill:#950000;}
	.st294{fill:#F50000;}
	.st295{clip-path:url(#SVGID_100_);fill:#EA90A7;}
	.st296{clip-path:url(#SVGID_100_);fill:#FFEBF2;}
	.st297{clip-path:url(#SVGID_100_);fill:#D3CFB3;}
	.st298{clip-path:url(#SVGID_100_);fill:#FCDDE6;}
	.st299{clip-path:url(#SVGID_100_);}
	.st300{clip-path:url(#SVGID_100_);fill:#FFC9D7;}
	.st301{fill:#FA90B4;}
	.st302{fill:#BCA494;}
	.st303{fill:#63443C;}
	.st304{fill:#CFABA0;}
	.st305{fill:#A1C3DA;}
	.st306{fill:#9B7972;}
	.st307{fill:#77573F;}
	.st308{fill-rule:evenodd;clip-rule:evenodd;fill:#FA3C20;}
	.st309{fill-rule:evenodd;clip-rule:evenodd;fill:#D00707;}
	.st310{fill-rule:evenodd;clip-rule:evenodd;fill:#F92405;}
	.st311{fill-rule:evenodd;clip-rule:evenodd;fill:#F50000;}
	.st312{fill-rule:evenodd;clip-rule:evenodd;fill:#F95F53;}
	.st313{fill:#F95F53;}
	.st314{clip-path:url(#SVGID_102_);fill:#574435;}
	.st315{clip-path:url(#SVGID_102_);fill:#C8A37C;}
	.st316{clip-path:url(#SVGID_102_);fill:#91693D;}
	.st317{clip-path:url(#SVGID_102_);fill:#D00707;}
	.st318{clip-path:url(#SVGID_102_);fill:#FA3C20;}
	.st319{clip-path:url(#SVGID_102_);fill:#950000;}
	.st320{clip-path:url(#SVGID_102_);fill:#F95F53;}
	.st321{clip-path:url(#SVGID_102_);fill:#131212;}
	.st322{clip-path:url(#SVGID_102_);fill:#B30000;}
	.st323{clip-path:url(#SVGID_102_);fill:#412A1A;}
	.st324{clip-path:url(#SVGID_102_);fill:#DEC6AF;}
	.st325{clip-path:url(#SVGID_102_);fill:#BF855C;}
	.st326{fill:#D00707;}
	.st327{fill:#AB9DB8;}
	.st328{fill:#381A12;}
	.st329{fill:#EBCBB8;}
	.st330{fill:#AC9EBB;}
	.st331{fill:#F8F6F5;}
	.st332{fill:#0A345E;}
	.st333{fill:#412A1A;}
	.st334{fill:#131212;}
	.st335{fill:#DEC6AF;}
	.st336{fill:#BF855C;}
	.st337{opacity:0.79;fill:#FFBEC5;}
	.st338{opacity:0.79;fill:#FA90B4;}
	.st339{fill:#83D5FB;}
	.st340{fill:#00ABF0;}
	.st341{opacity:0.6;fill:#FFFFFF;}
	.st342{opacity:0.34;fill:#FFFFFF;}
	.st343{opacity:0.25;fill:#FFFFFF;}
	.st344{opacity:0.6;}
	.st345{fill:#B2B0AD;}
	.st346{fill:#0D0707;}
	.st347{fill:#A6A6A6;}
	.st348{fill:#0068A8;}
</style>
<path class="st340" d="M0,247.42c89.14-54.48,120.88-82.08,131.21-97.13c10.49-15.3,26.58-25.91,40.52-38.15
	c3.89-3.41,7.83-5.79,13.02-2.81c6.95-0.56,11.88,4.09,17.36,7.04c6.72,3.62,13.09,7.93,19.17,12.62c5.13,5.07,5.96,14.3,2.01,20.46
	c-1.23,1.92-2.87,2.38-4.87,2.39c-6.01-0.13-11.9,0.9-17.78,1.99c-3,0.35-5.91,0.24-8.97-0.16c-4.96-0.64-9.93,0.52-14.35,3.18
	c-1.65,0.99-2.53,2.58-2.92,4.44c-0.42,2.02-0.77,4.05-0.84,6.13c-1.17,38.6-0.84,77.21-0.63,115.81
	c0.04,6.53,0.62,13.08,0.56,19.64c-0.02,2.06,0.01,4.14-0.99,6.03c-0.65,0.82-1.3,1.64-1.94,2.47
	C159.27,326.02,150.61,341.43,144,357c-48,0-96,0-144,0C0,320.47,0,283.95,0,247.42z"/>
<path class="st340" d="M585,357c-45.33,0-90.67,0-136,0c-8.54-15.19-17.09-30.37-25.63-45.56c-0.48-7.05-0.63-14.08,0.11-21.11
	c0.23-2.18,0.29-4.36,0.29-6.55c0-38.89,0-77.78,0-116.67c0-0.97,0.01-1.94-0.03-2.92c-0.23-6.72-1.82-8.41-8.46-9.49
	c-5.25-0.86-10.43-2.12-15.74-0.21c-1.33,0.48-2.89,0.23-4.34-0.01c-8.23-1.85-16.57-2.78-25.01-2.6
	c-5.48,0.41-10.78-1.24-16.21-1.46c-1.94-0.08-2.73-1.47-3.37-2.88c-1.64-3.64-2.97-7.4-3.68-11.36c-0.67-3.76,1.98-5.65,4.34-7.69
	c6.16-5.64,12.89-10.49,20.17-14.65c3.76-2.15,7.54-3.54,11.88-3.09c1.14-0.27,2.23-0.36,3.28-0.29c0,0,3.38,0.2,6.66,2.5
	c3.62,2.54,83.27,71.73,191.74,166.48C585,305.29,585,331.15,585,357z"/>
<path class="st339" d="M219.79,129.71c-3.78-1.71-6.83-4.54-10.29-6.74c-7.98-5.05-16.21-9.61-24.74-13.65
	c5.69-2.64,7.19-5.13,6.34-11.15c-0.88-6.27-0.39-12.58-0.97-18.88c-0.76-8.44-0.68-16.95-0.99-25.43
	c-0.09-2.49,0.31-4.82,1.79-6.91c0.41-0.58,0.93-1.29,0.92-1.94c-0.04-6.21,4.09-9.47,8.57-12.63c8.24-5.8,16.48-11.55,25.73-15.73
	c8.57-3.87,11.99-2.89,16.7,5.25c0.36,0.63,0.72,1.27,1.06,1.91c2.26,4.19,2.27,4.21,5.89,1.2c1.25-1.04,2.59-1.79,4.21-1.98
	c1.52,0.6,1.5,1.66,0.86,2.89c-0.5,0.96-0.91,1.94-1.21,2.98c-1.23,4.3-0.26,5.86,4.12,6.53c0.65,0.1,1.07,0.46,1.5,0.87
	c-0.94,3.19-0.19,7.23-4.42,8.76c-0.72,1.35-1.97,1.1-3.18,1.11c-5.34,0.07-10.6-0.85-15.91-1.03c-4.3-3.19-4.38-4.7-1.1-11.12
	c-1.58,1.22-4.93,4.15-6.8,9.16c-1.3,3.46-1.37,6.53-1.26,8.39c0.64,4.74,1.48,7.16,2.52,7.25c0.49,0.04,1.01-0.43,1.59-1.4
	c8.04-0.95,15.88,0.58,23.77,1.69c2.59,0.37,3.42,2.09,3.51,4.17c0.04,1.01,0.35,1.94,0.39,2.91c-3.53,3.17-2.98,7.73-3.97,11.77
	c-1.75,7.15-4.97,13.68-9.19,19.61c-6.87,9.65-14.33,18.88-20.96,28.72C223.19,127.9,221.92,129.41,219.79,129.71z"/>
<path class="st339" d="M383.32,110.75c-10.49,3.45-19.44,9.52-27.91,16.41c-0.84,0.68-1.79,1.22-2.69,1.83
	c-4.45-0.94-5.64-5.07-7.38-8.25c-3.16-5.78-4.63-12.04-1-18.29c0.84-1.44-0.25-2.81,0.47-4.09c0.15-0.4,0.31-0.79,0.48-1.19
	c6.25-5.74,9.52-13.31,11.25-21.21c1.48-6.73,3.7-13.5,3.05-20.62c-0.08-0.91-0.23-1.92,0.28-2.81c-1.54-4.84-3.09-9.68-4.63-14.51
	c-2.25-3.79-4.52-7.54-7.2-11.08c-5.29-7-11.97-12.18-19.59-16.3c-0.75-0.4-1.52-0.76-1.94-1.57c-0.03-0.18-0.07-0.35-0.1-0.53
	c-3.09-2.39-2.71-5.12-0.79-8.01c1.33,0.31,2.27,1.16,2.98,2.26c1.5,2.31,3.4,2.86,5.8,1.41c0.52-0.2,1.04-0.4,1.55-0.59
	c1.35,0.75,2.06,2.05,2.91,3.24c1.95,2.74,4.39,4.7,8,4.61c5.69,2.22,14.32,6.39,22.84,14.17c7.06,6.44,11.58,13.09,14.34,17.96
	c7.82,7.28,8.13,15.87,4.83,25.38c-3.31,9.52-6.22,19.17-9.24,28.79c-0.88,2.81-1.05,5.73-0.47,8.65
	C379.62,108.72,380.67,110.52,383.32,110.75z"/>
<path class="st340" d="M346.83,98.37c-0.01,0.22-0.04,0.43-0.09,0.65c-4.54,8.37-11.94,12.38-21,14.27
	c-18.23,3.81-35.11,0.01-50.38-9.87c-11.13-7.2-17.5-18.17-19.52-31.46c-0.29-1.93,0.09-3.56,1.14-5.12c-1.66-5.88-1.66-5.89-8-6.63
	c-6.24-0.74-12.47-1.64-18.79-1.21c-3.49,1-3.18-2.34-4.35-3.9c-0.72-0.96-0.46-2.27-0.5-3.44c0.03-2.88,0.77-5.46,2.93-7.56
	c2.57-2.49,3.63-2.61,6.91-0.51c6.6,0.11,13.18,0.42,19.71,1.49c2.88,1.27,3.65-0.67,4.27-2.81c3.62-12.61,10.35-22.98,21.86-29.74
	c13.71-8.05,28.1-10.28,43.29-4.49c0.67,0.26,1.41,0.34,2.11,0.5c0,0-0.04,0.04-0.04,0.04c1.38,0.89,2.64,1.89,4.26,2.49
	c2.98,1.1,3.27,2.96,1.14,5.18c-1.83,1.02-3.27-0.28-4.78-0.88c-15.03-6.01-29.75-5.66-43.7,2.86
	c-19.15,11.69-27.09,35.86-19.1,57.08c5.03,13.35,14.48,22.25,27.86,26.89c9.15,3.17,18.52,4.49,28.32,3.28
	c8.89-1.1,16.16-4.79,22.38-11.06c1.41-1.42,2.56-3.85,5.37-2.79c1.32,0.87,1.19,2.05,0.53,3.19
	C347.97,95.97,347.44,97.19,346.83,98.37z"/>
<path class="st340" d="M259.29,36.32c-1.9,1.37-3.86,1.85-6,0.53c-2.21-1.37-2.12-3.52-2.07-5.72c0.08-3,2.09-5.3,2.79-8.07
	c1.01-0.4,1.99-0.93,3.03-1.17c3.49-0.8,5.43,0.79,5.2,4.4C262.02,29.83,260.85,33.15,259.29,36.32z"/>
<path class="st339" d="M200.92,151.61c5.76-0.52,11.43-1.96,17.28-1.62c7.24-2.68,14.76-2.67,22.33-2.48
	c15.59,0.4,30.89,2.41,45.56,8.02c2.51,0.96,4.77,2.33,6.96,3.86c0.48,1.3,1.44,2.23,2.66,2.71c1.69,0.66,2.58,1.83,2.88,3.55
	c0.65,5.18-0.69,10.31-0.37,15.48c0.8,12.84,0.37,25.7,0.33,38.54c-0.03,11.13-0.41,22.26-0.24,33.38
	c0.28,17.84-0.75,35.66-0.22,53.5c0.11,3.87,0.13,7.74,0.38,11.6c0.13,1.95-0.43,3.19-2.49,3.43c-2.54,0.29-5.11,0.55-7.59-0.23
	c-11.21-3.55-22.82-4.61-34.44-5.26c-14.78-0.83-29.59-0.75-44.35,0.65c-8.72,0.82-17.37,2.03-25.6,5.31
	c-1.53,0.61-3.11,1.55-4.88,0.64c-1.78-2.09-1.18-4.63-1.18-6.98c-0.06-40.78,0.07-81.56-0.1-122.34
	c-0.05-11.17,1.02-22.3,0.81-33.46c-0.06-3.33,1.47-4.75,4.58-5.48C189.06,153.05,195,152.44,200.92,151.61z"/>
<path class="st1" d="M425.57,312.03c-1.76,3.39-1.29,7.09-1.44,10.69c-0.23,5.29-0.96,6.08-6.29,6.11
	c-10.86,0.06-21.5-2.18-32.23-3.35c-21.05-2.29-42.11-3.49-63.27-1.91c-1.57,0.12-3.16,0.08-4.74,0.15
	c-4.33,0.19-8.02,1.19-11.18,4.83c-5.15,5.92-10.74,6.09-15.94,0.26c-3.7-4.15-7.97-4.8-12.91-5.16c-30.81-2.27-61.1,1.54-91.2,7.63
	c-2.84,0.58-5.77,0.88-8.67,1.02c-2.63,0.13-4.17-1.16-4.68-4c-0.95-5.31-0.13-10.7-1.07-15.98c-0.2-1.14,0.46-2.9-1.6-3.17
	c2.33-5.62,1.42-11.53,1.14-17.27c-1.04-21.24-0.39-42.48-0.64-63.72c-0.24-20.4,0.48-40.78,0.93-61.16
	c0.03-1.21,0.13-2.43,0.28-3.63c1.01-7.92,1.49-8.51,9.31-9.92c6.45-1.16,12.99-1.63,19.54-1.84c-5.48,1.57-11.21,1.98-16.65,3.8
	c-2.67,0.89-3.91,2.26-3.96,5.21c-0.91,53.39-0.47,106.78-0.7,160.17c0,0.48,0.05,0.97,0.08,1.45c1.85,1.19,3.84,0.53,5.67,0.17
	c15.65-3.04,31.46-4.3,47.37-5.19c16.48-0.92,32.73,0.46,49.01,2.34c3.74,0.43,7,1.95,10.11,3.88c4.65,2.88,9.07,2.88,13.55-0.42
	c5.2-3.82,11.57-3.82,17.53-4.61c14.09-1.87,28.27-2.88,42.51-2.39c15.07,0.53,30.05,1.86,44.72,5.61c4.39,1.12,4.35,0.88,5.03-3.7
	c1.91-12.81,1.22-25.67,1.25-38.52c0.08-33.29-0.01-66.57,0.05-99.86c0.01-6.22-1.45-12.26-1.9-18.41
	c-0.65-2.09-2.26-3.07-4.24-3.57c-4.11-1.05-8.18-2.29-12.41-2.83c-1.42-0.18-3.43,0.11-3.03-2.44c7.52-0.01,15.04-0.21,22.55,0.65
	c6.35,0.72,7.84,1.93,7.95,8.36c0.19,11.29,0.18,22.58,0.17,33.88c-0.02,30.11-0.04,60.23-0.14,90.34
	c-0.02,6.55-0.38,13.1-0.61,19.64C424.75,307.51,424.93,309.79,425.57,312.03z"/>
<path class="st339" d="M394.92,152.31c5.55,0.95,11.1,1.96,16.52,3.54c2.18,0.63,4.49,1.15,5.43,3.66c0.6,1.15,0.32,2.39,0.32,3.59
	c0.02,51.79,0.01,103.57,0.01,155.36c0,4.6-0.63,5.05-5.04,3.66c-12.14-3.84-24.63-5.3-37.3-6.21c-17.21-1.23-34.23,0.2-51.24,2.34
	c-5.2,0.65-10.45,1.38-15.47,3.06c-0.23,0.08-0.46,0.15-0.69,0.2c-7.06,1.55-9.15-0.2-9.31-7.32c-0.57-25.04,0.35-50.08,0.19-75.13
	c-0.1-15.84,0.58-31.7,0.13-47.54c-0.24-8.51,0.13-17.01-0.11-25.51c-0.24-3.41,2.06-4.02,4.7-4.25c5.31-4.63,11.91-6.31,18.47-8.01
	c11.46-2.97,23.11-4.06,34.94-3.65c4.6,0.16,9.21-0.06,13.82-0.11C378.59,149.88,386.76,151.02,394.92,152.31z"/>
<path class="st340" d="M346.83,98.37c-0.2-2.02,1.86-3.81,0.61-5.95c-1.55-1.79-0.14-3.16,0.69-4.56
	c5.62-9.46,8.83-19.49,8.63-30.68c-0.21-11.36-5.18-20.49-12.16-28.83c-3.28-3.92-7.15-7.24-11.65-9.76
	c-1.32-0.74-2.58-1.58-1.56-3.42c0.49-1.8-0.09-3.12-1.88-3.71c-1.52-0.5-2.33-1.67-3.14-2.89c5.66,2.5,20.38,9.93,28.88,26.54
	c3.28,6.41,4.76,12.49,5.45,17.22c0.16,13.05-2.28,25.55-7.96,37.36C351.19,92.88,349.24,95.78,346.83,98.37z"/>
<path class="st141" d="M331.39,15.18c6.21,4.06,12.11,8.44,16.77,14.37c14.34,18.26,13.23,39.12,2.17,58.24
	c-0.91,1.58-1.92,3.1-2.88,4.64c-2.47,2.33-4.82,4.81-7.44,6.97c-10.74,8.88-23.38,9.39-36.31,7.6
	c-16.08-2.23-29.57-9.21-37.8-23.74c-17.85-31.52,2.09-69.78,36.14-73.42C312.47,8.71,322.01,11.16,331.39,15.18z"/>
<path class="st141" d="M299.4,165.46c0.94,36.44,0.85,72.89,0.57,109.34c-0.1,12.74-0.65,25.49-0.59,38.24
	c0.03,6.69,1.13,7.74,7.78,6.84c2.88-0.39,5.72-1.16,8.53-1.91c8.5-2.29,17.24-2.98,25.94-3.65c18.58-1.43,37.13-1.01,55.54,2.11
	c5.5,0.93,11.01,2.05,16.14,4.39c2.56,1.17,3.57,0.45,3.54-2.33c-0.07-6.44-0.02-12.88-0.02-19.32c0.01-46.55,0.02-93.1,0.04-139.64
	c0.87,1.57,0.7,3.3,0.7,4.99c0.01,51.02,0.01,102.05,0,153.07c0,6.55-1.16,7.55-7.6,5.96c-20.1-4.95-40.54-6.32-61.12-5.56
	c-12.37,0.46-24.68,1.96-36.96,3.63c-2.61,0.35-4.34,2.1-6.23,3.58c-4.11,3.22-8.64,3.95-12.83,0.94
	c-6.41-4.61-13.74-5.24-21.09-5.97c-26.49-2.62-52.86-1.42-79.11,2.86c-3,0.49-5.97,1.13-8.95,1.69c-2.07,0.39-3.66-0.02-4-2.45
	c8.73-5.23,18.62-5.95,28.35-7.33c8.08-1.15,16.27-1.11,24.35-1.19c17.47-0.17,34.97,0.57,52.16,4.35c2.58,0.57,4.89,2.06,7.7,1.99
	c4.34-0.12,4.98-0.5,4.89-4.74c-0.08-4-0.64-7.99-0.65-11.99c-0.07-21.87-0.23-43.75,0.03-65.62c0.25-21.21,0.76-42.41,0.68-63.63
	c-0.01-2.9,0.91-5.8-0.02-8.69C297.94,164.72,298.68,164.69,299.4,165.46z"/>
<path class="st141" d="M194.28,242.2c1.07-1.85,2.55-1.72,3.76-2.04c16.31-4.29,32.77-4.32,49.44-2.32
	c12.52,1.5,24.49,4.79,36.3,8.94c1.52,0.53,4.53,0.69,3.79,2.83c-0.54,1.59-2.99-0.16-4.52-0.56c-15.49-4.06-30.85-8.76-46.97-9.82
	c-9.86-0.65-19.63,0.5-29.39,1.66C202.68,241.35,198.65,241.74,194.28,242.2z"/>
<path class="st141" d="M193.75,221.97c3.98-0.86,7.94-1.87,11.95-2.54c26.77-4.47,53.02-2.6,78.64,6.6c0.57,0.2,1.16,0.39,1.68,0.69
	c0.89,0.52,1.62,1.26,1.19,2.37c-0.47,1.2-1.54,0.99-2.5,0.71c-3.73-1.1-7.45-2.23-11.17-3.35c-14.84-4.48-29.88-7.77-45.52-7.07
	c-10.21,0.46-20.32,1.75-30.38,3.54C196.4,223.13,195.14,223.86,193.75,221.97z"/>
<path class="st141" d="M196.66,301.09c2.94-2.56,6.49-2.87,9.87-3.5c27.12-5.1,53.7-1.97,79.96,5.56c1.02,0.29,2.61,0.47,2.37,1.78
	c-0.32,1.73-1.94,0.96-3.03,0.75c-9.78-1.87-19.58-3.7-29.33-5.73c-14.57-3.03-29.17-2.76-43.81-0.77
	C207.36,299.91,202,300.46,196.66,301.09z"/>
<path class="st141" d="M194.24,279.08c9.75-2.9,18.89-4.5,28.25-5.04c16.58-0.95,32.69,1.85,48.58,6.11
	c5.24,1.41,10.23,3.75,15.33,5.68c0.95,0.36,1.98,0.97,1.61,2.07c-0.55,1.62-1.85,0.68-2.75,0.33c-5.19-2.03-10.37-4.02-15.74-5.62
	c-23.31-6.93-46.84-7.34-70.61-3.16C197.62,279.69,196.33,280.23,194.24,279.08z"/>
<path class="st141" d="M194.69,202.17c13.65-10.51,81.2-4.1,92.6,8.96c-15.64-4.56-30.35-9.79-45.96-11.5
	C225.63,197.92,210.16,199.24,194.69,202.17z"/>
<path class="st141" d="M195.09,183.49c0.26-1.46,1.34-1.6,2.22-1.79c29.77-6.63,58.83-5.01,86.9,7.66c0.66,0.3,1.32,0.61,1.96,0.96
	c0.95,0.51,2.3,1.02,1.7,2.34c-0.67,1.49-1.9,0.42-2.82,0.06c-6.66-2.59-13.2-5.44-20.12-7.44c-10.1-2.92-20.35-4.68-30.78-5.24
	c-12.66-0.68-25.23,0.34-37.61,3.26C196.1,183.41,195.65,183.42,195.09,183.49z"/>
<path class="st141" d="M194.56,165.41c3.28-2.58,7.12-3.38,10.85-4.12c13.32-2.62,26.7-2.59,40.17-0.71
	c10.24,1.43,20.51,2.51,30.22,6.33c3.5,1.38,6.92,2.93,10.38,4.42c1.11,0.48,2.18,1.02,2.55,3.1
	C257.88,163.21,227.06,155.53,194.56,165.41z"/>
<path class="st141" d="M195.42,260.93c31.52-8.4,61.05-3.28,90.22,6.6c-3.89,1.25-7.48-0.48-11.05-1.44
	c-10.43-2.81-20.85-5.72-31.61-6.8c-13.55-1.37-27.11-1.15-40.53,1.62C200.48,261.31,198.51,262.1,195.42,260.93z"/>
<path class="st141" d="M312.68,304.62c1.11-1.24,2.49-1.41,3.75-1.75c20.65-5.56,41.59-8.84,63.06-7.63
	c8.15,0.46,16.15,2,24.05,3.99c1.04,0.26,2.82,0.48,2.23,2.19c-0.46,1.33-1.87,0.66-2.9,0.44c-11.91-2.54-24-3.99-36.12-4.27
	c-11.54-0.27-22.96,1.96-34.3,4.14c-5.96,1.15-11.91,2.32-17.87,3.47C313.99,305.31,313.36,305.37,312.68,304.62z"/>
<path class="st141" d="M310.9,228.55c3.83-3.63,8.66-4.04,13.16-5.37c13.61-4.01,27.62-5.76,41.73-5.87
	c11.79-0.09,23.48,1.7,34.89,4.9c1.29,0.36,2.99,0.62,2.49,2.41c-0.47,1.68-2.17,1.28-3.44,0.98c-7.1-1.65-14.21-3.11-21.43-4.24
	c-19.27-3.03-38.01-0.66-56.58,4.52C318.14,226.88,314.5,227.67,310.9,228.55z"/>
<path class="st141" d="M406.57,171.64c-1.5,1.1-2.77,0.27-4,0.02c-13.1-2.72-26.23-5.42-39.65-5.46
	c-14.07-0.04-27.81,2.47-41.15,7.01c-2.87,0.98-5.77,1.88-8.66,2.81c-0.88,0.28-2.09,1.17-2.58,0.04c-0.57-1.29,1-1.43,1.81-1.7
	c5.2-1.7,10.36-3.54,15.65-4.91c14.16-3.7,28.52-6.2,43.22-5.47c10.81,0.54,21.55,1.79,31.84,5.47
	C404.28,169.89,405.72,170.02,406.57,171.64z"/>
<path class="st141" d="M311.96,207.94c19.23-12.25,79.47-12.39,91.27-0.32C372.75,196.82,342.36,199.91,311.96,207.94z"/>
<path class="st141" d="M311.04,192.22c1.82-2.11,3.62-2.21,5.21-2.65c19.13-5.29,38.42-9.61,58.47-8.86
	c9.71,0.36,18.95,2.7,27.81,6.6c1.09,0.48,2.51,1.02,1.99,2.56c-0.37,1.11-1.43,0.47-2.19,0.16c-19.64-8.25-39.85-8.49-60.42-4.51
	c-9.17,1.77-18.36,3.4-27.36,5.97C313.65,191.74,312.71,191.88,311.04,192.22z"/>
<path class="st141" d="M309.82,288.1c0.77-1.32,1.98-1.29,2.96-1.59c13.73-4.23,27.73-6.68,42.13-7.48
	c12.89-0.71,25.69-1.16,38.39,1.53c3.19,0.68,6.28,1.82,9.4,2.81c0.91,0.29,2.13,0.74,1.82,1.89c-0.41,1.51-1.77,0.91-2.76,0.62
	c-4.99-1.47-9.92-3.04-15.08-4.07c-15.4-3.07-30.68-1.74-45.93,0.59c-9.1,1.39-18.23,2.73-27.08,5.44
	C312.56,288.2,311.37,288.68,309.82,288.1z"/>
<path class="st141" d="M310.71,248.12c17.94-11.03,80.07-12.84,91.1-2.58C371.12,236.2,340.89,240.81,310.71,248.12z"/>
<path class="st141" d="M313.39,266.66c5.31-2.38,10.8-4.14,16.51-5.2c13.76-2.55,27.56-4.77,41.61-4.11
	c9.23,0.43,18.37,1.77,27.37,3.94c0.82,0.2,1.6,0.57,2.38,0.91c0.64,0.28,1.64,0.51,1.39,1.37c-0.34,1.16-1.38,0.63-2.16,0.44
	c-5.78-1.46-11.67-2.27-17.55-3.18c-14.94-2.31-29.77-1.49-44.59,1.13c-7.65,1.35-15.32,2.59-22.85,4.53
	C314.82,266.66,314.09,266.61,313.39,266.66z"/>
<path class="st339" d="M349.78,55.12c-0.14,23.26-10.88,38.38-28.17,44.13c-14.34,4.77-32.45-0.34-42.14-11.93
	c-11.29-13.51-14.07-29.04-7.87-45.09c9.16-23.73,35.47-32.18,56.04-21C342.61,29.37,349.27,42.87,349.78,55.12z"/>
<path class="st1" d="M338.77,54.51c2.6,23.34-22.03,40.03-42.44,31.04c-14.04-6.18-20.65-23.43-14.24-37.39
	c0.5-1.1,0.87-2.26,1.3-3.39c5.12-6.82,12.89-8.74,20.49-9.99c13.54-2.24,24.36,3.21,32.74,13.83
	C337.98,50.34,338.82,52.26,338.77,54.51z"/>
<path class="st340" d="M338.77,54.51c-1.87-2.84-3.93-5.55-6.34-7.94c-12.46-12.35-26.5-14.2-45.18-3.65
	c-1.24,0.7-2.24,1.93-3.85,1.86c-0.57-5.31,1.87-9.27,6.11-11.95c13.44-8.5,32.2-9.37,45.13,4.67
	C339.11,42.35,340.89,47.98,338.77,54.51z"/>
<path class="st340" d="M347.5,12.05c-3.3,3.08-5.82,0.78-8.2-1.33c-2.04-1.81-3.32-4.14-3.35-6.99c3.39-0.84,5.32,1.65,7.41,3.47
	C344.94,8.58,346.13,10.41,347.5,12.05z"/>
<path class="st340" d="M333.3,4.36c0.31,1.54,0.48,3.23-1.06,4.07c-1.58,0.87-2.88-0.46-4.04-1.37c-2.14-1.69-3.44-3.98-4.2-6.59
	C328.45-1.47,330.41,2.57,333.3,4.36z"/>
</svg>
