<svg version="1.1" id="Слой_1" xmlns="http://www.w3.org/2000/svg" x="0" y="0" viewBox="0 0 585 344" xml:space="preserve"><style>.st1{fill:#0071c5}.st140{fill:#31c5f8}.st141{fill:#57caf9}.st339{fill:#83d5fb}.st340{fill:#00abf0}</style><path class="st340" d="M383.44 228.38c16.33-2.36 32.66-4.75 49-7.04 3.69-.52 6.59-1.88 8.93-4.98 3.41-4.51 6.96-8.99 10.98-12.93 9.27-9.09 14.56-20.19 18.61-32.32 5.71-17.15 11.97-34.14 18.44-51.03 4.46-11.65 11.9-21.81 17.62-32.84.93-1.8 2.06-1.67 3.48-.65 2.89 2.07 6.5 3.58 8.56 6.27 1.58 2.06 4.02 3.16 14.98 6.22 9.24 2.58 27.71 7.26 51.96 12.63-.37 77.43-.73 154.86-1.1 232.29H433.69c.79-.4 1.91-1.05 3.07-2.08 1.61-1.43 1.76-2.9 2.9-3.46 2.62-1.28 5.39-2.22 8.05-3.4 3.1-1.37 6.28-2.66 8.28-5.83-3.36 1.11-6.53 2.71-9.7 4.27-10.28 5.08-30.6 3.07-38.95-9.52-2.88-4.34-4.54-9.08-4.7-14.06-.28-8.85-.93-17.76.81-26.57.21-1.59 1.36-2.69 2.09-4 1.89-2.98 3.98-5.82 6.26-8.52.72-.85 1.66-1.78 1.17-2.97-.61-1.48-2.19-1.49-3.36-1.18-6.14 1.63-12.46-.4-18.59 1.05-3.49-.34-6.96-.13-10.43.27-2.81.33-5.08-.3-5.58-3.59.1-1.11-.08-2.27.17-3.35 2.14-9.18-1.37-16.63-6.94-23.55-1.67-2.08-3.76-4.21-2.01-7.31 5.74-.61 11.47-1.22 17.21-1.82z"/><path class="st141" d="M405.75 283.47c-1.2 10.77-2.15 21.59.6 32.24 2.53 9.77 10.8 16.02 21.01 17.47 8.41 1.2 15.99-.37 23.28-4.46 3.91-2.19 8.02-4.04 12.45-5.61-1.13 2.44-2.28 4.85-3.8 6.95-1.65 2.28-3.73 3.73-6.03 5.08-6.9 4.06-17.49 8.45-18.48 8.86H68.81c-24.1-27.28-46.57-56.73-67.02-88.56l-1.8-2.82c13.28-1.95 26.24-1.47 39.03-2.95 2.56.79 2.8 3.23 2.93 5.13.38 5.64 3.66 7.64 8.74 8.55 22.17 3.96 44.34 7.94 66.49 12.06 20.39 3.79 40.86 7.21 61.19 11.29 6.25 1.26 11.67.3 17.16-2.96 9.46-5.62 19.42-10.39 29.01-15.82.96-.55 2.12-.87 2.84-2.53-6.11-1.62-12.35-1.7-18.43-2.7-5.11-.84-10.37-.71-15.37-2.17-3.63-1.06-3.8-1.91-1.49-5.43 6.88-2.4 13.58-4.74 20.73-.15 4.01 2.57 8.66 2.15 12.92-.34 1.81-1.06 3.56-2.21 5.35-3.3 5.7-3.48 6.06-3.41 11.53.4 4.39 3.06 9.47 3.25 14.4 2.35 6.03-1.1 9.81 1.42 10.6 7.95-1.17 2.6-3.61 2.47-5.83 2.51-3.57.07-7.08.63-10.61 1.07-2.49.31-2.79 1.66-.99 3.1 5.7 4.55 10.26 10.31 15.98 14.83 3.06 2.42 6.4 3.57 10.31 3.51 20.84-.34 41.63-1.57 62.43-2.75 7.42-.42 14.86-.54 22.27-.83 13.55-.52 27.1-1.85 40.69-1.33 1.47.06 2.96-.16 3.88 1.36z"/><path class="st1" d="M193.06 256.58c-2.53 2.5.51 1.76 1.22 1.85 10.44 1.32 20.9 2.54 31.35 3.81 3.32.4 6.62.86 9.96 1.29-.25 2.1-1.76 2.26-2.79 2.82-13.68 7.39-27.41 14.68-41.06 22.13-3.02 1.65-5.88 2.02-9.28 1.39-45.24-8.35-90.49-16.64-135.77-24.72-4.9-.87-7.1-2.77-6.84-7.78.13-2.55-.52-5.14-.82-7.71-1.47-16.23-2.9-32.46-4.41-48.69-1.18-12.69-2.42-25.38-3.72-38.06-.27-2.6.5-3.56 3.2-3.21 19.72 2.56 39.49 4.7 59.33 5.94 13.35.83 26.63 3.18 40.07 2.26 3.14-1.83 6.63-1.52 9.95-1.21 13.03 1.22 26.09 1.93 39.13 2.95 3.84.3 6.17 1.99 6.9 6.08.89 4.98 1.05 9.94.6 14.92-.22 2.44-.24 4.82.19 7.21 1.34 3.96 1.89 8.03 1.61 12.2-.25 1.99-.61 3.96-.53 5.98.51 10.78 1.32 21.54 1.84 32.32.14 2.74-.03 5.49-.13 8.23z"/><path class="st340" d="M189.81 215.76c-1.18-1.55-.83-3.35-.82-5.09.81-3.91.14-7.87.35-11.8.03-.47 0-.95 0-1.42-.07.44-.21.84-.66 1.03-1.41-6.52-.81-13.18-1.08-19.76-.2-4.86-2.01-6.61-6.89-6.87-14.35-.74-28.68-1.94-43.01-3.01-1.42-.11-2.8-.61-4.21-.94.26-11.27-2.02-22.53-.14-33.82 2.01-12.07 6.27-23.32 12.15-34 4.19-7.62 12.13-8.43 19.32-10.58 1.22-.36 2.44-.71 3.67-1.07.79-.11 1.66-.64 2.35-.32 8.87 4.17 18.66 5.77 27.58 9.79 5.58 7.4 8.27 15.89 9.32 24.98.15 1.28.14 2.59.05 3.87-.83 11.6.74 22.85 4.94 33.71.5 1.3.83 2.65.9 4.06.17-5.25 2.1-10.12 3.41-15.1 2.6-9.83 5.08-19.69 8.04-29.43 1.26-4.13 3.26-5.9 7.71-5.12 5.22.92 10.03-.42 12.19-5.63 3.21-7.73 9.93-11.09 16.61-14.68 1.79.07 3.43.61 4.97 1.52 1.51 2.86 4.57 2.01 6.9 2.66 9.3 2.61 12.24 5.84 11.85 15.47-.72 17.62-3.95 34.97-6.37 52.39-1.95 14.07-4.16 28.12-8.19 41.79-1.42 4.81-3.13 9.52-5.49 13.96-2.63 4.94-6.01 9.19-11.19 11.72-3.15.32-3.03-2.15-3.43-4.09-1.2-5.78-3.12-11.07-8.24-14.73-2.63-1.88-5.23-2.82-8.51-2.37-5.71.78-11.43 1.51-17.18 1.99-3.33-.42-6.01 2.69-9.44 1.75-3.99.03-7.95.38-11.91.8-2.09.24-4.19.49-5.55-1.66z"/><path class="st140" d="M384.42 68c-7.53-.6-11.05-4.59-10.39-12.08.52-5.94 1.52-11.85 1.83-17.8.24-4.62 2.59-8.2 4.64-12 .63-3.6 4.02-5.08 5.94-7.68 1.2-2.36 3.13-3.69 5.75-4.04 3-3.94 8.07-4.13 11.91-6.56 3.5-1.64 6.93-3.46 10.51-4.89 8.45-3.39 16.8-3.73 25.92-1.51 10.67 2.6 20.51 6.37 29.95 11.91 18.24 10.7 19.02 10.99 24.32 31.11 1.24 4.69.44 9.93.48 14.92.06 8.09.76 16.12 1.93 24.12 1.23 2.44.68 4.44-1.67 5.77-2.37 1.34-4.77 3.06-7.62 1-3.94-2.84-7.93-5.62-11.86-8.47-5.26-3.82-10.68-7.37-17.04-9.14-9.05-2.51-15.4 2.2-15.7 11.63-.18 5.47 1.77 10.48 3.57 15.51 2.01 5.6 1.53 7.09-2.92 8.94-7.24 3-9.6 2.49-12.02-2.82-2.08-4.56-3.73-9.31-5.5-14-1.57-4.18-4.21-7.09-8.59-7.65-8.65-1.1-12.62-6.11-13.35-14.42-.27-3.06-1.22-6.02-2.05-8.98-1.24-4.45-2.59-4.87-6.47-2.11-2.54 1.81-4.53 4.15-6.36 6.63-1.31 1.77-2.67 3.35-5.21 2.61z"/><path class="st141" d="M384.42 68c4.15-4.94 7.82-10.27 13.65-13.61 4.93-2.82 4.8-3.01 6.01 2.33 1.39 6.15 2.94 12.26 4.19 18.44.58 2.88 1.85 4.9 4.85 5.16 10.52.91 15.8 7.18 18.03 16.92.61 2.65 2.07 5.1 2.86 7.72.87 2.87 2.27 3.69 5.33 2.85 7.07-1.94 7.07-1.77 4.56-8.75-1.53-4.26-3.07-8.53-3.24-13.13-.48-12.78 8.66-19.57 20.68-15.23 9.29 3.35 17.09 9.3 24.55 15.45 5.28 4.35 9.04 2.32 11.31-2.64.8.13 1.63.16 2.39.41 4.36 1.49 4.64 2.42 1.7 5.91-9.39 11.13-18.8 22.24-28.19 33.37-4.6 5.44-9.47 10.68-13.67 16.4-3.29 4.48-7.26 7.31-12.66 8.11-4.94.73-9.38 3.7-14.63 3.1-6.12-.69-9.14-3.94-9.06-10.09.02-1.38-.26-2.55-1.14-3.59-.31-.37-.58-.89-.99-1.06-3.76-1.56.46-6.62-3.06-7.65-2.91-.84-5.97-.51-8.03-3.54-1.61-2.38-3.92-1.3-6.12-.35-6.59 2.86-8.48 1.63-8.6-5.56-.07-4.2-.17-8.39.64-12.58.69-3.59.45-7.03-2.48-9.88-4.3-4.17-5.46-9.62-5.98-15.36-.42-4.47-.65-9.05-2.9-13.15z"/><path class="st140" d="M197.51 98.99c-10.12-2.3-20.35-4.26-29.02-10.55 15.45-20.12 26.85-42.48 36.91-65.65 7.54-17.36 17.29-23.02 40.43-19.41 21.69 3.38 34.08 16.28 35.53 37.47.85 12.53-.89 25.46-6.18 37.35-2.69 6.04-5.73 11.93-8.62 17.89-1.22.56-2.43 1.34-3.71.11-1.4-1.52-.58-3.01.08-4.49 4.43-9.91 5.11-20.65 6.9-31.14.62-3.61-1.2-6.12-4.57-7.7-13.54-6.33-26.56-6.32-38.97 2.81a47.486 47.486 0 01-5.33 3.38c-5.15 2.8-8.18 7.22-9.78 12.73-1.22 4.21-2.28 8.53-2.28 12.86-.01 6.37-4.57 9.65-8.18 13.65-.82.92-2.08.74-3.21.69z"/><path d="M189.81 215.76c5.87-.66 11.74-1.31 17.61-1.97 3.33.68 6.53.29 9.64-1.03 6.54-.94 13.09-1.82 19.61-2.85 2.58-.4 4.24 1.02 6.06 2.38 6.3 4.69 10.17 10.68 10.3 18.75.02 1.1-.08 2.3 1.03 3.05.69.35 1.38.71 2.07 1.06 7.59 7.37 13.28 16.37 20.59 23.99.57.6.64 1.45.82 2.25.95 3.03-.27 5.14-3.01 6.24-2.96 1.19-4.86-.7-6.61-2.76-.9-1.05-.78-2.44-1.3-3.61-.99-1.07-2.03-2.1-2.94-3.23-1.48-1.83-2.49-3.05-5.29-1.14-2.98 2.03-15.47-1.1-17.86-3.92-1.68-1.99-3.41-2.31-5.51-1.05-2.78 1.66-5.45 3.51-8.28 5.08-5.96 3.3-11.87 3-17.27-1.13-1.96-1.5-3.82-1.56-5.9-1.22-3.52.57-7.01 1.27-10.51 1.92-1.21-.65-2.04-1.59-2.12-3.01-.67-11.52-1.36-23.04-1.94-34.57-.06-1.05.52-2.15.81-3.23zm86.57 18.17c7.98-.38 14.7-3.78 20.94-8.5 3.5-2.65 6.72.85 10.13.72 1.24 1.28.16 2.32-.42 3.32-1.97 3.41-4.39 6.52-6.5 9.85-.5.44.55.32-.03.04-.09-.04-.05-.19.13-.41 2.3-2.85 4.05-6.09 6.22-9.02.85-1.14 1.21-3.37 3.56-2.71 3.62 3.27 7.81 3.87 12.49 3.04 2-.36 4.13 0 6.21.04 0 2.52-1.82 2.13-2.41 2.19 3.95-.03 8.44 3.53 13.62 1.79 1.86-.63 3.77-.9 5.69-.13 1.38.13 2.75-.12 4.12-.11 4.81.01 7.28 2.03 7.28 6.89 0 7.23-.34 14.48-1.7 21.61-.65 2.64-2.83 2.85-4.95 2.91-11.91.34-23.68 3.26-35.68 1.99-1.85-.2-3.41.5-4.94 1.59-3.77 2.71-17.22 3.12-20.79.28-2.18-1.73-4.49-3.85-4.81-6.97-.14-1.3-.83-2.02-1.66-2.78-4.46-6.34-4.57-13.85-5.46-21.11-.21-1.58-.33-3.09-1.04-4.52z" fill="#3dd1f9"/><path class="st339" d="M276.38 233.93c1.75.08 3.51.15 4.74.21-2.99 8.65.62 16.33 3.2 24.12.16 3.93-1.58 5.61-5.09 4.87-1.42-.3-2.54-1.22-3.72-2-6.52-7.57-13.44-14.82-19.09-23.12-.7-1.02-2.27-1.69-.28-2.87 6.75-.4 13.49-.8 20.24-1.21z"/><path class="st1" d="M310.41 227.22c-2.76 4.33-5.54 8.64-8.26 12.99-1.35 2.15-3.05 3.69-6.6 4.02 3.4-6.82 8.06-12.19 11.9-18.07 2.84-3.11 3.39-8 8.12-10.52-.14 5.06-3.42 7.98-5.16 11.58zm-34.9 33.92c3.14-.32 7.11 1.87 8.81-2.88 2.04-.27 3.45-.1 3.24 2.68-.33 4.52 2.35 6.77 6.76 6.7 2.84-.05 5.77.4 8.53 1.11 2.65.68 4.5.12 5.6-2.28 1.04-2.28 2.78-2.31 4.84-2.05 8.86 1.07 17.62 1.28 26.49-.78 4.63-1.08 9.66-.4 14.52-.51 1-1.07 2.1-1.94 3.66-2.06 5.12-.4 10.23-.47 15.35.05 1.36.14 2.4.81 3.16 1.94.05 2.45 1.56 2.76 3.59 2.63 4.01-.24 8.02-.34 12.04-.5 6.35 1.27 10.18 6.02 14.22 10.42 1.25 1.36 2.5 2.92 1.37 5.03-.65.94-1.29 1.88-1.94 2.82-2.63 1.02-5.4.89-8.15 1-33.32 1.36-66.65 2.58-99.96 4.22-8.25.41-16.51.43-24.75.97-2.06.14-3.78-.29-5.34-1.72-7.72-7.14-15.5-14.22-23.22-21.36-.76-.7-2.2-1.39-1.5-2.7.6-1.12 2.04-.62 3.12-.72 6.89-.6 13.88-.19 20.67-1.9 1.24 1.04 2.47 2.08 3.71 3.11 1.16.96 2.39 1.8 3.95.96 1.79-.95 1.81-2.49 1.23-4.18z"/><path class="st141" d="M376.47 263.07c-7.39.02-14.78.05-22.16.07.07-5.93-.08-11.83.68-17.76 1.01-7.93-.53-9.42-8.39-9.43-.8 0-1.61 0-2.41-.01.65-1.92 1.63-3.66 3.87-3.78 6.22-.34 12.41-1.79 18.69-.72 4.01 5.95 9.38 11.09 11.01 18.45.99 4.53.58 8.92-1.29 13.18z"/><path class="st339" d="M407.69 280.65c-4.39-5.96-10.39-10.3-15.59-15.44 7.52-.34 15.05-.66 22.57-1.03 3.05-.15 4.47.52 2.22 3.62-3.11 4.25-6.14 8.56-9.2 12.85zM197.51 98.99c.2-.25.37-.54.6-.76 5.74-5.36 9.14-11.63 9.23-19.81.06-5.68 2.19-11.06 5.53-15.8 7.83-11.12 29.54-19.55 42.5-15.69 20.17 6 18.51 5.06 15.39 23.7-1.48 8.82-1.88 18.1-7.9 25.58-1.77 1.14-3.49 2.35-5.31 3.4-4.25 2.45-7.9 5.21-9.79 10.15-2.47 6.49-7.74 9.03-14.45 7.56-4.11-.9-5.34.87-6.23 4.36-3.58 13.92-7.35 27.79-11.06 41.68-.58 2.15-1.23 4.28-2.33 6.44-3.14-10.79-9.11-20.77-8.32-32.45.9-13.53-1.44-26.35-7.86-38.36zm12.73 135.51c4.68-.93 7.87.57 12.21.32-4.6 3.17-7.73.99-12.21-.32z"/></svg>