<svg version="1.1" id="Слой_1" xmlns="http://www.w3.org/2000/svg" x="0" y="0" viewBox="0 0 585 908" xml:space="preserve"><style>.st140{fill:#31c5f8}.st339{fill:#83d5fb}</style><path class="st339" d="M416.48 823.18c2.15 12.68 6.26 24.92 7.87 37.76 1.92 15.35 1.57 30.69 1.51 46.06h-84.01c-.34-2.2-.6-4.41-1.02-6.58-3.86-19.71-7.75-39.42-11.63-59.12-2.07-9.44-3.88-18.84-2.62-28.64.52-3.98 1.57-5.02 5.6-4.32 15.83 2.72 30.98 8.66 47.21 9.61 9.23.54 18.58 1.59 27.55-.21 5.92-1.21 8.13.48 9.54 5.44zm-181.09 46.3c-.02 12.5-.05 25.01-.07 37.51h-61.51c-3.78-10.92-7.57-21.83-11.34-32.75 1.59-1.47 3.56-1.68 5.58-1.67 16.66.1 33.2-1.62 49.79-2.75 5.77-.38 11.68-2.75 17.55-.34z"/><path d="M235.39 869.48c-5.87-2.42-11.79-.04-17.55.35-16.59 1.13-33.13 2.85-49.79 2.75-2.02-.01-3.99.19-5.58 1.67-10.89-.91-21.78.18-32.67.07-36.16-.35-70.4-9.06-104.05-21.15-5.39-1.94-10.58-4.54-16.09-6.04-6.27-1.71-7.82-5.69-6.7-11.28C8.3 809.3 13.01 782.6 19.35 756.3c7.34-30.44 15.02-60.91 27.8-89.67 11.58-26.08 26.37-50.18 45.7-71.37 6.54-7.17 12.14-15.23 20.82-20.17 3.16 5.31.65 9.85-1.54 14.74-5.23 11.7-17.06 16.89-24.97 25.96-5.64 6.47-6.45 12.99-.4 19.58 4.32 4.71 9.95 4.11 16.09-1.98 2.1-2.08 4.23-4.34 5.6-6.92 9.46-17.81 19.34-35.34 34.3-49.24 4.09-3.8 4.76-8.14 3.9-12.87-1.95-10.73-3.74-21.46-5.22-32.27-.69-5.01 1.6-7.22 4.96-7.32 6.51-.2 11.04-3.93 16.12-6.9 8.99-5.26 10.64-9.71 9.04-19.72-.75-4.72-3.84-8.58-3.77-13.43.14-9.58-2.16-18.9-3.21-28.36-.47-5.4-.94-10.81-1.42-16.21-2.47-10.62-4.45-21.4-7.52-31.84-5.58-18.93-13.64-36.82-25.5-52.71-1.85-2.48-3.53-7.34-7.24-6.2-2.68.82-2.12 5.59-3.05 8.6-1.68 5.43-1.06 11.67-5.56 16.14-6.41-16.18-10.48-32.82-9.34-50.37.2-3.04 2.01-5.66 4.47-7.52 9.26-7.02 18.06-14.68 28.34-20.28 4.22 7.55 10.47 14.01 17.74 17.45 16.32 7.73 30.04 19.15 44.41 29.47 17.88 12.84 35.75 25.48 54.69 36.79 18.11 10.81 36.13 21.64 55.21 30.66 10.02 4.74 19.71 10.18 29.77 14.8 25.18 11.56 37.52 17.87 46.2 20.59 2.07.65 6.57 2.01 12.11 4.97 7.4 3.96 12.65 8.65 15.92 11.98-8.31 9.53-8.24 23.87.89 37.69 6.49 9.82 11.19 16.86 17.96 34.36 2.69 6.95 4.25 12.87 5.13 16.68 1.06 2.81 2.57 7.16 3.95 12.59 2.25 8.9 2.78 15.68 3.13 18.24 1.63 12.02 4.27 23.9 9.51 34.72 11.71 24.19 18.38 49.36 21.43 76.16 3.11 27.34 5.71 54.84 11.16 81.91 1.42 7.02 1.15 14.37 1.99 21.53.64 5.42-1.85 8.07-6.54 10.22-13.18 6.07-27.48 6.39-41.4 8.58-6.61 1.04-13.36 1.37-20.06 1.57-1.64.05-2.67.89-3.11 1.05-13.89 5.11-38.49-.02-38.49-.02-15.72-3.27-31.38-6.89-47.21-9.61-4.03-.69-5.09.34-5.6 4.32-1.27 9.81.54 19.21 2.61 28.64-4.83-1.4-7.89 2.31-11.61 4.05-23.88 11.16-49.5 16.52-74.9 22.61-2.38.55-4.82 1-7.25 1.51zm-48.09-669.6c-14.96 11.06-32.41 12.41-50 12.07-14.69-.28-28.9 1.61-42.74 6.29-5.44 1.84-6.61.74-5.55-4.96 2.73-14.66 11.59-25.05 22.24-34.58 9.75-8.72 21.02-15.16 31.74-22.46.21-.14.44-.23.66-.35 19.71-10.93 30.77-26.74 30.29-50.21-.37-18.18 4.85-35.47 10.56-52.66 9.71-29.22 32.47-42.29 60.11-47.89 25.03-5.08 50.36-2.29 75.15 3.23 36.4 8.11 57.65 32.2 64.23 70.32 3.54 20.48 2.17 41.48 7.27 61.73 1.53 6.05 3.09 12.1 4.6 18.15 3.79 15.21 13.63 24.78 28.11 29.76 13.88 4.77 27 10.87 38.7 19.87 5.42 4.17 9.73 9.32 13.77 14.74 2.28 3.07 2.24 6.04-.81 8.6-12.56 10.53-25.87 19.02-43.43 16.11-10.64-1.77-19.71-6.94-28.36-12.99-9.63-6.72-19.19-13.54-28.77-20.34-2.88-2.04-5.87-3.81-9.39-4.48-12.49-8.74-26.62-14.26-40.4-20.45-20.3-9.12-41.41-16.08-63.65-17.64-28.79-2.01-53.49 8.34-74.33 28.14z" fill="#00abf0"/><path class="st339" d="M187.3 199.88c20.84-19.8 45.53-30.15 74.32-28.13 22.24 1.56 43.34 8.52 63.65 17.64 13.78 6.19 27.91 11.71 40.4 20.45.49 11.93-2.51 23.44-4.23 35.1-4.61 13.27-12.08 24.64-24.16 32-8.26 5.03-16.69 9.77-24.27 15.79-12.03 9.57-25.78 15.97-39.98 21.29-28.07 10.53-56.66 10.06-85.04 1.68-16.23-4.79-31.88-11.37-44.74-23.02 8.57-8.15 19.75-12.3 29.19-19.17 12.48-9.09 25.46-17.49 39.44-24.16 2.87-1.37 4.32-2.65 2.63-6.21-3.64-7.68-5.45-16.02-7.73-24.18-.58-2.08-.66-5.27-3.47-5.07-10.25.74-12.65-7.09-16.01-14.01z"/><path class="st140" d="M143.25 292.69c12.86 11.66 28.51 18.23 44.74 23.02 28.38 8.38 56.97 8.85 85.04-1.68 14.2-5.33 27.95-11.72 39.98-21.29 7.58-6.03 16-10.76 24.27-15.79 12.08-7.35 19.55-18.72 24.16-32 5.42 2.55 10.84 5.1 16.26 7.66-1.48.21-1.91.77-1.57 2.45 5.93 29.22 9.91 58.67 10.83 88.52.26 8.44.99 16.87 1.64 25.29 1.89 24.75 3.84 49.49 5.77 74.24-1.92 4-4.09 4.73-8.58 2.6-15.23-7.22-30.88-13.55-46.2-20.59-10.07-4.62-19.76-10.06-29.77-14.8-19.08-9.02-37.1-19.85-55.21-30.66-18.94-11.31-36.81-23.95-54.69-36.79-14.37-10.32-28.09-21.73-44.41-29.47-7.27-3.44-13.51-9.9-17.74-17.45 1.43-1.75 3.43-2.55 5.48-3.26z"/><path class="st339" d="M164.61 449.35c-.01 2.33-.02 4.66-.02 7l-16.26 28.86c-3.81.51-4.74 4.19-6.91 6.44-12.17 12.64-25.25 24.12-40.43 33.02-4.83 2.83-8.54 6.58-11.7 11.27-8.25 12.24-19.12 22.29-28.92 33.21-6.1 6.8-11.83 3.82-19.18-1.32-7.42-5.19-13.96-11.39-21.34-16.35-5.22-3.5-10.14-6.16-10.96-12.89-.22-1.82-.74-3.01-2.5-4.13-7.99-5.09-9.28-15.76-2.31-22.56 3.44-3.35 5.25-6.59 6.72-11.31 1.96-6.28 7.77-10.98 14.72-12.6 7.26-1.69 14.63-3.53 22.01-3.87 14.04-.64 20.32-10.23 23.99-21.22 4.35-13.03 11.78-22.92 23.08-30.14 3.51-2.24 5.93-4.97 7.45-8.88 4.96-12.76 11.18-25.12 11.99-39.14 1.91-2.59 1.93-5.24.21-7.93.02-.89.05-1.78.07-2.67 4.5-4.46 3.88-10.7 5.56-16.14.93-3 .38-7.77 3.05-8.59 3.71-1.14 5.39 3.72 7.24 6.2 11.86 15.9 19.92 33.78 25.5 52.71 3.08 10.45 5.05 21.22 7.52 31.84.46 3.05.94 6.12 1.42 9.19z"/><path class="st140" d="M388.6 368.87c.55-5.65-1.23-12.12-1.64-25.29-.92-29.84-4.9-59.3-10.83-88.52-.34-1.69.08-2.25 1.57-2.45 13.2 5.59 19.53 16.65 22.65 29.72 6.7 28.11 13.79 56.17 19.07 84.56 3.01 16.19 11.54 26.56 24.84 34.75 4.98 3.07 9.1 7.75 13.09 12.16 16.64 18.35 35.64 34.16 53.94 50.73-.16 4.08-3.09 6.32-6.16 7.73-16.45 7.59-33.79 11.35-51.93 11.27-13.81-5.67-26.28-13.87-39.4-20.86-20.26-10.56-40.53-21.12-60.8-31.67 14.32-12.77 32.84-33.8 35.6-62.13z"/><path class="st339" d="M453.21 483.52c18.14.08 35.48-3.68 51.93-11.27 3.07-1.42 6-3.66 6.16-7.73 5.22 3.08 11.05 3.25 16.73 2.74 14.44-1.3 27.24 4.92 39.07 10.91 10.53 5.34 16.57 16.85 17.81 29.47.34 3.46-.02 7-5.02 7.67-4.45.59-7.12 6.16-7.5 8.16-1.15 6.12-6.9 5.78-9.57 9.23-1.6 2.06-3.6.76-5.44.01-5.2-2.13-9.31-5.69-13.17-9.68-6.88-7.12-15.04-11-25.23-11.14-10.6-.15-20.43-3.31-29.73-8.85-11.73-7-24-13.06-36.04-19.52z"/><path class="st140" d="M148.32 485.21l16.26-28.86c1.04 9.46 3.35 18.78 3.2 28.36-.07 4.85 3.02 8.72 3.77 13.43 1.6 10.01-.06 14.47-9.04 19.72-5.08 2.97-9.61 6.7-16.12 6.9-3.36.1-5.65 2.31-4.96 7.32 1.48 10.81 3.27 21.54 5.22 32.27.86 4.73.19 9.07-3.9 12.87-14.96 13.9-24.84 31.43-34.3 49.24-1.37 2.58-3.5 4.84-5.6 6.92-6.13 6.08-11.77 6.69-16.09 1.98-6.04-6.6-5.24-13.12.4-19.58 7.91-9.07 19.74-14.26 24.97-25.96 2.19-4.89 4.7-9.43 1.54-14.74 3.72-5.17 8.55-9.14 14.14-12 3.82-1.95 4.17-4.01 2.41-7.7-3.2-6.72-5.97-13.66-8.8-20.55-2.85-6.94-.9-13.64 5.03-18.54 4.41-3.65 8.66-7.48 13.01-11.2 6.12-5.22 12.09-10.5 8.86-19.88z"/></svg>