<?xml version="1.0" encoding="utf-8"?>
<!-- Generator: Adobe Illustrator 24.2.3, SVG Export Plug-In . SVG Version: 6.00 Build 0)  -->
<svg version="1.1" id="Слой_1" xmlns="http://www.w3.org/2000/svg" xmlns:xlink="http://www.w3.org/1999/xlink" x="0px" y="0px"
	 viewBox="0 0 585 908" style="enable-background:new 0 0 585 908;" xml:space="preserve">
<style type="text/css">
	.st0{fill:#000600;}
	.st1{fill:#0071C5;}
	.st2{clip-path:url(#SVGID_2_);fill:#83D5FB;}
	.st3{clip-path:url(#SVGID_2_);fill:#00ABF0;}
	.st4{clip-path:url(#SVGID_2_);fill:#57CAF9;}
	.st5{clip-path:url(#SVGID_2_);fill:#0071C5;}
	.st6{clip-path:url(#SVGID_2_);fill:#31C5F8;}
	.st7{clip-path:url(#SVGID_2_);fill:#3DD1F9;}
	.st8{clip-path:url(#SVGID_4_);fill:#00ABF0;}
	.st9{clip-path:url(#SVGID_4_);fill:#83D5FB;}
	.st10{clip-path:url(#SVGID_4_);fill:#31C5F8;}
	.st11{clip-path:url(#SVGID_4_);fill:#0071C5;}
	.st12{clip-path:url(#SVGID_4_);fill:#57CAF9;}
	.st13{clip-path:url(#SVGID_4_);fill:#A6A6A6;}
	.st14{opacity:0.14;fill:#000600;}
	.st15{clip-path:url(#SVGID_8_);fill:#C980DD;}
	.st16{clip-path:url(#SVGID_8_);fill:#E7B3EE;}
	.st17{clip-path:url(#SVGID_8_);fill:#8C9295;}
	.st18{clip-path:url(#SVGID_8_);fill:#921C9F;}
	.st19{clip-path:url(#SVGID_8_);fill:#CDD0D3;}
	.st20{clip-path:url(#SVGID_8_);fill:#DFDBD1;}
	.st21{clip-path:url(#SVGID_8_);fill:#543F31;}
	.st22{clip-path:url(#SVGID_8_);fill:#C38A75;}
	.st23{clip-path:url(#SVGID_8_);fill:#B3B9BC;}
	.st24{clip-path:url(#SVGID_8_);fill:#8B9295;}
	.st25{clip-path:url(#SVGID_8_);fill:#D59C87;}
	.st26{fill:#E7B3EE;}
	.st27{clip-path:url(#SVGID_10_);}
	.st28{fill:#D6A1E6;}
	.st29{fill:#C980DD;}
	.st30{clip-path:url(#SVGID_12_);fill:#FFE050;}
	.st31{opacity:0.5;clip-path:url(#SVGID_12_);}
	.st32{fill:#A2C9FF;}
	.st33{fill:#FF8B00;}
	.st34{clip-path:url(#SVGID_12_);fill:#FFECA0;}
	.st35{clip-path:url(#SVGID_12_);}
	.st36{fill:#F9C956;}
	.st37{fill:#FFECA0;}
	.st38{fill:#2A356B;}
	.st39{clip-path:url(#SVGID_12_);fill:#F9C956;}
	.st40{clip-path:url(#SVGID_12_);fill:#A2C9FF;}
	.st41{clip-path:url(#SVGID_12_);fill:#FF8B00;}
	.st42{clip-path:url(#SVGID_12_);fill:#2A356B;}
	.st43{fill:#1B254E;}
	.st44{clip-path:url(#SVGID_12_);fill:#C22C28;}
	.st45{clip-path:url(#SVGID_12_);fill:#FF7400;}
	.st46{fill:#FFE050;}
	.st47{clip-path:url(#SVGID_12_);fill:#FFEB82;}
	.st48{clip-path:url(#SVGID_14_);fill:#FFE286;}
	.st49{fill:#FFFFFF;}
	.st50{fill:#ACD7C2;}
	.st51{fill:none;stroke:#FFFFFF;stroke-miterlimit:10;}
	.st52{fill:#A1CAAA;}
	.st53{fill:#95CCA0;}
	.st54{opacity:0.76;}
	.st55{fill:#C3E8CC;}
	.st56{fill:url(#SVGID_15_);}
	.st57{fill:url(#SVGID_16_);}
	.st58{fill:url(#SVGID_17_);}
	.st59{fill:#F5E5BD;}
	.st60{fill:url(#SVGID_18_);}
	.st61{fill:url(#SVGID_19_);}
	.st62{fill:url(#SVGID_20_);}
	.st63{fill:url(#SVGID_21_);}
	.st64{fill:url(#SVGID_22_);}
	.st65{fill:url(#SVGID_23_);}
	.st66{fill:#E3EDC3;}
	.st67{fill:#EEFAD1;}
	.st68{fill:url(#SVGID_24_);}
	.st69{fill:url(#SVGID_25_);}
	.st70{fill:url(#SVGID_26_);}
	.st71{fill:url(#SVGID_27_);}
	.st72{fill:url(#SVGID_28_);}
	.st73{fill:#FFE392;}
	.st74{clip-path:url(#SVGID_30_);fill:url(#SVGID_31_);}
	.st75{fill:#5B2A1E;}
	.st76{fill:#8F7673;}
	.st77{fill:url(#SVGID_32_);}
	.st78{fill:url(#SVGID_33_);}
	.st79{fill:url(#SVGID_34_);}
	.st80{fill:url(#SVGID_35_);}
	.st81{fill:#F79291;}
	.st82{fill:url(#SVGID_36_);}
	.st83{fill:#FF9D5B;}
	.st84{opacity:0.75;fill:#FFFFFF;}
	.st85{fill:#FFC28E;}
	.st86{fill:none;}
	.st87{clip-path:url(#SVGID_38_);fill:#FFE0C3;}
	.st88{clip-path:url(#SVGID_38_);fill:#FF9F36;}
	.st89{clip-path:url(#SVGID_38_);fill:#FFF3E2;}
	.st90{clip-path:url(#SVGID_40_);fill:#FAC1E3;}
	.st91{opacity:0.8;clip-path:url(#SVGID_40_);fill:#EF8FC7;}
	.st92{clip-path:url(#SVGID_40_);fill:#EF8FC7;}
	.st93{opacity:0.79;clip-path:url(#SVGID_40_);fill:#FAC1E3;}
	.st94{fill:url(#SVGID_41_);}
	.st95{fill:#FFFDEC;}
	.st96{fill:#78CB99;}
	.st97{fill:#B2E1C4;}
	.st98{fill:#D8EFE2;}
	.st99{opacity:0.44;fill:#FFFFFF;}
	.st100{clip-path:url(#SVGID_43_);fill:#FFF7C8;}
	.st101{fill:url(#SVGID_44_);}
	.st102{fill:url(#SVGID_45_);}
	.st103{opacity:0.86;fill:#FFD0D7;}
	.st104{fill:url(#SVGID_46_);}
	.st105{opacity:0.66;}
	.st106{opacity:0.37;fill:#FFFFFF;}
	.st107{opacity:0.4;}
	.st108{opacity:0.26;fill:#FFFFFF;}
	.st109{opacity:0.62;fill:#FFFFFF;}
	.st110{opacity:0.41;fill:#FFFFFF;}
	.st111{opacity:0.69;fill:#FFFFFF;}
	.st112{opacity:0.73;fill:#FFFFFF;}
	.st113{opacity:0.16;fill:#FFFFFF;}
	.st114{opacity:0.3;fill:#FFFFFF;}
	.st115{opacity:0.23;fill:#FFFFFF;}
	.st116{opacity:0.24;fill:#FFFFFF;}
	.st117{opacity:0.43;fill:#FFFFFF;}
	.st118{opacity:0.76;fill:#FFFFFF;}
	.st119{opacity:0.08;fill:#FFFFFF;}
	.st120{opacity:0.27;fill:#FFFFFF;}
	.st121{opacity:0.46;}
	.st122{opacity:0.86;fill:#FFFFFF;}
	.st123{opacity:0.54;fill:#FFFFFF;}
	.st124{opacity:0.28;}
	.st125{clip-path:url(#SVGID_48_);fill:#F17171;}
	.st126{clip-path:url(#SVGID_48_);fill:#F79291;}
	.st127{clip-path:url(#SVGID_48_);fill:#FFC5C4;}
	.st128{clip-path:url(#SVGID_48_);fill:#FFFFFF;}
	.st129{clip-path:url(#SVGID_50_);}
	.st130{fill:#FF7B89;}
	.st131{clip-path:url(#SVGID_50_);fill:none;}
	.st132{fill:none;stroke:#FFFFFF;stroke-width:2;stroke-miterlimit:10;}
	.st133{opacity:0.45;fill:#FFFFFF;}
	.st134{opacity:0.8;fill:#FFFFFF;}
	.st135{opacity:0.79;fill:#FFFFFF;}
	.st136{fill:#F1C4A9;}
	.st137{fill:none;stroke:#FFFFFF;stroke-width:0.75;stroke-miterlimit:10;}
	.st138{fill:#FFFFFF;stroke:#FFFFFF;stroke-width:0.25;stroke-miterlimit:10;}
	.st139{fill:#00A5C4;}
	.st140{fill:#31C5F8;}
	.st141{fill:#57CAF9;}
	.st142{fill:#00A8B8;}
	.st143{fill:#EA90A7;}
	.st144{fill:#91693D;}
	.st145{fill:#F2BECD;}
	.st146{fill:#D87290;}
	.st147{fill:#574435;}
	.st148{fill:#C8A37C;}
	.st149{fill:#641F1E;}
	.st150{fill:#E16C8D;}
	.st151{fill:#D63665;}
	.st152{fill:#DDB689;}
	.st153{fill:#F64776;}
	.st154{fill:#DEB689;}
	.st155{fill:#F2769B;}
	.st156{fill:#FAFAF8;}
	.st157{fill:#F7C3DB;}
	.st158{fill:#E3B9B4;}
	.st159{fill:#FFBEC5;}
	.st160{fill:#FFC9D7;}
	.st161{fill:#C73F69;}
	.st162{fill:#F7F7F7;}
	.st163{fill:#F2F2F2;}
	.st164{fill:#FFFBF1;}
	.st165{fill:#F8C3D1;}
	.st166{fill:#FC7798;}
	.st167{fill:#FFC5C4;}
	.st168{fill:#FFD0D7;}
	.st169{fill:#B39D8E;}
	.st170{fill:#FFE4EB;}
	.st171{fill:#F1F1F1;}
	.st172{fill:#FFA5B2;}
	.st173{fill:#A2C4DB;}
	.st174{fill:#583B34;}
	.st175{fill:#B1CFE4;}
	.st176{fill:#FBFBFA;}
	.st177{fill:#E0CFC7;}
	.st178{fill:#D9946B;}
	.st179{fill:#FFEBF2;}
	.st180{fill:#FCDDE6;}
	.st181{fill:#F2CCC1;}
	.st182{fill:#DF4E50;}
	.st183{fill:#45BC7A;}
	.st184{fill:#87E4AE;}
	.st185{fill:#00AC5F;}
	.st186{fill:#7FD9A9;}
	.st187{fill:#F1BB3A;}
	.st188{fill:#B89E65;}
	.st189{fill:#97D183;}
	.st190{fill:#3C3724;}
	.st191{fill:#D5BDA1;}
	.st192{fill:#9B8174;}
	.st193{fill:#587147;}
	.st194{fill:#E6D5BD;}
	.st195{fill:#5CC588;}
	.st196{clip-path:url(#SVGID_58_);fill:#B2E1C4;}
	.st197{clip-path:url(#SVGID_58_);fill:#FFFFFF;}
	.st198{clip-path:url(#SVGID_58_);fill:#78CB99;}
	.st199{fill:#FFEB82;}
	.st200{fill:#FFDF47;}
	.st201{clip-path:url(#SVGID_60_);fill:#F3A368;}
	.st202{clip-path:url(#SVGID_60_);fill-rule:evenodd;clip-rule:evenodd;fill:#FF8D4F;}
	.st203{clip-path:url(#SVGID_60_);fill:#E45C26;}
	.st204{clip-path:url(#SVGID_60_);fill:#F8B846;}
	.st205{fill:#E45C26;}
	.st206{fill:#FF8D4F;}
	.st207{fill:#FFAB33;}
	.st208{fill:#E46D00;}
	.st209{fill:#EE6406;}
	.st210{fill:#FF9B00;}
	.st211{fill:#130077;}
	.st212{fill:#FFBA98;}
	.st213{opacity:0.3;}
	.st214{fill:#FF7300;}
	.st215{fill:#6E0000;}
	.st216{fill-rule:evenodd;clip-rule:evenodd;fill:#FF9B00;}
	.st217{fill-rule:evenodd;clip-rule:evenodd;fill:url(#SVGID_61_);}
	.st218{opacity:0.3;fill-rule:evenodd;clip-rule:evenodd;fill:#A3002C;}
	.st219{fill-rule:evenodd;clip-rule:evenodd;fill:url(#SVGID_62_);}
	.st220{fill-rule:evenodd;clip-rule:evenodd;fill:url(#SVGID_63_);}
	.st221{opacity:0.5;fill-rule:evenodd;clip-rule:evenodd;fill:url(#SVGID_64_);}
	.st222{fill-rule:evenodd;clip-rule:evenodd;fill:#FFC384;}
	.st223{fill-rule:evenodd;clip-rule:evenodd;fill:url(#SVGID_65_);}
	.st224{fill-rule:evenodd;clip-rule:evenodd;fill:url(#SVGID_66_);}
	.st225{fill-rule:evenodd;clip-rule:evenodd;fill:url(#SVGID_67_);}
	.st226{opacity:0.5;fill-rule:evenodd;clip-rule:evenodd;fill:url(#SVGID_68_);}
	.st227{fill-rule:evenodd;clip-rule:evenodd;fill:#F3A368;}
	.st228{opacity:0.5;fill-rule:evenodd;clip-rule:evenodd;fill:#F3A368;}
	.st229{fill-rule:evenodd;clip-rule:evenodd;fill:#FF8D4F;}
	.st230{fill-rule:evenodd;clip-rule:evenodd;fill:#FFAB33;}
	.st231{opacity:0.62;fill-rule:evenodd;clip-rule:evenodd;fill:#C7002A;}
	.st232{opacity:0.5;fill-rule:evenodd;clip-rule:evenodd;fill:#FF8D4F;}
	.st233{opacity:0.5;fill-rule:evenodd;clip-rule:evenodd;fill:#8E5472;}
	.st234{opacity:0.3;fill-rule:evenodd;clip-rule:evenodd;fill:url(#SVGID_69_);}
	.st235{opacity:0.5;fill-rule:evenodd;clip-rule:evenodd;fill:url(#SVGID_70_);}
	.st236{opacity:0.3;fill-rule:evenodd;clip-rule:evenodd;fill:url(#SVGID_71_);}
	.st237{opacity:0.3;fill-rule:evenodd;clip-rule:evenodd;fill:url(#SVGID_72_);}
	.st238{clip-path:url(#SVGID_74_);}
	.st239{clip-path:url(#SVGID_74_);fill:#FF8D4F;}
	.st240{fill:#F3A368;}
	.st241{clip-path:url(#SVGID_76_);}
	.st242{fill:#E98B38;}
	.st243{clip-path:url(#SVGID_78_);}
	.st244{fill:#F8B846;}
	.st245{clip-path:url(#SVGID_80_);}
	.st246{clip-path:url(#SVGID_80_);fill:#FF8D4F;}
	.st247{fill-rule:evenodd;clip-rule:evenodd;fill:url(#SVGID_81_);}
	.st248{fill-rule:evenodd;clip-rule:evenodd;fill:url(#SVGID_82_);}
	.st249{fill-rule:evenodd;clip-rule:evenodd;fill:url(#SVGID_83_);}
	.st250{opacity:0.5;fill-rule:evenodd;clip-rule:evenodd;fill:url(#SVGID_84_);}
	.st251{fill-rule:evenodd;clip-rule:evenodd;fill:url(#SVGID_85_);}
	.st252{fill-rule:evenodd;clip-rule:evenodd;fill:url(#SVGID_86_);}
	.st253{fill-rule:evenodd;clip-rule:evenodd;fill:url(#SVGID_87_);}
	.st254{opacity:0.5;fill-rule:evenodd;clip-rule:evenodd;fill:url(#SVGID_88_);}
	.st255{opacity:0.3;fill-rule:evenodd;clip-rule:evenodd;fill:url(#SVGID_89_);}
	.st256{opacity:0.5;fill-rule:evenodd;clip-rule:evenodd;fill:url(#SVGID_90_);}
	.st257{opacity:0.3;fill-rule:evenodd;clip-rule:evenodd;fill:url(#SVGID_91_);}
	.st258{opacity:0.3;fill-rule:evenodd;clip-rule:evenodd;fill:url(#SVGID_92_);}
	.st259{opacity:0.88;fill:#FFFEF4;}
	.st260{fill:#FFCF66;}
	.st261{fill:#AFABAC;}
	.st262{fill:#FFE286;}
	.st263{fill:#FFE787;}
	.st264{fill:#F6C700;}
	.st265{fill:#FFEA96;}
	.st266{clip-path:url(#SVGID_94_);fill:#F9C956;}
	.st267{clip-path:url(#SVGID_94_);fill:#FFE050;}
	.st268{clip-path:url(#SVGID_96_);fill:#921C9F;}
	.st269{opacity:0.5;clip-path:url(#SVGID_96_);}
	.st270{fill:#921C9F;}
	.st271{clip-path:url(#SVGID_96_);}
	.st272{clip-path:url(#SVGID_98_);fill:#D6A1E6;}
	.st273{fill:#BC59D3;}
	.st274{opacity:0.5;fill:#FFFFFF;}
	.st275{opacity:0.5;fill:#FFFFFF;stroke:#FFFFFF;stroke-miterlimit:10;}
	.st276{opacity:0.68;fill:#FFFFFF;}
	.st277{fill:#E9CBF2;}
	.st278{fill:#D9A2E1;}
	.st279{fill:#AA7B41;}
	.st280{fill:#8C9295;}
	.st281{fill:#CDD0D3;}
	.st282{fill:#DFDBD1;}
	.st283{fill:#543F31;}
	.st284{fill:#C38A75;}
	.st285{fill:#B3B9BC;}
	.st286{fill:#8B9295;}
	.st287{fill:#D59C87;}
	.st288{fill:#3DD1F9;}
	.st289{fill:#F92405;}
	.st290{fill:#B30000;}
	.st291{fill:#FA3C20;}
	.st292{fill:#E2A080;}
	.st293{fill:#950000;}
	.st294{fill:#F50000;}
	.st295{clip-path:url(#SVGID_100_);fill:#EA90A7;}
	.st296{clip-path:url(#SVGID_100_);fill:#FFEBF2;}
	.st297{clip-path:url(#SVGID_100_);fill:#D3CFB3;}
	.st298{clip-path:url(#SVGID_100_);fill:#FCDDE6;}
	.st299{clip-path:url(#SVGID_100_);}
	.st300{clip-path:url(#SVGID_100_);fill:#FFC9D7;}
	.st301{fill:#FA90B4;}
	.st302{fill:#BCA494;}
	.st303{fill:#63443C;}
	.st304{fill:#CFABA0;}
	.st305{fill:#A1C3DA;}
	.st306{fill:#9B7972;}
	.st307{fill:#77573F;}
	.st308{fill-rule:evenodd;clip-rule:evenodd;fill:#FA3C20;}
	.st309{fill-rule:evenodd;clip-rule:evenodd;fill:#D00707;}
	.st310{fill-rule:evenodd;clip-rule:evenodd;fill:#F92405;}
	.st311{fill-rule:evenodd;clip-rule:evenodd;fill:#F50000;}
	.st312{fill-rule:evenodd;clip-rule:evenodd;fill:#F95F53;}
	.st313{fill:#F95F53;}
	.st314{clip-path:url(#SVGID_102_);fill:#574435;}
	.st315{clip-path:url(#SVGID_102_);fill:#C8A37C;}
	.st316{clip-path:url(#SVGID_102_);fill:#91693D;}
	.st317{clip-path:url(#SVGID_102_);fill:#D00707;}
	.st318{clip-path:url(#SVGID_102_);fill:#FA3C20;}
	.st319{clip-path:url(#SVGID_102_);fill:#950000;}
	.st320{clip-path:url(#SVGID_102_);fill:#F95F53;}
	.st321{clip-path:url(#SVGID_102_);fill:#131212;}
	.st322{clip-path:url(#SVGID_102_);fill:#B30000;}
	.st323{clip-path:url(#SVGID_102_);fill:#412A1A;}
	.st324{clip-path:url(#SVGID_102_);fill:#DEC6AF;}
	.st325{clip-path:url(#SVGID_102_);fill:#BF855C;}
	.st326{fill:#D00707;}
	.st327{fill:#AB9DB8;}
	.st328{fill:#381A12;}
	.st329{fill:#EBCBB8;}
	.st330{fill:#AC9EBB;}
	.st331{fill:#F8F6F5;}
	.st332{fill:#0A345E;}
	.st333{fill:#412A1A;}
	.st334{fill:#131212;}
	.st335{fill:#DEC6AF;}
	.st336{fill:#BF855C;}
	.st337{opacity:0.79;fill:#FFBEC5;}
	.st338{opacity:0.79;fill:#FA90B4;}
	.st339{fill:#83D5FB;}
	.st340{fill:#00ABF0;}
	.st341{opacity:0.6;fill:#FFFFFF;}
	.st342{opacity:0.34;fill:#FFFFFF;}
	.st343{opacity:0.25;fill:#FFFFFF;}
	.st344{opacity:0.6;}
	.st345{fill:#B2B0AD;}
	.st346{fill:#0D0707;}
	.st347{fill:#A6A6A6;}
	.st348{fill:#0068A8;}
</style>
<path class="st339" d="M416.48,823.18c2.15,12.68,6.26,24.92,7.87,37.76c1.92,15.35,1.57,30.69,1.51,46.06c-28,0-56.01,0-84.01,0
	c-0.34-2.2-0.6-4.41-1.02-6.58c-3.86-19.71-7.75-39.42-11.63-59.12c-2.07-9.44-3.88-18.84-2.62-28.64c0.52-3.98,1.57-5.02,5.6-4.32
	c15.83,2.72,30.98,8.66,47.21,9.61c9.23,0.54,18.58,1.59,27.55-0.21C412.86,816.53,415.07,818.22,416.48,823.18z"/>
<path class="st339" d="M235.39,869.48c-0.02,12.5-0.05,25.01-0.07,37.51c-20.5,0-41.01,0-61.51,0
	c-3.78-10.92-7.57-21.83-11.34-32.75c1.59-1.47,3.56-1.68,5.58-1.67c16.66,0.1,33.2-1.62,49.79-2.75
	C223.61,869.44,229.52,867.07,235.39,869.48z"/>
<path class="st340" d="M235.39,869.48c-5.87-2.42-11.79-0.04-17.55,0.35c-16.59,1.13-33.13,2.85-49.79,2.75
	c-2.02-0.01-3.99,0.19-5.58,1.67c-10.89-0.91-21.78,0.18-32.67,0.07c-36.16-0.35-70.4-9.06-104.05-21.15
	c-5.39-1.94-10.58-4.54-16.09-6.04c-6.27-1.71-7.82-5.69-6.7-11.28c5.34-26.55,10.05-53.25,16.39-79.55
	c7.34-30.44,15.02-60.91,27.8-89.67c11.58-26.08,26.37-50.18,45.7-71.37c6.54-7.17,12.14-15.23,20.82-20.17
	c3.16,5.31,0.65,9.85-1.54,14.74c-5.23,11.7-17.06,16.89-24.97,25.96c-5.64,6.47-6.45,12.99-0.4,19.58
	c4.32,4.71,9.95,4.11,16.09-1.98c2.1-2.08,4.23-4.34,5.6-6.92c9.46-17.81,19.34-35.34,34.3-49.24c4.09-3.8,4.76-8.14,3.9-12.87
	c-1.95-10.73-3.74-21.46-5.22-32.27c-0.69-5.01,1.6-7.22,4.96-7.32c6.51-0.2,11.04-3.93,16.12-6.9c8.99-5.26,10.64-9.71,9.04-19.72
	c-0.75-4.72-3.84-8.58-3.77-13.43c0.14-9.58-2.16-18.9-3.21-28.36c-0.47-5.4-0.94-10.81-1.42-16.21
	c-2.47-10.62-4.45-21.4-7.52-31.84c-5.58-18.93-13.64-36.82-25.5-52.71c-1.85-2.48-3.53-7.34-7.24-6.2
	c-2.68,0.82-2.12,5.59-3.05,8.6c-1.68,5.43-1.06,11.67-5.56,16.14c-6.41-16.18-10.48-32.82-9.34-50.37c0.2-3.04,2.01-5.66,4.47-7.52
	c9.26-7.02,18.06-14.68,28.34-20.28c4.22,7.55,10.47,14.01,17.74,17.45c16.32,7.73,30.04,19.15,44.41,29.47
	c17.88,12.84,35.75,25.48,54.69,36.79c18.11,10.81,36.13,21.64,55.21,30.66c10.02,4.74,19.71,10.18,29.77,14.8
	c25.18,11.56,37.52,17.87,46.2,20.59c2.07,0.65,6.57,2.01,12.11,4.97c7.4,3.96,12.65,8.65,15.92,11.98
	c-8.31,9.53-8.24,23.87,0.89,37.69c6.49,9.82,11.19,16.86,17.96,34.36c2.69,6.95,4.25,12.87,5.13,16.68
	c1.06,2.81,2.57,7.16,3.95,12.59c2.25,8.9,2.78,15.68,3.13,18.24c1.63,12.02,4.27,23.9,9.51,34.72
	c11.71,24.19,18.38,49.36,21.43,76.16c3.11,27.34,5.71,54.84,11.16,81.91c1.42,7.02,1.15,14.37,1.99,21.53
	c0.64,5.42-1.85,8.07-6.54,10.22c-13.18,6.07-27.48,6.39-41.4,8.58c-6.61,1.04-13.36,1.37-20.06,1.57
	c-1.64,0.05-2.67,0.89-3.11,1.05c-13.89,5.11-38.49-0.02-38.49-0.02c-15.72-3.27-31.38-6.89-47.21-9.61
	c-4.03-0.69-5.09,0.34-5.6,4.32c-1.27,9.81,0.54,19.21,2.61,28.64c-4.83-1.4-7.89,2.31-11.61,4.05
	c-23.88,11.16-49.5,16.52-74.9,22.61C240.26,868.52,237.82,868.97,235.39,869.48z"/>
<path class="st340" d="M187.3,199.88c-14.96,11.06-32.41,12.41-50,12.07c-14.69-0.28-28.9,1.61-42.74,6.29
	c-5.44,1.84-6.61,0.74-5.55-4.96c2.73-14.66,11.59-25.05,22.24-34.58c9.75-8.72,21.02-15.16,31.74-22.46
	c0.21-0.14,0.44-0.23,0.66-0.35c19.71-10.93,30.77-26.74,30.29-50.21c-0.37-18.18,4.85-35.47,10.56-52.66
	c9.71-29.22,32.47-42.29,60.11-47.89c25.03-5.08,50.36-2.29,75.15,3.23c36.4,8.11,57.65,32.2,64.23,70.32
	c3.54,20.48,2.17,41.48,7.27,61.73c1.53,6.05,3.09,12.1,4.6,18.15c3.79,15.21,13.63,24.78,28.11,29.76
	c13.88,4.77,27,10.87,38.7,19.87c5.42,4.17,9.73,9.32,13.77,14.74c2.28,3.07,2.24,6.04-0.81,8.6
	c-12.56,10.53-25.87,19.02-43.43,16.11c-10.64-1.77-19.71-6.94-28.36-12.99c-9.63-6.72-19.19-13.54-28.77-20.34
	c-2.88-2.04-5.87-3.81-9.39-4.48c-12.49-8.74-26.62-14.26-40.4-20.45c-20.3-9.12-41.41-16.08-63.65-17.64
	C232.84,169.73,208.14,180.08,187.3,199.88z"/>
<path class="st339" d="M187.3,199.88c20.84-19.8,45.53-30.15,74.32-28.13c22.24,1.56,43.34,8.52,63.65,17.64
	c13.78,6.19,27.91,11.71,40.4,20.45c0.49,11.93-2.51,23.44-4.23,35.1c-4.61,13.27-12.08,24.64-24.16,32
	c-8.26,5.03-16.69,9.77-24.27,15.79c-12.03,9.57-25.78,15.97-39.98,21.29c-28.07,10.53-56.66,10.06-85.04,1.68
	c-16.23-4.79-31.88-11.37-44.74-23.02c8.57-8.15,19.75-12.3,29.19-19.17c12.48-9.09,25.46-17.49,39.44-24.16
	c2.87-1.37,4.32-2.65,2.63-6.21c-3.64-7.68-5.45-16.02-7.73-24.18c-0.58-2.08-0.66-5.27-3.47-5.07
	C193.06,214.63,190.66,206.8,187.3,199.88z"/>
<path class="st140" d="M143.25,292.69c12.86,11.66,28.51,18.23,44.74,23.02c28.38,8.38,56.97,8.85,85.04-1.68
	c14.2-5.33,27.95-11.72,39.98-21.29c7.58-6.03,16-10.76,24.27-15.79c12.08-7.35,19.55-18.72,24.16-32
	c5.42,2.55,10.84,5.1,16.26,7.66c-1.48,0.21-1.91,0.77-1.57,2.45c5.93,29.22,9.91,58.67,10.83,88.52
	c0.26,8.44,0.99,16.87,1.64,25.29c1.89,24.75,3.84,49.49,5.77,74.24c-1.92,4-4.09,4.73-8.58,2.6c-15.23-7.22-30.88-13.55-46.2-20.59
	c-10.07-4.62-19.76-10.06-29.77-14.8c-19.08-9.02-37.1-19.85-55.21-30.66c-18.94-11.31-36.81-23.95-54.69-36.79
	c-14.37-10.32-28.09-21.73-44.41-29.47c-7.27-3.44-13.51-9.9-17.74-17.45C139.2,294.2,141.2,293.4,143.25,292.69z"/>
<path class="st339" d="M164.61,449.35c-0.01,2.33-0.02,4.66-0.02,7c-5.42,9.62-10.84,19.24-16.26,28.86
	c-3.81,0.51-4.74,4.19-6.91,6.44c-12.17,12.64-25.25,24.12-40.43,33.02c-4.83,2.83-8.54,6.58-11.7,11.27
	c-8.25,12.24-19.12,22.29-28.92,33.21c-6.1,6.8-11.83,3.82-19.18-1.32c-7.42-5.19-13.96-11.39-21.34-16.35
	c-5.22-3.5-10.14-6.16-10.96-12.89c-0.22-1.82-0.74-3.01-2.5-4.13c-7.99-5.09-9.28-15.76-2.31-22.56c3.44-3.35,5.25-6.59,6.72-11.31
	c1.96-6.28,7.77-10.98,14.72-12.6c7.26-1.69,14.63-3.53,22.01-3.87c14.04-0.64,20.32-10.23,23.99-21.22
	c4.35-13.03,11.78-22.92,23.08-30.14c3.51-2.24,5.93-4.97,7.45-8.88c4.96-12.76,11.18-25.12,11.99-39.14
	c1.91-2.59,1.93-5.24,0.21-7.93c0.02-0.89,0.05-1.78,0.07-2.67c4.5-4.46,3.88-10.7,5.56-16.14c0.93-3,0.38-7.77,3.05-8.59
	c3.71-1.14,5.39,3.72,7.24,6.2c11.86,15.9,19.92,33.78,25.5,52.71c3.08,10.45,5.05,21.22,7.52,31.84
	C163.65,443.21,164.13,446.28,164.61,449.35z"/>
<path class="st140" d="M388.6,368.87c0.55-5.65-1.23-12.12-1.64-25.29c-0.92-29.84-4.9-59.3-10.83-88.52
	c-0.34-1.69,0.08-2.25,1.57-2.45c13.2,5.59,19.53,16.65,22.65,29.72c6.7,28.11,13.79,56.17,19.07,84.56
	c3.01,16.19,11.54,26.56,24.84,34.75c4.98,3.07,9.1,7.75,13.09,12.16c16.64,18.35,35.64,34.16,53.94,50.73
	c-0.16,4.08-3.09,6.32-6.16,7.73c-16.45,7.59-33.79,11.35-51.93,11.27c-13.81-5.67-26.28-13.87-39.4-20.86
	C393.54,452.11,373.27,441.55,353,431C367.32,418.23,385.84,397.2,388.6,368.87z"/>
<path class="st339" d="M453.21,483.52c18.14,0.08,35.48-3.68,51.93-11.27c3.07-1.42,6-3.66,6.16-7.73
	c5.22,3.08,11.05,3.25,16.73,2.74c14.44-1.3,27.24,4.92,39.07,10.91c10.53,5.34,16.57,16.85,17.81,29.47c0.34,3.46-0.02,7-5.02,7.67
	c-4.45,0.59-7.12,6.16-7.5,8.16c-1.15,6.12-6.9,5.78-9.57,9.23c-1.6,2.06-3.6,0.76-5.44,0.01c-5.2-2.13-9.31-5.69-13.17-9.68
	c-6.88-7.12-15.04-11-25.23-11.14c-10.6-0.15-20.43-3.31-29.73-8.85C477.52,496.04,465.25,489.98,453.21,483.52z"/>
<path class="st140" d="M148.32,485.21c5.42-9.62,10.84-19.24,16.26-28.86c1.04,9.46,3.35,18.78,3.2,28.36
	c-0.07,4.85,3.02,8.72,3.77,13.43c1.6,10.01-0.06,14.47-9.04,19.72c-5.08,2.97-9.61,6.7-16.12,6.9c-3.36,0.1-5.65,2.31-4.96,7.32
	c1.48,10.81,3.27,21.54,5.22,32.27c0.86,4.73,0.19,9.07-3.9,12.87c-14.96,13.9-24.84,31.43-34.3,49.24c-1.37,2.58-3.5,4.84-5.6,6.92
	c-6.13,6.08-11.77,6.69-16.09,1.98c-6.04-6.6-5.24-13.12,0.4-19.58c7.91-9.07,19.74-14.26,24.97-25.96
	c2.19-4.89,4.7-9.43,1.54-14.74c3.72-5.17,8.55-9.14,14.14-12c3.82-1.95,4.17-4.01,2.41-7.7c-3.2-6.72-5.97-13.66-8.8-20.55
	c-2.85-6.94-0.9-13.64,5.03-18.54c4.41-3.65,8.66-7.48,13.01-11.2C145.58,499.87,151.55,494.59,148.32,485.21z"/>
</svg>
