<?xml version="1.0" encoding="utf-8"?>
<!-- Generator: Adobe Illustrator 24.2.3, SVG Export Plug-In . SVG Version: 6.00 Build 0)  -->
<svg version="1.1" id="Слой_1" xmlns="http://www.w3.org/2000/svg" xmlns:xlink="http://www.w3.org/1999/xlink" x="0px" y="0px"
	 viewBox="0 0 585 149" style="enable-background:new 0 0 585 149;" xml:space="preserve">
<style type="text/css">
	.st0{fill:#000600;}
	.st1{clip-path:url(#SVGID_2_);fill:#D670E1;}
	.st2{clip-path:url(#SVGID_2_);fill:#E7B3EE;}
	.st3{clip-path:url(#SVGID_2_);fill:#8C9295;}
	.st4{clip-path:url(#SVGID_2_);fill:#921C9F;}
	.st5{clip-path:url(#SVGID_2_);fill:#CDD0D3;}
	.st6{clip-path:url(#SVGID_2_);fill:#DFDBD1;}
	.st7{clip-path:url(#SVGID_2_);fill:#543F31;}
	.st8{clip-path:url(#SVGID_2_);fill:#C38A75;}
	.st9{clip-path:url(#SVGID_2_);fill:#B3B9BC;}
	.st10{clip-path:url(#SVGID_2_);fill:#8B9295;}
	.st11{clip-path:url(#SVGID_2_);fill:#D59C87;}
	.st12{fill:#E7B3EE;}
	.st13{clip-path:url(#SVGID_4_);}
	.st14{fill:#E097E9;}
	.st15{fill:#D670E1;}
	.st16{clip-path:url(#SVGID_6_);fill:#FFE406;}
	.st17{opacity:0.5;clip-path:url(#SVGID_6_);}
	.st18{fill:#A2C9FF;}
	.st19{fill:#FF8B00;}
	.st20{clip-path:url(#SVGID_6_);fill:#FFECA0;}
	.st21{clip-path:url(#SVGID_6_);}
	.st22{fill:#FFCB33;}
	.st23{fill:#FFECA0;}
	.st24{fill:#2A356B;}
	.st25{clip-path:url(#SVGID_6_);fill:#FFCB33;}
	.st26{clip-path:url(#SVGID_6_);fill:#A2C9FF;}
	.st27{clip-path:url(#SVGID_6_);fill:#FF8B00;}
	.st28{clip-path:url(#SVGID_6_);fill:#2A356B;}
	.st29{fill:#1B254E;}
	.st30{clip-path:url(#SVGID_6_);fill:#C22C28;}
	.st31{clip-path:url(#SVGID_6_);fill:#FF7400;}
	.st32{fill:#FFE406;}
	.st33{clip-path:url(#SVGID_6_);fill:#FFEF6E;}
	.st34{clip-path:url(#SVGID_8_);fill:#FFE473;}
	.st35{fill:#FFFFFF;}
	.st36{fill:#ACD7C2;}
	.st37{fill:none;stroke:#FFFFFF;stroke-miterlimit:10;}
	.st38{fill:#A1CAAA;}
	.st39{fill:#95CCA0;}
	.st40{opacity:0.76;}
	.st41{fill:#C3E8CC;}
	.st42{fill:url(#SVGID_9_);}
	.st43{fill:url(#SVGID_10_);}
	.st44{fill:url(#SVGID_11_);}
	.st45{fill:#F5E5BD;}
	.st46{fill:url(#SVGID_12_);}
	.st47{fill:url(#SVGID_13_);}
	.st48{fill:url(#SVGID_14_);}
	.st49{fill:url(#SVGID_15_);}
	.st50{fill:url(#SVGID_16_);}
	.st51{fill:url(#SVGID_17_);}
	.st52{fill:#E3EDC3;}
	.st53{fill:#EEFAD1;}
	.st54{fill:url(#SVGID_18_);}
	.st55{fill:url(#SVGID_19_);}
	.st56{fill:url(#SVGID_20_);}
	.st57{fill:url(#SVGID_21_);}
	.st58{fill:url(#SVGID_22_);}
	.st59{fill:#FFE392;}
	.st60{clip-path:url(#SVGID_24_);fill:url(#SVGID_25_);}
	.st61{fill:#5B2A1E;}
	.st62{fill:#8F7673;}
	.st63{fill:url(#SVGID_26_);}
	.st64{fill:url(#SVGID_27_);}
	.st65{fill:url(#SVGID_28_);}
	.st66{fill:url(#SVGID_29_);}
	.st67{fill:#FF8A8A;}
	.st68{fill:url(#SVGID_30_);}
	.st69{fill:#FF963A;}
	.st70{opacity:0.75;fill:#FFFFFF;}
	.st71{fill:#FFC181;}
	.st72{fill:none;}
	.st73{clip-path:url(#SVGID_32_);fill:#FFDFBD;}
	.st74{clip-path:url(#SVGID_32_);fill:#FF9D00;}
	.st75{clip-path:url(#SVGID_32_);fill:#FFF3DF;}
	.st76{clip-path:url(#SVGID_34_);fill:#FFBAE4;}
	.st77{opacity:0.8;clip-path:url(#SVGID_34_);fill:#FE82C8;}
	.st78{clip-path:url(#SVGID_34_);fill:#FE82C8;}
	.st79{opacity:0.79;clip-path:url(#SVGID_34_);fill:#FFBAE4;}
	.st80{fill:url(#SVGID_35_);}
	.st81{fill:#FFFEEA;}
	.st82{fill:#58D196;}
	.st83{fill:#A6E5C3;}
	.st84{fill:#D2F2E1;}
	.st85{opacity:0.44;fill:#FFFFFF;}
	.st86{clip-path:url(#SVGID_37_);fill:#FFF9C1;}
	.st87{fill:url(#SVGID_38_);}
	.st88{fill:url(#SVGID_39_);}
	.st89{opacity:0.86;fill:#FFCCD5;}
	.st90{fill:url(#SVGID_40_);}
	.st91{opacity:0.66;}
	.st92{opacity:0.37;fill:#FFFFFF;}
	.st93{opacity:0.4;}
	.st94{opacity:0.26;fill:#FFFFFF;}
	.st95{opacity:0.62;fill:#FFFFFF;}
	.st96{opacity:0.41;fill:#FFFFFF;}
	.st97{opacity:0.69;fill:#FFFFFF;}
	.st98{opacity:0.73;fill:#FFFFFF;}
	.st99{opacity:0.16;fill:#FFFFFF;}
	.st100{opacity:0.3;fill:#FFFFFF;}
	.st101{opacity:0.23;fill:#FFFFFF;}
	.st102{opacity:0.24;fill:#FFFFFF;}
	.st103{opacity:0.43;fill:#FFFFFF;}
	.st104{opacity:0.76;fill:#FFFFFF;}
	.st105{opacity:0.08;fill:#FFFFFF;}
	.st106{opacity:0.27;fill:#FFFFFF;}
	.st107{opacity:0.46;}
	.st108{opacity:0.86;fill:#FFFFFF;}
	.st109{opacity:0.54;fill:#FFFFFF;}
	.st110{opacity:0.28;}
	.st111{clip-path:url(#SVGID_42_);fill:#FF6567;}
	.st112{clip-path:url(#SVGID_42_);fill:#FF8A8A;}
	.st113{clip-path:url(#SVGID_42_);fill:#FFC2C1;}
	.st114{clip-path:url(#SVGID_42_);fill:#FFFFFF;}
	.st115{clip-path:url(#SVGID_44_);fill:#E2E9FF;}
	.st116{clip-path:url(#SVGID_44_);fill:#EEF2FF;}
	.st117{opacity:0.54;clip-path:url(#SVGID_44_);fill:#EEF2FF;}
	.st118{opacity:0.54;clip-path:url(#SVGID_44_);fill:#8FAAF0;}
	.st119{clip-path:url(#SVGID_46_);}
	.st120{fill:#FF6B81;}
	.st121{clip-path:url(#SVGID_46_);fill:none;}
	.st122{fill:none;stroke:#FFFFFF;stroke-width:2;stroke-miterlimit:10;}
	.st123{opacity:0.45;fill:#FFFFFF;}
	.st124{opacity:0.8;fill:#FFFFFF;}
	.st125{opacity:0.79;fill:#FFFFFF;}
	.st126{fill:#F1C4A9;}
	.st127{fill:none;stroke:#FFFFFF;stroke-width:0.75;stroke-miterlimit:10;}
	.st128{fill:#FFFFFF;stroke:#FFFFFF;stroke-width:0.25;stroke-miterlimit:10;}
	.st129{fill:#0071C5;}
	.st130{fill:#00ABF0;}
	.st131{fill:#31C5F8;}
	.st132{fill:#57CAF9;}
	.st133{fill:#83D5FB;}
	.st134{fill:#F787A5;}
	.st135{fill:#91693D;}
	.st136{fill:#FBBACC;}
	.st137{fill:#E6678D;}
	.st138{fill:#574435;}
	.st139{fill:#C8A37C;}
	.st140{fill:#641F1E;}
	.st141{fill:#F15E89;}
	.st142{fill:#E7005E;}
	.st143{fill:#DDB689;}
	.st144{fill:#FF1B6F;}
	.st145{fill:#DEB689;}
	.st146{fill:#F2769B;}
	.st147{fill:#FAFAF8;}
	.st148{fill:#F7C3DB;}
	.st149{fill:#E3B9B4;}
	.st150{fill:#FFB9C3;}
	.st151{fill:#FFC5D6;}
	.st152{fill:#D72264;}
	.st153{fill:#F7F7F7;}
	.st154{fill:#F2F2F2;}
	.st155{fill:#FFFBF0;}
	.st156{fill:#FFBFCF;}
	.st157{fill:#FF6794;}
	.st158{fill:#FFC2C1;}
	.st159{fill:#FFCCD5;}
	.st160{fill:#B39D8E;}
	.st161{fill:#FFE2EA;}
	.st162{fill:#F1F1F1;}
	.st163{fill:#FF9DAE;}
	.st164{fill:#A2C4DB;}
	.st165{fill:#583B34;}
	.st166{fill:#B1CFE4;}
	.st167{fill:#FBFBFA;}
	.st168{fill:#E0CFC7;}
	.st169{fill:#D9946B;}
	.st170{fill:#FFE9F2;}
	.st171{fill:#FFDBE5;}
	.st172{fill:#F2CCC1;}
	.st173{fill:#DF4E50;}
	.st174{fill:#00C377;}
	.st175{fill:#87E4AE;}
	.st176{fill:#00B45A;}
	.st177{fill:#7FD9A9;}
	.st178{fill:#F1BB3A;}
	.st179{fill:#B89E65;}
	.st180{fill:#97D183;}
	.st181{fill:#3C3724;}
	.st182{fill:#D5BDA1;}
	.st183{fill:#9B8174;}
	.st184{fill:#587147;}
	.st185{fill:#E6D5BD;}
	.st186{fill:#5CC588;}
	.st187{clip-path:url(#SVGID_54_);fill:#A6E5C3;}
	.st188{clip-path:url(#SVGID_54_);fill:#FFFFFF;}
	.st189{clip-path:url(#SVGID_54_);fill:#58D196;}
	.st190{fill:#FFEF6E;}
	.st191{fill:#FFE200;}
	.st192{clip-path:url(#SVGID_56_);fill:#FDA157;}
	.st193{clip-path:url(#SVGID_56_);fill-rule:evenodd;clip-rule:evenodd;fill:#FF8429;}
	.st194{clip-path:url(#SVGID_56_);fill:#F35000;}
	.st195{clip-path:url(#SVGID_56_);fill:#F8B846;}
	.st196{fill:#F35000;}
	.st197{fill:#FF8429;}
	.st198{fill:#FFAB33;}
	.st199{fill:#E46D00;}
	.st200{fill:#EE6406;}
	.st201{fill:#FF9B00;}
	.st202{fill:#130077;}
	.st203{fill:#FFB58D;}
	.st204{opacity:0.3;}
	.st205{fill:#FF7300;}
	.st206{fill:#6E0000;}
	.st207{fill-rule:evenodd;clip-rule:evenodd;fill:#FF9B00;}
	.st208{fill-rule:evenodd;clip-rule:evenodd;fill:url(#SVGID_57_);}
	.st209{opacity:0.3;fill-rule:evenodd;clip-rule:evenodd;fill:#A3002C;}
	.st210{fill-rule:evenodd;clip-rule:evenodd;fill:url(#SVGID_58_);}
	.st211{fill-rule:evenodd;clip-rule:evenodd;fill:url(#SVGID_59_);}
	.st212{opacity:0.5;fill-rule:evenodd;clip-rule:evenodd;fill:url(#SVGID_60_);}
	.st213{fill-rule:evenodd;clip-rule:evenodd;fill:#FFC384;}
	.st214{fill-rule:evenodd;clip-rule:evenodd;fill:url(#SVGID_61_);}
	.st215{fill-rule:evenodd;clip-rule:evenodd;fill:url(#SVGID_62_);}
	.st216{fill-rule:evenodd;clip-rule:evenodd;fill:url(#SVGID_63_);}
	.st217{opacity:0.5;fill-rule:evenodd;clip-rule:evenodd;fill:url(#SVGID_64_);}
	.st218{fill-rule:evenodd;clip-rule:evenodd;fill:#FDA157;}
	.st219{opacity:0.5;fill-rule:evenodd;clip-rule:evenodd;fill:#FDA157;}
	.st220{fill-rule:evenodd;clip-rule:evenodd;fill:#FF8429;}
	.st221{fill-rule:evenodd;clip-rule:evenodd;fill:#FFAB33;}
	.st222{opacity:0.62;fill-rule:evenodd;clip-rule:evenodd;fill:#C7002A;}
	.st223{opacity:0.5;fill-rule:evenodd;clip-rule:evenodd;fill:#FF8429;}
	.st224{opacity:0.5;fill-rule:evenodd;clip-rule:evenodd;fill:#8E5472;}
	.st225{opacity:0.3;fill-rule:evenodd;clip-rule:evenodd;fill:url(#SVGID_65_);}
	.st226{opacity:0.5;fill-rule:evenodd;clip-rule:evenodd;fill:url(#SVGID_66_);}
	.st227{opacity:0.3;fill-rule:evenodd;clip-rule:evenodd;fill:url(#SVGID_67_);}
	.st228{opacity:0.3;fill-rule:evenodd;clip-rule:evenodd;fill:url(#SVGID_68_);}
	.st229{clip-path:url(#SVGID_70_);}
	.st230{clip-path:url(#SVGID_70_);fill:#FF8429;}
	.st231{fill:#FDA157;}
	.st232{clip-path:url(#SVGID_72_);}
	.st233{fill:#F58800;}
	.st234{clip-path:url(#SVGID_74_);}
	.st235{fill:#F8B846;}
	.st236{clip-path:url(#SVGID_76_);}
	.st237{clip-path:url(#SVGID_76_);fill:#FF8429;}
	.st238{fill-rule:evenodd;clip-rule:evenodd;fill:url(#SVGID_77_);}
	.st239{fill-rule:evenodd;clip-rule:evenodd;fill:url(#SVGID_78_);}
	.st240{fill-rule:evenodd;clip-rule:evenodd;fill:url(#SVGID_79_);}
	.st241{opacity:0.5;fill-rule:evenodd;clip-rule:evenodd;fill:url(#SVGID_80_);}
	.st242{fill-rule:evenodd;clip-rule:evenodd;fill:url(#SVGID_81_);}
	.st243{fill-rule:evenodd;clip-rule:evenodd;fill:url(#SVGID_82_);}
	.st244{fill-rule:evenodd;clip-rule:evenodd;fill:url(#SVGID_83_);}
	.st245{opacity:0.5;fill-rule:evenodd;clip-rule:evenodd;fill:url(#SVGID_84_);}
	.st246{opacity:0.3;fill-rule:evenodd;clip-rule:evenodd;fill:url(#SVGID_85_);}
	.st247{opacity:0.5;fill-rule:evenodd;clip-rule:evenodd;fill:url(#SVGID_86_);}
	.st248{opacity:0.3;fill-rule:evenodd;clip-rule:evenodd;fill:url(#SVGID_87_);}
	.st249{opacity:0.3;fill-rule:evenodd;clip-rule:evenodd;fill:url(#SVGID_88_);}
	.st250{opacity:0.88;fill:#FFFEF3;}
	.st251{fill:#FFCF66;}
	.st252{fill:#AFABAC;}
	.st253{fill:#FFE473;}
	.st254{fill:#FFE787;}
	.st255{fill:#F6C700;}
	.st256{fill:#FFEA96;}
	.st257{clip-path:url(#SVGID_90_);fill:#FFCB33;}
	.st258{clip-path:url(#SVGID_90_);fill:#FFE406;}
	.st259{clip-path:url(#SVGID_92_);fill:#921C9F;}
	.st260{opacity:0.5;clip-path:url(#SVGID_92_);}
	.st261{fill:#921C9F;}
	.st262{clip-path:url(#SVGID_92_);}
	.st263{clip-path:url(#SVGID_94_);fill:#E097E9;}
	.st264{fill:#CC37D8;}
	.st265{opacity:0.5;fill:#FFFFFF;}
	.st266{opacity:0.5;fill:#FFFFFF;stroke:#FFFFFF;stroke-miterlimit:10;}
	.st267{opacity:0.68;fill:#FFFFFF;}
	.st268{fill:#F0C6F4;}
	.st269{fill:#D9A2E1;}
	.st270{fill:#AA7B41;}
	.st271{fill:#8C9295;}
	.st272{fill:#CDD0D3;}
	.st273{fill:#DFDBD1;}
	.st274{fill:#543F31;}
	.st275{fill:#C38A75;}
	.st276{fill:#B3B9BC;}
	.st277{fill:#8B9295;}
	.st278{fill:#D59C87;}
	.st279{fill:#F92405;}
	.st280{fill:#B30000;}
	.st281{fill:#FA3C20;}
	.st282{fill:#E2A080;}
	.st283{fill:#950000;}
	.st284{fill:#F50000;}
	.st285{clip-path:url(#SVGID_96_);fill:#F787A5;}
	.st286{clip-path:url(#SVGID_96_);fill:#FFE9F2;}
	.st287{clip-path:url(#SVGID_96_);fill:#D3CFB3;}
	.st288{clip-path:url(#SVGID_96_);fill:#FFDBE5;}
	.st289{clip-path:url(#SVGID_96_);}
	.st290{clip-path:url(#SVGID_96_);fill:#FFC5D6;}
	.st291{fill:#FA90B4;}
	.st292{fill:#BCA494;}
	.st293{fill:#63443C;}
	.st294{fill:#CFABA0;}
	.st295{fill:#A1C3DA;}
	.st296{fill:#9B7972;}
	.st297{fill:#77573F;}
	.st298{fill-rule:evenodd;clip-rule:evenodd;fill:#FA3C20;}
	.st299{fill-rule:evenodd;clip-rule:evenodd;fill:#D00707;}
	.st300{fill-rule:evenodd;clip-rule:evenodd;fill:#F92405;}
	.st301{fill-rule:evenodd;clip-rule:evenodd;fill:#F50000;}
	.st302{fill-rule:evenodd;clip-rule:evenodd;fill:#F95F53;}
	.st303{fill:#F95F53;}
	.st304{clip-path:url(#SVGID_98_);fill:#574435;}
	.st305{clip-path:url(#SVGID_98_);fill:#C8A37C;}
	.st306{clip-path:url(#SVGID_98_);fill:#91693D;}
	.st307{clip-path:url(#SVGID_98_);fill:#D00707;}
	.st308{clip-path:url(#SVGID_98_);fill:#FA3C20;}
	.st309{clip-path:url(#SVGID_98_);fill:#950000;}
	.st310{clip-path:url(#SVGID_98_);fill:#F95F53;}
	.st311{clip-path:url(#SVGID_98_);fill:#131212;}
	.st312{clip-path:url(#SVGID_98_);fill:#B30000;}
	.st313{clip-path:url(#SVGID_98_);fill:#412A1A;}
	.st314{clip-path:url(#SVGID_98_);fill:#DEC6AF;}
	.st315{clip-path:url(#SVGID_98_);fill:#BF855C;}
	.st316{fill:#D00707;}
	.st317{fill:#AB9DB8;}
	.st318{fill:#381A12;}
	.st319{fill:#EBCBB8;}
	.st320{fill:#AC9EBB;}
	.st321{fill:#F8F6F5;}
	.st322{fill:#0A345E;}
	.st323{fill:#412A1A;}
	.st324{fill:#131212;}
	.st325{fill:#DEC6AF;}
	.st326{fill:#BF855C;}
</style>
<g>
	<path class="st316" d="M486.51,48.04c-1.65,3.35-3.55,6.88-5.69,10.4c-8.85,14.56-23.88,32.11-45.17,33.07
		C415,92.44,399.98,74.51,391.01,59.3c-2.24-3.8-4.22-7.62-5.95-11.26h-2.22c1.84,3.94,3.98,8.1,6.42,12.25
		c5.86,9.94,12.28,17.79,19.08,23.34c8.09,6.6,16.75,9.93,25.75,9.93c0.55,0,1.1-0.01,1.65-0.04c9.82-0.44,19.18-4.24,27.8-11.3
		c6.85-5.6,13.25-13.27,19.02-22.77c2.36-3.88,4.42-7.75,6.19-11.41H486.51z"/>
	<path class="st316" d="M291.23,48.04c-5.13,14.6-14.27,33.1-27.45,32.29c-6.55-0.4-12.06-4.73-16.57-10.66
		c3.63-10.97,5.45-19.58,5.47-19.7l-1.97-0.41c-0.02,0.12-1.68,7.92-4.96,18.1c-4.11-5.99-7.31-13.22-9.65-19.61h-2.16
		c0.97,2.72,2.1,5.59,3.39,8.47c2.36,5.28,4.92,9.81,7.63,13.52c-1.44,4.28-3.16,8.89-5.14,13.47c-4.23,9.73-8.84,17.39-13.71,22.78
		c-5.96,6.59-12.31,9.73-18.86,9.33c-6.8-0.41-13.31-4.02-19.34-10.73c-4.42-4.91-8.59-11.47-12.42-19.51
		c3.92-5.17,7.64-11.79,11.1-19.74c2.64-6.08,4.8-12.22,6.49-17.59h-2.11c-1.64,5.17-3.72,11.02-6.24,16.81
		c-3.2,7.36-6.62,13.54-10.2,18.45c-0.1-0.22-0.2-0.43-0.3-0.65c-7.13-15.92-10.54-31.84-10.58-32l-1.96,0.42
		c0.03,0.16,3.48,16.26,10.69,32.37c0.25,0.56,0.51,1.12,0.76,1.67c-0.7,0.89-1.41,1.73-2.12,2.52c-5.96,6.59-12.31,9.73-18.86,9.33
		c-6.8-0.41-13.31-4.02-19.34-10.73c-4.91-5.45-9.51-12.93-13.68-22.24c-2.48-5.54-4.51-11.08-6.11-15.96h-2.11
		c1.64,5.08,3.76,10.91,6.37,16.75c4.25,9.5,8.97,17.17,14.02,22.78c6.41,7.12,13.38,10.95,20.73,11.4
		c0.42,0.03,0.83,0.04,1.24,0.04c6.75,0,13.22-3.37,19.24-10.04c0.53-0.59,1.06-1.2,1.58-1.84c3.79,7.81,7.92,14.22,12.3,19.09
		c6.41,7.12,13.38,10.95,20.73,11.4c0.42,0.03,0.83,0.04,1.24,0.04c6.75,0,13.22-3.37,19.24-10.04c5.02-5.55,9.75-13.4,14.06-23.34
		c1.81-4.17,3.4-8.37,4.76-12.33c0.49,0.6,0.98,1.18,1.48,1.74c4.86,5.4,10.15,8.31,15.74,8.65c0.32,0.02,0.63,0.03,0.95,0.03
		c5.14,0,10.06-2.56,14.64-7.62c3.79-4.19,7.36-10.11,10.61-17.6c1.34-3.08,2.51-6.17,3.52-9.1H291.23z"/>
	<g>
		<polygon class="st316" points="305.71,-0.15 330.07,23.28 353.96,0.3 356.45,2.69 332.56,25.66 356.45,48.64 353.96,51.03 
			330.07,28.05 305.94,51.25 303.46,48.86 327.58,25.66 303.23,2.24 		"/>
		<polygon class="st316" points="355.27,-0.15 375.37,23.28 395.09,0.3 397.14,2.69 377.42,25.66 397.14,48.64 395.09,51.03 
			375.37,28.05 355.46,51.25 353.41,48.86 373.32,25.66 353.22,2.24 		"/>
		<polygon class="st316" points="255.72,-0.15 280.08,23.28 303.97,0.3 306.46,2.69 282.56,25.66 306.46,48.64 303.97,51.03 
			280.08,28.05 255.95,51.25 253.47,48.86 277.59,25.66 253.24,2.24 		"/>
		<polygon class="st316" points="205.73,-0.15 230.09,23.28 253.98,0.3 256.47,2.69 232.57,25.66 256.47,48.64 253.98,51.03 
			230.09,28.05 205.96,51.25 203.48,48.86 227.6,25.66 203.24,2.24 		"/>
		<polygon class="st316" points="155.74,-0.15 180.1,23.28 203.99,0.3 206.48,2.69 182.58,25.66 206.48,48.64 203.99,51.03 
			180.1,28.05 155.97,51.25 153.48,48.86 177.61,25.66 153.25,2.24 		"/>
		<polygon class="st316" points="105.75,-0.15 130.1,23.28 154,0.3 156.48,2.69 132.59,25.66 156.48,48.64 154,51.03 130.1,28.05 
			105.98,51.25 103.49,48.86 127.62,25.66 103.26,2.24 		"/>
		<polygon class="st316" points="55.76,-0.15 80.11,23.28 104.01,0.3 106.49,2.69 82.6,25.66 106.49,48.64 104.01,51.03 
			80.11,28.05 55.99,51.25 53.5,48.86 77.63,25.66 53.27,2.24 		"/>
		<polygon class="st316" points="5.76,-0.15 30.12,23.28 54.02,0.3 56.5,2.69 32.61,25.66 56.5,48.64 54.02,51.03 30.12,28.05 
			6,51.25 3.51,48.86 27.64,25.66 3.28,2.24 		"/>
		<g>
			<rect x="0.09" y="48.15" class="st316" width="383.02" height="3.38"/>
		</g>
		<path class="st316" d="M585,34.01c-2.85-2.78-5.71-5.56-8.56-8.35l8.55-8.22c0-1.6,0.01-3.19,0.01-4.79l-11.04,10.62L549.6-0.15
			l-2.49,2.39l24.36,23.42l-24.13,23.2l2.49,2.39l24.13-23.2c3.68,3.55,7.36,7.09,11.05,10.64C585,37.13,585,35.57,585,34.01z"/>
		<polygon class="st316" points="499.61,-0.15 523.96,23.28 547.86,0.3 550.34,2.69 526.45,25.66 550.34,48.64 547.86,51.03 
			523.96,28.05 499.84,51.25 497.35,48.86 521.48,25.66 497.12,2.24 		"/>
		<polygon class="st316" points="449.61,-0.15 473.97,23.28 497.87,0.3 500.35,2.69 476.46,25.66 500.35,48.64 497.87,51.03 
			473.97,28.05 449.85,51.25 447.36,48.86 471.49,25.66 447.13,2.24 		"/>
		<polygon class="st316" points="399.62,-0.15 423.98,23.28 447.87,0.3 450.36,2.69 426.47,25.66 450.36,48.64 447.87,51.03 
			423.98,28.05 399.85,51.25 397.37,48.86 421.49,25.66 397.14,2.24 		"/>
		<g>
			<path class="st316" d="M585,48.05c-67.3,0.03-134.59,0.07-201.89,0.1v3.38c67.3,0.01,134.59,0.02,201.89,0.03
				C585,50.39,585,49.22,585,48.05z"/>
		</g>
	</g>
	<polygon class="st283" points="23.28,84.59 24.09,89.68 48.49,114.08 49.3,110.62 45.44,95.78 	"/>
	<polygon class="st316" points="23.28,84.59 44.42,63.45 54.18,63.45 76.55,84.59 49.3,110.62 	"/>
	<polygon class="st283" points="93.63,102.49 88.69,107.55 85.09,104.52 81.43,108.79 84.05,112.28 73.87,122.68 70.86,118.35 
		67.61,124.25 69.64,127.01 65.78,130.96 75.33,147.43 111.94,109.4 	"/>
	<polygon class="st303" points="45.64,125.67 42.59,140.72 56.22,148.65 62.93,131.97 48.69,121.4 	"/>
	<polygon class="st303" points="49.51,118.55 63.74,129.74 92.01,100.46 78.99,89.27 	"/>
	<polygon class="st303" points="85.9,82.59 99.73,75.85 110.72,87.64 94.24,98.83 82.65,87.85 	"/>
	<polygon class="st283" points="76.55,84.59 49.3,110.62 45.64,125.67 90.79,81.54 	"/>
	<polygon class="st303" points="87.74,98.02 92.01,93.74 93.84,96.79 89.36,100.46 	"/>
	<path class="st303" d="M56.62,129.74c0.2-0.2,7.12-6.91,7.12-6.91l-0.81,5.9c0,0-4.47,4.88-4.47,4.68
		C58.46,133.19,56.62,129.74,56.62,129.74z"/>
	
		<ellipse transform="matrix(0.7071 -0.7071 0.7071 0.7071 -56.4856 83.4617)" class="st316" cx="72.5" cy="109.91" rx="16.47" ry="5.46"/>
	<rect x="26.43" y="49.77" class="st316" width="2.87" height="33.28"/>
	<rect x="63.73" y="49.77" class="st316" width="2.87" height="33.28"/>
	<polygon class="st283" points="375.33,84.59 374.52,89.68 350.12,114.08 349.3,110.62 353.17,95.78 	"/>
	<polygon class="st316" points="375.33,84.59 354.19,63.45 344.42,63.45 322.06,84.59 349.3,110.62 	"/>
	<polygon class="st283" points="304.97,102.49 309.92,107.55 313.52,104.52 317.18,108.79 314.56,112.28 324.74,122.68 
		327.75,118.35 331,124.25 328.97,127.01 332.83,130.96 323.28,147.43 286.67,109.4 	"/>
	<polygon class="st303" points="352.97,125.67 356.02,140.72 342.39,148.65 335.68,131.97 349.91,121.4 	"/>
	<polygon class="st303" points="349.1,118.55 334.87,129.74 306.6,100.46 319.62,89.27 	"/>
	<polygon class="st303" points="312.71,82.59 298.87,75.85 287.89,87.64 304.36,98.83 315.96,87.85 	"/>
	<polygon class="st283" points="322.06,84.59 349.3,110.62 352.97,125.67 307.82,81.54 	"/>
	<polygon class="st303" points="310.87,98.02 306.6,93.74 304.77,96.79 309.25,100.46 	"/>
	<path class="st303" d="M341.98,129.74c-0.2-0.2-7.12-6.91-7.12-6.91l0.81,5.9c0,0,4.47,4.88,4.47,4.68
		C340.15,133.19,341.98,129.74,341.98,129.74z"/>
	<path class="st316" d="M329.97,106.05c6.43,6.43,9.92,13.38,7.79,15.51c-2.13,2.13-9.08-1.35-15.51-7.79
		c-6.43-6.43-9.92-13.38-7.79-15.51C316.59,96.13,323.53,99.62,329.97,106.05z"/>
	
		<rect x="369.31" y="49.77" transform="matrix(-1 -1.224647e-16 1.224647e-16 -1 741.4855 132.8145)" class="st316" width="2.87" height="33.28"/>
	
		<rect x="332.01" y="49.77" transform="matrix(-1 -1.224647e-16 1.224647e-16 -1 666.8848 132.8145)" class="st316" width="2.87" height="33.28"/>
	<polygon class="st283" points="492.97,84.59 493.79,89.68 518.19,114.08 519,110.62 515.14,95.78 	"/>
	<polygon class="st316" points="492.97,84.59 514.12,63.45 523.88,63.45 546.25,84.59 519,110.62 	"/>
	<polygon class="st283" points="563.33,102.49 558.38,107.55 554.79,104.52 551.13,108.79 553.75,112.28 543.57,122.68 
		540.56,118.35 537.3,124.25 539.34,127.01 535.47,130.96 545.03,147.43 581.63,109.4 	"/>
	<polygon class="st303" points="515.34,125.67 512.29,140.72 525.92,148.65 532.63,131.97 518.39,121.4 	"/>
	<polygon class="st303" points="519.21,118.55 533.44,129.74 561.7,100.46 548.69,89.27 	"/>
	<polygon class="st303" points="555.59,82.59 569.43,75.85 580.41,87.64 563.94,98.83 552.35,87.85 	"/>
	<polygon class="st283" points="546.25,84.59 519,110.62 515.34,125.67 560.48,81.54 	"/>
	<path class="st316" d="M538.34,106.05c-6.43,6.43-9.92,13.38-7.79,15.51s9.08-1.35,15.51-7.79c6.43-6.43,9.92-13.38,7.79-15.51
		C551.72,96.13,544.77,99.62,538.34,106.05z"/>
	<rect x="496.13" y="49.77" class="st316" width="2.87" height="33.28"/>
	<rect x="533.43" y="49.77" class="st316" width="2.87" height="33.28"/>
</g>
</svg>
