<?xml version="1.0" encoding="utf-8"?>
<!-- Generator: Adobe Illustrator 24.2.3, SVG Export Plug-In . SVG Version: 6.00 Build 0)  -->
<svg version="1.1" id="Слой_1" xmlns="http://www.w3.org/2000/svg" xmlns:xlink="http://www.w3.org/1999/xlink" x="0px" y="0px"
	 viewBox="0 0 585 693" style="enable-background:new 0 0 585 693;" xml:space="preserve">
<style type="text/css">
	.st0{fill:#000600;}
	.st1{clip-path:url(#SVGID_2_);fill:#D670E1;}
	.st2{clip-path:url(#SVGID_2_);fill:#E7B3EE;}
	.st3{clip-path:url(#SVGID_2_);fill:#8C9295;}
	.st4{clip-path:url(#SVGID_2_);fill:#921C9F;}
	.st5{clip-path:url(#SVGID_2_);fill:#CDD0D3;}
	.st6{clip-path:url(#SVGID_2_);fill:#DFDBD1;}
	.st7{clip-path:url(#SVGID_2_);fill:#543F31;}
	.st8{clip-path:url(#SVGID_2_);fill:#C38A75;}
	.st9{clip-path:url(#SVGID_2_);fill:#B3B9BC;}
	.st10{clip-path:url(#SVGID_2_);fill:#8B9295;}
	.st11{clip-path:url(#SVGID_2_);fill:#D59C87;}
	.st12{fill:#E7B3EE;}
	.st13{clip-path:url(#SVGID_4_);}
	.st14{fill:#E097E9;}
	.st15{fill:#D670E1;}
	.st16{clip-path:url(#SVGID_6_);fill:#FFE406;}
	.st17{opacity:0.5;clip-path:url(#SVGID_6_);}
	.st18{fill:#A2C9FF;}
	.st19{fill:#FF8B00;}
	.st20{clip-path:url(#SVGID_6_);fill:#FFECA0;}
	.st21{clip-path:url(#SVGID_6_);}
	.st22{fill:#FFCB33;}
	.st23{fill:#FFECA0;}
	.st24{fill:#2A356B;}
	.st25{clip-path:url(#SVGID_6_);fill:#FFCB33;}
	.st26{clip-path:url(#SVGID_6_);fill:#A2C9FF;}
	.st27{clip-path:url(#SVGID_6_);fill:#FF8B00;}
	.st28{clip-path:url(#SVGID_6_);fill:#2A356B;}
	.st29{fill:#1B254E;}
	.st30{clip-path:url(#SVGID_6_);fill:#C22C28;}
	.st31{clip-path:url(#SVGID_6_);fill:#FF7400;}
	.st32{fill:#FFE406;}
	.st33{clip-path:url(#SVGID_6_);fill:#FFEF6E;}
	.st34{clip-path:url(#SVGID_8_);fill:#FFE473;}
	.st35{fill:#FFFFFF;}
	.st36{fill:#ACD7C2;}
	.st37{fill:none;stroke:#FFFFFF;stroke-miterlimit:10;}
	.st38{fill:#A1CAAA;}
	.st39{fill:#95CCA0;}
	.st40{opacity:0.76;}
	.st41{fill:#C3E8CC;}
	.st42{fill:url(#SVGID_9_);}
	.st43{fill:url(#SVGID_10_);}
	.st44{fill:url(#SVGID_11_);}
	.st45{fill:#F5E5BD;}
	.st46{fill:url(#SVGID_12_);}
	.st47{fill:url(#SVGID_13_);}
	.st48{fill:url(#SVGID_14_);}
	.st49{fill:url(#SVGID_15_);}
	.st50{fill:url(#SVGID_16_);}
	.st51{fill:url(#SVGID_17_);}
	.st52{fill:#E3EDC3;}
	.st53{fill:#EEFAD1;}
	.st54{fill:url(#SVGID_18_);}
	.st55{fill:url(#SVGID_19_);}
	.st56{fill:url(#SVGID_20_);}
	.st57{fill:url(#SVGID_21_);}
	.st58{fill:url(#SVGID_22_);}
	.st59{fill:#FFE392;}
	.st60{clip-path:url(#SVGID_24_);fill:url(#SVGID_25_);}
	.st61{fill:#5B2A1E;}
	.st62{fill:#8F7673;}
	.st63{fill:url(#SVGID_26_);}
	.st64{fill:url(#SVGID_27_);}
	.st65{fill:url(#SVGID_28_);}
	.st66{fill:url(#SVGID_29_);}
	.st67{fill:#FF8A8A;}
	.st68{fill:url(#SVGID_30_);}
	.st69{fill:#FF963A;}
	.st70{opacity:0.75;fill:#FFFFFF;}
	.st71{fill:#FFC181;}
	.st72{fill:none;}
	.st73{clip-path:url(#SVGID_32_);fill:#FFDFBD;}
	.st74{clip-path:url(#SVGID_32_);fill:#FF9D00;}
	.st75{clip-path:url(#SVGID_32_);fill:#FFF3DF;}
	.st76{clip-path:url(#SVGID_34_);fill:#FFBAE4;}
	.st77{opacity:0.8;clip-path:url(#SVGID_34_);fill:#FE82C8;}
	.st78{clip-path:url(#SVGID_34_);fill:#FE82C8;}
	.st79{opacity:0.79;clip-path:url(#SVGID_34_);fill:#FFBAE4;}
	.st80{fill:url(#SVGID_35_);}
	.st81{fill:#FFFEEA;}
	.st82{fill:#58D196;}
	.st83{fill:#A6E5C3;}
	.st84{fill:#D2F2E1;}
	.st85{opacity:0.44;fill:#FFFFFF;}
	.st86{clip-path:url(#SVGID_37_);fill:#FFF9C1;}
	.st87{fill:url(#SVGID_38_);}
	.st88{fill:url(#SVGID_39_);}
	.st89{opacity:0.86;fill:#FFCCD5;}
	.st90{fill:url(#SVGID_40_);}
	.st91{opacity:0.66;}
	.st92{opacity:0.37;fill:#FFFFFF;}
	.st93{opacity:0.4;}
	.st94{opacity:0.26;fill:#FFFFFF;}
	.st95{opacity:0.62;fill:#FFFFFF;}
	.st96{opacity:0.41;fill:#FFFFFF;}
	.st97{opacity:0.69;fill:#FFFFFF;}
	.st98{opacity:0.73;fill:#FFFFFF;}
	.st99{opacity:0.16;fill:#FFFFFF;}
	.st100{opacity:0.3;fill:#FFFFFF;}
	.st101{opacity:0.23;fill:#FFFFFF;}
	.st102{opacity:0.24;fill:#FFFFFF;}
	.st103{opacity:0.43;fill:#FFFFFF;}
	.st104{opacity:0.76;fill:#FFFFFF;}
	.st105{opacity:0.08;fill:#FFFFFF;}
	.st106{opacity:0.27;fill:#FFFFFF;}
	.st107{opacity:0.46;}
	.st108{opacity:0.86;fill:#FFFFFF;}
	.st109{opacity:0.54;fill:#FFFFFF;}
	.st110{opacity:0.28;}
	.st111{clip-path:url(#SVGID_42_);fill:#FF6567;}
	.st112{clip-path:url(#SVGID_42_);fill:#FF8A8A;}
	.st113{clip-path:url(#SVGID_42_);fill:#FFC2C1;}
	.st114{clip-path:url(#SVGID_42_);fill:#FFFFFF;}
	.st115{clip-path:url(#SVGID_44_);fill:#E2E9FF;}
	.st116{clip-path:url(#SVGID_44_);fill:#EEF2FF;}
	.st117{opacity:0.54;clip-path:url(#SVGID_44_);fill:#EEF2FF;}
	.st118{opacity:0.54;clip-path:url(#SVGID_44_);fill:#8FAAF0;}
	.st119{clip-path:url(#SVGID_46_);}
	.st120{fill:#FF6B81;}
	.st121{clip-path:url(#SVGID_46_);fill:none;}
	.st122{fill:none;stroke:#FFFFFF;stroke-width:2;stroke-miterlimit:10;}
	.st123{opacity:0.45;fill:#FFFFFF;}
	.st124{opacity:0.8;fill:#FFFFFF;}
	.st125{opacity:0.79;fill:#FFFFFF;}
	.st126{fill:#F1C4A9;}
	.st127{fill:none;stroke:#FFFFFF;stroke-width:0.75;stroke-miterlimit:10;}
	.st128{fill:#FFFFFF;stroke:#FFFFFF;stroke-width:0.25;stroke-miterlimit:10;}
	.st129{fill:#0071C5;}
	.st130{fill:#00ABF0;}
	.st131{fill:#31C5F8;}
	.st132{fill:#57CAF9;}
	.st133{fill:#83D5FB;}
	.st134{fill:#F787A5;}
	.st135{fill:#91693D;}
	.st136{fill:#FBBACC;}
	.st137{fill:#E6678D;}
	.st138{fill:#574435;}
	.st139{fill:#C8A37C;}
	.st140{fill:#641F1E;}
	.st141{fill:#F15E89;}
	.st142{fill:#E7005E;}
	.st143{fill:#DDB689;}
	.st144{fill:#FF1B6F;}
	.st145{fill:#DEB689;}
	.st146{fill:#F2769B;}
	.st147{fill:#FAFAF8;}
	.st148{fill:#F7C3DB;}
	.st149{fill:#E3B9B4;}
	.st150{fill:#FFB9C3;}
	.st151{fill:#FFC5D6;}
	.st152{fill:#D72264;}
	.st153{fill:#F7F7F7;}
	.st154{fill:#F2F2F2;}
	.st155{fill:#FFFBF0;}
	.st156{fill:#FFBFCF;}
	.st157{fill:#FF6794;}
	.st158{fill:#FFC2C1;}
	.st159{fill:#FFCCD5;}
	.st160{fill:#B39D8E;}
	.st161{fill:#FFE2EA;}
	.st162{fill:#F1F1F1;}
	.st163{fill:#FF9DAE;}
	.st164{fill:#A2C4DB;}
	.st165{fill:#583B34;}
	.st166{fill:#B1CFE4;}
	.st167{fill:#FBFBFA;}
	.st168{fill:#E0CFC7;}
	.st169{fill:#D9946B;}
	.st170{fill:#FFE9F2;}
	.st171{fill:#FFDBE5;}
	.st172{fill:#F2CCC1;}
	.st173{fill:#DF4E50;}
	.st174{fill:#00C377;}
	.st175{fill:#87E4AE;}
	.st176{fill:#00B45A;}
	.st177{fill:#7FD9A9;}
	.st178{fill:#F1BB3A;}
	.st179{fill:#B89E65;}
	.st180{fill:#97D183;}
	.st181{fill:#3C3724;}
	.st182{fill:#D5BDA1;}
	.st183{fill:#9B8174;}
	.st184{fill:#587147;}
	.st185{fill:#E6D5BD;}
	.st186{fill:#5CC588;}
	.st187{clip-path:url(#SVGID_54_);fill:#A6E5C3;}
	.st188{clip-path:url(#SVGID_54_);fill:#FFFFFF;}
	.st189{clip-path:url(#SVGID_54_);fill:#58D196;}
	.st190{fill:#FFEF6E;}
	.st191{fill:#FFE200;}
	.st192{clip-path:url(#SVGID_56_);fill:#FDA157;}
	.st193{clip-path:url(#SVGID_56_);fill-rule:evenodd;clip-rule:evenodd;fill:#FF8429;}
	.st194{clip-path:url(#SVGID_56_);fill:#F35000;}
	.st195{clip-path:url(#SVGID_56_);fill:#F8B846;}
	.st196{fill:#F35000;}
	.st197{fill:#FF8429;}
	.st198{fill:#FFAB33;}
	.st199{fill:#E46D00;}
	.st200{fill:#EE6406;}
	.st201{fill:#FF9B00;}
	.st202{fill:#130077;}
	.st203{fill:#FFB58D;}
	.st204{opacity:0.3;}
	.st205{fill:#FF7300;}
	.st206{fill:#6E0000;}
	.st207{fill-rule:evenodd;clip-rule:evenodd;fill:#FF9B00;}
	.st208{fill-rule:evenodd;clip-rule:evenodd;fill:url(#SVGID_57_);}
	.st209{opacity:0.3;fill-rule:evenodd;clip-rule:evenodd;fill:#A3002C;}
	.st210{fill-rule:evenodd;clip-rule:evenodd;fill:url(#SVGID_58_);}
	.st211{fill-rule:evenodd;clip-rule:evenodd;fill:url(#SVGID_59_);}
	.st212{opacity:0.5;fill-rule:evenodd;clip-rule:evenodd;fill:url(#SVGID_60_);}
	.st213{fill-rule:evenodd;clip-rule:evenodd;fill:#FFC384;}
	.st214{fill-rule:evenodd;clip-rule:evenodd;fill:url(#SVGID_61_);}
	.st215{fill-rule:evenodd;clip-rule:evenodd;fill:url(#SVGID_62_);}
	.st216{fill-rule:evenodd;clip-rule:evenodd;fill:url(#SVGID_63_);}
	.st217{opacity:0.5;fill-rule:evenodd;clip-rule:evenodd;fill:url(#SVGID_64_);}
	.st218{fill-rule:evenodd;clip-rule:evenodd;fill:#FDA157;}
	.st219{opacity:0.5;fill-rule:evenodd;clip-rule:evenodd;fill:#FDA157;}
	.st220{fill-rule:evenodd;clip-rule:evenodd;fill:#FF8429;}
	.st221{fill-rule:evenodd;clip-rule:evenodd;fill:#FFAB33;}
	.st222{opacity:0.62;fill-rule:evenodd;clip-rule:evenodd;fill:#C7002A;}
	.st223{opacity:0.5;fill-rule:evenodd;clip-rule:evenodd;fill:#FF8429;}
	.st224{opacity:0.5;fill-rule:evenodd;clip-rule:evenodd;fill:#8E5472;}
	.st225{opacity:0.3;fill-rule:evenodd;clip-rule:evenodd;fill:url(#SVGID_65_);}
	.st226{opacity:0.5;fill-rule:evenodd;clip-rule:evenodd;fill:url(#SVGID_66_);}
	.st227{opacity:0.3;fill-rule:evenodd;clip-rule:evenodd;fill:url(#SVGID_67_);}
	.st228{opacity:0.3;fill-rule:evenodd;clip-rule:evenodd;fill:url(#SVGID_68_);}
	.st229{clip-path:url(#SVGID_70_);}
	.st230{clip-path:url(#SVGID_70_);fill:#FF8429;}
	.st231{fill:#FDA157;}
	.st232{clip-path:url(#SVGID_72_);}
	.st233{fill:#F58800;}
	.st234{clip-path:url(#SVGID_74_);}
	.st235{fill:#F8B846;}
	.st236{clip-path:url(#SVGID_76_);}
	.st237{clip-path:url(#SVGID_76_);fill:#FF8429;}
	.st238{fill-rule:evenodd;clip-rule:evenodd;fill:url(#SVGID_77_);}
	.st239{fill-rule:evenodd;clip-rule:evenodd;fill:url(#SVGID_78_);}
	.st240{fill-rule:evenodd;clip-rule:evenodd;fill:url(#SVGID_79_);}
	.st241{opacity:0.5;fill-rule:evenodd;clip-rule:evenodd;fill:url(#SVGID_80_);}
	.st242{fill-rule:evenodd;clip-rule:evenodd;fill:url(#SVGID_81_);}
	.st243{fill-rule:evenodd;clip-rule:evenodd;fill:url(#SVGID_82_);}
	.st244{fill-rule:evenodd;clip-rule:evenodd;fill:url(#SVGID_83_);}
	.st245{opacity:0.5;fill-rule:evenodd;clip-rule:evenodd;fill:url(#SVGID_84_);}
	.st246{opacity:0.3;fill-rule:evenodd;clip-rule:evenodd;fill:url(#SVGID_85_);}
	.st247{opacity:0.5;fill-rule:evenodd;clip-rule:evenodd;fill:url(#SVGID_86_);}
	.st248{opacity:0.3;fill-rule:evenodd;clip-rule:evenodd;fill:url(#SVGID_87_);}
	.st249{opacity:0.3;fill-rule:evenodd;clip-rule:evenodd;fill:url(#SVGID_88_);}
	.st250{opacity:0.88;fill:#FFFEF3;}
	.st251{fill:#FFCF66;}
	.st252{fill:#AFABAC;}
	.st253{fill:#FFE473;}
	.st254{fill:#FFE787;}
	.st255{fill:#F6C700;}
	.st256{fill:#FFEA96;}
	.st257{clip-path:url(#SVGID_90_);fill:#FFCB33;}
	.st258{clip-path:url(#SVGID_90_);fill:#FFE406;}
	.st259{clip-path:url(#SVGID_92_);fill:#921C9F;}
	.st260{opacity:0.5;clip-path:url(#SVGID_92_);}
	.st261{fill:#921C9F;}
	.st262{clip-path:url(#SVGID_92_);}
	.st263{clip-path:url(#SVGID_94_);fill:#E097E9;}
	.st264{fill:#CC37D8;}
	.st265{opacity:0.5;fill:#FFFFFF;}
	.st266{opacity:0.5;fill:#FFFFFF;stroke:#FFFFFF;stroke-miterlimit:10;}
	.st267{opacity:0.68;fill:#FFFFFF;}
	.st268{fill:#F0C6F4;}
	.st269{fill:#D9A2E1;}
	.st270{fill:#AA7B41;}
	.st271{fill:#8C9295;}
	.st272{fill:#CDD0D3;}
	.st273{fill:#DFDBD1;}
	.st274{fill:#543F31;}
	.st275{fill:#C38A75;}
	.st276{fill:#B3B9BC;}
	.st277{fill:#8B9295;}
	.st278{fill:#D59C87;}
	.st279{fill:#F92405;}
	.st280{fill:#B30000;}
	.st281{fill:#FA3C20;}
	.st282{fill:#E2A080;}
	.st283{fill:#950000;}
	.st284{fill:#F50000;}
	.st285{clip-path:url(#SVGID_96_);fill:#F787A5;}
	.st286{clip-path:url(#SVGID_96_);fill:#FFE9F2;}
	.st287{clip-path:url(#SVGID_96_);fill:#D3CFB3;}
	.st288{clip-path:url(#SVGID_96_);fill:#FFDBE5;}
	.st289{clip-path:url(#SVGID_96_);}
	.st290{clip-path:url(#SVGID_96_);fill:#FFC5D6;}
	.st291{fill:#FA90B4;}
	.st292{fill:#BCA494;}
	.st293{fill:#63443C;}
	.st294{fill:#CFABA0;}
	.st295{fill:#A1C3DA;}
	.st296{fill:#9B7972;}
	.st297{fill:#77573F;}
	.st298{fill-rule:evenodd;clip-rule:evenodd;fill:#FA3C20;}
	.st299{fill-rule:evenodd;clip-rule:evenodd;fill:#D00707;}
	.st300{fill-rule:evenodd;clip-rule:evenodd;fill:#F92405;}
	.st301{fill-rule:evenodd;clip-rule:evenodd;fill:#F50000;}
	.st302{fill-rule:evenodd;clip-rule:evenodd;fill:#F95F53;}
	.st303{fill:#F95F53;}
	.st304{clip-path:url(#SVGID_98_);fill:#574435;}
	.st305{clip-path:url(#SVGID_98_);fill:#C8A37C;}
	.st306{clip-path:url(#SVGID_98_);fill:#91693D;}
	.st307{clip-path:url(#SVGID_98_);fill:#D00707;}
	.st308{clip-path:url(#SVGID_98_);fill:#FA3C20;}
	.st309{clip-path:url(#SVGID_98_);fill:#950000;}
	.st310{clip-path:url(#SVGID_98_);fill:#F95F53;}
	.st311{clip-path:url(#SVGID_98_);fill:#131212;}
	.st312{clip-path:url(#SVGID_98_);fill:#B30000;}
	.st313{clip-path:url(#SVGID_98_);fill:#412A1A;}
	.st314{clip-path:url(#SVGID_98_);fill:#DEC6AF;}
	.st315{clip-path:url(#SVGID_98_);fill:#BF855C;}
	.st316{fill:#D00707;}
	.st317{fill:#AB9DB8;}
	.st318{fill:#381A12;}
	.st319{fill:#EBCBB8;}
	.st320{fill:#AC9EBB;}
	.st321{fill:#F8F6F5;}
	.st322{fill:#0A345E;}
	.st323{fill:#412A1A;}
	.st324{fill:#131212;}
	.st325{fill:#DEC6AF;}
	.st326{fill:#BF855C;}
</style>
<polygon class="st138" points="415.48,178.22 415.64,178.12 415.46,178.27 "/>
<path class="st139" d="M231.51,174.14c-0.89,0.58-1.85,0.61-2.84,0.4C229.62,174.4,230.56,174.27,231.51,174.14z"/>
<path class="st135" d="M376.32,142.73c-0.1-0.09-0.19-0.17-0.29-0.26c0.08,0.1,0.17,0.2,0.25,0.3L376.32,142.73z"/>
<path class="st316" d="M457.1,144.43c13.87,15.51,22.49,33.98,28.8,53.45c7.49,23.12,13.85,46.61,16.49,70.88
	c0.77,7.11,3.37,13.58,5.5,20.23c8.31,25.94,15.34,52.25,22.53,78.51c3.08,11.26,8.5,21.67,12.07,32.75
	c4.34,13.5,8.96,26.9,12.69,40.62c4.92,18.1,6.95,36.59,9.24,55.08c1.41,11.38,2.65,22.77,3.33,34.24
	c0.62,10.56,2.17,21.12,4.13,31.52c2.34,12.44,3.61,25.1,7.12,37.32c0.52,1.81,0.19,4.35,2.99,4.81c0,28.05-0.06,56.09,0.09,84.14
	c0.02,3.08-0.62,3.71-3.7,3.7c-45.24-0.13-90.48-0.09-135.71-0.09c-1.01-9.35-2.68-18.69-2.89-28.05
	c-0.46-20.75-1.98-41.42-3.25-62.11c-0.95-15.57-1.62-31.16-2.42-46.73c-0.37-7.13-0.7-14.35-1.35-21.51
	c-0.68-7.45-2.03-14.97-1.17-22.56c1.08-9.53,2.41-19.11,1.59-28.69c-0.46-5.31-0.77-10.59-0.78-15.91
	c-0.01-6.69,0.22-13.39-1.79-19.91c-0.43-1.41-0.75-3.06,0.65-4.32c1.46,2.11,3.21,4.08,4.33,6.36c3.17,6.47,6.04,13.09,9.14,19.6
	c0.71,1.49,1.51,3.46,3.58,3.22c2.04-0.23,2.4-2.21,2.77-3.9c2.05-9.58,4.17-19.08,2.67-29.07c-1.1-7.33-3-14.46-4.48-21.69
	c-0.89-4.35-2.88-8.93-1.07-13.18c4.28-10,4-19.97,1.68-30.29c-2.48-11.04,0.17-22.33-1.05-33.44c-2.39-21.72-2.58-43.57-4.25-65.33
	c-2.25-29.31-3.88-58.67-7.99-87.81c-2.15-15.27-1.06-30.51,0.41-45.73c0.51-5.33,2.21-5.95,6.55-2.81c1.66,1.2,4.23,3.92,4.66,3.6
	C452.92,137.87,454.3,143.11,457.1,144.43z"/>
<path class="st281" d="M399.3,691.6c-52.63,0-105.27,0-157.9,0c1.33-11.76,2.73-23.51,1.25-35.37c0.89,0.46,1.82,0.86,2.68,1.38
	c1.42,0.88,2.68,2.38,4.59,1.45c2.05-1,1.96-3.06,2.05-4.93c0.16-3.13-0.43-6.13-1.55-9.06c-2.76-7.25-6.7-13.86-10.97-20.3
	c7.01,1.64,13.26,4.92,19.01,9.13c1.43,1.05,2.18,3.44,4.41,2.64c2.23-0.8,2.36-3.1,2.66-5.17c0.89-6.13,0.37-12.3,0.53-18.46
	c4.35,1.92,8.68,3.89,13.06,5.76c2.35,1,3.93,1.25,4.95,0.6c1.59-1.01,1.57-3.66,1.56-4.66c-0.06-7.98-8.83-46.92-10.13-52.64
	c3.98-1.53,8.73-3.73,13.78-6.89c4.94-3.09,8.92-6.33,12.01-9.19c0-0.27,0.05-2.18,1.53-3.39c0.41-0.34,0.94-0.58,1.63-0.7
	c2.64,0.94,5.41,1.52,8.11,0.76c13.7-3.86,27.47-7.61,40.59-13.2c8.99-3.83,17.73-8.25,26.59-12.41
	c3.96,10.58,7.96,21.14,11.2,31.99c5.08,17.01,7.56,34.45,8.19,52.07c0.55,15.21,1.74,30.39,0.49,45.73
	C398.38,661.61,399.31,676.64,399.3,691.6z"/>
<path class="st283" d="M227.98,691.6c-3.44,0-6.88,0-10.32,0c-4.46-3.87-8.91-7.74-13.37-11.62c-0.65-1.38-1.09-2.92-1.99-4.12
	c-1.38-1.84-2.34-5.62-4.34-5.05c-3.03,0.87-1.73,4.63-1.98,7.23c-3.98,4.35-8.8,8-11.35,13.55c-1.38,0-2.75,0-4.13,0
	c-0.66-5.02-2.63-9.66-4.13-14.45c-2.5-5.84-4.92-11.72-9.27-16.52c-0.72-5.93,1.63-11.69,0.98-17.62
	c4.66-4.44,10.42-5.4,16.54-5.16c4.16,13.13,14.47,18.26,26.87,20.67C229.69,667.74,233.53,675.44,227.98,691.6z"/>
<path class="st303" d="M176.37,677.16c1.5,4.78,3.47,9.42,4.13,14.45c-31.65,0-63.3,0-94.95,0c0.24-3.92,4.18-5.81,5.12-9.35
	c3.65,1.64,6.56,0.52,9.08-2.33c1.57-1.78,3.05-3.78,4.97-5.1c2.81-1.92,3.37-7.61,7.12-6.5c3.16,0.94,5.53,4.81,8.07,7.55
	c4.91,5.31,7.46,5.53,13.13,0.61c1.53-1.33,2.75-3,4.12-4.52c0.72,0,1.43,0,2.15,0c-0.11,1.36-0.18,2.72-0.35,4.07
	c-0.39,3.08-2.68,7.01,0.58,8.91c2.97,1.72,6.05-1.49,8.6-3.28c4.01-2.81,7.08-6.87,11.7-8.93c1.14,2.81,2.14,5.7,3.45,8.43
	c1.88,3.89,4.4,4.31,7.51,1.12C172.55,680.48,174.02,678.33,176.37,677.16z"/>
<path class="st283" d="M90.68,682.25c-0.94,3.53-4.88,5.43-5.12,9.35c-4.13,0-8.26,0-12.38,0c-2.34-5.36-5.9-9.99-8.94-14.94
	c-3.73-6.08-3.88-12.22,0.6-18.12c1.86-4.04,4.98-7.31,6.65-11.54c0.98-2.49-0.54-5.68,2.26-7.52c2.66-1.75,2.48-4.13,1.53-6.69
	c3.09,0.03,6.18,0.06,9.27,0.09c-0.99,4.13-2.31,8.21-2.88,12.39c-0.79,5.79-0.96,11.77,3.47,16.42
	C90.79,667.61,92.39,674.44,90.68,682.25z"/>
<path class="st316" d="M64.83,658.54c-4.48,5.9-4.33,12.04-0.6,18.12c3.04,4.95,6.6,9.57,8.94,14.94c-14.1,0-28.21,0-42.31,0
	c0.39-7.22,0.77-14.44,1.16-21.66c1.63-1.44,0.13-4.24,2.99-5.5c4.49-1.99,8.6-4.83,13.05-7.42c0.4,0.83,0.79,1.58,1.13,2.34
	c1.23,2.79,2.21,6.94,5.31,6.85c3.7-0.11,2.71-4.86,4.01-7.47c0.22-0.44,0.19-1.01,0.28-1.51c0.46-2.55,1.55-2.8,3.34-0.98
	C62.96,657.09,63.93,657.78,64.83,658.54z"/>
<path class="st303" d="M227.98,691.6c5.55-16.16,1.71-23.87-16.49-33.07c-0.77-2.75-1.54-5.5-2.31-8.25
	c5.43,1.58,7.72,7.56,13.08,9.31c1.52,0.5,2.81,2.56,4.52,1.28c1.96-1.46,1.34-3.67,0.52-5.6c-1.8-4.25-2.65-8.74-3.45-13.24
	c8.12,2.28,13.41,8.31,18.8,14.2c1.48,11.86,0.08,23.61-1.25,35.37C236.93,691.6,232.45,691.6,227.98,691.6z"/>
<path class="st303" d="M204.3,679.98c4.46,3.87,8.91,7.74,13.37,11.62c-11.01,0-22.02,0-33.03,0c2.56-5.54,7.37-9.2,11.35-13.55
	c0.71,1.13,1.37,2.29,2.14,3.37c0.91,1.27,0.93,3.69,3.09,3.38c1.66-0.24,1.69-2.24,2.21-3.61
	C203.61,680.75,204,680.39,204.3,679.98z"/>
<path class="st316" d="M26.67,428.34c-1.41-6.05-1.89-12.2-2.01-18.39c-0.39-18.73-1.5-37.44-3.94-56
	c-2.48-18.83-0.33-37.36,2.27-55.92c1-7.14,2.05-14.27,3.27-21.37c1.31-7.67,3.84-15.02,7.68-21.75
	c16.95-29.71,40.36-52.32,72.62-64.85c6.21-2.41,12.81-3.83,19.23-5.71c10.08-2.97,17.64-9.06,22.2-18.55
	c2.02-4.2,5.25-6.14,9.64-6.63c-1.29,4.36,0.1,7.86,2.95,11.29c11.44,13.74,20.55,29.1,30.22,44.06c5.46,8.45,9.56,17.58,13.77,27.1
	c1.56-2.25,0.86-4.15,0.54-5.84c-1.03-5.38-2.34-10.7-3.53-16.05c-0.28-1.24-1.56-3.12,0.3-3.52c3.47-0.76,6.41-4.05,10.64-1.82
	c2.8,1.48,6.16,1.91,9.26,2.81c0.67,0.22,1.34,0.45,2.01,0.67c1.11,0.74,2.36,1.34,3.32,2.25c3.94,3.75,6.14,1.99,9.33-1.63
	c4.15-4.73,3.99-9.76,3.61-15.19c5.97,2.25,11.62,5.58,18.34,5.2c2.51,4.45,4.95,9.13,7.28,14.03
	c15.54,32.7,21.06,64.65,22.32,91.23c-2.28,5.6-5.2,14.43-11.96,23.04c-5.72,7.29-11.68,14.48-16.16,22.64
	c-5.56,10.15-9.72,20.45-8.28,32.76c1.94,16.58,2.13,33.31-2.79,49.64c-0.28,0.94-0.07,2.03-0.09,3.05
	c-2.89-0.71-4.85,1.7-7.39,2.19c0.24-2.54,0.35-5.11,0.73-7.63c1.14-7.6,2.79-15.08,5.24-22.4c0.56-1.66,1.45-4.42-1.59-5.03
	c-2.5-0.5-2.66,1.73-3.43,3.51c-5.43,12.51-11.82,24.5-19.9,35.53c0.21-3.25,0.29-6.52,0.68-9.76c0.37-3.08,0.85-6.14,0.48-9.23
	c-0.16-1.35-0.35-2.98-1.98-3.27c-1.55-0.28-1.67,1.38-2.3,2.32c-1.9,2.85-3.83,5.68-5.74,8.52c-1.75-1.54-0.85-3.86-1.68-5.71
	c-1.01-2.26-0.98-5.24-4.48-5.36c-0.93-6.71-1.8-13.43-4.22-19.81c-0.35-1.01-0.7-2.02-1.04-3.03c0.38-2.94-0.01-5.76-1.23-8.47
	c0.12-2.02,1.38-3.37,2.6-4.84c3.6-4.33,7.06-8.78,9.28-14.04c0.69-1.63,1.32-3.32-0.06-4.79c-1.52-1.61-3.38-1.06-5.25-0.49
	c-1.63,0.49-2.73,2.48-5.18,1.94c1.78-3.12,3.49-5.92,3.96-9.16c0.57-3.9-1.52-5.46-5.18-4.01c-3.21,1.27-4.75,4.3-7.02,6.55
	c-0.12-2.2,0.22-4.48-1.71-6.23c-4.41-4-4.85-7.47-1.71-12.51c1.63-2.62,3.34-5.2,4.84-7.9c1.64-2.93,2.92-6.34,0.76-9.22
	c-2.18-2.92-5.32-0.64-8.33,0.09c0-3.77,0.02-7.35-0.01-10.93c-0.02-1.89,0.14-4.17-2.33-4.52c-2.77-0.39-3.54,2.07-3.72,4.02
	c-0.88,9.37-2.38,18.8-2,28.15c0.39,9.72,2.08,19.4,1.92,29.2c-0.03,1.7,0.31,3.45,2.05,4.44c-1.11,2.78-2.22,5.56-3.32,8.34
	c-0.73-5.95-1.38-11.92-2.27-17.85c-0.21-1.36-0.14-3.7-2-3.72c-2.12-0.03-1.52,2.28-1.7,3.64c-0.4,2.92-0.82,5.94-2.46,8.32
	c-7.79,11.27-10.46,24.43-14.2,37.21c-2.01-1.07-1.12-3.03-1.26-4.56c-0.47-5.44-0.61-10.92-1.1-16.36
	c-0.19-2.06-1.03-4.23-3.59-4.29c-2.35-0.05-3.08,1.94-3.38,3.84c-0.5,3.2-0.55,6.48-1.23,9.63c-0.74,3.4,0.21,7.59-3.84,9.71
	c-1.2-3.22-1.63-7.06-6.13-7.64c0.22-2.47-0.69-4.72-1.4-7c-0.29-0.92-0.53-2.13-1.76-2.29c-1.26-0.16-1.77,0.87-2.12,1.84
	c-2.61,7.4-5.38,14.75-6.34,22.61c-1.15,0.61-1.49,2.33-3.24,2.35c-0.53-1.96,0.4-3.68,0.73-5.45c1.03-5.46,0.97-10.95,0.15-16.39
	c-0.29-1.89-0.62-4.41-3.45-4.4c-2.48,0.01-2.77,2.17-3.35,3.95c-0.47,1.42-0.93,2.84-1.51,4.64c-0.57-1.86-1.03-3.31-1.46-4.78
	c-0.46-1.57-1.09-3.06-3.1-2.68c-1.64,0.31-1.91,1.72-2.1,3.16c-0.27,2.04-0.67,4.05-1.01,6.08c-2.54-4.43-5.84-8.38-9.47-11.79
	c-6.05-5.69-11.19-12.97-20.43-14.14c-2.39-3.35-4.69-6.77-7.2-10.03c-1.6-2.08-3.66-3.7-6.55-3.43
	c-8.55,0.8-16.07,10.95-14.59,19.65c-1.52,0.27-2.3,1.32-2.89,2.63c-4.32,9.61-3.49,19.52-1.69,29.48
	C38.4,424.53,32.15,425.09,26.67,428.34z M248.94,357.34c3.83-9.97,9.81-17.87,12.42-27.46c3.04-11.13,5.16-22.38,6.85-33.78
	c2.34-15.88-0.07-30.79-7.68-44.88c-0.7-1.29-0.9-2.98-2.86-3.31c-7.55-1.27-14.33-4.62-21.06-8.02c-3.5-1.77-6-1.08-8.62,1.73
	c-4.66,5-7.95,11.21-13.67,15.29c-1.58,1.12-1.29,2.88-0.4,4.63c3.91,7.64,7.71,15.33,11.55,23.01
	c6.5,13.02,14.18,25.43,16.28,40.39C243.23,335.55,246.35,345.95,248.94,357.34z"/>
<path class="st283" d="M431.24,441.81c-3.52-5.32-5.78-11.09-6.27-17.5c-0.84-10.91-1.65-21.82-2.51-32.73
	c-0.99-12.5-5.92-24.27-6.82-36.78c0.41-2.36,0.91-4.7,1.21-7.07c1.51-11.88,3.68-23.78-0.07-35.62
	c-3.51-11.09-6.27-22.44-10.76-33.21c-0.93-11.02-7.16-18.79-15.66-25c-4.33-3.17-9.1-5.43-14.77-3.73
	c-8.89,2.26-18.04,3.77-25.9,8.98c-6.51,5.13-8.16,12.76-10.2,20.13c-6.24,22.48-5.56,45.53-5.48,68.53
	c-0.78,9.06-2.78,17.83-5.42,26.53c-1.77,5.83-3.84,11.81-2.16,18.13c-0.32,9.38-7.08,13.9-13.9,18.35
	c-1.81,1.18-3.62,3.72-5.7,2.67c-2.11-1.06-1.29-4.05-1.2-6.2c0.49-12-1.64-23.49-6.24-34.57c-2.5-6.01-4.78-12.1-5.46-18.65
	c-0.02-3.48-0.05-6.96-0.07-10.44c2.7-13.27,10.45-24.26,16.67-35.94c-9.79,10.12-19.74,20.15-17.44,36
	c-0.87,3.44-1.23,6.91-0.83,10.45c-0.09,4.29-0.18,8.59-0.26,12.88c-0.16,8.75,0.64,17.56-1.18,26.21c-0.47,2.2-0.08,5.14-3.26,6.35
	c-0.16-0.82-0.4-1.32-0.34-1.78c1.75-13.07,0.94-26.08-1.33-38.98c-3.15-17.86-1.45-34.56,10.51-49.14
	c5.89-5.96,11.78-11.92,17.66-17.89c8.15-8.29,14.38-18,14.76-29.67c0.39-12.04-2.62-23.81-8.62-34.52
	c-3.19-5.69-4.59-11.81-4.53-18.23c0.04-4.78,0.6-9.56,0.93-14.34c2.19-6.37,3.91-12.85,4.87-19.52c0.68-2.08,1.44-4.15,1.34-6.4
	c2.5-6.63,1.96-13.53,1.4-20.33c-0.76-9.12-0.88-18.39-4.32-27.09c-0.14-0.24-0.29-0.47-0.45-0.69c1.01-0.56,1.33-1.49,1.38-2.57
	c-1.47-6.49-2.42-12.93-1.28-19.67c0.7-4.13,0.26-8.46,0.34-12.7c1.97-3.62-0.95-7.49,0.9-11.36c2.79-5.84,7.59-9.4,12.55-12.96
	c14.79-11.53,32.37-12.01,49.91-12.6c16.82-0.56,32.02,3.32,45.44,14.34c10.78,8.85,22.07,16.81,27.5,30.5
	c4.22,10.64,6.26,21.35,4.09,32.71c-1.13,5.9-2.11,11.82-3.15,17.73c-2.8-1.32-4.18-6.56-8.91-3.09c-0.43,0.32-3.01-2.4-4.66-3.6
	c-4.33-3.15-6.03-2.52-6.55,2.81c-1.47,15.22-2.56,30.45-0.41,45.73c4.11,29.14,5.75,58.5,7.99,87.81
	c1.67,21.76,1.86,43.61,4.25,65.33c1.22,11.11-1.43,22.4,1.05,33.44c2.32,10.32,2.6,20.29-1.68,30.29
	c-1.82,4.25,0.18,8.83,1.07,13.18c1.47,7.23,3.38,14.35,4.48,21.69c1.5,9.99-0.62,19.49-2.67,29.07c-0.36,1.69-0.73,3.67-2.77,3.9
	c-2.07,0.24-2.87-1.73-3.58-3.22c-3.1-6.51-5.97-13.13-9.14-19.6C434.45,445.89,432.7,443.92,431.24,441.81z M322,204.37
	c-0.54,3.6-0.71,7.28,0.25,10.74c3.24,11.7,7.79,23.03,9.81,35.13c0.7-14.96-0.28-29.89,0.72-44.78c1.36-9.16,3.2-18.23,5.33-27.24
	c3.08-13.06,5.63-26.14,3.51-39.7c-1.56-10.01-4.76-19.38-9.77-28.3c-0.78,5.27-1.46,10.51-1.19,15.69
	c0.89,16.73-0.3,33.19-3.94,49.59C324.61,185,322.21,194.53,322,204.37z"/>
<path class="st303" d="M258.39,208.49c-6.71,0.38-12.37-2.95-18.34-5.2c-1.46-1.97-2.76-2.88-4.62-0.2
	c-3.58,5.15-6.85,10.57-11.65,14.77c-0.67-0.22-1.34-0.45-2.01-0.67c-2.33-5.86-6.85-10.11-10.84-14.75
	c-11.11-12.92-26.56-21.18-37.09-34.78c-4.03-5.2-6.85-10.23-4.37-16.89c2.49-3.72,3.63-7.97,4.76-12.21
	c0.44-1.63,0.59-3.34,2.09-4.45c5.34,4.87,10.35,4.08,14.14-2.3c2.67-4.5,4.92-9.3,4.35-14.61c-1.2-11.18,2.84-20.89,7.83-30.39
	c2.19-4.17,5.44-7.35,10.38-7.43c4.35-0.07,9.14,2.06,10.24,5.79c3.15,10.7,13.02,17.37,15.78,28.17c1,3.91,3.7,3.94,6.6,1.29
	c2.72-2.48,4.89-5.35,6.29-8.7c2.2-5.26,5.99-8.57,11.27-10.6c4.17-1.6,8.25-3.55,11.52-6.72c4.58-4.44,9.58-4.71,15.68-3.28
	c7.9,1.84,15.89,4.87,24.28,2.35c1.38,1.2,2.12,2.36,0.97,4.32c-4.1,7-6.04,14.72-7.11,22.7c-0.29,2.16-0.49,4.31,0.98,6.2
	c0.18,2.33,1.06,4.67-0.02,6.99c-5.77,4.98-7.45,11.07-4.98,18.29c-0.78,6.33-3.26,12.56-1.1,19.07c-1.33,4.4-4.83,4.01-8.26,3.72
	c-1.56-0.13-3.24-1.62-4.54,0.5c-6.27-1.52-12.51-3.27-18.84-4.45c-3.01-0.56-6.64-0.34-6.34,4.28c0.42,6.46,9.68,16.24,16.07,17.34
	c-0.38,4.13-4.12,6.51-5.25,10.37c-3.34,11.39-4.42,12.04-16.46,12.57c0,0,0.16,0.03,0.16,0.03
	C259.44,209.23,258.91,208.86,258.39,208.49z M276.66,117.54c8.23-2.04,14.68,1.18,21.26,4.07c1.56,0.68,3.86,2.27,5.07,0.06
	c1.22-2.23-1.15-3.67-2.59-5.02c-0.7-0.66-1.78-1.11-2.75-1.27c-4.57-0.73-9.16-1.46-13.76-1.91
	C281.16,113.22,278.48,113.63,276.66,117.54z"/>
<path class="st283" d="M314.69,87.67c-8.4,2.51-16.38-0.51-24.28-2.35c-6.1-1.42-11.1-1.16-15.68,3.28
	c-3.27,3.17-7.35,5.12-11.52,6.72c-5.28,2.03-9.08,5.34-11.27,10.6c-1.4,3.36-3.58,6.22-6.29,8.7c-2.9,2.64-5.6,2.62-6.6-1.29
	c-2.75-10.81-12.62-17.47-15.78-28.17c-1.1-3.73-5.88-5.86-10.24-5.79c-4.93,0.08-8.18,3.26-10.38,7.43
	c-4.99,9.5-9.03,19.21-7.83,30.39c0.57,5.31-1.68,10.11-4.35,14.61c-3.79,6.38-8.8,7.17-14.14,2.3
	c-2.41-10.18-5.21-20.23-6.38-30.71c-4-35.74,9.05-64.16,36.64-86.33c13.25-10.65,28.58-14.09,45.09-10.41
	c13.35,2.97,26.86,5.82,38.02,14.76c2.35,1.88,5.43,2.91,8.29,4.05c5.22,2.08,9.89,4.86,13.02,9.65
	c3.66,5.61,10.55,7.44,14.45,12.98c3.07,4.36,3.21,10.3,7.84,13.65c-4.96,3.56-9.76,7.12-12.55,12.96
	c-1.85,3.87,1.08,7.74-0.9,11.36C318.25,87,316.14,86.29,314.69,87.67z"/>
<path class="st280" d="M169.48,150.77c-2.48,6.66,0.34,11.68,4.37,16.89c10.53,13.6,25.98,21.87,37.09,34.78
	c3.99,4.64,8.51,8.89,10.84,14.75c-3.11-0.9-6.46-1.33-9.26-2.81c-4.23-2.23-7.17,1.06-10.64,1.82c-1.86,0.41-0.58,2.29-0.3,3.52
	c1.19,5.35,2.5,10.67,3.53,16.05c0.32,1.69,1.02,3.59-0.54,5.84c-4.22-9.52-8.31-18.65-13.77-27.1
	c-9.67-14.97-18.78-30.32-30.22-44.06c-2.86-3.43-4.24-6.93-2.95-11.29c2.83-3.98,5.66-7.97,8.55-12.05
	C167.6,147.91,166.87,150.94,169.48,150.77z"/>
<path class="st283" d="M0.19,534.29C0.13,528.26,0.06,522.23,0,516.2c6.8-5.1,14.32-7.99,22.93-7.62c1.27,0.44,2.54,0.88,3.8,1.33
	c0,1.01-0.01,2.01-0.01,3.02c-3.12,2.28-6.29,4.5-9.34,6.86c-3.41,2.63-5.73,5.46-1.33,9.36c0.78,0.69,0.89,2.14,1.32,3.23
	C11.97,535.93,5.95,533.96,0.19,534.29z"/>
<path class="st283" d="M26.67,428.34c5.48-3.25,11.73-3.81,17.78-5.07c0.88-0.3,1.77-0.6,2.65-0.9c-0.23,0.22-0.46,0.43-0.69,0.65
	c0.5,0.37,1,0.75,1.5,1.12c1.55,3.21-0.29,5.98-1.23,8.82c-1.46,4.44-1.41,8.41,2.84,11.37c-0.05,0.85-0.11,1.7-0.16,2.54
	c-3.74,0-7.49,0.01-11.23,0.01c-4.18,0.15-6.69-2.92-9.68-5.04C27.09,437.44,23.81,433.3,26.67,428.34z"/>
<path class="st283" d="M26.74,509.91c-1.27-0.44-2.54-0.88-3.8-1.33c0.34-2.91,0.92-5.78,2.41-8.34c3.24-5.57,5.2-11.46,5.67-17.96
	c0.29-4.07,1.97-7.69,6.55-8.88c2.16,0.73,0.74,4.11,3.32,4.53c-1.22,6.51-0.76,13.03-0.06,19.54c-1.92-0.2-3.03,1.09-4.4,2.12
	C32.57,502.49,30.18,506.69,26.74,509.91z"/>
<path class="st283" d="M40.88,477.94c-2.59-0.42-1.16-3.8-3.32-4.53c1.41-2.57,0-4.92-0.56-7.33c0.09-2.18-0.41-4.3-0.62-6.43
	c-0.33-3.29-1.91-7.03,1.65-9.74c3.96-0.44,5.87,3.63,9.35,4.25C45.21,462.08,43.05,470.01,40.88,477.94z"/>
<path class="st316" d="M38.02,449.9c-3.56,2.71-1.98,6.46-1.65,9.74c0.22,2.13,0.71,4.25,0.62,6.43c-6.95-6.63-6.5-15.87-8.54-24.23
	c3,2.12,5.51,5.19,9.68,5.04C38.65,447.91,38.77,448.92,38.02,449.9z"/>
<path class="st303" d="M334.01,347.8c-0.08-23-0.76-46.05,5.48-68.53c2.05-7.37,3.69-15,10.2-20.13c3.47,1.67,7.11,1.57,10.8,1.09
	c2.89-0.38,5.99-1.05,8.4,1.11c6.84,6.14,12.97,13.01,17.39,21.04c4.15,7.53,8.12,15.18,12.05,22.81
	c5.15,9.97,8.79,20.74,12.83,31.26c2.26,5.9,1.73,12.54,4.47,18.36c0.9,12.52,5.83,24.29,6.82,36.78
	c0.86,10.91,1.68,21.82,2.51,32.73c-0.85,0.78-0.9,1.81-0.88,2.85c0.19,14.26-0.12,28.51-0.89,42.75
	c-0.26,4.82-1.01,9.54-1.46,14.32c-0.99,10.64-9.18,14.93-16.94,19.76c-8.03,4.99-16.62,8.85-25.09,12.98
	c-8.85,4.16-17.59,8.58-26.59,12.41c-13.12,5.59-26.88,9.34-40.59,13.2c-2.7,0.76-5.47,0.18-8.11-0.76
	c-0.5-3.04,1.27-4.45,3.84-5.16c4.95-1.36,9.97-2.48,14.88-3.99c6.03-1.85,7.25-5.75,3.79-11.02c-2.19-3.34-5.24-4.86-9.15-4.57
	c-10.9,0.82-21.11-1.14-30.32-7.28c2.99-3.89,7.99-4.86,11.54-7.94c1.02-1.76,3.06-1.25,4.55-2.02
	c12.86-6.6,25.16-14.16,37.48-21.66c5.41-3.29,11.51-5.95,14.99-11.79c6.02-0.76,8.29-3.19,8-8.9c-1.09-21.72-4.28-28.36-4.28-28.36
	c-4.56-11.91-9.38-26.24-15.19-44.22c-2.41-9.97-4.66-19.99-7.36-29.88C336.54,352.58,337.92,348.9,334.01,347.8z"/>
<path class="st303" d="M287.47,509.8c9.22,6.14,19.43,8.09,30.32,7.28c3.91-0.29,6.96,1.24,9.15,4.57
	c3.46,5.27,2.24,9.17-3.79,11.02c-4.91,1.5-9.93,2.63-14.88,3.99c-2.57,0.7-4.34,2.11-3.84,5.16c-2.29,0.4-2.8,2.19-3.15,4.09
	c-3.6,3.58-6.96,7.42-12,9.53c-9.28,3.93-11.53,7.71-11.82,10.49c-0.38,3.7,2.86,4.42,3.94,10.82c0.52,3.07-0.42,6.93-2.29,14.66
	c-0.31,1.29-0.8,3.13-2.38,4.03c-0.82,0.47-1.88,0.63-3.27,0.37c-2.23-4.81-2.1-10.57-5.96-14.71c0.64-2.47-0.65-4.17-2.16-5.9
	c-1.77-2.03-3.36-4.21-5.03-6.33c-0.12-1.06-0.43-1.8-1.67-2.16c-7-2.03-14.02-3.8-21.4-2.42c-0.38-0.73-1.18-2.05-1.08-2.12
	c4.83-3.46,2.85-9.16,4.24-13.67c2.03-6.55,5.07-12.99,4.23-20.32c-0.43-3.77-2.65-7.1-2.21-10.98c5.65-3.33,12.31-5.08,16.58-10.57
	c1.82,0.96,3.26-0.38,4.87-0.77c6.29-1.55,12.6-3.61,18.87,0.08C284.32,507.21,285.9,508.51,287.47,509.8z"/>
<path class="st283" d="M242.65,656.23c-5.39-5.9-10.68-11.93-18.8-14.2c0,0,0.03,0.03,0.03,0.03c-0.36-0.37-0.72-0.74-1.07-1.11
	c-1.49-1.64-2.81-3.49-4.49-4.89c-5.01-4.18-8.45-9.01-9.56-15.74c-1.98-12.06-7.07-22.95-13.93-33.03
	c0.25-1.49,1.17-2.24,2.64-2.39c2.72,1.73,6.25,1.44,8.82,3.54c-1.73,10.38,4.11,15.9,12.46,20.21c5,2.59,10.76,3.2,15.46,6.39
	c1.75,3.24,3.5,6.49,5.24,9.73c4.27,6.43,8.2,13.04,10.97,20.3c1.12,2.93,1.7,5.94,1.55,9.06c-0.09,1.87,0,3.92-2.05,4.93
	c-1.91,0.93-3.17-0.57-4.59-1.44C244.47,657.09,243.54,656.69,242.65,656.23z"/>
<path class="st283" d="M281.45,577.1c0.57,6.73,2.85,13.06,4.43,19.56c-0.07,5.98-0.02,11.97-0.25,17.95
	c-0.2,5.08-1.85,6.04-6.51,4.06c-4.38-1.86-8.71-3.83-13.06-5.76c-1.43-1.35-2.87-2.71-4.3-4.06c1.28-3.32,0.97-8.08,6.36-7.88
	c3.83,0.14,5.29-1.68,5.34-5.18c3.55,0.67,4.97-1.43,5.65-4.4c1.07-4.71,1.43-9.46,0.81-14.27
	C280.44,577.12,280.95,577.11,281.45,577.1z"/>
<path class="st283" d="M261.76,608.86c1.43,1.35,2.87,2.71,4.3,4.06c-0.16,6.15,0.36,12.32-0.53,18.46
	c-0.3,2.06-0.43,4.37-2.66,5.17c-2.24,0.8-2.98-1.59-4.41-2.64c-5.74-4.21-12-7.49-19.01-9.13c-1.75-3.24-3.5-6.49-5.24-9.73
	c2.99,0.18,5.55,1.45,7.63,3.49c1.21,1.19,2.26,2.99,4.08,2.31c2.19-0.81,1.63-3.03,1.47-4.86
	C252.57,614.4,257.97,613.26,261.76,608.86z"/>
<path class="st283" d="M64.83,658.54c-0.91-0.76-1.88-1.45-2.7-2.29c-1.79-1.82-2.88-1.57-3.34,0.98c-0.09,0.51-0.06,1.07-0.28,1.51
	c-1.3,2.61-0.31,7.36-4.01,7.47c-3.1,0.1-4.08-4.06-5.31-6.85c-0.34-0.77-0.73-1.51-1.13-2.34c-4.45,2.59-8.56,5.43-13.05,7.42
	c-2.86,1.27-1.36,4.06-2.99,5.5c0.31-3.05-0.5-4.82-4.11-4.12c-1.17,0.23-3.05,0.76-3.58-0.9c-0.61-1.92,1.39-2.43,2.57-3.27
	c0.97-0.69,2.01-1.28,3.04-1.88c1.44-0.85,3.11-1.39,3.06-3.61c-0.05-2.51-2.15-1.62-3.34-2.2c-0.91-0.45-2-0.66-2.03-1.96
	c-0.03-1.17,0.71-1.92,1.67-2.36c1.7-0.76,3.45-1.4,5.18-2.1c2.07-0.68,4.13-1.36,6.51-2.15c-1.79-1.82-4.39-0.56-5.07-2.9
	c-0.13-0.24-0.26-0.47-0.36-0.72c-0.01-0.02,0.25-0.15,0.38-0.23c1.86-2.68,4.93-3.79,7.41-5.66c7.54-2.56,14.32-6.48,20.56-11.38
	c2.07-1.06,4.14-2.13,6.21-3.19c1.72,3.82,3.44,7.63,5.17,11.45c0.95,2.57,1.13,4.95-1.53,6.69c-2.8,1.84-1.28,5.03-2.26,7.52
	C69.82,651.23,66.69,654.5,64.83,658.54z"/>
<path class="st283" d="M63.9,624.52c-6.24,4.9-13.03,8.82-20.57,11.38c-1.09-2.83-3.86-3.17-6.17-4.19
	c-0.4-1.71-0.79-3.42-1.19-5.13c-2.53-3.59-2.76-9-8.13-10.36c-0.94-0.34-1.88-0.98-2.81-0.96c-3.43,0.09-2.77-1.59-1.6-3.47
	c1.61-2.57,4.04-4.66,4.41-7.92c0,0-0.06,0.04-0.06,0.04c0.32-0.35,0.65-0.71,0.97-1.06c2.61-3.59,7.85-4.51,9.36-9.21
	c4.15,0.01,7.98-3.43,12.34-1.13c-2.43,2.85-4.45,6.01-6.81,8.93c-2.74,3.39-5.39,7.12-6.37,11.58c-0.88,3.97,1.24,7.97,3.99,7.18
	C49.65,617.78,56.27,623.6,63.9,624.52z"/>
<path class="st283" d="M38.11,593.64c-1.52,4.7-6.75,5.63-9.36,9.21c-0.56,0.13-1.48-0.06-0.97,1.06c0,0,0.06-0.04,0.06-0.04
	c-3.71-0.27-6.01,2.56-8.81,4.16c-4.46,2.56-6.47,1.79-6.66-3.49c-0.32-8.89,1.04-17.42,6.42-24.91c2.29-3.2,4.31-6.59,6.46-9.89
	c1.16,0.01,2.19-0.23,2.75-1.4c2.36,3.53,3.5,7.2,2.75,11.62C29.4,587.97,30.83,590.26,38.11,593.64z"/>
<path class="st303" d="M20.28,539.03c0.72-1.33,2.38-2.45,0.9-4.24c6.98-3.23,12.3-9.11,19.39-12.21c1.08-0.47,0.5-2.22,0.58-3.4
	c3.68-5.13,8.13-1.22,12.25-1.04c0.09,0.35,0.19,0.69,0.28,1.04c1.29,6.3-3.66,9.46-7.52,11.68c-7.5,4.33-12.44,9.94-14.24,18.35
	c-1.18-1.39-2.93-1.78-4.51-1.97C22.45,546.64,20.54,543.61,20.28,539.03z"/>
<path class="st283" d="M20.28,539.03c0.26,4.58,2.17,7.61,7.14,8.22c1.58,0.19,3.33,0.58,4.51,1.97c-2.52,6.13-5.32,12.2-3.93,19.13
	c-0.56,1.16-1.59,1.41-2.75,1.4c-2.92-5.49-7.87-9.26-11.76-13.93c-2.07-2.49-4.39-4.78-6.32-7.37c-2.19-2.95-1.66-5.1,2.36-5.63
	C13.38,542.31,17.3,542.01,20.28,539.03z"/>
<path class="st283" d="M41.15,519.18c-0.07,1.18,0.5,2.92-0.58,3.4c-7.1,3.1-12.41,8.97-19.39,12.21c-1.27-0.8-2.54-1.6-3.81-2.4
	c-0.42-1.1-0.54-2.54-1.32-3.23c-4.4-3.9-2.08-6.72,1.33-9.36c3.06-2.36,6.22-4.58,9.34-6.86c0.04,8.22,2.7,10.51,9.16,7.58
	C37.64,519.71,39.25,519.08,41.15,519.18z"/>
<path class="st283" d="M184.62,637.86c-6.12-0.24-11.88,0.71-16.54,5.16c-7.99,2.51-16.01,4.94-22.66,10.37
	c-4.41,1.91-7.65,5.43-11.35,8.32c-4.7,2.11-9.34,4.56-14.72,2.18c-0.4-0.18-1.07-0.05-1.48,0.18c-7.89,4.28-14.82,0.43-21.33-3.16
	c-10.18-5.61-11.81-10.32-9.14-21.71c0.35-1.49,0.35-3.06,0.51-4.59c1.29,0,1.69-0.87,2-1.94c1.56-5.46,2.86-10.95,2.96-16.67
	c0.03-1.51-0.03-3.36,2.02-3.64c2.05-0.28,2.5,1.53,2.94,2.97c1.19,3.94,2.11,7.96,3.38,11.87c2.4,7.38,4.87,14.75,13.08,17.98
	c2.01,0.79,3.19,2.63,4,4.55c1.06,2.55,2.16,2.69,3.91,0.57c3.05-3.67,7.03-6.05,11.52-7.46c8.22-2.6,14.29-7.87,19.34-14.67
	c3.19-4.3,7.52-5.54,12.79-4c2.42,0.71,4.43,2.84,7.24,2.2c4.01,3.94,10.12,3.4,14.41,6.74c1,0.78,3.11,0.3,3.11,2.08
	c0,2.22-2.25,1.51-3.51,2.07C186.31,637.58,185.44,637.66,184.62,637.86z"/>
<path class="st283" d="M184.62,637.86c0.82-0.2,1.69-0.28,2.45-0.61c1.26-0.55,3.51,0.15,3.51-2.07c0-1.79-2.11-1.3-3.11-2.08
	c-4.29-3.35-10.4-2.81-14.41-6.74c0.63-2.31,1.38-4.6,1.18-7.05c2.87-0.71,4.55-2.79,5.84-5.24c1.8-3.41,3.53-6.86,5.29-10.29
	c6.51,1.27,12.23,9.1,12.68,17.21c0.6,10.93,5.04,20.43,11.12,29.3c0.77,2.75,1.54,5.5,2.31,8.25
	C199.09,656.12,188.78,650.99,184.62,637.86z"/>
<path class="st283" d="M145.42,653.39c6.65-5.43,14.67-7.87,22.66-10.37c0.65,5.93-1.7,11.69-0.98,17.62
	c-0.41,5.25-4.08,8.53-7.28,12.11c-4.61,2.06-7.69,6.12-11.7,8.93c-2.55,1.79-5.63,5-8.6,3.28c-3.26-1.89-0.96-5.83-0.58-8.91
	c0.17-1.35,0.24-2.71,0.35-4.07C141.86,665.94,143.94,659.77,145.42,653.39z"/>
<path class="st283" d="M159.83,672.74c3.19-3.57,6.87-6.86,7.28-12.11c4.35,4.8,6.76,10.69,9.27,16.52
	c-2.35,1.17-3.83,3.32-5.59,5.13c-3.11,3.19-5.63,2.77-7.51-1.12C161.96,678.44,160.97,675.55,159.83,672.74z"/>
<path class="st283" d="M204.3,679.98c-0.29,0.4-0.69,0.77-0.86,1.21c-0.52,1.37-0.55,3.37-2.21,3.61c-2.16,0.31-2.19-2.11-3.09-3.38
	c-0.77-1.08-1.43-2.24-2.14-3.37c0.25-2.61-1.05-6.36,1.98-7.23c2-0.57,2.96,3.2,4.34,5.05C203.2,677.07,203.65,678.6,204.3,679.98z
	"/>
<path class="st283" d="M87.9,634.6c-0.16,1.53-0.16,3.1-0.51,4.59c-2.66,11.4-1.04,16.11,9.14,21.71
	c6.51,3.59,13.44,7.44,21.33,3.16c0.41-0.23,1.09-0.35,1.48-0.18c5.38,2.38,10.02-0.06,14.72-2.18c0.05,3.72,1.85,6.91,3.09,10.27
	c-1.36,1.52-2.59,3.19-4.12,4.52c-5.67,4.92-8.22,4.7-13.13-0.61c-2.54-2.74-4.91-6.61-8.07-7.55c-3.75-1.11-4.31,4.57-7.12,6.5
	c-1.92,1.32-3.39,3.32-4.97,5.1c-2.52,2.85-5.43,3.97-9.08,2.33c1.71-7.82,0.11-14.65-5.54-20.57c-4.43-4.65-4.26-10.62-3.47-16.42
	c0.57-4.18,1.89-8.27,2.88-12.39c1.01-0.67,2.01-0.71,3.02-0.01C87.68,633.44,87.79,634.02,87.9,634.6z"/>
<path class="st283" d="M209.18,650.28c-6.08-8.87-10.51-18.37-11.12-29.3c-0.45-8.1-6.17-15.93-12.68-17.21
	c1.01-2.76,3.21-3.02,5.79-3.17c4.4-0.25,5.77-2.51,4.91-6.87c-0.34-1.74-1.15-3.15-2.06-4.58c0.04-0.72,0.01-1.47,0.81-1.87
	c6.85,10.08,11.94,20.98,13.93,33.03c1.11,6.73,4.55,11.56,9.56,15.74c1.69,1.4,3.01,3.25,4.49,4.89c0.36,0.37,0.72,0.74,1.07,1.11
	c0,0-0.03-0.03-0.03-0.03c0.79,4.51,1.65,8.99,3.45,13.24c0.82,1.93,1.45,4.14-0.52,5.6c-1.71,1.27-3.01-0.79-4.52-1.28
	C216.9,657.84,214.61,651.86,209.18,650.28z"/>
<path class="st303" d="M206.28,588.44c-2.57-2.1-6.1-1.81-8.82-3.54c-0.14-0.66-0.48-1.36-0.37-1.97c0.4-2.08-0.37-15.43-1.14-17.11
	c-0.36-0.78-0.75-1.56-1.26-2.23c-5.65-7.48-11.05-10.69-17.34-3.28c-3.66,1.36-7.48,1.41-11.32,1.39
	c-4.43-0.77-5.61-5.53-8.86-7.42c-5.83-3.4-6.87-8.44-7-14.41c-0.06-2.6,0.83-5.58-1.51-7.81c-0.17-2.28-0.41-4.57,0.88-6.66
	c2.1-0.32,4.21,0.78,6.37-0.79c2.2-1.61,4.66-1.17,7.15,0.37c4.43,2.73,6.47,1.61,7.04-3.63c0.24-2.19,0.05-4.38-0.48-6.61
	c-1-4.21-3.5-8.16-2.52-12.76c5.36-3.36,10.6-6.93,16.94-8.35c1.1-0.25,2.38-0.93,3.01-1.81c2.78-3.9,6.5-5.25,11.15-4.95
	c3.43,0.22,4.54-1.24,3.2-4.71c-1.92-4.95-0.85-9.64,1.59-14.29c3.1-5.91,6.2-11.89,7.25-18.59c0.54-3.43,1.64-6.61,3.25-9.65
	c1.92-2.84,3.85-5.67,5.74-8.52c0.63-0.95,0.75-2.6,2.3-2.32c1.63,0.29,1.82,1.92,1.99,3.27c0.37,3.1-0.11,6.15-0.48,9.23
	c-0.39,3.23-0.46,6.5-0.68,9.76c-0.28,1.86-0.68,3.71-0.82,5.58c-0.7,9.72-0.09,19.79-7.87,27.48c-0.74,0.74-0.47,1.55,0.24,2.23
	c4.32,4.1,8.11,8.77,13.02,12.23c3.97,7.19,8.94,13.55,15.48,18.61c-0.44,3.88,1.77,7.21,2.21,10.98c0.85,7.34-2.2,13.78-4.23,20.32
	c-1.4,4.51,0.58,10.2-4.24,13.67c-0.1,0.07,0.7,1.39,1.08,2.12c-0.33,0.16-0.65,0.33-0.98,0.49c-0.63-0.16-1.26-0.31-1.89-0.47
	c-1.24-0.25-1.91,0.48-2.44,1.44c-2.4,2.71-5.17,1.75-8.01,0.93c-1.66-0.48-3.49-0.61-4.74,0.98c-1.19,1.51-1.15,3.38-0.13,4.83
	c3.57,5.09,0.92,9.57-1.41,13.88C214.23,592.65,211.66,592.99,206.28,588.44z"/>
<path class="st280" d="M248.94,357.34c-2.59-11.39-5.7-21.78-7.2-32.41c-2.1-14.95-9.78-27.37-16.28-40.39
	c-3.83-7.68-7.64-15.37-11.55-23.01c-0.89-1.75-1.18-3.5,0.4-4.63c5.73-4.08,9.01-10.29,13.67-15.29c2.62-2.81,5.12-3.49,8.62-1.73
	c6.73,3.4,13.51,6.75,21.06,8.02c1.96,0.33,2.16,2.02,2.86,3.31c7.61,14.09,10.02,29,7.68,44.88c-1.68,11.4-3.8,22.65-6.85,33.78
	C258.74,339.46,252.77,347.36,248.94,357.34z"/>
<path class="st283" d="M107.28,410.9c0.34-2.03,0.74-4.04,1.01-6.08c0.19-1.44,0.46-2.85,2.1-3.16c2.02-0.38,2.64,1.11,3.1,2.68
	c0.43,1.47,0.89,2.92,1.46,4.78c0.59-1.8,1.05-3.22,1.51-4.64c0.58-1.78,0.88-3.94,3.35-3.95c2.84-0.01,3.17,2.5,3.45,4.4
	c0.82,5.45,0.88,10.93-0.15,16.39c-0.33,1.76-1.27,3.49-0.73,5.45c1.76-0.01,2.1-1.73,3.24-2.35c6.66-0.36,6.75-0.23,4.75,6.17
	c-0.25,0.79-0.31,1.63-0.45,2.45c-5.66,1.07-11.24-0.67-16.88-0.45c-6.35,0.24-8.66,2.88-8.04,9.1c0.34,3.4,1.62,6.29,4.37,8.39
	c2.7,2.07,5.47,4.06,8.2,6.08c-0.02,1.78-0.04,3.55-0.06,5.33c-4.09-0.45-8.18-1.48-11.58-3.6c-6.03-3.75-12-4.16-18.42-1.65
	c-0.14-1.98,1.57-2.9,2.46-4.29c3.58-5.56,7.69-10.9,9.42-17.38c2.04-7.69-2.33-12.1-9.73-10.28c0.7-7.15-0.37-8.62-7.43-10.32
	c-1.32-0.32-2.62-0.73-3.93-1.09c-0.78-3.36-1.56-6.73-2.34-10.09c0.27-1.21,0.85-2.16,2.12-2.54c3.36,6.04,9.77,8.95,13.91,15.23
	c1.66-5.14-0.92-8.71-0.23-12.46c0.2-1.12-0.36-2.57,1.05-3.17c1.61-0.68,2.63,0.58,3.43,1.61c2.86,3.68,4.33,8.02,5.88,12.36
	c1.18,3.31,1.34,7.15,5.15,11.13C107.28,419.28,107.28,415.09,107.28,410.9z"/>
<path class="st283" d="M213.49,439.63c-1.61,3.04-2.71,6.22-3.25,9.65c-1.05,6.7-4.14,12.69-7.25,18.59
	c-2.44,4.64-3.52,9.34-1.59,14.29c1.35,3.47,0.24,4.94-3.2,4.71c-4.65-0.3-8.36,1.05-11.15,4.95c-0.63,0.88-1.91,1.56-3.01,1.81
	c-6.34,1.42-11.57,5-16.94,8.35c-1.48-1.57-0.81-3.53-0.8-5.3c0.02-4.18-0.9-7.99-3.41-11.37c1.91-4.18,0.74-8.61,1.02-12.92
	c6.21-4.02,12.43-8.04,18.64-12.06c3.05,8.18,8.33,15.62,7.86,25.05c6.46-9.33,5.16-20.06,6.55-30.22
	c1.49-9.63,4.08-18.83,10.35-26.6c3.51,0.12,3.47,3.1,4.48,5.36C212.64,435.77,211.74,438.09,213.49,439.63z"/>
<path class="st281" d="M157.77,418.93c3.74-12.78,6.41-25.95,14.2-37.21c1.64-2.38,2.06-5.4,2.46-8.32c0.19-1.36-0.42-3.67,1.7-3.64
	c1.86,0.02,1.8,2.36,2,3.72c0.9,5.93,1.54,11.89,2.27,17.85c1.03,10.25,1.94,20.45,0.12,30.76c-1.31,7.46-3.86,14.5-6.09,21.66
	c-1.87,0.1-3.82,0.24-5.13-1.42c-2.04-2.59-4.77-2.78-7.73-2.67c-2.35,0.09-4.71-0.08-7.06-0.13
	C154.37,432.46,154.88,425.51,157.77,418.93z"/>
<path class="st283" d="M226.94,498.57c-4.91-3.47-8.7-8.13-13.02-12.23c-0.71-0.68-0.99-1.49-0.24-2.23
	c7.78-7.7,7.16-17.77,7.87-27.48c0.14-1.87,0.54-3.72,0.82-5.58c8.09-11.03,14.47-23.03,19.9-35.53c0.77-1.78,0.94-4.02,3.43-3.51
	c3.05,0.61,2.15,3.38,1.59,5.03c-2.45,7.31-4.11,14.79-5.24,22.4c-0.38,2.52-0.49,5.09-0.73,7.63c-1.93,4.12-1.66,8.65-2.43,12.99
	c-1.19,6.69-2.53,13.35-3.91,20.01c-0.29,1.42-0.93,2.73,1.26,2.99c-3.21,4.27-7.08,8.13-8.15,13.67
	C227.71,497.34,227.32,497.96,226.94,498.57z"/>
<path class="st283" d="M78.09,400.25c-1.27,0.38-1.85,1.33-2.12,2.54c-3.25,0.5-6.28,1.39-8.02,4.55c-2.37,0.71-4.73,1.69-7.19,0.3
	c-1.93-6.9-7.15-11.47-11.73-16.48c-1.48-8.71,6.04-18.85,14.59-19.65c2.89-0.27,4.95,1.35,6.55,3.43c2.51,3.26,4.81,6.68,7.2,10.03
	C79.41,389.98,80.62,395.03,78.09,400.25z"/>
<path class="st283" d="M183.73,382.98c-1.74-0.99-2.08-2.74-2.05-4.44c0.16-9.8-1.52-19.48-1.92-29.2c-0.38-9.34,1.12-18.77,2-28.15
	c0.18-1.95,0.95-4.42,3.72-4.02c2.47,0.35,2.32,2.62,2.33,4.52c0.03,3.58,0.01,7.16,0.01,10.93c3.02-0.73,6.15-3.01,8.33-0.09
	c2.15,2.88,0.88,6.29-0.76,9.22c-1.51,2.69-3.22,5.27-4.84,7.9c-3.13,5.05-2.7,8.51,1.71,12.51c1.93,1.75,1.59,4.03,1.71,6.23
	c-0.11,3.19-0.22,6.38-0.34,9.58c-2.61-1.61-4.72-0.85-6.66,1.28C185.86,380.48,185.51,382.36,183.73,382.98z"/>
<path class="st283" d="M236.24,483.05c-2.19-0.26-1.56-1.57-1.26-2.99c1.37-6.66,2.72-13.32,3.91-20.01
	c0.77-4.34,0.51-8.87,2.43-12.99c2.53-0.49,4.5-2.9,7.39-2.19c3.76,0.47,4.34,3.98,6.07,6.39c2.96,8.31,6.26,16.56,5.19,25.68
	c-1.21,1.82-2.51,3.54-5.03,4.51c0.04-5.26-1.03-9.91-2.1-14.56c-0.46-2-1.14-3.77-3.23-4.18c-2.29-0.44-3.28,1.46-4.22,3.11
	c-0.76,1.33-1.44,2.7-2.12,4.07C241.08,474.35,239.16,478.97,236.24,483.05z"/>
<path class="st283" d="M78.09,400.25c2.53-5.22,1.33-10.27-0.71-15.28c9.24,1.17,14.38,8.44,20.43,14.14
	c3.63,3.42,6.93,7.37,9.47,11.79c0,4.19,0,8.39,0,14.05c-3.82-3.99-3.97-7.83-5.15-11.13c-1.55-4.34-3.02-8.68-5.88-12.36
	c-0.8-1.03-1.82-2.29-3.43-1.61c-1.41,0.6-0.85,2.05-1.05,3.17c-0.68,3.74,1.89,7.31,0.23,12.46
	C87.86,409.21,81.45,406.29,78.09,400.25z"/>
<path class="st283" d="M193.64,377.98c0.11-3.19,0.22-6.38,0.34-9.58c2.27-2.26,3.82-5.29,7.02-6.55c3.66-1.45,5.76,0.11,5.18,4.01
	c-0.48,3.24-2.18,6.04-3.96,9.16c2.45,0.54,3.54-1.45,5.18-1.94c1.86-0.56,3.73-1.12,5.25,0.49c1.38,1.47,0.74,3.17,0.06,4.79
	c-2.22,5.26-5.67,9.71-9.28,14.04c-1.22,1.47-2.48,2.82-2.6,4.84c-0.93,0.05-1.86,0.11-2.79,0.16c0-5.1-0.13-10.21,0.05-15.3
	c0.11-3.28-0.91-4.9-4.39-4.16L193.64,377.98z"/>
<path class="st283" d="M185.8,423.27c2.97-6.35,5.25-12.96,7.16-19.7c0.34,0,0.68,0.01,1.02,0.02c0.24,1.85-1,5.4,3.16,2.67
	c1.52-1,3.26-0.54,4.92-0.55c0.35,1.01,0.7,2.02,1.04,3.03c-1.69,6.94-3.25,13.92-5.14,20.81c-0.97,3.55-1.75,7.73-7.12,6.99
	C188.22,432.47,188.76,427.21,185.8,423.27z"/>
<path class="st283" d="M190.84,436.54c5.37,0.74,6.15-3.45,7.12-6.99c1.89-6.89,3.44-13.87,5.14-20.81
	c2.42,6.39,3.29,13.11,4.22,19.81c-6.27,7.77-8.86,16.97-10.35,26.6c-2.86-0.74-2.5-3.34-3-5.36
	C192.88,445.39,193.08,440.68,190.84,436.54z"/>
<path class="st283" d="M49.03,391.16c4.58,5.01,9.8,9.58,11.73,16.48c-1.36,0.13-2.71,0.28-4.07,0.4
	c-9.91,0.92-12.57,4.89-9.59,14.32c-0.88,0.3-1.77,0.6-2.65,0.9c-1.8-9.96-2.63-19.86,1.69-29.48
	C46.72,392.48,47.51,391.43,49.03,391.16z"/>
<path class="st283" d="M129.92,433.05c0.15-0.82,0.21-1.66,0.45-2.45c2-6.4,1.91-6.53-4.75-6.17c0.96-7.86,3.73-15.21,6.34-22.61
	c0.34-0.97,0.85-2,2.12-1.84c1.23,0.16,1.47,1.36,1.76,2.29c0.71,2.27,1.62,4.53,1.4,7c-2.02,1.78-1.36,4.13-1.11,6.25
	c0.66,5.6,1.39,11.17,0.81,16.82C134.69,433.45,132.31,433.29,129.92,433.05z"/>
<path class="st280" d="M223.79,217.86c4.79-4.2,8.07-9.62,11.65-14.77c1.86-2.68,3.16-1.77,4.62,0.2
	c0.38,5.43,0.54,10.46-3.62,15.19c-3.18,3.62-5.38,5.37-9.33,1.63C226.15,219.2,224.9,218.6,223.79,217.86z"/>
<path class="st283" d="M202.06,405.71c-1.66,0.01-3.41-0.44-4.92,0.55c-4.15,2.73-2.92-0.82-3.16-2.67
	c1.95-0.21,2.01-1.66,2.04-3.12c1.32-0.6,1.99-1.63,2.03-3.07c0.93-0.05,1.86-0.11,2.79-0.16
	C202.04,399.95,202.43,402.77,202.06,405.71z"/>
<path class="st281" d="M415.64,354.8c-2.74-5.82-2.21-12.46-4.47-18.36c-4.04-10.52-7.68-21.29-12.83-31.26
	c-3.94-7.63-7.9-15.28-12.05-22.81c-4.42-8.03-10.56-14.9-17.39-21.04c-2.41-2.16-5.51-1.49-8.4-1.11
	c-3.69,0.48-7.33,0.58-10.8-1.09c7.87-5.21,17.01-6.72,25.9-8.98c0.48,1.75,2.14,2.14,3.44,2.83c7.1,3.77,12.55,9.3,17.38,15.61
	c2.86,3.73,5.46,7.75,9.6,10.29c4.49,10.78,7.25,22.12,10.76,33.21c3.75,11.84,1.58,23.75,0.07,35.62
	C416.55,350.1,416.05,352.44,415.64,354.8z"/>
<path class="st303" d="M322,204.37c0.21-9.84,2.61-19.37,4.72-28.87c3.64-16.39,4.83-32.86,3.94-49.59
	c-0.27-5.18,0.41-10.42,1.19-15.69c5.02,8.92,8.21,18.29,9.77,28.3c2.12,13.57-0.43,26.65-3.51,39.7
	c-2.13,9.02-3.97,18.08-5.33,27.24C329.17,205.34,325.5,205.67,322,204.37z"/>
<path class="st303" d="M312.68,167.18c-2.86-1.74-5.98-2.23-9.26-1.93c-2.16-6.5,0.33-12.73,1.1-19.06
	c1.45-3.03,3.36-5.95,4.21-9.15c0.76-2.9,2.9-5.92,0.77-9.15c1.08-2.33,0.21-4.66,0.02-6.99c1.4,0.05,2.79,0.1,4.19,0.15
	c0.62,0.05,1.25,0.1,1.87,0.14c0.76-0.01,1.53-0.02,2.3-0.02c0.63,0,1.27,0.01,1.9,0.01c2.09,7.05,4.1,16.45,4.4,27.62
	c0.21,7.78-0.46,14.65-1.4,20.33C319.56,167.73,316.03,167.94,312.68,167.18z"/>
<path class="st281" d="M344.58,384.92c-5.37,4.13-11.83,5.66-18.14,7.54c-1.69-6.32,0.39-12.3,2.16-18.13
	c2.64-8.71,4.64-17.48,5.42-26.53c3.91,1.11,2.54,4.78,3.21,7.24C339.92,364.93,342.16,374.94,344.58,384.92z"/>
<path class="st303" d="M314.69,87.67c1.46-1.39,3.57-0.67,5.17-1.6c-0.07,4.24,0.37,8.56-0.34,12.7
	c-1.14,6.74-0.19,13.19,1.28,19.67c-4.34-0.4-8.09-2.76-12.25-3.74c1.07-7.97,3.01-15.7,7.11-22.7
	C316.81,90.04,316.07,88.87,314.69,87.67z"/>
<path class="st281" d="M406.02,278.89c-4.15-2.54-6.75-6.56-9.6-10.29c-4.83-6.31-10.28-11.85-17.38-15.61
	c-1.29-0.69-2.96-1.08-3.44-2.83c5.66-1.7,10.44,0.57,14.77,3.73C398.86,260.1,405.09,267.87,406.02,278.89z"/>
<path class="st303" d="M312.67,167.18c3.35,0.76,6.89,0.55,10.11,1.94c0.1,2.25-0.66,4.31-1.34,6.4c-3.89,2.47-4.38,6.83-5.88,10.63
	c-1.54-0.48-2.53-1.97-1.98-3.08C316.36,177.52,310.7,172.58,312.67,167.18z"/>
<path class="st303" d="M315.57,186.15c1.5-3.8,1.99-8.16,5.88-10.63c-0.96,6.67-2.68,13.16-4.88,19.53
	C314.8,192.24,316.39,189.06,315.57,186.15z"/>
<path class="st283" d="M308.55,114.69c4.17,0.98,7.91,3.34,12.25,3.74c-0.06,1.07-0.37,2.01-1.38,2.57
	c-0.51,0.05-1.02,0.1-1.54,0.16c-0.76,0.01-1.53,0.02-2.29,0.02c-0.62-0.05-1.25-0.1-1.87-0.14c-1.4-0.05-2.79-0.1-4.19-0.15
	C308.06,119.01,308.26,116.86,308.55,114.69z"/>
<path class="st283" d="M282.52,179.61c0.8,2.5,0.81,4.89-1.01,7.01c-6.39-1.1-15.65-10.88-16.07-17.34
	c-0.3-4.63,3.33-4.85,6.34-4.28c6.34,1.18,12.57,2.94,18.84,4.45c1.58,4.55-1.75,5.04-4.78,5.78c-1.97-1.36-4.02-2.61-5.89-4.09
	c-2.64-2.08-5.65-3.25-8.87-3.93c-1.27-0.27-2.9-0.84-3.77,0.55c-0.79,1.27,0.63,2.15,1.27,3.09
	C271.93,175.82,276.57,178.77,282.52,179.61z"/>
<path class="st283" d="M276.66,117.54c1.83-3.91,4.51-4.33,7.22-4.06c4.61,0.45,9.19,1.18,13.76,1.91c0.97,0.15,2.04,0.61,2.75,1.27
	c1.44,1.35,3.82,2.8,2.59,5.02c-1.21,2.2-3.51,0.62-5.07-0.06C291.34,118.73,284.89,115.51,276.66,117.54z"/>
<path class="st283" d="M41.15,519.18c-1.9-0.11-3.51,0.53-5.26,1.32c-6.46,2.93-9.12,0.64-9.16-7.58c0-1.01,0.01-2.01,0.01-3.02
	c3.45-3.22,5.84-7.42,9.68-10.31c1.37-1.03,2.49-2.33,4.4-2.12c0.18,2.03,0.15,4.87,2.65,4.83c4.83-0.08,8.6,3.11,13.18,3.5
	c-0.49,4.27-1.46,8.41-3.24,12.33C49.27,517.96,44.83,514.06,41.15,519.18z"/>
<path class="st281" d="M47.1,422.36c-2.98-9.43-0.32-13.39,9.59-14.32c1.36-0.13,2.71-0.27,4.07-0.4c2.46,1.39,4.82,0.41,7.19-0.29
	c3.47,1.82,6.24,4.94,10.36,5.54c1.31,0.37,2.61,0.77,3.93,1.09c7.06,1.7,8.13,3.17,7.43,10.32c-5.64,4.11-11.39,8.35-18.25,9.84
	c-7.81,1.7-14.47,4.92-19.91,10.73c-0.66-0.18-1.32-0.36-1.98-0.54c-4.26-2.96-4.31-6.93-2.84-11.37c0.94-2.84,2.78-5.61,1.23-8.82
	c-0.3-0.65-0.3-1.69-1.5-1.12C46.64,422.8,46.87,422.58,47.1,422.36z"/>
<path class="st283" d="M38.02,449.9c0.75-0.98,0.63-1.99,0.11-3.01c3.75,0,7.49-0.01,11.24-0.01c0.27,0.24,0.54,0.48,0.81,0.72
	c-0.94,2.19-1.87,4.37-2.81,6.56C43.9,453.53,41.99,449.46,38.02,449.9z"/>
<path class="st323" d="M49.53,444.33c0.66,0.18,1.32,0.36,1.98,0.54c0.07,1.16-0.68,1.92-1.33,2.72c-0.27-0.24-0.54-0.48-0.81-0.72
	C49.43,446.02,49.48,445.17,49.53,444.33z"/>
<path class="st323" d="M46.41,423.01c1.2-0.57,1.2,0.47,1.5,1.12C47.41,423.76,46.91,423.39,46.41,423.01z"/>
<path class="st303" d="M50.18,447.59c0.65-0.81,1.4-1.57,1.33-2.72c5.44-5.81,12.09-9.04,19.91-10.73
	c6.85-1.49,12.61-5.72,18.25-9.84c7.4-1.82,11.77,2.59,9.73,10.28c-1.72,6.48-5.83,11.82-9.42,17.38c-0.89,1.38-2.61,2.3-2.46,4.29
	c-4.63,0.02-9.32,1-12.03,4.7c-3.35,4.59-7.22,8.69-10.76,13.09c-3.63,4.5-5.25,9.58-4.93,15.26c0.32,5.79-0.9,11.24-3.15,16.52
	c-4.58-0.39-8.35-3.58-13.18-3.5c-2.49,0.04-2.47-2.8-2.65-4.83c-0.7-6.52-1.15-13.03,0.06-19.54c2.16-7.93,4.33-15.86,6.49-23.79
	C48.31,451.96,49.25,449.77,50.18,447.59z"/>
<path class="st281" d="M364.04,457.5c-0.48-9.59-1.39-19.18-4.28-28.36c-0.41-1.29-0.64-2.2-0.97-3.3
	c-3.21-10.74-5.47-16.36-10.69-30.96c-0.82-2.29-2.05-5.74-3.53-9.97c-5.37,4.13-11.83,5.66-18.14,7.54
	c-0.32,9.38-7.08,13.9-13.9,18.35c-1.81,1.18-3.62,3.72-5.7,2.67c-2.11-1.06-1.29-4.05-1.2-6.2c0.49-12-1.64-23.49-6.24-34.57
	c-2.5-6.01-4.78-12.1-5.46-18.65c-0.56,0.03-1.12,0.05-1.68,0.07c-0.09,4.29-0.18,8.59-0.26,12.88c-0.16,8.75,0.64,17.56-1.18,26.21
	c-0.47,2.2-0.08,5.14-3.26,6.35c-0.16-0.82-0.4-1.32-0.34-1.78c1.75-13.07,0.94-26.08-1.33-38.98
	c-3.15-17.86-1.45-34.56,10.51-49.14c-3.36,0.19-4.93,4.09-8.4,4.05c-1.55,8.95-6.49,16.06-11.96,23.04
	c-5.72,7.29-11.68,14.48-16.16,22.64c-5.56,10.15-9.72,20.45-8.28,32.76c1.94,16.58,2.13,33.31-2.79,49.64
	c-0.28,0.94-0.07,2.03-0.09,3.06c3.76,0.47,4.34,3.98,6.07,6.39c2.37-0.56,4.6-2.04,7.19-1.09c1.44,7.4,1.67,14.92,2.34,22.39
	c2.43,0.8,3.8-1.2,5.43-2.23c3.93-2.49,7.95-4.63,12.59-5.48c2.71-0.5,5.31-0.28,6.91,2.1c1.75,2.61,0.79,5.35-0.88,7.64
	c-2.46,3.36-5.97,5.54-9.39,7.83c-2.66,1.78-5.91,2.8-7.71,5.74l0.16,0.16c4.45-0.05,8.9-0.25,13.34-0.1
	c6.29,0.22,7.87,3.01,5.2,8.69c-0.58,1.23-1.02,2.51-1.52,3.77c3.3,2.4,7.07,0.61,10.58,1.17c1.02-1.76,3.06-1.25,4.55-2.02
	c12.86-6.6,25.16-14.16,37.48-21.66c5.41-3.29,11.51-5.95,14.99-11.79C362.06,465.64,364.33,463.21,364.04,457.5z M336.26,437.59
	c-0.25-0.03-0.5-0.06-0.75-0.09c0.06-0.13,0.12-0.27,0.18-0.4C335.88,437.26,336.07,437.43,336.26,437.59z"/>
<path class="st324" d="M223.88,642.06c-0.36-0.37-0.72-0.74-1.07-1.11C223.16,641.32,223.52,641.69,223.88,642.06z"/>
<path class="st283" d="M57.01,603.71c-1.48,9.31,1.37,12.94,9.26,13.56c2.39,0.19,3.62,1.7,3.84,4.06
	c-2.07,1.06-4.14,2.13-6.21,3.19c-7.63-0.92-14.25-6.74-22.64-4.32c-2.75,0.79-4.86-3.21-3.99-7.18c0.98-4.46,3.63-8.19,6.37-11.58
	c2.36-2.92,4.38-6.08,6.81-8.93C54.02,595.44,55.86,599.37,57.01,603.71z"/>
<path class="st303" d="M57.01,603.71c-1.15-4.34-2.99-8.28-6.56-11.2c-4.36-2.3-8.19,1.14-12.34,1.13
	c-7.28-3.38-8.71-5.67-7.36-13.67c0.75-4.42-0.39-8.09-2.75-11.62c-1.39-6.93,1.41-13,3.93-19.13c1.8-8.42,6.74-14.02,14.24-18.35
	c3.86-2.23,8.81-5.39,7.52-11.68c2.01,1.6,4.07,2.14,6.83,2.34c5.1,0.38,8.34-4.36,13.54-3.53c4.6,0.74,9.5,0.86,13.76-2.33
	c1.05-0.79,3.14-0.93,4.44-0.49c3.76,1.29,7.39,0.41,11.07-0.04c4.48,1.48,6.44,5.17,8.05,9.17c4.05,6.51,6.09,13.16,4.38,21.17
	c-1.07,5.03,0.07,10.48,4.94,14.21c2.83,2.17,2.39,5.53,1.61,8.52c-0.59,2.26-1.77,4.37-2.69,6.54c-1.52,1.27-3.25,2.33-4.02,4.3
	c-2.8,0.36-5.6,0.72-8.4,1.07c-2.15-1.08-3.82-0.17-4.62,1.71c-2.6,6.08-4.76,12.33-9.07,17.57c-0.82,1-0.5,2.94-0.71,4.44
	c-0.33,0.06-0.77,0-0.98,0.19c-9.69,8.6-15.06,9.15-26.71,2.65C62.56,605.26,59.86,604.29,57.01,603.71z"/>
<path class="st325" d="M27.78,603.91c-0.51-1.12,0.41-0.93,0.97-1.06C28.43,603.21,28.1,603.56,27.78,603.91z"/>
<path class="st281" d="M107.2,580.12c2.8-0.36,5.6-0.72,8.4-1.07c4.6-0.03,8.64,2.5,13.15,2.88c-0.13,3.79,0.37,6.93,5.44,6.55
	c2.09-0.15,2.84,1.45,3,3.42c0.2,2.5-0.71,4.66-1.47,6.95c-1.02,3.09-1.96,7.13,0.27,9.32c2.66,2.62,5.58-0.58,8.16-2.12
	c2.89-1.73,5.56-3.35,5.81,2.29c0.08,1.81,0.67,3.68,0.62,5.57c-0.07,2.46,0.64,4.51,3.2,5.21c2.42,0.66,3.81-0.92,4.96-2.78
	c1.07-1.73,2.2-3.43,3.26-5.17c1.05-1.71,0.85-2.52,3.04-0.11c2.64,2.91,3.2,8.99,9.21,8.23c0.2,2.45-0.56,4.74-1.18,7.05
	c-2.82,0.64-4.82-1.49-7.24-2.2c-5.27-1.54-9.59-0.3-12.79,4c-5.05,6.8-11.11,12.08-19.34,14.67c-4.49,1.42-8.47,3.8-11.52,7.46
	c-1.75,2.11-2.85,1.97-3.91-0.57c-0.8-1.92-1.99-3.76-4-4.55c-8.21-3.23-10.67-10.6-13.08-17.98c-1.27-3.91-2.19-7.93-3.38-11.87
	c-0.43-1.44-0.89-3.25-2.94-2.97c-2.05,0.28-2,2.13-2.02,3.64c-0.1,5.72-1.4,11.21-2.96,16.67c-0.31,1.07-0.7,1.94-2,1.94
	c-0.11-0.58-0.22-1.16-0.33-1.74c1.27-9.25,1.52-18.73,6.3-27.16c6.09-2.72,7.87-7.97,8.15-14.03
	C102.23,587.11,102.92,582.83,107.2,580.12z"/>
<path class="st283" d="M261.01,476.85c-0.35,0.03-0.69,0.06-1.04,0.08c1.07-9.12-2.23-17.37-5.19-25.68
	c2.37-0.56,4.59-2.04,7.19-1.09c1.44,7.4,1.67,14.92,2.34,22.39c-0.09,1.56-1.47,2.25-2.27,3.34
	C261.7,476.21,261.35,476.53,261.01,476.85z"/>
<path class="st281" d="M147.6,561.46c-4.03,0.37-2.62,3-2.17,5.22c-7.59,5.94-16,9.25-25.81,8.07c0.92-2.17,2.11-4.28,2.69-6.54
	c0.78-3,1.22-6.36-1.61-8.52c-4.87-3.73-6.01-9.18-4.94-14.21c1.7-8.01-0.34-14.65-4.38-21.17c3.29-5.12,8.32-7.49,14-6.76
	c7.46,0.96,15.23,0.99,22.12,4.77c0.68,1.03,1.37,2.05,2.05,3.08c-1.29,2.09-1.05,4.38-0.88,6.66c-0.24,3.28-2.73,5.36-4.25,7.96
	c-1.19,2.03-2.78,4.04-1.02,6.53C146.57,551.02,147.43,556.14,147.6,561.46z"/>
<path class="st281" d="M149.55,525.4c-0.68-1.03-1.37-2.05-2.05-3.08c-1.28-2.97,1.31-5.83,0.35-9.25c-3.26,1.28-6.2,2.64-9.26,3.61
	c-4.49,1.43-8.75-1.36-9.56-6c-0.68-3.9,1.44-6.13,6.44-6.69c1.7-0.19,3.43-0.21,5.14-0.29c3.2-0.15,3.56-1.6,1.64-3.84
	c-1.89-2.22-4.07-4.21-5.87-6.49c-2.29-2.9-4.35-6.1-1.59-9.77c2.67-3.56,6.26-2.74,9.86-1.69c4.65,1.35,6.93,5.38,9.93,8.6
	c0.6,1.11,0.71,2.63,2.37,2.84c2.24-2.54-0.54-8.73,5.95-8.03c2.51,3.38,3.43,7.2,3.41,11.37c-0.01,1.76-0.68,3.72,0.8,5.3
	c-0.98,4.6,1.52,8.55,2.52,12.76c0.53,2.23,0.72,4.42,0.48,6.61c-0.57,5.24-2.62,6.36-7.04,3.63c-2.49-1.54-4.95-1.97-7.15-0.37
	C153.76,526.18,151.64,525.08,149.55,525.4z"/>
<path class="st303" d="M282.52,179.61c-5.95-0.84-10.59-3.79-13.94-8.76c-0.64-0.94-2.06-1.83-1.27-3.09
	c0.87-1.39,2.5-0.82,3.77-0.55c3.21,0.68,6.23,1.85,8.87,3.93c1.87,1.48,3.92,2.74,5.89,4.09
	C284.27,176.35,285.13,179.29,282.52,179.61z"/>
<path class="st303" d="M136.94,432.33c3.33,0.65,5.94,3.52,9.6,3.17c2.17,2.31,4.94,3.44,7.98,4.02c2.35,0.05,4.71,0.22,7.06,0.13
	c2.96-0.11,5.69,0.08,7.73,2.67c1.31,1.66,3.26,1.52,5.13,1.42c0.32,0.08,0.63,0.09,0.95,0.03c8.69,4.57,10.54,8.85,7.17,16.56
	c-6.21,4.02-12.43,8.04-18.64,12.06c-3.75,1.53-7.5,3.07-11.25,4.6c-5.25,0.34-10.58,2.09-15.62-0.97
	c-1.05-1.53-2.55-2.93-3.07-4.62c-2.55-8.32-8.86-12.42-16.42-15.24c-2.74-2.02-5.5-4.01-8.2-6.08c-2.75-2.1-4.03-4.99-4.37-8.39
	c-0.62-6.22,1.69-8.85,8.04-9.1c5.63-0.21,11.22,1.52,16.88,0.45C132.31,433.29,134.69,433.45,136.94,432.33z"/>
<path class="st283" d="M117.57,456.16c7.56,2.83,13.87,6.93,16.42,15.24c0.52,1.69,2.02,3.09,3.07,4.62
	c-4.04,3.59-6.06,8.61-8.78,13.06c-4.21,6.88-3.83,7.12-9.87,3.3c-0.13-0.08-0.33-0.07-0.5-0.1c0.22-2.36,0.65-4.71,0.01-7.09
	c-0.86-3.18,0.01-5.83,2.01-8.52c4.46-6.03,3.61-10.53-2.42-15.18C117.53,459.71,117.55,457.94,117.57,456.16z"/>
<path class="st283" d="M182.56,460.33c3.37-7.71,1.52-11.99-7.17-16.56c3.47-6.83,6.94-13.67,10.4-20.5
	c2.96,3.94,2.43,9.21,5.05,13.27c2.23,4.14,2.04,8.85,3.13,13.26c0.5,2.02,0.14,4.62,3,5.36c-1.39,10.16-0.08,20.89-6.55,30.22
	C190.89,475.95,185.61,468.5,182.56,460.33z"/>
<path class="st283" d="M152.68,476.99c3.75-1.53,7.5-3.07,11.25-4.6c-0.28,4.31,0.88,8.73-1.02,12.92c-6.49-0.7-3.71,5.48-5.95,8.03
	c-1.65-0.22-1.77-1.74-2.37-2.84C156.31,485.66,152.3,481.63,152.68,476.99z"/>
<path class="st326" d="M286.92,501.45c0.16-0.57,0.48-0.8,1.04-0.48C287.61,501.13,287.27,501.29,286.92,501.45z"/>
<path class="st326" d="M271.42,488.33c-0.19,0.12-0.37,0.25-0.56,0.37c0.13-0.18,0.27-0.36,0.4-0.53
	C271.26,488.17,271.42,488.33,271.42,488.33z"/>
<path class="st323" d="M261.01,476.85c0.35-0.32,0.69-0.64,1.04-0.96C261.7,476.22,261.35,476.53,261.01,476.85z"/>
<path class="st283" d="M152.68,476.99c-0.37,4.64,3.63,8.66,1.9,13.49c-3.01-3.22-5.28-7.25-9.93-8.6c-3.6-1.05-7.2-1.86-9.86,1.69
	c-2.76,3.68-0.7,6.87,1.59,9.77c1.8,2.28,3.98,4.27,5.87,6.49c1.91,2.25,1.56,3.69-1.64,3.84c-1.72,0.08-3.44,0.1-5.14,0.29
	c-5,0.55-7.12,2.79-6.44,6.69c0.81,4.65,5.07,7.43,9.56,6c3.06-0.97,6.01-2.33,9.26-3.61c0.97,3.42-1.63,6.29-0.35,9.25
	c-6.89-3.78-14.66-3.81-22.12-4.77c-5.68-0.73-10.71,1.64-14,6.76c-1.61-4-3.56-7.7-8.05-9.17c1.44-0.9,2.49-2.52,1.8-3.84
	c-2.37-4.49,0.79-6.13,3.72-7.76c4.58-2.56,6.95-6.77,9.07-11.25c0.17,0.03,0.36,0.01,0.5,0.1c6.04,3.81,5.66,3.58,9.87-3.3
	c2.72-4.44,4.74-9.47,8.78-13.06C142.1,479.09,147.43,477.34,152.68,476.99z"/>
</svg>
