<?xml version="1.0" encoding="utf-8"?>
<!-- Generator: Adobe Illustrator 24.2.3, SVG Export Plug-In . SVG Version: 6.00 Build 0)  -->
<svg version="1.1" id="Слой_1" xmlns="http://www.w3.org/2000/svg" xmlns:xlink="http://www.w3.org/1999/xlink" x="0px" y="0px"
	 viewBox="0 0 585 954" style="enable-background:new 0 0 585 954;" xml:space="preserve">
<style type="text/css">
	.st0{fill:#000600;}
	.st1{clip-path:url(#SVGID_2_);fill:#D670E1;}
	.st2{clip-path:url(#SVGID_2_);fill:#E7B3EE;}
	.st3{clip-path:url(#SVGID_2_);fill:#8C9295;}
	.st4{clip-path:url(#SVGID_2_);fill:#921C9F;}
	.st5{clip-path:url(#SVGID_2_);fill:#CDD0D3;}
	.st6{clip-path:url(#SVGID_2_);fill:#DFDBD1;}
	.st7{clip-path:url(#SVGID_2_);fill:#543F31;}
	.st8{clip-path:url(#SVGID_2_);fill:#C38A75;}
	.st9{clip-path:url(#SVGID_2_);fill:#B3B9BC;}
	.st10{clip-path:url(#SVGID_2_);fill:#8B9295;}
	.st11{clip-path:url(#SVGID_2_);fill:#D59C87;}
	.st12{fill:#E7B3EE;}
	.st13{clip-path:url(#SVGID_4_);}
	.st14{fill:#E097E9;}
	.st15{fill:#D670E1;}
	.st16{clip-path:url(#SVGID_6_);fill:#FFE406;}
	.st17{opacity:0.5;clip-path:url(#SVGID_6_);}
	.st18{fill:#A2C9FF;}
	.st19{fill:#FF8B00;}
	.st20{clip-path:url(#SVGID_6_);fill:#FFECA0;}
	.st21{clip-path:url(#SVGID_6_);}
	.st22{fill:#FFCB33;}
	.st23{fill:#FFECA0;}
	.st24{fill:#2A356B;}
	.st25{clip-path:url(#SVGID_6_);fill:#FFCB33;}
	.st26{clip-path:url(#SVGID_6_);fill:#A2C9FF;}
	.st27{clip-path:url(#SVGID_6_);fill:#FF8B00;}
	.st28{clip-path:url(#SVGID_6_);fill:#2A356B;}
	.st29{fill:#1B254E;}
	.st30{clip-path:url(#SVGID_6_);fill:#C22C28;}
	.st31{clip-path:url(#SVGID_6_);fill:#FF7400;}
	.st32{fill:#FFE406;}
	.st33{clip-path:url(#SVGID_6_);fill:#FFEF6E;}
	.st34{clip-path:url(#SVGID_8_);fill:#FFE473;}
	.st35{fill:#FFFFFF;}
	.st36{fill:#ACD7C2;}
	.st37{fill:none;stroke:#FFFFFF;stroke-miterlimit:10;}
	.st38{fill:#A1CAAA;}
	.st39{fill:#95CCA0;}
	.st40{opacity:0.76;}
	.st41{fill:#C3E8CC;}
	.st42{fill:url(#SVGID_9_);}
	.st43{fill:url(#SVGID_10_);}
	.st44{fill:url(#SVGID_11_);}
	.st45{fill:#F5E5BD;}
	.st46{fill:url(#SVGID_12_);}
	.st47{fill:url(#SVGID_13_);}
	.st48{fill:url(#SVGID_14_);}
	.st49{fill:url(#SVGID_15_);}
	.st50{fill:url(#SVGID_16_);}
	.st51{fill:url(#SVGID_17_);}
	.st52{fill:#E3EDC3;}
	.st53{fill:#EEFAD1;}
	.st54{fill:url(#SVGID_18_);}
	.st55{fill:url(#SVGID_19_);}
	.st56{fill:url(#SVGID_20_);}
	.st57{fill:url(#SVGID_21_);}
	.st58{fill:url(#SVGID_22_);}
	.st59{fill:#FFE392;}
	.st60{clip-path:url(#SVGID_24_);fill:url(#SVGID_25_);}
	.st61{fill:#5B2A1E;}
	.st62{fill:#8F7673;}
	.st63{fill:url(#SVGID_26_);}
	.st64{fill:url(#SVGID_27_);}
	.st65{fill:url(#SVGID_28_);}
	.st66{fill:url(#SVGID_29_);}
	.st67{fill:#FF8A8A;}
	.st68{fill:url(#SVGID_30_);}
	.st69{fill:#FF963A;}
	.st70{opacity:0.75;fill:#FFFFFF;}
	.st71{fill:#FFC181;}
	.st72{fill:none;}
	.st73{clip-path:url(#SVGID_32_);fill:#FFDFBD;}
	.st74{clip-path:url(#SVGID_32_);fill:#FF9D00;}
	.st75{clip-path:url(#SVGID_32_);fill:#FFF3DF;}
	.st76{clip-path:url(#SVGID_34_);fill:#FFBAE4;}
	.st77{opacity:0.8;clip-path:url(#SVGID_34_);fill:#FE82C8;}
	.st78{clip-path:url(#SVGID_34_);fill:#FE82C8;}
	.st79{opacity:0.79;clip-path:url(#SVGID_34_);fill:#FFBAE4;}
	.st80{fill:url(#SVGID_35_);}
	.st81{fill:#FFFEEA;}
	.st82{fill:#58D196;}
	.st83{fill:#A6E5C3;}
	.st84{fill:#D2F2E1;}
	.st85{opacity:0.44;fill:#FFFFFF;}
	.st86{clip-path:url(#SVGID_37_);fill:#FFF9C1;}
	.st87{fill:url(#SVGID_38_);}
	.st88{fill:url(#SVGID_39_);}
	.st89{opacity:0.86;fill:#FFCCD5;}
	.st90{fill:url(#SVGID_40_);}
	.st91{opacity:0.66;}
	.st92{opacity:0.37;fill:#FFFFFF;}
	.st93{opacity:0.4;}
	.st94{opacity:0.26;fill:#FFFFFF;}
	.st95{opacity:0.62;fill:#FFFFFF;}
	.st96{opacity:0.41;fill:#FFFFFF;}
	.st97{opacity:0.69;fill:#FFFFFF;}
	.st98{opacity:0.73;fill:#FFFFFF;}
	.st99{opacity:0.16;fill:#FFFFFF;}
	.st100{opacity:0.3;fill:#FFFFFF;}
	.st101{opacity:0.23;fill:#FFFFFF;}
	.st102{opacity:0.24;fill:#FFFFFF;}
	.st103{opacity:0.43;fill:#FFFFFF;}
	.st104{opacity:0.76;fill:#FFFFFF;}
	.st105{opacity:0.08;fill:#FFFFFF;}
	.st106{opacity:0.27;fill:#FFFFFF;}
	.st107{opacity:0.46;}
	.st108{opacity:0.86;fill:#FFFFFF;}
	.st109{opacity:0.54;fill:#FFFFFF;}
	.st110{opacity:0.28;}
	.st111{clip-path:url(#SVGID_42_);fill:#FF6567;}
	.st112{clip-path:url(#SVGID_42_);fill:#FF8A8A;}
	.st113{clip-path:url(#SVGID_42_);fill:#FFC2C1;}
	.st114{clip-path:url(#SVGID_42_);fill:#FFFFFF;}
	.st115{clip-path:url(#SVGID_44_);fill:#E2E9FF;}
	.st116{clip-path:url(#SVGID_44_);fill:#EEF2FF;}
	.st117{opacity:0.54;clip-path:url(#SVGID_44_);fill:#EEF2FF;}
	.st118{opacity:0.54;clip-path:url(#SVGID_44_);fill:#8FAAF0;}
	.st119{clip-path:url(#SVGID_46_);}
	.st120{fill:#FF6B81;}
	.st121{clip-path:url(#SVGID_46_);fill:none;}
	.st122{fill:none;stroke:#FFFFFF;stroke-width:2;stroke-miterlimit:10;}
	.st123{opacity:0.45;fill:#FFFFFF;}
	.st124{opacity:0.8;fill:#FFFFFF;}
	.st125{opacity:0.79;fill:#FFFFFF;}
	.st126{fill:#F1C4A9;}
	.st127{fill:none;stroke:#FFFFFF;stroke-width:0.75;stroke-miterlimit:10;}
	.st128{fill:#FFFFFF;stroke:#FFFFFF;stroke-width:0.25;stroke-miterlimit:10;}
	.st129{fill:#0071C5;}
	.st130{fill:#00ABF0;}
	.st131{fill:#31C5F8;}
	.st132{fill:#57CAF9;}
	.st133{fill:#83D5FB;}
	.st134{fill:#F787A5;}
	.st135{fill:#91693D;}
	.st136{fill:#FBBACC;}
	.st137{fill:#E6678D;}
	.st138{fill:#574435;}
	.st139{fill:#C8A37C;}
	.st140{fill:#641F1E;}
	.st141{fill:#F15E89;}
	.st142{fill:#E7005E;}
	.st143{fill:#DDB689;}
	.st144{fill:#FF1B6F;}
	.st145{fill:#DEB689;}
	.st146{fill:#F2769B;}
	.st147{fill:#FAFAF8;}
	.st148{fill:#F7C3DB;}
	.st149{fill:#E3B9B4;}
	.st150{fill:#FFB9C3;}
	.st151{fill:#FFC5D6;}
	.st152{fill:#D72264;}
	.st153{fill:#F7F7F7;}
	.st154{fill:#F2F2F2;}
	.st155{fill:#FFFBF0;}
	.st156{fill:#FFBFCF;}
	.st157{fill:#FF6794;}
	.st158{fill:#FFC2C1;}
	.st159{fill:#FFCCD5;}
	.st160{fill:#B39D8E;}
	.st161{fill:#FFE2EA;}
	.st162{fill:#F1F1F1;}
	.st163{fill:#FF9DAE;}
	.st164{fill:#A2C4DB;}
	.st165{fill:#583B34;}
	.st166{fill:#B1CFE4;}
	.st167{fill:#FBFBFA;}
	.st168{fill:#E0CFC7;}
	.st169{fill:#D9946B;}
	.st170{fill:#FFE9F2;}
	.st171{fill:#FFDBE5;}
	.st172{fill:#F2CCC1;}
	.st173{fill:#DF4E50;}
	.st174{fill:#00C377;}
	.st175{fill:#87E4AE;}
	.st176{fill:#00B45A;}
	.st177{fill:#7FD9A9;}
	.st178{fill:#F1BB3A;}
	.st179{fill:#B89E65;}
	.st180{fill:#97D183;}
	.st181{fill:#3C3724;}
	.st182{fill:#D5BDA1;}
	.st183{fill:#9B8174;}
	.st184{fill:#587147;}
	.st185{fill:#E6D5BD;}
	.st186{fill:#5CC588;}
	.st187{clip-path:url(#SVGID_54_);fill:#A6E5C3;}
	.st188{clip-path:url(#SVGID_54_);fill:#FFFFFF;}
	.st189{clip-path:url(#SVGID_54_);fill:#58D196;}
	.st190{fill:#FFEF6E;}
	.st191{fill:#FFE200;}
	.st192{clip-path:url(#SVGID_56_);fill:#FDA157;}
	.st193{clip-path:url(#SVGID_56_);fill-rule:evenodd;clip-rule:evenodd;fill:#FF8429;}
	.st194{clip-path:url(#SVGID_56_);fill:#F35000;}
	.st195{clip-path:url(#SVGID_56_);fill:#F8B846;}
	.st196{fill:#F35000;}
	.st197{fill:#FF8429;}
	.st198{fill:#FFAB33;}
	.st199{fill:#E46D00;}
	.st200{fill:#EE6406;}
	.st201{fill:#FF9B00;}
	.st202{fill:#130077;}
	.st203{fill:#FFB58D;}
	.st204{opacity:0.3;}
	.st205{fill:#FF7300;}
	.st206{fill:#6E0000;}
	.st207{fill-rule:evenodd;clip-rule:evenodd;fill:#FF9B00;}
	.st208{fill-rule:evenodd;clip-rule:evenodd;fill:url(#SVGID_57_);}
	.st209{opacity:0.3;fill-rule:evenodd;clip-rule:evenodd;fill:#A3002C;}
	.st210{fill-rule:evenodd;clip-rule:evenodd;fill:url(#SVGID_58_);}
	.st211{fill-rule:evenodd;clip-rule:evenodd;fill:url(#SVGID_59_);}
	.st212{opacity:0.5;fill-rule:evenodd;clip-rule:evenodd;fill:url(#SVGID_60_);}
	.st213{fill-rule:evenodd;clip-rule:evenodd;fill:#FFC384;}
	.st214{fill-rule:evenodd;clip-rule:evenodd;fill:url(#SVGID_61_);}
	.st215{fill-rule:evenodd;clip-rule:evenodd;fill:url(#SVGID_62_);}
	.st216{fill-rule:evenodd;clip-rule:evenodd;fill:url(#SVGID_63_);}
	.st217{opacity:0.5;fill-rule:evenodd;clip-rule:evenodd;fill:url(#SVGID_64_);}
	.st218{fill-rule:evenodd;clip-rule:evenodd;fill:#FDA157;}
	.st219{opacity:0.5;fill-rule:evenodd;clip-rule:evenodd;fill:#FDA157;}
	.st220{fill-rule:evenodd;clip-rule:evenodd;fill:#FF8429;}
	.st221{fill-rule:evenodd;clip-rule:evenodd;fill:#FFAB33;}
	.st222{opacity:0.62;fill-rule:evenodd;clip-rule:evenodd;fill:#C7002A;}
	.st223{opacity:0.5;fill-rule:evenodd;clip-rule:evenodd;fill:#FF8429;}
	.st224{opacity:0.5;fill-rule:evenodd;clip-rule:evenodd;fill:#8E5472;}
	.st225{opacity:0.3;fill-rule:evenodd;clip-rule:evenodd;fill:url(#SVGID_65_);}
	.st226{opacity:0.5;fill-rule:evenodd;clip-rule:evenodd;fill:url(#SVGID_66_);}
	.st227{opacity:0.3;fill-rule:evenodd;clip-rule:evenodd;fill:url(#SVGID_67_);}
	.st228{opacity:0.3;fill-rule:evenodd;clip-rule:evenodd;fill:url(#SVGID_68_);}
	.st229{clip-path:url(#SVGID_70_);}
	.st230{clip-path:url(#SVGID_70_);fill:#FF8429;}
	.st231{fill:#FDA157;}
	.st232{clip-path:url(#SVGID_72_);}
	.st233{fill:#F58800;}
	.st234{clip-path:url(#SVGID_74_);}
	.st235{fill:#F8B846;}
	.st236{clip-path:url(#SVGID_76_);}
	.st237{clip-path:url(#SVGID_76_);fill:#FF8429;}
	.st238{fill-rule:evenodd;clip-rule:evenodd;fill:url(#SVGID_77_);}
	.st239{fill-rule:evenodd;clip-rule:evenodd;fill:url(#SVGID_78_);}
	.st240{fill-rule:evenodd;clip-rule:evenodd;fill:url(#SVGID_79_);}
	.st241{opacity:0.5;fill-rule:evenodd;clip-rule:evenodd;fill:url(#SVGID_80_);}
	.st242{fill-rule:evenodd;clip-rule:evenodd;fill:url(#SVGID_81_);}
	.st243{fill-rule:evenodd;clip-rule:evenodd;fill:url(#SVGID_82_);}
	.st244{fill-rule:evenodd;clip-rule:evenodd;fill:url(#SVGID_83_);}
	.st245{opacity:0.5;fill-rule:evenodd;clip-rule:evenodd;fill:url(#SVGID_84_);}
	.st246{opacity:0.3;fill-rule:evenodd;clip-rule:evenodd;fill:url(#SVGID_85_);}
	.st247{opacity:0.5;fill-rule:evenodd;clip-rule:evenodd;fill:url(#SVGID_86_);}
	.st248{opacity:0.3;fill-rule:evenodd;clip-rule:evenodd;fill:url(#SVGID_87_);}
	.st249{opacity:0.3;fill-rule:evenodd;clip-rule:evenodd;fill:url(#SVGID_88_);}
	.st250{opacity:0.88;fill:#FFFEF3;}
	.st251{fill:#FFCF66;}
	.st252{fill:#AFABAC;}
	.st253{fill:#FFE473;}
	.st254{fill:#FFE787;}
	.st255{fill:#F6C700;}
	.st256{fill:#FFEA96;}
	.st257{clip-path:url(#SVGID_90_);fill:#FFCB33;}
	.st258{clip-path:url(#SVGID_90_);fill:#FFE406;}
	.st259{clip-path:url(#SVGID_92_);fill:#921C9F;}
	.st260{opacity:0.5;clip-path:url(#SVGID_92_);}
	.st261{fill:#921C9F;}
	.st262{clip-path:url(#SVGID_92_);}
	.st263{clip-path:url(#SVGID_94_);fill:#E097E9;}
	.st264{fill:#CC37D8;}
	.st265{opacity:0.5;fill:#FFFFFF;}
	.st266{opacity:0.5;fill:#FFFFFF;stroke:#FFFFFF;stroke-miterlimit:10;}
	.st267{opacity:0.68;fill:#FFFFFF;}
	.st268{fill:#F0C6F4;}
	.st269{fill:#D9A2E1;}
	.st270{fill:#AA7B41;}
	.st271{fill:#8C9295;}
	.st272{fill:#CDD0D3;}
	.st273{fill:#DFDBD1;}
	.st274{fill:#543F31;}
	.st275{fill:#C38A75;}
	.st276{fill:#B3B9BC;}
	.st277{fill:#8B9295;}
	.st278{fill:#D59C87;}
	.st279{fill:#F92405;}
	.st280{fill:#B30000;}
	.st281{fill:#FA3C20;}
	.st282{fill:#E2A080;}
	.st283{fill:#950000;}
	.st284{fill:#F50000;}
	.st285{clip-path:url(#SVGID_96_);fill:#F787A5;}
	.st286{clip-path:url(#SVGID_96_);fill:#FFE9F2;}
	.st287{clip-path:url(#SVGID_96_);fill:#D3CFB3;}
	.st288{clip-path:url(#SVGID_96_);fill:#FFDBE5;}
	.st289{clip-path:url(#SVGID_96_);}
	.st290{clip-path:url(#SVGID_96_);fill:#FFC5D6;}
	.st291{fill:#FA90B4;}
	.st292{fill:#BCA494;}
	.st293{fill:#63443C;}
	.st294{fill:#CFABA0;}
	.st295{fill:#A1C3DA;}
	.st296{fill:#9B7972;}
	.st297{fill:#77573F;}
	.st298{fill-rule:evenodd;clip-rule:evenodd;fill:#FA3C20;}
	.st299{fill-rule:evenodd;clip-rule:evenodd;fill:#D00707;}
	.st300{fill-rule:evenodd;clip-rule:evenodd;fill:#F92405;}
	.st301{fill-rule:evenodd;clip-rule:evenodd;fill:#F50000;}
	.st302{fill-rule:evenodd;clip-rule:evenodd;fill:#F95F53;}
	.st303{fill:#F95F53;}
	.st304{clip-path:url(#SVGID_98_);fill:#574435;}
	.st305{clip-path:url(#SVGID_98_);fill:#C8A37C;}
	.st306{clip-path:url(#SVGID_98_);fill:#91693D;}
	.st307{clip-path:url(#SVGID_98_);fill:#D00707;}
	.st308{clip-path:url(#SVGID_98_);fill:#FA3C20;}
	.st309{clip-path:url(#SVGID_98_);fill:#950000;}
	.st310{clip-path:url(#SVGID_98_);fill:#F95F53;}
	.st311{clip-path:url(#SVGID_98_);fill:#131212;}
	.st312{clip-path:url(#SVGID_98_);fill:#B30000;}
	.st313{clip-path:url(#SVGID_98_);fill:#412A1A;}
	.st314{clip-path:url(#SVGID_98_);fill:#DEC6AF;}
	.st315{clip-path:url(#SVGID_98_);fill:#BF855C;}
	.st316{fill:#D00707;}
	.st317{fill:#AB9DB8;}
	.st318{fill:#381A12;}
	.st319{fill:#EBCBB8;}
	.st320{fill:#AC9EBB;}
	.st321{fill:#F8F6F5;}
	.st322{fill:#0A345E;}
	.st323{fill:#412A1A;}
	.st324{fill:#131212;}
	.st325{fill:#DEC6AF;}
	.st326{fill:#BF855C;}
</style>
<path class="st280" d="M88.98,953.56c-3.52-33.66-1.61-60.48,0.71-78.51c0,0,5.99-53.66,13.79-148.66
	c1.39-16.88-12.65-13.48-20.35-10.91c-17.56,5.87-34.31,3.2-50.52-2.05C13,707.08,0.24,695.67,0.25,671.28
	c0.01-33.07,8.48-64.91,9.96-97.6c0.3-6.6,5.65-10.24,9.11-15.01c5.3-7.31,12.78-16.64,7.08-24.32
	c-12.79-17.23,1.15-23.77,10.4-32.28c4.86-4.46,10.98-7.16,14.5-13.52c7.81-14.1,20.13-19.27,35.96-15.79
	c-2.52,9.64-7.62,17.81-14.86,24.5c-22.84,21.1-12.49,34.8,14.42,43.77c24.09,8.03,38.62-3.63,42.16-27.84
	c1.86-12.69,0.53-27.57,14.62-35.6c1.73,7.18,1.62,15.61,5.5,21.33c16.62,24.47,17.74,51.37,15.49,79.32
	c-1.32,16.34-0.83,32.84-2.56,49.12c-1.95,18.37-4.25,26.85,0.8,32.24c8.24,8.79,29.09,2.14,40.51-2.37
	c5.78-4.14,13.99-10.27,23.4-18.2c28.11-23.68,55.66-46.9,69.54-81.02c5.34-13.12,14.01-41.02,5.95-81.26
	c23.8,30.79,17.34,70.97,32.75,106.82c8.33-17.16,18.5-31.14,34.32-38.18c22.47-10,23.62-24.96,13.62-44.14
	c6.5-0.47,11.13-3.75,14.23-9.39c17.96-32.66,35.7-65.43,38.04-103.78c0.5-8.14-0.78-16.9,10.48-18.94
	c22.77,0.72,45.75,1.48,66.75,11.14c10.23,4.71,13.93-1,18.76-7.04l-0.46-0.34c1.11,2.89,2.23,5.77,3.34,8.66
	c35.72,41.52,45.39,91.37,46.21,144.09c0.12,7.55-0.14,15.04-3.72,21.8c-26.51,50.08-33.93,107.23-58.63,157.97
	c-2.24,4.59-3.84,10.37-7.55,13.23c-7.59,5.85-12.77,12.17-16.2,18.92c-9.3,18.33-4.46,49.05-2.84,55.42
	c6.32,24.84,3.8,70.2-32.07,159.84C335.83,953.06,212.41,953.31,88.98,953.56z"/>
<path class="st281" d="M191.17,261.88c-11.83-3.74-12.83-12.35-11.42-23.07c2.42-18.45,4.1-37,5.72-55.54
	c1.26-14.37,4.47-27.46,14.56-38.89c5.16-5.84,9.55-14.37,10.05-21.96c2.7-40.38,29.77-68.21,49.75-99.65
	c9.75-15.35,22.36-15.02,38.77-8.57c44.93,17.68,74.23,49.78,93.3,92.92c2.97,6.73,6.86,13.59,11.97,18.76
	c22.59,22.85,28.59,50.19,24.43,81.04c-1.69,12.52-2.09,24.99,6.15,36.4c8.01,11.1-3.35,18.23-7.13,26.86
	c-1.4-0.03-2.79-0.08-4.18-0.15c-1.09-6.14-5.01-8.13-10.96-8.74c-26.53-2.7-52.96-6.56-79.53-8.5
	c-23.93-1.75-47.49-9.49-71.84-4.97C235.09,240.14,210.16,236.32,191.17,261.88z"/>
<path class="st303" d="M143.61,477.58c-14.08,8.03-12.76,22.91-14.62,35.6c-3.54,24.2-18.06,35.87-42.16,27.84
	c-26.91-8.97-37.26-22.67-14.42-43.77c7.24-6.69,12.34-14.86,14.86-24.5c22.42-31.67,22.49-66.18,12.97-101.92
	c-4.7-17.64-12.33-35.25,0.68-52.77c4.87-6.55,1.02-12.5-2.08-18.56c-11.24-21.92-6.53-30.59,18.01-33.05
	c12.94-1.29,24.93,2.8,36.71,7.55c8.1,14.03-10.18,11.62-13.05,18.66c6.29,6.84,14.45,6.15,21.15,9
	c8.32,3.54,12.07,10.19,9.54,17.83c-6.35,19.16,4.97,31.84,14.15,45.92c15.05,23.07,39.63,16.67,60.8,20.07
	c12.33,1.98,27.54,3.59,33.49-10.61c5.69-13.57,2.48-28.18-8.63-39.21c-7.41-7.35-11.08-15.68-10.54-25.97
	c0.32-6.14,2.53-11.4,9.31-6.62c10.23,7.2,24.4,13.83,28.28,23.99c9.2,24.08,28.13,43.86,27.93,72.67
	c-0.13,18.69,7.93,37.75,14.02,56.08c7.1,21.39,21.47,37,42.9,45.41c10,19.19,8.86,34.15-13.62,44.14
	c-15.82,7.04-25.99,21.02-34.32,38.18c-15.4-35.85-8.95-76.03-32.75-106.82c-1.98-2.22-3.53-5.26-6-6.53
	c-34.98-17.92-73.49-29.16-103.51-56.55c-6.23-5.69-20.6-3.97-22.39,1.61C163.4,437.03,142.7,452.78,143.61,477.58z"/>
<path class="st283" d="M382.93,501.24c-21.42-8.41-35.8-24.03-42.9-45.41c-6.08-18.33-14.14-37.39-14.02-56.08
	c0.19-28.8-18.73-48.59-27.93-72.67c-3.88-10.16-18.06-16.79-28.28-23.99c-6.79-4.78-8.99,0.47-9.31,6.62
	c-0.54,10.29,3.13,18.62,10.54,25.97c11.11,11.03,14.31,25.64,8.63,39.21c-5.95,14.2-21.17,12.59-33.49,10.61
	c-21.18-3.4-45.76,3-60.8-20.07c-9.18-14.08-20.51-26.76-14.15-45.92c2.53-7.63-1.22-14.29-9.54-17.83c-6.7-2.85-14.86-2.16-21.15-9
	c2.87-7.03,21.15-4.62,13.05-18.66c9.33-13.95,26-5.19,37.6-12.14c19-25.55,43.93-21.74,69.64-14.06
	c6.51,9.06,12.24,19.34,24.09,22.2c26.96,6.52,37.79,26.51,44.81,50.73c5.89,20.34,6.2,41.23,8.57,61.95
	c0.84,7.36-2.93,17.25,8.12,20.91c0.04,3.32,0.08,6.64,0.11,9.95c-4.35,27.94,10.85,49.25,25.05,70.38
	c6.46,9.6,12.76,5.43,18.2-3.76c18.74-31.64,33-64.52,33.13-102.1c-0.26-32.31-0.51-64.61-0.77-96.92
	c0.34-3.71,0.68-7.43,1.01-11.14c1.39,0.07,2.79,0.12,4.18,0.15c3.34,5.32,6.67,10.64,10.01,15.96c0.23,27.92-4.98,56.39,8.35,82.99
	c-11.25,2.04-9.98,10.79-10.48,18.94c-2.34,38.35-20.08,71.12-38.04,103.78C394.06,497.48,389.43,500.76,382.93,501.24z
	 M180.57,321.41c-0.35,27.64,12.92,46.85,32.7,47.34c19.88,0.49,38.93-19.03,39.11-40.07c0.17-20.29-19.27-44.4-36.17-44.86
	C197.19,283.31,180.83,300.57,180.57,321.41z"/>
<path class="st284" d="M445.67,369.13c-13.33-26.6-8.12-55.07-8.35-82.99c17.72,20.76,41.6,32.75,64.66,46.1
	c15.59,9.02,29.59,20.14,29.19,40.98c-4.83,6.04-8.53,11.75-18.76,7.04C491.42,370.61,468.44,369.85,445.67,369.13z"/>
<path class="st284" d="M143.61,477.58c-0.91-24.8,19.79-40.56,26.74-62.31c1.78-5.58,16.15-7.29,22.39-1.61
	c30.02,27.39,68.53,38.62,103.51,56.55c2.47,1.26,4.02,4.31,6,6.53c4.08,27.72-6.13,54.89-5.95,81.27
	c0.31,46.35-30.41,75.79-47.62,112.41c-9.55,20.32-20.07,40.85-40.09,53.8c-5.84-15.9,5.93-34.71-8.04-50.31
	c-5.73,15.29,8.8,34.49-10.96,45.25c-20.52-27.2-31.22-57.17-27.55-91.79c1.73-16.28,1.24-32.78,2.56-49.12
	c2.25-27.95,1.12-54.86-15.49-79.32C145.23,493.19,145.34,484.77,143.61,477.58z"/>
<path class="st303" d="M423.13,270.02c-0.34,3.71-0.68,7.43-1.01,11.15c-2.57,25.45-34.81,29.8-38.15,57.32
	c-3.04,25.02-24.22,43.73-37.58,65.12c-11.05-3.66-7.28-13.55-8.12-20.91c-2.37-20.72-2.67-41.61-8.57-61.95
	c-7.02-24.23-17.84-44.22-44.81-50.73c-11.84-2.86-17.58-13.14-24.09-22.2c24.35-4.52,47.91,3.22,71.84,4.97
	c26.57,1.94,53,5.8,79.53,8.5C418.12,261.89,422.04,263.89,423.13,270.02z"/>
<path class="st280" d="M422.88,378.08c-0.13,37.58-14.39,70.47-33.13,102.1c-5.44,9.19-11.75,13.36-18.2,3.76
	c-14.2-21.12-29.4-42.44-25.05-70.38c12.81-1.85,22.43-10.35,33.36-16.08C393.83,390.17,405.57,377.96,422.88,378.08z"/>
<path class="st281" d="M180.57,321.41c0.26-20.84,16.63-38.1,35.64-37.59c16.9,0.46,36.34,24.57,36.17,44.86
	c-0.18,21.04-19.23,40.55-39.11,40.07C193.48,368.27,180.22,349.06,180.57,321.41z"/>
<path class="st284" d="M422.88,378.08c-17.32-0.12-29.05,12.09-43.02,19.41c-10.94,5.73-20.55,14.23-33.36,16.08
	c-0.04-3.32-0.08-6.64-0.12-9.95c13.37-21.38,34.55-40.1,37.58-65.12c3.34-27.52,35.58-31.87,38.15-57.32
	C422.37,313.47,422.63,345.77,422.88,378.08z"/>
</svg>
