<svg version="1.1" id="Слой_1" xmlns="http://www.w3.org/2000/svg" x="0" y="0" viewBox="0 0 585.02 884.41" xml:space="preserve"><style>.st355{fill:#6dcfd1}</style><path d="M0 24c130.67 139.98 261.35 279.96 392.02 419.94L93 884.41H0V24z" fill="#55afb7"/><path d="M585 884.41c-.02-133-.03-266-.07-398.99-.01-24.36-.1-48.71-.15-73.07-5.24-.37-10.18-1.45-14-5.5-.63-.67-1.64-1.48-2.42-1.42-5.73.45-8.05-4.75-12.06-7.12-2.21-1.31-2.44-3.65-2.54-6.08-.13-3 1.01-6.18-1.02-8.97-9.79 39.82-27.83 76.17-47.02 112.04-.62 1.17-1.08 2.51-2.46 3.09-.34 5.05-4.24 8.39-6.42 12.48-7.26 13.57-15.38 26.68-23.92 41.27-10.04-23.82-19.57-46.46-29.11-69.1-3.84-7.56-3.8-7.5 3.57-12.75 2.91-2.07 5.6-4.43 8.38-6.64-1.56-1.63-1.99-3.53-1.95-5.8.34-16.78-.63-33.58.6-50.35.12-1.65-.32-3.69-1.42-4.08-1.58-.56-3.02 1.02-4.2 2.32-13.44 14.73-26.49 29.82-41.96 42.54-7.72 6.35-11.47 5.45-15.09-4.1-3.63-9.56-11.27-20.87-27.59-43.11-4.5-6.13-37.21-49.66-36.67-52.57.01-.07.14-.53-.06-1.01-.42-1.01-1.93-1.28-2.97-1.8-4.65-2.3-9.24-4.7-13.92-6.94-4.17-2-5.46-4.57-2.09-8.4 8.42-9.6 12.2-22.63 22.69-30.72 1.6-1.23 1.19-2.95-.02-4.03-2.67-2.38-5.24-4.95-9.26-5.2-12.31-.75-24.61-1.76-36.92-2.47-4.59-.27-9.07.07-13.53 2.02-5.92 2.59-12.25-.51-15.6-8.19-6.35-14.52-11.13-29.83-11.45-45.62-.24-12.13 2.7-20.64 19.08-22.5 7.5-.85 14.83-3.42 22.36-4.75 3.38-.6 4.83.45 6.33 3.2 4.58 8.39 9.31 16.68 15.87 23.78 4.08 4.42 9.17 7.96 14.85 7.92 9.18-.07 16.95 4.46 25.56 6.04 2.45.45 4.87 1.37 7.36 1.2 16.16-1.13 27.18 7.45 36.53 19.22 4.29 5.4 8.4 10.95 12.75 16.3 4.51 5.54 18.71 6.75 24.38 2.47 2.51-1.89 1.77-4.21 1.28-6.27-2.28-9.72-4.46-19.48-7.4-29.01-2.09-6.78-2.53-13.12.66-19.55 6.08-12.26 13.53-23.65 26.32-29.49 18.73-8.54 31.2-2.76 35.76 15.25 5.67 22.38 5.35 45.01-4.06 66.76-.51 1.19-1.26 2.27-1.9 3.4.35.29.8.74.85.69 5.22-4.12 9.58-2.41 14.01 1.59 1.62 1.46 4.12 1.93 6.22 2.85-3.58-13.29-2.49-26.81-1.86-40.29 1.4-29.51 1.45-59.03.09-88.54-2-21.36-3.39-43-11.7-63-11.54-27.74-27.41-52.35-54.09-68.4-7.49-4.51-13.61-11.23-22.08-14.3-7.45.59-14.93.93-22.19 2.99-10.87 4.6-22.53 5.18-34.24 6.05 7.44-2.42 14.87-4.83 22.31-7.25 5.3-2.53 5.14-6.14 2.04-10.33a.894.894 0 01-.57-.52c-.4-.01-.71-.18-.94-.5C362.48 1.3 345.57-.59 327.58.2c-21.34.94-41.01 8-60.94 14.2-19.1 5.93-34.38 17.95-47.68 32.6-2.4 2.64-5 4.62-8.34 5.92-14.69 5.67-27.7 14.41-39.88 24.08-6.25 4.96-11.5 11.43-17.47 16.95l.01.01c-.13 2.3-2.1 3.3-3.39 4.78l-.04.41-.4.12-4.49 5.63c-6.42 9.59-12.91 19.08-17.61 29.74-11.91 26.98-8.21 51.9 9.21 75.2 1.09.89 1.92 1.88 1.18 3.89-.87-1.07-1.6-1.96-2.32-2.85-13.1-11.5-18.32-26.56-19.56-43.42-.61-.41-1.22-.83-1.83-1.24-.72 32.08 19.11 58.44 50.32 66.31 4.67 1.18 6.95 3.23 7.48 7.87 1.65 14.65 4.72 29.09 6.11 43.82.6 6.33 1.99 12.85 3.52 19.19 3.14 13.02 13.57 17.32 24.69 20.69 2.67.81 5.49 1.05 7.68 3.01 6.22.02 8.31 4.65 9.55 9.4 2.49 9.53 2.91 19.42 4.09 29.17 1.25 10.33 2.15 20.7 3.27 31.04 1.3 12.04 6.88 17.84 18.97 16.62 9.4-.95 13.74 3.26 17.07 10.63 2.47 5.47 6.6 8.88 12.66 9.31 3.14.22 4.76 1.21 5.32 4.56.78 4.65 3.73 7.84 8.06 9.87 3.98 1.87 8.05 3.72 10.72 7.51.72 11.33-2.11 13.81-11.55 19.39-8.76 5.18-18.42 9.17-26.04 16.26-.54.5-1.45 1.26-1.88 1.09-4.58-1.75-6.84 2.38-10.11 3.87l-.27-2.44c-14.77 11.01-29.78 21.77-42.42 35.31-18.26 19.55-27.83 43.42-33.56 69.13-2.14 9.61-5.28 18.94-8.49 28.23-4.61 16.64-13.19 31.53-20.51 47-13.21 27.93-24.47 56.7-35.92 85.38-.28.7-.68 1.35-1.03 2.03-.3 2.18-.96 4.21-2.4 5.92-.55 1.43-1.08 2.87-1.61 4.32-10.96 30.26-18.25 67.82-15.5 113.51 164.24.04 328.5.11 492.75.19zM419.79 644.6c.7-21.79-.77-43.72 2.27-65.35 2.36-16.78 6.15-33.38 9.76-49.96 1.45-6.65 1.36-13.43 2.65-20.06.4-2.04.41-4.13 1.74-6.29 2.55 12.04 1.86 23.85 2.7 35.53 1.56 21.73 2.24 43.53 2.97 65.31.25 7.51-1.17 14.96-2.26 22.4-3.72 25.36-7.16 50.76-11.01 76.1-2.17 14.29-4.92 28.49-7.43 42.73-.12.69-.51 1.32-.93 2.38-1.34-2.25-.77-4.16-.77-5.97-.02-32.28-.72-64.58.31-96.82z" fill="#3fa5b0"/><path class="st355" d="M139.54 502.21c-.64-23.54-1.73-47.07-2.94-70.59-.65-12.66-1.21-25.35-7.01-37.18-10.94-22.3-37.32-40.89-65.69-27.41-16.04 7.62-25.73 20.84-30.82 37.67-3.47 11.46-2.86 23.32-3.54 35.04-1.04 18.11-1.09 36.29-2.6 54.36-1.41 16.93-1.02 33.84-1.26 50.75-.15 10.53 2.28 20.71 7.12 30.16 6.92 13.49 17.49 22.43 32.68 25.02 3.68.63 4.78 2.06 4.55 5.61-.55 8.46-.68 16.96-2.43 25.31.33 9.48-2.17 18.67-2.86 28.05-.57 7.85-1.62 15.69-1.66 23.53-.04 7.27 3.82 13.03 10.01 16.6 3.1 1.79 3.61 3.82 3.61 6.92-.01 8.84.24 17.68.38 26.51 1.25.13 2.14.53 2.76 1.12 1.59 1.51 1.43 4.06 1.4 4.69-.16 4.01.21 63.66.76 146.03h9c-.51-38.57-.82-77.15-.95-115.73-.06-18.12-.08-36.23-.06-54.34-.49-2.3-.45-4.6.02-6.9-.02-1.56-.03-3.12-.05-4.68-.29-.66-.08-1.11.57-1.37 10.21-5.12 12.62-14.28 12.56-24.61-.07-12.73-2.38-25.24-3.85-37.83-.4-3.42-1.16-6.83-.61-10.31-1.73-8.15-1.83-16.45-2.19-24.72-.11-2.6 1.22-3.18 3.38-3.6 23.88-4.64 35.14-20.64 39.59-43.31 3.6-18.32.63-36.54.13-54.79zM79.36 686.32c.09.15.19.31.28.46-.25.01-.51.01-.76.02-3.93-1.98-3.38-5.16-1.95-8.28 1.58-3.46 4.42-4.41 9.33-2.86-5.15 2.36-7.87 5.57-6.9 10.66z"/><path d="M455.75 463.19c-1.55-1.64-1.98-3.54-1.94-5.81.34-16.76-.63-33.55.6-50.3.12-1.65-.32-3.68-1.42-4.07-1.58-.56-3.02 1.02-4.2 2.31-13.44 14.71-26.49 29.79-41.96 42.5-7.72 6.34-11.47 5.44-15.09-4.1-.99-2.61-9.76-16.13-27.59-43.07-5.71-8.62-9-13.46-14.35-19.68-19.42-22.58-45.45-38.62-43.23-46.44.72-2.54 1.46-2.06 1.87-4.54 2.28-13.92-33.34-18.89-52.65-48.54-10.12-15.54-11.14-30.18-11.45-45.58-.24-12.12 2.7-20.62 19.08-22.48 7.5-.85 14.83-3.41 22.36-4.74 3.38-.6 4.83.45 6.33 3.2 4.58 8.38 9.31 16.67 15.87 23.76 4.08 4.42 9.17 7.95 14.85 7.91 9.18-.07 16.95 4.46 25.56 6.03 2.45.45 4.87 1.37 7.36 1.2 16.16-1.13 27.18 7.44 36.53 19.2 4.29 5.4 8.4 10.94 12.75 16.29 4.51 5.54 18.71 6.74 24.38 2.47 2.51-1.89 1.77-4.21 1.28-6.26-2.28-9.71-4.46-19.46-7.4-28.98-2.09-6.77-2.53-13.11.66-19.53 6.08-12.24 13.53-23.63 26.32-29.46 18.73-8.53 31.2-2.76 35.76 15.23 5.67 22.36 5.35 44.96-4.06 66.7-.51 1.19-1.26 2.27-1.9 3.4.35.29.8.74.85.69 5.22-4.12 9.58-2.41 14.01 1.58 1.62 1.46 4.12 1.93 6.22 2.85 4.11 10.97 10.48 20.71 17.32 30.03 6.53 8.9 13.11 17.85 21.16 25.54 2.49 3.98.65 7.62-.87 11.29-9.2 22.18-22.33 41.76-38.24 59.69-13.63 15.35-28.59 29.16-44.77 41.71z" fill="#2b747c"/><path class="st355" d="M551.96 356.35c-4.1-1.96-6.74-7.03-12.33-5.86 2.49 3.98.65 7.62-.87 11.29-9.2 22.18-22.33 41.76-38.24 59.69-13.63 15.36-28.59 29.16-44.76 41.7-2.78 2.21-5.48 4.57-8.38 6.64-7.37 5.24-7.41 5.19-3.57 12.73 9.54 22.62 19.08 45.23 29.11 69.03 8.55-14.57 16.67-27.66 23.92-41.22 2.18-4.08 6.08-7.42 6.42-12.46 1.38-.58 1.84-1.93 2.46-3.09 19.19-35.83 37.23-72.14 47.02-111.93.7-6.28 1.48-12.56 2.05-18.86.26-2.9-.03-5.79-2.83-7.66z"/><path d="M253.9 495.31l-.24.29.28-.25zM79.36 686.32c.09.15.19.31.28.46-.25.01-.51.01-.76.02.16-.16.31-.32.48-.48z" fill="#214181"/></svg>