<svg version="1.1" id="Слой_1" xmlns="http://www.w3.org/2000/svg" x="0" y="0" viewBox="0 0 585 896" xml:space="preserve"><style>.st140{fill:#55afb7}.st141{fill:#2ab3ba}.st142{fill:#00acbd}.st355{fill:#6dcfd1}.st356{fill:#2b747c}</style><path class="st141" d="M-.09 646.88V453.93c2.24-3.25 5.58-4.67 9.21-5.78 22.94-7.01 45.99-13.64 68.89-20.77 25.86-8.05 51.82-15.8 77.72-23.71 23.43-7.16 46.85-14.36 70.3-21.46 2.46-.74 5.06-1.03 7.58-1.53 2.64-.53 5.76-.28 7.02-3.9.49-1.39 2.77-1.02 4.26-1.35 14.32-3.92 28.35-8.76 42.5-13.21 30.62-9.64 61.17-19.46 91.72-29.3 39.42-12.7 78.91-25.17 118.34-37.87 26.12-8.41 52.26-16.75 78.41-25.08 2.9-.92 6.15-3.12 9.01.34v329.88c-1.34 1.51-2.91 2.34-5.02 2.62-12.46 1.63-25.02 2.06-37.52 3.17-23.64 2.11-47.35 3.51-70.95 6.06-1.02.11-2.08-.01-2.88.82-3.72 2.05-4.52-1.47-5.7-3.35-5.97-9.5-11.21-19.44-16.85-29.13a496.28 496.28 0 01-20.46-38.96c-3.04-6.47-7.6-9.24-14.64-9.21-18.64.09-37.29.05-55.94.02-11.36.03-22.85.92-34.04-.3-15.42-1.67-30.74.27-46.06-.78-17.51-1.93-35.1-.56-52.65-1-6.46-.16-10.39 2.76-13.46 8.42-4.85 8.94-8.85 18.36-14.84 26.69-1.2 1.66-.44 4.46-2.63 5.84-8.61 10.76-15.42 22.74-22.78 34.32-6.55 10.3-13.36 20.42-19.91 30.71-1.2 1.89-2.35 4.57-5.57 2.89-12.22.39-24.37 1.7-36.54 2.66-19.06 1.5-38.1 3.28-57.17 4.7-14.08 1.05-28.11 2.9-42.25 3.08-2.73.05-5.34-.07-7.1-2.58z"/><path class="st140" d="M467.65 611.63c1.96-2.38 4.78-2.64 7.51-2.87 33.98-2.85 67.97-5.67 101.96-8.45 2.57-.21 5.17-.08 7.75-.11 0 96.82-.03 193.64.1 290.46 0 3.55-.7 4.25-4.25 4.25-192.22-.11-384.45-.11-576.67 0-3.55 0-4.25-.7-4.25-4.25.13-81.26.1-162.52.1-243.78 22.15-.04 44.09-3.01 66.13-4.66 23.42-1.76 46.82-3.82 70.23-5.64 2.67-.21 5.56-.93 7.98 1.09 2.78 2.14.55 4-.47 5.72-7.29 12.27-15.14 24.19-22.86 36.2-2.6 4.05-5.28 8.05-7.69 12.22-1.62 2.81-.67 4.1 2.45 4.33 2.45.18 5.31-.79 7 2.07-.23 8.32 5.34 9.8 12.04 11.3 33.31 7.42 66.67 14.59 99.93 22.21 7.99 1.83 16.33 2.59 23.89 6.19 1.41.67 2.9.33 4.33-.16 1.16-.27 2.29-.73 3.51-.64 3.56 3.15 7.78 2.83 11.95 2.05 29.9-5.62 59.84-10.99 90.01-14.92 25.47-3.32 50.42-9.6 75.86-13.08 10.81-1.48 21.66-2.52 32.47-3.98 7.21-.97 14.3-2.55 21.45-3.81 1.14-.2 2.48-.35 2.6-1.97.26-4.26 3.6-4 6.43-4.16 9.1-.51 9.22-.54 4.3-8.43-10.85-17.4-21.67-34.82-32.17-52.43-1.5-2.51-4.27-4.02-5.04-6.99-1.43-4.48-4.04-8.34-6.49-12.28-1.1-1.83-2.17-3.61-.09-5.48z"/><path class="st142" d="M-.09 124.05V2.68C1.48.87 3.47 0 5.86.08c1.55.05 3.1 0 4.65 0C198.43.1 386.35.09 574.27.11c3.7 0 7.71-.91 10.61 2.57v121.37c-1.57 1.78-3.55 2.68-5.93 2.61-6.03-.18-12.09.42-18.1-.55-5.9-.95-11.71.54-17.57.54-163.11 0-326.22.12-489.33-.21-15.53-.03-31.04.96-46.57.22-2.82-.13-5.54-.13-7.47-2.61z"/><path class="st141" d="M-.09 124.05h584.97v97.51c-1.6 2.67-3.96 4.15-6.97 4.89-3.35.83-6.62 2-9.82 3.33-10.3 4.29-20.77 5.18-31.94 3.68-14.7-1.97-29.56-2.69-44.42-3.16-23.99-.77-47.97-2.4-71.98-1.92-28.48.58-56.95 1.52-85.42 2.81-20.53.93-41.05 2.1-61.53 3.57-20.66 1.49-41.31 3.29-61.93 5.43-27.15 2.82-54.28 5.8-81.35 9.18-22.1 2.76-44.17 5.88-66.19 9.29-18.44 2.86-36.92 5.41-55.29 8.75-3.03.55-6.03.61-8.14-2.3.01-47.01.01-94.03.01-141.06z"/><path class="st142" d="M-.09 265.13c11.48-.13 22.53-3.27 33.8-4.89 27.86-3.98 55.69-8.22 83.59-11.95 41.43-5.53 82.96-10.16 124.59-13.78 23.89-2.08 47.84-3.72 71.81-4.97 42.78-2.22 85.57-4.39 128.39-3.57 34.5.66 69.07 1.25 103.39 5.6 3.66.46 7.2.19 10.74-.95 9.53-3.07 19.1-6.05 28.66-9.06v48.76c-22.89 7.22-45.8 14.41-68.68 21.67C475.21 305 434.22 318 393.26 331.11c-38.66 12.37-77.27 24.88-115.91 37.29-10.52 3.38-21.09 6.61-31.64 9.92-12.52 4.08-25.28 2.12-37.91 1.16-15.83-1.2-31.69-1.68-47.52-2.78-21.5-1.49-43.03-2.73-64.55-3.84-19.81-1.02-39.59-2.58-59.4-3.54-10.68-.52-21.33-1.49-32-2.11-2.03-.12-3.16-1.3-4.43-2.49.01-33.2.01-66.39.01-99.59z"/><path class="st140" d="M-.09 364.72c21.57.17 43.03 2.46 64.56 3.48 21.01 1 41.99 2.51 62.98 3.78 27.36 1.66 54.72 3.35 82.09 4.93 12.05.7 24.09 1.7 36.18 1.41-7.62 4.3-16.21 5.86-24.43 8.41-35.28 10.92-70.58 21.74-105.92 32.47-24.27 7.37-48.61 14.49-72.9 21.78-14.21 4.26-28.38 8.64-42.57 12.96.01-29.75.01-59.48.01-89.22z"/><path d="M335.95 724.69c-2.08.35-4.15.7-6.23 1.04 2.44-3.02 5.76-3.19 10.37-2.85-1.98.86-3.06 1.34-4.14 1.81z" fill="#616161"/><path class="st355" d="M138.93 697.94c-1.46-2.45.38-4.31 1.27-6.22 17.43-37.49 34.91-74.96 52.38-112.43.96-1.84 1.84-3.72 2.89-5.49.83-1.39.58-3.98 2.76-3.87 1.64.08 1.84 2.3 2.41 3.69 4.56 11.01 9.06 22.05 13.61 33.07.94 2.27 1.38 4.62 1.57 7.05 2.32 5.77 1.05 11.82 1.35 17.74.62 12.42-.91 24.84.11 37.26.14 1.69-.55 3.18-2.58 3.44-7.86 3.48-16.2 5.73-24.13 9.11-5.38 2.3-9.55 5.52-10.68 11.62-.42 2.26-1.56 3.85-3.98 4.09-11.4 1.11-22.77 2.87-34.29 1.81-.99-.1-1.87-.32-2.69-.87z"/><path class="st355" d="M236.1 659.41c.29 3.14 4.39 5.79 1.21 9.37-.57 1.11-1.32 2.21-2.68 2.05-4.64-.52-9.22.97-13.85.36-.99-.38-2.07-.55-2.93-1.31-1.79-5.55-.83-11.22-.65-16.9.29-9.28-.13-18.58.15-27.87.07-2.54.59-4.05 3.44-3.71 4.13 13.06 10.16 25.36 15.31 38.01z"/><path class="st356" d="M214.37 602.92h4.88v128.01h-4.88z"/><path class="st355" d="M193.65 561.47c-29.67 45.92-59.33 91.84-89 137.76h17.07c25.6-43.08 51.2-86.15 76.8-129.23-1.62-2.84-3.25-5.68-4.87-8.53z"/><path class="st356" d="M202.18 562.69c-20.32 45.51-40.64 91.03-60.96 136.54 42.67 7.31 85.34 14.63 128.01 21.94l-3.66 24.38-149.95-36.57c28.86-48.76 57.71-97.52 86.56-146.29z"/><path class="st356" d="M193.65 561.47c23.98 61.36 47.95 122.72 71.93 184.09 87.37-15.04 174.74-30.07 262.11-45.11-34.14-56.89-68.27-113.78-102.41-170.68-72.33-2.03-144.67-4.06-217-6.1-4.88 12.61-9.76 25.21-14.63 37.8z"/></svg>