<svg version="1.1" id="Слой_1" xmlns="http://www.w3.org/2000/svg" x="0" y="0" viewBox="0 0 585 243" xml:space="preserve"><style>.st140{fill:#55afb7}.st355{fill:#6dcfd1}.st356{fill:#2b747c}</style><path class="st356" d="M461.92 55.12c1.27-2.09 3.55-2.75 5.43-4.01 6.97-4.68 15.54-5.12 23.03-8.77 4.02-1.96 10.25-.53 15.06-3.3.82-.47 2.48-.31 3.33.23 3.49 2.21 6.43 1.08 9.92-.39 6.38-2.68 12.5 2.44 11.67 9.37-.41 3.39-1.13 6.75-1.71 10.12 1.03 2.27 2.67 2.57 4.94 1.85 1.75-.55 3.64-.63 5.51-.47 7.02.59 7.38 1.01 6.86 8.22-1.83 3.11-3.72 6.15-7.15 7.79-2.67 3.2-3.51 7.22-4.52 11.02-2.35 8.82-6.89 16.2-14.13 21.61-3.66 2.73-6.15 5.69-7.68 9.01-2.8 6.1-1.98 12.44-1.38 15.73 2.13 11.75 7.99 53.04 16.31 109.85h-74.68c5.18-39.55 8.76-79.26 12.41-118.97.41-4.45-.2-7.76-4.08-10.91-6.52-5.29-7.36-13.1-6.77-20.94.3-3.97 1.28-7.89 1.95-11.83 1.02-1.41-.09-3.44 1.38-4.71 5.38-2.72 11.09-1.25 16.67-1.3 4.41 1.26 7.38 4.43 9.56 8.15 2.26 3.85 4.78 4.91 8.86 2.85 5.44-2.75 11.58-3.45 17.28-5.52 1.88-.68 3.63-1.14 3.87-3.47.02-.49.05-.97.04-1.46-.6-2.48-2.17-2.38-3.81-1.26-3.13 2.14-6.19 3.41-9.95 1.29-1.68-.95-3.02 1.26-4.73 1.31-5.37.99-10.3-1.53-15.49-2.13-3.24-.37-5-4.05-6.25-6.97-1.67-3.92-3.93-6.18-8.46-6.21-3.87-.01-4.81-2.35-3.29-5.78z"/><path class="st355" d="M54.5 243c1.07-14.63 2.34-29.25 3.18-43.9 1.91-33.51 3.99-67.01 6.92-100.45.47-5.35.36-10.24-2.8-15.26-3.76-5.97-3.12-13.21-2.8-20.1-1.4-3.09.73-4.02 2.99-4.83 6.63-2.37 13.38-1.84 20.13-.82.85.36 1.85.57 2.46 1.32 3.37 4.11 6.93 3.72 10.82.73 1.58-1.22 3.35-2.59 5.45-2.4 2.83.26 3.28-1.66 3.92-3.57 1.09-1.67 3.32-1.77 4.53-3.28 1.51-1.66 2.63-3.58 3.38-4.53-1.6 4.84-7.13 3.54-11.33 4.9-6.73 3.92-14.06 1.7-21.13 1.97-2.65.1-3.75-2.21-4.85-4.23-2.24-4.1-4.78-6.88-10.37-5.38-3.8 1.02-4.73-1.23-3.58-7.41 1.57-3.11 4.53-4.67 7.4-6.06 7.98-3.87 14.7-10.71 24.43-10.54 5.21-7.49 14.42-1.41 20.77-6.14 2.65-1.97 6.96-.86 9.08 2.51 1.78 2.83 3.47 3.41 6.48 1.9 1.93-.97 4.59-2.27 6.4-.31 1.54 1.67-.13 3.97-.56 5.94-.41 1.85-1.08 3.65-1.63 5.47 4.04 6.39 3.49 16.32-1.22 22.12 1.93 11.69-4.51 20.5-10.67 29.1-4.05 5.65-6.95 12.35-13.23 16.29-2.06 1.29-1.47 3.78-1.45 5.83.22 30.32 2.25 60.53 5.14 90.7 1.62 16.87 3.33 33.73 6.39 50.42-21.4.01-42.83.01-64.25.01zM371.1 85.92c3.64 27.79 5.85 55.73 8.33 83.64 1.83 20.5 4.06 40.97 6.05 61.46.39 3.98.47 7.99.69 11.98h-79.19l10.2-105.33c1.7-3.25 4.75-2.74 7.53-2.43 3.22.36 6.43.69 9.67.72 18.46.18 31.56-16.15 27.55-34.42-.72-3.3-2.19-6.57-.4-9.97 2.57-2.95 3.77-8.19 9.57-5.65z"/><path class="st356" d="M243.71 167.47l4.56 36.97L251.9 243h-36.73c-3.24-3.2-.92-6.81-.75-10.25.43-8.69 1.85-17.29 2.61-25.95.71-8.09 5.76-14.4 9.59-21.2 3.64-6.46 7.3-12.9 11.16-19.23.96-1.58 2.11-3.82 4.08-3.6 2.7.28.65 3.3 1.85 4.7z"/><path class="st356" d="M192.22 243c-.49-15.25 1.64-30.33 2.87-45.47.72-8.9 1.94-17.76 2.93-26.64 2.86-1.01 3.69 1.34 4.73 3.02 5.11 8.27 9.17 17.13 14.3 25.4 2.06 3.32.65 6.94.27 10.24-1.21 10.28-1.92 20.61-3.33 30.86-.14.98-.46 1.84-1.1 2.58-6.9.01-13.78.01-20.67.01z"/><path class="st355" d="M296.72 30c-2.33-6.14-4.66-12.28-6.98-18.41 1.34-.02 2.73-.3 4-.02 5.26 1.16 9.7 1.74 12.98-4.46 1.91-3.62 6.87-3.34 10.39-1.36 2.74 1.54 4.79 1.79 7.26-.07.7-.53 2.09-1.03 2.67-.69 6.45 3.71 14.2 2.12 20.83 5.4 5.03 2.49 10.58 3.96 15.93 5.8 8.14 2.8 12.06 8.79 13.32 17 .43 2.8 1.36 5.53 2.07 8.29-2.1 1.14-3.59.21-4.91-1.4-1.45-1.78-3.33-3.07-5.16-4.42-5.57-4.11-6.58-4.14-11.02 1.22-2.4 2.91-5.58 2.63-8.62 3.22-7.14 6.6-15.38 2.21-23.15 2.15-1.69-.01-3.31-1.7-4.09-3.57-.25-.68-.5-1.37-.76-2.05-.28-.71.46-.11-.15-.55-.17-.12-.01-.21 0 .38.01.55.14 1.08.17 1.63.1 6.23 4.05 9.09 9.46 10.45 3.14.79 6.37 1.32 9.22 2.88 4.25 2.32 7.11 1.02 9.5-2.87 2.56-4.16 5.8-7.51 11.28-7.32 11.88 4.81 12.57 19.94 7.52 28.23-3.21 5.25-6.74 10.15-12.8 12.47-2.05.86-3.99.91-5.91-.47-9.89-7.08-20.64-7.86-31.98-4.3-1.07.34-2.2.62-3.36.44-3.82-2.22-5.81-6.12-8.62-9.27-2.28-2.56-4.47-5.36-7.67-6.96-3.66-7.27-.69-13.38 3.57-19.15 3.65-4.95 3.05-8.92-1.98-10.75-1.08-.41-2.11-.77-3.01-1.47z"/><path class="st356" d="M274.87 89.46c.39.39.77.78 1.16 1.17-.17.98-.65 1.86-1.6 2.11-5.77 1.52-6.59 5.92-6.51 10.9-.34 5.32-2.65 10-4.74 14.75-5.41-1.89-8.66-9.07-5.66-13.17 2.26-3.09 3.28-6.33 3.23-8.26.93 4.8-4.15 8.9-6.69 14.02-1.04 2.1-3.31 2.51-5.5 1.79-2.41-.8-3.79-2.52-3.53-5.18.11-1.13.5-2.22.82-3.32.88-1.64 2.33-2.78 3.57-4.11.27-.68.52-1.37.76-2.07-.2.58-.41 1.17-.64 1.74-.14.34-.34.65-.6.93-5.5 6.24-12.05 9.39-20.67 8.2-3.88-.54-8.12 3.02-11.88-.8-1.67-1.27-3.63-.86-5.5-.91-1.32-.04-3 .36-3.83-.63-4.42-5.23-10.02-5.19-16.01-4.05-1.17.22-2.21-.4-2.89-1.45-.34-1.48-.22-3.02-.28-4.5-.25-5.85 2.63-9.73 8.32-12 2.82-1.12 5.36-3.38 7.98-4.19 11.19-3.43 20.33-12.85 33.21-11.32 4 .47 7.58-2.44 11.95-1.19 6.95 1.98 9.59 6.68 6.3 14.52 1.38-3.87 3.4-5.08 6.31-4.98 4.26 1.32 8.22 3.05 10.39 7.32.84 1.56 1.43 3.25 2.53 4.68zM146.11 5.68c8.75-2.21 17.72-3.08 26.62-4.34 1.67.98 2.43 2.21 2.79 4.35 1.93 11.42 3.77 22.85 5.31 34.34.72 5.4 2.49 10.63 2.45 16.21-.02 2.23 1.05 4.5 3.51 5.53.51.4.85.92 1.02 1.55-8.73 2.23-17.7 3.03-26.58 4.36-3.5-3.98-4.09-9.14-4.47-13.9-.97-12.15-4.32-23.88-5.65-35.94-.42-3.79.99-8.4-3.89-10.61a2.95 2.95 0 01-1.11-1.55zM8.44 27.53c7.58-1.64 15.19-2.99 22.94-3.51.32.15.63.3.94.46 3.61 2.69 3.24 6.94 3.74 10.61 2.35 17.14 4.87 34.24 8.4 51.18l-24.39 4.14c-1.29-1.44-2.4-3.06-2.66-4.97-2.64-19.36-5.88-38.62-8.97-57.91zm346.71 52.74c6.09-5.48 12.28-10.82 13.33-19.77.91-7.81-1.58-12.91-8.68-16.84-3.8-1.54-7.96 1.09-11.77-1.07-1.63-.93-3-1.93-2.34-3.87.65-1.93 2.28-1.43 3.74-.86 4.55.71 6.8-2.08 8.02-5.74 1.43-4.31 3.66-4.45 7.34-2.57 5.73 2.93 10.43 6.96 14.41 11.93.78 1.5 1.57 3.01 2.35 4.51 2.96 8 2.58 16.02.07 24.04-1.69 6.5-6.36 11.03-10.51 15.9-2.63 1.95-5.26 3.91-7.89 5.86-6.08.34-10.12-5.44-8.07-11.52zm-272-20.6c-7.16.46-14.48-1.12-21.45 1.79-1.07.45-2.19.64-2.7 1.83-.67-.4-1.34-.79-2.01-1.19-1.81.89-3.77.18-5.62.5-3.88.67-5.7-1.14-6.2-4.79-.18-1.32-.41-2.63-.64-3.94-1.7-9.78-1.67-9.82 7.67-11.32 4.65-.14 7.93-2.13 9.24-6.8.06 3.01-.26 6.02 4.61 4.02 4.85-1.99 8.31.01 10.56 4.73 1.57 3.29 2.99 7.46 8.24 4.37 1.19-.7 2.5.48 3.75.87 3.18 1 6.28 1.63 8.61-1.83 1.49-2.21 3.06-1.87 4.34.35 1.91 1.64 4.12 1.16 6.29.88 3.07-.39 4.27.62 2.89 3.68-1.74.34-3.31 1.04-4.62 2.26-7.28 3.4-14.76 5.77-22.96 4.59z"/><path class="st356" d="M15.49 90.71c-4.76 2.44-6.06-.35-6.71-4.34C6.1 69.68 3.36 52.99.68 36.3c-1.24-7.7-1.11-7.82 6.77-8.63 2.92 6.01 3.51 12.63 4.19 19.05 1.26 11.94 4.19 23.6 5.39 35.53.3 3 1.55 6.1-1.54 8.46zM52.2 42.55c-3.56 1.24-6.84 1.99-5.66 7.53 2.49 11.67 2.14 11.75 10.45 12.03-7.97 2.5-7.97 2.5-6.5 11.39.34 2.07.52 4.17 1.04 6.19 1.15 4.5-.49 6.56-5.12 6.26-4.65-3.1-3.46-8.25-4.34-12.62-2.84-14.18-4.58-28.55-6.77-42.84-.39-2.54-1.3-4.74-3.6-6.15l-.32-.31c.89-.3 1.76-.7 2.68-.9 7.81-1.68 7.99-1.56 9.42 6.42.4 2.23.9 4.45 1.06 6.7.35 4.87 2.6 7.23 7.66 6.3zM174.75 1.1c8.2-2.07 8.55-1.87 9.91 6.38 2.71 16.49 5.25 33.01 8.13 49.47.78 4.46-.27 6.61-4.98 6.37l-.4-.32c-3.33-1.34-4.14-4.5-4.37-7.37-1.46-17.99-5.56-35.58-7.98-53.43-.05-.37-.22-.73-.31-1.1z"/><path class="st355" d="M445.75 39.16c-1.46 0-2.92 0-4.39.01-5.35 3.75-14.33 3.76-19.74.02-4.59-.08-4.71 3.17-4.41 6.3 1.39 14.41.96 28.86 1.14 43.29.04 3.69-.95 6.28-4.55 7.54-3.69-4.77-1.6-10.37-1.84-15.5-.59-12.35-.33-24.75-.36-37.13-.01-2.29-.01-5.21 3.07-5.24 11.95-.15 23.93-1.6 35.84.64-1.56 1.56-3.15 1.25-4.76.07z"/><path class="st356" d="M140.43 28.7c2.58-1.08 3.72-2.73 3.05-5.73-.87-3.84-1.13-7.82-1.95-11.68-.85-3.99.64-5.7 4.59-5.61l.42.34c2.78 1.12 4.03 3.48 4.3 6.17 1.8 18 5.12 35.75 8.52 53.5.14.72.02 1.51-.12 2.26-7.57 1.78-7.93 1.45-9.47-5.77-1.01-4.72-.53-9.82-3.45-14.08-1.11-1.46-2.6-2.67-2.65-4.76-.12-5.08-1.89-9.82-3.24-14.64z"/><path class="st355" d="M445.75 39.16c1.59-.03 3.17-.05 4.76-.08 1.56 3.24.88 6.7.92 10.06.1 9.14.04 9.14 9.22 7.99-.42 1.12-1.12 2.16-2.33 2.25-3.91.29-7.03.95-6.8 6.12.21 4.89-.82 10.09 5.94 11.48-.4 1.12-.81 2.24-1.21 3.37-.31-1.48-.51-3.17-2.65-2.81-1.63.27-1.9 1.67-1.92 3.01-.05 3.74-.03 7.49-.01 11.23.02 3.16-1.11 5.09-4.68 4.55-1.22-2.67-1.13-5.53-1.13-8.36-.04-16.27-.07-32.54-.11-48.81z"/><path class="st356" d="M140.43 28.7c2.45.17 4.37.86 4.68 3.79.56 5.19 1.96 10.32 1.2 15.61l-13.72 2.55c1.95-7.29-.5-14.82 1.22-22.12 2.21.06 4.42.11 6.62.17z"/><path class="st355" d="M279.27 92.99c-1.08-.79-2.17-1.57-3.25-2.36-9.3.28-9.91.78-10.44 8.69-.06.93.1 1.88.16 2.82 1.42 1.55 2.83 2.09 4.23 1.91-2.72 4.81-4.57 10.18-8.89 13.96-2.37 6.4-7.8 10.9-10.55 17.04-.23 7.95-5.9 13.1-9.87 19.14-6.66 10.9-12.34 22.36-19.16 33.17-2.79 4.41-4.31 4.5-6.75.13-4.64-8.32-9.91-16.32-13.64-25.13-2.87-4.89-5.13-8.84-6.55-11.32-6.1-10.69-8.51-14.82-12.95-22.77-1.97-3.53-3.49-7.4-6.35-10.31 3.27.06 6.36-1.21 9.53-1.87 6.14-1.43 12.44-1.97 18.62-3.18 3.74-.4 7.15-2.18 10.91-2.62 1.95-.23 3.65-1.14 3.34-3.65-.59-2.49-.3-5.87-4.41-2.11-2.64 2.41-5.79.58-6.87-2.3-1.76-4.65-4.78-4.45-8.58-3.47-3.1.8-6.28 1.29-9.42 1.92l-3.02.09c-4.56 1.07-9.12 2.08-13.66 3.21-6.55 1.63-7.73 4.45-4.51 10.5.13 1.31.33 2.51 1.08 3.73 5.09 8.22 10.05 16.51 15.03 24.8 3.31 5.51 5.82 11.51 9.94 16.55 1.6 3.78 3.21 7.55 4.81 11.33 6.7 7.65 9.89 17.4 15.42 25.73 2.71 4.09 3.11 8.28 2.58 13-1.24 11.11-2.12 22.25-3.14 33.38h2.3c1.03-10.02 2-20.04 3.1-30.05.5-4.51.21-9.25 2.53-13.35 5.63-9.93 8.2-14.76 19.11-33.13 1.93-3.25.87-1.6 5.43-9.52 9.04-15.71 12.99-21.41 17.91-30.37 4.82-8.75 11.18-16.72 14.02-26.51 3.05-1.69 2.4-4.41 1.96-7.08z"/><path class="st140" d="M475.73 76.94c13.32-.05 26.65-.11 39.97-.16 2.14.39 2.92.94.63 2.59-3.92 2.82-8.35 4.48-12.95 5.54-5.04 1.16-9.94 2.55-14.14 5.63-2.3 1.69-3.49 1.31-4.77-1.2-2.3-4.54-4.56-9.16-8.74-12.4z"/><path class="st355" d="M584.86 42.84c.04-4.61-1.97-6.01-6.22-5.91-7.83.17-15.67.07-23.51.11-9.95.05-10.35.53-9.73 10.34.27 4.36.98 8.97-4.43 11.11.94 1.74 2.53 1.84 4.23 1.68 5.29-1.52 4.46-5.49 3.9-9.45-.43-3.07-2.13-6.56 2.18-8.47 1.06-.23 2.11-.05 3.17.08 2.59.6 3.92 4.23 7.33 2.95 4.09-1.54 8.47-1.01 12.7-1.69 2.41.29 2.12 2 2.14 3.75.13 12.44.09 24.88.02 37.32-.01 1.14-.02 1.88-1.41 1.53-7.2.17-14.64-1.53-21.38 2.72-.93.21-1.55-.36-2.21-.85-4.57-2.89-1.86-5.22.56-7.59.58-2.21 1.22-4.4.52-6.7-1.75-2.17-3.94-2.42-6.4-1.41-1.15.92-1.99 2.02-2.03 3.57 2.33 4.71 1.23 9.77 1.27 14.67.03 4.2 1.59 5.83 5.75 5.75 9.17-.17 18.35-.2 27.53-.05 4.29.07 6.22-1.36 6.16-5.95-.23-15.83-.27-31.67-.14-47.51zm-65.34 29.17c-4.68 1.08-5.16-2.9-6.41-6.2-3.78 6.82-7.2 9.52-10.46 7.53-3.39-2.07-5.19-.45-7.4 1.31 6.79 2.28 13.8.54 20.68 1.13 1.9-.09 3.91-.03 4.7-2.29.3-.86-.24-1.68-1.11-1.48z"/><path class="st140" d="M83.15 59.67c5.03-3.43 11.03-3.31 16.67-4.46 2.02-.41 4.19-.1 6.3-.12 2.36 3.27-1.11 3.39-2.49 3.87-3.06 1.09-5.88 2.46-8.56 4.28-7.62 5.17-8.07 5.01-11.92-3.57z"/><path class="st356" d="M110.73 52.83c-.53-2.47-2.3-2.64-4.37-2.42-1.99.21-3.81-.07-4.81-2.14 7.79-.31 8.39-.9 9.22-8.88.13-1.23-.39-3.06 1.32-3.33 1.84-.3 2.65 1.41 2.86 2.88.75 5.24 1.38 10.54-4.22 13.89z"/><path class="st140" d="M125.92 43.66c.42 3.45-1.14 5.35-3.75 6.37-1.81.7-4.19.75-4.77-1.49-.68-2.62 1.84-1.67 3.07-1.79 2.09-.21 2.67-2.63 5.45-3.09z"/><path class="st356" d="M355.15 80.27c2.22 4.16 3.8 8.78 8.06 11.52.27 2.06.34 4.17.85 6.17 3.78 14.79-.49 26.88-11.99 36.73-4.21 3.61-9.05 4.67-14.34 4.37-6.46-.37-12.91-.87-19.36-1.32-16.56.86-23.93-17.37-23.73-30.92.08-5.49 1.11-10.93 3.56-15.92.87-1.78.54-3.26-.09-4.87 2.49-4.61 7.18-7 10.72-10.55 1.67-.59 3.31-.36 4.94.19 13.15-5.38 25.76-5.11 37.66 3.45 1.02.71 2.48.78 3.72 1.15z"/><path class="st356" d="M309.49 76.5c-.34 4.17-6.82 9.59-11.37 9.53-1.71-2.52-3.29-5.14-5.15-7.53-11.78-15.11-10.27-36.7 3.75-48.5 2.67-.65 4.91-4.69 8-1.66 3.14 3.08 2.89 11.57.25 14.35-4.57 4.81-6.66 10.41-4.93 17.07 2.65 4.14 5.1 8.4 8.47 12.06 1.04 1.14 2.6 2.73.98 4.68zm-125.36 36.82c6.13-1.07 12.27-2.15 18.4-3.22 4.96-1.35 8.92.35 11.63 4.42 2.66 4 5.57 4.82 9.43 1.87 2-1.52 4.33-2.38 6.72-3 4.89-1.26 9.16-3.49 12.77-7.09 1.08-1.08 2.06-2.98 4.22-1.91.09 1.3-.03 2.66.3 3.89.52 1.91 2.27 3.5 3.61 1.55 2.66-3.87 9.07-6.29 5.86-12.86-.08-.16-.11-.37-.11-.56.15-3.6 1.81-6.56 4.18-9.11.7-.75 1.88-.5 2.55.32 2.16 2.67.56 5.45.1 8.19-.03.19-.04.4-.14.55-4.47 7-5.7 14.21-1.44 21.78.57.25 1.15.49 1.03 1.3-2.09 6.08-6.95 10.36-10.23 15.67-1.57 3.05-3.45 5.88-5.55 8.62-2.78 3.62-4.62 7.75-4.89 12.42-7.37 12.85-14.76 25.7-22.11 38.57-1.35 2.36-2.93 4.13-4.73.65-5.47-10.63-12.57-20.39-16.86-31.65-.95-1.64-1.6-3.56-1.34-5.3 1.15-7.64-2.16-13.77-5.71-20.14-4.28-7.68-6.94-16.08-7.69-24.96z"/><path class="st140" d="M247.31 104.4c-3.92 7.28-10.52 10.58-18.2 12.43-2.82.68-5.12 2.54-7.31 4.39-3.22 2.71-5.44 2.43-7.68-1.45-2.61-4.52-4.97-9.77-11.59-9.67 4.82-2.08 10.34-1.1 15.1-3.45 2.01.52 4.03 1.34 5.78-.67 1.18-1.35 2.73-1.16 4.22-.63 3.93 1.4 7.09 1.38 10.97-1.51 2.47-1.84 7.23-.69 9.77-4.06.97-.03 1.7.45 2.32 1.13-1.12 1.16-2.25 2.33-3.38 3.49z"/><path d="M250.7 100.9c-.77-.38-1.55-.75-2.32-1.13 1.58-2.31 1.23-5.75 4.24-7.71 1.07 3.66-1.96 5.9-1.92 8.84z" fill="#00acbd"/><path class="st355" d="M511.42 73.46c-5.33 2.62-10.86.17-16.17 1.19-2.05-.09-4.22.42-6-1.08-1.07-.9-1.35-3.16-3.34-2.45-7.91 2.83-9.12-3.57-10.64-8.25-1.33-4.11-3.19-5.51-7.29-4.9-2.48.37-5.58 1.35-6.07-2.84l-1.26 2.01c-1.76 2.06-4.19 1.31-6.37 1.43-2.23.12-4.28.54-4.82 3.02-.93 4.27-1.33 8.68.4 12.78 1.39 3.31 5.21 1.24 7.59 2.62 6.09-.01 12.18-.02 18.27-.04 11.85 4.69 24.08 2.71 36.23 2.09 1.63-.08 2.76-1.05 3.74-2.25.08-.33.15-.67.23-1-.84-2.09-3.32-2.9-4.5-2.33zm34.27-14.87c-1.58-.03-3.15-.06-4.73-.1l-12.31-.12c-.64 1.85-2.19 3.51-1.2 6.07 2.7-.98 5.26-2.09 7.92-2.83 5.54-1.55 8.66.61 9.09 6.07.37.04.74.09 1.11.13 3.6-3.03 3.55-6.11.12-9.22z"/><path class="st355" d="M544.6 67.74l-.14-.07c-2.3 2.41-4.67 4.77-5.64 8.1 1.82.05 3.65.11 5.47.16 1.17-.5 2.08-1.26 2.55-2.48 1.22-2.66.81-4.7-2.24-5.71zm31.99-23.78c-.03-2.04.1-3.96-2.65-4.87-7.71 3.43-15.43 4.32-23.15.02-2.81 2.69-2.27 5.93-2.21 9.13.27 13.65.31 27.3-.29 40.94-.1 2.35.33 4.37 2.45 6 .82-.25 2.37-.52 2.36-.76-.21-7.75 6.24-5.87 11.11-5.1 3.94.62 7.05.48 9.73-2.11 2.54-1.09 2.68-3.15 2.69-5.12.03-12.71.15-25.42-.04-38.13z"/><path class="st355" d="M551.55 39.19c-1.74 11.42.74 22.86-.13 34.28-1.53 1.1-3.06 1.67-4.58-.01-.75-1.9-1.49-3.81-2.24-5.71 1.64-2.9.92-6.08 1.09-9.16 2.77-4.44 1.04-9.27 1.14-13.92.07-3.26.75-5.71 4.72-5.48zm-129.92-.01c6.58-.01 13.16-.01 19.74-.02-.03 16.2-.04 32.39-.11 48.59-.03 7.06-.41 7.4-7.49 7.47-1.34.01-2.67.02-4.01 0-6.86-.1-7.94-1.08-7.98-8.03-.1-16-.1-32-.15-48.01z"/></svg>