<svg id="Слой_1" data-name="Слой 1" xmlns="http://www.w3.org/2000/svg" viewBox="0 0 585 477"><defs><style>.cls-1{fill:#6dcfd1}.cls-2{fill:#2b747c}.cls-5{fill:#55afb7}.cls-6{fill:#3fa5b0}.cls-9{fill:#00acbd}</style></defs><path class="cls-1" d="M273.64 105.84c10.56 3.25 19.9 9 29.41 14.37A73.72 73.72 0 01325.69 146a71 71 0 015.69 14.7c.12 1 .31 2.39.56 4.12a208.24 208.24 0 006.6 30c2.29 7.53 4 11.44 6.79 22.06.35 1.32.62 2.42.81 3.15-.2 3.33 1.63 6.29 1.77 9.56 1.49 5.22 1.5 10.73 3.18 15.89.6 1.84 1.82 2.51 2.6 3.53 4.75 6.2 1.94 11.34 5 20.93.75 2.38.78 1.77 2.16 5.53a98.43 98.43 0 014.8 18c1.43 4.81 1.29 9.85 2.35 14.7-.09 2.49 1.09 4.77 1.2 7.23a52.35 52.35 0 001.27 8c.56 4.15 2.47 7.88 3.72 11.81.19 2.59 1.25 5 1.6 7.56a28.5 28.5 0 001.18 5.85 21.69 21.69 0 012.48 4.6c1.06 3.52 3.3 5.61 7.11 5.93 2.24.19 4.29.84 4.53 3.63a3.14 3.14 0 01-3.22 2.75c-4.71 0-6.05 3-6.78 6.82-5.11 1.5-10.35 2.67-15.29 4.6a18.7 18.7 0 01-13 .38c-6 .65-6.92-.11-8-6.93a22.59 22.59 0 01-.21-9.12c6.91-19.36-2.4-36.06-8.79-53.23-.54-1.46-1.43-2.78-1.61-4.37-3.79-8.39-6.58-17.15-9.55-25.83a35.52 35.52 0 00-4.91-29.85c-.39-.41-.76-.82-1.14-1.23-2-1.34-2.59-3.71-4-5.51l-.74-1.63c-4.07-9-5.9-18.6-8.53-28-.84-3-2.51-5.72-2.8-8.88a91.76 91.76 0 00-3.49-13.06c-2.19-5.81-5.36-10.75-11-14.06-8.44-5-12.82-12.86-15-22.24-3.3-13.95-2.3-28.08-2.17-42.17.04-2.16.2-4.46 2.78-5.38z"/><path class="cls-2" d="M168.78 427.94c-.22-2.74 1.87-3.76 3.78-4.56a74.91 74.91 0 0012.53-7.3c1.66-.25 3.32-.74 4.81.63 2.15 2 4.13 1.07 6-.53s1.79-5.17 5-5.24c2.27-.05 5.12-1.64 6.73.4 2.3 2.9.88 6.35.07 8.86 1.8-4.32 1.94-8.85-3.37-12a3.63 3.63 0 01-.25-1.63c3.41-3 .93-7.74 3.25-11.06 4.8.21 7.55 3.53 10.34 6.8 3.31 5.07 5.53 2.13 7.71-1.08 3.85-1.65 3.19-5.3 3.69-8.45a7.53 7.53 0 013.91-4.18c4.21-1.31 6.16 1.5 7.87 4.47 1.38 2.39 1.88 5.15 2.83 7.72a34.06 34.06 0 001.18 4.65c1.15 2.67 2.57 5.33 0 8-13.11 8.28-19.86 10.56-23.72 11.04a18.71 18.71 0 00-7.79 2.56 17.9 17.9 0 00-4.72 4.28 72.81 72.81 0 01-25.63 4.29 71.2 71.2 0 01-12.47-1.29q-.86-3.19-1.75-6.38zm194.68 9.43l-.22 3.35c-1.12 11.95-2.82 13.54-18.26 17l-13.62-1.6c-4.12-2.79-5.26-7.11-6-11.65a14.11 14.11 0 014.21-15.19 5 5 0 015.17 1.24c5.15 6.37 8 6.75 12.08 1.58-1.64-4.28.9-13.27 4.56-16.35a5.85 5.85 0 014.29.9 7.57 7.57 0 011.47 1.05c3.13 6.3 7.92 11.94 6.32 19.67z"/><path class="cls-1" d="M353.8 392.55a24.42 24.42 0 002.7 12.69 2.73 2.73 0 01-1.85 1.62c-1.79.49-3.22-.65-4.81-1.06-3.33-2.6-6.33-1.68-9.15.89-1.24 1.14-2.25 2.61-4.15 2.79a4.08 4.08 0 01-2.7-.77 7 7 0 01-2.77-5.61c-.08-6.31-1.76-12.43-2.12-18.7a14 14 0 00-1.13-5.6c-1.58-3.59-4-7.09-1.33-11.19 4.61-2.54 9.56.67 14.24-.87a10.23 10.23 0 012.77 1.37c1.47 6 5.89 9.94 9.84 14.22.42 3.4-.86 6.86.46 10.22z"/><path d="M535.57 435c0 8.73-.29 17.46 2 26 .88 3.25 1.85 6.07 5.27 7.33-.91 2.74-.38 6.55-4.91 6.59a97.16 97.16 0 01-3.58-30.53c-.1-3.2-2.44-6.68 1.22-9.39z" fill="#1e1e1e"/><path d="M523.83 392.51c1.55 2.72 1.1 5.72 1.11 8.63q.06 16.74 0 33.5c0 2.53.23 5.12-1.23 7.42-1.35-16.52-.89-33.06.12-49.55z" fill="#272727"/><path class="cls-2" d="M350 404.13c1.37 0 3-.63 3.75 1.2 2 4.19 5.43 7.29 8.54 10.62 1.4 1.39 1.3 3.33 1.84 5-2.3 1.69-3.44.15-5-1.41-1.73-1.75-3.56-3.61-6.09-4.32-3.75-1.51-8.35-1.71-9.93-6.53.4-4.39 3.25-5.08 6.89-4.56z"/><path class="cls-2" d="M354.24 414c4.5.67 5.82 5.82 9.92 7l.21 8c-2.68 1.82-3.28-.62-4.25-2.13-1.78-2.76-2.82-6-5.12-8.4l.06.07c-.47-1.54-3.2-2.6-.82-4.54zm8.08 2c-3.43.55-4.25-2.8-6.25-4.32s-4.43-2.21-6.79-3.16c.66-2.38 2.9-2.3 4.5-3.14l2.72-.09a48.94 48.94 0 015.82 10.71z"/><path class="cls-5" d="M188.56 412.41l8.28 6.24c-4.91 3.66-8.25.2-11.75-2.57zm16.56-4.75c-.12 5.71-4.73 2.32-7.1 3.49a2.91 2.91 0 01-1.33-1.12c-.73-1.91-1.94-3.85.33-5.59l1-1.33 1.21-.26c3.78-1.24 5.8.06 5.91 4.09.01.24 0 .48-.02.72z"/><path class="cls-2" d="M352.89 380.63c-.1.4-.21.8-.31 1.19-5.4-2-8-6.22-9.45-11.46 1-1.33 2.15-1.35 3.45-.51-.42 4.56 3 5.89 6.22 7.43z"/><path class="cls-5" d="M198.13 410.58l-.11.57c.19 1.68.37 3.37.61 5.57a9.49 9.49 0 01-7.9-6.72c.12-.29.26-.57.41-.85 2.92-2.39 5.1-1.21 6.99 1.43z"/><path class="cls-2" d="M355 418.42c2.77 1.12 3.38 3.9 4.71 6.13 1.13 1.92 1.81 4.3 4.66 4.4.05 2.84.51 5.73-.91 8.42.76-5.35-3.73-8.37-5.58-12.56-.95-2.14-1.88-4.26-2.88-6.39z"/><path class="cls-5" d="M198.13 410.58l-7-1.43c1.39-2.29 2.65-4.72 5.88-4.71z"/><path class="cls-2" d="M251.19 11.49l4.57 2.44c12.49 13.19 20.23 28 16.5 46.93-3.81 1.54-3.81-4-7.4-3.69.38 3.21 1.94 6.12 2.42 9.27.37 2.4.72 4.62-1.78 6.12-3.71 1-4.71-1.58-5.74-4.25-1.81-4.72-3.48-9.53-7.17-13.24-1.69-3.1-2.12-5.7-7.39-2.46a102.33 102.33 0 00-21.09 17.77c-3.86 4.13-8.62 5.66-14 6-4.84 3.74-1 6.77.78 10a5.34 5.34 0 01.61 2.47c0 3.13 2.19 5.51 2.74 8.45 2.93 8 5.06 16.17 3.1 24.76-1 4.38-.75 9.49-5.94 11.81a3.23 3.23 0 01-2-.55c-1.66-1.92-.84-3.94-.55-6.1.93-7 2.85-14-.71-20.86.4-2.79-1.17-5.23-1.46-7.9.5 4.16.13 8.32.24 12.48a17 17 0 01-.16 2.57c-1.5 6.26-3 12.52-4.34 18.82-3.14 2.4-2.16 7.8-6.67 9.21-4.35-3.13-1.77-7.79-2.34-11.69a15.41 15.41 0 011-6.3c.27-1.31 0-2.74.75-4a6.36 6.36 0 00-.63 3.09c-1.2 7.13-2 14.26-.23 21.42.62 2.47.54 5-2.37 5.75s-3.57-1.91-4.49-4.07c-.61-1.43-.36-2.87-.71-5.35.19 5.59 2.1 9.58 3.64 13.69a28.29 28.29 0 011.72 5c.36 2.11-.14 4-2.23 4.92s-3.46-.32-4.55-1.78c-5.6-7.56-9.26-16-9.57-25.42-.16-5.07-.71-10.06-1.34-15-1.14 1.3-1.22 2.95-1.93 4.33-.87 1.69-2 3.13-4.07 2.34-2-.72-2.34-2.51-2.11-4.38 1.49-12.34.65-24.89 3.54-37.1.86-3.64.62-7.65 3.74-10.49 4.6-10.15 5.07-20.77 3.8-31.65-1.71-14.35 2.42-26.8 12.89-36.85 8.8-8.47 20.58-10.29 31.45-4.72a10.12 10.12 0 004.89 1.2c8.88-.05 16.98 2.65 24.59 7.01z"/><path class="cls-6" d="M199.35 130.77l5.56-17.9c2.11-.35 3.83.12 4.66 2.29 1.21 5.93-1.29 11.73-.64 17.62 1.61 2 .84 4.13.08 6.1-.6 1.56-.38 2.61 1 3.49 3.43 5.62 2.84 12.11 3.87 18.22a72.6 72.6 0 008.53 23.65 23.28 23.28 0 008.59 8.67c12 7.19 23.29 2.78 27-10.64 2.7-9.79 2.62-19.85 1.78-29.8-.67-7.95-1.72-15.88-1.75-23.88-2.21-5.13-1-9.89 1.54-14.51a7.65 7.65 0 01.9-1.44 8.08 8.08 0 011.4-1.41c-1-3.31-.24-6.53 1.84-8a5.2 5.2 0 012.9-.93l7 3.57c.18 15.69-1.4 31.45 2.32 47 2.27 9.43 6.6 17.26 15.86 21.43 4.77 2.15 6.57 6.63 8.6 10.82a61 61 0 015.08 17.48c.88 5-.55 9-4.84 11.93-1.34.67-2.34 1.87-3.72 2.48-16.59 4.85-32.11 4.32-44.46-8.71 2.56 1.64 4.85 4.65 8.16 6.5a37.82 37.82 0 0011.65 4.3 1.9 1.9 0 011.61 2.62c-1.88 3.15-5 2.6-7.77 2.29-4.59-.52-9.18-.92-13.8-1-3.9 2-7.61 2.85-10.68-1.5-.56-.8-1.79-.56-2.73-.74a3 3 0 01-2.41-2.54c-.53.11-.39.72-.75 1-11.87 5.65-25 .3-31-10-3.59-6.14-6.35-12.65-5-20.11a5 5 0 00-2-5.2c-2.46-2.82-5.66-5.33-4.69-9.8 5.7-6.95 4.87-14.88 3.43-22.91 2.86-6.63 2.33-13.61 2.88-20.44z"/><path class="cls-2" d="M343.26 218a30.52 30.52 0 00.09-5.58 29.85 29.85 0 00-1.41-7 38.93 38.93 0 0125 29.1c1.21 3.53.82 7.07 0 10.61-1.9 8.59-2 17.78-8.3 24.89q-3-6.72-5.7-14.43a213.9 213.9 0 01-7.31-25.86q-1.16-5.92-2.37-11.73z"/><path class="cls-1" d="M266.61 102.27a24.32 24.32 0 01-4.74 9 23.25 23.25 0 01-2.81 2.81 9.5 9.5 0 00.9-4c0-1.21-.51-1.24-.35-2.55.27-2.25.82-4.47.93-6.74.14-3.15.82-6.26.81-9.42.2-2.53.36-5.06 1.95-7.24 2.4-3.31-.12-6.83.32-10.23a10 10 0 011.65-2.42c-.5-6.91-3.67-13-6.46-20 6.64 1.11 11.88 2.65 13.45 9.4-2.7 8.27-1.55 16.7-1.39 25.16.13 5.59-2.38 10.96-4.26 16.23zm-67.27 49.59c1.24 8.24 3.69 16.67-3.65 23.58.38 13.13-1.42 26.39 2.17 39.35a28.27 28.27 0 01.69 6.43c-.31 3.68.91 7.65-2 10.85q-2 10.73-4.07 21.44c-.09 2.36-2.79 3-3.34 5-8.42 7.74-11 17.11-8.42 28.24.74 3.19.91 6.59 1.49 9.86 1.19 6.73 3.28 8.32 10.42 8.3 6.35.39 12.7 0 19 .25 5.81.33 8.17 3.38 9.27 9.16 2 10.44 6.47 20.3 8 30.9.44 3.17 2 6.45-.09 9.64-6.31 2.83-12.95 1.5-19.45 1.28a80.44 80.44 0 01-11.51-1.43c-2.56-.55-2.88-3-3.89-4.79-1.87-3.3-2.51-7.43-7.13-8.63-1.84-.47-1.37-2.55-1.24-4.1a16.27 16.27 0 00-2.32-9.65c-2.19 2.42-.53 6-3.44 7.53-3.44.79-3.47-2-4.44-4.17 2.16 6.83 7.37 9.6 13.56 11.19 2.9 2.77 5.12 5.85 4.79 10.13-2.52 2.67-4.18 5.39-1 8.75.48.5-.08 1.44-.46 2.13-9.89 9.53-21.38 7.82-32.95 4.44-3.4-1-5.33-3.86-5.81-7.49-.38-3-1.05-5.95-.92-9-.18-2.46.41-5.13-1.81-7.07-2.27-1.57-6.33-2-6-5.39.32-3.28 4-3.61 6.78-4.32a6.19 6.19 0 002.5-1.37 39.21 39.21 0 002.18-6.54c1.07-4.52.93-7.54 1.07-18.16 0-1.87.06-4.45.13-7.53.35-10.27 2.07-20.27 6.23-29.75.06-.73.11-1.46.17-2.19 1.32-5.07-.1-10.53 2.19-15.45 2.1-11-.44-21.76-1.34-32.61-.31-3.7-.68-7.39-1-11.08-.51-15.91-6.75-31.29-4.66-47.43 1.34-10.33 3.84-20.29 11-28.4 2.73-3.09 3.47-6.87 4-10.86.38-2.83-.34-6.52 3.72-7.71.1 11.72-1 23.56 3.88 34.77 2 4.48 4.21 8.72 7.84 12.38-3.06-10.11-5.58-20.17-4.12-32.09 2.3 6.82 2.51 13 6.21 18.06-1.48-9.26-1.47-18.29 1.68-27.11a1.54 1.54 0 012.32-.06c.26 6.62-1.37 13.35 1.16 19.84 4.84 2.74 1.57 7.31 2.61 10.88z"/><path d="M84.57 386.2c4.59-8.9 6.22-18.66 8-29.31 2.43 6.11-2.03 22.4-8 29.31z" fill="#1f1f1f"/><path class="cls-2" d="M299.55 213.3c1.8-3.69 5.62-6.26 5.95-10.76 3.85 12.52 7.64 25.05 10.6 37.81-12.22 12.55-13.75 20.66-8.36 44.53-5.47-23.36-3.88-31.82 8.34-44.55l4.48 5a73.67 73.67 0 013.12 7.81 76.45 76.45 0 012.81 11.24c3.17 17.42 2.57 21.53 5.62 29.49a55.59 55.59 0 004.36 8.89 259.68 259.68 0 0112.36 33.46c2.43 8.38 2.16 16.58-2.05 24.43-3.39 3.93-7.38 2.31-11.3 1.23a3.35 3.35 0 01-1.39-1.47c1-5.91 1.6-11.88 2.22-17.85a57.58 57.58 0 00-2.93-25.36c-2.16-6.13-4.73-7.55-11.2-6.67-5.26.72-10.45 1.49-15.69.15a7.25 7.25 0 01-5.82-2.62c-3.24-4.79-4.51-10.37-6.35-15.71l-4.77-14.57c-1.71-15.8 3.18-29.62 12.65-42a5.46 5.46 0 001.32-3.73 45.42 45.42 0 01-3.52-12.29 46.31 46.31 0 01-.45-6.46z"/><path d="M535.57 435c-1.75 3-1 6.27-1.19 9.43a11.81 11.81 0 01-1-3.34c.17-18.23-.94-36.46.63-54.69 1-11.1 1.26-22.27 2.42-33.4-.51 27.31-1.25 54.64-.86 82z" fill="#242424"/><path class="cls-1" d="M206.14 379.83a7.58 7.58 0 00-.9-5q-1.92-6.33-3.83-12.66c.77-2.24 2.59-2.89 4.66-2.73 6.62.51 13.28.51 19.9 1.06a4.74 4.74 0 013.89 2.27c2.43 9.46.86 19.18 1.86 28.73.11 1.14-.21 2.33.59 3.34.48 4.23-1.49 6.54-5.61 7.16l-.81-.16a7.39 7.39 0 01-3.11-4.72c-1.46-5.34-4.64-8.41-10.54-7.74a4 4 0 01-3.55-1.6z"/><path class="cls-5" d="M199.26 399.72c2.53.21.88-5.35 4.68-3.38 1.36 1.7 2-3.95 3.55-.34.6 1.66 1.07 3.38 1.82 5 2.14 4.5.4 6.18-4.15 6l-5.91-4.09c.01-1.11.01-2.15.01-3.19z"/><path class="cls-2" d="M232.31 394.84c-3.1-10-3.05-20.46-3.47-30.82a2.42 2.42 0 013 .06c1.75 1.94 2.12 4.42 2.73 6.81.28 3.51.08 6.91-2.2 9.85.06 3.14-.4 6.36 1.24 9.29a7.75 7.75 0 00-1.3 4.81z"/><path class="cls-5" d="M207.49 396c-1.25-.65-1.86 5.67-3.55.34l2.38-5c6.14 1.78 10.27 5.29 10.49 12.16a2.16 2.16 0 01-1.33 1.09c-3.05-2.53-4.17-6.82-7.99-8.59z"/><path class="cls-5" d="M226.7 402c-.16.56-.3 1.13-.49 1.68-.84 2.57-1.38 5.73-4.6 6.1-3.48.39-4.88-2.54-6.13-5.23.2-.16.42-.31.63-.45 1.7-1.42 4.89 1.72 5.83-1.94a3.66 3.66 0 011.67-1.78c1.38-.41 2.08.4 2.62 1.49zm103.73 28.48c.39-2.85 3.51-4.41 3.5-7.44 2-1.68 4.22-1.64 6.53-1 3.33.94 2.85-1.16 2.52-3.15.6-4.17 3.7-3.85 6.69-3.73a2.55 2.55 0 011.82 2.08 15.55 15.55 0 00-.93 1.38c7.25 5.87.62 6.72-3.09 8.42 0 3.16 7.83 1.42 4 6.74-6.08 2-12.06 2.62-17.65-1.42z"/><path class="cls-9" d="M333.8 432.38a84.92 84.92 0 0017.65 1.42c-7.86 4.98-12.73 4.58-17.65-1.42zm17.69-15.12l-1-.9c-3.62-2.6-5.75-.83-7.36 2.51a2.6 2.6 0 01-1.63-.13c-2.3-1.65-1.44-4.2-1.84-6.38v-2c1.05-2.15 2.66-2.43 4.66-1.4 2.74 2.81 6.92 2.77 9.94 5 .27 1.51.55 3 .82 4.54z"/><path class="cls-9" d="M344.3 408.92l-4.66 1.4-.55-.05h-.54c-1.22-.48-1.95-1.21-1.36-2.62 3.23-7.59 7.08-8.65 12.84-3.54z"/><path class="cls-2" d="M337.19 407.67c.45.87.91 1.74 1.36 2.62-1.57 1.38-3.05 2.89-5.36 3.44-.55-2.42-1.3-4.68 1.52-6.1z"/><path class="cls-1" d="M260.57 128.4c.1 13.14 3.36 26.07 2.53 39.29a89.57 89.57 0 01-2.38 16.31c-4.57 18.11-20.59 17.75-31 11.76s-14.36-16.94-17.19-27.77c-2.17-8.3-2.73-17-4-25.55-1.54-3.75.15-6.66 2.47-9.4 5.51-12 5.24-24.14 1-36.41-.28-1.09.28-1.58 1.27-1.77 7.54 5.34 11.11 13.65 15 21.41 4.41 8.75 11.37 12.57 20.44 13.74a9 9 0 007.11-2.23c1.77-1.56 3.48-1.84 4.75.62z"/><path class="cls-1" d="M264.2 91.61a30.63 30.63 0 01-1.21 9.52c-1.69 1.9-4.27-.21-5.83 1.28 3.41-1.38 5.37-.27 3.92 3.56-1.22 3.22-.21 6.62-1.57 9.7-3.27 4.51-7.58 5.17-12.53 3.38-3.68-1.33-7.38-2.74-11.14-3.76-10.43-2.83-16.29-10.51-21.41-19.12-1.37-2.66-2.87-5.23-5.43-7-.2-.62-.39-1.23-.59-1.84 1.39-4-2-8.23.75-12.11 9.42 1 15.36-4.13 20.25-11.26 4.43-6.48 12.32-8.32 18-13.23 2.65-2.29 4.94 1 7.31 2.07 4 3.9 5.82 9 7.68 14.06.64 1.72.44 4 2.89 4.58l.12 2.83a74.93 74.93 0 01-1.21 17.34z"/><path class="cls-2" d="M299.55 213.3c2.29 4.23 5.28 8.11 6.51 12.88.54 2.07 1.46 4.11-.64 5.85a6.06 6.06 0 01-4.35 3.57c-12.33 1.72-24.68 3.05-37.08.6-4.65-2.85-8.15-7.18-13-9.86-2.46-1.37-2-3.8-.89-6 7.89-1.23 15.75 2.13 23.64.11 7.4-2 15-3.24 22.11-6.17z"/><path class="cls-6" d="M213.27 95.34l1.37-.07c7.55 14.72 22.42 17.26 36.16 21.6 3 .94 5.19-1.23 7.47-2.71a2.51 2.51 0 013.51 0 25.06 25.06 0 00-1.21 14.28c-11.28 6.29-18.79 5.73-28.83-2.17-1.86-1.46-3.87-3-4.61-5.23a70.84 70.84 0 00-12.51-22.43 12.94 12.94 0 01-1.35-3.27z"/><path class="cls-2" d="M250.12 220.33c.45 4.32 4.12 5.73 7.06 7.84 2.34 1.68 5.24 2.57 7.05 5-.53 1.16-1.53 2.16-2.68 2-5.72-.9-11.67-1.42-15.38-6.85a20 20 0 00-11-8.9c5-1.9 6.95-1.48 7.78-.61.39.4.54.91 1.3 1.41a5.61 5.61 0 003.57.61 9 9 0 002.3-.5z"/><path class="cls-6" d="M260 101.87c-2 3.73-3.11 6.73-6.73 6.06-2-.38-4-1.24-4.24-3.38a1.87 1.87 0 01.21-1.45c.71-.92 2.52-.44 4.26-.3a15.47 15.47 0 006.5-.93z"/><path class="cls-2" d="M230.08 353.47l-1.34.09c-2.44-14.32-9-27.5-11.5-41.79-.62-3.61-3-2.93-5.17-3.14a92.8 92.8 0 00-20.94 0c-8.09-.73-10.52-2.73-11.78-10.32-1-5.77-1.62-11.6-2.36-17.41-1.29-10.05 2.6-17.91 10.32-24.12 3.21.17 6.17-3.09 9.54-.69l6.65-5.56c3.83-2.33 7.73-4.54 11.74-6.56 5.12-.89 10.59 0 15.3-3 9.35.19 18.85-2.31 27.89 2.37 7.49 3.87 14.54 8.09 17 16.82 1 3.4 1.72 7.16-3 8.74l-1.26-.36c2.31 4.65-1.68 6.44-4.26 8.29-6.85 4.94-14.67 8.21-22.34 11.63a25.74 25.74 0 00-4.89 2.68 11.71 11.71 0 01-12.63 1c-1.2-1-1.28-3.77-4-2.56a2.81 2.81 0 01-2.13-1 5.69 5.69 0 011.12 2.11c0 1.19 0 2.43 1.12 3.24a5.92 5.92 0 012.22 2.14c.64 2.33.74 4.77 1.45 7.08 1.06 2.24 2.45 4.33 3.18 6.73a15.93 15.93 0 012.21 8.62c0 3.75 2.09 7.22 1.49 11.05a54.52 54.52 0 00-.84 11.12v2.87c-.46 3.46 1 7.46-2.79 9.93z"/><path class="cls-5" d="M239.49 288.75c5.92-4.16 12.66-6.8 19-10.17 4.84-2.56 9.6-5.2 12.75-9.91 3.06-5.34 2.27-10.11-2.75-15-7-6.85-15.57-10.21-25.2-10.84-4.46-.3-9 0-13.44.07-.52-3.43 2.68-1.89 3.87-2.88-.07.05-.28.14-.35.18a68.81 68.81 0 00-17.6 7.27L205 253.06c-2.49 1.75-4.6 4.28-8.1 3.95-3.21.33-6.45 2.07-9.61-.21l3.51-3.58c.61-1 1.25-1.92 2.57-2 13.76-8.64 27.91-16.53 43.59-21.2a85.1 85.1 0 019.19-1.73c6.37.32 11.61 4.84 18.06 4.87 12.42 3.24 24.78.86 37.15-.43 1.36-.15 2.7-.46 4-.7 2.91 1.55.56 3-.27 4.13a103.73 103.73 0 00-7.93 13.6c-3.4 6.73-5.45 13.7-4.81 21.34a10.72 10.72 0 01-1.18 6.79c-.37 3-2.51 4.64-4.88 6.07-13 5.09-27 5.76-40.55 8.72-4.87 1.08-6.03 0-6.25-3.93zM224 403.11c-.1 2-.21 4.33-2.46 4.8-2.77.56-3.5-2.69-5.46-3.81-2-5.23-6.53-8.53-9.79-12.8l2.27-1.34A4.4 4.4 0 01211 389a11.6 11.6 0 019.84 8.78 10 10 0 003.16 5.33z"/><path class="cls-5" d="M211 390h-2.44c0-.73.07-1.46.1-2.18 11.79-2 14.63.26 17.54 14.09l-2.12-1.16c-2.14-.31-2.82-1.86-3.45-3.69-1.53-4.56-4.58-7.2-9.63-7.06z"/><path class="cls-1" d="M334.82 359.63c-7.84-.75-15.8.7-23.59-1.18 4.93-3.81 3.68-7.92 1.48-12.9-3.17-7.21-6.59-14.47-7.21-22.56 0-2.05-.89-3.87-1.41-5.78a15 15 0 01-.32-3.59c.32-1.93 2-3 2.85-4.6a103.78 103.78 0 0018.67-2.28c4.23-.88 6.88.51 9 4.54 4.88 9.45 5.35 19.54 5.22 29.76-.06 4.49-.75 9-1 13.47-.11 2.64-.76 4.63-3.69 5.12z"/><path class="cls-9" d="M341.79 418.54h1.5a3.27 3.27 0 011.26 1c2.32.81 4.91 1 7.11 3.1-6 5.21-11.88 1.9-17.73.38l2.29-4.6c1.9-2.35 3.78-2.06 5.57.12z"/><path class="cls-2" d="M341.79 418.54l-5.57-.1c-3.05-4.36 1.48-4.49 3.4-6.08 3.79.98 2.2 3.86 2.17 6.18zm2.76 1.02l-1.26-1c.18-2.16-1.19-5.35 1.41-6.06a4.54 4.54 0 015.75 3.83c-2.11.82-4.84.49-5.9 3.23z"/><path class="cls-9" d="M348.21 431.16a25.7 25.7 0 01-11.16-.55c3.85-3.5 7.01-3.17 11.16.55z"/><path class="cls-6" d="M231.71 176.27c7 1.74 9 9.4 16 8.82.52 1.91-1 3.25-1.42 4.88-.51 2-2 2.81-3.07.54-2.5-5.43-7.13-9.13-11.51-14.24z"/><ellipse class="cls-5" cx="51.95" cy="346.94" rx="49.95" ry="73.33"/><ellipse class="cls-2" cx="61" cy="348.63" rx="47.76" ry="71.64"/><path class="cls-1" d="M79.26 340.2l495.87 28.09c6.2.92 10.33 6.18 9.83 11.24-.36 3.69-3.15 7-7 8.43l-498.7-29.5a9.44 9.44 0 010-18.26z"/><path class="cls-2" d="M554.06 379.53c-2.28 44.2-9.45 95.76-14 95.52s-6.51-52.41-4.22-96.92c2.28-44.2 9.45-95.76 14.05-95.52s6.46 52.39 4.17 96.92z"/><path class="cls-5" d="M535.79 376.72a661.34 661.34 0 002.81 98.33h-11.23a389.62 389.62 0 0111.22-194.63 11.12 11.12 0 018.44-.62 10.49 10.49 0 014.22 2.81 7.37 7.37 0 00-2.81 1.4 8.13 8.13 0 00-2.81 5.62 660.06 660.06 0 00-9.84 87.09z"/></svg>