<svg version="1.1" id="Слой_1" xmlns="http://www.w3.org/2000/svg" x="0" y="0" viewBox="0 0 585 639" xml:space="preserve"><style>.st141{fill:#2ab3ba}.st355{fill:#6dcfd1}.st356{fill:#2b747c}.st359{fill:#3fa5b0}.st364{fill-rule:evenodd;clip-rule:evenodd;fill:#6dcfd1}</style><path d="M238.58 624.37c6.3-3.82 12.26-8.52 17.85-14.1 11.38-11.38 19.08-24.3 23.11-38.74 2.2 3 3.3 6.45 3.3 10.35v38.73c0 4.88-1.72 8.98-5.17 12.32-3.33 3.45-7.45 5.18-12.32 5.18h-9.64c-4.77 0-8.87-1.73-12.32-5.18-2.53-2.44-4.14-5.3-4.81-8.56zM10.41 570.72c3.98 14.75 11.79 27.93 23.39 39.54 5.35 5.34 11.02 9.87 17.05 13.56-.62 3.51-2.26 6.54-4.91 9.11-3.33 3.45-7.44 5.18-12.31 5.18H24c-4.78 0-8.88-1.73-12.33-5.18-3.44-3.34-5.18-7.44-5.18-12.32v-38.73c-.01-4.27 1.3-7.98 3.92-11.16z" fill-rule="evenodd" clip-rule="evenodd" fill="#2b747c"/><path class="st364" d="M81.8 235.18V51.25c0-16.04 10.36-29.05 23.14-29.05h79.44c12.77 0 23.14 13.01 23.14 29.05v183.93h21.81V31.55c0-17.21-13.95-31.16-31.17-31.16H91.15c-17.21 0-31.17 13.95-31.17 31.16v203.63H81.8z"/><path class="st364" d="M289.92 542.85c0 39.55-32.06 71.62-71.61 71.62H71.61C32.06 614.47 0 582.4 0 542.85V239.69c0-39.55 32.06-71.61 71.61-71.61h146.7c39.55 0 71.61 32.06 71.61 71.61v303.16z"/><path d="M289.92 560.42c0 37.61-32.06 68.11-71.61 68.11H71.61C32.06 628.53 0 598.04 0 560.42V272.08c0-37.61 32.06-68.11 71.61-68.11h146.7c39.55 0 71.61 30.5 71.61 68.11v288.34z" fill-rule="evenodd" clip-rule="evenodd" fill="#3fa5b0"/><path class="st356" d="M209.68 625.88H80.24c-41.13 0-74.6-33.99-74.6-75.76V277.68c0-41.77 33.47-75.76 74.6-75.76h129.44c41.13 0 74.6 33.99 74.6 75.76v272.43c0 41.78-33.46 75.77-74.6 75.77zM80.24 224.74c-28.55 0-51.78 23.75-51.78 52.94v272.43c0 29.19 23.23 52.94 51.78 52.94h129.44c28.55 0 51.78-23.75 51.78-52.94V277.68c0-29.19-23.23-52.94-51.78-52.94H80.24z"/><path class="st359" d="M581.13 280.74s-1.12 299.7-13.55 299.7l-345.87-39.11c-12.41 0-22.48-10.85-22.48-24.24l-41.14-230.02c1.77-14.95 51.21-46.68 63.62-46.68h323.16c12.42 0 36.26 40.35 36.26 40.35z"/><path class="st356" d="M564.69 256.7H197.64l5.63-4.4h357.81z"/><path class="st355" d="M585 556.84c0 13.39-10.05 24.24-22.47 24.24H179.54c-12.42 0-22.47-10.85-22.47-24.24v-262.5c0-13.38 10.05-24.24 22.47-24.24h382.99c12.42 0 22.47 10.86 22.47 24.24v262.5z"/><path class="st359" d="M173.47 580.43h394.12v21.11H173.47z"/><path class="st355" d="M567.59 612.16c0 14.15-11.48 25.63-25.63 25.63-14.15 0-25.62-11.48-25.62-25.63 0-14.16 11.47-25.63 25.62-25.63s25.63 11.47 25.63 25.63z"/><path class="st141" d="M555.7 612.16c0 7.59-6.15 13.74-13.74 13.74-7.58 0-13.74-6.15-13.74-13.74s6.15-13.74 13.74-13.74c7.59-.01 13.74 6.15 13.74 13.74z"/><path class="st355" d="M228.87 612.16c0 14.15-11.48 25.63-25.63 25.63-14.15 0-25.63-11.48-25.63-25.63 0-14.16 11.47-25.63 25.63-25.63 14.15 0 25.63 11.47 25.63 25.63z"/><path class="st141" d="M216.98 612.16c0 7.59-6.15 13.74-13.74 13.74s-13.74-6.15-13.74-13.74 6.15-13.74 13.74-13.74c7.59-.01 13.74 6.15 13.74 13.74z"/><path class="st355" d="M333.08 254.65v-29.83c0-5.68 4.61-10.28 10.29-10.28h75.59c5.68 0 10.29 4.61 10.29 10.28v29.83h21.37v-40.11c0-8.2-6.65-14.86-14.86-14.86H326.57c-8.21 0-14.86 6.65-14.86 14.86v40.11h21.37z"/><path class="st356" d="M418.6 247.22h43.83v12.63H418.6zm-113.73 0h43.82v12.63h-43.82zm59.11-31.93c0 2.86-3.06 5.19-6.83 5.19s-6.83-2.32-6.83-5.19v-17.11c0-2.86 3.06-5.19 6.83-5.19s6.83 2.32 6.83 5.19v17.11zm13.65 0c0 2.86-3.06 5.19-6.83 5.19s-6.82-2.32-6.82-5.19v-17.11c0-2.86 3.05-5.19 6.82-5.19 3.77 0 6.83 2.32 6.83 5.19v17.11zm13.66 0c0 2.86-3.05 5.19-6.82 5.19-3.78 0-6.83-2.32-6.83-5.19v-17.11c0-2.86 3.05-5.19 6.83-5.19 3.77 0 6.82 2.32 6.82 5.19v17.11zm13.65 0c0 2.86-3.05 5.19-6.82 5.19-3.77 0-6.83-2.32-6.83-5.19v-17.11c0-2.86 3.06-5.19 6.83-5.19s6.82 2.32 6.82 5.19v17.11zm13.66 0c0 2.86-3.06 5.19-6.83 5.19s-6.83-2.32-6.83-5.19v-17.11c0-2.86 3.06-5.19 6.83-5.19s6.83 2.32 6.83 5.19v17.11z"/></svg>