<svg version="1.1" id="Слой_1" xmlns="http://www.w3.org/2000/svg" x="0" y="0" viewBox="0 0 585 1487" xml:space="preserve"><style>.st283{fill:#950000}.st284{fill:#f50000}.st303{fill:#f95f53}.st316{fill:#d00707}.st317{fill:#ab9db8}.st318{fill:#381a12}</style><path class="st303" d="M162.85 26.63c3.28-3.64 7.97-3.57 12.22-4.66 1.6 3.79 5.1 3.7 8.36 4.11 9.07 9.08 14.53 20.19 18.12 32.36 1.27 4.3 3.5 8.18 6.56 11.38 7.86 8.2 18.73 6.12 21.85-4.01.79-5.12-.47-9.89-1.93-14.77-4.3-14.31-12.52-25.61-24.88-33.93 3.73-2.21 7.93-1.45 11.94-1.9 3.2 2.92 7.36 3.49 11.28 4.66 3.19 5.51 6.87 10.81 9.46 16.59 3.44 7.68 5.49 16 9.1 23.58 5.11 10.73 16.42 11.73 24.23 2.69 2.8-2.45 2.21-5.67 1.23-8.42-5.57-15.62-8.99-32.68-25.93-41.13 4.67-2.46 9.69-1.03 14.55-1.32-1.11 6.79 4.9 6.24 8.46 8.23 4.7 12.67 8.93 25.54 14.25 37.94 4.24 9.88 12.31 11.58 19.59 5.23 3.65-2.28 3.43-6.17 2.3-9.08-4-10.28-6.56-21.18-12.87-30.51-1.99-2.95-4.98-4.32-7.66-6.31-6.71-4.97-15.15-2.39-22.16-5.66 22.97-1.76 45.58-.95 65.82 11.81 4.76 3 7.35 8.62 9.97 13.72-.24 4.02 2.18 7 3.97 10.24 2.99 7.41 4.96 15.56 13.73 18.72 2.65 3.87 5.71 2.3 8.78.67 6.97 9.06 11.98 18.76 10.13 30.73-2.43-2.33-4.6-4.97-8.19-5.69-17.41-3.51-34.9-2.74-52.41-1.57 7.89 2.29 16.2-.66 23.99 2.43-12.22.29-24.45.51-36.67.95-2.11.08-4.81-1.07-6.21 1.93-3.01 6.44 4.14 18.08 11.15 17.78 18.02-.77 36.03-1.13 54.03.5 1.59-.02 3.18-.05 4.77-.07 18.15 5.11 18.66 5.68 16.47 18.58-7.24-4.16-15.12-4.85-23.23-4.3-18.03-3.9-36.22-1.29-54.34-1.24-1.86.01-2.51 1.98-2.45 3.83.75 4.65 1.64 9.29 2.23 13.96.65 5.1 3.46 6.27 8.32 6.2 18.54-.26 37.09-.07 55.64-.05 1.63-.65 3.26-1.3 4.88-1.94 1.36 2.97 4.45 2.58 6.83 3.3 9.57 2.85 11.97 7.02 9.72 17.53-4.09-2.48-8.43-3.98-13.23-4.85-18.57-3.36-37.23-.74-55.83-1.41-2.29-.08-3.9.92-4.46 3.28-.79.26-1.58.51-2.36.77-1.68-.11-3.67-.94-4.17 1.75.58 4 1.37 7.99 1.7 12.01.38 4.57 2.36 6.32 7.12 6.28 18.95-.16 37.91.06 56.86.14 1.91-.72 3.81-1.44 5.72-2.17 7.67 3.34 18.45 3.84 15.42 16.94-23.68-5.36-47.64-1.46-71.47-2-2.29-.05-2.29 1.9-.91 3.54 1.06 9.33 7.73 14.6 15.37 16.99 13.99 4.37 28.56 4.95 43.04 1.5l3 .12c2 2.53 4.96 1.64 7.53 2.03 8.72 1.32 12.68 5.77 9.91 14.77-7.67-.74-15.33-1.95-23.01-2.1-11.22-.23-22.77-2.31-33.32 3.78-5.78 2.88-8.85 8.01-11.66 13.54-3.07 6.04-3.08 9.13 5.22 8.65 16.53-.95 33.09-1.25 49.64-1.82l.8-.35.87.08c4.24.71 8.58 1.07 12.71 2.2 6.73 1.84 9.03 6.28 6.42 12.96-24.61-1.35-49.24-.57-73.87-.26-2.79.04-5.5.06-6.49 3.43-1.4 5.17.67 10.01 1.3 15 .52 4.12 2.4 5.82 6.61 5.66 19.57-.73 39.15-1.3 58.73-1.93-.54-2.45 1.47-1.68 2.58-2.05 4.69 4.57 10.64 3.9 16.42 3.95 4.92 16.54 3.58 18.01-13.31 14.64-.96-.19-1.98-.04-2.98-.04l.26.07c-1.82-2.62-3.95-2.33-6.22-.66-16.28.63-32.63-.19-48.81 2.39-3.48.55-10.09-1.2-7.72 5.61 1.89 5.43-3.03 15.79 9.6 15.07 18.98-1.08 38-1.49 57-2.18 19.46.43 20.07.86 20.69 14.53-14.88-.02-29.77-.11-44.65-.01-3.12.02-7.07-1.39-8.51 3.29-6.79.41-13.57 1.03-20.36 1.18-5.71.12-7.57 2.05-6.62 8.13 1.37 8.74 3.52 14.97 14.44 12.3 3.89-.95 8.16-.21 12.22-.54 13.49-1.11 27.17 1.7 40.51-2.1.36-.06.7-.17 1.03-.33 4.52 3.95 13.87-.53 15.48 7.08 3.41 16.08 4.66 32.46.49 48.74-.05-6.34.86-12.89-.43-18.97-1.15-5.42-1.97-13.9-11.87-9.48-5.19 3.49-3.87 8.98-3.94 13.82-.25 17.42 1.16 34.96-4.16 51.97.69 4.01-.87 7.02-3.56 10-6.53 7.25-12.74 14.79-19.08 22.21-2.7 1.31-4.85 3.23-6.41 5.8-.77.44-1.54.87-2.31 1.3.21.22.52.67.6.64.78-.38 1.52-.85 2.27-1.29 1.3-.11 2.6-.21 3.9-.32.21 3.07-1.55 4.92-3.96 6.35-14.03 5.09-24.93 17.3-40.88 18.02-29.7 9.7-60.18 13.48-91.35 12.39-19.11-.67-19.12-.57-12.79 18.74.93 9.23 5.16 17.89 4.77 27.35-12.67-4.47-24.71-5.48-35.43 5.94 16.42 5.71 27.52 29.95 24.05 50.64-9.94-1.7-22.49-5.41-34.76-13.73-2.23-1.51-4.3-3.08-6.21-4.65 2.73-.46 4.19-2.08 4.11-4.85-.23-8.04.52-16-1.47-24.11-2.93-11.95-7.96-23.62-6.66-36.38 14.6-.37 19.16-12.99 26.72-21.92 3.33-2.5 6.13-5.29 5.64-10-.33-3.24 1.84-4.73 4.25-6.27 33.16-21.22 40.64-53.02 36.75-89.5-.21-2-1.53-2.88-3.17-3.53-4.55-11.91-13.64-14.31-23.4-6.29-6.08 4.99-7.58 11.68-7.78 19.06-.66 25-4.9 48.7-24.74 66.58-2.02-1.18-4.76-1.09-6.07-3.49 3.26-7.16-2.44-11.09-6.05-15.29-10.79-12.55-25.69-19.8-38.87-29.29-10.65-7.66-23.5-11.89-32.88-21.43 1.1-1.25 2.08-2.62 3.31-3.71 4.33-3.86 4.91-8.98 1.31-12.6-4.17-4.2-6.8 1.47-9.72 3.66-1.89 1.42-3.53 3.17-5.28 4.77-3.53 2.74-6.21 1.36-8.53-1.77 3.87-3 2.12-7.44 2.88-11.23 2.31.51 2.92-1.13 3.51-2.79 3.34-2.71 6.95-5.16 9.98-8.18 5.99-5.97 1.49-12.6.63-18.96-.23-1.68-1.35-3.97-2.96-3.39-5.17 1.86-9.4 5.1-11.29 10.63-.11.32-.16.65-.25.98-4.09 1.2-3.66 4.89-4.36 7.96-7.86-6.6-2.09-15.24-3.41-22.82 2.16.42 3.56-.66 4.65-2.36 6.6-1.55 10.58-7.04 11.85-12.33 1.36-5.68 2.09-15.09-3.81-17.18-4.5-1.59-10.58 4.68-11.15 11.82-3.23-.67-4.69 1.39-5.91 3.83-5.67-7.67.8-15.21.23-22.82.54.18 1.1.34 1.66.47 6.84-.12 10.18-5.82 12.58-10.28 3.24-6.03 2.24-14.67-1.92-19.12-3.4-3.64-6.53 4.75-10.65 6.47-1.15.48-1.92 1.86-2.86 2.82-3.25.64-3.92 3.95-6.02 5.78-1.98-6.83-2.39-13.61.82-20.23.7-.83 1.4-1.67 2.09-2.5 4.94 1.13 5.95-3.65 8.39-5.94 4.57-4.29 5.8-21.4 1.4-23.07-6.98-2.64-9.25 5.38-13.66 8.66-8.59-2.12-8.92-4.48-2.09-14.85 4.18-2.41 7.1-6.11 9.68-9.99 3.11-4.69 2.1-20.12-1.41-20.67-6.96-1.09-8.86 5.62-12.25 9.82-.2.25-.25.62-.37.93-2.86 1.02-3.56 3.48-4.06 6.08-4.24-5.85-1.5-12.38-1.84-18.61 2.12.03 3.24-1.12 3.64-3.11 5.04-2.54 8.1-7.07 10.55-11.76 3.42-6.53 2.75-15.37-1.97-18.72-5.36-3.8-8.74 4.56-12.34 8.53-.21.23-.23.62-.35.94-3.74 1.36-3.94 5.29-5.77 8.02-4.25-6.06-1.47-12.78-1.81-19.2 2.66-1.16 3.63-3.59 4.53-6.08 5.55-.3 7.28-5.41 10.18-8.66 5.61-6.31.75-13.45.28-20.22-.06-.83-2.22-2.41-2.83-2.17-5.71 2.23-8.54 7.09-10.6 12.53-.12.31-.15.66-.22.98-2.75.97-3.74 3.13-3.94 5.82-7.38-11.25-.43-23.44-2.3-35.05l-.6-4.93c4.46-27.8 14.31-53.08 33.6-74.23 8.85-9.7 19.51-16.69 30.81-22.95 8.21 2.65 17.01-.84 25.17 2.42 8.25 6.78 13.02 16.18 18.9 24.78 7.49 10.96 22.63 10.45 30.22-.73 2.67-3.51 1.22-7.02.26-10.69-3.94-15.02-11-27.76-25.14-35.51zm-2.2 327.16l.1-.07c-4.23-.41-8.34-.54-10.26 4.42l.24-.17c-5.46-.32-10 2.74-13.94 5.43-6.06 4.14-6.33 11.21-3.69 17.5 1.65 3.92 5.47 4.9 9.08 1.27 4.66.36 8.65-1.86 12.52-3.78 44.34-22.03 92.28-30.2 140.64-36.79 17.98-2.45 18-2.32 16.52-19.29-.06-.67.07-1.36.12-2.04-4.47-7.65-10.68-1.53-15.5-1.19-33.89 2.39-67.33 7.93-100.04 17.39-2.81.81-6.4.39-7.1 4.51-2.49 1.73-5.2 2.69-8.27 2.39-6.55.6-12.53 2.32-16.31 8.36l.09-.07c-1.9-.26-3.72-.39-4.2 2.13zm110.26 153.2l-.01.01c4.84.72 6.03-3.48 8.39-6.17 21.15-24.1 20.03-53.21 17.99-82.29-.68-9.66-7.19-12.76-17.67-10.15-7.24 3.45-10.26 9.26-10.17 17.2.08 7.45-.74 14.91-.55 22.36.67 27.01-6.55 50.86-26.97 69.68-.81.75-.82 2.38-1.2 3.6-2.51.76-5.98 1.04-5.38 4.64.52 3.1 3.84 3.33 6.46 3.69 11.19 1.55 26.66-10.47 29.11-22.57zm31.11-483.02c2.99 7.02 5.87 14.1 9.01 21.05 2.51 5.56 4.64 11.48 8.19 16.31 3.44 4.68 8.45 8.78 13.66 1.17 3.25-2.98 1.29-6.09.39-9.29-2.2-7.84-6.16-14.9-9.44-22.27-3.89-8.71-10.71-12.66-19.74-13.35-2.02-.15-5.2-2.22-6.01 1.19-.55 2.29 1.52 4.27 3.94 5.19zM217.99 214.1c-5.08.14-10.08.75-15.13 1.46-31.07 4.36-56.98 21.12-84.16 34.74-6.78 3.39-9 10.47-6.25 17.56 1.48 3.83 4.88 9.75 9.42 1.57 3.73 1.99 6.42-.81 9.44-2.06 28.82-11.87 56.65-26.47 88.45-29.77 14.84-1.54 29.54-4.54 44.27-7.11 13.29-2.32 20.82-10.45 22.46-23.9-12.59-1.63-24.93 2.01-37.42 1.77-10.44 1.47-21.19 1.26-31.08 5.74zm0 38.78c-35.05 2.48-64.74 18.97-94.11 36.18-3.19 1.87-5.67 4.95-5.9 9.1-.24 4.27.59 8.48 4.15 10.96 3.49 2.43 6.41.62 8.16-3.04 3.89 2.05 7.13-.13 10.59-1.48 34.66-13.61 68.46-29.91 106.63-32.16 14.87-.88 29.65-3.32 44.47-5.1 1.91-.23 4.47.62 5.5-1.6 1.27-2.75-1.19-4.69-2.88-5.83-6.23-4.2-11.08-10.98-19.61-11.13-5.79-4.95-12.08.29-18.36-.91-13.14-2.52-26.12.44-38.64 5.01zm63.43 107.11c-6.59-1.3-12.83 1.16-19.22 1.87-40.37 4.53-78.5 16.31-114.19 35.85-5.06 2.77-8.98 6.39-9.65 12.35-.8 7.17 3.79 10.94 10.22 8.71 3.63 1.42 6.54-.8 9.69-1.9 23.67-8.29 46.14-19.9 70.86-25.33 28.23-6.21 57.12-8.05 85.48-13.28 2.54-.47 7.41 1.05 6.44-3.98-1.1-5.72.27-12.4-5.23-16.79-11.84-4.35-23.08-.37-34.4 2.5zm73.57 145.34c-1.28 2.56-6.07 2.23-5.27 7.01 4.7.49 8.27-2.23 11.68-4.67 33.23-23.82 45.92-56.44 40.52-96.46-.91-6.77-2.74-13.88-12.44-12.48-9.17 3.34-7.78 11.51-7.28 18.22 2.41 33.09-5.55 62.79-27.21 88.38zm-40.78 13.97c-2.4 1.67-6.67 3.04-5.05 6.42 1.77 3.68 5.34.12 8.12-.18.97-.1 1.98-.59 2.8-1.16 25.5-17.7 45.71-39.61 50.85-71.37 2.14-13.24.9-27.11.43-40.67-.37-10.61-7.21-14.84-18.06-12.23-5.38 2.39-5.37 6.65-5.04 11.86 1.76 28.21 3.82 56.5-15.46 80.83-6.69 8.45-12.43 17.65-18.59 26.5zm-36.84 1.9c-.54 3.15-5.18 3.37-5.08 7.01 10.39 2.47 15.06 1.75 21.36-4.06 30.2-27.89 48.79-60.65 42.7-103.52-.89-6.25-.83-13.25-8.7-15.73-10.95-3.65-17.22 1.21-15.83 13.87 4.33 39.6-5.27 74.24-34.45 102.43zM115.78 232.4c3.42 1.53 6.02-.87 8.53-2.24 46.8-25.48 97.84-34.25 150.07-38.46 13.87-1.12 13.62-1.18 10.83-14.24-1.09-5.11-3.37-6.57-8.36-6.18-4.69.37-9.46-.32-14.19-.55-9.25-1.75-18.01 1.95-27.04 2.4-43.54 2.18-83.01 16.99-120.43 38.35-6.96 3.97-9.83 10.12-9.7 17.79.06 3.33 2.15 5.78 5.38 6.76 3.02.93 4.37-.94 4.91-3.63zm20.72 110.46c5.2 2.58 9.06-1.35 13.25-2.99 21.48-8.4 41.76-20.24 64.85-24.04 27.5-4.53 55-9.16 82.74-12.15 3.87-.42 12.26 1.58 9.15-7.59-2.04-6.02 2.29-17.36-11.75-14.56-13.28 2.65-26.79 4.13-40.2 6.12-2.94-2.67-6.41-1.61-9.73-1.3-39.79 3.72-75.21 20.28-110.49 37.42-8.03 3.9-9.6 9.84-8.5 17.59.42 2.94 1.91 5.21 4.97 5.77 3.25.58 5.2-.99 5.71-4.27zm-32.86-184.24c1.34.3 2.67.6 4.01.89.56-.18 1.12-.37 1.68-.55 3.17-1.87 6.3-3.82 9.53-5.59 40.78-22.32 85.27-30.84 130.85-35.49 21.02-2.14 21-2.31 19.19-22.27-.59-2.66-2.16-4.51-4.93-3.62-6.55 2.12-13.79-.16-19.8 2.12-7.26 2.75-16.36-2.84-22.05 5.32-2.73.1-5.47.19-8.2.29-.83-.5-1.73-1.52-2.49-1.43-39.57 5.05-76.64 17.05-109.96 39.54-6.58 4.44-9.72 10.27-8.12 18.22.53 2.62.95 5.77 4.06 6.49 2.98.7 5.15-1.01 6.23-3.92zm171.48-25.83c-3.1-4.26-7.49-2.44-11.27-2.01-14.46 1.66-28.83 4.21-43.32 5.52-39.68 3.58-76.13 16.33-109.74 37.49-5.52 3.47-10.82 7.27-11.74 14.51-1.16 9.09 2.79 11.82 12.04 8.39 1.59-.5 3.31-.76 4.76-1.53 44.98-24.13 93.29-36.19 143.89-40.28 20.81-1.68 20.79-1.94 15.38-22.09z"/><path class="st284" d="M389.9 499.34c16.31-21.84 21.94-26.98 27.87-39.91 5.94-12.97 8.01-24.69 8.85-32.12 4.17-16.29 2.92-32.66-.49-48.74-1.61-7.61-10.96-3.13-15.48-7.08 4.26-7.15 13.76-11.44 11.93-21.91-.63-13.67-1.24-14.1-20.69-14.54.04-7.05-2.25-13.63-4.11-20.3.99.01 2.02-.15 2.98.04 16.89 3.37 18.23 1.9 13.31-14.64 0 0 .2-.14.19-.14.61-.28 1.22-.56 1.83-.83.86-.38 1.72-.77 2.58-1.15 14.99-.9 25.8 5.84 33.46 18.34 2.06 17.64-3.28 34.48-5.98 51.55-2.93 18.55-6.54 36.77-3.49 55.8 2.46 15.36.43 31.01-5.08 45.38-10.42 27.15-12.65 55.13-10.56 83.57 2.36 32.28-1 64.87 5.77 96.91 2.82 13.34 3.46 27.02 4.26 40.66 1.58 26.75-4.2 52.25-12.14 77.39-14.64 46.3-15.74 93.43-13.22 141.62 3.25 62.16 17.82 121.24 39.24 179.07 16.54 44.64 29.46 77.12 35.03 89.79 26.9 61.13 62.5 157.34 97.67 307.89H359.3c-7.37-251.56-12.87-432.36-13.97-442.9-.14-1.31-.91-7.3 2.54-10.68 1.88-1.84 4.9-2.51 9.37-2.4 4.59.12 18.02-12.97 18.44-17.37.22-2.32 1.04-6.12-1.23-6.51-5.99-1.01-4.8-8.01-9.33-9.82-.02-9.24-.03-18.48-.05-27.72 6.08-3.79 5.98-9.08 3.6-14.92-1.95-9.62-7.1-18.31-7.6-28.42-2.8-56.7-5.82-113.38-8.77-170.07.17-6.59 4.22-11.95 5.67-18.17 1.44-6.14 1.2-10.13-.84-13.48-.36-.59-1.44-2.24-6.45-5.46-2.95-1.9-7.26-4.34-12.94-6.47l-21.57-21.57c3.51-5.08 7.01-10.16 10.52-15.25 8.46-.35 11.81-8.37 18.07-12.03 6.76-2.16 10.91-7 14.82-12.78 9.33-13.76 4.38-28.16 2.4-42.24-1.05-7.41-1.97-15.65-8.99-20.83.71-24.46 7-41.36 12.41-52.06 4.15-8.25 10.93-17.33 24.5-35.5zM165.25 951.46c-10.25-9.95-20.63-19.77-30.73-29.87-24.07-24.08-43.16-51.73-57.81-82.41-9.83-20.59-22.98-38.71-39.96-53.78-27.67-24.57-37.59-54.22-27.4-90.11 3.15-11.11 2.94-22.1.37-33.31-4.9-21.33-.58-40.07 20.72-50.83 18.37-9.27 23.48-26.16 18.88-46.26-2.68-11.72-7.47-22.59-12.9-33.22 2.96.5 4.43 2.8 6.22 4.87 16.31 18.8 35.13 34.22 56.94 46.61 10.98 6.23 23.67 10.04 32.66 19.68-1.69.18-3.39.62-5.06.5-20.02-1.46-30.93 11.14-37.92 26.88-6.9 15.54-6.9 31.01 5.63 45.5 10.81 12.5 24.94 18.01 39.25 23.93l-.09 2.33c-22.97.51-36.99 11.39-42.11 34.38-3.82 17.16-.38 28.07 14.31 37.5 2.26 1.45 5 2.35 5.53 5.51-9.68 1.04-18.78-5.03-29.54-3.47 2.54 3.17 4.88 3.32 7.21 3.7 12.11 1.99 24.21 4.06 36.31 6.1-25.15 6.79-48.8-.19-72.35-8.92 2.56 4.05 8.32 3.27 9.29 7.74 1.04 4.75 1.18 6.21 4.96 6.58 10.46 1.01 20.75 3.62 31.4 2.86 5.43-.38 10.9-.07 16.36-.07l.15 2.09c-10.11 5.25-20.21 10.5-30.59 15.9 5.94 1.43 11.49.16 16.71-2.11 6.84-2.97 13.62-6.17 20.12-9.83 10.51-5.92 20.24-7.48 31.57-.7 13.71 8.21 24.78 18.95 35.33 30.56 5.31 5.85 6.81 12.49 6.87 20.47.28 35.1-3.61 70.1-2.21 105.21.03.68-.02 1.36-.01 2.05.14 5.94-2.21 6.71-7.65 4.8-7.43-2.61-12.35-9.72-20.46-10.86zm-88.1-177.19c-.24-.09-.48-.18-.73-.27-.08.22-.27.56-.2.62.17.16.46.2.7.29.08-.21.15-.42.23-.64zm-5.97-1.71c-.5-.17-.82-.27-1.13-.38.06.22.11.44.17.66.25-.07.49-.14.96-.28z"/><path class="st283" d="M365.1 996.34c.89.56 11.12 7.24 10.57 16.32-.63 10.29-14.62 15.85-18.44 17.37a38.44 38.44 0 01-9.37 2.4L359.29 1486h-79.81l-20.91-451.58c-1.75.72-8.1 3.1-15.76.76-7.4-2.26-11.29-7.47-12.4-9.07 0 0 .38.3.38.29-1.74-8.43.49-14.68 9.41-17.28 16.17 5.34 32.28 10.95 49.51 11.85 6.58 1.1 12.9-1.02 19.24-1.99 18.07-2.77 36.44-3.61 54.26-8.05 1.63.17 1.83-.69 1.43-1.99.16-4.2.31-8.4.46-12.6z"/><path class="st316" d="M242.48 1114.32c3.15 21.36 3.49 23.78 4.85 32.45 5.1 32.45 11.47 64.71 17.83 96.94 2.34 11.87 1.89 24.19 6.1 35.7l8.22 206.57h-28.04c1.35-129.48-15.61-218.96-32.36-278.26-8.79-31.12-37.25-123.8-53.47-253.28-.16-1.26-.29-2.3-.37-3 8.11 1.14 13.03 8.25 20.49 10.87 5.44 1.91 7.79 1.14 7.65-4.8-.02-.68.03-1.37.01-2.05-1.4-35.11 2.49-70.11 2.21-105.21-.06-7.98-1.56-14.62-6.87-20.47-10.54-11.61-21.61-22.36-35.33-30.56-11.33-6.78-21.06-5.22-31.57.7-6.49 3.66-13.27 6.87-20.12 9.83-5.22 2.27-10.78 3.54-16.71 2.11 10.38-5.39 20.48-10.65 30.59-15.9l-.15-2.09c-5.45 0-10.93-.32-16.36.07-10.65.76-20.95-1.85-31.4-2.86-3.78-.37-3.93-1.83-4.96-6.58-.97-4.48-6.73-3.69-9.29-7.74 23.55 8.73 47.2 15.71 72.35 8.92 2.77-.16 3.99-1.74 4.03-4.4 26.86 1.23 51.24 11.6 76 20.57-2.28 30.62.95 61.2-3.33 92.1-4.12 29.73-.92 60.47-1.05 90.77-.03 6.3 2.68 10.1 8.67 12.06 2.83.93 5.36 2.77 8.03 4.2 2.61 1.3 5.23 2.6 7.84 3.9 7.19 46.65 12.73 83.8 16.51 109.44zM68.4 787.26c.26-.14.51-.28.77-.42-.22-.19-.43-.5-.67-.52-.24-.02-.51.24-.76.38.22.19.44.37.66.56zm43.01-349.93c9.39 9.54 22.23 13.77 32.88 21.43 13.18 9.49 28.08 16.74 38.87 29.29 3.61 4.19 9.31 8.13 6.05 15.29-9.36-6.21-18.53-12.74-28.13-18.56-13.03-7.9-23.34-5.45-32.68 7.06-8.58 11.49-7.86 24.72 2.79 33.8 9.06 7.72 18.94 14.48 28.45 21.66-8.49 5.79-16.99 3.64-24.83-.9-45.2-26.19-94.27-46.12-133.07-82.6 3.06-21.66 18.14-34.03 34.96-44.92 2.77-1.79 6.17-2.6 9.28-3.86 10.63-.13 20.89 1.09 30.77 5.74 5.16 2.43 9.63 6.64 15.74 6.92 2.32 3.13 5 4.5 8.53 1.77 1.39 5.35 4.46 8.49 10.39 7.88z"/><path class="st284" d="M1.74 463.8c38.8 36.48 87.87 56.42 133.06 82.59 7.85 4.55 16.34 6.69 24.83.91 7.13 3.8 14.26 7.6 21.38 11.4-1.3 12.75 3.73 24.43 6.66 36.38 1.99 8.11 1.24 16.07 1.47 24.11.08 2.77-1.38 4.39-4.11 4.85-3.54-.93-7.51-1.13-10.53-2.92-13.33-7.91-27.63-13.45-42.26-18.27-8.99-9.64-21.69-13.45-32.66-19.68-21.82-12.39-40.64-27.81-56.94-46.61-1.79-2.07-3.26-4.37-6.22-4.87-9.15-12.69-18.65-25.11-27.29-38.11-5.87-8.83-10.21-18.55-7.39-29.78zm44.42-57.03C38 345.01 20.31 285.01 12.22 223.25c-2.32-17.69-2.59-35.36 5.39-52.07 6.07-8.01 13.38-13.45 24.18-11.68-4.53 18.26-2.06 36.66.78 54.6 7.06 44.46 16.17 88.59 22.99 133.08 1.84 12 7.24 23.92 3.1 36.96-3.92 12.33-12.23 21.93-22.5 22.63z"/><path class="st283" d="M49.66 148.45c-2.94 3.46.86 11.73-7.88 11.05-10.79-1.77-18.1 3.67-24.18 11.68-6.67-4.01-5.09-9.29-1.58-14.12 5.88-8.1 12.95-14.21 24.2-12.42 2.81.45 5.88-.72 8.83-1.13.21 1.65.41 3.3.61 4.94zm402.46 167.92c-7.66-12.5-18.47-19.24-33.46-18.34-.61-8.86 7.91-6.17 11.82-8.27 8.12-4.36 16.28.49 21.66 6.41 5.2 5.71 5.06 13.45-.02 20.2z"/><path class="st317" d="M416.08 299.18c-.61.28-1.22.56-1.83.83.61-.28 1.22-.55 1.83-.83z"/><path class="st316" d="M132.25 602.83c14.63 4.82 28.92 10.37 42.26 18.27 3.03 1.79 7 1.99 10.53 2.92 4.01 3.39 7.96 6.91 13.79 6.33.82 2.26 2.51 3.06 4.8 2.83 6.65 5.06 13.69 9.15 22.39 9.23 6.88 6.46 15.04 10.25 24.33 11.72 5.98 5.37 12.76 9.22 20.73 10.75 8.17 4.12 16.34 8.23 24.51 12.35 2.78 2.02 5.56 4.05 8.33 6.07 16.83 11.56 29.04 20.17 31.74 22.24.61.47 1.46 1.71 2.38 3.25.63 1.06.81 2.24-.45 3.82-14.48-9.56-30.23-16.63-46.43-22.48-7.11-2.57-14.65-2.11-20.49 4.62-12.54 14.45-9.92 32.16 6.2 42.48 13.18 8.44 27.58 14.42 41.46 21.46-1.96 1.31-1.58 3.34-1.59 5.25-.71 1.82-1.42 3.64-2.13 5.45-2.81 1.05-5.62 2.1-8.44 3.15-.13 1.72-.25 3.44-.38 5.16-8.1-3.43-16.12-7.07-24.32-10.24-14.71-5.67-22.46-1.41-26.07 13.96-2.67 11.39.85 18.98 12.46 24.8 9.98 5.01 20.32 9.31 30.5 13.93-4.85 1.93-9.7 3.86-14.56 5.79a259.8 259.8 0 01-47.31-11.41c-14.28-4.9-23.14-9.93-30.68-12.66-24.76-8.97-49.15-19.34-76-20.57-5.7-3.52-12.05-.93-18.02-1.94-.53-3.16-3.27-4.06-5.53-5.51-14.68-9.43-18.13-20.34-14.31-37.5 5.12-22.98 19.14-33.87 42.11-34.38 15.73 6.04 31.47 12.07 47.2 18.11.31-.88.63-1.75.94-2.63-15.45-7.39-31.35-13.61-48.05-17.81-14.31-5.93-28.45-11.44-39.25-23.93-12.53-14.49-12.53-29.97-5.63-45.5 4.74-10.67 11.28-19.9 21.23-24.28 3.03-1.34 11.08-1.98 16.69-2.6 2.11-.24 3.86-.4 5.06-.5zm133.19 149.58c-1.21-1.13-2.43-2.17-4.02-.58l2.87 2c2.47 1.72 4.8 4.07 8.51 2.3-2.03-2.97-4.69-3.36-7.36-3.72zm-51.9-20.94c9.98 7.32 21.49 10.97 33.2 14.14-10.1-7.04-21.45-11.07-33.2-14.14zm-5.04-3.17c-5.39-2.98-10.68-6.15-18.07-5.58 9.01 5.34 11.07 6.06 18.07 5.58zm78.05 33.28c-2.83-3.22-6.24-4.72-11.42-3.85 3.76 3.43 7.22 4.64 11.42 3.85zm-30.66-11.79c-1.14-1.02-1.73-1.76-2.49-2.12-.36-.17-1.06.39-1.61.61.36.72.56 1.81 1.14 2.06.6.27 1.56-.25 2.96-.55z"/><path class="st303" d="M181.02 558.69c-7.13-3.8-14.26-7.6-21.38-11.4-9.51-7.18-19.39-13.94-28.45-21.66-10.66-9.07-11.37-22.31-2.79-33.8 9.34-12.5 19.65-14.95 32.68-7.06 9.6 5.82 18.77 12.34 28.13 18.56 1.32 2.4 4.06 2.31 6.07 3.49 4.22 3.54 8.44 7.09 12.66 10.63 4.38 6.48 2.34 12.9-.19 19.31-7.57 8.94-12.13 21.57-26.73 21.93z"/><path class="st283" d="M311.97 320.27c-.04.68-.18 1.37-.12 2.04 1.48 16.97 1.46 16.84-16.52 19.29-48.35 6.59-96.29 14.76-140.64 36.79-3.87 1.92-7.86 4.14-12.52 3.78-7.04-11.57 2.41-17.3 8.55-24.21l-.24.17c3.42-1.47 6.84-2.95 10.26-4.42a513.513 513.513 0 0189.49-25.58 515.23 515.23 0 0161.74-7.86zm3.85 37.22c5.5 4.39 4.13 11.07 5.24 16.79.97 5.03-3.9 3.51-6.44 3.98-28.37 5.23-57.25 7.08-85.48 13.28-24.72 5.44-47.19 17.04-70.86 25.33-3.15 1.1-6.05 3.32-9.69 1.9-3.25-10.24.6-16.82 10.05-21.4 24.26-11.76 48.78-22.67 75.58-27.38 15.76-2.77 31.49-5.69 47.23-8.55 11.46-1.3 22.91-2.63 34.37-3.95zm-66.75-149.13c12.5.23 24.83-3.4 37.42-1.78-1.64 13.45-9.17 21.58-22.46 23.9-14.72 2.57-29.43 5.57-44.27 7.11-31.8 3.29-59.63 17.9-88.45 29.77-3.03 1.25-5.71 4.06-9.44 2.06-4.02-8.47-.6-13.9 6.65-18.71 27.32-18.11 57-29.9 89.44-34.69 10.33-2.71 21.89-.43 31.11-7.66zm26.05-75.57c5.4 20.15 5.42 20.41-15.39 22.09-50.6 4.09-98.91 16.15-143.89 40.28-1.44.77-3.17 1.03-4.76 1.53-5.85-8.23-3.3-14.18 4.5-19.59 25.81-17.88 53.97-29.42 85.07-34.49 24.75-4.03 49.64-6.64 74.47-9.82zm-167.47 26.73l-4.01-.9c-3.28-8.54-1.05-15.24 6.74-20.05 18.22-11.23 37.01-21.11 57.78-27.09 15.15-4.37 31.02-5.83 45.76-11.74 2.73-.1 5.47-.19 8.2-.29 15.72.2 31-4.83 46.79-3.82 1.81 19.96 1.83 20.12-19.19 22.27-45.58 4.65-90.08 13.17-130.85 35.49-3.23 1.77-6.35 3.72-9.53 5.59-.67-.14-1.23.04-1.69.54zm167.34 89.25c8.53.14 13.38 6.92 19.61 11.13 1.69 1.14 4.15 3.08 2.88 5.83-1.03 2.23-3.58 1.37-5.5 1.6-14.82 1.78-29.6 4.22-44.47 5.1-38.17 2.25-71.97 18.54-106.63 32.16-3.46 1.36-6.7 3.53-10.59 1.48-5.14-9.67 1.31-14.18 8.13-18.78 24.28-16.37 50.77-27.22 79.58-32.38 18.98-2.22 37.46-9.1 56.99-6.14zm-20.44 38.88c13.41-1.99 26.92-3.47 40.2-6.12 14.03-2.8 9.7 8.54 11.75 14.56 3.11 9.17-5.28 7.18-9.15 7.59-27.74 2.99-55.24 7.62-82.74 12.15-23.1 3.8-43.37 15.64-64.85 24.04-4.19 1.64-8.05 5.57-13.25 2.99-3.86-12.7 5.83-16.55 13.97-21.4 32.14-19.14 67.94-26.99 104.07-33.81zm8.11-116.9c4.73.23 9.5.92 14.19.55 4.99-.4 7.27 1.06 8.36 6.18 2.79 13.06 3.04 13.12-10.83 14.24-52.23 4.21-103.27 12.97-150.07 38.46-2.5 1.36-5.1 3.77-8.53 2.24-2.86-10.39 2.05-16.03 10.83-21.19 36.47-21.41 75.99-32.2 117.75-36.16 6.19-.61 12.95.25 18.3-4.32zm-54.71 346.71c-4.22-3.54-8.44-7.08-12.66-10.63 19.84-17.88 24.08-41.58 24.74-66.58.2-7.38 1.7-14.07 7.78-19.06 9.77-8.02 18.86-5.62 23.4 6.29.93 12.17.82 24.32-.47 36.46-2.62 24.61-22.02 48.91-42.79 53.52zm32.76 3.76c.38-1.22.38-2.85 1.2-3.6 20.42-18.82 27.64-42.66 26.97-69.68-.18-7.44.63-14.91.55-22.36-.08-7.94 2.93-13.74 10.17-17.2 9.61 2.83 14.52 9.38 15.43 19.26 2.22 24.04-.26 46.9-15.86 66.74-3.1 3.94-5.54 8.39-8.28 12.61l.01-.01c-8.94 7.13-17.52 15.03-30.19 14.24z"/><path class="st283" d="M277.37 521.2c29.17-28.19 38.77-62.83 34.44-102.43-1.38-12.66 4.88-17.52 15.83-13.87 3.91 11.9 2.17 24.32 3.4 36.46 1.9 18.62-3.3 34.94-14.93 49.43-6.39 7.96-12.59 16.07-18.98 24.04-5.14 6.42-11.63 9-19.76 6.37z"/><path class="st283" d="M314.21 519.3c6.17-8.86 11.9-18.06 18.59-26.5 19.27-24.34 17.22-52.62 15.46-80.83-.33-5.21-.34-9.46 5.04-11.86 8.7 3.2 12.55 9.99 13.65 18.69 5.05 39.88-10.77 71.05-40.39 96.37-3.49 2.98-7.77 4.16-12.35 4.13z"/><path class="st303" d="M237.39 585.84c9.85 21.71 12.78 44.74 12.95 68.29-9.28-1.47-17.45-5.25-24.33-11.72 3.47-20.68-7.63-44.93-24.05-50.64 10.72-11.41 22.76-10.4 35.43-5.93z"/><path class="st283" d="M328.42 279.51c18.35-.52 36.7-1.12 55.05-1.49 3.33-.07 6.71.65 10 1.33 3.76.77 5.51 2.54 2.37 6.21-3.4 3.98-1.41 8.4-.79 12.69-19.58.63-39.16 1.19-58.73 1.93-4.21.16-6.09-1.54-6.61-5.66-.62-5-2.69-9.84-1.29-15.01zm69.35 35.23c1.86 6.67 4.15 13.25 4.11 20.3-19 .69-38.02 1.1-57 2.18-12.64.72-7.72-9.64-9.6-15.07-2.37-6.81 4.24-5.06 7.72-5.61 16.17-2.58 32.53-1.76 48.81-2.39l6.22.66-.26-.07zm11.84 57.08c-13.34 3.8-27.03.99-40.51 2.1-4.07.34-8.34-.41-12.22.54-10.93 2.67-13.08-3.56-14.44-12.3-.95-6.08.91-8.01 6.62-8.13 6.79-.15 13.57-.76 20.36-1.18 4.68-.35 9.35-.84 14.03-1.01 21.8-.8 21.8-.77 26.16 19.98zM336.69 92.74c1.33.02 2.66.05 3.99.07 2.72.11 5.44.22 8.16.32 2.56.76 5.08 1.73 7.69 2.25 6.4 1.26 8.33 4.34 4.04 9.77-2.19 2.77-1.49 5.76-1.58 8.75-18-1.64-36.01-1.27-54.03-.5-7.01.3-14.16-11.34-11.15-17.78 1.4-3 4.1-1.86 6.21-1.93 12.22-.44 24.45-.66 36.67-.95zm20.36 37.22c7.52 1.76 16.36 2.51 9.16 14.1-.99 1.6.08 4.47.19 6.75-18.55-.02-37.1-.21-55.64.05-4.86.07-7.68-1.1-8.32-6.2-.59-4.67-1.47-9.31-2.23-13.95l56.84-.75zm-24.6 37.38l16.48.03c2.01 2.33 4.03 2.31 6.05 0 3.4-.14 6.8-.49 10.18-.38 10.77.38 12.37 2.9 8.93 12.67-.86 2.44-.44 5.32-.61 8-18.96-.08-37.91-.3-56.86-.14-4.76.04-6.74-1.71-7.12-6.28-.33-4.02-1.11-8.01-1.7-12.01 1.39-.58 2.78-1.17 4.17-1.75.79-.26 1.57-.51 2.36-.77 1.98.2 3.96.4 5.94.59 4.05 2.93 8.11 2.9 12.18.04zM138.64 48.76c3.01-1.53 5.97-3.17 9.04-4.56 19.47-8.82 28.2-5.08 35.49 15.17 1.6 4.45 3.07 8.96 4.6 13.44-7.59 11.18-22.73 11.69-30.22.73-5.89-8.6-10.66-18-18.91-24.78zm216.35 456.57c21.65-25.59 29.62-55.28 27.2-88.39-.49-6.71-1.89-14.88 7.28-18.22 8.97 13.87 7.69 29.5 5.99 44.48-3.06 27.07-17.49 47.6-40.47 62.13zM183.43 26.07c19.1-4.96 26.57-1.87 35.66 15.6 4.06 7.81 7.27 16.07 10.87 24.13-3.12 10.13-13.99 12.21-21.85 4.01-3.07-3.2-5.29-7.08-6.56-11.38-3.6-12.17-9.05-23.27-18.12-32.36zm161.33 215.01c11.21-.04 22.41-.26 33.62-.06 10.89.19 11.76 1.68 9.46 12.38-.55 2.55.06 5.36.13 8.05-16.55.57-33.12.86-49.64 1.82-8.3.48-8.29-2.61-5.22-8.65 2.8-5.53 5.86-10.66 11.65-13.54zM226.36 19.86c18.16-.88 30.74 7.46 37.01 24.77 2.15 5.95 3.86 12.06 5.78 18.09-7.81 9.03-19.12 8.03-24.23-2.69-3.61-7.58-5.66-15.9-9.1-23.58-2.59-5.79-6.27-11.08-9.46-16.59zm95.88 184.12c15.93-.01 31.87-.23 47.8.07 6.94.13 16.73-1.26 9.84 11.51-.9 1.68.46 4.58.78 6.91-14.49 3.44-29.05 2.87-43.04-1.5-7.65-2.38-14.32-7.66-15.38-16.99zm92.07 194.88c3.31 18.8 6.54 37.65-.34 56.33-1.4 3.81-1.79 9.13-7.76 9.46 5.33-17.01 3.91-34.54 4.16-51.97.08-4.84-1.24-10.33 3.94-13.82zM68.51 249.12c.12-.31.17-.68.37-.93 3.4-4.2 5.29-10.91 12.25-9.82 3.51.55 4.52 15.99 1.41 20.67-2.58 3.88-5.5 7.59-9.68 9.99-.01-.63-.28-1.11-.82-1.44-1.18-6.14-2.35-12.3-3.53-18.47zM55.9 177.67c.07-.33.1-.67.22-.98 2.06-5.43 4.89-10.29 10.6-12.53.61-.24 2.77 1.34 2.83 2.17.47 6.77 5.33 13.91-.28 20.22-2.9 3.26-4.63 8.36-10.18 8.66-1.07-5.84-2.13-11.69-3.19-17.54zm39.11 217.06c.08-.33.14-.66.25-.98 1.89-5.53 6.12-8.77 11.29-10.63 1.61-.58 2.73 1.71 2.96 3.39.86 6.36 5.35 12.99-.63 18.96-3.03 3.02-6.63 5.47-9.98 8.18-1.3-6.31-2.59-12.62-3.89-18.92zM62.14 212.48c.11-.32.14-.71.35-.94 3.6-3.97 6.98-12.33 12.34-8.53 4.72 3.35 5.4 12.19 1.97 18.72-2.45 4.68-5.51 9.21-10.55 11.76-3.39-6.61-1.15-14.32-4.11-21.01zM81.92 321.2c.94-.97 1.71-2.34 2.86-2.82 4.12-1.72 7.25-10.11 10.65-6.47 4.16 4.46 5.16 13.09 1.92 19.12-2.4 4.46-5.74 10.16-12.58 10.28-.51-2.15 1.44-4.99-1.79-6.37 0 0 .57-.12.56-.12-.55-4.54-1.09-9.08-1.62-13.62zm-6.97-37.31c4.41-3.28 6.67-11.29 13.66-8.66 4.4 1.66 3.17 18.77-1.4 23.07-2.44 2.29-3.45 7.07-8.39 5.94-1.29-6.78-2.58-13.56-3.87-20.35zm13.84 75.94c.57-7.14 6.65-13.42 11.15-11.82 5.9 2.09 5.17 11.49 3.81 17.18-1.27 5.29-5.25 10.77-11.85 12.33-1.04-5.91-2.08-11.8-3.11-17.69zm22.62 77.5c-5.92.62-9-2.53-10.39-7.89 1.75-1.6 3.4-3.35 5.28-4.77 2.92-2.19 5.55-7.86 9.72-3.66 3.6 3.62 3.02 8.74-1.31 12.6-1.22 1.1-2.21 2.47-3.3 3.72z"/><path class="st283" d="M159.46 47.45c7.37 4.19 10.64 11.39 13.73 18.72-8.77-3.15-10.74-11.31-13.73-18.72z"/><path class="st318" d="M311.97 167.48c-1.39.58-2.78 1.17-4.17 1.75.5-2.69 2.49-1.86 4.17-1.75z"/><path d="M236.49 814.53c14.96 6.25 30.67 9.2 46.75 10.46 1.99 39.15 4.09 78.29 5.87 117.45.28 6.14 2.18 6.97 8.02 5.97 13.06-2.24 26.3-3.41 39.47-5.01 2.49 2.85 5.34 1.47 8.38 1.12 7.82-.9 18.72-9.26 20.22 7.48.06.66 2.26 1.13 3.47 1.69 2.38 5.84 2.48 11.13-3.6 14.92l-77.37 10.08c-3.66-1.02-7.02-2.6-9.65-5.44a31998.24 31998.24 0 01-35.4-38.21c-2.4-2.59-3.88-5.69-3.89-9.22-.13-37.1-3.38-74.15-2.27-111.29z" fill="#fa3c20"/><path class="st303" d="M318.31 758.69c-13.88-7.04-28.27-13.02-41.45-21.46-16.12-10.31-18.74-28.03-6.2-42.48 5.84-6.73 13.39-7.19 20.49-4.62 16.2 5.86 31.96 12.92 46.43 22.48 4.13 1.77 8.26 3.54 12.39 5.32 3.49 1.43 5.77 3.34 7.14 5.63.68 1.14 2.7 4.68.84 13.48-.99 4.68-3.57 13.23-11.34 22.45a24.259 24.259 0 01-8.32 3.46c-9.86 2.06-17.89-2.88-19.98-4.26z"/><path class="st284" d="M287.68 978.7l77.37-10.08c.02 9.24.03 18.48.05 27.72-.15 4.2-.3 8.4-.46 12.6-.48.66-.95 1.33-1.43 1.99-17.82 4.44-36.18 5.28-54.26 8.05-6.34.97-12.65 3.09-19.24 1.99-.25-14.11.6-28.28-2.03-42.27z"/><path class="st317" d="M326.9 689.8c-1.16 1.23-2.14.95-3-.35.19-19.11.37-38.22.56-57.34.49 0 .99.01 1.48.01l.72 42.69.24 14.99z"/><path class="st303" d="M287.68 978.69c2.63 14 1.78 28.16 2.04 42.27-17.23-.9-33.34-6.5-49.51-11.85-4.08-.74-8.97-2-14.25-4.22a69.823 69.823 0 01-7.84-3.9c-2.67-1.43-5.2-3.27-8.03-4.2-5.99-1.96-8.7-5.76-8.67-12.06.13-30.3-3.07-61.03 1.05-90.77 4.28-30.89 1.05-61.48 3.33-92.1 10.68 3.12 20.84 7.49 30.68 12.66-1.11 37.14 2.14 74.19 2.25 111.3.01 3.53 1.5 6.62 3.89 9.22 11.79 12.75 23.6 25.48 35.4 38.21 2.64 2.85 6 4.42 9.66 5.44z"/><path class="st284" d="M271.26 1279.43c-4.21-11.52-3.76-23.84-6.1-35.71-6.36-32.23-12.73-64.49-17.83-96.94-6.31-40.12-11.34-80.43-16.92-120.67 3.64 2.89 7.87 3.4 12.38 3.56 15.38.53 19.93 5.38 20.48 20.42 2.67 74.08 5.45 148.15 8.17 222.23.09 2.36-.11 4.74-.18 7.11z"/><path d="M363.21 1010.93c.48-.66.95-1.33 1.43-1.99.41 1.3.21 2.16-1.43 1.99z" fill="#ebcbb8"/><path class="st318" d="M332.45 167.34c-4.07 2.86-8.13 2.89-12.18-.03l12.18.03zm22.53.03c-2.02 2.31-4.03 2.32-6.05 0h6.05z"/><path class="st303" d="M301.13 820.87l-2.78-.72c-10.18-4.62-20.52-8.92-30.5-13.93-11.61-5.82-15.13-13.41-12.46-24.8 3.61-15.37 11.36-19.63 26.07-13.96 8.2 3.16 16.22 6.81 24.32 10.24 1.73 1.05 3.42 2.2 5.21 3.14 17.67 9.31 19.66 15.1 11.38 33.22-.69 1.51-1.15 3.12-1.72 4.69-3.67 3.29-9.24.87-12.86 4.29-2.22-.72-4.44-1.44-6.66-2.17z"/><path class="st283" d="M283.79 825.94c4.31-2.16 8.63-4.31 12.94-6.47 9.32 3.76 19.67 1.5 25.63-5.41 4.62-5.35 6.24-13.43 4.04-19.89-1.66-4.89-6.58-8.67-15.43-13.33-1.79-.94-3.47-2.09-5.21-3.14.13-1.72.25-3.44.38-5.16 3.33-5.21 6.66-10.42 9.99-15.62 1.76 1.39 10.9 8.33 22.15 6.03 3.5-.71 6.29-2.13 8.32-3.46.56 9.48 1.13 18.97 1.72 28.47 3.23 51.95 6.89 103.44 10.95 154.46-23.01 2.16-46.02 4.31-69.03 6.47-2.13-40.98-4.29-81.96-6.45-122.95z"/><path class="st318" d="M277.25 629.72c5.5 9.18 1.14 19.51 3.36 29.08-.33 3.7-.67 7.4-1 11.11-3.26-.97-6.32-2.29-8.55-5.02 4.29-11.22 4.03-23.01 4.34-34.73.65-.02 1.27-.17 1.85-.44z"/><path d="M321.93 615.76c1.84-2.44-4.8-7.33 2.38-8.22-.92 8.29 3.04 16.26 1.63 24.58-.5 0-.99 0-1.48-.01-2.55-5.19-1.78-10.89-2.53-16.35z" fill="#ac9ebb"/><path d="M340.67 594.8c-.98.55-1.71.95-2.43 1.35-.39-.79-1.16-1.64-1.04-2.34.1-.61 1.21-1.05 1.87-1.57.46.74.92 1.48 1.6 2.56zm-46.03 20.39c1.54 1.29 1.39 2.94 1 4.65-1.2.59-2.4 1.17-3.6 1.76 0 0-.93-.19-.89-.15-.19-2.83 1.76-4.49 3.49-6.26zm55.65 2.8l.06 5.76c-1.79-1.9-1.81-3.82-.06-5.76zm-60.46-2.94c1.44-1.02 2.88-1.18 4.32.02-1.44-.01-2.88-.01-4.32-.02zm24.6 14.99l1.02-3.62c-.34 1.2-.68 2.41-1.02 3.62z" fill="#f8f6f5"/><path d="M292.05 621.59c1.2-.59 2.4-1.17 3.6-1.76.11 3.29-1.08 3.89-3.6 1.76z" fill="#fbfbfa"/><path class="st283" d="M350.29 617.99c-1.02-10.2-2.1-20.49-3.26-30.87a2597.33 2597.33 0 00-4.99-41.59c-.11.05-.23.11-.34.16-.39-4.05-.76-8.1-1.06-12.15-.21-2.86-.66-5.32-3.87-6.17-29.69 9.7-60.18 13.47-91.35 12.38-19.11-.67-19.12-.57-12.79 18.74.94 9.23 5.16 17.89 4.77 27.35 9.85 21.71 12.78 44.74 12.95 68.29 1.83 1.52 4.61 3.71 8.2 6.02 7.29 4.69 13.44 7.01 15.61 7.86 6.37 2.49 15.92 6.89 29.75 15.3 13.82 9.02 19.98 8.83 23.02 6.74 4.63-3.18 2.87-10.93 9.59-20.02 2.73-3.69 5.96-5.94 8.21-7.26 1.98-5.06 4-11.51 5.2-19.17a91.317 91.317 0 00.36-25.61z"/></svg>