<svg id="Слой_1" data-name="Слой 1" xmlns="http://www.w3.org/2000/svg" viewBox="0 0 515 110"><defs><style>.cls-1{fill:#ce0707}.cls-2{fill:#950000}.cls-3{fill:#f75f53}</style></defs><path class="cls-1" d="M388.83 35.06c-1.2 2.44-2.58 5-4.14 7.57-6.44 10.6-17.37 23.37-32.86 24.06-15 .68-26-12.37-32.48-23.43-1.63-2.77-3.08-5.55-4.34-8.2h-1.61c1.34 2.87 2.9 5.9 4.67 8.92C322.34 51.21 327 56.92 332 61c5.89 4.8 12.18 7.23 18.73 7.23h1.2c7.15-.32 13.95-3.08 20.23-8.22A64.6 64.6 0 00386 43.37c1.71-2.83 3.21-5.65 4.5-8.31zm-142.08 0c-3.74 10.63-10.39 24.09-20 23.5-4.77-.29-8.77-3.45-12.05-7.76a147.33 147.33 0 004-14.33l-1.43-.3c0 .08-1.22 5.76-3.61 13.16a65.58 65.58 0 01-7-14.27h-1.57c.71 2 1.53 4.07 2.47 6.17a54.66 54.66 0 005.55 9.84c-1.05 3.12-2.3 6.47-3.75 9.8-3.07 7.08-6.43 12.65-10 16.57-4.34 4.8-9 7.08-13.73 6.79-4.94-.3-9.68-2.93-14.07-7.81a59.39 59.39 0 01-9-14.19 70.3 70.3 0 008.08-14.37 131.62 131.62 0 004.72-12.8h-1.56c-1.2 3.77-2.71 8-4.54 12.24a70.4 70.4 0 01-7.43 13.42c-.07-.16-.14-.31-.21-.48a131.93 131.93 0 01-7.7-23.24l-1.43.31a133.44 133.44 0 007.78 23.55c.19.41.37.82.56 1.22-.51.64-1 1.26-1.55 1.83-4.33 4.8-8.95 7.08-13.72 6.79-4.95-.3-9.68-2.93-14.08-7.81a62 62 0 01-9.95-16.18 120.68 120.68 0 01-4.44-11.61h-1.54a123.52 123.52 0 004.64 12.19 63.61 63.61 0 0010.2 16.57c4.66 5.18 9.73 8 15.08 8.3h.9c4.92 0 9.62-2.46 14-7.31.39-.42.77-.87 1.15-1.34a60 60 0 008.95 13.89c4.66 5.18 9.74 8 15.08 8.3h.91c4.91 0 9.62-2.46 14-7.31 3.65-4 7.09-9.75 10.23-17 1.32-3 2.47-6.09 3.46-9 .36.44.72.86 1.08 1.27 3.53 3.92 7.39 6 11.45 6.29h.69c3.75 0 7.33-1.86 10.65-5.55a47 47 0 007.72-12.8c1-2.24 1.83-4.5 2.56-6.63zM260.28 0L278 17.04 295.39.32l1.81 1.74-17.39 16.72L297.2 35.5l-1.81 1.74L278 20.52 260.45 37.4l-1.81-1.74 17.56-16.88-17.73-17.04L260.28 0z"/><path class="cls-1" d="M296.34 0l14.62 17.04L325.31.32l1.49 1.74-14.34 16.72L326.8 35.5l-1.49 1.74-14.35-16.72-14.48 16.88-1.49-1.74 14.48-16.88-14.62-17.04L296.34 0zm-72.43 0l17.72 17.04L259.02.32l1.8 1.74-17.38 16.72 17.38 16.72-1.8 1.74-17.39-16.72-17.56 16.88-1.8-1.74 17.55-16.88L222.1 1.74 223.91 0z"/><path class="cls-1" d="M187.53 0l17.72 17.04L222.64.32l1.81 1.74-17.39 16.72 17.39 16.72-1.81 1.74-17.39-16.72L187.7 37.4l-1.81-1.74 17.56-16.88-17.73-17.04L187.53 0z"/><path class="cls-1" d="M151.16 0l17.72 17.04L186.27.32l1.8 1.74-17.38 16.72 17.38 16.72-1.8 1.74-17.39-16.72-17.55 16.88-1.81-1.74 17.55-16.88-17.72-17.04L151.16 0z"/><path class="cls-1" d="M114.78 0l17.73 17.04L149.89.32l1.81 1.74-17.39 16.72L151.7 35.5l-1.81 1.74-17.38-16.72-17.56 16.88-1.81-1.74 17.56-16.88-17.73-17.04L114.78 0z"/><path class="cls-1" d="M78.41 0l17.72 17.04L113.52.32l1.81 1.74-17.39 16.72 17.39 16.72-1.81 1.74-17.39-16.72L78.58 37.4l-1.81-1.74 17.55-16.88L76.6 1.74 78.41 0z"/><path class="cls-1" d="M42.03 0l17.73 17.04L77.14.32l1.81 1.74-17.39 16.72L78.95 35.5l-1.81 1.74-17.38-16.72L42.2 37.4l-1.81-1.74 17.56-16.88L40.23 1.74 42.03 0z"/><path class="cls-1" d="M0 35.14h313.6v2.46H0zM401.36 0l17.72 17.04L436.47.32l1.81 1.74-17.39 16.72 17.39 16.72-1.81 1.74-17.39-16.72-17.55 16.88-1.81-1.74 17.56-16.88-17.73-17.04L401.36 0z"/><path class="cls-1" d="M364.99 0l17.72 17.04L400.1.32l1.8 1.74-17.38 16.72L401.9 35.5l-1.8 1.74-17.39-16.72-17.56 16.88-1.8-1.74 17.55-16.88-17.72-17.04L364.99 0z"/><path class="cls-1" d="M328.61 0l17.72 17.04L363.72.32l1.81 1.74-17.39 16.72 17.39 16.72-1.81 1.74-17.39-16.72-17.55 16.88-1.81-1.74 17.56-16.88L326.8 1.74 328.61 0z"/><path class="cls-1" d="M515 35.07l-201.4.07v2.46H515z"/><path class="cls-1" d="M437.08-.74l17.72 17.05L472.19-.41 474 1.33l-17.39 16.72L474 34.76l-1.81 1.74-17.39-16.72-17.55 16.88-1.81-1.74 17.55-16.87L435.27 1l1.81-1.74z"/><path class="cls-1" d="M472.67-.94l17.72 17.04L507.78-.62l1.81 1.74-17.39 16.72 17.39 16.72-1.81 1.74-17.39-16.72-17.55 16.88-1.81-1.74 17.55-16.88L470.86.8l1.81-1.74zM6.22-.53l17.72 17.05L41.33-.2l1.81 1.74-17.39 16.71 17.39 16.72-1.81 1.74-17.39-16.72L6.39 36.87l-1.81-1.74 17.56-16.88L4.41 1.21 6.22-.53z"/><path class="cls-2" d="M51.77 61.66l.6 3.7 17.75 17.75.59-2.51-2.81-10.8-16.13-8.14z"/><path class="cls-1" d="M51.77 61.66l15.39-15.39h7.11l16.27 15.39L70.71 80.6 51.77 61.66z"/><path class="cls-2" d="M102.97 74.68l-3.6 3.68-2.62-2.2-2.66 3.11L96 81.81l-7.41 7.56-2.19-3.15-2.37 4.29 1.48 2.01-2.81 2.87 6.95 11.99 26.64-27.67-13.32-5.03z"/><path class="cls-3" d="M68.05 91.55l-2.22 10.95 9.92 5.77 4.88-12.14-10.36-7.69-2.22 3.11zm2.81-5.18l10.36 8.14 20.57-21.31-9.47-8.14-21.46 21.31zM97.34 60.2l10.07-4.9 7.99 8.58-11.99 8.14-8.43-7.99 2.36-3.83z"/><path class="cls-2" d="M90.54 61.66L70.71 80.6l-2.66 10.95 32.85-32.11-10.36 2.22z"/><path class="cls-3" d="M98.68 71.42l3.11-3.1 1.33 2.22-3.26 2.66-1.18-1.78zM76 94.51l5.18-5-.59 4.29s-3.26 3.55-3.26 3.4S76 94.51 76 94.51z"/><ellipse class="cls-1" cx="87.59" cy="80.08" rx="11.99" ry="3.98" transform="rotate(-45 87.59 80.08)"/><path class="cls-1" d="M54.07 36.32h2.09v24.22h-2.09zm27.14 0h2.09v24.22h-2.09z"/><path class="cls-2" d="M307.94 61.66l-.59 3.7-17.76 17.75-.59-2.51 2.81-10.8 16.13-8.14z"/><path class="cls-1" d="M307.94 61.66l-15.39-15.39h-7.1l-16.28 15.39L289 80.6l18.94-18.94z"/><path class="cls-2" d="M256.75 74.68l3.6 3.68 2.61-2.2 2.66 3.11-1.9 2.54 7.4 7.56 2.2-3.15 2.36 4.29-1.48 2.01 2.81 2.87-6.95 11.99-26.63-27.67 13.32-5.03z"/><path class="cls-3" d="M291.66 91.55l2.22 10.95-9.91 5.77-4.88-12.14 10.35-7.69 2.22 3.11zm-2.81-5.18l-10.35 8.14-20.57-21.31 9.47-8.14 21.45 21.31zM262.38 60.2l-10.07-4.9-7.99 8.58 11.98 8.14 8.44-7.99-2.36-3.83z"/><path class="cls-2" d="M269.17 61.66L289 80.6l2.66 10.95-32.84-32.11 10.35 2.22z"/><path class="cls-3" d="M261.04 71.42l-3.11-3.1-1.33 2.22 3.25 2.66 1.19-1.78zm22.63 23.09c-.14-.15-5.17-5-5.17-5l.59 4.29s3.25 3.55 3.25 3.4 1.33-2.69 1.33-2.69z"/><path class="cls-1" d="M274.93 77.27c4.68 4.68 7.22 9.74 5.67 11.29s-6.61-1-11.29-5.67-7.22-9.73-5.67-11.28 6.61.98 11.29 5.66z"/><path class="cls-1" transform="rotate(180 304.6 48.425)" d="M303.56 36.32h2.09v24.22h-2.09z"/><path class="cls-1" transform="rotate(180 277.46 48.425)" d="M276.41 36.32h2.09v24.22h-2.09z"/><path class="cls-2" d="M393.54 61.66l.59 3.7 17.75 17.75.6-2.51-2.82-10.8-16.12-8.14z"/><path class="cls-1" d="M393.54 61.66l15.38-15.39h7.11l16.27 15.39-19.82 18.94-18.94-18.94z"/><path class="cls-2" d="M444.73 74.68l-3.6 3.68-2.61-2.2-2.67 3.11 1.91 2.54-7.41 7.56-2.19-3.15-2.37 4.29 1.48 2.01-2.81 2.87 6.95 11.99 26.64-27.67-13.32-5.03z"/><path class="cls-3" d="M409.81 91.55l-2.22 10.95 9.92 5.77 4.88-12.14-10.36-7.69-2.22 3.11zm2.81-5.18l10.36 8.14 20.57-21.31-9.47-8.14-21.46 21.31zM439.1 60.2l10.07-4.9 7.99 8.58-11.99 8.14-8.43-7.99 2.36-3.83z"/><path class="cls-2" d="M432.3 61.66L412.48 80.6l-2.67 10.95 32.85-32.11-10.36 2.22z"/><path class="cls-1" d="M426.54 77.27c-4.68 4.68-7.21 9.74-5.66 11.29s6.61-1 11.29-5.67 7.21-9.73 5.66-11.28-6.6.98-11.29 5.66zm-30.71-40.95h2.09v24.22h-2.09zm27.14 0h2.09v24.22h-2.09z"/></svg>