<svg version="1.1" id="Слой_1" xmlns="http://www.w3.org/2000/svg" x="0" y="0" viewBox="0 0 585 149" xml:space="preserve"><style>.st283{fill:#950000}.st303{fill:#f95f53}.st316{fill:#d00707}</style><path class="st316" d="M486.51 48.04c-1.65 3.35-3.55 6.88-5.69 10.4-8.85 14.56-23.88 32.11-45.17 33.07-20.65.93-35.67-17-44.64-32.21-2.24-3.8-4.22-7.62-5.95-11.26h-2.22c1.84 3.94 3.98 8.1 6.42 12.25 5.86 9.94 12.28 17.79 19.08 23.34 8.09 6.6 16.75 9.93 25.75 9.93.55 0 1.1-.01 1.65-.04 9.82-.44 19.18-4.24 27.8-11.3 6.85-5.6 13.25-13.27 19.02-22.77 2.36-3.88 4.42-7.75 6.19-11.41h-2.24zm-195.28 0c-5.13 14.6-14.27 33.1-27.45 32.29-6.55-.4-12.06-4.73-16.57-10.66 3.63-10.97 5.45-19.58 5.47-19.7l-1.97-.41c-.02.12-1.68 7.92-4.96 18.1-4.11-5.99-7.31-13.22-9.65-19.61h-2.16c.97 2.72 2.1 5.59 3.39 8.47 2.36 5.28 4.92 9.81 7.63 13.52-1.44 4.28-3.16 8.89-5.14 13.47-4.23 9.73-8.84 17.39-13.71 22.78-5.96 6.59-12.31 9.73-18.86 9.33-6.8-.41-13.31-4.02-19.34-10.73-4.42-4.91-8.59-11.47-12.42-19.51 3.92-5.17 7.64-11.79 11.1-19.74 2.64-6.08 4.8-12.22 6.49-17.59h-2.11c-1.64 5.17-3.72 11.02-6.24 16.81-3.2 7.36-6.62 13.54-10.2 18.45-.1-.22-.2-.43-.3-.65-7.13-15.92-10.54-31.84-10.58-32l-1.96.42c.03.16 3.48 16.26 10.69 32.37.25.56.51 1.12.76 1.67-.7.89-1.41 1.73-2.12 2.52-5.96 6.59-12.31 9.73-18.86 9.33-6.8-.41-13.31-4.02-19.34-10.73-4.91-5.45-9.51-12.93-13.68-22.24-2.48-5.54-4.51-11.08-6.11-15.96h-2.11c1.64 5.08 3.76 10.91 6.37 16.75 4.25 9.5 8.97 17.17 14.02 22.78 6.41 7.12 13.38 10.95 20.73 11.4.42.03.83.04 1.24.04 6.75 0 13.22-3.37 19.24-10.04.53-.59 1.06-1.2 1.58-1.84 3.79 7.81 7.92 14.22 12.3 19.09 6.41 7.12 13.38 10.95 20.73 11.4.42.03.83.04 1.24.04 6.75 0 13.22-3.37 19.24-10.04 5.02-5.55 9.75-13.4 14.06-23.34 1.81-4.17 3.4-8.37 4.76-12.33.49.6.98 1.18 1.48 1.74 4.86 5.4 10.15 8.31 15.74 8.65.32.02.63.03.95.03 5.14 0 10.06-2.56 14.64-7.62 3.79-4.19 7.36-10.11 10.61-17.6a125.1 125.1 0 003.52-9.1h-2.14zM305.71-.15l24.36 23.43L353.96.3l2.49 2.39-23.89 22.97 23.89 22.98-2.49 2.39-23.89-22.98-24.13 23.2-2.48-2.39 24.12-23.2-24.35-23.42z"/><path class="st316" d="M355.27-.15l20.1 23.43L395.09.3l2.05 2.39-19.72 22.97 19.72 22.98-2.05 2.39-19.72-22.98-19.91 23.2-2.05-2.39 19.91-23.2-20.1-23.42zm-99.55 0l24.36 23.43L303.97.3l2.49 2.39-23.9 22.97 23.9 22.98-2.49 2.39-23.89-22.98-24.13 23.2-2.48-2.39 24.12-23.2-24.35-23.42z"/><path class="st316" d="M205.73-.15l24.36 23.43L253.98.3l2.49 2.39-23.9 22.97 23.9 22.98-2.49 2.39-23.89-22.98-24.13 23.2-2.48-2.39 24.12-23.2-24.36-23.42z"/><path class="st316" d="M155.74-.15l24.36 23.43L203.99.3l2.49 2.39-23.9 22.97 23.9 22.98-2.49 2.39-23.89-22.98-24.13 23.2-2.49-2.39 24.13-23.2-24.36-23.42z"/><path class="st316" d="M105.75-.15l24.35 23.43L154 .3l2.48 2.39-23.89 22.97 23.89 22.98-2.48 2.39-23.9-22.98-24.12 23.2-2.49-2.39 24.13-23.2-24.36-23.42z"/><path class="st316" d="M55.76-.15l24.35 23.43L104.01.3l2.48 2.39L82.6 25.66l23.89 22.98-2.48 2.39-23.9-22.98-24.12 23.2-2.49-2.39 24.13-23.2L53.27 2.24z"/><path class="st316" d="M5.76-.15l24.36 23.43L54.02.3l2.48 2.39-23.89 22.97L56.5 48.64l-2.48 2.39-23.9-22.98L6 51.25l-2.49-2.39 24.13-23.2L3.28 2.24z"/><path class="st316" d="M.09 48.15h383.02v3.38H.09zM585 34.01c-2.85-2.78-5.71-5.56-8.56-8.35l8.55-8.22c0-1.6.01-3.19.01-4.79l-11.04 10.62L549.6-.15l-2.49 2.39 24.36 23.42-24.13 23.2 2.49 2.39 24.13-23.2c3.68 3.55 7.36 7.09 11.05 10.64-.01-1.56-.01-3.12-.01-4.68z"/><path class="st316" d="M499.61-.15l24.35 23.43L547.86.3l2.48 2.39-23.89 22.97 23.89 22.98-2.48 2.39-23.9-22.98-24.12 23.2-2.49-2.39 24.13-23.2-24.36-23.42z"/><path class="st316" d="M449.61-.15l24.36 23.43L497.87.3l2.48 2.39-23.89 22.97 23.89 22.98-2.48 2.39-23.9-22.98-24.12 23.2-2.49-2.39 24.13-23.2-24.36-23.42z"/><path class="st316" d="M399.62-.15l24.36 23.43L447.87.3l2.49 2.39-23.89 22.97 23.89 22.98-2.49 2.39-23.89-22.98-24.13 23.2-2.48-2.39 24.12-23.2-24.35-23.42z"/><path class="st316" d="M585 48.05c-67.3.03-134.59.07-201.89.1v3.38l201.89.03v-3.51z"/><path class="st283" d="M23.28 84.59l.81 5.09 24.4 24.4.81-3.46-3.86-14.84z"/><path class="st316" d="M23.28 84.59l21.14-21.14h9.76l22.37 21.14-27.25 26.03z"/><path class="st283" d="M93.63 102.49l-4.94 5.06-3.6-3.03-3.66 4.27 2.62 3.49-10.18 10.4-3.01-4.33-3.25 5.9 2.03 2.76-3.86 3.95 9.55 16.47 36.61-38.03z"/><path class="st303" d="M45.64 125.67l-3.05 15.05 13.63 7.93 6.71-16.68-14.24-10.57zm3.87-7.12l14.23 11.19 28.27-29.28-13.02-11.19zM85.9 82.59l13.83-6.74 10.99 11.79-16.48 11.19-11.59-10.98z"/><path class="st283" d="M76.55 84.59L49.3 110.62l-3.66 15.05 45.15-44.13z"/><path class="st303" d="M87.74 98.02l4.27-4.28 1.83 3.05-4.48 3.67zm-31.12 31.72c.2-.2 7.12-6.91 7.12-6.91l-.81 5.9s-4.47 4.88-4.47 4.68c0-.22-1.84-3.67-1.84-3.67z"/><ellipse transform="rotate(-45.001 72.503 109.916)" class="st316" cx="72.5" cy="109.91" rx="16.47" ry="5.46"/><path class="st316" d="M26.43 49.77h2.87v33.28h-2.87zm37.3 0h2.87v33.28h-2.87z"/><path class="st283" d="M375.33 84.59l-.81 5.09-24.4 24.4-.82-3.46 3.87-14.84z"/><path class="st316" d="M375.33 84.59l-21.14-21.14h-9.77l-22.36 21.14 27.24 26.03z"/><path class="st283" d="M304.97 102.49l4.95 5.06 3.6-3.03 3.66 4.27-2.62 3.49 10.18 10.4 3.01-4.33 3.25 5.9-2.03 2.76 3.86 3.95-9.55 16.47-36.61-38.03z"/><path class="st303" d="M352.97 125.67l3.05 15.05-13.63 7.93-6.71-16.68 14.23-10.57zm-3.87-7.12l-14.23 11.19-28.27-29.28 13.02-11.19zm-36.39-35.96l-13.84-6.74-10.98 11.79 16.47 11.19 11.6-10.98z"/><path class="st283" d="M322.06 84.59l27.24 26.03 3.67 15.05-45.15-44.13z"/><path class="st303" d="M310.87 98.02l-4.27-4.28-1.83 3.05 4.48 3.67zm31.11 31.72c-.2-.2-7.12-6.91-7.12-6.91l.81 5.9s4.47 4.88 4.47 4.68c.01-.22 1.84-3.67 1.84-3.67z"/><path class="st316" d="M329.97 106.05c6.43 6.43 9.92 13.38 7.79 15.51-2.13 2.13-9.08-1.35-15.51-7.79-6.43-6.43-9.92-13.38-7.79-15.51 2.13-2.13 9.07 1.36 15.51 7.79z"/><path transform="rotate(-180 370.743 66.407)" class="st316" d="M369.31 49.77h2.87v33.28h-2.87z"/><path transform="rotate(-180 333.442 66.407)" class="st316" d="M332.01 49.77h2.87v33.28h-2.87z"/><path class="st283" d="M492.97 84.59l.82 5.09 24.4 24.4.81-3.46-3.86-14.84z"/><path class="st316" d="M492.97 84.59l21.15-21.14h9.76l22.37 21.14L519 110.62z"/><path class="st283" d="M563.33 102.49l-4.95 5.06-3.59-3.03-3.66 4.27 2.62 3.49-10.18 10.4-3.01-4.33-3.26 5.9 2.04 2.76-3.87 3.95 9.56 16.47 36.6-38.03z"/><path class="st303" d="M515.34 125.67l-3.05 15.05 13.63 7.93 6.71-16.68-14.24-10.57zm3.87-7.12l14.23 11.19 28.26-29.28-13.01-11.19zm36.38-35.96l13.84-6.74 10.98 11.79-16.47 11.19-11.59-10.98z"/><path class="st283" d="M546.25 84.59L519 110.62l-3.66 15.05 45.14-44.13z"/><path class="st316" d="M538.34 106.05c-6.43 6.43-9.92 13.38-7.79 15.51s9.08-1.35 15.51-7.79c6.43-6.43 9.92-13.38 7.79-15.51-2.13-2.13-9.08 1.36-15.51 7.79zm-42.21-56.28H499v33.28h-2.87zm37.3 0h2.87v33.28h-2.87z"/></svg>