<svg version="1.1" id="Слой_1" xmlns="http://www.w3.org/2000/svg" x="0" y="0" viewBox="0 0 585 693" xml:space="preserve"><style>.st280{fill:#b30000}.st281{fill:#fa3c20}.st283{fill:#950000}.st303{fill:#f95f53}.st316{fill:#d00707}.st323{fill:#412a1a}</style><path fill="#574435" d="M415.48 178.22l.16-.1-.18.15z"/><path d="M231.51 174.14c-.89.58-1.85.61-2.84.4.95-.14 1.89-.27 2.84-.4z" fill="#c8a37c"/><path d="M376.32 142.73l-.29-.26c.08.1.17.2.25.3l.04-.04z" fill="#91693d"/><path class="st316" d="M457.1 144.43c13.87 15.51 22.49 33.98 28.8 53.45 7.49 23.12 13.85 46.61 16.49 70.88.77 7.11 3.37 13.58 5.5 20.23 8.31 25.94 15.34 52.25 22.53 78.51 3.08 11.26 8.5 21.67 12.07 32.75 4.34 13.5 8.96 26.9 12.69 40.62 4.92 18.1 6.95 36.59 9.24 55.08 1.41 11.38 2.65 22.77 3.33 34.24.62 10.56 2.17 21.12 4.13 31.52 2.34 12.44 3.61 25.1 7.12 37.32.52 1.81.19 4.35 2.99 4.81 0 28.05-.06 56.09.09 84.14.02 3.08-.62 3.71-3.7 3.7-45.24-.13-90.48-.09-135.71-.09-1.01-9.35-2.68-18.69-2.89-28.05-.46-20.75-1.98-41.42-3.25-62.11-.95-15.57-1.62-31.16-2.42-46.73-.37-7.13-.7-14.35-1.35-21.51-.68-7.45-2.03-14.97-1.17-22.56 1.08-9.53 2.41-19.11 1.59-28.69-.46-5.31-.77-10.59-.78-15.91-.01-6.69.22-13.39-1.79-19.91-.43-1.41-.75-3.06.65-4.32 1.46 2.11 3.21 4.08 4.33 6.36 3.17 6.47 6.04 13.09 9.14 19.6.71 1.49 1.51 3.46 3.58 3.22 2.04-.23 2.4-2.21 2.77-3.9 2.05-9.58 4.17-19.08 2.67-29.07-1.1-7.33-3-14.46-4.48-21.69-.89-4.35-2.88-8.93-1.07-13.18 4.28-10 4-19.97 1.68-30.29-2.48-11.04.17-22.33-1.05-33.44-2.39-21.72-2.58-43.57-4.25-65.33-2.25-29.31-3.88-58.67-7.99-87.81-2.15-15.27-1.06-30.51.41-45.73.51-5.33 2.21-5.95 6.55-2.81 1.66 1.2 4.23 3.92 4.66 3.6 4.71-3.46 6.09 1.78 8.89 3.1z"/><path class="st281" d="M399.3 691.6H241.4c1.33-11.76 2.73-23.51 1.25-35.37.89.46 1.82.86 2.68 1.38 1.42.88 2.68 2.38 4.59 1.45 2.05-1 1.96-3.06 2.05-4.93.16-3.13-.43-6.13-1.55-9.06-2.76-7.25-6.7-13.86-10.97-20.3 7.01 1.64 13.26 4.92 19.01 9.13 1.43 1.05 2.18 3.44 4.41 2.64 2.23-.8 2.36-3.1 2.66-5.17.89-6.13.37-12.3.53-18.46 4.35 1.92 8.68 3.89 13.06 5.76 2.35 1 3.93 1.25 4.95.6 1.59-1.01 1.57-3.66 1.56-4.66-.06-7.98-8.83-46.92-10.13-52.64 3.98-1.53 8.73-3.73 13.78-6.89 4.94-3.09 8.92-6.33 12.01-9.19 0-.27.05-2.18 1.53-3.39.41-.34.94-.58 1.63-.7 2.64.94 5.41 1.52 8.11.76 13.7-3.86 27.47-7.61 40.59-13.2 8.99-3.83 17.73-8.25 26.59-12.41 3.96 10.58 7.96 21.14 11.2 31.99 5.08 17.01 7.56 34.45 8.19 52.07.55 15.21 1.74 30.39.49 45.73-1.24 14.87-.31 29.9-.32 44.86z"/><path class="st283" d="M227.98 691.6h-10.32c-4.46-3.87-8.91-7.74-13.37-11.62-.65-1.38-1.09-2.92-1.99-4.12-1.38-1.84-2.34-5.62-4.34-5.05-3.03.87-1.73 4.63-1.98 7.23-3.98 4.35-8.8 8-11.35 13.55h-4.13c-.66-5.02-2.63-9.66-4.13-14.45-2.5-5.84-4.92-11.72-9.27-16.52-.72-5.93 1.63-11.69.98-17.62 4.66-4.44 10.42-5.4 16.54-5.16 4.16 13.13 14.47 18.26 26.87 20.67 18.2 9.23 22.04 16.93 16.49 33.09z"/><path class="st303" d="M176.37 677.16c1.5 4.78 3.47 9.42 4.13 14.45H85.55c.24-3.92 4.18-5.81 5.12-9.35 3.65 1.64 6.56.52 9.08-2.33 1.57-1.78 3.05-3.78 4.97-5.1 2.81-1.92 3.37-7.61 7.12-6.5 3.16.94 5.53 4.81 8.07 7.55 4.91 5.31 7.46 5.53 13.13.61 1.53-1.33 2.75-3 4.12-4.52h2.15c-.11 1.36-.18 2.72-.35 4.07-.39 3.08-2.68 7.01.58 8.91 2.97 1.72 6.05-1.49 8.6-3.28 4.01-2.81 7.08-6.87 11.7-8.93 1.14 2.81 2.14 5.7 3.45 8.43 1.88 3.89 4.4 4.31 7.51 1.12 1.75-1.81 3.22-3.96 5.57-5.13z"/><path class="st283" d="M90.68 682.25c-.94 3.53-4.88 5.43-5.12 9.35H73.18c-2.34-5.36-5.9-9.99-8.94-14.94-3.73-6.08-3.88-12.22.6-18.12 1.86-4.04 4.98-7.31 6.65-11.54.98-2.49-.54-5.68 2.26-7.52 2.66-1.75 2.48-4.13 1.53-6.69l9.27.09c-.99 4.13-2.31 8.21-2.88 12.39-.79 5.79-.96 11.77 3.47 16.42 5.65 5.92 7.25 12.75 5.54 20.56z"/><path class="st316" d="M64.83 658.54c-4.48 5.9-4.33 12.04-.6 18.12 3.04 4.95 6.6 9.57 8.94 14.94H30.86c.39-7.22.77-14.44 1.16-21.66 1.63-1.44.13-4.24 2.99-5.5 4.49-1.99 8.6-4.83 13.05-7.42.4.83.79 1.58 1.13 2.34 1.23 2.79 2.21 6.94 5.31 6.85 3.7-.11 2.71-4.86 4.01-7.47.22-.44.19-1.01.28-1.51.46-2.55 1.55-2.8 3.34-.98.83.84 1.8 1.53 2.7 2.29z"/><path class="st303" d="M227.98 691.6c5.55-16.16 1.71-23.87-16.49-33.07l-2.31-8.25c5.43 1.58 7.72 7.56 13.08 9.31 1.52.5 2.81 2.56 4.52 1.28 1.96-1.46 1.34-3.67.52-5.6-1.8-4.25-2.65-8.74-3.45-13.24 8.12 2.28 13.41 8.31 18.8 14.2 1.48 11.86.08 23.61-1.25 35.37h-13.42zm-23.68-11.62c4.46 3.87 8.91 7.74 13.37 11.62h-33.03c2.56-5.54 7.37-9.2 11.35-13.55.71 1.13 1.37 2.29 2.14 3.37.91 1.27.93 3.69 3.09 3.38 1.66-.24 1.69-2.24 2.21-3.61.18-.44.57-.8.87-1.21z"/><path class="st316" d="M26.67 428.34c-1.41-6.05-1.89-12.2-2.01-18.39-.39-18.73-1.5-37.44-3.94-56-2.48-18.83-.33-37.36 2.27-55.92 1-7.14 2.05-14.27 3.27-21.37 1.31-7.67 3.84-15.02 7.68-21.75 16.95-29.71 40.36-52.32 72.62-64.85 6.21-2.41 12.81-3.83 19.23-5.71 10.08-2.97 17.64-9.06 22.2-18.55 2.02-4.2 5.25-6.14 9.64-6.63-1.29 4.36.1 7.86 2.95 11.29 11.44 13.74 20.55 29.1 30.22 44.06 5.46 8.45 9.56 17.58 13.77 27.1 1.56-2.25.86-4.15.54-5.84-1.03-5.38-2.34-10.7-3.53-16.05-.28-1.24-1.56-3.12.3-3.52 3.47-.76 6.41-4.05 10.64-1.82 2.8 1.48 6.16 1.91 9.26 2.81.67.22 1.34.45 2.01.67 1.11.74 2.36 1.34 3.32 2.25 3.94 3.75 6.14 1.99 9.33-1.63 4.15-4.73 3.99-9.76 3.61-15.19 5.97 2.25 11.62 5.58 18.34 5.2 2.51 4.45 4.95 9.13 7.28 14.03 15.54 32.7 21.06 64.65 22.32 91.23-2.28 5.6-5.2 14.43-11.96 23.04-5.72 7.29-11.68 14.48-16.16 22.64-5.56 10.15-9.72 20.45-8.28 32.76 1.94 16.58 2.13 33.31-2.79 49.64-.28.94-.07 2.03-.09 3.05-2.89-.71-4.85 1.7-7.39 2.19.24-2.54.35-5.11.73-7.63 1.14-7.6 2.79-15.08 5.24-22.4.56-1.66 1.45-4.42-1.59-5.03-2.5-.5-2.66 1.73-3.43 3.51-5.43 12.51-11.82 24.5-19.9 35.53.21-3.25.29-6.52.68-9.76.37-3.08.85-6.14.48-9.23-.16-1.35-.35-2.98-1.98-3.27-1.55-.28-1.67 1.38-2.3 2.32-1.9 2.85-3.83 5.68-5.74 8.52-1.75-1.54-.85-3.86-1.68-5.71-1.01-2.26-.98-5.24-4.48-5.36-.93-6.71-1.8-13.43-4.22-19.81-.35-1.01-.7-2.02-1.04-3.03.38-2.94-.01-5.76-1.23-8.47.12-2.02 1.38-3.37 2.6-4.84 3.6-4.33 7.06-8.78 9.28-14.04.69-1.63 1.32-3.32-.06-4.79-1.52-1.61-3.38-1.06-5.25-.49-1.63.49-2.73 2.48-5.18 1.94 1.78-3.12 3.49-5.92 3.96-9.16.57-3.9-1.52-5.46-5.18-4.01-3.21 1.27-4.75 4.3-7.02 6.55-.12-2.2.22-4.48-1.71-6.23-4.41-4-4.85-7.47-1.71-12.51 1.63-2.62 3.34-5.2 4.84-7.9 1.64-2.93 2.92-6.34.76-9.22-2.18-2.92-5.32-.64-8.33.09 0-3.77.02-7.35-.01-10.93-.02-1.89.14-4.17-2.33-4.52-2.77-.39-3.54 2.07-3.72 4.02-.88 9.37-2.38 18.8-2 28.15.39 9.72 2.08 19.4 1.92 29.2-.03 1.7.31 3.45 2.05 4.44-1.11 2.78-2.22 5.56-3.32 8.34-.73-5.95-1.38-11.92-2.27-17.85-.21-1.36-.14-3.7-2-3.72-2.12-.03-1.52 2.28-1.7 3.64-.4 2.92-.82 5.94-2.46 8.32-7.79 11.27-10.46 24.43-14.2 37.21-2.01-1.07-1.12-3.03-1.26-4.56-.47-5.44-.61-10.92-1.1-16.36-.19-2.06-1.03-4.23-3.59-4.29-2.35-.05-3.08 1.94-3.38 3.84-.5 3.2-.55 6.48-1.23 9.63-.74 3.4.21 7.59-3.84 9.71-1.2-3.22-1.63-7.06-6.13-7.64.22-2.47-.69-4.72-1.4-7-.29-.92-.53-2.13-1.76-2.29-1.26-.16-1.77.87-2.12 1.84-2.61 7.4-5.38 14.75-6.34 22.61-1.15.61-1.49 2.33-3.24 2.35-.53-1.96.4-3.68.73-5.45 1.03-5.46.97-10.95.15-16.39-.29-1.89-.62-4.41-3.45-4.4-2.48.01-2.77 2.17-3.35 3.95-.47 1.42-.93 2.84-1.51 4.64-.57-1.86-1.03-3.31-1.46-4.78-.46-1.57-1.09-3.06-3.1-2.68-1.64.31-1.91 1.72-2.1 3.16-.27 2.04-.67 4.05-1.01 6.08-2.54-4.43-5.84-8.38-9.47-11.79-6.05-5.69-11.19-12.97-20.43-14.14-2.39-3.35-4.69-6.77-7.2-10.03-1.6-2.08-3.66-3.7-6.55-3.43-8.55.8-16.07 10.95-14.59 19.65-1.52.27-2.3 1.32-2.89 2.63-4.32 9.61-3.49 19.52-1.69 29.48-6.11 1.24-12.36 1.8-17.84 5.05zm222.27-71c3.83-9.97 9.81-17.87 12.42-27.46 3.04-11.13 5.16-22.38 6.85-33.78 2.34-15.88-.07-30.79-7.68-44.88-.7-1.29-.9-2.98-2.86-3.31-7.55-1.27-14.33-4.62-21.06-8.02-3.5-1.77-6-1.08-8.62 1.73-4.66 5-7.95 11.21-13.67 15.29-1.58 1.12-1.29 2.88-.4 4.63 3.91 7.64 7.71 15.33 11.55 23.01 6.5 13.02 14.18 25.43 16.28 40.39 1.48 10.61 4.6 21.01 7.19 32.4z"/><path class="st283" d="M431.24 441.81c-3.52-5.32-5.78-11.09-6.27-17.5-.84-10.91-1.65-21.82-2.51-32.73-.99-12.5-5.92-24.27-6.82-36.78.41-2.36.91-4.7 1.21-7.07 1.51-11.88 3.68-23.78-.07-35.62-3.51-11.09-6.27-22.44-10.76-33.21-.93-11.02-7.16-18.79-15.66-25-4.33-3.17-9.1-5.43-14.77-3.73-8.89 2.26-18.04 3.77-25.9 8.98-6.51 5.13-8.16 12.76-10.2 20.13-6.24 22.48-5.56 45.53-5.48 68.53-.78 9.06-2.78 17.83-5.42 26.53-1.77 5.83-3.84 11.81-2.16 18.13-.32 9.38-7.08 13.9-13.9 18.35-1.81 1.18-3.62 3.72-5.7 2.67-2.11-1.06-1.29-4.05-1.2-6.2.49-12-1.64-23.49-6.24-34.57-2.5-6.01-4.78-12.1-5.46-18.65-.02-3.48-.05-6.96-.07-10.44 2.7-13.27 10.45-24.26 16.67-35.94-9.79 10.12-19.74 20.15-17.44 36-.87 3.44-1.23 6.91-.83 10.45-.09 4.29-.18 8.59-.26 12.88-.16 8.75.64 17.56-1.18 26.21-.47 2.2-.08 5.14-3.26 6.35-.16-.82-.4-1.32-.34-1.78 1.75-13.07.94-26.08-1.33-38.98-3.15-17.86-1.45-34.56 10.51-49.14 5.89-5.96 11.78-11.92 17.66-17.89 8.15-8.29 14.38-18 14.76-29.67.39-12.04-2.62-23.81-8.62-34.52-3.19-5.69-4.59-11.81-4.53-18.23.04-4.78.6-9.56.93-14.34 2.19-6.37 3.91-12.85 4.87-19.52.68-2.08 1.44-4.15 1.34-6.4 2.5-6.63 1.96-13.53 1.4-20.33-.76-9.12-.88-18.39-4.32-27.09-.14-.24-.29-.47-.45-.69 1.01-.56 1.33-1.49 1.38-2.57-1.47-6.49-2.42-12.93-1.28-19.67.7-4.13.26-8.46.34-12.7 1.97-3.62-.95-7.49.9-11.36 2.79-5.84 7.59-9.4 12.55-12.96 14.79-11.53 32.37-12.01 49.91-12.6 16.82-.56 32.02 3.32 45.44 14.34 10.78 8.85 22.07 16.81 27.5 30.5 4.22 10.64 6.26 21.35 4.09 32.71-1.13 5.9-2.11 11.82-3.15 17.73-2.8-1.32-4.18-6.56-8.91-3.09-.43.32-3.01-2.4-4.66-3.6-4.33-3.15-6.03-2.52-6.55 2.81-1.47 15.22-2.56 30.45-.41 45.73 4.11 29.14 5.75 58.5 7.99 87.81 1.67 21.76 1.86 43.61 4.25 65.33 1.22 11.11-1.43 22.4 1.05 33.44 2.32 10.32 2.6 20.29-1.68 30.29-1.82 4.25.18 8.83 1.07 13.18 1.47 7.23 3.38 14.35 4.48 21.69 1.5 9.99-.62 19.49-2.67 29.07-.36 1.69-.73 3.67-2.77 3.9-2.07.24-2.87-1.73-3.58-3.22-3.1-6.51-5.97-13.13-9.14-19.6-1.14-2.27-2.89-4.24-4.35-6.35zM322 204.37c-.54 3.6-.71 7.28.25 10.74 3.24 11.7 7.79 23.03 9.81 35.13.7-14.96-.28-29.89.72-44.78 1.36-9.16 3.2-18.23 5.33-27.24 3.08-13.06 5.63-26.14 3.51-39.7-1.56-10.01-4.76-19.38-9.77-28.3-.78 5.27-1.46 10.51-1.19 15.69.89 16.73-.3 33.19-3.94 49.59-2.11 9.5-4.51 19.03-4.72 28.87z"/><path class="st303" d="M258.39 208.49c-6.71.38-12.37-2.95-18.34-5.2-1.46-1.97-2.76-2.88-4.62-.2-3.58 5.15-6.85 10.57-11.65 14.77-.67-.22-1.34-.45-2.01-.67-2.33-5.86-6.85-10.11-10.84-14.75-11.11-12.92-26.56-21.18-37.09-34.78-4.03-5.2-6.85-10.23-4.37-16.89 2.49-3.72 3.63-7.97 4.76-12.21.44-1.63.59-3.34 2.09-4.45 5.34 4.87 10.35 4.08 14.14-2.3 2.67-4.5 4.92-9.3 4.35-14.61-1.2-11.18 2.84-20.89 7.83-30.39 2.19-4.17 5.44-7.35 10.38-7.43 4.35-.07 9.14 2.06 10.24 5.79 3.15 10.7 13.02 17.37 15.78 28.17 1 3.91 3.7 3.94 6.6 1.29 2.72-2.48 4.89-5.35 6.29-8.7 2.2-5.26 5.99-8.57 11.27-10.6 4.17-1.6 8.25-3.55 11.52-6.72 4.58-4.44 9.58-4.71 15.68-3.28 7.9 1.84 15.89 4.87 24.28 2.35 1.38 1.2 2.12 2.36.97 4.32-4.1 7-6.04 14.72-7.11 22.7-.29 2.16-.49 4.31.98 6.2.18 2.33 1.06 4.67-.02 6.99-5.77 4.98-7.45 11.07-4.98 18.29-.78 6.33-3.26 12.56-1.1 19.07-1.33 4.4-4.83 4.01-8.26 3.72-1.56-.13-3.24-1.62-4.54.5-6.27-1.52-12.51-3.27-18.84-4.45-3.01-.56-6.64-.34-6.34 4.28.42 6.46 9.68 16.24 16.07 17.34-.38 4.13-4.12 6.51-5.25 10.37-3.34 11.39-4.42 12.04-16.46 12.57l.16.03c-.52-.38-1.05-.75-1.57-1.12zm18.27-90.95c8.23-2.04 14.68 1.18 21.26 4.07 1.56.68 3.86 2.27 5.07.06 1.22-2.23-1.15-3.67-2.59-5.02-.7-.66-1.78-1.11-2.75-1.27-4.57-.73-9.16-1.46-13.76-1.91-2.73-.25-5.41.16-7.23 4.07z"/><path class="st283" d="M314.69 87.67c-8.4 2.51-16.38-.51-24.28-2.35-6.1-1.42-11.1-1.16-15.68 3.28-3.27 3.17-7.35 5.12-11.52 6.72-5.28 2.03-9.08 5.34-11.27 10.6-1.4 3.36-3.58 6.22-6.29 8.7-2.9 2.64-5.6 2.62-6.6-1.29-2.75-10.81-12.62-17.47-15.78-28.17-1.1-3.73-5.88-5.86-10.24-5.79-4.93.08-8.18 3.26-10.38 7.43-4.99 9.5-9.03 19.21-7.83 30.39.57 5.31-1.68 10.11-4.35 14.61-3.79 6.38-8.8 7.17-14.14 2.3-2.41-10.18-5.21-20.23-6.38-30.71-4-35.74 9.05-64.16 36.64-86.33 13.25-10.65 28.58-14.09 45.09-10.41 13.35 2.97 26.86 5.82 38.02 14.76 2.35 1.88 5.43 2.91 8.29 4.05 5.22 2.08 9.89 4.86 13.02 9.65 3.66 5.61 10.55 7.44 14.45 12.98 3.07 4.36 3.21 10.3 7.84 13.65-4.96 3.56-9.76 7.12-12.55 12.96-1.85 3.87 1.08 7.74-.9 11.36-1.6.94-3.71.23-5.16 1.61z"/><path class="st280" d="M169.48 150.77c-2.48 6.66.34 11.68 4.37 16.89 10.53 13.6 25.98 21.87 37.09 34.78 3.99 4.64 8.51 8.89 10.84 14.75-3.11-.9-6.46-1.33-9.26-2.81-4.23-2.23-7.17 1.06-10.64 1.82-1.86.41-.58 2.29-.3 3.52 1.19 5.35 2.5 10.67 3.53 16.05.32 1.69 1.02 3.59-.54 5.84-4.22-9.52-8.31-18.65-13.77-27.1-9.67-14.97-18.78-30.32-30.22-44.06-2.86-3.43-4.24-6.93-2.95-11.29 2.83-3.98 5.66-7.97 8.55-12.05 1.42.8.69 3.83 3.3 3.66z"/><path class="st283" d="M.19 534.29C.13 528.26.06 522.23 0 516.2c6.8-5.1 14.32-7.99 22.93-7.62 1.27.44 2.54.88 3.8 1.33 0 1.01-.01 2.01-.01 3.02-3.12 2.28-6.29 4.5-9.34 6.86-3.41 2.63-5.73 5.46-1.33 9.36.78.69.89 2.14 1.32 3.23-5.4 3.55-11.42 1.58-17.18 1.91zm26.48-105.95c5.48-3.25 11.73-3.81 17.78-5.07.88-.3 1.77-.6 2.65-.9-.23.22-.46.43-.69.65.5.37 1 .75 1.5 1.12 1.55 3.21-.29 5.98-1.23 8.82-1.46 4.44-1.41 8.41 2.84 11.37-.05.85-.11 1.7-.16 2.54-3.74 0-7.49.01-11.23.01-4.18.15-6.69-2.92-9.68-5.04-1.36-4.4-4.64-8.54-1.78-13.5z"/><path class="st283" d="M26.74 509.91c-1.27-.44-2.54-.88-3.8-1.33.34-2.91.92-5.78 2.41-8.34 3.24-5.57 5.2-11.46 5.67-17.96.29-4.07 1.97-7.69 6.55-8.88 2.16.73.74 4.11 3.32 4.53-1.22 6.51-.76 13.03-.06 19.54-1.92-.2-3.03 1.09-4.4 2.12-3.86 2.9-6.25 7.1-9.69 10.32z"/><path class="st283" d="M40.88 477.94c-2.59-.42-1.16-3.8-3.32-4.53 1.41-2.57 0-4.92-.56-7.33.09-2.18-.41-4.3-.62-6.43-.33-3.29-1.91-7.03 1.65-9.74 3.96-.44 5.87 3.63 9.35 4.25-2.17 7.92-4.33 15.85-6.5 23.78z"/><path class="st316" d="M38.02 449.9c-3.56 2.71-1.98 6.46-1.65 9.74.22 2.13.71 4.25.62 6.43-6.95-6.63-6.5-15.87-8.54-24.23 3 2.12 5.51 5.19 9.68 5.04.52 1.03.64 2.04-.11 3.02z"/><path class="st303" d="M334.01 347.8c-.08-23-.76-46.05 5.48-68.53 2.05-7.37 3.69-15 10.2-20.13 3.47 1.67 7.11 1.57 10.8 1.09 2.89-.38 5.99-1.05 8.4 1.11 6.84 6.14 12.97 13.01 17.39 21.04 4.15 7.53 8.12 15.18 12.05 22.81 5.15 9.97 8.79 20.74 12.83 31.26 2.26 5.9 1.73 12.54 4.47 18.36.9 12.52 5.83 24.29 6.82 36.78.86 10.91 1.68 21.82 2.51 32.73-.85.78-.9 1.81-.88 2.85.19 14.26-.12 28.51-.89 42.75-.26 4.82-1.01 9.54-1.46 14.32-.99 10.64-9.18 14.93-16.94 19.76-8.03 4.99-16.62 8.85-25.09 12.98-8.85 4.16-17.59 8.58-26.59 12.41-13.12 5.59-26.88 9.34-40.59 13.2-2.7.76-5.47.18-8.11-.76-.5-3.04 1.27-4.45 3.84-5.16 4.95-1.36 9.97-2.48 14.88-3.99 6.03-1.85 7.25-5.75 3.79-11.02-2.19-3.34-5.24-4.86-9.15-4.57-10.9.82-21.11-1.14-30.32-7.28 2.99-3.89 7.99-4.86 11.54-7.94 1.02-1.76 3.06-1.25 4.55-2.02 12.86-6.6 25.16-14.16 37.48-21.66 5.41-3.29 11.51-5.95 14.99-11.79 6.02-.76 8.29-3.19 8-8.9-1.09-21.72-4.28-28.36-4.28-28.36-4.56-11.91-9.38-26.24-15.19-44.22-2.41-9.97-4.66-19.99-7.36-29.88-.64-2.46.74-6.14-3.17-7.24z"/><path class="st303" d="M287.47 509.8c9.22 6.14 19.43 8.09 30.32 7.28 3.91-.29 6.96 1.24 9.15 4.57 3.46 5.27 2.24 9.17-3.79 11.02-4.91 1.5-9.93 2.63-14.88 3.99-2.57.7-4.34 2.11-3.84 5.16-2.29.4-2.8 2.19-3.15 4.09-3.6 3.58-6.96 7.42-12 9.53-9.28 3.93-11.53 7.71-11.82 10.49-.38 3.7 2.86 4.42 3.94 10.82.52 3.07-.42 6.93-2.29 14.66-.31 1.29-.8 3.13-2.38 4.03-.82.47-1.88.63-3.27.37-2.23-4.81-2.1-10.57-5.96-14.71.64-2.47-.65-4.17-2.16-5.9-1.77-2.03-3.36-4.21-5.03-6.33-.12-1.06-.43-1.8-1.67-2.16-7-2.03-14.02-3.8-21.4-2.42-.38-.73-1.18-2.05-1.08-2.12 4.83-3.46 2.85-9.16 4.24-13.67 2.03-6.55 5.07-12.99 4.23-20.32-.43-3.77-2.65-7.1-2.21-10.98 5.65-3.33 12.31-5.08 16.58-10.57 1.82.96 3.26-.38 4.87-.77 6.29-1.55 12.6-3.61 18.87.08 1.58 1.27 3.16 2.57 4.73 3.86z"/><path class="st283" d="M242.65 656.23c-5.39-5.9-10.68-11.93-18.8-14.2l.03.03c-.36-.37-.72-.74-1.07-1.11-1.49-1.64-2.81-3.49-4.49-4.89-5.01-4.18-8.45-9.01-9.56-15.74-1.98-12.06-7.07-22.95-13.93-33.03.25-1.49 1.17-2.24 2.64-2.39 2.72 1.73 6.25 1.44 8.82 3.54-1.73 10.38 4.11 15.9 12.46 20.21 5 2.59 10.76 3.2 15.46 6.39 1.75 3.24 3.5 6.49 5.24 9.73 4.27 6.43 8.2 13.04 10.97 20.3 1.12 2.93 1.7 5.94 1.55 9.06-.09 1.87 0 3.92-2.05 4.93-1.91.93-3.17-.57-4.59-1.44-.86-.53-1.79-.93-2.68-1.39zm38.8-79.13c.57 6.73 2.85 13.06 4.43 19.56-.07 5.98-.02 11.97-.25 17.95-.2 5.08-1.85 6.04-6.51 4.06-4.38-1.86-8.71-3.83-13.06-5.76l-4.3-4.06c1.28-3.32.97-8.08 6.36-7.88 3.83.14 5.29-1.68 5.34-5.18 3.55.67 4.97-1.43 5.65-4.4 1.07-4.71 1.43-9.46.81-14.27.52 0 1.03-.01 1.53-.02z"/><path class="st283" d="M261.76 608.86l4.3 4.06c-.16 6.15.36 12.32-.53 18.46-.3 2.06-.43 4.37-2.66 5.17-2.24.8-2.98-1.59-4.41-2.64-5.74-4.21-12-7.49-19.01-9.13-1.75-3.24-3.5-6.49-5.24-9.73 2.99.18 5.55 1.45 7.63 3.49 1.21 1.19 2.26 2.99 4.08 2.31 2.19-.81 1.63-3.03 1.47-4.86 5.18-1.59 10.58-2.73 14.37-7.13zM64.83 658.54c-.91-.76-1.88-1.45-2.7-2.29-1.79-1.82-2.88-1.57-3.34.98-.09.51-.06 1.07-.28 1.51-1.3 2.61-.31 7.36-4.01 7.47-3.1.1-4.08-4.06-5.31-6.85-.34-.77-.73-1.51-1.13-2.34-4.45 2.59-8.56 5.43-13.05 7.42-2.86 1.27-1.36 4.06-2.99 5.5.31-3.05-.5-4.82-4.11-4.12-1.17.23-3.05.76-3.58-.9-.61-1.92 1.39-2.43 2.57-3.27.97-.69 2.01-1.28 3.04-1.88 1.44-.85 3.11-1.39 3.06-3.61-.05-2.51-2.15-1.62-3.34-2.2-.91-.45-2-.66-2.03-1.96-.03-1.17.71-1.92 1.67-2.36 1.7-.76 3.45-1.4 5.18-2.1 2.07-.68 4.13-1.36 6.51-2.15-1.79-1.82-4.39-.56-5.07-2.9-.13-.24-.26-.47-.36-.72-.01-.02.25-.15.38-.23 1.86-2.68 4.93-3.79 7.41-5.66 7.54-2.56 14.32-6.48 20.56-11.38 2.07-1.06 4.14-2.13 6.21-3.19 1.72 3.82 3.44 7.63 5.17 11.45.95 2.57 1.13 4.95-1.53 6.69-2.8 1.84-1.28 5.03-2.26 7.52-1.68 4.26-4.81 7.53-6.67 11.57z"/><path class="st283" d="M63.9 624.52c-6.24 4.9-13.03 8.82-20.57 11.38-1.09-2.83-3.86-3.17-6.17-4.19-.4-1.71-.79-3.42-1.19-5.13-2.53-3.59-2.76-9-8.13-10.36-.94-.34-1.88-.98-2.81-.96-3.43.09-2.77-1.59-1.6-3.47 1.61-2.57 4.04-4.66 4.41-7.92l-.06.04.97-1.06c2.61-3.59 7.85-4.51 9.36-9.21 4.15.01 7.98-3.43 12.34-1.13-2.43 2.85-4.45 6.01-6.81 8.93-2.74 3.39-5.39 7.12-6.37 11.58-.88 3.97 1.24 7.97 3.99 7.18 8.39-2.42 15.01 3.4 22.64 4.32z"/><path class="st283" d="M38.11 593.64c-1.52 4.7-6.75 5.63-9.36 9.21-.56.13-1.48-.06-.97 1.06l.06-.04c-3.71-.27-6.01 2.56-8.81 4.16-4.46 2.56-6.47 1.79-6.66-3.49-.32-8.89 1.04-17.42 6.42-24.91 2.29-3.2 4.31-6.59 6.46-9.89 1.16.01 2.19-.23 2.75-1.4 2.36 3.53 3.5 7.2 2.75 11.62-1.35 8.01.08 10.3 7.36 13.68z"/><path class="st303" d="M20.28 539.03c.72-1.33 2.38-2.45.9-4.24 6.98-3.23 12.3-9.11 19.39-12.21 1.08-.47.5-2.22.58-3.4 3.68-5.13 8.13-1.22 12.25-1.04.09.35.19.69.28 1.04 1.29 6.3-3.66 9.46-7.52 11.68-7.5 4.33-12.44 9.94-14.24 18.35-1.18-1.39-2.93-1.78-4.51-1.97-4.96-.6-6.87-3.63-7.13-8.21z"/><path class="st283" d="M20.28 539.03c.26 4.58 2.17 7.61 7.14 8.22 1.58.19 3.33.58 4.51 1.97-2.52 6.13-5.32 12.2-3.93 19.13-.56 1.16-1.59 1.41-2.75 1.4-2.92-5.49-7.87-9.26-11.76-13.93-2.07-2.49-4.39-4.78-6.32-7.37-2.19-2.95-1.66-5.1 2.36-5.63 3.85-.51 7.77-.81 10.75-3.79zm20.87-19.85c-.07 1.18.5 2.92-.58 3.4-7.1 3.1-12.41 8.97-19.39 12.21l-3.81-2.4c-.42-1.1-.54-2.54-1.32-3.23-4.4-3.9-2.08-6.72 1.33-9.36 3.06-2.36 6.22-4.58 9.34-6.86.04 8.22 2.7 10.51 9.16 7.58 1.76-.81 3.37-1.44 5.27-1.34zm143.47 118.68c-6.12-.24-11.88.71-16.54 5.16-7.99 2.51-16.01 4.94-22.66 10.37-4.41 1.91-7.65 5.43-11.35 8.32-4.7 2.11-9.34 4.56-14.72 2.18-.4-.18-1.07-.05-1.48.18-7.89 4.28-14.82.43-21.33-3.16-10.18-5.61-11.81-10.32-9.14-21.71.35-1.49.35-3.06.51-4.59 1.29 0 1.69-.87 2-1.94 1.56-5.46 2.86-10.95 2.96-16.67.03-1.51-.03-3.36 2.02-3.64 2.05-.28 2.5 1.53 2.94 2.97 1.19 3.94 2.11 7.96 3.38 11.87 2.4 7.38 4.87 14.75 13.08 17.98 2.01.79 3.19 2.63 4 4.55 1.06 2.55 2.16 2.69 3.91.57 3.05-3.67 7.03-6.05 11.52-7.46 8.22-2.6 14.29-7.87 19.34-14.67 3.19-4.3 7.52-5.54 12.79-4 2.42.71 4.43 2.84 7.24 2.2 4.01 3.94 10.12 3.4 14.41 6.74 1 .78 3.11.3 3.11 2.08 0 2.22-2.25 1.51-3.51 2.07-.79.32-1.66.4-2.48.6z"/><path class="st283" d="M184.62 637.86c.82-.2 1.69-.28 2.45-.61 1.26-.55 3.51.15 3.51-2.07 0-1.79-2.11-1.3-3.11-2.08-4.29-3.35-10.4-2.81-14.41-6.74.63-2.31 1.38-4.6 1.18-7.05 2.87-.71 4.55-2.79 5.84-5.24 1.8-3.41 3.53-6.86 5.29-10.29 6.51 1.27 12.23 9.1 12.68 17.21.6 10.93 5.04 20.43 11.12 29.3l2.31 8.25c-12.39-2.42-22.7-7.55-26.86-20.68zm-39.2 15.53c6.65-5.43 14.67-7.87 22.66-10.37.65 5.93-1.7 11.69-.98 17.62-.41 5.25-4.08 8.53-7.28 12.11-4.61 2.06-7.69 6.12-11.7 8.93-2.55 1.79-5.63 5-8.6 3.28-3.26-1.89-.96-5.83-.58-8.91.17-1.35.24-2.71.35-4.07 2.57-6.04 4.65-12.21 6.13-18.59z"/><path class="st283" d="M159.83 672.74c3.19-3.57 6.87-6.86 7.28-12.11 4.35 4.8 6.76 10.69 9.27 16.52-2.35 1.17-3.83 3.32-5.59 5.13-3.11 3.19-5.63 2.77-7.51-1.12-1.32-2.72-2.31-5.61-3.45-8.42zm44.47 7.24c-.29.4-.69.77-.86 1.21-.52 1.37-.55 3.37-2.21 3.61-2.16.31-2.19-2.11-3.09-3.38-.77-1.08-1.43-2.24-2.14-3.37.25-2.61-1.05-6.36 1.98-7.23 2-.57 2.96 3.2 4.34 5.05.88 1.2 1.33 2.73 1.98 4.11zM87.9 634.6c-.16 1.53-.16 3.1-.51 4.59-2.66 11.4-1.04 16.11 9.14 21.71 6.51 3.59 13.44 7.44 21.33 3.16.41-.23 1.09-.35 1.48-.18 5.38 2.38 10.02-.06 14.72-2.18.05 3.72 1.85 6.91 3.09 10.27-1.36 1.52-2.59 3.19-4.12 4.52-5.67 4.92-8.22 4.7-13.13-.61-2.54-2.74-4.91-6.61-8.07-7.55-3.75-1.11-4.31 4.57-7.12 6.5-1.92 1.32-3.39 3.32-4.97 5.1-2.52 2.85-5.43 3.97-9.08 2.33 1.71-7.82.11-14.65-5.54-20.57-4.43-4.65-4.26-10.62-3.47-16.42.57-4.18 1.89-8.27 2.88-12.39 1.01-.67 2.01-.71 3.02-.01.13.57.24 1.15.35 1.73zm121.28 15.68c-6.08-8.87-10.51-18.37-11.12-29.3-.45-8.1-6.17-15.93-12.68-17.21 1.01-2.76 3.21-3.02 5.79-3.17 4.4-.25 5.77-2.51 4.91-6.87-.34-1.74-1.15-3.15-2.06-4.58.04-.72.01-1.47.81-1.87 6.85 10.08 11.94 20.98 13.93 33.03 1.11 6.73 4.55 11.56 9.56 15.74 1.69 1.4 3.01 3.25 4.49 4.89.36.37.72.74 1.07 1.11l-.03-.03c.79 4.51 1.65 8.99 3.45 13.24.82 1.93 1.45 4.14-.52 5.6-1.71 1.27-3.01-.79-4.52-1.28-5.36-1.74-7.65-7.72-13.08-9.3z"/><path class="st303" d="M206.28 588.44c-2.57-2.1-6.1-1.81-8.82-3.54-.14-.66-.48-1.36-.37-1.97.4-2.08-.37-15.43-1.14-17.11-.36-.78-.75-1.56-1.26-2.23-5.65-7.48-11.05-10.69-17.34-3.28-3.66 1.36-7.48 1.41-11.32 1.39-4.43-.77-5.61-5.53-8.86-7.42-5.83-3.4-6.87-8.44-7-14.41-.06-2.6.83-5.58-1.51-7.81-.17-2.28-.41-4.57.88-6.66 2.1-.32 4.21.78 6.37-.79 2.2-1.61 4.66-1.17 7.15.37 4.43 2.73 6.47 1.61 7.04-3.63.24-2.19.05-4.38-.48-6.61-1-4.21-3.5-8.16-2.52-12.76 5.36-3.36 10.6-6.93 16.94-8.35 1.1-.25 2.38-.93 3.01-1.81 2.78-3.9 6.5-5.25 11.15-4.95 3.43.22 4.54-1.24 3.2-4.71-1.92-4.95-.85-9.64 1.59-14.29 3.1-5.91 6.2-11.89 7.25-18.59.54-3.43 1.64-6.61 3.25-9.65 1.92-2.84 3.85-5.67 5.74-8.52.63-.95.75-2.6 2.3-2.32 1.63.29 1.82 1.92 1.99 3.27.37 3.1-.11 6.15-.48 9.23-.39 3.23-.46 6.5-.68 9.76-.28 1.86-.68 3.71-.82 5.58-.7 9.72-.09 19.79-7.87 27.48-.74.74-.47 1.55.24 2.23 4.32 4.1 8.11 8.77 13.02 12.23 3.97 7.19 8.94 13.55 15.48 18.61-.44 3.88 1.77 7.21 2.21 10.98.85 7.34-2.2 13.78-4.23 20.32-1.4 4.51.58 10.2-4.24 13.67-.1.07.7 1.39 1.08 2.12-.33.16-.65.33-.98.49-.63-.16-1.26-.31-1.89-.47-1.24-.25-1.91.48-2.44 1.44-2.4 2.71-5.17 1.75-8.01.93-1.66-.48-3.49-.61-4.74.98-1.19 1.51-1.15 3.38-.13 4.83 3.57 5.09.92 9.57-1.41 13.88-3.4 6.3-5.97 6.64-11.35 2.09z"/><path class="st280" d="M248.94 357.34c-2.59-11.39-5.7-21.78-7.2-32.41-2.1-14.95-9.78-27.37-16.28-40.39-3.83-7.68-7.64-15.37-11.55-23.01-.89-1.75-1.18-3.5.4-4.63 5.73-4.08 9.01-10.29 13.67-15.29 2.62-2.81 5.12-3.49 8.62-1.73 6.73 3.4 13.51 6.75 21.06 8.02 1.96.33 2.16 2.02 2.86 3.31 7.61 14.09 10.02 29 7.68 44.88-1.68 11.4-3.8 22.65-6.85 33.78-2.61 9.59-8.58 17.49-12.41 27.47z"/><path class="st283" d="M107.28 410.9c.34-2.03.74-4.04 1.01-6.08.19-1.44.46-2.85 2.1-3.16 2.02-.38 2.64 1.11 3.1 2.68.43 1.47.89 2.92 1.46 4.78.59-1.8 1.05-3.22 1.51-4.64.58-1.78.88-3.94 3.35-3.95 2.84-.01 3.17 2.5 3.45 4.4.82 5.45.88 10.93-.15 16.39-.33 1.76-1.27 3.49-.73 5.45 1.76-.01 2.1-1.73 3.24-2.35 6.66-.36 6.75-.23 4.75 6.17-.25.79-.31 1.63-.45 2.45-5.66 1.07-11.24-.67-16.88-.45-6.35.24-8.66 2.88-8.04 9.1.34 3.4 1.62 6.29 4.37 8.39 2.7 2.07 5.47 4.06 8.2 6.08l-.06 5.33c-4.09-.45-8.18-1.48-11.58-3.6-6.03-3.75-12-4.16-18.42-1.65-.14-1.98 1.57-2.9 2.46-4.29 3.58-5.56 7.69-10.9 9.42-17.38 2.04-7.69-2.33-12.1-9.73-10.28.7-7.15-.37-8.62-7.43-10.32-1.32-.32-2.62-.73-3.93-1.09l-2.34-10.09c.27-1.21.85-2.16 2.12-2.54 3.36 6.04 9.77 8.95 13.91 15.23 1.66-5.14-.92-8.71-.23-12.46.2-1.12-.36-2.57 1.05-3.17 1.61-.68 2.63.58 3.43 1.61 2.86 3.68 4.33 8.02 5.88 12.36 1.18 3.31 1.34 7.15 5.15 11.13.01-5.67.01-9.86.01-14.05zm106.21 28.73c-1.61 3.04-2.71 6.22-3.25 9.65-1.05 6.7-4.14 12.69-7.25 18.59-2.44 4.64-3.52 9.34-1.59 14.29 1.35 3.47.24 4.94-3.2 4.71-4.65-.3-8.36 1.05-11.15 4.95-.63.88-1.91 1.56-3.01 1.81-6.34 1.42-11.57 5-16.94 8.35-1.48-1.57-.81-3.53-.8-5.3.02-4.18-.9-7.99-3.41-11.37 1.91-4.18.74-8.61 1.02-12.92 6.21-4.02 12.43-8.04 18.64-12.06 3.05 8.18 8.33 15.62 7.86 25.05 6.46-9.33 5.16-20.06 6.55-30.22 1.49-9.63 4.08-18.83 10.35-26.6 3.51.12 3.47 3.1 4.48 5.36.85 1.85-.05 4.17 1.7 5.71z"/><path class="st281" d="M157.77 418.93c3.74-12.78 6.41-25.95 14.2-37.21 1.64-2.38 2.06-5.4 2.46-8.32.19-1.36-.42-3.67 1.7-3.64 1.86.02 1.8 2.36 2 3.72.9 5.93 1.54 11.89 2.27 17.85 1.03 10.25 1.94 20.45.12 30.76-1.31 7.46-3.86 14.5-6.09 21.66-1.87.1-3.82.24-5.13-1.42-2.04-2.59-4.77-2.78-7.73-2.67-2.35.09-4.71-.08-7.06-.13-.14-7.07.37-14.02 3.26-20.6z"/><path class="st283" d="M226.94 498.57c-4.91-3.47-8.7-8.13-13.02-12.23-.71-.68-.99-1.49-.24-2.23 7.78-7.7 7.16-17.77 7.87-27.48.14-1.87.54-3.72.82-5.58 8.09-11.03 14.47-23.03 19.9-35.53.77-1.78.94-4.02 3.43-3.51 3.05.61 2.15 3.38 1.59 5.03-2.45 7.31-4.11 14.79-5.24 22.4-.38 2.52-.49 5.09-.73 7.63-1.93 4.12-1.66 8.65-2.43 12.99-1.19 6.69-2.53 13.35-3.91 20.01-.29 1.42-.93 2.73 1.26 2.99-3.21 4.27-7.08 8.13-8.15 13.67-.38.61-.77 1.23-1.15 1.84zM78.09 400.25c-1.27.38-1.85 1.33-2.12 2.54-3.25.5-6.28 1.39-8.02 4.55-2.37.71-4.73 1.69-7.19.3-1.93-6.9-7.15-11.47-11.73-16.48-1.48-8.71 6.04-18.85 14.59-19.65 2.89-.27 4.95 1.35 6.55 3.43 2.51 3.26 4.81 6.68 7.2 10.03 2.04 5.01 3.25 10.06.72 15.28zm105.64-17.27c-1.74-.99-2.08-2.74-2.05-4.44.16-9.8-1.52-19.48-1.92-29.2-.38-9.34 1.12-18.77 2-28.15.18-1.95.95-4.42 3.72-4.02 2.47.35 2.32 2.62 2.33 4.52.03 3.58.01 7.16.01 10.93 3.02-.73 6.15-3.01 8.33-.09 2.15 2.88.88 6.29-.76 9.22-1.51 2.69-3.22 5.27-4.84 7.9-3.13 5.05-2.7 8.51 1.71 12.51 1.93 1.75 1.59 4.03 1.71 6.23-.11 3.19-.22 6.38-.34 9.58-2.61-1.61-4.72-.85-6.66 1.28-1.11 1.23-1.46 3.11-3.24 3.73z"/><path class="st283" d="M236.24 483.05c-2.19-.26-1.56-1.57-1.26-2.99 1.37-6.66 2.72-13.32 3.91-20.01.77-4.34.51-8.87 2.43-12.99 2.53-.49 4.5-2.9 7.39-2.19 3.76.47 4.34 3.98 6.07 6.39 2.96 8.31 6.26 16.56 5.19 25.68-1.21 1.82-2.51 3.54-5.03 4.51.04-5.26-1.03-9.91-2.1-14.56-.46-2-1.14-3.77-3.23-4.18-2.29-.44-3.28 1.46-4.22 3.11-.76 1.33-1.44 2.7-2.12 4.07-2.19 4.46-4.11 9.08-7.03 13.16zm-158.15-82.8c2.53-5.22 1.33-10.27-.71-15.28 9.24 1.17 14.38 8.44 20.43 14.14 3.63 3.42 6.93 7.37 9.47 11.79v14.05c-3.82-3.99-3.97-7.83-5.15-11.13-1.55-4.34-3.02-8.68-5.88-12.36-.8-1.03-1.82-2.29-3.43-1.61-1.41.6-.85 2.05-1.05 3.17-.68 3.74 1.89 7.31.23 12.46-4.14-6.27-10.55-9.19-13.91-15.23zm115.55-22.27c.11-3.19.22-6.38.34-9.58 2.27-2.26 3.82-5.29 7.02-6.55 3.66-1.45 5.76.11 5.18 4.01-.48 3.24-2.18 6.04-3.96 9.16 2.45.54 3.54-1.45 5.18-1.94 1.86-.56 3.73-1.12 5.25.49 1.38 1.47.74 3.17.06 4.79-2.22 5.26-5.67 9.71-9.28 14.04-1.22 1.47-2.48 2.82-2.6 4.84-.93.05-1.86.11-2.79.16 0-5.1-.13-10.21.05-15.3.11-3.28-.91-4.9-4.39-4.16l-.06.04zm-7.84 45.29c2.97-6.35 5.25-12.96 7.16-19.7.34 0 .68.01 1.02.02.24 1.85-1 5.4 3.16 2.67 1.52-1 3.26-.54 4.92-.55.35 1.01.7 2.02 1.04 3.03-1.69 6.94-3.25 13.92-5.14 20.81-.97 3.55-1.75 7.73-7.12 6.99-2.62-4.07-2.08-9.33-5.04-13.27z"/><path class="st283" d="M190.84 436.54c5.37.74 6.15-3.45 7.12-6.99 1.89-6.89 3.44-13.87 5.14-20.81 2.42 6.39 3.29 13.11 4.22 19.81-6.27 7.77-8.86 16.97-10.35 26.6-2.86-.74-2.5-3.34-3-5.36-1.09-4.4-.89-9.11-3.13-13.25zM49.03 391.16c4.58 5.01 9.8 9.58 11.73 16.48-1.36.13-2.71.28-4.07.4-9.91.92-12.57 4.89-9.59 14.32-.88.3-1.77.6-2.65.9-1.8-9.96-2.63-19.86 1.69-29.48.58-1.3 1.37-2.35 2.89-2.62zm80.89 41.89c.15-.82.21-1.66.45-2.45 2-6.4 1.91-6.53-4.75-6.17.96-7.86 3.73-15.21 6.34-22.61.34-.97.85-2 2.12-1.84 1.23.16 1.47 1.36 1.76 2.29.71 2.27 1.62 4.53 1.4 7-2.02 1.78-1.36 4.13-1.11 6.25.66 5.6 1.39 11.17.81 16.82-2.25 1.11-4.63.95-7.02.71z"/><path class="st280" d="M223.79 217.86c4.79-4.2 8.07-9.62 11.65-14.77 1.86-2.68 3.16-1.77 4.62.2.38 5.43.54 10.46-3.62 15.19-3.18 3.62-5.38 5.37-9.33 1.63-.96-.91-2.21-1.51-3.32-2.25z"/><path class="st283" d="M202.06 405.71c-1.66.01-3.41-.44-4.92.55-4.15 2.73-2.92-.82-3.16-2.67 1.95-.21 2.01-1.66 2.04-3.12 1.32-.6 1.99-1.63 2.03-3.07.93-.05 1.86-.11 2.79-.16 1.2 2.71 1.59 5.53 1.22 8.47z"/><path class="st281" d="M415.64 354.8c-2.74-5.82-2.21-12.46-4.47-18.36-4.04-10.52-7.68-21.29-12.83-31.26-3.94-7.63-7.9-15.28-12.05-22.81-4.42-8.03-10.56-14.9-17.39-21.04-2.41-2.16-5.51-1.49-8.4-1.11-3.69.48-7.33.58-10.8-1.09 7.87-5.21 17.01-6.72 25.9-8.98.48 1.75 2.14 2.14 3.44 2.83 7.1 3.77 12.55 9.3 17.38 15.61 2.86 3.73 5.46 7.75 9.6 10.29 4.49 10.78 7.25 22.12 10.76 33.21 3.75 11.84 1.58 23.75.07 35.62-.3 2.39-.8 4.73-1.21 7.09z"/><path class="st303" d="M322 204.37c.21-9.84 2.61-19.37 4.72-28.87 3.64-16.39 4.83-32.86 3.94-49.59-.27-5.18.41-10.42 1.19-15.69 5.02 8.92 8.21 18.29 9.77 28.3 2.12 13.57-.43 26.65-3.51 39.7-2.13 9.02-3.97 18.08-5.33 27.24-3.61-.12-7.28.21-10.78-1.09zm-9.32-37.19c-2.86-1.74-5.98-2.23-9.26-1.93-2.16-6.5.33-12.73 1.1-19.06 1.45-3.03 3.36-5.95 4.21-9.15.76-2.9 2.9-5.92.77-9.15 1.08-2.33.21-4.66.02-6.99l4.19.15c.62.05 1.25.1 1.87.14.76-.01 1.53-.02 2.3-.02.63 0 1.27.01 1.9.01 2.09 7.05 4.1 16.45 4.4 27.62.21 7.78-.46 14.65-1.4 20.33-3.22-1.4-6.75-1.19-10.1-1.95z"/><path class="st281" d="M344.58 384.92c-5.37 4.13-11.83 5.66-18.14 7.54-1.69-6.32.39-12.3 2.16-18.13 2.64-8.71 4.64-17.48 5.42-26.53 3.91 1.11 2.54 4.78 3.21 7.24 2.69 9.89 4.93 19.9 7.35 29.88z"/><path class="st303" d="M314.69 87.67c1.46-1.39 3.57-.67 5.17-1.6-.07 4.24.37 8.56-.34 12.7-1.14 6.74-.19 13.19 1.28 19.67-4.34-.4-8.09-2.76-12.25-3.74 1.07-7.97 3.01-15.7 7.11-22.7 1.15-1.96.41-3.13-.97-4.33z"/><path class="st281" d="M406.02 278.89c-4.15-2.54-6.75-6.56-9.6-10.29-4.83-6.31-10.28-11.85-17.38-15.61-1.29-.69-2.96-1.08-3.44-2.83 5.66-1.7 10.44.57 14.77 3.73 8.49 6.21 14.72 13.98 15.65 25z"/><path class="st303" d="M312.67 167.18c3.35.76 6.89.55 10.11 1.94.1 2.25-.66 4.31-1.34 6.4-3.89 2.47-4.38 6.83-5.88 10.63-1.54-.48-2.53-1.97-1.98-3.08 2.78-5.55-2.88-10.49-.91-15.89z"/><path class="st303" d="M315.57 186.15c1.5-3.8 1.99-8.16 5.88-10.63-.96 6.67-2.68 13.16-4.88 19.53-1.77-2.81-.18-5.99-1-8.9z"/><path class="st283" d="M308.55 114.69c4.17.98 7.91 3.34 12.25 3.74-.06 1.07-.37 2.01-1.38 2.57-.51.05-1.02.1-1.54.16-.76.01-1.53.02-2.29.02-.62-.05-1.25-.1-1.87-.14l-4.19-.15c-1.47-1.88-1.27-4.03-.98-6.2zm-26.03 64.92c.8 2.5.81 4.89-1.01 7.01-6.39-1.1-15.65-10.88-16.07-17.34-.3-4.63 3.33-4.85 6.34-4.28 6.34 1.18 12.57 2.94 18.84 4.45 1.58 4.55-1.75 5.04-4.78 5.78-1.97-1.36-4.02-2.61-5.89-4.09-2.64-2.08-5.65-3.25-8.87-3.93-1.27-.27-2.9-.84-3.77.55-.79 1.27.63 2.15 1.27 3.09 3.35 4.97 7.99 7.92 13.94 8.76zm-5.86-62.07c1.83-3.91 4.51-4.33 7.22-4.06 4.61.45 9.19 1.18 13.76 1.91.97.15 2.04.61 2.75 1.27 1.44 1.35 3.82 2.8 2.59 5.02-1.21 2.2-3.51.62-5.07-.06-6.57-2.89-13.02-6.11-21.25-4.08zM41.15 519.18c-1.9-.11-3.51.53-5.26 1.32-6.46 2.93-9.12.64-9.16-7.58 0-1.01.01-2.01.01-3.02 3.45-3.22 5.84-7.42 9.68-10.31 1.37-1.03 2.49-2.33 4.4-2.12.18 2.03.15 4.87 2.65 4.83 4.83-.08 8.6 3.11 13.18 3.5-.49 4.27-1.46 8.41-3.24 12.33-4.14-.17-8.58-4.07-12.26 1.05z"/><path class="st281" d="M47.1 422.36c-2.98-9.43-.32-13.39 9.59-14.32 1.36-.13 2.71-.27 4.07-.4 2.46 1.39 4.82.41 7.19-.29 3.47 1.82 6.24 4.94 10.36 5.54 1.31.37 2.61.77 3.93 1.09 7.06 1.7 8.13 3.17 7.43 10.32-5.64 4.11-11.39 8.35-18.25 9.84-7.81 1.7-14.47 4.92-19.91 10.73l-1.98-.54c-4.26-2.96-4.31-6.93-2.84-11.37.94-2.84 2.78-5.61 1.23-8.82-.3-.65-.3-1.69-1.5-1.12.22-.22.45-.44.68-.66z"/><path class="st283" d="M38.02 449.9c.75-.98.63-1.99.11-3.01 3.75 0 7.49-.01 11.24-.01l.81.72c-.94 2.19-1.87 4.37-2.81 6.56-3.47-.63-5.38-4.7-9.35-4.26z"/><path class="st323" d="M49.53 444.33l1.98.54c.07 1.16-.68 1.92-1.33 2.72l-.81-.72c.06-.85.11-1.7.16-2.54zm-3.12-21.32c1.2-.57 1.2.47 1.5 1.12-.5-.37-1-.74-1.5-1.12z"/><path class="st303" d="M50.18 447.59c.65-.81 1.4-1.57 1.33-2.72 5.44-5.81 12.09-9.04 19.91-10.73 6.85-1.49 12.61-5.72 18.25-9.84 7.4-1.82 11.77 2.59 9.73 10.28-1.72 6.48-5.83 11.82-9.42 17.38-.89 1.38-2.61 2.3-2.46 4.29-4.63.02-9.32 1-12.03 4.7-3.35 4.59-7.22 8.69-10.76 13.09-3.63 4.5-5.25 9.58-4.93 15.26.32 5.79-.9 11.24-3.15 16.52-4.58-.39-8.35-3.58-13.18-3.5-2.49.04-2.47-2.8-2.65-4.83-.7-6.52-1.15-13.03.06-19.54 2.16-7.93 4.33-15.86 6.49-23.79.94-2.2 1.88-4.39 2.81-6.57z"/><path class="st281" d="M364.04 457.5c-.48-9.59-1.39-19.18-4.28-28.36-.41-1.29-.64-2.2-.97-3.3-3.21-10.74-5.47-16.36-10.69-30.96-.82-2.29-2.05-5.74-3.53-9.97-5.37 4.13-11.83 5.66-18.14 7.54-.32 9.38-7.08 13.9-13.9 18.35-1.81 1.18-3.62 3.72-5.7 2.67-2.11-1.06-1.29-4.05-1.2-6.2.49-12-1.64-23.49-6.24-34.57-2.5-6.01-4.78-12.1-5.46-18.65-.56.03-1.12.05-1.68.07-.09 4.29-.18 8.59-.26 12.88-.16 8.75.64 17.56-1.18 26.21-.47 2.2-.08 5.14-3.26 6.35-.16-.82-.4-1.32-.34-1.78 1.75-13.07.94-26.08-1.33-38.98-3.15-17.86-1.45-34.56 10.51-49.14-3.36.19-4.93 4.09-8.4 4.05-1.55 8.95-6.49 16.06-11.96 23.04-5.72 7.29-11.68 14.48-16.16 22.64-5.56 10.15-9.72 20.45-8.28 32.76 1.94 16.58 2.13 33.31-2.79 49.64-.28.94-.07 2.03-.09 3.06 3.76.47 4.34 3.98 6.07 6.39 2.37-.56 4.6-2.04 7.19-1.09 1.44 7.4 1.67 14.92 2.34 22.39 2.43.8 3.8-1.2 5.43-2.23 3.93-2.49 7.95-4.63 12.59-5.48 2.71-.5 5.31-.28 6.91 2.1 1.75 2.61.79 5.35-.88 7.64-2.46 3.36-5.97 5.54-9.39 7.83-2.66 1.78-5.91 2.8-7.71 5.74l.16.16c4.45-.05 8.9-.25 13.34-.1 6.29.22 7.87 3.01 5.2 8.69-.58 1.23-1.02 2.51-1.52 3.77 3.3 2.4 7.07.61 10.58 1.17 1.02-1.76 3.06-1.25 4.55-2.02 12.86-6.6 25.16-14.16 37.48-21.66 5.41-3.29 11.51-5.95 14.99-11.79 6.02-.72 8.29-3.15 8-8.86zm-27.78-19.91l-.75-.09c.06-.13.12-.27.18-.4.19.16.38.33.57.49z"/><path d="M223.88 642.06c-.36-.37-.72-.74-1.07-1.11.35.37.71.74 1.07 1.11z" fill="#131212"/><path class="st283" d="M57.01 603.71c-1.48 9.31 1.37 12.94 9.26 13.56 2.39.19 3.62 1.7 3.84 4.06-2.07 1.06-4.14 2.13-6.21 3.19-7.63-.92-14.25-6.74-22.64-4.32-2.75.79-4.86-3.21-3.99-7.18.98-4.46 3.63-8.19 6.37-11.58 2.36-2.92 4.38-6.08 6.81-8.93 3.57 2.93 5.41 6.86 6.56 11.2z"/><path class="st303" d="M57.01 603.71c-1.15-4.34-2.99-8.28-6.56-11.2-4.36-2.3-8.19 1.14-12.34 1.13-7.28-3.38-8.71-5.67-7.36-13.67.75-4.42-.39-8.09-2.75-11.62-1.39-6.93 1.41-13 3.93-19.13 1.8-8.42 6.74-14.02 14.24-18.35 3.86-2.23 8.81-5.39 7.52-11.68 2.01 1.6 4.07 2.14 6.83 2.34 5.1.38 8.34-4.36 13.54-3.53 4.6.74 9.5.86 13.76-2.33 1.05-.79 3.14-.93 4.44-.49 3.76 1.29 7.39.41 11.07-.04 4.48 1.48 6.44 5.17 8.05 9.17 4.05 6.51 6.09 13.16 4.38 21.17-1.07 5.03.07 10.48 4.94 14.21 2.83 2.17 2.39 5.53 1.61 8.52-.59 2.26-1.77 4.37-2.69 6.54-1.52 1.27-3.25 2.33-4.02 4.3-2.8.36-5.6.72-8.4 1.07-2.15-1.08-3.82-.17-4.62 1.71-2.6 6.08-4.76 12.33-9.07 17.57-.82 1-.5 2.94-.71 4.44-.33.06-.77 0-.98.19-9.69 8.6-15.06 9.15-26.71 2.65-2.55-1.42-5.25-2.39-8.1-2.97z"/><path d="M27.78 603.91c-.51-1.12.41-.93.97-1.06-.32.36-.65.71-.97 1.06z" fill="#dec6af"/><path class="st281" d="M107.2 580.12c2.8-.36 5.6-.72 8.4-1.07 4.6-.03 8.64 2.5 13.15 2.88-.13 3.79.37 6.93 5.44 6.55 2.09-.15 2.84 1.45 3 3.42.2 2.5-.71 4.66-1.47 6.95-1.02 3.09-1.96 7.13.27 9.32 2.66 2.62 5.58-.58 8.16-2.12 2.89-1.73 5.56-3.35 5.81 2.29.08 1.81.67 3.68.62 5.57-.07 2.46.64 4.51 3.2 5.21 2.42.66 3.81-.92 4.96-2.78 1.07-1.73 2.2-3.43 3.26-5.17 1.05-1.71.85-2.52 3.04-.11 2.64 2.91 3.2 8.99 9.21 8.23.2 2.45-.56 4.74-1.18 7.05-2.82.64-4.82-1.49-7.24-2.2-5.27-1.54-9.59-.3-12.79 4-5.05 6.8-11.11 12.08-19.34 14.67-4.49 1.42-8.47 3.8-11.52 7.46-1.75 2.11-2.85 1.97-3.91-.57-.8-1.92-1.99-3.76-4-4.55-8.21-3.23-10.67-10.6-13.08-17.98-1.27-3.91-2.19-7.93-3.38-11.87-.43-1.44-.89-3.25-2.94-2.97-2.05.28-2 2.13-2.02 3.64-.1 5.72-1.4 11.21-2.96 16.67-.31 1.07-.7 1.94-2 1.94l-.33-1.74c1.27-9.25 1.52-18.73 6.3-27.16 6.09-2.72 7.87-7.97 8.15-14.03.22-4.54.91-8.82 5.19-11.53z"/><path class="st283" d="M261.01 476.85c-.35.03-.69.06-1.04.08 1.07-9.12-2.23-17.37-5.19-25.68 2.37-.56 4.59-2.04 7.19-1.09 1.44 7.4 1.67 14.92 2.34 22.39-.09 1.56-1.47 2.25-2.27 3.34-.34.32-.69.64-1.03.96z"/><path class="st281" d="M147.6 561.46c-4.03.37-2.62 3-2.17 5.22-7.59 5.94-16 9.25-25.81 8.07.92-2.17 2.11-4.28 2.69-6.54.78-3 1.22-6.36-1.61-8.52-4.87-3.73-6.01-9.18-4.94-14.21 1.7-8.01-.34-14.65-4.38-21.17 3.29-5.12 8.32-7.49 14-6.76 7.46.96 15.23.99 22.12 4.77.68 1.03 1.37 2.05 2.05 3.08-1.29 2.09-1.05 4.38-.88 6.66-.24 3.28-2.73 5.36-4.25 7.96-1.19 2.03-2.78 4.04-1.02 6.53 3.17 4.47 4.03 9.59 4.2 14.91z"/><path class="st281" d="M149.55 525.4c-.68-1.03-1.37-2.05-2.05-3.08-1.28-2.97 1.31-5.83.35-9.25-3.26 1.28-6.2 2.64-9.26 3.61-4.49 1.43-8.75-1.36-9.56-6-.68-3.9 1.44-6.13 6.44-6.69 1.7-.19 3.43-.21 5.14-.29 3.2-.15 3.56-1.6 1.64-3.84-1.89-2.22-4.07-4.21-5.87-6.49-2.29-2.9-4.35-6.1-1.59-9.77 2.67-3.56 6.26-2.74 9.86-1.69 4.65 1.35 6.93 5.38 9.93 8.6.6 1.11.71 2.63 2.37 2.84 2.24-2.54-.54-8.73 5.95-8.03 2.51 3.38 3.43 7.2 3.41 11.37-.01 1.76-.68 3.72.8 5.3-.98 4.6 1.52 8.55 2.52 12.76.53 2.23.72 4.42.48 6.61-.57 5.24-2.62 6.36-7.04 3.63-2.49-1.54-4.95-1.97-7.15-.37-2.16 1.56-4.28.46-6.37.78z"/><path class="st303" d="M282.52 179.61c-5.95-.84-10.59-3.79-13.94-8.76-.64-.94-2.06-1.83-1.27-3.09.87-1.39 2.5-.82 3.77-.55 3.21.68 6.23 1.85 8.87 3.93 1.87 1.48 3.92 2.74 5.89 4.09-1.57 1.12-.71 4.06-3.32 4.38zM136.94 432.33c3.33.65 5.94 3.52 9.6 3.17 2.17 2.31 4.94 3.44 7.98 4.02 2.35.05 4.71.22 7.06.13 2.96-.11 5.69.08 7.73 2.67 1.31 1.66 3.26 1.52 5.13 1.42.32.08.63.09.95.03 8.69 4.57 10.54 8.85 7.17 16.56-6.21 4.02-12.43 8.04-18.64 12.06-3.75 1.53-7.5 3.07-11.25 4.6-5.25.34-10.58 2.09-15.62-.97-1.05-1.53-2.55-2.93-3.07-4.62-2.55-8.32-8.86-12.42-16.42-15.24-2.74-2.02-5.5-4.01-8.2-6.08-2.75-2.1-4.03-4.99-4.37-8.39-.62-6.22 1.69-8.85 8.04-9.1 5.63-.21 11.22 1.52 16.88.45 2.4.25 4.78.41 7.03-.71z"/><path class="st283" d="M117.57 456.16c7.56 2.83 13.87 6.93 16.42 15.24.52 1.69 2.02 3.09 3.07 4.62-4.04 3.59-6.06 8.61-8.78 13.06-4.21 6.88-3.83 7.12-9.87 3.3-.13-.08-.33-.07-.5-.1.22-2.36.65-4.71.01-7.09-.86-3.18.01-5.83 2.01-8.52 4.46-6.03 3.61-10.53-2.42-15.18l.06-5.33zm64.99 4.17c3.37-7.71 1.52-11.99-7.17-16.56 3.47-6.83 6.94-13.67 10.4-20.5 2.96 3.94 2.43 9.21 5.05 13.27 2.23 4.14 2.04 8.85 3.13 13.26.5 2.02.14 4.62 3 5.36-1.39 10.16-.08 20.89-6.55 30.22.47-9.43-4.81-16.88-7.86-25.05zm-29.88 16.66c3.75-1.53 7.5-3.07 11.25-4.6-.28 4.31.88 8.73-1.02 12.92-6.49-.7-3.71 5.48-5.95 8.03-1.65-.22-1.77-1.74-2.37-2.84 1.72-4.84-2.29-8.87-1.91-13.51z"/><path d="M286.92 501.45c.16-.57.48-.8 1.04-.48-.35.16-.69.32-1.04.48zm-15.5-13.12c-.19.12-.37.25-.56.37.13-.18.27-.36.4-.53l.16.16z" fill="#bf855c"/><path class="st323" d="M261.01 476.85c.35-.32.69-.64 1.04-.96-.35.33-.7.64-1.04.96z"/><path class="st283" d="M152.68 476.99c-.37 4.64 3.63 8.66 1.9 13.49-3.01-3.22-5.28-7.25-9.93-8.6-3.6-1.05-7.2-1.86-9.86 1.69-2.76 3.68-.7 6.87 1.59 9.77 1.8 2.28 3.98 4.27 5.87 6.49 1.91 2.25 1.56 3.69-1.64 3.84-1.72.08-3.44.1-5.14.29-5 .55-7.12 2.79-6.44 6.69.81 4.65 5.07 7.43 9.56 6 3.06-.97 6.01-2.33 9.26-3.61.97 3.42-1.63 6.29-.35 9.25-6.89-3.78-14.66-3.81-22.12-4.77-5.68-.73-10.71 1.64-14 6.76-1.61-4-3.56-7.7-8.05-9.17 1.44-.9 2.49-2.52 1.8-3.84-2.37-4.49.79-6.13 3.72-7.76 4.58-2.56 6.95-6.77 9.07-11.25.17.03.36.01.5.1 6.04 3.81 5.66 3.58 9.87-3.3 2.72-4.44 4.74-9.47 8.78-13.06 5.03 3.09 10.36 1.34 15.61.99z"/></svg>