<svg version="1.1" id="Слой_1" xmlns="http://www.w3.org/2000/svg" x="0" y="0" viewBox="0 0 585 544" xml:space="preserve"><style>.st298{fill:#fa3c20}.st298,.st299,.st300,.st302{fill-rule:evenodd;clip-rule:evenodd}.st299{fill:#d00707}.st300{fill:#f92405}.st302{fill:#f95f53}</style><path class="st298" d="M21.01 136.02H565.5c10.45 0 19.01 8.55 19.01 19v45.75c0 10.45-8.55 19-19.01 19H21.01c-10.45 0-19.01-8.55-19.01-19v-45.75c0-10.45 8.55-19 19.01-19"/><path class="st298" d="M32.11 218.37h522.26c.01 0 .02.01.02.01v299.97c0 13.57-11.11 24.68-24.68 24.68H56.79c-13.57 0-24.68-11.1-24.68-24.68V218.37z"/><path class="st299" d="M293.25 218.37h261.13c.01 0 .01.01.01.01v299.97c0 13.57-11.11 24.68-24.68 24.68H317.93c-13.57 0-24.68-11.1-24.68-24.68V218.37z"/><path class="st299" d="M293.25 136.02H565.5c10.45 0 19 8.55 19 19.01v45.74c0 10.45-8.55 19-19 19H293.25c-10.45 0-19.01-8.55-19.01-19v-45.74c.01-10.46 8.56-19.01 19.01-19.01"/><path class="st300" d="M32.11 219.77h522.28v29.16H32.11z"/><path class="st300" d="M293.25 219.77h261.14v29.16H293.25z"/><path d="M136.62 219.77h52.12v299.98c0 13.57 11.1 24.68 24.68 24.68H161.3c-13.57 0-24.68-11.11-24.68-24.68V219.77zm313.26 0h-52.12v299.98c0 13.57-11.11 24.68-24.68 24.68h52.12c13.57 0 24.68-11.11 24.68-24.68V219.77zm-313.26-83.75h52.12c-10.45 0-19.01 8.55-19.01 19.01v45.74c0 10.45 8.55 19 19.01 19h-52.12c-10.45 0-19.01-8.55-19.01-19v-45.74c.01-10.46 8.56-19.01 19.01-19.01m313.26 0h-52.12c10.45 0 19 8.55 19 19.01v45.74c0 10.45-8.55 19-19 19h52.12c10.45 0 19-8.55 19-19v-45.74c.01-10.46-8.55-19.01-19-19.01" fill="#f50000" fill-rule="evenodd" clip-rule="evenodd"/><path class="st302" d="M136.06 62.24c-1.17 29.53 14.82 54.72 48.2 73.77h91.03c-43.9-27.95-76.46-54.49-78.89-78.24-2.52-24.53 15.98-37.18 40.3-18.93 29.8 22.37 41.9 65.89 51.83 97.17v-30.49C250.01-35.05 138.8-7.25 136.06 62.24zm314.39 0c-2.74-69.49-113.95-97.29-152.46 43.28v30.49c9.93-31.27 22.03-74.79 51.83-97.17 24.31-18.26 42.81-5.6 40.29 18.93-2.43 23.75-34.99 50.29-78.89 78.24h91.03c33.38-19.05 49.37-44.24 48.2-73.77z"/><path class="st302" d="M254.5 136.02H332v-26.91c0-10.13-8.29-18.42-18.42-18.42h-40.67c-10.13 0-18.42 8.29-18.42 18.42v26.91z"/></svg>