<svg version="1.1" id="Слой_1" xmlns="http://www.w3.org/2000/svg" x="0" y="0" viewBox="0 0 585 954" xml:space="preserve"><style>.st280{fill:#b30000}.st281{fill:#fa3c20}.st284{fill:#f50000}.st303{fill:#f95f53}</style><path class="st280" d="M88.98 953.56c-3.52-33.66-1.61-60.48.71-78.51 0 0 5.99-53.66 13.79-148.66 1.39-16.88-12.65-13.48-20.35-10.91-17.56 5.87-34.31 3.2-50.52-2.05C13 707.08.24 695.67.25 671.28c.01-33.07 8.48-64.91 9.96-97.6.3-6.6 5.65-10.24 9.11-15.01 5.3-7.31 12.78-16.64 7.08-24.32-12.79-17.23 1.15-23.77 10.4-32.28 4.86-4.46 10.98-7.16 14.5-13.52 7.81-14.1 20.13-19.27 35.96-15.79-2.52 9.64-7.62 17.81-14.86 24.5-22.84 21.1-12.49 34.8 14.42 43.77 24.09 8.03 38.62-3.63 42.16-27.84 1.86-12.69.53-27.57 14.62-35.6 1.73 7.18 1.62 15.61 5.5 21.33 16.62 24.47 17.74 51.37 15.49 79.32-1.32 16.34-.83 32.84-2.56 49.12-1.95 18.37-4.25 26.85.8 32.24 8.24 8.79 29.09 2.14 40.51-2.37 5.78-4.14 13.99-10.27 23.4-18.2 28.11-23.68 55.66-46.9 69.54-81.02 5.34-13.12 14.01-41.02 5.95-81.26 23.8 30.79 17.34 70.97 32.75 106.82 8.33-17.16 18.5-31.14 34.32-38.18 22.47-10 23.62-24.96 13.62-44.14 6.5-.47 11.13-3.75 14.23-9.39 17.96-32.66 35.7-65.43 38.04-103.78.5-8.14-.78-16.9 10.48-18.94 22.77.72 45.75 1.48 66.75 11.14 10.23 4.71 13.93-1 18.76-7.04l-.46-.34c1.11 2.89 2.23 5.77 3.34 8.66 35.72 41.52 45.39 91.37 46.21 144.09.12 7.55-.14 15.04-3.72 21.8-26.51 50.08-33.93 107.23-58.63 157.97-2.24 4.59-3.84 10.37-7.55 13.23-7.59 5.85-12.77 12.17-16.2 18.92-9.3 18.33-4.46 49.05-2.84 55.42 6.32 24.84 3.8 70.2-32.07 159.84-123.43.23-246.85.48-370.28.73z"/><path class="st281" d="M191.17 261.88c-11.83-3.74-12.83-12.35-11.42-23.07 2.42-18.45 4.1-37 5.72-55.54 1.26-14.37 4.47-27.46 14.56-38.89 5.16-5.84 9.55-14.37 10.05-21.96 2.7-40.38 29.77-68.21 49.75-99.65 9.75-15.35 22.36-15.02 38.77-8.57 44.93 17.68 74.23 49.78 93.3 92.92 2.97 6.73 6.86 13.59 11.97 18.76 22.59 22.85 28.59 50.19 24.43 81.04-1.69 12.52-2.09 24.99 6.15 36.4 8.01 11.1-3.35 18.23-7.13 26.86-1.4-.03-2.79-.08-4.18-.15-1.09-6.14-5.01-8.13-10.96-8.74-26.53-2.7-52.96-6.56-79.53-8.5-23.93-1.75-47.49-9.49-71.84-4.97-25.72-7.68-50.65-11.5-69.64 14.06z"/><path class="st303" d="M143.61 477.58c-14.08 8.03-12.76 22.91-14.62 35.6-3.54 24.2-18.06 35.87-42.16 27.84-26.91-8.97-37.26-22.67-14.42-43.77 7.24-6.69 12.34-14.86 14.86-24.5 22.42-31.67 22.49-66.18 12.97-101.92-4.7-17.64-12.33-35.25.68-52.77 4.87-6.55 1.02-12.5-2.08-18.56-11.24-21.92-6.53-30.59 18.01-33.05 12.94-1.29 24.93 2.8 36.71 7.55 8.1 14.03-10.18 11.62-13.05 18.66 6.29 6.84 14.45 6.15 21.15 9 8.32 3.54 12.07 10.19 9.54 17.83-6.35 19.16 4.97 31.84 14.15 45.92 15.05 23.07 39.63 16.67 60.8 20.07 12.33 1.98 27.54 3.59 33.49-10.61 5.69-13.57 2.48-28.18-8.63-39.21-7.41-7.35-11.08-15.68-10.54-25.97.32-6.14 2.53-11.4 9.31-6.62 10.23 7.2 24.4 13.83 28.28 23.99 9.2 24.08 28.13 43.86 27.93 72.67-.13 18.69 7.93 37.75 14.02 56.08 7.1 21.39 21.47 37 42.9 45.41 10 19.19 8.86 34.15-13.62 44.14-15.82 7.04-25.99 21.02-34.32 38.18-15.4-35.85-8.95-76.03-32.75-106.82-1.98-2.22-3.53-5.26-6-6.53-34.98-17.92-73.49-29.16-103.51-56.55-6.23-5.69-20.6-3.97-22.39 1.61-6.92 21.78-27.62 37.53-26.71 62.33z"/><path d="M382.93 501.24c-21.42-8.41-35.8-24.03-42.9-45.41-6.08-18.33-14.14-37.39-14.02-56.08.19-28.8-18.73-48.59-27.93-72.67-3.88-10.16-18.06-16.79-28.28-23.99-6.79-4.78-8.99.47-9.31 6.62-.54 10.29 3.13 18.62 10.54 25.97 11.11 11.03 14.31 25.64 8.63 39.21-5.95 14.2-21.17 12.59-33.49 10.61-21.18-3.4-45.76 3-60.8-20.07-9.18-14.08-20.51-26.76-14.15-45.92 2.53-7.63-1.22-14.29-9.54-17.83-6.7-2.85-14.86-2.16-21.15-9 2.87-7.03 21.15-4.62 13.05-18.66 9.33-13.95 26-5.19 37.6-12.14 19-25.55 43.93-21.74 69.64-14.06 6.51 9.06 12.24 19.34 24.09 22.2 26.96 6.52 37.79 26.51 44.81 50.73 5.89 20.34 6.2 41.23 8.57 61.95.84 7.36-2.93 17.25 8.12 20.91.04 3.32.08 6.64.11 9.95-4.35 27.94 10.85 49.25 25.05 70.38 6.46 9.6 12.76 5.43 18.2-3.76 18.74-31.64 33-64.52 33.13-102.1-.26-32.31-.51-64.61-.77-96.92.34-3.71.68-7.43 1.01-11.14 1.39.07 2.79.12 4.18.15 3.34 5.32 6.67 10.64 10.01 15.96.23 27.92-4.98 56.39 8.35 82.99-11.25 2.04-9.98 10.79-10.48 18.94-2.34 38.35-20.08 71.12-38.04 103.78-3.1 5.64-7.73 8.92-14.23 9.4zM180.57 321.41c-.35 27.64 12.92 46.85 32.7 47.34 19.88.49 38.93-19.03 39.11-40.07.17-20.29-19.27-44.4-36.17-44.86-19.02-.51-35.38 16.75-35.64 37.59z" fill="#950000"/><path class="st284" d="M445.67 369.13c-13.33-26.6-8.12-55.07-8.35-82.99 17.72 20.76 41.6 32.75 64.66 46.1 15.59 9.02 29.59 20.14 29.19 40.98-4.83 6.04-8.53 11.75-18.76 7.04-20.99-9.65-43.97-10.41-66.74-11.13zM143.61 477.58c-.91-24.8 19.79-40.56 26.74-62.31 1.78-5.58 16.15-7.29 22.39-1.61 30.02 27.39 68.53 38.62 103.51 56.55 2.47 1.26 4.02 4.31 6 6.53 4.08 27.72-6.13 54.89-5.95 81.27.31 46.35-30.41 75.79-47.62 112.41-9.55 20.32-20.07 40.85-40.09 53.8-5.84-15.9 5.93-34.71-8.04-50.31-5.73 15.29 8.8 34.49-10.96 45.25-20.52-27.2-31.22-57.17-27.55-91.79 1.73-16.28 1.24-32.78 2.56-49.12 2.25-27.95 1.12-54.86-15.49-79.32-3.88-5.74-3.77-14.16-5.5-21.35z"/><path class="st303" d="M423.13 270.02c-.34 3.71-.68 7.43-1.01 11.15-2.57 25.45-34.81 29.8-38.15 57.32-3.04 25.02-24.22 43.73-37.58 65.12-11.05-3.66-7.28-13.55-8.12-20.91-2.37-20.72-2.67-41.61-8.57-61.95-7.02-24.23-17.84-44.22-44.81-50.73-11.84-2.86-17.58-13.14-24.09-22.2 24.35-4.52 47.91 3.22 71.84 4.97 26.57 1.94 53 5.8 79.53 8.5 5.95.6 9.87 2.6 10.96 8.73z"/><path class="st280" d="M422.88 378.08c-.13 37.58-14.39 70.47-33.13 102.1-5.44 9.19-11.75 13.36-18.2 3.76-14.2-21.12-29.4-42.44-25.05-70.38 12.81-1.85 22.43-10.35 33.36-16.08 13.97-7.31 25.71-19.52 43.02-19.4z"/><path class="st281" d="M180.57 321.41c.26-20.84 16.63-38.1 35.64-37.59 16.9.46 36.34 24.57 36.17 44.86-.18 21.04-19.23 40.55-39.11 40.07-19.79-.48-33.05-19.69-32.7-47.34z"/><path class="st284" d="M422.88 378.08c-17.32-.12-29.05 12.09-43.02 19.41-10.94 5.73-20.55 14.23-33.36 16.08l-.12-9.95c13.37-21.38 34.55-40.1 37.58-65.12 3.34-27.52 35.58-31.87 38.15-57.32.26 32.29.52 64.59.77 96.9z"/></svg>