<?xml version="1.0" encoding="utf-8"?>
<!-- Generator: Adobe Illustrator 24.2.3, SVG Export Plug-In . SVG Version: 6.00 Build 0)  -->
<svg version="1.1" id="Слой_1" xmlns="http://www.w3.org/2000/svg" xmlns:xlink="http://www.w3.org/1999/xlink" x="0px" y="0px"
	 viewBox="0 0 585 805" style="enable-background:new 0 0 585 805;" xml:space="preserve">
<style type="text/css">
	.st0{fill:#FFC9D7;}
	.st1{clip-path:url(#SVGID_2_);fill:#EA90A7;}
	.st2{clip-path:url(#SVGID_2_);fill:#FFEBF2;}
	.st3{clip-path:url(#SVGID_2_);fill:#D3CFB3;}
	.st4{clip-path:url(#SVGID_2_);fill:#FCDDE6;}
	.st5{clip-path:url(#SVGID_2_);}
	.st6{fill:#FFEBF2;}
	.st7{fill:#EA90A7;}
	.st8{fill:#F2CCC1;}
	.st9{fill:#DF4E50;}
	.st10{clip-path:url(#SVGID_2_);fill:#FFC9D7;}
	.st11{fill:#FCDDE6;}
	.st12{fill:#FFC5C4;}
	.st13{fill:#FC7798;}
	.st14{fill:#FFFFFF;}
	.st15{fill:#F17171;}
	.st16{fill:url(#SVGID_3_);}
	.st17{fill:#AED9C4;}
	.st18{fill:none;stroke:#FFFFFF;stroke-miterlimit:10;}
	.st19{fill:#A3CCAC;}
	.st20{fill:#97CEA2;}
	.st21{opacity:0.76;}
	.st22{fill:#C5EACE;}
	.st23{fill:url(#SVGID_4_);}
	.st24{fill:url(#SVGID_5_);}
	.st25{fill:#F7E7BF;}
	.st26{fill:url(#SVGID_6_);}
	.st27{fill:url(#SVGID_7_);}
	.st28{fill:url(#SVGID_8_);}
	.st29{fill:#E5EFC5;}
	.st30{fill:#F0FCD3;}
	.st31{fill:url(#SVGID_9_);}
	.st32{fill:url(#SVGID_10_);}
	.st33{fill:url(#SVGID_11_);}
	.st34{fill:url(#SVGID_12_);}
	.st35{fill:#FFE594;}
	.st36{clip-path:url(#SVGID_14_);fill:url(#SVGID_15_);}
	.st37{fill:#5B2A1E;}
	.st38{fill:#917673;}
	.st39{fill:url(#SVGID_16_);}
	.st40{fill:url(#SVGID_17_);}
	.st41{fill:url(#SVGID_18_);}
	.st42{fill:url(#SVGID_19_);}
	.st43{fill:#EF8FC7;}
	.st44{opacity:0.62;clip-path:url(#SVGID_21_);fill:#FFFFFF;}
	.st45{opacity:0.75;clip-path:url(#SVGID_21_);fill:#FFFFFF;}
	.st46{opacity:0.41;clip-path:url(#SVGID_21_);fill:#FFFFFF;}
	.st47{clip-path:url(#SVGID_21_);fill:none;}
	.st48{clip-path:url(#SVGID_23_);}
	.st49{opacity:0.26;fill:#FFFFFF;}
	.st50{opacity:0.69;fill:#FFFFFF;}
	.st51{fill:none;}
	.st52{opacity:0.16;fill:#FFFFFF;}
	.st53{opacity:0.3;fill:#FFFFFF;}
	.st54{opacity:0.23;fill:#FFFFFF;}
	.st55{opacity:0.24;fill:#FFFFFF;}
	.st56{opacity:0.17;}
	.st57{opacity:0.05;fill:#E3E9E5;}
	.st58{clip-path:url(#SVGID_25_);}
	.st59{opacity:0.76;clip-path:url(#SVGID_25_);fill:#FFFFFF;}
	.st60{clip-path:url(#SVGID_25_);fill:url(#SVGID_26_);}
	.st61{clip-path:url(#SVGID_25_);fill:none;stroke:#FFFFFF;stroke-width:2;stroke-linecap:round;stroke-miterlimit:10;}
	.st62{clip-path:url(#SVGID_25_);fill:url(#SVGID_27_);}
	.st63{clip-path:url(#SVGID_25_);fill:url(#SVGID_28_);}
	.st64{clip-path:url(#SVGID_25_);fill:url(#SVGID_29_);}
	.st65{clip-path:url(#SVGID_25_);fill:url(#SVGID_30_);}
	.st66{clip-path:url(#SVGID_25_);fill:#FFFFFF;}
	.st67{clip-path:url(#SVGID_25_);fill:url(#SVGID_31_);}
	.st68{opacity:0.62;clip-path:url(#SVGID_33_);fill:#FFFFFF;}
	.st69{clip-path:url(#SVGID_33_);fill:#FFFFFF;}
	.st70{opacity:0.41;clip-path:url(#SVGID_33_);fill:#FFFFFF;}
	.st71{clip-path:url(#SVGID_33_);fill:none;}
	.st72{clip-path:url(#SVGID_35_);}
	.st73{fill:url(#SVGID_36_);}
	.st74{opacity:0.74;clip-path:url(#SVGID_38_);fill:url(#SVGID_39_);}
	.st75{fill:#E6E6E6;}
	.st76{fill:none;stroke:#4D4D4D;stroke-width:0.75;stroke-linecap:round;stroke-miterlimit:10;}
	.st77{fill:url(#SVGID_40_);}
	.st78{opacity:0.74;fill:url(#SVGID_41_);}
	.st79{opacity:0.74;fill:url(#SVGID_42_);}
	.st80{opacity:0.74;fill:url(#SVGID_43_);}
	.st81{opacity:0.74;fill:url(#SVGID_44_);}
	.st82{fill:url(#SVGID_45_);}
	.st83{opacity:0.66;}
	.st84{opacity:0.37;fill:#FFFFFF;}
	.st85{fill:url(#SVGID_46_);}
	.st86{fill:url(#SVGID_47_);}
	.st87{opacity:0.44;clip-path:url(#SVGID_49_);fill:#FFFDDD;}
	.st88{opacity:0.43;clip-path:url(#SVGID_51_);fill:#FFFFFF;}
	.st89{clip-path:url(#SVGID_51_);fill:none;stroke:#FFFFFF;stroke-miterlimit:10;}
	.st90{opacity:0.76;clip-path:url(#SVGID_51_);fill:#FFFFFF;}
	.st91{clip-path:url(#SVGID_51_);fill:#FFFFFF;}
	.st92{opacity:0.08;clip-path:url(#SVGID_51_);fill:#FFFFFF;}
	.st93{opacity:0.27;clip-path:url(#SVGID_51_);fill:#FFFFFF;}
	.st94{opacity:0.37;clip-path:url(#SVGID_51_);fill:#FFFFFF;}
	.st95{clip-path:url(#SVGID_51_);fill:none;}
	.st96{fill:url(#SVGID_52_);}
	.st97{opacity:0.62;clip-path:url(#SVGID_54_);fill:#FFFFFF;}
	.st98{clip-path:url(#SVGID_54_);fill:#FFFFFF;}
	.st99{opacity:0.41;clip-path:url(#SVGID_54_);fill:#FFFFFF;}
	.st100{clip-path:url(#SVGID_54_);fill:none;}
	.st101{clip-path:url(#SVGID_56_);}
	.st102{opacity:0.55;fill:url(#SVGID_57_);}
	.st103{fill:url(#SVGID_58_);}
	.st104{fill:url(#SVGID_59_);}
	.st105{opacity:0.28;}
	.st106{opacity:0.56;clip-path:url(#SVGID_61_);fill:#FFFFFF;}
	.st107{opacity:0.43;clip-path:url(#SVGID_63_);fill:#FFFFFF;}
	.st108{clip-path:url(#SVGID_63_);fill:none;stroke:#FFFFFF;stroke-miterlimit:10;}
	.st109{opacity:0.76;clip-path:url(#SVGID_63_);fill:#FFFFFF;}
	.st110{clip-path:url(#SVGID_63_);fill:#FFFFFF;}
	.st111{opacity:0.08;clip-path:url(#SVGID_63_);fill:#FFFFFF;}
	.st112{opacity:0.27;clip-path:url(#SVGID_63_);fill:#FFFFFF;}
	.st113{opacity:0.37;clip-path:url(#SVGID_63_);fill:#FFFFFF;}
	.st114{clip-path:url(#SVGID_63_);fill:none;}
	.st115{clip-path:url(#SVGID_65_);fill:none;}
	.st116{opacity:0.46;}
	.st117{opacity:0.86;fill:#FFFFFF;}
	.st118{opacity:0.4;}
	.st119{opacity:0.73;fill:#FFFFFF;}
	.st120{opacity:0.54;clip-path:url(#SVGID_67_);fill:#FFFFFF;}
	.st121{fill:#F79291;}
	.st122{opacity:0.75;fill:#FFFFFF;}
	.st123{fill:#FFC28E;}
	.st124{clip-path:url(#SVGID_69_);fill:#FFE0C3;}
	.st125{clip-path:url(#SVGID_69_);fill:#FF9F36;}
	.st126{clip-path:url(#SVGID_69_);fill:#FFF3E2;}
	.st127{clip-path:url(#SVGID_71_);fill:#FAC1E3;}
	.st128{opacity:0.8;clip-path:url(#SVGID_71_);fill:#EF8FC7;}
	.st129{clip-path:url(#SVGID_71_);fill:#EF8FC7;}
	.st130{opacity:0.79;clip-path:url(#SVGID_71_);fill:#FAC1E3;}
	.st131{fill:#FFFDEC;}
	.st132{fill:#78CB99;}
	.st133{fill:#B2E1C4;}
	.st134{fill:#D8EFE2;}
	.st135{opacity:0.44;fill:#FFFFFF;}
	.st136{clip-path:url(#SVGID_73_);fill:#FFF7C8;}
	.st137{opacity:0.86;fill:#FFD0D7;}
	.st138{opacity:0.62;clip-path:url(#SVGID_75_);fill:#FFFFFF;}
	.st139{opacity:0.75;clip-path:url(#SVGID_75_);fill:#FFFFFF;}
	.st140{opacity:0.41;clip-path:url(#SVGID_75_);fill:#FFFFFF;}
	.st141{clip-path:url(#SVGID_75_);fill:none;}
	.st142{clip-path:url(#SVGID_77_);}
	.st143{opacity:0.44;clip-path:url(#SVGID_79_);fill:#FFFFFF;}
	.st144{opacity:0.43;clip-path:url(#SVGID_81_);fill:#FFFFFF;}
	.st145{clip-path:url(#SVGID_81_);fill:none;stroke:#FFFFFF;stroke-miterlimit:10;}
	.st146{opacity:0.76;clip-path:url(#SVGID_81_);fill:#FFFFFF;}
	.st147{clip-path:url(#SVGID_81_);fill:#FFFFFF;}
	.st148{opacity:0.08;clip-path:url(#SVGID_81_);fill:#FFFFFF;}
	.st149{opacity:0.27;clip-path:url(#SVGID_81_);fill:#FFFFFF;}
	.st150{opacity:0.37;clip-path:url(#SVGID_81_);fill:#FFFFFF;}
	.st151{clip-path:url(#SVGID_81_);fill:none;}
	.st152{opacity:0.54;clip-path:url(#SVGID_83_);fill:#FFFFFF;}
	.st153{opacity:0.62;fill:#FFFFFF;}
	.st154{opacity:0.41;fill:#FFFFFF;}
	.st155{opacity:0.43;fill:#FFFFFF;}
	.st156{opacity:0.76;fill:#FFFFFF;}
	.st157{opacity:0.08;fill:#FFFFFF;}
	.st158{opacity:0.27;fill:#FFFFFF;}
	.st159{opacity:0.54;fill:#FFFFFF;}
	.st160{clip-path:url(#SVGID_85_);fill:#F17171;}
	.st161{clip-path:url(#SVGID_85_);fill:#F79291;}
	.st162{clip-path:url(#SVGID_85_);fill:#FFC5C4;}
	.st163{clip-path:url(#SVGID_85_);fill:#FFFFFF;}
	.st164{clip-path:url(#SVGID_87_);fill:#E2EAFD;}
	.st165{clip-path:url(#SVGID_87_);fill:#EEF3FE;}
	.st166{opacity:0.54;clip-path:url(#SVGID_87_);fill:#EEF3FE;}
	.st167{opacity:0.54;clip-path:url(#SVGID_87_);fill:#91AEEB;}
	.st168{clip-path:url(#SVGID_89_);}
	.st169{fill:#FF7B89;}
	.st170{clip-path:url(#SVGID_89_);fill:none;}
	.st171{fill:#F64776;}
	.st172{clip-path:url(#SVGID_91_);fill:#FFE0C3;}
	.st173{clip-path:url(#SVGID_91_);fill:#FF9F36;}
	.st174{clip-path:url(#SVGID_91_);fill:#FFF3E2;}
	.st175{clip-path:url(#SVGID_93_);fill:#E9CBF2;}
	.st176{opacity:0.8;clip-path:url(#SVGID_93_);fill:#F5E5F7;}
	.st177{clip-path:url(#SVGID_93_);fill:#F5E5F7;}
	.st178{opacity:0.79;clip-path:url(#SVGID_93_);fill:#E9CBF2;}
	.st179{clip-path:url(#SVGID_95_);fill:#FFF7C8;}
	.st180{clip-path:url(#SVGID_97_);fill:#FFC9D7;}
	.st181{clip-path:url(#SVGID_97_);fill:#FF9DB5;}
	.st182{clip-path:url(#SVGID_97_);fill:#FC7798;}
	.st183{clip-path:url(#SVGID_97_);fill:#FFFFFF;}
	.st184{clip-path:url(#SVGID_99_);fill:#6D93E0;}
	.st185{clip-path:url(#SVGID_99_);fill:#91AEEB;}
	.st186{opacity:0.54;clip-path:url(#SVGID_99_);fill:#91AEEB;}
	.st187{clip-path:url(#SVGID_101_);}
	.st188{clip-path:url(#SVGID_101_);fill:none;}
	.st189{opacity:0.46;clip-path:url(#SVGID_103_);}
	.st190{clip-path:url(#SVGID_103_);fill:none;}
	.st191{clip-path:url(#SVGID_105_);}
	.st192{fill:#E4A280;}
	.st193{fill:#FFFFFF;stroke:#FFFFFF;stroke-width:0.25;stroke-miterlimit:10;}
	.st194{fill:none;stroke:#FFFFFF;stroke-width:2;stroke-miterlimit:10;}
	.st195{opacity:0.45;fill:#FFFFFF;}
	.st196{opacity:0.8;fill:#FFFFFF;}
	.st197{opacity:0.79;fill:#FFFFFF;}
	.st198{fill:#F3C6AB;}
	.st199{fill:none;stroke:#FFFFFF;stroke-width:0.75;stroke-miterlimit:10;}
	.st200{fill:#D4C2B3;}
	.st201{fill:#93693D;}
	.st202{fill:#F2BECD;}
	.st203{fill:#D87290;}
	.st204{fill:#574435;}
	.st205{fill:#CAA57C;}
	.st206{fill:#641F1E;}
	.st207{fill:#E16C8D;}
	.st208{fill:#D63665;}
	.st209{fill:#DFB88B;}
	.st210{fill:#E0B88B;}
	.st211{fill:#7E7E7E;}
	.st212{fill:#FFE4EB;}
	.st213{fill:#C73F69;}
	.st214{fill:#F7F7F7;}
	.st215{fill:#F2F2F2;}
	.st216{fill:#FFFBF1;}
	.st217{fill:#F8C3D1;}
	.st218{fill:#FFD0D7;}
	.st219{fill:#FFBEC5;}
	.st220{fill:#FE6D7B;}
	.st221{fill:#B59F90;}
	.st222{fill:#FDFDFC;}
	.st223{fill:#F3F3F3;}
	.st224{fill:#A4C6DD;}
	.st225{fill:#DB966B;}
	.st226{fill:#BEA696;}
	.st227{fill:#583B34;}
	.st228{fill:#63443C;}
	.st229{fill:#E2D1C9;}
	.st230{fill:#B3D1E6;}
	.st231{fill:#D1ADA2;}
	.st232{fill:#A3C5DC;}
	.st233{fill:#9D7972;}
	.st234{fill:#77573F;}
	.st235{fill:#FFA5B2;}
	.st236{fill:#F4769D;}
	.st237{fill:#FCFCFA;}
	.st238{fill:#F9C5DD;}
	.st239{fill:#E5BBB6;}
	.st240{clip-path:url(#SVGID_113_);fill:#EA90A7;}
	.st241{clip-path:url(#SVGID_113_);fill:#FFEBF2;}
	.st242{clip-path:url(#SVGID_113_);fill:#D3CFB3;}
	.st243{clip-path:url(#SVGID_113_);fill:#FCDDE6;}
	.st244{clip-path:url(#SVGID_113_);}
	.st245{clip-path:url(#SVGID_113_);fill:#FFC9D7;}
</style>
<path class="st236" d="M265.18,163.11c2.12-8.18,4.41-16.31,6.31-24.53c4.5-19.46,8.78-38.98,13.23-58.45
	c5.51-24.08,9.34-48.46,12.79-72.9c0.99-7.02,1.59-6.96,8.09-4.46c8.74,3.36,17.95,5.28,26.91,7.95
	c27.12,8.07,54.31,15.91,81.38,24.19c11.97,3.66,23.91,7.68,36.33,9.82c1.99,0.34,5.1,1.11,4.74,3.46c-0.5,3.29-0.28,7.43-4.36,9.22
	c-11.83-1.83-21.77,4.47-31.25,9.26c-12.84,6.5-23.51,16.84-33.21,27.68c-2.98,3.33-5.53,7.17-9.13,9.81
	c-7.85,5.76-14.31,12.69-19.56,20.85c-6.43,10-13.43,19.68-19.38,29.96c-11.04,19.08-22.94,37.6-31.92,57.95
	c-9.76,22.11-22.2,43.02-32.78,64.79c-6,12.36-4.13,24.38,8.71,33.05c5.53,3.74,11.7,6.01,17.61,8.61
	c8.91,3.92,18.7,6.01,26.83-2.18c5.08-5.12,6.53-12.2,8.23-18.94c2.01-7.97,3.02-16.24,5.62-24c5.62-16.81,11.15-33.63,16.1-50.66
	c5.19-17.88,12.02-35.17,21.2-51.49c3.3-5.86,5.97-12.06,9.44-17.87c8.8-14.74,17.11-29.78,25.88-44.55
	c5.97-10.06,12.13-20.03,18.7-29.7c4.83-7.12,9.77-14.35,17.55-18.81c-5.52,11.28-11.27,22.45-16.51,33.86
	c-7.29,15.9-14.45,31.88-21.22,48.01c-13.54,32.26-26.87,64.6-40.06,97.01c-3.1,7.62-7.25,14.97-7.75,23.47
	c-0.43,0.12-0.85,0.25-1.27,0.38c-2.29,0.71-4.23,1.72-5.9,2.96c-5.45,4.08-8.3,12.95-8.3,12.95c-3.69,12.3-13.17,55.28-15.78,61.58
	c-0.31,0.74-1.05,2.45-2.46,2.77c-0.84,0.19-1.87-0.31-3.47-1.54c-5.46-4.19-11.62-7.47-18.92-7.35
	c-8.58-3.25-17.04-6.88-25.77-9.66c-15.23-4.85-30.44-10.29-46.91-8.2c-1.49-2.07-3.21-4.02-3.19-6.8
	c0.53-4.87,0.93-9.75,1.63-14.59c0.43-2.95,1.32-4.74,5.46-4.14c9.69,1.38,18.94-7.02,17.34-16.19
	c-1.65-9.52-6.13-18.16-12.59-25.58c-0.04-0.81-0.09-1.62-0.13-2.43c4.37-5.81,4.68-12.99,6.3-19.64
	c2.68-11.02,6.45-21.84,6.88-33.33c1.56-0.04,2.12-1.02,2.47-2.4C261.53,182.65,264.24,173.06,265.18,163.11z"/>
<path class="st236" d="M186.89,409.59c11.43,7.42,11.34,19.71,12.82,31.14c1.46,11.25,6.08,20.6,14.56,28.07
	c6.48,5.7,9.39,13.42,9.75,21.5c0.4,9.03,3.5,16.89,7.52,24.52c3.05,5.79,14,7.37,22.74,4.48c12.63-4.17,24.64-10.29,38.01-12.18
	c1.05-0.15,3.31-1.08,3.65-0.49c0.34,0.59-1.47,2.26-2.64,3.29c-7.81,6.85-15.12,10.55-15.12,10.55c-6.39,4.41-13.08,7.9-20.56,9.7
	c-9.23,2.22-12.62,5.58-12.75,14.7c-0.33,23.48,0.48,46.93,2.42,70.35c0.3,3.62,0,7.28,0.11,10.92c0.69,23.62,1.69,47.16,6.05,70.52
	c0,0,1.5,14.22,3.15,32.38c1.64,18.12,3.63,44,4.91,75.96c-10.82,0-21.64,0-32.46,0c0.41-13.77,0.57-24.98,0.64-32.85
	c0.07-8.51,0-8.51,0.11-23.82c0.07-10.24,0.14-15.41,0.1-23.75c-0.03-6.65-0.12-12.08-0.19-15.58c1.24-56.53,2.06-76.95,2.6-84.65
	c0.07-1.01,1.1-15.63,1.1-31.06c0,0,0,0,0,0c-0.53-14.3,0.19-15.93-0.16-24.67c-1.02-25.59-7.22-47.49-14.69-63.51
	c-8.04-17.24-17.5-33.89-22.34-52.43C192.54,438.43,189.08,424.14,186.89,409.59z"/>
<path class="st236" d="M339.91,324.78c0.02-0.44,0.03-0.88,0.05-1.32c0.35-0.36,0.7-0.73,1.05-1.09
	c0.47-14.52,2.61-28.72,7.23-42.57c2.51-7.51,6.28-13.45,14.19-15.92c3.49-0.68,6.76,0.18,9.98,1.44c-0.15,0.87-0.3,1.75-0.45,2.62
	c-3.05,0.53-5.17,2.47-5.65,5.3c-1.43,8.52-0.91,17.04,0.85,25.49l-0.21,0.23c-4.07-1.27-4.49-5.37-4.77-8.24
	c-0.42-4.4-4.13-9.39,1.57-13.67c1.7-1.28,1.51-5.45-1.96-6.9c-4.17-1.74-6.43,1.44-7.29,4.27c-2.5,8.22-6.09,16.08-5.93,25.18
	c0.08,4.75-2.51,9.6-2.32,14.84c0.38,10.22,4.84,16.31,16.2,19.23c-5.43,2.02-9.76,1.74-13.77,0.86c-3.27-0.72-4.17-0.32-5.25,3.02
	c-3.74,11.48-2.69,14.01,9.01,18.16c1.25,0.44,2.67,0.98,2.18,2.56c-0.48,1.53-2.2,1.36-3.3,1.03c-3.71-1.1-7.32-2.91-9.85-5.65
	c-3.88-4.21-6.83-2.46-8.07,1.37c-2.66,8.23-10.63,15.36-4.92,25.71c-6.5-2.57-11.12-0.14-10.01,6.39
	c1.92,11.28-7.11,11-12.71,14.44c-1.27,0.78-3.36,0.27-5.07,0.26c-13.31-0.05-24.22,9.06-24.11,23.45
	c0.09,11.87,2.57,22.35,8.76,32.36c-7.39-3.11-8.74-10.15-10.96-16.4c-2.71-7.65-0.62-15.74-1.41-23.57
	c-0.29-2.82,2.57-7.49-3.29-8.01c-3.75-0.33-7.82,4.48-8.18,9.09c-0.91,11.67,1,22.98,4.37,34.1c0.79,2.62,1.02,5.45,2.92,7.71
	c0.33,0.39-0.22,1.52-0.37,2.31c-0.77-0.19-1.69-0.18-2.27-0.62c-1.77-1.35-2.56-3.36-3.23-5.42c-3.72-11.47-4.02-23.44-5.29-35.27
	c-0.32-3.02,1.63-7.16-2.07-8.72c-3.98-1.68-8.38-1.24-12.21,1.5c-1.29,0.92-2.35,3.41-4.11,2.13c-1.91-1.38,0.09-2.98,0.93-4.37
	c0.9-1.49,0.77-2.65-0.73-3.85c-9.76-7.83-20.92-11.67-33.25-9.75c-5.06,0.79-10.31-0.36-15.18,1.77c-0.77,0.34-1.8,0.18-2.07-0.84
	c-0.36-1.31,0.61-2.06,1.64-2.34c3.91-1.04,7.82-2.42,11.8-2.77c6.2-0.55,5.04-3.02,2.06-6.18c-3.62-3.84-6-9.73-13.07-8.19
	c-0.97,0.21-2.32,0.03-2.45-1.38c-0.11-1.23,0.94-1.75,1.95-2.19c4.85-2.1,5.15-4.44,1.06-8.87c-2.99-3.24-6.87-1.53-10.26-1.37
	c-3.48,0.16-2,3.54-2.45,5.64c-1.84,8.62,3.4,16.51,2.56,25.02c-4.08-5.91-4.38-12.92-4.77-19.58c-0.78-13.19-0.98-26.34-3.76-39.41
	c-1.38-6.5-0.76-13.67,6.01-18.12c-0.42,1.85-0.87,3.69-1.26,5.55c-1.67,7.88-1.38,15.05,4.55,21.66
	c10.17,11.31,20.74,22.37,26.94,36.72c1.66,3.84,5.14,6.72,10.19,5.08c0.3-0.06,0.53,0.04,0.69,0.3c2.97-0.87,5.94-1.74,8.91-2.61
	l0-0.02c1.02-0.18,2.88-0.2,2.94-0.55c0.99-5.51,4.58-3.16,6.61-1.68c3.45,2.52,7.11,2.28,10.88,2.36c2.22,0.64,4.48,1.18,6.66,1.95
	c15.4,5.43,30.87,10.42,47.53,9.63c7.75-1.32,10.44-7.54,12.54-13.77c2.62-7.79,4.48-15.84,6.66-23.77c1.21,0.01,1.87,3.56,3.3,0.91
	C332.65,349.85,338.89,338.26,339.91,324.78z"/>
<path class="st236" d="M329.59,666.25c-0.25-4.43-0.63-10.99-1.11-18.97c-0.58-9.74-1.11-15.03-1.14-18.47
	c-0.1-13.29-2.54-26.25-4.2-39.3c-1.44-11.32-1.38-22.62-1.06-33.9c0.37-13.07-1.48-26.01-1.39-39.04c0.03-4.49-2.04-6.6-6.59-6.81
	c-2.29-0.1-4.62-0.84-6.76-1.7c-1.38-0.55-2.81-1.98-0.34-3.14c16.17-7.59,23.21-21.34,28.27-37.76
	c3.35-10.86,3.75-21.66,5.36-32.55c2.23-15.18,9.2-28.99,15.63-42.78c2.19-4.69,2.34-9.35,3.27-14.11
	c2.87-14.66,5.54-29.35,11.93-43.14c4.8-10.37,0.74-20.51-3.18-30.24c-0.74-1.84-1.26-3.49-1.31-5.38c0,0,0.21-0.24,0.21-0.23
	c2.27,0.42,4.48,0.36,6.58-0.75c1.03,8.26,2.49,16.33,5.93,24.1c3.39,7.63-1.17,14.61-3.79,21.43
	c-5.61,14.6-10.58,29.28-11.72,45.05c-0.5,6.85-3,13.33-5.34,19.75c-4.4,12.08-8.12,24.25-8.92,37.23
	c-0.88,14.28-6.19,27.53-11.56,40.51c-6,14.5-5.04,27.07-5.95,34.5c-4.47,36.48-0.31,52.82-0.83,99.11
	C331.46,630.09,331.06,646.24,329.59,666.25z"/>
<path class="st236" d="M249.74,386.45c-3.77-0.08-7.43,0.16-10.88-2.36c-2.03-1.48-5.61-3.83-6.61,1.68
	c-0.06,0.35-1.92,0.38-2.94,0.55c2.41-7.31-2.98-11.85-6.24-17.04c-1.84-2.94-4.73-4.56-8.19-2.31c-3.32,2.16-4.38,5.24-2.42,8.87
	c2.32,4.32,4.83,8.55,7.25,12.82c-5.05,1.65-8.53-1.23-10.19-5.08c-6.21-14.34-16.77-25.41-26.94-36.72
	c-5.94-6.6-6.23-13.77-4.55-21.66c0.39-1.86,0.84-3.7,1.26-5.55c2.14-2.14,4.58-3.64,7.72-3.66c-0.39,2.31,1.28,3.26,2.72,4.6
	c2.94,2.74,6.45,4.92,8.42,8.65c5.44,10.27,12.33,19.74,17,30.43c1.1,2.52,3.35,4.4,5.32,2.95c2.13-1.56,2.52-4.57-0.34-6.95
	c-5.76-4.79-7.91-11.85-11.43-18.12c-3.07-5.47-2.62-12.31-7.89-16.99c-2.34-2.08-5.96-1.39-7.32-4.5c3.43-0.72,2.8-3.31,2.23-5.47
	c-0.65-2.46-1.28-4.87-1.11-7.44c-0.03-5.22,1.81-10.32,7.33-10.1c6.16,0.25,12.26,2.23,17.51,6.65
	c5.82,4.91,8.17,11.75,12.01,17.77c1.03,1.61,1.22,3.92,3.97,2.38l-0.26,0.49c-0.04,0.33-0.08,0.67-0.13,1
	c0.28-0.18,0.55-0.36,0.83-0.54c2.38,6.14,5.07,12.18,7.08,18.44c3.12,9.72-1.28,17.53-10.25,18.99c-9.09,1.48-9.1,1.48-4.95,10.11
	c0.46,0.96,1.04,1.86,1.56,2.79c0.89,5.19,4.32,8,8.95,9.91C242.16,382.66,245.92,384.64,249.74,386.45z M218.95,334.74
	c-0.11,3.02,0.91,6.07,2,9.08c4.83,13.3,4.89,10.2,16.26,5.02c1.46-0.66,2.42-1.75,1.72-3.57c-2.22-5.76-3.95-11.8-8.7-16.16
	c-2.19-2.01-4.86-2.8-7.7-1.5C219.64,328.93,218.71,331.45,218.95,334.74z"/>
<path class="st236" d="M243.59,250.11c6.46,7.41,10.94,16.06,12.59,25.58c1.59,9.17-7.66,17.57-17.34,16.19
	c-4.15-0.59-5.04,1.19-5.46,4.14c-0.7,4.84-1.1,9.73-1.63,14.59c-3.47-2.28-3.7-6.19-5.03-9.62c-3.07-7.93-5.28-16.43-12.74-21.82
	c2.9-3.69-2.31-6.28-1.32-9.71c4.53-9.16,9.11-17.8,20.61-20.51C237.42,247.98,240.15,250.08,243.59,250.11z M235.2,259.09
	c-2.51,0.37-5.72,1.74-6.54,5.59c-1.3,6.12,2.32,10.81,5.86,14.98c3.02,3.56,5.43-1.55,8.39-1.82c1.83-0.17,3.57-1.3,5.39-1.85
	c1.02-0.31,2.05-0.33,2.28-1.73C251.48,268.74,242.3,258.92,235.2,259.09z"/>
<path class="st237" d="M373.75,297.99c-2.09,1.11-4.31,1.18-6.58,0.75c-1.76-8.45-2.28-16.97-0.85-25.49
	c0.47-2.83,2.6-4.78,5.65-5.3c1.87,1.94,1.26,4.4,1.32,6.68C373.5,282.41,373.61,290.2,373.75,297.99z"/>
<g>
	<path class="st238" d="M344.36,804.97c-17.34,0.17-34.8,0.26-52.39,0.27c-21.15,0.02-42.12-0.07-62.91-0.27
		c5.43-90.18,10.86-180.36,16.29-270.54c-7.26-7.24-11.35-14.21-13.79-19.62c-3.38-7.48-6.78-7.93-7.52-24.52
		c-0.36-8.08-3.28-15.79-9.75-21.5c-8.48-7.47-13.1-16.82-14.56-28.07c-1.49-11.43-1.4-23.72-12.82-31.14c0,0,0.04,0.06,0.04,0.06
		c0-1.16-0.22-2.21-1.52-2.61c-0.35-0.52-0.7-1.08-1.03-1.68c-1.71-3.12-2.38-6.19-2.61-8.62c0.01,0.02,0.03,0.03,0.04,0.03
		c0.21-0.07-2.64-6.48-3.13-13.82c-0.42-6.26,1.36-6.12,0.57-11.2c-0.19-1.24-0.6-3.68,0.66-4.99c0.36-0.37,0.92-0.61,1.79-0.65
		c3.39-0.16,7.27-1.87,10.26,1.37c4.08,4.43,3.79,6.77-1.06,8.87c-1.01,0.44-2.06,0.96-1.95,2.19c0.12,1.42,1.48,1.59,2.45,1.38
		c7.07-1.54,9.45,4.36,13.07,8.19c2.98,3.16,4.14,5.63-2.06,6.18c-3.99,0.35-7.89,1.74-11.8,2.77c-1.03,0.27-2,1.03-1.64,2.34
		c0.28,1.01,1.3,1.17,2.07,0.84c4.87-2.13,10.12-0.98,15.18-1.77c12.33-1.91,23.49,1.92,33.25,9.75c1.5,1.2,1.63,2.37,0.73,3.86
		c-0.84,1.39-2.84,2.98-0.93,4.37c1.76,1.28,2.83-1.21,4.11-2.13c3.82-2.73,8.23-3.18,12.21-1.5c3.7,1.56,1.75,5.7,2.07,8.72
		c1.26,11.83,1.57,23.81,5.29,35.27c0.67,2.06,1.46,4.07,3.23,5.42c0.58,0.44,1.5,0.43,2.27,0.62c0.15-0.79,0.7-1.92,0.37-2.31
		c-1.9-2.26-2.13-5.09-2.92-7.71c-3.36-11.12-5.27-22.42-4.37-34.1c0.36-4.61,4.44-9.43,8.18-9.09c5.86,0.52,3,5.19,3.29,8.01
		c0.79,7.83-1.3,15.92,1.41,23.57c2.21,6.25,3.57,13.29,10.96,16.4c-6.18-10.01-8.67-20.5-8.76-32.36
		c-0.1-14.39,10.8-23.5,24.11-23.45c1.71,0.01,3.8,0.51,5.06-0.26c5.59-3.44,14.63-3.16,12.71-14.44
		c-1.11-6.53,3.51-8.96,10.01-6.39c-5.71-10.35,2.25-17.48,4.92-25.71c1.24-3.83,4.18-5.58,8.07-1.37c2.54,2.75,6.15,4.55,9.85,5.65
		c1.1,0.33,2.83,0.5,3.3-1.03c0.49-1.58-0.92-2.11-2.18-2.56c-11.7-4.15-12.75-6.69-9.01-18.16c1.09-3.33,1.98-3.74,5.25-3.02
		c4.01,0.88,8.34,1.16,13.77-0.86c-11.36-2.92-15.82-9.01-16.2-19.23c-0.2-5.24,2.4-10.09,2.32-14.84
		c-0.16-9.1,3.43-16.96,5.93-25.18c0.86-2.83,3.12-6.01,7.29-4.27c3.47,1.45,3.66,5.62,1.96,6.9c-5.7,4.28-1.99,9.27-1.57,13.67
		c0.27,2.87,0.7,6.97,4.77,8.24c0.05,1.89,0.57,3.54,1.31,5.38c3.92,9.72,7.98,19.87,3.18,30.24c-6.38,13.79-9.06,28.48-11.93,43.14
		c-0.93,4.76-1.09,9.42-3.28,14.11c-6.43,13.79-13.4,27.6-15.63,42.78c-1.6,10.89-2,21.68-5.36,32.55
		c-5.06,16.41-12.11,30.17-28.27,37.76c-2.47,1.16-1.04,2.58,0.34,3.14c2.15,0.86,4.48,1.6,6.76,1.7c4.55,0.2,6.62,2.31,6.59,6.81
		c-0.09,13.03,1.76,25.97,1.39,39.04c-0.32,11.29-0.38,22.58,1.06,33.9c1.66,13.05,4.11,26.01,4.2,39.3
		c0.03,4.79,0.65,9.05,1.14,18.47c2.62,50.76,3.93,76.13,3.92,100.39c0,5.08,0.12,7.79,0.48,12.04
		C334.47,778.82,339.7,794.23,344.36,804.97z"/>
	<path class="st238" d="M449.25,61.15c-7.78,4.46-12.72,11.69-17.55,18.81c-6.57,9.67-12.73,19.64-18.7,29.7
		c-8.77,14.76-17.08,29.8-25.88,44.55c-3.47,5.82-6.15,12.01-9.44,17.87c-9.18,16.32-16.01,33.6-21.2,51.49
		c-4.94,17.03-10.48,33.85-16.1,50.66c-2.59,7.76-3.61,16.03-5.62,24c-1.7,6.74-3.15,13.82-8.23,18.94
		c-8.13,8.19-17.92,6.1-26.83,2.18c-5.91-2.6-12.07-4.88-17.61-8.61c-12.83-8.67-14.71-20.69-8.71-33.05
		c10.58-21.77,23.02-42.68,32.78-64.79c8.98-20.35,20.89-38.87,31.92-57.95c5.95-10.28,12.94-19.96,19.37-29.96
		c5.25-8.16,11.71-15.09,19.56-20.85c3.59-2.64,6.14-6.48,9.13-9.81c9.7-10.83,20.37-21.18,33.21-27.68
		c9.47-4.79,19.42-11.1,31.25-9.26C450.16,58.65,449.7,59.9,449.25,61.15z"/>
	<path class="st238" d="M213.98,279.17c3.86,4.08,8.6,9.89,12.84,17.58c4.34,7.87,6.74,15.13,8.11,20.66
		c0.74,3.29,1.46,7.12,0.84,7.33c-0.54,0.18-1.77-2.48-4.31-7.26c-6.88-12.94-9.87-15.96-12.01-17.77
		c-5.24-4.42-11.35-6.41-17.51-6.65c-5.52-0.22-7.36,4.88-7.33,10.1c-3.92-7.95-0.86-16.76,7.71-22.19c2.6-0.64,5.21-1.29,7.81-1.93
		C211.42,279.08,212.7,279.13,213.98,279.17z"/>
	<path class="st238" d="M193.5,316.07c1.36,3.11,4.99,2.42,7.32,4.5c5.27,4.69,4.82,11.52,7.89,16.99
		c3.52,6.27,5.67,13.33,11.43,18.12c2.86,2.38,2.46,5.39,0.34,6.95c-1.98,1.45-4.22-0.42-5.32-2.95
		c-4.67-10.69-11.56-20.16-17-30.43c-1.97-3.72-5.48-5.91-8.42-8.65c-1.44-1.34-3.11-2.29-2.72-4.6
		C189.17,316.02,191.34,316.04,193.5,316.07z"/>
	<path class="st238" d="M243.59,250.11c-3.44-0.03-6.17-2.13-10.32-1.15c-11.5,2.71-16.09,11.35-20.61,20.51
		c-3.88-9.02-1.53-15.81,7.58-21.94c9.9-6.66,16.38-6.62,23.22,0.15C243.5,248.49,243.54,249.3,243.59,250.11z"/>
	<path class="st238" d="M265.18,163.11c-0.94,9.96-3.65,19.54-6.08,29.19c-0.35,1.38-0.91,2.36-2.47,2.4
		c0.01-6.84-1.91-13.56-1.32-20.45C255.88,167.67,259.01,164.06,265.18,163.11z"/>
</g>
<path class="st237" d="M235.43,319.86c-0.17-0.82-0.33-1.63-0.5-2.45c16.48-2.09,31.68,3.36,46.91,8.2
	c8.73,2.78,17.19,6.41,25.77,9.65c1.72,2.39,4.49,3.09,6.93,4.31c16.37,8.2,13.84,6.43,8.59,20.91c-2.19,7.94-4.04,15.98-6.66,23.77
	c-2.09,6.23-4.79,12.44-12.53,13.77c-2.03-2.78-4.49-4.86-7.63-6.55c-11.4-6.13-23.76-9.38-36.12-12.58
	c-10.27-2.66-20.28-6.39-30.87-7.76c-0.52-0.93-1.1-1.83-1.56-2.79c-4.15-8.64-4.14-8.64,4.95-10.11
	c8.97-1.46,13.37-9.26,10.25-18.99c-2.01-6.26-4.69-12.3-7.08-18.44c0,0-0.22-0.43-0.22-0.43l-0.48-0.02L235.43,319.86z"/>
<path class="st239" d="M341.01,322.37c-0.35,0.36-0.7,0.73-1.05,1.09C340.31,323.1,340.66,322.73,341.01,322.37z"/>
<path class="st219" d="M229.31,371.14c10.59,1.37,20.6,5.1,30.87,7.76c12.36,3.2,24.73,6.45,36.12,12.58
	c3.14,1.69,5.6,3.77,7.63,6.55c-16.65,0.79-32.13-4.2-47.53-9.63c-2.18-0.77-4.44-1.3-6.66-1.95c-3.83-1.82-7.58-3.79-11.49-5.41
	C233.63,379.13,230.2,376.33,229.31,371.14z"/>
<path class="st237" d="M219.72,388.66c-2.43-4.27-4.93-8.5-7.25-12.82c-1.95-3.63-0.9-6.71,2.42-8.87c3.46-2.24,6.34-0.63,8.19,2.31
	c3.26,5.2,8.65,9.74,6.24,17.04c0,0,0,0.02,0,0.02c-2.86,1.24-5.49,3.27-8.91,2.61C220.25,388.7,220.02,388.6,219.72,388.66z"/>
<path class="st237" d="M218.95,334.74c-0.25-3.29,0.69-5.81,3.58-7.13c2.84-1.3,5.51-0.51,7.7,1.5c4.75,4.36,6.48,10.41,8.7,16.16
	c0.7,1.82-0.26,2.91-1.72,3.57c-11.37,5.18-11.42,8.28-16.26-5.02C219.86,340.81,218.84,337.76,218.95,334.74z"/>
<path class="st237" d="M235.2,259.09c7.11-0.17,16.28,9.65,15.38,15.17c-0.23,1.4-1.25,1.42-2.28,1.73
	c-1.82,0.55-3.55,1.68-5.39,1.85c-2.96,0.27-5.37,5.38-8.39,1.82c-3.54-4.17-7.16-8.86-5.86-14.98
	C229.48,260.83,232.69,259.46,235.2,259.09z"/>
</svg>
