<?xml version="1.0" encoding="utf-8"?>
<!-- Generator: Adobe Illustrator 24.2.3, SVG Export Plug-In . SVG Version: 6.00 Build 0)  -->
<svg version="1.1" id="Слой_1" xmlns="http://www.w3.org/2000/svg" xmlns:xlink="http://www.w3.org/1999/xlink" x="0px" y="0px"
	 viewBox="0 0 585 808" style="enable-background:new 0 0 585 808;" xml:space="preserve">
<style type="text/css">
	.st0{fill:#FFC5D6;}
	.st1{clip-path:url(#SVGID_2_);fill:#F787A5;}
	.st2{clip-path:url(#SVGID_2_);fill:#FFE9F2;}
	.st3{clip-path:url(#SVGID_2_);fill:#D3CFB3;}
	.st4{clip-path:url(#SVGID_2_);fill:#FFDBE5;}
	.st5{clip-path:url(#SVGID_2_);}
	.st6{fill:#FFE9F2;}
	.st7{fill:#F787A5;}
	.st8{fill:#F2CCC1;}
	.st9{fill:#DF4E50;}
	.st10{clip-path:url(#SVGID_2_);fill:#FFC5D6;}
	.st11{fill:#FFDBE5;}
	.st12{fill:#FFC2C1;}
	.st13{fill:#FF6794;}
	.st14{fill:#FFFFFF;}
	.st15{fill:#FF6567;}
	.st16{fill:url(#SVGID_3_);}
	.st17{fill:#AED9C4;}
	.st18{fill:none;stroke:#FFFFFF;stroke-miterlimit:10;}
	.st19{fill:#A3CCAC;}
	.st20{fill:#97CEA2;}
	.st21{opacity:0.76;}
	.st22{fill:#C5EACE;}
	.st23{fill:url(#SVGID_4_);}
	.st24{fill:url(#SVGID_5_);}
	.st25{fill:#F7E7BF;}
	.st26{fill:url(#SVGID_6_);}
	.st27{fill:url(#SVGID_7_);}
	.st28{fill:url(#SVGID_8_);}
	.st29{fill:#E5EFC5;}
	.st30{fill:#F0FCD3;}
	.st31{fill:url(#SVGID_9_);}
	.st32{fill:url(#SVGID_10_);}
	.st33{fill:url(#SVGID_11_);}
	.st34{fill:url(#SVGID_12_);}
	.st35{fill:#FFE594;}
	.st36{clip-path:url(#SVGID_14_);fill:url(#SVGID_15_);}
	.st37{fill:#5B2A1E;}
	.st38{fill:#917673;}
	.st39{fill:url(#SVGID_16_);}
	.st40{fill:url(#SVGID_17_);}
	.st41{fill:url(#SVGID_18_);}
	.st42{fill:url(#SVGID_19_);}
	.st43{fill:#FE82C8;}
	.st44{opacity:0.62;clip-path:url(#SVGID_21_);fill:#FFFFFF;}
	.st45{opacity:0.75;clip-path:url(#SVGID_21_);fill:#FFFFFF;}
	.st46{opacity:0.41;clip-path:url(#SVGID_21_);fill:#FFFFFF;}
	.st47{clip-path:url(#SVGID_21_);fill:none;}
	.st48{clip-path:url(#SVGID_23_);}
	.st49{opacity:0.26;fill:#FFFFFF;}
	.st50{opacity:0.69;fill:#FFFFFF;}
	.st51{fill:none;}
	.st52{opacity:0.16;fill:#FFFFFF;}
	.st53{opacity:0.3;fill:#FFFFFF;}
	.st54{opacity:0.23;fill:#FFFFFF;}
	.st55{opacity:0.24;fill:#FFFFFF;}
	.st56{opacity:0.17;}
	.st57{opacity:0.05;fill:#E3E9E5;}
	.st58{clip-path:url(#SVGID_25_);}
	.st59{opacity:0.76;clip-path:url(#SVGID_25_);fill:#FFFFFF;}
	.st60{clip-path:url(#SVGID_25_);fill:url(#SVGID_26_);}
	.st61{clip-path:url(#SVGID_25_);fill:none;stroke:#FFFFFF;stroke-width:2;stroke-linecap:round;stroke-miterlimit:10;}
	.st62{clip-path:url(#SVGID_25_);fill:url(#SVGID_27_);}
	.st63{clip-path:url(#SVGID_25_);fill:url(#SVGID_28_);}
	.st64{clip-path:url(#SVGID_25_);fill:url(#SVGID_29_);}
	.st65{clip-path:url(#SVGID_25_);fill:url(#SVGID_30_);}
	.st66{clip-path:url(#SVGID_25_);fill:#FFFFFF;}
	.st67{clip-path:url(#SVGID_25_);fill:url(#SVGID_31_);}
	.st68{opacity:0.62;clip-path:url(#SVGID_33_);fill:#FFFFFF;}
	.st69{clip-path:url(#SVGID_33_);fill:#FFFFFF;}
	.st70{opacity:0.41;clip-path:url(#SVGID_33_);fill:#FFFFFF;}
	.st71{clip-path:url(#SVGID_33_);fill:none;}
	.st72{clip-path:url(#SVGID_35_);}
	.st73{fill:url(#SVGID_36_);}
	.st74{opacity:0.74;clip-path:url(#SVGID_38_);fill:url(#SVGID_39_);}
	.st75{fill:#E6E6E6;}
	.st76{fill:none;stroke:#4D4D4D;stroke-width:0.75;stroke-linecap:round;stroke-miterlimit:10;}
	.st77{fill:url(#SVGID_40_);}
	.st78{opacity:0.74;fill:url(#SVGID_41_);}
	.st79{opacity:0.74;fill:url(#SVGID_42_);}
	.st80{opacity:0.74;fill:url(#SVGID_43_);}
	.st81{opacity:0.74;fill:url(#SVGID_44_);}
	.st82{fill:url(#SVGID_45_);}
	.st83{opacity:0.66;}
	.st84{opacity:0.37;fill:#FFFFFF;}
	.st85{fill:url(#SVGID_46_);}
	.st86{fill:url(#SVGID_47_);}
	.st87{opacity:0.44;clip-path:url(#SVGID_49_);fill:#FFFFD9;}
	.st88{opacity:0.43;clip-path:url(#SVGID_51_);fill:#FFFFFF;}
	.st89{clip-path:url(#SVGID_51_);fill:none;stroke:#FFFFFF;stroke-miterlimit:10;}
	.st90{opacity:0.76;clip-path:url(#SVGID_51_);fill:#FFFFFF;}
	.st91{clip-path:url(#SVGID_51_);fill:#FFFFFF;}
	.st92{opacity:0.08;clip-path:url(#SVGID_51_);fill:#FFFFFF;}
	.st93{opacity:0.27;clip-path:url(#SVGID_51_);fill:#FFFFFF;}
	.st94{opacity:0.37;clip-path:url(#SVGID_51_);fill:#FFFFFF;}
	.st95{clip-path:url(#SVGID_51_);fill:none;}
	.st96{fill:url(#SVGID_52_);}
	.st97{opacity:0.62;clip-path:url(#SVGID_54_);fill:#FFFFFF;}
	.st98{clip-path:url(#SVGID_54_);fill:#FFFFFF;}
	.st99{opacity:0.41;clip-path:url(#SVGID_54_);fill:#FFFFFF;}
	.st100{clip-path:url(#SVGID_54_);fill:none;}
	.st101{clip-path:url(#SVGID_56_);}
	.st102{opacity:0.55;fill:url(#SVGID_57_);}
	.st103{fill:url(#SVGID_58_);}
	.st104{fill:url(#SVGID_59_);}
	.st105{opacity:0.28;}
	.st106{opacity:0.56;clip-path:url(#SVGID_61_);fill:#FFFFFF;}
	.st107{opacity:0.43;clip-path:url(#SVGID_63_);fill:#FFFFFF;}
	.st108{clip-path:url(#SVGID_63_);fill:none;stroke:#FFFFFF;stroke-miterlimit:10;}
	.st109{opacity:0.76;clip-path:url(#SVGID_63_);fill:#FFFFFF;}
	.st110{clip-path:url(#SVGID_63_);fill:#FFFFFF;}
	.st111{opacity:0.08;clip-path:url(#SVGID_63_);fill:#FFFFFF;}
	.st112{opacity:0.27;clip-path:url(#SVGID_63_);fill:#FFFFFF;}
	.st113{opacity:0.37;clip-path:url(#SVGID_63_);fill:#FFFFFF;}
	.st114{clip-path:url(#SVGID_63_);fill:none;}
	.st115{clip-path:url(#SVGID_65_);fill:none;}
	.st116{opacity:0.46;}
	.st117{opacity:0.86;fill:#FFFFFF;}
	.st118{opacity:0.4;}
	.st119{opacity:0.73;fill:#FFFFFF;}
	.st120{opacity:0.54;clip-path:url(#SVGID_67_);fill:#FFFFFF;}
	.st121{fill:#FF8A8A;}
	.st122{opacity:0.75;fill:#FFFFFF;}
	.st123{fill:#FFC181;}
	.st124{clip-path:url(#SVGID_69_);fill:#FFDFBD;}
	.st125{clip-path:url(#SVGID_69_);fill:#FF9D00;}
	.st126{clip-path:url(#SVGID_69_);fill:#FFF3DF;}
	.st127{clip-path:url(#SVGID_71_);fill:#FFBAE4;}
	.st128{opacity:0.8;clip-path:url(#SVGID_71_);fill:#FE82C8;}
	.st129{clip-path:url(#SVGID_71_);fill:#FE82C8;}
	.st130{opacity:0.79;clip-path:url(#SVGID_71_);fill:#FFBAE4;}
	.st131{fill:#FFFEEA;}
	.st132{fill:#58D196;}
	.st133{fill:#A6E5C3;}
	.st134{fill:#D2F2E1;}
	.st135{opacity:0.44;fill:#FFFFFF;}
	.st136{clip-path:url(#SVGID_73_);fill:#FFF9C1;}
	.st137{opacity:0.86;fill:#FFCCD5;}
	.st138{opacity:0.62;clip-path:url(#SVGID_75_);fill:#FFFFFF;}
	.st139{opacity:0.75;clip-path:url(#SVGID_75_);fill:#FFFFFF;}
	.st140{opacity:0.41;clip-path:url(#SVGID_75_);fill:#FFFFFF;}
	.st141{clip-path:url(#SVGID_75_);fill:none;}
	.st142{clip-path:url(#SVGID_77_);}
	.st143{opacity:0.44;clip-path:url(#SVGID_79_);fill:#FFFFFF;}
	.st144{opacity:0.43;clip-path:url(#SVGID_81_);fill:#FFFFFF;}
	.st145{clip-path:url(#SVGID_81_);fill:none;stroke:#FFFFFF;stroke-miterlimit:10;}
	.st146{opacity:0.76;clip-path:url(#SVGID_81_);fill:#FFFFFF;}
	.st147{clip-path:url(#SVGID_81_);fill:#FFFFFF;}
	.st148{opacity:0.08;clip-path:url(#SVGID_81_);fill:#FFFFFF;}
	.st149{opacity:0.27;clip-path:url(#SVGID_81_);fill:#FFFFFF;}
	.st150{opacity:0.37;clip-path:url(#SVGID_81_);fill:#FFFFFF;}
	.st151{clip-path:url(#SVGID_81_);fill:none;}
	.st152{opacity:0.54;clip-path:url(#SVGID_83_);fill:#FFFFFF;}
	.st153{opacity:0.62;fill:#FFFFFF;}
	.st154{opacity:0.41;fill:#FFFFFF;}
	.st155{opacity:0.43;fill:#FFFFFF;}
	.st156{opacity:0.76;fill:#FFFFFF;}
	.st157{opacity:0.08;fill:#FFFFFF;}
	.st158{opacity:0.27;fill:#FFFFFF;}
	.st159{opacity:0.54;fill:#FFFFFF;}
	.st160{clip-path:url(#SVGID_85_);fill:#FF6567;}
	.st161{clip-path:url(#SVGID_85_);fill:#FF8A8A;}
	.st162{clip-path:url(#SVGID_85_);fill:#FFC2C1;}
	.st163{clip-path:url(#SVGID_85_);fill:#FFFFFF;}
	.st164{clip-path:url(#SVGID_87_);fill:#E2E9FF;}
	.st165{clip-path:url(#SVGID_87_);fill:#EEF2FF;}
	.st166{opacity:0.54;clip-path:url(#SVGID_87_);fill:#EEF2FF;}
	.st167{opacity:0.54;clip-path:url(#SVGID_87_);fill:#8FAAF0;}
	.st168{clip-path:url(#SVGID_89_);}
	.st169{fill:#FF6B81;}
	.st170{clip-path:url(#SVGID_89_);fill:none;}
	.st171{fill:#FF1B6F;}
	.st172{clip-path:url(#SVGID_91_);fill:#FFDFBD;}
	.st173{clip-path:url(#SVGID_91_);fill:#FF9D00;}
	.st174{clip-path:url(#SVGID_91_);fill:#FFF3DF;}
	.st175{clip-path:url(#SVGID_93_);fill:#F0C6F4;}
	.st176{opacity:0.8;clip-path:url(#SVGID_93_);fill:#F8E3F8;}
	.st177{clip-path:url(#SVGID_93_);fill:#F8E3F8;}
	.st178{opacity:0.79;clip-path:url(#SVGID_93_);fill:#F0C6F4;}
	.st179{clip-path:url(#SVGID_95_);fill:#FFF9C1;}
	.st180{clip-path:url(#SVGID_97_);fill:#FFC5D6;}
	.st181{clip-path:url(#SVGID_97_);fill:#FF94B3;}
	.st182{clip-path:url(#SVGID_97_);fill:#FF6794;}
	.st183{clip-path:url(#SVGID_97_);fill:#FFFFFF;}
	.st184{clip-path:url(#SVGID_99_);fill:#698DE6;}
	.st185{clip-path:url(#SVGID_99_);fill:#8FAAF0;}
	.st186{opacity:0.54;clip-path:url(#SVGID_99_);fill:#8FAAF0;}
	.st187{clip-path:url(#SVGID_101_);}
	.st188{clip-path:url(#SVGID_101_);fill:none;}
	.st189{opacity:0.46;clip-path:url(#SVGID_103_);}
	.st190{clip-path:url(#SVGID_103_);fill:none;}
	.st191{clip-path:url(#SVGID_105_);}
	.st192{fill:#E4A280;}
	.st193{fill:#FFFFFF;stroke:#FFFFFF;stroke-width:0.25;stroke-miterlimit:10;}
	.st194{fill:none;stroke:#FFFFFF;stroke-width:2;stroke-miterlimit:10;}
	.st195{opacity:0.45;fill:#FFFFFF;}
	.st196{opacity:0.8;fill:#FFFFFF;}
	.st197{opacity:0.79;fill:#FFFFFF;}
	.st198{fill:#F3C6AB;}
	.st199{fill:none;stroke:#FFFFFF;stroke-width:0.75;stroke-miterlimit:10;}
	.st200{fill:#D4C2B3;}
	.st201{fill:#EA90A7;}
	.st202{fill:#93693D;}
	.st203{fill:#F2BECD;}
	.st204{fill:#D87290;}
	.st205{fill:#574435;}
	.st206{fill:#CAA57C;}
	.st207{fill:#641F1E;}
	.st208{fill:#E16C8D;}
	.st209{fill:#D63665;}
	.st210{fill:#DFB88B;}
	.st211{fill:#F64776;}
	.st212{fill:#E0B88B;}
	.st213{fill:#7E7E7E;}
	.st214{fill:#FFE4EB;}
	.st215{fill:#C73F69;}
	.st216{fill:#FFC9D7;}
	.st217{fill:#F7F7F7;}
	.st218{fill:#F2F2F2;}
	.st219{fill:#FC7798;}
	.st220{fill:#FFFBF1;}
	.st221{fill:#F8C3D1;}
	.st222{fill:#FFD0D7;}
	.st223{fill:#FFBEC5;}
	.st224{fill:#FE6D7B;}
	.st225{fill:#B59F90;}
	.st226{fill:#FDFDFC;}
	.st227{fill:#F3F3F3;}
	.st228{fill:#FFC5C4;}
	.st229{fill:#F79291;}
	.st230{fill:#A4C6DD;}
	.st231{fill:#DB966B;}
	.st232{fill:#BEA696;}
	.st233{fill:#583B34;}
	.st234{fill:#63443C;}
	.st235{fill:#E2D1C9;}
	.st236{fill:#B3D1E6;}
	.st237{fill:#D1ADA2;}
	.st238{fill:#A3C5DC;}
	.st239{fill:#9D7972;}
	.st240{fill:#77573F;}
	.st241{fill:#FFFDEC;}
	.st242{fill:#FF7B89;}
	.st243{fill:#FFA5B2;}
	.st244{fill:#F4769D;}
	.st245{fill:#FCFCFA;}
	.st246{fill:#F9C5DD;}
	.st247{fill:#E5BBB6;}
	.st248{clip-path:url(#SVGID_113_);fill:#EA90A7;}
	.st249{clip-path:url(#SVGID_113_);fill:#FFEBF2;}
	.st250{clip-path:url(#SVGID_113_);fill:#D3CFB3;}
	.st251{clip-path:url(#SVGID_113_);fill:#FCDDE6;}
	.st252{clip-path:url(#SVGID_113_);}
	.st253{fill:#FFEBF2;}
	.st254{clip-path:url(#SVGID_113_);fill:#FFC9D7;}
	.st255{fill:#FCDDE6;}
</style>
<path class="st201" d="M583,701c0.38-3.92,0.72-7.92,1-12c0.77-11.15,1.07-21.83,1-32c-25.93-11.85-60.28-32.1-91.29-66.5
	c-32.62-36.18-47.18-72.13-57.06-96.29c-12.96-31.73-19.54-59.72-23.11-79.78c-2.91-22.57-5.83-45.15-8.74-67.72
	c3.68-0.08,9.21-0.71,14.84-3.68c15.89-8.38,19.73-28.66,22.76-44.69c1.48-7.82,4.01-21.41,0.72-38.58
	c-2.71-14.11-7.55-27.39-18.86-37.09c-8.96-7.69-18.41-6.61-25.92,2.51c-5.77,7-8.98,15.29-11.58,23.82
	c-1.67,5.48-3.01,11.07-4.57,16.87c-2.4-1.71-2.88-3.97-3.84-5.88c-9.86-19.71-20.07-39.2-33.55-56.76
	c-7.49-9.75-16.19-17.81-28.01-22.36c-7.87-3.03-15.33-7.17-22.38-11.92c-1.78-0.8-3.56-1.59-5.83-2.61c0,0.12,0,0.24,0,0.36
	c-1.95-1.46-4.05-2.91-6.26-4.44c-2.43-1.68-5.01-3.2-5.01-3.2c-1.94-1.04-3.92-2.02-5.83-3.14
	c-18.28-10.69-36.26-21.93-55.53-30.85c-9.93-4.6-16.54-4.66-19.39-4.95c-8.19-0.83-15.06,0.02-19.76,0.94
	c9.25,4.01,16.58,7.59,21.29,9.97c37.36,18.83,49.03,31.95,68.86,38.51c4.41,1.46,3.41,1.13,4.96,1.81c0,0,41.7,18.29,46.85,126.75
	c0.02,0.53,0.2,4.68,0.74,10.36c0.13,1.33,0.27,2.72,0.45,4.23c0.47,3.99,2.65,21.3,10.67,46.62c2.61,8.24,2.78,7.53,4.35,13.22
	c2.9,10.48,6.3,20.82,5.76,32.02c-0.71,14.76-3.21,29.1-6.89,43.43c-5.07,19.74-11.17,39.08-18.79,57.96
	c-3.48,8.63-6.77,17.35-10.77,27.63c9.64-5.48,17.35-10.79,26.65-13.26c11.23-2.98,22.45-5.43,34.01-4.09
	c4.98,0.58,9.46,1.81,13.42,4.45c4.28,2.86,6.52,6.37,7.12,7.26c11.45,16.95,93.92,85.16,93.92,85.16
	c16.67,13.69,21.32,18.38,29.64,25.37c2.35,1.97,4.49,3.71,6.34,5.19c3.58,2.86,6.25,4.89,6.62,5.17
	C525.74,651.65,541.41,664.93,583,701z M418.66,231.36c3.5-1.8,6.8-0.43,8.25,2.73c4.62,10.06,7.86,20.61,9.43,31.61
	c0.06,0.42-0.51,0.94-0.89,1.59c-3.89-5.84-7.59-11.5-11.38-17.1c-5.98-8.85-8.75-9.32-17.64-3.17c-1.23,0.85-2.16,2.39-5.18,2.05
	C407.15,242.48,411.13,235.24,418.66,231.36z M397.86,262.62c-0.54-4.16,2.84-4.15,5.79-4.1c4.66-0.04,8.65,1.41,11.83,5.01
	c3.37,3.81,6.02,8.08,8.55,12.45c2.76,4.78,1.38,8.74-3.02,11.37c-3.53,2.12-6.61,4.59-9.24,7.69c-3.08,3.65-6.29,2.54-7.46-1.09
	C401.01,283.79,399.23,273.22,397.86,262.62z"/>
<path class="st202" d="M68.85,432.22l0.06-0.05L68.85,432.22z"/>
<g>
	<path class="st203" d="M88.93,377.54c3.99,8.15,5.01,17.6,11.05,24.82c1.72,2.06,2.95,4.32,6,4.31
		c4.65-21.22,7.54-42.68,9.87-65.41c-8.68,5.28-13.11,12.2-15.99,20.37c-1.04,2.94-1.84,6.26-7.22,5.92
		c3.66-1.77,4.57-4.29,5.34-7.08c2.47-8.88,7.22-16.24,15.31-20.99c2.19-1.28,3.08-2.81,3.29-5.24c1.41-16.31,3.05-32.6,3.04-48.99
		v0c2.53-48.4,0.31-96.68-3.45-144.93c-0.3-3.91-1.77-3.86-4.94-3.26c-11.02,2.09-20.58,6.91-29.04,14.19
		c-19.09,16.42-32.52,27.15-38.47,46.59c-1.8,5.87-3.81,15.37-2.53,27.84c2.15,27.94,6.49,55.38,18.79,81.65
		c5.92-6.83,13.47-10.14,21.09-13.32c7.34-2.21,14.65-4.57,22.05-6.58c5.52-1.5,12.8,3.83,14.4,10.16
		c1.52,5.99-0.44,8.41-8.29,10.45c-11.34,2.95-22.76,5.8-33.41,10.76c-16.38,7.62-15.37,8.37-7.66,23.22
		c2.87,5.53,7.7,9.93,9.35,16.17C81.71,364.4,85.58,370.7,88.93,377.54z"/>
	<path class="st203" d="M482,612c-10.95-7.84-31.25-22.48-54-43c-25.19-22.71-37.78-34.07-42.49-41.07
		c-0.64-0.96-2.88-4.43-7.12-7.26c-3.96-2.65-8.45-3.88-13.42-4.45c-11.56-1.34-22.78,1.11-34.01,4.09
		c-9.3,2.47-17.01,7.78-26.65,13.26c4-10.28,7.29-19,10.77-27.63c7.62-18.88,13.71-38.22,18.79-57.96
		c3.68-14.32,6.18-28.66,6.89-43.43c0.54-11.2-2.86-21.54-5.76-32.02c-1.89-6.84-3.8-11.73-4.35-13.22
		c-8.01-21.58-9.81-50.66-17.47-91.02c-7.37-38.82-15.92-65.77-22.73-84.44c-0.52-1.43-0.96-2.62-1.26-3.41
		c-3.52,0.39-5.51-2.37-7.82-4.11c-24.43-18.38-50.3-34.29-77.89-47.55c-5.28-2.54-11.72-3.31-15.78-8.29
		c-1.22,0.05-2.44,0.1-3.66,0.16c-1.26,0.18-2.53,0.35-3.79,0.53c-10.8,0.65-21.25,3.13-31.62,6.04c-0.31,0.08-0.61,0.15-0.92,0.23
		c-8.58,2.24-17.12,4.65-25.76,6.64c-3.48,0.8-3.91,2.6-3.48,5.6c0.77,5.4,1.31,10.83,1.91,16.25c1.63,14.67,6.77,97.77,4.66,149.63
		c-0.88,21.65-2.59,37.74-3.04,41.88c-0.23,2.09-0.58,6.69-1.75,14.39c-2.66,17.49-5.41,34.98-8.13,52.46
		c0.12,3.01,0.35,6.03,0.33,9.04c0,0,0.41,3.34,1.24,6.6c1.42,5.58,9.2,18.22,23.19,31.76c1.45,1.98,3.59,4.85,6.28,8.23
		c16.98,21.29,38.38,43.59,66.92,58.65c15.89,8.39,34.87,10.51,34.65,17.19c0,0.08,0,0.18-0.02,0.32c0,0-0.2,2.17-2.59,4.15
		c-20.32,16.84-47.94,22.19-47.94,22.19c-38.75,7.51-58.35,11.52-71.85,18.98c-7.67,4.24-18.14,11-29.15,21.57
		c-0.35,0.34-3.06,2.94-4.94,4.97C75.21,632.12,71.42,652.76,70,664c-2.9,22.96-4.57,75.06-0.42,144.08c134.21,0,268.42,0,402.63,0
		c11.66-1.48,37.66-6.4,62.95-26.23c5.47-4.29,29.26-23.68,41.97-59.02c7.35-20.44,8.21-38.49,7.87-49.84
		C540.98,651.73,506.68,629.69,482,612z M133.49,428.62c0.03-0.16,0.03-0.33,0.11-0.46c0.05-0.08,0.22-0.07,0.34-0.1
		c0.05,0.15,0.09,0.3,0.14,0.44C133.87,428.53,133.68,428.58,133.49,428.62z M223.97,275.37c12.18-12.37,27.6-14.51,43.89-13.93
		c2.79,0.1,5.59-0.01,8.39-0.02c3.53-0.97,7.05-1.94,11.96-3.29c-4.19,3.75-7.86,4.89-11.85,5.26c-5.91,1.53-11.96,0.43-17.95,0.86
		c-12.8,0.93-24.24,4.85-34,13.33c-3.68,4.14-6.9,8.61-9.77,13.37C216.12,284.77,219.12,279.52,223.97,275.37z M184.75,269.16
		C184.75,269.16,184.75,269.16,184.75,269.16c0.5,0.96,0.85,1.77,1.07,2.29C185.1,270.64,184.79,269.88,184.75,269.16
		C184.75,269.16,184.75,269.16,184.75,269.16z M288.68,438.72c-6.95,29.59-22.71,52.26-50.43,65.98
		c-16.46,8.15-28.83,3.55-36.2-14.31c-1.38-3.34-2.98-4.88-6.48-5.79c-10.46-2.71-14.73-9.64-13.99-21.59
		c0.67-10.81,6.66-18.56,16.17-19.82c5.19-0.69,8.86-2.64,12.94-6.18c8.37-7.25,19.04-9.25,30.08-8.72
		c14.97,0.62,29.69,3.28,44.48,5.34C288.58,434.1,289.52,435.12,288.68,438.72z"/>
</g>
<path class="st204" d="M528.28,688.35c-6.09,2.93-19.01,9.64-35.81,23.66C454.96,743.33,429.39,785.38,417,808c-8.67,0-17.33,0-26,0
	c9.4-22.62,25.24-52.11,52.07-80.36c15.13-15.92,42.17-43.75,86.97-59.49c22.15-7.78,41.66-10.16,54.96-10.9c0,5.25,0,10.49,0,15.74
	C571.55,674.13,550.85,677.48,528.28,688.35z"/>
<polygon class="st205" points="429.27,126.08 429.49,125.95 429.24,126.15 "/>
<path class="st206" d="M184.06,120.64c-1.18,0.78-2.46,0.81-3.79,0.53C181.54,121,182.8,120.82,184.06,120.64z"/>
<path class="st205" d="M125.75,334.94c0.58-0.08,1.15-0.16,1.73-0.23C126.9,334.78,126.33,334.86,125.75,334.94z"/>
<path class="st207" d="M163.51,620.47c-0.44-0.03-0.88-0.05-1.32-0.08c-0.22-1.01-0.44-2.01-0.66-3.02
	c0.26-0.22,0.54-0.43,0.81-0.64C163.44,617.76,164.53,618.79,163.51,620.47z"/>
<path class="st208" d="M240.78,428.28c14.97,0.63,29.68,3.28,44.47,5.35c3.33,0.47,4.27,1.49,3.42,5.09
	c-6.95,29.59-22.71,52.26-50.43,65.98c-16.46,8.15-28.83,3.55-36.2-14.31c-1.38-3.34-2.98-4.88-6.48-5.79
	c-10.46-2.71-14.73-9.64-13.99-21.59c0.67-10.81,6.66-18.56,16.17-19.82c5.19-0.69,8.86-2.64,12.94-6.18
	C219.07,429.75,229.74,427.76,240.78,428.28z M210.28,476.08c4.84,0.88,7.85-2.51,11.54-3.77c10.92-3.75,20.36-10.49,30.54-15.74
	c1.27-0.65,3.46-1.55,2.58-3.5c-0.95-2.12-2.82-0.72-4.18-0.12c-3.57,1.57-7.23,2.55-11.14,2.38
	C224.57,454.65,216.7,464.02,210.28,476.08z"/>
<path class="st204" d="M316.78,639.98c16.41-33.89,32.14-66.37,47.8-98.7c2.22,0.66,2.33,1.69,2.35,2.69
	c0.59,24.23-3.24,47.42-15.91,68.6C343.02,625.95,335.03,632.67,316.78,639.98z"/>
<path class="st204" d="M207.26,571.9c-18.06,12.53-31.29,26.34-44.92,43.39c-25.52,31.91-45.9,57.4-60.06,98.02
	c-6.97,19.99-15.58,52.68-14.32,94.77c11.69-0.03,23.37-0.06,35.06-0.08c-5.4-23.3-10.94-63.05,2.79-107.64
	c1.57-5.11,5.5-17.09,14.23-34.18c12.84-25.14,38.8-66.65,91.16-108.42C225.2,560.73,216.74,565.32,207.26,571.9z"/>
<path class="st209" d="M271.52,689.61c-8.81-12.27-19.31-29.68-27.19-52.12c-11.63-33.1-12.36-62.31-11.33-80.64
	c0.69,20.45,3.83,47.98,14.04,78.82C254.26,657.46,263.22,675.5,271.52,689.61z"/>
<path class="st210" d="M322.89,372.59c0.08-2.74,0.16-5.48,0.24-8.22C323.9,367.14,324.07,369.88,322.89,372.59z"/>
<path class="st204" d="M403.64,258.51c4.67-0.04,8.65,1.42,11.84,5.02c3.37,3.81,6.02,8.08,8.55,12.45
	c2.76,4.78,1.38,8.74-3.02,11.37c-3.53,2.12-6.61,4.59-9.24,7.69c-3.08,3.65-6.29,2.54-7.46-1.09c-3.3-10.17-5.08-20.74-6.45-31.34
	C397.32,258.46,400.69,258.47,403.64,258.51z"/>
<path class="st204" d="M401.27,249.06c5.88-6.58,9.86-13.83,17.4-17.71c3.5-1.8,6.8-0.43,8.25,2.73
	c4.62,10.06,7.86,20.61,9.43,31.61c0.06,0.42-0.51,0.94-0.89,1.59c-3.89-5.84-7.59-11.5-11.38-17.1c-5.98-8.85-8.75-9.32-17.64-3.17
	C405.21,247.87,404.29,249.41,401.27,249.06z"/>
<path class="st211" d="M204.46,525.14c-2.46,2.22-7.24,5.91-14.25,7.68c-11.76,2.98-21.42-1.54-24.13-2.92
	c-3.62-1.38-15.21-6.33-22.71-19.09c-7.46-12.69-6.14-25.11-5.62-29.47c0.71-5.93,2.39-10.65,3.73-13.74
	c-0.55,3.48-0.98,8.45-0.25,14.3c2.6,20.83,19,44.3,41.56,47.02C186.94,529.43,194.66,529.61,204.46,525.14z"/>
<path class="st205" d="M320.67,373.83c0.06-0.56,0.11-1.12,0.17-1.68C320.78,372.71,320.73,373.27,320.67,373.83z"/>
<g>
	<path class="st204" d="M457.61,251.1c-0.14-0.38-0.27-0.75-0.41-1.13c-3.4-15.45-8.95-30.15-15.12-44.68
		c-2.93-6.9-6.42-13.38-10.51-19.59c-3.95-3.73-6.42-7.21,0.65-10.43c1.91-0.87,3.46-2.78,4.89-4.46c4.5-5.29,3.83-10.41-1.87-14.43
		c-3.66-2.59-7.75-4.36-12.13-5.31c-3.86-0.84-7.24-2.43-9.9-5.4c-0.77-0.72-1.54-1.44-2.31-2.16c-2.46-3.2-4.73-6.53-6-10.38
		c-3.54-10.7-8.06-20.96-13.41-30.86c-3.3-4.04-6.31-8.36-9.96-12.06c-6.97-7.06-15.23-10.38-25.23-7.06
		c-1.01,0.33-2.2,0.95-3.05,0.49c-0.66-0.36-0.82-1.19-0.87-1.4c-0.3-1.24-8.46-32.61-23.21-44.88
		c-6.88-5.72-19.25-11.68-23.48-11.87c-2.56-0.11-4.52-1.44-6.59-2.63c-1.51-1.04-3.02-2.07-4.53-3.1
		C274.28,8.68,252.62,2.08,229.53,0.4c-26.95-1.97-52.48,3.28-75.23,17.93c-8.79,5.67-17.78,10.76-26.95,15.64
		c-5.13,3.41-10.26,6.81-15.39,10.22l-0.19-0.25l0.14,0.28c-6.5,7.12-13.54,13.42-22.22,18.02c-5.78,3.06-11.51,6.82-13.94,13.62
		c-0.7,1.96-2.99,2.15-3.82,2.7c-16.49,10.99-30.48,16.07-43.13,27.26c-6.81,6.03-10.02,9.14-12.75,14.51
		C9.86,132.5,4.3,144.98,11.3,158.85c0.99,1.95-0.09,3.48-0.42,5.22c-1.25,6.48-1.06,12.72,5.04,16.82
		c2.76,1.85,2.19,3.91,1.72,6.28c-2.15,10.7-4.5,21.37-6.41,32.11c-3.62,20.3-8.54,40.67-7.13,61.32
		c1.82,26.67,1.84,53.36,3.03,80.02c0.59,13.33,0.63,26.83,3.92,39.8c6.28,24.8,9.42,50.04,11.92,75.41c0.6-0.02,1.2-0.04,1.8-0.06
		c-0.18-21.3-1.07-38.39-1.75-49.04c-6.27-98.32-25.72-143.7-1.56-196.96c3.36-7.41,6.69-13.05,8.56-16.06
		c0,8.59-0.21,16.78,0.07,24.96c0.21,5.88,0.97,12.03,4.94,16.59c6.43,7.38,8.27,16.04,8.47,25.3c0.22,9.9-0.6,19.89,0.38,29.71
		c1.7,17.02,2.58,34.55,15.97,47.79c0.77,0.76,0.94,2.2,1.25,3.37c5.28,19.96,10.29,40.03,11.58,60.68
		c1.42,22.61,2.5,45.24,6.05,67.64c0.69,4.35,0.44,8.22-1.52,12.26c-9.44,19.46-18.69,39-27.99,58.53
		C35.14,590.1,20.79,619.53,7.82,649.6c0.83-0.02,1.67-0.04,2.5-0.05c23.33-46.32,46.66-92.64,69.98-138.95
		c3.77,19.67,6.03,39.05,5.75,58.68c-0.21,14.97,0.29,29.87,7.16,43.7c3.46,3.18,6.93,6.37,11.31,10.39
		c-1.54-6.9-5.97-11.53-6.53-17.51c-1.08-6.22-1.98-13.01-2.51-20.32c-0.89-12.26-0.59-23.36,0.26-32.98
		c-0.02-20.98,0.93-42-3.68-62.72c-0.61-2.73-0.77-5.5,0.29-8.33c7.76-20.82,13.74-42.17,18.59-63.85c0.26-1.15,0.8-2.23,1.21-3.35
		c2.72-17.49,5.47-34.97,8.13-52.46c0.73-4.78,1.25-9.59,1.75-14.39c1.06-10.13,1.03-10.14,11.07-11.37
		c10.9,0.8,13.33,0.56,13.38,0.16c0.08-0.56-4.41-2.09-9.06-2.27c-2.25-0.08-7.65,0.04-9.94,0.74c-0.2,0.06-0.86,0.27-1.73,0.23
		c-0.96-0.04-1.72-0.38-2.17-0.62c0.8-12.38,1.24-22.4,1.49-28.76c2.66-68.32-3.21-136.54-4.66-149.63
		c-0.6-5.42-1.14-10.85-1.91-16.25c-0.43-3.01,0-4.8,3.48-5.6c8.64-1.99,17.18-4.4,25.76-6.64c0.25-0.29,0.56-0.37,0.92-0.23
		c10.37-2.9,20.82-5.38,31.62-6.04c1.26-0.18,2.53-0.35,3.79-0.53c1.22-0.05,2.44-0.1,3.66-0.16c9.88-1.31,19.24,0.4,28.26,4.58
		c10.7,4.95,20.99,10.62,31.16,16.51c20.1,11.64,21.22,12.23,24.37,14.35c18.13,12.23,24.88,45.19,37.64,110.59
		c0.38,1.94,6.82,33.09,9.89,68.1c0.9,10.32,1.4,19.04,1.69,25.4c-0.4,12.31-0.8,24.62-1.19,36.93c0.46-2.37,2.92-15.19,3.36-24.35
		c0.18-3.67,0.24-8.22,0.24-8.22c0,0,0.05-3.79-0.01-7.67c-0.66-42.23-12.12-99.43-12.12-99.43c-3.68-18.35-8.98-41.94-16.62-69.28
		c0,0-0.13-0.28-0.13-0.28l0.27-0.14c-1.97-7.08-3.94-14.16-5.91-21.24c2.26,1.01,4.05,1.81,5.83,2.61
		c7.05,4.74,14.51,8.89,22.38,11.92c11.82,4.55,20.52,12.6,28.01,22.36c13.48,17.56,23.69,37.05,33.55,56.76
		c0.96,1.91,1.44,4.17,3.84,5.88c1.56-5.8,2.9-11.38,4.57-16.87c2.59-8.54,5.81-16.83,11.58-23.82c7.51-9.11,16.96-10.2,25.92-2.51
		c11.31,9.71,16.15,22.98,18.86,37.09c5.51,28.7-1.76,53.98-21.04,75.85c4.39,11.88,3.3,24.27,3.37,36.55
		c0.01,2.34-0.86,4.89,1.21,6.89c7.78-7.22,28.34-28.22,35.61-62.72C468.69,285.9,461.33,261.32,457.61,251.1z M119.63,285.24
		c0.02,16.39-1.63,32.68-3.04,48.99c-0.21,2.43-1.11,3.96-3.29,5.24c-8.09,4.75-12.85,12.1-15.31,20.99
		c-0.77,2.79-1.68,5.31-5.34,7.08c5.38,0.34,6.19-2.98,7.22-5.92c2.88-8.17,7.31-15.08,15.99-20.37
		c-2.33,22.73-5.22,44.2-9.87,65.41c-3.69,20.49-9.19,40.51-16.74,60.31c-0.91-10.3-2.3-20.58-2.63-30.9
		c-0.75-23.77-5.64-46.92-9.58-70.22c-0.43-2.57-1.08-5.21,0.49-7.68c-1.65-6.24-6.48-10.64-9.35-16.17
		c-7.71-14.85-8.72-15.6,7.66-23.22c10.65-4.95,22.07-7.81,33.41-10.76c7.85-2.04,9.81-4.46,8.29-10.45
		c-1.6-6.33-8.88-11.65-14.4-10.16c-7.4,2-14.7,4.37-22.05,6.58c-7.62,3.19-15.17,6.49-21.09,13.32
		c-12.3-26.27-16.64-53.7-18.79-81.65c-0.7-7.26-1.46-14.51-0.03-21.77c0.84-2.03,1.43-4.22,2.56-6.07
		c10.61-17.35,22.97-33.26,38.47-46.59c8.46-7.28,18.02-12.1,29.04-14.19c3.17-0.6,4.63-0.65,4.94,3.26
		C119.94,188.56,122.16,236.84,119.63,285.24z"/>
	<path class="st204" d="M197.5,246.68c-5.26,5.82-10.48,11.67-15.79,17.45c-3.66,3.98-6.66,6.02-9.75,6.17
		c-4.85,0.24-8.68-3.56-10.6-5.46c-4.23-4.19-5.73-9.08-6.31-11.72c4.36-5.49,8.71-10.97,13.07-16.46c0.31-0.02,0.46-0.19,0.43-0.51
		c2.8-3.06,5.6-6.11,8.41-9.17c1.17-1.23,2.34-2.47,3.51-3.7c5.37-6.37,11.7-11.7,18.29-16.73c13.8-10.55,29.26-14.05,46.31-11
		c12.01,2.15,23.47,5.95,34.53,11.02c1.82,0.83,5.02,1.79,0.41,3.5c-13.7-2.63-27.45-3.05-41.27-1.03c-0.87,0.19-1.73,0.38-2.6,0.57
		c-5.03,0.49-8.43,3.59-11.54,7.17c-0.26,0.01-0.41,0.14-0.45,0.41c-6.93,5.68-12.74,12.41-18.18,19.47c0,0-0.01,0.02-0.01,0.02
		c-0.56,0.66-1.12,1.32-1.68,1.98c0,0-0.13,0.09-0.13,0.09c-1.45,1.72-2.9,3.44-4.35,5.16C199.04,244.83,198.27,245.75,197.5,246.68
		z"/>
	<path class="st204" d="M276.36,263.39c-5.91,1.53-11.96,0.43-17.95,0.86c-12.8,0.93-24.24,4.85-33.99,13.33
		c-0.15-0.74-0.3-1.47-0.45-2.2c12.18-12.37,27.6-14.51,43.89-13.93c2.79,0.1,5.59-0.01,8.39-0.02
		C276.28,262.08,276.32,262.73,276.36,263.39z"/>
	<path class="st204" d="M223.97,275.37c0.15,0.73,0.3,1.47,0.45,2.2c-3.68,4.14-6.9,8.61-9.77,13.37
		C216.12,284.77,219.12,279.52,223.97,275.37z"/>
	<path class="st204" d="M276.36,263.39c-0.04-0.65-0.07-1.31-0.11-1.96c3.53-0.97,7.05-1.94,11.96-3.29
		C284.02,261.88,280.35,263.02,276.36,263.39z"/>
	<path class="st204" d="M418.35,340c2.31,3.24,1.43,6.97,1.35,10.45c-0.31,12.6-0.92,25.2-1.41,37.8
		c-4.78,2.84-6.52,8.96-11.97,11.08c-3.4-15.98-2.12-32.22-2.57-48.36c-0.09-3.28,0.46-5.47,4.62-4.96
		C413.09,346.6,415.31,342.5,418.35,340z"/>
	<path class="st203" d="M210.28,476.08c6.42-12.07,14.29-21.43,29.34-20.75c3.92,0.18,7.58-0.81,11.14-2.38
		c1.36-0.6,3.23-2,4.18,0.12c0.87,1.95-1.31,2.85-2.58,3.5c-10.19,5.24-19.63,11.98-30.54,15.74
		C218.13,473.57,215.12,476.97,210.28,476.08z"/>
</g>
<path class="st211" d="M407.85,414.84c-4-1.46-5.8-5.07-6.23-6.03c1.09,0.6,4.29,2.15,8.06,1.26c0,0,2.09-0.49,3.88-1.84
	c5.14-3.86,4.82-16.14,4.73-19.98c-0.75-31.86,1.24-38.52-4.53-52.48c-0.91-2.21-1.76-3.98-2.34-5.14c0.57-0.41,2.41-1.78,4.69-1.32
	c1.83,0.37,3.42,2.27,5.98,6.28c3.2,15.24,3.62,27.81,3.37,36.55c-0.09,3.01-0.43,6.74-1.12,14.21
	c-1.97,21.34-3.61,25.23-6.84,27.33C415.01,415.31,411.26,416.09,407.85,414.84z"/>
<path class="st204" d="M332.21,508.38c9.21-7.13,20.39-17.18,31.26-30.81c12.82-16.07,20.82-31.62,25.82-43.49
	c-3,9.66-8.14,22.42-17.21,35.79C358.56,489.79,342.56,501.83,332.21,508.38"/>
<path class="st209" d="M282.93,702.54c0.52,2.18,1.9,8.42-0.84,15.43c-1.19,3.05-3.08,5.89-5.73,8.49
	c-9.12,8.95-22.29,5.81-26.76-6.21c-3.37-9.06-0.27-17.13,0.21-18.15c4.65-9.96,17.47-16.93,25.32-12.97
	C280.37,691.77,281.98,698.56,282.93,702.54z"/>
<path class="st209" d="M279.21,692.76c22.19-5.7,55.5-17.05,90.6-40.77c36.04-24.36,59.35-51.89,72.94-70.67
	c-10.59,17.35-28.91,42.51-58.44,65.23C343.14,678.24,301.51,688.79,279.21,692.76z"/>
</svg>
