<?xml version="1.0" encoding="utf-8"?>
<!-- Generator: Adobe Illustrator 24.2.3, SVG Export Plug-In . SVG Version: 6.00 Build 0)  -->
<svg version="1.1" id="Слой_1" xmlns="http://www.w3.org/2000/svg" xmlns:xlink="http://www.w3.org/1999/xlink" x="0px" y="0px"
	 viewBox="0 0 585 437" style="enable-background:new 0 0 585 437;" xml:space="preserve">
<style type="text/css">
	.st0{fill:#FFC9D7;}
	.st1{clip-path:url(#SVGID_2_);fill:#EA90A7;}
	.st2{clip-path:url(#SVGID_2_);fill:#FFEBF2;}
	.st3{clip-path:url(#SVGID_2_);fill:#D3CFB3;}
	.st4{clip-path:url(#SVGID_2_);fill:#FCDDE6;}
	.st5{clip-path:url(#SVGID_2_);}
	.st6{fill:#FFEBF2;}
	.st7{fill:#EA90A7;}
	.st8{fill:#F2CCC1;}
	.st9{fill:#DF4E50;}
	.st10{clip-path:url(#SVGID_2_);fill:#FFC9D7;}
	.st11{fill:#FCDDE6;}
	.st12{fill:#FFC5C4;}
	.st13{fill:#FC7798;}
	.st14{fill:#FFFFFF;}
	.st15{fill:#F17171;}
	.st16{fill:url(#SVGID_3_);}
	.st17{fill:#AED9C4;}
	.st18{fill:none;stroke:#FFFFFF;stroke-miterlimit:10;}
	.st19{fill:#A3CCAC;}
	.st20{fill:#97CEA2;}
	.st21{opacity:0.76;}
	.st22{fill:#C5EACE;}
	.st23{fill:url(#SVGID_4_);}
	.st24{fill:url(#SVGID_5_);}
	.st25{fill:#F7E7BF;}
	.st26{fill:url(#SVGID_6_);}
	.st27{fill:url(#SVGID_7_);}
	.st28{fill:url(#SVGID_8_);}
	.st29{fill:#E5EFC5;}
	.st30{fill:#F0FCD3;}
	.st31{fill:url(#SVGID_9_);}
	.st32{fill:url(#SVGID_10_);}
	.st33{fill:url(#SVGID_11_);}
	.st34{fill:url(#SVGID_12_);}
	.st35{fill:#FFE594;}
	.st36{clip-path:url(#SVGID_14_);fill:url(#SVGID_15_);}
	.st37{fill:#5B2A1E;}
	.st38{fill:#917673;}
	.st39{fill:url(#SVGID_16_);}
	.st40{fill:url(#SVGID_17_);}
	.st41{fill:url(#SVGID_18_);}
	.st42{fill:url(#SVGID_19_);}
	.st43{fill:#EF8FC7;}
	.st44{opacity:0.62;clip-path:url(#SVGID_21_);fill:#FFFFFF;}
	.st45{opacity:0.75;clip-path:url(#SVGID_21_);fill:#FFFFFF;}
	.st46{opacity:0.41;clip-path:url(#SVGID_21_);fill:#FFFFFF;}
	.st47{clip-path:url(#SVGID_21_);fill:none;}
	.st48{clip-path:url(#SVGID_23_);}
	.st49{opacity:0.26;fill:#FFFFFF;}
	.st50{opacity:0.69;fill:#FFFFFF;}
	.st51{fill:none;}
	.st52{opacity:0.16;fill:#FFFFFF;}
	.st53{opacity:0.3;fill:#FFFFFF;}
	.st54{opacity:0.23;fill:#FFFFFF;}
	.st55{opacity:0.24;fill:#FFFFFF;}
	.st56{opacity:0.17;}
	.st57{opacity:0.05;fill:#E3E9E5;}
	.st58{clip-path:url(#SVGID_25_);}
	.st59{opacity:0.76;clip-path:url(#SVGID_25_);fill:#FFFFFF;}
	.st60{clip-path:url(#SVGID_25_);fill:url(#SVGID_26_);}
	.st61{clip-path:url(#SVGID_25_);fill:none;stroke:#FFFFFF;stroke-width:2;stroke-linecap:round;stroke-miterlimit:10;}
	.st62{clip-path:url(#SVGID_25_);fill:url(#SVGID_27_);}
	.st63{clip-path:url(#SVGID_25_);fill:url(#SVGID_28_);}
	.st64{clip-path:url(#SVGID_25_);fill:url(#SVGID_29_);}
	.st65{clip-path:url(#SVGID_25_);fill:url(#SVGID_30_);}
	.st66{clip-path:url(#SVGID_25_);fill:#FFFFFF;}
	.st67{clip-path:url(#SVGID_25_);fill:url(#SVGID_31_);}
	.st68{opacity:0.62;clip-path:url(#SVGID_33_);fill:#FFFFFF;}
	.st69{clip-path:url(#SVGID_33_);fill:#FFFFFF;}
	.st70{opacity:0.41;clip-path:url(#SVGID_33_);fill:#FFFFFF;}
	.st71{clip-path:url(#SVGID_33_);fill:none;}
	.st72{clip-path:url(#SVGID_35_);}
	.st73{fill:url(#SVGID_36_);}
	.st74{opacity:0.74;clip-path:url(#SVGID_38_);fill:url(#SVGID_39_);}
	.st75{fill:#E6E6E6;}
	.st76{fill:none;stroke:#4D4D4D;stroke-width:0.75;stroke-linecap:round;stroke-miterlimit:10;}
	.st77{fill:url(#SVGID_40_);}
	.st78{opacity:0.74;fill:url(#SVGID_41_);}
	.st79{opacity:0.74;fill:url(#SVGID_42_);}
	.st80{opacity:0.74;fill:url(#SVGID_43_);}
	.st81{opacity:0.74;fill:url(#SVGID_44_);}
	.st82{fill:url(#SVGID_45_);}
	.st83{opacity:0.66;}
	.st84{opacity:0.37;fill:#FFFFFF;}
	.st85{fill:url(#SVGID_46_);}
	.st86{fill:url(#SVGID_47_);}
	.st87{opacity:0.44;clip-path:url(#SVGID_49_);fill:#FFFDDD;}
	.st88{opacity:0.43;clip-path:url(#SVGID_51_);fill:#FFFFFF;}
	.st89{clip-path:url(#SVGID_51_);fill:none;stroke:#FFFFFF;stroke-miterlimit:10;}
	.st90{opacity:0.76;clip-path:url(#SVGID_51_);fill:#FFFFFF;}
	.st91{clip-path:url(#SVGID_51_);fill:#FFFFFF;}
	.st92{opacity:0.08;clip-path:url(#SVGID_51_);fill:#FFFFFF;}
	.st93{opacity:0.27;clip-path:url(#SVGID_51_);fill:#FFFFFF;}
	.st94{opacity:0.37;clip-path:url(#SVGID_51_);fill:#FFFFFF;}
	.st95{clip-path:url(#SVGID_51_);fill:none;}
	.st96{fill:url(#SVGID_52_);}
	.st97{opacity:0.62;clip-path:url(#SVGID_54_);fill:#FFFFFF;}
	.st98{clip-path:url(#SVGID_54_);fill:#FFFFFF;}
	.st99{opacity:0.41;clip-path:url(#SVGID_54_);fill:#FFFFFF;}
	.st100{clip-path:url(#SVGID_54_);fill:none;}
	.st101{clip-path:url(#SVGID_56_);}
	.st102{opacity:0.55;fill:url(#SVGID_57_);}
	.st103{fill:url(#SVGID_58_);}
	.st104{fill:url(#SVGID_59_);}
	.st105{opacity:0.28;}
	.st106{opacity:0.56;clip-path:url(#SVGID_61_);fill:#FFFFFF;}
	.st107{opacity:0.43;clip-path:url(#SVGID_63_);fill:#FFFFFF;}
	.st108{clip-path:url(#SVGID_63_);fill:none;stroke:#FFFFFF;stroke-miterlimit:10;}
	.st109{opacity:0.76;clip-path:url(#SVGID_63_);fill:#FFFFFF;}
	.st110{clip-path:url(#SVGID_63_);fill:#FFFFFF;}
	.st111{opacity:0.08;clip-path:url(#SVGID_63_);fill:#FFFFFF;}
	.st112{opacity:0.27;clip-path:url(#SVGID_63_);fill:#FFFFFF;}
	.st113{opacity:0.37;clip-path:url(#SVGID_63_);fill:#FFFFFF;}
	.st114{clip-path:url(#SVGID_63_);fill:none;}
	.st115{clip-path:url(#SVGID_65_);fill:none;}
	.st116{opacity:0.46;}
	.st117{opacity:0.86;fill:#FFFFFF;}
	.st118{opacity:0.4;}
	.st119{opacity:0.73;fill:#FFFFFF;}
	.st120{opacity:0.54;clip-path:url(#SVGID_67_);fill:#FFFFFF;}
	.st121{fill:#F79291;}
	.st122{opacity:0.75;fill:#FFFFFF;}
	.st123{fill:#FFC28E;}
	.st124{clip-path:url(#SVGID_69_);fill:#FFE0C3;}
	.st125{clip-path:url(#SVGID_69_);fill:#FF9F36;}
	.st126{clip-path:url(#SVGID_69_);fill:#FFF3E2;}
	.st127{clip-path:url(#SVGID_71_);fill:#FAC1E3;}
	.st128{opacity:0.8;clip-path:url(#SVGID_71_);fill:#EF8FC7;}
	.st129{clip-path:url(#SVGID_71_);fill:#EF8FC7;}
	.st130{opacity:0.79;clip-path:url(#SVGID_71_);fill:#FAC1E3;}
	.st131{fill:#FFFDEC;}
	.st132{fill:#78CB99;}
	.st133{fill:#B2E1C4;}
	.st134{fill:#D8EFE2;}
	.st135{opacity:0.44;fill:#FFFFFF;}
	.st136{clip-path:url(#SVGID_73_);fill:#FFF7C8;}
	.st137{opacity:0.86;fill:#FFD0D7;}
	.st138{opacity:0.62;clip-path:url(#SVGID_75_);fill:#FFFFFF;}
	.st139{opacity:0.75;clip-path:url(#SVGID_75_);fill:#FFFFFF;}
	.st140{opacity:0.41;clip-path:url(#SVGID_75_);fill:#FFFFFF;}
	.st141{clip-path:url(#SVGID_75_);fill:none;}
	.st142{clip-path:url(#SVGID_77_);}
	.st143{opacity:0.44;clip-path:url(#SVGID_79_);fill:#FFFFFF;}
	.st144{opacity:0.43;clip-path:url(#SVGID_81_);fill:#FFFFFF;}
	.st145{clip-path:url(#SVGID_81_);fill:none;stroke:#FFFFFF;stroke-miterlimit:10;}
	.st146{opacity:0.76;clip-path:url(#SVGID_81_);fill:#FFFFFF;}
	.st147{clip-path:url(#SVGID_81_);fill:#FFFFFF;}
	.st148{opacity:0.08;clip-path:url(#SVGID_81_);fill:#FFFFFF;}
	.st149{opacity:0.27;clip-path:url(#SVGID_81_);fill:#FFFFFF;}
	.st150{opacity:0.37;clip-path:url(#SVGID_81_);fill:#FFFFFF;}
	.st151{clip-path:url(#SVGID_81_);fill:none;}
	.st152{opacity:0.54;clip-path:url(#SVGID_83_);fill:#FFFFFF;}
	.st153{opacity:0.62;fill:#FFFFFF;}
	.st154{opacity:0.41;fill:#FFFFFF;}
	.st155{opacity:0.43;fill:#FFFFFF;}
	.st156{opacity:0.76;fill:#FFFFFF;}
	.st157{opacity:0.08;fill:#FFFFFF;}
	.st158{opacity:0.27;fill:#FFFFFF;}
	.st159{opacity:0.54;fill:#FFFFFF;}
	.st160{clip-path:url(#SVGID_85_);fill:#F17171;}
	.st161{clip-path:url(#SVGID_85_);fill:#F79291;}
	.st162{clip-path:url(#SVGID_85_);fill:#FFC5C4;}
	.st163{clip-path:url(#SVGID_85_);fill:#FFFFFF;}
	.st164{clip-path:url(#SVGID_87_);fill:#E2EAFD;}
	.st165{clip-path:url(#SVGID_87_);fill:#EEF3FE;}
	.st166{opacity:0.54;clip-path:url(#SVGID_87_);fill:#EEF3FE;}
	.st167{opacity:0.54;clip-path:url(#SVGID_87_);fill:#91AEEB;}
	.st168{clip-path:url(#SVGID_89_);}
	.st169{fill:#FF7B89;}
	.st170{clip-path:url(#SVGID_89_);fill:none;}
	.st171{fill:#F64776;}
	.st172{clip-path:url(#SVGID_91_);fill:#FFE0C3;}
	.st173{clip-path:url(#SVGID_91_);fill:#FF9F36;}
	.st174{clip-path:url(#SVGID_91_);fill:#FFF3E2;}
	.st175{clip-path:url(#SVGID_93_);fill:#E9CBF2;}
	.st176{opacity:0.8;clip-path:url(#SVGID_93_);fill:#F5E5F7;}
	.st177{clip-path:url(#SVGID_93_);fill:#F5E5F7;}
	.st178{opacity:0.79;clip-path:url(#SVGID_93_);fill:#E9CBF2;}
	.st179{clip-path:url(#SVGID_95_);fill:#FFF7C8;}
	.st180{clip-path:url(#SVGID_97_);fill:#FFC9D7;}
	.st181{clip-path:url(#SVGID_97_);fill:#FF9DB5;}
	.st182{clip-path:url(#SVGID_97_);fill:#FC7798;}
	.st183{clip-path:url(#SVGID_97_);fill:#FFFFFF;}
	.st184{clip-path:url(#SVGID_99_);fill:#6D93E0;}
	.st185{clip-path:url(#SVGID_99_);fill:#91AEEB;}
	.st186{opacity:0.54;clip-path:url(#SVGID_99_);fill:#91AEEB;}
	.st187{clip-path:url(#SVGID_101_);}
	.st188{clip-path:url(#SVGID_101_);fill:none;}
	.st189{opacity:0.46;clip-path:url(#SVGID_103_);}
	.st190{clip-path:url(#SVGID_103_);fill:none;}
	.st191{clip-path:url(#SVGID_105_);}
	.st192{fill:#E4A280;}
	.st193{fill:#FFFFFF;stroke:#FFFFFF;stroke-width:0.25;stroke-miterlimit:10;}
	.st194{fill:none;stroke:#FFFFFF;stroke-width:2;stroke-miterlimit:10;}
	.st195{opacity:0.45;fill:#FFFFFF;}
	.st196{opacity:0.8;fill:#FFFFFF;}
	.st197{opacity:0.79;fill:#FFFFFF;}
	.st198{fill:#F3C6AB;}
	.st199{fill:none;stroke:#FFFFFF;stroke-width:0.75;stroke-miterlimit:10;}
	.st200{fill:#D4C2B3;}
	.st201{fill:#93693D;}
	.st202{fill:#F2BECD;}
	.st203{fill:#D87290;}
	.st204{fill:#574435;}
	.st205{fill:#CAA57C;}
	.st206{fill:#641F1E;}
	.st207{fill:#E16C8D;}
	.st208{fill:#D63665;}
	.st209{fill:#DFB88B;}
	.st210{fill:#E0B88B;}
	.st211{fill:#7E7E7E;}
	.st212{fill:#FFE4EB;}
	.st213{fill:#C73F69;}
	.st214{fill:#F7F7F7;}
	.st215{fill:#F2F2F2;}
	.st216{fill:#FFFBF1;}
	.st217{fill:#F8C3D1;}
	.st218{fill:#FFD0D7;}
	.st219{fill:#FFBEC5;}
	.st220{fill:#FE6D7B;}
	.st221{fill:#B59F90;}
	.st222{fill:#FDFDFC;}
	.st223{fill:#F3F3F3;}
	.st224{fill:#A4C6DD;}
	.st225{fill:#DB966B;}
	.st226{fill:#BEA696;}
	.st227{fill:#583B34;}
	.st228{fill:#63443C;}
	.st229{fill:#E2D1C9;}
	.st230{fill:#B3D1E6;}
	.st231{fill:#D1ADA2;}
	.st232{fill:#A3C5DC;}
	.st233{fill:#9D7972;}
	.st234{fill:#77573F;}
	.st235{fill:#FFA5B2;}
	.st236{fill:#F4769D;}
	.st237{fill:#FCFCFA;}
	.st238{fill:#F9C5DD;}
	.st239{fill:#E5BBB6;}
	.st240{clip-path:url(#SVGID_113_);fill:#EA90A7;}
	.st241{clip-path:url(#SVGID_113_);fill:#FFEBF2;}
	.st242{clip-path:url(#SVGID_113_);fill:#D3CFB3;}
	.st243{clip-path:url(#SVGID_113_);fill:#FCDDE6;}
	.st244{clip-path:url(#SVGID_113_);}
	.st245{clip-path:url(#SVGID_113_);fill:#FFC9D7;}
</style>
<path class="st7" d="M585,152c-88.1-0.22-150.29-19.59-191.07-37.49c-29.98-13.16-58.64-23.16-117.77-53.42
	c-19.58-10.02-63.28-25.04-109.27-30.05c-64.32-7-85.52,1.6-93.09,12.69C22.13,45.94,3.66,67.57,3.66,240.35
	c0,160.43-31.97,196.66,108.84,196.66c61.49,0,88.65-0.68,100.36-49.06c2.87-0.46,5.75-0.94,8.67-1.48
	c35.91-6.67,75.47-27.14,97.13-26.71c60.71,1.21,104.42-12.24,149.33-15.78c30.39-2.4,45.24-3.35,62.76-5.02
	c4.82-0.46,16.38-4.2,31.94-3.48c9.52,0.44,17.25,2.15,22.31,3.52C585,276.67,585,214.33,585,152z"/>
<path class="st6" d="M249.38,212.31c0-162.16,7.61-196.66-108.84-196.66C59.1,15.65,31.7,1.85,31.7,212.31
	c0,160.43-31.97,196.66,108.84,196.66C238.72,408.97,249.38,407.25,249.38,212.31z"/>
<path class="st11" d="M585,120c-73.91-2.67-127.71-19.12-163.03-33.53C384.24,71.08,366.06,64.7,304.2,33.05
	C284.62,23.03,240.92,8.01,194.93,3C101.17-7.21,99.02,15.75,97.2,31.23c-1.82,15.48,12.75,99.55,12.75,99.55l68.59,4.25
	c1.82-78.31-10.32-88.02-10.32-88.02l23.07,11.53c31.87,9.1,89.54,36.73,95.91,55.85c6.37,19.12,3.34,65.26,3.34,65.26l-15.22,59.91
	c8.45,21.67-6.93,25.98-15.43,34.48c-28.92,28.92-122.02,33.39-122.02,33.39c18.21-15.48,26.1-61.31,26.1-61.31l-61-36.42
	c0,0-16.39,54.63-20.03,98.34c-3.64,43.71,16.04,43.4,29.44,46.75c35.92,8.95,82.22,13.85,137.19,3.64
	c35.91-6.67,75.47-27.14,97.13-26.71c60.71,1.21,104.42-12.24,149.33-15.78c7.29-0.58,30.97-1.78,62.77-5.02
	c11.1-1.13,20.2-2.19,26.21-2.91C585,245.33,585,182.67,585,120z"/>
<g>
	<g>
		<path class="st6" d="M165.23,113.76c-3.71,0.6-7.07-1.1-7.51-3.79c-0.2-1.22,0.16-8.54-0.36-17.05
			c-0.47-7.64-1.26-16.07,0.25-20.36c0.51-1.48,0.95-1.79,2.12-2.08c0.59-0.16,1.62,0.01,2.35,1.53c3.74,7.79,8.71,33.52,9.08,35.78
			C171.59,110.48,168.94,113.15,165.23,113.76z"/>
		<path class="st6" d="M153.38,119.55c-3.71,0.6-7.07-1.1-7.51-3.8c-0.31-1.91-2.34-21.13-1.12-32.28c0.5-4.57,1.63-6.09,3.56-6.2
			c0.93-0.05,1.96,0.4,3.13,3.68c3.55,9.98,7.53,30.59,7.86,32.62C159.74,116.27,157.09,118.95,153.38,119.55z"/>
		<path class="st6" d="M135.88,122.54c-3.35-0.24-5.93-2.41-5.76-4.85c0.13-1.79,4.12-19.95,7.14-29.25
			c0.99-3.07,2.29-3.96,3.16-3.74c1.54,0.4,2.39,1.62,2.79,5.44c1.04,9.82-0.81,26.66-0.94,28.41
			C142.1,120.99,139.24,122.78,135.88,122.54z"/>
		<path class="st6" d="M121.49,122.09c-2.75-0.69-4.57-2.87-4.07-4.87c0.39-1.54,4.28-17.24,9.09-24.03
			c1.45-2.05,2.75-2.58,4.13-1.85c0.85,0.45,1.57,1.7,1.33,3.89c-0.86,8-4.23,23.02-4.6,24.5
			C126.87,121.72,124.23,122.78,121.49,122.09z"/>
	</g>
	<path class="st7" d="M125.82,96.69c0,0,1.88,0.11,5.1,1.27c0,0,0.23-1.5,0.3-3.11c0.07-1.61-0.27-2.2-0.88-2.63
		c-0.53-0.37-1.67-0.09-2.79,1.36C126.92,94.41,126.49,95.46,125.82,96.69z"/>
	<path class="st7" d="M137.51,91.49c0,0,1.84-0.38,5.25-0.11c0,0-0.17-1.5-0.53-3.08c-0.36-1.57-0.84-2.05-1.55-2.3
		c-0.61-0.22-1.63,0.35-2.33,2.04C137.96,89.01,137.82,90.14,137.51,91.49z"/>
	<path class="st7" d="M145.99,84.19c0,0,1.79-0.59,5.21-0.7c0,0-0.34-1.47-0.87-2.99c-0.53-1.52-1.06-1.94-1.8-2.12
		c-0.63-0.15-1.58,0.53-2.08,2.29C146.16,81.67,146.16,82.81,145.99,84.19z"/>
	<path class="st7" d="M158.8,77.24c0,0,0.8-0.83,4.23-0.95c0,0-0.34-1.48-0.87-3c-0.52-1.53-1.06-1.94-1.79-2.12
		c-0.63-0.15-2.17,0.3-2.24,2.13C158.09,74.42,158.34,75.33,158.8,77.24z"/>
</g>
<g>
	<g>
		<path class="st8" d="M149.88,315.85c-3.76,0.05-6.77,2.32-6.73,5.05c0.02,1.23,1.66,8.38,2.64,16.84c0.87,7.6,1.58,16.04,3.81,20
			c0.77,1.36,1.26,1.59,2.45,1.68c0.61,0.05,1.6-0.3,2.05-1.92c2.32-8.32,2.69-34.53,2.66-36.82
			C156.72,317.96,153.64,315.8,149.88,315.85z"/>
		<path class="st8" d="M136.44,315.01c-3.76,0.06-6.77,2.32-6.72,5.06c0.03,1.94,1.4,21.21,4.56,31.97
			c1.29,4.41,2.67,5.71,4.59,5.48c0.92-0.11,1.86-0.74,2.43-4.17c1.74-10.45,2.05-31.43,2.02-33.49
			C143.28,317.12,140.2,314.96,136.44,315.01z"/>
		<path class="st8" d="M118.69,315.14c-3.25,0.82-5.41,3.41-4.82,5.79c0.44,1.74,7.55,18.91,12.16,27.55
			c1.52,2.85,2.96,3.5,3.77,3.13c1.45-0.66,2.06-2.02,1.79-5.84c-0.71-9.85-5.48-26.1-5.91-27.81
			C125.09,315.58,121.96,314.32,118.69,315.14z"/>
		<path class="st8" d="M109.18,316.06c-2.77,0.6-4.66,2.72-4.23,4.73c0.34,1.55,3.71,17.37,8.3,24.32c1.38,2.1,2.66,2.66,4.07,1.98
			c0.86-0.42,1.61-1.65,1.46-3.84c-0.59-8.03-3.47-23.15-3.79-24.64C114.55,316.6,111.95,315.46,109.18,316.06z"/>
	</g>
	<path class="st9" d="M112.68,341.59c0,0,1.87-0.05,5.14-1.11c0,0,0.17,1.51,0.19,3.12c0.02,1.61-0.34,2.19-0.97,2.6
		c-0.54,0.35-1.67,0.03-2.74-1.45C113.69,343.9,113.3,342.83,112.68,341.59z"/>
	<path class="st9" d="M125.74,345.43c0,0,1.88,0.06,5.19-0.81c0,0,0.1,1.51,0.02,3.12c-0.07,1.61-0.47,2.17-1.12,2.54
		c-0.57,0.32-1.67-0.06-2.65-1.61C126.62,347.79,126.29,346.71,125.74,345.43z"/>
	<path class="st9" d="M135.37,351.13c0,0,1.87,0.27,5.26-0.23c0,0-0.08,1.51-0.33,3.11c-0.25,1.59-0.7,2.1-1.4,2.4
		c-0.59,0.26-1.65-0.25-2.46-1.89C135.99,353.57,135.78,352.46,135.37,351.13z"/>
	<path class="st9" d="M149.96,352.93c0,0,0.94,0.68,4.33,0.19c0,0-0.07,1.51-0.33,3.11c-0.25,1.59-0.7,2.1-1.4,2.4
		c-0.6,0.26-2.19,0.08-2.57-1.7C149.76,355.83,149.84,354.89,149.96,352.93z"/>
</g>
<path class="st0" d="M200.57,206.12c0,0,55.49,24.55,75.04,39.12c0,0,8.83-1.86,15.41-5.22c14.09-7.2,38.58-29.46,3.32-58.62
	c0,0-19.01,1.74-43.59-23.7L200.57,206.12z"/>
<path class="st7" d="M225.76,213.12c0,0,34.06,3.07,52.04-35.59c0,0-4.38-2.1-6.83-3.57c-3.45-2.06-5.58-3.56-5.58-3.56l-23.41,4.69
	l-16.39,36.73L225.76,213.12z"/>
<path class="st7" d="M92.89,134.35c0,0,15.06-30.71,46.61-20.67l-33.32,26.86L92.89,134.35z"/>
<path class="st7" d="M85.55,197.29c0,0-57.73,40.86,8.63,98.24c0,0,2.64,60.07,98.9,40.54c96.26-19.52,128.13-105.03,50.64-120.05
	c-4.46-0.87-17.96-2.9-17.96-2.9L85.55,197.29z"/>
<path class="st7" d="M165.22,98.76c0.71,0.28,1.3,0.67,1.89,1.1c0.56,0.47,1.11,0.93,1.57,1.5l0.72,0.8l0.62,0.89
	c0.43,0.58,0.83,1.17,1.15,1.83c0.34,0.64,0.71,1.26,1.02,1.92l0.83,2.03l0.84,2.08l0.83,2.11c1.11,2.81,2.27,5.61,3.49,8.38
	c0.61,1.38,1.18,2.78,1.83,4.15c0.65,1.37,1.26,2.75,1.95,4.1l0.75,1.47l0.14-1.56l0,0c0.93-4.2,1.72-8.42,2.5-12.65
	c0.41-2.11,0.74-4.23,1.11-6.35l1.08-6.35l0.02-0.09l-0.01-0.09c-0.01-0.16-0.01-0.41,0.01-0.63c0.01-0.23,0.05-0.46,0.08-0.68
	c0.06-0.46,0.16-0.92,0.29-1.37c0.11-0.47,0.29-0.91,0.46-1.37c0.15-0.48,0.42-0.89,0.6-1.39l0-0.02c0.02-0.06-0.01-0.13-0.07-0.15
	c-0.04-0.01-0.09-0.01-0.12,0.02c-0.2,0.16-0.4,0.34-0.58,0.53c-0.19,0.19-0.4,0.36-0.55,0.58l-0.48,0.65
	c-0.17,0.22-0.26,0.47-0.4,0.71c-0.13,0.24-0.25,0.49-0.33,0.75c-0.09,0.26-0.19,0.51-0.25,0.78c-0.06,0.27-0.12,0.54-0.15,0.82
	c-0.04,0.29-0.06,0.54-0.05,0.89l0.01-0.19l-1.11,6.35c-0.36,2.12-0.76,4.23-1.08,6.36c-0.68,4.24-1.34,8.49-1.88,12.75l0,0
	l0.89-0.09c-0.43-1.45-0.93-2.89-1.39-4.33c-0.47-1.44-1.01-2.85-1.52-4.28c-1.01-2.85-2.08-5.68-3.2-8.49l-0.84-2.11
	c-0.14-0.34-0.28-0.73-0.42-1.03l-0.49-1.07l-0.98-2.13c-0.39-0.68-0.84-1.33-1.27-2c-0.39-0.68-0.93-1.27-1.46-1.86l-0.8-0.87
	l-0.93-0.75c-0.58-0.54-1.31-0.9-2-1.28c-0.71-0.33-1.49-0.61-2.26-0.67c-0.09-0.01-0.16,0.06-0.17,0.14
	C165.11,98.67,165.16,98.74,165.22,98.76z"/>
<path class="st6" d="M109.06,126.79c0,0,14.23-13.68,28.38-14.18c7.72-0.27,21.34,2.4,30.81-2.2c9.47-4.6,22.73-22.74,25.65-26
	c3.29-3.69,7.57-1.62,11.56,1.97c5.61,5.04,5.22,9.17,5.22,9.17s6.73-2.7,8.05-6.19c0,0,4.32-3.58,10.24,8.02
	c0,0,3.78-5.63,8.31-2.55c0,0-0.21,6.16,8.06,4.92c8.27-1.25,18.21-2.65,22.27,3.4c11.88,17.72,3.52,101.95-41.85,109.99
	c0,0,12.45,19.24-33.98,27.34c-32.18,5.61-23.62-29.28-15.08-33.28c0,0-48.98,10.78-70.12-10.84
	C85.43,174.72,96.66,134.33,109.06,126.79z"/>
<path class="st7" d="M237.28,94.82c0,0,1.04,9.02-6.12,17.29l-0.65-0.93l-1.54-13.81C228.97,97.37,233.02,91.4,237.28,94.82z"/>
<path class="st7" d="M218.73,89.35c0,0-0.46,3.17,0.03,4.05c2.76,4.99,10.68,6.81,11.22,19.84c0,0-0.1,1.15,0.15,1.43
	c0.19,0.21,0.9-0.98,1.11-2.4c0.28-1.92-0.17-11.25-2.26-14.89C228.97,97.37,223.59,86,218.73,89.35z"/>
<path class="st7" d="M205.64,92.82c0.57-0.24,1.59,0.92,2.28,2.59c0.7,1.67,1.47,3.89,0.9,4.13c-0.57,0.24-2.25-1.6-2.95-3.27
	C205.18,94.59,205.08,93.05,205.64,92.82z"/>
<g>
	<path class="st7" d="M204.15,231.11c-7.36,3.08-19.55-1.29-20.84-4.63c-1.1-2.86,4.51-8.89,10.79-12.4
		c1.09-0.61,4.42,0.45,5.52,0.02c2.05-0.79,1.86-2.93,3.73-3.23c4.96-0.8,4.73,0.77,5.67,3.2
		C210.33,217.43,222.5,223.44,204.15,231.11z"/>
	<path class="st11" d="M188.66,217.87c1.63-1.39,3.5-2.71,5.44-3.78c1.09-0.61,4.42,0.45,5.52,0.02c2.05-0.79,1.86-2.93,3.73-3.23
		c4.96-0.8,4.73,0.77,5.67,3.2c0.32,0.84-1.87,5.19-8.05,5.74C194.34,220.41,190.9,219.96,188.66,217.87z"/>
</g>
<g>
	<path class="st11" d="M199.96,163.14c-4.22,0.45-7.47-7.22-8.39-15.94c-0.92-8.72,5.46-18.72,9.67-19.17
		c4.22-0.45,5.48,8.48,6.39,17.2C208.56,153.95,204.18,162.69,199.96,163.14z"/>
</g>
<path class="st7" d="M144.44,151.32c-2.1-1.96-3.25-18.73-3.88-21.2c-0.36-1.45-0.12-2.97,1.36-3.34c1.48-0.37,4.1,0.87,4.37,1.97
	c0.17,0.66,0.49,13.5,0.86,18.7c0.23,3.26,8.63,13.75,8.4,14.73C155.15,163.97,144.73,151.59,144.44,151.32z"/>
<path class="st11" d="M177.87,149.89l-0.3,5.64c0,0-12.78-11.36-13.74-27.46c0,0,4.57-2.54,10.28-3.03c0.82-0.07,1.55-0.11,2.2-0.13
	C176.31,124.92,179.1,134.62,177.87,149.89z"/>
<path class="st7" d="M170.69,119.03c-0.05,0.05-0.01,0.13,0.06,0.18c0.85,0.61,1.48,1.26,2.09,1.94c0.53,0.69,1.05,1.37,1.4,2.09
	l0.59,1.05l0.39,1.08c0.28,0.71,0.53,1.41,0.61,2.13c0.12,0.71,0.3,1.42,0.38,2.13l0.05,2.12l0.04,2.17v2.18
	c0.01,2.91,0.09,5.83,0.28,8.76c0.1,1.46,0.13,2.92,0.29,4.4c0.15,1.47,0.25,2.94,0.48,4.43l0.24,1.61l1.18-1.42
	c0.21-1.43,0.3-2.87,0.44-4.3c0.14-1.43,0.16-2.89,0.24-4.33c0.16-2.89,0.21-5.78,0.19-8.7l-0.02-2.18
	c-0.01-0.36,0.01-0.74-0.02-1.07l-0.09-1.14l-0.2-2.28c-0.18-0.77-0.46-1.55-0.68-2.33c-0.17-0.77-0.62-1.55-1.06-2.32l-0.64-1.15
	l-0.91-1.13c-0.53-0.76-1.37-1.45-2.14-2.14c-0.83-0.66-1.78-1.32-2.86-1.79C170.88,118.95,170.74,118.96,170.69,119.03z"/>
<path class="st7" d="M84.66,131.73c0,0,63.61-9.98,97.21,49.67c0,0,9.12,9.4-5.17,25.78l-54.01,42.42
	C122.69,249.6,42,208.81,84.66,131.73z"/>
</svg>
