<svg version="1.1" id="Слой_1" xmlns="http://www.w3.org/2000/svg" x="0" y="0" viewBox="0 0 585 237" xml:space="preserve"><style>.st6{fill:#ffcb33}.st343{fill:#f7c800}.st344{fill:#ffeb97}</style><path class="st6" d="M12.17 137.78H7.7c-3.99 0-7.23-3.24-7.23-7.23v-17.1c0-3.99 3.24-7.23 7.23-7.23h4.47c3.99 0 7.23 3.24 7.23 7.23v17.1c.01 3.99-3.23 7.23-7.23 7.23zm32.78 9.6h-4.47c-3.99 0-7.23-3.24-7.23-7.23v-35.82c0-3.99 3.24-7.23 7.23-7.23h4.47c3.99 0 7.23 3.24 7.23 7.23v35.82c0 4-3.23 7.23-7.23 7.23zm31.56-20.12h-4.47c-3.99 0-7.23-3.24-7.23-7.23v-8.19c0-3.99 3.24-7.23 7.23-7.23h4.47c3.99 0 7.23 3.24 7.23 7.23v8.19c.01 3.99-3.23 7.23-7.23 7.23zm29.65 17.29h-4.47c-3.99 0-7.23-3.24-7.23-7.23V98.5c0-3.99 3.24-7.23 7.23-7.23h4.47c3.99 0 7.23 3.24 7.23 7.23v38.81c0 4-3.24 7.24-7.23 7.24zm31.56 21.29h-4.47c-3.99 0-7.23-3.24-7.23-7.23V73.26c0-3.99 3.24-7.23 7.23-7.23h4.47c3.99 0 7.23 3.24 7.23 7.23v85.34c0 4-3.24 7.24-7.23 7.24zm31.37-9.82h-4.47c-3.99 0-7.23-3.24-7.23-7.23V86.83c0-3.99 3.24-7.23 7.23-7.23h4.47c3.99 0 7.23 3.24 7.23 7.23v61.95c0 4-3.23 7.24-7.23 7.24z"/><path class="st343" d="M200.84 190.38h-4.47c-3.99 0-7.23-3.24-7.23-7.23V50.32c0-3.99 3.24-7.23 7.23-7.23h4.47c3.99 0 7.23 3.24 7.23 7.23v132.83c0 3.99-3.23 7.23-7.23 7.23zm29.46 11.22h-4.47c-3.99 0-7.23-3.24-7.23-7.23V27.57c0-3.99 3.24-7.23 7.23-7.23h4.47c3.99 0 7.23 3.24 7.23 7.23v166.81c0 3.99-3.24 7.22-7.23 7.22z"/><path class="st344" d="M261.67 217.74h-4.47c-3.99 0-7.23-3.24-7.23-7.23V32.07c0-3.99 3.24-7.23 7.23-7.23h4.47c3.99 0 7.23 3.24 7.23 7.23V210.5c0 4-3.23 7.24-7.23 7.24z"/><path class="st6" d="M573.3 136.62h4.47c3.99 0 7.23-3.24 7.23-7.23v-17.1c0-3.99-3.24-7.23-7.23-7.23h-4.47c-3.99 0-7.23 3.24-7.23 7.23v17.1c-.01 3.99 3.23 7.23 7.23 7.23zm-32.78 9.6h4.47c3.99 0 7.23-3.24 7.23-7.23v-35.82c0-3.99-3.24-7.23-7.23-7.23h-4.47c-3.99 0-7.23 3.24-7.23 7.23v35.82c0 3.99 3.23 7.23 7.23 7.23zm-31.56-20.12h4.47c3.99 0 7.23-3.24 7.23-7.23v-8.19c0-3.99-3.24-7.23-7.23-7.23h-4.47c-3.99 0-7.23 3.24-7.23 7.23v8.19c-.01 3.99 3.23 7.23 7.23 7.23zm-29.65 17.29h4.47c3.99 0 7.23-3.24 7.23-7.23V97.34c0-3.99-3.24-7.23-7.23-7.23h-4.47c-3.99 0-7.23 3.24-7.23 7.23v38.81c0 4 3.24 7.24 7.23 7.24zm-31.56 21.29h4.47c3.99 0 7.23-3.24 7.23-7.23V72.1c0-3.99-3.24-7.23-7.23-7.23h-4.47c-3.99 0-7.23 3.24-7.23 7.23v85.34c0 4 3.24 7.24 7.23 7.24zm-31.37-9.82h4.47c3.99 0 7.23-3.24 7.23-7.23V85.68c0-3.99-3.24-7.23-7.23-7.23h-4.47c-3.99 0-7.23 3.24-7.23 7.23v61.95c-.01 3.99 3.23 7.23 7.23 7.23z"/><path class="st343" d="M384.63 189.22h4.47c3.99 0 7.23-3.24 7.23-7.23V49.16c0-3.99-3.24-7.23-7.23-7.23h-4.47c-3.99 0-7.23 3.24-7.23 7.23v132.83c0 3.99 3.23 7.23 7.23 7.23zm-29.46 11.22h4.47c3.99 0 7.23-3.24 7.23-7.23V26.41c0-3.99-3.24-7.23-7.23-7.23h-4.47c-3.99 0-7.23 3.24-7.23 7.23v166.81c0 3.99 3.24 7.22 7.23 7.22z"/><path class="st344" d="M323.8 216.58h4.47c3.99 0 7.23-3.24 7.23-7.23V30.91c0-3.99-3.24-7.23-7.23-7.23h-4.47c-3.99 0-7.23 3.24-7.23 7.23v178.43c-.01 4 3.23 7.24 7.23 7.24zm-28.98 19.39h-4.47c-3.99 0-7.23-3.24-7.23-7.23V7.75c0-3.99 3.24-7.23 7.23-7.23h4.47c3.99 0 7.23 3.24 7.23 7.23v220.99c.01 3.99-3.23 7.23-7.23 7.23z"/></svg>