<svg version="1.1" id="Слой_1" xmlns="http://www.w3.org/2000/svg" x="0" y="0" viewBox="0 0 585 1017" xml:space="preserve"><style>.st341{fill:#ffe473}</style><path class="st341" d="M565.52 1016c.47-128.46.52-232.53.47-306.01-.06-80.16-.27-135.25-.16-251.85.04-45.43.15-90.86.12-136.3-.06-70.21-.21-140.42-.32-210.64-3.4-44.63-29.69-82.76-77.36-90.13-3.06-.47-6.19-.78-9.29-.78-32.26-.03-64.53-.53-96.77.21-25.74.6-50.68 6.05-69.83 24.52C292.14 64.55 283.39 88.5 288.8 117c1.19 6.26 4.92 6.56 9.02 7.72 27.13 7.65 47.63 23.11 59.3 49.13 3.55 7.91 5.92 16.13 6.86 24.73.34 3.08.17 6.09 3.22 8.23 2.89 2.02 3.51 5.15 2.14 8.3-1.48 3.4-4.75 3.56-7.97 3.55-12.49-.04-24.97-.09-37.46-.09-42.31-.01-84.63.03-126.95-.03-4.01 0-8.81 1.21-11.08-3.54-2-4.19 1.78-6.53 3.53-9.77 2.34-4.33 2.53-9.8 3.67-14.77 7.52-32.65 27.87-54.04 59.62-63.95 11.51-3.59 15.46-11.01 15.38-20.79-.46-55.43 38.23-92.32 91.33-99.99 46.79-6.76 93.78-6.41 140.66.01 10.78 1.48 20.07 7.37 30.29 10.53 6.21 4.08 12.41 8.15 18.62 12.22 15.08 15.37 27.75 32.13 32.4 53.74 3.85 17.91 3.47 31.98 3.21 35.8-2.53 37.17-1.84 390.31.42 897.94-6.5.03-12.99.03-19.49.03z"/><path d="M.16 818.75c2.01-25.69 17.23-41.17 39.43-51.47 5.59-2.59 10.54-6.28 13.06-14.28-12.4 3.9-23.24.74-34.17-.22-7.79-.68-15.96-1.65-18.05-10.91-2-8.85 3.3-15.68 9.71-20.44 10.63-7.89 23.31-5.62 35.19-3.87 5.5.81 5.56 7.29 6.05 12.11.39 3.82.08 8.09 5 9.1 5.7 1.17 5.6-4.4 7.02-7.29 9.78-19.82 18.02-40.39 29.75-59.28 5.44-8.76 12.66-12.89 22.69-13.96 83.37-8.89 166.87-7.3 250.4-3.13 2.74.14 5.49 1.42 8.16 1.24 26.6-1.82 40.89 12.83 50.68 35.6 7.23 16.81 16.76 32.64 25.15 48.96 1.63 3.18 2.91 6.61 7.4 5.7 4.32-.88 5.78-3.88 6.44-8.17 2.23-14.54 2.41-14.32 17.02-14.62 11.73-.24 23.02-.07 30.44 11.31 7.84 12.03 3.74 21.68-10.45 24.05-11.97 2-23.98 3.43-36.84 1.83 1.32 6.54 6.49 8.31 10.85 10.18 28.7 12.36 38.65 35.24 38.73 64.98.07 24.96-1.75 49.8-2.54 74.7-1.92 10.03-4.52 19.99-5.6 30.1-1.56 14.56-14.29 27.58-29.04 28.19-11.03.46-22.06.74-33.09 1.1-29.49-.04-58.98.1-88.47-.15-94.71-.82-189.42-1.78-284.13-2.69-13.84-5.13-28.73-.25-43.04-5.6-10.31-3.86-15.28-6.66-18.25-17.7-2.73-10.16-4.09-20.34-4.15-33.4-1.82 4.39-2.55 6.16-3.28 7.93 1.14-19.53.37-39-1.99-58.4-.01-13.82-.04-27.66-.08-41.5zm446.25-62.16c-4.25-17.64-9.62-31.46-13.98-41.14-5.4-12.01-9.45-18.14-12.98-22.72-2.98-3.86-8.36-10.85-16.23-16.23-12.84-8.78-26.64-9.42-32.46-9.74-144.41-7.97-173.1-6.4-230.48-3.25-8.76.48-25.53 1.39-38.95 12.98-5.96 5.15-9.4 10.81-19.48 32.46-5.22 11.21-11.83 25.89-19.14 43.39 127.9 1.43 255.8 2.84 383.7 4.25zM263 824.14v-.05c-32.91 0-65.82-.11-98.73.06-11.98.06-15.13 5.72-10.34 16.75 2.3 5.3 4.47 10.8 5.6 16.43 4.38 21.74 12.98 42.21 18.81 63.5 1.11 4.05 3.14 7.31 8.58 7.29 48.84-.18 97.69-.12 146.53-.17 5.51 0 8.09-2.32 9.81-8.22 7.49-25.82 15.7-51.44 24.01-77.01 4.26-13.1.91-18.51-12.82-18.55-30.49-.09-60.97-.03-91.45-.03zm158.9 41.54c13.79 1.55 30.31-1.1 46.43-4.84 8.65-2.01 20.35-1.16 23.6-13.49 1.89-7.16 1.82-14.5.44-21.64-1.47-7.64-5.59-10.73-14.5-10.97-23.31-.62-45.64 4.23-67.83 9.85-5.4 1.37-13.11 1.26-16 7.03-3.81 7.6-6.11 16.01-8.49 24.24-1.75 6.05.03 10.1 7.5 9.87 8.62-.25 17.25-.05 28.85-.05zM47.02 807.32c-1.04 0-2.08.01-3.12 0-9.08-.15-18.65-1.4-21.11 11.17-3.63 18.56.05 28.22 14.25 32.66 26.35 8.25 53.85 8.31 81.07 9.33 10.14.38 12.43-3.91 10.08-13.57-1.06-4.36-2.62-8.61-3.53-13-1.63-7.84-5.84-12.4-13.83-14.85-20.86-6.4-42.12-10.12-63.81-11.74zm395.12 99.57c-17.29-.24-34.44.93-51.42 4.31-2 .4-4.63.07-5.34 2.39-2.75 8.99 1.85 16.94 4.35 25.04 1.71 5.53 7.11 5.46 12.17 5.7 17.04.8 33.76-2.29 50.63-3.61 16.21-1.28 25.01-9.22 25.46-25.45.16-5.68-.76-9.78-8.84-8.66-8.85 1.23-18 .28-27.01.28zM95.93 936.22c6.57 0 13.15-.06 19.72.02 4.11.05 7.35-.72 8.87-5.32 2.56-7.74 7.92-14.82 5.6-23.64-.48-1.83-2.7-1.75-4.39-2.1-25.98-5.33-52.49-3.82-78.71-6.08-2.55-.22-5.56-.87-7.37 2.27-5.32 9.25 2.57 28.47 13.15 30.85 14.17 3.17 28.59 4.42 43.13 4zm165.97 2.56v-.25c-18.03 0-36.06-.04-54.08.04-3.09.01-6.36-.03-9.21.95-2.89.99-6.25 3.38-6.07 6.49.27 4.67 4.87 2.84 7.48 2.88 40.87.64 81.74 1.09 122.61 1.47 3.17.03 8.02 1.27 8.31-3.49.21-3.32-3.34-6-6.78-6.95-2.95-.82-6.13-1.06-9.21-1.08-17.69-.11-35.37-.06-53.05-.06z" fill="#ffe888"/><path class="st341" d="M443.56 970.27c11.03-.36 22.07-.64 33.1-1.1 14.75-.62 27.48-13.64 29.04-28.19 1.08-10.12 3.68-20.07 5.6-30.1 2.84 30.08 5.46 60.15-2.08 90-19.6 20.1-42 20.04-60.28-.16-5.74-9.46-2.89-20.42-5.38-30.45zM2.25 918.66c.73-1.77 1.46-3.54 3.28-7.93.06 13.07 1.41 23.24 4.15 33.4 2.97 11.03 7.94 13.84 18.25 17.7 14.31 5.35 29.2.47 43.03 5.61.07 11.33-.14 22.57-8.95 31.35-11.49 12.43-38.63 13.54-51.37-.53-5.92-6.39-8.59-14.06-8.59-22.66 0-18.98.13-37.96.2-56.94zm302.98-415.82c-1.34 10.93-5.12 20.58-14.47 24.44-9.81 4.04-20.94 4.9-30.09-3.51-8.76-8.04-11.05-17.64-7.81-29.12 4.36-15.51 13.43-28.55 21.17-42.3 1.25-2.23 3.12-6.29 5.85-2.41 11.53 16.4 21.88 33.47 25.35 52.9zM56.95 653.22c-18.86-.26-29.93-17.58-23.95-35.62 4.81-14.5 15.29-25.76 20.76-39.8 1.63-4.18 5.53-4.34 7.9-.25 8.3 14.3 18.35 27.94 20.94 44.78 2.83 18.3-8.19 31.13-25.65 30.89zm223.24-266.68c-15.45-.23-27.27-14.27-24.11-29.66 3.32-16.16 12.6-29.7 20.98-43.55 2.21-3.66 4.74-3.75 7.15-.15 9.08 13.55 17.96 27.31 20.98 43.64 2.99 16.23-8.94 29.96-25 29.72zm79.91 216.4c-16.96-.13-28.74-14.31-24.87-30.62 3.39-14.3 10.58-27.07 17.84-39.68 3.95-6.87 7.95-7.42 12.53.34 7.22 12.24 14.39 24.33 17.76 38.38 3.63 15.2-8.26 31.69-23.26 31.58zm-171.27-15.69c-.54-15.36 7.89-26.11 13.93-37.51 9.44-17.82 10.17-17.71 20.53-.38 6.15 10.27 12.16 20.76 13.91 32.97 2.21 15.33-7.55 28.38-21.86 29.15-16.59.9-26.67-8.81-26.51-24.23zm-87.08-108.84c1.15 11.41-5.25 18.6-13.94 23.71-6.93 4.08-21.96 1.26-27.18-4.88-6.65-7.82-10.56-15.85-6.23-27.38 4.91-13.07 11.51-25.02 18.14-37.1 2.11-3.84 5.64-6.83 8.63-1.99 9.19 14.84 20.04 29.12 20.58 47.64zm362.24-104.87c-.29 12.75-4.34 21.23-14.92 25.76-10.45 4.48-20.15 2.38-27.76-5.22-7.31-7.3-8.91-16.43-5.12-26.77 4.65-12.7 10.74-24.52 17.98-35.86 3.65-5.72 5.97-6.38 10.09.04 8.77 13.69 17.7 27.15 19.73 42.05zM420.07 515.6c1.15-10.34 6.27-21.6 12.79-32.25 12.79-20.9 13.15-21 24.95 1.19 4.98 9.36 9.62 18.98 10.89 29.95 1.69 14.62-8.27 27.04-23.48 28.13-13.15.94-25.02-10.72-25.15-27.02zm-73.01-88.76c-.01-12.3 6.14-22.4 12.15-32.36 10.46-17.31 11.15-17.46 21.74-.38 6.25 10.08 12.34 20.63 12.18 33.3-.19 14.85-9.43 24.18-23.84 23.84-13.73-.32-22.32-9.76-22.23-24.4zm150 207.93c-.38 10.67-4.99 17.46-13.44 21.64-8.98 4.45-17.5 3.27-25.16-2.98-6.98-5.7-9.59-13.21-7.73-22.08 3.18-15.12 11.28-28.08 18.47-41.42 2.22-4.11 6.04-4.04 8.24-.32 8.63 14.5 17.59 28.93 19.62 45.16zM172.22 421.6c.78-11.89 10.51-25.54 19.05-39.66 2.21-3.66 4.61-3.28 7.06.3 8.67 12.67 16.34 25.89 19.33 41.1 2.91 14.82-7.04 26.97-21.95 27.83-13.92.81-23.73-9.22-23.49-29.57zm60.5-142.26c-.28 9.53-3.82 16.61-13.17 20.33-9.17 3.65-17.36 1.81-23.81-4.82-6.07-6.23-7.79-13.9-4.53-22.84 4.15-11.38 10.56-21.54 15.8-32.32 1.38-2.84 4.28-6.74 7.58-1.38 7.9 12.87 17.13 25.2 18.13 41.03zm-71.49 74.45c-.54 9.01-3.79 16.09-11.75 19.81-7.64 3.57-15.08 3.46-22.47-1.81-8.22-5.86-10.79-13.96-8.28-22.69 3.61-12.59 10.02-24.16 17.29-35.12 1.94-2.93 4.68-4.84 7.24-.78 8.06 12.8 16.1 25.65 17.97 40.59zm-39.05 164.68c.78-13.16 8.32-23.58 14.7-34.44 1.9-3.23 4.43-2.77 6.15.67 5.06 10.1 12.29 19.18 14.16 30.77 1.29 7.97-1.66 14.61-7.72 19.1-5.26 3.9-12.21 3.36-17.81.73-6.51-3.08-10.88-8.54-9.48-16.83zm250.36-243.43c.84 5.54-2.13 11.53-9.26 14.58-6.64 2.84-13.72 2.62-19.6-2.03-5.96-4.72-7.04-11.14-5.44-18.57 2.39-11.04 8.89-20.02 13.9-29.73 1.67-3.22 4.98-3.42 6.51-.38 5.47 10.89 13.71 20.74 13.89 36.13z"/><path d="M421.9 865.68c-11.6 0-20.23-.2-28.85.06-7.47.23-9.25-3.82-7.5-9.87 2.38-8.23 4.68-16.65 8.49-24.24 2.89-5.77 10.61-5.67 16-7.03 22.19-5.62 44.52-10.47 67.83-9.85 8.92.24 13.03 3.33 14.5 10.97 1.38 7.15 1.44 14.49-.44 21.64-3.25 12.33-14.95 11.48-23.6 13.49-16.12 3.73-32.63 6.38-46.43 4.83zM47.02 807.32c21.7 1.62 42.95 5.33 63.81 11.74 7.99 2.45 12.2 7.01 13.83 14.85.91 4.39 2.47 8.64 3.53 13 2.35 9.65.05 13.95-10.08 13.57-27.22-1.02-54.72-1.08-81.07-9.33-14.2-4.45-17.88-14.11-14.25-32.66 2.46-12.57 12.03-11.31 21.11-11.17 1.04.02 2.08 0 3.12 0zm9.05 39.93c-16.15-6.84-19.2-20.92-22.39-34.9-10.44 27.22-.62 39.23 22.39 34.9zm386.07 59.64c9.01 0 18.16.95 27-.28 8.08-1.12 9 2.97 8.84 8.66-.45 16.23-9.26 24.17-25.46 25.45-16.87 1.33-33.58 4.42-50.63 3.61-5.06-.24-10.46-.17-12.17-5.7-2.5-8.1-7.1-16.05-4.35-25.04.71-2.32 3.34-1.99 5.34-2.39 16.99-3.38 34.14-4.55 51.43-4.31zM95.93 936.22c-14.54.42-28.96-.82-43.13-4-10.59-2.37-18.48-21.6-13.15-30.85 1.81-3.14 4.82-2.49 7.37-2.27 26.22 2.26 52.73.75 78.71 6.08 1.69.35 3.91.27 4.39 2.1 2.32 8.82-3.04 15.89-5.6 23.64-1.52 4.6-4.77 5.37-8.87 5.32-6.58-.08-13.15-.02-19.72-.02zm165.97 2.56c17.68 0 35.36-.05 53.04.05 3.08.02 6.26.26 9.21 1.08 3.45.96 6.99 3.63 6.78 6.95-.29 4.76-5.14 3.52-8.31 3.49-40.87-.38-81.74-.83-122.61-1.47-2.61-.04-7.21 1.79-7.48-2.88-.18-3.12 3.18-5.5 6.07-6.49 2.85-.98 6.12-.94 9.21-.95 18.03-.08 36.06-.04 54.08-.04.01.09.01.17.01.26z" fill="#ffcb33"/></svg>