<svg id="Слой_1" data-name="Слой 1" xmlns="http://www.w3.org/2000/svg" viewBox="0 0 515 385"><defs><style>.cls-1{fill:#ffef6e}.cls-2{fill:#ffcb33}.cls-3{fill:#ffcd66}</style></defs><path class="cls-1" d="M102.55 148.81s5.45 40 30.61 56.23c4.69 3 13.37-2 14.22-8.66s-.78-20.49-8.94-28.68-35.89-18.89-35.89-18.89z"/><path class="cls-2" d="M194.35 55.59l-28.42 6-22.5 30.14s-7.92 8.42-14.07 13.14-28.36 36.28-26.81 43.94 29.58.31 29.58.31 30.08-25.61 36.4-28.17 49.42-.92 62.69 1.42-36.87-66.78-36.87-66.78zM144.47 248.8a8.76 8.76 0 00-2.93-4.37c-1.88-1.63-4.94-3.2-9.85-3.67a152.77 152.77 0 00-20.32-.39A152.78 152.78 0 0091.11 242c-4.88.78-7.83 2.54-9.61 4.28a8.77 8.77 0 00-2.65 4.54s-3 42.81-3.7 58.52c1.21 19.21 3.28 42.44 5.43 53.92 2.32 12.44 5.07 17.78 11.11 19.78 7.81 1.07 18.59.8 23 .62h2.26c4.42-.1 15.19-.5 22.92-2 5.9-2.38 8.31-7.88 9.86-20.44 1.43-11.59 2.05-34.9 2.07-54.15-1.67-15.73-7.33-58.27-7.33-58.27z"/><path class="cls-2" d="M117.23 228.35l-12.46.39a11.34 11.34 0 00-11 11.69l.66 21.46a11.37 11.37 0 0011.7 11l12.46-.39a11.35 11.35 0 0011-11.7l-.67-21.46a11.34 11.34 0 00-11.69-10.99zm7.43 30.65c.16 5.12-2.23 8.18-7.36 8.34l-10.18.32c-5.13.16-8-2.74-8.16-7.86l-.54-17.55c-.16-5.12 2.45-10.53 7.57-10.69l10.19-.32c5.12-.16 7.78 5.09 7.94 10.21zm10.44 109.77a4.81 4.81 0 10-4 8.75 7 7 0 01-.33-1.95 7.16 7.16 0 014.33-6.8z"/><path class="cls-2" d="M137.89 373a4.8 4.8 0 00-2.79-4.21 7.16 7.16 0 00-4.31 6.8 7 7 0 00.33 1.95 4.82 4.82 0 006.77-4.54z"/><path class="cls-3" d="M102.55 148.81A37.3 37.3 0 10146 178.73a37.29 37.29 0 00-43.45-29.92zm12.89 70a33.91 33.91 0 1127.21-39.48 33.9 33.9 0 01-27.21 39.5z"/><path class="cls-3" d="M103.16 152.14a33.91 33.91 0 1039.49 27.21 33.91 33.91 0 00-39.49-27.21zm12.14 66a33.16 33.16 0 1126.61-38.62 33.16 33.16 0 01-26.61 38.58z"/><path class="cls-2" d="M34.88 250.37l-18.91 32.74.75 1.51-15.69 25.49.63 1.27-1.08 1.33.17 7.04 2.4 1.65 5.33-2.64 1.34-1.45h1.59l15.3-24.35 2.35-.37 21.29-33.65-15.47-8.57z"/><path class="cls-1" transform="rotate(-57.8 29.914 276.194)" d="M-22.74 275.16H82.59v2.07H-22.74z"/><path class="cls-2" d="M73.57 205.11c-6-3.55-12.4-7.74-19.81-5.51-6.4 1.93-28.88 23.82-27.16 35.82s15 20.59 15 20.59c2.94 2.2 7 4.82 19 6.77s19.4-11.57 26.56-30.24-7.61-23.88-13.59-27.43zM79.78 221c-1.07 1.9-2.41.68-4.31-.4l-18-10.17c-1.9-1.07-3.64-1.58-2.57-3.48s4.55-4.46 6.45-3.39l18 10.17c1.9 1.04 1.5 5.35.43 7.27z"/><path class="cls-2" d="M79.35 213.7l-18-10.17c-1.9-1.07-5.38 1.49-6.45 3.39s.67 2.41 2.57 3.48l18 10.17c1.9 1.08 3.24 2.3 4.31.4s1.47-6.2-.43-7.27zm-5 2.81c-.93 1.72-2.62 1.52-4.34.59l-5.39-2.9c-1.72-.93-2.82-2.24-1.89-4S66.28 207 68 208l5.39 2.9c1.72.9 1.91 3.89.98 5.61z"/><path d="M79.2 195.73a2 2 0 01.48 2.72L70.21 213a2 2 0 01-2.68.7 2 2 0 01-.49-2.73l9.48-14.49a2 2 0 012.68-.7zm34.38 37.84a2.43 2.43 0 01-2.35 2.5 2.43 2.43 0 01-2.5-2.35l-.5-16.2a2.43 2.43 0 012.35-2.5 2.43 2.43 0 012.5 2.35z" fill="#ada9aa"/><path class="cls-1" d="M138.92 271a11.71 11.71 0 00-12.07-11.34l-29.75.93a11.69 11.69 0 00-11.33 12.01l2.5 80.46a11.69 11.69 0 0012.06 11.33l29.75-.92a11.7 11.7 0 0011.34-12.07z"/><path class="cls-2" d="M134.48 285.39a2.27 2.27 0 01-2.2 2.34l-38.85 1.2a2.27 2.27 0 01-2.34-2.19l-.49-15.91a2.27 2.27 0 012.19-2.34l38.86-1.21a2.28 2.28 0 012.34 2.2z"/><path class="cls-1" d="M66.21 246.84c-3.07 4.74-13.49 7.34-18.23 4.26l-5.45-3.52c-4.74-3.07-6.43-13.52-3.36-18.26 3.07-4.74 6.62-1.8 11.36 1.27L60.4 237c4.74 3.07 8.88 5.12 5.81 9.86z"/><path class="cls-2" transform="rotate(-1.78 113.448 302.775)" d="M91.03 300.45h44.55v4.65H91.03z"/><path class="cls-2" transform="rotate(-1.78 114.532 336.595)" d="M92.08 334.08h44.55v4.65H92.08z"/><path class="cls-3" d="M215.18 181.8s15.46 4.43 23.46.43 18.27-26.36 16.57-29.94-31.53 2.64-31.53 2.64-13.85 20.15-8.5 26.87z"/><path class="cls-3" d="M167.43 113.41l-7.16 53.05s26.47 32.73 37.72 33.16 33-17.24 32.41-25.7-4.48-20-9.66-20.54-32.62 14.44-32.62 14.44l21.12-51.42z"/><path class="cls-2" d="M113.79 172.51c-6-21 .12-24.64 7.17-28.93 60-17.87 86.49-30.67 86.49-30.67s6.06-13.24 2.12-22.91c-.76-1.86-4.36-1-9.66 1.46l-59.8 5c14.38-20.29 34.82-48.95 45.33-53.86 8.43-3.94 26.2-6.59 49.52-9.2 17.61-2 127.87.64 140.1-7.31 14.62 13.43 4.57 15 23.47 32.33 6.74 6.2 18.29 34.31 16.26 42.67-20.58 34.53-47.21 20.37-63.68 31.24-17.21 11.38-61.49 32.78-106.19 33-43.57.19-29.65 1.41-77.29 12.82-1.23.29-7.81 1.94-9.09 2.36-42.91 14.07-44.75-8-44.75-8z"/><path class="cls-2" d="M355.31 81l4.35 52.63a9.87 9.87 0 0010.84 9.05l13.5-1.38c7.72-17.37 14.62-30.91 14.16-36.46l17.14-29.77-13.64 1.34z"/><path class="cls-2" d="M351 28.33L355.31 81l46.32-4.56 13.64-1.34-4.35-52.64a9.88 9.88 0 00-10.84-9l-39.93 3.93A10.26 10.26 0 00351 28.33z"/><path class="cls-2" d="M372.13 18.61c-.44-5.38 2.2-10 5.9-10.41L515 0v70l-137.84 9.49z"/><path class="cls-1" d="M124.76 182.65l-9.79-29s1.03-.65 2.86-1.65l10 30.46c-1.83.18-3.07.19-3.07.19zM117.83 152c8.35-4.57 32.5-15.72 37.76 4.67 5.45 21.14-18.89 25.07-27.73 25.79zM172 134.19s.08.56.26 1.53.45 2.34.83 4c.19.82.41 1.7.65 2.63s.5 1.91.79 2.91c.14.51.29 1 .44 1.53s.31 1 .47 1.56c.32 1.06.67 2.12 1 3.18s.71 2.11 1.08 3.15l.27.77c.09.26.19.51.28.76.18.51.36 1 .55 1.5.37 1 .74 1.92 1.1 2.81s.71 1.73 1 2.5.65 1.47.94 2.09.54 1.16.76 1.6c.43.89.71 1.38.71 1.38s-.08-.56-.25-1.53c-.09-.48-.2-1.07-.34-1.74s-.31-1.42-.5-2.24-.4-1.7-.64-2.63-.51-1.91-.8-2.91c-.14-.51-.29-1-.44-1.53-.08-.26-.15-.52-.23-.78l-.24-.78c-.32-1.05-.67-2.11-1-3.18s-.71-2.11-1.08-3.14c-.18-.52-.36-1-.55-1.54s-.37-1-.55-1.49c-.37-1-.74-1.92-1.1-2.81s-.71-1.73-1-2.5c-.67-1.55-1.26-2.82-1.7-3.7s-.71-1.4-.71-1.4zm4.89-2.82s.08.6.26 1.64.45 2.51.84 4.26c.19.88.41 1.82.65 2.82s.5 2 .79 3.13c.14.54.29 1.09.45 1.64s.3 1.12.47 1.68c.32 1.13.67 2.27 1 3.41s.71 2.27 1.08 3.39c.09.28.18.55.28.83s.18.55.28.82c.18.55.36 1.08.55 1.61.37 1.06.74 2.07 1.1 3s.72 1.87 1 2.7.65 1.59.94 2.26.55 1.26.77 1.74c.44.95.71 1.49.71 1.49s-.07-.6-.25-1.64c-.09-.51-.2-1.14-.34-1.86s-.31-1.52-.5-2.4-.41-1.82-.65-2.82-.51-2-.79-3.13c-.14-.54-.3-1.08-.45-1.64-.08-.28-.15-.56-.23-.84l-.24-.84c-.32-1.13-.67-2.27-1-3.41s-.71-2.27-1.08-3.39l-.53-1.62c-.19-.54-.37-1.08-.56-1.61-.37-1.05-.74-2.07-1.1-3s-.72-1.87-1.05-2.7c-.67-1.66-1.27-3-1.71-4s-.69-1.52-.69-1.52zm3.72-1.59s.06.56.22 1.53.41 2.36.77 4c.17.82.37 1.71.6 2.64s.47 1.92.73 2.93c.13.51.28 1 .42 1.54s.29 1 .44 1.57c.3 1.06.63 2.12 1 3.19s.67 2.13 1 3.17c.08.26.17.52.26.78s.17.51.26.77c.18.51.35 1 .53 1.5.35 1 .7 1.94 1 2.83s.68 1.75 1 2.52.62 1.49.9 2.12.52 1.17.73 1.61c.42.89.68 1.4.68 1.4s-.06-.57-.22-1.54c-.08-.49-.18-1.08-.31-1.75s-.28-1.43-.45-2.25-.38-1.71-.6-2.64-.47-1.92-.74-2.93c-.13-.51-.27-1-.42-1.54l-.21-.78c-.08-.26-.15-.52-.23-.79-.3-1-.62-2.12-.95-3.19s-.67-2.13-1-3.17c-.17-.52-.34-1-.52-1.54s-.35-1-.53-1.51c-.35-1-.7-1.93-1-2.83s-.68-1.74-1-2.52c-.64-1.55-1.21-2.84-1.63-3.73s-.73-1.39-.73-1.39z"/></svg>