<svg version="1.1" id="Слой_1" xmlns="http://www.w3.org/2000/svg" x="0" y="0" viewBox="0 0 585 503" xml:space="preserve"><style>.st6{fill:#ffcb33}.st278{fill:#ffef6e}.st339{fill:#ffd066}</style><path class="st278" d="M133.64 195.65s7.16 52.48 40.18 73.82c6.16 3.98 17.55-2.69 18.67-11.37 1.11-8.68-1.02-26.89-11.73-37.64s-47.12-24.81-47.12-24.81z"/><path class="st6" d="M254.16 73.28l-37.32 7.94-29.54 39.58s-10.39 11.05-18.46 17.24c-8.07 6.19-37.27 47.56-35.2 57.61 2.07 10.05 38.83.41 38.83.41s39.49-33.62 47.79-36.98c8.3-3.36 64.88-1.21 82.3 1.86 17.43 3.09-48.4-87.66-48.4-87.66zm-65.49 253.64s-.6-2.93-3.84-5.73c-2.47-2.14-6.48-4.19-12.93-4.82-10.64-1.02-21.39-.75-26.68-.52-5.3.09-16.05.49-26.6 2.17-6.4 1.02-10.27 3.32-12.61 5.61-3.06 3-3.48 5.96-3.48 5.96s-3.95 56.2-4.86 76.83c1.59 25.22 4.31 55.71 7.13 70.78 3.05 16.34 6.67 23.34 14.58 25.98 10.26 1.39 24.4 1.04 30.2.81.22-.03.32-.05.32-.05s.42 0 1.16-.01c.74-.03 1.16-.06 1.16-.06l.32.03c5.8-.13 19.94-.66 30.09-2.69 7.74-3.12 10.91-10.34 12.94-26.83 1.87-15.21 2.69-45.81 2.72-71.08-2.19-20.53-9.62-76.38-9.62-76.38z"/><path class="st6" d="M152.91 300.07l-16.35.51c-8.23.26-14.69 7.13-14.43 15.36l.88 28.17c.26 8.23 7.13 14.69 15.36 14.43l16.35-.51c8.23-.26 14.69-7.13 14.43-15.36l-.88-28.17c-.26-8.22-7.13-14.68-15.36-14.43zm9.76 40.24c.21 6.73-2.94 10.75-9.66 10.95l-13.37.42c-6.73.21-10.49-3.6-10.7-10.32l-.72-23.04c-.21-6.73 3.22-13.82 9.95-14.03l13.37-.42c6.73-.21 10.21 6.68 10.42 13.4l.71 23.04zm13.7 144.1c-.86-.4-1.83-.61-2.84-.58-3.48.11-6.22 3.02-6.11 6.5a6.31 6.31 0 003.73 5.56c-.26-.81-.41-1.66-.43-2.55a9.4 9.4 0 015.65-8.93z"/><path class="st6" d="M180.03 489.94a6.305 6.305 0 00-3.66-5.53 9.432 9.432 0 00-5.23 11.48c.85.38 1.79.58 2.78.55a6.304 6.304 0 006.11-6.5z"/><path class="st339" d="M133.64 195.65c-26.59 4.9-44.18 30.42-39.29 57.02 4.9 26.59 30.42 44.18 57.02 39.29 26.59-4.9 44.18-30.42 39.29-57.02-4.9-26.59-30.42-44.18-57.02-39.29zm16.92 91.93c-24.18 4.45-47.38-11.54-51.83-35.72-4.45-24.18 11.54-47.38 35.72-51.83 24.18-4.45 47.38 11.54 51.83 35.72 4.45 24.17-11.54 47.38-35.72 51.83z"/><path class="st339" d="M134.45 200.03c-24.18 4.45-40.17 27.66-35.72 51.83 4.45 24.18 27.66 40.17 51.83 35.72 24.18-4.45 40.17-27.66 35.72-51.83-4.45-24.18-27.66-40.17-51.83-35.72zm15.94 86.59c-23.64 4.35-46.34-11.29-50.69-34.93-4.35-23.64 11.29-46.34 34.93-50.69 23.64-4.35 46.34 11.28 50.69 34.93 4.35 23.64-11.29 46.33-34.93 50.69z"/><path class="st6" d="M44.8 328.98l-24.81 42.98.98 1.98L.38 407.41l.82 1.67-1.42 1.74.22 9.24 3.15 2.17 7.01-3.47 1.75-1.91 2.08.01 20.09-31.97 3.08-.49 27.96-44.17z"/><path transform="rotate(-57.798 38.299 362.887)" class="st278" d="M-30.84 361.53h138.27v2.72H-30.84z"/><path class="st6" d="M95.6 269.56c-7.86-4.66-16.28-10.16-26-7.23-8.4 2.53-37.91 31.26-35.65 47.02 2.26 15.76 19.63 27.03 19.63 27.03 3.86 2.89 9.15 6.33 24.98 8.89s25.53-15.19 34.88-39.71c9.35-24.5-9.99-31.34-17.84-36zm8.15 20.83c-1.41 2.49-3.16.88-5.65-.53L74.45 276.5c-2.49-1.41-4.78-2.08-3.37-4.57 1.41-2.49 5.97-5.86 8.47-4.45l23.65 13.36c2.48 1.41 1.96 7.06.55 9.55z"/><path class="st6" d="M103.19 280.84l-23.65-13.36c-2.49-1.41-7.06 1.96-8.47 4.45-1.41 2.49.88 3.16 3.37 4.57l23.65 13.36c2.49 1.41 4.25 3.02 5.65.53 1.42-2.49 1.94-8.14-.55-9.55zm-6.54 3.69c-1.22 2.26-3.44 2-5.7.78l-7.08-3.82c-2.26-1.22-3.7-2.93-2.48-5.19 1.22-2.26 4.63-4.2 6.89-2.99l7.08 3.82c2.26 1.22 2.51 5.14 1.29 7.4z"/><path d="M102.99 257.25c1.15.73 1.43 2.34.64 3.58l-12.44 19.03c-.79 1.24-2.37 1.65-3.52.92-1.15-.73-1.43-2.34-.64-3.58l12.44-19.03c.79-1.24 2.37-1.66 3.52-.92zm45.14 49.68c.05 1.76-1.33 3.23-3.08 3.28-1.76.05-3.23-1.33-3.28-3.08l-.66-21.27a3.185 3.185 0 013.09-3.28c1.76-.05 3.23 1.33 3.28 3.08l.65 21.27z" fill="#b0acad"/><path class="st278" d="M181.39 356c-.26-8.48-7.36-15.15-15.84-14.88l-39.05 1.21c-8.48.26-15.15 7.36-14.89 15.84l3.28 105.62c.26 8.48 7.36 15.15 15.84 14.88l39.05-1.21c8.48-.26 15.15-7.36 14.88-15.84L181.39 356z"/><path class="st6" d="M175.56 374.95a2.976 2.976 0 01-2.89 3.07l-51.01 1.59a2.976 2.976 0 01-3.07-2.89l-.65-20.88a2.982 2.982 0 012.89-3.07l51.01-1.59a2.976 2.976 0 013.07 2.89l.65 20.88z"/><path class="st278" d="M85.93 324.34c-4.03 6.22-17.71 9.64-23.93 5.6l-7.14-4.63c-6.22-4.03-8.45-17.75-4.42-23.97 4.03-6.22 8.69-2.37 14.92 1.67l12.96 8.4c6.22 4.03 11.64 6.71 7.61 12.93z"/><path transform="rotate(-1.812 147.435 397.55)" class="st6" d="M118.52 394.73h58.49v6.1h-58.49z"/><path transform="rotate(-1.812 148.808 441.733)" class="st6" d="M119.89 438.87h58.49v6.1h-58.49z"/><path class="st339" d="M281.5 238.97s20.3 5.81 30.8.57c10.5-5.24 23.98-34.61 21.75-39.31-2.23-4.7-41.38 3.46-41.38 3.46s-18.2 26.46-11.17 35.28z"/><path class="st339" d="M218.82 149.19l-9.4 69.64s34.75 42.97 49.51 43.53c14.76.56 43.34-22.64 42.54-33.74-.8-11.11-5.87-26.23-12.67-26.96-6.8-.73-42.82 18.96-42.82 18.96l27.73-67.5-54.89-3.93z"/><path class="st6" d="M148.4 226.76c-7.9-27.63.16-32.34 9.41-37.97 78.7-23.45 113.55-40.27 113.55-40.27s7.95-17.38 2.78-30.08c-.99-2.44-5.72-1.37-12.67 1.92l-78.51 6.56c18.88-26.64 45.71-64.26 59.5-70.71 11.07-5.17 34.4-8.65 65.02-12.08 23.12-2.59 167.87.85 183.92-9.59 19.19 17.64 5.99 19.63 30.8 42.44 8.84 8.14 24.01 45.04 21.35 56.02-27.03 45.33-61.98 26.73-83.6 41.01-22.6 14.94-80.73 43.03-139.41 43.28-57.2.24-38.92 1.85-101.46 16.82-1.62.39-10.25 2.55-11.94 3.1-56.32 18.53-58.74-10.45-58.74-10.45z"/><path class="st6" d="M465.47 106.59l5.7 69.1c.6 7.27 6.97 12.6 14.23 11.88l17.68-1.78c10.14-22.8 19.19-40.58 18.59-47.85l22.5-39.09-17.89 1.76-60.81 5.98z"/><path class="st6" d="M459.76 37.5l5.71 69.1 60.81-5.98 17.89-1.76-5.7-69.1c-.6-7.28-6.97-12.59-14.23-11.88l-52.43 5.16c-7.26.7-12.65 7.18-12.05 14.46z"/><path class="st6" d="M487.55 24.73c-.58-7.06 2.88-13.18 7.75-13.65L585 .3v95.59l-90.85 8.77-6.6-79.93z"/><path class="st278" d="M162.8 240.08l-12.85-38.04s1.4-.89 3.75-2.17l13.18 39.99c-2.52.21-4.08.22-4.08.22z"/><path class="st278" d="M153.7 199.87c10.97-5.99 42.67-20.64 49.58 6.13 7.16 27.75-24.8 32.91-36.4 33.87l-13.18-40zm71.11-23.41s.1.74.33 2.01c.23 1.27.6 3.08 1.1 5.23.25 1.07.54 2.23.85 3.45.32 1.22.66 2.5 1.04 3.82.18.66.38 1.33.58 2.01.2.68.4 1.36.62 2.05.42 1.38.87 2.77 1.32 4.16.47 1.39.93 2.78 1.41 4.13l.36 1.02c.12.34.24.67.37 1 .24.66.48 1.32.73 1.96.48 1.29.97 2.52 1.44 3.69s.93 2.27 1.37 3.28c.44 1.01.85 1.94 1.23 2.75s.71 1.52 1 2.1c.57 1.16.93 1.81.93 1.81s-.1-.74-.33-2.01c-.11-.64-.26-1.41-.45-2.29-.18-.88-.4-1.87-.65-2.94-.25-1.07-.54-2.23-.85-3.45-.32-1.22-.66-2.5-1.04-3.82-.18-.66-.38-1.33-.58-2.01l-.3-1.02c-.11-.34-.21-.68-.32-1.03-.42-1.38-.87-2.77-1.32-4.16-.47-1.39-.93-2.78-1.42-4.13-.24-.68-.48-1.35-.72-2.02-.24-.66-.48-1.32-.73-1.96-.48-1.29-.97-2.52-1.44-3.69a123.8 123.8 0 00-1.37-3.28c-.87-2.02-1.66-3.69-2.23-4.85-.57-1.16-.93-1.81-.93-1.81zm6.43-3.7s.1.79.33 2.15c.23 1.36.6 3.29 1.1 5.6.25 1.15.54 2.39.86 3.7.32 1.31.66 2.69 1.04 4.1.18.71.38 1.43.58 2.16.2.73.4 1.47.62 2.2.42 1.48.88 2.98 1.33 4.48.47 1.49.93 2.99 1.42 4.45.12.37.24.73.36 1.09.12.36.25.72.37 1.08.24.71.48 1.42.73 2.11.49 1.39.97 2.72 1.45 3.98.48 1.26.94 2.45 1.38 3.54.44 1.09.86 2.09 1.23 2.97.38.88.72 1.65 1.01 2.27.57 1.26.94 1.96.94 1.96s-.1-.79-.33-2.15c-.11-.68-.27-1.5-.45-2.45-.18-.94-.4-2-.65-3.15s-.54-2.39-.86-3.7c-.32-1.31-.67-2.69-1.04-4.1-.18-.71-.39-1.43-.59-2.16-.1-.36-.2-.73-.3-1.1-.11-.37-.21-.73-.32-1.11-.42-1.48-.88-2.98-1.33-4.48-.47-1.49-.93-2.99-1.42-4.45-.24-.73-.48-1.46-.73-2.17-.24-.71-.48-1.42-.73-2.11-.49-1.39-.97-2.72-1.45-3.98-.47-1.26-.94-2.45-1.38-3.54-.88-2.19-1.66-3.99-2.24-5.25-.57-1.23-.93-1.94-.93-1.94zm4.88-2.09s.08.74.29 2.02c.21 1.28.54 3.09 1 5.25.23 1.08.49 2.24.79 3.47.3 1.23.62 2.52.97 3.84.17.67.36 1.34.54 2.02.19.68.38 1.37.58 2.06.39 1.39.82 2.79 1.25 4.19.44 1.4.88 2.79 1.34 4.16.11.34.23.68.34 1.02.12.34.23.67.35 1.01.23.67.45 1.33.69 1.97.46 1.3.92 2.54 1.37 3.72a130.002 130.002 0 002.49 6.08c.36.82.69 1.54.96 2.12.55 1.17.9 1.83.9 1.83s-.08-.74-.29-2.02c-.1-.64-.24-1.41-.4-2.29-.17-.88-.37-1.87-.6-2.95-.23-1.08-.49-2.24-.79-3.47-.3-1.23-.62-2.52-.97-3.84-.17-.67-.36-1.34-.55-2.02-.09-.34-.19-.68-.28-1.03l-.3-1.03c-.39-1.39-.82-2.79-1.25-4.19-.44-1.4-.88-2.79-1.34-4.16-.22-.69-.45-1.36-.69-2.03a182.895 182.895 0 00-2.06-5.69c-.45-1.18-.89-2.29-1.31-3.31-.84-2.04-1.59-3.72-2.14-4.9a40.98 40.98 0 00-.89-1.83z"/></svg>