<svg version="1.1" id="Слой_1" xmlns="http://www.w3.org/2000/svg" x="0" y="0" viewBox="0 0 585 233" xml:space="preserve"><style>.st6{fill:#ffcb33}.st7{fill:#ffeda1}.st16{fill:#ffe406}.st278{fill:#ffef6e}</style><path class="st16" d="M102.23 202.14h321.76l108.67-9.79s-19.45-48.45-24.75-49.18c-5.3-.73-395.49 0-395.49 0l-10.19 58.97z"/><path class="st7" d="M579.08 197.37c-8.01 3.28-56.41 4-56.41 4s1.09-59.32-48.77-52.41c-49.86 6.91-41.14 56.15-41.14 56.15l-239.7 4.28s3.89-62.54-49.03-55.96c-43.97 5.46-32.68 55.72-32.68 55.72-43.83 2.27-48.36-12.62-48.36-12.62v-6.15h2.75V174.2h-2.75v-12.05l9.22-21.11c15.53-26.69 137.33-33.97 137.33-33.97 18.5-10.63 33.84-18.54 45.83-24.28 19.14-9.16 40.96-18.09 62.07-20.17 57.17-5.65 104.18.75 115.7 2.62 13.46 2.18 81.16 31.66 86.25 34.21 5.1 2.55 46.65 6 51.99 6.65 5.34.65 5.18 5.98 5.18 5.98l.73 4.74 2.79 18.04.68 4.4c3.88 1.94 3.89 7.5 3.89 7.5s2.43 47.33-5.57 50.61z"/><circle transform="rotate(-77.573 151.116 192.346)" class="st6" cx="151.12" cy="192.35" r="36.91"/><path class="st6" d="M151.12 221.22c-15.92 0-28.87-12.95-28.87-28.87s12.95-28.87 28.87-28.87c15.92 0 28.87 12.95 28.87 28.87s-12.96 28.87-28.87 28.87zm0-55.07c-14.45 0-26.2 11.75-26.2 26.2s11.75 26.2 26.2 26.2 26.2-11.75 26.2-26.2c-.01-14.44-11.76-26.2-26.2-26.2z"/><path class="st7" d="M156.04 219.91H145.7l3.32-28.34-3.79-26.93 11.82.73-3.94 26.2z"/><path class="st7" d="M129.66 210.34l-5.17-8.96 26.2-11.29 21.43-16.75 5.27 10.61-24.65 9.68z"/><path class="st7" d="M125.51 181.67l5.68-8.64 21.86 18.34L177.63 203l-7.1 9.47-19.72-17.68z"/><circle class="st7" cx="151.06" cy="192.3" r="9.63"/><path class="st6" d="M113.91 140.94H89.77c-7.99 0-15.36 4.32-19.25 11.3l-.83 1.48c-.84 1.5.25 3.34 1.96 3.34h29.06c2.01 0 3.92-.84 5.28-2.31l9.48-10.27c1.24-1.36.28-3.54-1.56-3.54zm-29.32 51.41h-8.24c-2.73 0-5.24 1.47-6.57 3.86l-.28.51c-.29.51.08 1.14.67 1.14h9.92c.68 0 1.34-.29 1.8-.79l3.23-3.51c.42-.46.1-1.21-.53-1.21z"/><path class="st7" d="M483.71 103.6l-123.21 2.93c-2.42.06-4.4-1.89-4.4-4.3V73.84c0-2.23 1.83-4.03 4.06-4 52.54.73 70.55 2.19 81.35 5.92 9.52 3.29 31.8 16.8 43.31 23.65 1.93 1.15 1.15 4.13-1.11 4.19z"/><path d="M483.29 103.61h-.07v-5.15c.42.25.83.5 1.23.73 2.04 1.22 1.22 4.36-1.16 4.42z" fill="#a3caff"/><path d="M247.2 97.12l3.62 12.01-19.82.47c-1.16.03-1.66-1.46-.72-2.13 4.48-3.22 12.77-8.96 16.92-10.35z" fill="#2a356b"/><path class="st6" d="M230.14 110.59c-.81 0-1.52-.51-1.77-1.29-.26-.79.03-1.64.71-2.11l.41-.28c.43-.3.91-.63 1.44-.98.44-.29.9-.6 1.4-.93l.75-.49c.57-.37 1.17-.76 1.81-1.17.46-.29.93-.59 1.42-.9l.08-.05c.07-.04.14-.09.21-.13.41-.26.85-.53 1.29-.8l.1-.06.45-.27c.22-.14.45-.28.69-.42.33-.2.66-.4 1-.6a194.25 194.25 0 014.05-2.37c.67-.39 1.36-.78 2.07-1.17l.5-.28c1.43-.8 2.88-1.59 4.31-2.35l.47-.25c.22-.11.44-.23.66-.35 2.73-1.43 5.53-2.83 8.33-4.17l.87-.41c.87-.41 1.76-.83 2.66-1.24.3-.14.6-.28.91-.41.6-.27 1.21-.55 1.83-.82l.93-.41c.93-.41 1.91-.83 3.01-1.3a218.278 218.278 0 0113.49-5.19l.86-.3c.32-.11.65-.22.97-.33l1.22-.41.99-.33.04-.01c.35-.11.69-.23 1.04-.34.63-.2 1.27-.4 1.9-.6.43-.14.87-.27 1.32-.4.67-.2 1.35-.4 2.03-.6l1.13-.32c.71-.2 1.42-.4 2.14-.6 1.42-.39 2.86-.77 4.3-1.13l.09-.02.38-.09c.61-.15 1.23-.3 1.86-.45.37-.09.74-.18 1.12-.26l.28-.06c.28-.06.56-.13.84-.19.37-.08.75-.17 1.13-.25.38-.08.76-.16 1.13-.24l1.14-.24c.38-.08.76-.16 1.14-.23l.06-.01c.36-.07.72-.14 1.09-.21.36-.07.72-.14 1.09-.21.41-.08.82-.15 1.23-.22.26-.05.52-.09.79-.14l.37-.06c.77-.13 1.55-.26 2.32-.38l1.17-.18.06-.01 2.06-.3c1.28-.18 2.57-.34 3.84-.49l.08-.01 1.06-.12c.25-.03.51-.06.77-.08.25-.03.53-.06.8-.08l.9-.09c.4-.04.8-.08 1.21-.11.38-.03.77-.07 1.16-.1.31-.03.61-.05.9-.07l1.73-.12 1.02-.06.15-.01 1.14-.06c.3-.01.61-.03.91-.04h.03l.82-.03.68-.02c.27-.01.54-.02.81-.02a3.79 3.79 0 012.8 1.1 3.85 3.85 0 011.17 2.77v30.68c0 2.55-2.07 4.67-4.62 4.74l-108.66 2.58c-.04-.04-.06-.04-.07-.04zm17.94-12.85l-.67.38c-.78.44-1.55.87-2.29 1.29-.34.19-.67.39-1 .58-1.06.61-2.07 1.21-3.02 1.78-.34.2-.67.4-.99.6-.23.14-.46.28-.68.42-.15.09-.3.18-.44.27l-.1.06c-.44.27-.87.54-1.29.8l-.28.17c-.48.3-.95.6-1.4.89-.63.4-1.23.79-1.79 1.15l-.75.49c-.49.33-.95.63-1.38.92-.52.35-.99.67-1.42.97l-.2.14 20.41-.48 88-2.09c1.5-.04 2.73-1.29 2.73-2.79v-30.7c0-.52-.21-1.01-.58-1.38-.38-.37-.87-.56-1.4-.55-.27.01-.53.02-.79.02l-.68.02-.8.03h-.03c-.3.01-.6.03-.9.04l-1.12.06-.15.01-1 .06-1.71.12c-.29.02-.58.04-.87.07-.4.03-.78.06-1.16.1-.4.03-.8.07-1.19.11l-.89.09c-.27.02-.53.05-.79.08-.27.03-.52.05-.76.08-.36.04-.7.08-1.05.12l-.08.01c-1.25.14-2.52.31-3.79.48-.68.09-1.36.19-2.04.29l-.06.01c-.39.06-.78.12-1.16.18-.77.12-1.54.25-2.3.38l-.37.06c-.26.05-.52.09-.78.14-.41.07-.81.15-1.22.22-.36.07-.71.13-1.07.2l-1.08.21-.06.01c-.38.07-.75.15-1.13.23l-1.14.24-1.12.24c-.37.08-.75.16-1.12.25-.28.06-.56.13-.83.19l-.29.07c-.37.08-.74.17-1.1.26-.62.15-1.24.3-1.85.45-.13.03-.24.06-.36.09l-.09.02c-1.42.35-2.85.73-4.26 1.12-.71.19-1.42.39-2.12.59l-1.12.32-2.01.6c-.43.13-.87.26-1.3.4-.64.2-1.26.4-1.89.6l-1.02.33-.04.01c-.33.11-.65.21-.98.32l-1.22.41-.96.33-.86.3c-3.89 1.36-7.82 2.85-11.67 4.44-.57.24-1.14.47-1.71.71-1.09.46-2.07.88-2.99 1.28l-.93.41c-.61.27-1.22.54-1.82.81-.31.14-.6.27-.9.41-.9.41-1.78.82-2.65 1.23l-.87.41c-2.78 1.32-5.55 2.71-8.25 4.13-.22.11-.44.23-.66.35l-.46.25c-1.25.66-2.55 1.37-3.84 2.08zm202.24 7.66c-.72 0-1.42-.28-1.95-.81-.6-.58-.94-1.41-.94-2.27V81.6c0-1.18.17-2.68 1.13-3.28.86-.54 2.32-.15 3.23.3 1.01.5 1.72.85 2.1 1.06.04.02.1.05.15.08l.41.22c5.16 2.82 12.51 7.26 21.85 13.19.4.25.79.5 1.19.75.94.6 1.86 1.19 2.74 1.75l3.27 2.11c.57.37 1.11.72 1.64 1.06.07.04.15.1.23.15l.07.05c1.09.71 1.57 2.06 1.2 3.37-.35 1.24-1.36 2.06-2.58 2.09l-.36.01-33.32.87c-.01.02-.03.02-.06.02zm.18-25.36c-.28 0-.5.11-.64.19-.45.28-.71.79-.71 1.37v20.72c0 .4.15.78.42 1.04.22.21.49.32.78.32l33.67-.87c.69-.02.92-.65.97-.84.13-.45.07-1.09-.49-1.46l-.07-.05a4.6 4.6 0 00-.23-.15c-.53-.34-1.07-.7-1.64-1.07l-3.27-2.11c-.88-.57-1.79-1.15-2.73-1.75-.39-.25-.78-.5-1.18-.75-9.31-5.92-16.62-10.34-21.75-13.14l-.42-.23c-.04-.02-.08-.05-.13-.07-.37-.2-1.08-.56-2.06-1.04-.18-.08-.36-.11-.52-.11z"/><path class="st6" d="M247.2 97.12l3.62 12.01-19.82.47c-1.16.03-1.66-1.46-.72-2.13 4.48-3.22 12.77-8.96 16.92-10.35zm113.18 10.37c-1.38 0-2.68-.53-3.67-1.5-1.02-1-1.59-2.34-1.59-3.77V73.84c0-1.34.53-2.6 1.48-3.54.96-.94 2.22-1.44 3.56-1.43 54.23.75 71.03 1.98 81.68 5.98l.63.24v30.47l-81.95 1.94c-.05-.01-.09-.01-.14-.01zm-.29-36.69c-.8 0-1.56.31-2.13.87-.58.57-.9 1.34-.9 2.16v28.39c0 .9.36 1.75 1 2.38.65.63 1.51.97 2.41.94l80.06-1.9V76.43c-10.36-3.68-28.14-4.9-80.39-5.63h-.05zm-150.55 36.29l-.95 1.58a21.826 21.826 0 01-17.21 10.58c-19.2 1.35-57.94 4.08-78.41 5.51-27.68 1.93-40.56 16.07-40.76 16.3 15.53-26.69 137.33-33.97 137.33-33.97z"/><path transform="rotate(-89.324 350.038 131.511)" class="st6" d="M287.86 131.02h124.32v.97H287.86z"/><path transform="rotate(-1.146 312.03 194.564)" class="st6" d="M192.56 194.23h239.87v.97H192.56z"/><path class="st6" d="M423.05 192.38l-.97-.05c.67-12.36 4.33-22.77 10.89-30.96 5.24-6.55 12.33-11.68 21.07-15.26 13.3-5.44 26.46-5.58 29.18-5.54V103.6h.97v37.97l-.51-.02c-.15-.01-14.65-.53-29.3 5.47-8.58 3.52-15.53 8.55-20.67 14.97-6.41 8.02-10 18.24-10.66 30.39z"/><path class="st16" d="M221.82 196.5c-.38-32.06 1.41-54.25 2.97-67.21 1.7-14.07 3.51-20.64 3.53-20.71l.93.26c-.07.26-7.19 26.44-6.47 87.65l-.96.01z"/><path transform="rotate(-68.211 186.737 100.07)" class="st6" d="M168.1 99.45h37.28v1.24H168.1z"/><path class="st6" d="M178.09 117.86c0-.51.78-.92 1.74-.92s1.74.41 1.74.92-.78.92-1.74.92-1.74-.41-1.74-.92z"/><path class="st7" d="M208.96 111.02c-.57-.11-1.09-.46-1.4-1.01-.11-.2-11.04-19.92-28.19-42.77-15.76-21.01-40.14-49.03-66.78-63.25a2.027 2.027 0 01-.83-2.74c.53-.99 1.75-1.36 2.74-.83 12.09 6.45 24.69 16.14 37.47 28.8 10.18 10.09 20.5 22.08 30.67 35.64 17.3 23.07 28.35 42.99 28.46 43.19.54.98.18 2.21-.79 2.75-.43.24-.9.3-1.35.22z"/><path class="st6" d="M103.35 117.9s4.91-.05 7.47.46c2.56.51 6.95 2.08 5.53 2.46-1.42.38-7.05.94-8.58 1.19-1.53.25-2.83 1.95-4.43 1.7-1.6-.25-3.83-2.46-3.83-2.46l3.84-3.35z"/><path class="st6" d="M101.84 120.1c1.52-1.81 1.51-2.2 1.51-2.2S89.07 100.23 87.8 98.51c-1.27-1.72-11.85-29.96-11.85-29.96-8.91-1.14-15.24 8.47-10.68 16.21 5.45 9.25 11.2 18.84 12.81 20.93 5.44 7.08 21.05 16.32 21.05 16.32s1.52-.49 2.71-1.91z"/><path transform="rotate(39.331 84.94 121.904)" class="st7" d="M83.55 115.93h2.79v11.96h-2.79z"/><path class="st7" d="M92.9 115.53c-.01.01-.02.02-.02.03-.71.83-1.97.98-2.85.33a2.118 2.118 0 01-.39-3.05c0-.01.01-.01.01-.02.28-.33-.06-.81-.46-.65-.57.23-1.08.62-1.47 1.16-.95 1.33-.75 3.2.44 4.31a3.286 3.286 0 005.47-1.76c.1-.43-.45-.69-.73-.35zm-11.86 14.48c.01-.01.01-.02.02-.03.67-.86.57-2.12-.24-2.86a2.1 2.1 0 00-3.06.22c0 .01-.01.01-.01.02-.27.33-.81.1-.73-.32.11-.6.39-1.18.85-1.67 1.12-1.19 2.99-1.37 4.31-.41a3.285 3.285 0 01-.65 5.71c-.41.16-.77-.32-.49-.66z"/><path class="st6" d="M77.83 119.5s5.47-.28 6.35-.06c.88.22 3.44 1.43 3.44 1.69s-.02 1.04-.57.98c-.54-.06-1.02-.44-.95-.21.07.23 2.12.44 2 1.47-.12 1.03-1.48 4-3.85 3.71-2.37-.29-6.51-3.83-6.9-3.93-3.31-.88.48-3.65.48-3.65z"/><path class="st7" d="M2.83 215.71s-3.4 3.15-2.74 5.4c.66 2.24 3.74 3.74 4.15 6.47.42 2.74 2.08 4.23 3.57 4.23h7.12s1.1-1.93-1.56-2.51c-2.66-.58-3.66-3.8-3.49-6.79.17-2.99-.25-6.97-.25-6.97l-5.64-1.33-1.16 1.5zm41.75 8.6s-.83 6.64.66 7.39 19.34.5 19.34.5 0-2.24-3.07-2.74-8.47-2.32-9.38-6.39c-.91-4.07-7.55 1.24-7.55 1.24z"/><path class="st7" d="M60.72 122.91s-1.01 12.58-2.19 27.71c-1.61 20.55-3.55 45.79-3.74 50.57-.33 8.3-1.66 21.58-1.66 21.58s-3.15 3.16-9.46 1.83c0 0-5.62-18.96-7.23-39.02-.02-.33-.05-.66-.07-.99-1.49-20.42-3.82-63.42-3.82-63.42l28.17 1.74z"/><path class="st7" d="M52.63 132.97l-16.2 52.6c-.02-.33-.05-.66-.07-.99-1.49-20.42-3.82-63.42-3.82-63.42l20.09 11.81z"/><path class="st7" d="M56.12 124.41s-18.18 45.57-30.13 66.99-15.69 27.39-15.69 27.39-6.85-2.74-7.47-4.61c0 0 4.57-41.34 12.58-51.42 4.52-5.7 4.67-16.91 6.71-28.47 2.8-15.86 8.83-32.92 8.83-32.92l25.17 23.04z"/><path class="st6" d="M64.44 60.91s7.57 12.96 14.84 14.58c0 0-.26-3.25-1.49-6.05-.37-.84-.25-1.81.32-2.52.32-.4.62-.78.89-1.15 1.8-2.36 2.65-3.8 2.65-3.8l-2.54-6.58-1.72-4.47a21.05 21.05 0 01-2.56 3.79c-4.69 5.51-10.39 6.2-10.39 6.2z"/><path class="st7" d="M74.83 54.7s-.81 6.55 4.18 11.06c1.8-2.36 2.65-3.8 2.65-3.8l-2.54-6.58c-2.65-.77-4.29-.68-4.29-.68z"/><path class="st6" d="M83.62 62.91s-11.13-4.19-8.42-11.08c2.71-6.89 3.1-12.08 10.33-9.69 7.22 2.38 7.56 5.55 7.21 8.07-.34 2.52-6.15 13.61-9.12 12.7z"/><path class="st278" d="M72.1 104.49c.33-.66.67-1.32 1.03-1.99a67.75 67.75 0 004.51-10.47c.91-2.72 1.58-5.39 1.99-7.88.6-3.67.47-6.54-.12-9.43 0-.02-1.13-4.43-1.14-4.45-7.02-3.15-8.77-11.25-8.77-11.25s-23.78 4.57-36.75 36.5c0 0-.84 2.37-1.92 5.84-.23.76-.48 1.56-.73 2.41-1.7 5.77 37.5 9.47 41.9.72z"/><path class="st6" d="M49.26 81.98s-6.77 11.84-2.63 20.89c4.13 9.04 14.09-4.84 14.09-4.84L49.26 81.98z"/><path class="st278" d="M73.46 39.1c-.08-.15-.31-.31-.86-.48 0 0 .51-.18 1.12-.05.3-.76 1.04-2.06 2.46-2.09 0 0-.81.22-1.1 1.04 1.93-1.26 5.53-1.66 14.56 1.23 11.9 3.81 6.06 10.76 4.27 11.33-1.79.57-5.14-2.93-8.12-3.37-2.98-.45-4.54 3.72-5.67 4.07-1.13.36-.5-.59-1.7-1.52s-1.85 1.3-1.81 2.86c.04 1.56-2.25 3.07-2.25 3.07l-1.39-2.47c-1.39-2.47-1.13-11.52.15-13.17.11-.15.22-.3.34-.45z"/><path class="st7" d="M60.3 128.21c.42-13.41 7.4-14.96 11.8-23.72.33-.66.67-1.32 1.03-1.99a67.75 67.75 0 004.51-10.47c.91-2.72 1.58-5.39 1.99-7.88l-12.08-4.59c-2.32-.88-4.93.1-6.09 2.29-2.99 5.63-9.41 15.56-18.23 17.42-6.36 1.34-10.12 1.88-12.29 2.09-.23.76-.48 1.56-.73 2.41-1.71 5.76-4.08 12.99-3.31 18.35.58 4.14 33.37 7.16 33.4 6.09z"/><path class="st7" d="M63.18 61.05s2.38 2.91 3.31 10.49c.79 6.43-.45 11.45-.45 11.45l-2.07-.65s2.71-10.94-2.63-20.67c.01 0 .13-.17 1.84-.62z"/><path class="st278" d="M79.62 122.52c.86-2.36 0-4.08 0-4.08s-13.02-11.91-13.8-14.04c-.78-2.13 2.55-26.92 2.55-26.92s-8.78-9.12-14.16-8.03c-2.42.49-5.68 5.81-5.65 6.03 1.08 10.13 3.03 27.19 4.58 31.17 3.44 8.85 23.07 17.9 23.07 17.9s2.71-.11 3.41-2.03z"/><circle transform="rotate(-77.573 477.145 194.96)" class="st6" cx="477.15" cy="194.97" r="36.91"/><path class="st6" d="M477.15 223.83c-15.92 0-28.87-12.95-28.87-28.87s12.95-28.87 28.87-28.87c15.92 0 28.87 12.95 28.87 28.87s-12.96 28.87-28.87 28.87zm0-55.06c-14.45 0-26.2 11.75-26.2 26.2s11.75 26.2 26.2 26.2 26.2-11.75 26.2-26.2-11.76-26.2-26.2-26.2z"/><path class="st7" d="M482.08 222.53h-10.35l3.32-28.35-3.79-26.92 11.82.73-3.94 26.19z"/><path class="st7" d="M455.69 212.96l-5.17-8.96 26.21-11.29 21.42-16.75 5.27 10.6-24.65 9.69z"/><path class="st7" d="M451.54 184.29l5.68-8.64 21.86 18.34 24.58 11.62-7.1 9.48-19.72-17.68z"/><circle class="st7" cx="477.09" cy="194.92" r="9.63"/></svg>