<svg version="1.1" id="Слой_1" xmlns="http://www.w3.org/2000/svg" x="0" y="0" viewBox="0 0 585 432" xml:space="preserve"><style/><path d="M130.06 414.33c-13.2-7.62-26.16-14.89-38.78-22.69-1.48-.91-2.19-5.13-1.47-7.19 4.39-12.51 9.05-24.94 14.15-37.17 1.98-4.76.62-7.25-2.29-11.23-7.34-10.02-15.08-10.18-25.5-5.13-10.67 5.17-22.15 8.67-34.19 13.24-8.11-14.06-16.16-28.01-24.49-42.44 11.95-9.71 23.29-19.28 35.05-28.3 4.34-3.33 6.14-6.44 3.52-11.47-.49-.94-.81-2.06-.87-3.12-.52-8.65-4.74-12.29-13.7-13.07-13.17-1.15-26.19-4.02-40.27-6.32V205.8c0-15.15 0-15.08 15.2-17.33 10.17-1.5 20.39-2.89 30.42-5.07 2.69-.58 6.1-3.44 6.94-5.99 5.38-16.2 5.16-16.25-8.33-27.05-7.4-5.92-14.57-12.15-22.18-17.78-4.47-3.31-4.61-6.1-1.74-10.68 6.17-9.86 11.92-20 17.42-30.25 2.26-4.2 4.42-5.11 8.93-3.27 12.27 5.02 24.84 9.3 37.1 14.35 4.53 1.87 6.98.5 10.65-2.27 10.04-7.58 11.56-15.57 5.52-26.72-4.85-8.97-7.81-19.01-11.03-28.76-.63-1.91.65-5.89 2.29-6.89 12.2-7.5 24.72-14.49 37.55-21.89 9.54 11.72 19.09 23.11 28.23 34.83 3.28 4.2 6.29 4.72 11.62 3.97 11.94-1.67 16.67-7.43 17.29-19.42.62-11.78 3.63-23.43 5.66-35.56H241c2.23 13.86 4.34 27.68 6.73 41.46.77 4.47-.09 10.23 7.15 10.75 7.49.53 14.91 8.14 22.04-2.67 7.71-11.67 17.5-21.96 26.83-33.4 13.96 8.05 27.67 15.96 41.82 24.12-5.5 14.43-10.55 28.38-16.2 42.09-2.09 5.07-.68 7.7 2.51 11.93 7.42 9.85 14.98 10.44 25.51 5.22 10.59-5.25 22.09-8.69 34.18-13.3 7.98 13.84 15.88 27.53 24.12 41.81-11.68 9.5-22.8 18.93-34.36 27.79-4.83 3.71-6.5 7.31-3.89 12.98 1.22 2.66.97 6.11 2.5 8.49 1.63 2.54 4.32 5.55 6.99 6.08 13.27 2.61 26.72 4.3 40.02 6.79 2.13.4 5.34 3.16 5.43 4.95.51 10.77.25 21.58.25 33.08H321.59c-.55-9.18-.53-18.85-1.81-28.33-6.8-50.36-50.87-88.57-102.27-89.06-50.7-.48-95.52 37.27-103.34 87.04-9.92 63.1 38.17 120.13 102.04 120.82 20.85.23 41.72.27 62.56-.17 3.8-.08 8.4-2.06 11.15-4.7 16.19-15.59 32.08-31.5 47.74-47.63 4.27-4.4 8.54-6.35 14.79-6.32 54.98.24 109.97.08 164.95.24 5.56.02 9.08-.8 12.09-6.54 6.56-12.49 20.79-17.56 34.11-13.63 12.67 3.74 21.38 15.34 21.38 28.45 0 13.63-8.9 25.45-21.8 28.95-13.54 3.68-27.35-1.61-34-14.04-2.6-4.86-5.51-6.24-10.67-6.22-53.63.16-107.26.01-160.89.31-3.78.02-8.42 2.01-11.16 4.65-16.77 16.17-32.95 32.94-49.72 49.1-2.72 2.63-7.35 4.47-11.16 4.57-17.58.48-35.19.21-53.49.21v30.03c2.63.15 5.47.44 8.32.45 18.42.05 36.84-.22 55.25.17 6.45.14 11.12-1.62 15.66-6.33 15.61-16.17 31.5-32.09 47.71-47.65 2.9-2.79 7.83-4.82 11.86-4.86 33.04-.38 66.09-.29 99.13-.12 5.25.03 8.64-.74 11.49-6.19 6.55-12.51 20.63-17.76 33.97-13.96 13.02 3.7 21.8 15.46 21.69 29.03-.11 13.52-9.09 25.09-22.23 28.66-12.96 3.52-26.74-1.8-33.34-13.97-2.75-5.07-5.74-6.58-11.25-6.54-30.88.26-61.76-.06-92.63.34-4.01.05-8.9 2.15-11.8 4.94-16.41 15.75-32.46 31.89-48.34 48.18-3.93 4.03-7.91 5.52-13.49 5.45-23.8-.3-47.6-.13-72.06-.13v30.36c2.37.11 4.95.34 7.54.34 26 .02 52.01.22 78-.23 4.01-.07 8.87-2.23 11.79-5.04 16.59-15.96 32.56-32.56 49.12-48.54 2.74-2.64 7.33-4.45 11.18-4.66 11.34-.6 22.74-.32 34.11-.15 4.37.07 7.18-.67 9.51-5.29 6.61-13.08 20.31-18.8 34.2-15.31 12.71 3.19 22.18 15.39 22.26 28.67.08 13.34-9.06 25.53-21.81 29.08-13.61 3.78-27.72-1.95-34.45-14.83-2.25-4.32-4.87-5.15-9.29-5.77-23.51-3.32-42.15 3.29-56.97 22.85-8.91 11.76-20.65 21.42-31.43 31.7-2.3 2.19-5.91 4.23-8.93 4.25-43.61.24-87.21.13-130.82.08-1.05 0-2.09-.34-3.8-.64-2.38-14.61-5.09-29.22-7-43.93-.73-5.62-3.54-6.88-8.26-8.88-11.02-4.68-17.55-1.25-23.86 8.13-6.7 10.03-15.1 18.98-23.06 28.75zm377.1-85.13c6.88.09 12.95-5.91 13.03-12.87.09-7.1-5.63-12.94-12.71-13-7.12-.06-12.95 5.64-13 12.7-.05 7.06 5.75 13.08 12.68 13.17zm-47.25 21.65c-6.97-.08-12.98 5.8-13.08 12.79-.1 6.91 5.86 13.03 12.79 13.13 6.92.1 12.9-5.82 12.95-12.82.06-7.12-5.64-13.02-12.66-13.1zm95.53-95.29c-6.87-.2-13.13 5.72-13.31 12.59-.18 6.95 5.59 13 12.61 13.21 7.04.22 13.1-5.48 13.29-12.48.18-6.91-5.69-13.12-12.59-13.32z" fill="#ffcb33"/><path d="M216.4 271.26c-32.03-.25-56.42-25.79-56.31-58.96.1-29 26.77-54.44 56.94-54.33 30.65.12 57.25 26.06 56.76 55.34-.56 33.26-25.27 58.21-57.39 57.95zm25.88-54.89c-.08-15.08-11.52-26.75-25.93-26.47-13.96.28-25 12.16-24.9 26.79.09 12.6 12.7 24.18 26.03 23.9 13.05-.29 24.86-11.82 24.8-24.22z" fill="#ffe406"/></svg>