<?xml version="1.0" encoding="utf-8"?>
<!-- Generator: Adobe Illustrator 24.2.3, SVG Export Plug-In . SVG Version: 6.00 Build 0)  -->
<svg version="1.1" id="Слой_1" xmlns="http://www.w3.org/2000/svg" xmlns:xlink="http://www.w3.org/1999/xlink" x="0px" y="0px"
	 viewBox="0 0 585 432" style="enable-background:new 0 0 585 432;" xml:space="preserve">
<style type="text/css">
	.st0{clip-path:url(#SVGID_2_);fill:#FFE406;}
	.st1{opacity:0.5;clip-path:url(#SVGID_2_);}
	.st2{fill:#A3CAFF;}
	.st3{fill:#FF8C00;}
	.st4{clip-path:url(#SVGID_2_);fill:#FFEDA1;}
	.st5{clip-path:url(#SVGID_2_);}
	.st6{fill:#FFCB33;}
	.st7{fill:#FFEDA1;}
	.st8{fill:#2A356B;}
	.st9{clip-path:url(#SVGID_2_);fill:#FFCB33;}
	.st10{clip-path:url(#SVGID_2_);fill:#A3CAFF;}
	.st11{clip-path:url(#SVGID_2_);fill:#FF8C00;}
	.st12{clip-path:url(#SVGID_2_);fill:#2A356B;}
	.st13{fill:#1B254E;}
	.st14{clip-path:url(#SVGID_2_);fill:#C32C28;}
	.st15{clip-path:url(#SVGID_2_);fill:#FF7400;}
	.st16{fill:#FFE406;}
	.st17{clip-path:url(#SVGID_2_);fill:#FFEF6E;}
	.st18{clip-path:url(#SVGID_4_);fill:#FFE473;}
	.st19{fill:#FFFFFF;}
	.st20{fill:#FF6567;}
	.st21{fill:url(#SVGID_5_);}
	.st22{fill:#ADD8C3;}
	.st23{fill:none;stroke:#FFFFFF;stroke-miterlimit:10;}
	.st24{fill:#A2CBAB;}
	.st25{fill:#96CDA1;}
	.st26{opacity:0.76;}
	.st27{fill:#C4E9CD;}
	.st28{fill:url(#SVGID_6_);}
	.st29{fill:url(#SVGID_7_);}
	.st30{fill:#F6E6BE;}
	.st31{fill:url(#SVGID_8_);}
	.st32{fill:url(#SVGID_9_);}
	.st33{fill:url(#SVGID_10_);}
	.st34{fill:#E4EEC4;}
	.st35{fill:#EFFBD2;}
	.st36{fill:url(#SVGID_11_);}
	.st37{fill:url(#SVGID_12_);}
	.st38{fill:url(#SVGID_13_);}
	.st39{fill:url(#SVGID_14_);}
	.st40{fill:#FFE493;}
	.st41{clip-path:url(#SVGID_16_);fill:url(#SVGID_17_);}
	.st42{fill:#5B2A1E;}
	.st43{fill:#907673;}
	.st44{fill:url(#SVGID_18_);}
	.st45{fill:url(#SVGID_19_);}
	.st46{fill:url(#SVGID_20_);}
	.st47{fill:url(#SVGID_21_);}
	.st48{fill:#FE82C8;}
	.st49{opacity:0.62;clip-path:url(#SVGID_23_);fill:#FFFFFF;}
	.st50{opacity:0.75;clip-path:url(#SVGID_23_);fill:#FFFFFF;}
	.st51{opacity:0.41;clip-path:url(#SVGID_23_);fill:#FFFFFF;}
	.st52{clip-path:url(#SVGID_23_);fill:none;}
	.st53{clip-path:url(#SVGID_25_);}
	.st54{opacity:0.26;fill:#FFFFFF;}
	.st55{opacity:0.69;fill:#FFFFFF;}
	.st56{fill:none;}
	.st57{opacity:0.16;fill:#FFFFFF;}
	.st58{opacity:0.3;fill:#FFFFFF;}
	.st59{opacity:0.23;fill:#FFFFFF;}
	.st60{opacity:0.24;fill:#FFFFFF;}
	.st61{opacity:0.17;}
	.st62{opacity:0.05;fill:#E2E8E4;}
	.st63{clip-path:url(#SVGID_27_);}
	.st64{opacity:0.76;clip-path:url(#SVGID_27_);fill:#FFFFFF;}
	.st65{clip-path:url(#SVGID_27_);fill:url(#SVGID_28_);}
	.st66{clip-path:url(#SVGID_27_);fill:none;stroke:#FFFFFF;stroke-width:2;stroke-linecap:round;stroke-miterlimit:10;}
	.st67{clip-path:url(#SVGID_27_);fill:url(#SVGID_29_);}
	.st68{clip-path:url(#SVGID_27_);fill:url(#SVGID_30_);}
	.st69{clip-path:url(#SVGID_27_);fill:url(#SVGID_31_);}
	.st70{clip-path:url(#SVGID_27_);fill:url(#SVGID_32_);}
	.st71{clip-path:url(#SVGID_27_);fill:#FFFFFF;}
	.st72{clip-path:url(#SVGID_27_);fill:url(#SVGID_33_);}
	.st73{opacity:0.62;clip-path:url(#SVGID_35_);fill:#FFFFFF;}
	.st74{clip-path:url(#SVGID_35_);fill:#FFFFFF;}
	.st75{opacity:0.41;clip-path:url(#SVGID_35_);fill:#FFFFFF;}
	.st76{clip-path:url(#SVGID_35_);fill:none;}
	.st77{clip-path:url(#SVGID_37_);}
	.st78{fill:url(#SVGID_38_);}
	.st79{opacity:0.74;clip-path:url(#SVGID_40_);fill:url(#SVGID_41_);}
	.st80{fill:#E5E5E5;}
	.st81{fill:none;stroke:#4D4D4D;stroke-width:0.75;stroke-linecap:round;stroke-miterlimit:10;}
	.st82{fill:url(#SVGID_42_);}
	.st83{opacity:0.74;fill:url(#SVGID_43_);}
	.st84{opacity:0.74;fill:url(#SVGID_44_);}
	.st85{opacity:0.74;fill:url(#SVGID_45_);}
	.st86{opacity:0.74;fill:url(#SVGID_46_);}
	.st87{fill:url(#SVGID_47_);}
	.st88{opacity:0.66;}
	.st89{opacity:0.37;fill:#FFFFFF;}
	.st90{fill:url(#SVGID_48_);}
	.st91{fill:url(#SVGID_49_);}
	.st92{opacity:0.44;clip-path:url(#SVGID_51_);fill:#FFFFD9;}
	.st93{opacity:0.43;clip-path:url(#SVGID_53_);fill:#FFFFFF;}
	.st94{clip-path:url(#SVGID_53_);fill:none;stroke:#FFFFFF;stroke-miterlimit:10;}
	.st95{opacity:0.76;clip-path:url(#SVGID_53_);fill:#FFFFFF;}
	.st96{clip-path:url(#SVGID_53_);fill:#FFFFFF;}
	.st97{opacity:0.08;clip-path:url(#SVGID_53_);fill:#FFFFFF;}
	.st98{opacity:0.27;clip-path:url(#SVGID_53_);fill:#FFFFFF;}
	.st99{opacity:0.37;clip-path:url(#SVGID_53_);fill:#FFFFFF;}
	.st100{clip-path:url(#SVGID_53_);fill:none;}
	.st101{fill:url(#SVGID_54_);}
	.st102{opacity:0.62;clip-path:url(#SVGID_56_);fill:#FFFFFF;}
	.st103{clip-path:url(#SVGID_56_);fill:#FFFFFF;}
	.st104{opacity:0.41;clip-path:url(#SVGID_56_);fill:#FFFFFF;}
	.st105{clip-path:url(#SVGID_56_);fill:none;}
	.st106{clip-path:url(#SVGID_58_);}
	.st107{opacity:0.55;fill:url(#SVGID_59_);}
	.st108{fill:url(#SVGID_60_);}
	.st109{fill:url(#SVGID_61_);}
	.st110{opacity:0.28;}
	.st111{opacity:0.56;clip-path:url(#SVGID_63_);fill:#FFFFFF;}
	.st112{opacity:0.43;clip-path:url(#SVGID_65_);fill:#FFFFFF;}
	.st113{clip-path:url(#SVGID_65_);fill:none;stroke:#FFFFFF;stroke-miterlimit:10;}
	.st114{opacity:0.76;clip-path:url(#SVGID_65_);fill:#FFFFFF;}
	.st115{clip-path:url(#SVGID_65_);fill:#FFFFFF;}
	.st116{opacity:0.08;clip-path:url(#SVGID_65_);fill:#FFFFFF;}
	.st117{opacity:0.27;clip-path:url(#SVGID_65_);fill:#FFFFFF;}
	.st118{opacity:0.37;clip-path:url(#SVGID_65_);fill:#FFFFFF;}
	.st119{clip-path:url(#SVGID_65_);fill:none;}
	.st120{clip-path:url(#SVGID_67_);fill:none;}
	.st121{opacity:0.46;}
	.st122{opacity:0.86;fill:#FFFFFF;}
	.st123{opacity:0.4;}
	.st124{opacity:0.73;fill:#FFFFFF;}
	.st125{opacity:0.54;clip-path:url(#SVGID_69_);fill:#FFFFFF;}
	.st126{fill:#FF8A8A;}
	.st127{opacity:0.75;fill:#FFFFFF;}
	.st128{fill:#FFC181;}
	.st129{clip-path:url(#SVGID_71_);fill:#FFDFBD;}
	.st130{clip-path:url(#SVGID_71_);fill:#FF9D00;}
	.st131{clip-path:url(#SVGID_71_);fill:#FFF3DF;}
	.st132{clip-path:url(#SVGID_73_);fill:#FFBAE4;}
	.st133{opacity:0.8;clip-path:url(#SVGID_73_);fill:#FE82C8;}
	.st134{clip-path:url(#SVGID_73_);fill:#FE82C8;}
	.st135{opacity:0.79;clip-path:url(#SVGID_73_);fill:#FFBAE4;}
	.st136{fill:#FFFEEA;}
	.st137{fill:#58D196;}
	.st138{fill:#A6E5C3;}
	.st139{fill:#D2F2E1;}
	.st140{opacity:0.44;fill:#FFFFFF;}
	.st141{clip-path:url(#SVGID_75_);fill:#FFF9C1;}
	.st142{opacity:0.86;fill:#FFCCD5;}
	.st143{opacity:0.62;clip-path:url(#SVGID_77_);fill:#FFFFFF;}
	.st144{opacity:0.75;clip-path:url(#SVGID_77_);fill:#FFFFFF;}
	.st145{opacity:0.41;clip-path:url(#SVGID_77_);fill:#FFFFFF;}
	.st146{clip-path:url(#SVGID_77_);fill:none;}
	.st147{clip-path:url(#SVGID_79_);}
	.st148{opacity:0.44;clip-path:url(#SVGID_81_);fill:#FFFFFF;}
	.st149{opacity:0.43;clip-path:url(#SVGID_83_);fill:#FFFFFF;}
	.st150{clip-path:url(#SVGID_83_);fill:none;stroke:#FFFFFF;stroke-miterlimit:10;}
	.st151{opacity:0.76;clip-path:url(#SVGID_83_);fill:#FFFFFF;}
	.st152{clip-path:url(#SVGID_83_);fill:#FFFFFF;}
	.st153{opacity:0.08;clip-path:url(#SVGID_83_);fill:#FFFFFF;}
	.st154{opacity:0.27;clip-path:url(#SVGID_83_);fill:#FFFFFF;}
	.st155{opacity:0.37;clip-path:url(#SVGID_83_);fill:#FFFFFF;}
	.st156{clip-path:url(#SVGID_83_);fill:none;}
	.st157{opacity:0.54;clip-path:url(#SVGID_85_);fill:#FFFFFF;}
	.st158{opacity:0.62;fill:#FFFFFF;}
	.st159{opacity:0.41;fill:#FFFFFF;}
	.st160{opacity:0.43;fill:#FFFFFF;}
	.st161{opacity:0.76;fill:#FFFFFF;}
	.st162{opacity:0.08;fill:#FFFFFF;}
	.st163{opacity:0.27;fill:#FFFFFF;}
	.st164{opacity:0.54;fill:#FFFFFF;}
	.st165{clip-path:url(#SVGID_87_);fill:#FF6567;}
	.st166{clip-path:url(#SVGID_87_);fill:#FF8A8A;}
	.st167{clip-path:url(#SVGID_87_);fill:#FFC2C1;}
	.st168{clip-path:url(#SVGID_87_);fill:#FFFFFF;}
	.st169{clip-path:url(#SVGID_89_);fill:#E2E9FF;}
	.st170{clip-path:url(#SVGID_89_);fill:#EEF2FF;}
	.st171{opacity:0.54;clip-path:url(#SVGID_89_);fill:#EEF2FF;}
	.st172{opacity:0.54;clip-path:url(#SVGID_89_);fill:#8FAAF0;}
	.st173{clip-path:url(#SVGID_91_);}
	.st174{fill:#FF6B81;}
	.st175{clip-path:url(#SVGID_91_);fill:none;}
	.st176{fill:#FF1B6F;}
	.st177{clip-path:url(#SVGID_93_);fill:#FFDFBD;}
	.st178{clip-path:url(#SVGID_93_);fill:#FF9D00;}
	.st179{clip-path:url(#SVGID_93_);fill:#FFF3DF;}
	.st180{clip-path:url(#SVGID_95_);fill:#F0C6F4;}
	.st181{opacity:0.8;clip-path:url(#SVGID_95_);fill:#F8E3F8;}
	.st182{clip-path:url(#SVGID_95_);fill:#F8E3F8;}
	.st183{opacity:0.79;clip-path:url(#SVGID_95_);fill:#F0C6F4;}
	.st184{clip-path:url(#SVGID_97_);fill:#FFF9C1;}
	.st185{clip-path:url(#SVGID_99_);fill:#FFC5D6;}
	.st186{clip-path:url(#SVGID_99_);fill:#FF94B3;}
	.st187{clip-path:url(#SVGID_99_);fill:#FF6794;}
	.st188{clip-path:url(#SVGID_99_);fill:#FFFFFF;}
	.st189{clip-path:url(#SVGID_101_);fill:#698DE6;}
	.st190{clip-path:url(#SVGID_101_);fill:#8FAAF0;}
	.st191{opacity:0.54;clip-path:url(#SVGID_101_);fill:#8FAAF0;}
	.st192{clip-path:url(#SVGID_103_);}
	.st193{clip-path:url(#SVGID_103_);fill:none;}
	.st194{opacity:0.46;clip-path:url(#SVGID_107_);}
	.st195{clip-path:url(#SVGID_107_);fill:none;}
	.st196{fill:none;stroke:#FFFFFF;stroke-width:2;stroke-miterlimit:10;}
	.st197{opacity:0.45;fill:#FFFFFF;}
	.st198{opacity:0.8;fill:#FFFFFF;}
	.st199{opacity:0.79;fill:#FFFFFF;}
	.st200{fill:#F2C5AA;}
	.st201{fill:none;stroke:#FFFFFF;stroke-width:0.75;stroke-miterlimit:10;}
	.st202{fill:#FFFFFF;stroke:#FFFFFF;stroke-width:0.25;stroke-miterlimit:10;}
	.st203{fill:#D3C1B2;}
	.st204{fill:#FFC5D6;}
	.st205{clip-path:url(#SVGID_113_);fill:#F787A5;}
	.st206{clip-path:url(#SVGID_113_);fill:#FFE9F2;}
	.st207{clip-path:url(#SVGID_113_);fill:#D3CFB3;}
	.st208{clip-path:url(#SVGID_113_);fill:#FFDBE5;}
	.st209{clip-path:url(#SVGID_113_);}
	.st210{fill:#FFE9F2;}
	.st211{fill:#F787A5;}
	.st212{fill:#F2CCC1;}
	.st213{fill:#DF4E50;}
	.st214{clip-path:url(#SVGID_113_);fill:#FFC5D6;}
	.st215{fill:#FFDBE5;}
	.st216{fill:#FFB9C3;}
	.st217{fill:#FB91B5;}
	.st218{fill:#E3A180;}
	.st219{fill:#92693D;}
	.st220{fill:#FBBACC;}
	.st221{fill:#E6678D;}
	.st222{fill:#574435;}
	.st223{fill:#C9A47C;}
	.st224{fill:#641F1E;}
	.st225{fill:#F15E89;}
	.st226{fill:#E7005E;}
	.st227{fill:#DEB78A;}
	.st228{fill:#DFB78A;}
	.st229{fill:#FF6794;}
	.st230{fill:#D72264;}
	.st231{fill:#F7F7F7;}
	.st232{fill:#F2F2F2;}
	.st233{fill:#FFFBF0;}
	.st234{fill:#FFBFCF;}
	.st235{fill:#FF9DAE;}
	.st236{fill:#FFC2C1;}
	.st237{fill:#FFCCD5;}
	.st238{fill:#B49E8F;}
	.st239{fill:#FFE2EA;}
	.st240{fill:#A3C5DC;}
	.st241{fill:#DA956B;}
	.st242{fill:#BDA595;}
	.st243{fill:#583B34;}
	.st244{fill:#63443C;}
	.st245{fill:#B2D0E5;}
	.st246{fill:#FCFCFB;}
	.st247{fill:#D0ACA1;}
	.st248{fill:#A2C4DB;}
	.st249{fill:#E1D0C8;}
	.st250{fill:#9C7972;}
	.st251{fill:#77573F;}
	.st252{fill:#F3769C;}
	.st253{fill:#FBFBF9;}
	.st254{fill:#F8C4DC;}
	.st255{fill:#E4BAB5;}
	.st256{clip-path:url(#SVGID_115_);fill:#F787A5;}
	.st257{clip-path:url(#SVGID_115_);fill:#FFE9F2;}
	.st258{clip-path:url(#SVGID_115_);fill:#D3CFB3;}
	.st259{clip-path:url(#SVGID_115_);fill:#FFDBE5;}
	.st260{clip-path:url(#SVGID_115_);}
	.st261{clip-path:url(#SVGID_115_);fill:#FFC5D6;}
	.st262{fill:#00C377;}
	.st263{fill:#88E5AF;}
	.st264{fill:#00B45A;}
	.st265{fill:#7FDAAA;}
	.st266{fill:#F2BC3A;}
	.st267{fill:#B99F65;}
	.st268{fill:#98D284;}
	.st269{fill:#3C3724;}
	.st270{fill:#D6BEA2;}
	.st271{fill:#9C8274;}
	.st272{fill:#587147;}
	.st273{fill:#E7D6BE;}
	.st274{fill:#5CC689;}
	.st275{clip-path:url(#SVGID_117_);fill:#A6E5C3;}
	.st276{clip-path:url(#SVGID_117_);fill:#FFFFFF;}
	.st277{clip-path:url(#SVGID_117_);fill:#58D196;}
	.st278{fill:#FFEF6E;}
	.st279{fill:#FFE200;}
	.st280{clip-path:url(#SVGID_119_);fill:#FDA157;}
	.st281{clip-path:url(#SVGID_119_);fill-rule:evenodd;clip-rule:evenodd;fill:#FF8429;}
	.st282{clip-path:url(#SVGID_119_);fill:#F35000;}
	.st283{clip-path:url(#SVGID_119_);fill:#F9B946;}
	.st284{fill:#F35000;}
	.st285{fill:#FF8429;}
	.st286{fill:#FFAC33;}
	.st287{fill:#E56D00;}
	.st288{fill:#EF6406;}
	.st289{fill:#FF9C00;}
	.st290{fill:#130077;}
	.st291{fill:#FFB58D;}
	.st292{opacity:0.3;}
	.st293{fill:#FF7300;}
	.st294{fill:#6E0000;}
	.st295{fill-rule:evenodd;clip-rule:evenodd;fill:#FF9C00;}
	.st296{fill-rule:evenodd;clip-rule:evenodd;fill:url(#SVGID_120_);}
	.st297{opacity:0.3;fill-rule:evenodd;clip-rule:evenodd;fill:#A4002C;}
	.st298{fill-rule:evenodd;clip-rule:evenodd;fill:url(#SVGID_121_);}
	.st299{fill-rule:evenodd;clip-rule:evenodd;fill:url(#SVGID_122_);}
	.st300{opacity:0.5;fill-rule:evenodd;clip-rule:evenodd;fill:url(#SVGID_123_);}
	.st301{fill-rule:evenodd;clip-rule:evenodd;fill:#FFC485;}
	.st302{fill-rule:evenodd;clip-rule:evenodd;fill:url(#SVGID_124_);}
	.st303{fill-rule:evenodd;clip-rule:evenodd;fill:url(#SVGID_125_);}
	.st304{fill-rule:evenodd;clip-rule:evenodd;fill:url(#SVGID_126_);}
	.st305{opacity:0.5;fill-rule:evenodd;clip-rule:evenodd;fill:url(#SVGID_127_);}
	.st306{fill-rule:evenodd;clip-rule:evenodd;fill:#FDA157;}
	.st307{opacity:0.5;fill-rule:evenodd;clip-rule:evenodd;fill:#FDA157;}
	.st308{fill-rule:evenodd;clip-rule:evenodd;fill:#FF8429;}
	.st309{fill-rule:evenodd;clip-rule:evenodd;fill:#FFAC33;}
	.st310{opacity:0.62;fill-rule:evenodd;clip-rule:evenodd;fill:#C8002A;}
	.st311{opacity:0.5;fill-rule:evenodd;clip-rule:evenodd;fill:#FF8429;}
	.st312{opacity:0.5;fill-rule:evenodd;clip-rule:evenodd;fill:#8F5472;}
	.st313{opacity:0.3;fill-rule:evenodd;clip-rule:evenodd;fill:url(#SVGID_128_);}
	.st314{opacity:0.5;fill-rule:evenodd;clip-rule:evenodd;fill:url(#SVGID_129_);}
	.st315{opacity:0.3;fill-rule:evenodd;clip-rule:evenodd;fill:url(#SVGID_130_);}
	.st316{opacity:0.3;fill-rule:evenodd;clip-rule:evenodd;fill:url(#SVGID_131_);}
	.st317{clip-path:url(#SVGID_133_);}
	.st318{clip-path:url(#SVGID_133_);fill:#FF8429;}
	.st319{fill:#FDA157;}
	.st320{clip-path:url(#SVGID_135_);}
	.st321{fill:#F58800;}
	.st322{clip-path:url(#SVGID_137_);}
	.st323{fill:#F9B946;}
	.st324{clip-path:url(#SVGID_139_);}
	.st325{clip-path:url(#SVGID_139_);fill:#FF8429;}
	.st326{fill-rule:evenodd;clip-rule:evenodd;fill:url(#SVGID_140_);}
	.st327{fill-rule:evenodd;clip-rule:evenodd;fill:url(#SVGID_141_);}
	.st328{fill-rule:evenodd;clip-rule:evenodd;fill:url(#SVGID_142_);}
	.st329{opacity:0.5;fill-rule:evenodd;clip-rule:evenodd;fill:url(#SVGID_143_);}
	.st330{fill-rule:evenodd;clip-rule:evenodd;fill:url(#SVGID_144_);}
	.st331{fill-rule:evenodd;clip-rule:evenodd;fill:url(#SVGID_145_);}
	.st332{fill-rule:evenodd;clip-rule:evenodd;fill:url(#SVGID_146_);}
	.st333{opacity:0.5;fill-rule:evenodd;clip-rule:evenodd;fill:url(#SVGID_147_);}
	.st334{opacity:0.3;fill-rule:evenodd;clip-rule:evenodd;fill:url(#SVGID_148_);}
	.st335{opacity:0.5;fill-rule:evenodd;clip-rule:evenodd;fill:url(#SVGID_149_);}
	.st336{opacity:0.3;fill-rule:evenodd;clip-rule:evenodd;fill:url(#SVGID_150_);}
	.st337{opacity:0.3;fill-rule:evenodd;clip-rule:evenodd;fill:url(#SVGID_151_);}
	.st338{opacity:0.88;fill:#FFFEF3;}
	.st339{fill:#FFD066;}
	.st340{fill:#B0ACAD;}
	.st341{fill:#FFE473;}
	.st342{fill:#FFE888;}
	.st343{fill:#F7C800;}
	.st344{fill:#FFEB97;}
	.st345{clip-path:url(#SVGID_153_);fill:#FFCB33;}
	.st346{clip-path:url(#SVGID_153_);fill:#FFE406;}
</style>
<path class="st6" d="M130.06,414.33c-13.2-7.62-26.16-14.89-38.78-22.69c-1.48-0.91-2.19-5.13-1.47-7.19
	c4.39-12.51,9.05-24.94,14.15-37.17c1.98-4.76,0.62-7.25-2.29-11.23c-7.34-10.02-15.08-10.18-25.5-5.13
	c-10.67,5.17-22.15,8.67-34.19,13.24c-8.11-14.06-16.16-28.01-24.49-42.44c11.95-9.71,23.29-19.28,35.05-28.3
	c4.34-3.33,6.14-6.44,3.52-11.47c-0.49-0.94-0.81-2.06-0.87-3.12c-0.52-8.65-4.74-12.29-13.7-13.07
	c-13.17-1.15-26.19-4.02-40.27-6.32c0-11.17,0-22.41,0-33.64c0-15.15,0-15.08,15.2-17.33c10.17-1.5,20.39-2.89,30.42-5.07
	c2.69-0.58,6.1-3.44,6.94-5.99c5.38-16.2,5.16-16.25-8.33-27.05c-7.4-5.92-14.57-12.15-22.18-17.78c-4.47-3.31-4.61-6.1-1.74-10.68
	c6.17-9.86,11.92-20,17.42-30.25c2.26-4.2,4.42-5.11,8.93-3.27c12.27,5.02,24.84,9.3,37.1,14.35c4.53,1.87,6.98,0.5,10.65-2.27
	c10.04-7.58,11.56-15.57,5.52-26.72c-4.85-8.97-7.81-19.01-11.03-28.76c-0.63-1.91,0.65-5.89,2.29-6.89
	c12.2-7.5,24.72-14.49,37.55-21.89c9.54,11.72,19.09,23.11,28.23,34.83c3.28,4.2,6.29,4.72,11.62,3.97
	c11.94-1.67,16.67-7.43,17.29-19.42c0.62-11.78,3.63-23.43,5.66-35.56c16.11,0,31.72,0,48.24,0c2.23,13.86,4.34,27.68,6.73,41.46
	c0.77,4.47-0.09,10.23,7.15,10.75c7.49,0.53,14.91,8.14,22.04-2.67c7.71-11.67,17.5-21.96,26.83-33.4
	c13.96,8.05,27.67,15.96,41.82,24.12c-5.5,14.43-10.55,28.38-16.2,42.09c-2.09,5.07-0.68,7.7,2.51,11.93
	c7.42,9.85,14.98,10.44,25.51,5.22c10.59-5.25,22.09-8.69,34.18-13.3c7.98,13.84,15.88,27.53,24.12,41.81
	c-11.68,9.5-22.8,18.93-34.36,27.79c-4.83,3.71-6.5,7.31-3.89,12.98c1.22,2.66,0.97,6.11,2.5,8.49c1.63,2.54,4.32,5.55,6.99,6.08
	c13.27,2.61,26.72,4.3,40.02,6.79c2.13,0.4,5.34,3.16,5.43,4.95c0.51,10.77,0.25,21.58,0.25,33.08c-37.3,0-73.98,0-111.04,0
	c-0.55-9.18-0.53-18.85-1.81-28.33c-6.8-50.36-50.87-88.57-102.27-89.06c-50.7-0.48-95.52,37.27-103.34,87.04
	c-9.92,63.1,38.17,120.13,102.04,120.82c20.85,0.23,41.72,0.27,62.56-0.17c3.8-0.08,8.4-2.06,11.15-4.7
	c16.19-15.59,32.08-31.5,47.74-47.63c4.27-4.4,8.54-6.35,14.79-6.32c54.98,0.24,109.97,0.08,164.95,0.24
	c5.56,0.02,9.08-0.8,12.09-6.54c6.56-12.49,20.79-17.56,34.11-13.63c12.67,3.74,21.38,15.34,21.38,28.45
	c0,13.63-8.9,25.45-21.8,28.95c-13.54,3.68-27.35-1.61-34-14.04c-2.6-4.86-5.51-6.24-10.67-6.22
	c-53.63,0.16-107.26,0.01-160.89,0.31c-3.78,0.02-8.42,2.01-11.16,4.65c-16.77,16.17-32.95,32.94-49.72,49.1
	c-2.72,2.63-7.35,4.47-11.16,4.57c-17.58,0.48-35.19,0.21-53.49,0.21c0,9.93,0,19.51,0,30.03c2.63,0.15,5.47,0.44,8.32,0.45
	c18.42,0.05,36.84-0.22,55.25,0.17c6.45,0.14,11.12-1.62,15.66-6.33c15.61-16.17,31.5-32.09,47.71-47.65
	c2.9-2.79,7.83-4.82,11.86-4.86c33.04-0.38,66.09-0.29,99.13-0.12c5.25,0.03,8.64-0.74,11.49-6.19
	c6.55-12.51,20.63-17.76,33.97-13.96c13.02,3.7,21.8,15.46,21.69,29.03c-0.11,13.52-9.09,25.09-22.23,28.66
	c-12.96,3.52-26.74-1.8-33.34-13.97c-2.75-5.07-5.74-6.58-11.25-6.54c-30.88,0.26-61.76-0.06-92.63,0.34
	c-4.01,0.05-8.9,2.15-11.8,4.94c-16.41,15.75-32.46,31.89-48.34,48.18c-3.93,4.03-7.91,5.52-13.49,5.45
	c-23.8-0.3-47.6-0.13-72.06-0.13c0,10.13,0,19.72,0,30.36c2.37,0.11,4.95,0.34,7.54,0.34c26,0.02,52.01,0.22,78-0.23
	c4.01-0.07,8.87-2.23,11.79-5.04c16.59-15.96,32.56-32.56,49.12-48.54c2.74-2.64,7.33-4.45,11.18-4.66
	c11.34-0.6,22.74-0.32,34.11-0.15c4.37,0.07,7.18-0.67,9.51-5.29c6.61-13.08,20.31-18.8,34.2-15.31
	c12.71,3.19,22.18,15.39,22.26,28.67c0.08,13.34-9.06,25.53-21.81,29.08c-13.61,3.78-27.72-1.95-34.45-14.83
	c-2.25-4.32-4.87-5.15-9.29-5.77c-23.51-3.32-42.15,3.29-56.97,22.85c-8.91,11.76-20.65,21.42-31.43,31.7
	c-2.3,2.19-5.91,4.23-8.93,4.25c-43.61,0.24-87.21,0.13-130.82,0.08c-1.05,0-2.09-0.34-3.8-0.64c-2.38-14.61-5.09-29.22-7-43.93
	c-0.73-5.62-3.54-6.88-8.26-8.88c-11.02-4.68-17.55-1.25-23.86,8.13C146.42,395.61,138.02,404.56,130.06,414.33z M507.16,329.2
	c6.88,0.09,12.95-5.91,13.03-12.87c0.09-7.1-5.63-12.94-12.71-13c-7.12-0.06-12.95,5.64-13,12.7
	C494.43,323.09,500.23,329.11,507.16,329.2z M459.91,350.85c-6.97-0.08-12.98,5.8-13.08,12.79c-0.1,6.91,5.86,13.03,12.79,13.13
	c6.92,0.1,12.9-5.82,12.95-12.82C472.63,356.83,466.93,350.93,459.91,350.85z M555.44,255.56c-6.87-0.2-13.13,5.72-13.31,12.59
	c-0.18,6.95,5.59,13,12.61,13.21c7.04,0.22,13.1-5.48,13.29-12.48C568.21,261.97,562.34,255.76,555.44,255.56z"/>
<path class="st16" d="M216.4,271.26c-32.03-0.25-56.42-25.79-56.31-58.96c0.1-29,26.77-54.44,56.94-54.33
	c30.65,0.12,57.25,26.06,56.76,55.34C273.23,246.57,248.52,271.52,216.4,271.26z M242.28,216.37
	c-0.08-15.08-11.52-26.75-25.93-26.47c-13.96,0.28-25,12.16-24.9,26.79c0.09,12.6,12.7,24.18,26.03,23.9
	C230.53,240.3,242.34,228.77,242.28,216.37z"/>
</svg>
