<?xml version="1.0" encoding="utf-8"?>
<!-- Generator: Adobe Illustrator 24.2.3, SVG Export Plug-In . SVG Version: 6.00 Build 0)  -->
<svg version="1.1" id="Слой_1" xmlns="http://www.w3.org/2000/svg" xmlns:xlink="http://www.w3.org/1999/xlink" x="0px" y="0px"
	 viewBox="0 0 585.02 884.41" style="enable-background:new 0 0 585.02 884.41;" xml:space="preserve">
<style type="text/css">
	.st0{fill:#000600;}
	.st1{clip-path:url(#SVGID_2_);fill:#2B747C;}
	.st2{clip-path:url(#SVGID_2_);fill:#55AFB7;}
	.st3{clip-path:url(#SVGID_2_);fill:#3FA5B0;}
	.st4{clip-path:url(#SVGID_2_);fill:#6DCFD1;}
	.st5{clip-path:url(#SVGID_2_);fill:#214181;}
	.st6{fill:#0071C5;}
	.st7{clip-path:url(#SVGID_4_);fill:#83D5FB;}
	.st8{clip-path:url(#SVGID_4_);fill:#00ABF0;}
	.st9{clip-path:url(#SVGID_4_);fill:#57CAF9;}
	.st10{clip-path:url(#SVGID_4_);fill:#0071C5;}
	.st11{clip-path:url(#SVGID_4_);fill:#31C5F8;}
	.st12{clip-path:url(#SVGID_4_);fill:#3DD1F9;}
	.st13{clip-path:url(#SVGID_6_);fill:#00ABF0;}
	.st14{clip-path:url(#SVGID_6_);fill:#83D5FB;}
	.st15{clip-path:url(#SVGID_6_);fill:#31C5F8;}
	.st16{clip-path:url(#SVGID_6_);fill:#0071C5;}
	.st17{clip-path:url(#SVGID_6_);fill:#57CAF9;}
	.st18{clip-path:url(#SVGID_6_);fill:#A6A6A6;}
	.st19{opacity:0.14;fill:#000600;}
	.st20{clip-path:url(#SVGID_10_);fill:#D670E1;}
	.st21{clip-path:url(#SVGID_10_);fill:#E7B3EE;}
	.st22{clip-path:url(#SVGID_10_);fill:#8C9295;}
	.st23{clip-path:url(#SVGID_10_);fill:#921C9F;}
	.st24{clip-path:url(#SVGID_10_);fill:#CDD0D3;}
	.st25{clip-path:url(#SVGID_10_);fill:#DFDBD1;}
	.st26{clip-path:url(#SVGID_10_);fill:#543F31;}
	.st27{clip-path:url(#SVGID_10_);fill:#C38A75;}
	.st28{clip-path:url(#SVGID_10_);fill:#B3B9BC;}
	.st29{clip-path:url(#SVGID_10_);fill:#8B9295;}
	.st30{clip-path:url(#SVGID_10_);fill:#D59C87;}
	.st31{fill:#E7B3EE;}
	.st32{clip-path:url(#SVGID_12_);}
	.st33{fill:#E097E9;}
	.st34{fill:#D670E1;}
	.st35{clip-path:url(#SVGID_14_);fill:#FFE406;}
	.st36{opacity:0.5;clip-path:url(#SVGID_14_);}
	.st37{fill:#A2C9FF;}
	.st38{fill:#FF8B00;}
	.st39{clip-path:url(#SVGID_14_);fill:#FFECA0;}
	.st40{clip-path:url(#SVGID_14_);}
	.st41{fill:#FFCB33;}
	.st42{fill:#FFECA0;}
	.st43{fill:#2A356B;}
	.st44{clip-path:url(#SVGID_14_);fill:#FFCB33;}
	.st45{clip-path:url(#SVGID_14_);fill:#A2C9FF;}
	.st46{clip-path:url(#SVGID_14_);fill:#FF8B00;}
	.st47{clip-path:url(#SVGID_14_);fill:#2A356B;}
	.st48{fill:#1B254E;}
	.st49{clip-path:url(#SVGID_14_);fill:#C22C28;}
	.st50{clip-path:url(#SVGID_14_);fill:#FF7400;}
	.st51{fill:#FFE406;}
	.st52{clip-path:url(#SVGID_14_);fill:#FFEF6E;}
	.st53{clip-path:url(#SVGID_16_);fill:#FFE473;}
	.st54{fill:#FFFFFF;}
	.st55{fill:#ACD7C2;}
	.st56{fill:none;stroke:#FFFFFF;stroke-miterlimit:10;}
	.st57{fill:#A1CAAA;}
	.st58{fill:#95CCA0;}
	.st59{opacity:0.76;}
	.st60{fill:#C3E8CC;}
	.st61{fill:url(#SVGID_17_);}
	.st62{fill:url(#SVGID_18_);}
	.st63{fill:url(#SVGID_19_);}
	.st64{fill:#F5E5BD;}
	.st65{fill:url(#SVGID_20_);}
	.st66{fill:url(#SVGID_21_);}
	.st67{fill:url(#SVGID_22_);}
	.st68{fill:url(#SVGID_23_);}
	.st69{fill:url(#SVGID_24_);}
	.st70{fill:url(#SVGID_25_);}
	.st71{fill:#E3EDC3;}
	.st72{fill:#EEFAD1;}
	.st73{fill:url(#SVGID_26_);}
	.st74{fill:url(#SVGID_27_);}
	.st75{fill:url(#SVGID_28_);}
	.st76{fill:url(#SVGID_29_);}
	.st77{fill:url(#SVGID_30_);}
	.st78{fill:#FFE392;}
	.st79{clip-path:url(#SVGID_32_);fill:url(#SVGID_33_);}
	.st80{fill:#5B2A1E;}
	.st81{fill:#8F7673;}
	.st82{fill:url(#SVGID_34_);}
	.st83{fill:url(#SVGID_35_);}
	.st84{fill:url(#SVGID_36_);}
	.st85{fill:url(#SVGID_37_);}
	.st86{fill:#FF8A8A;}
	.st87{fill:url(#SVGID_38_);}
	.st88{fill:#FF963A;}
	.st89{opacity:0.75;fill:#FFFFFF;}
	.st90{fill:#FFC181;}
	.st91{fill:none;}
	.st92{clip-path:url(#SVGID_40_);fill:#FFDFBD;}
	.st93{clip-path:url(#SVGID_40_);fill:#FF9D00;}
	.st94{clip-path:url(#SVGID_40_);fill:#FFF3DF;}
	.st95{clip-path:url(#SVGID_42_);fill:#FFBAE4;}
	.st96{opacity:0.8;clip-path:url(#SVGID_42_);fill:#FE82C8;}
	.st97{clip-path:url(#SVGID_42_);fill:#FE82C8;}
	.st98{opacity:0.79;clip-path:url(#SVGID_42_);fill:#FFBAE4;}
	.st99{fill:url(#SVGID_43_);}
	.st100{fill:#FFFEEA;}
	.st101{fill:#58D196;}
	.st102{fill:#A6E5C3;}
	.st103{fill:#D2F2E1;}
	.st104{opacity:0.44;fill:#FFFFFF;}
	.st105{clip-path:url(#SVGID_45_);fill:#FFF9C1;}
	.st106{fill:url(#SVGID_46_);}
	.st107{fill:url(#SVGID_47_);}
	.st108{opacity:0.86;fill:#FFCCD5;}
	.st109{fill:url(#SVGID_48_);}
	.st110{opacity:0.66;}
	.st111{opacity:0.37;fill:#FFFFFF;}
	.st112{opacity:0.4;}
	.st113{opacity:0.26;fill:#FFFFFF;}
	.st114{opacity:0.62;fill:#FFFFFF;}
	.st115{opacity:0.41;fill:#FFFFFF;}
	.st116{opacity:0.69;fill:#FFFFFF;}
	.st117{opacity:0.73;fill:#FFFFFF;}
	.st118{opacity:0.16;fill:#FFFFFF;}
	.st119{opacity:0.3;fill:#FFFFFF;}
	.st120{opacity:0.23;fill:#FFFFFF;}
	.st121{opacity:0.24;fill:#FFFFFF;}
	.st122{opacity:0.43;fill:#FFFFFF;}
	.st123{opacity:0.76;fill:#FFFFFF;}
	.st124{opacity:0.08;fill:#FFFFFF;}
	.st125{opacity:0.27;fill:#FFFFFF;}
	.st126{opacity:0.46;}
	.st127{opacity:0.86;fill:#FFFFFF;}
	.st128{opacity:0.54;fill:#FFFFFF;}
	.st129{opacity:0.28;}
	.st130{clip-path:url(#SVGID_50_);}
	.st131{fill:#FF6B81;}
	.st132{clip-path:url(#SVGID_50_);fill:none;}
	.st133{fill:none;stroke:#FFFFFF;stroke-width:2;stroke-miterlimit:10;}
	.st134{opacity:0.45;fill:#FFFFFF;}
	.st135{opacity:0.8;fill:#FFFFFF;}
	.st136{opacity:0.79;fill:#FFFFFF;}
	.st137{fill:#F1C4A9;}
	.st138{fill:none;stroke:#FFFFFF;stroke-width:0.75;stroke-miterlimit:10;}
	.st139{fill:#FFFFFF;stroke:#FFFFFF;stroke-width:0.25;stroke-miterlimit:10;}
	.st140{fill:#55AFB7;}
	.st141{fill:#2AB3BA;}
	.st142{fill:#00ACBD;}
	.st143{fill:#F787A5;}
	.st144{fill:#91693D;}
	.st145{fill:#FBBACC;}
	.st146{fill:#E6678D;}
	.st147{fill:#574435;}
	.st148{fill:#C8A37C;}
	.st149{fill:#641F1E;}
	.st150{fill:#F15E89;}
	.st151{fill:#E7005E;}
	.st152{fill:#DDB689;}
	.st153{fill:#FF1B6F;}
	.st154{fill:#DEB689;}
	.st155{fill:#F2769B;}
	.st156{fill:#FAFAF8;}
	.st157{fill:#F7C3DB;}
	.st158{fill:#E3B9B4;}
	.st159{fill:#FFB9C3;}
	.st160{fill:#FFC5D6;}
	.st161{fill:#D72264;}
	.st162{fill:#F7F7F7;}
	.st163{fill:#F2F2F2;}
	.st164{fill:#FFFBF0;}
	.st165{fill:#FFBFCF;}
	.st166{fill:#FF6794;}
	.st167{fill:#FFC2C1;}
	.st168{fill:#FFCCD5;}
	.st169{fill:#B39D8E;}
	.st170{fill:#FFE2EA;}
	.st171{fill:#F1F1F1;}
	.st172{fill:#FF9DAE;}
	.st173{fill:#A2C4DB;}
	.st174{fill:#583B34;}
	.st175{fill:#B1CFE4;}
	.st176{fill:#FBFBFA;}
	.st177{fill:#E0CFC7;}
	.st178{fill:#D9946B;}
	.st179{fill:#FFE9F2;}
	.st180{fill:#FFDBE5;}
	.st181{fill:#F2CCC1;}
	.st182{fill:#DF4E50;}
	.st183{fill:#00C377;}
	.st184{fill:#87E4AE;}
	.st185{fill:#00B45A;}
	.st186{fill:#7FD9A9;}
	.st187{fill:#F1BB3A;}
	.st188{fill:#B89E65;}
	.st189{fill:#97D183;}
	.st190{fill:#3C3724;}
	.st191{fill:#D5BDA1;}
	.st192{fill:#9B8174;}
	.st193{fill:#587147;}
	.st194{fill:#E6D5BD;}
	.st195{fill:#5CC588;}
	.st196{clip-path:url(#SVGID_58_);fill:#A6E5C3;}
	.st197{clip-path:url(#SVGID_58_);fill:#FFFFFF;}
	.st198{clip-path:url(#SVGID_58_);fill:#58D196;}
	.st199{fill:#FFEF6E;}
	.st200{fill:#FFE200;}
	.st201{clip-path:url(#SVGID_60_);fill:#FDA157;}
	.st202{clip-path:url(#SVGID_60_);fill-rule:evenodd;clip-rule:evenodd;fill:#FF8429;}
	.st203{clip-path:url(#SVGID_60_);fill:#F35000;}
	.st204{clip-path:url(#SVGID_60_);fill:#F8B846;}
	.st205{fill:#F35000;}
	.st206{fill:#FF8429;}
	.st207{fill:#FFAB33;}
	.st208{fill:#E46D00;}
	.st209{fill:#EE6406;}
	.st210{fill:#FF9B00;}
	.st211{fill:#130077;}
	.st212{fill:#FFB58D;}
	.st213{opacity:0.3;}
	.st214{fill:#FF7300;}
	.st215{fill:#6E0000;}
	.st216{fill-rule:evenodd;clip-rule:evenodd;fill:#FF9B00;}
	.st217{fill-rule:evenodd;clip-rule:evenodd;fill:url(#SVGID_61_);}
	.st218{opacity:0.3;fill-rule:evenodd;clip-rule:evenodd;fill:#A3002C;}
	.st219{fill-rule:evenodd;clip-rule:evenodd;fill:url(#SVGID_62_);}
	.st220{fill-rule:evenodd;clip-rule:evenodd;fill:url(#SVGID_63_);}
	.st221{opacity:0.5;fill-rule:evenodd;clip-rule:evenodd;fill:url(#SVGID_64_);}
	.st222{fill-rule:evenodd;clip-rule:evenodd;fill:#FFC384;}
	.st223{fill-rule:evenodd;clip-rule:evenodd;fill:url(#SVGID_65_);}
	.st224{fill-rule:evenodd;clip-rule:evenodd;fill:url(#SVGID_66_);}
	.st225{fill-rule:evenodd;clip-rule:evenodd;fill:url(#SVGID_67_);}
	.st226{opacity:0.5;fill-rule:evenodd;clip-rule:evenodd;fill:url(#SVGID_68_);}
	.st227{fill-rule:evenodd;clip-rule:evenodd;fill:#FDA157;}
	.st228{opacity:0.5;fill-rule:evenodd;clip-rule:evenodd;fill:#FDA157;}
	.st229{fill-rule:evenodd;clip-rule:evenodd;fill:#FF8429;}
	.st230{fill-rule:evenodd;clip-rule:evenodd;fill:#FFAB33;}
	.st231{opacity:0.62;fill-rule:evenodd;clip-rule:evenodd;fill:#C7002A;}
	.st232{opacity:0.5;fill-rule:evenodd;clip-rule:evenodd;fill:#FF8429;}
	.st233{opacity:0.5;fill-rule:evenodd;clip-rule:evenodd;fill:#8E5472;}
	.st234{opacity:0.3;fill-rule:evenodd;clip-rule:evenodd;fill:url(#SVGID_69_);}
	.st235{opacity:0.5;fill-rule:evenodd;clip-rule:evenodd;fill:url(#SVGID_70_);}
	.st236{opacity:0.3;fill-rule:evenodd;clip-rule:evenodd;fill:url(#SVGID_71_);}
	.st237{opacity:0.3;fill-rule:evenodd;clip-rule:evenodd;fill:url(#SVGID_72_);}
	.st238{clip-path:url(#SVGID_74_);}
	.st239{clip-path:url(#SVGID_74_);fill:#FF8429;}
	.st240{fill:#FDA157;}
	.st241{clip-path:url(#SVGID_76_);}
	.st242{fill:#F58800;}
	.st243{clip-path:url(#SVGID_78_);}
	.st244{fill:#F8B846;}
	.st245{clip-path:url(#SVGID_80_);}
	.st246{clip-path:url(#SVGID_80_);fill:#FF8429;}
	.st247{fill-rule:evenodd;clip-rule:evenodd;fill:url(#SVGID_81_);}
	.st248{fill-rule:evenodd;clip-rule:evenodd;fill:url(#SVGID_82_);}
	.st249{fill-rule:evenodd;clip-rule:evenodd;fill:url(#SVGID_83_);}
	.st250{opacity:0.5;fill-rule:evenodd;clip-rule:evenodd;fill:url(#SVGID_84_);}
	.st251{fill-rule:evenodd;clip-rule:evenodd;fill:url(#SVGID_85_);}
	.st252{fill-rule:evenodd;clip-rule:evenodd;fill:url(#SVGID_86_);}
	.st253{fill-rule:evenodd;clip-rule:evenodd;fill:url(#SVGID_87_);}
	.st254{opacity:0.5;fill-rule:evenodd;clip-rule:evenodd;fill:url(#SVGID_88_);}
	.st255{opacity:0.3;fill-rule:evenodd;clip-rule:evenodd;fill:url(#SVGID_89_);}
	.st256{opacity:0.5;fill-rule:evenodd;clip-rule:evenodd;fill:url(#SVGID_90_);}
	.st257{opacity:0.3;fill-rule:evenodd;clip-rule:evenodd;fill:url(#SVGID_91_);}
	.st258{opacity:0.3;fill-rule:evenodd;clip-rule:evenodd;fill:url(#SVGID_92_);}
	.st259{opacity:0.88;fill:#FFFEF3;}
	.st260{fill:#FFCF66;}
	.st261{fill:#AFABAC;}
	.st262{fill:#FFE473;}
	.st263{fill:#FFE787;}
	.st264{fill:#F6C700;}
	.st265{fill:#FFEA96;}
	.st266{clip-path:url(#SVGID_94_);fill:#FFCB33;}
	.st267{clip-path:url(#SVGID_94_);fill:#FFE406;}
	.st268{clip-path:url(#SVGID_96_);fill:#921C9F;}
	.st269{opacity:0.5;clip-path:url(#SVGID_96_);}
	.st270{fill:#921C9F;}
	.st271{clip-path:url(#SVGID_96_);}
	.st272{clip-path:url(#SVGID_98_);fill:#E097E9;}
	.st273{fill:#CC37D8;}
	.st274{opacity:0.5;fill:#FFFFFF;}
	.st275{opacity:0.5;fill:#FFFFFF;stroke:#FFFFFF;stroke-miterlimit:10;}
	.st276{opacity:0.68;fill:#FFFFFF;}
	.st277{fill:#F0C6F4;}
	.st278{fill:#D9A2E1;}
	.st279{fill:#AA7B41;}
	.st280{fill:#8C9295;}
	.st281{fill:#CDD0D3;}
	.st282{fill:#DFDBD1;}
	.st283{fill:#543F31;}
	.st284{fill:#C38A75;}
	.st285{fill:#B3B9BC;}
	.st286{fill:#8B9295;}
	.st287{fill:#D59C87;}
	.st288{fill:#3DD1F9;}
	.st289{fill:#57CAF9;}
	.st290{fill:#F92405;}
	.st291{fill:#B30000;}
	.st292{fill:#FA3C20;}
	.st293{fill:#E2A080;}
	.st294{fill:#950000;}
	.st295{fill:#F50000;}
	.st296{clip-path:url(#SVGID_100_);fill:#F787A5;}
	.st297{clip-path:url(#SVGID_100_);fill:#FFE9F2;}
	.st298{clip-path:url(#SVGID_100_);fill:#D3CFB3;}
	.st299{clip-path:url(#SVGID_100_);fill:#FFDBE5;}
	.st300{clip-path:url(#SVGID_100_);}
	.st301{clip-path:url(#SVGID_100_);fill:#FFC5D6;}
	.st302{fill:#FA90B4;}
	.st303{fill:#BCA494;}
	.st304{fill:#63443C;}
	.st305{fill:#CFABA0;}
	.st306{fill:#A1C3DA;}
	.st307{fill:#9B7972;}
	.st308{fill:#77573F;}
	.st309{fill-rule:evenodd;clip-rule:evenodd;fill:#FA3C20;}
	.st310{fill-rule:evenodd;clip-rule:evenodd;fill:#D00707;}
	.st311{fill-rule:evenodd;clip-rule:evenodd;fill:#F92405;}
	.st312{fill-rule:evenodd;clip-rule:evenodd;fill:#F50000;}
	.st313{fill-rule:evenodd;clip-rule:evenodd;fill:#F95F53;}
	.st314{fill:#F95F53;}
	.st315{clip-path:url(#SVGID_102_);fill:#574435;}
	.st316{clip-path:url(#SVGID_102_);fill:#C8A37C;}
	.st317{clip-path:url(#SVGID_102_);fill:#91693D;}
	.st318{clip-path:url(#SVGID_102_);fill:#D00707;}
	.st319{clip-path:url(#SVGID_102_);fill:#FA3C20;}
	.st320{clip-path:url(#SVGID_102_);fill:#950000;}
	.st321{clip-path:url(#SVGID_102_);fill:#F95F53;}
	.st322{clip-path:url(#SVGID_102_);fill:#131212;}
	.st323{clip-path:url(#SVGID_102_);fill:#B30000;}
	.st324{clip-path:url(#SVGID_102_);fill:#412A1A;}
	.st325{clip-path:url(#SVGID_102_);fill:#DEC6AF;}
	.st326{clip-path:url(#SVGID_102_);fill:#BF855C;}
	.st327{fill:#D00707;}
	.st328{fill:#AB9DB8;}
	.st329{fill:#381A12;}
	.st330{fill:#EBCBB8;}
	.st331{fill:#AC9EBB;}
	.st332{fill:#F8F6F5;}
	.st333{fill:#0A345E;}
	.st334{fill:#412A1A;}
	.st335{fill:#131212;}
	.st336{fill:#DEC6AF;}
	.st337{fill:#BF855C;}
	.st338{opacity:0.79;fill:#FFB9C3;}
	.st339{opacity:0.79;fill:#FA90B4;}
	.st340{fill:#83D5FB;}
	.st341{fill:#00ABF0;}
	.st342{fill:#31C5F8;}
	.st343{opacity:0.6;fill:#FFFFFF;}
	.st344{opacity:0.34;fill:#FFFFFF;}
	.st345{opacity:0.25;fill:#FFFFFF;}
	.st346{opacity:0.6;}
	.st347{fill:#B2B0AD;}
	.st348{fill:#0D0707;}
	.st349{fill:#A6A6A6;}
	.st350{fill:#0068A8;}
	.st351{fill:#FF6567;}
	.st352{opacity:0.17;fill:#FFFFFF;}
	.st353{opacity:0.39;fill:#FFFFFF;}
	.st354{opacity:0.71;fill:#FFFFFF;}
	.st355{fill:#6DCFD1;}
	.st356{fill:#2B747C;}
	.st357{fill:#1E1E1E;}
	.st358{fill:#272727;}
	.st359{fill:#3FA5B0;}
	.st360{fill:#1F1F1F;}
	.st361{fill:#242424;}
	.st362{opacity:0.81;}
	.st363{fill-rule:evenodd;clip-rule:evenodd;fill:#2B747C;}
	.st364{fill-rule:evenodd;clip-rule:evenodd;fill:#6DCFD1;}
	.st365{fill-rule:evenodd;clip-rule:evenodd;fill:#3FA5B0;}
	.st366{clip-path:url(#SVGID_104_);fill:#3FA5B0;}
	.st367{clip-path:url(#SVGID_104_);fill:#2AB3BA;}
	.st368{clip-path:url(#SVGID_104_);fill:#55AFB7;}
	.st369{clip-path:url(#SVGID_104_);fill:#00ACBD;}
	.st370{clip-path:url(#SVGID_104_);fill:#616161;}
	.st371{clip-path:url(#SVGID_104_);fill:#6DCFD1;}
	.st372{clip-path:url(#SVGID_104_);fill:#2B747C;}
	.st373{fill:#214181;}
	.st374{fill:#616161;}
</style>
<path class="st140" d="M0,24c130.67,139.98,261.35,279.96,392.02,419.94C292.35,590.76,192.67,737.59,93,884.41c-31,0-62,0-93,0
	C0,597.61,0,310.8,0,24z"/>
<path class="st359" d="M585,884.41c-0.02-133-0.03-266-0.07-398.99c-0.01-24.36-0.1-48.71-0.15-73.07c-5.24-0.37-10.18-1.45-14-5.5
	c-0.63-0.67-1.64-1.48-2.42-1.42c-5.73,0.45-8.05-4.75-12.06-7.12c-2.21-1.31-2.44-3.65-2.54-6.08c-0.13-3,1.01-6.18-1.02-8.97
	c-9.79,39.82-27.83,76.17-47.02,112.04c-0.62,1.17-1.08,2.51-2.46,3.09c-0.34,5.05-4.24,8.39-6.42,12.48
	c-7.26,13.57-15.38,26.68-23.92,41.27c-10.04-23.82-19.57-46.46-29.11-69.1c-3.84-7.56-3.8-7.5,3.57-12.75
	c2.91-2.07,5.6-4.43,8.38-6.64c-1.56-1.63-1.99-3.53-1.95-5.8c0.34-16.78-0.63-33.58,0.6-50.35c0.12-1.65-0.32-3.69-1.42-4.08
	c-1.58-0.56-3.02,1.02-4.2,2.32c-13.44,14.73-26.49,29.82-41.96,42.54c-7.72,6.35-11.47,5.45-15.09-4.1
	c-3.63-9.56-11.27-20.87-27.59-43.11c-4.5-6.13-37.21-49.66-36.67-52.57c0.01-0.07,0.14-0.53-0.06-1.01
	c-0.42-1.01-1.93-1.28-2.97-1.8c-4.65-2.3-9.24-4.7-13.92-6.94c-4.17-2-5.46-4.57-2.09-8.4c8.42-9.6,12.2-22.63,22.69-30.72
	c1.6-1.23,1.19-2.95-0.02-4.03c-2.67-2.38-5.24-4.95-9.26-5.2c-12.31-0.75-24.61-1.76-36.92-2.47c-4.59-0.27-9.07,0.07-13.53,2.02
	c-5.92,2.59-12.25-0.51-15.6-8.19c-6.35-14.52-11.13-29.83-11.45-45.62c-0.24-12.13,2.7-20.64,19.08-22.5
	c7.5-0.85,14.83-3.42,22.36-4.75c3.38-0.6,4.83,0.45,6.33,3.2c4.58,8.39,9.31,16.68,15.87,23.78c4.08,4.42,9.17,7.96,14.85,7.92
	c9.18-0.07,16.95,4.46,25.56,6.04c2.45,0.45,4.87,1.37,7.36,1.2c16.16-1.13,27.18,7.45,36.53,19.22c4.29,5.4,8.4,10.95,12.75,16.3
	c4.51,5.54,18.71,6.75,24.38,2.47c2.51-1.89,1.77-4.21,1.28-6.27c-2.28-9.72-4.46-19.48-7.4-29.01c-2.09-6.78-2.53-13.12,0.66-19.55
	c6.08-12.26,13.53-23.65,26.32-29.49c18.73-8.54,31.2-2.76,35.76,15.25c5.67,22.38,5.35,45.01-4.06,66.76
	c-0.51,1.19-1.26,2.27-1.9,3.4c0.35,0.29,0.8,0.74,0.85,0.69c5.22-4.12,9.58-2.41,14.01,1.59c1.62,1.46,4.12,1.93,6.22,2.85
	c-3.58-13.29-2.49-26.81-1.86-40.29c1.4-29.51,1.45-59.03,0.09-88.54c-2-21.36-3.39-43-11.7-63c-11.54-27.74-27.41-52.35-54.09-68.4
	c-7.49-4.51-13.61-11.23-22.08-14.3c-7.45,0.59-14.93,0.93-22.19,2.99c-10.87,4.6-22.53,5.18-34.24,6.05
	c7.44-2.42,14.87-4.83,22.31-7.25c5.3-2.53,5.14-6.14,2.04-10.33c-0.27-0.09-0.46-0.26-0.57-0.52c-0.4-0.01-0.71-0.18-0.94-0.5
	c-15.45-9.85-32.36-11.74-50.35-10.95c-21.34,0.94-41.01,8-60.94,14.2c-19.1,5.93-34.38,17.95-47.68,32.6
	c-2.4,2.64-5,4.62-8.34,5.92c-14.69,5.67-27.7,14.41-39.88,24.08c-6.25,4.96-11.5,11.43-17.47,16.95l0.01,0.01
	c-0.13,2.3-2.1,3.3-3.39,4.78l-0.04,0.41l-0.4,0.12c-1.5,1.88-2.99,3.75-4.49,5.63c-6.42,9.59-12.91,19.08-17.61,29.74
	c-11.91,26.98-8.21,51.9,9.21,75.2c1.09,0.89,1.92,1.88,1.18,3.89c-0.87-1.07-1.6-1.96-2.32-2.85
	c-13.1-11.5-18.32-26.56-19.56-43.42c-0.61-0.41-1.22-0.83-1.83-1.24c-0.72,32.08,19.11,58.44,50.32,66.31
	c4.67,1.18,6.95,3.23,7.48,7.87c1.65,14.65,4.72,29.09,6.11,43.82c0.6,6.33,1.99,12.85,3.52,19.19
	c3.14,13.02,13.57,17.32,24.69,20.69c2.67,0.81,5.49,1.05,7.68,3.01c6.22,0.02,8.31,4.65,9.55,9.4c2.49,9.53,2.91,19.42,4.09,29.17
	c1.25,10.33,2.15,20.7,3.27,31.04c1.3,12.04,6.88,17.84,18.97,16.62c9.4-0.95,13.74,3.26,17.07,10.63c2.47,5.47,6.6,8.88,12.66,9.31
	c3.14,0.22,4.76,1.21,5.32,4.56c0.78,4.65,3.73,7.84,8.06,9.87c3.98,1.87,8.05,3.72,10.72,7.51c0.72,11.33-2.11,13.81-11.55,19.39
	c-8.76,5.18-18.42,9.17-26.04,16.26c-0.54,0.5-1.45,1.26-1.88,1.09c-4.58-1.75-6.84,2.38-10.11,3.87c-0.09-0.81-0.18-1.62-0.27-2.44
	c-14.77,11.01-29.78,21.77-42.42,35.31c-18.26,19.55-27.83,43.42-33.56,69.13c-2.14,9.61-5.28,18.94-8.49,28.23
	c-4.61,16.64-13.19,31.53-20.51,47c-13.21,27.93-24.47,56.7-35.92,85.38c-0.28,0.7-0.68,1.35-1.03,2.03
	c-0.3,2.18-0.96,4.21-2.4,5.92c-0.55,1.43-1.08,2.87-1.61,4.32c-10.96,30.26-18.25,67.82-15.5,113.51
	C256.49,884.26,420.75,884.33,585,884.41z M419.79,644.6c0.7-21.79-0.77-43.72,2.27-65.35c2.36-16.78,6.15-33.38,9.76-49.96
	c1.45-6.65,1.36-13.43,2.65-20.06c0.4-2.04,0.41-4.13,1.74-6.29c2.55,12.04,1.86,23.85,2.7,35.53c1.56,21.73,2.24,43.53,2.97,65.31
	c0.25,7.51-1.17,14.96-2.26,22.4c-3.72,25.36-7.16,50.76-11.01,76.1c-2.17,14.29-4.92,28.49-7.43,42.73
	c-0.12,0.69-0.51,1.32-0.93,2.38c-1.34-2.25-0.77-4.16-0.77-5.97C419.46,709.14,418.76,676.84,419.79,644.6z"/>
<path class="st355" d="M139.54,502.21c-0.64-23.54-1.73-47.07-2.94-70.59c-0.65-12.66-1.21-25.35-7.01-37.18
	c-10.94-22.3-37.32-40.89-65.69-27.41c-16.04,7.62-25.73,20.84-30.82,37.67c-3.47,11.46-2.86,23.32-3.54,35.04
	c-1.04,18.11-1.09,36.29-2.6,54.36c-1.41,16.93-1.02,33.84-1.26,50.75c-0.15,10.53,2.28,20.71,7.12,30.16
	c6.92,13.49,17.49,22.43,32.68,25.02c3.68,0.63,4.78,2.06,4.55,5.61c-0.55,8.46-0.68,16.96-2.43,25.31
	c0.33,9.48-2.17,18.67-2.86,28.05c-0.57,7.85-1.62,15.69-1.66,23.53c-0.04,7.27,3.82,13.03,10.01,16.6c3.1,1.79,3.61,3.82,3.61,6.92
	c-0.01,8.84,0.24,17.68,0.38,26.51c1.25,0.13,2.14,0.53,2.76,1.12c1.59,1.51,1.43,4.06,1.4,4.69c-0.16,4.01,0.21,63.66,0.76,146.03
	c3,0,6,0,9,0c-0.51-38.57-0.82-77.15-0.95-115.73c-0.06-18.12-0.08-36.23-0.06-54.34c-0.49-2.3-0.45-4.6,0.02-6.9
	c-0.02-1.56-0.03-3.12-0.05-4.68c-0.29-0.66-0.08-1.11,0.57-1.37c10.21-5.12,12.62-14.28,12.56-24.61
	c-0.07-12.73-2.38-25.24-3.85-37.83c-0.4-3.42-1.16-6.83-0.61-10.31c-1.73-8.15-1.83-16.45-2.19-24.72c-0.11-2.6,1.22-3.18,3.38-3.6
	c23.88-4.64,35.14-20.64,39.59-43.31C143.01,538.68,140.04,520.46,139.54,502.21z M79.36,686.32c0.09,0.15,0.19,0.31,0.28,0.46
	c-0.25,0.01-0.51,0.01-0.76,0.02c-3.93-1.98-3.38-5.16-1.95-8.28c1.58-3.46,4.42-4.41,9.33-2.86
	C81.11,678.02,78.39,681.23,79.36,686.32z"/>
<path class="st356" d="M455.75,463.19c-1.55-1.64-1.98-3.54-1.94-5.81c0.34-16.76-0.63-33.55,0.6-50.3
	c0.12-1.65-0.32-3.68-1.42-4.07c-1.58-0.56-3.02,1.02-4.2,2.31c-13.44,14.71-26.49,29.79-41.96,42.5
	c-7.72,6.34-11.47,5.44-15.09-4.1c-0.99-2.61-9.76-16.13-27.59-43.07c-5.71-8.62-9-13.46-14.35-19.68
	c-19.42-22.58-45.45-38.62-43.23-46.44c0.72-2.54,1.46-2.06,1.87-4.54c2.28-13.92-33.34-18.89-52.65-48.54
	c-10.12-15.54-11.14-30.18-11.45-45.58c-0.24-12.12,2.7-20.62,19.08-22.48c7.5-0.85,14.83-3.41,22.36-4.74
	c3.38-0.6,4.83,0.45,6.33,3.2c4.58,8.38,9.31,16.67,15.87,23.76c4.08,4.42,9.17,7.95,14.85,7.91c9.18-0.07,16.95,4.46,25.56,6.03
	c2.45,0.45,4.87,1.37,7.36,1.2c16.16-1.13,27.18,7.44,36.53,19.2c4.29,5.4,8.4,10.94,12.75,16.29c4.51,5.54,18.71,6.74,24.38,2.47
	c2.51-1.89,1.77-4.21,1.28-6.26c-2.28-9.71-4.46-19.46-7.4-28.98c-2.09-6.77-2.53-13.11,0.66-19.53
	c6.08-12.24,13.53-23.63,26.32-29.46c18.73-8.53,31.2-2.76,35.76,15.23c5.67,22.36,5.35,44.96-4.06,66.7
	c-0.51,1.19-1.26,2.27-1.9,3.4c0.35,0.29,0.8,0.74,0.85,0.69c5.22-4.12,9.58-2.41,14.01,1.58c1.62,1.46,4.12,1.93,6.22,2.85
	c4.11,10.97,10.48,20.71,17.32,30.03c6.53,8.9,13.11,17.85,21.16,25.54c2.49,3.98,0.65,7.62-0.87,11.29
	c-9.2,22.18-22.33,41.76-38.24,59.69C486.89,436.83,471.93,450.64,455.75,463.19z"/>
<path class="st355" d="M551.96,356.35c-4.1-1.96-6.74-7.03-12.33-5.86c2.49,3.98,0.65,7.62-0.87,11.29
	c-9.2,22.18-22.33,41.76-38.24,59.69c-13.63,15.36-28.59,29.16-44.76,41.7c-2.78,2.21-5.48,4.57-8.38,6.64
	c-7.37,5.24-7.41,5.19-3.57,12.73c9.54,22.62,19.08,45.23,29.11,69.03c8.55-14.57,16.67-27.66,23.92-41.22
	c2.18-4.08,6.08-7.42,6.42-12.46c1.38-0.58,1.84-1.93,2.46-3.09c19.19-35.83,37.23-72.14,47.02-111.93
	c0.7-6.28,1.48-12.56,2.05-18.86C555.05,361.11,554.76,358.22,551.96,356.35z"/>
<polygon class="st373" points="253.9,495.31 253.66,495.6 253.94,495.35 "/>
<path class="st373" d="M79.36,686.32c0.09,0.15,0.19,0.31,0.28,0.46c-0.25,0.01-0.51,0.01-0.76,0.02
	C79.04,686.64,79.19,686.48,79.36,686.32z"/>
</svg>
