<?xml version="1.0" encoding="utf-8"?>
<!-- Generator: Adobe Illustrator 24.2.3, SVG Export Plug-In . SVG Version: 6.00 Build 0)  -->
<svg version="1.1" id="Слой_1" xmlns="http://www.w3.org/2000/svg" xmlns:xlink="http://www.w3.org/1999/xlink" x="0px" y="0px"
	 viewBox="0 0 585 896" style="enable-background:new 0 0 585 896;" xml:space="preserve">
<style type="text/css">
	.st0{fill:#000600;}
	.st1{clip-path:url(#SVGID_2_);fill:#2B747C;}
	.st2{clip-path:url(#SVGID_2_);fill:#55AFB7;}
	.st3{clip-path:url(#SVGID_2_);fill:#3FA5B0;}
	.st4{clip-path:url(#SVGID_2_);fill:#6DCFD1;}
	.st5{clip-path:url(#SVGID_2_);fill:#214181;}
	.st6{fill:#0071C5;}
	.st7{clip-path:url(#SVGID_4_);fill:#83D5FB;}
	.st8{clip-path:url(#SVGID_4_);fill:#00ABF0;}
	.st9{clip-path:url(#SVGID_4_);fill:#57CAF9;}
	.st10{clip-path:url(#SVGID_4_);fill:#0071C5;}
	.st11{clip-path:url(#SVGID_4_);fill:#31C5F8;}
	.st12{clip-path:url(#SVGID_4_);fill:#3DD1F9;}
	.st13{clip-path:url(#SVGID_6_);fill:#00ABF0;}
	.st14{clip-path:url(#SVGID_6_);fill:#83D5FB;}
	.st15{clip-path:url(#SVGID_6_);fill:#31C5F8;}
	.st16{clip-path:url(#SVGID_6_);fill:#0071C5;}
	.st17{clip-path:url(#SVGID_6_);fill:#57CAF9;}
	.st18{clip-path:url(#SVGID_6_);fill:#A6A6A6;}
	.st19{opacity:0.14;fill:#000600;}
	.st20{clip-path:url(#SVGID_10_);fill:#D670E1;}
	.st21{clip-path:url(#SVGID_10_);fill:#E7B3EE;}
	.st22{clip-path:url(#SVGID_10_);fill:#8C9295;}
	.st23{clip-path:url(#SVGID_10_);fill:#921C9F;}
	.st24{clip-path:url(#SVGID_10_);fill:#CDD0D3;}
	.st25{clip-path:url(#SVGID_10_);fill:#DFDBD1;}
	.st26{clip-path:url(#SVGID_10_);fill:#543F31;}
	.st27{clip-path:url(#SVGID_10_);fill:#C38A75;}
	.st28{clip-path:url(#SVGID_10_);fill:#B3B9BC;}
	.st29{clip-path:url(#SVGID_10_);fill:#8B9295;}
	.st30{clip-path:url(#SVGID_10_);fill:#D59C87;}
	.st31{fill:#E7B3EE;}
	.st32{clip-path:url(#SVGID_12_);}
	.st33{fill:#E097E9;}
	.st34{fill:#D670E1;}
	.st35{clip-path:url(#SVGID_14_);fill:#FFE406;}
	.st36{opacity:0.5;clip-path:url(#SVGID_14_);}
	.st37{fill:#A2C9FF;}
	.st38{fill:#FF8B00;}
	.st39{clip-path:url(#SVGID_14_);fill:#FFECA0;}
	.st40{clip-path:url(#SVGID_14_);}
	.st41{fill:#FFCB33;}
	.st42{fill:#FFECA0;}
	.st43{fill:#2A356B;}
	.st44{clip-path:url(#SVGID_14_);fill:#FFCB33;}
	.st45{clip-path:url(#SVGID_14_);fill:#A2C9FF;}
	.st46{clip-path:url(#SVGID_14_);fill:#FF8B00;}
	.st47{clip-path:url(#SVGID_14_);fill:#2A356B;}
	.st48{fill:#1B254E;}
	.st49{clip-path:url(#SVGID_14_);fill:#C22C28;}
	.st50{clip-path:url(#SVGID_14_);fill:#FF7400;}
	.st51{fill:#FFE406;}
	.st52{clip-path:url(#SVGID_14_);fill:#FFEF6E;}
	.st53{clip-path:url(#SVGID_16_);fill:#FFE473;}
	.st54{fill:#FFFFFF;}
	.st55{fill:#ACD7C2;}
	.st56{fill:none;stroke:#FFFFFF;stroke-miterlimit:10;}
	.st57{fill:#A1CAAA;}
	.st58{fill:#95CCA0;}
	.st59{opacity:0.76;}
	.st60{fill:#C3E8CC;}
	.st61{fill:url(#SVGID_17_);}
	.st62{fill:url(#SVGID_18_);}
	.st63{fill:url(#SVGID_19_);}
	.st64{fill:#F5E5BD;}
	.st65{fill:url(#SVGID_20_);}
	.st66{fill:url(#SVGID_21_);}
	.st67{fill:url(#SVGID_22_);}
	.st68{fill:url(#SVGID_23_);}
	.st69{fill:url(#SVGID_24_);}
	.st70{fill:url(#SVGID_25_);}
	.st71{fill:#E3EDC3;}
	.st72{fill:#EEFAD1;}
	.st73{fill:url(#SVGID_26_);}
	.st74{fill:url(#SVGID_27_);}
	.st75{fill:url(#SVGID_28_);}
	.st76{fill:url(#SVGID_29_);}
	.st77{fill:url(#SVGID_30_);}
	.st78{fill:#FFE392;}
	.st79{clip-path:url(#SVGID_32_);fill:url(#SVGID_33_);}
	.st80{fill:#5B2A1E;}
	.st81{fill:#8F7673;}
	.st82{fill:url(#SVGID_34_);}
	.st83{fill:url(#SVGID_35_);}
	.st84{fill:url(#SVGID_36_);}
	.st85{fill:url(#SVGID_37_);}
	.st86{fill:#FF8A8A;}
	.st87{fill:url(#SVGID_38_);}
	.st88{fill:#FF963A;}
	.st89{opacity:0.75;fill:#FFFFFF;}
	.st90{fill:#FFC181;}
	.st91{fill:none;}
	.st92{clip-path:url(#SVGID_40_);fill:#FFDFBD;}
	.st93{clip-path:url(#SVGID_40_);fill:#FF9D00;}
	.st94{clip-path:url(#SVGID_40_);fill:#FFF3DF;}
	.st95{clip-path:url(#SVGID_42_);fill:#FFBAE4;}
	.st96{opacity:0.8;clip-path:url(#SVGID_42_);fill:#FE82C8;}
	.st97{clip-path:url(#SVGID_42_);fill:#FE82C8;}
	.st98{opacity:0.79;clip-path:url(#SVGID_42_);fill:#FFBAE4;}
	.st99{fill:url(#SVGID_43_);}
	.st100{fill:#FFFEEA;}
	.st101{fill:#58D196;}
	.st102{fill:#A6E5C3;}
	.st103{fill:#D2F2E1;}
	.st104{opacity:0.44;fill:#FFFFFF;}
	.st105{clip-path:url(#SVGID_45_);fill:#FFF9C1;}
	.st106{fill:url(#SVGID_46_);}
	.st107{fill:url(#SVGID_47_);}
	.st108{opacity:0.86;fill:#FFCCD5;}
	.st109{fill:url(#SVGID_48_);}
	.st110{opacity:0.66;}
	.st111{opacity:0.37;fill:#FFFFFF;}
	.st112{opacity:0.4;}
	.st113{opacity:0.26;fill:#FFFFFF;}
	.st114{opacity:0.62;fill:#FFFFFF;}
	.st115{opacity:0.41;fill:#FFFFFF;}
	.st116{opacity:0.69;fill:#FFFFFF;}
	.st117{opacity:0.73;fill:#FFFFFF;}
	.st118{opacity:0.16;fill:#FFFFFF;}
	.st119{opacity:0.3;fill:#FFFFFF;}
	.st120{opacity:0.23;fill:#FFFFFF;}
	.st121{opacity:0.24;fill:#FFFFFF;}
	.st122{opacity:0.43;fill:#FFFFFF;}
	.st123{opacity:0.76;fill:#FFFFFF;}
	.st124{opacity:0.08;fill:#FFFFFF;}
	.st125{opacity:0.27;fill:#FFFFFF;}
	.st126{opacity:0.46;}
	.st127{opacity:0.86;fill:#FFFFFF;}
	.st128{opacity:0.54;fill:#FFFFFF;}
	.st129{opacity:0.28;}
	.st130{clip-path:url(#SVGID_50_);}
	.st131{fill:#FF6B81;}
	.st132{clip-path:url(#SVGID_50_);fill:none;}
	.st133{fill:none;stroke:#FFFFFF;stroke-width:2;stroke-miterlimit:10;}
	.st134{opacity:0.45;fill:#FFFFFF;}
	.st135{opacity:0.8;fill:#FFFFFF;}
	.st136{opacity:0.79;fill:#FFFFFF;}
	.st137{fill:#F1C4A9;}
	.st138{fill:none;stroke:#FFFFFF;stroke-width:0.75;stroke-miterlimit:10;}
	.st139{fill:#FFFFFF;stroke:#FFFFFF;stroke-width:0.25;stroke-miterlimit:10;}
	.st140{fill:#55AFB7;}
	.st141{fill:#2AB3BA;}
	.st142{fill:#00ACBD;}
	.st143{fill:#F787A5;}
	.st144{fill:#91693D;}
	.st145{fill:#FBBACC;}
	.st146{fill:#E6678D;}
	.st147{fill:#574435;}
	.st148{fill:#C8A37C;}
	.st149{fill:#641F1E;}
	.st150{fill:#F15E89;}
	.st151{fill:#E7005E;}
	.st152{fill:#DDB689;}
	.st153{fill:#FF1B6F;}
	.st154{fill:#DEB689;}
	.st155{fill:#F2769B;}
	.st156{fill:#FAFAF8;}
	.st157{fill:#F7C3DB;}
	.st158{fill:#E3B9B4;}
	.st159{fill:#FFB9C3;}
	.st160{fill:#FFC5D6;}
	.st161{fill:#D72264;}
	.st162{fill:#F7F7F7;}
	.st163{fill:#F2F2F2;}
	.st164{fill:#FFFBF0;}
	.st165{fill:#FFBFCF;}
	.st166{fill:#FF6794;}
	.st167{fill:#FFC2C1;}
	.st168{fill:#FFCCD5;}
	.st169{fill:#B39D8E;}
	.st170{fill:#FFE2EA;}
	.st171{fill:#F1F1F1;}
	.st172{fill:#FF9DAE;}
	.st173{fill:#A2C4DB;}
	.st174{fill:#583B34;}
	.st175{fill:#B1CFE4;}
	.st176{fill:#FBFBFA;}
	.st177{fill:#E0CFC7;}
	.st178{fill:#D9946B;}
	.st179{fill:#FFE9F2;}
	.st180{fill:#FFDBE5;}
	.st181{fill:#F2CCC1;}
	.st182{fill:#DF4E50;}
	.st183{fill:#00C377;}
	.st184{fill:#87E4AE;}
	.st185{fill:#00B45A;}
	.st186{fill:#7FD9A9;}
	.st187{fill:#F1BB3A;}
	.st188{fill:#B89E65;}
	.st189{fill:#97D183;}
	.st190{fill:#3C3724;}
	.st191{fill:#D5BDA1;}
	.st192{fill:#9B8174;}
	.st193{fill:#587147;}
	.st194{fill:#E6D5BD;}
	.st195{fill:#5CC588;}
	.st196{clip-path:url(#SVGID_58_);fill:#A6E5C3;}
	.st197{clip-path:url(#SVGID_58_);fill:#FFFFFF;}
	.st198{clip-path:url(#SVGID_58_);fill:#58D196;}
	.st199{fill:#FFEF6E;}
	.st200{fill:#FFE200;}
	.st201{clip-path:url(#SVGID_60_);fill:#FDA157;}
	.st202{clip-path:url(#SVGID_60_);fill-rule:evenodd;clip-rule:evenodd;fill:#FF8429;}
	.st203{clip-path:url(#SVGID_60_);fill:#F35000;}
	.st204{clip-path:url(#SVGID_60_);fill:#F8B846;}
	.st205{fill:#F35000;}
	.st206{fill:#FF8429;}
	.st207{fill:#FFAB33;}
	.st208{fill:#E46D00;}
	.st209{fill:#EE6406;}
	.st210{fill:#FF9B00;}
	.st211{fill:#130077;}
	.st212{fill:#FFB58D;}
	.st213{opacity:0.3;}
	.st214{fill:#FF7300;}
	.st215{fill:#6E0000;}
	.st216{fill-rule:evenodd;clip-rule:evenodd;fill:#FF9B00;}
	.st217{fill-rule:evenodd;clip-rule:evenodd;fill:url(#SVGID_61_);}
	.st218{opacity:0.3;fill-rule:evenodd;clip-rule:evenodd;fill:#A3002C;}
	.st219{fill-rule:evenodd;clip-rule:evenodd;fill:url(#SVGID_62_);}
	.st220{fill-rule:evenodd;clip-rule:evenodd;fill:url(#SVGID_63_);}
	.st221{opacity:0.5;fill-rule:evenodd;clip-rule:evenodd;fill:url(#SVGID_64_);}
	.st222{fill-rule:evenodd;clip-rule:evenodd;fill:#FFC384;}
	.st223{fill-rule:evenodd;clip-rule:evenodd;fill:url(#SVGID_65_);}
	.st224{fill-rule:evenodd;clip-rule:evenodd;fill:url(#SVGID_66_);}
	.st225{fill-rule:evenodd;clip-rule:evenodd;fill:url(#SVGID_67_);}
	.st226{opacity:0.5;fill-rule:evenodd;clip-rule:evenodd;fill:url(#SVGID_68_);}
	.st227{fill-rule:evenodd;clip-rule:evenodd;fill:#FDA157;}
	.st228{opacity:0.5;fill-rule:evenodd;clip-rule:evenodd;fill:#FDA157;}
	.st229{fill-rule:evenodd;clip-rule:evenodd;fill:#FF8429;}
	.st230{fill-rule:evenodd;clip-rule:evenodd;fill:#FFAB33;}
	.st231{opacity:0.62;fill-rule:evenodd;clip-rule:evenodd;fill:#C7002A;}
	.st232{opacity:0.5;fill-rule:evenodd;clip-rule:evenodd;fill:#FF8429;}
	.st233{opacity:0.5;fill-rule:evenodd;clip-rule:evenodd;fill:#8E5472;}
	.st234{opacity:0.3;fill-rule:evenodd;clip-rule:evenodd;fill:url(#SVGID_69_);}
	.st235{opacity:0.5;fill-rule:evenodd;clip-rule:evenodd;fill:url(#SVGID_70_);}
	.st236{opacity:0.3;fill-rule:evenodd;clip-rule:evenodd;fill:url(#SVGID_71_);}
	.st237{opacity:0.3;fill-rule:evenodd;clip-rule:evenodd;fill:url(#SVGID_72_);}
	.st238{clip-path:url(#SVGID_74_);}
	.st239{clip-path:url(#SVGID_74_);fill:#FF8429;}
	.st240{fill:#FDA157;}
	.st241{clip-path:url(#SVGID_76_);}
	.st242{fill:#F58800;}
	.st243{clip-path:url(#SVGID_78_);}
	.st244{fill:#F8B846;}
	.st245{clip-path:url(#SVGID_80_);}
	.st246{clip-path:url(#SVGID_80_);fill:#FF8429;}
	.st247{fill-rule:evenodd;clip-rule:evenodd;fill:url(#SVGID_81_);}
	.st248{fill-rule:evenodd;clip-rule:evenodd;fill:url(#SVGID_82_);}
	.st249{fill-rule:evenodd;clip-rule:evenodd;fill:url(#SVGID_83_);}
	.st250{opacity:0.5;fill-rule:evenodd;clip-rule:evenodd;fill:url(#SVGID_84_);}
	.st251{fill-rule:evenodd;clip-rule:evenodd;fill:url(#SVGID_85_);}
	.st252{fill-rule:evenodd;clip-rule:evenodd;fill:url(#SVGID_86_);}
	.st253{fill-rule:evenodd;clip-rule:evenodd;fill:url(#SVGID_87_);}
	.st254{opacity:0.5;fill-rule:evenodd;clip-rule:evenodd;fill:url(#SVGID_88_);}
	.st255{opacity:0.3;fill-rule:evenodd;clip-rule:evenodd;fill:url(#SVGID_89_);}
	.st256{opacity:0.5;fill-rule:evenodd;clip-rule:evenodd;fill:url(#SVGID_90_);}
	.st257{opacity:0.3;fill-rule:evenodd;clip-rule:evenodd;fill:url(#SVGID_91_);}
	.st258{opacity:0.3;fill-rule:evenodd;clip-rule:evenodd;fill:url(#SVGID_92_);}
	.st259{opacity:0.88;fill:#FFFEF3;}
	.st260{fill:#FFCF66;}
	.st261{fill:#AFABAC;}
	.st262{fill:#FFE473;}
	.st263{fill:#FFE787;}
	.st264{fill:#F6C700;}
	.st265{fill:#FFEA96;}
	.st266{clip-path:url(#SVGID_94_);fill:#FFCB33;}
	.st267{clip-path:url(#SVGID_94_);fill:#FFE406;}
	.st268{clip-path:url(#SVGID_96_);fill:#921C9F;}
	.st269{opacity:0.5;clip-path:url(#SVGID_96_);}
	.st270{fill:#921C9F;}
	.st271{clip-path:url(#SVGID_96_);}
	.st272{clip-path:url(#SVGID_98_);fill:#E097E9;}
	.st273{fill:#CC37D8;}
	.st274{opacity:0.5;fill:#FFFFFF;}
	.st275{opacity:0.5;fill:#FFFFFF;stroke:#FFFFFF;stroke-miterlimit:10;}
	.st276{opacity:0.68;fill:#FFFFFF;}
	.st277{fill:#F0C6F4;}
	.st278{fill:#D9A2E1;}
	.st279{fill:#AA7B41;}
	.st280{fill:#8C9295;}
	.st281{fill:#CDD0D3;}
	.st282{fill:#DFDBD1;}
	.st283{fill:#543F31;}
	.st284{fill:#C38A75;}
	.st285{fill:#B3B9BC;}
	.st286{fill:#8B9295;}
	.st287{fill:#D59C87;}
	.st288{fill:#3DD1F9;}
	.st289{fill:#57CAF9;}
	.st290{fill:#F92405;}
	.st291{fill:#B30000;}
	.st292{fill:#FA3C20;}
	.st293{fill:#E2A080;}
	.st294{fill:#950000;}
	.st295{fill:#F50000;}
	.st296{clip-path:url(#SVGID_100_);fill:#F787A5;}
	.st297{clip-path:url(#SVGID_100_);fill:#FFE9F2;}
	.st298{clip-path:url(#SVGID_100_);fill:#D3CFB3;}
	.st299{clip-path:url(#SVGID_100_);fill:#FFDBE5;}
	.st300{clip-path:url(#SVGID_100_);}
	.st301{clip-path:url(#SVGID_100_);fill:#FFC5D6;}
	.st302{fill:#FA90B4;}
	.st303{fill:#BCA494;}
	.st304{fill:#63443C;}
	.st305{fill:#CFABA0;}
	.st306{fill:#A1C3DA;}
	.st307{fill:#9B7972;}
	.st308{fill:#77573F;}
	.st309{fill-rule:evenodd;clip-rule:evenodd;fill:#FA3C20;}
	.st310{fill-rule:evenodd;clip-rule:evenodd;fill:#D00707;}
	.st311{fill-rule:evenodd;clip-rule:evenodd;fill:#F92405;}
	.st312{fill-rule:evenodd;clip-rule:evenodd;fill:#F50000;}
	.st313{fill-rule:evenodd;clip-rule:evenodd;fill:#F95F53;}
	.st314{fill:#F95F53;}
	.st315{clip-path:url(#SVGID_102_);fill:#574435;}
	.st316{clip-path:url(#SVGID_102_);fill:#C8A37C;}
	.st317{clip-path:url(#SVGID_102_);fill:#91693D;}
	.st318{clip-path:url(#SVGID_102_);fill:#D00707;}
	.st319{clip-path:url(#SVGID_102_);fill:#FA3C20;}
	.st320{clip-path:url(#SVGID_102_);fill:#950000;}
	.st321{clip-path:url(#SVGID_102_);fill:#F95F53;}
	.st322{clip-path:url(#SVGID_102_);fill:#131212;}
	.st323{clip-path:url(#SVGID_102_);fill:#B30000;}
	.st324{clip-path:url(#SVGID_102_);fill:#412A1A;}
	.st325{clip-path:url(#SVGID_102_);fill:#DEC6AF;}
	.st326{clip-path:url(#SVGID_102_);fill:#BF855C;}
	.st327{fill:#D00707;}
	.st328{fill:#AB9DB8;}
	.st329{fill:#381A12;}
	.st330{fill:#EBCBB8;}
	.st331{fill:#AC9EBB;}
	.st332{fill:#F8F6F5;}
	.st333{fill:#0A345E;}
	.st334{fill:#412A1A;}
	.st335{fill:#131212;}
	.st336{fill:#DEC6AF;}
	.st337{fill:#BF855C;}
	.st338{opacity:0.79;fill:#FFB9C3;}
	.st339{opacity:0.79;fill:#FA90B4;}
	.st340{fill:#83D5FB;}
	.st341{fill:#00ABF0;}
	.st342{fill:#31C5F8;}
	.st343{opacity:0.6;fill:#FFFFFF;}
	.st344{opacity:0.34;fill:#FFFFFF;}
	.st345{opacity:0.25;fill:#FFFFFF;}
	.st346{opacity:0.6;}
	.st347{fill:#B2B0AD;}
	.st348{fill:#0D0707;}
	.st349{fill:#A6A6A6;}
	.st350{fill:#0068A8;}
	.st351{fill:#FF6567;}
	.st352{opacity:0.17;fill:#FFFFFF;}
	.st353{opacity:0.39;fill:#FFFFFF;}
	.st354{opacity:0.71;fill:#FFFFFF;}
	.st355{fill:#6DCFD1;}
	.st356{fill:#2B747C;}
	.st357{fill:#1E1E1E;}
	.st358{fill:#272727;}
	.st359{fill:#3FA5B0;}
	.st360{fill:#1F1F1F;}
	.st361{fill:#242424;}
	.st362{opacity:0.81;}
	.st363{fill-rule:evenodd;clip-rule:evenodd;fill:#2B747C;}
	.st364{fill-rule:evenodd;clip-rule:evenodd;fill:#6DCFD1;}
	.st365{fill-rule:evenodd;clip-rule:evenodd;fill:#3FA5B0;}
	.st366{clip-path:url(#SVGID_104_);fill:#3FA5B0;}
	.st367{clip-path:url(#SVGID_104_);fill:#2AB3BA;}
	.st368{clip-path:url(#SVGID_104_);fill:#55AFB7;}
	.st369{clip-path:url(#SVGID_104_);fill:#00ACBD;}
	.st370{clip-path:url(#SVGID_104_);fill:#616161;}
	.st371{clip-path:url(#SVGID_104_);fill:#6DCFD1;}
	.st372{clip-path:url(#SVGID_104_);fill:#2B747C;}
	.st373{fill:#214181;}
	.st374{fill:#616161;}
</style>
<path class="st141" d="M-0.09,646.88c0-64.32,0-128.63,0-192.95c2.24-3.25,5.58-4.67,9.21-5.78c22.94-7.01,45.99-13.64,68.89-20.77
	c25.86-8.05,51.82-15.8,77.72-23.71c23.43-7.16,46.85-14.36,70.3-21.46c2.46-0.74,5.06-1.03,7.58-1.53c2.64-0.53,5.76-0.28,7.02-3.9
	c0.49-1.39,2.77-1.02,4.26-1.35c14.32-3.92,28.35-8.76,42.5-13.21c30.62-9.64,61.17-19.46,91.72-29.3
	c39.42-12.7,78.91-25.17,118.34-37.87c26.12-8.41,52.26-16.75,78.41-25.08c2.9-0.92,6.15-3.12,9.01,0.34c0,109.96,0,219.92,0,329.88
	c-1.34,1.51-2.91,2.34-5.02,2.62c-12.46,1.63-25.02,2.06-37.52,3.17c-23.64,2.11-47.35,3.51-70.95,6.06
	c-1.02,0.11-2.08-0.01-2.88,0.82c-3.72,2.05-4.52-1.47-5.7-3.35c-5.97-9.5-11.21-19.44-16.85-29.13
	c-7.39-12.69-14.23-25.68-20.46-38.96c-3.04-6.47-7.6-9.24-14.64-9.21c-18.64,0.09-37.29,0.05-55.94,0.02
	c-11.36,0.03-22.85,0.92-34.04-0.3c-15.42-1.67-30.74,0.27-46.06-0.78c-17.51-1.93-35.1-0.56-52.65-1
	c-6.46-0.16-10.39,2.76-13.46,8.42c-4.85,8.94-8.85,18.36-14.84,26.69c-1.2,1.66-0.44,4.46-2.63,5.84
	c-8.61,10.76-15.42,22.74-22.78,34.32c-6.55,10.3-13.36,20.42-19.91,30.71c-1.2,1.89-2.35,4.57-5.57,2.89
	c-12.22,0.39-24.37,1.7-36.54,2.66c-19.06,1.5-38.1,3.28-57.17,4.7c-14.08,1.05-28.11,2.9-42.25,3.08
	C4.28,649.51,1.67,649.39-0.09,646.88z"/>
<path class="st140" d="M467.65,611.63c1.96-2.38,4.78-2.64,7.51-2.87c33.98-2.85,67.97-5.67,101.96-8.45
	c2.57-0.21,5.17-0.08,7.75-0.11c0,96.82-0.03,193.64,0.1,290.46c0,3.55-0.7,4.25-4.25,4.25c-192.22-0.11-384.45-0.11-576.67,0
	c-3.55,0-4.25-0.7-4.25-4.25c0.13-81.26,0.1-162.52,0.1-243.78c22.15-0.04,44.09-3.01,66.13-4.66c23.42-1.76,46.82-3.82,70.23-5.64
	c2.67-0.21,5.56-0.93,7.98,1.09c2.78,2.14,0.55,4-0.47,5.72c-7.29,12.27-15.14,24.19-22.86,36.2c-2.6,4.05-5.28,8.05-7.69,12.22
	c-1.62,2.81-0.67,4.1,2.45,4.33c2.45,0.18,5.31-0.79,7,2.07c-0.23,8.32,5.34,9.8,12.04,11.3c33.31,7.42,66.67,14.59,99.93,22.21
	c7.99,1.83,16.33,2.59,23.89,6.19c1.41,0.67,2.9,0.33,4.33-0.16c1.16-0.27,2.29-0.73,3.51-0.64c3.56,3.15,7.78,2.83,11.95,2.05
	c29.9-5.62,59.84-10.99,90.01-14.92c25.47-3.32,50.42-9.6,75.86-13.08c10.81-1.48,21.66-2.52,32.47-3.98
	c7.21-0.97,14.3-2.55,21.45-3.81c1.14-0.2,2.48-0.35,2.6-1.97c0.26-4.26,3.6-4,6.43-4.16c9.1-0.51,9.22-0.54,4.3-8.43
	c-10.85-17.4-21.67-34.82-32.17-52.43c-1.5-2.51-4.27-4.02-5.04-6.99c-1.43-4.48-4.04-8.34-6.49-12.28
	C466.64,615.28,465.57,613.5,467.65,611.63z"/>
<path class="st142" d="M-0.09,124.05c0-40.46,0-80.91,0-121.37C1.48,0.87,3.47,0,5.86,0.08c1.55,0.05,3.1,0,4.65,0
	c187.92,0.02,375.84,0.01,563.76,0.03c3.7,0,7.71-0.91,10.61,2.57c0,40.46,0,80.91,0,121.37c-1.57,1.78-3.55,2.68-5.93,2.61
	c-6.03-0.18-12.09,0.42-18.1-0.55c-5.9-0.95-11.71,0.54-17.57,0.54c-163.11,0-326.22,0.12-489.33-0.21
	c-15.53-0.03-31.04,0.96-46.57,0.22C4.56,126.53,1.84,126.53-0.09,124.05z"/>
<path class="st141" d="M-0.09,124.05c194.99,0,389.98,0,584.97,0c0,32.5,0,65.01,0,97.51c-1.6,2.67-3.96,4.15-6.97,4.89
	c-3.35,0.83-6.62,2-9.82,3.33c-10.3,4.29-20.77,5.18-31.94,3.68c-14.7-1.97-29.56-2.69-44.42-3.16c-23.99-0.77-47.97-2.4-71.98-1.92
	c-28.48,0.58-56.95,1.52-85.42,2.81c-20.53,0.93-41.05,2.1-61.53,3.57c-20.66,1.49-41.31,3.29-61.93,5.43
	c-27.15,2.82-54.28,5.8-81.35,9.18c-22.1,2.76-44.17,5.88-66.19,9.29c-18.44,2.86-36.92,5.41-55.29,8.75
	c-3.03,0.55-6.03,0.61-8.14-2.3C-0.09,218.1-0.09,171.08-0.09,124.05z"/>
<path class="st142" d="M-0.09,265.13c11.48-0.13,22.53-3.27,33.8-4.89c27.86-3.98,55.69-8.22,83.59-11.95
	c41.43-5.53,82.96-10.16,124.59-13.78c23.89-2.08,47.84-3.72,71.81-4.97c42.78-2.22,85.57-4.39,128.39-3.57
	c34.5,0.66,69.07,1.25,103.39,5.6c3.66,0.46,7.2,0.19,10.74-0.95c9.53-3.07,19.1-6.05,28.66-9.06c0,16.25,0,32.5,0,48.76
	c-22.89,7.22-45.8,14.41-68.68,21.67C475.21,305,434.22,318,393.26,331.11c-38.66,12.37-77.27,24.88-115.91,37.29
	c-10.52,3.38-21.09,6.61-31.64,9.92c-12.52,4.08-25.28,2.12-37.91,1.16c-15.83-1.2-31.69-1.68-47.52-2.78
	c-21.5-1.49-43.03-2.73-64.55-3.84c-19.81-1.02-39.59-2.58-59.4-3.54c-10.68-0.52-21.33-1.49-32-2.11c-2.03-0.12-3.16-1.3-4.43-2.49
	C-0.09,331.52-0.09,298.33-0.09,265.13z"/>
<path class="st140" d="M-0.09,364.72c21.57,0.17,43.03,2.46,64.56,3.48c21.01,1,41.99,2.51,62.98,3.78
	c27.36,1.66,54.72,3.35,82.09,4.93c12.05,0.7,24.09,1.7,36.18,1.41c-7.62,4.3-16.21,5.86-24.43,8.41
	c-35.28,10.92-70.58,21.74-105.92,32.47c-24.27,7.37-48.61,14.49-72.9,21.78c-14.21,4.26-28.38,8.64-42.57,12.96
	C-0.09,424.19-0.09,394.46-0.09,364.72z"/>
<path class="st374" d="M335.95,724.69c-2.08,0.35-4.15,0.7-6.23,1.04c2.44-3.02,5.76-3.19,10.37-2.85
	C338.11,723.74,337.03,724.22,335.95,724.69z"/>
<path class="st355" d="M138.93,697.94c-1.46-2.45,0.38-4.31,1.27-6.22c17.43-37.49,34.91-74.96,52.38-112.43
	c0.96-1.84,1.84-3.72,2.89-5.49c0.83-1.39,0.58-3.98,2.76-3.87c1.64,0.08,1.84,2.3,2.41,3.69c4.56,11.01,9.06,22.05,13.61,33.07
	c0.94,2.27,1.38,4.62,1.57,7.05c2.32,5.77,1.05,11.82,1.35,17.74c0.62,12.42-0.91,24.84,0.11,37.26c0.14,1.69-0.55,3.18-2.58,3.44
	c-7.86,3.48-16.2,5.73-24.13,9.11c-5.38,2.3-9.55,5.52-10.68,11.62c-0.42,2.26-1.56,3.85-3.98,4.09
	c-11.4,1.11-22.77,2.87-34.29,1.81C140.63,698.71,139.75,698.49,138.93,697.94z"/>
<path class="st355" d="M236.1,659.41c0.29,3.14,4.39,5.79,1.21,9.37c-0.57,1.11-1.32,2.21-2.68,2.05
	c-4.64-0.52-9.22,0.97-13.85,0.36c-0.99-0.38-2.07-0.55-2.93-1.31c-1.79-5.55-0.83-11.22-0.65-16.9c0.29-9.28-0.13-18.58,0.15-27.87
	c0.07-2.54,0.59-4.05,3.44-3.71C224.92,634.46,230.95,646.76,236.1,659.41z"/>
<rect x="214.37" y="602.92" class="st356" width="4.88" height="128.01"/>
<path class="st355" d="M193.65,561.47c-29.67,45.92-59.33,91.84-89,137.76c5.69,0,11.38,0,17.07,0
	c25.6-43.08,51.2-86.15,76.8-129.23C196.9,567.16,195.27,564.32,193.65,561.47z"/>
<path class="st356" d="M202.18,562.69c-20.32,45.51-40.64,91.03-60.96,136.54c42.67,7.31,85.34,14.63,128.01,21.94
	c-1.22,8.13-2.44,16.26-3.66,24.38c-49.98-12.19-99.97-24.38-149.95-36.57C144.48,660.22,173.33,611.46,202.18,562.69z"/>
<path class="st356" d="M193.65,561.47c23.98,61.36,47.95,122.72,71.93,184.09c87.37-15.04,174.74-30.07,262.11-45.11
	c-34.14-56.89-68.27-113.78-102.41-170.68c-72.33-2.03-144.67-4.06-217-6.1C203.4,536.28,198.52,548.88,193.65,561.47z"/>
</svg>
