<?xml version="1.0" encoding="utf-8"?>
<!-- Generator: Adobe Illustrator 24.2.3, SVG Export Plug-In . SVG Version: 6.00 Build 0)  -->
<svg version="1.1" id="Слой_1" xmlns="http://www.w3.org/2000/svg" xmlns:xlink="http://www.w3.org/1999/xlink" x="0px" y="0px"
	 viewBox="0 0 585 243" style="enable-background:new 0 0 585 243;" xml:space="preserve">
<style type="text/css">
	.st0{fill:#000600;}
	.st1{clip-path:url(#SVGID_2_);fill:#2B747C;}
	.st2{clip-path:url(#SVGID_2_);fill:#55AFB7;}
	.st3{clip-path:url(#SVGID_2_);fill:#3FA5B0;}
	.st4{clip-path:url(#SVGID_2_);fill:#6DCFD1;}
	.st5{clip-path:url(#SVGID_2_);fill:#214181;}
	.st6{fill:#0071C5;}
	.st7{clip-path:url(#SVGID_4_);fill:#83D5FB;}
	.st8{clip-path:url(#SVGID_4_);fill:#00ABF0;}
	.st9{clip-path:url(#SVGID_4_);fill:#57CAF9;}
	.st10{clip-path:url(#SVGID_4_);fill:#0071C5;}
	.st11{clip-path:url(#SVGID_4_);fill:#31C5F8;}
	.st12{clip-path:url(#SVGID_4_);fill:#3DD1F9;}
	.st13{clip-path:url(#SVGID_6_);fill:#00ABF0;}
	.st14{clip-path:url(#SVGID_6_);fill:#83D5FB;}
	.st15{clip-path:url(#SVGID_6_);fill:#31C5F8;}
	.st16{clip-path:url(#SVGID_6_);fill:#0071C5;}
	.st17{clip-path:url(#SVGID_6_);fill:#57CAF9;}
	.st18{clip-path:url(#SVGID_6_);fill:#A6A6A6;}
	.st19{opacity:0.14;fill:#000600;}
	.st20{clip-path:url(#SVGID_10_);fill:#D670E1;}
	.st21{clip-path:url(#SVGID_10_);fill:#E7B3EE;}
	.st22{clip-path:url(#SVGID_10_);fill:#8C9295;}
	.st23{clip-path:url(#SVGID_10_);fill:#921C9F;}
	.st24{clip-path:url(#SVGID_10_);fill:#CDD0D3;}
	.st25{clip-path:url(#SVGID_10_);fill:#DFDBD1;}
	.st26{clip-path:url(#SVGID_10_);fill:#543F31;}
	.st27{clip-path:url(#SVGID_10_);fill:#C38A75;}
	.st28{clip-path:url(#SVGID_10_);fill:#B3B9BC;}
	.st29{clip-path:url(#SVGID_10_);fill:#8B9295;}
	.st30{clip-path:url(#SVGID_10_);fill:#D59C87;}
	.st31{fill:#E7B3EE;}
	.st32{clip-path:url(#SVGID_12_);}
	.st33{fill:#E097E9;}
	.st34{fill:#D670E1;}
	.st35{clip-path:url(#SVGID_14_);fill:#FFE406;}
	.st36{opacity:0.5;clip-path:url(#SVGID_14_);}
	.st37{fill:#A2C9FF;}
	.st38{fill:#FF8B00;}
	.st39{clip-path:url(#SVGID_14_);fill:#FFECA0;}
	.st40{clip-path:url(#SVGID_14_);}
	.st41{fill:#FFCB33;}
	.st42{fill:#FFECA0;}
	.st43{fill:#2A356B;}
	.st44{clip-path:url(#SVGID_14_);fill:#FFCB33;}
	.st45{clip-path:url(#SVGID_14_);fill:#A2C9FF;}
	.st46{clip-path:url(#SVGID_14_);fill:#FF8B00;}
	.st47{clip-path:url(#SVGID_14_);fill:#2A356B;}
	.st48{fill:#1B254E;}
	.st49{clip-path:url(#SVGID_14_);fill:#C22C28;}
	.st50{clip-path:url(#SVGID_14_);fill:#FF7400;}
	.st51{fill:#FFE406;}
	.st52{clip-path:url(#SVGID_14_);fill:#FFEF6E;}
	.st53{clip-path:url(#SVGID_16_);fill:#FFE473;}
	.st54{fill:#FFFFFF;}
	.st55{fill:#ACD7C2;}
	.st56{fill:none;stroke:#FFFFFF;stroke-miterlimit:10;}
	.st57{fill:#A1CAAA;}
	.st58{fill:#95CCA0;}
	.st59{opacity:0.76;}
	.st60{fill:#C3E8CC;}
	.st61{fill:url(#SVGID_17_);}
	.st62{fill:url(#SVGID_18_);}
	.st63{fill:url(#SVGID_19_);}
	.st64{fill:#F5E5BD;}
	.st65{fill:url(#SVGID_20_);}
	.st66{fill:url(#SVGID_21_);}
	.st67{fill:url(#SVGID_22_);}
	.st68{fill:url(#SVGID_23_);}
	.st69{fill:url(#SVGID_24_);}
	.st70{fill:url(#SVGID_25_);}
	.st71{fill:#E3EDC3;}
	.st72{fill:#EEFAD1;}
	.st73{fill:url(#SVGID_26_);}
	.st74{fill:url(#SVGID_27_);}
	.st75{fill:url(#SVGID_28_);}
	.st76{fill:url(#SVGID_29_);}
	.st77{fill:url(#SVGID_30_);}
	.st78{fill:#FFE392;}
	.st79{clip-path:url(#SVGID_32_);fill:url(#SVGID_33_);}
	.st80{fill:#5B2A1E;}
	.st81{fill:#8F7673;}
	.st82{fill:url(#SVGID_34_);}
	.st83{fill:url(#SVGID_35_);}
	.st84{fill:url(#SVGID_36_);}
	.st85{fill:url(#SVGID_37_);}
	.st86{fill:#FF8A8A;}
	.st87{fill:url(#SVGID_38_);}
	.st88{fill:#FF963A;}
	.st89{opacity:0.75;fill:#FFFFFF;}
	.st90{fill:#FFC181;}
	.st91{fill:none;}
	.st92{clip-path:url(#SVGID_40_);fill:#FFDFBD;}
	.st93{clip-path:url(#SVGID_40_);fill:#FF9D00;}
	.st94{clip-path:url(#SVGID_40_);fill:#FFF3DF;}
	.st95{clip-path:url(#SVGID_42_);fill:#FFBAE4;}
	.st96{opacity:0.8;clip-path:url(#SVGID_42_);fill:#FE82C8;}
	.st97{clip-path:url(#SVGID_42_);fill:#FE82C8;}
	.st98{opacity:0.79;clip-path:url(#SVGID_42_);fill:#FFBAE4;}
	.st99{fill:url(#SVGID_43_);}
	.st100{fill:#FFFEEA;}
	.st101{fill:#58D196;}
	.st102{fill:#A6E5C3;}
	.st103{fill:#D2F2E1;}
	.st104{opacity:0.44;fill:#FFFFFF;}
	.st105{clip-path:url(#SVGID_45_);fill:#FFF9C1;}
	.st106{fill:url(#SVGID_46_);}
	.st107{fill:url(#SVGID_47_);}
	.st108{opacity:0.86;fill:#FFCCD5;}
	.st109{fill:url(#SVGID_48_);}
	.st110{opacity:0.66;}
	.st111{opacity:0.37;fill:#FFFFFF;}
	.st112{opacity:0.4;}
	.st113{opacity:0.26;fill:#FFFFFF;}
	.st114{opacity:0.62;fill:#FFFFFF;}
	.st115{opacity:0.41;fill:#FFFFFF;}
	.st116{opacity:0.69;fill:#FFFFFF;}
	.st117{opacity:0.73;fill:#FFFFFF;}
	.st118{opacity:0.16;fill:#FFFFFF;}
	.st119{opacity:0.3;fill:#FFFFFF;}
	.st120{opacity:0.23;fill:#FFFFFF;}
	.st121{opacity:0.24;fill:#FFFFFF;}
	.st122{opacity:0.43;fill:#FFFFFF;}
	.st123{opacity:0.76;fill:#FFFFFF;}
	.st124{opacity:0.08;fill:#FFFFFF;}
	.st125{opacity:0.27;fill:#FFFFFF;}
	.st126{opacity:0.46;}
	.st127{opacity:0.86;fill:#FFFFFF;}
	.st128{opacity:0.54;fill:#FFFFFF;}
	.st129{opacity:0.28;}
	.st130{clip-path:url(#SVGID_50_);}
	.st131{fill:#FF6B81;}
	.st132{clip-path:url(#SVGID_50_);fill:none;}
	.st133{fill:none;stroke:#FFFFFF;stroke-width:2;stroke-miterlimit:10;}
	.st134{opacity:0.45;fill:#FFFFFF;}
	.st135{opacity:0.8;fill:#FFFFFF;}
	.st136{opacity:0.79;fill:#FFFFFF;}
	.st137{fill:#F1C4A9;}
	.st138{fill:none;stroke:#FFFFFF;stroke-width:0.75;stroke-miterlimit:10;}
	.st139{fill:#FFFFFF;stroke:#FFFFFF;stroke-width:0.25;stroke-miterlimit:10;}
	.st140{fill:#55AFB7;}
	.st141{fill:#2AB3BA;}
	.st142{fill:#00ACBD;}
	.st143{fill:#F787A5;}
	.st144{fill:#91693D;}
	.st145{fill:#FBBACC;}
	.st146{fill:#E6678D;}
	.st147{fill:#574435;}
	.st148{fill:#C8A37C;}
	.st149{fill:#641F1E;}
	.st150{fill:#F15E89;}
	.st151{fill:#E7005E;}
	.st152{fill:#DDB689;}
	.st153{fill:#FF1B6F;}
	.st154{fill:#DEB689;}
	.st155{fill:#F2769B;}
	.st156{fill:#FAFAF8;}
	.st157{fill:#F7C3DB;}
	.st158{fill:#E3B9B4;}
	.st159{fill:#FFB9C3;}
	.st160{fill:#FFC5D6;}
	.st161{fill:#D72264;}
	.st162{fill:#F7F7F7;}
	.st163{fill:#F2F2F2;}
	.st164{fill:#FFFBF0;}
	.st165{fill:#FFBFCF;}
	.st166{fill:#FF6794;}
	.st167{fill:#FFC2C1;}
	.st168{fill:#FFCCD5;}
	.st169{fill:#B39D8E;}
	.st170{fill:#FFE2EA;}
	.st171{fill:#F1F1F1;}
	.st172{fill:#FF9DAE;}
	.st173{fill:#A2C4DB;}
	.st174{fill:#583B34;}
	.st175{fill:#B1CFE4;}
	.st176{fill:#FBFBFA;}
	.st177{fill:#E0CFC7;}
	.st178{fill:#D9946B;}
	.st179{fill:#FFE9F2;}
	.st180{fill:#FFDBE5;}
	.st181{fill:#F2CCC1;}
	.st182{fill:#DF4E50;}
	.st183{fill:#00C377;}
	.st184{fill:#87E4AE;}
	.st185{fill:#00B45A;}
	.st186{fill:#7FD9A9;}
	.st187{fill:#F1BB3A;}
	.st188{fill:#B89E65;}
	.st189{fill:#97D183;}
	.st190{fill:#3C3724;}
	.st191{fill:#D5BDA1;}
	.st192{fill:#9B8174;}
	.st193{fill:#587147;}
	.st194{fill:#E6D5BD;}
	.st195{fill:#5CC588;}
	.st196{clip-path:url(#SVGID_58_);fill:#A6E5C3;}
	.st197{clip-path:url(#SVGID_58_);fill:#FFFFFF;}
	.st198{clip-path:url(#SVGID_58_);fill:#58D196;}
	.st199{fill:#FFEF6E;}
	.st200{fill:#FFE200;}
	.st201{clip-path:url(#SVGID_60_);fill:#FDA157;}
	.st202{clip-path:url(#SVGID_60_);fill-rule:evenodd;clip-rule:evenodd;fill:#FF8429;}
	.st203{clip-path:url(#SVGID_60_);fill:#F35000;}
	.st204{clip-path:url(#SVGID_60_);fill:#F8B846;}
	.st205{fill:#F35000;}
	.st206{fill:#FF8429;}
	.st207{fill:#FFAB33;}
	.st208{fill:#E46D00;}
	.st209{fill:#EE6406;}
	.st210{fill:#FF9B00;}
	.st211{fill:#130077;}
	.st212{fill:#FFB58D;}
	.st213{opacity:0.3;}
	.st214{fill:#FF7300;}
	.st215{fill:#6E0000;}
	.st216{fill-rule:evenodd;clip-rule:evenodd;fill:#FF9B00;}
	.st217{fill-rule:evenodd;clip-rule:evenodd;fill:url(#SVGID_61_);}
	.st218{opacity:0.3;fill-rule:evenodd;clip-rule:evenodd;fill:#A3002C;}
	.st219{fill-rule:evenodd;clip-rule:evenodd;fill:url(#SVGID_62_);}
	.st220{fill-rule:evenodd;clip-rule:evenodd;fill:url(#SVGID_63_);}
	.st221{opacity:0.5;fill-rule:evenodd;clip-rule:evenodd;fill:url(#SVGID_64_);}
	.st222{fill-rule:evenodd;clip-rule:evenodd;fill:#FFC384;}
	.st223{fill-rule:evenodd;clip-rule:evenodd;fill:url(#SVGID_65_);}
	.st224{fill-rule:evenodd;clip-rule:evenodd;fill:url(#SVGID_66_);}
	.st225{fill-rule:evenodd;clip-rule:evenodd;fill:url(#SVGID_67_);}
	.st226{opacity:0.5;fill-rule:evenodd;clip-rule:evenodd;fill:url(#SVGID_68_);}
	.st227{fill-rule:evenodd;clip-rule:evenodd;fill:#FDA157;}
	.st228{opacity:0.5;fill-rule:evenodd;clip-rule:evenodd;fill:#FDA157;}
	.st229{fill-rule:evenodd;clip-rule:evenodd;fill:#FF8429;}
	.st230{fill-rule:evenodd;clip-rule:evenodd;fill:#FFAB33;}
	.st231{opacity:0.62;fill-rule:evenodd;clip-rule:evenodd;fill:#C7002A;}
	.st232{opacity:0.5;fill-rule:evenodd;clip-rule:evenodd;fill:#FF8429;}
	.st233{opacity:0.5;fill-rule:evenodd;clip-rule:evenodd;fill:#8E5472;}
	.st234{opacity:0.3;fill-rule:evenodd;clip-rule:evenodd;fill:url(#SVGID_69_);}
	.st235{opacity:0.5;fill-rule:evenodd;clip-rule:evenodd;fill:url(#SVGID_70_);}
	.st236{opacity:0.3;fill-rule:evenodd;clip-rule:evenodd;fill:url(#SVGID_71_);}
	.st237{opacity:0.3;fill-rule:evenodd;clip-rule:evenodd;fill:url(#SVGID_72_);}
	.st238{clip-path:url(#SVGID_74_);}
	.st239{clip-path:url(#SVGID_74_);fill:#FF8429;}
	.st240{fill:#FDA157;}
	.st241{clip-path:url(#SVGID_76_);}
	.st242{fill:#F58800;}
	.st243{clip-path:url(#SVGID_78_);}
	.st244{fill:#F8B846;}
	.st245{clip-path:url(#SVGID_80_);}
	.st246{clip-path:url(#SVGID_80_);fill:#FF8429;}
	.st247{fill-rule:evenodd;clip-rule:evenodd;fill:url(#SVGID_81_);}
	.st248{fill-rule:evenodd;clip-rule:evenodd;fill:url(#SVGID_82_);}
	.st249{fill-rule:evenodd;clip-rule:evenodd;fill:url(#SVGID_83_);}
	.st250{opacity:0.5;fill-rule:evenodd;clip-rule:evenodd;fill:url(#SVGID_84_);}
	.st251{fill-rule:evenodd;clip-rule:evenodd;fill:url(#SVGID_85_);}
	.st252{fill-rule:evenodd;clip-rule:evenodd;fill:url(#SVGID_86_);}
	.st253{fill-rule:evenodd;clip-rule:evenodd;fill:url(#SVGID_87_);}
	.st254{opacity:0.5;fill-rule:evenodd;clip-rule:evenodd;fill:url(#SVGID_88_);}
	.st255{opacity:0.3;fill-rule:evenodd;clip-rule:evenodd;fill:url(#SVGID_89_);}
	.st256{opacity:0.5;fill-rule:evenodd;clip-rule:evenodd;fill:url(#SVGID_90_);}
	.st257{opacity:0.3;fill-rule:evenodd;clip-rule:evenodd;fill:url(#SVGID_91_);}
	.st258{opacity:0.3;fill-rule:evenodd;clip-rule:evenodd;fill:url(#SVGID_92_);}
	.st259{opacity:0.88;fill:#FFFEF3;}
	.st260{fill:#FFCF66;}
	.st261{fill:#AFABAC;}
	.st262{fill:#FFE473;}
	.st263{fill:#FFE787;}
	.st264{fill:#F6C700;}
	.st265{fill:#FFEA96;}
	.st266{clip-path:url(#SVGID_94_);fill:#FFCB33;}
	.st267{clip-path:url(#SVGID_94_);fill:#FFE406;}
	.st268{clip-path:url(#SVGID_96_);fill:#921C9F;}
	.st269{opacity:0.5;clip-path:url(#SVGID_96_);}
	.st270{fill:#921C9F;}
	.st271{clip-path:url(#SVGID_96_);}
	.st272{clip-path:url(#SVGID_98_);fill:#E097E9;}
	.st273{fill:#CC37D8;}
	.st274{opacity:0.5;fill:#FFFFFF;}
	.st275{opacity:0.5;fill:#FFFFFF;stroke:#FFFFFF;stroke-miterlimit:10;}
	.st276{opacity:0.68;fill:#FFFFFF;}
	.st277{fill:#F0C6F4;}
	.st278{fill:#D9A2E1;}
	.st279{fill:#AA7B41;}
	.st280{fill:#8C9295;}
	.st281{fill:#CDD0D3;}
	.st282{fill:#DFDBD1;}
	.st283{fill:#543F31;}
	.st284{fill:#C38A75;}
	.st285{fill:#B3B9BC;}
	.st286{fill:#8B9295;}
	.st287{fill:#D59C87;}
	.st288{fill:#3DD1F9;}
	.st289{fill:#57CAF9;}
	.st290{fill:#F92405;}
	.st291{fill:#B30000;}
	.st292{fill:#FA3C20;}
	.st293{fill:#E2A080;}
	.st294{fill:#950000;}
	.st295{fill:#F50000;}
	.st296{clip-path:url(#SVGID_100_);fill:#F787A5;}
	.st297{clip-path:url(#SVGID_100_);fill:#FFE9F2;}
	.st298{clip-path:url(#SVGID_100_);fill:#D3CFB3;}
	.st299{clip-path:url(#SVGID_100_);fill:#FFDBE5;}
	.st300{clip-path:url(#SVGID_100_);}
	.st301{clip-path:url(#SVGID_100_);fill:#FFC5D6;}
	.st302{fill:#FA90B4;}
	.st303{fill:#BCA494;}
	.st304{fill:#63443C;}
	.st305{fill:#CFABA0;}
	.st306{fill:#A1C3DA;}
	.st307{fill:#9B7972;}
	.st308{fill:#77573F;}
	.st309{fill-rule:evenodd;clip-rule:evenodd;fill:#FA3C20;}
	.st310{fill-rule:evenodd;clip-rule:evenodd;fill:#D00707;}
	.st311{fill-rule:evenodd;clip-rule:evenodd;fill:#F92405;}
	.st312{fill-rule:evenodd;clip-rule:evenodd;fill:#F50000;}
	.st313{fill-rule:evenodd;clip-rule:evenodd;fill:#F95F53;}
	.st314{fill:#F95F53;}
	.st315{clip-path:url(#SVGID_102_);fill:#574435;}
	.st316{clip-path:url(#SVGID_102_);fill:#C8A37C;}
	.st317{clip-path:url(#SVGID_102_);fill:#91693D;}
	.st318{clip-path:url(#SVGID_102_);fill:#D00707;}
	.st319{clip-path:url(#SVGID_102_);fill:#FA3C20;}
	.st320{clip-path:url(#SVGID_102_);fill:#950000;}
	.st321{clip-path:url(#SVGID_102_);fill:#F95F53;}
	.st322{clip-path:url(#SVGID_102_);fill:#131212;}
	.st323{clip-path:url(#SVGID_102_);fill:#B30000;}
	.st324{clip-path:url(#SVGID_102_);fill:#412A1A;}
	.st325{clip-path:url(#SVGID_102_);fill:#DEC6AF;}
	.st326{clip-path:url(#SVGID_102_);fill:#BF855C;}
	.st327{fill:#D00707;}
	.st328{fill:#AB9DB8;}
	.st329{fill:#381A12;}
	.st330{fill:#EBCBB8;}
	.st331{fill:#AC9EBB;}
	.st332{fill:#F8F6F5;}
	.st333{fill:#0A345E;}
	.st334{fill:#412A1A;}
	.st335{fill:#131212;}
	.st336{fill:#DEC6AF;}
	.st337{fill:#BF855C;}
	.st338{opacity:0.79;fill:#FFB9C3;}
	.st339{opacity:0.79;fill:#FA90B4;}
	.st340{fill:#83D5FB;}
	.st341{fill:#00ABF0;}
	.st342{fill:#31C5F8;}
	.st343{opacity:0.6;fill:#FFFFFF;}
	.st344{opacity:0.34;fill:#FFFFFF;}
	.st345{opacity:0.25;fill:#FFFFFF;}
	.st346{opacity:0.6;}
	.st347{fill:#B2B0AD;}
	.st348{fill:#0D0707;}
	.st349{fill:#A6A6A6;}
	.st350{fill:#0068A8;}
	.st351{fill:#FF6567;}
	.st352{opacity:0.17;fill:#FFFFFF;}
	.st353{opacity:0.39;fill:#FFFFFF;}
	.st354{opacity:0.71;fill:#FFFFFF;}
	.st355{fill:#6DCFD1;}
	.st356{fill:#2B747C;}
	.st357{fill:#1E1E1E;}
	.st358{fill:#272727;}
	.st359{fill:#3FA5B0;}
	.st360{fill:#1F1F1F;}
	.st361{fill:#242424;}
	.st362{opacity:0.81;}
	.st363{fill-rule:evenodd;clip-rule:evenodd;fill:#2B747C;}
	.st364{fill-rule:evenodd;clip-rule:evenodd;fill:#6DCFD1;}
	.st365{fill-rule:evenodd;clip-rule:evenodd;fill:#3FA5B0;}
	.st366{clip-path:url(#SVGID_104_);fill:#3FA5B0;}
	.st367{clip-path:url(#SVGID_104_);fill:#2AB3BA;}
	.st368{clip-path:url(#SVGID_104_);fill:#55AFB7;}
	.st369{clip-path:url(#SVGID_104_);fill:#00ACBD;}
	.st370{clip-path:url(#SVGID_104_);fill:#616161;}
	.st371{clip-path:url(#SVGID_104_);fill:#6DCFD1;}
	.st372{clip-path:url(#SVGID_104_);fill:#2B747C;}
	.st373{fill:#214181;}
	.st374{fill:#616161;}
</style>
<path class="st356" d="M461.92,55.12c1.27-2.09,3.55-2.75,5.43-4.01c6.97-4.68,15.54-5.12,23.03-8.77
	c4.02-1.96,10.25-0.53,15.06-3.3c0.82-0.47,2.48-0.31,3.33,0.23c3.49,2.21,6.43,1.08,9.92-0.39c6.38-2.68,12.5,2.44,11.67,9.37
	c-0.41,3.39-1.13,6.75-1.71,10.12c1.03,2.27,2.67,2.57,4.94,1.85c1.75-0.55,3.64-0.63,5.51-0.47c7.02,0.59,7.38,1.01,6.86,8.22
	c-1.83,3.11-3.72,6.15-7.15,7.79c-2.67,3.2-3.51,7.22-4.52,11.02c-2.35,8.82-6.89,16.2-14.13,21.61c-3.66,2.73-6.15,5.69-7.68,9.01
	c-2.8,6.1-1.98,12.44-1.38,15.73c2.13,11.75,7.99,53.04,16.31,109.85c-24.89,0-49.78,0-74.68,0c5.18-39.55,8.76-79.26,12.41-118.97
	c0.41-4.45-0.2-7.76-4.08-10.91c-6.52-5.29-7.36-13.1-6.77-20.94c0.3-3.97,1.28-7.89,1.95-11.83c1.02-1.41-0.09-3.44,1.38-4.71
	c5.38-2.72,11.09-1.25,16.67-1.3c4.41,1.26,7.38,4.43,9.56,8.15c2.26,3.85,4.78,4.91,8.86,2.85c5.44-2.75,11.58-3.45,17.28-5.52
	c1.88-0.68,3.63-1.14,3.87-3.47c0.02-0.49,0.05-0.97,0.04-1.46c-0.6-2.48-2.17-2.38-3.81-1.26c-3.13,2.14-6.19,3.41-9.95,1.29
	c-1.68-0.95-3.02,1.26-4.73,1.31c-5.37,0.99-10.3-1.53-15.49-2.13c-3.24-0.37-5-4.05-6.25-6.97c-1.67-3.92-3.93-6.18-8.46-6.21
	C461.34,60.89,460.4,58.55,461.92,55.12z"/>
<path class="st355" d="M54.5,243c1.07-14.63,2.34-29.25,3.18-43.9c1.91-33.51,3.99-67.01,6.92-100.45
	c0.47-5.35,0.36-10.24-2.8-15.26c-3.76-5.97-3.12-13.21-2.8-20.1c-1.4-3.09,0.73-4.02,2.99-4.83c6.63-2.37,13.38-1.84,20.13-0.82
	c0.85,0.36,1.85,0.57,2.46,1.32c3.37,4.11,6.93,3.72,10.82,0.73c1.58-1.22,3.35-2.59,5.45-2.4c2.83,0.26,3.28-1.66,3.92-3.57
	c1.09-1.67,3.32-1.77,4.53-3.28c1.51-1.66,2.63-3.58,3.38-4.53c-1.6,4.84-7.13,3.54-11.33,4.9c-6.73,3.92-14.06,1.7-21.13,1.97
	c-2.65,0.1-3.75-2.21-4.85-4.23c-2.24-4.1-4.78-6.88-10.37-5.38c-3.8,1.02-4.73-1.23-3.58-7.41c1.57-3.11,4.53-4.67,7.4-6.06
	c7.98-3.87,14.7-10.71,24.43-10.54c5.21-7.49,14.42-1.41,20.77-6.14c2.65-1.97,6.96-0.86,9.08,2.51c1.78,2.83,3.47,3.41,6.48,1.9
	c1.93-0.97,4.59-2.27,6.4-0.31c1.54,1.67-0.13,3.97-0.56,5.94c-0.41,1.85-1.08,3.65-1.63,5.47c4.04,6.39,3.49,16.32-1.22,22.12
	c1.93,11.69-4.51,20.5-10.67,29.1c-4.05,5.65-6.95,12.35-13.23,16.29c-2.06,1.29-1.47,3.78-1.45,5.83
	c0.22,30.32,2.25,60.53,5.14,90.7c1.62,16.87,3.33,33.73,6.39,50.42C97.35,243,75.92,243,54.5,243z"/>
<path class="st355" d="M371.1,85.92c3.64,27.79,5.85,55.73,8.33,83.64c1.83,20.5,4.06,40.97,6.05,61.46
	c0.39,3.98,0.47,7.99,0.69,11.98c-26.4,0-52.79,0-79.19,0c3.4-35.11,6.8-70.22,10.2-105.33c1.7-3.25,4.75-2.74,7.53-2.43
	c3.22,0.36,6.43,0.69,9.67,0.72c18.46,0.18,31.56-16.15,27.55-34.42c-0.72-3.3-2.19-6.57-0.4-9.97
	C364.1,88.62,365.3,83.38,371.1,85.92z"/>
<path class="st356" d="M243.71,167.47c1.52,12.32,3.04,24.64,4.56,36.97c1.21,12.85,2.42,25.71,3.63,38.56c-12.24,0-24.48,0-36.73,0
	c-3.24-3.2-0.92-6.81-0.75-10.25c0.43-8.69,1.85-17.29,2.61-25.95c0.71-8.09,5.76-14.4,9.59-21.2c3.64-6.46,7.3-12.9,11.16-19.23
	c0.96-1.58,2.11-3.82,4.08-3.6C244.56,163.05,242.51,166.07,243.71,167.47z"/>
<path class="st356" d="M192.22,243c-0.49-15.25,1.64-30.33,2.87-45.47c0.72-8.9,1.94-17.76,2.93-26.64
	c2.86-1.01,3.69,1.34,4.73,3.02c5.11,8.27,9.17,17.13,14.3,25.4c2.06,3.32,0.65,6.94,0.27,10.24c-1.21,10.28-1.92,20.61-3.33,30.86
	c-0.14,0.98-0.46,1.84-1.1,2.58C205.99,243,199.11,243,192.22,243z"/>
<path class="st355" d="M296.72,30c-2.33-6.14-4.66-12.28-6.98-18.41c1.34-0.02,2.73-0.3,4-0.02c5.26,1.16,9.7,1.74,12.98-4.46
	c1.91-3.62,6.87-3.34,10.39-1.36c2.74,1.54,4.79,1.79,7.26-0.07c0.7-0.53,2.09-1.03,2.67-0.69c6.45,3.71,14.2,2.12,20.83,5.4
	c5.03,2.49,10.58,3.96,15.93,5.8c8.14,2.8,12.06,8.79,13.32,17c0.43,2.8,1.36,5.53,2.07,8.29c-2.1,1.14-3.59,0.21-4.91-1.4
	c-1.45-1.78-3.33-3.07-5.16-4.42c-5.57-4.11-6.58-4.14-11.02,1.22c-2.4,2.91-5.58,2.63-8.62,3.22c-7.14,6.6-15.38,2.21-23.15,2.15
	c-1.69-0.01-3.31-1.7-4.09-3.57c-0.25-0.68-0.5-1.37-0.76-2.05c-0.28-0.71,0.46-0.11-0.15-0.55c-0.17-0.12-0.01-0.21,0,0.38
	c0.01,0.55,0.14,1.08,0.17,1.63c0.1,6.23,4.05,9.09,9.46,10.45c3.14,0.79,6.37,1.32,9.22,2.88c4.25,2.32,7.11,1.02,9.5-2.87
	c2.56-4.16,5.8-7.51,11.28-7.32c11.88,4.81,12.57,19.94,7.52,28.23c-3.21,5.25-6.74,10.15-12.8,12.47
	c-2.05,0.86-3.99,0.91-5.91-0.47c-9.89-7.08-20.64-7.86-31.98-4.3c-1.07,0.34-2.2,0.62-3.36,0.44c-3.82-2.22-5.81-6.12-8.62-9.27
	c-2.28-2.56-4.47-5.36-7.67-6.96c-3.66-7.27-0.69-13.38,3.57-19.15c3.65-4.95,3.05-8.92-1.98-10.75
	C298.65,31.06,297.62,30.7,296.72,30z"/>
<path class="st356" d="M274.87,89.46c0.39,0.39,0.77,0.78,1.16,1.17c-0.17,0.98-0.65,1.86-1.6,2.11c-5.77,1.52-6.59,5.92-6.51,10.9
	c-0.34,5.32-2.65,10-4.74,14.75c-5.41-1.89-8.66-9.07-5.66-13.17c2.26-3.09,3.28-6.33,3.23-8.26c0.93,4.8-4.15,8.9-6.69,14.02
	c-1.04,2.1-3.31,2.51-5.5,1.79c-2.41-0.8-3.79-2.52-3.53-5.18c0.11-1.13,0.5-2.22,0.82-3.32c0.88-1.64,2.33-2.78,3.57-4.11
	c0.27-0.68,0.52-1.37,0.76-2.07c-0.2,0.58-0.41,1.17-0.64,1.74c-0.14,0.34-0.34,0.65-0.6,0.93c-5.5,6.24-12.05,9.39-20.67,8.2
	c-3.88-0.54-8.12,3.02-11.88-0.8c-1.67-1.27-3.63-0.86-5.5-0.91c-1.32-0.04-3,0.36-3.83-0.63c-4.42-5.23-10.02-5.19-16.01-4.05
	c-1.17,0.22-2.21-0.4-2.89-1.45c-0.34-1.48-0.22-3.02-0.28-4.5c-0.25-5.85,2.63-9.73,8.32-12c2.82-1.12,5.36-3.38,7.98-4.19
	c11.19-3.43,20.33-12.85,33.21-11.32c4,0.47,7.58-2.44,11.95-1.19c6.95,1.98,9.59,6.68,6.3,14.52c1.38-3.87,3.4-5.08,6.31-4.98
	c4.26,1.32,8.22,3.05,10.39,7.32C273.18,86.34,273.77,88.03,274.87,89.46z"/>
<path class="st356" d="M146.11,5.68c8.75-2.21,17.72-3.08,26.62-4.34c1.67,0.98,2.43,2.21,2.79,4.35
	c1.93,11.42,3.77,22.85,5.31,34.34c0.72,5.4,2.49,10.63,2.45,16.21c-0.02,2.23,1.05,4.5,3.51,5.53c0.51,0.4,0.85,0.92,1.02,1.55
	c-8.73,2.23-17.7,3.03-26.58,4.36c-3.5-3.98-4.09-9.14-4.47-13.9c-0.97-12.15-4.32-23.88-5.65-35.94c-0.42-3.79,0.99-8.4-3.89-10.61
	C146.68,6.84,146.31,6.32,146.11,5.68z"/>
<path class="st356" d="M8.44,27.53c7.58-1.64,15.19-2.99,22.94-3.51c0.32,0.15,0.63,0.3,0.94,0.46c3.61,2.69,3.24,6.94,3.74,10.61
	c2.35,17.14,4.87,34.24,8.4,51.18c-8.13,1.38-16.26,2.76-24.39,4.14c-1.29-1.44-2.4-3.06-2.66-4.97
	C14.77,66.08,11.53,46.82,8.44,27.53z"/>
<path class="st356" d="M355.15,80.27c6.09-5.48,12.28-10.82,13.33-19.77c0.91-7.81-1.58-12.91-8.68-16.84
	c-3.8-1.54-7.96,1.09-11.77-1.07c-1.63-0.93-3-1.93-2.34-3.87c0.65-1.93,2.28-1.43,3.74-0.86c4.55,0.71,6.8-2.08,8.02-5.74
	c1.43-4.31,3.66-4.45,7.34-2.57c5.73,2.93,10.43,6.96,14.41,11.93c0.78,1.5,1.57,3.01,2.35,4.51c2.96,8,2.58,16.02,0.07,24.04
	c-1.69,6.5-6.36,11.03-10.51,15.9c-2.63,1.95-5.26,3.91-7.89,5.86C357.14,92.13,353.1,86.35,355.15,80.27z"/>
<path class="st356" d="M83.15,59.67c-7.16,0.46-14.48-1.12-21.45,1.79c-1.07,0.45-2.19,0.64-2.7,1.83c-0.67-0.4-1.34-0.79-2.01-1.19
	c-1.81,0.89-3.77,0.18-5.62,0.5c-3.88,0.67-5.7-1.14-6.2-4.79c-0.18-1.32-0.41-2.63-0.64-3.94c-1.7-9.78-1.67-9.82,7.67-11.32
	c4.65-0.14,7.93-2.13,9.24-6.8c0.06,3.01-0.26,6.02,4.61,4.02c4.85-1.99,8.31,0.01,10.56,4.73c1.57,3.29,2.99,7.46,8.24,4.37
	c1.19-0.7,2.5,0.48,3.75,0.87c3.18,1,6.28,1.63,8.61-1.83c1.49-2.21,3.06-1.87,4.34,0.35c1.91,1.64,4.12,1.16,6.29,0.88
	c3.07-0.39,4.27,0.62,2.89,3.68c-1.74,0.34-3.31,1.04-4.62,2.26C98.83,58.48,91.35,60.85,83.15,59.67z"/>
<path class="st356" d="M15.49,90.71c-4.76,2.44-6.06-0.35-6.71-4.34C6.1,69.68,3.36,52.99,0.68,36.3c-1.24-7.7-1.11-7.82,6.77-8.63
	c2.92,6.01,3.51,12.63,4.19,19.05c1.26,11.94,4.19,23.6,5.39,35.53C17.33,85.25,18.58,88.35,15.49,90.71z"/>
<path class="st356" d="M52.2,42.55c-3.56,1.24-6.84,1.99-5.66,7.53c2.49,11.67,2.14,11.75,10.45,12.03c-7.97,2.5-7.97,2.5-6.5,11.39
	c0.34,2.07,0.52,4.17,1.04,6.19c1.15,4.5-0.49,6.56-5.12,6.26c-4.65-3.1-3.46-8.25-4.34-12.62c-2.84-14.18-4.58-28.55-6.77-42.84
	c-0.39-2.54-1.3-4.74-3.6-6.15c0,0-0.32-0.31-0.32-0.31c0.89-0.3,1.76-0.7,2.68-0.9c7.81-1.68,7.99-1.56,9.42,6.42
	c0.4,2.23,0.9,4.45,1.06,6.7C44.89,41.12,47.14,43.48,52.2,42.55z"/>
<path class="st356" d="M174.75,1.1c8.2-2.07,8.55-1.87,9.91,6.38c2.71,16.49,5.25,33.01,8.13,49.47c0.78,4.46-0.27,6.61-4.98,6.37
	c0,0-0.4-0.32-0.4-0.32c-3.33-1.34-4.14-4.5-4.37-7.37c-1.46-17.99-5.56-35.58-7.98-53.43C175.01,1.83,174.84,1.47,174.75,1.1z"/>
<path class="st355" d="M445.75,39.16c-1.46,0-2.92,0-4.39,0.01c-5.35,3.75-14.33,3.76-19.74,0.02c-4.59-0.08-4.71,3.17-4.41,6.3
	c1.39,14.41,0.96,28.86,1.14,43.29c0.04,3.69-0.95,6.28-4.55,7.54c-3.69-4.77-1.6-10.37-1.84-15.5
	c-0.59-12.35-0.33-24.75-0.36-37.13c-0.01-2.29-0.01-5.21,3.07-5.24c11.95-0.15,23.93-1.6,35.84,0.64
	C448.95,40.65,447.36,40.34,445.75,39.16z"/>
<path class="st356" d="M140.43,28.7c2.58-1.08,3.72-2.73,3.05-5.73c-0.87-3.84-1.13-7.82-1.95-11.68c-0.85-3.99,0.64-5.7,4.59-5.61
	c0,0,0.42,0.34,0.42,0.34c2.78,1.12,4.03,3.48,4.3,6.17c1.8,18,5.12,35.75,8.52,53.5c0.14,0.72,0.02,1.51-0.12,2.26
	c-7.57,1.78-7.93,1.45-9.47-5.77c-1.01-4.72-0.53-9.82-3.45-14.08c-1.11-1.46-2.6-2.67-2.65-4.76
	C143.55,38.26,141.78,33.52,140.43,28.7z"/>
<path class="st355" d="M445.75,39.16c1.59-0.03,3.17-0.05,4.76-0.08c1.56,3.24,0.88,6.7,0.92,10.06c0.1,9.14,0.04,9.14,9.22,7.99
	c-0.42,1.12-1.12,2.16-2.33,2.25c-3.91,0.29-7.03,0.95-6.8,6.12c0.21,4.89-0.82,10.09,5.94,11.48c-0.4,1.12-0.81,2.24-1.21,3.37
	c-0.31-1.48-0.51-3.17-2.65-2.81c-1.63,0.27-1.9,1.67-1.92,3.01c-0.05,3.74-0.03,7.49-0.01,11.23c0.02,3.16-1.11,5.09-4.68,4.55
	c-1.22-2.67-1.13-5.53-1.13-8.36C445.82,71.7,445.79,55.43,445.75,39.16z"/>
<path class="st356" d="M140.43,28.7c2.45,0.17,4.37,0.86,4.68,3.79c0.56,5.19,1.96,10.32,1.2,15.61c-4.57,0.85-9.15,1.7-13.72,2.55
	c1.95-7.29-0.5-14.82,1.22-22.12C136.02,28.59,138.23,28.64,140.43,28.7z"/>
<path class="st355" d="M279.27,92.99c-1.08-0.79-2.17-1.57-3.25-2.36c-9.3,0.28-9.91,0.78-10.44,8.69c-0.06,0.93,0.1,1.88,0.16,2.82
	c1.42,1.55,2.83,2.09,4.23,1.91c-2.72,4.81-4.57,10.18-8.89,13.96c-2.37,6.4-7.8,10.9-10.55,17.04c-0.23,7.95-5.9,13.1-9.87,19.14
	c-6.66,10.9-12.34,22.36-19.16,33.17c-2.79,4.41-4.31,4.5-6.75,0.13c-4.64-8.32-9.91-16.32-13.64-25.13
	c-2.87-4.89-5.13-8.84-6.55-11.32c-6.1-10.69-8.51-14.82-12.95-22.77c-1.97-3.53-3.49-7.4-6.35-10.31c3.27,0.06,6.36-1.21,9.53-1.87
	c6.14-1.43,12.44-1.97,18.62-3.18c3.74-0.4,7.15-2.18,10.91-2.62c1.95-0.23,3.65-1.14,3.34-3.65c-0.59-2.49-0.3-5.87-4.41-2.11
	c-2.64,2.41-5.79,0.58-6.87-2.3c-1.76-4.65-4.78-4.45-8.58-3.47c-3.1,0.8-6.28,1.29-9.42,1.92c-1.01,0.03-2.01,0.06-3.02,0.09
	c-4.56,1.07-9.12,2.08-13.66,3.21c-6.55,1.63-7.73,4.45-4.51,10.5c0.13,1.31,0.33,2.51,1.08,3.73c5.09,8.22,10.05,16.51,15.03,24.8
	c3.31,5.51,5.82,11.51,9.94,16.55c0,0,0,0,0,0c1.6,3.78,3.21,7.55,4.81,11.33c6.7,7.65,9.89,17.4,15.42,25.73
	c2.71,4.09,3.11,8.28,2.58,13c-1.24,11.11-2.12,22.25-3.14,33.38c0.77,0,1.53,0,2.3,0c1.03-10.02,2-20.04,3.1-30.05
	c0.5-4.51,0.21-9.25,2.53-13.35c5.63-9.93,8.2-14.76,19.11-33.13c1.93-3.25,0.87-1.6,5.43-9.52c9.04-15.71,12.99-21.41,17.91-30.37
	c4.82-8.75,11.18-16.72,14.02-26.51C280.36,98.38,279.71,95.66,279.27,92.99z"/>
<path class="st140" d="M475.73,76.94c13.32-0.05,26.65-0.11,39.97-0.16c2.14,0.39,2.92,0.94,0.63,2.59
	c-3.92,2.82-8.35,4.48-12.95,5.54c-5.04,1.16-9.94,2.55-14.14,5.63c-2.3,1.69-3.49,1.31-4.77-1.2
	C482.17,84.8,479.91,80.18,475.73,76.94z"/>
<g>
	<path class="st355" d="M584.86,42.84c0.04-4.61-1.97-6.01-6.22-5.91c-7.83,0.17-15.67,0.07-23.51,0.11
		c-9.95,0.05-10.35,0.53-9.73,10.34c0.27,4.36,0.98,8.97-4.43,11.11c0.94,1.74,2.53,1.84,4.23,1.68c5.29-1.52,4.46-5.49,3.9-9.45
		c-0.43-3.07-2.13-6.56,2.18-8.47c1.06-0.23,2.11-0.05,3.17,0.08c2.59,0.6,3.92,4.23,7.33,2.95c4.09-1.54,8.47-1.01,12.7-1.69
		c2.41,0.29,2.12,2,2.14,3.75c0.13,12.44,0.09,24.88,0.02,37.32c-0.01,1.14-0.02,1.88-1.41,1.53c-7.2,0.17-14.64-1.53-21.38,2.72
		c-0.93,0.21-1.55-0.36-2.21-0.85c-4.57-2.89-1.86-5.22,0.56-7.59c0.58-2.21,1.22-4.4,0.52-6.7c-1.75-2.17-3.94-2.42-6.4-1.41
		c-1.15,0.92-1.99,2.02-2.03,3.57c2.33,4.71,1.23,9.77,1.27,14.67c0.03,4.2,1.59,5.83,5.75,5.75c9.17-0.17,18.35-0.2,27.53-0.05
		c4.29,0.07,6.22-1.36,6.16-5.95C584.77,74.52,584.73,58.68,584.86,42.84z"/>
	<path class="st355" d="M519.52,72.01c-4.68,1.08-5.16-2.9-6.41-6.2c-3.78,6.82-7.2,9.52-10.46,7.53c-3.39-2.07-5.19-0.45-7.4,1.31
		c6.79,2.28,13.8,0.54,20.68,1.13c1.9-0.09,3.91-0.03,4.7-2.29C520.93,72.63,520.39,71.81,519.52,72.01z"/>
</g>
<path class="st140" d="M83.15,59.67c5.03-3.43,11.03-3.31,16.67-4.46c2.02-0.41,4.19-0.1,6.3-0.12c2.36,3.27-1.11,3.39-2.49,3.87
	c-3.06,1.09-5.88,2.46-8.56,4.28C87.45,68.41,87,68.25,83.15,59.67z"/>
<path class="st356" d="M110.73,52.83c-0.53-2.47-2.3-2.64-4.37-2.42c-1.99,0.21-3.81-0.07-4.81-2.14c7.79-0.31,8.39-0.9,9.22-8.88
	c0.13-1.23-0.39-3.06,1.32-3.33c1.84-0.3,2.65,1.41,2.86,2.88C115.7,44.18,116.33,49.48,110.73,52.83z"/>
<path class="st140" d="M125.92,43.66c0.42,3.45-1.14,5.35-3.75,6.37c-1.81,0.7-4.19,0.75-4.77-1.49c-0.68-2.62,1.84-1.67,3.07-1.79
	C122.56,46.54,123.14,44.12,125.92,43.66z"/>
<path class="st356" d="M355.15,80.27c2.22,4.16,3.8,8.78,8.06,11.52c0.27,2.06,0.34,4.17,0.85,6.17
	c3.78,14.79-0.49,26.88-11.99,36.73c-4.21,3.61-9.05,4.67-14.34,4.37c-6.46-0.37-12.91-0.87-19.36-1.32
	c-16.56,0.86-23.93-17.37-23.73-30.92c0.08-5.49,1.11-10.93,3.56-15.92c0.87-1.78,0.54-3.26-0.09-4.87c2.49-4.61,7.18-7,10.72-10.55
	c1.67-0.59,3.31-0.36,4.94,0.19c13.15-5.38,25.76-5.11,37.66,3.45C352.45,79.83,353.91,79.9,355.15,80.27z"/>
<path class="st356" d="M309.49,76.5c-0.34,4.17-6.82,9.59-11.37,9.53c-1.71-2.52-3.29-5.14-5.15-7.53
	C281.19,63.39,282.7,41.8,296.72,30c2.67-0.65,4.91-4.69,8-1.66c3.14,3.08,2.89,11.57,0.25,14.35c-4.57,4.81-6.66,10.41-4.93,17.07
	c2.65,4.14,5.1,8.4,8.47,12.06C309.55,72.96,311.11,74.55,309.49,76.5z"/>
<path class="st356" d="M184.13,113.32c6.13-1.07,12.27-2.15,18.4-3.22c4.96-1.35,8.92,0.35,11.63,4.42c2.66,4,5.57,4.82,9.43,1.87
	c2-1.52,4.33-2.38,6.72-3c4.89-1.26,9.16-3.49,12.77-7.09c1.08-1.08,2.06-2.98,4.22-1.91c0.09,1.3-0.03,2.66,0.3,3.89
	c0.52,1.91,2.27,3.5,3.61,1.55c2.66-3.87,9.07-6.29,5.86-12.86c-0.08-0.16-0.11-0.37-0.11-0.56c0.15-3.6,1.81-6.56,4.18-9.11
	c0.7-0.75,1.88-0.5,2.55,0.32c2.16,2.67,0.56,5.45,0.1,8.19c-0.03,0.19-0.04,0.4-0.14,0.55c-4.47,7-5.7,14.21-1.44,21.78
	c0.57,0.25,1.15,0.49,1.03,1.3c-2.09,6.08-6.95,10.36-10.23,15.67c-1.57,3.05-3.45,5.88-5.55,8.62c-2.78,3.62-4.62,7.75-4.89,12.42
	c-7.37,12.85-14.76,25.7-22.11,38.57c-1.35,2.36-2.93,4.13-4.73,0.65c-5.47-10.63-12.57-20.39-16.86-31.65
	c-0.95-1.64-1.6-3.56-1.34-5.3c1.15-7.64-2.16-13.77-5.71-20.14C187.54,130.6,184.88,122.2,184.13,113.32z"/>
<path class="st140" d="M247.31,104.4c-3.92,7.28-10.52,10.58-18.2,12.43c-2.82,0.68-5.12,2.54-7.31,4.39
	c-3.22,2.71-5.44,2.43-7.68-1.45c-2.61-4.52-4.97-9.77-11.59-9.67c4.82-2.08,10.34-1.1,15.1-3.45c2.01,0.52,4.03,1.34,5.78-0.67
	c1.18-1.35,2.73-1.16,4.22-0.63c3.93,1.4,7.09,1.38,10.97-1.51c2.47-1.84,7.23-0.69,9.77-4.06c0.97-0.03,1.7,0.45,2.32,1.13
	C249.57,102.07,248.44,103.24,247.31,104.4z"/>
<path class="st142" d="M250.7,100.9c-0.77-0.38-1.55-0.75-2.32-1.13c1.58-2.31,1.23-5.75,4.24-7.71
	C253.69,95.72,250.66,97.96,250.7,100.9z"/>
<g>
	<path class="st355" d="M511.42,73.46c-5.33,2.62-10.86,0.17-16.17,1.19c-2.05-0.09-4.22,0.42-6-1.08c-1.07-0.9-1.35-3.16-3.34-2.45
		c-7.91,2.83-9.12-3.57-10.64-8.25c-1.33-4.11-3.19-5.51-7.29-4.9c-2.48,0.37-5.58,1.35-6.07-2.84c-0.42,0.67-0.84,1.34-1.26,2.01
		c-1.76,2.06-4.19,1.31-6.37,1.43c-2.23,0.12-4.28,0.54-4.82,3.02c-0.93,4.27-1.33,8.68,0.4,12.78c1.39,3.31,5.21,1.24,7.59,2.62
		c6.09-0.01,12.18-0.02,18.27-0.04c11.85,4.69,24.08,2.71,36.23,2.09c1.63-0.08,2.76-1.05,3.74-2.25c0.08-0.33,0.15-0.67,0.23-1
		C515.08,73.7,512.6,72.89,511.42,73.46z"/>
	<path class="st355" d="M545.69,58.59c-1.58-0.03-3.15-0.06-4.73-0.1c-4.1-0.04-8.21-0.08-12.31-0.12c-0.64,1.85-2.19,3.51-1.2,6.07
		c2.7-0.98,5.26-2.09,7.92-2.83c5.54-1.55,8.66,0.61,9.09,6.07c0.37,0.04,0.74,0.09,1.11,0.13
		C549.17,64.78,549.12,61.7,545.69,58.59z"/>
	<path class="st355" d="M544.6,67.74c0,0-0.14-0.07-0.14-0.07c-2.3,2.41-4.67,4.77-5.64,8.1c1.82,0.05,3.65,0.11,5.47,0.16
		c1.17-0.5,2.08-1.26,2.55-2.48C548.06,70.79,547.65,68.75,544.6,67.74z"/>
	<path class="st355" d="M576.59,43.96c-0.03-2.04,0.1-3.96-2.65-4.87c-7.71,3.43-15.43,4.32-23.15,0.02
		c-2.81,2.69-2.27,5.93-2.21,9.13c0.27,13.65,0.31,27.3-0.29,40.94c-0.1,2.35,0.33,4.37,2.45,6c0.82-0.25,2.37-0.52,2.36-0.76
		c-0.21-7.75,6.24-5.87,11.11-5.1c3.94,0.62,7.05,0.48,9.73-2.11c2.54-1.09,2.68-3.15,2.69-5.12
		C576.66,69.38,576.78,56.67,576.59,43.96z"/>
</g>
<path class="st355" d="M551.55,39.19c-1.74,11.42,0.74,22.86-0.13,34.28c-1.53,1.1-3.06,1.67-4.58-0.01
	c-0.75-1.9-1.49-3.81-2.24-5.71c1.64-2.9,0.92-6.08,1.09-9.16c2.77-4.44,1.04-9.27,1.14-13.92
	C546.9,41.41,547.58,38.96,551.55,39.19z"/>
<path class="st355" d="M421.63,39.18c6.58-0.01,13.16-0.01,19.74-0.02c-0.03,16.2-0.04,32.39-0.11,48.59
	c-0.03,7.06-0.41,7.4-7.49,7.47c-1.34,0.01-2.67,0.02-4.01,0c-6.86-0.1-7.94-1.08-7.98-8.03C421.68,71.19,421.68,55.19,421.63,39.18
	z"/>
</svg>
