<?xml version="1.0" encoding="utf-8"?>
<!-- Generator: Adobe Illustrator 24.2.3, SVG Export Plug-In . SVG Version: 6.00 Build 0)  -->
<svg version="1.1" id="Слой_1" xmlns="http://www.w3.org/2000/svg" xmlns:xlink="http://www.w3.org/1999/xlink" x="0px" y="0px"
	 viewBox="0 0 585 639" style="enable-background:new 0 0 585 639;" xml:space="preserve">
<style type="text/css">
	.st0{fill:#000600;}
	.st1{clip-path:url(#SVGID_2_);fill:#2B747C;}
	.st2{clip-path:url(#SVGID_2_);fill:#55AFB7;}
	.st3{clip-path:url(#SVGID_2_);fill:#3FA5B0;}
	.st4{clip-path:url(#SVGID_2_);fill:#6DCFD1;}
	.st5{clip-path:url(#SVGID_2_);fill:#214181;}
	.st6{fill:#0071C5;}
	.st7{clip-path:url(#SVGID_4_);fill:#83D5FB;}
	.st8{clip-path:url(#SVGID_4_);fill:#00ABF0;}
	.st9{clip-path:url(#SVGID_4_);fill:#57CAF9;}
	.st10{clip-path:url(#SVGID_4_);fill:#0071C5;}
	.st11{clip-path:url(#SVGID_4_);fill:#31C5F8;}
	.st12{clip-path:url(#SVGID_4_);fill:#3DD1F9;}
	.st13{clip-path:url(#SVGID_6_);fill:#00ABF0;}
	.st14{clip-path:url(#SVGID_6_);fill:#83D5FB;}
	.st15{clip-path:url(#SVGID_6_);fill:#31C5F8;}
	.st16{clip-path:url(#SVGID_6_);fill:#0071C5;}
	.st17{clip-path:url(#SVGID_6_);fill:#57CAF9;}
	.st18{clip-path:url(#SVGID_6_);fill:#A6A6A6;}
	.st19{opacity:0.14;fill:#000600;}
	.st20{clip-path:url(#SVGID_10_);fill:#D670E1;}
	.st21{clip-path:url(#SVGID_10_);fill:#E7B3EE;}
	.st22{clip-path:url(#SVGID_10_);fill:#8C9295;}
	.st23{clip-path:url(#SVGID_10_);fill:#921C9F;}
	.st24{clip-path:url(#SVGID_10_);fill:#CDD0D3;}
	.st25{clip-path:url(#SVGID_10_);fill:#DFDBD1;}
	.st26{clip-path:url(#SVGID_10_);fill:#543F31;}
	.st27{clip-path:url(#SVGID_10_);fill:#C38A75;}
	.st28{clip-path:url(#SVGID_10_);fill:#B3B9BC;}
	.st29{clip-path:url(#SVGID_10_);fill:#8B9295;}
	.st30{clip-path:url(#SVGID_10_);fill:#D59C87;}
	.st31{fill:#E7B3EE;}
	.st32{clip-path:url(#SVGID_12_);}
	.st33{fill:#E097E9;}
	.st34{fill:#D670E1;}
	.st35{clip-path:url(#SVGID_14_);fill:#FFE406;}
	.st36{opacity:0.5;clip-path:url(#SVGID_14_);}
	.st37{fill:#A2C9FF;}
	.st38{fill:#FF8B00;}
	.st39{clip-path:url(#SVGID_14_);fill:#FFECA0;}
	.st40{clip-path:url(#SVGID_14_);}
	.st41{fill:#FFCB33;}
	.st42{fill:#FFECA0;}
	.st43{fill:#2A356B;}
	.st44{clip-path:url(#SVGID_14_);fill:#FFCB33;}
	.st45{clip-path:url(#SVGID_14_);fill:#A2C9FF;}
	.st46{clip-path:url(#SVGID_14_);fill:#FF8B00;}
	.st47{clip-path:url(#SVGID_14_);fill:#2A356B;}
	.st48{fill:#1B254E;}
	.st49{clip-path:url(#SVGID_14_);fill:#C22C28;}
	.st50{clip-path:url(#SVGID_14_);fill:#FF7400;}
	.st51{fill:#FFE406;}
	.st52{clip-path:url(#SVGID_14_);fill:#FFEF6E;}
	.st53{clip-path:url(#SVGID_16_);fill:#FFE473;}
	.st54{fill:#FFFFFF;}
	.st55{fill:#ACD7C2;}
	.st56{fill:none;stroke:#FFFFFF;stroke-miterlimit:10;}
	.st57{fill:#A1CAAA;}
	.st58{fill:#95CCA0;}
	.st59{opacity:0.76;}
	.st60{fill:#C3E8CC;}
	.st61{fill:url(#SVGID_17_);}
	.st62{fill:url(#SVGID_18_);}
	.st63{fill:url(#SVGID_19_);}
	.st64{fill:#F5E5BD;}
	.st65{fill:url(#SVGID_20_);}
	.st66{fill:url(#SVGID_21_);}
	.st67{fill:url(#SVGID_22_);}
	.st68{fill:url(#SVGID_23_);}
	.st69{fill:url(#SVGID_24_);}
	.st70{fill:url(#SVGID_25_);}
	.st71{fill:#E3EDC3;}
	.st72{fill:#EEFAD1;}
	.st73{fill:url(#SVGID_26_);}
	.st74{fill:url(#SVGID_27_);}
	.st75{fill:url(#SVGID_28_);}
	.st76{fill:url(#SVGID_29_);}
	.st77{fill:url(#SVGID_30_);}
	.st78{fill:#FFE392;}
	.st79{clip-path:url(#SVGID_32_);fill:url(#SVGID_33_);}
	.st80{fill:#5B2A1E;}
	.st81{fill:#8F7673;}
	.st82{fill:url(#SVGID_34_);}
	.st83{fill:url(#SVGID_35_);}
	.st84{fill:url(#SVGID_36_);}
	.st85{fill:url(#SVGID_37_);}
	.st86{fill:#FF8A8A;}
	.st87{fill:url(#SVGID_38_);}
	.st88{fill:#FF963A;}
	.st89{opacity:0.75;fill:#FFFFFF;}
	.st90{fill:#FFC181;}
	.st91{fill:none;}
	.st92{clip-path:url(#SVGID_40_);fill:#FFDFBD;}
	.st93{clip-path:url(#SVGID_40_);fill:#FF9D00;}
	.st94{clip-path:url(#SVGID_40_);fill:#FFF3DF;}
	.st95{clip-path:url(#SVGID_42_);fill:#FFBAE4;}
	.st96{opacity:0.8;clip-path:url(#SVGID_42_);fill:#FE82C8;}
	.st97{clip-path:url(#SVGID_42_);fill:#FE82C8;}
	.st98{opacity:0.79;clip-path:url(#SVGID_42_);fill:#FFBAE4;}
	.st99{fill:url(#SVGID_43_);}
	.st100{fill:#FFFEEA;}
	.st101{fill:#58D196;}
	.st102{fill:#A6E5C3;}
	.st103{fill:#D2F2E1;}
	.st104{opacity:0.44;fill:#FFFFFF;}
	.st105{clip-path:url(#SVGID_45_);fill:#FFF9C1;}
	.st106{fill:url(#SVGID_46_);}
	.st107{fill:url(#SVGID_47_);}
	.st108{opacity:0.86;fill:#FFCCD5;}
	.st109{fill:url(#SVGID_48_);}
	.st110{opacity:0.66;}
	.st111{opacity:0.37;fill:#FFFFFF;}
	.st112{opacity:0.4;}
	.st113{opacity:0.26;fill:#FFFFFF;}
	.st114{opacity:0.62;fill:#FFFFFF;}
	.st115{opacity:0.41;fill:#FFFFFF;}
	.st116{opacity:0.69;fill:#FFFFFF;}
	.st117{opacity:0.73;fill:#FFFFFF;}
	.st118{opacity:0.16;fill:#FFFFFF;}
	.st119{opacity:0.3;fill:#FFFFFF;}
	.st120{opacity:0.23;fill:#FFFFFF;}
	.st121{opacity:0.24;fill:#FFFFFF;}
	.st122{opacity:0.43;fill:#FFFFFF;}
	.st123{opacity:0.76;fill:#FFFFFF;}
	.st124{opacity:0.08;fill:#FFFFFF;}
	.st125{opacity:0.27;fill:#FFFFFF;}
	.st126{opacity:0.46;}
	.st127{opacity:0.86;fill:#FFFFFF;}
	.st128{opacity:0.54;fill:#FFFFFF;}
	.st129{opacity:0.28;}
	.st130{clip-path:url(#SVGID_50_);}
	.st131{fill:#FF6B81;}
	.st132{clip-path:url(#SVGID_50_);fill:none;}
	.st133{fill:none;stroke:#FFFFFF;stroke-width:2;stroke-miterlimit:10;}
	.st134{opacity:0.45;fill:#FFFFFF;}
	.st135{opacity:0.8;fill:#FFFFFF;}
	.st136{opacity:0.79;fill:#FFFFFF;}
	.st137{fill:#F1C4A9;}
	.st138{fill:none;stroke:#FFFFFF;stroke-width:0.75;stroke-miterlimit:10;}
	.st139{fill:#FFFFFF;stroke:#FFFFFF;stroke-width:0.25;stroke-miterlimit:10;}
	.st140{fill:#55AFB7;}
	.st141{fill:#2AB3BA;}
	.st142{fill:#00ACBD;}
	.st143{fill:#F787A5;}
	.st144{fill:#91693D;}
	.st145{fill:#FBBACC;}
	.st146{fill:#E6678D;}
	.st147{fill:#574435;}
	.st148{fill:#C8A37C;}
	.st149{fill:#641F1E;}
	.st150{fill:#F15E89;}
	.st151{fill:#E7005E;}
	.st152{fill:#DDB689;}
	.st153{fill:#FF1B6F;}
	.st154{fill:#DEB689;}
	.st155{fill:#F2769B;}
	.st156{fill:#FAFAF8;}
	.st157{fill:#F7C3DB;}
	.st158{fill:#E3B9B4;}
	.st159{fill:#FFB9C3;}
	.st160{fill:#FFC5D6;}
	.st161{fill:#D72264;}
	.st162{fill:#F7F7F7;}
	.st163{fill:#F2F2F2;}
	.st164{fill:#FFFBF0;}
	.st165{fill:#FFBFCF;}
	.st166{fill:#FF6794;}
	.st167{fill:#FFC2C1;}
	.st168{fill:#FFCCD5;}
	.st169{fill:#B39D8E;}
	.st170{fill:#FFE2EA;}
	.st171{fill:#F1F1F1;}
	.st172{fill:#FF9DAE;}
	.st173{fill:#A2C4DB;}
	.st174{fill:#583B34;}
	.st175{fill:#B1CFE4;}
	.st176{fill:#FBFBFA;}
	.st177{fill:#E0CFC7;}
	.st178{fill:#D9946B;}
	.st179{fill:#FFE9F2;}
	.st180{fill:#FFDBE5;}
	.st181{fill:#F2CCC1;}
	.st182{fill:#DF4E50;}
	.st183{fill:#00C377;}
	.st184{fill:#87E4AE;}
	.st185{fill:#00B45A;}
	.st186{fill:#7FD9A9;}
	.st187{fill:#F1BB3A;}
	.st188{fill:#B89E65;}
	.st189{fill:#97D183;}
	.st190{fill:#3C3724;}
	.st191{fill:#D5BDA1;}
	.st192{fill:#9B8174;}
	.st193{fill:#587147;}
	.st194{fill:#E6D5BD;}
	.st195{fill:#5CC588;}
	.st196{clip-path:url(#SVGID_58_);fill:#A6E5C3;}
	.st197{clip-path:url(#SVGID_58_);fill:#FFFFFF;}
	.st198{clip-path:url(#SVGID_58_);fill:#58D196;}
	.st199{fill:#FFEF6E;}
	.st200{fill:#FFE200;}
	.st201{clip-path:url(#SVGID_60_);fill:#FDA157;}
	.st202{clip-path:url(#SVGID_60_);fill-rule:evenodd;clip-rule:evenodd;fill:#FF8429;}
	.st203{clip-path:url(#SVGID_60_);fill:#F35000;}
	.st204{clip-path:url(#SVGID_60_);fill:#F8B846;}
	.st205{fill:#F35000;}
	.st206{fill:#FF8429;}
	.st207{fill:#FFAB33;}
	.st208{fill:#E46D00;}
	.st209{fill:#EE6406;}
	.st210{fill:#FF9B00;}
	.st211{fill:#130077;}
	.st212{fill:#FFB58D;}
	.st213{opacity:0.3;}
	.st214{fill:#FF7300;}
	.st215{fill:#6E0000;}
	.st216{fill-rule:evenodd;clip-rule:evenodd;fill:#FF9B00;}
	.st217{fill-rule:evenodd;clip-rule:evenodd;fill:url(#SVGID_61_);}
	.st218{opacity:0.3;fill-rule:evenodd;clip-rule:evenodd;fill:#A3002C;}
	.st219{fill-rule:evenodd;clip-rule:evenodd;fill:url(#SVGID_62_);}
	.st220{fill-rule:evenodd;clip-rule:evenodd;fill:url(#SVGID_63_);}
	.st221{opacity:0.5;fill-rule:evenodd;clip-rule:evenodd;fill:url(#SVGID_64_);}
	.st222{fill-rule:evenodd;clip-rule:evenodd;fill:#FFC384;}
	.st223{fill-rule:evenodd;clip-rule:evenodd;fill:url(#SVGID_65_);}
	.st224{fill-rule:evenodd;clip-rule:evenodd;fill:url(#SVGID_66_);}
	.st225{fill-rule:evenodd;clip-rule:evenodd;fill:url(#SVGID_67_);}
	.st226{opacity:0.5;fill-rule:evenodd;clip-rule:evenodd;fill:url(#SVGID_68_);}
	.st227{fill-rule:evenodd;clip-rule:evenodd;fill:#FDA157;}
	.st228{opacity:0.5;fill-rule:evenodd;clip-rule:evenodd;fill:#FDA157;}
	.st229{fill-rule:evenodd;clip-rule:evenodd;fill:#FF8429;}
	.st230{fill-rule:evenodd;clip-rule:evenodd;fill:#FFAB33;}
	.st231{opacity:0.62;fill-rule:evenodd;clip-rule:evenodd;fill:#C7002A;}
	.st232{opacity:0.5;fill-rule:evenodd;clip-rule:evenodd;fill:#FF8429;}
	.st233{opacity:0.5;fill-rule:evenodd;clip-rule:evenodd;fill:#8E5472;}
	.st234{opacity:0.3;fill-rule:evenodd;clip-rule:evenodd;fill:url(#SVGID_69_);}
	.st235{opacity:0.5;fill-rule:evenodd;clip-rule:evenodd;fill:url(#SVGID_70_);}
	.st236{opacity:0.3;fill-rule:evenodd;clip-rule:evenodd;fill:url(#SVGID_71_);}
	.st237{opacity:0.3;fill-rule:evenodd;clip-rule:evenodd;fill:url(#SVGID_72_);}
	.st238{clip-path:url(#SVGID_74_);}
	.st239{clip-path:url(#SVGID_74_);fill:#FF8429;}
	.st240{fill:#FDA157;}
	.st241{clip-path:url(#SVGID_76_);}
	.st242{fill:#F58800;}
	.st243{clip-path:url(#SVGID_78_);}
	.st244{fill:#F8B846;}
	.st245{clip-path:url(#SVGID_80_);}
	.st246{clip-path:url(#SVGID_80_);fill:#FF8429;}
	.st247{fill-rule:evenodd;clip-rule:evenodd;fill:url(#SVGID_81_);}
	.st248{fill-rule:evenodd;clip-rule:evenodd;fill:url(#SVGID_82_);}
	.st249{fill-rule:evenodd;clip-rule:evenodd;fill:url(#SVGID_83_);}
	.st250{opacity:0.5;fill-rule:evenodd;clip-rule:evenodd;fill:url(#SVGID_84_);}
	.st251{fill-rule:evenodd;clip-rule:evenodd;fill:url(#SVGID_85_);}
	.st252{fill-rule:evenodd;clip-rule:evenodd;fill:url(#SVGID_86_);}
	.st253{fill-rule:evenodd;clip-rule:evenodd;fill:url(#SVGID_87_);}
	.st254{opacity:0.5;fill-rule:evenodd;clip-rule:evenodd;fill:url(#SVGID_88_);}
	.st255{opacity:0.3;fill-rule:evenodd;clip-rule:evenodd;fill:url(#SVGID_89_);}
	.st256{opacity:0.5;fill-rule:evenodd;clip-rule:evenodd;fill:url(#SVGID_90_);}
	.st257{opacity:0.3;fill-rule:evenodd;clip-rule:evenodd;fill:url(#SVGID_91_);}
	.st258{opacity:0.3;fill-rule:evenodd;clip-rule:evenodd;fill:url(#SVGID_92_);}
	.st259{opacity:0.88;fill:#FFFEF3;}
	.st260{fill:#FFCF66;}
	.st261{fill:#AFABAC;}
	.st262{fill:#FFE473;}
	.st263{fill:#FFE787;}
	.st264{fill:#F6C700;}
	.st265{fill:#FFEA96;}
	.st266{clip-path:url(#SVGID_94_);fill:#FFCB33;}
	.st267{clip-path:url(#SVGID_94_);fill:#FFE406;}
	.st268{clip-path:url(#SVGID_96_);fill:#921C9F;}
	.st269{opacity:0.5;clip-path:url(#SVGID_96_);}
	.st270{fill:#921C9F;}
	.st271{clip-path:url(#SVGID_96_);}
	.st272{clip-path:url(#SVGID_98_);fill:#E097E9;}
	.st273{fill:#CC37D8;}
	.st274{opacity:0.5;fill:#FFFFFF;}
	.st275{opacity:0.5;fill:#FFFFFF;stroke:#FFFFFF;stroke-miterlimit:10;}
	.st276{opacity:0.68;fill:#FFFFFF;}
	.st277{fill:#F0C6F4;}
	.st278{fill:#D9A2E1;}
	.st279{fill:#AA7B41;}
	.st280{fill:#8C9295;}
	.st281{fill:#CDD0D3;}
	.st282{fill:#DFDBD1;}
	.st283{fill:#543F31;}
	.st284{fill:#C38A75;}
	.st285{fill:#B3B9BC;}
	.st286{fill:#8B9295;}
	.st287{fill:#D59C87;}
	.st288{fill:#3DD1F9;}
	.st289{fill:#57CAF9;}
	.st290{fill:#F92405;}
	.st291{fill:#B30000;}
	.st292{fill:#FA3C20;}
	.st293{fill:#E2A080;}
	.st294{fill:#950000;}
	.st295{fill:#F50000;}
	.st296{clip-path:url(#SVGID_100_);fill:#F787A5;}
	.st297{clip-path:url(#SVGID_100_);fill:#FFE9F2;}
	.st298{clip-path:url(#SVGID_100_);fill:#D3CFB3;}
	.st299{clip-path:url(#SVGID_100_);fill:#FFDBE5;}
	.st300{clip-path:url(#SVGID_100_);}
	.st301{clip-path:url(#SVGID_100_);fill:#FFC5D6;}
	.st302{fill:#FA90B4;}
	.st303{fill:#BCA494;}
	.st304{fill:#63443C;}
	.st305{fill:#CFABA0;}
	.st306{fill:#A1C3DA;}
	.st307{fill:#9B7972;}
	.st308{fill:#77573F;}
	.st309{fill-rule:evenodd;clip-rule:evenodd;fill:#FA3C20;}
	.st310{fill-rule:evenodd;clip-rule:evenodd;fill:#D00707;}
	.st311{fill-rule:evenodd;clip-rule:evenodd;fill:#F92405;}
	.st312{fill-rule:evenodd;clip-rule:evenodd;fill:#F50000;}
	.st313{fill-rule:evenodd;clip-rule:evenodd;fill:#F95F53;}
	.st314{fill:#F95F53;}
	.st315{clip-path:url(#SVGID_102_);fill:#574435;}
	.st316{clip-path:url(#SVGID_102_);fill:#C8A37C;}
	.st317{clip-path:url(#SVGID_102_);fill:#91693D;}
	.st318{clip-path:url(#SVGID_102_);fill:#D00707;}
	.st319{clip-path:url(#SVGID_102_);fill:#FA3C20;}
	.st320{clip-path:url(#SVGID_102_);fill:#950000;}
	.st321{clip-path:url(#SVGID_102_);fill:#F95F53;}
	.st322{clip-path:url(#SVGID_102_);fill:#131212;}
	.st323{clip-path:url(#SVGID_102_);fill:#B30000;}
	.st324{clip-path:url(#SVGID_102_);fill:#412A1A;}
	.st325{clip-path:url(#SVGID_102_);fill:#DEC6AF;}
	.st326{clip-path:url(#SVGID_102_);fill:#BF855C;}
	.st327{fill:#D00707;}
	.st328{fill:#AB9DB8;}
	.st329{fill:#381A12;}
	.st330{fill:#EBCBB8;}
	.st331{fill:#AC9EBB;}
	.st332{fill:#F8F6F5;}
	.st333{fill:#0A345E;}
	.st334{fill:#412A1A;}
	.st335{fill:#131212;}
	.st336{fill:#DEC6AF;}
	.st337{fill:#BF855C;}
	.st338{opacity:0.79;fill:#FFB9C3;}
	.st339{opacity:0.79;fill:#FA90B4;}
	.st340{fill:#83D5FB;}
	.st341{fill:#00ABF0;}
	.st342{fill:#31C5F8;}
	.st343{opacity:0.6;fill:#FFFFFF;}
	.st344{opacity:0.34;fill:#FFFFFF;}
	.st345{opacity:0.25;fill:#FFFFFF;}
	.st346{opacity:0.6;}
	.st347{fill:#B2B0AD;}
	.st348{fill:#0D0707;}
	.st349{fill:#A6A6A6;}
	.st350{fill:#0068A8;}
	.st351{fill:#FF6567;}
	.st352{opacity:0.17;fill:#FFFFFF;}
	.st353{opacity:0.39;fill:#FFFFFF;}
	.st354{opacity:0.71;fill:#FFFFFF;}
	.st355{fill:#6DCFD1;}
	.st356{fill:#2B747C;}
	.st357{fill:#1E1E1E;}
	.st358{fill:#272727;}
	.st359{fill:#3FA5B0;}
	.st360{fill:#1F1F1F;}
	.st361{fill:#242424;}
	.st362{opacity:0.81;}
	.st363{fill-rule:evenodd;clip-rule:evenodd;fill:#2B747C;}
	.st364{fill-rule:evenodd;clip-rule:evenodd;fill:#6DCFD1;}
	.st365{fill-rule:evenodd;clip-rule:evenodd;fill:#3FA5B0;}
	.st366{clip-path:url(#SVGID_104_);fill:#3FA5B0;}
	.st367{clip-path:url(#SVGID_104_);fill:#2AB3BA;}
	.st368{clip-path:url(#SVGID_104_);fill:#55AFB7;}
	.st369{clip-path:url(#SVGID_104_);fill:#00ACBD;}
	.st370{clip-path:url(#SVGID_104_);fill:#616161;}
	.st371{clip-path:url(#SVGID_104_);fill:#6DCFD1;}
	.st372{clip-path:url(#SVGID_104_);fill:#2B747C;}
	.st373{fill:#214181;}
	.st374{fill:#616161;}
</style>
<path class="st363" d="M238.58,624.37c6.3-3.82,12.26-8.52,17.85-14.1c11.38-11.38,19.08-24.3,23.11-38.74c2.2,3,3.3,6.45,3.3,10.35
	v38.73c0,4.88-1.72,8.98-5.17,12.32c-3.33,3.45-7.45,5.18-12.32,5.18h-9.64c-4.77,0-8.87-1.73-12.32-5.18
	C240.86,630.49,239.25,627.63,238.58,624.37z M10.41,570.72c3.98,14.75,11.79,27.93,23.39,39.54c5.35,5.34,11.02,9.87,17.05,13.56
	c-0.62,3.51-2.26,6.54-4.91,9.11c-3.33,3.45-7.44,5.18-12.31,5.18h-9.63c-4.78,0-8.88-1.73-12.33-5.18
	c-3.44-3.34-5.18-7.44-5.18-12.32v-38.73C6.48,577.61,7.79,573.9,10.41,570.72z"/>
<path class="st364" d="M81.8,235.18V51.25c0-16.04,10.36-29.05,23.14-29.05h79.44c12.77,0,23.14,13.01,23.14,29.05v183.93h21.81
	V31.55c0-17.21-13.95-31.16-31.17-31.16H91.15c-17.21,0-31.17,13.95-31.17,31.16v203.63H81.8z"/>
<path class="st364" d="M289.92,542.85c0,39.55-32.06,71.62-71.61,71.62H71.61C32.06,614.47,0,582.4,0,542.85V239.69
	c0-39.55,32.06-71.61,71.61-71.61h146.7c39.55,0,71.61,32.06,71.61,71.61V542.85z"/>
<path class="st365" d="M289.92,560.42c0,37.61-32.06,68.11-71.61,68.11H71.61C32.06,628.53,0,598.04,0,560.42V272.08
	c0-37.61,32.06-68.11,71.61-68.11h146.7c39.55,0,71.61,30.5,71.61,68.11V560.42z"/>
<g>
	<path class="st356" d="M209.68,625.88H80.24c-41.13,0-74.6-33.99-74.6-75.76V277.68c0-41.77,33.47-75.76,74.6-75.76h129.44
		c41.13,0,74.6,33.99,74.6,75.76v272.43C284.28,591.89,250.82,625.88,209.68,625.88z M80.24,224.74
		c-28.55,0-51.78,23.75-51.78,52.94v272.43c0,29.19,23.23,52.94,51.78,52.94h129.44c28.55,0,51.78-23.75,51.78-52.94V277.68
		c0-29.19-23.23-52.94-51.78-52.94H80.24z"/>
</g>
<path class="st359" d="M581.13,280.74c0,0-1.12,299.7-13.55,299.7l-345.87-39.11c-12.41,0-22.48-10.85-22.48-24.24l-41.14-230.02
	c1.77-14.95,51.21-46.68,63.62-46.68h323.16C557.29,240.39,581.13,280.74,581.13,280.74z"/>
<polygon class="st356" points="564.69,256.7 197.64,256.7 203.27,252.3 561.08,252.3 "/>
<path class="st355" d="M585,556.84c0,13.39-10.05,24.24-22.47,24.24H179.54c-12.42,0-22.47-10.85-22.47-24.24v-262.5
	c0-13.38,10.05-24.24,22.47-24.24h382.99c12.42,0,22.47,10.86,22.47,24.24V556.84z"/>
<rect x="173.47" y="580.43" class="st359" width="394.12" height="21.11"/>
<path class="st355" d="M567.59,612.16c0,14.15-11.48,25.63-25.63,25.63c-14.15,0-25.62-11.48-25.62-25.63
	c0-14.16,11.47-25.63,25.62-25.63C556.11,586.53,567.59,598,567.59,612.16z"/>
<path class="st141" d="M555.7,612.16c0,7.59-6.15,13.74-13.74,13.74c-7.58,0-13.74-6.15-13.74-13.74c0-7.59,6.15-13.74,13.74-13.74
	C549.55,598.41,555.7,604.57,555.7,612.16z"/>
<path class="st355" d="M228.87,612.16c0,14.15-11.48,25.63-25.63,25.63c-14.15,0-25.63-11.48-25.63-25.63
	c0-14.16,11.47-25.63,25.63-25.63C217.39,586.53,228.87,598,228.87,612.16z"/>
<path class="st141" d="M216.98,612.16c0,7.59-6.15,13.74-13.74,13.74c-7.59,0-13.74-6.15-13.74-13.74c0-7.59,6.15-13.74,13.74-13.74
	C210.83,598.41,216.98,604.57,216.98,612.16z"/>
<path class="st355" d="M333.08,254.65v-29.83c0-5.68,4.61-10.28,10.29-10.28h75.59c5.68,0,10.29,4.61,10.29,10.28v29.83h21.37
	v-40.11c0-8.2-6.65-14.86-14.86-14.86H326.57c-8.21,0-14.86,6.65-14.86,14.86v40.11H333.08z"/>
<rect x="418.6" y="247.22" class="st356" width="43.83" height="12.63"/>
<rect x="304.87" y="247.22" class="st356" width="43.82" height="12.63"/>
<g>
	<path class="st356" d="M363.98,215.29c0,2.86-3.06,5.19-6.83,5.19l0,0c-3.77,0-6.83-2.32-6.83-5.19v-17.11
		c0-2.86,3.06-5.19,6.83-5.19l0,0c3.77,0,6.83,2.32,6.83,5.19V215.29z"/>
	<path class="st356" d="M377.63,215.29c0,2.86-3.06,5.19-6.83,5.19l0,0c-3.77,0-6.82-2.32-6.82-5.19v-17.11
		c0-2.86,3.05-5.19,6.82-5.19l0,0c3.77,0,6.83,2.32,6.83,5.19V215.29z"/>
	<path class="st356" d="M391.29,215.29c0,2.86-3.05,5.19-6.82,5.19l0,0c-3.78,0-6.83-2.32-6.83-5.19v-17.11
		c0-2.86,3.05-5.19,6.83-5.19l0,0c3.77,0,6.82,2.32,6.82,5.19V215.29z"/>
	<path class="st356" d="M404.94,215.29c0,2.86-3.05,5.19-6.82,5.19l0,0c-3.77,0-6.83-2.32-6.83-5.19v-17.11
		c0-2.86,3.06-5.19,6.83-5.19l0,0c3.77,0,6.82,2.32,6.82,5.19V215.29z"/>
	<path class="st356" d="M418.6,215.29c0,2.86-3.06,5.19-6.83,5.19l0,0c-3.77,0-6.83-2.32-6.83-5.19v-17.11
		c0-2.86,3.06-5.19,6.83-5.19l0,0c3.77,0,6.83,2.32,6.83,5.19V215.29z"/>
</g>
</svg>
