<?xml version="1.0" encoding="utf-8"?>
<!-- Generator: Adobe Illustrator 24.2.3, SVG Export Plug-In . SVG Version: 6.00 Build 0)  -->
<svg version="1.1" id="Слой_1" xmlns="http://www.w3.org/2000/svg" xmlns:xlink="http://www.w3.org/1999/xlink" x="0px" y="0px"
	 viewBox="0 0 585 269" style="enable-background:new 0 0 585 269;" xml:space="preserve">
<style type="text/css">
	.st0{fill:#00C377;}
	.st1{fill:#A6E5C3;}
	.st2{fill:#58D196;}
	.st3{fill:#88E5AF;}
	.st4{fill:#00B45A;}
	.st5{fill:#FFFFFF;}
	.st6{fill:#FF6567;}
	.st7{fill:url(#SVGID_1_);}
	.st8{fill:#ADD8C3;}
	.st9{fill:none;stroke:#FFFFFF;stroke-miterlimit:10;}
	.st10{fill:#A2CBAB;}
	.st11{fill:#96CDA1;}
	.st12{opacity:0.76;}
	.st13{fill:#C4E9CD;}
	.st14{fill:url(#SVGID_2_);}
	.st15{fill:url(#SVGID_3_);}
	.st16{fill:#F6E6BE;}
	.st17{fill:url(#SVGID_4_);}
	.st18{fill:url(#SVGID_5_);}
	.st19{fill:url(#SVGID_6_);}
	.st20{fill:#E4EEC4;}
	.st21{fill:#EFFBD2;}
	.st22{fill:url(#SVGID_7_);}
	.st23{fill:url(#SVGID_8_);}
	.st24{fill:url(#SVGID_9_);}
	.st25{fill:url(#SVGID_10_);}
	.st26{fill:#FFE493;}
	.st27{clip-path:url(#SVGID_12_);fill:url(#SVGID_13_);}
	.st28{fill:#5B2A1E;}
	.st29{fill:#907673;}
	.st30{fill:url(#SVGID_14_);}
	.st31{fill:url(#SVGID_15_);}
	.st32{fill:url(#SVGID_16_);}
	.st33{fill:url(#SVGID_17_);}
	.st34{fill:#FE82C8;}
	.st35{opacity:0.62;clip-path:url(#SVGID_19_);fill:#FFFFFF;}
	.st36{opacity:0.75;clip-path:url(#SVGID_19_);fill:#FFFFFF;}
	.st37{opacity:0.41;clip-path:url(#SVGID_19_);fill:#FFFFFF;}
	.st38{clip-path:url(#SVGID_19_);fill:none;}
	.st39{clip-path:url(#SVGID_21_);}
	.st40{opacity:0.26;fill:#FFFFFF;}
	.st41{opacity:0.69;fill:#FFFFFF;}
	.st42{fill:none;}
	.st43{opacity:0.16;fill:#FFFFFF;}
	.st44{opacity:0.3;fill:#FFFFFF;}
	.st45{opacity:0.23;fill:#FFFFFF;}
	.st46{opacity:0.24;fill:#FFFFFF;}
	.st47{opacity:0.17;}
	.st48{opacity:0.05;fill:#E2E8E4;}
	.st49{clip-path:url(#SVGID_23_);}
	.st50{opacity:0.76;clip-path:url(#SVGID_23_);fill:#FFFFFF;}
	.st51{clip-path:url(#SVGID_23_);fill:url(#SVGID_24_);}
	.st52{clip-path:url(#SVGID_23_);fill:none;stroke:#FFFFFF;stroke-width:2;stroke-linecap:round;stroke-miterlimit:10;}
	.st53{clip-path:url(#SVGID_23_);fill:url(#SVGID_25_);}
	.st54{clip-path:url(#SVGID_23_);fill:url(#SVGID_26_);}
	.st55{clip-path:url(#SVGID_23_);fill:url(#SVGID_27_);}
	.st56{clip-path:url(#SVGID_23_);fill:url(#SVGID_28_);}
	.st57{clip-path:url(#SVGID_23_);fill:#FFFFFF;}
	.st58{clip-path:url(#SVGID_23_);fill:url(#SVGID_29_);}
	.st59{opacity:0.62;clip-path:url(#SVGID_31_);fill:#FFFFFF;}
	.st60{clip-path:url(#SVGID_31_);fill:#FFFFFF;}
	.st61{opacity:0.41;clip-path:url(#SVGID_31_);fill:#FFFFFF;}
	.st62{clip-path:url(#SVGID_31_);fill:none;}
	.st63{clip-path:url(#SVGID_33_);}
	.st64{fill:url(#SVGID_34_);}
	.st65{opacity:0.74;clip-path:url(#SVGID_36_);fill:url(#SVGID_37_);}
	.st66{fill:#E5E5E5;}
	.st67{fill:none;stroke:#4D4D4D;stroke-width:0.75;stroke-linecap:round;stroke-miterlimit:10;}
	.st68{fill:url(#SVGID_38_);}
	.st69{opacity:0.74;fill:url(#SVGID_39_);}
	.st70{opacity:0.74;fill:url(#SVGID_40_);}
	.st71{opacity:0.74;fill:url(#SVGID_41_);}
	.st72{opacity:0.74;fill:url(#SVGID_42_);}
	.st73{fill:url(#SVGID_43_);}
	.st74{opacity:0.66;}
	.st75{opacity:0.37;fill:#FFFFFF;}
	.st76{fill:url(#SVGID_44_);}
	.st77{fill:url(#SVGID_45_);}
	.st78{opacity:0.44;clip-path:url(#SVGID_47_);fill:#FFFFD9;}
	.st79{opacity:0.43;clip-path:url(#SVGID_49_);fill:#FFFFFF;}
	.st80{clip-path:url(#SVGID_49_);fill:none;stroke:#FFFFFF;stroke-miterlimit:10;}
	.st81{opacity:0.76;clip-path:url(#SVGID_49_);fill:#FFFFFF;}
	.st82{clip-path:url(#SVGID_49_);fill:#FFFFFF;}
	.st83{opacity:0.08;clip-path:url(#SVGID_49_);fill:#FFFFFF;}
	.st84{opacity:0.27;clip-path:url(#SVGID_49_);fill:#FFFFFF;}
	.st85{opacity:0.37;clip-path:url(#SVGID_49_);fill:#FFFFFF;}
	.st86{clip-path:url(#SVGID_49_);fill:none;}
	.st87{fill:url(#SVGID_50_);}
	.st88{opacity:0.62;clip-path:url(#SVGID_52_);fill:#FFFFFF;}
	.st89{clip-path:url(#SVGID_52_);fill:#FFFFFF;}
	.st90{opacity:0.41;clip-path:url(#SVGID_52_);fill:#FFFFFF;}
	.st91{clip-path:url(#SVGID_52_);fill:none;}
	.st92{clip-path:url(#SVGID_54_);}
	.st93{opacity:0.55;fill:url(#SVGID_55_);}
	.st94{fill:url(#SVGID_56_);}
	.st95{fill:url(#SVGID_57_);}
	.st96{opacity:0.28;}
	.st97{opacity:0.56;clip-path:url(#SVGID_59_);fill:#FFFFFF;}
	.st98{opacity:0.43;clip-path:url(#SVGID_61_);fill:#FFFFFF;}
	.st99{clip-path:url(#SVGID_61_);fill:none;stroke:#FFFFFF;stroke-miterlimit:10;}
	.st100{opacity:0.76;clip-path:url(#SVGID_61_);fill:#FFFFFF;}
	.st101{clip-path:url(#SVGID_61_);fill:#FFFFFF;}
	.st102{opacity:0.08;clip-path:url(#SVGID_61_);fill:#FFFFFF;}
	.st103{opacity:0.27;clip-path:url(#SVGID_61_);fill:#FFFFFF;}
	.st104{opacity:0.37;clip-path:url(#SVGID_61_);fill:#FFFFFF;}
	.st105{clip-path:url(#SVGID_61_);fill:none;}
	.st106{clip-path:url(#SVGID_63_);fill:none;}
	.st107{opacity:0.46;}
	.st108{opacity:0.86;fill:#FFFFFF;}
	.st109{opacity:0.4;}
	.st110{opacity:0.73;fill:#FFFFFF;}
	.st111{opacity:0.54;clip-path:url(#SVGID_65_);fill:#FFFFFF;}
	.st112{fill:#FF8A8A;}
	.st113{opacity:0.75;fill:#FFFFFF;}
	.st114{fill:#FFC181;}
	.st115{clip-path:url(#SVGID_67_);fill:#FFDFBD;}
	.st116{clip-path:url(#SVGID_67_);fill:#FF9D00;}
	.st117{clip-path:url(#SVGID_67_);fill:#FFF3DF;}
	.st118{clip-path:url(#SVGID_69_);fill:#FFBAE4;}
	.st119{opacity:0.8;clip-path:url(#SVGID_69_);fill:#FE82C8;}
	.st120{clip-path:url(#SVGID_69_);fill:#FE82C8;}
	.st121{opacity:0.79;clip-path:url(#SVGID_69_);fill:#FFBAE4;}
	.st122{fill:#FFFEEA;}
	.st123{fill:#D2F2E1;}
	.st124{opacity:0.44;fill:#FFFFFF;}
	.st125{clip-path:url(#SVGID_71_);fill:#FFF9C1;}
	.st126{opacity:0.86;fill:#FFCCD5;}
	.st127{opacity:0.62;clip-path:url(#SVGID_73_);fill:#FFFFFF;}
	.st128{opacity:0.75;clip-path:url(#SVGID_73_);fill:#FFFFFF;}
	.st129{opacity:0.41;clip-path:url(#SVGID_73_);fill:#FFFFFF;}
	.st130{clip-path:url(#SVGID_73_);fill:none;}
	.st131{clip-path:url(#SVGID_75_);}
	.st132{opacity:0.44;clip-path:url(#SVGID_77_);fill:#FFFFFF;}
	.st133{opacity:0.43;clip-path:url(#SVGID_79_);fill:#FFFFFF;}
	.st134{clip-path:url(#SVGID_79_);fill:none;stroke:#FFFFFF;stroke-miterlimit:10;}
	.st135{opacity:0.76;clip-path:url(#SVGID_79_);fill:#FFFFFF;}
	.st136{clip-path:url(#SVGID_79_);fill:#FFFFFF;}
	.st137{opacity:0.08;clip-path:url(#SVGID_79_);fill:#FFFFFF;}
	.st138{opacity:0.27;clip-path:url(#SVGID_79_);fill:#FFFFFF;}
	.st139{opacity:0.37;clip-path:url(#SVGID_79_);fill:#FFFFFF;}
	.st140{clip-path:url(#SVGID_79_);fill:none;}
	.st141{opacity:0.54;clip-path:url(#SVGID_81_);fill:#FFFFFF;}
	.st142{opacity:0.62;fill:#FFFFFF;}
	.st143{opacity:0.41;fill:#FFFFFF;}
	.st144{opacity:0.43;fill:#FFFFFF;}
	.st145{opacity:0.76;fill:#FFFFFF;}
	.st146{opacity:0.08;fill:#FFFFFF;}
	.st147{opacity:0.27;fill:#FFFFFF;}
	.st148{opacity:0.54;fill:#FFFFFF;}
	.st149{clip-path:url(#SVGID_83_);fill:#FF6567;}
	.st150{clip-path:url(#SVGID_83_);fill:#FF8A8A;}
	.st151{clip-path:url(#SVGID_83_);fill:#FFC2C1;}
	.st152{clip-path:url(#SVGID_83_);fill:#FFFFFF;}
	.st153{clip-path:url(#SVGID_85_);fill:#E2E9FF;}
	.st154{clip-path:url(#SVGID_85_);fill:#EEF2FF;}
	.st155{opacity:0.54;clip-path:url(#SVGID_85_);fill:#EEF2FF;}
	.st156{opacity:0.54;clip-path:url(#SVGID_85_);fill:#8FAAF0;}
	.st157{clip-path:url(#SVGID_87_);}
	.st158{fill:#FF6B81;}
	.st159{clip-path:url(#SVGID_87_);fill:none;}
	.st160{fill:#FF1B6F;}
	.st161{clip-path:url(#SVGID_89_);fill:#FFDFBD;}
	.st162{clip-path:url(#SVGID_89_);fill:#FF9D00;}
	.st163{clip-path:url(#SVGID_89_);fill:#FFF3DF;}
	.st164{clip-path:url(#SVGID_91_);fill:#F0C6F4;}
	.st165{opacity:0.8;clip-path:url(#SVGID_91_);fill:#F8E3F8;}
	.st166{clip-path:url(#SVGID_91_);fill:#F8E3F8;}
	.st167{opacity:0.79;clip-path:url(#SVGID_91_);fill:#F0C6F4;}
	.st168{clip-path:url(#SVGID_93_);fill:#FFF9C1;}
	.st169{clip-path:url(#SVGID_95_);fill:#FFC5D6;}
	.st170{clip-path:url(#SVGID_95_);fill:#FF94B3;}
	.st171{clip-path:url(#SVGID_95_);fill:#FF6794;}
	.st172{clip-path:url(#SVGID_95_);fill:#FFFFFF;}
	.st173{clip-path:url(#SVGID_97_);fill:#698DE6;}
	.st174{clip-path:url(#SVGID_97_);fill:#8FAAF0;}
	.st175{opacity:0.54;clip-path:url(#SVGID_97_);fill:#8FAAF0;}
	.st176{clip-path:url(#SVGID_99_);}
	.st177{clip-path:url(#SVGID_99_);fill:none;}
	.st178{opacity:0.46;clip-path:url(#SVGID_101_);}
	.st179{clip-path:url(#SVGID_101_);fill:none;}
	.st180{fill:none;stroke:#FFFFFF;stroke-width:2;stroke-miterlimit:10;}
	.st181{opacity:0.45;fill:#FFFFFF;}
	.st182{opacity:0.8;fill:#FFFFFF;}
	.st183{opacity:0.79;fill:#FFFFFF;}
	.st184{fill:#F2C5AA;}
	.st185{fill:none;stroke:#FFFFFF;stroke-width:0.75;stroke-miterlimit:10;}
	.st186{fill:#FFFFFF;stroke:#FFFFFF;stroke-width:0.25;stroke-miterlimit:10;}
	.st187{fill:#D3C1B2;}
	.st188{fill:#FFC5D6;}
	.st189{clip-path:url(#SVGID_109_);fill:#F787A5;}
	.st190{clip-path:url(#SVGID_109_);fill:#FFE9F2;}
	.st191{clip-path:url(#SVGID_109_);fill:#D3CFB3;}
	.st192{clip-path:url(#SVGID_109_);fill:#FFDBE5;}
	.st193{clip-path:url(#SVGID_109_);}
	.st194{fill:#FFE9F2;}
	.st195{fill:#F787A5;}
	.st196{fill:#F2CCC1;}
	.st197{fill:#DF4E50;}
	.st198{clip-path:url(#SVGID_109_);fill:#FFC5D6;}
	.st199{fill:#FFDBE5;}
	.st200{fill:#FFB9C3;}
	.st201{fill:#FB91B5;}
	.st202{fill:#E3A180;}
	.st203{fill:#92693D;}
	.st204{fill:#FBBACC;}
	.st205{fill:#E6678D;}
	.st206{fill:#574435;}
	.st207{fill:#C9A47C;}
	.st208{fill:#641F1E;}
	.st209{fill:#F15E89;}
	.st210{fill:#E7005E;}
	.st211{fill:#DEB78A;}
	.st212{fill:#DFB78A;}
	.st213{fill:#FF6794;}
	.st214{fill:#D72264;}
	.st215{fill:#F7F7F7;}
	.st216{fill:#F2F2F2;}
	.st217{fill:#FFFBF0;}
	.st218{fill:#FFBFCF;}
	.st219{fill:#FF9DAE;}
	.st220{fill:#FFC2C1;}
	.st221{fill:#FFCCD5;}
	.st222{fill:#B49E8F;}
	.st223{fill:#FFE2EA;}
	.st224{fill:#A3C5DC;}
	.st225{fill:#DA956B;}
	.st226{fill:#BDA595;}
	.st227{fill:#583B34;}
	.st228{fill:#63443C;}
	.st229{fill:#B2D0E5;}
	.st230{fill:#FCFCFB;}
	.st231{fill:#D0ACA1;}
	.st232{fill:#A2C4DB;}
	.st233{fill:#E1D0C8;}
	.st234{fill:#9C7972;}
	.st235{fill:#77573F;}
	.st236{fill:#F3769C;}
	.st237{fill:#FBFBF9;}
	.st238{fill:#F8C4DC;}
	.st239{fill:#E4BAB5;}
	.st240{clip-path:url(#SVGID_111_);fill:#F787A5;}
	.st241{clip-path:url(#SVGID_111_);fill:#FFE9F2;}
	.st242{clip-path:url(#SVGID_111_);fill:#D3CFB3;}
	.st243{clip-path:url(#SVGID_111_);fill:#FFDBE5;}
	.st244{clip-path:url(#SVGID_111_);}
	.st245{clip-path:url(#SVGID_111_);fill:#FFC5D6;}
	.st246{fill:#7FDAAA;}
	.st247{fill:#F2BC3A;}
	.st248{fill:#B99F65;}
	.st249{fill:#98D284;}
	.st250{fill:#3C3724;}
	.st251{fill:#D6BEA2;}
	.st252{fill:#9C8274;}
	.st253{fill:#587147;}
	.st254{fill:#E7D6BE;}
	.st255{fill:#5CC689;}
	.st256{clip-path:url(#SVGID_113_);fill:#A6E5C3;}
	.st257{clip-path:url(#SVGID_113_);fill:#FFFFFF;}
	.st258{clip-path:url(#SVGID_113_);fill:#58D196;}
</style>
<path class="st1" d="M16.03,124.56c29.05-17.3,58.07-34.64,87.15-51.88c38.36-22.75,76.81-45.36,115.11-68.21
	c3.88-2.32,7.43-2.91,11.78-2.08c78.53,15.01,157.07,29.92,235.62,44.87c37.45,7.13,74.9,14.27,112.34,21.43
	c1.77,0.34,3.73,0.21,5.45,2.12c-1.61,2.66-4.64,2.44-7.04,2.96c-75.41,16.44-150.84,32.81-226.27,49.15
	c-39.3,8.52-78.73,16.5-117.87,25.7c-15.57,3.66-30.38,0.38-45.37-1.34c-47.72-5.49-95.36-11.61-143.03-17.52
	c-9.33-1.16-18.63-2.45-27.95-3.68C15.97,125.56,16,125.06,16.03,124.56z M540,68.49c-10.74-4.01-21.26-5.46-32.37-2.17
	c-11.72,3.48-23.77,5.88-35.68,8.72c-58.22,13.87-116.44,27.71-174.66,41.58c-23.38,5.57-46.75,11.15-70.1,16.83
	c-2.72,0.66-7.09,0.76-6.16,4.9c0.93,4.1,4.74,1.59,7.05,1.1c13.11-2.77,26.15-5.84,39.22-8.82
	c72.31-16.47,144.62-32.94,216.92-49.41C502.81,76.98,521.41,72.73,540,68.49z M576.14,70.59c-2.42-0.6-4.58-1.25-6.78-1.67
	c-38.37-7.26-76.75-14.47-115.12-21.73C379.77,33.11,305.29,19.04,230.84,4.81c-4.66-0.89-8.48-0.3-12.5,2.08
	c-40.55,24.05-81.17,47.99-121.76,71.97c-12.82,7.58-25.62,15.2-38.43,22.8c1.95,0.54,3.41,0.06,4.72-0.68
	c11.67-6.59,23.31-13.23,34.98-19.83c40.43-22.86,80.9-45.67,121.29-68.6c5.07-2.88,9.98-3.74,15.86-2.66
	c65.49,11.99,131.1,23.31,196.5,35.7c46.67,8.84,93.91,14.78,139.97,26.82C572.83,72.77,574.67,72.3,576.14,70.59z M41.82,115.89
	c0.7,1.64,2,1.35,3.07,1.51c45.45,6.39,90.89,12.78,136.34,19.15c10.05,1.41,20.1,2.78,30.17,4.09c2.01,0.26,4.41,0.74,5.38-1.79
	c0.72-1.89-0.67-3.07-2.32-3.59c-1.75-0.55-3.57-0.92-5.38-1.21c-13.45-2.12-26.9-4.21-40.36-6.28
	c-36.72-5.66-73.43-11.3-110.15-16.97C52.1,109.78,46.31,110.73,41.82,115.89z M552.55,70.85c-0.14-0.94-0.29-1.88-0.43-2.82
	c-109.91,24.99-219.83,49.99-329.74,74.98c0.14,0.61,0.28,1.22,0.41,1.83C332.71,120.18,442.63,95.52,552.55,70.85z M34.17,118.39
	c-0.13,0.99-0.26,1.98-0.4,2.97c60.36,7.92,120.72,15.84,181.08,23.76c0.08-0.61,0.16-1.22,0.24-1.83
	C154.82,134.81,94.52,126.4,34.17,118.39z"/>
<path class="st1" d="M545.03,109.06c-13.92,2.13-25.84,4.08-35.13,5.65c-85.46,14.41-210.29,40.4-276.42,49.25
	c-5.53,0.74-17.62,4.83-32.97,2.12c-18.26-3.23-36.71-5.74-55.19-7.29c-37.25-3.13-74.17-8.9-111.31-12.83
	c-10.84-1.15-21.63-3.52-32.7-2.72c1.7,1.04,3.48,1.72,5.32,1.94c41.4,4.97,82.8,9.95,124.22,14.78
	c10.25,1.19,10.89,1.59,10.91,11.83c0.04,31.85,0.07,63.69,0.07,95.54l2.61-0.04c-0.36-32.01-0.73-64.02-1.04-96.03
	c-0.1-9.88,1.09-10.62,11.01-9.23c11.69,1.64,23.41,3.06,35.14,4.42c5.09,0.59,7.39,2.69,7.57,8.3c0.73,22.88,1.46,45.75,1.2,68.64
	c0,7.68-0.05,15.37-0.06,23.05c0.76-0.01,1.52-0.02,2.27-0.03c-0.68-29.55-0.74-59.1-0.57-88.66c0.02-3.41-1.8-8.59,4.48-8.72
	c5.75-0.12,6.96,3.71,6.92,8.75c-0.14,18.57-0.06,37.13-0.06,55.7c0,10.92,0.01,21.85,0.01,32.77c0.53-0.01,1.07-0.01,1.6-0.02
	c0.04-28.9,0.09-57.81-0.13-86.71c-0.03-3.65,0.48-6.29,2.03-8.16c2.36-2.83,6.15-3.23,7.23-3.36c7.47-0.94,86.28-14.25,195.25-32.7
	c0.23,44.56,0.46,89.12,0.69,133.68c1.67,0,3.33,0,5,0c0.05-44.89,0.1-89.78,0.15-134.67c30.23-5.58,60.46-11.17,90.7-16.75
	c0.39,50.47,0.77,100.95,1.16,151.42c10.67,0,21.33,0,32,0C546.34,215.69,545.69,162.38,545.03,109.06z"/>
<path class="st5" d="M340.37,202.91c-0.03-4.02,0.72-7.28,3.91-10.31c3.98-3.78,6.42-8.81,3.15-14.21
	c-1.9-3.13-13.82-3.42-17.2-0.89c-3.99,3-2.42,7.55-0.46,9.7c8.8,9.67,6.11,21.22,6.2,32.24c0.13,15.4,0.07,30.8,0.06,46.19
	c1.46,0.01,2.92,0.02,4.37,0.03c0-8.87,0.01-17.74,0.01-26.61C340.4,227,340.46,214.95,340.37,202.91z"/>
<path class="st1" d="M82,188c-1,27-2,54-3,81c20.67,0,41.33,0,62,0c-0.33-27-0.67-54-1-81c-40-3-80-6-120-9c-1,30-2,60-3,90
	c1,0,2,0,3,0c0.67-27.67,1.33-55.33,2-83c17.76,1.47,35.52,2.95,53.28,4.42C74.52,216.61,73.76,242.81,73,269c1,0,2,0,3,0
	c0.67-27,1.33-54,2-81c-18.67-1.67-37.33-3.33-56-5c37.22,2.16,74.43,4.32,111.65,6.48c-0.04,0.5-0.09,1.01-0.13,1.51
	C116.35,190,99.17,189,82,188z"/>
<path class="st2" d="M292.31,212.34c0,11.43,0.05,22.86-0.01,34.29c-0.04,7.76-1.07,8.97-8.52,8.39
	c-9.45-0.74-18.85-2.01-28.28-3.01c-4.87-0.51-7.13-2.82-7.08-8.01c0.18-21.56,0.12-43.13,0.05-64.69c-0.01-4.32,1.3-6.92,6.13-7.22
	c10.1-0.63,20.19-1.51,30.28-2.37c5.72-0.49,7.61,2.29,7.51,7.7C292.17,189.05,292.31,200.7,292.31,212.34z"/>
</svg>
