<svg version="1.1" id="Слой_1" xmlns="http://www.w3.org/2000/svg" x="0" y="0" viewBox="0 0 585 269" xml:space="preserve"><style>.st1{fill:#a6e5c3}</style><path class="st1" d="M16.03 124.56c29.05-17.3 58.07-34.64 87.15-51.88 38.36-22.75 76.81-45.36 115.11-68.21 3.88-2.32 7.43-2.91 11.78-2.08C308.6 17.4 387.14 32.31 465.69 47.26c37.45 7.13 74.9 14.27 112.34 21.43 1.77.34 3.73.21 5.45 2.12-1.61 2.66-4.64 2.44-7.04 2.96-75.41 16.44-150.84 32.81-226.27 49.15-39.3 8.52-78.73 16.5-117.87 25.7-15.57 3.66-30.38.38-45.37-1.34-47.72-5.49-95.36-11.61-143.03-17.52-9.33-1.16-18.63-2.45-27.95-3.68.02-.52.05-1.02.08-1.52zM540 68.49c-10.74-4.01-21.26-5.46-32.37-2.17-11.72 3.48-23.77 5.88-35.68 8.72-58.22 13.87-116.44 27.71-174.66 41.58-23.38 5.57-46.75 11.15-70.1 16.83-2.72.66-7.09.76-6.16 4.9.93 4.1 4.74 1.59 7.05 1.1 13.11-2.77 26.15-5.84 39.22-8.82 72.31-16.47 144.62-32.94 216.92-49.41 18.59-4.24 37.19-8.49 55.78-12.73zm36.14 2.1c-2.42-.6-4.58-1.25-6.78-1.67-38.37-7.26-76.75-14.47-115.12-21.73-74.47-14.08-148.95-28.15-223.4-42.38-4.66-.89-8.48-.3-12.5 2.08-40.55 24.05-81.17 47.99-121.76 71.97-12.82 7.58-25.62 15.2-38.43 22.8 1.95.54 3.41.06 4.72-.68 11.67-6.59 23.31-13.23 34.98-19.83 40.43-22.86 80.9-45.67 121.29-68.6 5.07-2.88 9.98-3.74 15.86-2.66 65.49 11.99 131.1 23.31 196.5 35.7 46.67 8.84 93.91 14.78 139.97 26.82 1.36.36 3.2-.11 4.67-1.82zm-534.32 45.3c.7 1.64 2 1.35 3.07 1.51 45.45 6.39 90.89 12.78 136.34 19.15 10.05 1.41 20.1 2.78 30.17 4.09 2.01.26 4.41.74 5.38-1.79.72-1.89-.67-3.07-2.32-3.59-1.75-.55-3.57-.92-5.38-1.21-13.45-2.12-26.9-4.21-40.36-6.28-36.72-5.66-73.43-11.3-110.15-16.97-6.47-1.02-12.26-.07-16.75 5.09zm510.73-45.04c-.14-.94-.29-1.88-.43-2.82-109.91 24.99-219.83 49.99-329.74 74.98.14.61.28 1.22.41 1.83 109.92-24.66 219.84-49.32 329.76-73.99zM34.17 118.39c-.13.99-.26 1.98-.4 2.97l181.08 23.76.24-1.83c-60.27-8.48-120.57-16.89-180.92-24.9z"/><path class="st1" d="M545.03 109.06c-13.92 2.13-25.84 4.08-35.13 5.65-85.46 14.41-210.29 40.4-276.42 49.25-5.53.74-17.62 4.83-32.97 2.12-18.26-3.23-36.71-5.74-55.19-7.29-37.25-3.13-74.17-8.9-111.31-12.83-10.84-1.15-21.63-3.52-32.7-2.72 1.7 1.04 3.48 1.72 5.32 1.94 41.4 4.97 82.8 9.95 124.22 14.78 10.25 1.19 10.89 1.59 10.91 11.83.04 31.85.07 63.69.07 95.54l2.61-.04c-.36-32.01-.73-64.02-1.04-96.03-.1-9.88 1.09-10.62 11.01-9.23 11.69 1.64 23.41 3.06 35.14 4.42 5.09.59 7.39 2.69 7.57 8.3.73 22.88 1.46 45.75 1.2 68.64 0 7.68-.05 15.37-.06 23.05l2.27-.03c-.68-29.55-.74-59.1-.57-88.66.02-3.41-1.8-8.59 4.48-8.72 5.75-.12 6.96 3.71 6.92 8.75-.14 18.57-.06 37.13-.06 55.7 0 10.92.01 21.85.01 32.77.53-.01 1.07-.01 1.6-.02.04-28.9.09-57.81-.13-86.71-.03-3.65.48-6.29 2.03-8.16 2.36-2.83 6.15-3.23 7.23-3.36 7.47-.94 86.28-14.25 195.25-32.7l.69 133.68h5l.15-134.67c30.23-5.58 60.46-11.17 90.7-16.75.39 50.47.77 100.95 1.16 151.42h32c-.65-53.29-1.3-106.6-1.96-159.92z"/><path d="M340.37 202.91c-.03-4.02.72-7.28 3.91-10.31 3.98-3.78 6.42-8.81 3.15-14.21-1.9-3.13-13.82-3.42-17.2-.89-3.99 3-2.42 7.55-.46 9.7 8.8 9.67 6.11 21.22 6.2 32.24.13 15.4.07 30.8.06 46.19l4.37.03c0-8.87.01-17.74.01-26.61-.01-12.05.05-24.1-.04-36.14z" fill="#fff"/><path class="st1" d="M82 188l-3 81h62c-.33-27-.67-54-1-81l-120-9-3 90h3c.67-27.67 1.33-55.33 2-83 17.76 1.47 35.52 2.95 53.28 4.42L73 269h3c.67-27 1.33-54 2-81-18.67-1.67-37.33-3.33-56-5l111.65 6.48c-.04.5-.09 1.01-.13 1.51C116.35 190 99.17 189 82 188z"/><path d="M292.31 212.34c0 11.43.05 22.86-.01 34.29-.04 7.76-1.07 8.97-8.52 8.39-9.45-.74-18.85-2.01-28.28-3.01-4.87-.51-7.13-2.82-7.08-8.01.18-21.56.12-43.13.05-64.69-.01-4.32 1.3-6.92 6.13-7.22 10.1-.63 20.19-1.51 30.28-2.37 5.72-.49 7.61 2.29 7.51 7.7-.22 11.63-.08 23.28-.08 34.92z" fill="#58d196"/></svg>