<?xml version="1.0" encoding="utf-8"?>
<!-- Generator: Adobe Illustrator 24.2.3, SVG Export Plug-In . SVG Version: 6.00 Build 0)  -->
<svg version="1.1" id="Слой_1" xmlns="http://www.w3.org/2000/svg" xmlns:xlink="http://www.w3.org/1999/xlink" x="0px" y="0px"
	 viewBox="0 0 585 650" style="enable-background:new 0 0 585 650;" xml:space="preserve">
<style type="text/css">
	.st0{fill:#00C377;}
	.st1{fill:#A6E5C3;}
	.st2{fill:#58D196;}
	.st3{fill:#88E5AF;}
	.st4{fill:#00B45A;}
	.st5{fill:#FFFFFF;}
	.st6{fill:#FF6567;}
	.st7{fill:url(#SVGID_1_);}
	.st8{fill:#ADD8C3;}
	.st9{fill:none;stroke:#FFFFFF;stroke-miterlimit:10;}
	.st10{fill:#A2CBAB;}
	.st11{fill:#96CDA1;}
	.st12{opacity:0.76;}
	.st13{fill:#C4E9CD;}
	.st14{fill:url(#SVGID_2_);}
	.st15{fill:url(#SVGID_3_);}
	.st16{fill:#F6E6BE;}
	.st17{fill:url(#SVGID_4_);}
	.st18{fill:url(#SVGID_5_);}
	.st19{fill:url(#SVGID_6_);}
	.st20{fill:#E4EEC4;}
	.st21{fill:#EFFBD2;}
	.st22{fill:url(#SVGID_7_);}
	.st23{fill:url(#SVGID_8_);}
	.st24{fill:url(#SVGID_9_);}
	.st25{fill:url(#SVGID_10_);}
	.st26{fill:#FFE493;}
	.st27{clip-path:url(#SVGID_12_);fill:url(#SVGID_13_);}
	.st28{fill:#5B2A1E;}
	.st29{fill:#907673;}
	.st30{fill:url(#SVGID_14_);}
	.st31{fill:url(#SVGID_15_);}
	.st32{fill:url(#SVGID_16_);}
	.st33{fill:url(#SVGID_17_);}
	.st34{fill:#FE82C8;}
	.st35{opacity:0.62;clip-path:url(#SVGID_19_);fill:#FFFFFF;}
	.st36{opacity:0.75;clip-path:url(#SVGID_19_);fill:#FFFFFF;}
	.st37{opacity:0.41;clip-path:url(#SVGID_19_);fill:#FFFFFF;}
	.st38{clip-path:url(#SVGID_19_);fill:none;}
	.st39{clip-path:url(#SVGID_21_);}
	.st40{opacity:0.26;fill:#FFFFFF;}
	.st41{opacity:0.69;fill:#FFFFFF;}
	.st42{fill:none;}
	.st43{opacity:0.16;fill:#FFFFFF;}
	.st44{opacity:0.3;fill:#FFFFFF;}
	.st45{opacity:0.23;fill:#FFFFFF;}
	.st46{opacity:0.24;fill:#FFFFFF;}
	.st47{opacity:0.17;}
	.st48{opacity:0.05;fill:#E2E8E4;}
	.st49{clip-path:url(#SVGID_23_);}
	.st50{opacity:0.76;clip-path:url(#SVGID_23_);fill:#FFFFFF;}
	.st51{clip-path:url(#SVGID_23_);fill:url(#SVGID_24_);}
	.st52{clip-path:url(#SVGID_23_);fill:none;stroke:#FFFFFF;stroke-width:2;stroke-linecap:round;stroke-miterlimit:10;}
	.st53{clip-path:url(#SVGID_23_);fill:url(#SVGID_25_);}
	.st54{clip-path:url(#SVGID_23_);fill:url(#SVGID_26_);}
	.st55{clip-path:url(#SVGID_23_);fill:url(#SVGID_27_);}
	.st56{clip-path:url(#SVGID_23_);fill:url(#SVGID_28_);}
	.st57{clip-path:url(#SVGID_23_);fill:#FFFFFF;}
	.st58{clip-path:url(#SVGID_23_);fill:url(#SVGID_29_);}
	.st59{opacity:0.62;clip-path:url(#SVGID_31_);fill:#FFFFFF;}
	.st60{clip-path:url(#SVGID_31_);fill:#FFFFFF;}
	.st61{opacity:0.41;clip-path:url(#SVGID_31_);fill:#FFFFFF;}
	.st62{clip-path:url(#SVGID_31_);fill:none;}
	.st63{clip-path:url(#SVGID_33_);}
	.st64{fill:url(#SVGID_34_);}
	.st65{opacity:0.74;clip-path:url(#SVGID_36_);fill:url(#SVGID_37_);}
	.st66{fill:#E5E5E5;}
	.st67{fill:none;stroke:#4D4D4D;stroke-width:0.75;stroke-linecap:round;stroke-miterlimit:10;}
	.st68{fill:url(#SVGID_38_);}
	.st69{opacity:0.74;fill:url(#SVGID_39_);}
	.st70{opacity:0.74;fill:url(#SVGID_40_);}
	.st71{opacity:0.74;fill:url(#SVGID_41_);}
	.st72{opacity:0.74;fill:url(#SVGID_42_);}
	.st73{fill:url(#SVGID_43_);}
	.st74{opacity:0.66;}
	.st75{opacity:0.37;fill:#FFFFFF;}
	.st76{fill:url(#SVGID_44_);}
	.st77{fill:url(#SVGID_45_);}
	.st78{opacity:0.44;clip-path:url(#SVGID_47_);fill:#FFFFD9;}
	.st79{opacity:0.43;clip-path:url(#SVGID_49_);fill:#FFFFFF;}
	.st80{clip-path:url(#SVGID_49_);fill:none;stroke:#FFFFFF;stroke-miterlimit:10;}
	.st81{opacity:0.76;clip-path:url(#SVGID_49_);fill:#FFFFFF;}
	.st82{clip-path:url(#SVGID_49_);fill:#FFFFFF;}
	.st83{opacity:0.08;clip-path:url(#SVGID_49_);fill:#FFFFFF;}
	.st84{opacity:0.27;clip-path:url(#SVGID_49_);fill:#FFFFFF;}
	.st85{opacity:0.37;clip-path:url(#SVGID_49_);fill:#FFFFFF;}
	.st86{clip-path:url(#SVGID_49_);fill:none;}
	.st87{fill:url(#SVGID_50_);}
	.st88{opacity:0.62;clip-path:url(#SVGID_52_);fill:#FFFFFF;}
	.st89{clip-path:url(#SVGID_52_);fill:#FFFFFF;}
	.st90{opacity:0.41;clip-path:url(#SVGID_52_);fill:#FFFFFF;}
	.st91{clip-path:url(#SVGID_52_);fill:none;}
	.st92{clip-path:url(#SVGID_54_);}
	.st93{opacity:0.55;fill:url(#SVGID_55_);}
	.st94{fill:url(#SVGID_56_);}
	.st95{fill:url(#SVGID_57_);}
	.st96{opacity:0.28;}
	.st97{opacity:0.56;clip-path:url(#SVGID_59_);fill:#FFFFFF;}
	.st98{opacity:0.43;clip-path:url(#SVGID_61_);fill:#FFFFFF;}
	.st99{clip-path:url(#SVGID_61_);fill:none;stroke:#FFFFFF;stroke-miterlimit:10;}
	.st100{opacity:0.76;clip-path:url(#SVGID_61_);fill:#FFFFFF;}
	.st101{clip-path:url(#SVGID_61_);fill:#FFFFFF;}
	.st102{opacity:0.08;clip-path:url(#SVGID_61_);fill:#FFFFFF;}
	.st103{opacity:0.27;clip-path:url(#SVGID_61_);fill:#FFFFFF;}
	.st104{opacity:0.37;clip-path:url(#SVGID_61_);fill:#FFFFFF;}
	.st105{clip-path:url(#SVGID_61_);fill:none;}
	.st106{clip-path:url(#SVGID_63_);fill:none;}
	.st107{opacity:0.46;}
	.st108{opacity:0.86;fill:#FFFFFF;}
	.st109{opacity:0.4;}
	.st110{opacity:0.73;fill:#FFFFFF;}
	.st111{opacity:0.54;clip-path:url(#SVGID_65_);fill:#FFFFFF;}
	.st112{fill:#FF8A8A;}
	.st113{opacity:0.75;fill:#FFFFFF;}
	.st114{fill:#FFC181;}
	.st115{clip-path:url(#SVGID_67_);fill:#FFDFBD;}
	.st116{clip-path:url(#SVGID_67_);fill:#FF9D00;}
	.st117{clip-path:url(#SVGID_67_);fill:#FFF3DF;}
	.st118{clip-path:url(#SVGID_69_);fill:#FFBAE4;}
	.st119{opacity:0.8;clip-path:url(#SVGID_69_);fill:#FE82C8;}
	.st120{clip-path:url(#SVGID_69_);fill:#FE82C8;}
	.st121{opacity:0.79;clip-path:url(#SVGID_69_);fill:#FFBAE4;}
	.st122{fill:#FFFEEA;}
	.st123{fill:#D2F2E1;}
	.st124{opacity:0.44;fill:#FFFFFF;}
	.st125{clip-path:url(#SVGID_71_);fill:#FFF9C1;}
	.st126{opacity:0.86;fill:#FFCCD5;}
	.st127{opacity:0.62;clip-path:url(#SVGID_73_);fill:#FFFFFF;}
	.st128{opacity:0.75;clip-path:url(#SVGID_73_);fill:#FFFFFF;}
	.st129{opacity:0.41;clip-path:url(#SVGID_73_);fill:#FFFFFF;}
	.st130{clip-path:url(#SVGID_73_);fill:none;}
	.st131{clip-path:url(#SVGID_75_);}
	.st132{opacity:0.44;clip-path:url(#SVGID_77_);fill:#FFFFFF;}
	.st133{opacity:0.43;clip-path:url(#SVGID_79_);fill:#FFFFFF;}
	.st134{clip-path:url(#SVGID_79_);fill:none;stroke:#FFFFFF;stroke-miterlimit:10;}
	.st135{opacity:0.76;clip-path:url(#SVGID_79_);fill:#FFFFFF;}
	.st136{clip-path:url(#SVGID_79_);fill:#FFFFFF;}
	.st137{opacity:0.08;clip-path:url(#SVGID_79_);fill:#FFFFFF;}
	.st138{opacity:0.27;clip-path:url(#SVGID_79_);fill:#FFFFFF;}
	.st139{opacity:0.37;clip-path:url(#SVGID_79_);fill:#FFFFFF;}
	.st140{clip-path:url(#SVGID_79_);fill:none;}
	.st141{opacity:0.54;clip-path:url(#SVGID_81_);fill:#FFFFFF;}
	.st142{opacity:0.62;fill:#FFFFFF;}
	.st143{opacity:0.41;fill:#FFFFFF;}
	.st144{opacity:0.43;fill:#FFFFFF;}
	.st145{opacity:0.76;fill:#FFFFFF;}
	.st146{opacity:0.08;fill:#FFFFFF;}
	.st147{opacity:0.27;fill:#FFFFFF;}
	.st148{opacity:0.54;fill:#FFFFFF;}
	.st149{clip-path:url(#SVGID_83_);fill:#FF6567;}
	.st150{clip-path:url(#SVGID_83_);fill:#FF8A8A;}
	.st151{clip-path:url(#SVGID_83_);fill:#FFC2C1;}
	.st152{clip-path:url(#SVGID_83_);fill:#FFFFFF;}
	.st153{clip-path:url(#SVGID_85_);fill:#E2E9FF;}
	.st154{clip-path:url(#SVGID_85_);fill:#EEF2FF;}
	.st155{opacity:0.54;clip-path:url(#SVGID_85_);fill:#EEF2FF;}
	.st156{opacity:0.54;clip-path:url(#SVGID_85_);fill:#8FAAF0;}
	.st157{clip-path:url(#SVGID_87_);}
	.st158{fill:#FF6B81;}
	.st159{clip-path:url(#SVGID_87_);fill:none;}
	.st160{fill:#FF1B6F;}
	.st161{clip-path:url(#SVGID_89_);fill:#FFDFBD;}
	.st162{clip-path:url(#SVGID_89_);fill:#FF9D00;}
	.st163{clip-path:url(#SVGID_89_);fill:#FFF3DF;}
	.st164{clip-path:url(#SVGID_91_);fill:#F0C6F4;}
	.st165{opacity:0.8;clip-path:url(#SVGID_91_);fill:#F8E3F8;}
	.st166{clip-path:url(#SVGID_91_);fill:#F8E3F8;}
	.st167{opacity:0.79;clip-path:url(#SVGID_91_);fill:#F0C6F4;}
	.st168{clip-path:url(#SVGID_93_);fill:#FFF9C1;}
	.st169{clip-path:url(#SVGID_95_);fill:#FFC5D6;}
	.st170{clip-path:url(#SVGID_95_);fill:#FF94B3;}
	.st171{clip-path:url(#SVGID_95_);fill:#FF6794;}
	.st172{clip-path:url(#SVGID_95_);fill:#FFFFFF;}
	.st173{clip-path:url(#SVGID_97_);fill:#698DE6;}
	.st174{clip-path:url(#SVGID_97_);fill:#8FAAF0;}
	.st175{opacity:0.54;clip-path:url(#SVGID_97_);fill:#8FAAF0;}
	.st176{clip-path:url(#SVGID_99_);}
	.st177{clip-path:url(#SVGID_99_);fill:none;}
	.st178{opacity:0.46;clip-path:url(#SVGID_101_);}
	.st179{clip-path:url(#SVGID_101_);fill:none;}
	.st180{fill:none;stroke:#FFFFFF;stroke-width:2;stroke-miterlimit:10;}
	.st181{opacity:0.45;fill:#FFFFFF;}
	.st182{opacity:0.8;fill:#FFFFFF;}
	.st183{opacity:0.79;fill:#FFFFFF;}
	.st184{fill:#F2C5AA;}
	.st185{fill:none;stroke:#FFFFFF;stroke-width:0.75;stroke-miterlimit:10;}
	.st186{fill:#FFFFFF;stroke:#FFFFFF;stroke-width:0.25;stroke-miterlimit:10;}
	.st187{fill:#D3C1B2;}
	.st188{fill:#FFC5D6;}
	.st189{clip-path:url(#SVGID_109_);fill:#F787A5;}
	.st190{clip-path:url(#SVGID_109_);fill:#FFE9F2;}
	.st191{clip-path:url(#SVGID_109_);fill:#D3CFB3;}
	.st192{clip-path:url(#SVGID_109_);fill:#FFDBE5;}
	.st193{clip-path:url(#SVGID_109_);}
	.st194{fill:#FFE9F2;}
	.st195{fill:#F787A5;}
	.st196{fill:#F2CCC1;}
	.st197{fill:#DF4E50;}
	.st198{clip-path:url(#SVGID_109_);fill:#FFC5D6;}
	.st199{fill:#FFDBE5;}
	.st200{fill:#FFB9C3;}
	.st201{fill:#FB91B5;}
	.st202{fill:#E3A180;}
	.st203{fill:#92693D;}
	.st204{fill:#FBBACC;}
	.st205{fill:#E6678D;}
	.st206{fill:#574435;}
	.st207{fill:#C9A47C;}
	.st208{fill:#641F1E;}
	.st209{fill:#F15E89;}
	.st210{fill:#E7005E;}
	.st211{fill:#DEB78A;}
	.st212{fill:#DFB78A;}
	.st213{fill:#FF6794;}
	.st214{fill:#D72264;}
	.st215{fill:#F7F7F7;}
	.st216{fill:#F2F2F2;}
	.st217{fill:#FFFBF0;}
	.st218{fill:#FFBFCF;}
	.st219{fill:#FF9DAE;}
	.st220{fill:#FFC2C1;}
	.st221{fill:#FFCCD5;}
	.st222{fill:#B49E8F;}
	.st223{fill:#FFE2EA;}
	.st224{fill:#A3C5DC;}
	.st225{fill:#DA956B;}
	.st226{fill:#BDA595;}
	.st227{fill:#583B34;}
	.st228{fill:#63443C;}
	.st229{fill:#B2D0E5;}
	.st230{fill:#FCFCFB;}
	.st231{fill:#D0ACA1;}
	.st232{fill:#A2C4DB;}
	.st233{fill:#E1D0C8;}
	.st234{fill:#9C7972;}
	.st235{fill:#77573F;}
	.st236{fill:#F3769C;}
	.st237{fill:#FBFBF9;}
	.st238{fill:#F8C4DC;}
	.st239{fill:#E4BAB5;}
	.st240{clip-path:url(#SVGID_111_);fill:#F787A5;}
	.st241{clip-path:url(#SVGID_111_);fill:#FFE9F2;}
	.st242{clip-path:url(#SVGID_111_);fill:#D3CFB3;}
	.st243{clip-path:url(#SVGID_111_);fill:#FFDBE5;}
	.st244{clip-path:url(#SVGID_111_);}
	.st245{clip-path:url(#SVGID_111_);fill:#FFC5D6;}
	.st246{fill:#7FDAAA;}
	.st247{fill:#F2BC3A;}
	.st248{fill:#B99F65;}
	.st249{fill:#98D284;}
	.st250{fill:#3C3724;}
	.st251{fill:#D6BEA2;}
	.st252{fill:#9C8274;}
	.st253{fill:#587147;}
	.st254{fill:#E7D6BE;}
	.st255{fill:#5CC689;}
	.st256{clip-path:url(#SVGID_113_);fill:#A6E5C3;}
	.st257{clip-path:url(#SVGID_113_);fill:#FFFFFF;}
	.st258{clip-path:url(#SVGID_113_);fill:#58D196;}
</style>
<path class="st1" d="M332.23,185.09c-34.11,50.78-64.79,89.28-85.64,114.19c-57.64,68.84-98.99,103.4-130.43,176.21
	c-23.62,54.7-19.09,76.96-16.24,86.63c17.04,57.86,94.98,76.1,106.31,78.75c18.5,4.33,60.55,14.17,94.5-8.37
	c23.29-15.46,32.35-39.24,38.88-57.09c40.66-111.11,72.64-226.79,88.1-278.58c5.61-18.79,14.6-47.78,27.07-83.18
	c-9.74-6-21.55-12.13-35.44-17.23C384.27,183.53,352.6,183.34,332.23,185.09z"/>
<path class="st247" d="M431.61,255.63c-1.59,0.09-2.42-0.96-3.18-2.12C429.82,253.73,430.58,254.88,431.61,255.63z"/>
<path class="st246" d="M115.17,66.9c5.36,1.36,8.2,7.12,13.87,7.94c0.35,1.7,0.42,3.34-1.75,3.79c-8.04,1.66-14.07,7.07-19.66,12.2
	c-11.03,10.12-20.44,21.83-23.51,37.08c-4.31,21.41-6.71,42.92,0.04,65.08c-10.98-3.59-21.26-6.66-31.33-10.3
	c-17.34-6.26-34.99-11.5-52.68-16.6c0-55.36,0-110.72,0-166.08c3.93,0.83,6.78,4.43,11.07,4.3c0,0-0.15-0.12-0.15-0.12
	c2.82,4.86,7.79,7.26,12.22,10.01C42.69,26.21,62.2,38.1,81.92,49.59C92.71,55.87,102.98,63.26,115.17,66.9z"/>
<path class="st2" d="M0.14,166.08c17.7,5.1,35.34,10.34,52.68,16.6c10.08,3.64,20.35,6.71,31.33,10.3
	c-6.74-22.16-4.35-43.67-0.04-65.08c3.07-15.25,12.48-26.96,23.51-37.08c5.59-5.13,11.62-10.54,19.66-12.2
	c2.17-0.45,2.1-2.09,1.75-3.79c17.4,3.1,31.81,12.96,46.98,21.03c5.87,3.13,11.43,6.85,17.13,10.29c-2.87-0.54-6.41-0.2-8.5-1.77
	c-12.06-9.06-26.23-14.05-39.25-21.2c-8.54-4.69-16.19-3.84-23.72,1.6c-20.8,15.02-34.52,34.27-36.13,60.73
	c-1.78,8.5-1.23,17.04-0.29,25.57c0.83,4.26,1.81,8.49,2.48,12.78c2.34,15.13,8.11,29.75,6.47,45.5c-0.43,4.15-1.57,8.59,0.77,12.67
	c-4.98-2.42-4.69-7.47-4.17-11.32c1.36-10.06-1.33-19.55-2.57-29.27c-0.64-5.06-4.86-5.98-8.25-6.78
	c-26.38-6.21-51.04-17.75-77.21-24.54c-0.82-0.21-1.75,0.04-2.63,0.08C0.14,168.85,0.14,167.47,0.14,166.08z"/>
<path class="st4" d="M296.7,230.38c0.07,2.09,1.4,1.92,2.81,1.59c-6.05,9.79-11.75,19.8-19.43,28.46c-1.04,1.17-1.52,3.69-4.1,1.62
	c-8.69-6.97-15.39-15.72-22.4-24.16c2.08,1.59,0.43,4.05,2.25,6.64c4.8,6.84,10.41,12.74,16.55,18.16c2.95,2.6,3.06,4.39,0.95,7.38
	c-4.47,6.32-6.51,7.1-11.4,0.93c-14.09-17.78-27.95-35.82-33.45-58.58c-0.43-1.79-0.2-4.78-2.98-4.55c-2.17,0.18-1.57,2.83-1.08,4
	c4.39,10.34,5.91,21.83,13.59,30.89c3.76,4.43,5.8,10.3,8.82,15.41c1.28,2.17-0.14,3.53-1.1,4.85c-0.97,1.33-1.86,0.17-2.57-0.78
	c-5.23-7.08-13.56-10.67-19.32-17.29c-2.31-2.65-5.23-6.61-11.11-4.87c10.5,8.29,18.67,18.09,30.08,24.51
	c6.79,3.82,14.22,8.06,17.43,16.24c-4.12,1.33-7.36-1.61-11.07-2.28c-3.76-0.67-6.66-2.71-8.92-5.72c-1.93-2.57-4.62-4.08-7.67-3.73
	c-14.43,1.68-28.64-0.82-42.93-1.82c-4.73-0.33-8.87-1.72-12.91-3.88c-3.84-2.06-7.84-3.67-12.22-4.14
	c-2.12-0.18-4.24-0.37-6.34-0.55c-0.85-1.84-2.26-2.39-4.32-2.72c-19.42-3.08-38.47-8.43-58.22-9.5c-0.2-1.46-0.41-2.92-0.65-4.39
	c-2.37-4.11-1.24-8.54-0.81-12.69c1.63-15.75-4.13-30.37-6.47-45.5c-0.66-4.29-1.64-8.52-2.47-12.78c0.1-8.52,0.19-17.05,0.29-25.58
	c1.61-26.46,15.33-45.72,36.13-60.73c7.53-5.44,15.18-6.29,23.72-1.6c13.02,7.16,27.19,12.15,39.25,21.2
	c2.1,1.57,5.63,1.23,8.5,1.77c0.8,0.51,1.59,1.03,2.39,1.54c8.84,6.93,18.92,11.77,28.9,16.7c8.95,4.42,18.17,8.31,27.27,12.43
	c-0.04,0.56-0.09,1.11-0.13,1.67c-10.08-0.48-19.86,1.75-29.72,2.5c-17.13,1.3-32.6,7.71-48.37,13.42c-0.57,0.21-1.8,0.39-1.21,2.15
	c8.01-2.14,15.82-5.46,24.43-4.63c1.78,0.17,4.38-0.71,5.42-2.04c2.24-2.84,1.95-2.95,4.55-3.29c4.55-0.59,9.07-1.94,13.61-1.95
	c9.42-0.02,18.87-3.77,29.59-0.16c-4.17,2.21-7.26,3.85-10.35,5.49c7.91-0.37,14.48-5.48,22.2-5.51c7.54-0.03,15.25-0.14,23.07,3.38
	c-6.1,5.17-13.04,8.55-16.97,15.16c8.62-5.17,17.24-10.36,22.94-18.96c4.19-6.32,10.26-9.08,17.47-9.54
	c6.19-0.4,12.39-0.02,18.61,0.45c9.25,0.7,18.59,1.62,27.76-0.97c2.36,1.09,4.72,2.17,7.05,3.22c2.74,3.7-1.65,3.71-3.77,5.57
	c6.53,2.07,10.85,5.43,13.47,11.29c0.83,1.85,2.61,4.85,5.78,5.11c4,1.67,4.36,6.5,7.61,8.81c-0.01,2.49,2.05,3.45,3.56,4.81
	c0.96,2.75,2.75,4.7,5.53,5.67c0.59,0.65,1.19,1.3,1.78,1.95c-1.45,4.04-1.79,8.58-5.23,11.72c-5.22,0.38-10.91-2.71-15.55,0.13
	c-7.61,4.66-13.99,4.28-20.29-1.84c-0.79-0.77-1.99-1.11-2.97-1.72c-7.89-4.86-16.47-8.66-19.78-18.77
	c-1.77-5.41-0.4-10.74-1.46-15.97c-9.9,15.17-0.98,24.57,11.38,33.03c-4.76,2.37-7.03-0.44-9.6-1.94c-2.14-1.24-3.59-3.75-6.38-3.75
	c-0.96,0-2.25-1.33-2.87,0.22c-0.27,0.66,0.1,2.23,0.58,2.44c4.3,1.89,7.32,5.89,12.05,7.06c2.15,0.53,5.67-1.96,6.26,1.83
	c0.53,3.4-3.29,3.85-5.4,5.39c-1.58,1.15-3.41,1.15-5.28,1.14c-1.54-0.01-2.66,1.05-2.89,2.44c-0.27,1.65,1.41,1.25,2.33,1.72
	c2.97,1.5,1.95,2.5-0.18,4.28c-4.92,4.12-10.7,6.68-16.42,9.03c-14.72,6.05-29.21,13.08-45.71,13.97
	c5.28,2.34,10.83,0.85,15.83,0.33C288.28,230.72,292.35,229.24,296.7,230.38z M240.69,197.17c0-7.27,0.09-14.39,3.03-21.19
	c3.98-9.23,11.95-14.2,19.95-19.22c1.87-1.17,5.2-2.4,4.11-4.7c-1.24-2.63-4.66-1.46-6.64-0.14c-5.09,3.4-11.26,4.07-16.51,7.4
	c-4.84,3.06-9.28,6.74-14.78,9.13c-7.37,3.21-9.12,9.17-6.33,15.85c7.42-12.46,17.55-21.03,30.94-25.7
	c-12.69,8.79-15.77,21.95-16.63,35.91c-0.16,2.56-1.58,7.1,1.98,7.9c2.84,0.63,4.56-3.35,5.94-5.87
	c3.56-6.48,8.65-11.51,14.31-16.28c-1.65,6.58-5.25,12.29-6.04,19.13c-1.26,10.95-1.66,10.91,5.51,18.94
	c-8.76-20.21,2.89-35.06,12.37-50.85C258.8,174.8,248.89,184.8,240.69,197.17z M292.4,233.57c-9.19,3.34-15.93,12.03-26.31,7.56
	C274.65,247.81,282.3,245.69,292.4,233.57z M229.89,189.81c-1.63,2.35-3.25,4.7-4.88,7.06 M320.69,179.86
	c0.16,0.08-0.66-0.32-1.47-0.72c-0.16,0.52-0.52,1.08-0.42,1.55c0.11,0.56,0.5,1.3,0.97,1.51
	C320.53,182.53,320.93,181.97,320.69,179.86z"/>
<path class="st5" d="M390.39,192.16c3.44-3.15,3.78-7.68,5.23-11.73c-2.44-2.54-4.87-5.08-7.31-7.62c-1.19-1.6-2.37-3.21-3.56-4.81
	c-3.26-2.32-3.61-7.14-7.61-8.81c-1.22-4-2.75-6.64-3.95-8.34c-1.18-1.68-2.18-2.63-3.34-4.94c-0.43-0.85-1.28-1.61-1.76-3.08
	c-0.3-0.92-1.41-1.58-2.15-2.37c16.2-22.42,26.27-40.12,24.57-43.1c-0.76-1.33-1.65-2.35-1.65-2.35c-1.02-1.19-2.48-2.47-4.88-3.81
	c-6.28-3.51-3.36-3.37-19.53-11.37c-5.76-2.85-13.15-6.32-21.97-9.98c-1.58-1.1-3.15-2.2-4.73-3.29c0-1,0.06-2.73,0.52-4.79
	c3.91-17.35,29.1-25.25,38.75-28.27c29.04-9.11,108.23,23.47,202.64,83.9c-0.07,0.1-0.11,0.19-0.12,0.28
	c-0.11,0.95,1.13,1.93,1.64,2.43c1.16,1.14,1.15,2.84,1.13,5.77c-0.03,4.9-2.19,9.2-3.14,10.91c-0.93,2.1-4.64,10.19-10.24,14.84
	c-2.79,2.32-5.02,2.83-6.35,3.12c-6.09,1.35-6.99-3.61-7.63-8.11c-0.49-3.5,0.21-6.84,1.47-10.12c1.52-3.94,2.91-7.93,4.36-11.9
	c-4.43,8.72-8.87,17.43-13.3,26.15c-0.81,0.32-2.2,0.8-3.96,1.12c-13.59,2.46-23.36-9.71-45.22-22.78
	c-12.42-7.42-18.92-10.64-24.97-9.95c-22.71,2.6-33.95,60.91-38.31,89.24c-10.54-0.8-24.4-3.56-38.09-11.84
	C394.58,195.15,392.4,193.67,390.39,192.16z"/>
<path class="st2" d="M468.39,122.56c0.75-1.02,2.57-3.34,4.95-3.39c0.95-0.02,1.96,0.82,4.1,2.74c-3.89-3.89-5.49-0.61-6.79,2.37
	c-8.15,18.7-13.01,38.35-12.03,58.66c0.54,11.13,1.84,22.96,9.76,32.36c2.64,3.13,5.38,5.39,9.76,4.54c-0.39-2.96-4.53-4.45-2.76-8
	c0.87,1.72,3.21-0.31,4.32,2.17c2.54,5.65,9.75,8.2,16.03,6.36c6.75-1.98,6.88-2.88,3.26-8.69c-1.29-2.07-5.68-2.72-4.12-5.45
	c1.76-3.07,5.58-0.56,8.29-0.39c3.95,0.24,3.74,4.25,3.95,7.35c0,0,0.1-0.06,0.1-0.06c-0.6,1.7-1.2,3.39-1.8,5.09
	c-5.18,6.63-11.7,9.28-19.91,6.48c-3.62-1.23-4.76,0.16-4.08,3.55c1.98,9.88-1.63,17.64-8.02,25.1c-5.58,6.52-6,14.58-2.64,22.57
	c1.19,2.82,2.32,5.49-0.16,8.16c-2.97,0.85-2.2,3.55-2.83,5.6c-1.45,4.7-1.66,9.69-5.04,13.88c-9.32,11.54-20.97,17.55-35.96,18.02
	c-9.75,0.31-19.36,2.98-29.24,2.69c-1.83-0.05-4.53-0.09-5.19,2.27c-0.77,2.77-2.67,1.32-3.87,1.27c-1.77-0.08-4.06-2.63-4.7,1.01
	c-0.32,1.84-1.27,5.46,0.46,5.53c2.41,0.1,6.34,2.44,7.35-0.28c1.78-4.78,4.93-2.44,7.67-2.62c-4.03-0.21-1.19,4.67-4.77,6.01
	c-1.33,0.5-2.06,1.41-2.12,2.37c-0.11,1.85,3.95,3.08,3.85,3.35c-0.19,0.49-14.05-2.98-14.38-7.98c-0.05-0.84,0.22-2.5-0.09-5.49
	c0,0-0.11-1.06-0.3-2.12c-1.05-5.94-24.75-38.49-22.04-41.58c0.23-0.27,0.79-0.46,2.3,0.02c-0.8,2.46-6.26,0.59-4.81,4.99
	c1.05,3.17,4.18,4.23,6.92,4.96c5.35,1.42,6.4-0.44,5.35-8.72c0.17-1.33,0.33-2.67,0.5-4c0.09-0.2,0.13-0.45,0.28-0.58
	c0.13-0.11,0.38-0.08,0.58-0.11c0.31,0.45,0.78,1.17,1.3,2.09c1.25,2.25,3.05,5.48,2.82,9.45c-0.06,0.95-0.26,2.46-1.03,4.25
	c-2.7,3.14-0.87,3.98,2.1,3.86c3.4-0.14,7.04,0.37,9.97-1.94c2.16-1.7,3.88-1.42,6.55,0.63c-4.02,0.85-7.3,1.11-10.23,2.26
	c-7.74,3.03-15.62-0.3-23.49,0.89c-5.39,0.82-1.83,3.66-2.56,5.46c1.9,0.28,3.04,1,3.67,1.92c1.35,1.96-1.11,4.37-0.71,6.82
	c0.65,4.05,8.2,6.03,10.23,6.52c11.72,2.81,21.19-2.95,34.21-2.96c11.11-0.01,21.28-4.36,32.57-4.56
	c12.96-0.22,21.44-12.18,27.77-22.43c3.91-6.33,2.96-15.78,3.72-23.88c0.35-3.71-1.78-4.37-4.63-1.96
	c-0.27-0.23-0.53-0.47-0.78-0.71c2.84-4.05,6.01-7.9,8.45-12.18c4.23-7.43,9.86-14.36,10.71-23.24c0.39-4.11,1.28-9.59-6.15-8.63
	c-1.48,0.19-2.32-1.14-3.45-1.76c-8.78-4.81-10.63-13.98-13.7-22.14c-1.19-3.16-2.64-3.33-3.92-5.08
	C437.48,172.55,464.31,128.06,468.39,122.56z"/>
<path class="st2" d="M489.84,156.24c-0.76,1.88-1.32,3.43-1.65,4.35c-1.5,1.11-1.55,2.58-1.05,4.19l0.06-0.11
	c-9.65,8.04-12.96,18.59-12.18,30.76c-1.85,5.5-3.14,11,0.36,16.38c-1.77,3.56,2.37,5.05,2.76,8c-4.38,0.86-7.12-1.41-9.76-4.54
	c-7.92-9.4-9.22-21.23-9.76-32.36c-0.98-20.31,3.88-39.96,12.03-58.66c1.3-2.98,2.91-6.26,6.79-2.37c0,0,0,0,0,0
	c0,0-0.08-0.15-0.07-0.16c0.04-0.08,11.21,6.05,23.79,12.98c-1.31,2.01-2.32,3.69-2.99,4.81
	C493.4,147.6,490.74,154.02,489.84,156.24z"/>
<path class="st4" d="M415.42,343.54c-7.95,0.33-14.46,0-19.19-0.41c-3.41-0.3-5.68-0.63-7.88-2.25c-3.47-2.56-6.09-7.8-4.56-12.1
	c0.14-0.38,0.4-1.1,0.97-1.84c3.08-3.98,10.67-2.95,12.79-2.7c6.62,0.77,14.16-0.38,29.24-2.69c12.54-1.92,31.27-7.99,35.96-18.02
	c3.47-7.42,4.22-11.25,5.04-13.88c0.63-2.05-0.14-4.75,2.83-5.6c6.03,7.05,2.92,14.51,0.98,21.92c-2.25,5.47-6.64,13.95-15.01,21.61
	C440.47,342.31,421.18,343.43,415.42,343.54z"/>
<path class="st2" d="M354.61,134c-9.17,2.59-18.51,1.67-27.76,0.97c-6.22-0.47-12.41-0.85-18.61-0.45
	c-7.21,0.46-13.28,3.22-17.47,9.54c-5.7,8.6-14.32,13.78-22.94,18.96c3.93-6.61,10.87-9.99,16.97-15.16
	c-7.82-3.53-15.53-3.42-23.07-3.38c-7.72,0.03-14.3,5.14-22.2,5.51c3.09-1.64,6.18-3.28,10.35-5.49
	c-10.71-3.61-20.16,0.14-29.59,0.16c-4.54,0.01-9.06,1.36-13.61,1.95c-2.6,0.34-2.3,0.45-4.55,3.29c-1.05,1.33-3.65,2.21-5.42,2.04
	c-8.61-0.83-16.43,2.49-24.43,4.63c-0.59-1.76,0.63-1.94,1.21-2.15c15.77-5.71,31.24-12.12,48.37-13.42
	c9.86-0.75,19.64-2.98,29.72-2.5c0.04-0.56,0.09-1.11,0.13-1.67c-9.1-4.12-18.32-8.01-27.27-12.43c-9.98-4.93-20.05-9.77-28.9-16.7
	c4.55-0.9,7.93,2.06,11.3,4.04c13.52,7.96,28.18,13.41,42.37,19.87c2.48,1.13,5.21,2.2,7.13,4.03c8.01,7.62,17.95,8.04,28.05,8.18
	c2.19,0.03,4.42-0.49,5.56-2.26c5.94-9.19,15.21-10.49,24.81-10.4c12.91,0.12,25.82,0.8,38.73,1.32
	C353.88,132.52,354.24,133.48,354.61,134z"/>
<path class="st249" d="M85.55,145.53c-0.1,8.53-0.19,17.05-0.29,25.58C84.32,162.57,83.77,154.04,85.55,145.53z"/>
<path class="st4" d="M356.91,290.97c-0.26-0.92-0.34-1.68-0.01-2.23c0.91-1.52,4.21-0.89,4.82-2.76c7.93-1.22,10.25-1.71,10.23-1.88
	c-0.05-0.43-15.75,3.01-18.92-2.52c-0.73-1.28-0.63-2.74-0.39-3.88c0-1.18,0.19-3.06,1.1-5.08c2.57-5.73,8.78-7.45,15.3-10.33
	c12.18-5.4,9-7.6,18.87-11.42c8.43-3.26,16.2-6.02,25.16-6.32c2.98-0.1,6.33-1.01,8.94-3.11c3.28-0.24,5.78-1.14,7.57-2.02
	c9.78-4.84,15.05-17.82,12.31-28.23c-0.75-2.84-1.97-5.04-2.97-6.54c-0.91-1.33-1.82-2.67-2.73-4c0.16-0.98,0.45-2.59,0.9-4.55
	c2.92-12.63,6.91-16.38,10.66-26.02c3.59-9.21,8.32-27.39,10.08-28.1c1.07-0.43,1.97-0.21,1.97-0.21c0.29,0.04,0.52,0.14,0.71,0.29
	c1.56,1.23-1.16,8.1-1.16,8.1c-2.45,6.08-11.49,28.54-4.96,44.15c0.86,2.04,0.65,0.79,3.47,5.98c5.01,9.22,8.52,19.3,13.7,22.14
	c1.13,0.62,1.97,1.95,3.45,1.76c7.43-0.96,6.55,4.53,6.15,8.63c-0.85,8.88-6.48,15.81-10.71,23.24c-3.78,6.64-6.3,9.58-8.45,12.18
	c-9.33,11.31-19.57,17.74-19.7,17.56c-0.09-0.11,3.69-3.34,20.49-16.85c2.85-2.41,4.98-1.76,4.63,1.96
	c-0.75,8.09,0.19,17.54-3.72,23.88c-6.32,10.25-14.81,22.2-27.77,22.43c-11.29,0.19-21.46,4.54-32.57,4.56
	c-11.4,0.01-22.8,1.97-34.21,2.96c-2.03,0.18-4.15-0.02-6.16-0.41c-1.26-0.25-4.04-0.63-5.67-1.41c-5.29-2.55-5.54-12.2-5.56-13.58
	c2.3-2.79,4.68-4.38,6.76-5.32c7.12-3.22,13.4,3.05,23.49-0.89c2.93-1.15,6.21-1.4,10.23-2.26c-2.67-2.05-4.39-2.33-6.55-0.63
	c-2.93,2.31-6.56,1.8-9.97,1.94c-0.66,0.03-1.38-0.24-3.32-0.93C367.17,299.39,358.45,296.3,356.91,290.97z M363.26,312.73
	c0,0.61,0,1.22,0,1.83C363.26,313.96,363.26,313.35,363.26,312.73z"/>
<path class="st2" d="M390.39,192.16c-0.26,1.42-0.52,2.85-0.78,4.27c-13.57,10.3-24.73,6.16-38.28-4.07
	c-3.39-2.56-4.61-3.12-6.84,1.03c-2.89,5.36-7.41,9.66-10.24,15.25c-1.3,2.56-5.35,3.84-8.31,5.4c-7.19,3.79-15.22,5.92-20.78,12.83
	c-1.26,1.56-5.4,2.79-8.46,3.52c-4.34-1.14-8.42,0.35-12.63,0.79c-4.99,0.53-10.55,2.01-15.83-0.33
	c16.5-0.89,30.99-7.93,45.71-13.97c5.73-2.35,11.51-4.9,16.42-9.03c2.13-1.78,3.15-2.78,0.18-4.28c-0.92-0.47-2.6-0.07-2.33-1.72
	c0.23-1.39,1.35-2.45,2.89-2.44c1.87,0.01,3.7,0.01,5.28-1.14c2.1-1.54,5.93-1.99,5.4-5.39c-0.59-3.79-4.11-1.3-6.26-1.83
	c-4.73-1.17-7.76-5.17-12.05-7.06c-0.49-0.21-0.85-1.78-0.58-2.44c0.62-1.55,1.91-0.22,2.87-0.22c2.79,0,4.24,2.51,6.38,3.75
	c2.57,1.5,4.84,4.31,9.6,1.94c-12.36-8.46-21.27-17.86-11.38-33.03c1.06,5.23-0.31,10.56,1.46,15.97
	c3.31,10.11,11.89,13.91,19.78,18.77c0.97,0.6,2.17,0.94,2.97,1.71c6.3,6.12,12.68,6.5,20.29,1.84
	C379.48,189.45,385.17,192.54,390.39,192.16z"/>
<path class="st2" d="M240.69,197.17c8.2-12.38,18.12-22.37,31.23-29.69c-9.48,15.79-21.13,30.64-12.37,50.85
	c-7.17-8.04-6.78-7.99-5.51-18.94c0.79-6.84,4.38-12.55,6.04-19.13c-5.67,4.76-10.76,9.8-14.31,16.28c-1.39,2.52-3.1,6.5-5.94,5.87
	c-3.56-0.79-2.14-5.34-1.98-7.9c0.86-13.96,3.95-27.12,16.63-35.91c-13.39,4.67-23.52,13.24-30.94,25.7
	c-2.79-6.68-1.04-12.64,6.33-15.85c5.5-2.39,9.94-6.07,14.78-9.13c5.25-3.32,11.42-3.99,16.51-7.4c1.97-1.32,5.4-2.49,6.64,0.14
	c1.08,2.31-2.25,3.53-4.11,4.7c-8,5.02-15.97,9.99-19.95,19.22C240.78,182.78,240.68,189.91,240.69,197.17z"/>
<path class="st4" d="M522.07,172.34c-0.61-3.18-3.38-15.51-14.59-22.87c-3.98-2.61-7.9-3.86-10.91-4.49
	c-0.56,0.25-1.49,0.7-2.58,1.35c-5.03,3.04-9.46,8.17-16.8,32.18c-4.32,14.12-4.91,19.3-4.01,25.17c0.53,3.45,1.45,6.24,2.18,8.15
	c1.25,1.34,9.44,9.83,20.35,8.53c6.98-0.83,11.47-5.25,14.31-8.12C523.53,198.57,522.54,178.08,522.07,172.34z M483.29,206.35
	c-1.02,0.09-2.04,0.19-3.06,0.28 M521.07,180.97c0.06,1.38,0.18,2.76,0.31,4.15C521.25,183.73,521.13,182.35,521.07,180.97z"/>
<path class="st250" d="M374.09,285.51c-0.06-0.19-0.13-0.38-0.18-0.57c-0.01-0.03,0.1-0.08,0.15-0.12
	c-0.02,0.19-0.05,0.38-0.06,0.58C374.01,285.41,374.09,285.51,374.09,285.51z"/>
</svg>
