<svg version="1.1" id="Слой_1" xmlns="http://www.w3.org/2000/svg" x="0" y="0" viewBox="0 0 585 650" xml:space="preserve"><style>.st2{fill:#58d196}.st4{fill:#00b45a}</style><path d="M332.23 185.09c-34.11 50.78-64.79 89.28-85.64 114.19-57.64 68.84-98.99 103.4-130.43 176.21-23.62 54.7-19.09 76.96-16.24 86.63 17.04 57.86 94.98 76.1 106.31 78.75 18.5 4.33 60.55 14.17 94.5-8.37 23.29-15.46 32.35-39.24 38.88-57.09 40.66-111.11 72.64-226.79 88.1-278.58 5.61-18.79 14.6-47.78 27.07-83.18-9.74-6-21.55-12.13-35.44-17.23-35.07-12.89-66.74-13.08-87.11-11.33z" fill="#a6e5c3"/><path d="M431.61 255.63c-1.59.09-2.42-.96-3.18-2.12 1.39.22 2.15 1.37 3.18 2.12z" fill="#f2bc3a"/><path d="M115.17 66.9c5.36 1.36 8.2 7.12 13.87 7.94.35 1.7.42 3.34-1.75 3.79-8.04 1.66-14.07 7.07-19.66 12.2-11.03 10.12-20.44 21.83-23.51 37.08-4.31 21.41-6.71 42.92.04 65.08-10.98-3.59-21.26-6.66-31.33-10.3-17.34-6.26-34.99-11.5-52.68-16.6V.01c3.93.83 6.78 4.43 11.07 4.3l-.15-.12c2.82 4.86 7.79 7.26 12.22 10.01 19.4 12.01 38.91 23.9 58.63 35.39 10.79 6.28 21.06 13.67 33.25 17.31z" fill="#7fdaaa"/><path class="st2" d="M.14 166.08c17.7 5.1 35.34 10.34 52.68 16.6 10.08 3.64 20.35 6.71 31.33 10.3-6.74-22.16-4.35-43.67-.04-65.08 3.07-15.25 12.48-26.96 23.51-37.08 5.59-5.13 11.62-10.54 19.66-12.2 2.17-.45 2.1-2.09 1.75-3.79 17.4 3.1 31.81 12.96 46.98 21.03 5.87 3.13 11.43 6.85 17.13 10.29-2.87-.54-6.41-.2-8.5-1.77-12.06-9.06-26.23-14.05-39.25-21.2-8.54-4.69-16.19-3.84-23.72 1.6-20.8 15.02-34.52 34.27-36.13 60.73-1.78 8.5-1.23 17.04-.29 25.57.83 4.26 1.81 8.49 2.48 12.78 2.34 15.13 8.11 29.75 6.47 45.5-.43 4.15-1.57 8.59.77 12.67-4.98-2.42-4.69-7.47-4.17-11.32 1.36-10.06-1.33-19.55-2.57-29.27-.64-5.06-4.86-5.98-8.25-6.78-26.38-6.21-51.04-17.75-77.21-24.54-.82-.21-1.75.04-2.63.08v-4.12z"/><path class="st4" d="M296.7 230.38c.07 2.09 1.4 1.92 2.81 1.59-6.05 9.79-11.75 19.8-19.43 28.46-1.04 1.17-1.52 3.69-4.1 1.62-8.69-6.97-15.39-15.72-22.4-24.16 2.08 1.59.43 4.05 2.25 6.64 4.8 6.84 10.41 12.74 16.55 18.16 2.95 2.6 3.06 4.39.95 7.38-4.47 6.32-6.51 7.1-11.4.93-14.09-17.78-27.95-35.82-33.45-58.58-.43-1.79-.2-4.78-2.98-4.55-2.17.18-1.57 2.83-1.08 4 4.39 10.34 5.91 21.83 13.59 30.89 3.76 4.43 5.8 10.3 8.82 15.41 1.28 2.17-.14 3.53-1.1 4.85-.97 1.33-1.86.17-2.57-.78-5.23-7.08-13.56-10.67-19.32-17.29-2.31-2.65-5.23-6.61-11.11-4.87 10.5 8.29 18.67 18.09 30.08 24.51 6.79 3.82 14.22 8.06 17.43 16.24-4.12 1.33-7.36-1.61-11.07-2.28-3.76-.67-6.66-2.71-8.92-5.72-1.93-2.57-4.62-4.08-7.67-3.73-14.43 1.68-28.64-.82-42.93-1.82-4.73-.33-8.87-1.72-12.91-3.88-3.84-2.06-7.84-3.67-12.22-4.14-2.12-.18-4.24-.37-6.34-.55-.85-1.84-2.26-2.39-4.32-2.72-19.42-3.08-38.47-8.43-58.22-9.5-.2-1.46-.41-2.92-.65-4.39-2.37-4.11-1.24-8.54-.81-12.69 1.63-15.75-4.13-30.37-6.47-45.5-.66-4.29-1.64-8.52-2.47-12.78.1-8.52.19-17.05.29-25.58 1.61-26.46 15.33-45.72 36.13-60.73 7.53-5.44 15.18-6.29 23.72-1.6 13.02 7.16 27.19 12.15 39.25 21.2 2.1 1.57 5.63 1.23 8.5 1.77.8.51 1.59 1.03 2.39 1.54 8.84 6.93 18.92 11.77 28.9 16.7 8.95 4.42 18.17 8.31 27.27 12.43-.04.56-.09 1.11-.13 1.67-10.08-.48-19.86 1.75-29.72 2.5-17.13 1.3-32.6 7.71-48.37 13.42-.57.21-1.8.39-1.21 2.15 8.01-2.14 15.82-5.46 24.43-4.63 1.78.17 4.38-.71 5.42-2.04 2.24-2.84 1.95-2.95 4.55-3.29 4.55-.59 9.07-1.94 13.61-1.95 9.42-.02 18.87-3.77 29.59-.16-4.17 2.21-7.26 3.85-10.35 5.49 7.91-.37 14.48-5.48 22.2-5.51 7.54-.03 15.25-.14 23.07 3.38-6.1 5.17-13.04 8.55-16.97 15.16 8.62-5.17 17.24-10.36 22.94-18.96 4.19-6.32 10.26-9.08 17.47-9.54 6.19-.4 12.39-.02 18.61.45 9.25.7 18.59 1.62 27.76-.97 2.36 1.09 4.72 2.17 7.05 3.22 2.74 3.7-1.65 3.71-3.77 5.57 6.53 2.07 10.85 5.43 13.47 11.29.83 1.85 2.61 4.85 5.78 5.11 4 1.67 4.36 6.5 7.61 8.81-.01 2.49 2.05 3.45 3.56 4.81.96 2.75 2.75 4.7 5.53 5.67.59.65 1.19 1.3 1.78 1.95-1.45 4.04-1.79 8.58-5.23 11.72-5.22.38-10.91-2.71-15.55.13-7.61 4.66-13.99 4.28-20.29-1.84-.79-.77-1.99-1.11-2.97-1.72-7.89-4.86-16.47-8.66-19.78-18.77-1.77-5.41-.4-10.74-1.46-15.97-9.9 15.17-.98 24.57 11.38 33.03-4.76 2.37-7.03-.44-9.6-1.94-2.14-1.24-3.59-3.75-6.38-3.75-.96 0-2.25-1.33-2.87.22-.27.66.1 2.23.58 2.44 4.3 1.89 7.32 5.89 12.05 7.06 2.15.53 5.67-1.96 6.26 1.83.53 3.4-3.29 3.85-5.4 5.39-1.58 1.15-3.41 1.15-5.28 1.14-1.54-.01-2.66 1.05-2.89 2.44-.27 1.65 1.41 1.25 2.33 1.72 2.97 1.5 1.95 2.5-.18 4.28-4.92 4.12-10.7 6.68-16.42 9.03-14.72 6.05-29.21 13.08-45.71 13.97 5.28 2.34 10.83.85 15.83.33 4.26-.48 8.33-1.96 12.68-.82zm-56.01-33.21c0-7.27.09-14.39 3.03-21.19 3.98-9.23 11.95-14.2 19.95-19.22 1.87-1.17 5.2-2.4 4.11-4.7-1.24-2.63-4.66-1.46-6.64-.14-5.09 3.4-11.26 4.07-16.51 7.4-4.84 3.06-9.28 6.74-14.78 9.13-7.37 3.21-9.12 9.17-6.33 15.85 7.42-12.46 17.55-21.03 30.94-25.7-12.69 8.79-15.77 21.95-16.63 35.91-.16 2.56-1.58 7.1 1.98 7.9 2.84.63 4.56-3.35 5.94-5.87 3.56-6.48 8.65-11.51 14.31-16.28-1.65 6.58-5.25 12.29-6.04 19.13-1.26 10.95-1.66 10.91 5.51 18.94-8.76-20.21 2.89-35.06 12.37-50.85-13.1 7.32-23.01 17.32-31.21 29.69zm51.71 36.4c-9.19 3.34-15.93 12.03-26.31 7.56 8.56 6.68 16.21 4.56 26.31-7.56zm-62.51-43.76c-1.63 2.35-3.25 4.7-4.88 7.06m95.68-17.01c.16.08-.66-.32-1.47-.72-.16.52-.52 1.08-.42 1.55.11.56.5 1.3.97 1.51.76.33 1.16-.23.92-2.34z"/><path d="M390.39 192.16c3.44-3.15 3.78-7.68 5.23-11.73-2.44-2.54-4.87-5.08-7.31-7.62-1.19-1.6-2.37-3.21-3.56-4.81-3.26-2.32-3.61-7.14-7.61-8.81-1.22-4-2.75-6.64-3.95-8.34-1.18-1.68-2.18-2.63-3.34-4.94-.43-.85-1.28-1.61-1.76-3.08-.3-.92-1.41-1.58-2.15-2.37 16.2-22.42 26.27-40.12 24.57-43.1-.76-1.33-1.65-2.35-1.65-2.35-1.02-1.19-2.48-2.47-4.88-3.81-6.28-3.51-3.36-3.37-19.53-11.37-5.76-2.85-13.15-6.32-21.97-9.98-1.58-1.1-3.15-2.2-4.73-3.29 0-1 .06-2.73.52-4.79 3.91-17.35 29.1-25.25 38.75-28.27 29.04-9.11 108.23 23.47 202.64 83.9a.61.61 0 00-.12.28c-.11.95 1.13 1.93 1.64 2.43 1.16 1.14 1.15 2.84 1.13 5.77-.03 4.9-2.19 9.2-3.14 10.91-.93 2.1-4.64 10.19-10.24 14.84-2.79 2.32-5.02 2.83-6.35 3.12-6.09 1.35-6.99-3.61-7.63-8.11-.49-3.5.21-6.84 1.47-10.12 1.52-3.94 2.91-7.93 4.36-11.9-4.43 8.72-8.87 17.43-13.3 26.15-.81.32-2.2.8-3.96 1.12-13.59 2.46-23.36-9.71-45.22-22.78-12.42-7.42-18.92-10.64-24.97-9.95-22.71 2.6-33.95 60.91-38.31 89.24-10.54-.8-24.4-3.56-38.09-11.84a75.945 75.945 0 01-6.54-4.4z" fill="#fff"/><path class="st2" d="M468.39 122.56c.75-1.02 2.57-3.34 4.95-3.39.95-.02 1.96.82 4.1 2.74-3.89-3.89-5.49-.61-6.79 2.37-8.15 18.7-13.01 38.35-12.03 58.66.54 11.13 1.84 22.96 9.76 32.36 2.64 3.13 5.38 5.39 9.76 4.54-.39-2.96-4.53-4.45-2.76-8 .87 1.72 3.21-.31 4.32 2.17 2.54 5.65 9.75 8.2 16.03 6.36 6.75-1.98 6.88-2.88 3.26-8.69-1.29-2.07-5.68-2.72-4.12-5.45 1.76-3.07 5.58-.56 8.29-.39 3.95.24 3.74 4.25 3.95 7.35l.1-.06c-.6 1.7-1.2 3.39-1.8 5.09-5.18 6.63-11.7 9.28-19.91 6.48-3.62-1.23-4.76.16-4.08 3.55 1.98 9.88-1.63 17.64-8.02 25.1-5.58 6.52-6 14.58-2.64 22.57 1.19 2.82 2.32 5.49-.16 8.16-2.97.85-2.2 3.55-2.83 5.6-1.45 4.7-1.66 9.69-5.04 13.88-9.32 11.54-20.97 17.55-35.96 18.02-9.75.31-19.36 2.98-29.24 2.69-1.83-.05-4.53-.09-5.19 2.27-.77 2.77-2.67 1.32-3.87 1.27-1.77-.08-4.06-2.63-4.7 1.01-.32 1.84-1.27 5.46.46 5.53 2.41.1 6.34 2.44 7.35-.28 1.78-4.78 4.93-2.44 7.67-2.62-4.03-.21-1.19 4.67-4.77 6.01-1.33.5-2.06 1.41-2.12 2.37-.11 1.85 3.95 3.08 3.85 3.35-.19.49-14.05-2.98-14.38-7.98-.05-.84.22-2.5-.09-5.49 0 0-.11-1.06-.3-2.12-1.05-5.94-24.75-38.49-22.04-41.58.23-.27.79-.46 2.3.02-.8 2.46-6.26.59-4.81 4.99 1.05 3.17 4.18 4.23 6.92 4.96 5.35 1.42 6.4-.44 5.35-8.72.17-1.33.33-2.67.5-4 .09-.2.13-.45.28-.58.13-.11.38-.08.58-.11.31.45.78 1.17 1.3 2.09 1.25 2.25 3.05 5.48 2.82 9.45-.06.95-.26 2.46-1.03 4.25-2.7 3.14-.87 3.98 2.1 3.86 3.4-.14 7.04.37 9.97-1.94 2.16-1.7 3.88-1.42 6.55.63-4.02.85-7.3 1.11-10.23 2.26-7.74 3.03-15.62-.3-23.49.89-5.39.82-1.83 3.66-2.56 5.46 1.9.28 3.04 1 3.67 1.92 1.35 1.96-1.11 4.37-.71 6.82.65 4.05 8.2 6.03 10.23 6.52 11.72 2.81 21.19-2.95 34.21-2.96 11.11-.01 21.28-4.36 32.57-4.56 12.96-.22 21.44-12.18 27.77-22.43 3.91-6.33 2.96-15.78 3.72-23.88.35-3.71-1.78-4.37-4.63-1.96-.27-.23-.53-.47-.78-.71 2.84-4.05 6.01-7.9 8.45-12.18 4.23-7.43 9.86-14.36 10.71-23.24.39-4.11 1.28-9.59-6.15-8.63-1.48.19-2.32-1.14-3.45-1.76-8.78-4.81-10.63-13.98-13.7-22.14-1.19-3.16-2.64-3.33-3.92-5.08-16.46-22.7 10.37-67.19 14.45-72.69z"/><path class="st2" d="M489.84 156.24c-.76 1.88-1.32 3.43-1.65 4.35-1.5 1.11-1.55 2.58-1.05 4.19l.06-.11c-9.65 8.04-12.96 18.59-12.18 30.76-1.85 5.5-3.14 11 .36 16.38-1.77 3.56 2.37 5.05 2.76 8-4.38.86-7.12-1.41-9.76-4.54-7.92-9.4-9.22-21.23-9.76-32.36-.98-20.31 3.88-39.96 12.03-58.66 1.3-2.98 2.91-6.26 6.79-2.37 0 0-.08-.15-.07-.16.04-.08 11.21 6.05 23.79 12.98-1.31 2.01-2.32 3.69-2.99 4.81-4.77 8.09-7.43 14.51-8.33 16.73z"/><path class="st4" d="M415.42 343.54c-7.95.33-14.46 0-19.19-.41-3.41-.3-5.68-.63-7.88-2.25-3.47-2.56-6.09-7.8-4.56-12.1.14-.38.4-1.1.97-1.84 3.08-3.98 10.67-2.95 12.79-2.7 6.62.77 14.16-.38 29.24-2.69 12.54-1.92 31.27-7.99 35.96-18.02 3.47-7.42 4.22-11.25 5.04-13.88.63-2.05-.14-4.75 2.83-5.6 6.03 7.05 2.92 14.51.98 21.92-2.25 5.47-6.64 13.95-15.01 21.61-16.12 14.73-35.41 15.85-41.17 15.96z"/><path class="st2" d="M354.61 134c-9.17 2.59-18.51 1.67-27.76.97-6.22-.47-12.41-.85-18.61-.45-7.21.46-13.28 3.22-17.47 9.54-5.7 8.6-14.32 13.78-22.94 18.96 3.93-6.61 10.87-9.99 16.97-15.16-7.82-3.53-15.53-3.42-23.07-3.38-7.72.03-14.3 5.14-22.2 5.51 3.09-1.64 6.18-3.28 10.35-5.49-10.71-3.61-20.16.14-29.59.16-4.54.01-9.06 1.36-13.61 1.95-2.6.34-2.3.45-4.55 3.29-1.05 1.33-3.65 2.21-5.42 2.04-8.61-.83-16.43 2.49-24.43 4.63-.59-1.76.63-1.94 1.21-2.15 15.77-5.71 31.24-12.12 48.37-13.42 9.86-.75 19.64-2.98 29.72-2.5.04-.56.09-1.11.13-1.67-9.1-4.12-18.32-8.01-27.27-12.43-9.98-4.93-20.05-9.77-28.9-16.7 4.55-.9 7.93 2.06 11.3 4.04 13.52 7.96 28.18 13.41 42.37 19.87 2.48 1.13 5.21 2.2 7.13 4.03 8.01 7.62 17.95 8.04 28.05 8.18 2.19.03 4.42-.49 5.56-2.26 5.94-9.19 15.21-10.49 24.81-10.4 12.91.12 25.82.8 38.73 1.32.39.04.75 1 1.12 1.52z"/><path d="M85.55 145.53c-.1 8.53-.19 17.05-.29 25.58-.94-8.54-1.49-17.07.29-25.58z" fill="#98d284"/><path class="st4" d="M356.91 290.97c-.26-.92-.34-1.68-.01-2.23.91-1.52 4.21-.89 4.82-2.76 7.93-1.22 10.25-1.71 10.23-1.88-.05-.43-15.75 3.01-18.92-2.52-.73-1.28-.63-2.74-.39-3.88 0-1.18.19-3.06 1.1-5.08 2.57-5.73 8.78-7.45 15.3-10.33 12.18-5.4 9-7.6 18.87-11.42 8.43-3.26 16.2-6.02 25.16-6.32 2.98-.1 6.33-1.01 8.94-3.11 3.28-.24 5.78-1.14 7.57-2.02 9.78-4.84 15.05-17.82 12.31-28.23-.75-2.84-1.97-5.04-2.97-6.54-.91-1.33-1.82-2.67-2.73-4 .16-.98.45-2.59.9-4.55 2.92-12.63 6.91-16.38 10.66-26.02 3.59-9.21 8.32-27.39 10.08-28.1 1.07-.43 1.97-.21 1.97-.21.29.04.52.14.71.29 1.56 1.23-1.16 8.1-1.16 8.1-2.45 6.08-11.49 28.54-4.96 44.15.86 2.04.65.79 3.47 5.98 5.01 9.22 8.52 19.3 13.7 22.14 1.13.62 1.97 1.95 3.45 1.76 7.43-.96 6.55 4.53 6.15 8.63-.85 8.88-6.48 15.81-10.71 23.24-3.78 6.64-6.3 9.58-8.45 12.18-9.33 11.31-19.57 17.74-19.7 17.56-.09-.11 3.69-3.34 20.49-16.85 2.85-2.41 4.98-1.76 4.63 1.96-.75 8.09.19 17.54-3.72 23.88-6.32 10.25-14.81 22.2-27.77 22.43-11.29.19-21.46 4.54-32.57 4.56-11.4.01-22.8 1.97-34.21 2.96-2.03.18-4.15-.02-6.16-.41-1.26-.25-4.04-.63-5.67-1.41-5.29-2.55-5.54-12.2-5.56-13.58 2.3-2.79 4.68-4.38 6.76-5.32 7.12-3.22 13.4 3.05 23.49-.89 2.93-1.15 6.21-1.4 10.23-2.26-2.67-2.05-4.39-2.33-6.55-.63-2.93 2.31-6.56 1.8-9.97 1.94-.66.03-1.38-.24-3.32-.93-5.23-1.86-13.95-4.95-15.49-10.28zm6.35 21.76z"/><path class="st2" d="M390.39 192.16l-.78 4.27c-13.57 10.3-24.73 6.16-38.28-4.07-3.39-2.56-4.61-3.12-6.84 1.03-2.89 5.36-7.41 9.66-10.24 15.25-1.3 2.56-5.35 3.84-8.31 5.4-7.19 3.79-15.22 5.92-20.78 12.83-1.26 1.56-5.4 2.79-8.46 3.52-4.34-1.14-8.42.35-12.63.79-4.99.53-10.55 2.01-15.83-.33 16.5-.89 30.99-7.93 45.71-13.97 5.73-2.35 11.51-4.9 16.42-9.03 2.13-1.78 3.15-2.78.18-4.28-.92-.47-2.6-.07-2.33-1.72.23-1.39 1.35-2.45 2.89-2.44 1.87.01 3.7.01 5.28-1.14 2.1-1.54 5.93-1.99 5.4-5.39-.59-3.79-4.11-1.3-6.26-1.83-4.73-1.17-7.76-5.17-12.05-7.06-.49-.21-.85-1.78-.58-2.44.62-1.55 1.91-.22 2.87-.22 2.79 0 4.24 2.51 6.38 3.75 2.57 1.5 4.84 4.31 9.6 1.94-12.36-8.46-21.27-17.86-11.38-33.03 1.06 5.23-.31 10.56 1.46 15.97 3.31 10.11 11.89 13.91 19.78 18.77.97.6 2.17.94 2.97 1.71 6.3 6.12 12.68 6.5 20.29 1.84 4.61-2.83 10.3.26 15.52-.12zm-149.7 5.01c8.2-12.38 18.12-22.37 31.23-29.69-9.48 15.79-21.13 30.64-12.37 50.85-7.17-8.04-6.78-7.99-5.51-18.94.79-6.84 4.38-12.55 6.04-19.13-5.67 4.76-10.76 9.8-14.31 16.28-1.39 2.52-3.1 6.5-5.94 5.87-3.56-.79-2.14-5.34-1.98-7.9.86-13.96 3.95-27.12 16.63-35.91-13.39 4.67-23.52 13.24-30.94 25.7-2.79-6.68-1.04-12.64 6.33-15.85 5.5-2.39 9.94-6.07 14.78-9.13 5.25-3.32 11.42-3.99 16.51-7.4 1.97-1.32 5.4-2.49 6.64.14 1.08 2.31-2.25 3.53-4.11 4.7-8 5.02-15.97 9.99-19.95 19.22-2.96 6.8-3.06 13.93-3.05 21.19z"/><path class="st4" d="M522.07 172.34c-.61-3.18-3.38-15.51-14.59-22.87-3.98-2.61-7.9-3.86-10.91-4.49-.56.25-1.49.7-2.58 1.35-5.03 3.04-9.46 8.17-16.8 32.18-4.32 14.12-4.91 19.3-4.01 25.17.53 3.45 1.45 6.24 2.18 8.15 1.25 1.34 9.44 9.83 20.35 8.53 6.98-.83 11.47-5.25 14.31-8.12 13.51-13.67 12.52-34.16 12.05-39.9zm-38.78 34.01c-1.02.09-2.04.19-3.06.28m40.84-25.66z"/><path d="M374.09 285.51c-.06-.19-.13-.38-.18-.57-.01-.03.1-.08.15-.12-.02.19-.05.38-.06.58.01.01.09.11.09.11z" fill="#3c3724"/></svg>