<svg version="1.1" id="Слой_1" xmlns="http://www.w3.org/2000/svg" x="0" y="0" viewBox="0 0 585 577" xml:space="preserve"><style>.st0{fill:#00c377}.st1{fill:#a6e5c3}.st4{fill:#00b45a}.st5{fill:#fff}</style><path class="st4" d="M286.8 364.82h-47.3c-23.92 0-40.44-16.4-40.45-40.27-.02-31.2-.03-62.39.05-93.59.06-22.12 16.54-38.84 38.59-38.94 32.55-.15 65.09-.17 97.64-.04 22.54.09 39.2 16.72 39.25 39.04.08 31.76.05 63.52-.04 95.28-.05 18.9-13.29 34.99-31.71 37.81-7.28 1.11-14.82.63-22.25.69-11.25.08-22.52.02-33.78.02z"/><path class="st0" d="M46.31 426.37c0 25.12.05 50.23-.07 75.35-.01 2.69.74 3.84 3.29 4.84 15.27 6.03 23.9 20.64 22.41 37.45-1.31 14.85-13.22 28.01-28.24 31.21-15.43 3.29-31.61-4.06-39.07-17.76-7.76-14.23-5.7-31.53 5.87-42.66 3.94-3.79 9.15-6.43 14.14-8.86 2.56-1.24 3.43-2.33 3.43-5.08-.07-48.66-.09-97.31.01-145.97.01-5.16.46-10.37 1.28-15.46 3.74-23.18 18.3-35.6 41.88-35.7 16.44-.07 32.89.08 49.33.36 3.24.06 4.9-.86 6.47-3.79 6.04-11.26 18.8-16.48 30.78-12.99 12.1 3.52 20.26 14.91 19.51 27.22-.78 12.76-9.95 23.11-22.41 25.28-11.58 2.02-23.22-3.93-28.49-14.78-.98-2.01-2.03-2.79-4.29-2.79-16.11-.01-32.21-.23-48.32-.26-18.14-.04-25.29 6.23-26.91 24.31-.75 8.28-.56 16.65-.59 24.97-.08 18.36-.02 36.72-.02 55.08-.02.03-.01.03.01.03zm7.51 113.31c-.07-9.68-8.1-17.62-17.76-17.57-9.8.05-17.78 8.17-17.68 18 .1 9.66 8.11 17.59 17.77 17.57 9.81-.01 17.74-8.1 17.67-18z"/><path class="st4" d="M180.46 398.94c13.52 0 27.04-.12 40.55.08 3.41.05 5.34-.84 7.23-3.86 6.57-10.48 19.48-14.76 31.06-10.77 11.74 4.05 19.12 15.42 18.08 27.88-1 12.02-10.1 21.97-22.06 24.13-12.3 2.23-24.43-4.28-29.31-16.03-1.06-2.55-2.35-3.22-4.95-3.21-26.24.1-52.49.05-78.74.06-16.61.01-23.11 6.48-23.26 23.13-.03 3.15.24 6.31.12 9.46-.09 2.42.89 3.47 3.15 4.34 19.01 7.26 28.23 28.09 20.86 46.8-6.01 15.25-21.84 24.77-37.68 22.66-16.85-2.24-29.83-15.08-31.65-31.3-1.92-17.14 7.46-32.61 23.55-38.32 2.85-1.01 3.72-2.15 3.58-5.18-.25-5.49-.38-11.09.36-16.52 2.9-21.1 16.47-32.98 37.87-33.31 13.74-.21 27.48-.04 41.23-.04.01.01.01.01.01 0zM109.74 470c-9.79-.03-17.77 7.94-17.82 17.8-.05 9.74 8.08 17.83 17.84 17.77 9.63-.07 17.58-8.01 17.66-17.64.08-9.81-7.9-17.9-17.68-17.93z"/><path class="st5" d="M180.43 45.44c-3.6 0-7.22.16-10.81-.06-2.49-.15-3.44.82-4.25 3.11-5.91 16.7-22.68 26.57-39.82 23.62-17.42-3-30-17.67-30.16-35.17-.17-17.71 12.18-32.63 29.71-35.88 17.12-3.18 33.99 6.44 40.12 23.09.86 2.35 1.95 3.01 4.33 3.01 9.23.01 18.54-.49 27.67.54 20.6 2.33 35.06 13.66 41.61 33.22 5.92 17.69 10.19 35.93 15.03 53.97.73 2.71 1.54 4.28 4.63 5.15 12.11 3.39 19.76 14.76 18.99 27.46-.73 12.01-9.8 22.31-21.6 24.5-12.42 2.31-24.45-3.76-29.68-14.98-5.28-11.32-2.13-24.73 7.93-32.49 2.11-1.63 2.76-2.97 2.05-5.55-4.41-15.95-8.55-31.97-13.06-47.88-1.09-3.85-2.93-7.57-4.9-11.08-5.73-10.18-15.25-13.82-26.29-14.43-3.82-.21-7.65-.03-11.48-.03-.02-.04-.02-.08-.02-.12zm-31.31-8.87c.02-9.91-7.91-17.79-17.85-17.74-9.7.04-17.56 7.95-17.58 17.69-.02 9.74 7.8 17.67 17.52 17.76 9.91.08 17.9-7.81 17.91-17.71z"/><path class="st1" d="M346.97 399.81c1.53-.36 2.62-.83 3.72-.83 11.49-.05 22.98-.25 34.46.03 23.58.58 37.6 15.51 37.97 40.5.17 11.37-.14 22.75-.42 34.11-.06 2.55.61 3.65 3.13 4.5 17.74 6.03 27.77 24.15 23.55 42.17-4.22 17.98-21.34 30.01-39.36 27.65-18.92-2.48-32.66-18.16-31.75-37.08.75-15.52 8.76-26.4 23.18-32.3 2.28-.93 3.02-2.01 3.01-4.37-.02-12.38.55-24.78.09-37.14-.5-13.62-7.18-19.61-20.9-19.77-10.7-.12-21.39.04-32.09-.1-2.59-.03-3.88.69-4.95 3.24-4.95 11.76-17.31 18.37-29.34 16.02-12.73-2.48-21.97-13.23-22.2-25.81-.24-12.67 8.27-23.85 20.46-26.89 11.61-2.9 23.88 2.38 29.75 12.82.65 1.17 1.24 2.38 1.69 3.25zm67.16 94.54c-9.78.08-17.78 8.21-17.68 17.96.1 9.75 8.28 17.75 18.02 17.62 9.6-.13 17.52-8.17 17.53-17.8.01-9.73-8.15-17.86-17.87-17.78z"/><path class="st0" d="M465.76 323.36c-4.96 0-9.92.13-14.86-.05-2.66-.1-4.11.59-5.41 3.19-6.46 12.94-21.72 18.21-34.83 12.3-12.91-5.81-19.3-20.77-14.11-33.97 4.16-10.59 12.18-16.75 23.61-17.38 11.4-.63 20.04 4.49 25.39 14.59 1.27 2.4 2.59 3.12 5.14 3.07 7.77-.15 15.55.24 23.31-.12 13.43-.63 25.91 2.77 37.88 8.34 4.7 2.19 7.85 2.26 12.18-1.8 12.6-11.82 31.95-11.95 45.6-1.27 13.41 10.49 17.68 28.94 10.2 44.12-7.66 15.54-25.19 23.57-41.66 19.09-16.78-4.57-28.02-20.04-26.69-37.19.23-2.91-.6-4.17-3.18-4.75-.33-.07-.65-.21-.95-.35-13.19-6.25-26.93-9.57-41.62-7.82zm81.74 33c9.72-.04 17.56-7.86 17.65-17.57.09-9.89-7.78-17.85-17.68-17.89-9.92-.03-17.8 7.82-17.81 17.74.01 9.86 7.97 17.77 17.84 17.72z"/><path class="st5" d="M549.11 278.72c-15.55.04-28.86-9.28-34.09-24.07-.79-2.22-1.76-2.86-4.06-2.85-19.71.1-39.42.09-59.13.01-2.33-.01-3.53.67-4.61 2.84-5.73 11.57-18.15 17.24-30.57 14.2-11.81-2.89-20.24-13.68-20.28-25.96-.05-12.5 8.32-23.39 20.25-26.34 12.33-3.05 24.88 2.66 30.6 14.19 1.09 2.2 2.35 2.81 4.64 2.8 19.37-.08 38.75-.12 58.12.04 3.14.03 4.38-.96 5.47-3.87 6.44-17.14 24.64-26.43 42.47-21.95 17.44 4.38 29.03 21.4 26.82 39.38-2.22 18.01-17.5 31.54-35.63 31.58zm-.3-18.29c9.8.06 17.88-7.94 17.9-17.71.02-9.62-7.91-17.65-17.51-17.77-9.8-.11-17.93 7.78-18.07 17.55-.15 9.74 7.88 17.87 17.68 17.93z"/><path class="st1" d="M38.57 206.95c15.48.43 28.59 9.7 33.78 24.34.81 2.27 1.86 2.83 4.09 2.82 15.54-.09 31.09-.11 46.63.03 2.67.02 3.86-.87 5.05-3.21 6.85-13.54 23.74-18.67 36.73-11.35 13.38 7.54 18.07 24.66 10.24 37.4-8.17 13.28-25.35 17.42-37.9 8.56-3.8-2.68-6.56-6.95-9.4-10.79-1.11-1.5-1.85-2.44-3.85-2.43-15.99.08-31.99.12-47.99-.02-2.67-.02-3.05 1.49-3.74 3.33-6.12 16.46-22.67 26.04-39.84 23.09-17.07-2.92-29.64-17.39-30.04-34.58-.4-17.35 11.63-32.65 28.56-36.2 2.52-.52 5.12-.67 7.68-.99zm-.1 54c9.58.05 17.55-7.86 17.69-17.55.14-9.73-7.84-17.84-17.68-17.96-9.71-.12-17.85 7.98-17.85 17.76-.01 9.83 7.9 17.7 17.84 17.75z"/><path class="st4" d="M358.29 38.1c-.22 15.38-9.39 28.55-24.11 33.95-2.29.84-3.09 1.87-3.07 4.3.1 13.4.1 26.8-.05 40.2-.03 2.74.85 4.07 3.32 5.34 14.31 7.35 18.87 24.97 10.15 38.44-8.55 13.19-26.58 16.16-39.11 6.44-12.35-9.58-13.97-27.81-3.25-39.18 2.34-2.49 5.42-4.36 8.36-6.18 1.49-.92 2.36-1.66 2.35-3.56-.06-14.08-.07-28.16.06-42.23.02-2.44-1.28-2.92-3.1-3.56-16.19-5.72-25.99-22.2-23.49-39.36 2.44-16.72 16.82-29.68 33.86-30.53 17.11-.85 32.59 10.44 36.71 26.94.71 2.93.92 5.99 1.37 8.99zm-18.57 0c-.03-9.81-8.05-17.75-17.9-17.71-9.58.03-17.51 8.04-17.55 17.71-.04 9.81 8.03 17.95 17.72 17.88 9.86-.06 17.76-8.04 17.73-17.88z"/><path d="M346.83 338.84H229.45a7.74 7.74 0 01-7.74-7.74V228.25a7.74 7.74 0 017.74-7.74h117.39a7.74 7.74 0 017.74 7.74v102.86a7.746 7.746 0 01-7.75 7.73z" fill="#58d196"/></svg>