<svg version="1.1" id="Слой_1" xmlns="http://www.w3.org/2000/svg" x="0" y="0" viewBox="0 0 585 646" xml:space="preserve"><style>.st2{fill:#58d196}.st4{fill:#00b45a}.st252{fill:#9c8274}</style><path class="st4" d="M412.45 520.54c.31-.1.69-.16 1.09-.08 0 0 .12.03.3.1 0 0 .34.14.64.38.43.36 13.35 89.89 17.77 120.54.78-.1 1.59-.18 2.44-.18.64 0 1.25.03 1.85.09a33390.525 33390.525 0 01-53.06-355.22c-20.74-.13-41.48-.27-62.22-.4-43.69.1-87.37.2-131.06.29-18.04 119.16-36.08 238.32-54.13 357.48.95.02 2.14.13 3.48.44 1.08.25 2.09.6 3.02 1.05 34.82-41.6 69.63-83.21 104.45-124.81-2.7 41.5-5.41 83-8.11 124.5 1.73-.53 3.46-1.07 5.19-1.6 1.04-29.12 2.54-58.84 4.55-89.14.85-12.85 1.79-25.58 2.79-38.19h66.31l6.63 128.2c2.71.01 5.42.03 8.13.04 17.41-26.36 34.82-53.05 52.21-80.1 9.34-14.48 18.58-28.95 27.73-43.39zM261.58 324.23c.81-10.09 1.35-20.21 1.7-30.33.13-3.67 1.18-5.13 5.11-5.04 10.93.24 21.87.2 32.8 0 3.67-.07 5.19.93 5.32 4.83.36 10.38.96 20.77 1.81 31.13.33 4.06-1.14 5.04-4.88 4.9-6.39-.23-12.8-.07-19.2-.07-5.87-.01-11.75-.28-17.6.08-4.41.26-5.39-1.38-5.06-5.5zm-73.58.04c1.79-10.26 3.27-20.59 4.66-30.91.44-3.26 1.68-4.52 5.09-4.49 19.26.14 38.52.14 57.77.01 3.49-.02 4.66.97 4.39 4.55-.78 10.39-1.45 20.8-1.75 31.22-.13 4.46-2.16 5.14-5.99 5.06-9.89-.22-19.79-.07-29.69-.07-9.9 0-19.8-.21-29.69.09-4.37.11-5.54-1.14-4.79-5.46zm59.51 185.18c-.12 2.12-.28 4-1.85 5.88-33.9 40.65-67.7 81.38-101.55 122.08-.27.32-.91.33-2.6.9 4.4-29.9 8.64-58.96 12.96-88.01 10.43-70.1 20.96-140.18 31.2-210.31.79-5.42 2.59-6.95 7.97-6.86 19 .32 38.01.25 57.01 0 4.97-.07 6.97.78 6.62 6.49-3.42 56.59-6.55 113.21-9.76 169.83zm64.26 3.08c-18.18-.35-36.38-.3-54.56-.02-4.92.07-6.3-1.09-5.99-6.23 3.31-55.23 6.44-110.47 9.34-165.72.31-5.86 1.93-7.76 7.93-7.48 11.21.52 22.47.45 33.69.01 5.33-.21 6.67 1.54 6.92 6.65 1.34 27.76 3.07 55.51 4.67 83.26 1.53 27.49 2.89 54.99 4.75 82.46.37 5.76-1.12 7.18-6.75 7.07zM316 399.7h.05c-1.96-34.43-3.79-68.87-6.02-103.28-.38-5.81.51-7.82 6.94-7.65 18.71.5 37.45.35 56.18.09 5.05-.07 7.35.8 8.18 6.54 10.21 70.09 20.68 140.15 31.3 210.18.9 5.93-.83 7.01-6.37 6.95-25.68-.28-51.37-.33-77.05.02-5.79.08-6.98-1.89-7.25-7.14-1.81-35.26-3.93-70.48-5.96-105.71zm13.88 242.04c-.7-11.09-1.29-19.7-1.79-28.31-1.06-18.43-1.09-36.98-3.45-55.24-1.58-12.22-1.14-24.31-1.83-36.45-.26-4.61.87-6.18 5.55-5.91 6.67.38 13.38.17 20.07.21h6.66l14.22-.01 1.85-.01 6.17.03 1.87-.01c10.46-.06 20.93-.13 31.39-.2-26.9 41.95-53.8 83.93-80.71 125.9z"/><path d="M119.88 155.46c-5.18 14.99-13.16 28.92-16.57 44.77 2.12 1.37 4.27-.6 6.28-1.15 13.82-3.84 21.71-1.22 27.36 11.85 11.17 25.8 8.99 50.84-7.27 74.08-2.97 4.24-5.61 9.1-10.6 11.95-2.42-4.13-2.57-8.8-4.02-13.05-1.12-3.27-2.36-6.59-4.16-9.51-1.54-2.49-3.17-7.01-6.68-5.28-3.17 1.56-.57 5.48.54 7.91 2.45 5.33 5.31 10.5 8.38 15.5 3.65 5.92 4.01 10.16-2.89 14.56-6.54 4.16-13.95 8.11-16.36 16.76-21.36-20.98-36.28-45.56-41.78-74.27-3.32-17.33-5.04-35.81 6.54-52.34 10.29-14.69 26.25-15.21 36.02-.3 1.11 1.7 1.24 4.19 4.09 5.2 6.19-15.76 9.76-32.61 19.38-46.9.59.08 1.17.15 1.74.22z" fill="#fff"/><path class="st2" d="M33.58 118.95c-.8.05-2.19.37-2.3.11-.82-1.83-2.88-2.48-3.7-4.22-.54-1.14-1.52-3.27-1.52-6.32 0-3.84 2.11-6.58 2.14-7.82.21-9.8 5.58-17.94 11.72-25.39 2.65-2.53 5.01-5.47 7.99-7.53 19.45-13.44 40.64-19.69 64.34-14.8 2.53 8.78 11 13.58 14.54 21.68.57 3.94-2.52 6.28-4.25 9.1-12.52 20.41-24.52 40.94-28.62 65.13-1.04 6.14-2.31 12.55-5.67 18.13-4.37-9.33-10.8-16-21.49-18.02-2.38-.45-1.26-3.22.15-4.55 2.73-2.57 3.73-6.47 7.08-8.59 1.47-.93 3.44-2.49 2.7-4.47-.94-2.52-3.81-1.5-5.63-1.51-8.02-.03-12.71 3.97-17.35 14.16-7.82-4.74-13.56-11.5-19.05-18.56-1.65-2.13-2.15-4.21-1.23-6.68 10.99-9.27 24.17-11.33 37.95-11.89 4.19-.17 8.61-.83 12.03-3.86 1.66-1.47 3.2-3.56 2.26-5.59-.98-2.14-3.36-.79-5.02-.33-13.13 3.68-26.24 7.44-39.34 11.21-5.28 1.54-8 5-7.73 10.61zm5.56-30.1c12.37-3.46 25.14-4.88 37.53-8 2.8-.71 6.69-1.31 6.22-4.92-.47-3.59-4.46-3.26-7.29-3.22-14.34.18-26 6.71-36.46 16.14zm43.52 4.42c-14.18-1.89-26.21 3.39-37.65 10.6 12.55-3.53 25.1-7.06 37.65-10.6zm64.99 411.97c-.81.32-1.62.36-2.43.02.11-.15.23-.3.34-.45 1.88-1.09.53-2.48.21-3.63-2.07-7.3-4.23-14.58-6.38-21.86-4.27-14.44-8.56-28.89-12.85-43.33 3.55-1.44 7.11-2.89 10.66-4.33 1.25-.21 2.23-.05 3.01.37 1.78.96 2.31 3.14 2.49 3.83.95 3.66 9.16 31.49 20.51 69.99-5.18-.19-10.37-.4-15.56-.61z"/><path class="st2" d="M88.25 167.02c3.36-5.58 4.63-12 5.67-18.13 4.1-24.19 16.1-44.72 28.62-65.13 1.73-2.82 4.82-5.15 4.25-9.1 9.17-4.37 17.02-10.81 24.77-17.11 2.7-2.19 5.27-3.36 7.81-3.76 4.99-.79 9.14 1.18 11.95 2.58 8.81 4.41 13.91 11.98 19.42 20.15 1.5 2.22 2.66 4.12 3.43 5.42-5.4 10.07-10.2 20.43-14.27 31.11-1.01 2.64-2.85 4.46-4.91 6.15-4 3.28-4.7 7.5-3.69 12.26-.93.62-1.86 1.25-2.79 1.87l-.16-.19c-1.25-10.27-4.16-16.87-6.6-21-1.01-1.7-1.72-2.62-4.78-7.63-3.59-5.87-4.64-7.4-6.76-10.52-3.04-4.46-6.94-7.97-13.25-6.97-3.64.58-3.89 2.19-2.18 4.75 4.27 6.39 8.61 12.73 12.97 19.05.78 1.13 2.12 3.15 4.23 5.5.52.58.73 1.38 2.01 2.2 1.29.83 2.1 2.39 3.15 3.62 10.77 12.65 9.13 18.58-6.77 23.78-10.12 3.31-20.32 6.37-30.48 9.54-.58-.07-1.15-.14-1.73-.22-10.52 1.44-21.64 1.47-27.57 12.94-.86 1.68-3.51 3.23-2.34-1.16z"/><path d="M137.21 431.67c-3.55 1.44-7.11 2.89-10.67 4.33-.29-.02-.58-.03-.86-.04l-1.25.03c-16.27-.05-32.54-.13-48.81-.15-19.12-.03-38.23 0-57.35 0h-3.19c4.24-2.02 8.19-4.22 13.08-4.2 27.72.16 55.44.23 83.16-.01 8.45-.07 16.93.8 25.36-.35.16-.02.35.25.53.39zm253.83-157.04c-9.9.03-19.83-.34-29.71.14-3.1.15-5.13-.25-6.39-1.45-2.13-2.04-1.83-5.67-1.76-6.65.49-6.7-.26-60-1.54-135.12-15.21 14.12-30.41 28.24-45.62 42.36-28.11 27.57-56.22 55.14-84.33 82.7-.13 5.88-.25 11.76-.38 17.64-12.91.12-25.83.41-38.73.18-5.2-.09-6.19 2.01-6.18 6.59.02 5.06 3.11 5.39 6.7 5.42 2.37.02 4.74-.23 7.11-.36 43.69-.1 87.37-.19 131.06-.29 20.74.13 41.48.27 62.22.4 2.41-.09 4.81-.28 7.22-.24 4.18.08 7.93.46 7.8-5.9-.1-5.95-3.64-5.43-7.47-5.42zm-72.1 1.36c.09.08.16.19.25.28-.09-.1-.18-.21-.28-.3.02 0 .03.01.03.02zm-.73-.52c-1.72-.94-4.61-.95-9.74-.97 1.52-.29 6.43-1.32 9.74.97zm2.51 5.14c.01.08.02.19.04.27-.02-.08-.03-.18-.04-.27zm-1.27-4.04c.08.11.14.25.22.37-.08-.13-.14-.26-.22-.37zm.43.75c.06.13.11.29.16.43-.05-.15-.1-.3-.16-.43zm.34.91c.05.15.08.33.12.49-.04-.16-.08-.34-.12-.49zm.27 1.09c.03.15.06.33.09.49-.03-.16-.06-.34-.09-.49z" fill="#00c377"/><path d="M319.28 506.88c0-.23 0-.46-.01-.68.08.16.18.32.22.49.02.03-.13.12-.21.19zm-.01 59.41v-.68c.08.16.17.32.22.49.01.04-.14.12-.22.19zm.01 4.78v-.69c.08.16.18.32.22.49.01.05-.14.14-.22.2zm0 24.59v-.68c.08.16.17.32.22.49 0 .03-.15.12-.22.19zm-.01 5.46v-.68c.08.16.17.32.22.49.01.04-.14.12-.22.19zm.01 17.75v-.68c.08.16.17.32.22.49.01.04-.15.13-.22.19zm0 5.47v-.69c.08.16.17.32.21.49.02.05-.14.14-.21.2z" fill="#d6bea2"/><path class="st252" d="M469.8 336.06c-.81 0-1.22-.4-1.22-1.22l1.22 1.22z"/><path class="st2" d="M63.67 440.68c17.42 0 34.84.05 52.26-.06 2.65-.02 3.87.5 4.66 3.37 5.31 19.42 10.84 38.77 16.43 58.11.8 2.77.32 3.46-2.58 3.39-7.28-.18-14.57.11-21.85-.12-2.74-.09-3.11.81-3.1 3.24.08 30.27-.01 60.53.12 90.8.01 3.18-.92 3.57-3.82 3.54-16.84-.17-33.67-.15-50.51.01-2.28.02-2.9-.9-3.4-2.67-6.3-22.28-12.75-44.51-18.88-66.83-2.48-9.02-4.72-18.12-7.32-27.08-2.96-10.21-5.86-20.44-8.92-30.63-3.2-10.64-6.03-21.4-9.15-32.07-.74-2.55-.01-3.04 2.44-3.03 17.87.07 35.74.04 53.62.03zM317 550.2c-48.03 13.85-96.06 27.71-144.08 41.56 2.77-6.47 5.54-12.93 8.31-19.4 4.71-2.87 43.09-26.18 77.63-42.49 0 0 23.56-11.12 43.85-12.09 2.12-.1 4.42-.13 6.86-.05 2.67.09 5.15.31 7.43.59v31.88z"/><path class="st2" d="M138.12 602.87c-7.97 0-15.94-.08-23.91.05-2.24.04-2.91-.6-2.9-2.86.07-29.93.08-59.86.01-89.78-.01-2.33.54-3.15 3-3.09 6.94.16 13.89.17 20.83-.01 2.5-.07 3.52.68 4.2 3.11 6.59 23.66 13.32 47.29 20.01 70.92 1.77 6.24 3.44 12.5 5.37 18.69.8 2.56.08 3.05-2.37 3.02-8.07-.13-16.16-.05-24.24-.05z"/><path class="st4" d="M318.39 516.37c-17.6 1.61-34.27 6.32-50.46 12.36-31.41 11.72-60.48 27.09-87.87 45.02-.54-.5-1.09-1-1.63-1.5-1-3.23-2-6.46-3.01-9.69-4.53-14.47-9.06-28.95-13.58-43.42 8.71-2.56 17.78-2.97 26.82-3.38 6.88-.31 13.78-.14 20.67-.19l2.02.06c34.05.02 68.11.04 102.16.1 1.63 0 3.42-.58 4.88.64z"/><path class="st252" d="M59.51 642.98c-.27.42-.54.42-.81-.01.27.01.54.01.81.01zm7.51 0c-.27.41-.54.41-.8-.01.27 0 .54 0 .8.01zm11.63-.01c-.26.42-.53.45-.81.01.27 0 .54 0 .81-.01zm12.29.01c-.27.43-.53.44-.8 0h.8zm12.99 0c-.27.42-.54.41-.8-.01.26 0 .53 0 .8.01zm7.52.09c-.28.41-.55.42-.83-.01.28 0 .56.01.83.01z"/><path class="st2" d="M181.08 572.45c.42 3.37-2.64 5.62-2.84 8.79-1.85 3.49-3.71 6.98-5.77 10.87-3.31-11.12-6.53-21.83-9.67-32.56-4.62-15.78-9.17-31.57-13.78-47.35-1.13-3.88-1.13-3.94 3.02-3.95 2.39-.01 4.81.23 7.17-.06 3.16-.39 4.5 1 5.06 3.9.56 2.86 1.12 5.75 2.39 8.42 3.93 14.16 7.87 28.31 11.8 42.47.88 3.15 1.75 6.31 2.62 9.47z"/><path class="st4" d="M578.26 44.9c-5.48-15.82-12.2-31.19-28.69-38.63-16.9-7.63-32.19-3.41-35.14 20.08-.19 1.48.44 3.54-1.74 3.89-2.15.34-2.23-1.94-2.98-3.17-2.9-4.77-5.27-9.9-8.53-14.4-9.86-13.6-31.18-14.13-38.35 3.94-3.57 9.01-3.29 18.09-2.82 27.23.28 5.33-1.25 8.53-6.16 10.5-39.19 15.67-78.01 32.23-116.28 50.03-3.3 1.53-4.61 1.13-5.4-2.6-1.91-8.99-7.14-15.96-14.18-21.69-1.09-.52-2.19-1.05-3.28-1.57-8.33-4.11-16.42-2.84-24.3 1.25-3.69 1.92-7.15 4.29-10.92 6.01-1.82.83-3.84 2.42-5.85 1.94-1.38-.33-2.15-1.43-2.35-1.67-3.48-4.25-40.15-22.41-71.4-7.28-1.48.71-3.46 1.75-5.71 3.19-5.4 10.07-10.2 20.43-14.27 31.11-1.01 2.64-2.85 4.46-4.91 6.14-4 3.28-4.7 7.5-3.69 12.26 1.34 5.94 2.52 11.92 4.11 17.8.44 1.61 2.08 2.9 3.17 4.33.74-.65 1.77-1.15 2.18-1.97 3.74-7.51 10.98-10.44 17.86-13.92 8.07-4.08 16.19-8.09 24.96-10.41 1.93-.51 6.32-3.47 5.95 2.6 1.1 4.04.59 4.56-6.39 6.58-2.81 1.48-5.56 3.11-8.46 4.42-10.19 4.62-20.47 9.04-30.62 13.73-2.84 1.31-6.17 2.72-7.03 6.06-2.49 9.63 4.26 25.27 13.37 31.23 5.27-11.68 11.94-19.39 16.6-23.95 0 0 12.6-12.33 22.17-11.88 1.33.06 5.05.24 6.39 2.57 0 0 .36.63.46 1.41.62 4.85-20.9 19.22-34.18 35.1-2.25 2.69-5.1 6.47-5.55 11.68-.35 4.06.97 8.27 3.92 13.28 3.74 6.36 8.25 12.53 10.53 19.42 2.12 6.39 4.46 9.08 10.97 6.32 5.44-5.51 13.01-2.35 19.22-4.71 2.72-.93 5.37-2.2 8.16-2.72 7.92-1.48 10.46-6 8.3-13.53-1.05-8.71-1.93-17.44-3.22-26.11-.93-6.26 1.54-12.03 2.01-18.07.11-1.39.54-3.43 2.46-3.72 2.33-.36 3.15 1.73 3.99 3.29 4.76 8.85 6.67 18.42 6.11 28.35-.14 2.49.4 4.67.65 6.99.27 7.16-1.06 14.17-2.36 21.35 16.15-4.36 26.04-11.24 21.58-29.9l-1.17-11.16c-5.9-11.93-11.89-23.81-17.62-35.83-1.41-2.95-3.94-7.21-.23-9.29 3.33-1.86 6.21 2.05 8.44 4.6 8.73 10.02 14.36 21.8 18.98 34.12a41.757 41.757 0 014.67 25.28c2.8-2.08 7.53-6.21 10.83-12.97 5.45-11.16 3.22-21.75 2.42-24.95-5.56-12.94-15.73-22.71-23.46-34.16-2.88-4.26-5.67-8.57-9.01-13.63 21.54 2.59 36.1 17.77 41.75 42.09.32.6.82 1.44 1.56 2.34 1.12 1.36 2.32 2.81 3.71 2.91 1.72.13 3.63-1.8 4.64-4.67-2.4-6 3.84-9.21 4.61-14.19.49-9.71-.62-19.08-5.66-27.66-1.2-1.06-2.41-2.11-3.61-3.16-1.53-1.34-2.88-1.67-3.61-3.16-.13-.26-.86-1.73-.29-2.46.62-.8 2.67-.52 5.11.74l3.23-.33-.03-2.14c1.64-4.26 5.74-3.1 8.76-3.57 47.87-7.54 89.64 7.26 127.73 35.23.26.19.15.89.24 1.56-11.6 6.88-19.33 14.68-24.22 20.59-5.44 6.58-26.43 31.96-19.42 60.92 2.44 10.1 7.55 17.54 11.4 22.15.8-.54 1.73-.82 2.82-.66 2.98.44 4.21 3.83 3.61 6.15-1.62 6.28 5.84 6.7 6.57 11.23l.15.11c1.4-.28 2.54-.04 3.04 1.51l.16.13 1.45 1.45.15.15 1.46 1.46.13.15c6.1 3.57 7.1 9.69 7.93 15.89l.05.06c2.57-7.25 7.5-13.4 9.54-20.96 1.52-5.62 3.42-11.25 8.56-15.01-1.47 6.54-3.27 12.93-5.74 19.05-2.03 5.03-.78 8.17 4.01 10.26 2.61 1.14 4.99 2.56 7.95 3.13 5.08.98 10.25 4.63 14.89 3.94 5.87-.88 5.88-8.76 9.46-12.92 11.73-13.63 21.08-28.74 27.62-45.51 8.06-20.69 14.68-41.59 10.57-64.36-1.26-6.95-4.13-13.33-6.91-21.02 5.56 2.15 9.97 3.59 14.13 5.55 2.82 1.32 4.18.84 3.96-2.21-.6-8.39 3.98-15.26 6.54-22.68 9.7-28.13 18.14-56.39 7.79-86.27zM214.01 208.71c-1.98 1.11-2.5-1.38-2.3-2.93.75-5.79 4.89-9.39 9.16-12.51 2.12-1.55 3.04.99 3.81 3.47-3.75 3.53-5.69 9.18-10.67 11.97zM196.26 108.7c-.01 0-.18-.41-.27-.62l2.8-.36c-.84.34-1.68.67-2.53.98zm2.98-1.12c11.69-9.11 32.02-13.36 45.78-8.8-14.9 4.69-30.58 5.61-45.78 8.8zm111.82 7.12c-3.96-1.64-8.23-3.15-8.06-7.48.09-2.38 4.18-2.2 6.12-1.56 5.55 1.86 1.01 5.92 1.94 9.04zm2.62-.13c-.65-3.27-1.71-6.53.91-7.9 2.94-1.54 5.21 1.6 8.33 2.94-2.75 3.27-6 3.75-9.24 4.96zm155.27 104c-3.82 10.95-5.82 22.62-12.96 32.24 3.89 5.36-.55 10.01-1.32 15-2.17-5.05-2.86-10.06.19-15.03-.81-6.93-.56-12.71-.14-16.83 1.18-11.54 4.48-17.76 6.7-21.08 1.39-2.07 4.24-6.15 7.56-5.94.61.04 1.23.27 1.88.75 3.68 2.72 1.05 7.57-1.91 10.89zm23.85-63.21c-.87 2.07-.88 5.36-3.96 5.3-2.67-.05-3.83-2.67-4.62-4.97-1.06-3.07-2.69-5.21-6.34-4.85-3.36.33-5.3-2.25-7.64-3.89-32.04-22.51-66.82-36.86-106.72-36.22-7.78.13-15.45 1.12-23.14 2.16-2.17.29-5.54 3.28-6.57-.99-.85-3.53 2.97-3.92 5.24-4.93 15.14-6.74 30.28-13.48 45.51-20 23.59-10.1 47.25-20.02 70.88-30.02 2.92-1.24 5.54-3.25 6.67 2.33 6.17 30.44 23.26 53.46 48.9 70.49.59.39.96 1.1 1.98 2.33-12.25 3.29-16.05 13.4-20.19 23.26zm45.54 69.65c-1.26 3.92-4.57 4.83-8.95 4.84-10.09-1.94-18.85-6.94-24.39-16.61-1.89-3.3-.85-5.25 3.2-4.2 8.74 2.28 17.71 3.97 25.7 8.47 2.82 1.58 5.71 3.56 4.44 7.5zM319.28 506.19c-59.65-.41-119.31-.81-178.96-1.22-6.23-21.77-12.46-43.54-18.7-65.3-1.41-.66-2.91-.39-4.37-.39-34.88-.01-69.76 0-104.64-.01-1.47 0-2.95-.07-4.42-.1-3.08-.19-3.86.88-2.63 3.88 1.09 2.66 1.5 5.59 2.31 8.37 3.78 13.04 7.77 26.03 11.29 39.14 1.31 4.89 2.97 9.7 4.15 14.88-6.81 0-13.39.15-19.97-.07-1.32-.04-2.14.12-2.63.6-.91.89-.7 2.45-.67 2.75.27 2.79.59 57.4.92 133.87 105.85.02 211.7.05 317.54.07l.78-136.47zm-179.93 4.09c6.59 23.66 13.32 47.29 20.01 70.92 1.77 6.24 3.44 12.5 5.37 18.69.8 2.56.08 3.05-2.37 3.02-8.08-.12-16.17-.04-24.25-.04-7.97 0-15.94-.08-23.91.05-2.24.04-2.91-.6-2.9-2.86.07-29.93.08-59.86.01-89.78-.01-2.33.54-3.14 3-3.09 6.94.16 13.89.17 20.84-.01 2.5-.08 3.52.67 4.2 3.1zM58.63 641.36c-17.98-.14-35.96-.09-53.94-.05-1.85.01-2.84-.1-2.83-2.46.08-43.21.06-86.43.06-129.64 0-.33.1-.67.15-1.01.03-1.02.8-.92 1.45-.92 6.36-.01 12.72 0 19.09 0 .73 0 1.36.12 1.49 1 4.19 14.5 8.43 28.98 12.56 43.49 8.17 28.73 16.24 57.49 24.46 86.21.77 2.68.48 3.4-2.49 3.38zm47.89-.03c-13.31-.1-26.62-.12-39.93.03-2.34.03-3.15-.9-3.67-2.85-2.79-10.36-5.53-20.74-8.87-30.95-.6-1.85-.52-3.05 2.21-2.98 8.41.21 16.83.07 25.25.07 8.42-.01 16.84.07 25.25-.06 2.22-.03 2.88.52 2.85 2.82-.14 10.34-.15 20.69.01 31.03.04 2.55-.86 2.91-3.1 2.89zm2.97-132.73c.08 30.27-.01 60.53.12 90.8.01 3.18-.92 3.57-3.82 3.54-16.84-.17-33.67-.15-50.51.01-2.28.02-2.9-.9-3.4-2.67-6.3-22.27-12.75-44.51-18.88-66.83-2.48-9.02-4.72-18.12-7.32-27.08-2.96-10.21-5.86-20.44-8.92-30.63-3.2-10.64-6.03-21.4-9.15-32.07-.74-2.55-.01-3.04 2.44-3.03 17.88.08 35.75.05 53.63.05 17.42-.01 34.84.05 52.26-.06 2.65-.02 3.87.5 4.66 3.37 5.31 19.42 10.84 38.77 16.43 58.11.8 2.77.32 3.46-2.58 3.39-7.28-.18-14.57.11-21.85-.12-2.74-.11-3.11.79-3.11 3.22zm64.4 132.68c-10.01-.08-20.01-.04-30.02-.04v-.01c-9.78 0-19.56-.09-29.34.06-2.47.04-3.3-.45-3.26-3.12.17-10.22.13-20.45.02-30.68-.02-2.15.39-2.92 2.75-2.9 16.49.11 32.98.09 49.46 0 1.98-.01 2.74.62 3.25 2.47 2.9 10.62 5.87 21.22 8.99 31.78.65 2.16.14 2.45-1.85 2.44zm140.86.03c-2.26.04-58.83-.2-136.13-.58l-37.38-132.59 66.36-.48.33 9.34 1.76.06c.06-2.96.13-5.92.19-8.88.17-.28.34-.57.51-.85 35.54.43 71.07.86 106.61 1.3.16 74.75.32 128.14.11 131.81-.02.38-.81.85-2.36.87z"/></svg>