<?xml version="1.0" encoding="utf-8"?>
<!-- Generator: Adobe Illustrator 24.2.3, SVG Export Plug-In . SVG Version: 6.00 Build 0)  -->
<svg version="1.1" id="Слой_1" xmlns="http://www.w3.org/2000/svg" xmlns:xlink="http://www.w3.org/1999/xlink" x="0px" y="0px"
	 viewBox="0 0 585 646" style="enable-background:new 0 0 585 646;" xml:space="preserve">
<style type="text/css">
	.st0{fill:#00C377;}
	.st1{fill:#A6E5C3;}
	.st2{fill:#58D196;}
	.st3{fill:#88E5AF;}
	.st4{fill:#00B45A;}
	.st5{fill:#FFFFFF;}
	.st6{fill:#FF6567;}
	.st7{fill:url(#SVGID_1_);}
	.st8{fill:#ADD8C3;}
	.st9{fill:none;stroke:#FFFFFF;stroke-miterlimit:10;}
	.st10{fill:#A2CBAB;}
	.st11{fill:#96CDA1;}
	.st12{opacity:0.76;}
	.st13{fill:#C4E9CD;}
	.st14{fill:url(#SVGID_2_);}
	.st15{fill:url(#SVGID_3_);}
	.st16{fill:#F6E6BE;}
	.st17{fill:url(#SVGID_4_);}
	.st18{fill:url(#SVGID_5_);}
	.st19{fill:url(#SVGID_6_);}
	.st20{fill:#E4EEC4;}
	.st21{fill:#EFFBD2;}
	.st22{fill:url(#SVGID_7_);}
	.st23{fill:url(#SVGID_8_);}
	.st24{fill:url(#SVGID_9_);}
	.st25{fill:url(#SVGID_10_);}
	.st26{fill:#FFE493;}
	.st27{clip-path:url(#SVGID_12_);fill:url(#SVGID_13_);}
	.st28{fill:#5B2A1E;}
	.st29{fill:#907673;}
	.st30{fill:url(#SVGID_14_);}
	.st31{fill:url(#SVGID_15_);}
	.st32{fill:url(#SVGID_16_);}
	.st33{fill:url(#SVGID_17_);}
	.st34{fill:#FE82C8;}
	.st35{opacity:0.62;clip-path:url(#SVGID_19_);fill:#FFFFFF;}
	.st36{opacity:0.75;clip-path:url(#SVGID_19_);fill:#FFFFFF;}
	.st37{opacity:0.41;clip-path:url(#SVGID_19_);fill:#FFFFFF;}
	.st38{clip-path:url(#SVGID_19_);fill:none;}
	.st39{clip-path:url(#SVGID_21_);}
	.st40{opacity:0.26;fill:#FFFFFF;}
	.st41{opacity:0.69;fill:#FFFFFF;}
	.st42{fill:none;}
	.st43{opacity:0.16;fill:#FFFFFF;}
	.st44{opacity:0.3;fill:#FFFFFF;}
	.st45{opacity:0.23;fill:#FFFFFF;}
	.st46{opacity:0.24;fill:#FFFFFF;}
	.st47{opacity:0.17;}
	.st48{opacity:0.05;fill:#E2E8E4;}
	.st49{clip-path:url(#SVGID_23_);}
	.st50{opacity:0.76;clip-path:url(#SVGID_23_);fill:#FFFFFF;}
	.st51{clip-path:url(#SVGID_23_);fill:url(#SVGID_24_);}
	.st52{clip-path:url(#SVGID_23_);fill:none;stroke:#FFFFFF;stroke-width:2;stroke-linecap:round;stroke-miterlimit:10;}
	.st53{clip-path:url(#SVGID_23_);fill:url(#SVGID_25_);}
	.st54{clip-path:url(#SVGID_23_);fill:url(#SVGID_26_);}
	.st55{clip-path:url(#SVGID_23_);fill:url(#SVGID_27_);}
	.st56{clip-path:url(#SVGID_23_);fill:url(#SVGID_28_);}
	.st57{clip-path:url(#SVGID_23_);fill:#FFFFFF;}
	.st58{clip-path:url(#SVGID_23_);fill:url(#SVGID_29_);}
	.st59{opacity:0.62;clip-path:url(#SVGID_31_);fill:#FFFFFF;}
	.st60{clip-path:url(#SVGID_31_);fill:#FFFFFF;}
	.st61{opacity:0.41;clip-path:url(#SVGID_31_);fill:#FFFFFF;}
	.st62{clip-path:url(#SVGID_31_);fill:none;}
	.st63{clip-path:url(#SVGID_33_);}
	.st64{fill:url(#SVGID_34_);}
	.st65{opacity:0.74;clip-path:url(#SVGID_36_);fill:url(#SVGID_37_);}
	.st66{fill:#E5E5E5;}
	.st67{fill:none;stroke:#4D4D4D;stroke-width:0.75;stroke-linecap:round;stroke-miterlimit:10;}
	.st68{fill:url(#SVGID_38_);}
	.st69{opacity:0.74;fill:url(#SVGID_39_);}
	.st70{opacity:0.74;fill:url(#SVGID_40_);}
	.st71{opacity:0.74;fill:url(#SVGID_41_);}
	.st72{opacity:0.74;fill:url(#SVGID_42_);}
	.st73{fill:url(#SVGID_43_);}
	.st74{opacity:0.66;}
	.st75{opacity:0.37;fill:#FFFFFF;}
	.st76{fill:url(#SVGID_44_);}
	.st77{fill:url(#SVGID_45_);}
	.st78{opacity:0.44;clip-path:url(#SVGID_47_);fill:#FFFFD9;}
	.st79{opacity:0.43;clip-path:url(#SVGID_49_);fill:#FFFFFF;}
	.st80{clip-path:url(#SVGID_49_);fill:none;stroke:#FFFFFF;stroke-miterlimit:10;}
	.st81{opacity:0.76;clip-path:url(#SVGID_49_);fill:#FFFFFF;}
	.st82{clip-path:url(#SVGID_49_);fill:#FFFFFF;}
	.st83{opacity:0.08;clip-path:url(#SVGID_49_);fill:#FFFFFF;}
	.st84{opacity:0.27;clip-path:url(#SVGID_49_);fill:#FFFFFF;}
	.st85{opacity:0.37;clip-path:url(#SVGID_49_);fill:#FFFFFF;}
	.st86{clip-path:url(#SVGID_49_);fill:none;}
	.st87{fill:url(#SVGID_50_);}
	.st88{opacity:0.62;clip-path:url(#SVGID_52_);fill:#FFFFFF;}
	.st89{clip-path:url(#SVGID_52_);fill:#FFFFFF;}
	.st90{opacity:0.41;clip-path:url(#SVGID_52_);fill:#FFFFFF;}
	.st91{clip-path:url(#SVGID_52_);fill:none;}
	.st92{clip-path:url(#SVGID_54_);}
	.st93{opacity:0.55;fill:url(#SVGID_55_);}
	.st94{fill:url(#SVGID_56_);}
	.st95{fill:url(#SVGID_57_);}
	.st96{opacity:0.28;}
	.st97{opacity:0.56;clip-path:url(#SVGID_59_);fill:#FFFFFF;}
	.st98{opacity:0.43;clip-path:url(#SVGID_61_);fill:#FFFFFF;}
	.st99{clip-path:url(#SVGID_61_);fill:none;stroke:#FFFFFF;stroke-miterlimit:10;}
	.st100{opacity:0.76;clip-path:url(#SVGID_61_);fill:#FFFFFF;}
	.st101{clip-path:url(#SVGID_61_);fill:#FFFFFF;}
	.st102{opacity:0.08;clip-path:url(#SVGID_61_);fill:#FFFFFF;}
	.st103{opacity:0.27;clip-path:url(#SVGID_61_);fill:#FFFFFF;}
	.st104{opacity:0.37;clip-path:url(#SVGID_61_);fill:#FFFFFF;}
	.st105{clip-path:url(#SVGID_61_);fill:none;}
	.st106{clip-path:url(#SVGID_63_);fill:none;}
	.st107{opacity:0.46;}
	.st108{opacity:0.86;fill:#FFFFFF;}
	.st109{opacity:0.4;}
	.st110{opacity:0.73;fill:#FFFFFF;}
	.st111{opacity:0.54;clip-path:url(#SVGID_65_);fill:#FFFFFF;}
	.st112{fill:#FF8A8A;}
	.st113{opacity:0.75;fill:#FFFFFF;}
	.st114{fill:#FFC181;}
	.st115{clip-path:url(#SVGID_67_);fill:#FFDFBD;}
	.st116{clip-path:url(#SVGID_67_);fill:#FF9D00;}
	.st117{clip-path:url(#SVGID_67_);fill:#FFF3DF;}
	.st118{clip-path:url(#SVGID_69_);fill:#FFBAE4;}
	.st119{opacity:0.8;clip-path:url(#SVGID_69_);fill:#FE82C8;}
	.st120{clip-path:url(#SVGID_69_);fill:#FE82C8;}
	.st121{opacity:0.79;clip-path:url(#SVGID_69_);fill:#FFBAE4;}
	.st122{fill:#FFFEEA;}
	.st123{fill:#D2F2E1;}
	.st124{opacity:0.44;fill:#FFFFFF;}
	.st125{clip-path:url(#SVGID_71_);fill:#FFF9C1;}
	.st126{opacity:0.86;fill:#FFCCD5;}
	.st127{opacity:0.62;clip-path:url(#SVGID_73_);fill:#FFFFFF;}
	.st128{opacity:0.75;clip-path:url(#SVGID_73_);fill:#FFFFFF;}
	.st129{opacity:0.41;clip-path:url(#SVGID_73_);fill:#FFFFFF;}
	.st130{clip-path:url(#SVGID_73_);fill:none;}
	.st131{clip-path:url(#SVGID_75_);}
	.st132{opacity:0.44;clip-path:url(#SVGID_77_);fill:#FFFFFF;}
	.st133{opacity:0.43;clip-path:url(#SVGID_79_);fill:#FFFFFF;}
	.st134{clip-path:url(#SVGID_79_);fill:none;stroke:#FFFFFF;stroke-miterlimit:10;}
	.st135{opacity:0.76;clip-path:url(#SVGID_79_);fill:#FFFFFF;}
	.st136{clip-path:url(#SVGID_79_);fill:#FFFFFF;}
	.st137{opacity:0.08;clip-path:url(#SVGID_79_);fill:#FFFFFF;}
	.st138{opacity:0.27;clip-path:url(#SVGID_79_);fill:#FFFFFF;}
	.st139{opacity:0.37;clip-path:url(#SVGID_79_);fill:#FFFFFF;}
	.st140{clip-path:url(#SVGID_79_);fill:none;}
	.st141{opacity:0.54;clip-path:url(#SVGID_81_);fill:#FFFFFF;}
	.st142{opacity:0.62;fill:#FFFFFF;}
	.st143{opacity:0.41;fill:#FFFFFF;}
	.st144{opacity:0.43;fill:#FFFFFF;}
	.st145{opacity:0.76;fill:#FFFFFF;}
	.st146{opacity:0.08;fill:#FFFFFF;}
	.st147{opacity:0.27;fill:#FFFFFF;}
	.st148{opacity:0.54;fill:#FFFFFF;}
	.st149{clip-path:url(#SVGID_83_);fill:#FF6567;}
	.st150{clip-path:url(#SVGID_83_);fill:#FF8A8A;}
	.st151{clip-path:url(#SVGID_83_);fill:#FFC2C1;}
	.st152{clip-path:url(#SVGID_83_);fill:#FFFFFF;}
	.st153{clip-path:url(#SVGID_85_);fill:#E2E9FF;}
	.st154{clip-path:url(#SVGID_85_);fill:#EEF2FF;}
	.st155{opacity:0.54;clip-path:url(#SVGID_85_);fill:#EEF2FF;}
	.st156{opacity:0.54;clip-path:url(#SVGID_85_);fill:#8FAAF0;}
	.st157{clip-path:url(#SVGID_87_);}
	.st158{fill:#FF6B81;}
	.st159{clip-path:url(#SVGID_87_);fill:none;}
	.st160{fill:#FF1B6F;}
	.st161{clip-path:url(#SVGID_89_);fill:#FFDFBD;}
	.st162{clip-path:url(#SVGID_89_);fill:#FF9D00;}
	.st163{clip-path:url(#SVGID_89_);fill:#FFF3DF;}
	.st164{clip-path:url(#SVGID_91_);fill:#F0C6F4;}
	.st165{opacity:0.8;clip-path:url(#SVGID_91_);fill:#F8E3F8;}
	.st166{clip-path:url(#SVGID_91_);fill:#F8E3F8;}
	.st167{opacity:0.79;clip-path:url(#SVGID_91_);fill:#F0C6F4;}
	.st168{clip-path:url(#SVGID_93_);fill:#FFF9C1;}
	.st169{clip-path:url(#SVGID_95_);fill:#FFC5D6;}
	.st170{clip-path:url(#SVGID_95_);fill:#FF94B3;}
	.st171{clip-path:url(#SVGID_95_);fill:#FF6794;}
	.st172{clip-path:url(#SVGID_95_);fill:#FFFFFF;}
	.st173{clip-path:url(#SVGID_97_);fill:#698DE6;}
	.st174{clip-path:url(#SVGID_97_);fill:#8FAAF0;}
	.st175{opacity:0.54;clip-path:url(#SVGID_97_);fill:#8FAAF0;}
	.st176{clip-path:url(#SVGID_99_);}
	.st177{clip-path:url(#SVGID_99_);fill:none;}
	.st178{opacity:0.46;clip-path:url(#SVGID_101_);}
	.st179{clip-path:url(#SVGID_101_);fill:none;}
	.st180{fill:none;stroke:#FFFFFF;stroke-width:2;stroke-miterlimit:10;}
	.st181{opacity:0.45;fill:#FFFFFF;}
	.st182{opacity:0.8;fill:#FFFFFF;}
	.st183{opacity:0.79;fill:#FFFFFF;}
	.st184{fill:#F2C5AA;}
	.st185{fill:none;stroke:#FFFFFF;stroke-width:0.75;stroke-miterlimit:10;}
	.st186{fill:#FFFFFF;stroke:#FFFFFF;stroke-width:0.25;stroke-miterlimit:10;}
	.st187{fill:#D3C1B2;}
	.st188{fill:#FFC5D6;}
	.st189{clip-path:url(#SVGID_109_);fill:#F787A5;}
	.st190{clip-path:url(#SVGID_109_);fill:#FFE9F2;}
	.st191{clip-path:url(#SVGID_109_);fill:#D3CFB3;}
	.st192{clip-path:url(#SVGID_109_);fill:#FFDBE5;}
	.st193{clip-path:url(#SVGID_109_);}
	.st194{fill:#FFE9F2;}
	.st195{fill:#F787A5;}
	.st196{fill:#F2CCC1;}
	.st197{fill:#DF4E50;}
	.st198{clip-path:url(#SVGID_109_);fill:#FFC5D6;}
	.st199{fill:#FFDBE5;}
	.st200{fill:#FFB9C3;}
	.st201{fill:#FB91B5;}
	.st202{fill:#E3A180;}
	.st203{fill:#92693D;}
	.st204{fill:#FBBACC;}
	.st205{fill:#E6678D;}
	.st206{fill:#574435;}
	.st207{fill:#C9A47C;}
	.st208{fill:#641F1E;}
	.st209{fill:#F15E89;}
	.st210{fill:#E7005E;}
	.st211{fill:#DEB78A;}
	.st212{fill:#DFB78A;}
	.st213{fill:#FF6794;}
	.st214{fill:#D72264;}
	.st215{fill:#F7F7F7;}
	.st216{fill:#F2F2F2;}
	.st217{fill:#FFFBF0;}
	.st218{fill:#FFBFCF;}
	.st219{fill:#FF9DAE;}
	.st220{fill:#FFC2C1;}
	.st221{fill:#FFCCD5;}
	.st222{fill:#B49E8F;}
	.st223{fill:#FFE2EA;}
	.st224{fill:#A3C5DC;}
	.st225{fill:#DA956B;}
	.st226{fill:#BDA595;}
	.st227{fill:#583B34;}
	.st228{fill:#63443C;}
	.st229{fill:#B2D0E5;}
	.st230{fill:#FCFCFB;}
	.st231{fill:#D0ACA1;}
	.st232{fill:#A2C4DB;}
	.st233{fill:#E1D0C8;}
	.st234{fill:#9C7972;}
	.st235{fill:#77573F;}
	.st236{fill:#F3769C;}
	.st237{fill:#FBFBF9;}
	.st238{fill:#F8C4DC;}
	.st239{fill:#E4BAB5;}
	.st240{clip-path:url(#SVGID_111_);fill:#F787A5;}
	.st241{clip-path:url(#SVGID_111_);fill:#FFE9F2;}
	.st242{clip-path:url(#SVGID_111_);fill:#D3CFB3;}
	.st243{clip-path:url(#SVGID_111_);fill:#FFDBE5;}
	.st244{clip-path:url(#SVGID_111_);}
	.st245{clip-path:url(#SVGID_111_);fill:#FFC5D6;}
	.st246{fill:#7FDAAA;}
	.st247{fill:#F2BC3A;}
	.st248{fill:#B99F65;}
	.st249{fill:#98D284;}
	.st250{fill:#3C3724;}
	.st251{fill:#D6BEA2;}
	.st252{fill:#9C8274;}
	.st253{fill:#587147;}
	.st254{fill:#E7D6BE;}
	.st255{fill:#5CC689;}
	.st256{clip-path:url(#SVGID_113_);fill:#A6E5C3;}
	.st257{clip-path:url(#SVGID_113_);fill:#FFFFFF;}
	.st258{clip-path:url(#SVGID_113_);fill:#58D196;}
</style>
<path class="st4" d="M412.45,520.54c0.31-0.1,0.69-0.16,1.09-0.08c0,0,0.12,0.03,0.3,0.1c0,0,0.34,0.14,0.64,0.38
	c0.43,0.36,13.35,89.89,17.77,120.54c0.78-0.1,1.59-0.18,2.44-0.18c0.64,0,1.25,0.03,1.85,0.09c-10.84-69.97-21.45-139.97-31.84-210
	c-7.18-48.38-14.25-96.79-21.22-145.22c-20.74-0.13-41.48-0.27-62.22-0.4c-43.69,0.1-87.37,0.2-131.06,0.29
	c-18.04,119.16-36.08,238.32-54.13,357.48c0.95,0.02,2.14,0.13,3.48,0.44c1.08,0.25,2.09,0.6,3.02,1.05
	c34.82-41.6,69.63-83.21,104.45-124.81c-2.7,41.5-5.41,83-8.11,124.5c1.73-0.53,3.46-1.07,5.19-1.6
	c1.04-29.12,2.54-58.84,4.55-89.14c0.85-12.85,1.79-25.58,2.79-38.19c22.1,0,44.21,0,66.31,0c2.21,42.73,4.42,85.47,6.63,128.2
	c2.71,0.01,5.42,0.03,8.13,0.04c17.41-26.36,34.82-53.05,52.21-80.1C394.06,549.45,403.3,534.98,412.45,520.54z M261.58,324.23
	c0.81-10.09,1.35-20.21,1.7-30.33c0.13-3.67,1.18-5.13,5.11-5.04c10.93,0.24,21.87,0.2,32.8,0c3.67-0.07,5.19,0.93,5.32,4.83
	c0.36,10.38,0.96,20.77,1.81,31.13c0.33,4.06-1.14,5.04-4.88,4.9c-6.39-0.23-12.8-0.07-19.2-0.07c-5.87-0.01-11.75-0.28-17.6,0.08
	C262.23,329.99,261.25,328.35,261.58,324.23z M188,324.27c1.79-10.26,3.27-20.59,4.66-30.91c0.44-3.26,1.68-4.52,5.09-4.49
	c19.26,0.14,38.52,0.14,57.77,0.01c3.49-0.02,4.66,0.97,4.39,4.55c-0.78,10.39-1.45,20.8-1.75,31.22c-0.13,4.46-2.16,5.14-5.99,5.06
	c-9.89-0.22-19.79-0.07-29.69-0.07c-9.9,0-19.8-0.21-29.69,0.09C188.42,329.84,187.25,328.59,188,324.27z M247.51,509.45
	c-0.12,2.12-0.28,4-1.85,5.88c-33.9,40.65-67.7,81.38-101.55,122.08c-0.27,0.32-0.91,0.33-2.6,0.9c4.4-29.9,8.64-58.96,12.96-88.01
	c10.43-70.1,20.96-140.18,31.2-210.31c0.79-5.42,2.59-6.95,7.97-6.86c19,0.32,38.01,0.25,57.01,0c4.97-0.07,6.97,0.78,6.62,6.49
	C253.85,396.21,250.72,452.83,247.51,509.45z M311.77,512.53c-18.18-0.35-36.38-0.3-54.56-0.02c-4.92,0.07-6.3-1.09-5.99-6.23
	c3.31-55.23,6.44-110.47,9.34-165.72c0.31-5.86,1.93-7.76,7.93-7.48c11.21,0.52,22.47,0.45,33.69,0.01
	c5.33-0.21,6.67,1.54,6.92,6.65c1.34,27.76,3.07,55.51,4.67,83.26c1.53,27.49,2.89,54.99,4.75,82.46
	C318.89,511.22,317.4,512.64,311.77,512.53z M316,399.7c0.02,0,0.03,0,0.05,0c-1.96-34.43-3.79-68.87-6.02-103.28
	c-0.38-5.81,0.51-7.82,6.94-7.65c18.71,0.5,37.45,0.35,56.18,0.09c5.05-0.07,7.35,0.8,8.18,6.54
	c10.21,70.09,20.68,140.15,31.3,210.18c0.9,5.93-0.83,7.01-6.37,6.95c-25.68-0.28-51.37-0.33-77.05,0.02
	c-5.79,0.08-6.98-1.89-7.25-7.14C320.15,470.15,318.03,434.93,316,399.7z M329.88,641.74c-0.7-11.09-1.29-19.7-1.79-28.31
	c-1.06-18.43-1.09-36.98-3.45-55.24c-1.58-12.22-1.14-24.31-1.83-36.45c-0.26-4.61,0.87-6.18,5.55-5.91
	c6.67,0.38,13.38,0.17,20.07,0.21c0.61,0,1.23,0,1.84,0c0.99,0,1.98,0,2.97,0c0.62,0,1.24,0,1.85,0l14.22-0.01l1.85-0.01
	c2.06,0.01,4.11,0.02,6.17,0.03l1.87-0.01c10.46-0.06,20.93-0.13,31.39-0.2C383.69,557.79,356.79,599.77,329.88,641.74z"/>
<path class="st5" d="M119.88,155.46c-5.18,14.99-13.16,28.92-16.57,44.77c2.12,1.37,4.27-0.6,6.28-1.15
	c13.82-3.84,21.71-1.22,27.36,11.85c11.17,25.8,8.99,50.84-7.27,74.08c-2.97,4.24-5.61,9.1-10.6,11.95
	c-2.42-4.13-2.57-8.8-4.02-13.05c-1.12-3.27-2.36-6.59-4.16-9.51c-1.54-2.49-3.17-7.01-6.68-5.28c-3.17,1.56-0.57,5.48,0.54,7.91
	c2.45,5.33,5.31,10.5,8.38,15.5c3.65,5.92,4.01,10.16-2.89,14.56c-6.54,4.16-13.95,8.11-16.36,16.76
	c-21.36-20.98-36.28-45.56-41.78-74.27c-3.32-17.33-5.04-35.81,6.54-52.34c10.29-14.69,26.25-15.21,36.02-0.3
	c1.11,1.7,1.24,4.19,4.09,5.2c6.19-15.76,9.76-32.61,19.38-46.9C118.73,155.32,119.31,155.39,119.88,155.46z"/>
<path class="st2" d="M33.58,118.95c-0.8,0.05-2.19,0.37-2.3,0.11c-0.82-1.83-2.88-2.48-3.7-4.22c-0.54-1.14-1.52-3.27-1.52-6.32
	c0-3.84,2.11-6.58,2.14-7.82c0.21-9.8,5.58-17.94,11.72-25.39c2.65-2.53,5.01-5.47,7.99-7.53c19.45-13.44,40.64-19.69,64.34-14.8
	c2.53,8.78,11,13.58,14.54,21.68c0.57,3.94-2.52,6.28-4.25,9.1c-12.52,20.41-24.52,40.94-28.62,65.13
	c-1.04,6.14-2.31,12.55-5.67,18.13c-4.37-9.33-10.8-16-21.49-18.02c-2.38-0.45-1.26-3.22,0.15-4.55c2.73-2.57,3.73-6.47,7.08-8.59
	c1.47-0.93,3.44-2.49,2.7-4.47c-0.94-2.52-3.81-1.5-5.63-1.51c-8.02-0.03-12.71,3.97-17.35,14.16c-7.82-4.74-13.56-11.5-19.05-18.56
	c-1.65-2.13-2.15-4.21-1.23-6.68c10.99-9.27,24.17-11.33,37.95-11.89c4.19-0.17,8.61-0.83,12.03-3.86c1.66-1.47,3.2-3.56,2.26-5.59
	c-0.98-2.14-3.36-0.79-5.02-0.33c-13.13,3.68-26.24,7.44-39.34,11.21C36.03,109.88,33.31,113.34,33.58,118.95z M39.14,88.85
	c12.37-3.46,25.14-4.88,37.53-8c2.8-0.71,6.69-1.31,6.22-4.92c-0.47-3.59-4.46-3.26-7.29-3.22C61.26,72.89,49.6,79.42,39.14,88.85z
	 M82.66,93.27c-14.18-1.89-26.21,3.39-37.65,10.6C57.56,100.34,70.11,96.81,82.66,93.27z"/>
<path class="st2" d="M147.65,505.24c-0.81,0.32-1.62,0.36-2.43,0.02c0.11-0.15,0.23-0.3,0.34-0.45c1.88-1.09,0.53-2.48,0.21-3.63
	c-2.07-7.3-4.23-14.58-6.38-21.86c-4.27-14.44-8.56-28.89-12.85-43.33c3.55-1.44,7.11-2.89,10.66-4.33
	c1.25-0.21,2.23-0.05,3.01,0.37c1.78,0.96,2.31,3.14,2.49,3.83c0.95,3.66,9.16,31.49,20.51,69.99
	C158.03,505.66,152.84,505.45,147.65,505.24z"/>
<path class="st2" d="M88.25,167.02c3.36-5.58,4.63-12,5.67-18.13c4.1-24.19,16.1-44.72,28.62-65.13c1.73-2.82,4.82-5.15,4.25-9.1
	c9.17-4.37,17.02-10.81,24.77-17.11c2.7-2.19,5.27-3.36,7.81-3.76c4.99-0.79,9.14,1.18,11.95,2.58
	c8.81,4.41,13.91,11.98,19.42,20.15c1.5,2.22,2.66,4.12,3.43,5.42c-5.4,10.07-10.2,20.43-14.27,31.11
	c-1.01,2.64-2.85,4.46-4.91,6.15c-4,3.28-4.7,7.5-3.69,12.26c-0.93,0.62-1.86,1.25-2.79,1.87l-0.16-0.19
	c-1.25-10.27-4.16-16.87-6.6-21c-1.01-1.7-1.72-2.62-4.78-7.63c-3.59-5.87-4.64-7.4-6.76-10.52c-3.04-4.46-6.94-7.97-13.25-6.97
	c-3.64,0.58-3.89,2.19-2.18,4.75c4.27,6.39,8.61,12.73,12.97,19.05c0.78,1.13,2.12,3.15,4.23,5.5c0.52,0.58,0.73,1.38,2.01,2.2
	c1.29,0.83,2.1,2.39,3.15,3.62c10.77,12.65,9.13,18.58-6.77,23.78c-10.12,3.31-20.32,6.37-30.48,9.54
	c-0.58-0.07-1.15-0.14-1.73-0.22c-10.52,1.44-21.64,1.47-27.57,12.94C89.73,169.86,87.08,171.41,88.25,167.02z"/>
<path class="st0" d="M137.21,431.67c-3.55,1.44-7.11,2.89-10.67,4.33c-0.29-0.02-0.58-0.03-0.86-0.04
	c-0.42,0.01-0.84,0.02-1.25,0.03c-16.27-0.05-32.54-0.13-48.81-0.15c-19.12-0.03-38.23,0-57.35,0c-1.06,0-2.13,0-3.19,0
	c4.24-2.02,8.19-4.22,13.08-4.2c27.72,0.16,55.44,0.23,83.16-0.01c8.45-0.07,16.93,0.8,25.36-0.35
	C136.84,431.26,137.03,431.53,137.21,431.67z"/>
<path class="st0" d="M391.04,274.63c-9.9,0.03-19.83-0.34-29.71,0.14c-3.1,0.15-5.13-0.25-6.39-1.45c-2.13-2.04-1.83-5.67-1.76-6.65
	c0.49-6.7-0.26-60-1.54-135.12c-15.21,14.12-30.41,28.24-45.62,42.36c-28.11,27.57-56.22,55.14-84.33,82.7
	c-0.13,5.88-0.25,11.76-0.38,17.64c-12.91,0.12-25.83,0.41-38.73,0.18c-5.2-0.09-6.19,2.01-6.18,6.59c0.02,5.06,3.11,5.39,6.7,5.42
	c2.37,0.02,4.74-0.23,7.11-0.36c43.69-0.1,87.37-0.19,131.06-0.29c0,0,0,0,0,0c20.74,0.13,41.48,0.27,62.22,0.4
	c2.41-0.09,4.81-0.28,7.22-0.24c4.18,0.08,7.93,0.46,7.8-5.9C398.41,274.1,394.87,274.62,391.04,274.63z M318.94,275.99
	c0.09,0.08,0.16,0.19,0.25,0.28c-0.09-0.1-0.18-0.21-0.28-0.3C318.93,275.97,318.94,275.98,318.94,275.99z M318.21,275.47
	c-1.72-0.94-4.61-0.95-9.74-0.97C309.99,274.21,314.9,273.18,318.21,275.47z M320.72,280.61c0.01,0.08,0.02,0.19,0.04,0.27
	C320.74,280.8,320.73,280.7,320.72,280.61z M319.45,276.57c0.08,0.11,0.14,0.25,0.22,0.37
	C319.59,276.81,319.53,276.68,319.45,276.57z M319.88,277.32c0.06,0.13,0.11,0.29,0.16,0.43
	C319.99,277.6,319.94,277.45,319.88,277.32z M320.22,278.23c0.05,0.15,0.08,0.33,0.12,0.49
	C320.3,278.56,320.26,278.38,320.22,278.23z M320.49,279.32c0.03,0.15,0.06,0.33,0.09,0.49
	C320.55,279.65,320.52,279.47,320.49,279.32z"/>
<path class="st251" d="M319.28,506.88c0-0.23,0-0.46-0.01-0.68c0.08,0.16,0.18,0.32,0.22,0.49
	C319.51,506.72,319.36,506.81,319.28,506.88z"/>
<path class="st251" d="M319.27,566.29c0-0.23,0-0.46,0-0.68c0.08,0.16,0.17,0.32,0.22,0.49
	C319.5,566.14,319.35,566.22,319.27,566.29z"/>
<path class="st251" d="M319.28,571.07c0-0.23,0-0.46,0-0.69c0.08,0.16,0.18,0.32,0.22,0.49
	C319.51,570.92,319.36,571.01,319.28,571.07z"/>
<path class="st251" d="M319.28,595.66c0-0.23,0-0.46,0-0.68c0.08,0.16,0.17,0.32,0.22,0.49C319.5,595.5,319.35,595.59,319.28,595.66
	z"/>
<path class="st251" d="M319.27,601.12c0-0.23,0-0.45,0-0.68c0.08,0.16,0.17,0.32,0.22,0.49
	C319.5,600.97,319.35,601.05,319.27,601.12z"/>
<path class="st251" d="M319.28,618.87c0-0.23,0-0.45,0-0.68c0.08,0.16,0.17,0.32,0.22,0.49
	C319.51,618.72,319.35,618.81,319.28,618.87z"/>
<path class="st251" d="M319.28,624.34c0-0.23,0-0.46,0-0.69c0.08,0.16,0.17,0.32,0.21,0.49
	C319.51,624.19,319.35,624.28,319.28,624.34z"/>
<path class="st252" d="M469.8,336.06c-0.81,0-1.22-0.4-1.22-1.22C468.99,335.25,469.4,335.66,469.8,336.06z"/>
<path class="st2" d="M63.67,440.68c17.42,0,34.84,0.05,52.26-0.06c2.65-0.02,3.87,0.5,4.66,3.37c5.31,19.42,10.84,38.77,16.43,58.11
	c0.8,2.77,0.32,3.46-2.58,3.39c-7.28-0.18-14.57,0.11-21.85-0.12c-2.74-0.09-3.11,0.81-3.1,3.24c0.08,30.27-0.01,60.53,0.12,90.8
	c0.01,3.18-0.92,3.57-3.82,3.54c-16.84-0.17-33.67-0.15-50.51,0.01c-2.28,0.02-2.9-0.9-3.4-2.67c-6.3-22.28-12.75-44.51-18.88-66.83
	c-2.48-9.02-4.72-18.12-7.32-27.08c-2.96-10.21-5.86-20.44-8.92-30.63c-3.2-10.64-6.03-21.4-9.15-32.07
	c-0.74-2.55-0.01-3.04,2.44-3.03C27.92,440.72,45.79,440.69,63.67,440.68z"/>
<path class="st2" d="M317,550.2c-48.03,13.85-96.06,27.71-144.08,41.56c2.77-6.47,5.54-12.93,8.31-19.4
	c4.71-2.87,43.09-26.18,77.63-42.49c0,0,23.56-11.12,43.85-12.09c2.12-0.1,4.42-0.13,6.86-0.05c2.67,0.09,5.15,0.31,7.43,0.59
	C317,528.96,317,539.58,317,550.2z"/>
<path class="st2" d="M138.12,602.87c-7.97,0-15.94-0.08-23.91,0.05c-2.24,0.04-2.91-0.6-2.9-2.86c0.07-29.93,0.08-59.86,0.01-89.78
	c-0.01-2.33,0.54-3.15,3-3.09c6.94,0.16,13.89,0.17,20.83-0.01c2.5-0.07,3.52,0.68,4.2,3.11c6.59,23.66,13.32,47.29,20.01,70.92
	c1.77,6.24,3.44,12.5,5.37,18.69c0.8,2.56,0.08,3.05-2.37,3.02C154.29,602.79,146.2,602.87,138.12,602.87z"/>
<path class="st4" d="M318.39,516.37c-17.6,1.61-34.27,6.32-50.46,12.36c-31.41,11.72-60.48,27.09-87.87,45.02
	c-0.54-0.5-1.09-1-1.63-1.5c-1-3.23-2-6.46-3.01-9.69c-4.53-14.47-9.06-28.95-13.58-43.42c8.71-2.56,17.78-2.97,26.82-3.38
	c6.88-0.31,13.78-0.14,20.67-0.19c0.67,0.02,1.35,0.04,2.02,0.06c34.05,0.02,68.11,0.04,102.16,0.1
	C315.14,515.73,316.93,515.15,318.39,516.37z"/>
<path class="st252" d="M59.51,642.98c-0.27,0.42-0.54,0.42-0.81-0.01C58.97,642.98,59.24,642.98,59.51,642.98z"/>
<path class="st252" d="M67.02,642.98c-0.27,0.41-0.54,0.41-0.8-0.01C66.49,642.97,66.76,642.97,67.02,642.98z"/>
<path class="st252" d="M78.65,642.97c-0.26,0.42-0.53,0.45-0.81,0.01C78.11,642.98,78.38,642.98,78.65,642.97z"/>
<path class="st252" d="M90.94,642.98c-0.27,0.43-0.53,0.44-0.8,0C90.41,642.98,90.67,642.98,90.94,642.98z"/>
<path class="st252" d="M103.93,642.98c-0.27,0.42-0.54,0.41-0.8-0.01C103.39,642.97,103.66,642.97,103.93,642.98z"/>
<path class="st252" d="M111.45,643.07c-0.28,0.41-0.55,0.42-0.83-0.01C110.9,643.06,111.18,643.07,111.45,643.07z"/>
<path class="st2" d="M181.08,572.45c0.42,3.37-2.64,5.62-2.84,8.79c-1.85,3.49-3.71,6.98-5.77,10.87
	c-3.31-11.12-6.53-21.83-9.67-32.56c-4.62-15.78-9.17-31.57-13.78-47.35c-1.13-3.88-1.13-3.94,3.02-3.95
	c2.39-0.01,4.81,0.23,7.17-0.06c3.16-0.39,4.5,1,5.06,3.9c0.56,2.86,1.12,5.75,2.39,8.42c3.93,14.16,7.87,28.31,11.8,42.47
	C179.34,566.13,180.21,569.29,181.08,572.45z"/>
<path class="st4" d="M578.26,44.9c-5.48-15.82-12.2-31.19-28.69-38.63c-16.9-7.63-32.19-3.41-35.14,20.08
	c-0.19,1.48,0.44,3.54-1.74,3.89c-2.15,0.34-2.23-1.94-2.98-3.17c-2.9-4.77-5.27-9.9-8.53-14.4C491.32-0.93,470-1.46,462.83,16.61
	c-3.57,9.01-3.29,18.09-2.82,27.23c0.28,5.33-1.25,8.53-6.16,10.5c-39.19,15.67-78.01,32.23-116.28,50.03
	c-3.3,1.53-4.61,1.13-5.4-2.6c-1.91-8.99-7.14-15.96-14.18-21.69c-1.09-0.52-2.19-1.05-3.28-1.57c-8.33-4.11-16.42-2.84-24.3,1.25
	c-3.69,1.92-7.15,4.29-10.92,6.01c-1.82,0.83-3.84,2.42-5.85,1.94c-1.38-0.33-2.15-1.43-2.35-1.67c-3.48-4.25-40.15-22.41-71.4-7.28
	c-1.48,0.71-3.46,1.75-5.71,3.19c-5.4,10.07-10.2,20.43-14.27,31.11c-1.01,2.64-2.85,4.46-4.91,6.14c-4,3.28-4.7,7.5-3.69,12.26
	c1.34,5.94,2.52,11.92,4.11,17.8c0.44,1.61,2.08,2.9,3.17,4.33c0.74-0.65,1.77-1.15,2.18-1.97c3.74-7.51,10.98-10.44,17.86-13.92
	c8.07-4.08,16.19-8.09,24.96-10.41c1.93-0.51,6.32-3.47,5.95,2.6c1.1,4.04,0.59,4.56-6.39,6.58c-2.81,1.48-5.56,3.11-8.46,4.42
	c-10.19,4.62-20.47,9.04-30.62,13.73c-2.84,1.31-6.17,2.72-7.03,6.06c-2.49,9.63,4.26,25.27,13.37,31.23
	c5.27-11.68,11.94-19.39,16.6-23.95c0,0,12.6-12.33,22.17-11.88c1.33,0.06,5.05,0.24,6.39,2.57c0,0,0.36,0.63,0.46,1.41
	c0.62,4.85-20.9,19.22-34.18,35.1c-2.25,2.69-5.1,6.47-5.55,11.68c-0.35,4.06,0.97,8.27,3.92,13.28
	c3.74,6.36,8.25,12.53,10.53,19.42c2.12,6.39,4.46,9.08,10.97,6.32c5.44-5.51,13.01-2.35,19.22-4.71c2.72-0.93,5.37-2.2,8.16-2.72
	c7.92-1.48,10.46-6,8.3-13.53c-1.05-8.71-1.93-17.44-3.22-26.11c-0.93-6.26,1.54-12.03,2.01-18.07c0.11-1.39,0.54-3.43,2.46-3.72
	c2.33-0.36,3.15,1.73,3.99,3.29c4.76,8.85,6.67,18.42,6.11,28.35c-0.14,2.49,0.4,4.67,0.65,6.99c0.27,7.16-1.06,14.17-2.36,21.35
	c16.15-4.36,26.04-11.24,21.58-29.9c-0.39-3.72-0.78-7.44-1.17-11.16c-5.9-11.93-11.89-23.81-17.62-35.83
	c-1.41-2.95-3.94-7.21-0.23-9.29c3.33-1.86,6.21,2.05,8.44,4.6c8.73,10.02,14.36,21.8,18.98,34.12c1.49,2.75,3.37,6.96,4.35,12.38
	c0.97,5.31,0.72,9.83,0.32,12.9c2.8-2.08,7.53-6.21,10.83-12.97c5.45-11.16,3.22-21.75,2.42-24.95
	c-5.56-12.94-15.73-22.71-23.46-34.16c-2.88-4.26-5.67-8.57-9.01-13.63c21.54,2.59,36.1,17.77,41.75,42.09
	c0.32,0.6,0.82,1.44,1.56,2.34c1.12,1.36,2.32,2.81,3.71,2.91c1.72,0.13,3.63-1.8,4.64-4.67c-2.4-6,3.84-9.21,4.61-14.19
	c0.49-9.71-0.62-19.08-5.66-27.66c-1.2-1.06-2.41-2.11-3.61-3.16c-1.53-1.34-2.88-1.67-3.61-3.16c-0.13-0.26-0.86-1.73-0.29-2.46
	c0.62-0.8,2.67-0.52,5.11,0.74c1.08-0.11,2.15-0.22,3.23-0.33c-0.01-0.71-0.02-1.42-0.03-2.14c1.64-4.26,5.74-3.1,8.76-3.57
	c47.87-7.54,89.64,7.26,127.73,35.23c0.26,0.19,0.15,0.89,0.24,1.56c-11.6,6.88-19.33,14.68-24.22,20.59
	c-5.44,6.58-26.43,31.96-19.42,60.92c2.44,10.1,7.55,17.54,11.4,22.15c0.8-0.54,1.73-0.82,2.82-0.66c2.98,0.44,4.21,3.83,3.61,6.15
	c-1.62,6.28,5.84,6.7,6.57,11.23l0.15,0.11c1.4-0.28,2.54-0.04,3.04,1.51l0.16,0.13c0.48,0.48,0.97,0.97,1.45,1.45l0.15,0.15
	c0.49,0.49,0.97,0.97,1.46,1.46l0.13,0.15c6.1,3.57,7.1,9.69,7.93,15.89l0.05,0.06c2.57-7.25,7.5-13.4,9.54-20.96
	c1.52-5.62,3.42-11.25,8.56-15.01c-1.47,6.54-3.27,12.93-5.74,19.05c-2.03,5.03-0.78,8.17,4.01,10.26c2.61,1.14,4.99,2.56,7.95,3.13
	c5.08,0.98,10.25,4.63,14.89,3.94c5.87-0.88,5.88-8.76,9.46-12.92c11.73-13.63,21.08-28.74,27.62-45.51
	c8.06-20.69,14.68-41.59,10.57-64.36c-1.26-6.95-4.13-13.33-6.91-21.02c5.56,2.15,9.97,3.59,14.13,5.55
	c2.82,1.32,4.18,0.84,3.96-2.21c-0.6-8.39,3.98-15.26,6.54-22.68C580.17,103.04,588.61,74.78,578.26,44.9z M214.01,208.71
	c-1.98,1.11-2.5-1.38-2.3-2.93c0.75-5.79,4.89-9.39,9.16-12.51c2.12-1.55,3.04,0.99,3.81,3.47
	C220.93,200.27,218.99,205.92,214.01,208.71z M196.26,108.7c-0.01,0-0.18-0.41-0.27-0.62c0.93-0.12,1.86-0.24,2.8-0.36
	C197.95,108.06,197.11,108.39,196.26,108.7z M199.24,107.58c11.69-9.11,32.02-13.36,45.78-8.8
	C230.12,103.47,214.44,104.39,199.24,107.58z M311.06,114.7c-3.96-1.64-8.23-3.15-8.06-7.48c0.09-2.38,4.18-2.2,6.12-1.56
	C314.67,107.52,310.13,111.58,311.06,114.7z M313.68,114.57c-0.65-3.27-1.71-6.53,0.91-7.9c2.94-1.54,5.21,1.6,8.33,2.94
	C320.17,112.88,316.92,113.36,313.68,114.57z M468.95,218.57c-3.82,10.95-5.82,22.62-12.96,32.24c3.89,5.36-0.55,10.01-1.32,15
	c-2.17-5.05-2.86-10.06,0.19-15.03c-0.81-6.93-0.56-12.71-0.14-16.83c1.18-11.54,4.48-17.76,6.7-21.08
	c1.39-2.07,4.24-6.15,7.56-5.94c0.61,0.04,1.23,0.27,1.88,0.75C474.54,210.4,471.91,215.25,468.95,218.57z M492.8,155.36
	c-0.87,2.07-0.88,5.36-3.96,5.3c-2.67-0.05-3.83-2.67-4.62-4.97c-1.06-3.07-2.69-5.21-6.34-4.85c-3.36,0.33-5.3-2.25-7.64-3.89
	c-32.04-22.51-66.82-36.86-106.72-36.22c-7.78,0.13-15.45,1.12-23.14,2.16c-2.17,0.29-5.54,3.28-6.57-0.99
	c-0.85-3.53,2.97-3.92,5.24-4.93c15.14-6.74,30.28-13.48,45.51-20c23.59-10.1,47.25-20.02,70.88-30.02
	c2.92-1.24,5.54-3.25,6.67,2.33c6.17,30.44,23.26,53.46,48.9,70.49c0.59,0.39,0.96,1.1,1.98,2.33
	C500.74,135.39,496.94,145.5,492.8,155.36z M538.34,225.01c-1.26,3.92-4.57,4.83-8.95,4.84c-10.09-1.94-18.85-6.94-24.39-16.61
	c-1.89-3.3-0.85-5.25,3.2-4.2c8.74,2.28,17.71,3.97,25.7,8.47C536.72,219.09,539.61,221.07,538.34,225.01z"/>
<path class="st4" d="M319.28,506.19c-59.65-0.41-119.31-0.81-178.96-1.22c-6.23-21.77-12.46-43.54-18.7-65.3
	c-1.41-0.66-2.91-0.39-4.37-0.39c-34.88-0.01-69.76,0-104.64-0.01c-1.47,0-2.95-0.07-4.42-0.1c-3.08-0.19-3.86,0.88-2.63,3.88
	c1.09,2.66,1.5,5.59,2.31,8.37c3.78,13.04,7.77,26.03,11.29,39.14c1.31,4.89,2.97,9.7,4.15,14.88c-6.81,0-13.39,0.15-19.97-0.07
	c-1.32-0.04-2.14,0.12-2.63,0.6c-0.91,0.89-0.7,2.45-0.67,2.75c0.27,2.79,0.59,57.4,0.92,133.87c105.85,0.02,211.7,0.05,317.54,0.07
	C318.76,597.17,319.02,551.68,319.28,506.19z M139.35,510.28c6.59,23.66,13.32,47.29,20.01,70.92c1.77,6.24,3.44,12.5,5.37,18.69
	c0.8,2.56,0.08,3.05-2.37,3.02c-8.08-0.12-16.17-0.04-24.25-0.04c-7.97,0-15.94-0.08-23.91,0.05c-2.24,0.04-2.91-0.6-2.9-2.86
	c0.07-29.93,0.08-59.86,0.01-89.78c-0.01-2.33,0.54-3.14,3-3.09c6.94,0.16,13.89,0.17,20.84-0.01
	C137.65,507.1,138.67,507.85,139.35,510.28z M58.63,641.36c-17.98-0.14-35.96-0.09-53.94-0.05c-1.85,0.01-2.84-0.1-2.83-2.46
	c0.08-43.21,0.06-86.43,0.06-129.64c0-0.33,0.1-0.67,0.15-1.01c0.03-1.02,0.8-0.92,1.45-0.92c6.36-0.01,12.72,0,19.09,0
	c0.73,0,1.36,0.12,1.49,1c4.19,14.5,8.43,28.98,12.56,43.49c8.17,28.73,16.24,57.49,24.46,86.21
	C61.89,640.66,61.6,641.38,58.63,641.36z M106.52,641.33c-13.31-0.1-26.62-0.12-39.93,0.03c-2.34,0.03-3.15-0.9-3.67-2.85
	c-2.79-10.36-5.53-20.74-8.87-30.95c-0.6-1.85-0.52-3.05,2.21-2.98c8.41,0.21,16.83,0.07,25.25,0.07
	c8.42-0.01,16.84,0.07,25.25-0.06c2.22-0.03,2.88,0.52,2.85,2.82c-0.14,10.34-0.15,20.69,0.01,31.03
	C109.66,640.99,108.76,641.35,106.52,641.33z M109.49,508.6c0.08,30.27-0.01,60.53,0.12,90.8c0.01,3.18-0.92,3.57-3.82,3.54
	c-16.84-0.17-33.67-0.15-50.51,0.01c-2.28,0.02-2.9-0.9-3.4-2.67c-6.3-22.27-12.75-44.51-18.88-66.83
	c-2.48-9.02-4.72-18.12-7.32-27.08c-2.96-10.21-5.86-20.44-8.92-30.63c-3.2-10.64-6.03-21.4-9.15-32.07
	c-0.74-2.55-0.01-3.04,2.44-3.03c17.88,0.08,35.75,0.05,53.63,0.05c17.42-0.01,34.84,0.05,52.26-0.06c2.65-0.02,3.87,0.5,4.66,3.37
	c5.31,19.42,10.84,38.77,16.43,58.11c0.8,2.77,0.32,3.46-2.58,3.39c-7.28-0.18-14.57,0.11-21.85-0.12
	C109.86,505.27,109.49,506.17,109.49,508.6z M173.89,641.28c-10.01-0.08-20.01-0.04-30.02-0.04v-0.01c-9.78,0-19.56-0.09-29.34,0.06
	c-2.47,0.04-3.3-0.45-3.26-3.12c0.17-10.22,0.13-20.45,0.02-30.68c-0.02-2.15,0.39-2.92,2.75-2.9c16.49,0.11,32.98,0.09,49.46,0
	c1.98-0.01,2.74,0.62,3.25,2.47c2.9,10.62,5.87,21.22,8.99,31.78C176.39,641,175.88,641.29,173.89,641.28z M314.75,641.31
	c-2.26,0.04-58.83-0.2-136.13-0.58c-12.46-44.2-24.92-88.39-37.38-132.59c22.12-0.16,44.24-0.32,66.36-0.48
	c0.11,3.11,0.22,6.23,0.33,9.34c0.59,0.02,1.17,0.04,1.76,0.06c0.06-2.96,0.13-5.92,0.19-8.88c0.17-0.28,0.34-0.57,0.51-0.85
	c35.54,0.43,71.07,0.86,106.61,1.3c0.16,74.75,0.32,128.14,0.11,131.81C317.09,640.82,316.3,641.29,314.75,641.31z"/>
</svg>
