<?xml version="1.0" encoding="utf-8"?>
<!-- Generator: Adobe Illustrator 24.2.3, SVG Export Plug-In . SVG Version: 6.00 Build 0)  -->
<svg version="1.1" id="Слой_1" xmlns="http://www.w3.org/2000/svg" xmlns:xlink="http://www.w3.org/1999/xlink" x="0px" y="0px"
	 viewBox="0 0 585 516" style="enable-background:new 0 0 585 516;" xml:space="preserve">
<style type="text/css">
	.st0{fill:#00C377;}
	.st1{fill:#A6E5C3;}
	.st2{fill:#58D196;}
	.st3{fill:#88E5AF;}
	.st4{fill:#00B45A;}
	.st5{fill:#FFFFFF;}
	.st6{fill:#FF6567;}
	.st7{fill:url(#SVGID_1_);}
	.st8{fill:#ADD8C3;}
	.st9{fill:none;stroke:#FFFFFF;stroke-miterlimit:10;}
	.st10{fill:#A2CBAB;}
	.st11{fill:#96CDA1;}
	.st12{opacity:0.76;}
	.st13{fill:#C4E9CD;}
	.st14{fill:url(#SVGID_2_);}
	.st15{fill:url(#SVGID_3_);}
	.st16{fill:#F6E6BE;}
	.st17{fill:url(#SVGID_4_);}
	.st18{fill:url(#SVGID_5_);}
	.st19{fill:url(#SVGID_6_);}
	.st20{fill:#E4EEC4;}
	.st21{fill:#EFFBD2;}
	.st22{fill:url(#SVGID_7_);}
	.st23{fill:url(#SVGID_8_);}
	.st24{fill:url(#SVGID_9_);}
	.st25{fill:url(#SVGID_10_);}
	.st26{fill:#FFE493;}
	.st27{clip-path:url(#SVGID_12_);fill:url(#SVGID_13_);}
	.st28{fill:#5B2A1E;}
	.st29{fill:#907673;}
	.st30{fill:url(#SVGID_14_);}
	.st31{fill:url(#SVGID_15_);}
	.st32{fill:url(#SVGID_16_);}
	.st33{fill:url(#SVGID_17_);}
	.st34{fill:#FE82C8;}
	.st35{opacity:0.62;clip-path:url(#SVGID_19_);fill:#FFFFFF;}
	.st36{opacity:0.75;clip-path:url(#SVGID_19_);fill:#FFFFFF;}
	.st37{opacity:0.41;clip-path:url(#SVGID_19_);fill:#FFFFFF;}
	.st38{clip-path:url(#SVGID_19_);fill:none;}
	.st39{clip-path:url(#SVGID_21_);}
	.st40{opacity:0.26;fill:#FFFFFF;}
	.st41{opacity:0.69;fill:#FFFFFF;}
	.st42{fill:none;}
	.st43{opacity:0.16;fill:#FFFFFF;}
	.st44{opacity:0.3;fill:#FFFFFF;}
	.st45{opacity:0.23;fill:#FFFFFF;}
	.st46{opacity:0.24;fill:#FFFFFF;}
	.st47{opacity:0.17;}
	.st48{opacity:0.05;fill:#E2E8E4;}
	.st49{clip-path:url(#SVGID_23_);}
	.st50{opacity:0.76;clip-path:url(#SVGID_23_);fill:#FFFFFF;}
	.st51{clip-path:url(#SVGID_23_);fill:url(#SVGID_24_);}
	.st52{clip-path:url(#SVGID_23_);fill:none;stroke:#FFFFFF;stroke-width:2;stroke-linecap:round;stroke-miterlimit:10;}
	.st53{clip-path:url(#SVGID_23_);fill:url(#SVGID_25_);}
	.st54{clip-path:url(#SVGID_23_);fill:url(#SVGID_26_);}
	.st55{clip-path:url(#SVGID_23_);fill:url(#SVGID_27_);}
	.st56{clip-path:url(#SVGID_23_);fill:url(#SVGID_28_);}
	.st57{clip-path:url(#SVGID_23_);fill:#FFFFFF;}
	.st58{clip-path:url(#SVGID_23_);fill:url(#SVGID_29_);}
	.st59{opacity:0.62;clip-path:url(#SVGID_31_);fill:#FFFFFF;}
	.st60{clip-path:url(#SVGID_31_);fill:#FFFFFF;}
	.st61{opacity:0.41;clip-path:url(#SVGID_31_);fill:#FFFFFF;}
	.st62{clip-path:url(#SVGID_31_);fill:none;}
	.st63{clip-path:url(#SVGID_33_);}
	.st64{fill:url(#SVGID_34_);}
	.st65{opacity:0.74;clip-path:url(#SVGID_36_);fill:url(#SVGID_37_);}
	.st66{fill:#E5E5E5;}
	.st67{fill:none;stroke:#4D4D4D;stroke-width:0.75;stroke-linecap:round;stroke-miterlimit:10;}
	.st68{fill:url(#SVGID_38_);}
	.st69{opacity:0.74;fill:url(#SVGID_39_);}
	.st70{opacity:0.74;fill:url(#SVGID_40_);}
	.st71{opacity:0.74;fill:url(#SVGID_41_);}
	.st72{opacity:0.74;fill:url(#SVGID_42_);}
	.st73{fill:url(#SVGID_43_);}
	.st74{opacity:0.66;}
	.st75{opacity:0.37;fill:#FFFFFF;}
	.st76{fill:url(#SVGID_44_);}
	.st77{fill:url(#SVGID_45_);}
	.st78{opacity:0.44;clip-path:url(#SVGID_47_);fill:#FFFFD9;}
	.st79{opacity:0.43;clip-path:url(#SVGID_49_);fill:#FFFFFF;}
	.st80{clip-path:url(#SVGID_49_);fill:none;stroke:#FFFFFF;stroke-miterlimit:10;}
	.st81{opacity:0.76;clip-path:url(#SVGID_49_);fill:#FFFFFF;}
	.st82{clip-path:url(#SVGID_49_);fill:#FFFFFF;}
	.st83{opacity:0.08;clip-path:url(#SVGID_49_);fill:#FFFFFF;}
	.st84{opacity:0.27;clip-path:url(#SVGID_49_);fill:#FFFFFF;}
	.st85{opacity:0.37;clip-path:url(#SVGID_49_);fill:#FFFFFF;}
	.st86{clip-path:url(#SVGID_49_);fill:none;}
	.st87{fill:url(#SVGID_50_);}
	.st88{opacity:0.62;clip-path:url(#SVGID_52_);fill:#FFFFFF;}
	.st89{clip-path:url(#SVGID_52_);fill:#FFFFFF;}
	.st90{opacity:0.41;clip-path:url(#SVGID_52_);fill:#FFFFFF;}
	.st91{clip-path:url(#SVGID_52_);fill:none;}
	.st92{clip-path:url(#SVGID_54_);}
	.st93{opacity:0.55;fill:url(#SVGID_55_);}
	.st94{fill:url(#SVGID_56_);}
	.st95{fill:url(#SVGID_57_);}
	.st96{opacity:0.28;}
	.st97{opacity:0.56;clip-path:url(#SVGID_59_);fill:#FFFFFF;}
	.st98{opacity:0.43;clip-path:url(#SVGID_61_);fill:#FFFFFF;}
	.st99{clip-path:url(#SVGID_61_);fill:none;stroke:#FFFFFF;stroke-miterlimit:10;}
	.st100{opacity:0.76;clip-path:url(#SVGID_61_);fill:#FFFFFF;}
	.st101{clip-path:url(#SVGID_61_);fill:#FFFFFF;}
	.st102{opacity:0.08;clip-path:url(#SVGID_61_);fill:#FFFFFF;}
	.st103{opacity:0.27;clip-path:url(#SVGID_61_);fill:#FFFFFF;}
	.st104{opacity:0.37;clip-path:url(#SVGID_61_);fill:#FFFFFF;}
	.st105{clip-path:url(#SVGID_61_);fill:none;}
	.st106{clip-path:url(#SVGID_63_);fill:none;}
	.st107{opacity:0.46;}
	.st108{opacity:0.86;fill:#FFFFFF;}
	.st109{opacity:0.4;}
	.st110{opacity:0.73;fill:#FFFFFF;}
	.st111{opacity:0.54;clip-path:url(#SVGID_65_);fill:#FFFFFF;}
	.st112{fill:#FF8A8A;}
	.st113{opacity:0.75;fill:#FFFFFF;}
	.st114{fill:#FFC181;}
	.st115{clip-path:url(#SVGID_67_);fill:#FFDFBD;}
	.st116{clip-path:url(#SVGID_67_);fill:#FF9D00;}
	.st117{clip-path:url(#SVGID_67_);fill:#FFF3DF;}
	.st118{clip-path:url(#SVGID_69_);fill:#FFBAE4;}
	.st119{opacity:0.8;clip-path:url(#SVGID_69_);fill:#FE82C8;}
	.st120{clip-path:url(#SVGID_69_);fill:#FE82C8;}
	.st121{opacity:0.79;clip-path:url(#SVGID_69_);fill:#FFBAE4;}
	.st122{fill:#FFFEEA;}
	.st123{fill:#D2F2E1;}
	.st124{opacity:0.44;fill:#FFFFFF;}
	.st125{clip-path:url(#SVGID_71_);fill:#FFF9C1;}
	.st126{opacity:0.86;fill:#FFCCD5;}
	.st127{opacity:0.62;clip-path:url(#SVGID_73_);fill:#FFFFFF;}
	.st128{opacity:0.75;clip-path:url(#SVGID_73_);fill:#FFFFFF;}
	.st129{opacity:0.41;clip-path:url(#SVGID_73_);fill:#FFFFFF;}
	.st130{clip-path:url(#SVGID_73_);fill:none;}
	.st131{clip-path:url(#SVGID_75_);}
	.st132{opacity:0.44;clip-path:url(#SVGID_77_);fill:#FFFFFF;}
	.st133{opacity:0.43;clip-path:url(#SVGID_79_);fill:#FFFFFF;}
	.st134{clip-path:url(#SVGID_79_);fill:none;stroke:#FFFFFF;stroke-miterlimit:10;}
	.st135{opacity:0.76;clip-path:url(#SVGID_79_);fill:#FFFFFF;}
	.st136{clip-path:url(#SVGID_79_);fill:#FFFFFF;}
	.st137{opacity:0.08;clip-path:url(#SVGID_79_);fill:#FFFFFF;}
	.st138{opacity:0.27;clip-path:url(#SVGID_79_);fill:#FFFFFF;}
	.st139{opacity:0.37;clip-path:url(#SVGID_79_);fill:#FFFFFF;}
	.st140{clip-path:url(#SVGID_79_);fill:none;}
	.st141{opacity:0.54;clip-path:url(#SVGID_81_);fill:#FFFFFF;}
	.st142{opacity:0.62;fill:#FFFFFF;}
	.st143{opacity:0.41;fill:#FFFFFF;}
	.st144{opacity:0.43;fill:#FFFFFF;}
	.st145{opacity:0.76;fill:#FFFFFF;}
	.st146{opacity:0.08;fill:#FFFFFF;}
	.st147{opacity:0.27;fill:#FFFFFF;}
	.st148{opacity:0.54;fill:#FFFFFF;}
	.st149{clip-path:url(#SVGID_83_);fill:#FF6567;}
	.st150{clip-path:url(#SVGID_83_);fill:#FF8A8A;}
	.st151{clip-path:url(#SVGID_83_);fill:#FFC2C1;}
	.st152{clip-path:url(#SVGID_83_);fill:#FFFFFF;}
	.st153{clip-path:url(#SVGID_85_);fill:#E2E9FF;}
	.st154{clip-path:url(#SVGID_85_);fill:#EEF2FF;}
	.st155{opacity:0.54;clip-path:url(#SVGID_85_);fill:#EEF2FF;}
	.st156{opacity:0.54;clip-path:url(#SVGID_85_);fill:#8FAAF0;}
	.st157{clip-path:url(#SVGID_87_);}
	.st158{fill:#FF6B81;}
	.st159{clip-path:url(#SVGID_87_);fill:none;}
	.st160{fill:#FF1B6F;}
	.st161{clip-path:url(#SVGID_89_);fill:#FFDFBD;}
	.st162{clip-path:url(#SVGID_89_);fill:#FF9D00;}
	.st163{clip-path:url(#SVGID_89_);fill:#FFF3DF;}
	.st164{clip-path:url(#SVGID_91_);fill:#F0C6F4;}
	.st165{opacity:0.8;clip-path:url(#SVGID_91_);fill:#F8E3F8;}
	.st166{clip-path:url(#SVGID_91_);fill:#F8E3F8;}
	.st167{opacity:0.79;clip-path:url(#SVGID_91_);fill:#F0C6F4;}
	.st168{clip-path:url(#SVGID_93_);fill:#FFF9C1;}
	.st169{clip-path:url(#SVGID_95_);fill:#FFC5D6;}
	.st170{clip-path:url(#SVGID_95_);fill:#FF94B3;}
	.st171{clip-path:url(#SVGID_95_);fill:#FF6794;}
	.st172{clip-path:url(#SVGID_95_);fill:#FFFFFF;}
	.st173{clip-path:url(#SVGID_97_);fill:#698DE6;}
	.st174{clip-path:url(#SVGID_97_);fill:#8FAAF0;}
	.st175{opacity:0.54;clip-path:url(#SVGID_97_);fill:#8FAAF0;}
	.st176{clip-path:url(#SVGID_99_);}
	.st177{clip-path:url(#SVGID_99_);fill:none;}
	.st178{opacity:0.46;clip-path:url(#SVGID_101_);}
	.st179{clip-path:url(#SVGID_101_);fill:none;}
	.st180{fill:none;stroke:#FFFFFF;stroke-width:2;stroke-miterlimit:10;}
	.st181{opacity:0.45;fill:#FFFFFF;}
	.st182{opacity:0.8;fill:#FFFFFF;}
	.st183{opacity:0.79;fill:#FFFFFF;}
	.st184{fill:#F2C5AA;}
	.st185{fill:none;stroke:#FFFFFF;stroke-width:0.75;stroke-miterlimit:10;}
	.st186{fill:#FFFFFF;stroke:#FFFFFF;stroke-width:0.25;stroke-miterlimit:10;}
	.st187{fill:#D3C1B2;}
	.st188{fill:#FFC5D6;}
	.st189{clip-path:url(#SVGID_109_);fill:#F787A5;}
	.st190{clip-path:url(#SVGID_109_);fill:#FFE9F2;}
	.st191{clip-path:url(#SVGID_109_);fill:#D3CFB3;}
	.st192{clip-path:url(#SVGID_109_);fill:#FFDBE5;}
	.st193{clip-path:url(#SVGID_109_);}
	.st194{fill:#FFE9F2;}
	.st195{fill:#F787A5;}
	.st196{fill:#F2CCC1;}
	.st197{fill:#DF4E50;}
	.st198{clip-path:url(#SVGID_109_);fill:#FFC5D6;}
	.st199{fill:#FFDBE5;}
	.st200{fill:#FFB9C3;}
	.st201{fill:#FB91B5;}
	.st202{fill:#E3A180;}
	.st203{fill:#92693D;}
	.st204{fill:#FBBACC;}
	.st205{fill:#E6678D;}
	.st206{fill:#574435;}
	.st207{fill:#C9A47C;}
	.st208{fill:#641F1E;}
	.st209{fill:#F15E89;}
	.st210{fill:#E7005E;}
	.st211{fill:#DEB78A;}
	.st212{fill:#DFB78A;}
	.st213{fill:#FF6794;}
	.st214{fill:#D72264;}
	.st215{fill:#F7F7F7;}
	.st216{fill:#F2F2F2;}
	.st217{fill:#FFFBF0;}
	.st218{fill:#FFBFCF;}
	.st219{fill:#FF9DAE;}
	.st220{fill:#FFC2C1;}
	.st221{fill:#FFCCD5;}
	.st222{fill:#B49E8F;}
	.st223{fill:#FFE2EA;}
	.st224{fill:#A3C5DC;}
	.st225{fill:#DA956B;}
	.st226{fill:#BDA595;}
	.st227{fill:#583B34;}
	.st228{fill:#63443C;}
	.st229{fill:#B2D0E5;}
	.st230{fill:#FCFCFB;}
	.st231{fill:#D0ACA1;}
	.st232{fill:#A2C4DB;}
	.st233{fill:#E1D0C8;}
	.st234{fill:#9C7972;}
	.st235{fill:#77573F;}
	.st236{fill:#F3769C;}
	.st237{fill:#FBFBF9;}
	.st238{fill:#F8C4DC;}
	.st239{fill:#E4BAB5;}
	.st240{clip-path:url(#SVGID_111_);fill:#F787A5;}
	.st241{clip-path:url(#SVGID_111_);fill:#FFE9F2;}
	.st242{clip-path:url(#SVGID_111_);fill:#D3CFB3;}
	.st243{clip-path:url(#SVGID_111_);fill:#FFDBE5;}
	.st244{clip-path:url(#SVGID_111_);}
	.st245{clip-path:url(#SVGID_111_);fill:#FFC5D6;}
	.st246{fill:#7FDAAA;}
	.st247{fill:#F2BC3A;}
	.st248{fill:#B99F65;}
	.st249{fill:#98D284;}
	.st250{fill:#3C3724;}
	.st251{fill:#D6BEA2;}
	.st252{fill:#9C8274;}
	.st253{fill:#587147;}
	.st254{fill:#E7D6BE;}
	.st255{fill:#5CC689;}
	.st256{clip-path:url(#SVGID_113_);fill:#A6E5C3;}
	.st257{clip-path:url(#SVGID_113_);fill:#FFFFFF;}
	.st258{clip-path:url(#SVGID_113_);fill:#58D196;}
</style>
<path class="st246" d="M210.79,92.62c8.82-12.22,18.42-23.85,29.25-34.27c11.88-11.42,25.36-20.93,39.7-29.14
	c25.87-14.81,53.8-23.54,83.39-25.63c46.02-3.24,88.89,6.94,127.83,32.57c24.23,15.94,44.21,35.98,59.87,60.19
	c17.17,26.54,27.39,55.66,30.85,87.21c3.78,34.46-0.5,67.77-13.69,99.74c-8.94,21.67-21.08,41.51-37.15,58.81
	c-4.5,4.85-8.47,10.19-14.04,13.96c-3.01,2.04-1.52,3.31,0.75,4.46c-2.93,3.45-7.06,2.51-10.71,2.58c-16.9,0.3-33.82-0.41-50.7,0.27
	c-18.89,0.76-37.77,1.2-56.66,1.05c-15-0.13-22.09-7.25-22.1-22.3c0-4.6-0.62-9.25,0.6-13.79c0.84-3.64,3.76-4.28,6.84-4.63
	c3.57-0.41,7.19-0.08,10.75-0.53c3.37-0.42,6.23-1.87,6.95-5.55c0.71-3.62-0.2-6.69-3.73-8.63c-2.07-1.14-4.37-2.04-5.71-4.22
	c-1.97-5.13-1.33-10.37-0.67-15.61c0.51-2.03,1.94-3.62,2.64-5.56c7.68-19.32,14.19-38.95,16.28-59.8c0.18-1.8,0.61-3.54,1.52-5.13
	c2.46-2.4,3.43-5.31,3.19-8.73c-0.13-1.8,0.05-3.62-0.03-5.42c-0.17-4,1.25-8.46-0.72-11.88c-2.39-4.14-7.39-1.41-11.13-2.31
	c-2.19-0.52-4.32-0.97-5.81-2.85c-0.3-0.74-0.22,0.28-0.3-0.5c-0.62-5.76-3.03-10.29-8.58-12.74c-1.69-3.28-0.99-6.61-0.46-10.02
	c1.11-7.13-0.19-8.62-7.47-8.64c-29.17-0.06-58.34-0.02-87.5-0.02c-33.19,0-66.38,0.02-99.57-0.02c-2.99,0-6.05,0.38-8.94-0.81
	c-4.2-2.38-3.18-6.08-2.1-9.52c3.55-11.28,7.78-22.33,13.45-32.71c3.54-6.47,6.65-13.21,11.11-19.17
	C208.84,92.74,209.78,92.53,210.79,92.62z"/>
<path class="st0" d="M497.15,467.58c-0.06,5.35-0.32,10.7-0.12,16.03c0.21,5.82-0.3,11.46-2.61,16.86
	c-1.59,7.41-8.21,12.14-17.5,12.43c-23.25,0.72-46.52,0.93-69.76,1.49c-27.88,0.68-55.76,0.46-83.62,1.23
	c-10.18,0.28-20.37,0.86-30.57,0.88c-14.75-1.32-29.54-0.29-44.31-0.67c-8.84-0.68-14.36-5.7-17.68-13.59
	c-0.27-1.02-0.51-2.04-0.94-3.02c-2.25-6.77-1.06-13.69-0.89-20.57c-0.48-11.83-2.06-23.59-1.59-35.48
	c0.63-15.68,10.2-25.83,25.96-25.65c28.74,0.32,57.43-2.09,86.17-1.37c7.23,0.18,14.48-0.25,21.71,0.27
	c4.88-1.33,9.85-1.52,14.88-1.48c9.84,0.08,19.68-0.07,29.51,0.04c22.07,0.25,44.09-1.36,66.16-1.48
	c14.16-0.08,28.13,11.07,26.39,26.83c-0.35,3.17-0.06,6.42,0.37,9.61C498.84,455.87,501.24,462.02,497.15,467.58z"/>
<path class="st0" d="M497.15,467.58c-0.67-5.5-0.7-11.01-0.36-16.53c2.71-2.92,6.32-1.95,9.65-2.24c5.39-0.48,10.87-0.59,15.19-4.68
	c2.61-2.47,4.26-5.29,4.28-8.96c0.08-13.47,0.27-26.95-0.06-40.41c-0.24-9.8-6.24-15.23-16.13-15.91c-7.28-0.5-14.4,1.3-21.64,1.11
	c-5.4-1.37-10.76,0.43-16.16,0.21c-23.25-0.94-46.47,0.75-69.71,1.26c-14.67,0.32-26.84-3.66-35.37-16.17
	c-4.28-6.31-6.2-13.39-6.31-22.3c-48.2,48-105.39,69.99-172.19,64.23c-18.39-1.59-35.74-5.44-52.1-11.39
	c-42.14-15.32-68.9-40.57-80.97-53.56c-10.31-11.1-16.4-20.13-23.43-30.55C9.94,279.26,2.08,254.65,1.8,234.96
	c-0.07-5.19-0.12-16.07,4.98-18.05c2.94-1.14,6.56,1.06,8.96,2.92c0.94,1.26,1.33,2.77,1.81,4.24c-0.01,0.58-0.01,1.17,0,1.77
	c0.07,4.63,0.63,8.94,1.47,12.88c5.37,19.08,12.34,37.51,21.6,55.08c1.51,2.85,3.06,5.57,5.16,8
	c30.43,46.04,72.27,75.93,126.72,85.76c65.39,11.81,122.49-6.3,170.73-52.04c3.92-3.72,7.48-7.85,12.38-10.44
	c6.15-1.21,12.35-0.53,18.52-0.53c2.04,0,3.97,0.53,5.25,2.36c0.12,5.83,0.23,11.66,0.35,17.49c0.22,10.98,6.81,17.7,17.8,17.56
	c37.01-0.47,74.02-1.12,111.02-1.66c3-0.04,6,0.15,9,0.24c17.68,4.56,27.26,16.52,27.57,34.55c0.21,12.43,0.38,24.87,0.44,37.3
	c0.1,20.5-13.38,34.29-33.97,34.87C506.78,467.37,501.96,467.47,497.15,467.58z"/>
<path class="st5" d="M23.51,175.04c0.02-4.66-0.86-9.16-2.21-13.6c-0.13-1.21-0.25-2.42-0.38-3.63c-1.19-3.77-0.26-5.44,4.14-5.45
	c27.5-0.09,54.97-1.76,82.48-1.16c22.49,0.5,44.98-0.44,67.46-0.69c3.19-0.03,6.49-0.33,9.16,2.07c2.21,0.09,4.41,0.25,6.62,0.25
	c65.15,0.02,130.31,0.09,195.46-0.11c5.5-0.02,7.03,1.22,5.92,6.69c-1.03,5.08-1.04,10.37-1.5,15.57c1.06,2.18,0.52,3.93-1.4,5.33
	c-3.12,1.17-5.92-0.36-8.72-1.25c-7.57-2.39-14.96-2.18-22.28,0.95c-9.75,4.16-13.7,11.98-12.94,22.51
	c1.05,14.53,3.79,28.96,2.74,43.63c-2.3,3.04-3.91,6.55-6.4,9.47c-10.4,12.19-27.94,14.47-40.79,4.99
	c-6.51-4.81-9.43-11.35-7.61-19.57c0.09-0.39,0.16-0.79,0.29-1.17c7.02-20.58-6.98-29.12-21.92-31.11
	c-17.78-2.36-25.4,2.23-32.11,19.06c-8.32,20.85-9.57,42.59-7.49,64.68c0.09,1,0.23,2.01,0.46,2.98c1.92,7.97,0.79,15.07-6.85,19.42
	c-7.86,4.48-15.94,3.71-23.5-0.96c-5.56-3.43-7.23-8.9-6.64-15.16c0.31-3.23,1.43-6.28,2.59-9.28c8.58-22.16,8.39-44.74,3.59-67.64
	c-5.6-26.69-30.6-34.23-48.88-32.23c-11.97,1.31-23.12,5.1-33.75,10.66c-8.23,4.3-16.72,8-26,9.39
	c-25.7,3.85-47.47-4.56-66.54-21.37c-0.6-0.53-1.23-1.04-1.87-1.54C22.16,183.06,21.1,179.22,23.51,175.04z"/>
<path class="st1" d="M346.84,246.03c-1.08-12.56-2.35-25.1-3.14-37.67c-0.34-5.32-2.36-10.57-0.37-16.06
	c4.19-11.52,17.52-19.09,30.62-17.2c5.41,0.78,10.49,2.56,15.53,4.54c5.43,0.82,7.7,4.61,8.89,9.42c0.7,4.31-0.16,8.75,1.06,13.02
	c0.29,1.47,0.99,2.83,1.25,4.32c0.23,1.25,0.23,2.5,0.06,3.76c-0.31,2.23-1.15,4.37-0.98,6.68c-0.09,4.86,0.19,9.72-0.2,14.58
	c-1.8,24.58-3.6,49.15-5.4,73.73c-0.94,1.45-2.41,2.27-4.01,2.29c-11.53,0.15-22.98,2.28-34.56,1.36c-1.62-0.13-3.14-0.53-4.48-1.46
	c-2.08-1.92-2.49-4.48-2.67-7.12c-0.93-13.99-1.99-27.96-3.53-41.89C344.45,254.06,344.78,249.9,346.84,246.03z"/>
<path class="st2" d="M351.14,306.21c14.34-0.36,28.69-0.72,43.03-1.07c5.31,0.66,9.95,2.34,11.05,8.38c0.82,4.5-0.3,8.35-4.54,10.89
	c-2.19,1.31-4.55,1.39-6.98,1.46c-4.79,0.14-9.62-0.38-14.32,1.03c-8.44,0.05-16.89,0.1-25.33,0.15c-6.37,2.77-12.31,0.36-15.04-6.1
	c-2.41-5.71,0.81-13.34,6.58-15.51C347.56,304.7,349.48,304.52,351.14,306.21z"/>
<path class="st0" d="M395.96,283.83c0.41-6.29,0.8-12.59,1.2-18.89c0.88-14.22,1.73-28.39,2.54-42.52
	c4.85-1.04,9.71-2.08,14.56-3.13c-0.89,9.37-2.68,20.62-6.2,33.05C404.52,264.81,400.12,275.37,395.96,283.83z"/>
<path class="st1" d="M414.25,219.3c-4.51,0.04-9.02,0.09-13.53,0.13c-0.55,0.53-1.13,0.58-1.76,0.16c-0.6-1.26-0.32-2.6-0.39-3.91
	c0.23-1.93-0.54-3.97,0.58-5.81c0.01-1.21,0.02-2.42,0.03-3.62c-0.96-1.07-0.48-2.37-0.58-3.58c-0.07-0.8-0.57-1.18-0.3-0.42
	c0.02,0.05-0.27,0.21-0.41,0.31c-2-4.34-1.2-8.9-1.09-13.41c1.29-0.1,1.55-1.63,2.68-1.96c4.75,1.32,9.6,0.58,14.4,0.62
	c3.27,0.02,4.73,1.1,4.65,4.56c-0.17,7.43-0.18,14.87-0.02,22.31C418.58,217.82,416.99,218.96,414.25,219.3z"/>
<g>
	<path class="st2" d="M367.91,363.47c-4.52-7.83-5.49-16.48-5.81-25.78c-2.23,1.51-3.52,3.53-5.2,5.16
		c-30.64,29.72-63.92,48.96-99.79,57.67c-9.25,2.25-56.48,13.29-113.4-4.94c-49.86-15.97-80.76-45.93-94.09-60.55
		c7.44,47.95,14.87,95.9,22.31,143.86c52.99,0.1,105.98,0.2,158.97,0.3c-0.23-11.63-0.57-23.26-0.68-34.9
		c-0.15-15.34,8.34-24.05,23.56-24.29c33.12-0.52,66.24-0.99,99.36-1.51c2.8-0.04,5.6-0.33,8.4-0.51c3.36-2.4,2.33-6.28,3.21-9.51
		c1.81-11.84,3.04-23.75,4.39-35.65C369.51,369.51,369.26,366.46,367.91,363.47z"/>
	<path class="st2" d="M253.18,388.1c39.93-9.8,73.8-29.88,100.87-61.05c-9.05-0.54-13.52-3.74-13.9-9.95
		c-0.36-5.77,3.84-9.93,10.98-10.89c-1.43-20.06-2.86-40.12-4.29-60.18c-2.42,0.36-2.88,2.61-3.94,4.21
		c-2.35,3.56-5.08,6.73-8.61,9.18c-9.15,6.36-22.49,6.29-31.82-0.21c-8.91-6.21-8.5-14.2-5.42-23.52
		c3.32-10.04-0.64-18.93-9.73-24.23c-9-5.25-19.03-6.59-29.13-5.54c-10.49,1.09-15.81,9.08-19.54,17.78
		c-10.36,24.13-12.28,49.29-8,75.01c0.66,3.99,0.63,7.58-1.85,10.87c-4.83,6.39-16.06,7.93-24.3,3.35
		c-6.82-3.79-9.17-10.37-5.6-18.73c8.92-20.85,9.89-42.43,6.93-64.48c-4.08-30.38-25.68-46.36-56.15-42.05
		c-12.99,1.84-24.72,6.75-36.23,12.62c-12.63,6.44-25.86,9.43-40.2,7.59c-18.25-2.35-33.41-10.9-47.34-22.23
		c-2.37,1.98-1.99,4.59-1.66,7.2c1.51,12.1,3.88,24.05,5.78,36.09c1.75,5.2,2.12,10.64,2.81,16.03c1.11,6.68,1.49,13.47,2.78,20.13
		c2.41,12.49,2.63,25.45,8.18,37.25c0.66,1.23,1.23,2.52,1.99,3.69C90.14,373.8,174.68,407.37,253.18,388.1z"/>
</g>
<path class="st4" d="M488.53,377.56c-22.71,15.24-47.79,24.28-74.61,29.09c-16.96,3.04-34.02,2.37-51.09,2.32
	c0.82-15.27,3.32-30.35,5.07-45.51c8.44,11.48,19.79,15.87,33.96,15.42C430.74,377.96,459.63,377.18,488.53,377.56z"/>
<path class="st0" d="M25.95,185.64c2.24,14.87,4.48,29.75,6.72,44.62c-0.24,1.18-0.81,2.11-1.94,2.63
	c-2.08,1.02-4.27,0.43-6.42,0.42c-2.64-0.01-4.67,0.72-5.32,3.59c-0.34,0.81-0.83,1.49-1.66,1.87c-1.01-6.99-2.02-13.97-3.03-20.96
	c1.06-14.37,2.13-28.75,3.19-43.12c2,0.12,4,0.24,6,0.35C24.32,178.58,25.14,182.11,25.95,185.64z"/>
</svg>
