<svg version="1.1" id="Слой_1" xmlns="http://www.w3.org/2000/svg" x="0" y="0" viewBox="0 0 585 516" xml:space="preserve"><style>.st0{fill:#00c377}.st1{fill:#a6e5c3}.st2{fill:#58d196}</style><path d="M210.79 92.62c8.82-12.22 18.42-23.85 29.25-34.27 11.88-11.42 25.36-20.93 39.7-29.14 25.87-14.81 53.8-23.54 83.39-25.63 46.02-3.24 88.89 6.94 127.83 32.57 24.23 15.94 44.21 35.98 59.87 60.19 17.17 26.54 27.39 55.66 30.85 87.21 3.78 34.46-.5 67.77-13.69 99.74-8.94 21.67-21.08 41.51-37.15 58.81-4.5 4.85-8.47 10.19-14.04 13.96-3.01 2.04-1.52 3.31.75 4.46-2.93 3.45-7.06 2.51-10.71 2.58-16.9.3-33.82-.41-50.7.27-18.89.76-37.77 1.2-56.66 1.05-15-.13-22.09-7.25-22.1-22.3 0-4.6-.62-9.25.6-13.79.84-3.64 3.76-4.28 6.84-4.63 3.57-.41 7.19-.08 10.75-.53 3.37-.42 6.23-1.87 6.95-5.55.71-3.62-.2-6.69-3.73-8.63-2.07-1.14-4.37-2.04-5.71-4.22-1.97-5.13-1.33-10.37-.67-15.61.51-2.03 1.94-3.62 2.64-5.56 7.68-19.32 14.19-38.95 16.28-59.8.18-1.8.61-3.54 1.52-5.13 2.46-2.4 3.43-5.31 3.19-8.73-.13-1.8.05-3.62-.03-5.42-.17-4 1.25-8.46-.72-11.88-2.39-4.14-7.39-1.41-11.13-2.31-2.19-.52-4.32-.97-5.81-2.85-.3-.74-.22.28-.3-.5-.62-5.76-3.03-10.29-8.58-12.74-1.69-3.28-.99-6.61-.46-10.02 1.11-7.13-.19-8.62-7.47-8.64-29.17-.06-58.34-.02-87.5-.02-33.19 0-66.38.02-99.57-.02-2.99 0-6.05.38-8.94-.81-4.2-2.38-3.18-6.08-2.1-9.52 3.55-11.28 7.78-22.33 13.45-32.71 3.54-6.47 6.65-13.21 11.11-19.17.85-.59 1.79-.8 2.8-.71z" fill="#7fdaaa"/><path class="st0" d="M497.15 467.58c-.06 5.35-.32 10.7-.12 16.03.21 5.82-.3 11.46-2.61 16.86-1.59 7.41-8.21 12.14-17.5 12.43-23.25.72-46.52.93-69.76 1.49-27.88.68-55.76.46-83.62 1.23-10.18.28-20.37.86-30.57.88-14.75-1.32-29.54-.29-44.31-.67-8.84-.68-14.36-5.7-17.68-13.59-.27-1.02-.51-2.04-.94-3.02-2.25-6.77-1.06-13.69-.89-20.57-.48-11.83-2.06-23.59-1.59-35.48.63-15.68 10.2-25.83 25.96-25.65 28.74.32 57.43-2.09 86.17-1.37 7.23.18 14.48-.25 21.71.27 4.88-1.33 9.85-1.52 14.88-1.48 9.84.08 19.68-.07 29.51.04 22.07.25 44.09-1.36 66.16-1.48 14.16-.08 28.13 11.07 26.39 26.83-.35 3.17-.06 6.42.37 9.61.13 5.93 2.53 12.08-1.56 17.64z"/><path class="st0" d="M497.15 467.58c-.67-5.5-.7-11.01-.36-16.53 2.71-2.92 6.32-1.95 9.65-2.24 5.39-.48 10.87-.59 15.19-4.68 2.61-2.47 4.26-5.29 4.28-8.96.08-13.47.27-26.95-.06-40.41-.24-9.8-6.24-15.23-16.13-15.91-7.28-.5-14.4 1.3-21.64 1.11-5.4-1.37-10.76.43-16.16.21-23.25-.94-46.47.75-69.71 1.26-14.67.32-26.84-3.66-35.37-16.17-4.28-6.31-6.2-13.39-6.31-22.3-48.2 48-105.39 69.99-172.19 64.23-18.39-1.59-35.74-5.44-52.1-11.39-42.14-15.32-68.9-40.57-80.97-53.56-10.31-11.1-16.4-20.13-23.43-30.55-21.9-32.43-29.76-57.04-30.04-76.73-.07-5.19-.12-16.07 4.98-18.05 2.94-1.14 6.56 1.06 8.96 2.92.94 1.26 1.33 2.77 1.81 4.24-.01.58-.01 1.17 0 1.77.07 4.63.63 8.94 1.47 12.88 5.37 19.08 12.34 37.51 21.6 55.08 1.51 2.85 3.06 5.57 5.16 8 30.43 46.04 72.27 75.93 126.72 85.76 65.39 11.81 122.49-6.3 170.73-52.04 3.92-3.72 7.48-7.85 12.38-10.44 6.15-1.21 12.35-.53 18.52-.53 2.04 0 3.97.53 5.25 2.36.12 5.83.23 11.66.35 17.49.22 10.98 6.81 17.7 17.8 17.56 37.01-.47 74.02-1.12 111.02-1.66 3-.04 6 .15 9 .24 17.68 4.56 27.26 16.52 27.57 34.55.21 12.43.38 24.87.44 37.3.1 20.5-13.38 34.29-33.97 34.87-4.81.11-9.63.21-14.44.32z"/><path d="M23.51 175.04c.02-4.66-.86-9.16-2.21-13.6-.13-1.21-.25-2.42-.38-3.63-1.19-3.77-.26-5.44 4.14-5.45 27.5-.09 54.97-1.76 82.48-1.16 22.49.5 44.98-.44 67.46-.69 3.19-.03 6.49-.33 9.16 2.07 2.21.09 4.41.25 6.62.25 65.15.02 130.31.09 195.46-.11 5.5-.02 7.03 1.22 5.92 6.69-1.03 5.08-1.04 10.37-1.5 15.57 1.06 2.18.52 3.93-1.4 5.33-3.12 1.17-5.92-.36-8.72-1.25-7.57-2.39-14.96-2.18-22.28.95-9.75 4.16-13.7 11.98-12.94 22.51 1.05 14.53 3.79 28.96 2.74 43.63-2.3 3.04-3.91 6.55-6.4 9.47-10.4 12.19-27.94 14.47-40.79 4.99-6.51-4.81-9.43-11.35-7.61-19.57.09-.39.16-.79.29-1.17 7.02-20.58-6.98-29.12-21.92-31.11-17.78-2.36-25.4 2.23-32.11 19.06-8.32 20.85-9.57 42.59-7.49 64.68.09 1 .23 2.01.46 2.98 1.92 7.97.79 15.07-6.85 19.42-7.86 4.48-15.94 3.71-23.5-.96-5.56-3.43-7.23-8.9-6.64-15.16.31-3.23 1.43-6.28 2.59-9.28 8.58-22.16 8.39-44.74 3.59-67.64-5.6-26.69-30.6-34.23-48.88-32.23-11.97 1.31-23.12 5.1-33.75 10.66-8.23 4.3-16.72 8-26 9.39-25.7 3.85-47.47-4.56-66.54-21.37-.6-.53-1.23-1.04-1.87-1.54-2.48-3.71-3.54-7.55-1.13-11.73z" fill="#fff"/><path class="st1" d="M346.84 246.03c-1.08-12.56-2.35-25.1-3.14-37.67-.34-5.32-2.36-10.57-.37-16.06 4.19-11.52 17.52-19.09 30.62-17.2 5.41.78 10.49 2.56 15.53 4.54 5.43.82 7.7 4.61 8.89 9.42.7 4.31-.16 8.75 1.06 13.02.29 1.47.99 2.83 1.25 4.32.23 1.25.23 2.5.06 3.76-.31 2.23-1.15 4.37-.98 6.68-.09 4.86.19 9.72-.2 14.58l-5.4 73.73c-.94 1.45-2.41 2.27-4.01 2.29-11.53.15-22.98 2.28-34.56 1.36-1.62-.13-3.14-.53-4.48-1.46-2.08-1.92-2.49-4.48-2.67-7.12-.93-13.99-1.99-27.96-3.53-41.89-.46-4.27-.13-8.43 1.93-12.3z"/><path class="st2" d="M351.14 306.21c14.34-.36 28.69-.72 43.03-1.07 5.31.66 9.95 2.34 11.05 8.38.82 4.5-.3 8.35-4.54 10.89-2.19 1.31-4.55 1.39-6.98 1.46-4.79.14-9.62-.38-14.32 1.03l-25.33.15c-6.37 2.77-12.31.36-15.04-6.1-2.41-5.71.81-13.34 6.58-15.51 1.97-.74 3.89-.92 5.55.77z"/><path class="st0" d="M395.96 283.83c.41-6.29.8-12.59 1.2-18.89.88-14.22 1.73-28.39 2.54-42.52 4.85-1.04 9.71-2.08 14.56-3.13-.89 9.37-2.68 20.62-6.2 33.05a187.298 187.298 0 01-12.1 31.49z"/><path class="st1" d="M414.25 219.3c-4.51.04-9.02.09-13.53.13-.55.53-1.13.58-1.76.16-.6-1.26-.32-2.6-.39-3.91.23-1.93-.54-3.97.58-5.81l.03-3.62c-.96-1.07-.48-2.37-.58-3.58-.07-.8-.57-1.18-.3-.42.02.05-.27.21-.41.31-2-4.34-1.2-8.9-1.09-13.41 1.29-.1 1.55-1.63 2.68-1.96 4.75 1.32 9.6.58 14.4.62 3.27.02 4.73 1.1 4.65 4.56-.17 7.43-.18 14.87-.02 22.31.07 3.14-1.52 4.28-4.26 4.62z"/><path class="st2" d="M367.91 363.47c-4.52-7.83-5.49-16.48-5.81-25.78-2.23 1.51-3.52 3.53-5.2 5.16-30.64 29.72-63.92 48.96-99.79 57.67-9.25 2.25-56.48 13.29-113.4-4.94-49.86-15.97-80.76-45.93-94.09-60.55 7.44 47.95 14.87 95.9 22.31 143.86l158.97.3c-.23-11.63-.57-23.26-.68-34.9-.15-15.34 8.34-24.05 23.56-24.29 33.12-.52 66.24-.99 99.36-1.51 2.8-.04 5.6-.33 8.4-.51 3.36-2.4 2.33-6.28 3.21-9.51 1.81-11.84 3.04-23.75 4.39-35.65.37-3.31.12-6.36-1.23-9.35z"/><path class="st2" d="M253.18 388.1c39.93-9.8 73.8-29.88 100.87-61.05-9.05-.54-13.52-3.74-13.9-9.95-.36-5.77 3.84-9.93 10.98-10.89l-4.29-60.18c-2.42.36-2.88 2.61-3.94 4.21-2.35 3.56-5.08 6.73-8.61 9.18-9.15 6.36-22.49 6.29-31.82-.21-8.91-6.21-8.5-14.2-5.42-23.52 3.32-10.04-.64-18.93-9.73-24.23-9-5.25-19.03-6.59-29.13-5.54-10.49 1.09-15.81 9.08-19.54 17.78-10.36 24.13-12.28 49.29-8 75.01.66 3.99.63 7.58-1.85 10.87-4.83 6.39-16.06 7.93-24.3 3.35-6.82-3.79-9.17-10.37-5.6-18.73 8.92-20.85 9.89-42.43 6.93-64.48-4.08-30.38-25.68-46.36-56.15-42.05-12.99 1.84-24.72 6.75-36.23 12.62-12.63 6.44-25.86 9.43-40.2 7.59-18.25-2.35-33.41-10.9-47.34-22.23-2.37 1.98-1.99 4.59-1.66 7.2 1.51 12.1 3.88 24.05 5.78 36.09 1.75 5.2 2.12 10.64 2.81 16.03 1.11 6.68 1.49 13.47 2.78 20.13 2.41 12.49 2.63 25.45 8.18 37.25.66 1.23 1.23 2.52 1.99 3.69 44.35 67.76 128.89 101.33 207.39 82.06z"/><path d="M488.53 377.56c-22.71 15.24-47.79 24.28-74.61 29.09-16.96 3.04-34.02 2.37-51.09 2.32.82-15.27 3.32-30.35 5.07-45.51 8.44 11.48 19.79 15.87 33.96 15.42 28.88-.92 57.77-1.7 86.67-1.32z" fill="#00b45a"/><path class="st0" d="M25.95 185.64l6.72 44.62c-.24 1.18-.81 2.11-1.94 2.63-2.08 1.02-4.27.43-6.42.42-2.64-.01-4.67.72-5.32 3.59-.34.81-.83 1.49-1.66 1.87l-3.03-20.96c1.06-14.37 2.13-28.75 3.19-43.12 2 .12 4 .24 6 .35.83 3.54 1.65 7.07 2.46 10.6z"/></svg>