<?xml version="1.0" encoding="utf-8"?>
<!-- Generator: Adobe Illustrator 24.2.3, SVG Export Plug-In . SVG Version: 6.00 Build 0)  -->
<svg version="1.1" id="Слой_1" xmlns="http://www.w3.org/2000/svg" xmlns:xlink="http://www.w3.org/1999/xlink" x="0px" y="0px"
	 viewBox="0 0 585 432" style="enable-background:new 0 0 585 432;" xml:space="preserve">
<style type="text/css">
	.st0{fill:#000600;}
	.st1{fill:#0071C5;}
	.st2{clip-path:url(#SVGID_2_);fill:#83D5FB;}
	.st3{clip-path:url(#SVGID_2_);fill:#00ABF0;}
	.st4{clip-path:url(#SVGID_2_);fill:#57CAF9;}
	.st5{clip-path:url(#SVGID_2_);fill:#0071C5;}
	.st6{clip-path:url(#SVGID_2_);fill:#31C5F8;}
	.st7{clip-path:url(#SVGID_2_);fill:#3DD1F9;}
	.st8{clip-path:url(#SVGID_4_);fill:#00ABF0;}
	.st9{clip-path:url(#SVGID_4_);fill:#83D5FB;}
	.st10{clip-path:url(#SVGID_4_);fill:#31C5F8;}
	.st11{clip-path:url(#SVGID_4_);fill:#0071C5;}
	.st12{clip-path:url(#SVGID_4_);fill:#57CAF9;}
	.st13{clip-path:url(#SVGID_4_);fill:#A6A6A6;}
	.st14{opacity:0.14;fill:#000600;}
	.st15{clip-path:url(#SVGID_8_);fill:#C980DD;}
	.st16{clip-path:url(#SVGID_8_);fill:#E7B3EE;}
	.st17{clip-path:url(#SVGID_8_);fill:#8C9295;}
	.st18{clip-path:url(#SVGID_8_);fill:#921C9F;}
	.st19{clip-path:url(#SVGID_8_);fill:#CDD0D3;}
	.st20{clip-path:url(#SVGID_8_);fill:#DFDBD1;}
	.st21{clip-path:url(#SVGID_8_);fill:#543F31;}
	.st22{clip-path:url(#SVGID_8_);fill:#C38A75;}
	.st23{clip-path:url(#SVGID_8_);fill:#B3B9BC;}
	.st24{clip-path:url(#SVGID_8_);fill:#8B9295;}
	.st25{clip-path:url(#SVGID_8_);fill:#D59C87;}
	.st26{fill:#E7B3EE;}
	.st27{clip-path:url(#SVGID_10_);}
	.st28{fill:#D6A1E6;}
	.st29{fill:#C980DD;}
	.st30{clip-path:url(#SVGID_12_);fill:#FFE050;}
	.st31{opacity:0.5;clip-path:url(#SVGID_12_);}
	.st32{fill:#A2C9FF;}
	.st33{fill:#FF8B00;}
	.st34{clip-path:url(#SVGID_12_);fill:#FFECA0;}
	.st35{clip-path:url(#SVGID_12_);}
	.st36{fill:#F9C956;}
	.st37{fill:#FFECA0;}
	.st38{fill:#2A356B;}
	.st39{clip-path:url(#SVGID_12_);fill:#F9C956;}
	.st40{clip-path:url(#SVGID_12_);fill:#A2C9FF;}
	.st41{clip-path:url(#SVGID_12_);fill:#FF8B00;}
	.st42{clip-path:url(#SVGID_12_);fill:#2A356B;}
	.st43{fill:#1B254E;}
	.st44{clip-path:url(#SVGID_12_);fill:#C22C28;}
	.st45{clip-path:url(#SVGID_12_);fill:#FF7400;}
	.st46{fill:#FFE050;}
	.st47{clip-path:url(#SVGID_12_);fill:#FFEB82;}
	.st48{clip-path:url(#SVGID_14_);fill:#FFE286;}
	.st49{fill:#FFFFFF;}
	.st50{fill:#ACD7C2;}
	.st51{fill:none;stroke:#FFFFFF;stroke-miterlimit:10;}
	.st52{fill:#A1CAAA;}
	.st53{fill:#95CCA0;}
	.st54{opacity:0.76;}
	.st55{fill:#C3E8CC;}
	.st56{fill:url(#SVGID_15_);}
	.st57{fill:url(#SVGID_16_);}
	.st58{fill:url(#SVGID_17_);}
	.st59{fill:#F5E5BD;}
	.st60{fill:url(#SVGID_18_);}
	.st61{fill:url(#SVGID_19_);}
	.st62{fill:url(#SVGID_20_);}
	.st63{fill:url(#SVGID_21_);}
	.st64{fill:url(#SVGID_22_);}
	.st65{fill:url(#SVGID_23_);}
	.st66{fill:#E3EDC3;}
	.st67{fill:#EEFAD1;}
	.st68{fill:url(#SVGID_24_);}
	.st69{fill:url(#SVGID_25_);}
	.st70{fill:url(#SVGID_26_);}
	.st71{fill:url(#SVGID_27_);}
	.st72{fill:url(#SVGID_28_);}
	.st73{fill:#FFE392;}
	.st74{clip-path:url(#SVGID_30_);fill:url(#SVGID_31_);}
	.st75{fill:#5B2A1E;}
	.st76{fill:#8F7673;}
	.st77{fill:url(#SVGID_32_);}
	.st78{fill:url(#SVGID_33_);}
	.st79{fill:url(#SVGID_34_);}
	.st80{fill:url(#SVGID_35_);}
	.st81{fill:#F79291;}
	.st82{fill:url(#SVGID_36_);}
	.st83{fill:#FF9D5B;}
	.st84{opacity:0.75;fill:#FFFFFF;}
	.st85{fill:#FFC28E;}
	.st86{fill:none;}
	.st87{clip-path:url(#SVGID_38_);fill:#FFE0C3;}
	.st88{clip-path:url(#SVGID_38_);fill:#FF9F36;}
	.st89{clip-path:url(#SVGID_38_);fill:#FFF3E2;}
	.st90{clip-path:url(#SVGID_40_);fill:#FAC1E3;}
	.st91{opacity:0.8;clip-path:url(#SVGID_40_);fill:#EF8FC7;}
	.st92{clip-path:url(#SVGID_40_);fill:#EF8FC7;}
	.st93{opacity:0.79;clip-path:url(#SVGID_40_);fill:#FAC1E3;}
	.st94{fill:url(#SVGID_41_);}
	.st95{fill:#FFFDEC;}
	.st96{fill:#78CB99;}
	.st97{fill:#B2E1C4;}
	.st98{fill:#D8EFE2;}
	.st99{opacity:0.44;fill:#FFFFFF;}
	.st100{clip-path:url(#SVGID_43_);fill:#FFF7C8;}
	.st101{fill:url(#SVGID_44_);}
	.st102{fill:url(#SVGID_45_);}
	.st103{opacity:0.86;fill:#FFD0D7;}
	.st104{fill:url(#SVGID_46_);}
	.st105{opacity:0.66;}
	.st106{opacity:0.37;fill:#FFFFFF;}
	.st107{opacity:0.4;}
	.st108{opacity:0.26;fill:#FFFFFF;}
	.st109{opacity:0.62;fill:#FFFFFF;}
	.st110{opacity:0.41;fill:#FFFFFF;}
	.st111{opacity:0.69;fill:#FFFFFF;}
	.st112{opacity:0.73;fill:#FFFFFF;}
	.st113{opacity:0.16;fill:#FFFFFF;}
	.st114{opacity:0.3;fill:#FFFFFF;}
	.st115{opacity:0.23;fill:#FFFFFF;}
	.st116{opacity:0.24;fill:#FFFFFF;}
	.st117{opacity:0.43;fill:#FFFFFF;}
	.st118{opacity:0.76;fill:#FFFFFF;}
	.st119{opacity:0.08;fill:#FFFFFF;}
	.st120{opacity:0.27;fill:#FFFFFF;}
	.st121{opacity:0.46;}
	.st122{opacity:0.86;fill:#FFFFFF;}
	.st123{opacity:0.54;fill:#FFFFFF;}
	.st124{opacity:0.28;}
	.st125{clip-path:url(#SVGID_48_);fill:#F17171;}
	.st126{clip-path:url(#SVGID_48_);fill:#F79291;}
	.st127{clip-path:url(#SVGID_48_);fill:#FFC5C4;}
	.st128{clip-path:url(#SVGID_48_);fill:#FFFFFF;}
	.st129{clip-path:url(#SVGID_50_);}
	.st130{fill:#FF7B89;}
	.st131{clip-path:url(#SVGID_50_);fill:none;}
	.st132{fill:none;stroke:#FFFFFF;stroke-width:2;stroke-miterlimit:10;}
	.st133{opacity:0.45;fill:#FFFFFF;}
	.st134{opacity:0.8;fill:#FFFFFF;}
	.st135{opacity:0.79;fill:#FFFFFF;}
	.st136{fill:#F1C4A9;}
	.st137{fill:none;stroke:#FFFFFF;stroke-width:0.75;stroke-miterlimit:10;}
	.st138{fill:#FFFFFF;stroke:#FFFFFF;stroke-width:0.25;stroke-miterlimit:10;}
	.st139{fill:#00A5C4;}
	.st140{fill:#31C5F8;}
	.st141{fill:#57CAF9;}
	.st142{fill:#00A8B8;}
	.st143{fill:#EA90A7;}
	.st144{fill:#91693D;}
	.st145{fill:#F2BECD;}
	.st146{fill:#D87290;}
	.st147{fill:#574435;}
	.st148{fill:#C8A37C;}
	.st149{fill:#641F1E;}
	.st150{fill:#E16C8D;}
	.st151{fill:#D63665;}
	.st152{fill:#DDB689;}
	.st153{fill:#F64776;}
	.st154{fill:#DEB689;}
	.st155{fill:#F2769B;}
	.st156{fill:#FAFAF8;}
	.st157{fill:#F7C3DB;}
	.st158{fill:#E3B9B4;}
	.st159{fill:#FFBEC5;}
	.st160{fill:#FFC9D7;}
	.st161{fill:#C73F69;}
	.st162{fill:#F7F7F7;}
	.st163{fill:#F2F2F2;}
	.st164{fill:#FFFBF1;}
	.st165{fill:#F8C3D1;}
	.st166{fill:#FC7798;}
	.st167{fill:#FFC5C4;}
	.st168{fill:#FFD0D7;}
	.st169{fill:#B39D8E;}
	.st170{fill:#FFE4EB;}
	.st171{fill:#F1F1F1;}
	.st172{fill:#FFA5B2;}
	.st173{fill:#A2C4DB;}
	.st174{fill:#583B34;}
	.st175{fill:#B1CFE4;}
	.st176{fill:#FBFBFA;}
	.st177{fill:#E0CFC7;}
	.st178{fill:#D9946B;}
	.st179{fill:#FFEBF2;}
	.st180{fill:#FCDDE6;}
	.st181{fill:#F2CCC1;}
	.st182{fill:#DF4E50;}
	.st183{fill:#45BC7A;}
	.st184{fill:#87E4AE;}
	.st185{fill:#00AC5F;}
	.st186{fill:#7FD9A9;}
	.st187{fill:#F1BB3A;}
	.st188{fill:#B89E65;}
	.st189{fill:#97D183;}
	.st190{fill:#3C3724;}
	.st191{fill:#D5BDA1;}
	.st192{fill:#9B8174;}
	.st193{fill:#587147;}
	.st194{fill:#E6D5BD;}
	.st195{fill:#5CC588;}
	.st196{clip-path:url(#SVGID_58_);fill:#B2E1C4;}
	.st197{clip-path:url(#SVGID_58_);fill:#FFFFFF;}
	.st198{clip-path:url(#SVGID_58_);fill:#78CB99;}
	.st199{fill:#FFEB82;}
	.st200{fill:#FFDF47;}
	.st201{clip-path:url(#SVGID_60_);fill:#F3A368;}
	.st202{clip-path:url(#SVGID_60_);fill-rule:evenodd;clip-rule:evenodd;fill:#FF8D4F;}
	.st203{clip-path:url(#SVGID_60_);fill:#E45C26;}
	.st204{clip-path:url(#SVGID_60_);fill:#F8B846;}
	.st205{fill:#E45C26;}
	.st206{fill:#FF8D4F;}
	.st207{fill:#FFAB33;}
	.st208{fill:#E46D00;}
	.st209{fill:#EE6406;}
	.st210{fill:#FF9B00;}
	.st211{fill:#130077;}
	.st212{fill:#FFBA98;}
	.st213{opacity:0.3;}
	.st214{fill:#FF7300;}
	.st215{fill:#6E0000;}
	.st216{fill-rule:evenodd;clip-rule:evenodd;fill:#FF9B00;}
	.st217{fill-rule:evenodd;clip-rule:evenodd;fill:url(#SVGID_61_);}
	.st218{opacity:0.3;fill-rule:evenodd;clip-rule:evenodd;fill:#A3002C;}
	.st219{fill-rule:evenodd;clip-rule:evenodd;fill:url(#SVGID_62_);}
	.st220{fill-rule:evenodd;clip-rule:evenodd;fill:url(#SVGID_63_);}
	.st221{opacity:0.5;fill-rule:evenodd;clip-rule:evenodd;fill:url(#SVGID_64_);}
	.st222{fill-rule:evenodd;clip-rule:evenodd;fill:#FFC384;}
	.st223{fill-rule:evenodd;clip-rule:evenodd;fill:url(#SVGID_65_);}
	.st224{fill-rule:evenodd;clip-rule:evenodd;fill:url(#SVGID_66_);}
	.st225{fill-rule:evenodd;clip-rule:evenodd;fill:url(#SVGID_67_);}
	.st226{opacity:0.5;fill-rule:evenodd;clip-rule:evenodd;fill:url(#SVGID_68_);}
	.st227{fill-rule:evenodd;clip-rule:evenodd;fill:#F3A368;}
	.st228{opacity:0.5;fill-rule:evenodd;clip-rule:evenodd;fill:#F3A368;}
	.st229{fill-rule:evenodd;clip-rule:evenodd;fill:#FF8D4F;}
	.st230{fill-rule:evenodd;clip-rule:evenodd;fill:#FFAB33;}
	.st231{opacity:0.62;fill-rule:evenodd;clip-rule:evenodd;fill:#C7002A;}
	.st232{opacity:0.5;fill-rule:evenodd;clip-rule:evenodd;fill:#FF8D4F;}
	.st233{opacity:0.5;fill-rule:evenodd;clip-rule:evenodd;fill:#8E5472;}
	.st234{opacity:0.3;fill-rule:evenodd;clip-rule:evenodd;fill:url(#SVGID_69_);}
	.st235{opacity:0.5;fill-rule:evenodd;clip-rule:evenodd;fill:url(#SVGID_70_);}
	.st236{opacity:0.3;fill-rule:evenodd;clip-rule:evenodd;fill:url(#SVGID_71_);}
	.st237{opacity:0.3;fill-rule:evenodd;clip-rule:evenodd;fill:url(#SVGID_72_);}
	.st238{clip-path:url(#SVGID_74_);}
	.st239{clip-path:url(#SVGID_74_);fill:#FF8D4F;}
	.st240{fill:#F3A368;}
	.st241{clip-path:url(#SVGID_76_);}
	.st242{fill:#E98B38;}
	.st243{clip-path:url(#SVGID_78_);}
	.st244{fill:#F8B846;}
	.st245{clip-path:url(#SVGID_80_);}
	.st246{clip-path:url(#SVGID_80_);fill:#FF8D4F;}
	.st247{fill-rule:evenodd;clip-rule:evenodd;fill:url(#SVGID_81_);}
	.st248{fill-rule:evenodd;clip-rule:evenodd;fill:url(#SVGID_82_);}
	.st249{fill-rule:evenodd;clip-rule:evenodd;fill:url(#SVGID_83_);}
	.st250{opacity:0.5;fill-rule:evenodd;clip-rule:evenodd;fill:url(#SVGID_84_);}
	.st251{fill-rule:evenodd;clip-rule:evenodd;fill:url(#SVGID_85_);}
	.st252{fill-rule:evenodd;clip-rule:evenodd;fill:url(#SVGID_86_);}
	.st253{fill-rule:evenodd;clip-rule:evenodd;fill:url(#SVGID_87_);}
	.st254{opacity:0.5;fill-rule:evenodd;clip-rule:evenodd;fill:url(#SVGID_88_);}
	.st255{opacity:0.3;fill-rule:evenodd;clip-rule:evenodd;fill:url(#SVGID_89_);}
	.st256{opacity:0.5;fill-rule:evenodd;clip-rule:evenodd;fill:url(#SVGID_90_);}
	.st257{opacity:0.3;fill-rule:evenodd;clip-rule:evenodd;fill:url(#SVGID_91_);}
	.st258{opacity:0.3;fill-rule:evenodd;clip-rule:evenodd;fill:url(#SVGID_92_);}
	.st259{opacity:0.88;fill:#FFFEF4;}
	.st260{fill:#FFCF66;}
	.st261{fill:#AFABAC;}
	.st262{fill:#FFE286;}
	.st263{fill:#FFE787;}
	.st264{fill:#F6C700;}
	.st265{fill:#FFEA96;}
	.st266{clip-path:url(#SVGID_94_);fill:#F9C956;}
	.st267{clip-path:url(#SVGID_94_);fill:#FFE050;}
	.st268{clip-path:url(#SVGID_96_);fill:#921C9F;}
	.st269{opacity:0.5;clip-path:url(#SVGID_96_);}
	.st270{fill:#921C9F;}
	.st271{clip-path:url(#SVGID_96_);}
	.st272{clip-path:url(#SVGID_98_);fill:#D6A1E6;}
	.st273{fill:#BC59D3;}
	.st274{opacity:0.5;fill:#FFFFFF;}
	.st275{opacity:0.5;fill:#FFFFFF;stroke:#FFFFFF;stroke-miterlimit:10;}
	.st276{opacity:0.68;fill:#FFFFFF;}
	.st277{fill:#E9CBF2;}
	.st278{fill:#D9A2E1;}
	.st279{fill:#AA7B41;}
	.st280{fill:#8C9295;}
	.st281{fill:#CDD0D3;}
	.st282{fill:#DFDBD1;}
	.st283{fill:#543F31;}
	.st284{fill:#C38A75;}
	.st285{fill:#B3B9BC;}
	.st286{fill:#8B9295;}
	.st287{fill:#D59C87;}
	.st288{fill:#3DD1F9;}
	.st289{fill:#F92405;}
	.st290{fill:#B30000;}
	.st291{fill:#FA3C20;}
	.st292{fill:#E2A080;}
	.st293{fill:#950000;}
	.st294{fill:#F50000;}
	.st295{clip-path:url(#SVGID_100_);fill:#EA90A7;}
	.st296{clip-path:url(#SVGID_100_);fill:#FFEBF2;}
	.st297{clip-path:url(#SVGID_100_);fill:#D3CFB3;}
	.st298{clip-path:url(#SVGID_100_);fill:#FCDDE6;}
	.st299{clip-path:url(#SVGID_100_);}
	.st300{clip-path:url(#SVGID_100_);fill:#FFC9D7;}
	.st301{fill:#FA90B4;}
	.st302{fill:#BCA494;}
	.st303{fill:#63443C;}
	.st304{fill:#CFABA0;}
	.st305{fill:#A1C3DA;}
	.st306{fill:#9B7972;}
	.st307{fill:#77573F;}
	.st308{fill-rule:evenodd;clip-rule:evenodd;fill:#FA3C20;}
	.st309{fill-rule:evenodd;clip-rule:evenodd;fill:#D00707;}
	.st310{fill-rule:evenodd;clip-rule:evenodd;fill:#F92405;}
	.st311{fill-rule:evenodd;clip-rule:evenodd;fill:#F50000;}
	.st312{fill-rule:evenodd;clip-rule:evenodd;fill:#F95F53;}
	.st313{fill:#F95F53;}
	.st314{clip-path:url(#SVGID_102_);fill:#574435;}
	.st315{clip-path:url(#SVGID_102_);fill:#C8A37C;}
	.st316{clip-path:url(#SVGID_102_);fill:#91693D;}
	.st317{clip-path:url(#SVGID_102_);fill:#D00707;}
	.st318{clip-path:url(#SVGID_102_);fill:#FA3C20;}
	.st319{clip-path:url(#SVGID_102_);fill:#950000;}
	.st320{clip-path:url(#SVGID_102_);fill:#F95F53;}
	.st321{clip-path:url(#SVGID_102_);fill:#131212;}
	.st322{clip-path:url(#SVGID_102_);fill:#B30000;}
	.st323{clip-path:url(#SVGID_102_);fill:#412A1A;}
	.st324{clip-path:url(#SVGID_102_);fill:#DEC6AF;}
	.st325{clip-path:url(#SVGID_102_);fill:#BF855C;}
	.st326{fill:#D00707;}
	.st327{fill:#AB9DB8;}
	.st328{fill:#381A12;}
	.st329{fill:#EBCBB8;}
	.st330{fill:#AC9EBB;}
	.st331{fill:#F8F6F5;}
	.st332{fill:#0A345E;}
	.st333{fill:#412A1A;}
	.st334{fill:#131212;}
	.st335{fill:#DEC6AF;}
	.st336{fill:#BF855C;}
	.st337{opacity:0.79;fill:#FFBEC5;}
	.st338{opacity:0.79;fill:#FA90B4;}
	.st339{fill:#83D5FB;}
	.st340{fill:#00ABF0;}
	.st341{opacity:0.6;fill:#FFFFFF;}
	.st342{opacity:0.34;fill:#FFFFFF;}
	.st343{opacity:0.25;fill:#FFFFFF;}
	.st344{opacity:0.6;}
	.st345{fill:#B2B0AD;}
	.st346{fill:#0D0707;}
	.st347{fill:#A6A6A6;}
	.st348{fill:#0068A8;}
</style>
<g>
	<path class="st340" d="M128.45,5.27c18.77,0,37.54,0,56.3,0c13.34,1.91,26.06,5.36,36.14,15.03c2.82,2.71,6.88,5.07,4.54,10.16
		c-4.71,5.49-8.25,11.45-9.07,18.92c-0.6,5.5-3.06,10.58-6.28,15.01c-3.1,4.26-3.99,8.49-2.18,13.36c-0.26,1.79-0.57,3.58-0.57,5.4
		c3.58,15.7,5.07,31.68,6.45,47.67c2.68,12.37,3.97,24.87,3.45,37.53c-0.21,5.09,1.26,9.87,2.66,14.67
		c0.22,1.65-0.07,3.26-0.32,4.88c3.17,30.53,8.68,60.62,16.65,90.26c3.92,18.04,9.22,35.72,13.97,53.55
		c4.13,15.53,8.44,31,12.97,46.42c1.93,6.57,1.01,13.83,4.91,19.9c0.91,1.63,0.77,3.37-0.18,4.79
		c-6.25,9.37-12.64,18.65-20.52,26.78c-1.52,1.56-3.42,2.62-5.58,3.14c-1.58,0-3.2,0.29-4.59-0.8c-5.24-8.38-4.14-18.08-5.38-27.22
		c-2.4-17.59-4.21-35.26-8.91-52.46c1.09-4.39,0.29-8.38-1.05-12.79c-4.88-16.1-9.36-32.33-13.77-48.57
		c0.61-6.09-4.26-9.99-6.15-15.09c-2.41-6.5-5.56-12.52-3.39-20c1.31-4.52-1.03-8.98-4.02-12.61
		c-11.64-14.12-27.33-21.54-44.52-26.24c-5.47-1.5-9.61,1.53-13.48,5.12c-13.21,12.25-22.63,27.3-31.39,42.75
		c-17.73,31.27-37.64,61.3-53.56,93.61c-1.78,3.62-3.97,7.09-7.32,9.6c-6.44,2.43-6.48,9.25-9.26,14.07
		c-1.79,3.11-2.71,6.54-6.86,5.1c-4.41-1.53-3.14-5.15-1.88-8.43c5.54-14.47,12.22-28.47,17.88-42.89
		c4.11-6.21,6.49-13.2,8.45-20.24c7.42-26.59,17.19-52.18,30.96-76.21c3.36-5.86,7.98-10.7,11.59-16.3
		c1.44-1.55,1.72-3.68,2.69-5.46c6.06-5.66,10.97-12.66,18.82-16.3c0.91-0.42,1.07-1.52,1.15-2.47c-0.07-1.32-0.65-2.52-1.97-2.49
		c-9.91,0.21-20.23-0.8-27.28,8.58c-0.58,0.77-1.64,0.95-2.51,1.35c-8.19,2.78-16.7,4.48-24.74,7.74c-2.65,1.07-5.6,1.86-7.92-0.99
		c-2.5-4.79,1.25-7.68,3.58-10.76c8.86-11.68,18.35-22.84,28.04-33.84c2.53-2.87,4.29-5.78,3.09-9.74
		c-4.57-14.32-8.85-28.7-9.46-43.86c-3.17-13.44-4.56-26.98-2.88-40.79c2.24-18.4,8.16-35.48,19.02-50.5
		C102.94,12.33,114.62,6.59,128.45,5.27z"/>
	<path class="st348" d="M532.32,22.54c7.57,7.85,14.86,20.71,16.26,22.95c7.9,12.63,13.11,26.42,17.52,40.55
		c1.83,5.32,3.66,10.65,5.48,15.97c-0.67,7.55,2.12,14.4,4.32,21.38c0.49,2.96,0.99,5.92,1.48,8.88
		c-0.59,7.83,1.92,15.23,3.13,22.82c4.41,25.08,6.41,50.27,2.1,75.55c-1.03,6.05-3.57,11.87-5.69,17.7
		c-1.85,5.07-6.65,5.26-10.86,5.2c-4.45-0.07-7.38,1.19-8.7,5.53c-5.48-2.25-10.94-4.02-16.98-4.87
		c-9.56-1.34-17.74-6.96-26.07-11.62c-3.34-1.87-2.72-4.99-0.94-8.14c2.18-3.85,4.82-7.51,5.97-11.89
		c-4.98,15.08-13.36,21.2-28.78,21.35c-5.77,0.06-11.52-0.24-17.28-0.27c-10.4-0.04-20.28,0.24-28.95,7.69
		c-4.45,3.82-10.94,4.8-16.86,5.88c-6.01,1.09-7.95-0.87-7.51-6.84c0.34-4.72,1.45-8.48,6.13-11.26c6.28-3.73,9.15-10.07,9.67-17.37
		c0.43-6.02,1.08-12.02,1.7-18.02c-2.28-20.89,2.12-40.45,11.68-59c0.66-1.39,1.22-2.83,1.7-4.29c12.27-10.27,8.71-24.08,8.22-37.16
		c-0.1-2.77-2.11-4.61-4.88-3.89c-12.7,3.29-19.56-6.12-26.87-13.01c-14.3-13.49-23.78-29.9-25.57-50.01
		c-0.13-1.44-1.1-2.64-1.67-3.96c-0.15-9.98,4.89-15.92,14.11-19.26c7.21-2.61,14.25-5.6,21.97-6.33c5.26,0.56,10.52,1.5,15.76-0.17
		c0.47-0.43,0.93-0.88,1.38-1.34C465.56,3.4,508.78-1.85,532.32,22.54z"/>
	<path class="st340" d="M347.87,431.8c-3.7-6.29-2.38-11.17,2.94-15.13c6.7-5,14.79-7.63,20.95-13.68
		c5.26-5.17,7.71-10.65,7.24-17.84c-0.49-7.57,0.54-14.82,5.27-21.16c1.46-1.95,2.95-3.53,5.37-4.49c8.96-3.55,10-7.22,4.63-15.1
		c-0.54-0.79-1.18-1.51-1.66-2.36c-1.45-3.86,1.89-5.73,3.87-7.37c15.63-13.03,29.75-27.71,45.16-40.95
		c3.02-1.8,4.98-5.15,8.68-5.95c0.82-0.93,1.64-1.86,2.45-2.8c-0.1,0.09-0.27,0.12-0.34,0.21c-3.78,3.01-7.66,5.72-11.18,8.92
		c-13.77,12.07-27,24.73-40.42,37.17c-1.98,1.84-4.03,3.67-7.1,3.01c-3.96-3.66-8.8-6.47-11.48-11.43
		c-0.95-3.28,1.64-4.66,3.48-6.42c12.04-11.53,25.16-21.87,37.25-33.35c2.59-2.46,5.3-4.79,7.48-7.63
		c6.46-6.43,13.3-12.45,20.2-18.13c-0.13,0.11-0.1,0.02-0.2,0.12c-7.57,6.29-14.95,12.59-21.59,19.7
		c-15.9,12.44-31.22,25.52-45.43,39.87c-2.29,2.31-4.76,4.55-8.36,4.59c-2.48-0.68-4.96-1.35-6.78-3.34
		c-1.45-1.67-3.2-2.76-5.49-2.67c-5.32,0.2-7.67-2.65-8.03-7.66c0.81-2.04,1.45-4.17,2.34-6.2c2.44-8.39,6.86-15.02,15.13-18.95
		c3.63-1.73,5.71-5.68,8.94-8.24c3.84-3.03,7.68-5.49,12.62-6.43c6.96-1.32,9.92-7.21,12.8-12.7c4.68-8.93,9.23-17.68,18.02-23.64
		c5-3.39,5.58-9.5,2.68-15.59c-1.34-2.81-3.13-5.42-3.23-8.67c-0.17-5.4,1.52-9.41,7.65-10.04c4.92-0.06,5.95,4.36,8.35,7.21
		c0.01,11.65-0.39,23.41-8.41,32.75c-4.25,4.95-9.27,9.02-7.65,16.88c9-1.3,18.04-4.37,25.74-10.86c1.43-1.21,2.36-3,4.63-3.06
		c8.39-0.21,16.89-1.5,25.15-0.6c23.4,2.57,31.23-1.66,40.54-23.75c0.36-0.84,0.85-1.63,1.42-2.69c1.61,7.25,0.93,9.8-7.07,26.73
		c9.63-1.89,13.61,8.17,22.12,9.52c6.49,1.03,6.31,2.22,11.79-3.21c-1.5,8.01,11.4,4.06,9.02,12.68
		c-3.85,35.16-11.88,69.5-20.48,103.72c-1.07,1.54-0.19,3.45-0.95,5.05c-3.33,24.31-14.81,44.18-32.88,60.52
		c-2.3,2.08-5.35,2.03-7.84,3.45C446.08,431.8,396.98,431.8,347.87,431.8z"/>
	<path class="st340" d="M13.13,322.81c2.81-14.27,4.36-28.8,8.99-42.69c6.69-20.05,17.22-38.28,27.03-56.86
		c3.85-0.69,4.26,2.11,4.56,4.71c0.6,5.26,0.41,10.4-3.35,14.68c-0.8,1.88-1.02,3.9-1.32,5.89c-2.19,7.12-6.32,13.36-9.15,20.21
		c-8.93,21.57-14.38,44.03-17.37,67.11c-0.59,4.51-2.57,8.74-2.36,13.36c-0.83,3.09-3.11,5.58-3.56,8.86
		c-0.33,2.38-1.12,5.39-4.01,4.78c-3.21-0.67-1.57-3.7-1.31-5.85C11.88,345.62,12.5,334.21,13.13,322.81z"/>
	<path class="st339" d="M238.38,431.88c-9.78-0.03-19.57-0.05-29.35-0.08c-3.24-0.81-5.89-2.02-5.52-6.18
		c0.62-6.97-0.59-13.85-1.43-20.74c-0.7-15.48-3.54-30.68-6.24-45.89c-0.7-3.96-1.41-7.96-2.26-11.9
		c-1.75-10.82-5.12-21.28-7.39-31.99c2.56,11.66,6.13,23.09,7.94,34.94c3.23,14.73,4.94,29.69,7.31,44.54
		c1.02,6.4-0.32,13,1.99,19.24c-0.52,5.97,1.51,12.1-1.2,17.92c-2.51,0.02-5.01,0.03-7.52,0.05c-2.31-1.61-2.75-4.02-2.77-6.58
		c-0.31-33.39-5.77-66.11-12.93-98.6c-0.89-4.03-1.18-8.17-1.84-10.71c2.39,18.7,4.66,38.93,8.43,58.91
		c2.7,14.33,5.2,28.66,6.15,43.19c0.3,4.6,1.97,9.86-2.51,13.76c-4.9,0.04-9.8,0.09-14.69,0.13c-2.66-9.98-1.45-20.32-2.75-30.4
		c-1.72-13.36-2.8-26.83-6.14-39.97c-0.92-3.63-3.01-6.46-5.02-9.4c-1.75-11.04-6.9-20.41-14.22-28.68
		c9.11,11.84,13.4,25.78,16.96,39.96c0.81,3.23,1.46,6.4,3.22,9.28c4.58,13.76,5.3,28.08,6.02,42.34
		c0.28,5.53,2.18,11.32-0.72,16.78c-33.29,0.01-66.57,0.03-99.86,0.04c-4.89-5.95-6.87-13-7.85-20.45c-0.49-3.76-0.5-7.68-3.35-10.7
		c-3.28-4.45-4.89-9.63-6.47-14.83c1.64,5.37,3.26,10.74,6.82,15.25c1.8,2.07,2.2,4.57,2.56,7.18c0.94,6.75,1.86,13.53,5.48,19.57
		c0.7,1.17,1.31,2.58,0.09,3.9c-18.79,0.02-37.59,0.05-56.38,0.07c-3.46-2.85-2.16-6.13-0.42-9.04
		c6.77-11.3,12.71-23.06,19.35-34.43c4.28-7.32,6.42-15.69,11.39-22.66c7.41-13.6,14.41-27.43,22.31-40.74
		c17.52-29.53,33.64-59.91,53.22-88.19c5.61-8.11,12.11-15.54,20-21.64c2.99-2.32,6.07-3.82,9.98-2.69
		c17.3,5,33.53,11.91,46.23,25.3c6.24,6.58,10.34,13.67,6.29,23.07c-1.06,2.46,0.36,4.65,1.25,6.88c2.85,7.13,5.64,14.29,8.46,21.44
		c0.91,4.83-1.62,4.99-4.88,3.31c-2.12-1.09-3.75-3.03-5.13-4.98c-8.26-11.67-16.6-23.27-23.59-35.8
		c-4.52-8.1-9.01-16.35-16.33-20.87c5.91,2.79,9.38,9.36,13.18,15.36c9.48,15,17.83,30.68,24.95,46.92
		c8.62,19.66,19.65,38.17,27.31,58.26c6.04,20.48,7.28,41.73,10.03,62.74C237.32,420,237.77,425.95,238.38,431.88z"/>
	<path class="st339" d="M24.5,345.53c-3.41-1.66-4.67,1.94-7.02,2.87c3.37-35.38,10.89-69.58,28.98-100.74
		c-1.13-1.13,3.81-0.15,0.73-2.12c-0.62-0.4-0.28-1.71,0.23-2.53c3.02-6.37,5.08-12.82,1.72-19.74c0.3-4.58,0.91-9.03,5.28-11.8
		c10.68-1.31,20.27-6.49,30.7-8.68c9.75-4.42,19.91-7.11,30.67-6.36c2.84,0.2,6.83,0.05,6.79,4.84
		c-8.57,4.67-15.34,11.43-21.73,18.63c-4.94,2.9-10.33,4.84-14.58,7.09c3.47-0.73,6.72-4.59,11.49-4.43c0.15,0,0.31,0.33,0.42,0.53
		c0.22,0.4,0.09,0.81-0.33,1.2c-14.72,19.24-23.86,41.33-32.64,63.62c-6.36,16.16-8.38,33.87-17.65,48.97
		c-3.87,3.88-5.15,1.33-5.74-2.4c-0.94-5.93-1.03-11.89-0.15-17.84c0.42-2.82,1.13-5.61,0.6-9.02
		c-6.13,10.18-8.35,21.42-12.61,31.85C28.63,341.98,28.33,345.31,24.5,345.53z"/>
	<path class="st339" d="M232.69,279.08c14.57,2.24,23.78,11.94,32.67,22.6c5.38,6.46,12.82,7.03,20.44,3.45
		c2.47,0.68,3.85,2.22,4.91,4.64c4.74,10.74,7.53,21.85,8.99,33.54c0.84,6.7,0.7,13.46,1.93,20.1c-1.71,4.16-3.77,8.04-8.07,10.12
		c-2.8,0.09-4-1.25-4.98-3.99c-4.29-11.96-7.83-24.03-7.7-36.9c-0.16,15,4.51,28.85,10.03,42.51c-0.9,8.25-8.23,9.21-13.86,11.33
		c-5.26,1.99-8,4.45-6.72,10.19c-0.95,1.93-2.26,3.12-4.58,2.22c-6.89-18.95-11.38-38.6-16.92-57.93
		C242.96,320.48,238.03,299.72,232.69,279.08z"/>
	<path class="st348" d="M253.9,144.79c-0.97,2.93-2.12,5.81-2.87,8.79c-4.35,17.29-15.52,27.23-32.82,30.64
		c-4.13-2.15-4.29-6.3-4.28-9.97c0.05-14.58-1.14-29.04-3.2-43.46c4.54-5.71,10.64-2.88,16.2-2.96c3.43,0,3.67-1.86,4.08-4.96
		c0.95-7.17-0.55-13.6-3.75-19.86c-0.38-1.49-0.82-2.97-0.08-4.48c0.7-1.93,1.94-3.57,2.86-5.39c3.14-4.72,6.93-2.34,10.12-0.46
		c1.93,1.14,3.69,2.97,5.31,4.71c1.36,0.67,2.71,1.33,4.07,2c1.08,7.52,3.87,14.57,5.91,21.83
		C257.71,129.24,257.23,137.13,253.9,144.79z"/>
	<path class="st339" d="M24.5,345.53c4.1-15.45,8.98-30.61,16.67-44.73c0.96-1.77,1.83-4.69,4.42-3.76c2.72,0.97,0.92,3.71,0.92,5.7
		c0.01,10.46-3.13,20.8-1.08,31.34c0.27,1.37-0.14,3.04,2.13,2.8c-6.26,15.03-12.51,30.05-18.77,45.08c-0.43,1.04-1.49,2,0.17,3.67
		c4.35-3.94,5.42-9.77,8.25-14.47c1.55-2.57,2.77-5.02,6.07-5.43c-1.69,13.94-9.71,25.27-15.41,37.58
		c-4.52,9.76-12.04,17.94-14.92,28.54c-4.32-0.01-8.63-0.03-12.95-0.04c4.46-13.36,7.39-26.96,9.43-40.97
		c1.25-8.58,6.04-16.86,7.38-25.72C17.89,357.87,23.32,352.58,24.5,345.53z"/>
	<path class="st339" d="M265.75,398.9c0.92-0.96,1.83-1.93,2.75-2.89c-0.69-5.02,2.98-7.15,6.49-8.86c3.44-1.68,5.72,1.23,7.97,3.29
		c10.27,9.42,19.23,20.01,27.49,31.19c2.14,2.89,5.41,6.05,1.71,10.13c-23.31,0.01-46.63,0.02-69.94,0.04
		C250.13,420.87,259.22,410.8,265.75,398.9z"/>
	<path class="st339" d="M245.48,97.41c-4.57,0.65-8.13-6-13.2-1.83c-0.82,1.79-2.61,1.54-3.65,0.98c-8.76-4.74-17.69-9.3-23.62-17.8
		c-3.67-5.67-3.77-10.7,1.43-15.9c3.7-3.7,6.19-8.79,6.29-14.08c0.15-8.07,4.1-13.81,9.5-19.04c9.6,9.22,11.31,22.8,18.49,33.37
		c2.01,2.96,2.76,6.65,0.92,9.52c-4.97,7.74-2.87,14.32,2.14,20.87C244.61,94.6,244.92,96.1,245.48,97.41z"/>
	<path class="st339" d="M229.49,99.01c0.51,0.93,1.03,1.86,1.54,2.79c0.21,7.57,0.17,15.15,0.19,22.72c0,2.5-0.54,4.95-3.05,6.35
		c-5.82,1.45-11.61-1.05-17.43-0.08c-2.08-16.33-4.92-32.56-5.78-49.03c4.53-0.54,7.17,3,10.2,5.2
		C220.18,90.62,226.26,93.18,229.49,99.01z"/>
	<path class="st348" d="M229.49,99.01c-8.18-5.75-16.36-11.5-24.53-17.25c0.02-1,0.04-2,0.06-3c7.23,4.83,14.48,9.64,21.69,14.5
		c1.72,1.16,3.11,3.02,5.58,2.32C231.35,96.73,230.42,97.87,229.49,99.01z"/>
	<path class="st339" d="M370.78,100.58c4.23-3.37,6-7.83,5.9-13.14c1.16-1.57,2.68-2.57,4.62-2.88c1.73-2.15,3.69-2.78,6.03-0.88
		c-2.05-1.7-4.24-1.17-6.44-0.43c-1.98-4.61-2.05-9.64-0.49-14c4.9-13.67,10.19-27.27,22.32-36.62c4.98,7.58,4.5,16.92,8.31,25.03
		c7.38,15.69,18.67,27.6,32.67,37.34c2.94,2.05,6.02,2.33,9.54,1.99c6.66-0.64,10.09,2.35,9.95,9.02
		c-0.17,8.35-0.84,16.7-1.63,25.02c-0.5,5.2-4.39,8.3-8.27,11.22c-0.74,0.84-2.11,1.36-1.46,2.89
		c-8.12,19.01-12.41,38.78-11.78,59.52c-3.86,0.18-4.94-4.45-8.46-4.87c-4.56-6.72-7.94-14.44-15.99-18.18
		c-1.2-0.56-1.4-2.36-0.97-3.85c0.68-1.76,2.16-2.45,3.86-2.8c6.17-1.26,10.44-5.39,13.46-8.46c-8.14,4.73-15.41,7.48-20.72,9.14
		c-9.71,3.03-20.89,6.51-27.39,1.01c-1.39-1.18-2.25-2.5-2.77-3.47c-6.36-6.31-6.12-14.78-7.3-22.75c-0.34-2.31,0.82-4.1,2.77-5.47
		c1.87-1.31,4.02-2.44,4.99-4.85c-2.9-1.66-4.87,0.49-7.06,0.98c-3.51,0.79-6.38,0.31-7.54-3.42c-1.07-3.45,0.47-5.8,3.58-7.7
		c2.7-1.65,7.79,0.06,8.11-4.43c0.23-3.29-3.35-5.63-4.79-8.57C371.35,111.89,370.19,106.34,370.78,100.58z"/>
	<path class="st348" d="M380.9,83.24c6.03-7.73,7.51,1.62,11.15,2.98c-3.73,0.3-7.01-2.16-10.73-1.67
		C381.17,84.11,381.04,83.68,380.9,83.24z"/>
	<path class="st348" d="M312.16,431.76c-8.65-15.89-20.71-29.01-34.26-40.7c-5.55-4.79-6.26,3.22-9.41,4.95
		c-3.9-4.63-0.73-7.08,2.89-9.43c5.7-3.71,12.54-5.63,17.21-10.94c1.06-1.71,2.39-3.16,4.03-4.32c2.03-2.91,4.05-5.81,6.08-8.72
		c1.12-5.42,4.44-9.11,8.51-12.82c8.48-7.74,16.92-15.58,23.57-25.13c2.44-3.51,4.83-8.05,10.54-7.22c0.65,0.16,1.27,0.43,1.83,0.81
		c1.42,2.38,2.28,5.27,5.4,6.18c4.35,2.8,8.36,0.19,12.48-0.74c3.86-0.16,6.97-3.05,10.9-2.97c1.99,0.59,3.89,1.45,6.02,0.25
		c2.47-1.39,4.49-0.28,6.24,1.58c4.29,2.38,8.81,4.53,9.93,10.03c3.08,2.89-3.16,5.73-0.04,8.62c5.32,1.97,8.53,6.02,8.11,11.43
		c-0.41,5.27-3.55,9.41-9.46,10.22c-3.83,0.52-5.75,3.16-7.37,6.2c-2.57,4.82-3.26,10.08-2.78,15.37
		c1.36,14.85-6.68,23.11-19.14,28.95c-7.82,3.66-15.49,8.01-15.59,18.45C335.97,431.78,324.06,431.77,312.16,431.76z"/>
	<path class="st339" d="M384.2,322.53c-3.74,0.37-7.48,0.75-11.22,1.12c-1.86-2.92,0.68-3.24,2.39-4.04
		c16.78-15.46,32.85-31.75,51.58-44.97c2.89-1,5.57-1.57,5.9,2.8c-9.28,11.63-21.39,20.27-32.15,30.34
		C395.32,312.82,389.7,317.62,384.2,322.53z"/>
	<path class="st348" d="M394.09,341.18c-1.56,0.55-3.26,1.28-4.43-0.5c-0.91-1.39-0.01-2.68,0.89-3.8c1.17-1.46,2.38-2.89,3.58-4.33
		c9.12-5.86,16.73-13.46,24.56-20.86c7.1-6.71,14.04-13.74,23.04-18.08l0,0c-1.34,4.71-5.27,7.32-8.54,10.44
		C420.18,316.46,407.12,328.81,394.09,341.18z"/>
	<path class="st339" d="M432.85,277.44c-1.97-0.93-3.93-1.87-5.9-2.8c7.69-7.31,15.39-14.61,23.08-21.92
		c3.12,0.29,5.02,1.79,5.09,5.1C447.7,264.36,440.27,270.9,432.85,277.44z"/>
	<path class="st348" d="M454.73,286.4c-1.81,0.42-3.27,1.37-4.35,2.89c-2.52,2.16-4.87,4.66-8.65,4.34c0,0,0,0,0,0
		c1.91-6.13,7.73-8.22,12.15-11.76c1.72-1.66,3.42-1.83,5.1,0.04C457.57,283.4,456.15,284.9,454.73,286.4z"/>
	<path class="st339" d="M455.12,257.82c-1.7-1.7-3.39-3.4-5.09-5.1c2.21-1.2,3.19-6.34,6.8-2.84
		C459.79,252.74,458.47,255.75,455.12,257.82z"/>
	<path class="st348" d="M458.99,281.91c-1.7-0.01-3.4-0.03-5.1-0.04c0.34-3.29,2.27-5.95,5.41-4.99
		C462.65,277.9,460,280.22,458.99,281.91z"/>
	<path class="st339" d="M354.94,299.11c-0.97,3-1.95,6-2.92,9c-0.75,5.89-8.61,5.55-9.74,11.1c-2.99,0.57-5.35,2.3-6.82,4.78
		c-9.28,15.71-24.27,25.95-36.75,38.59c-1.05-6.96-2.83-13.9-2.99-20.88c-0.3-13.12-7.66-24.13-9.91-36.59
		c11.21-7.41,17.28-19.06,24.25-29.87c3.22-4.99,6.16-10.31,7.8-16.15c6.38-13.98,8.84-29.19,13.8-43.62
		c1.08-3.16,2.05-6.36,3.06-9.54c1.78-1.99,3.47-1.08,4.91,0.34c7.49,7.31,17.45,10.67,25.98,16.34c1.98,1.32,4.3,2.13,5.28,4.56
		c-0.72,14.69-5.34,28.59-8.68,42.75C359.9,279.69,357.37,289.39,354.94,299.11z"/>
	<path class="st348" d="M370.88,227.19c-12.55-2.88-23.12-9.44-32.71-17.75c-1.23-1.07-2.31-2.32-3.45-3.48
		c-0.84-0.63-1.47-1.66-0.89-2.45c9.24-12.59,3.39-24.44-1.69-36.33c-0.47-1.09-1.28-2.05-1.68-3.16
		c-2.44-6.74-12.43-10.83-7.69-19.98c3.38-6.52,7.33-12.73,11.84-18.64c9.4-12.33,22.41-19.03,36.18-24.81
		c3.69,2.31,5.44,5.09,5.16,9.97c-0.26,4.64,2.81,8.66,6.96,11.22c2.2,1.36,3.9,2.88,3.43,5.67c-0.47,2.82-2.73,3.8-5.17,4.27
		c-3.05,0.59-6.18,0.81-9.2,1.49c-1.87,0.42-2.86,1.88-1.94,3.84c0.88,1.86,2.48,1.05,3.71,0.5c2.4-1.07,4.59-2.68,7.06-3.47
		c3.28-1.05,6.26-0.06,8,3.08c1.53,2.76,0.82,5.98-2.06,6.52c-10.35,1.92-9.8,8.64-7.86,16.17c0.95,3.69,2.14,7.31,3.22,10.96
		c-2.12,1.58-3.33,3.71-2.29,6.23c3.62,8.73,1.12,16.99-1.97,25.06c-1.41,3.68-2.21,7.06-1.67,11.05
		C376.9,218.56,375.23,223.47,370.88,227.19z"/>
	<path class="st348" d="M228.16,130.87c-0.42-9.83,0.87-19.48,2.86-29.07c2.81,7.92,2.53,16.35,4.04,24.5
		C236.06,131.66,232.22,131.95,228.16,130.87z"/>
	<path class="st348" d="M457.72,121.4c-0.34,1.21-0.57,3.17-1.41,4.83c-1.86,3.65-5.39,4.49-9.14,4.66
		c-1.56,0.07-3.18-0.31-3.19-2.09c-0.01-3.3,1.56-6.54,4.19-7.94c4.59-2.44,4.05-5,1.88-8.62c-0.95-1.58-1.43-3.6-1.61-5.46
		c-0.27-2.69,1.13-4.89,3.8-5.33c4.01-0.66,2.61,3.14,2.59,4.53C454.73,111.14,457.36,115.68,457.72,121.4z"/>
</g>
</svg>
