<?xml version="1.0" encoding="utf-8"?>
<!-- Generator: Adobe Illustrator 24.2.3, SVG Export Plug-In . SVG Version: 6.00 Build 0)  -->
<svg version="1.1" id="Слой_1" xmlns="http://www.w3.org/2000/svg" xmlns:xlink="http://www.w3.org/1999/xlink" x="0px" y="0px"
	 viewBox="0 0 585 344" style="enable-background:new 0 0 585 344;" xml:space="preserve">
<style type="text/css">
	.st0{fill:#000600;}
	.st1{fill:#0071C5;}
	.st2{clip-path:url(#SVGID_2_);fill:#83D5FB;}
	.st3{clip-path:url(#SVGID_2_);fill:#00ABF0;}
	.st4{clip-path:url(#SVGID_2_);fill:#57CAF9;}
	.st5{clip-path:url(#SVGID_2_);fill:#0071C5;}
	.st6{clip-path:url(#SVGID_2_);fill:#31C5F8;}
	.st7{clip-path:url(#SVGID_2_);fill:#3DD1F9;}
	.st8{clip-path:url(#SVGID_4_);fill:#00ABF0;}
	.st9{clip-path:url(#SVGID_4_);fill:#83D5FB;}
	.st10{clip-path:url(#SVGID_4_);fill:#31C5F8;}
	.st11{clip-path:url(#SVGID_4_);fill:#0071C5;}
	.st12{clip-path:url(#SVGID_4_);fill:#57CAF9;}
	.st13{clip-path:url(#SVGID_4_);fill:#A6A6A6;}
	.st14{opacity:0.14;fill:#000600;}
	.st15{clip-path:url(#SVGID_8_);fill:#C980DD;}
	.st16{clip-path:url(#SVGID_8_);fill:#E7B3EE;}
	.st17{clip-path:url(#SVGID_8_);fill:#8C9295;}
	.st18{clip-path:url(#SVGID_8_);fill:#921C9F;}
	.st19{clip-path:url(#SVGID_8_);fill:#CDD0D3;}
	.st20{clip-path:url(#SVGID_8_);fill:#DFDBD1;}
	.st21{clip-path:url(#SVGID_8_);fill:#543F31;}
	.st22{clip-path:url(#SVGID_8_);fill:#C38A75;}
	.st23{clip-path:url(#SVGID_8_);fill:#B3B9BC;}
	.st24{clip-path:url(#SVGID_8_);fill:#8B9295;}
	.st25{clip-path:url(#SVGID_8_);fill:#D59C87;}
	.st26{fill:#E7B3EE;}
	.st27{clip-path:url(#SVGID_10_);}
	.st28{fill:#D6A1E6;}
	.st29{fill:#C980DD;}
	.st30{clip-path:url(#SVGID_12_);fill:#FFE050;}
	.st31{opacity:0.5;clip-path:url(#SVGID_12_);}
	.st32{fill:#A2C9FF;}
	.st33{fill:#FF8B00;}
	.st34{clip-path:url(#SVGID_12_);fill:#FFECA0;}
	.st35{clip-path:url(#SVGID_12_);}
	.st36{fill:#F9C956;}
	.st37{fill:#FFECA0;}
	.st38{fill:#2A356B;}
	.st39{clip-path:url(#SVGID_12_);fill:#F9C956;}
	.st40{clip-path:url(#SVGID_12_);fill:#A2C9FF;}
	.st41{clip-path:url(#SVGID_12_);fill:#FF8B00;}
	.st42{clip-path:url(#SVGID_12_);fill:#2A356B;}
	.st43{fill:#1B254E;}
	.st44{clip-path:url(#SVGID_12_);fill:#C22C28;}
	.st45{clip-path:url(#SVGID_12_);fill:#FF7400;}
	.st46{fill:#FFE050;}
	.st47{clip-path:url(#SVGID_12_);fill:#FFEB82;}
	.st48{clip-path:url(#SVGID_14_);fill:#FFE286;}
	.st49{fill:#FFFFFF;}
	.st50{fill:#ACD7C2;}
	.st51{fill:none;stroke:#FFFFFF;stroke-miterlimit:10;}
	.st52{fill:#A1CAAA;}
	.st53{fill:#95CCA0;}
	.st54{opacity:0.76;}
	.st55{fill:#C3E8CC;}
	.st56{fill:url(#SVGID_15_);}
	.st57{fill:url(#SVGID_16_);}
	.st58{fill:url(#SVGID_17_);}
	.st59{fill:#F5E5BD;}
	.st60{fill:url(#SVGID_18_);}
	.st61{fill:url(#SVGID_19_);}
	.st62{fill:url(#SVGID_20_);}
	.st63{fill:url(#SVGID_21_);}
	.st64{fill:url(#SVGID_22_);}
	.st65{fill:url(#SVGID_23_);}
	.st66{fill:#E3EDC3;}
	.st67{fill:#EEFAD1;}
	.st68{fill:url(#SVGID_24_);}
	.st69{fill:url(#SVGID_25_);}
	.st70{fill:url(#SVGID_26_);}
	.st71{fill:url(#SVGID_27_);}
	.st72{fill:url(#SVGID_28_);}
	.st73{fill:#FFE392;}
	.st74{clip-path:url(#SVGID_30_);fill:url(#SVGID_31_);}
	.st75{fill:#5B2A1E;}
	.st76{fill:#8F7673;}
	.st77{fill:url(#SVGID_32_);}
	.st78{fill:url(#SVGID_33_);}
	.st79{fill:url(#SVGID_34_);}
	.st80{fill:url(#SVGID_35_);}
	.st81{fill:#F79291;}
	.st82{fill:url(#SVGID_36_);}
	.st83{fill:#FF9D5B;}
	.st84{opacity:0.75;fill:#FFFFFF;}
	.st85{fill:#FFC28E;}
	.st86{fill:none;}
	.st87{clip-path:url(#SVGID_38_);fill:#FFE0C3;}
	.st88{clip-path:url(#SVGID_38_);fill:#FF9F36;}
	.st89{clip-path:url(#SVGID_38_);fill:#FFF3E2;}
	.st90{clip-path:url(#SVGID_40_);fill:#FAC1E3;}
	.st91{opacity:0.8;clip-path:url(#SVGID_40_);fill:#EF8FC7;}
	.st92{clip-path:url(#SVGID_40_);fill:#EF8FC7;}
	.st93{opacity:0.79;clip-path:url(#SVGID_40_);fill:#FAC1E3;}
	.st94{fill:url(#SVGID_41_);}
	.st95{fill:#FFFDEC;}
	.st96{fill:#78CB99;}
	.st97{fill:#B2E1C4;}
	.st98{fill:#D8EFE2;}
	.st99{opacity:0.44;fill:#FFFFFF;}
	.st100{clip-path:url(#SVGID_43_);fill:#FFF7C8;}
	.st101{fill:url(#SVGID_44_);}
	.st102{fill:url(#SVGID_45_);}
	.st103{opacity:0.86;fill:#FFD0D7;}
	.st104{fill:url(#SVGID_46_);}
	.st105{opacity:0.66;}
	.st106{opacity:0.37;fill:#FFFFFF;}
	.st107{opacity:0.4;}
	.st108{opacity:0.26;fill:#FFFFFF;}
	.st109{opacity:0.62;fill:#FFFFFF;}
	.st110{opacity:0.41;fill:#FFFFFF;}
	.st111{opacity:0.69;fill:#FFFFFF;}
	.st112{opacity:0.73;fill:#FFFFFF;}
	.st113{opacity:0.16;fill:#FFFFFF;}
	.st114{opacity:0.3;fill:#FFFFFF;}
	.st115{opacity:0.23;fill:#FFFFFF;}
	.st116{opacity:0.24;fill:#FFFFFF;}
	.st117{opacity:0.43;fill:#FFFFFF;}
	.st118{opacity:0.76;fill:#FFFFFF;}
	.st119{opacity:0.08;fill:#FFFFFF;}
	.st120{opacity:0.27;fill:#FFFFFF;}
	.st121{opacity:0.46;}
	.st122{opacity:0.86;fill:#FFFFFF;}
	.st123{opacity:0.54;fill:#FFFFFF;}
	.st124{opacity:0.28;}
	.st125{clip-path:url(#SVGID_48_);fill:#F17171;}
	.st126{clip-path:url(#SVGID_48_);fill:#F79291;}
	.st127{clip-path:url(#SVGID_48_);fill:#FFC5C4;}
	.st128{clip-path:url(#SVGID_48_);fill:#FFFFFF;}
	.st129{clip-path:url(#SVGID_50_);}
	.st130{fill:#FF7B89;}
	.st131{clip-path:url(#SVGID_50_);fill:none;}
	.st132{fill:none;stroke:#FFFFFF;stroke-width:2;stroke-miterlimit:10;}
	.st133{opacity:0.45;fill:#FFFFFF;}
	.st134{opacity:0.8;fill:#FFFFFF;}
	.st135{opacity:0.79;fill:#FFFFFF;}
	.st136{fill:#F1C4A9;}
	.st137{fill:none;stroke:#FFFFFF;stroke-width:0.75;stroke-miterlimit:10;}
	.st138{fill:#FFFFFF;stroke:#FFFFFF;stroke-width:0.25;stroke-miterlimit:10;}
	.st139{fill:#00A5C4;}
	.st140{fill:#31C5F8;}
	.st141{fill:#57CAF9;}
	.st142{fill:#00A8B8;}
	.st143{fill:#EA90A7;}
	.st144{fill:#91693D;}
	.st145{fill:#F2BECD;}
	.st146{fill:#D87290;}
	.st147{fill:#574435;}
	.st148{fill:#C8A37C;}
	.st149{fill:#641F1E;}
	.st150{fill:#E16C8D;}
	.st151{fill:#D63665;}
	.st152{fill:#DDB689;}
	.st153{fill:#F64776;}
	.st154{fill:#DEB689;}
	.st155{fill:#F2769B;}
	.st156{fill:#FAFAF8;}
	.st157{fill:#F7C3DB;}
	.st158{fill:#E3B9B4;}
	.st159{fill:#FFBEC5;}
	.st160{fill:#FFC9D7;}
	.st161{fill:#C73F69;}
	.st162{fill:#F7F7F7;}
	.st163{fill:#F2F2F2;}
	.st164{fill:#FFFBF1;}
	.st165{fill:#F8C3D1;}
	.st166{fill:#FC7798;}
	.st167{fill:#FFC5C4;}
	.st168{fill:#FFD0D7;}
	.st169{fill:#B39D8E;}
	.st170{fill:#FFE4EB;}
	.st171{fill:#F1F1F1;}
	.st172{fill:#FFA5B2;}
	.st173{fill:#A2C4DB;}
	.st174{fill:#583B34;}
	.st175{fill:#B1CFE4;}
	.st176{fill:#FBFBFA;}
	.st177{fill:#E0CFC7;}
	.st178{fill:#D9946B;}
	.st179{fill:#FFEBF2;}
	.st180{fill:#FCDDE6;}
	.st181{fill:#F2CCC1;}
	.st182{fill:#DF4E50;}
	.st183{fill:#45BC7A;}
	.st184{fill:#87E4AE;}
	.st185{fill:#00AC5F;}
	.st186{fill:#7FD9A9;}
	.st187{fill:#F1BB3A;}
	.st188{fill:#B89E65;}
	.st189{fill:#97D183;}
	.st190{fill:#3C3724;}
	.st191{fill:#D5BDA1;}
	.st192{fill:#9B8174;}
	.st193{fill:#587147;}
	.st194{fill:#E6D5BD;}
	.st195{fill:#5CC588;}
	.st196{clip-path:url(#SVGID_58_);fill:#B2E1C4;}
	.st197{clip-path:url(#SVGID_58_);fill:#FFFFFF;}
	.st198{clip-path:url(#SVGID_58_);fill:#78CB99;}
	.st199{fill:#FFEB82;}
	.st200{fill:#FFDF47;}
	.st201{clip-path:url(#SVGID_60_);fill:#F3A368;}
	.st202{clip-path:url(#SVGID_60_);fill-rule:evenodd;clip-rule:evenodd;fill:#FF8D4F;}
	.st203{clip-path:url(#SVGID_60_);fill:#E45C26;}
	.st204{clip-path:url(#SVGID_60_);fill:#F8B846;}
	.st205{fill:#E45C26;}
	.st206{fill:#FF8D4F;}
	.st207{fill:#FFAB33;}
	.st208{fill:#E46D00;}
	.st209{fill:#EE6406;}
	.st210{fill:#FF9B00;}
	.st211{fill:#130077;}
	.st212{fill:#FFBA98;}
	.st213{opacity:0.3;}
	.st214{fill:#FF7300;}
	.st215{fill:#6E0000;}
	.st216{fill-rule:evenodd;clip-rule:evenodd;fill:#FF9B00;}
	.st217{fill-rule:evenodd;clip-rule:evenodd;fill:url(#SVGID_61_);}
	.st218{opacity:0.3;fill-rule:evenodd;clip-rule:evenodd;fill:#A3002C;}
	.st219{fill-rule:evenodd;clip-rule:evenodd;fill:url(#SVGID_62_);}
	.st220{fill-rule:evenodd;clip-rule:evenodd;fill:url(#SVGID_63_);}
	.st221{opacity:0.5;fill-rule:evenodd;clip-rule:evenodd;fill:url(#SVGID_64_);}
	.st222{fill-rule:evenodd;clip-rule:evenodd;fill:#FFC384;}
	.st223{fill-rule:evenodd;clip-rule:evenodd;fill:url(#SVGID_65_);}
	.st224{fill-rule:evenodd;clip-rule:evenodd;fill:url(#SVGID_66_);}
	.st225{fill-rule:evenodd;clip-rule:evenodd;fill:url(#SVGID_67_);}
	.st226{opacity:0.5;fill-rule:evenodd;clip-rule:evenodd;fill:url(#SVGID_68_);}
	.st227{fill-rule:evenodd;clip-rule:evenodd;fill:#F3A368;}
	.st228{opacity:0.5;fill-rule:evenodd;clip-rule:evenodd;fill:#F3A368;}
	.st229{fill-rule:evenodd;clip-rule:evenodd;fill:#FF8D4F;}
	.st230{fill-rule:evenodd;clip-rule:evenodd;fill:#FFAB33;}
	.st231{opacity:0.62;fill-rule:evenodd;clip-rule:evenodd;fill:#C7002A;}
	.st232{opacity:0.5;fill-rule:evenodd;clip-rule:evenodd;fill:#FF8D4F;}
	.st233{opacity:0.5;fill-rule:evenodd;clip-rule:evenodd;fill:#8E5472;}
	.st234{opacity:0.3;fill-rule:evenodd;clip-rule:evenodd;fill:url(#SVGID_69_);}
	.st235{opacity:0.5;fill-rule:evenodd;clip-rule:evenodd;fill:url(#SVGID_70_);}
	.st236{opacity:0.3;fill-rule:evenodd;clip-rule:evenodd;fill:url(#SVGID_71_);}
	.st237{opacity:0.3;fill-rule:evenodd;clip-rule:evenodd;fill:url(#SVGID_72_);}
	.st238{clip-path:url(#SVGID_74_);}
	.st239{clip-path:url(#SVGID_74_);fill:#FF8D4F;}
	.st240{fill:#F3A368;}
	.st241{clip-path:url(#SVGID_76_);}
	.st242{fill:#E98B38;}
	.st243{clip-path:url(#SVGID_78_);}
	.st244{fill:#F8B846;}
	.st245{clip-path:url(#SVGID_80_);}
	.st246{clip-path:url(#SVGID_80_);fill:#FF8D4F;}
	.st247{fill-rule:evenodd;clip-rule:evenodd;fill:url(#SVGID_81_);}
	.st248{fill-rule:evenodd;clip-rule:evenodd;fill:url(#SVGID_82_);}
	.st249{fill-rule:evenodd;clip-rule:evenodd;fill:url(#SVGID_83_);}
	.st250{opacity:0.5;fill-rule:evenodd;clip-rule:evenodd;fill:url(#SVGID_84_);}
	.st251{fill-rule:evenodd;clip-rule:evenodd;fill:url(#SVGID_85_);}
	.st252{fill-rule:evenodd;clip-rule:evenodd;fill:url(#SVGID_86_);}
	.st253{fill-rule:evenodd;clip-rule:evenodd;fill:url(#SVGID_87_);}
	.st254{opacity:0.5;fill-rule:evenodd;clip-rule:evenodd;fill:url(#SVGID_88_);}
	.st255{opacity:0.3;fill-rule:evenodd;clip-rule:evenodd;fill:url(#SVGID_89_);}
	.st256{opacity:0.5;fill-rule:evenodd;clip-rule:evenodd;fill:url(#SVGID_90_);}
	.st257{opacity:0.3;fill-rule:evenodd;clip-rule:evenodd;fill:url(#SVGID_91_);}
	.st258{opacity:0.3;fill-rule:evenodd;clip-rule:evenodd;fill:url(#SVGID_92_);}
	.st259{opacity:0.88;fill:#FFFEF4;}
	.st260{fill:#FFCF66;}
	.st261{fill:#AFABAC;}
	.st262{fill:#FFE286;}
	.st263{fill:#FFE787;}
	.st264{fill:#F6C700;}
	.st265{fill:#FFEA96;}
	.st266{clip-path:url(#SVGID_94_);fill:#F9C956;}
	.st267{clip-path:url(#SVGID_94_);fill:#FFE050;}
	.st268{clip-path:url(#SVGID_96_);fill:#921C9F;}
	.st269{opacity:0.5;clip-path:url(#SVGID_96_);}
	.st270{fill:#921C9F;}
	.st271{clip-path:url(#SVGID_96_);}
	.st272{clip-path:url(#SVGID_98_);fill:#D6A1E6;}
	.st273{fill:#BC59D3;}
	.st274{opacity:0.5;fill:#FFFFFF;}
	.st275{opacity:0.5;fill:#FFFFFF;stroke:#FFFFFF;stroke-miterlimit:10;}
	.st276{opacity:0.68;fill:#FFFFFF;}
	.st277{fill:#E9CBF2;}
	.st278{fill:#D9A2E1;}
	.st279{fill:#AA7B41;}
	.st280{fill:#8C9295;}
	.st281{fill:#CDD0D3;}
	.st282{fill:#DFDBD1;}
	.st283{fill:#543F31;}
	.st284{fill:#C38A75;}
	.st285{fill:#B3B9BC;}
	.st286{fill:#8B9295;}
	.st287{fill:#D59C87;}
	.st288{fill:#3DD1F9;}
	.st289{fill:#F92405;}
	.st290{fill:#B30000;}
	.st291{fill:#FA3C20;}
	.st292{fill:#E2A080;}
	.st293{fill:#950000;}
	.st294{fill:#F50000;}
	.st295{clip-path:url(#SVGID_100_);fill:#EA90A7;}
	.st296{clip-path:url(#SVGID_100_);fill:#FFEBF2;}
	.st297{clip-path:url(#SVGID_100_);fill:#D3CFB3;}
	.st298{clip-path:url(#SVGID_100_);fill:#FCDDE6;}
	.st299{clip-path:url(#SVGID_100_);}
	.st300{clip-path:url(#SVGID_100_);fill:#FFC9D7;}
	.st301{fill:#FA90B4;}
	.st302{fill:#BCA494;}
	.st303{fill:#63443C;}
	.st304{fill:#CFABA0;}
	.st305{fill:#A1C3DA;}
	.st306{fill:#9B7972;}
	.st307{fill:#77573F;}
	.st308{fill-rule:evenodd;clip-rule:evenodd;fill:#FA3C20;}
	.st309{fill-rule:evenodd;clip-rule:evenodd;fill:#D00707;}
	.st310{fill-rule:evenodd;clip-rule:evenodd;fill:#F92405;}
	.st311{fill-rule:evenodd;clip-rule:evenodd;fill:#F50000;}
	.st312{fill-rule:evenodd;clip-rule:evenodd;fill:#F95F53;}
	.st313{fill:#F95F53;}
	.st314{clip-path:url(#SVGID_102_);fill:#574435;}
	.st315{clip-path:url(#SVGID_102_);fill:#C8A37C;}
	.st316{clip-path:url(#SVGID_102_);fill:#91693D;}
	.st317{clip-path:url(#SVGID_102_);fill:#D00707;}
	.st318{clip-path:url(#SVGID_102_);fill:#FA3C20;}
	.st319{clip-path:url(#SVGID_102_);fill:#950000;}
	.st320{clip-path:url(#SVGID_102_);fill:#F95F53;}
	.st321{clip-path:url(#SVGID_102_);fill:#131212;}
	.st322{clip-path:url(#SVGID_102_);fill:#B30000;}
	.st323{clip-path:url(#SVGID_102_);fill:#412A1A;}
	.st324{clip-path:url(#SVGID_102_);fill:#DEC6AF;}
	.st325{clip-path:url(#SVGID_102_);fill:#BF855C;}
	.st326{fill:#D00707;}
	.st327{fill:#AB9DB8;}
	.st328{fill:#381A12;}
	.st329{fill:#EBCBB8;}
	.st330{fill:#AC9EBB;}
	.st331{fill:#F8F6F5;}
	.st332{fill:#0A345E;}
	.st333{fill:#412A1A;}
	.st334{fill:#131212;}
	.st335{fill:#DEC6AF;}
	.st336{fill:#BF855C;}
	.st337{opacity:0.79;fill:#FFBEC5;}
	.st338{opacity:0.79;fill:#FA90B4;}
	.st339{fill:#83D5FB;}
	.st340{fill:#00ABF0;}
	.st341{opacity:0.6;fill:#FFFFFF;}
	.st342{opacity:0.34;fill:#FFFFFF;}
	.st343{opacity:0.25;fill:#FFFFFF;}
	.st344{opacity:0.6;}
	.st345{fill:#B2B0AD;}
	.st346{fill:#0D0707;}
	.st347{fill:#A6A6A6;}
	.st348{fill:#0068A8;}
</style>
<path class="st340" d="M383.44,228.38c16.33-2.36,32.66-4.75,49-7.04c3.69-0.52,6.59-1.88,8.93-4.98
	c3.41-4.51,6.96-8.99,10.98-12.93c9.27-9.09,14.56-20.19,18.61-32.32c5.71-17.15,11.97-34.14,18.44-51.03
	c4.46-11.65,11.9-21.81,17.62-32.84c0.93-1.8,2.06-1.67,3.48-0.65c2.89,2.07,6.5,3.58,8.56,6.27c1.58,2.06,4.02,3.16,14.98,6.22
	c9.24,2.58,27.71,7.26,51.96,12.63c-0.37,77.43-0.73,154.86-1.1,232.29c-50.4,0-100.81,0-151.21,0c0.79-0.4,1.91-1.05,3.07-2.08
	c1.61-1.43,1.76-2.9,2.9-3.46c2.62-1.28,5.39-2.22,8.05-3.4c3.1-1.37,6.28-2.66,8.28-5.83c-3.36,1.11-6.53,2.71-9.7,4.27
	c-10.28,5.08-30.6,3.07-38.95-9.52c-2.88-4.34-4.54-9.08-4.7-14.06c-0.28-8.85-0.93-17.76,0.81-26.57c0.21-1.59,1.36-2.69,2.09-4
	c1.89-2.98,3.98-5.82,6.26-8.52c0.72-0.85,1.66-1.78,1.17-2.97c-0.61-1.48-2.19-1.49-3.36-1.18c-6.14,1.63-12.46-0.4-18.59,1.05
	c-3.49-0.34-6.96-0.13-10.43,0.27c-2.81,0.33-5.08-0.3-5.58-3.59c0.1-1.11-0.08-2.27,0.17-3.35c2.14-9.18-1.37-16.63-6.94-23.55
	c-1.67-2.08-3.76-4.21-2.01-7.31C371.97,229.59,377.7,228.98,383.44,228.38z"/>
<path class="st141" d="M405.75,283.47c-1.2,10.77-2.15,21.59,0.6,32.24c2.53,9.77,10.8,16.02,21.01,17.47
	c8.41,1.2,15.99-0.37,23.28-4.46c3.91-2.19,8.02-4.04,12.45-5.61c-1.13,2.44-2.28,4.85-3.8,6.95c-1.65,2.28-3.73,3.73-6.03,5.08
	c-6.9,4.06-17.49,8.45-18.48,8.86c-121.99,0-243.98,0-365.97,0c-24.1-27.28-46.57-56.73-67.02-88.56c-0.6-0.94-1.2-1.88-1.8-2.82
	c13.28-1.95,26.24-1.47,39.03-2.95c2.56,0.79,2.8,3.23,2.93,5.13c0.38,5.64,3.66,7.64,8.74,8.55c22.17,3.96,44.34,7.94,66.49,12.06
	c20.39,3.79,40.86,7.21,61.19,11.29c6.25,1.26,11.67,0.3,17.16-2.96c9.46-5.62,19.42-10.39,29.01-15.82
	c0.96-0.55,2.12-0.87,2.84-2.53c-6.11-1.62-12.35-1.7-18.43-2.7c-5.11-0.84-10.37-0.71-15.37-2.17c-3.63-1.06-3.8-1.91-1.49-5.43
	c6.88-2.4,13.58-4.74,20.73-0.15c4.01,2.57,8.66,2.15,12.92-0.34c1.81-1.06,3.56-2.21,5.35-3.3c5.7-3.48,6.06-3.41,11.53,0.4
	c4.39,3.06,9.47,3.25,14.4,2.35c6.03-1.1,9.81,1.42,10.6,7.95c-1.17,2.6-3.61,2.47-5.83,2.51c-3.57,0.07-7.08,0.63-10.61,1.07
	c-2.49,0.31-2.79,1.66-0.99,3.1c5.7,4.55,10.26,10.31,15.98,14.83c3.06,2.42,6.4,3.57,10.31,3.51c20.84-0.34,41.63-1.57,62.43-2.75
	c7.42-0.42,14.86-0.54,22.27-0.83c13.55-0.52,27.1-1.85,40.69-1.33C403.34,282.17,404.83,281.95,405.75,283.47z"/>
<path class="st1" d="M193.06,256.58c-2.53,2.5,0.51,1.76,1.22,1.85c10.44,1.32,20.9,2.54,31.35,3.81c3.32,0.4,6.62,0.86,9.96,1.29
	c-0.25,2.1-1.76,2.26-2.79,2.82c-13.68,7.39-27.41,14.68-41.06,22.13c-3.02,1.65-5.88,2.02-9.28,1.39
	c-45.24-8.35-90.49-16.64-135.77-24.72c-4.9-0.87-7.1-2.77-6.84-7.78c0.13-2.55-0.52-5.14-0.82-7.71
	c-1.47-16.23-2.9-32.46-4.41-48.69c-1.18-12.69-2.42-25.38-3.72-38.06c-0.27-2.6,0.5-3.56,3.2-3.21c19.72,2.56,39.49,4.7,59.33,5.94
	c13.35,0.83,26.63,3.18,40.07,2.26c3.14-1.83,6.63-1.52,9.95-1.21c13.03,1.22,26.09,1.93,39.13,2.95c3.84,0.3,6.17,1.99,6.9,6.08
	c0.89,4.98,1.05,9.94,0.6,14.92c-0.22,2.44-0.24,4.82,0.19,7.21c1.34,3.96,1.89,8.03,1.61,12.2c-0.25,1.99-0.61,3.96-0.53,5.98
	c0.51,10.78,1.32,21.54,1.84,32.32C193.33,251.09,193.16,253.84,193.06,256.58z"/>
<path class="st340" d="M189.81,215.76c-1.18-1.55-0.83-3.35-0.82-5.09c0.81-3.91,0.14-7.87,0.35-11.8c0.03-0.47,0-0.95,0-1.42
	c-0.07,0.44-0.21,0.84-0.66,1.03c-1.41-6.52-0.81-13.18-1.08-19.76c-0.2-4.86-2.01-6.61-6.89-6.87
	c-14.35-0.74-28.68-1.94-43.01-3.01c-1.42-0.11-2.8-0.61-4.21-0.94c0.26-11.27-2.02-22.53-0.14-33.82
	c2.01-12.07,6.27-23.32,12.15-34c4.19-7.62,12.13-8.43,19.32-10.58c1.22-0.36,2.44-0.71,3.67-1.07c0.79-0.11,1.66-0.64,2.35-0.32
	c8.87,4.17,18.66,5.77,27.58,9.79c5.58,7.4,8.27,15.89,9.32,24.98c0.15,1.28,0.14,2.59,0.05,3.87c-0.83,11.6,0.74,22.85,4.94,33.71
	c0.5,1.3,0.83,2.65,0.9,4.06c0.17-5.25,2.1-10.12,3.41-15.1c2.6-9.83,5.08-19.69,8.04-29.43c1.26-4.13,3.26-5.9,7.71-5.12
	c5.22,0.92,10.03-0.42,12.19-5.63c3.21-7.73,9.93-11.09,16.61-14.68c1.79,0.07,3.43,0.61,4.97,1.52c1.51,2.86,4.57,2.01,6.9,2.66
	c9.3,2.61,12.24,5.84,11.85,15.47c-0.72,17.62-3.95,34.97-6.37,52.39c-1.95,14.07-4.16,28.12-8.19,41.79
	c-1.42,4.81-3.13,9.52-5.49,13.96c-2.63,4.94-6.01,9.19-11.19,11.72c-3.15,0.32-3.03-2.15-3.43-4.09
	c-1.2-5.78-3.12-11.07-8.24-14.73c-2.63-1.88-5.23-2.82-8.51-2.37c-5.71,0.78-11.43,1.51-17.18,1.99c-3.33-0.42-6.01,2.69-9.44,1.75
	c-3.99,0.03-7.95,0.38-11.91,0.8C193.27,217.66,191.17,217.91,189.81,215.76z"/>
<path class="st140" d="M384.42,68c-7.53-0.6-11.05-4.59-10.39-12.08c0.52-5.94,1.52-11.85,1.83-17.8c0.24-4.62,2.59-8.2,4.64-12
	c0.63-3.6,4.02-5.08,5.94-7.68c1.2-2.36,3.13-3.69,5.75-4.04c3-3.94,8.07-4.13,11.91-6.56c3.5-1.64,6.93-3.46,10.51-4.89
	c8.45-3.39,16.8-3.73,25.92-1.51c10.67,2.6,20.51,6.37,29.95,11.91c18.24,10.7,19.02,10.99,24.32,31.11
	c1.24,4.69,0.44,9.93,0.48,14.92c0.06,8.09,0.76,16.12,1.93,24.12c1.23,2.44,0.68,4.44-1.67,5.77c-2.37,1.34-4.77,3.06-7.62,1
	c-3.94-2.84-7.93-5.62-11.86-8.47c-5.26-3.82-10.68-7.37-17.04-9.14c-9.05-2.51-15.4,2.2-15.7,11.63
	c-0.18,5.47,1.77,10.48,3.57,15.51c2.01,5.6,1.53,7.09-2.92,8.94c-7.24,3-9.6,2.49-12.02-2.82c-2.08-4.56-3.73-9.31-5.5-14
	c-1.57-4.18-4.21-7.09-8.59-7.65c-8.65-1.1-12.62-6.11-13.35-14.42c-0.27-3.06-1.22-6.02-2.05-8.98c-1.24-4.45-2.59-4.87-6.47-2.11
	c-2.54,1.81-4.53,4.15-6.36,6.63C388.32,67.16,386.96,68.74,384.42,68z"/>
<path class="st141" d="M384.42,68c4.15-4.94,7.82-10.27,13.65-13.61c4.93-2.82,4.8-3.01,6.01,2.33c1.39,6.15,2.94,12.26,4.19,18.44
	c0.58,2.88,1.85,4.9,4.85,5.16c10.52,0.91,15.8,7.18,18.03,16.92c0.61,2.65,2.07,5.1,2.86,7.72c0.87,2.87,2.27,3.69,5.33,2.85
	c7.07-1.94,7.07-1.77,4.56-8.75c-1.53-4.26-3.07-8.53-3.24-13.13c-0.48-12.78,8.66-19.57,20.68-15.23
	c9.29,3.35,17.09,9.3,24.55,15.45c5.28,4.35,9.04,2.32,11.31-2.64c0.8,0.13,1.63,0.16,2.39,0.41c4.36,1.49,4.64,2.42,1.7,5.91
	c-9.39,11.13-18.8,22.24-28.19,33.37c-4.6,5.44-9.47,10.68-13.67,16.4c-3.29,4.48-7.26,7.31-12.66,8.11
	c-4.94,0.73-9.38,3.7-14.63,3.1c-6.12-0.69-9.14-3.94-9.06-10.09c0.02-1.38-0.26-2.55-1.14-3.59c-0.31-0.37-0.58-0.89-0.99-1.06
	c-3.76-1.56,0.46-6.62-3.06-7.65c-2.91-0.84-5.97-0.51-8.03-3.54c-1.61-2.38-3.92-1.3-6.12-0.35c-6.59,2.86-8.48,1.63-8.6-5.56
	c-0.07-4.2-0.17-8.39,0.64-12.58c0.69-3.59,0.45-7.03-2.48-9.88c-4.3-4.17-5.46-9.62-5.98-15.36C386.9,76.68,386.67,72.1,384.42,68z
	"/>
<path class="st140" d="M197.51,98.99c-10.12-2.3-20.35-4.26-29.02-10.55c15.45-20.12,26.85-42.48,36.91-65.65
	c7.54-17.36,17.29-23.02,40.43-19.41c21.69,3.38,34.08,16.28,35.53,37.47c0.85,12.53-0.89,25.46-6.18,37.35
	c-2.69,6.04-5.73,11.93-8.62,17.89c-1.22,0.56-2.43,1.34-3.71,0.11c-1.4-1.52-0.58-3.01,0.08-4.49c4.43-9.91,5.11-20.65,6.9-31.14
	c0.62-3.61-1.2-6.12-4.57-7.7c-13.54-6.33-26.56-6.32-38.97,2.81c-1.69,1.24-3.48,2.37-5.33,3.38c-5.15,2.8-8.18,7.22-9.78,12.73
	c-1.22,4.21-2.28,8.53-2.28,12.86c-0.01,6.37-4.57,9.65-8.18,13.65C199.9,99.22,198.64,99.04,197.51,98.99z"/>
<path class="st288" d="M189.81,215.76c5.87-0.66,11.74-1.31,17.61-1.97c3.33,0.68,6.53,0.29,9.64-1.03
	c6.54-0.94,13.09-1.82,19.61-2.85c2.58-0.4,4.24,1.02,6.06,2.38c6.3,4.69,10.17,10.68,10.3,18.75c0.02,1.1-0.08,2.3,1.03,3.05
	c0.69,0.35,1.38,0.71,2.07,1.06c7.59,7.37,13.28,16.37,20.59,23.99c0.57,0.6,0.64,1.45,0.82,2.25c0.95,3.03-0.27,5.14-3.01,6.24
	c-2.96,1.19-4.86-0.7-6.61-2.76c-0.9-1.05-0.78-2.44-1.3-3.61c-0.99-1.07-2.03-2.1-2.94-3.23c-1.48-1.83-2.49-3.05-5.29-1.14
	c-2.98,2.03-15.47-1.1-17.86-3.92c-1.68-1.99-3.41-2.31-5.51-1.05c-2.78,1.66-5.45,3.51-8.28,5.08c-5.96,3.3-11.87,3-17.27-1.13
	c-1.96-1.5-3.82-1.56-5.9-1.22c-3.52,0.57-7.01,1.27-10.51,1.92c-1.21-0.65-2.04-1.59-2.12-3.01c-0.67-11.52-1.36-23.04-1.94-34.57
	C188.94,217.94,189.52,216.84,189.81,215.76z"/>
<path class="st288" d="M276.38,233.93c7.98-0.38,14.7-3.78,20.94-8.5c3.5-2.65,6.72,0.85,10.13,0.72c1.24,1.28,0.16,2.32-0.42,3.32
	c-1.97,3.41-4.39,6.52-6.5,9.85c-0.5,0.44,0.55,0.32-0.03,0.04c-0.09-0.04-0.05-0.19,0.13-0.41c2.3-2.85,4.05-6.09,6.22-9.02
	c0.85-1.14,1.21-3.37,3.56-2.71c3.62,3.27,7.81,3.87,12.49,3.04c2-0.36,4.13,0,6.21,0.04c0,2.52-1.82,2.13-2.41,2.19
	c3.95-0.03,8.44,3.53,13.62,1.79c1.86-0.63,3.77-0.9,5.69-0.13c1.38,0.13,2.75-0.12,4.12-0.11c4.81,0.01,7.28,2.03,7.28,6.89
	c0,7.23-0.34,14.48-1.7,21.61c-0.65,2.64-2.83,2.85-4.95,2.91c-11.91,0.34-23.68,3.26-35.68,1.99c-1.85-0.2-3.41,0.5-4.94,1.59
	c-3.77,2.71-17.22,3.12-20.79,0.28c-2.18-1.73-4.49-3.85-4.81-6.97c-0.14-1.3-0.83-2.02-1.66-2.78c-4.46-6.34-4.57-13.85-5.46-21.11
	C277.21,236.87,277.09,235.36,276.38,233.93z"/>
<path class="st339" d="M276.38,233.93c1.75,0.08,3.51,0.15,4.74,0.21c-2.99,8.65,0.62,16.33,3.2,24.12
	c0.16,3.93-1.58,5.61-5.09,4.87c-1.42-0.3-2.54-1.22-3.72-2c-6.52-7.57-13.44-14.82-19.09-23.12c-0.7-1.02-2.27-1.69-0.28-2.87
	C262.89,234.74,269.63,234.34,276.38,233.93z"/>
<path class="st1" d="M310.41,227.22c-2.76,4.33-5.54,8.64-8.26,12.99c-1.35,2.15-3.05,3.69-6.6,4.02c3.4-6.82,8.06-12.19,11.9-18.07
	c2.84-3.11,3.39-8,8.12-10.52C315.43,220.7,312.15,223.62,310.41,227.22z"/>
<path class="st1" d="M275.51,261.14c3.14-0.32,7.11,1.87,8.81-2.88c2.04-0.27,3.45-0.1,3.24,2.68c-0.33,4.52,2.35,6.77,6.76,6.7
	c2.84-0.05,5.77,0.4,8.53,1.11c2.65,0.68,4.5,0.12,5.6-2.28c1.04-2.28,2.78-2.31,4.84-2.05c8.86,1.07,17.62,1.28,26.49-0.78
	c4.63-1.08,9.66-0.4,14.52-0.51c1-1.07,2.1-1.94,3.66-2.06c5.12-0.4,10.23-0.47,15.35,0.05c1.36,0.14,2.4,0.81,3.16,1.94
	c0.05,2.45,1.56,2.76,3.59,2.63c4.01-0.24,8.02-0.34,12.04-0.5c6.35,1.27,10.18,6.02,14.22,10.42c1.25,1.36,2.5,2.92,1.37,5.03
	c-0.65,0.94-1.29,1.88-1.94,2.82c-2.63,1.02-5.4,0.89-8.15,1c-33.32,1.36-66.65,2.58-99.96,4.22c-8.25,0.41-16.51,0.43-24.75,0.97
	c-2.06,0.14-3.78-0.29-5.34-1.72c-7.72-7.14-15.5-14.22-23.22-21.36c-0.76-0.7-2.2-1.39-1.5-2.7c0.6-1.12,2.04-0.62,3.12-0.72
	c6.89-0.6,13.88-0.19,20.67-1.9c1.24,1.04,2.47,2.08,3.71,3.11c1.16,0.96,2.39,1.8,3.95,0.96
	C276.07,264.37,276.09,262.83,275.51,261.14z"/>
<path class="st141" d="M376.47,263.07c-7.39,0.02-14.78,0.05-22.16,0.07c0.07-5.93-0.08-11.83,0.68-17.76
	c1.01-7.93-0.53-9.42-8.39-9.43c-0.8,0-1.61,0-2.41-0.01c0.65-1.92,1.63-3.66,3.87-3.78c6.22-0.34,12.41-1.79,18.69-0.72
	c4.01,5.95,9.38,11.09,11.01,18.45C378.75,254.42,378.34,258.81,376.47,263.07z"/>
<path class="st339" d="M407.69,280.65c-4.39-5.96-10.39-10.3-15.59-15.44c7.52-0.34,15.05-0.66,22.57-1.03
	c3.05-0.15,4.47,0.52,2.22,3.62C413.78,272.05,410.75,276.36,407.69,280.65z"/>
<path class="st339" d="M197.51,98.99c0.2-0.25,0.37-0.54,0.6-0.76c5.74-5.36,9.14-11.63,9.23-19.81c0.06-5.68,2.19-11.06,5.53-15.8
	c7.83-11.12,29.54-19.55,42.5-15.69c20.17,6,18.51,5.06,15.39,23.7c-1.48,8.82-1.88,18.1-7.9,25.58c-1.77,1.14-3.49,2.35-5.31,3.4
	c-4.25,2.45-7.9,5.21-9.79,10.15c-2.47,6.49-7.74,9.03-14.45,7.56c-4.11-0.9-5.34,0.87-6.23,4.36
	c-3.58,13.92-7.35,27.79-11.06,41.68c-0.58,2.15-1.23,4.28-2.33,6.44c-3.14-10.79-9.11-20.77-8.32-32.45
	C206.27,123.82,203.93,111,197.51,98.99z"/>
<path class="st339" d="M210.24,234.5c4.68-0.93,7.87,0.57,12.21,0.32C217.85,237.99,214.72,235.81,210.24,234.5z"/>
</svg>
