<svg id="Capa_1" enable-background="new 0 0 512 512" height="512" viewBox="0 0 512 512" width="512" xmlns="http://www.w3.org/2000/svg"><g><path d="m76 76c-8.291 0-15-6.709-15-15v-30c0-8.291 6.709-15 15-15s15 6.709 15 15v30c0 8.291-6.709 15-15 15z" fill="#704c55"/><path d="m211 31v30c0 8.399-6.599 15-15 15s-15-6.601-15-15v-30c0-8.401 6.599-15 15-15s15 6.599 15 15z" fill="#704c55"/><path d="m317 76c-8.291 0-15-6.709-15-15v-30c0-8.291 6.709-15 15-15s15 6.709 15 15v30c0 8.291-6.709 15-15 15z" fill="#5a344b"/><path d="m211 31v30c0 8.399-6.599 15-15 15v-60c8.401 0 15 6.599 15 15z" fill="#5a344b"/><path d="m392 106v255c0 8.399-6.599 15-15 15h-362c-8.401 0-15-6.601-15-15v-255l30-30h332z" fill="#e4f1fb"/><path d="m392 106v255c0 8.399-6.599 15-15 15h-181v-300h166z" fill="#c9e3f7"/><path d="m392 61v45h-392v-45c0-8.401 6.599-15 15-15h362c8.401 0 15 6.599 15 15z" fill="#ff7f4b"/><path d="m392 61v45h-196v-60h181c8.401 0 15 6.599 15 15z" fill="#fd5219"/><g fill="#64dde0"><path d="m106 196h-30c-8.291 0-15-6.709-15-15s6.709-15 15-15h30c8.291 0 15 6.709 15 15s-6.709 15-15 15z"/><path d="m211 181c0 8.399-6.599 15-15 15h-30c-8.401 0-15-6.601-15-15 0-8.401 6.599-15 15-15h30c8.401 0 15 6.599 15 15z"/><path d="m106 256h-30c-8.291 0-15-6.709-15-15s6.709-15 15-15h30c8.291 0 15 6.709 15 15s-6.709 15-15 15z"/><path d="m106 316h-30c-8.291 0-15-6.709-15-15s6.709-15 15-15h30c8.291 0 15 6.709 15 15s-6.709 15-15 15z"/><path d="m211 301c0 8.399-6.599 15-15 15h-30c-8.401 0-15-6.601-15-15 0-8.401 6.599-15 15-15h30c8.401 0 15 6.599 15 15z"/><path d="m211 241c0 8.399-6.599 15-15 15h-30c-8.401 0-15-6.601-15-15 0-8.401 6.599-15 15-15h30c8.401 0 15 6.599 15 15z"/></g><path d="m287 196h-30c-8.291 0-15-6.709-15-15s6.709-15 15-15h30c8.291 0 15 6.709 15 15s-6.709 15-15 15z" fill="#00a0aa"/><path d="m211 301c0 8.399-6.599 15-15 15v-30c8.401 0 15 6.599 15 15z" fill="#00a0aa"/><path d="m211 241c0 8.399-6.599 15-15 15v-30c8.401 0 15 6.599 15 15z" fill="#00a0aa"/><path d="m211 181c0 8.399-6.599 15-15 15v-30c8.401 0 15 6.599 15 15z" fill="#00a0aa"/><path d="m377 226c-74.399 0-135 60.599-135 135 0 74.399 60.601 135 135 135s135-60.601 135-135c0-74.401-60.601-135-135-135z" fill="#ff7f4b"/><path d="m512 361c0 74.399-60.601 135-135 135v-270c74.399 0 135 60.599 135 135z" fill="#fd5219"/><circle cx="377" cy="361" fill="#e4f1fb" r="105"/><path d="m482 361c0 57.9-47.1 105-105 105v-210c57.9 0 105 47.1 105 105z" fill="#c9e3f7"/><path d="m417.605 380.395-25.605-25.606v-53.789c0-8.291-6.709-15-15-15s-15 6.709-15 15v60c0 3.984 1.582 7.793 4.395 10.605l10.605 10.606 19.395 19.395c5.859 5.859 15.352 5.859 21.211 0s5.859-15.352-.001-21.211z" fill="#704c55"/><path d="m417.605 401.605c5.859-5.859 5.859-15.352 0-21.211l-25.605-25.605v-53.789c0-8.291-6.709-15-15-15v96.211l19.395 19.395c5.859 5.859 15.351 5.859 21.21-.001z" fill="#5a344b"/></g></svg>