<?xml version="1.0" encoding="utf-8"?>
<!-- Generator: Adobe Illustrator 24.2.3, SVG Export Plug-In . SVG Version: 6.00 Build 0)  -->
<svg version="1.1" id="Слой_1" xmlns="http://www.w3.org/2000/svg" xmlns:xlink="http://www.w3.org/1999/xlink" x="0px" y="0px"
	 viewBox="0 0 585 577" style="enable-background:new 0 0 585 577;" xml:space="preserve">
<style type="text/css">
	.st0{fill:#00C377;}
	.st1{fill:#A6E5C3;}
	.st2{fill:#58D196;}
	.st3{fill:#88E5AF;}
	.st4{fill:#00B45A;}
	.st5{fill:#FFFFFF;}
	.st6{fill:#FF6567;}
	.st7{fill:url(#SVGID_1_);}
	.st8{fill:#ADD8C3;}
	.st9{fill:none;stroke:#FFFFFF;stroke-miterlimit:10;}
	.st10{fill:#A2CBAB;}
	.st11{fill:#96CDA1;}
	.st12{opacity:0.76;}
	.st13{fill:#C4E9CD;}
	.st14{fill:url(#SVGID_2_);}
	.st15{fill:url(#SVGID_3_);}
	.st16{fill:#F6E6BE;}
	.st17{fill:url(#SVGID_4_);}
	.st18{fill:url(#SVGID_5_);}
	.st19{fill:url(#SVGID_6_);}
	.st20{fill:#E4EEC4;}
	.st21{fill:#EFFBD2;}
	.st22{fill:url(#SVGID_7_);}
	.st23{fill:url(#SVGID_8_);}
	.st24{fill:url(#SVGID_9_);}
	.st25{fill:url(#SVGID_10_);}
	.st26{fill:#FFE493;}
	.st27{clip-path:url(#SVGID_12_);fill:url(#SVGID_13_);}
	.st28{fill:#5B2A1E;}
	.st29{fill:#907673;}
	.st30{fill:url(#SVGID_14_);}
	.st31{fill:url(#SVGID_15_);}
	.st32{fill:url(#SVGID_16_);}
	.st33{fill:url(#SVGID_17_);}
	.st34{fill:#FE82C8;}
	.st35{opacity:0.62;clip-path:url(#SVGID_19_);fill:#FFFFFF;}
	.st36{opacity:0.75;clip-path:url(#SVGID_19_);fill:#FFFFFF;}
	.st37{opacity:0.41;clip-path:url(#SVGID_19_);fill:#FFFFFF;}
	.st38{clip-path:url(#SVGID_19_);fill:none;}
	.st39{clip-path:url(#SVGID_21_);}
	.st40{opacity:0.26;fill:#FFFFFF;}
	.st41{opacity:0.69;fill:#FFFFFF;}
	.st42{fill:none;}
	.st43{opacity:0.16;fill:#FFFFFF;}
	.st44{opacity:0.3;fill:#FFFFFF;}
	.st45{opacity:0.23;fill:#FFFFFF;}
	.st46{opacity:0.24;fill:#FFFFFF;}
	.st47{opacity:0.17;}
	.st48{opacity:0.05;fill:#E2E8E4;}
	.st49{clip-path:url(#SVGID_23_);}
	.st50{opacity:0.76;clip-path:url(#SVGID_23_);fill:#FFFFFF;}
	.st51{clip-path:url(#SVGID_23_);fill:url(#SVGID_24_);}
	.st52{clip-path:url(#SVGID_23_);fill:none;stroke:#FFFFFF;stroke-width:2;stroke-linecap:round;stroke-miterlimit:10;}
	.st53{clip-path:url(#SVGID_23_);fill:url(#SVGID_25_);}
	.st54{clip-path:url(#SVGID_23_);fill:url(#SVGID_26_);}
	.st55{clip-path:url(#SVGID_23_);fill:url(#SVGID_27_);}
	.st56{clip-path:url(#SVGID_23_);fill:url(#SVGID_28_);}
	.st57{clip-path:url(#SVGID_23_);fill:#FFFFFF;}
	.st58{clip-path:url(#SVGID_23_);fill:url(#SVGID_29_);}
	.st59{opacity:0.62;clip-path:url(#SVGID_31_);fill:#FFFFFF;}
	.st60{clip-path:url(#SVGID_31_);fill:#FFFFFF;}
	.st61{opacity:0.41;clip-path:url(#SVGID_31_);fill:#FFFFFF;}
	.st62{clip-path:url(#SVGID_31_);fill:none;}
	.st63{clip-path:url(#SVGID_33_);}
	.st64{fill:url(#SVGID_34_);}
	.st65{opacity:0.74;clip-path:url(#SVGID_36_);fill:url(#SVGID_37_);}
	.st66{fill:#E5E5E5;}
	.st67{fill:none;stroke:#4D4D4D;stroke-width:0.75;stroke-linecap:round;stroke-miterlimit:10;}
	.st68{fill:url(#SVGID_38_);}
	.st69{opacity:0.74;fill:url(#SVGID_39_);}
	.st70{opacity:0.74;fill:url(#SVGID_40_);}
	.st71{opacity:0.74;fill:url(#SVGID_41_);}
	.st72{opacity:0.74;fill:url(#SVGID_42_);}
	.st73{fill:url(#SVGID_43_);}
	.st74{opacity:0.66;}
	.st75{opacity:0.37;fill:#FFFFFF;}
	.st76{fill:url(#SVGID_44_);}
	.st77{fill:url(#SVGID_45_);}
	.st78{opacity:0.44;clip-path:url(#SVGID_47_);fill:#FFFFD9;}
	.st79{opacity:0.43;clip-path:url(#SVGID_49_);fill:#FFFFFF;}
	.st80{clip-path:url(#SVGID_49_);fill:none;stroke:#FFFFFF;stroke-miterlimit:10;}
	.st81{opacity:0.76;clip-path:url(#SVGID_49_);fill:#FFFFFF;}
	.st82{clip-path:url(#SVGID_49_);fill:#FFFFFF;}
	.st83{opacity:0.08;clip-path:url(#SVGID_49_);fill:#FFFFFF;}
	.st84{opacity:0.27;clip-path:url(#SVGID_49_);fill:#FFFFFF;}
	.st85{opacity:0.37;clip-path:url(#SVGID_49_);fill:#FFFFFF;}
	.st86{clip-path:url(#SVGID_49_);fill:none;}
	.st87{fill:url(#SVGID_50_);}
	.st88{opacity:0.62;clip-path:url(#SVGID_52_);fill:#FFFFFF;}
	.st89{clip-path:url(#SVGID_52_);fill:#FFFFFF;}
	.st90{opacity:0.41;clip-path:url(#SVGID_52_);fill:#FFFFFF;}
	.st91{clip-path:url(#SVGID_52_);fill:none;}
	.st92{clip-path:url(#SVGID_54_);}
	.st93{opacity:0.55;fill:url(#SVGID_55_);}
	.st94{fill:url(#SVGID_56_);}
	.st95{fill:url(#SVGID_57_);}
	.st96{opacity:0.28;}
	.st97{opacity:0.56;clip-path:url(#SVGID_59_);fill:#FFFFFF;}
	.st98{opacity:0.43;clip-path:url(#SVGID_61_);fill:#FFFFFF;}
	.st99{clip-path:url(#SVGID_61_);fill:none;stroke:#FFFFFF;stroke-miterlimit:10;}
	.st100{opacity:0.76;clip-path:url(#SVGID_61_);fill:#FFFFFF;}
	.st101{clip-path:url(#SVGID_61_);fill:#FFFFFF;}
	.st102{opacity:0.08;clip-path:url(#SVGID_61_);fill:#FFFFFF;}
	.st103{opacity:0.27;clip-path:url(#SVGID_61_);fill:#FFFFFF;}
	.st104{opacity:0.37;clip-path:url(#SVGID_61_);fill:#FFFFFF;}
	.st105{clip-path:url(#SVGID_61_);fill:none;}
	.st106{clip-path:url(#SVGID_63_);fill:none;}
	.st107{opacity:0.46;}
	.st108{opacity:0.86;fill:#FFFFFF;}
	.st109{opacity:0.4;}
	.st110{opacity:0.73;fill:#FFFFFF;}
	.st111{opacity:0.54;clip-path:url(#SVGID_65_);fill:#FFFFFF;}
	.st112{fill:#FF8A8A;}
	.st113{opacity:0.75;fill:#FFFFFF;}
	.st114{fill:#FFC181;}
	.st115{clip-path:url(#SVGID_67_);fill:#FFDFBD;}
	.st116{clip-path:url(#SVGID_67_);fill:#FF9D00;}
	.st117{clip-path:url(#SVGID_67_);fill:#FFF3DF;}
	.st118{clip-path:url(#SVGID_69_);fill:#FFBAE4;}
	.st119{opacity:0.8;clip-path:url(#SVGID_69_);fill:#FE82C8;}
	.st120{clip-path:url(#SVGID_69_);fill:#FE82C8;}
	.st121{opacity:0.79;clip-path:url(#SVGID_69_);fill:#FFBAE4;}
	.st122{fill:#FFFEEA;}
	.st123{fill:#D2F2E1;}
	.st124{opacity:0.44;fill:#FFFFFF;}
	.st125{clip-path:url(#SVGID_71_);fill:#FFF9C1;}
	.st126{opacity:0.86;fill:#FFCCD5;}
	.st127{opacity:0.62;clip-path:url(#SVGID_73_);fill:#FFFFFF;}
	.st128{opacity:0.75;clip-path:url(#SVGID_73_);fill:#FFFFFF;}
	.st129{opacity:0.41;clip-path:url(#SVGID_73_);fill:#FFFFFF;}
	.st130{clip-path:url(#SVGID_73_);fill:none;}
	.st131{clip-path:url(#SVGID_75_);}
	.st132{opacity:0.44;clip-path:url(#SVGID_77_);fill:#FFFFFF;}
	.st133{opacity:0.43;clip-path:url(#SVGID_79_);fill:#FFFFFF;}
	.st134{clip-path:url(#SVGID_79_);fill:none;stroke:#FFFFFF;stroke-miterlimit:10;}
	.st135{opacity:0.76;clip-path:url(#SVGID_79_);fill:#FFFFFF;}
	.st136{clip-path:url(#SVGID_79_);fill:#FFFFFF;}
	.st137{opacity:0.08;clip-path:url(#SVGID_79_);fill:#FFFFFF;}
	.st138{opacity:0.27;clip-path:url(#SVGID_79_);fill:#FFFFFF;}
	.st139{opacity:0.37;clip-path:url(#SVGID_79_);fill:#FFFFFF;}
	.st140{clip-path:url(#SVGID_79_);fill:none;}
	.st141{opacity:0.54;clip-path:url(#SVGID_81_);fill:#FFFFFF;}
	.st142{opacity:0.62;fill:#FFFFFF;}
	.st143{opacity:0.41;fill:#FFFFFF;}
	.st144{opacity:0.43;fill:#FFFFFF;}
	.st145{opacity:0.76;fill:#FFFFFF;}
	.st146{opacity:0.08;fill:#FFFFFF;}
	.st147{opacity:0.27;fill:#FFFFFF;}
	.st148{opacity:0.54;fill:#FFFFFF;}
	.st149{clip-path:url(#SVGID_83_);fill:#FF6567;}
	.st150{clip-path:url(#SVGID_83_);fill:#FF8A8A;}
	.st151{clip-path:url(#SVGID_83_);fill:#FFC2C1;}
	.st152{clip-path:url(#SVGID_83_);fill:#FFFFFF;}
	.st153{clip-path:url(#SVGID_85_);fill:#E2E9FF;}
	.st154{clip-path:url(#SVGID_85_);fill:#EEF2FF;}
	.st155{opacity:0.54;clip-path:url(#SVGID_85_);fill:#EEF2FF;}
	.st156{opacity:0.54;clip-path:url(#SVGID_85_);fill:#8FAAF0;}
	.st157{clip-path:url(#SVGID_87_);}
	.st158{fill:#FF6B81;}
	.st159{clip-path:url(#SVGID_87_);fill:none;}
	.st160{fill:#FF1B6F;}
	.st161{clip-path:url(#SVGID_89_);fill:#FFDFBD;}
	.st162{clip-path:url(#SVGID_89_);fill:#FF9D00;}
	.st163{clip-path:url(#SVGID_89_);fill:#FFF3DF;}
	.st164{clip-path:url(#SVGID_91_);fill:#F0C6F4;}
	.st165{opacity:0.8;clip-path:url(#SVGID_91_);fill:#F8E3F8;}
	.st166{clip-path:url(#SVGID_91_);fill:#F8E3F8;}
	.st167{opacity:0.79;clip-path:url(#SVGID_91_);fill:#F0C6F4;}
	.st168{clip-path:url(#SVGID_93_);fill:#FFF9C1;}
	.st169{clip-path:url(#SVGID_95_);fill:#FFC5D6;}
	.st170{clip-path:url(#SVGID_95_);fill:#FF94B3;}
	.st171{clip-path:url(#SVGID_95_);fill:#FF6794;}
	.st172{clip-path:url(#SVGID_95_);fill:#FFFFFF;}
	.st173{clip-path:url(#SVGID_97_);fill:#698DE6;}
	.st174{clip-path:url(#SVGID_97_);fill:#8FAAF0;}
	.st175{opacity:0.54;clip-path:url(#SVGID_97_);fill:#8FAAF0;}
	.st176{clip-path:url(#SVGID_99_);}
	.st177{clip-path:url(#SVGID_99_);fill:none;}
	.st178{opacity:0.46;clip-path:url(#SVGID_101_);}
	.st179{clip-path:url(#SVGID_101_);fill:none;}
	.st180{fill:none;stroke:#FFFFFF;stroke-width:2;stroke-miterlimit:10;}
	.st181{opacity:0.45;fill:#FFFFFF;}
	.st182{opacity:0.8;fill:#FFFFFF;}
	.st183{opacity:0.79;fill:#FFFFFF;}
	.st184{fill:#F2C5AA;}
	.st185{fill:none;stroke:#FFFFFF;stroke-width:0.75;stroke-miterlimit:10;}
	.st186{fill:#FFFFFF;stroke:#FFFFFF;stroke-width:0.25;stroke-miterlimit:10;}
	.st187{fill:#D3C1B2;}
	.st188{fill:#FFC5D6;}
	.st189{clip-path:url(#SVGID_109_);fill:#F787A5;}
	.st190{clip-path:url(#SVGID_109_);fill:#FFE9F2;}
	.st191{clip-path:url(#SVGID_109_);fill:#D3CFB3;}
	.st192{clip-path:url(#SVGID_109_);fill:#FFDBE5;}
	.st193{clip-path:url(#SVGID_109_);}
	.st194{fill:#FFE9F2;}
	.st195{fill:#F787A5;}
	.st196{fill:#F2CCC1;}
	.st197{fill:#DF4E50;}
	.st198{clip-path:url(#SVGID_109_);fill:#FFC5D6;}
	.st199{fill:#FFDBE5;}
	.st200{fill:#FFB9C3;}
	.st201{fill:#FB91B5;}
	.st202{fill:#E3A180;}
	.st203{fill:#92693D;}
	.st204{fill:#FBBACC;}
	.st205{fill:#E6678D;}
	.st206{fill:#574435;}
	.st207{fill:#C9A47C;}
	.st208{fill:#641F1E;}
	.st209{fill:#F15E89;}
	.st210{fill:#E7005E;}
	.st211{fill:#DEB78A;}
	.st212{fill:#DFB78A;}
	.st213{fill:#FF6794;}
	.st214{fill:#D72264;}
	.st215{fill:#F7F7F7;}
	.st216{fill:#F2F2F2;}
	.st217{fill:#FFFBF0;}
	.st218{fill:#FFBFCF;}
	.st219{fill:#FF9DAE;}
	.st220{fill:#FFC2C1;}
	.st221{fill:#FFCCD5;}
	.st222{fill:#B49E8F;}
	.st223{fill:#FFE2EA;}
	.st224{fill:#A3C5DC;}
	.st225{fill:#DA956B;}
	.st226{fill:#BDA595;}
	.st227{fill:#583B34;}
	.st228{fill:#63443C;}
	.st229{fill:#B2D0E5;}
	.st230{fill:#FCFCFB;}
	.st231{fill:#D0ACA1;}
	.st232{fill:#A2C4DB;}
	.st233{fill:#E1D0C8;}
	.st234{fill:#9C7972;}
	.st235{fill:#77573F;}
	.st236{fill:#F3769C;}
	.st237{fill:#FBFBF9;}
	.st238{fill:#F8C4DC;}
	.st239{fill:#E4BAB5;}
	.st240{clip-path:url(#SVGID_111_);fill:#F787A5;}
	.st241{clip-path:url(#SVGID_111_);fill:#FFE9F2;}
	.st242{clip-path:url(#SVGID_111_);fill:#D3CFB3;}
	.st243{clip-path:url(#SVGID_111_);fill:#FFDBE5;}
	.st244{clip-path:url(#SVGID_111_);}
	.st245{clip-path:url(#SVGID_111_);fill:#FFC5D6;}
	.st246{fill:#7FDAAA;}
	.st247{fill:#F2BC3A;}
	.st248{fill:#B99F65;}
	.st249{fill:#98D284;}
	.st250{fill:#3C3724;}
	.st251{fill:#D6BEA2;}
	.st252{fill:#9C8274;}
	.st253{fill:#587147;}
	.st254{fill:#E7D6BE;}
	.st255{fill:#5CC689;}
	.st256{clip-path:url(#SVGID_113_);fill:#A6E5C3;}
	.st257{clip-path:url(#SVGID_113_);fill:#FFFFFF;}
	.st258{clip-path:url(#SVGID_113_);fill:#58D196;}
</style>
<path class="st4" d="M286.8,364.82c-15.77,0-31.53,0-47.3,0c-23.92,0-40.44-16.4-40.45-40.27c-0.02-31.2-0.03-62.39,0.05-93.59
	c0.06-22.12,16.54-38.84,38.59-38.94c32.55-0.15,65.09-0.17,97.64-0.04c22.54,0.09,39.2,16.72,39.25,39.04
	c0.08,31.76,0.05,63.52-0.04,95.28c-0.05,18.9-13.29,34.99-31.71,37.81c-7.28,1.11-14.82,0.63-22.25,0.69
	C309.33,364.88,298.06,364.82,286.8,364.82z"/>
<path class="st0" d="M46.31,426.37c0,25.12,0.05,50.23-0.07,75.35c-0.01,2.69,0.74,3.84,3.29,4.84
	c15.27,6.03,23.9,20.64,22.41,37.45c-1.31,14.85-13.22,28.01-28.24,31.21c-15.43,3.29-31.61-4.06-39.07-17.76
	c-7.76-14.23-5.7-31.53,5.87-42.66c3.94-3.79,9.15-6.43,14.14-8.86c2.56-1.24,3.43-2.33,3.43-5.08
	c-0.07-48.66-0.09-97.31,0.01-145.97c0.01-5.16,0.46-10.37,1.28-15.46c3.74-23.18,18.3-35.6,41.88-35.7
	c16.44-0.07,32.89,0.08,49.33,0.36c3.24,0.06,4.9-0.86,6.47-3.79c6.04-11.26,18.8-16.48,30.78-12.99
	c12.1,3.52,20.26,14.91,19.51,27.22c-0.78,12.76-9.95,23.11-22.41,25.28c-11.58,2.02-23.22-3.93-28.49-14.78
	c-0.98-2.01-2.03-2.79-4.29-2.79c-16.11-0.01-32.21-0.23-48.32-0.26c-18.14-0.04-25.29,6.23-26.91,24.31
	c-0.75,8.28-0.56,16.65-0.59,24.97c-0.08,18.36-0.02,36.72-0.02,55.08C46.28,426.37,46.29,426.37,46.31,426.37z M53.82,539.68
	c-0.07-9.68-8.1-17.62-17.76-17.57c-9.8,0.05-17.78,8.17-17.68,18c0.1,9.66,8.11,17.59,17.77,17.57
	C45.96,557.67,53.89,549.58,53.82,539.68z"/>
<path class="st4" d="M180.46,398.94c13.52,0,27.04-0.12,40.55,0.08c3.41,0.05,5.34-0.84,7.23-3.86
	c6.57-10.48,19.48-14.76,31.06-10.77c11.74,4.05,19.12,15.42,18.08,27.88c-1,12.02-10.1,21.97-22.06,24.13
	c-12.3,2.23-24.43-4.28-29.31-16.03c-1.06-2.55-2.35-3.22-4.95-3.21c-26.24,0.1-52.49,0.05-78.74,0.06
	c-16.61,0.01-23.11,6.48-23.26,23.13c-0.03,3.15,0.24,6.31,0.12,9.46c-0.09,2.42,0.89,3.47,3.15,4.34
	c19.01,7.26,28.23,28.09,20.86,46.8c-6.01,15.25-21.84,24.77-37.68,22.66c-16.85-2.24-29.83-15.08-31.65-31.3
	c-1.92-17.14,7.46-32.61,23.55-38.32c2.85-1.01,3.72-2.15,3.58-5.18c-0.25-5.49-0.38-11.09,0.36-16.52
	c2.9-21.1,16.47-32.98,37.87-33.31c13.74-0.21,27.48-0.04,41.23-0.04C180.46,398.95,180.46,398.95,180.46,398.94z M109.74,470
	c-9.79-0.03-17.77,7.94-17.82,17.8c-0.05,9.74,8.08,17.83,17.84,17.77c9.63-0.07,17.58-8.01,17.66-17.64
	C127.5,478.12,119.52,470.03,109.74,470z"/>
<path class="st5" d="M180.43,45.44c-3.6,0-7.22,0.16-10.81-0.06c-2.49-0.15-3.44,0.82-4.25,3.11c-5.91,16.7-22.68,26.57-39.82,23.62
	c-17.42-3-30-17.67-30.16-35.17c-0.17-17.71,12.18-32.63,29.71-35.88c17.12-3.18,33.99,6.44,40.12,23.09
	c0.86,2.35,1.95,3.01,4.33,3.01c9.23,0.01,18.54-0.49,27.67,0.54c20.6,2.33,35.06,13.66,41.61,33.22
	c5.92,17.69,10.19,35.93,15.03,53.97c0.73,2.71,1.54,4.28,4.63,5.15c12.11,3.39,19.76,14.76,18.99,27.46
	c-0.73,12.01-9.8,22.31-21.6,24.5c-12.42,2.31-24.45-3.76-29.68-14.98c-5.28-11.32-2.13-24.73,7.93-32.49
	c2.11-1.63,2.76-2.97,2.05-5.55c-4.41-15.95-8.55-31.97-13.06-47.88c-1.09-3.85-2.93-7.57-4.9-11.08
	c-5.73-10.18-15.25-13.82-26.29-14.43c-3.82-0.21-7.65-0.03-11.48-0.03C180.43,45.52,180.43,45.48,180.43,45.44z M149.12,36.57
	c0.02-9.91-7.91-17.79-17.85-17.74c-9.7,0.04-17.56,7.95-17.58,17.69c-0.02,9.74,7.8,17.67,17.52,17.76
	C141.12,54.36,149.11,46.47,149.12,36.57z"/>
<path class="st1" d="M346.97,399.81c1.53-0.36,2.62-0.83,3.72-0.83c11.49-0.05,22.98-0.25,34.46,0.03
	c23.58,0.58,37.6,15.51,37.97,40.5c0.17,11.37-0.14,22.75-0.42,34.11c-0.06,2.55,0.61,3.65,3.13,4.5
	c17.74,6.03,27.77,24.15,23.55,42.17c-4.22,17.98-21.34,30.01-39.36,27.65c-18.92-2.48-32.66-18.16-31.75-37.08
	c0.75-15.52,8.76-26.4,23.18-32.3c2.28-0.93,3.02-2.01,3.01-4.37c-0.02-12.38,0.55-24.78,0.09-37.14
	c-0.5-13.62-7.18-19.61-20.9-19.77c-10.7-0.12-21.39,0.04-32.09-0.1c-2.59-0.03-3.88,0.69-4.95,3.24
	c-4.95,11.76-17.31,18.37-29.34,16.02c-12.73-2.48-21.97-13.23-22.2-25.81c-0.24-12.67,8.27-23.85,20.46-26.89
	c11.61-2.9,23.88,2.38,29.75,12.82C345.93,397.73,346.52,398.94,346.97,399.81z M414.13,494.35c-9.78,0.08-17.78,8.21-17.68,17.96
	c0.1,9.75,8.28,17.75,18.02,17.62c9.6-0.13,17.52-8.17,17.53-17.8C432.01,502.4,423.85,494.27,414.13,494.35z"/>
<path class="st0" d="M465.76,323.36c-4.96,0-9.92,0.13-14.86-0.05c-2.66-0.1-4.11,0.59-5.41,3.19
	c-6.46,12.94-21.72,18.21-34.83,12.3c-12.91-5.81-19.3-20.77-14.11-33.97c4.16-10.59,12.18-16.75,23.61-17.38
	c11.4-0.63,20.04,4.49,25.39,14.59c1.27,2.4,2.59,3.12,5.14,3.07c7.77-0.15,15.55,0.24,23.31-0.12c13.43-0.63,25.91,2.77,37.88,8.34
	c4.7,2.19,7.85,2.26,12.18-1.8c12.6-11.82,31.95-11.95,45.6-1.27c13.41,10.49,17.68,28.94,10.2,44.12
	c-7.66,15.54-25.19,23.57-41.66,19.09c-16.78-4.57-28.02-20.04-26.69-37.19c0.23-2.91-0.6-4.17-3.18-4.75
	c-0.33-0.07-0.65-0.21-0.95-0.35C494.19,324.93,480.45,321.61,465.76,323.36z M547.5,356.36c9.72-0.04,17.56-7.86,17.65-17.57
	c0.09-9.89-7.78-17.85-17.68-17.89c-9.92-0.03-17.8,7.82-17.81,17.74C529.67,348.5,537.63,356.41,547.5,356.36z"/>
<path class="st5" d="M549.11,278.72c-15.55,0.04-28.86-9.28-34.09-24.07c-0.79-2.22-1.76-2.86-4.06-2.85
	c-19.71,0.1-39.42,0.09-59.13,0.01c-2.33-0.01-3.53,0.67-4.61,2.84c-5.73,11.57-18.15,17.24-30.57,14.2
	c-11.81-2.89-20.24-13.68-20.28-25.96c-0.05-12.5,8.32-23.39,20.25-26.34c12.33-3.05,24.88,2.66,30.6,14.19
	c1.09,2.2,2.35,2.81,4.64,2.8c19.37-0.08,38.75-0.12,58.12,0.04c3.14,0.03,4.38-0.96,5.47-3.87c6.44-17.14,24.64-26.43,42.47-21.95
	c17.44,4.38,29.03,21.4,26.82,39.38C582.52,265.15,567.24,278.68,549.11,278.72z M548.81,260.43c9.8,0.06,17.88-7.94,17.9-17.71
	c0.02-9.62-7.91-17.65-17.51-17.77c-9.8-0.11-17.93,7.78-18.07,17.55C530.98,252.24,539.01,260.37,548.81,260.43z"/>
<path class="st1" d="M38.57,206.95c15.48,0.43,28.59,9.7,33.78,24.34c0.81,2.27,1.86,2.83,4.09,2.82
	c15.54-0.09,31.09-0.11,46.63,0.03c2.67,0.02,3.86-0.87,5.05-3.21c6.85-13.54,23.74-18.67,36.73-11.35
	c13.38,7.54,18.07,24.66,10.24,37.4c-8.17,13.28-25.35,17.42-37.9,8.56c-3.8-2.68-6.56-6.95-9.4-10.79
	c-1.11-1.5-1.85-2.44-3.85-2.43c-15.99,0.08-31.99,0.12-47.99-0.02c-2.67-0.02-3.05,1.49-3.74,3.33
	c-6.12,16.46-22.67,26.04-39.84,23.09C15.3,275.8,2.73,261.33,2.33,244.14c-0.4-17.35,11.63-32.65,28.56-36.2
	C33.41,207.42,36.01,207.27,38.57,206.95z M38.47,260.95c9.58,0.05,17.55-7.86,17.69-17.55c0.14-9.73-7.84-17.84-17.68-17.96
	c-9.71-0.12-17.85,7.98-17.85,17.76C20.62,253.03,28.53,260.9,38.47,260.95z"/>
<path class="st4" d="M358.29,38.1c-0.22,15.38-9.39,28.55-24.11,33.95c-2.29,0.84-3.09,1.87-3.07,4.3c0.1,13.4,0.1,26.8-0.05,40.2
	c-0.03,2.74,0.85,4.07,3.32,5.34c14.31,7.35,18.87,24.97,10.15,38.44c-8.55,13.19-26.58,16.16-39.11,6.44
	c-12.35-9.58-13.97-27.81-3.25-39.18c2.34-2.49,5.42-4.36,8.36-6.18c1.49-0.92,2.36-1.66,2.35-3.56
	c-0.06-14.08-0.07-28.16,0.06-42.23c0.02-2.44-1.28-2.92-3.1-3.56c-16.19-5.72-25.99-22.2-23.49-39.36
	c2.44-16.72,16.82-29.68,33.86-30.53c17.11-0.85,32.59,10.44,36.71,26.94C357.63,32.04,357.84,35.1,358.29,38.1z M339.72,38.1
	c-0.03-9.81-8.05-17.75-17.9-17.71c-9.58,0.03-17.51,8.04-17.55,17.71c-0.04,9.81,8.03,17.95,17.72,17.88
	C331.85,55.92,339.75,47.94,339.72,38.1z"/>
<path class="st2" d="M346.83,338.84H229.45c-4.27,0-7.74-3.46-7.74-7.74V228.25c0-4.27,3.46-7.74,7.74-7.74h117.39
	c4.27,0,7.74,3.46,7.74,7.74v102.86C354.57,335.38,351.11,338.84,346.83,338.84z"/>
</svg>
