<?xml version="1.0" encoding="utf-8"?>
<!-- Generator: Adobe Illustrator 24.2.3, SVG Export Plug-In . SVG Version: 6.00 Build 0)  -->
<svg version="1.1" id="Слой_1" xmlns="http://www.w3.org/2000/svg" xmlns:xlink="http://www.w3.org/1999/xlink" x="0px" y="0px"
	 viewBox="0 0 585 1487" style="enable-background:new 0 0 585 1487;" xml:space="preserve">
<style type="text/css">
	.st0{fill:#000600;}
	.st1{clip-path:url(#SVGID_2_);fill:#D670E1;}
	.st2{clip-path:url(#SVGID_2_);fill:#E7B3EE;}
	.st3{clip-path:url(#SVGID_2_);fill:#8C9295;}
	.st4{clip-path:url(#SVGID_2_);fill:#921C9F;}
	.st5{clip-path:url(#SVGID_2_);fill:#CDD0D3;}
	.st6{clip-path:url(#SVGID_2_);fill:#DFDBD1;}
	.st7{clip-path:url(#SVGID_2_);fill:#543F31;}
	.st8{clip-path:url(#SVGID_2_);fill:#C38A75;}
	.st9{clip-path:url(#SVGID_2_);fill:#B3B9BC;}
	.st10{clip-path:url(#SVGID_2_);fill:#8B9295;}
	.st11{clip-path:url(#SVGID_2_);fill:#D59C87;}
	.st12{fill:#E7B3EE;}
	.st13{clip-path:url(#SVGID_4_);}
	.st14{fill:#E097E9;}
	.st15{fill:#D670E1;}
	.st16{clip-path:url(#SVGID_6_);fill:#FFE406;}
	.st17{opacity:0.5;clip-path:url(#SVGID_6_);}
	.st18{fill:#A2C9FF;}
	.st19{fill:#FF8B00;}
	.st20{clip-path:url(#SVGID_6_);fill:#FFECA0;}
	.st21{clip-path:url(#SVGID_6_);}
	.st22{fill:#FFCB33;}
	.st23{fill:#FFECA0;}
	.st24{fill:#2A356B;}
	.st25{clip-path:url(#SVGID_6_);fill:#FFCB33;}
	.st26{clip-path:url(#SVGID_6_);fill:#A2C9FF;}
	.st27{clip-path:url(#SVGID_6_);fill:#FF8B00;}
	.st28{clip-path:url(#SVGID_6_);fill:#2A356B;}
	.st29{fill:#1B254E;}
	.st30{clip-path:url(#SVGID_6_);fill:#C22C28;}
	.st31{clip-path:url(#SVGID_6_);fill:#FF7400;}
	.st32{fill:#FFE406;}
	.st33{clip-path:url(#SVGID_6_);fill:#FFEF6E;}
	.st34{clip-path:url(#SVGID_8_);fill:#FFE473;}
	.st35{fill:#FFFFFF;}
	.st36{fill:#ACD7C2;}
	.st37{fill:none;stroke:#FFFFFF;stroke-miterlimit:10;}
	.st38{fill:#A1CAAA;}
	.st39{fill:#95CCA0;}
	.st40{opacity:0.76;}
	.st41{fill:#C3E8CC;}
	.st42{fill:url(#SVGID_9_);}
	.st43{fill:url(#SVGID_10_);}
	.st44{fill:url(#SVGID_11_);}
	.st45{fill:#F5E5BD;}
	.st46{fill:url(#SVGID_12_);}
	.st47{fill:url(#SVGID_13_);}
	.st48{fill:url(#SVGID_14_);}
	.st49{fill:url(#SVGID_15_);}
	.st50{fill:url(#SVGID_16_);}
	.st51{fill:url(#SVGID_17_);}
	.st52{fill:#E3EDC3;}
	.st53{fill:#EEFAD1;}
	.st54{fill:url(#SVGID_18_);}
	.st55{fill:url(#SVGID_19_);}
	.st56{fill:url(#SVGID_20_);}
	.st57{fill:url(#SVGID_21_);}
	.st58{fill:url(#SVGID_22_);}
	.st59{fill:#FFE392;}
	.st60{clip-path:url(#SVGID_24_);fill:url(#SVGID_25_);}
	.st61{fill:#5B2A1E;}
	.st62{fill:#8F7673;}
	.st63{fill:url(#SVGID_26_);}
	.st64{fill:url(#SVGID_27_);}
	.st65{fill:url(#SVGID_28_);}
	.st66{fill:url(#SVGID_29_);}
	.st67{fill:#FF8A8A;}
	.st68{fill:url(#SVGID_30_);}
	.st69{fill:#FF963A;}
	.st70{opacity:0.75;fill:#FFFFFF;}
	.st71{fill:#FFC181;}
	.st72{fill:none;}
	.st73{clip-path:url(#SVGID_32_);fill:#FFDFBD;}
	.st74{clip-path:url(#SVGID_32_);fill:#FF9D00;}
	.st75{clip-path:url(#SVGID_32_);fill:#FFF3DF;}
	.st76{clip-path:url(#SVGID_34_);fill:#FFBAE4;}
	.st77{opacity:0.8;clip-path:url(#SVGID_34_);fill:#FE82C8;}
	.st78{clip-path:url(#SVGID_34_);fill:#FE82C8;}
	.st79{opacity:0.79;clip-path:url(#SVGID_34_);fill:#FFBAE4;}
	.st80{fill:url(#SVGID_35_);}
	.st81{fill:#FFFEEA;}
	.st82{fill:#58D196;}
	.st83{fill:#A6E5C3;}
	.st84{fill:#D2F2E1;}
	.st85{opacity:0.44;fill:#FFFFFF;}
	.st86{clip-path:url(#SVGID_37_);fill:#FFF9C1;}
	.st87{fill:url(#SVGID_38_);}
	.st88{fill:url(#SVGID_39_);}
	.st89{opacity:0.86;fill:#FFCCD5;}
	.st90{fill:url(#SVGID_40_);}
	.st91{opacity:0.66;}
	.st92{opacity:0.37;fill:#FFFFFF;}
	.st93{opacity:0.4;}
	.st94{opacity:0.26;fill:#FFFFFF;}
	.st95{opacity:0.62;fill:#FFFFFF;}
	.st96{opacity:0.41;fill:#FFFFFF;}
	.st97{opacity:0.69;fill:#FFFFFF;}
	.st98{opacity:0.73;fill:#FFFFFF;}
	.st99{opacity:0.16;fill:#FFFFFF;}
	.st100{opacity:0.3;fill:#FFFFFF;}
	.st101{opacity:0.23;fill:#FFFFFF;}
	.st102{opacity:0.24;fill:#FFFFFF;}
	.st103{opacity:0.43;fill:#FFFFFF;}
	.st104{opacity:0.76;fill:#FFFFFF;}
	.st105{opacity:0.08;fill:#FFFFFF;}
	.st106{opacity:0.27;fill:#FFFFFF;}
	.st107{opacity:0.46;}
	.st108{opacity:0.86;fill:#FFFFFF;}
	.st109{opacity:0.54;fill:#FFFFFF;}
	.st110{opacity:0.28;}
	.st111{clip-path:url(#SVGID_42_);fill:#FF6567;}
	.st112{clip-path:url(#SVGID_42_);fill:#FF8A8A;}
	.st113{clip-path:url(#SVGID_42_);fill:#FFC2C1;}
	.st114{clip-path:url(#SVGID_42_);fill:#FFFFFF;}
	.st115{clip-path:url(#SVGID_44_);fill:#E2E9FF;}
	.st116{clip-path:url(#SVGID_44_);fill:#EEF2FF;}
	.st117{opacity:0.54;clip-path:url(#SVGID_44_);fill:#EEF2FF;}
	.st118{opacity:0.54;clip-path:url(#SVGID_44_);fill:#8FAAF0;}
	.st119{clip-path:url(#SVGID_46_);}
	.st120{fill:#FF6B81;}
	.st121{clip-path:url(#SVGID_46_);fill:none;}
	.st122{fill:none;stroke:#FFFFFF;stroke-width:2;stroke-miterlimit:10;}
	.st123{opacity:0.45;fill:#FFFFFF;}
	.st124{opacity:0.8;fill:#FFFFFF;}
	.st125{opacity:0.79;fill:#FFFFFF;}
	.st126{fill:#F1C4A9;}
	.st127{fill:none;stroke:#FFFFFF;stroke-width:0.75;stroke-miterlimit:10;}
	.st128{fill:#FFFFFF;stroke:#FFFFFF;stroke-width:0.25;stroke-miterlimit:10;}
	.st129{fill:#0071C5;}
	.st130{fill:#00ABF0;}
	.st131{fill:#31C5F8;}
	.st132{fill:#57CAF9;}
	.st133{fill:#83D5FB;}
	.st134{fill:#F787A5;}
	.st135{fill:#91693D;}
	.st136{fill:#FBBACC;}
	.st137{fill:#E6678D;}
	.st138{fill:#574435;}
	.st139{fill:#C8A37C;}
	.st140{fill:#641F1E;}
	.st141{fill:#F15E89;}
	.st142{fill:#E7005E;}
	.st143{fill:#DDB689;}
	.st144{fill:#FF1B6F;}
	.st145{fill:#DEB689;}
	.st146{fill:#F2769B;}
	.st147{fill:#FAFAF8;}
	.st148{fill:#F7C3DB;}
	.st149{fill:#E3B9B4;}
	.st150{fill:#FFB9C3;}
	.st151{fill:#FFC5D6;}
	.st152{fill:#D72264;}
	.st153{fill:#F7F7F7;}
	.st154{fill:#F2F2F2;}
	.st155{fill:#FFFBF0;}
	.st156{fill:#FFBFCF;}
	.st157{fill:#FF6794;}
	.st158{fill:#FFC2C1;}
	.st159{fill:#FFCCD5;}
	.st160{fill:#B39D8E;}
	.st161{fill:#FFE2EA;}
	.st162{fill:#F1F1F1;}
	.st163{fill:#FF9DAE;}
	.st164{fill:#A2C4DB;}
	.st165{fill:#583B34;}
	.st166{fill:#B1CFE4;}
	.st167{fill:#FBFBFA;}
	.st168{fill:#E0CFC7;}
	.st169{fill:#D9946B;}
	.st170{fill:#FFE9F2;}
	.st171{fill:#FFDBE5;}
	.st172{fill:#F2CCC1;}
	.st173{fill:#DF4E50;}
	.st174{fill:#00C377;}
	.st175{fill:#87E4AE;}
	.st176{fill:#00B45A;}
	.st177{fill:#7FD9A9;}
	.st178{fill:#F1BB3A;}
	.st179{fill:#B89E65;}
	.st180{fill:#97D183;}
	.st181{fill:#3C3724;}
	.st182{fill:#D5BDA1;}
	.st183{fill:#9B8174;}
	.st184{fill:#587147;}
	.st185{fill:#E6D5BD;}
	.st186{fill:#5CC588;}
	.st187{clip-path:url(#SVGID_54_);fill:#A6E5C3;}
	.st188{clip-path:url(#SVGID_54_);fill:#FFFFFF;}
	.st189{clip-path:url(#SVGID_54_);fill:#58D196;}
	.st190{fill:#FFEF6E;}
	.st191{fill:#FFE200;}
	.st192{clip-path:url(#SVGID_56_);fill:#FDA157;}
	.st193{clip-path:url(#SVGID_56_);fill-rule:evenodd;clip-rule:evenodd;fill:#FF8429;}
	.st194{clip-path:url(#SVGID_56_);fill:#F35000;}
	.st195{clip-path:url(#SVGID_56_);fill:#F8B846;}
	.st196{fill:#F35000;}
	.st197{fill:#FF8429;}
	.st198{fill:#FFAB33;}
	.st199{fill:#E46D00;}
	.st200{fill:#EE6406;}
	.st201{fill:#FF9B00;}
	.st202{fill:#130077;}
	.st203{fill:#FFB58D;}
	.st204{opacity:0.3;}
	.st205{fill:#FF7300;}
	.st206{fill:#6E0000;}
	.st207{fill-rule:evenodd;clip-rule:evenodd;fill:#FF9B00;}
	.st208{fill-rule:evenodd;clip-rule:evenodd;fill:url(#SVGID_57_);}
	.st209{opacity:0.3;fill-rule:evenodd;clip-rule:evenodd;fill:#A3002C;}
	.st210{fill-rule:evenodd;clip-rule:evenodd;fill:url(#SVGID_58_);}
	.st211{fill-rule:evenodd;clip-rule:evenodd;fill:url(#SVGID_59_);}
	.st212{opacity:0.5;fill-rule:evenodd;clip-rule:evenodd;fill:url(#SVGID_60_);}
	.st213{fill-rule:evenodd;clip-rule:evenodd;fill:#FFC384;}
	.st214{fill-rule:evenodd;clip-rule:evenodd;fill:url(#SVGID_61_);}
	.st215{fill-rule:evenodd;clip-rule:evenodd;fill:url(#SVGID_62_);}
	.st216{fill-rule:evenodd;clip-rule:evenodd;fill:url(#SVGID_63_);}
	.st217{opacity:0.5;fill-rule:evenodd;clip-rule:evenodd;fill:url(#SVGID_64_);}
	.st218{fill-rule:evenodd;clip-rule:evenodd;fill:#FDA157;}
	.st219{opacity:0.5;fill-rule:evenodd;clip-rule:evenodd;fill:#FDA157;}
	.st220{fill-rule:evenodd;clip-rule:evenodd;fill:#FF8429;}
	.st221{fill-rule:evenodd;clip-rule:evenodd;fill:#FFAB33;}
	.st222{opacity:0.62;fill-rule:evenodd;clip-rule:evenodd;fill:#C7002A;}
	.st223{opacity:0.5;fill-rule:evenodd;clip-rule:evenodd;fill:#FF8429;}
	.st224{opacity:0.5;fill-rule:evenodd;clip-rule:evenodd;fill:#8E5472;}
	.st225{opacity:0.3;fill-rule:evenodd;clip-rule:evenodd;fill:url(#SVGID_65_);}
	.st226{opacity:0.5;fill-rule:evenodd;clip-rule:evenodd;fill:url(#SVGID_66_);}
	.st227{opacity:0.3;fill-rule:evenodd;clip-rule:evenodd;fill:url(#SVGID_67_);}
	.st228{opacity:0.3;fill-rule:evenodd;clip-rule:evenodd;fill:url(#SVGID_68_);}
	.st229{clip-path:url(#SVGID_70_);}
	.st230{clip-path:url(#SVGID_70_);fill:#FF8429;}
	.st231{fill:#FDA157;}
	.st232{clip-path:url(#SVGID_72_);}
	.st233{fill:#F58800;}
	.st234{clip-path:url(#SVGID_74_);}
	.st235{fill:#F8B846;}
	.st236{clip-path:url(#SVGID_76_);}
	.st237{clip-path:url(#SVGID_76_);fill:#FF8429;}
	.st238{fill-rule:evenodd;clip-rule:evenodd;fill:url(#SVGID_77_);}
	.st239{fill-rule:evenodd;clip-rule:evenodd;fill:url(#SVGID_78_);}
	.st240{fill-rule:evenodd;clip-rule:evenodd;fill:url(#SVGID_79_);}
	.st241{opacity:0.5;fill-rule:evenodd;clip-rule:evenodd;fill:url(#SVGID_80_);}
	.st242{fill-rule:evenodd;clip-rule:evenodd;fill:url(#SVGID_81_);}
	.st243{fill-rule:evenodd;clip-rule:evenodd;fill:url(#SVGID_82_);}
	.st244{fill-rule:evenodd;clip-rule:evenodd;fill:url(#SVGID_83_);}
	.st245{opacity:0.5;fill-rule:evenodd;clip-rule:evenodd;fill:url(#SVGID_84_);}
	.st246{opacity:0.3;fill-rule:evenodd;clip-rule:evenodd;fill:url(#SVGID_85_);}
	.st247{opacity:0.5;fill-rule:evenodd;clip-rule:evenodd;fill:url(#SVGID_86_);}
	.st248{opacity:0.3;fill-rule:evenodd;clip-rule:evenodd;fill:url(#SVGID_87_);}
	.st249{opacity:0.3;fill-rule:evenodd;clip-rule:evenodd;fill:url(#SVGID_88_);}
	.st250{opacity:0.88;fill:#FFFEF3;}
	.st251{fill:#FFCF66;}
	.st252{fill:#AFABAC;}
	.st253{fill:#FFE473;}
	.st254{fill:#FFE787;}
	.st255{fill:#F6C700;}
	.st256{fill:#FFEA96;}
	.st257{clip-path:url(#SVGID_90_);fill:#FFCB33;}
	.st258{clip-path:url(#SVGID_90_);fill:#FFE406;}
	.st259{clip-path:url(#SVGID_92_);fill:#921C9F;}
	.st260{opacity:0.5;clip-path:url(#SVGID_92_);}
	.st261{fill:#921C9F;}
	.st262{clip-path:url(#SVGID_92_);}
	.st263{clip-path:url(#SVGID_94_);fill:#E097E9;}
	.st264{fill:#CC37D8;}
	.st265{opacity:0.5;fill:#FFFFFF;}
	.st266{opacity:0.5;fill:#FFFFFF;stroke:#FFFFFF;stroke-miterlimit:10;}
	.st267{opacity:0.68;fill:#FFFFFF;}
	.st268{fill:#F0C6F4;}
	.st269{fill:#D9A2E1;}
	.st270{fill:#AA7B41;}
	.st271{fill:#8C9295;}
	.st272{fill:#CDD0D3;}
	.st273{fill:#DFDBD1;}
	.st274{fill:#543F31;}
	.st275{fill:#C38A75;}
	.st276{fill:#B3B9BC;}
	.st277{fill:#8B9295;}
	.st278{fill:#D59C87;}
	.st279{fill:#F92405;}
	.st280{fill:#B30000;}
	.st281{fill:#FA3C20;}
	.st282{fill:#E2A080;}
	.st283{fill:#950000;}
	.st284{fill:#F50000;}
	.st285{clip-path:url(#SVGID_96_);fill:#F787A5;}
	.st286{clip-path:url(#SVGID_96_);fill:#FFE9F2;}
	.st287{clip-path:url(#SVGID_96_);fill:#D3CFB3;}
	.st288{clip-path:url(#SVGID_96_);fill:#FFDBE5;}
	.st289{clip-path:url(#SVGID_96_);}
	.st290{clip-path:url(#SVGID_96_);fill:#FFC5D6;}
	.st291{fill:#FA90B4;}
	.st292{fill:#BCA494;}
	.st293{fill:#63443C;}
	.st294{fill:#CFABA0;}
	.st295{fill:#A1C3DA;}
	.st296{fill:#9B7972;}
	.st297{fill:#77573F;}
	.st298{fill-rule:evenodd;clip-rule:evenodd;fill:#FA3C20;}
	.st299{fill-rule:evenodd;clip-rule:evenodd;fill:#D00707;}
	.st300{fill-rule:evenodd;clip-rule:evenodd;fill:#F92405;}
	.st301{fill-rule:evenodd;clip-rule:evenodd;fill:#F50000;}
	.st302{fill-rule:evenodd;clip-rule:evenodd;fill:#F95F53;}
	.st303{fill:#F95F53;}
	.st304{clip-path:url(#SVGID_98_);fill:#574435;}
	.st305{clip-path:url(#SVGID_98_);fill:#C8A37C;}
	.st306{clip-path:url(#SVGID_98_);fill:#91693D;}
	.st307{clip-path:url(#SVGID_98_);fill:#D00707;}
	.st308{clip-path:url(#SVGID_98_);fill:#FA3C20;}
	.st309{clip-path:url(#SVGID_98_);fill:#950000;}
	.st310{clip-path:url(#SVGID_98_);fill:#F95F53;}
	.st311{clip-path:url(#SVGID_98_);fill:#131212;}
	.st312{clip-path:url(#SVGID_98_);fill:#B30000;}
	.st313{clip-path:url(#SVGID_98_);fill:#412A1A;}
	.st314{clip-path:url(#SVGID_98_);fill:#DEC6AF;}
	.st315{clip-path:url(#SVGID_98_);fill:#BF855C;}
	.st316{fill:#D00707;}
	.st317{fill:#AB9DB8;}
	.st318{fill:#381A12;}
	.st319{fill:#EBCBB8;}
	.st320{fill:#AC9EBB;}
	.st321{fill:#F8F6F5;}
	.st322{fill:#0A345E;}
	.st323{fill:#412A1A;}
	.st324{fill:#131212;}
	.st325{fill:#DEC6AF;}
	.st326{fill:#BF855C;}
</style>
<path class="st303" d="M162.85,26.63c3.28-3.64,7.97-3.57,12.22-4.66c1.6,3.79,5.1,3.7,8.36,4.11c9.07,9.08,14.53,20.19,18.12,32.36
	c1.27,4.3,3.5,8.18,6.56,11.38c7.86,8.2,18.73,6.12,21.85-4.01c0.79-5.12-0.47-9.89-1.93-14.77c-4.3-14.31-12.52-25.61-24.88-33.93
	c3.73-2.21,7.93-1.45,11.94-1.9c3.2,2.92,7.36,3.49,11.28,4.66c3.19,5.51,6.87,10.81,9.46,16.59c3.44,7.68,5.49,16,9.1,23.58
	c5.11,10.73,16.42,11.73,24.23,2.69c2.8-2.45,2.21-5.67,1.23-8.42c-5.57-15.62-8.99-32.68-25.93-41.13
	c4.67-2.46,9.69-1.03,14.55-1.32c-1.11,6.79,4.9,6.24,8.46,8.23c4.7,12.67,8.93,25.54,14.25,37.94c4.24,9.88,12.31,11.58,19.59,5.23
	c3.65-2.28,3.43-6.17,2.3-9.08c-4-10.28-6.56-21.18-12.87-30.51c-1.99-2.95-4.98-4.32-7.66-6.31c-6.71-4.97-15.15-2.39-22.16-5.66
	c22.97-1.76,45.58-0.95,65.82,11.81c4.76,3,7.35,8.62,9.97,13.72c-0.24,4.02,2.18,7,3.97,10.24c2.99,7.41,4.96,15.56,13.73,18.72
	c2.65,3.87,5.71,2.3,8.78,0.67c6.97,9.06,11.98,18.76,10.13,30.73c-2.43-2.33-4.6-4.97-8.19-5.69c-17.41-3.51-34.9-2.74-52.41-1.57
	c7.89,2.29,16.2-0.66,23.99,2.43c-12.22,0.29-24.45,0.51-36.67,0.95c-2.11,0.08-4.81-1.07-6.21,1.93
	c-3.01,6.44,4.14,18.08,11.15,17.78c18.02-0.77,36.03-1.13,54.03,0.5c1.59-0.02,3.18-0.05,4.77-0.07
	c18.15,5.11,18.66,5.68,16.47,18.58c-7.24-4.16-15.12-4.85-23.23-4.3c-18.03-3.9-36.22-1.29-54.34-1.24
	c-1.86,0.01-2.51,1.98-2.45,3.83c0.75,4.65,1.64,9.29,2.23,13.96c0.65,5.1,3.46,6.27,8.32,6.2c18.54-0.26,37.09-0.07,55.64-0.05
	c1.63-0.65,3.26-1.3,4.88-1.94c1.36,2.97,4.45,2.58,6.83,3.3c9.57,2.85,11.97,7.02,9.72,17.53c-4.09-2.48-8.43-3.98-13.23-4.85
	c-18.57-3.36-37.23-0.74-55.83-1.41c-2.29-0.08-3.9,0.92-4.46,3.28c-0.79,0.26-1.58,0.51-2.36,0.77c-1.68-0.11-3.67-0.94-4.17,1.75
	c0.58,4,1.37,7.99,1.7,12.01c0.38,4.57,2.36,6.32,7.12,6.28c18.95-0.16,37.91,0.06,56.86,0.14c1.91-0.72,3.81-1.44,5.72-2.17
	c7.67,3.34,18.45,3.84,15.42,16.94c-23.68-5.36-47.64-1.46-71.47-2c-2.29-0.05-2.29,1.9-0.91,3.54c1.06,9.33,7.73,14.6,15.37,16.99
	c13.99,4.37,28.56,4.95,43.04,1.5c1,0.04,2,0.08,3,0.12c2,2.53,4.96,1.64,7.53,2.03c8.72,1.32,12.68,5.77,9.91,14.77
	c-7.67-0.74-15.33-1.95-23.01-2.1c-11.22-0.23-22.77-2.31-33.32,3.78c-5.78,2.88-8.85,8.01-11.66,13.54
	c-3.07,6.04-3.08,9.13,5.22,8.65c16.53-0.95,33.09-1.25,49.64-1.82l0.8-0.35l0.87,0.08c4.24,0.71,8.58,1.07,12.71,2.2
	c6.73,1.84,9.03,6.28,6.42,12.96c-24.61-1.35-49.24-0.57-73.87-0.26c-2.79,0.04-5.5,0.06-6.49,3.43c-1.4,5.17,0.67,10.01,1.3,15
	c0.52,4.12,2.4,5.82,6.61,5.66c19.57-0.73,39.15-1.3,58.73-1.93c-0.54-2.45,1.47-1.68,2.58-2.05c4.69,4.57,10.64,3.9,16.42,3.95
	c4.92,16.54,3.58,18.01-13.31,14.64c-0.96-0.19-1.98-0.04-2.98-0.04l0.26,0.07c-1.82-2.62-3.95-2.33-6.22-0.66
	c-16.28,0.63-32.63-0.19-48.81,2.39c-3.48,0.55-10.09-1.2-7.72,5.61c1.89,5.43-3.03,15.79,9.6,15.07c18.98-1.08,38-1.49,57-2.18
	c19.46,0.43,20.07,0.86,20.69,14.53c-14.88-0.02-29.77-0.11-44.65-0.01c-3.12,0.02-7.07-1.39-8.51,3.29
	c-6.79,0.41-13.57,1.03-20.36,1.18c-5.71,0.12-7.57,2.05-6.62,8.13c1.37,8.74,3.52,14.97,14.44,12.3c3.89-0.95,8.16-0.21,12.22-0.54
	c13.49-1.11,27.17,1.7,40.51-2.1c0.36-0.06,0.7-0.17,1.03-0.33c4.52,3.95,13.87-0.53,15.48,7.08c3.41,16.08,4.66,32.46,0.49,48.74
	c-0.05-6.34,0.86-12.89-0.43-18.97c-1.15-5.42-1.97-13.9-11.87-9.48c-5.19,3.49-3.87,8.98-3.94,13.82
	c-0.25,17.42,1.16,34.96-4.16,51.97c0.69,4.01-0.87,7.02-3.56,10c-6.53,7.25-12.74,14.79-19.08,22.21c-2.7,1.31-4.85,3.23-6.41,5.8
	c-0.77,0.44-1.54,0.87-2.31,1.3c0.21,0.22,0.52,0.67,0.6,0.64c0.78-0.38,1.52-0.85,2.27-1.29c1.3-0.11,2.6-0.21,3.9-0.32
	c0.21,3.07-1.55,4.92-3.96,6.35c-14.03,5.09-24.93,17.3-40.88,18.02c-29.7,9.7-60.18,13.48-91.35,12.39
	c-19.11-0.67-19.12-0.57-12.79,18.74c0.93,9.23,5.16,17.89,4.77,27.35c-12.67-4.47-24.71-5.48-35.43,5.94
	c16.42,5.71,27.52,29.95,24.05,50.64c-9.94-1.7-22.49-5.41-34.76-13.73c-2.23-1.51-4.3-3.08-6.21-4.65
	c2.73-0.46,4.19-2.08,4.11-4.85c-0.23-8.04,0.52-16-1.47-24.11c-2.93-11.95-7.96-23.62-6.66-36.38
	c14.6-0.37,19.16-12.99,26.72-21.92c3.33-2.5,6.13-5.29,5.64-10c-0.33-3.24,1.84-4.73,4.25-6.27c33.16-21.22,40.64-53.02,36.75-89.5
	c-0.21-2-1.53-2.88-3.17-3.53c-4.55-11.91-13.64-14.31-23.4-6.29c-6.08,4.99-7.58,11.68-7.78,19.06c-0.66,25-4.9,48.7-24.74,66.58
	c-2.02-1.18-4.76-1.09-6.07-3.49c3.26-7.16-2.44-11.09-6.05-15.29c-10.79-12.55-25.69-19.8-38.87-29.29
	c-10.65-7.66-23.5-11.89-32.88-21.43c1.1-1.25,2.08-2.62,3.31-3.71c4.33-3.86,4.91-8.98,1.31-12.6c-4.17-4.2-6.8,1.47-9.72,3.66
	c-1.89,1.42-3.53,3.17-5.28,4.77c-3.53,2.74-6.21,1.36-8.53-1.77c3.87-3,2.12-7.44,2.88-11.23c2.31,0.51,2.92-1.13,3.51-2.79
	c3.34-2.71,6.95-5.16,9.98-8.18c5.99-5.97,1.49-12.6,0.63-18.96c-0.23-1.68-1.35-3.97-2.96-3.39c-5.17,1.86-9.4,5.1-11.29,10.63
	c-0.11,0.32-0.16,0.65-0.25,0.98c-4.09,1.2-3.66,4.89-4.36,7.96c-7.86-6.6-2.09-15.24-3.41-22.82c2.16,0.42,3.56-0.66,4.65-2.36
	c6.6-1.55,10.58-7.04,11.85-12.33c1.36-5.68,2.09-15.09-3.81-17.18c-4.5-1.59-10.58,4.68-11.15,11.82
	c-3.23-0.67-4.69,1.39-5.91,3.83c-5.67-7.67,0.8-15.21,0.23-22.82c0.54,0.18,1.1,0.34,1.66,0.47c6.84-0.12,10.18-5.82,12.58-10.28
	c3.24-6.03,2.24-14.67-1.92-19.12c-3.4-3.64-6.53,4.75-10.65,6.47c-1.15,0.48-1.92,1.86-2.86,2.82c-3.25,0.64-3.92,3.95-6.02,5.78
	c-1.98-6.83-2.39-13.61,0.82-20.23c0.7-0.83,1.4-1.67,2.09-2.5c4.94,1.13,5.95-3.65,8.39-5.94c4.57-4.29,5.8-21.4,1.4-23.07
	c-6.98-2.64-9.25,5.38-13.66,8.66c-8.59-2.12-8.92-4.48-2.09-14.85c4.18-2.41,7.1-6.11,9.68-9.99c3.11-4.69,2.1-20.12-1.41-20.67
	c-6.96-1.09-8.86,5.62-12.25,9.82c-0.2,0.25-0.25,0.62-0.37,0.93c-2.86,1.02-3.56,3.48-4.06,6.08c-4.24-5.85-1.5-12.38-1.84-18.61
	c2.12,0.03,3.24-1.12,3.64-3.11c5.04-2.54,8.1-7.07,10.55-11.76c3.42-6.53,2.75-15.37-1.97-18.72c-5.36-3.8-8.74,4.56-12.34,8.53
	c-0.21,0.23-0.23,0.62-0.35,0.94c-3.74,1.36-3.94,5.29-5.77,8.02c-4.25-6.06-1.47-12.78-1.81-19.2c2.66-1.16,3.63-3.59,4.53-6.08
	c5.55-0.3,7.28-5.41,10.18-8.66c5.61-6.31,0.75-13.45,0.28-20.22c-0.06-0.83-2.22-2.41-2.83-2.17c-5.71,2.23-8.54,7.09-10.6,12.53
	c-0.12,0.31-0.15,0.66-0.22,0.98c-2.75,0.97-3.74,3.13-3.94,5.82c-7.38-11.25-0.43-23.44-2.3-35.05c-0.2-1.64-0.4-3.29-0.6-4.93
	c4.46-27.8,14.31-53.08,33.6-74.23c8.85-9.7,19.51-16.69,30.81-22.95c8.21,2.65,17.01-0.84,25.17,2.42
	c8.25,6.78,13.02,16.18,18.9,24.78c7.49,10.96,22.63,10.45,30.22-0.73c2.67-3.51,1.22-7.02,0.26-10.69
	C184.05,47.12,176.99,34.38,162.85,26.63z M160.65,353.79l0.1-0.07c-4.23-0.41-8.34-0.54-10.26,4.42l0.24-0.17
	c-5.46-0.32-10,2.74-13.94,5.43c-6.06,4.14-6.33,11.21-3.69,17.5c1.65,3.92,5.47,4.9,9.08,1.27c4.66,0.36,8.65-1.86,12.52-3.78
	c44.34-22.03,92.28-30.2,140.64-36.79c17.98-2.45,18-2.32,16.52-19.29c-0.06-0.67,0.07-1.36,0.12-2.04
	c-4.47-7.65-10.68-1.53-15.5-1.19c-33.89,2.39-67.33,7.93-100.04,17.39c-2.81,0.81-6.4,0.39-7.1,4.51c-2.49,1.73-5.2,2.69-8.27,2.39
	c-6.55,0.6-12.53,2.32-16.31,8.36l0.09-0.07C162.95,351.4,161.13,351.27,160.65,353.79z M270.91,506.99L270.9,507
	c4.84,0.72,6.03-3.48,8.39-6.17c21.15-24.1,20.03-53.21,17.99-82.29c-0.68-9.66-7.19-12.76-17.67-10.15
	c-7.24,3.45-10.26,9.26-10.17,17.2c0.08,7.45-0.74,14.91-0.55,22.36c0.67,27.01-6.55,50.86-26.97,69.68
	c-0.81,0.75-0.82,2.38-1.2,3.6c-2.51,0.76-5.98,1.04-5.38,4.64c0.52,3.1,3.84,3.33,6.46,3.69
	C252.99,531.11,268.46,519.09,270.91,506.99z M302.02,23.97c2.99,7.02,5.87,14.1,9.01,21.05c2.51,5.56,4.64,11.48,8.19,16.31
	c3.44,4.68,8.45,8.78,13.66,1.17c3.25-2.98,1.29-6.09,0.39-9.29c-2.2-7.84-6.16-14.9-9.44-22.27c-3.89-8.71-10.71-12.66-19.74-13.35
	c-2.02-0.15-5.2-2.22-6.01,1.19C297.53,21.07,299.6,23.05,302.02,23.97z M217.99,214.1c-5.08,0.14-10.08,0.75-15.13,1.46
	c-31.07,4.36-56.98,21.12-84.16,34.74c-6.78,3.39-9,10.47-6.25,17.56c1.48,3.83,4.88,9.75,9.42,1.57c3.73,1.99,6.42-0.81,9.44-2.06
	c28.82-11.87,56.65-26.47,88.45-29.77c14.84-1.54,29.54-4.54,44.27-7.11c13.29-2.32,20.82-10.45,22.46-23.9
	c-12.59-1.63-24.93,2.01-37.42,1.77C238.63,209.83,227.88,209.62,217.99,214.1z M217.99,252.88c-35.05,2.48-64.74,18.97-94.11,36.18
	c-3.19,1.87-5.67,4.95-5.9,9.1c-0.24,4.27,0.59,8.48,4.15,10.96c3.49,2.43,6.41,0.62,8.16-3.04c3.89,2.05,7.13-0.13,10.59-1.48
	c34.66-13.61,68.46-29.91,106.63-32.16c14.87-0.88,29.65-3.32,44.47-5.1c1.91-0.23,4.47,0.62,5.5-1.6c1.27-2.75-1.19-4.69-2.88-5.83
	c-6.23-4.2-11.08-10.98-19.61-11.13c-5.79-4.95-12.08,0.29-18.36-0.91C243.49,245.35,230.51,248.31,217.99,252.88z M281.42,359.99
	c-6.59-1.3-12.83,1.16-19.22,1.87c-40.37,4.53-78.5,16.31-114.19,35.85c-5.06,2.77-8.98,6.39-9.65,12.35
	c-0.8,7.17,3.79,10.94,10.22,8.71c3.63,1.42,6.54-0.8,9.69-1.9c23.67-8.29,46.14-19.9,70.86-25.33
	c28.23-6.21,57.12-8.05,85.48-13.28c2.54-0.47,7.41,1.05,6.44-3.98c-1.1-5.72,0.27-12.4-5.23-16.79
	C303.98,353.14,292.74,357.12,281.42,359.99z M354.99,505.33c-1.28,2.56-6.07,2.23-5.27,7.01c4.7,0.49,8.27-2.23,11.68-4.67
	c33.23-23.82,45.92-56.44,40.52-96.46c-0.91-6.77-2.74-13.88-12.44-12.48c-9.17,3.34-7.78,11.51-7.28,18.22
	C384.61,450.04,376.65,479.74,354.99,505.33z M314.21,519.3c-2.4,1.67-6.67,3.04-5.05,6.42c1.77,3.68,5.34,0.12,8.12-0.18
	c0.97-0.1,1.98-0.59,2.8-1.16c25.5-17.7,45.71-39.61,50.85-71.37c2.14-13.24,0.9-27.11,0.43-40.67
	c-0.37-10.61-7.21-14.84-18.06-12.23c-5.38,2.39-5.37,6.65-5.04,11.86c1.76,28.21,3.82,56.5-15.46,80.83
	C326.11,501.25,320.37,510.45,314.21,519.3z M277.37,521.2c-0.54,3.15-5.18,3.37-5.08,7.01c10.39,2.47,15.06,1.75,21.36-4.06
	c30.2-27.89,48.79-60.65,42.7-103.52c-0.89-6.25-0.83-13.25-8.7-15.73c-10.95-3.65-17.22,1.21-15.83,13.87
	C316.15,458.37,306.55,493.01,277.37,521.2z M115.78,232.4c3.42,1.53,6.02-0.87,8.53-2.24c46.8-25.48,97.84-34.25,150.07-38.46
	c13.87-1.12,13.62-1.18,10.83-14.24c-1.09-5.11-3.37-6.57-8.36-6.18c-4.69,0.37-9.46-0.32-14.19-0.55
	c-9.25-1.75-18.01,1.95-27.04,2.4c-43.54,2.18-83.01,16.99-120.43,38.35c-6.96,3.97-9.83,10.12-9.7,17.79
	c0.06,3.33,2.15,5.78,5.38,6.76C113.89,236.96,115.24,235.09,115.78,232.4z M136.5,342.86c5.2,2.58,9.06-1.35,13.25-2.99
	c21.48-8.4,41.76-20.24,64.85-24.04c27.5-4.53,55-9.16,82.74-12.15c3.87-0.42,12.26,1.58,9.15-7.59
	c-2.04-6.02,2.29-17.36-11.75-14.56c-13.28,2.65-26.79,4.13-40.2,6.12c-2.94-2.67-6.41-1.61-9.73-1.3
	c-39.79,3.72-75.21,20.28-110.49,37.42c-8.03,3.9-9.6,9.84-8.5,17.59c0.42,2.94,1.91,5.21,4.97,5.77
	C134.04,347.71,135.99,346.14,136.5,342.86z M103.64,158.62c1.34,0.3,2.67,0.6,4.01,0.89c0.56-0.18,1.12-0.37,1.68-0.55
	c3.17-1.87,6.3-3.82,9.53-5.59c40.78-22.32,85.27-30.84,130.85-35.49c21.02-2.14,21-2.31,19.19-22.27
	c-0.59-2.66-2.16-4.51-4.93-3.62c-6.55,2.12-13.79-0.16-19.8,2.12c-7.26,2.75-16.36-2.84-22.05,5.32c-2.73,0.1-5.47,0.19-8.2,0.29
	c-0.83-0.5-1.73-1.52-2.49-1.43c-39.57,5.05-76.64,17.05-109.96,39.54c-6.58,4.44-9.72,10.27-8.12,18.22
	c0.53,2.62,0.95,5.77,4.06,6.49C100.39,163.24,102.56,161.53,103.64,158.62z M275.12,132.79c-3.1-4.26-7.49-2.44-11.27-2.01
	c-14.46,1.66-28.83,4.21-43.32,5.52c-39.68,3.58-76.13,16.33-109.74,37.49c-5.52,3.47-10.82,7.27-11.74,14.51
	c-1.16,9.09,2.79,11.82,12.04,8.39c1.59-0.5,3.31-0.76,4.76-1.53c44.98-24.13,93.29-36.19,143.89-40.28
	C280.55,153.2,280.53,152.94,275.12,132.79z"/>
<path class="st284" d="M389.9,499.34c16.31-21.84,21.94-26.98,27.87-39.91c5.94-12.97,8.01-24.69,8.85-32.12
	c4.17-16.29,2.92-32.66-0.49-48.74c-1.61-7.61-10.96-3.13-15.48-7.08c4.26-7.15,13.76-11.44,11.93-21.91
	c-0.63-13.67-1.24-14.1-20.69-14.54c0.04-7.05-2.25-13.63-4.11-20.3c0.99,0.01,2.02-0.15,2.98,0.04
	c16.89,3.37,18.23,1.9,13.31-14.64c0,0,0.2-0.14,0.19-0.14c0.61-0.28,1.22-0.56,1.83-0.83c0.86-0.38,1.72-0.77,2.58-1.15
	c14.99-0.9,25.8,5.84,33.46,18.34c2.06,17.64-3.28,34.48-5.98,51.55c-2.93,18.55-6.54,36.77-3.49,55.8
	c2.46,15.36,0.43,31.01-5.08,45.38c-10.42,27.15-12.65,55.13-10.56,83.57c2.36,32.28-1,64.87,5.77,96.91
	c2.82,13.34,3.46,27.02,4.26,40.66c1.58,26.75-4.2,52.25-12.14,77.39c-14.64,46.3-15.74,93.43-13.22,141.62
	c3.25,62.16,17.82,121.24,39.24,179.07c16.54,44.64,29.46,77.12,35.03,89.79c26.9,61.13,62.5,157.34,97.67,307.89
	c-74.78,0-149.55,0-224.33,0c-7.37-251.56-12.87-432.36-13.97-442.9c-0.14-1.31-0.91-7.3,2.54-10.68c1.88-1.84,4.9-2.51,9.37-2.4
	c4.59,0.12,18.02-12.97,18.44-17.37c0.22-2.32,1.04-6.12-1.23-6.51c-5.99-1.01-4.8-8.01-9.33-9.82c-0.02-9.24-0.03-18.48-0.05-27.72
	c6.08-3.79,5.98-9.08,3.6-14.92c-1.95-9.62-7.1-18.31-7.6-28.42c-2.8-56.7-5.82-113.38-8.77-170.07c0.17-6.59,4.22-11.95,5.67-18.17
	c1.44-6.14,1.2-10.13-0.84-13.48c-0.36-0.59-1.44-2.24-6.45-5.46c-2.95-1.9-7.26-4.34-12.94-6.47
	c-7.19-7.19-14.38-14.38-21.57-21.57c3.51-5.08,7.01-10.16,10.52-15.25c8.46-0.35,11.81-8.37,18.07-12.03
	c6.76-2.16,10.91-7,14.82-12.78c9.33-13.76,4.38-28.16,2.4-42.24c-1.05-7.41-1.97-15.65-8.99-20.83c0.71-24.46,7-41.36,12.41-52.06
	C369.55,526.59,376.33,517.51,389.9,499.34z"/>
<path class="st284" d="M165.25,951.46c-10.25-9.95-20.63-19.77-30.73-29.87c-24.07-24.08-43.16-51.73-57.81-82.41
	c-9.83-20.59-22.98-38.71-39.96-53.78C9.08,760.83-0.84,731.18,9.35,695.29c3.15-11.11,2.94-22.1,0.37-33.31
	c-4.9-21.33-0.58-40.07,20.72-50.83c18.37-9.27,23.48-26.16,18.88-46.26c-2.68-11.72-7.47-22.59-12.9-33.22
	c2.96,0.5,4.43,2.8,6.22,4.87c16.31,18.8,35.13,34.22,56.94,46.61c10.98,6.23,23.67,10.04,32.66,19.68
	c-1.69,0.18-3.39,0.62-5.06,0.5c-20.02-1.46-30.93,11.14-37.92,26.88c-6.9,15.54-6.9,31.01,5.63,45.5
	c10.81,12.5,24.94,18.01,39.25,23.93c-0.03,0.78-0.06,1.55-0.09,2.33c-22.97,0.51-36.99,11.39-42.11,34.38
	c-3.82,17.16-0.38,28.07,14.31,37.5c2.26,1.45,5,2.35,5.53,5.51c-9.68,1.04-18.78-5.03-29.54-3.47c2.54,3.17,4.88,3.32,7.21,3.7
	c12.11,1.99,24.21,4.06,36.31,6.1c-25.15,6.79-48.8-0.19-72.35-8.92c2.56,4.05,8.32,3.27,9.29,7.74c1.04,4.75,1.18,6.21,4.96,6.58
	c10.46,1.01,20.75,3.62,31.4,2.86c5.43-0.38,10.9-0.07,16.36-0.07c0.05,0.7,0.1,1.39,0.15,2.09c-10.11,5.25-20.21,10.5-30.59,15.9
	c5.94,1.43,11.49,0.16,16.71-2.11c6.84-2.97,13.62-6.17,20.12-9.83c10.51-5.92,20.24-7.48,31.57-0.7
	c13.71,8.21,24.78,18.95,35.33,30.56c5.31,5.85,6.81,12.49,6.87,20.47c0.28,35.1-3.61,70.1-2.21,105.21
	c0.03,0.68-0.02,1.36-0.01,2.05c0.14,5.94-2.21,6.71-7.65,4.8C178.28,959.71,173.36,952.6,165.25,951.46z M77.15,774.27
	c-0.24-0.09-0.48-0.18-0.73-0.27c-0.08,0.22-0.27,0.56-0.2,0.62c0.17,0.16,0.46,0.2,0.7,0.29C77,774.7,77.07,774.49,77.15,774.27z
	 M71.18,772.56c-0.5-0.17-0.82-0.27-1.13-0.38c0.06,0.22,0.11,0.44,0.17,0.66C70.47,772.77,70.71,772.7,71.18,772.56z"/>
<path class="st283" d="M365.1,996.34c0.89,0.56,11.12,7.24,10.57,16.32c-0.63,10.29-14.62,15.85-18.44,17.37
	c-3.75,1.49-7.08,2.11-9.37,2.4c3.81,151.19,7.62,302.38,11.43,453.57c-26.6,0-53.21,0-79.81,0
	c-6.97-150.53-13.94-301.06-20.91-451.58c-1.75,0.72-8.1,3.1-15.76,0.76c-7.4-2.26-11.29-7.47-12.4-9.07c0,0,0.38,0.3,0.38,0.29
	c-1.74-8.43,0.49-14.68,9.41-17.28c16.17,5.34,32.28,10.95,49.51,11.85c6.58,1.1,12.9-1.02,19.24-1.99
	c18.07-2.77,36.44-3.61,54.26-8.05c1.63,0.17,1.83-0.69,1.43-1.99C364.8,1004.74,364.95,1000.54,365.1,996.34z"/>
<path class="st316" d="M242.48,1114.32c3.15,21.36,3.49,23.78,4.85,32.45c5.1,32.45,11.47,64.71,17.83,96.94
	c2.34,11.87,1.89,24.19,6.1,35.7c2.74,68.86,5.48,137.72,8.22,206.57c-9.35,0-18.69,0-28.04,0
	c1.35-129.48-15.61-218.96-32.36-278.26c-8.79-31.12-37.25-123.8-53.47-253.28c-0.16-1.26-0.29-2.3-0.37-3
	c8.11,1.14,13.03,8.25,20.49,10.87c5.44,1.91,7.79,1.14,7.65-4.8c-0.02-0.68,0.03-1.37,0.01-2.05c-1.4-35.11,2.49-70.11,2.21-105.21
	c-0.06-7.98-1.56-14.62-6.87-20.47c-10.54-11.61-21.61-22.36-35.33-30.56c-11.33-6.78-21.06-5.22-31.57,0.7
	c-6.49,3.66-13.27,6.87-20.12,9.83c-5.22,2.27-10.78,3.54-16.71,2.11c10.38-5.39,20.48-10.65,30.59-15.9
	c-0.05-0.7-0.1-1.39-0.15-2.09c-5.45,0-10.93-0.32-16.36,0.07c-10.65,0.76-20.95-1.85-31.4-2.86c-3.78-0.37-3.93-1.83-4.96-6.58
	c-0.97-4.48-6.73-3.69-9.29-7.74c23.55,8.73,47.2,15.71,72.35,8.92c2.77-0.16,3.99-1.74,4.03-4.4c26.86,1.23,51.24,11.6,76,20.57
	c-2.28,30.62,0.95,61.2-3.33,92.1c-4.12,29.73-0.92,60.47-1.05,90.77c-0.03,6.3,2.68,10.1,8.67,12.06c2.83,0.93,5.36,2.77,8.03,4.2
	c2.61,1.3,5.23,2.6,7.84,3.9C233.16,1051.53,238.7,1088.68,242.48,1114.32z M68.4,787.26c0.26-0.14,0.51-0.28,0.77-0.42
	c-0.22-0.19-0.43-0.5-0.67-0.52c-0.24-0.02-0.51,0.24-0.76,0.38C67.96,786.89,68.18,787.07,68.4,787.26z"/>
<path class="st316" d="M111.41,437.33c9.39,9.54,22.23,13.77,32.88,21.43c13.18,9.49,28.08,16.74,38.87,29.29
	c3.61,4.19,9.31,8.13,6.05,15.29c-9.36-6.21-18.53-12.74-28.13-18.56c-13.03-7.9-23.34-5.45-32.68,7.06
	c-8.58,11.49-7.86,24.72,2.79,33.8c9.06,7.72,18.94,14.48,28.45,21.66c-8.49,5.79-16.99,3.64-24.83-0.9
	C89.61,520.21,40.54,500.28,1.74,463.8c3.06-21.66,18.14-34.03,34.96-44.92c2.77-1.79,6.17-2.6,9.28-3.86
	c10.63-0.13,20.89,1.09,30.77,5.74c5.16,2.43,9.63,6.64,15.74,6.92c2.32,3.13,5,4.5,8.53,1.77
	C102.41,434.8,105.48,437.94,111.41,437.33z"/>
<path class="st284" d="M1.74,463.8c38.8,36.48,87.87,56.42,133.06,82.59c7.85,4.55,16.34,6.69,24.83,0.91
	c7.13,3.8,14.26,7.6,21.38,11.4c-1.3,12.75,3.73,24.43,6.66,36.38c1.99,8.11,1.24,16.07,1.47,24.11c0.08,2.77-1.38,4.39-4.11,4.85
	c-3.54-0.93-7.51-1.13-10.53-2.92c-13.33-7.91-27.63-13.45-42.26-18.27c-8.99-9.64-21.69-13.45-32.66-19.68
	c-21.82-12.39-40.64-27.81-56.94-46.61c-1.79-2.07-3.26-4.37-6.22-4.87C27.27,519,17.77,506.58,9.13,493.58
	C3.26,484.75-1.08,475.03,1.74,463.8z"/>
<path class="st284" d="M46.16,406.77C38,345.01,20.31,285.01,12.22,223.25c-2.32-17.69-2.59-35.36,5.39-52.07
	c6.07-8.01,13.38-13.45,24.18-11.68c-4.53,18.26-2.06,36.66,0.78,54.6c7.06,44.46,16.17,88.59,22.99,133.08
	c1.84,12,7.24,23.92,3.1,36.96C64.74,396.47,56.43,406.07,46.16,406.77z"/>
<path class="st283" d="M49.66,148.45c-2.94,3.46,0.86,11.73-7.88,11.05c-10.79-1.77-18.1,3.67-24.18,11.68
	c-6.67-4.01-5.09-9.29-1.58-14.12c5.88-8.1,12.95-14.21,24.2-12.42c2.81,0.45,5.88-0.72,8.83-1.13
	C49.26,145.16,49.46,146.81,49.66,148.45z"/>
<path class="st283" d="M452.12,316.37c-7.66-12.5-18.47-19.24-33.46-18.34c-0.61-8.86,7.91-6.17,11.82-8.27
	c8.12-4.36,16.28,0.49,21.66,6.41C457.34,301.88,457.2,309.62,452.12,316.37z"/>
<path class="st317" d="M416.08,299.18c-0.61,0.28-1.22,0.56-1.83,0.83C414.86,299.73,415.47,299.46,416.08,299.18z"/>
<path class="st316" d="M132.25,602.83c14.63,4.82,28.92,10.37,42.26,18.27c3.03,1.79,7,1.99,10.53,2.92
	c4.01,3.39,7.96,6.91,13.79,6.33c0.82,2.26,2.51,3.06,4.8,2.83c6.65,5.06,13.69,9.15,22.39,9.23c6.88,6.46,15.04,10.25,24.33,11.72
	c5.98,5.37,12.76,9.22,20.73,10.75c8.17,4.12,16.34,8.23,24.51,12.35c2.78,2.02,5.56,4.05,8.33,6.07
	c16.83,11.56,29.04,20.17,31.74,22.24c0.61,0.47,1.46,1.71,2.38,3.25c0.63,1.06,0.81,2.24-0.45,3.82
	c-14.48-9.56-30.23-16.63-46.43-22.48c-7.11-2.57-14.65-2.11-20.49,4.62c-12.54,14.45-9.92,32.16,6.2,42.48
	c13.18,8.44,27.58,14.42,41.46,21.46c-1.96,1.31-1.58,3.34-1.59,5.25c-0.71,1.82-1.42,3.64-2.13,5.45c-2.81,1.05-5.62,2.1-8.44,3.15
	c-0.13,1.72-0.25,3.44-0.38,5.16c-8.1-3.43-16.12-7.07-24.32-10.24c-14.71-5.67-22.46-1.41-26.07,13.96
	c-2.67,11.39,0.85,18.98,12.46,24.8c9.98,5.01,20.32,9.31,30.5,13.93c-4.85,1.93-9.7,3.86-14.56,5.79
	c-11.14-1.6-27.83-4.73-47.31-11.41c-14.28-4.9-23.14-9.93-30.68-12.66c-24.76-8.97-49.15-19.34-76-20.57
	c-5.7-3.52-12.05-0.93-18.02-1.94c-0.53-3.16-3.27-4.06-5.53-5.51c-14.68-9.43-18.13-20.34-14.31-37.5
	c5.12-22.98,19.14-33.87,42.11-34.38c15.73,6.04,31.47,12.07,47.2,18.11c0.31-0.88,0.63-1.75,0.94-2.63
	c-15.45-7.39-31.35-13.61-48.05-17.81c-14.31-5.93-28.45-11.44-39.25-23.93c-12.53-14.49-12.53-29.97-5.63-45.5
	c4.74-10.67,11.28-19.9,21.23-24.28c3.03-1.34,11.08-1.98,16.69-2.6C129.3,603.09,131.05,602.93,132.25,602.83z M265.44,752.41
	c-1.21-1.13-2.43-2.17-4.02-0.58c0.96,0.67,1.91,1.33,2.87,2c2.47,1.72,4.8,4.07,8.51,2.3
	C270.77,753.16,268.11,752.77,265.44,752.41z M213.54,731.47c9.98,7.32,21.49,10.97,33.2,14.14
	C236.64,738.57,225.29,734.54,213.54,731.47z M208.5,728.3c-5.39-2.98-10.68-6.15-18.07-5.58
	C199.44,728.06,201.5,728.78,208.5,728.3z M286.55,761.58c-2.83-3.22-6.24-4.72-11.42-3.85
	C278.89,761.16,282.35,762.37,286.55,761.58z M255.89,749.79c-1.14-1.02-1.73-1.76-2.49-2.12c-0.36-0.17-1.06,0.39-1.61,0.61
	c0.36,0.72,0.56,1.81,1.14,2.06C253.53,750.61,254.49,750.09,255.89,749.79z"/>
<path class="st303" d="M181.02,558.69c-7.13-3.8-14.26-7.6-21.38-11.4c-9.51-7.18-19.39-13.94-28.45-21.66
	c-10.66-9.07-11.37-22.31-2.79-33.8c9.34-12.5,19.65-14.95,32.68-7.06c9.6,5.82,18.77,12.34,28.13,18.56
	c1.32,2.4,4.06,2.31,6.07,3.49c4.22,3.54,8.44,7.09,12.66,10.63c4.38,6.48,2.34,12.9-0.19,19.31
	C200.18,545.7,195.62,558.33,181.02,558.69z"/>
<path class="st283" d="M311.97,320.27c-0.04,0.68-0.18,1.37-0.12,2.04c1.48,16.97,1.46,16.84-16.52,19.29
	c-48.35,6.59-96.29,14.76-140.64,36.79c-3.87,1.92-7.86,4.14-12.52,3.78c-7.04-11.57,2.41-17.3,8.55-24.21c0,0-0.24,0.17-0.24,0.17
	c3.42-1.47,6.84-2.95,10.26-4.42c24.85-9.61,54.87-19.01,89.49-25.58C272.49,323.92,293.22,321.51,311.97,320.27z"/>
<path class="st283" d="M315.82,357.49c5.5,4.39,4.13,11.07,5.24,16.79c0.97,5.03-3.9,3.51-6.44,3.98
	c-28.37,5.23-57.25,7.08-85.48,13.28c-24.72,5.44-47.19,17.04-70.86,25.33c-3.15,1.1-6.05,3.32-9.69,1.9
	c-3.25-10.24,0.6-16.82,10.05-21.4c24.26-11.76,48.78-22.67,75.58-27.38c15.76-2.77,31.49-5.69,47.23-8.55
	C292.91,360.14,304.36,358.81,315.82,357.49z"/>
<path class="st283" d="M249.07,208.36c12.5,0.23,24.83-3.4,37.42-1.78c-1.64,13.45-9.17,21.58-22.46,23.9
	c-14.72,2.57-29.43,5.57-44.27,7.11c-31.8,3.29-59.63,17.9-88.45,29.77c-3.03,1.25-5.71,4.06-9.44,2.06
	c-4.02-8.47-0.6-13.9,6.65-18.71c27.32-18.11,57-29.9,89.44-34.69C228.29,213.31,239.85,215.59,249.07,208.36z"/>
<path class="st283" d="M275.12,132.79c5.4,20.15,5.42,20.41-15.39,22.09c-50.6,4.09-98.91,16.15-143.89,40.28
	c-1.44,0.77-3.17,1.03-4.76,1.53c-5.85-8.23-3.3-14.18,4.5-19.59c25.81-17.88,53.97-29.42,85.07-34.49
	C225.4,138.58,250.29,135.97,275.12,132.79z"/>
<path class="st283" d="M107.65,159.52c-1.34-0.3-2.67-0.6-4.01-0.9c-3.28-8.54-1.05-15.24,6.74-20.05
	c18.22-11.23,37.01-21.11,57.78-27.09c15.15-4.37,31.02-5.83,45.76-11.74c2.73-0.1,5.47-0.19,8.2-0.29c15.72,0.2,31-4.83,46.79-3.82
	c1.81,19.96,1.83,20.12-19.19,22.27c-45.58,4.65-90.08,13.17-130.85,35.49c-3.23,1.77-6.35,3.72-9.53,5.59
	C108.67,158.84,108.11,159.02,107.65,159.52z"/>
<path class="st283" d="M274.99,248.77c8.53,0.14,13.38,6.92,19.61,11.13c1.69,1.14,4.15,3.08,2.88,5.83
	c-1.03,2.23-3.58,1.37-5.5,1.6c-14.82,1.78-29.6,4.22-44.47,5.1c-38.17,2.25-71.97,18.54-106.63,32.16
	c-3.46,1.36-6.7,3.53-10.59,1.48c-5.14-9.67,1.31-14.18,8.13-18.78c24.28-16.37,50.77-27.22,79.58-32.38
	C236.98,252.69,255.46,245.81,274.99,248.77z"/>
<path class="st283" d="M254.55,287.65c13.41-1.99,26.92-3.47,40.2-6.12c14.03-2.8,9.7,8.54,11.75,14.56
	c3.11,9.17-5.28,7.18-9.15,7.59c-27.74,2.99-55.24,7.62-82.74,12.15c-23.1,3.8-43.37,15.64-64.85,24.04
	c-4.19,1.64-8.05,5.57-13.25,2.99c-3.86-12.7,5.83-16.55,13.97-21.4C182.62,302.32,218.42,294.47,254.55,287.65z"/>
<path class="st283" d="M262.66,170.75c4.73,0.23,9.5,0.92,14.19,0.55c4.99-0.4,7.27,1.06,8.36,6.18
	c2.79,13.06,3.04,13.12-10.83,14.24c-52.23,4.21-103.27,12.97-150.07,38.46c-2.5,1.36-5.1,3.77-8.53,2.24
	c-2.86-10.39,2.05-16.03,10.83-21.19c36.47-21.41,75.99-32.2,117.75-36.16C250.55,174.46,257.31,175.32,262.66,170.75z"/>
<path class="st283" d="M207.95,517.46c-4.22-3.54-8.44-7.08-12.66-10.63c19.84-17.88,24.08-41.58,24.74-66.58
	c0.2-7.38,1.7-14.07,7.78-19.06c9.77-8.02,18.86-5.62,23.4,6.29c0.93,12.17,0.82,24.32-0.47,36.46
	C248.12,488.55,228.72,512.85,207.95,517.46z"/>
<path class="st283" d="M240.71,521.22c0.38-1.22,0.38-2.85,1.2-3.6c20.42-18.82,27.64-42.66,26.97-69.68
	c-0.18-7.44,0.63-14.91,0.55-22.36c-0.08-7.94,2.93-13.74,10.17-17.2c9.61,2.83,14.52,9.38,15.43,19.26
	c2.22,24.04-0.26,46.9-15.86,66.74c-3.1,3.94-5.54,8.39-8.28,12.61c0,0,0.01-0.01,0.01-0.01
	C261.96,514.11,253.38,522.01,240.71,521.22z"/>
<path class="st283" d="M277.37,521.2c29.17-28.19,38.77-62.83,34.44-102.43c-1.38-12.66,4.88-17.52,15.83-13.87
	c3.91,11.9,2.17,24.32,3.4,36.46c1.9,18.62-3.3,34.94-14.93,49.43c-6.39,7.96-12.59,16.07-18.98,24.04
	C291.99,521.25,285.5,523.83,277.37,521.2z"/>
<path class="st283" d="M314.21,519.3c6.17-8.86,11.9-18.06,18.59-26.5c19.27-24.34,17.22-52.62,15.46-80.83
	c-0.33-5.21-0.34-9.46,5.04-11.86c8.7,3.2,12.55,9.99,13.65,18.69c5.05,39.88-10.77,71.05-40.39,96.37
	C323.07,518.15,318.79,519.33,314.21,519.3z"/>
<path class="st303" d="M237.39,585.84c9.85,21.71,12.78,44.74,12.95,68.29c-9.28-1.47-17.45-5.25-24.33-11.72
	c3.47-20.68-7.63-44.93-24.05-50.64C212.68,580.36,224.72,581.37,237.39,585.84z"/>
<path class="st283" d="M328.42,279.51c18.35-0.52,36.7-1.12,55.05-1.49c3.33-0.07,6.71,0.65,10,1.33c3.76,0.77,5.51,2.54,2.37,6.21
	c-3.4,3.98-1.41,8.4-0.79,12.69c-19.58,0.63-39.16,1.19-58.73,1.93c-4.21,0.16-6.09-1.54-6.61-5.66
	C329.09,289.52,327.02,284.68,328.42,279.51z"/>
<path class="st283" d="M397.77,314.74c1.86,6.67,4.15,13.25,4.11,20.3c-19,0.69-38.02,1.1-57,2.18c-12.64,0.72-7.72-9.64-9.6-15.07
	c-2.37-6.81,4.24-5.06,7.72-5.61c16.17-2.58,32.53-1.76,48.81-2.39c2.08,0.22,4.15,0.44,6.22,0.66L397.77,314.74z"/>
<path class="st283" d="M409.61,371.82c-13.34,3.8-27.03,0.99-40.51,2.1c-4.07,0.34-8.34-0.41-12.22,0.54
	c-10.93,2.67-13.08-3.56-14.44-12.3c-0.95-6.08,0.91-8.01,6.62-8.13c6.79-0.15,13.57-0.76,20.36-1.18
	c4.68-0.35,9.35-0.84,14.03-1.01C405.25,351.04,405.25,351.07,409.61,371.82z"/>
<path class="st283" d="M336.69,92.74c1.33,0.02,2.66,0.05,3.99,0.07c2.72,0.11,5.44,0.22,8.16,0.32c2.56,0.76,5.08,1.73,7.69,2.25
	c6.4,1.26,8.33,4.34,4.04,9.77c-2.19,2.77-1.49,5.76-1.58,8.75c-18-1.64-36.01-1.27-54.03-0.5c-7.01,0.3-14.16-11.34-11.15-17.78
	c1.4-3,4.1-1.86,6.21-1.93C312.24,93.25,324.47,93.03,336.69,92.74z"/>
<path class="st283" d="M357.05,129.96c7.52,1.76,16.36,2.51,9.16,14.1c-0.99,1.6,0.08,4.47,0.19,6.75
	c-18.55-0.02-37.1-0.21-55.64,0.05c-4.86,0.07-7.68-1.1-8.32-6.2c-0.59-4.67-1.47-9.31-2.23-13.95
	C319.16,130.46,338.11,130.21,357.05,129.96z"/>
<path class="st283" d="M332.45,167.34c5.49,0.01,10.99,0.02,16.48,0.03c2.01,2.33,4.03,2.31,6.05,0c3.4-0.14,6.8-0.49,10.18-0.38
	c10.77,0.38,12.37,2.9,8.93,12.67c-0.86,2.44-0.44,5.32-0.61,8c-18.96-0.08-37.91-0.3-56.86-0.14c-4.76,0.04-6.74-1.71-7.12-6.28
	c-0.33-4.02-1.11-8.01-1.7-12.01c1.39-0.58,2.78-1.17,4.17-1.75c0.79-0.26,1.57-0.51,2.36-0.77c1.98,0.2,3.96,0.4,5.94,0.59
	C324.32,170.23,328.38,170.2,332.45,167.34z"/>
<path class="st283" d="M138.64,48.76c3.01-1.53,5.97-3.17,9.04-4.56c19.47-8.82,28.2-5.08,35.49,15.17c1.6,4.45,3.07,8.96,4.6,13.44
	c-7.59,11.18-22.73,11.69-30.22,0.73C151.66,64.94,146.89,55.54,138.64,48.76z"/>
<path class="st283" d="M354.99,505.33c21.65-25.59,29.62-55.28,27.2-88.39c-0.49-6.71-1.89-14.88,7.28-18.22
	c8.97,13.87,7.69,29.5,5.99,44.48C392.4,470.27,377.97,490.8,354.99,505.33z"/>
<path class="st283" d="M183.43,26.07c19.1-4.96,26.57-1.87,35.66,15.6c4.06,7.81,7.27,16.07,10.87,24.13
	c-3.12,10.13-13.99,12.21-21.85,4.01c-3.07-3.2-5.29-7.08-6.56-11.38C197.95,46.26,192.5,35.16,183.43,26.07z"/>
<path class="st283" d="M344.76,241.08c11.21-0.04,22.41-0.26,33.62-0.06c10.89,0.19,11.76,1.68,9.46,12.38
	c-0.55,2.55,0.06,5.36,0.13,8.05c-16.55,0.57-33.12,0.86-49.64,1.82c-8.3,0.48-8.29-2.61-5.22-8.65
	C335.91,249.09,338.97,243.96,344.76,241.08z"/>
<path class="st283" d="M226.36,19.86c18.16-0.88,30.74,7.46,37.01,24.77c2.15,5.95,3.86,12.06,5.78,18.09
	c-7.81,9.03-19.12,8.03-24.23-2.69c-3.61-7.58-5.66-15.9-9.1-23.58C233.23,30.66,229.55,25.37,226.36,19.86z"/>
<path class="st283" d="M322.24,203.98c15.93-0.01,31.87-0.23,47.8,0.07c6.94,0.13,16.73-1.26,9.84,11.51
	c-0.9,1.68,0.46,4.58,0.78,6.91c-14.49,3.44-29.05,2.87-43.04-1.5C329.97,218.59,323.3,213.31,322.24,203.98z"/>
<path class="st283" d="M414.31,398.86c3.31,18.8,6.54,37.65-0.34,56.33c-1.4,3.81-1.79,9.13-7.76,9.46
	c5.33-17.01,3.91-34.54,4.16-51.97C410.45,407.84,409.13,402.35,414.31,398.86z"/>
<path class="st283" d="M68.51,249.12c0.12-0.31,0.17-0.68,0.37-0.93c3.4-4.2,5.29-10.91,12.25-9.82c3.51,0.55,4.52,15.99,1.41,20.67
	c-2.58,3.88-5.5,7.59-9.68,9.99c-0.01-0.63-0.28-1.11-0.82-1.44C70.86,261.45,69.69,255.29,68.51,249.12z"/>
<path class="st283" d="M55.9,177.67c0.07-0.33,0.1-0.67,0.22-0.98c2.06-5.43,4.89-10.29,10.6-12.53c0.61-0.24,2.77,1.34,2.83,2.17
	c0.47,6.77,5.33,13.91-0.28,20.22c-2.9,3.26-4.63,8.36-10.18,8.66C58.02,189.37,56.96,183.52,55.9,177.67z"/>
<path class="st283" d="M95.01,394.73c0.08-0.33,0.14-0.66,0.25-0.98c1.89-5.53,6.12-8.77,11.29-10.63c1.61-0.58,2.73,1.71,2.96,3.39
	c0.86,6.36,5.35,12.99-0.63,18.96c-3.03,3.02-6.63,5.47-9.98,8.18C97.6,407.34,96.31,401.03,95.01,394.73z"/>
<path class="st283" d="M62.14,212.48c0.11-0.32,0.14-0.71,0.35-0.94c3.6-3.97,6.98-12.33,12.34-8.53c4.72,3.35,5.4,12.19,1.97,18.72
	c-2.45,4.68-5.51,9.21-10.55,11.76C62.86,226.88,65.1,219.17,62.14,212.48z"/>
<path class="st283" d="M81.92,321.2c0.94-0.97,1.71-2.34,2.86-2.82c4.12-1.72,7.25-10.11,10.65-6.47
	c4.16,4.46,5.16,13.09,1.92,19.12c-2.4,4.46-5.74,10.16-12.58,10.28c-0.51-2.15,1.44-4.99-1.79-6.37c0,0,0.57-0.12,0.56-0.12
	C82.99,330.28,82.45,325.74,81.92,321.2z"/>
<path class="st283" d="M74.95,283.89c4.41-3.28,6.67-11.29,13.66-8.66c4.4,1.66,3.17,18.77-1.4,23.07
	c-2.44,2.29-3.45,7.07-8.39,5.94C77.53,297.46,76.24,290.68,74.95,283.89z"/>
<path class="st283" d="M88.79,359.83c0.57-7.14,6.65-13.42,11.15-11.82c5.9,2.09,5.17,11.49,3.81,17.18
	c-1.27,5.29-5.25,10.77-11.85,12.33C90.86,371.61,89.82,365.72,88.79,359.83z"/>
<path class="st283" d="M111.41,437.33c-5.92,0.62-9-2.53-10.39-7.89c1.75-1.6,3.4-3.35,5.28-4.77c2.92-2.19,5.55-7.86,9.72-3.66
	c3.6,3.62,3.02,8.74-1.31,12.6C113.49,434.71,112.5,436.08,111.41,437.33z"/>
<path class="st283" d="M159.46,47.45c7.37,4.19,10.64,11.39,13.73,18.72C164.42,63.02,162.45,54.86,159.46,47.45z"/>
<path class="st318" d="M311.97,167.48c-1.39,0.58-2.78,1.17-4.17,1.75C308.3,166.54,310.29,167.37,311.97,167.48z"/>
<path class="st281" d="M236.49,814.53c14.96,6.25,30.67,9.2,46.75,10.46c1.99,39.15,4.09,78.29,5.87,117.45
	c0.28,6.14,2.18,6.97,8.02,5.97c13.06-2.24,26.3-3.41,39.47-5.01c2.49,2.85,5.34,1.47,8.38,1.12c7.82-0.9,18.72-9.26,20.22,7.48
	c0.06,0.66,2.26,1.13,3.47,1.69c2.38,5.84,2.48,11.13-3.6,14.92c-25.79,3.36-51.58,6.72-77.37,10.08c-3.66-1.02-7.02-2.6-9.65-5.44
	c-11.81-12.73-23.61-25.46-35.4-38.21c-2.4-2.59-3.88-5.69-3.89-9.22C238.63,888.72,235.38,851.67,236.49,814.53z"/>
<path class="st303" d="M318.31,758.69c-13.88-7.04-28.27-13.02-41.45-21.46c-16.12-10.31-18.74-28.03-6.2-42.48
	c5.84-6.73,13.39-7.19,20.49-4.62c16.2,5.86,31.96,12.92,46.43,22.48c4.13,1.77,8.26,3.54,12.39,5.32c3.49,1.43,5.77,3.34,7.14,5.63
	c0.68,1.14,2.7,4.68,0.84,13.48c-0.99,4.68-3.57,13.23-11.34,22.45c-1.96,1.28-4.76,2.72-8.32,3.46
	C328.43,765.01,320.4,760.07,318.31,758.69z"/>
<path class="st284" d="M287.68,978.7c25.79-3.36,51.58-6.72,77.37-10.08c0.02,9.24,0.03,18.48,0.05,27.72
	c-0.15,4.2-0.3,8.4-0.46,12.6c-0.48,0.66-0.95,1.33-1.43,1.99c-17.82,4.44-36.18,5.28-54.26,8.05c-6.34,0.97-12.65,3.09-19.24,1.99
	C289.46,1006.86,290.31,992.69,287.68,978.7z"/>
<path class="st317" d="M326.9,689.8c-1.16,1.23-2.14,0.95-3-0.35c0.19-19.11,0.37-38.22,0.56-57.34c0.49,0,0.99,0.01,1.48,0.01
	c0.24,14.23,0.48,28.46,0.72,42.69C326.74,679.8,326.82,684.8,326.9,689.8z"/>
<path class="st303" d="M287.68,978.69c2.63,14,1.78,28.16,2.04,42.27c-17.23-0.9-33.34-6.5-49.51-11.85
	c-4.08-0.74-8.97-2-14.25-4.22c-2.94-1.24-5.56-2.58-7.84-3.9c-2.67-1.43-5.2-3.27-8.03-4.2c-5.99-1.96-8.7-5.76-8.67-12.06
	c0.13-30.3-3.07-61.03,1.05-90.77c4.28-30.89,1.05-61.48,3.33-92.1c10.68,3.12,20.84,7.49,30.68,12.66
	c-1.11,37.14,2.14,74.19,2.25,111.3c0.01,3.53,1.5,6.62,3.89,9.22c11.79,12.75,23.6,25.48,35.4,38.21
	C280.66,976.1,284.02,977.67,287.68,978.69z"/>
<path class="st284" d="M271.26,1279.43c-4.21-11.52-3.76-23.84-6.1-35.71c-6.36-32.23-12.73-64.49-17.83-96.94
	c-6.31-40.12-11.34-80.43-16.92-120.67c3.64,2.89,7.87,3.4,12.38,3.56c15.38,0.53,19.93,5.38,20.48,20.42
	c2.67,74.08,5.45,148.15,8.17,222.23C271.53,1274.68,271.33,1277.06,271.26,1279.43z"/>
<path class="st319" d="M363.21,1010.93c0.48-0.66,0.95-1.33,1.43-1.99C365.05,1010.24,364.85,1011.1,363.21,1010.93z"/>
<path class="st318" d="M332.45,167.34c-4.07,2.86-8.13,2.89-12.18-0.03C324.33,167.32,328.39,167.33,332.45,167.34z"/>
<path class="st318" d="M354.98,167.37c-2.02,2.31-4.03,2.32-6.05,0C350.95,167.37,352.96,167.37,354.98,167.37z"/>
<path class="st303" d="M301.13,820.87c-0.93-0.24-1.85-0.48-2.78-0.72c-10.18-4.62-20.52-8.92-30.5-13.93
	c-11.61-5.82-15.13-13.41-12.46-24.8c3.61-15.37,11.36-19.63,26.07-13.96c8.2,3.16,16.22,6.81,24.32,10.24
	c1.73,1.05,3.42,2.2,5.21,3.14c17.67,9.31,19.66,15.1,11.38,33.22c-0.69,1.51-1.15,3.12-1.72,4.69c-3.67,3.29-9.24,0.87-12.86,4.29
	C305.57,822.32,303.35,821.6,301.13,820.87z"/>
<path class="st283" d="M283.79,825.94c4.31-2.16,8.63-4.31,12.94-6.47c9.32,3.76,19.67,1.5,25.63-5.41
	c4.62-5.35,6.24-13.43,4.04-19.89c-1.66-4.89-6.58-8.67-15.43-13.33c-1.79-0.94-3.47-2.09-5.21-3.14c0.13-1.72,0.25-3.44,0.38-5.16
	c3.33-5.21,6.66-10.42,9.99-15.62c1.76,1.39,10.9,8.33,22.15,6.03c3.5-0.71,6.29-2.13,8.32-3.46c0.56,9.48,1.13,18.97,1.72,28.47
	c3.23,51.95,6.89,103.44,10.95,154.46c-23.01,2.16-46.02,4.31-69.03,6.47C288.11,907.91,285.95,866.93,283.79,825.94z"/>
<path class="st318" d="M277.25,629.72c5.5,9.18,1.14,19.51,3.36,29.08c-0.33,3.7-0.67,7.4-1,11.11c-3.26-0.97-6.32-2.29-8.55-5.02
	c4.29-11.22,4.03-23.01,4.34-34.73C276.05,630.14,276.67,629.99,277.25,629.72z"/>
<path class="st320" d="M321.93,615.76c1.84-2.44-4.8-7.33,2.38-8.22c-0.92,8.29,3.04,16.26,1.63,24.58c-0.5,0-0.99,0-1.48-0.01
	C321.91,626.92,322.68,621.22,321.93,615.76z"/>
<path class="st321" d="M340.67,594.8c-0.98,0.55-1.71,0.95-2.43,1.35c-0.39-0.79-1.16-1.64-1.04-2.34c0.1-0.61,1.21-1.05,1.87-1.57
	C339.53,592.98,339.99,593.72,340.67,594.8z"/>
<path class="st321" d="M294.64,615.19c1.54,1.29,1.39,2.94,1,4.65c-1.2,0.59-2.4,1.17-3.6,1.76c0,0-0.93-0.19-0.89-0.15
	C290.96,618.62,292.91,616.96,294.64,615.19z"/>
<path class="st321" d="M350.29,617.99c0.02,1.92,0.04,3.84,0.06,5.76C348.56,621.85,348.54,619.93,350.29,617.99z"/>
<path class="st321" d="M289.83,615.05c1.44-1.02,2.88-1.18,4.32,0.02C292.71,615.06,291.27,615.06,289.83,615.05z"/>
<path class="st321" d="M314.43,630.04c0.34-1.21,0.68-2.41,1.02-3.62C315.11,627.62,314.77,628.83,314.43,630.04z"/>
<path class="st167" d="M292.05,621.59c1.2-0.59,2.4-1.17,3.6-1.76C295.76,623.12,294.57,623.72,292.05,621.59z"/>
<path class="st283" d="M350.29,617.99c-1.02-10.2-2.1-20.49-3.26-30.87c-1.57-14.06-3.24-27.92-4.99-41.59
	c-0.11,0.05-0.23,0.11-0.34,0.16c-0.39-4.05-0.76-8.1-1.06-12.15c-0.21-2.86-0.66-5.32-3.87-6.17
	c-29.69,9.7-60.18,13.47-91.35,12.38c-19.11-0.67-19.12-0.57-12.79,18.74v0c0.94,9.23,5.16,17.89,4.77,27.35
	c9.85,21.71,12.78,44.74,12.95,68.29c1.83,1.52,4.61,3.71,8.2,6.02c7.29,4.69,13.44,7.01,15.61,7.86
	c6.37,2.49,15.92,6.89,29.75,15.3c13.82,9.02,19.98,8.83,23.02,6.74c4.63-3.18,2.87-10.93,9.59-20.02c2.73-3.69,5.96-5.94,8.21-7.26
	c1.98-5.06,4-11.51,5.2-19.17C351.54,633.33,351.11,624.48,350.29,617.99z"/>
</svg>
