<svg id="Слой_1" data-name="Слой 1" xmlns="http://www.w3.org/2000/svg" viewBox="0 0 515 110"><defs><style>.cls-1{fill:#ce0707;}.cls-2{fill:#950000;}.cls-3{fill:#f75f53;}</style></defs><path class="cls-1" d="M388.83,35.06c-1.2,2.44-2.58,5-4.14,7.57-6.44,10.6-17.37,23.37-32.86,24.06-15,.68-26-12.37-32.48-23.43-1.63-2.77-3.08-5.55-4.34-8.2H313.4c1.34,2.87,2.9,5.9,4.67,8.92C322.34,51.21,327,56.92,332,61c5.89,4.8,12.18,7.23,18.73,7.23q.6,0,1.2,0c7.15-.32,13.95-3.08,20.23-8.22A64.6,64.6,0,0,0,386,43.37c1.71-2.83,3.21-5.65,4.5-8.31Z"/><path class="cls-1" d="M246.75,35.06c-3.74,10.63-10.39,24.09-20,23.5-4.77-.29-8.77-3.45-12.05-7.76a147.33,147.33,0,0,0,4-14.33l-1.43-.3c0,.08-1.22,5.76-3.61,13.16a65.58,65.58,0,0,1-7-14.27h-1.57c.71,2,1.53,4.07,2.47,6.17a54.66,54.66,0,0,0,5.55,9.84c-1.05,3.12-2.3,6.47-3.75,9.8-3.07,7.08-6.43,12.65-10,16.57-4.34,4.8-9,7.08-13.73,6.79-4.94-.3-9.68-2.93-14.07-7.81a59.39,59.39,0,0,1-9-14.19,70.3,70.3,0,0,0,8.08-14.37,131.62,131.62,0,0,0,4.72-12.8H173.8c-1.2,3.77-2.71,8-4.54,12.24a70.4,70.4,0,0,1-7.43,13.42c-.07-.16-.14-.31-.21-.48A131.93,131.93,0,0,1,153.92,37l-1.43.31a133.44,133.44,0,0,0,7.78,23.55c.19.41.37.82.56,1.22-.51.64-1,1.26-1.55,1.83-4.33,4.8-8.95,7.08-13.72,6.79-4.95-.3-9.68-2.93-14.08-7.81a62,62,0,0,1-9.95-16.18,120.68,120.68,0,0,1-4.44-11.61h-1.54a123.52,123.52,0,0,0,4.64,12.19,63.61,63.61,0,0,0,10.2,16.57c4.66,5.18,9.73,8,15.08,8.3q.45,0,.9,0c4.92,0,9.62-2.46,14-7.31.39-.42.77-.87,1.15-1.34a60,60,0,0,0,8.95,13.89c4.66,5.18,9.74,8,15.08,8.3l.91,0c4.91,0,9.62-2.46,14-7.31,3.65-4,7.09-9.75,10.23-17,1.32-3,2.47-6.09,3.46-9,.36.44.72.86,1.08,1.27,3.53,3.92,7.39,6,11.45,6.29l.69,0c3.75,0,7.33-1.86,10.65-5.55a47,47,0,0,0,7.72-12.8c1-2.24,1.83-4.5,2.56-6.63Z"/><polygon class="cls-1" points="260.28 0 278 17.04 295.39 0.32 297.2 2.06 279.81 18.78 297.2 35.5 295.39 37.24 278 20.52 260.45 37.4 258.64 35.66 276.2 18.78 258.47 1.74 260.28 0"/><polygon class="cls-1" points="296.34 0 310.96 17.04 325.31 0.32 326.8 2.06 312.46 18.78 326.8 35.5 325.31 37.24 310.96 20.52 296.48 37.4 294.99 35.66 309.47 18.78 294.85 1.74 296.34 0"/><polygon class="cls-1" points="223.91 0 241.63 17.04 259.02 0.32 260.82 2.06 243.44 18.78 260.82 35.5 259.02 37.24 241.63 20.52 224.07 37.4 222.27 35.66 239.82 18.78 222.1 1.74 223.91 0"/><polygon class="cls-1" points="187.53 0 205.25 17.04 222.64 0.32 224.45 2.06 207.06 18.78 224.45 35.5 222.64 37.24 205.25 20.52 187.7 37.4 185.89 35.66 203.45 18.78 185.72 1.74 187.53 0"/><polygon class="cls-1" points="151.16 0 168.88 17.04 186.27 0.32 188.07 2.06 170.69 18.78 188.07 35.5 186.27 37.24 168.88 20.52 151.33 37.4 149.52 35.66 167.07 18.78 149.35 1.74 151.16 0"/><polygon class="cls-1" points="114.78 0 132.51 17.04 149.89 0.32 151.7 2.06 134.31 18.78 151.7 35.5 149.89 37.24 132.51 20.52 114.95 37.4 113.14 35.66 130.7 18.78 112.97 1.74 114.78 0"/><polygon class="cls-1" points="78.41 0 96.13 17.04 113.52 0.32 115.33 2.06 97.94 18.78 115.33 35.5 113.52 37.24 96.13 20.52 78.58 37.4 76.77 35.66 94.32 18.78 76.6 1.74 78.41 0"/><polygon class="cls-1" points="42.03 0 59.76 17.04 77.14 0.32 78.95 2.06 61.56 18.78 78.95 35.5 77.14 37.24 59.76 20.52 42.2 37.4 40.39 35.66 57.95 18.78 40.23 1.74 42.03 0"/><rect class="cls-1" y="35.14" width="313.6" height="2.46"/><polygon class="cls-1" points="401.36 0 419.08 17.04 436.47 0.32 438.28 2.06 420.89 18.78 438.28 35.5 436.47 37.24 419.08 20.52 401.53 37.4 399.72 35.66 417.28 18.78 399.55 1.74 401.36 0"/><polygon class="cls-1" points="364.99 0 382.71 17.04 400.1 0.32 401.9 2.06 384.52 18.78 401.9 35.5 400.1 37.24 382.71 20.52 365.15 37.4 363.35 35.66 380.9 18.78 363.18 1.74 364.99 0"/><polygon class="cls-1" points="328.61 0 346.33 17.04 363.72 0.32 365.53 2.06 348.14 18.78 365.53 35.5 363.72 37.24 346.33 20.52 328.78 37.4 326.97 35.66 344.53 18.78 326.8 1.74 328.61 0"/><path class="cls-1" d="M515,35.07l-201.4.07V37.6l201.4,0Z"/><polygon class="cls-1" points="437.08 -0.74 454.8 16.31 472.19 -0.41 474 1.33 456.61 18.05 474 34.76 472.19 36.5 454.8 19.78 437.25 36.66 435.44 34.92 452.99 18.05 435.27 1 437.08 -0.74"/><polygon class="cls-1" points="472.67 -0.94 490.39 16.1 507.78 -0.62 509.59 1.12 492.2 17.84 509.59 34.56 507.78 36.3 490.39 19.58 472.84 36.46 471.03 34.72 488.58 17.84 470.86 0.8 472.67 -0.94"/><polygon class="cls-1" points="6.22 -0.53 23.94 16.52 41.33 -0.2 43.14 1.54 25.75 18.25 43.14 34.97 41.33 36.71 23.94 19.99 6.39 36.87 4.58 35.13 22.14 18.25 4.41 1.21 6.22 -0.53"/><polygon class="cls-2" points="51.77 61.66 52.37 65.36 70.12 83.11 70.71 80.6 67.9 69.8 51.77 61.66"/><polygon class="cls-1" points="51.77 61.66 67.16 46.27 74.27 46.27 90.54 61.66 70.71 80.6 51.77 61.66"/><polygon class="cls-2" points="102.97 74.68 99.37 78.36 96.75 76.16 94.09 79.27 96 81.81 88.59 89.37 86.4 86.22 84.03 90.51 85.51 92.52 82.7 95.39 89.65 107.38 116.29 79.71 102.97 74.68"/><polygon class="cls-3" points="68.05 91.55 65.83 102.5 75.75 108.27 80.63 96.13 70.27 88.44 68.05 91.55"/><polygon class="cls-3" points="70.86 86.37 81.22 94.51 101.79 73.2 92.32 65.06 70.86 86.37"/><polygon class="cls-3" points="97.34 60.2 107.41 55.3 115.4 63.88 103.41 72.02 94.98 64.03 97.34 60.2"/><polygon class="cls-2" points="90.54 61.66 70.71 80.6 68.05 91.55 100.9 59.44 90.54 61.66"/><polygon class="cls-3" points="98.68 71.42 101.79 68.32 103.12 70.54 99.86 73.2 98.68 71.42"/><path class="cls-3" d="M76,94.51l5.18-5-.59,4.29s-3.26,3.55-3.26,3.4S76,94.51,76,94.51Z"/><ellipse class="cls-1" cx="87.59" cy="80.08" rx="11.99" ry="3.98" transform="translate(-30.97 85.39) rotate(-45)"/><rect class="cls-1" x="54.07" y="36.32" width="2.09" height="24.22"/><rect class="cls-1" x="81.21" y="36.32" width="2.09" height="24.22"/><polygon class="cls-2" points="307.94 61.66 307.35 65.36 289.59 83.11 289 80.6 291.81 69.8 307.94 61.66"/><polygon class="cls-1" points="307.94 61.66 292.55 46.27 285.45 46.27 269.17 61.66 289 80.6 307.94 61.66"/><polygon class="cls-2" points="256.75 74.68 260.35 78.36 262.96 76.16 265.62 79.27 263.72 81.81 271.12 89.37 273.32 86.22 275.68 90.51 274.2 92.52 277.01 95.39 270.06 107.38 243.43 79.71 256.75 74.68"/><polygon class="cls-3" points="291.66 91.55 293.88 102.5 283.97 108.27 279.09 96.13 289.44 88.44 291.66 91.55"/><polygon class="cls-3" points="288.85 86.37 278.5 94.51 257.93 73.2 267.4 65.06 288.85 86.37"/><polygon class="cls-3" points="262.38 60.2 252.31 55.3 244.32 63.88 256.3 72.02 264.74 64.03 262.38 60.2"/><polygon class="cls-2" points="269.17 61.66 289 80.6 291.66 91.55 258.82 59.44 269.17 61.66"/><polygon class="cls-3" points="261.04 71.42 257.93 68.32 256.6 70.54 259.85 73.2 261.04 71.42"/><path class="cls-3" d="M283.67,94.51c-.14-.15-5.17-5-5.17-5l.59,4.29s3.25,3.55,3.25,3.4S283.67,94.51,283.67,94.51Z"/><path class="cls-1" d="M274.93,77.27c4.68,4.68,7.22,9.74,5.67,11.29s-6.61-1-11.29-5.67-7.22-9.73-5.67-11.28S270.25,72.59,274.93,77.27Z"/><rect class="cls-1" x="303.56" y="36.32" width="2.09" height="24.22" transform="translate(609.2 96.85) rotate(180)"/><rect class="cls-1" x="276.41" y="36.32" width="2.09" height="24.22" transform="translate(554.92 96.85) rotate(180)"/><polygon class="cls-2" points="393.54 61.66 394.13 65.36 411.88 83.11 412.48 80.6 409.66 69.8 393.54 61.66"/><polygon class="cls-1" points="393.54 61.66 408.92 46.27 416.03 46.27 432.3 61.66 412.48 80.6 393.54 61.66"/><polygon class="cls-2" points="444.73 74.68 441.13 78.36 438.52 76.16 435.85 79.27 437.76 81.81 430.35 89.37 428.16 86.22 425.79 90.51 427.27 92.52 424.46 95.39 431.41 107.38 458.05 79.71 444.73 74.68"/><polygon class="cls-3" points="409.81 91.55 407.59 102.5 417.51 108.27 422.39 96.13 412.03 88.44 409.81 91.55"/><polygon class="cls-3" points="412.62 86.37 422.98 94.51 443.55 73.2 434.08 65.06 412.62 86.37"/><polygon class="cls-3" points="439.1 60.2 449.17 55.3 457.16 63.88 445.17 72.02 436.74 64.03 439.1 60.2"/><polygon class="cls-2" points="432.3 61.66 412.48 80.6 409.81 91.55 442.66 59.44 432.3 61.66"/><path class="cls-1" d="M426.54,77.27c-4.68,4.68-7.21,9.74-5.66,11.29s6.61-1,11.29-5.67,7.21-9.73,5.66-11.28S431.23,72.59,426.54,77.27Z"/><rect class="cls-1" x="395.83" y="36.32" width="2.09" height="24.22"/><rect class="cls-1" x="422.97" y="36.32" width="2.09" height="24.22"/></svg>