<svg version="1.1" id="Слой_1" xmlns="http://www.w3.org/2000/svg" x="0" y="0" viewBox="0 0 585 722" xml:space="preserve"><style>.st14{fill:#d670e1}.st367{fill:#cc37d8}</style><path d="M290.94 718.8c-31.01-33.25-58.37-64-87.26-93.23-49.44-50.03-100.21-98.75-149.62-148.82-13.66-13.84-26.57-29.29-36.2-46.08-26.37-45.98-22.42-65.65 16.01-101.24 30.34-28.1 60.06-56.89 91.01-84.29 11.43-10.12 24.64-19.52 38.68-25.16 84.23-33.84 170.01-35.03 253.83-1.34 26.59 10.69 48.54 33.96 71.19 53.15 26.02 22.04 49.14 47.66 76.03 68.49 21.13 16.37 24.22 35.84 16.55 57.32-7.19 20.13-15.28 42.27-29.6 57.15-83.8 87.05-169.57 172.24-260.62 264.05zm131.38-397.47c17.16-7.19 36.57-17.07 38.28-32.43 1.94-17.44-19.93-32.95-30.43-40.22-12.32-8.52-44.41-27.98-130.74-29.17-94.47-1.31-131.19 20.95-142.92 28.8-11.26 7.53-31.59 21.49-31.14 39.73.18 7.21 3.74 20.76 33.35 38.31 104.22 61.79 244.1 3.15 263.6-5.02zm-219.16 52.45c-48.34 27.21-93.63 52.71-142.79 80.39 61.93 56.79 131.63 77.89 214.48 81.66-25.15-56.84-47.84-108.12-71.69-162.05zm322.09 80.08c-49.66-27.86-94.91-53.25-142.85-80.14-24 55.02-46.54 106.67-71.27 163.36 83.17-6.89 153.04-25.62 214.12-83.22zM292.91 523c22.74-51.36 43.35-97.91 64.56-145.83H228.71c21.08 47.88 41.56 94.41 64.2 145.83zm228.04-96.79c-16.85-42.51-30.14-76.05-43.17-108.92-24.15 16.84-44.83 31.26-67.61 47.14 35.17 19.61 68.84 38.39 110.78 61.78zm-455.38-.04c41.89-23.55 75.6-42.5 110.4-62.07-23.41-16.09-44.81-30.79-68.1-46.8-13.35 34.36-26.17 67.35-42.3 108.87zM197.86 550.8c30.08 41.13 54.37 74.34 83.23 113.81V560.73c-25.43-3.04-49.48-5.91-83.23-9.93zm107.76 9.55V663.3c28.78-39.16 53.33-72.56 82.59-112.37-32.37 3.7-56.41 6.44-82.59 9.42zm238.53-134.61c29.85-52.04 28.08-55.66-42.46-107.83 14.6 37.08 27.5 69.86 42.46 107.83zM82.83 320.41c-63.2 39.21-74.42 71.62-38.34 99.68 12.16-31.59 24.15-62.79 38.34-99.68z" fill="#f0c6f4"/><path class="st14" d="M107.5 317.82c-14.04 36.28-28.09 72.56-42.13 108.84 37.06-20.68 74.12-41.35 111.18-62.03-23.02-15.6-46.03-31.21-69.05-46.81z"/><path class="st367" d="M203.47 373.99c-47.59 26.92-95.19 53.84-142.78 80.75 16.67 17.34 46.62 44.04 91.29 63.2 52.23 22.4 98.93 23.47 124.06 22.24-24.2-55.4-48.38-110.79-72.57-166.19z"/><ellipse class="st14" cx="292.96" cy="286.8" rx="167.9" ry="70.81"/><path class="st367" d="M229.22 377.5c21.07 48.37 42.13 96.75 63.2 145.12 21.85-48.37 43.69-96.75 65.54-145.12H229.22zm183.13-13.05l107.76 62.01c-14.11-36.68-28.21-73.35-42.32-110.03-21.81 16.01-43.62 32.02-65.44 48.02z"/><path class="st14" d="M274.48 135.87h-10.93c-1.66 0-3-1.34-3-3V3.45c0-1.66 1.34-3 3-3h10.93c1.66 0 3 1.34 3 3v129.42c0 1.66-1.34 3-3 3zm65.87 4.5l-10.15-4.06a2.996 2.996 0 01-1.67-3.9l24.82-62a2.996 2.996 0 013.9-1.67l10.15 4.06c1.54.62 2.29 2.36 1.67 3.9l-24.82 62a2.992 2.992 0 01-3.9 1.67zm-134.66 1.85l10.15-4.06a2.996 2.996 0 001.67-3.9l-24.82-62a2.996 2.996 0 00-3.9-1.67l-10.15 4.06a2.996 2.996 0 00-1.67 3.9l24.82 62a3.009 3.009 0 003.9 1.67zm195.86 27.12l-9.17-5.94a3.003 3.003 0 01-.89-4.15l70.34-108.64c.9-1.39 2.76-1.79 4.15-.89l9.17 5.94c1.39.9 1.79 2.76.89 4.15L405.7 168.45a3.005 3.005 0 01-4.15.89zm-246.87-.68l9.17-5.94c1.39-.9 1.79-2.76.89-4.15L94.41 49.93a3.003 3.003 0 00-4.15-.89l-9.17 5.94c-1.39.9-1.79 2.76-.89 4.15l70.34 108.64a2.99 2.99 0 004.14.89z"/></svg>