<?xml version="1.0" encoding="utf-8"?>
<!-- Generator: Adobe Illustrator 24.2.3, SVG Export Plug-In . SVG Version: 6.00 Build 0)  -->
<svg version="1.1" id="Слой_1" xmlns="http://www.w3.org/2000/svg" xmlns:xlink="http://www.w3.org/1999/xlink" x="0px" y="0px"
	 viewBox="0 0 585 774" style="enable-background:new 0 0 585 774;" xml:space="preserve">
<style type="text/css">
	.st0{clip-path:url(#SVGID_2_);fill:#D670E1;}
	.st1{clip-path:url(#SVGID_2_);fill:#E8B4EF;}
	.st2{clip-path:url(#SVGID_2_);fill:#8D9396;}
	.st3{clip-path:url(#SVGID_2_);fill:#931CA0;}
	.st4{clip-path:url(#SVGID_2_);fill:#CED1D4;}
	.st5{clip-path:url(#SVGID_2_);fill:#E0DCD2;}
	.st6{clip-path:url(#SVGID_2_);fill:#543F31;}
	.st7{clip-path:url(#SVGID_2_);fill:#C48B75;}
	.st8{clip-path:url(#SVGID_2_);fill:#B4BABD;}
	.st9{clip-path:url(#SVGID_2_);fill:#8C9396;}
	.st10{clip-path:url(#SVGID_2_);fill:#D69D88;}
	.st11{fill:#E8B4EF;}
	.st12{clip-path:url(#SVGID_4_);}
	.st13{fill:#E097E9;}
	.st14{fill:#D670E1;}
	.st15{clip-path:url(#SVGID_6_);fill:#FFE406;}
	.st16{opacity:0.5;clip-path:url(#SVGID_6_);}
	.st17{fill:#A3CAFF;}
	.st18{fill:#FF8C00;}
	.st19{clip-path:url(#SVGID_6_);fill:#FFEDA1;}
	.st20{clip-path:url(#SVGID_6_);}
	.st21{fill:#FFCB33;}
	.st22{fill:#FFEDA1;}
	.st23{fill:#2A356B;}
	.st24{clip-path:url(#SVGID_6_);fill:#FFCB33;}
	.st25{clip-path:url(#SVGID_6_);fill:#A3CAFF;}
	.st26{clip-path:url(#SVGID_6_);fill:#FF8C00;}
	.st27{clip-path:url(#SVGID_6_);fill:#2A356B;}
	.st28{fill:#1B254E;}
	.st29{clip-path:url(#SVGID_6_);fill:#C32C28;}
	.st30{clip-path:url(#SVGID_6_);fill:#FF7400;}
	.st31{fill:#FFE406;}
	.st32{clip-path:url(#SVGID_6_);fill:#FFEF6E;}
	.st33{clip-path:url(#SVGID_8_);fill:#FFE473;}
	.st34{fill:#FFFFFF;}
	.st35{fill:#FF6567;}
	.st36{fill:url(#SVGID_9_);}
	.st37{fill:#ADD8C3;}
	.st38{fill:none;stroke:#FFFFFF;stroke-miterlimit:10;}
	.st39{fill:#A2CBAB;}
	.st40{fill:#96CDA1;}
	.st41{opacity:0.76;}
	.st42{fill:#C4E9CD;}
	.st43{fill:url(#SVGID_10_);}
	.st44{fill:url(#SVGID_11_);}
	.st45{fill:#F6E6BE;}
	.st46{fill:url(#SVGID_12_);}
	.st47{fill:url(#SVGID_13_);}
	.st48{fill:url(#SVGID_14_);}
	.st49{fill:#E4EEC4;}
	.st50{fill:#EFFBD2;}
	.st51{fill:url(#SVGID_15_);}
	.st52{fill:url(#SVGID_16_);}
	.st53{fill:url(#SVGID_17_);}
	.st54{fill:url(#SVGID_18_);}
	.st55{fill:#FFE493;}
	.st56{clip-path:url(#SVGID_20_);fill:url(#SVGID_21_);}
	.st57{fill:#5B2A1E;}
	.st58{fill:#907673;}
	.st59{fill:url(#SVGID_22_);}
	.st60{fill:url(#SVGID_23_);}
	.st61{fill:url(#SVGID_24_);}
	.st62{fill:url(#SVGID_25_);}
	.st63{fill:#FE82C8;}
	.st64{opacity:0.62;clip-path:url(#SVGID_27_);fill:#FFFFFF;}
	.st65{opacity:0.75;clip-path:url(#SVGID_27_);fill:#FFFFFF;}
	.st66{opacity:0.41;clip-path:url(#SVGID_27_);fill:#FFFFFF;}
	.st67{clip-path:url(#SVGID_27_);fill:none;}
	.st68{clip-path:url(#SVGID_29_);}
	.st69{opacity:0.26;fill:#FFFFFF;}
	.st70{opacity:0.69;fill:#FFFFFF;}
	.st71{fill:none;}
	.st72{opacity:0.16;fill:#FFFFFF;}
	.st73{opacity:0.3;fill:#FFFFFF;}
	.st74{opacity:0.23;fill:#FFFFFF;}
	.st75{opacity:0.24;fill:#FFFFFF;}
	.st76{opacity:0.17;}
	.st77{opacity:0.05;fill:#E2E8E4;}
	.st78{clip-path:url(#SVGID_31_);}
	.st79{opacity:0.76;clip-path:url(#SVGID_31_);fill:#FFFFFF;}
	.st80{clip-path:url(#SVGID_31_);fill:url(#SVGID_32_);}
	.st81{clip-path:url(#SVGID_31_);fill:none;stroke:#FFFFFF;stroke-width:2;stroke-linecap:round;stroke-miterlimit:10;}
	.st82{clip-path:url(#SVGID_31_);fill:url(#SVGID_33_);}
	.st83{clip-path:url(#SVGID_31_);fill:url(#SVGID_34_);}
	.st84{clip-path:url(#SVGID_31_);fill:url(#SVGID_35_);}
	.st85{clip-path:url(#SVGID_31_);fill:url(#SVGID_36_);}
	.st86{clip-path:url(#SVGID_31_);fill:#FFFFFF;}
	.st87{clip-path:url(#SVGID_31_);fill:url(#SVGID_37_);}
	.st88{opacity:0.62;clip-path:url(#SVGID_39_);fill:#FFFFFF;}
	.st89{clip-path:url(#SVGID_39_);fill:#FFFFFF;}
	.st90{opacity:0.41;clip-path:url(#SVGID_39_);fill:#FFFFFF;}
	.st91{clip-path:url(#SVGID_39_);fill:none;}
	.st92{clip-path:url(#SVGID_41_);}
	.st93{fill:url(#SVGID_42_);}
	.st94{opacity:0.74;clip-path:url(#SVGID_44_);fill:url(#SVGID_45_);}
	.st95{fill:#E5E5E5;}
	.st96{fill:none;stroke:#4D4D4D;stroke-width:0.75;stroke-linecap:round;stroke-miterlimit:10;}
	.st97{fill:url(#SVGID_46_);}
	.st98{opacity:0.74;fill:url(#SVGID_47_);}
	.st99{opacity:0.74;fill:url(#SVGID_48_);}
	.st100{opacity:0.74;fill:url(#SVGID_49_);}
	.st101{opacity:0.74;fill:url(#SVGID_50_);}
	.st102{fill:url(#SVGID_51_);}
	.st103{opacity:0.66;}
	.st104{opacity:0.37;fill:#FFFFFF;}
	.st105{fill:url(#SVGID_52_);}
	.st106{fill:url(#SVGID_53_);}
	.st107{opacity:0.44;clip-path:url(#SVGID_55_);fill:#FFFFD9;}
	.st108{opacity:0.43;clip-path:url(#SVGID_57_);fill:#FFFFFF;}
	.st109{clip-path:url(#SVGID_57_);fill:none;stroke:#FFFFFF;stroke-miterlimit:10;}
	.st110{opacity:0.76;clip-path:url(#SVGID_57_);fill:#FFFFFF;}
	.st111{clip-path:url(#SVGID_57_);fill:#FFFFFF;}
	.st112{opacity:0.08;clip-path:url(#SVGID_57_);fill:#FFFFFF;}
	.st113{opacity:0.27;clip-path:url(#SVGID_57_);fill:#FFFFFF;}
	.st114{opacity:0.37;clip-path:url(#SVGID_57_);fill:#FFFFFF;}
	.st115{clip-path:url(#SVGID_57_);fill:none;}
	.st116{fill:url(#SVGID_58_);}
	.st117{opacity:0.62;clip-path:url(#SVGID_60_);fill:#FFFFFF;}
	.st118{clip-path:url(#SVGID_60_);fill:#FFFFFF;}
	.st119{opacity:0.41;clip-path:url(#SVGID_60_);fill:#FFFFFF;}
	.st120{clip-path:url(#SVGID_60_);fill:none;}
	.st121{clip-path:url(#SVGID_62_);}
	.st122{opacity:0.55;fill:url(#SVGID_63_);}
	.st123{fill:url(#SVGID_64_);}
	.st124{fill:url(#SVGID_65_);}
	.st125{opacity:0.28;}
	.st126{opacity:0.56;clip-path:url(#SVGID_67_);fill:#FFFFFF;}
	.st127{opacity:0.43;clip-path:url(#SVGID_69_);fill:#FFFFFF;}
	.st128{clip-path:url(#SVGID_69_);fill:none;stroke:#FFFFFF;stroke-miterlimit:10;}
	.st129{opacity:0.76;clip-path:url(#SVGID_69_);fill:#FFFFFF;}
	.st130{clip-path:url(#SVGID_69_);fill:#FFFFFF;}
	.st131{opacity:0.08;clip-path:url(#SVGID_69_);fill:#FFFFFF;}
	.st132{opacity:0.27;clip-path:url(#SVGID_69_);fill:#FFFFFF;}
	.st133{opacity:0.37;clip-path:url(#SVGID_69_);fill:#FFFFFF;}
	.st134{clip-path:url(#SVGID_69_);fill:none;}
	.st135{clip-path:url(#SVGID_71_);fill:none;}
	.st136{opacity:0.46;}
	.st137{opacity:0.86;fill:#FFFFFF;}
	.st138{opacity:0.4;}
	.st139{opacity:0.73;fill:#FFFFFF;}
	.st140{opacity:0.54;clip-path:url(#SVGID_73_);fill:#FFFFFF;}
	.st141{fill:#FF8A8A;}
	.st142{opacity:0.75;fill:#FFFFFF;}
	.st143{fill:#FFC181;}
	.st144{clip-path:url(#SVGID_75_);fill:#FFDFBD;}
	.st145{clip-path:url(#SVGID_75_);fill:#FF9D00;}
	.st146{clip-path:url(#SVGID_75_);fill:#FFF3DF;}
	.st147{clip-path:url(#SVGID_77_);fill:#FFBAE4;}
	.st148{opacity:0.8;clip-path:url(#SVGID_77_);fill:#FE82C8;}
	.st149{clip-path:url(#SVGID_77_);fill:#FE82C8;}
	.st150{opacity:0.79;clip-path:url(#SVGID_77_);fill:#FFBAE4;}
	.st151{fill:#FFFEEA;}
	.st152{fill:#58D196;}
	.st153{fill:#A6E5C3;}
	.st154{fill:#D2F2E1;}
	.st155{opacity:0.44;fill:#FFFFFF;}
	.st156{clip-path:url(#SVGID_79_);fill:#FFF9C1;}
	.st157{opacity:0.86;fill:#FFCCD5;}
	.st158{opacity:0.62;clip-path:url(#SVGID_81_);fill:#FFFFFF;}
	.st159{opacity:0.75;clip-path:url(#SVGID_81_);fill:#FFFFFF;}
	.st160{opacity:0.41;clip-path:url(#SVGID_81_);fill:#FFFFFF;}
	.st161{clip-path:url(#SVGID_81_);fill:none;}
	.st162{clip-path:url(#SVGID_83_);}
	.st163{opacity:0.44;clip-path:url(#SVGID_85_);fill:#FFFFFF;}
	.st164{opacity:0.43;clip-path:url(#SVGID_87_);fill:#FFFFFF;}
	.st165{clip-path:url(#SVGID_87_);fill:none;stroke:#FFFFFF;stroke-miterlimit:10;}
	.st166{opacity:0.76;clip-path:url(#SVGID_87_);fill:#FFFFFF;}
	.st167{clip-path:url(#SVGID_87_);fill:#FFFFFF;}
	.st168{opacity:0.08;clip-path:url(#SVGID_87_);fill:#FFFFFF;}
	.st169{opacity:0.27;clip-path:url(#SVGID_87_);fill:#FFFFFF;}
	.st170{opacity:0.37;clip-path:url(#SVGID_87_);fill:#FFFFFF;}
	.st171{clip-path:url(#SVGID_87_);fill:none;}
	.st172{opacity:0.54;clip-path:url(#SVGID_89_);fill:#FFFFFF;}
	.st173{opacity:0.62;fill:#FFFFFF;}
	.st174{opacity:0.41;fill:#FFFFFF;}
	.st175{opacity:0.43;fill:#FFFFFF;}
	.st176{opacity:0.76;fill:#FFFFFF;}
	.st177{opacity:0.08;fill:#FFFFFF;}
	.st178{opacity:0.27;fill:#FFFFFF;}
	.st179{opacity:0.54;fill:#FFFFFF;}
	.st180{clip-path:url(#SVGID_91_);fill:#FF6567;}
	.st181{clip-path:url(#SVGID_91_);fill:#FF8A8A;}
	.st182{clip-path:url(#SVGID_91_);fill:#FFC2C1;}
	.st183{clip-path:url(#SVGID_91_);fill:#FFFFFF;}
	.st184{clip-path:url(#SVGID_93_);fill:#E2E9FF;}
	.st185{clip-path:url(#SVGID_93_);fill:#EEF2FF;}
	.st186{opacity:0.54;clip-path:url(#SVGID_93_);fill:#EEF2FF;}
	.st187{opacity:0.54;clip-path:url(#SVGID_93_);fill:#8FAAF0;}
	.st188{clip-path:url(#SVGID_95_);}
	.st189{fill:#FF6B81;}
	.st190{clip-path:url(#SVGID_95_);fill:none;}
	.st191{fill:#FF1B6F;}
	.st192{clip-path:url(#SVGID_97_);fill:#FFDFBD;}
	.st193{clip-path:url(#SVGID_97_);fill:#FF9D00;}
	.st194{clip-path:url(#SVGID_97_);fill:#FFF3DF;}
	.st195{clip-path:url(#SVGID_99_);fill:#F0C6F4;}
	.st196{opacity:0.8;clip-path:url(#SVGID_99_);fill:#F8E3F8;}
	.st197{clip-path:url(#SVGID_99_);fill:#F8E3F8;}
	.st198{opacity:0.79;clip-path:url(#SVGID_99_);fill:#F0C6F4;}
	.st199{clip-path:url(#SVGID_101_);fill:#FFF9C1;}
	.st200{clip-path:url(#SVGID_103_);fill:#FFC5D6;}
	.st201{clip-path:url(#SVGID_103_);fill:#FF94B3;}
	.st202{clip-path:url(#SVGID_103_);fill:#FF6794;}
	.st203{clip-path:url(#SVGID_103_);fill:#FFFFFF;}
	.st204{clip-path:url(#SVGID_107_);fill:#698DE6;}
	.st205{clip-path:url(#SVGID_107_);fill:#8FAAF0;}
	.st206{opacity:0.54;clip-path:url(#SVGID_107_);fill:#8FAAF0;}
	.st207{clip-path:url(#SVGID_109_);}
	.st208{clip-path:url(#SVGID_109_);fill:none;}
	.st209{opacity:0.46;clip-path:url(#SVGID_111_);}
	.st210{clip-path:url(#SVGID_111_);fill:none;}
	.st211{fill:none;stroke:#FFFFFF;stroke-width:2;stroke-miterlimit:10;}
	.st212{opacity:0.45;fill:#FFFFFF;}
	.st213{opacity:0.8;fill:#FFFFFF;}
	.st214{opacity:0.79;fill:#FFFFFF;}
	.st215{fill:#F2C5AA;}
	.st216{fill:none;stroke:#FFFFFF;stroke-width:0.75;stroke-miterlimit:10;}
	.st217{fill:#FFFFFF;stroke:#FFFFFF;stroke-width:0.25;stroke-miterlimit:10;}
	.st218{fill:#D3C1B2;}
	.st219{fill:#FFC5D6;}
	.st220{clip-path:url(#SVGID_117_);fill:#F787A5;}
	.st221{clip-path:url(#SVGID_117_);fill:#FFE9F2;}
	.st222{clip-path:url(#SVGID_117_);fill:#D3CFB3;}
	.st223{clip-path:url(#SVGID_117_);fill:#FFDBE5;}
	.st224{clip-path:url(#SVGID_117_);}
	.st225{fill:#FFE9F2;}
	.st226{fill:#F787A5;}
	.st227{fill:#F2CCC1;}
	.st228{fill:#DF4E50;}
	.st229{clip-path:url(#SVGID_117_);fill:#FFC5D6;}
	.st230{fill:#FFDBE5;}
	.st231{fill:#FFB9C3;}
	.st232{fill:#FB91B5;}
	.st233{fill:#E3A180;}
	.st234{fill:#92693D;}
	.st235{fill:#FBBACC;}
	.st236{fill:#E6678D;}
	.st237{fill:#574435;}
	.st238{fill:#C9A47C;}
	.st239{fill:#641F1E;}
	.st240{fill:#F15E89;}
	.st241{fill:#E7005E;}
	.st242{fill:#DEB78A;}
	.st243{fill:#DFB78A;}
	.st244{fill:#FF6794;}
	.st245{fill:#D72264;}
	.st246{fill:#F7F7F7;}
	.st247{fill:#F2F2F2;}
	.st248{fill:#FFFBF0;}
	.st249{fill:#FFBFCF;}
	.st250{fill:#FF9DAE;}
	.st251{fill:#FFC2C1;}
	.st252{fill:#FFCCD5;}
	.st253{fill:#B49E8F;}
	.st254{fill:#FFE2EA;}
	.st255{fill:#A3C5DC;}
	.st256{fill:#DA956B;}
	.st257{fill:#BDA595;}
	.st258{fill:#583B34;}
	.st259{fill:#63443C;}
	.st260{fill:#B2D0E5;}
	.st261{fill:#FCFCFB;}
	.st262{fill:#D0ACA1;}
	.st263{fill:#A2C4DB;}
	.st264{fill:#E1D0C8;}
	.st265{fill:#9C7972;}
	.st266{fill:#77573F;}
	.st267{fill:#F3769C;}
	.st268{fill:#FBFBF9;}
	.st269{fill:#F8C4DC;}
	.st270{fill:#E4BAB5;}
	.st271{clip-path:url(#SVGID_119_);fill:#F787A5;}
	.st272{clip-path:url(#SVGID_119_);fill:#FFE9F2;}
	.st273{clip-path:url(#SVGID_119_);fill:#D3CFB3;}
	.st274{clip-path:url(#SVGID_119_);fill:#FFDBE5;}
	.st275{clip-path:url(#SVGID_119_);}
	.st276{clip-path:url(#SVGID_119_);fill:#FFC5D6;}
	.st277{fill:#00C377;}
	.st278{fill:#88E5AF;}
	.st279{fill:#00B45A;}
	.st280{fill:#7FDAAA;}
	.st281{fill:#F2BC3A;}
	.st282{fill:#B99F65;}
	.st283{fill:#98D284;}
	.st284{fill:#3C3724;}
	.st285{fill:#D6BEA2;}
	.st286{fill:#9C8274;}
	.st287{fill:#587147;}
	.st288{fill:#E7D6BE;}
	.st289{fill:#5CC689;}
	.st290{clip-path:url(#SVGID_121_);fill:#A6E5C3;}
	.st291{clip-path:url(#SVGID_121_);fill:#FFFFFF;}
	.st292{clip-path:url(#SVGID_121_);fill:#58D196;}
	.st293{fill:#FFEF6E;}
	.st294{fill:#FFE200;}
	.st295{clip-path:url(#SVGID_123_);fill:#FDA157;}
	.st296{clip-path:url(#SVGID_123_);fill-rule:evenodd;clip-rule:evenodd;fill:#FF8429;}
	.st297{clip-path:url(#SVGID_123_);fill:#F35000;}
	.st298{clip-path:url(#SVGID_123_);fill:#F9B946;}
	.st299{fill:#F35000;}
	.st300{fill:#FF8429;}
	.st301{fill:#FFAC33;}
	.st302{fill:#E56D00;}
	.st303{fill:#EF6406;}
	.st304{fill:#FF9C00;}
	.st305{fill:#130077;}
	.st306{fill:#FFB58D;}
	.st307{opacity:0.3;}
	.st308{fill:#FF7300;}
	.st309{fill:#6E0000;}
	.st310{fill-rule:evenodd;clip-rule:evenodd;fill:#FF9C00;}
	.st311{fill-rule:evenodd;clip-rule:evenodd;fill:url(#SVGID_124_);}
	.st312{opacity:0.3;fill-rule:evenodd;clip-rule:evenodd;fill:#A4002C;}
	.st313{fill-rule:evenodd;clip-rule:evenodd;fill:url(#SVGID_125_);}
	.st314{fill-rule:evenodd;clip-rule:evenodd;fill:url(#SVGID_126_);}
	.st315{opacity:0.5;fill-rule:evenodd;clip-rule:evenodd;fill:url(#SVGID_127_);}
	.st316{fill-rule:evenodd;clip-rule:evenodd;fill:#FFC485;}
	.st317{fill-rule:evenodd;clip-rule:evenodd;fill:url(#SVGID_128_);}
	.st318{fill-rule:evenodd;clip-rule:evenodd;fill:url(#SVGID_129_);}
	.st319{fill-rule:evenodd;clip-rule:evenodd;fill:url(#SVGID_130_);}
	.st320{opacity:0.5;fill-rule:evenodd;clip-rule:evenodd;fill:url(#SVGID_131_);}
	.st321{fill-rule:evenodd;clip-rule:evenodd;fill:#FDA157;}
	.st322{opacity:0.5;fill-rule:evenodd;clip-rule:evenodd;fill:#FDA157;}
	.st323{fill-rule:evenodd;clip-rule:evenodd;fill:#FF8429;}
	.st324{fill-rule:evenodd;clip-rule:evenodd;fill:#FFAC33;}
	.st325{opacity:0.62;fill-rule:evenodd;clip-rule:evenodd;fill:#C8002A;}
	.st326{opacity:0.5;fill-rule:evenodd;clip-rule:evenodd;fill:#FF8429;}
	.st327{opacity:0.5;fill-rule:evenodd;clip-rule:evenodd;fill:#8F5472;}
	.st328{opacity:0.3;fill-rule:evenodd;clip-rule:evenodd;fill:url(#SVGID_132_);}
	.st329{opacity:0.5;fill-rule:evenodd;clip-rule:evenodd;fill:url(#SVGID_133_);}
	.st330{opacity:0.3;fill-rule:evenodd;clip-rule:evenodd;fill:url(#SVGID_134_);}
	.st331{opacity:0.3;fill-rule:evenodd;clip-rule:evenodd;fill:url(#SVGID_135_);}
	.st332{clip-path:url(#SVGID_137_);}
	.st333{clip-path:url(#SVGID_137_);fill:#FF8429;}
	.st334{fill:#FDA157;}
	.st335{clip-path:url(#SVGID_139_);}
	.st336{fill:#F58800;}
	.st337{clip-path:url(#SVGID_141_);}
	.st338{fill:#F9B946;}
	.st339{clip-path:url(#SVGID_143_);}
	.st340{clip-path:url(#SVGID_143_);fill:#FF8429;}
	.st341{fill-rule:evenodd;clip-rule:evenodd;fill:url(#SVGID_144_);}
	.st342{fill-rule:evenodd;clip-rule:evenodd;fill:url(#SVGID_145_);}
	.st343{fill-rule:evenodd;clip-rule:evenodd;fill:url(#SVGID_146_);}
	.st344{opacity:0.5;fill-rule:evenodd;clip-rule:evenodd;fill:url(#SVGID_147_);}
	.st345{fill-rule:evenodd;clip-rule:evenodd;fill:url(#SVGID_148_);}
	.st346{fill-rule:evenodd;clip-rule:evenodd;fill:url(#SVGID_149_);}
	.st347{fill-rule:evenodd;clip-rule:evenodd;fill:url(#SVGID_150_);}
	.st348{opacity:0.5;fill-rule:evenodd;clip-rule:evenodd;fill:url(#SVGID_151_);}
	.st349{opacity:0.3;fill-rule:evenodd;clip-rule:evenodd;fill:url(#SVGID_152_);}
	.st350{opacity:0.5;fill-rule:evenodd;clip-rule:evenodd;fill:url(#SVGID_153_);}
	.st351{opacity:0.3;fill-rule:evenodd;clip-rule:evenodd;fill:url(#SVGID_154_);}
	.st352{opacity:0.3;fill-rule:evenodd;clip-rule:evenodd;fill:url(#SVGID_155_);}
	.st353{opacity:0.88;fill:#FFFEF3;}
	.st354{fill:#FFD066;}
	.st355{fill:#B0ACAD;}
	.st356{fill:#FFE473;}
	.st357{fill:#FFE888;}
	.st358{fill:#F7C800;}
	.st359{fill:#FFEB97;}
	.st360{clip-path:url(#SVGID_157_);fill:#FFCB33;}
	.st361{clip-path:url(#SVGID_157_);fill:#FFE406;}
	.st362{clip-path:url(#SVGID_159_);fill:#931CA0;}
	.st363{opacity:0.5;clip-path:url(#SVGID_159_);}
	.st364{fill:#931CA0;}
	.st365{clip-path:url(#SVGID_159_);}
	.st366{clip-path:url(#SVGID_161_);fill:#E097E9;}
	.st367{fill:#CC37D8;}
	.st368{opacity:0.5;fill:#FFFFFF;}
	.st369{opacity:0.5;fill:#FFFFFF;stroke:#FFFFFF;stroke-miterlimit:10;}
	.st370{opacity:0.68;fill:#FFFFFF;}
	.st371{fill:#F0C6F4;}
	.st372{fill:#DAA3E2;}
	.st373{fill:#AB7B41;}
	.st374{fill:#8D9396;}
	.st375{fill:#CED1D4;}
	.st376{fill:#E0DCD2;}
	.st377{fill:#543F31;}
	.st378{fill:#C48B75;}
	.st379{fill:#B4BABD;}
	.st380{fill:#8C9396;}
	.st381{fill:#D69D88;}
</style>
<g>
	
		<ellipse transform="matrix(0.7071 -0.7071 0.7071 0.7071 -276.7398 412.3973)" class="st13" cx="359.44" cy="540.25" rx="224.12" ry="224.12"/>
</g>
<g>
	<path class="st14" d="M526.21,390.54c27.19,37.09,43.25,82.85,43.25,132.37c0,123.78-100.34,224.12-224.12,224.12
		c-66.23,0-125.74-28.73-166.77-74.4c40.78,55.63,106.61,91.75,180.87,91.75c123.78,0,224.12-100.34,224.12-224.12
		C583.56,482.7,561.86,430.22,526.21,390.54z"/>
</g>
<g>
	<g>
		<path class="st14" d="M164.45,383.28c-15.51,0-28.12-12.62-28.12-28.12v-28.17c0-15.51,12.61-28.12,28.12-28.12
			c15.51,0,28.12,12.62,28.12,28.12v28.17C192.57,370.66,179.95,383.28,164.45,383.28z M164.45,309.54
			c-9.62,0-17.45,7.83-17.45,17.45v28.17c0,9.62,7.83,17.45,17.45,17.45c9.62,0,17.45-7.83,17.45-17.45v-28.17
			C181.9,317.37,174.07,309.54,164.45,309.54z"/>
	</g>
</g>
<g>
	<g>
		<path class="st14" d="M549.34,376.06c-15.51,0-28.12-12.62-28.12-28.12v-28.17c0-15.51,12.62-28.12,28.12-28.12
			c15.51,0,28.12,12.62,28.12,28.12v28.17C577.46,363.44,564.85,376.06,549.34,376.06z M549.34,302.32
			c-9.62,0-17.45,7.83-17.45,17.45v28.17c0,9.62,7.83,17.45,17.45,17.45c9.62,0,17.45-7.83,17.45-17.45v-28.17
			C566.8,310.15,558.97,302.32,549.34,302.32z"/>
	</g>
</g>
<g>
	<path class="st14" d="M156.92,351.34c-0.09-3.04-0.01-6.43,2.1-8.62c3.11-3.24,8.98-1.69,11.68,1.89
		c2.71,3.58,3.12,8.33,3.44,12.81c1.98,27.88,3.96,55.76,5.94,83.65c0.35,4.92,0.69,9.92-0.4,14.73
		c-1.83,8.03-13.11,17.82-19.45,7.65c-3.15-5.05,1.48-22.31,1.47-28.17C161.62,407.22,157.71,379.36,156.92,351.34z"/>
</g>
<g>
	<path class="st14" d="M540.8,351.34c-0.09-3.04-0.01-6.43,2.1-8.62c3.11-3.24,8.98-1.69,11.68,1.89c2.71,3.58,3.12,8.33,3.44,12.81
		c1.98,27.88,3.96,55.76,5.94,83.65c0.35,4.92,0.69,9.92-0.4,14.73c-1.83,8.03-13.11,17.82-19.45,7.65
		c-3.15-5.05,1.48-22.31,1.47-28.17C545.5,407.22,541.6,379.36,540.8,351.34z"/>
</g>
<g>
	<path class="st13" d="M162.01,327.1c-0.68,0-1.38-0.07-2.07-0.21c-5.52-1.14-9.06-6.53-7.93-12.05
		c3.2-15.51-14.37-30.53-32.14-34.3c-10.54-2.24-21.56-2.24-33.22-2.25c-11.14-0.01-22.67-0.01-34.23-2.06
		c-27.72-4.91-54.67-26.82-51.79-55.01c1.67-16.37,12.59-30.65,33.37-43.66c57.63-36.06,128.42-42.37,190.08-43.79
		c36.22-0.83,72.91-0.23,109.05,1.78c33.32,1.86,53.65,14.97,55.76,35.98c1.81,17.95-12.29,32.86-27.14,38.31
		c-12.69,4.66-27.25,5.7-42.1,3.01c-55.67-10.1-128.99,7.64-136.75,22.92c-0.32,0.63-1.07,2.1,2.98,5.94
		c14.96,14.22,48.35,13.69,96.54-1.53c73.3-23.15,114.71-15.1,136.95-10.78c4.18,0.81,7.79,1.51,10.36,1.74l1.73,0.15
		c28.46,2.46,45.98,3.15,49.33-8.15c3.46-11.7-2.19-24.78-7.54-33.68c-31.45-52.39-100.74-66.14-139.24-69.68
		c-20.58-1.89-41.86-2.29-62.44-2.67c-36.06-0.67-73.35-1.37-109.48-9.99c-16.44-3.92-44.31-13.51-46.28-33.67
		c-3.16-32.34,35.23-49.43,50.29-53.29C239.05,1.5,294.03,6.46,357.69,12.2c11,0.99,22.37,2.02,33.99,2.93
		c37.13,2.9,76.34,7.93,111.6,24.97c39.7,19.19,67.89,52.33,75.42,88.66c7.02,33.85-0.09,67.8-6.97,100.63
		c-5.76,27.49-11.19,53.45-9.04,79.3c0.47,5.61-3.7,10.54-9.32,11.01c-5.6,0.44-10.54-3.7-11.01-9.32
		c-2.4-28.82,3.6-57.47,9.4-85.18c6.74-32.2,13.11-62.62,6.96-92.31c-6.25-30.16-30.3-57.99-64.32-74.43
		c-32.22-15.57-69.18-20.26-104.32-23c-11.75-0.92-23.18-1.95-34.23-2.95c-61.79-5.57-115.15-10.39-184.68,7.42
		c-9.93,2.54-36.69,14.75-35.05,31.55c0.36,3.64,11.23,11.16,30.71,15.81c33.98,8.1,68.54,8.75,105.13,9.43
		c20.95,0.39,42.61,0.8,63.93,2.75c42.34,3.89,118.77,19.39,154.85,79.49c10.69,17.81,14.01,35.08,9.61,49.97
		c-3.86,13.05-13.86,20.91-29.71,23.36c-11.89,1.84-26,0.62-40.93-0.68l-1.73-0.15c-3.65-0.31-7.75-1.11-12.5-2.03
		c-20.47-3.98-58.57-11.38-126.92,10.21c-57.29,18.09-95.47,17.06-116.73-3.14c-13.59-12.91-9.5-25.25-7.11-29.95
		c9.6-18.91,45.07-28.13,65.37-31.94c31.77-5.97,66.62-6.65,93.21-1.82c11.27,2.04,22.14,1.32,31.43-2.08
		c7.4-2.72,14.61-9.86,13.88-17.13c-1.5-14.95-30.76-17.34-36.61-17.66c-35.61-1.98-71.77-2.58-107.45-1.75
		c-58.88,1.35-126.29,7.24-179.73,40.68c-14.88,9.31-22.93,18.89-23.9,28.44c-1.6,15.66,16.83,29.63,35.05,32.85
		c9.8,1.73,19.94,1.74,30.68,1.75c12.2,0.01,24.82,0.02,37.44,2.69c27.61,5.86,53.77,29.84,47.88,58.37
		C170.99,323.78,166.74,327.1,162.01,327.1z"/>
</g>
<g>
	<g>
		<path class="st14" d="M203.43,581.86c4.19,9.97,8.47,20.09,15.31,28.46c6.84,8.37,16.74,14.9,27.55,15.14
			c14.69,0.33,27.2-10.64,35.92-22.47c6.61-8.96,12.01-18.81,16.02-29.21c3.5-9.09,6.1-18.86,12.42-26.27
			c10.76-12.62,29.23-15.07,42.91-24.45c6.65-4.55,12.1-10.72,18.95-14.97c6.25-3.88,13.41-6.01,20.54-7.82
			c22.21-5.65,45.07-8.69,66.99-15.38c2.63-0.8,5.41-1.77,7.07-3.96c1.31-1.72,1.72-3.96,1.96-6.11
			c2.46-22.1-9.93-44.38-28.44-56.71c-18.51-12.33-42.15-15.46-64.08-11.71c-21.92,3.74-42.32,13.87-60.83,26.2
			c-18.51,12.34-35.38,26.93-52.82,40.73c-12.21,9.66-25.03,19.11-39.87,23.8c-6.92,2.19-14.29,3.34-20.56,6.99
			c-4.52,2.63-8.27,6.47-11.12,10.85c-6.8,10.46-7.87,19.34-3.21,30.43C193.23,557.56,198.33,569.71,203.43,581.86z"/>
	</g>
	<g>
		<g>
			<path class="st14" d="M206.04,470.13c-9.72,0.21-20.29,0.32-27.91,6.36c-7.87,6.25-10.31,17.48-8.64,27.38
				c1.68,9.9,6.79,18.84,11.81,27.54c10.99,19.04,21.99,38.08,32.98,57.12c2.3,3.99,4.64,8.03,7.92,11.27
				c8.79,8.71,24.11,9.71,33.96,2.22c4.2-3.19,7.32-7.57,10.36-11.88c15.63-22.11,31.26-44.21,46.9-66.32
				c3.18-4.5,6.47-9.26,7.12-14.73c0.64-5.37-1.35-10.68-3.52-15.63c-4.12-9.39-9.27-18.68-17.31-25.05
				c-12.54-9.94-25.69-5.9-39.96-3.45C242.01,468,224.04,469.73,206.04,470.13z"/>
		</g>
		<g>
			<path class="st14" d="M316.97,493.43c-1.25,2.25-2.75,4.41-4.24,6.51c-15.63,22.11-31.26,44.21-46.9,66.32
				c-3.05,4.31-6.16,8.69-10.36,11.88c-9.85,7.49-25.17,6.48-33.96-2.22c-3.27-3.24-5.61-7.28-7.92-11.27
				c-10.99-19.04-21.99-38.08-32.98-57.12c-3.48-6.03-7.01-12.18-9.4-18.69c-1.76,5.17-2.07,10.98-1.16,16.39
				c1.68,9.9,6.79,18.84,11.81,27.54c10.99,19.04,21.99,38.08,32.98,57.12c2.3,3.99,4.64,8.03,7.92,11.27
				c8.79,8.71,24.11,9.71,33.96,2.22c4.2-3.19,7.32-7.57,10.36-11.88c15.63-22.11,31.26-44.21,46.9-66.32
				c3.18-4.5,6.47-9.26,7.12-14.73c0.64-5.37-1.35-10.68-3.52-15.64C317.39,494.34,317.18,493.88,316.97,493.43z"/>
		</g>
		<g>
			<path class="st14" d="M353.89,372.18c4.19-8.77,8.64-18.36,17.28-22.82c8.93-4.6,20.17-2.21,28.51,3.39
				c8.34,5.6,14.38,13.94,20.24,22.09c12.83,17.85,25.66,35.71,38.5,53.56c2.69,3.74,5.41,7.54,7.02,11.85
				c4.32,11.59-1.07,25.97-11.94,31.86c-4.64,2.52-9.91,3.55-15.1,4.56c-26.58,5.15-53.16,10.31-79.74,15.46
				c-5.41,1.05-11.1,2.09-16.36,0.43c-5.16-1.62-9.18-5.62-12.8-9.64c-6.86-7.62-13.21-16.14-15.71-26.08
				c-3.9-15.52,5.19-25.84,13.3-37.84C337.16,404.09,346.12,388.42,353.89,372.18z"/>
		</g>
		<g>
			<path class="st14" d="M329.49,482.88c2.57-0.21,5.15-0.7,7.67-1.18c26.58-5.15,53.16-10.31,79.74-15.46
				c5.18-1,10.46-2.04,15.1-4.56c10.88-5.9,16.26-20.27,11.94-31.86c-1.61-4.32-4.33-8.11-7.02-11.85
				c-12.83-17.85-25.66-35.7-38.5-53.56c-4.07-5.66-8.22-11.4-13.17-16.26c5.44,0.53,10.86,2.63,15.41,5.69
				c8.34,5.6,14.38,13.94,20.24,22.09c12.83,17.85,25.66,35.71,38.5,53.56c2.69,3.74,5.41,7.54,7.02,11.85
				c4.32,11.59-1.07,25.97-11.94,31.86c-4.64,2.52-9.91,3.55-15.1,4.56c-26.58,5.15-53.16,10.31-79.74,15.46
				c-5.41,1.05-11.1,2.09-16.36,0.43c-5.16-1.62-9.18-5.62-12.8-9.64C330.16,483.63,329.83,483.25,329.49,482.88z"/>
		</g>
		<g>
			<path class="st371" d="M341.86,412.08c3.77-5.54,8.11-11.02,14.14-13.95c-1.11,4.27-4.76,7.3-7.78,10.52
				c-4.9,5.22-8.53,11.62-10.51,18.49c-0.46,1.6-0.71,3.62,0.59,4.66c0.66,0.53,1.56,0.64,2.41,0.63c4.74-0.04,8.9-2.95,12.82-5.59
				c8.85-5.97,18.21-11.2,27.93-15.62c0.75-0.34,1.56-0.69,2.38-0.57c0.82,0.12,1.6,0.91,1.39,1.71c-0.11,0.4-0.43,0.71-0.74,0.99
				c-9.67,8.67-23.89,11.44-32.43,21.22c-1.08,1.23-2.07,2.63-2.32,4.25c-0.36,2.39,1.07,4.79,3.07,6.13c2,1.35,4.48,1.79,6.89,1.89
				c8.88,0.38,17.69-3.43,26.47-2.08c-0.77,2.19-3.31,3.11-5.54,3.76c-3.92,1.13-7.84,2.27-11.75,3.4
				c-1.62,0.47-3.29,0.97-4.54,2.09c-1.25,1.13-1.92,3.08-1.08,4.54c0.96,1.66,3.23,1.88,5.15,1.86c6.9-0.08,13.8-0.76,20.59-2.04
				c9.73-1.83,19.84-4.87,29.31-1.97c-10.13,9.48-25.19,10.55-38.78,13.34c-5.42,1.11-11.62,3.36-13.12,8.68
				c-0.34,1.19-0.53,2.64-1.63,3.2c-0.66,0.33-1.46,0.22-2.16-0.03c-3.79-1.33-5.41-5.67-6.86-9.42
				c-4.7-12.19-12.26-22.24-21.53-31.3c-3.94-3.86-5.11-6.21-2.69-11.42C334.37,423.38,338.11,417.58,341.86,412.08z"/>
		</g>
		<g>
			<path class="st371" d="M222.42,486.74c1.84,2.5,5.56,2.43,8.64,1.96c8.06-1.23,16.02-3.48,24.17-3.51
				c1.72-0.01,3.9,0.45,4.24,2.14c0.35,1.71-1.51,2.97-3.1,3.69c-11.89,5.38-24.78,9.51-34.29,18.44c-0.3,0.28-0.6,0.58-0.75,0.96
				c-0.42,1.07,0.6,2.26,1.73,2.45c1.13,0.19,2.25-0.29,3.3-0.76c8.71-3.94,17.42-7.88,26.13-11.82c3.87-1.75,7.87-3.54,12.12-3.72
				c1.81-0.08,4.12,0.61,4.25,2.42c0.05,0.66-0.24,1.29-0.58,1.85c-2.15,3.52-6.69,5.13-8.58,8.79c-0.46,0.88-0.61,2.2,0.26,2.66
				c0.38,0.2,0.84,0.17,1.26,0.08c2.77-0.58,4.72-2.96,6.74-4.95c2.01-1.99,4.82-3.82,7.51-2.91c2.39,0.81,3.64,3.63,3.38,6.14
				c-0.25,2.51-1.68,4.74-3.22,6.74c-8.31,10.74-21.56,18.21-25.61,31.17c-0.7,2.24-0.78,5.25,1.3,6.32
				c0.94,0.48,2.07,0.39,3.1,0.14c3.56-0.88,6.41-3.51,8.89-6.22c9.43-10.29,16.27-23.34,28.08-30.77
				c6.39-4.02,14.33-6.53,18.16-13.03c2.09-3.54,2.61-7.86,2.01-11.92c-1.27-8.71-7.76-16.45-16.12-19.2
				c-9.93-3.28-23.21-0.87-33.33,0.92C248.47,477.2,235.12,481.22,222.42,486.74z"/>
		</g>
		<g>
			<path class="st14" d="M268.84,461.55c-3.61,3.97-2.32,16.94-0.1,21.82c5.74,12.63,19.22,22.88,28.78,32.93
				c3.12,3.28,6.47,6.7,10.85,7.85c6.47,1.7,13.01-2.01,18.67-5.58c9.1-5.72,18.21-11.47,26.61-18.18
				c5.97-4.77,11.93-10.74,12.69-18.35c0.36-3.64-0.54-7.31-1.92-10.69c-2.88-7.05-7.79-13.04-12.63-18.91
				c-5.79-7.03-11.63-14.1-18.6-19.96c-1.73-1.45-3.58-2.86-5.75-3.51c-2.02-0.61-4.18-0.52-6.27-0.28
				c-9.24,1.04-18.08,4.97-25.17,10.96C292.6,442.5,278.7,450.7,268.84,461.55z"/>
		</g>
		<g>
			<path class="st371" d="M351.75,452.37c-5.79-7.03-11.63-14.1-18.6-19.96c-1.73-1.45-3.58-2.86-5.75-3.51
				c-2.02-0.61-4.18-0.52-6.27-0.29c-3.13,0.35-6.21,1.04-9.2,2.03c0.85,0.57,1.66,1.21,2.44,1.87c6.97,5.86,12.81,12.93,18.6,19.96
				c4.84,5.87,9.75,11.87,12.63,18.91c1.39,3.39,2.29,7.05,1.92,10.69c-0.76,7.61-6.72,13.58-12.69,18.35
				c-8.39,6.71-17.51,12.45-26.61,18.18c-1.61,1.01-3.28,2.03-5.01,2.94c1.56,1.13,3.24,2.04,5.11,2.54
				c6.47,1.7,13.01-2.01,18.67-5.58c9.1-5.72,18.21-11.47,26.61-18.18c5.97-4.78,11.93-10.74,12.69-18.35
				c0.36-3.64-0.54-7.31-1.92-10.69C361.5,464.24,356.59,458.24,351.75,452.37z"/>
		</g>
		<g>
			<path class="st371" d="M273.75,474.36c0.46,2.63,1.61,5.09,2.9,7.43c3.07,5.58,7.16,10.83,12.73,13.92
				c2.68,1.48,5.89,2.43,8.8,1.49c2.84-0.92,4.92-3.61,5.48-6.54c0.56-2.93-0.28-6.02-1.93-8.51c-1.78-2.68-4.4-4.68-6.5-7.13
				c-2.1-2.44-3.71-5.73-2.83-8.83c0.71-2.51,2.97-4.64,2.69-7.23c-0.22-2.04-2.1-3.63-4.11-3.99
				C281.56,453.27,272.26,465.91,273.75,474.36z"/>
		</g>
	</g>
</g>
</svg>
