<svg version="1.1" id="Слой_1" xmlns="http://www.w3.org/2000/svg" x="0" y="0" viewBox="0 0 585 774" xml:space="preserve"><style>.st13{fill:#e097e9}.st14{fill:#d670e1}.st371{fill:#f0c6f4}</style><circle transform="rotate(-45.001 359.433 540.26)" class="st13" cx="359.44" cy="540.25" r="224.12"/><path class="st14" d="M526.21 390.54c27.19 37.09 43.25 82.85 43.25 132.37 0 123.78-100.34 224.12-224.12 224.12-66.23 0-125.74-28.73-166.77-74.4 40.78 55.63 106.61 91.75 180.87 91.75 123.78 0 224.12-100.34 224.12-224.12 0-57.56-21.7-110.04-57.35-149.72zm-361.76-7.26c-15.51 0-28.12-12.62-28.12-28.12v-28.17c0-15.51 12.61-28.12 28.12-28.12 15.51 0 28.12 12.62 28.12 28.12v28.17c0 15.5-12.62 28.12-28.12 28.12zm0-73.74c-9.62 0-17.45 7.83-17.45 17.45v28.17c0 9.62 7.83 17.45 17.45 17.45s17.45-7.83 17.45-17.45v-28.17c0-9.62-7.83-17.45-17.45-17.45zm384.89 66.52c-15.51 0-28.12-12.62-28.12-28.12v-28.17c0-15.51 12.62-28.12 28.12-28.12 15.51 0 28.12 12.62 28.12 28.12v28.17c0 15.5-12.61 28.12-28.12 28.12zm0-73.74c-9.62 0-17.45 7.83-17.45 17.45v28.17c0 9.62 7.83 17.45 17.45 17.45s17.45-7.83 17.45-17.45v-28.17c.01-9.62-7.82-17.45-17.45-17.45z"/><path class="st14" d="M156.92 351.34c-.09-3.04-.01-6.43 2.1-8.62 3.11-3.24 8.98-1.69 11.68 1.89 2.71 3.58 3.12 8.33 3.44 12.81l5.94 83.65c.35 4.92.69 9.92-.4 14.73-1.83 8.03-13.11 17.82-19.45 7.65-3.15-5.05 1.48-22.31 1.47-28.17-.08-28.06-3.99-55.92-4.78-83.94zm383.88 0c-.09-3.04-.01-6.43 2.1-8.62 3.11-3.24 8.98-1.69 11.68 1.89 2.71 3.58 3.12 8.33 3.44 12.81l5.94 83.65c.35 4.92.69 9.92-.4 14.73-1.83 8.03-13.11 17.82-19.45 7.65-3.15-5.05 1.48-22.31 1.47-28.17-.08-28.06-3.98-55.92-4.78-83.94z"/><path class="st13" d="M162.01 327.1c-.68 0-1.38-.07-2.07-.21-5.52-1.14-9.06-6.53-7.93-12.05 3.2-15.51-14.37-30.53-32.14-34.3-10.54-2.24-21.56-2.24-33.22-2.25-11.14-.01-22.67-.01-34.23-2.06C24.7 271.32-2.25 249.41.63 221.22 2.3 204.85 13.22 190.57 34 177.56c57.63-36.06 128.42-42.37 190.08-43.79 36.22-.83 72.91-.23 109.05 1.78 33.32 1.86 53.65 14.97 55.76 35.98 1.81 17.95-12.29 32.86-27.14 38.31-12.69 4.66-27.25 5.7-42.1 3.01-55.67-10.1-128.99 7.64-136.75 22.92-.32.63-1.07 2.1 2.98 5.94 14.96 14.22 48.35 13.69 96.54-1.53 73.3-23.15 114.71-15.1 136.95-10.78 4.18.81 7.79 1.51 10.36 1.74l1.73.15c28.46 2.46 45.98 3.15 49.33-8.15 3.46-11.7-2.19-24.78-7.54-33.68-31.45-52.39-100.74-66.14-139.24-69.68-20.58-1.89-41.86-2.29-62.44-2.67-36.06-.67-73.35-1.37-109.48-9.99-16.44-3.92-44.31-13.51-46.28-33.67-3.16-32.34 35.23-49.43 50.29-53.29C239.05 1.5 294.03 6.46 357.69 12.2c11 .99 22.37 2.02 33.99 2.93 37.13 2.9 76.34 7.93 111.6 24.97 39.7 19.19 67.89 52.33 75.42 88.66 7.02 33.85-.09 67.8-6.97 100.63-5.76 27.49-11.19 53.45-9.04 79.3.47 5.61-3.7 10.54-9.32 11.01-5.6.44-10.54-3.7-11.01-9.32-2.4-28.82 3.6-57.47 9.4-85.18 6.74-32.2 13.11-62.62 6.96-92.31-6.25-30.16-30.3-57.99-64.32-74.43-32.22-15.57-69.18-20.26-104.32-23-11.75-.92-23.18-1.95-34.23-2.95-61.79-5.57-115.15-10.39-184.68 7.42-9.93 2.54-36.69 14.75-35.05 31.55.36 3.64 11.23 11.16 30.71 15.81 33.98 8.1 68.54 8.75 105.13 9.43 20.95.39 42.61.8 63.93 2.75 42.34 3.89 118.77 19.39 154.85 79.49 10.69 17.81 14.01 35.08 9.61 49.97-3.86 13.05-13.86 20.91-29.71 23.36-11.89 1.84-26 .62-40.93-.68l-1.73-.15c-3.65-.31-7.75-1.11-12.5-2.03-20.47-3.98-58.57-11.38-126.92 10.21-57.29 18.09-95.47 17.06-116.73-3.14-13.59-12.91-9.5-25.25-7.11-29.95 9.6-18.91 45.07-28.13 65.37-31.94 31.77-5.97 66.62-6.65 93.21-1.82 11.27 2.04 22.14 1.32 31.43-2.08 7.4-2.72 14.61-9.86 13.88-17.13-1.5-14.95-30.76-17.34-36.61-17.66a1370.09 1370.09 0 00-107.45-1.75c-58.88 1.35-126.29 7.24-179.73 40.68-14.88 9.31-22.93 18.89-23.9 28.44-1.6 15.66 16.83 29.63 35.05 32.85 9.8 1.73 19.94 1.74 30.68 1.75 12.2.01 24.82.02 37.44 2.69 27.61 5.86 53.77 29.84 47.88 58.37-.98 4.83-5.23 8.15-9.96 8.15z"/><path class="st14" d="M203.43 581.86c4.19 9.97 8.47 20.09 15.31 28.46 6.84 8.37 16.74 14.9 27.55 15.14 14.69.33 27.2-10.64 35.92-22.47 6.61-8.96 12.01-18.81 16.02-29.21 3.5-9.09 6.1-18.86 12.42-26.27 10.76-12.62 29.23-15.07 42.91-24.45 6.65-4.55 12.1-10.72 18.95-14.97 6.25-3.88 13.41-6.01 20.54-7.82 22.21-5.65 45.07-8.69 66.99-15.38 2.63-.8 5.41-1.77 7.07-3.96 1.31-1.72 1.72-3.96 1.96-6.11 2.46-22.1-9.93-44.38-28.44-56.71-18.51-12.33-42.15-15.46-64.08-11.71-21.92 3.74-42.32 13.87-60.83 26.2-18.51 12.34-35.38 26.93-52.82 40.73-12.21 9.66-25.03 19.11-39.87 23.8-6.92 2.19-14.29 3.34-20.56 6.99-4.52 2.63-8.27 6.47-11.12 10.85-6.8 10.46-7.87 19.34-3.21 30.43 5.09 12.16 10.19 24.31 15.29 36.46z"/><path class="st14" d="M206.04 470.13c-9.72.21-20.29.32-27.91 6.36-7.87 6.25-10.31 17.48-8.64 27.38 1.68 9.9 6.79 18.84 11.81 27.54 10.99 19.04 21.99 38.08 32.98 57.12 2.3 3.99 4.64 8.03 7.92 11.27 8.79 8.71 24.11 9.71 33.96 2.22 4.2-3.19 7.32-7.57 10.36-11.88 15.63-22.11 31.26-44.21 46.9-66.32 3.18-4.5 6.47-9.26 7.12-14.73.64-5.37-1.35-10.68-3.52-15.63-4.12-9.39-9.27-18.68-17.31-25.05-12.54-9.94-25.69-5.9-39.96-3.45a366.341 366.341 0 01-53.71 5.17z"/><path class="st14" d="M316.97 493.43c-1.25 2.25-2.75 4.41-4.24 6.51-15.63 22.11-31.26 44.21-46.9 66.32-3.05 4.31-6.16 8.69-10.36 11.88-9.85 7.49-25.17 6.48-33.96-2.22-3.27-3.24-5.61-7.28-7.92-11.27-10.99-19.04-21.99-38.08-32.98-57.12-3.48-6.03-7.01-12.18-9.4-18.69-1.76 5.17-2.07 10.98-1.16 16.39 1.68 9.9 6.79 18.84 11.81 27.54 10.99 19.04 21.99 38.08 32.98 57.12 2.3 3.99 4.64 8.03 7.92 11.27 8.79 8.71 24.11 9.71 33.96 2.22 4.2-3.19 7.32-7.57 10.36-11.88 15.63-22.11 31.26-44.21 46.9-66.32 3.18-4.5 6.47-9.26 7.12-14.73.64-5.37-1.35-10.68-3.52-15.64-.19-.47-.4-.93-.61-1.38zm36.92-121.25c4.19-8.77 8.64-18.36 17.28-22.82 8.93-4.6 20.17-2.21 28.51 3.39s14.38 13.94 20.24 22.09c12.83 17.85 25.66 35.71 38.5 53.56 2.69 3.74 5.41 7.54 7.02 11.85 4.32 11.59-1.07 25.97-11.94 31.86-4.64 2.52-9.91 3.55-15.1 4.56-26.58 5.15-53.16 10.31-79.74 15.46-5.41 1.05-11.1 2.09-16.36.43-5.16-1.62-9.18-5.62-12.8-9.64-6.86-7.62-13.21-16.14-15.71-26.08-3.9-15.52 5.19-25.84 13.3-37.84a365.639 365.639 0 0026.8-46.82z"/><path class="st14" d="M329.49 482.88c2.57-.21 5.15-.7 7.67-1.18 26.58-5.15 53.16-10.31 79.74-15.46 5.18-1 10.46-2.04 15.1-4.56 10.88-5.9 16.26-20.27 11.94-31.86-1.61-4.32-4.33-8.11-7.02-11.85-12.83-17.85-25.66-35.7-38.5-53.56-4.07-5.66-8.22-11.4-13.17-16.26 5.44.53 10.86 2.63 15.41 5.69 8.34 5.6 14.38 13.94 20.24 22.09 12.83 17.85 25.66 35.71 38.5 53.56 2.69 3.74 5.41 7.54 7.02 11.85 4.32 11.59-1.07 25.97-11.94 31.86-4.64 2.52-9.91 3.55-15.1 4.56-26.58 5.15-53.16 10.31-79.74 15.46-5.41 1.05-11.1 2.09-16.36.43-5.16-1.62-9.18-5.62-12.8-9.64-.32-.38-.65-.76-.99-1.13z"/><path class="st371" d="M341.86 412.08c3.77-5.54 8.11-11.02 14.14-13.95-1.11 4.27-4.76 7.3-7.78 10.52a45.585 45.585 0 00-10.51 18.49c-.46 1.6-.71 3.62.59 4.66.66.53 1.56.64 2.41.63 4.74-.04 8.9-2.95 12.82-5.59a192.38 192.38 0 0127.93-15.62c.75-.34 1.56-.69 2.38-.57.82.12 1.6.91 1.39 1.71-.11.4-.43.71-.74.99-9.67 8.67-23.89 11.44-32.43 21.22-1.08 1.23-2.07 2.63-2.32 4.25-.36 2.39 1.07 4.79 3.07 6.13 2 1.35 4.48 1.79 6.89 1.89 8.88.38 17.69-3.43 26.47-2.08-.77 2.19-3.31 3.11-5.54 3.76-3.92 1.13-7.84 2.27-11.75 3.4-1.62.47-3.29.97-4.54 2.09-1.25 1.13-1.92 3.08-1.08 4.54.96 1.66 3.23 1.88 5.15 1.86 6.9-.08 13.8-.76 20.59-2.04 9.73-1.83 19.84-4.87 29.31-1.97-10.13 9.48-25.19 10.55-38.78 13.34-5.42 1.11-11.62 3.36-13.12 8.68-.34 1.19-.53 2.64-1.63 3.2-.66.33-1.46.22-2.16-.03-3.79-1.33-5.41-5.67-6.86-9.42-4.7-12.19-12.26-22.24-21.53-31.3-3.94-3.86-5.11-6.21-2.69-11.42 2.83-6.07 6.57-11.87 10.32-17.37zm-119.44 74.66c1.84 2.5 5.56 2.43 8.64 1.96 8.06-1.23 16.02-3.48 24.17-3.51 1.72-.01 3.9.45 4.24 2.14.35 1.71-1.51 2.97-3.1 3.69-11.89 5.38-24.78 9.51-34.29 18.44-.3.28-.6.58-.75.96-.42 1.07.6 2.26 1.73 2.45 1.13.19 2.25-.29 3.3-.76l26.13-11.82c3.87-1.75 7.87-3.54 12.12-3.72 1.81-.08 4.12.61 4.25 2.42.05.66-.24 1.29-.58 1.85-2.15 3.52-6.69 5.13-8.58 8.79-.46.88-.61 2.2.26 2.66.38.2.84.17 1.26.08 2.77-.58 4.72-2.96 6.74-4.95 2.01-1.99 4.82-3.82 7.51-2.91 2.39.81 3.64 3.63 3.38 6.14-.25 2.51-1.68 4.74-3.22 6.74-8.31 10.74-21.56 18.21-25.61 31.17-.7 2.24-.78 5.25 1.3 6.32.94.48 2.07.39 3.1.14 3.56-.88 6.41-3.51 8.89-6.22 9.43-10.29 16.27-23.34 28.08-30.77 6.39-4.02 14.33-6.53 18.16-13.03 2.09-3.54 2.61-7.86 2.01-11.92-1.27-8.71-7.76-16.45-16.12-19.2-9.93-3.28-23.21-.87-33.33.92a176.34 176.34 0 00-39.69 11.94z"/><path class="st14" d="M268.84 461.55c-3.61 3.97-2.32 16.94-.1 21.82 5.74 12.63 19.22 22.88 28.78 32.93 3.12 3.28 6.47 6.7 10.85 7.85 6.47 1.7 13.01-2.01 18.67-5.58 9.1-5.72 18.21-11.47 26.61-18.18 5.97-4.77 11.93-10.74 12.69-18.35.36-3.64-.54-7.31-1.92-10.69-2.88-7.05-7.79-13.04-12.63-18.91-5.79-7.03-11.63-14.1-18.6-19.96-1.73-1.45-3.58-2.86-5.75-3.51-2.02-.61-4.18-.52-6.27-.28-9.24 1.04-18.08 4.97-25.17 10.96-3.4 2.85-17.3 11.05-27.16 21.9z"/><path class="st371" d="M351.75 452.37c-5.79-7.03-11.63-14.1-18.6-19.96-1.73-1.45-3.58-2.86-5.75-3.51-2.02-.61-4.18-.52-6.27-.29-3.13.35-6.21 1.04-9.2 2.03.85.57 1.66 1.21 2.44 1.87 6.97 5.86 12.81 12.93 18.6 19.96 4.84 5.87 9.75 11.87 12.63 18.91 1.39 3.39 2.29 7.05 1.92 10.69-.76 7.61-6.72 13.58-12.69 18.35-8.39 6.71-17.51 12.45-26.61 18.18-1.61 1.01-3.28 2.03-5.01 2.94 1.56 1.13 3.24 2.04 5.11 2.54 6.47 1.7 13.01-2.01 18.67-5.58 9.1-5.72 18.21-11.47 26.61-18.18 5.97-4.78 11.93-10.74 12.69-18.35.36-3.64-.54-7.31-1.92-10.69-2.87-7.04-7.78-13.04-12.62-18.91zm-78 21.99c.46 2.63 1.61 5.09 2.9 7.43 3.07 5.58 7.16 10.83 12.73 13.92 2.68 1.48 5.89 2.43 8.8 1.49 2.84-.92 4.92-3.61 5.48-6.54.56-2.93-.28-6.02-1.93-8.51-1.78-2.68-4.4-4.68-6.5-7.13-2.1-2.44-3.71-5.73-2.83-8.83.71-2.51 2.97-4.64 2.69-7.23-.22-2.04-2.1-3.63-4.11-3.99-9.42-1.7-18.72 10.94-17.23 19.39z"/></svg>