<svg version="1.1" id="Слой_1" xmlns="http://www.w3.org/2000/svg" x="0" y="0" viewBox="0 0 585 803" xml:space="preserve"><style>.st11{fill:#e8b4ef}.st14{fill:#d670e1}.st364{fill:#931ca0}.st375{fill:#ced1d4}.st376{fill:#e0dcd2}</style><path class="st11" d="M.29 441.8V331.09l2.11-.06c3.27 11.66 3.27 11.66 15.63 9.92.17-.02.34-.06.51-.09 13.01-1.58 24.91-6.28 36.7-13.61 8.08 42.19-2.4 78.49-30.15 110.09 5.74 2.86 12.68 3.42 19.78 1.68 15.74-3.85 27.38-13.93 38.2-25.23 8.2-8.57 15.32-18.02 22.37-27.59-4.41 16.64-13.45 30.73-23.98 44.21 5.03-1.69 10.82-4.1 16.93-7.56 11.16-6.34 19.13-13.82 24.42-19.7l.12-.14c1.61.23 2.41.85 2.85 1.36 1.89 2.22 1.24 7.54.11 10.78-.22.63-.72 1.95-.11 2.91.3.47.85.82 1.79 1 .79 2.09-2.56 4.12-.09 6.24 1.16 4.79.91 9.89 3.06 14.47.71 8.62 1.96 17.12 6.19 24.86-.08 4.54 1.44 8.59 3.91 12.35-.63-4.34-1.62-8.56-3.8-12.44-1.77-8.36-3.09-16.83-6.2-24.85.1-5.05-.3-10.02-2.29-14.74 20.63-9.26 33.22-25.43 40.31-46.51 3.62-10.77 7.94-21.26 15.93-30.02-2.79-1.03-5.16-1.89-7.52-2.76.41-.93 1.29-.94 2.11-1.16 15.85-4.15 31.7-8.32 47.55-12.48 3.61.42 6.52 1.99 8.5 5.12-1.73 10.39-4.66 20.47-7.37 30.62 4.19-9.78 7.81-19.71 8.11-30.55 4.58 1.1 8.33 4 12.6 5.79 12.94 5.41 25.96 8.21 39.19 1.03 3.51-1.91 6.79-4.24 7.96-8.37 1.59-5.61 3.03-11.26 4.54-16.89 5.47-2.06 8.55-5.61 7.33-11.83-.3-1.52.03-2.4 1.67-3.16 1.97-.92 3.62-2.53 5.41-3.84 5.51 2.91 11.35 4.91 17.43 6.26 13.64 3.03 27.64 3.19 41.42 5.17 17.55 2.51 32.06 9.78 42.06 25 19.85 30.22 39.85 60.34 59.74 90.54 33.8 51.34 67.52 102.72 101.37 154.03 2.03 3.08 3.34 6.84 6.85 8.82.06.83.06 1.7 1.03 2.07v37.25c-.35.35-.7.7-1.05 1.06-1.16.24-2.4.3-3.46.76-16.44 7.12-32.45 15.09-47.49 24.87-10.66 6.94-21.15 14.14-31.71 21.23-2.16-.8-3.54.71-5.08 1.71-10.6 6.89-21.18 13.8-32.02 20.33-6.09 3.67-12.68 6.61-18.07 11.41-.28.02-.54.09-.78.23-1.62.26-3.05.85-4.08 2.21-7.4 2.71-14.83 5.38-20.75 10.91-6.04 1.21-12.04 2.81-18.14 3.5-3.91.44-4.73 2-4.7 5.55.15 23.01.12 46.02.15 69.02-.66 0-1.33.01-1.99.01-1.7-1.77-3.9-1.04-5.88-1.04-125.86-.03-251.72-.02-377.58.02-1.81 0-3.83-.66-5.38.97-.46-.06-.92-.11-1.38-.17-1.03-17.36-2.03-34.72-3.13-52.08-.08-1.31.72-3.33-1.74-3.6v-75.53c2.5.43 2.01 2.41 2.05 4.06.08 3.96-.14 7.94.18 11.88 1.24 15.7 2.58 31.4 4.01 47.09.71 7.75 1.69 15.47 2.56 23.3 2.11-.41 2.19-1.9 2.52-3.16 1.45-5.47 3.06-10.91 4.24-16.43 3.07-14.38 5.82-28.8 7.49-43.46 1.78-15.56 1.04-31.01-1.85-46.11-2.91-15.23-8.21-29.99-12.18-45.03-2.49-9.41-5.14-18.79-6.16-28.56-.24-2.25.7-5.79-2.84-7.02v-92.08c3.53 1.68 3.32 5.36 4.05 8.29 3.47 13.95 6.81 27.91 9.62 42.03 3.79 19.02 6.43 38.12 7.03 57.5.05 1.75-.49 3.67 1.49 6.43.34-3.39.4-5.66.82-7.87 2.99-15.67 3.27-31.63 4.68-47.46 1.08-12.13.2-24.43.24-36.65.02-7.18-2.2-14.01-4.66-20.45-3.55-9.26-8.9-17.79-15.41-25.38-2.72-3.15-3.63-7.76-7.9-9.57zm220.29-58.94c.24-.37.49-.75.72-1.13 0-.01-.24-.16-.37-.25-.13.44-.27.88-.4 1.32-.07.15-.14.3-.21.46.08-.14.17-.27.26-.4zm-34.2 70.27c-.24.37-.48.74-.69 1.13-.01.01.23.17.36.25.14-.43.29-.86.43-1.29.24-.36.48-.73.7-1.1.01-.01-.23-.17-.35-.26-.15.42-.3.85-.45 1.27zm24.94-54.71c1.16-.88 2.55-1.67 1.42-3.52-1.71.64-1.44 2.09-1.57 3.36-.64.15-1.37.23-1.45 1.07-.02.17.39.58.56.56.82-.1.89-.83 1.04-1.47zm-31.05 70.36c1.2-.88 2.53-1.71 1.41-3.55-1.65.72-1.38 2.18-1.53 3.46-.23.37-.47.73-.68 1.11-.01.02.23.17.35.26.16-.44.31-.86.45-1.28zm-19.62 53.79c2.88-4.12 3.7-8.92 4.51-13.73-2.38 4.26-4.32 8.66-4.64 13.62-.28.58-.57 1.15-.82 1.74-.01.03.39.23.61.34.11-.65.22-1.31.34-1.97zM171 493.62c4.04-6.44 5.63-13.74 7.52-20.94-3.07 6.75-6.53 13.36-7.69 20.8-.23.37-.47.74-.67 1.12-.01.02.22.18.34.27.17-.42.34-.84.5-1.25zm27.76-70.52c-3.39 1.27-2.75 4.82-3.95 7.27-1.97 4.06-3.35 8.4-4.98 12.62.43.15.87.3 1.3.46 2.97-6.59 6.09-13.11 7.76-20.24 1.91-2.55 3.52-5.22 4.06-9.61-3.02 3.32-4.25 6.13-4.19 9.5zm-51.61 112.67c-3.2.84-4.72 3.02-5.31 6.2-1.19 6.41-2.54 12.79-3.86 19.17-.46 2.22.3 4.04 1.6 5.75 2.45 3.22 11.9 4.51 17.32 2.38 2.94-1.15 4.77-2.75 4.83-6.39.06-3.73 1.11-7.44 1.65-11.17.79-5.35 2.69-10.85-1.85-15.58-5.91-1.42-1.93-5.73-2.26-8.93-2.4.88-1.41 3.74-3.65 4.69-2.39-17.99-7.2-35.21-14.04-52.61-.38 1.13-.64 1.48-.57 1.75.41 1.66.83 3.32 1.36 4.94 4.79 14.83 9.65 29.62 11.47 45.24.33 2.85-.7 3.6-2.54 4.56-.7 0-1.4 0-2.1.01-.69-.84-1.37-.85-2.05-.01zm40.08 86.74c-3.84 5.5-6.83 11.2-11.49 15.81-17.68 17.49-39.24 29.57-59.81 42.97-21.94 14.28-44.8 27.12-64.03 45.31-9.41 8.89-17.57 18.64-25.07 29.1-2.33 3.25-2.5 5.99-1.02 9.47 4.21 9.87 9.44 19.02 17.43 26.37 3.22 2.97 6.89 5.14 11.19 6.07 7.53 1.61 10.07.24 13.16-6.95 2.19-5.1 6.13-8.67 10.69-11.48 5.58-3.44 10.84-7.08 14.77-12.5 4.23-5.81 8.11-11.82 11.68-18.05 3.52-6.14 8.2-11.48 13.69-15.71 18.6-14.33 37.88-27.83 54.26-44.82 6.16-6.38 12.92-12.37 16.09-21.11 3.51-9.65 1.9-19.42.26-29-.86-5.04.86-10.36-1.8-15.48zm162.95 4.04c-1.72 2.59-1.29 4.16-1.39 5.64-.54 7.53-1.5 14.95-3.36 22.32-4.14 16.44-10.64 32.26-12.5 49.32-1.42 12.97-.63 25.64 2.29 38.32 3.19 13.86 6.46 27.74 6.36 42.12-.02 3.43-.95 7.58.61 10.13 2.14 3.5 6.29-.4 9.58.23.17.03.34 0 .52 0 6.41-.15 6.54-.42 5.03-7.01-3.83-16.74-6.46-33.67-7.46-50.82-1.39-23.94 1.06-47.77 3.39-71.51 1.26-12.93-.74-25.14-3.07-38.74zm53.07-252.12c-1.31.19-1.48.91-1.62 1.56-4.71 23.25-6.01 46.87-7.21 70.45-.77 15.26.03 30.59-1.13 45.88-.62 8.21.41 16.46-.92 24.71-.77 4.76-.14 9.75-.14 14.64 2.9-5.06 4.75-10.32 6.78-15.5 4.55-11.6 10.58-22.84 13.47-34.83 4.53-18.86 3.09-38.14-.77-57.18-1.93-9.54-3.43-19.17-5.07-28.77-1.17-6.98-2.26-13.98-3.39-20.96zm-111.76 2.78c-.38-1.84-1.62-1.82-2.48-1.41-4.64 2.19-9.15 4.56-12.46 8.75-5.44 6.88-9.02 14.92-13.75 22.14-6.15 9.39-14.39 17.4-22.47 25.37-14.34 14.15-29.65 27.14-46.72 38.98 2.86 1.06 5.22 1.37 7.05.11 4.66-3.2 9.9-5.48 14.06-9.49 10.86-10.47 22.37-20.19 33.82-30 7.41-6.35 15-12.82 19.03-22.05 5.55-12.72 11.91-24.73 23.92-32.4zm99.52 220.99c-1.29 35.37 1.24 70.52 5.3 105.6 1.46-3.05 1.18-6.17.63-9.3-.53-3.03-1.4-6.05-1.54-9.1-1.14-24.16-2.12-48.33-3.22-72.49-.22-4.91-.77-9.81-1.17-14.71zM184.74 457.23c-1.46 1.55-2.4 3.27-1.9 6.16 1.67-2.24 2.21-4.06 1.9-6.16zm39.93-81.43c-.07-.29-.09-1.09-.32-1.16-.81-.23-1.02.59-1.18 1.13-.11.38.02 1.17.23 1.25.82.29 1.06-.38 1.27-1.22zm-55.33 126.44c-.75-1.04-1-1.39-1.25-1.73-.39.49-.9.94-1.12 1.5-.1.25.47 1.07.56 1.05.62-.18 1.2-.52 1.81-.82zm35.22-92.89c-.02.25-.04.5-.07.74.1-.12.26-.22.27-.35.02-.12-.12-.25-.2-.39zm-35.17 87.93c-.02.26-.05.51-.07.77.1-.12.26-.23.27-.36.02-.13-.12-.27-.2-.41zm-3.09 8.3c-.02.25-.04.49-.07.74.1-.11.26-.22.27-.34.01-.13-.13-.27-.2-.4zm-85.94-74.85c-.05.1-.11.2-.16.3.21 0 .42.01.64.01-.05-.1-.08-.24-.16-.29-.08-.06-.21-.02-.32-.02z"/><path class="st14" d="M.29 567c3.54 1.24 2.61 4.78 2.84 7.02 1.03 9.77 3.68 19.15 6.16 28.56 3.97 15.04 9.27 29.8 12.18 45.03 2.89 15.1 3.63 30.56 1.85 46.11-1.68 14.66-4.42 29.08-7.49 43.46-1.18 5.53-2.79 10.96-4.24 16.43-.33 1.26-.41 2.75-2.52 3.16-.87-7.82-1.85-15.55-2.56-23.29-1.42-15.68-2.75-31.38-4-47.08-.31-3.94-.1-7.92-.18-11.88-.03-1.65.45-3.62-2.05-4.06.01-34.49.01-68.98.01-103.46zm0-125.2c4.27 1.8 5.18 6.42 7.87 9.56 6.51 7.59 11.87 16.12 15.41 25.38 2.46 6.44 4.68 13.27 4.66 20.45-.04 12.22.84 24.52-.24 36.65-1.41 15.82-1.69 31.78-4.68 47.46-.42 2.21-.48 4.48-.82 7.87-1.98-2.77-1.43-4.68-1.49-6.43-.6-19.38-3.25-38.48-7.03-57.5-2.81-14.11-6.16-28.08-9.62-42.03-.73-2.94-.52-6.61-4.05-8.29-.01-11.05-.01-22.08-.01-33.12z"/><path d="M5.15 801.67c-1.62.06-3.24.13-4.86.19v-55.87c2.46.28 1.65 2.29 1.74 3.6 1.09 17.36 2.09 34.72 3.12 52.08z" fill="#8d9396"/><path class="st364" d="M2.4 331.03c2.92-4.66 8.14-4.29 12.53-5.73 3.23-.45 6.47-.77 9.67-1.38 6.24-1.19 12.31-2.85 16.7-7.96 3.99-1.34 6.26-4.66 8.67-7.73 8.95-11.39 12.28-24.73 13.5-38.85 1.03-11.84.61-23.71.93-35.56.97-36.25 9.84-70.6 25.3-103.32.45-.95.87-1.88 1.94-2.27-.41 6.83-.91 13.65-1.21 20.49-.19 4.43-.56 8.93.98 13.22 1.53 4.27 3.97 7.58 9.12 7.55-2.33 1.63.03 3.58-.34 5.49-1.88 9.58-2.4 19.29-1.68 29.05.89 12.07 4.09 23.58 8.54 34.75 2.71 6.83 3.47 12.83-1.48 19.47-3.74 5.02-4.65 11.9-4.23 18.22.86 13.16 9.86 22.29 17.04 32.27-.34-6.39-3.96-11.53-6.23-17.15-3.32-8.24-6.07-16.53-3.05-25.39.96-2.83 1.87-6.99 4.62-7.6 2.45-.55 3.37 3.68 4.72 5.88 2.52 4.11 3.62 2.97 5.54-.55 1.57-2.9 2.08-7.33 6.94-7.25-.79 1.52-1.52 3.08-2.39 4.55-7.22 12.26-7.39 24.34.63 36.38 5.92 8.87 12.03 17.57 18.86 25.79 8.01 9.64 16.87 18.08 29.04 22.25 2.36.87 4.73 1.74 7.52 2.76-7.99 8.76-12.31 19.25-15.93 30.02-7.08 21.08-19.68 37.24-40.31 46.51-.36-.06-.65.05-.87.35-2.46-2.12.88-4.15.09-6.24 2.92-8.93 3.47-18 1.7-27.29-1.71 4.05-4.18 7.56-6.34 11.24l-.12.14c-3 3.21-6 6.42-8.99 9.63-9.88 7.43-20.47 13.55-32.36 17.64 10.53-13.47 19.57-27.57 23.98-44.21-7.05 9.57-14.17 19.02-22.37 27.59-10.82 11.31-22.46 21.38-38.2 25.23-7.11 1.74-14.05 1.18-19.78-1.68 27.75-31.6 38.23-67.89 30.15-110.09-11.79 7.33-23.69 12.03-36.7 13.61-.17.02-.34.06-.51.09-12.35 1.74-12.35 1.74-15.62-9.92zm58.48-26.41c5.95-4.83 9.18-11.62 11.44-18.36 4.02-12.03 5.57-24.74 5.39-37.42-.2-13.95 1.49-27.81 1.21-41.74-.02-1.18.37-2.36.57-3.54 1.12-6.42 2.23-12.85 3.45-19.85-1.92 1.6-2.68 3.05-3.24 4.73-2.44 7.38-3.77 14.95-3.91 22.7-.25 14.04 1.84 28 .21 42.16-1.52 13.25-4.73 25.79-9.52 38.13-1.71 4.46-4.99 8.25-5.6 13.19zm-.86 94.34c3.26-.15 4.42-1.84 5.16-3.42 2.18-4.63 4.51-9.18 5.52-14.33 1.08-5.5 1.02-11.22 3.72-16.45 6.47-12.5 9.62-25.68 6.45-39.75-1.29-5.73-2.3-11.62-5.78-17.7-.81 4.87 1.26 8.06 2.3 11.42 3.87 12.51 4.09 24.54-3.76 35.84-3.09 4.45-4.6 9.71-4.93 14.99-.66 10.24-2.4 20.05-8.68 29.4zm37.63-77.51c-1.95 3.65.9 6.71.98 10.23.2 8.34-1.22 16.35-3.35 24.33-1.54 5.78-3.53 11.46-3.96 17.49-.07.97-.23 2.25 1.09 2.52.46.1 1.29-.48 1.61-.98 2.1-3.32 4.57-6.51 6.05-10.1 6.1-14.78.89-29.11-2.42-43.49zm26.9 51.01c8.81-8.34 9.34-34.4.34-43.85 5.29 15.52.88 29.61-.34 43.85z"/><path class="st11" d="M329.12 262.28c.77 4.69 1.77 9.26-1.3 13.76-1.83 2.68-3.61 4.9-6.92 5.47-12.13.19-23.19-6.12-35.31-5.31 2.49 1.83 4.15 5.61 8.02 5.88 3.89.27 6.56 1.97 9.37 4.48 2.58 2.31 6.11 4.3 7.68-1.43.49-1.78 2.01-1.6 3.37-1.62 2.23-.02 4.47.01 6.7.02-2.46 2.99-2.13 7.09-4.08 10.29-2.85.62-5.8 2.06-8.52 1.72-14.76-1.84-26.45 8.67-41.82 9.15 10.22 7.99 18.59 16.55 31.88 14.04.66-.12 1.37.01 2.06.03-1.5 5.63-2.94 11.28-4.54 16.89-1.17 4.13-4.45 6.46-7.96 8.37-13.24 7.18-26.26 4.38-39.19-1.03-4.27-1.78-8.02-4.68-12.6-5.79a18.5 18.5 0 00-.74-.07c-1.98-3.13-4.89-4.71-8.5-5.12-.05-1.58-1.04-2.39-2.3-3.14-9.27-5.56-17.73-12.16-26.06-19.05-10.88-9.01-21-18.65-29.6-29.89-2.11-2.76-3.03-5.68-3.03-9.04.01-7.74-.07-15.49.03-23.23.05-3.84-1.53-7-3.19-10.48-1.82 1.88-2.38 3.87-3.16 5.77-1.1 2.65-2.61 4.91-6.07 4.36-.28-.96-.51-1.94-.84-2.89-.4-1.15.12-3.07-1.85-3.03-1.62.03-1.93 1.65-2.32 2.91-.19.63-.15 1.33-.22 1.99-3.05-.25-4.37-3.49-7.16-4.19-9.09-7.18-13.88-17.32-18.75-27.39 3.42-5.65 6.85-11.31 10.27-16.96 4.03-.23 4.75-3.72 6.33-6.38 2.12.16 3.84-.66 5.32-2.11 6.42 1.32 11.29 5.76 17.04 8.44 4.86 4.58 10.65 8.1 15.08 13.16-1.64 1.32-.97 2.5-.04 3.98 4.86 7.7 10.45 14.84 17.04 21.07 13.88 13.11 26.4 27.41 38.1 42.47 5.58 7.18 13.65 9.32 22 6.07 1.08-.42 2.65-.53 2.75-1.94.1-1.44-2.05-.98-2.5-2.19 4.06-.67 8.11-1.39 12.18-2.01 19.58-3.01 37.33-9.36 49.15-26.7.76-1.11 1.9-1.97 2.9-2.92 2.75-2.63 4.72-3.36 6.36 1.33 1.47 4.14 2.19 8.64 4.94 12.26zm-187.99-63.55c-1.74 2.02-3.99 4.06-6.48 5.94-3.31 2.49-2.72 7.08 1.12 8.14 4.08 1.13 6.87 3.68 9.72 6.42.8.77 1.53 2.24 2.93 1.5 1.28-.68.83-2.17.7-3.3-.77-7.02-1.71-14-7.99-18.7zm.46 32.41c-1.59-6.18-5.42-9.43-10.82-9.8 2.4 4.28 6.38 6.48 10.82 9.8z"/><path class="st364" d="M573.22 801.67c-28.67.07-57.34.15-86.01.2-7.9.01-15.79-.08-23.69-.12-5.52-8.94-11.05-17.87-16.57-26.81l-19.23-56.73c5.98-2.59 11.97-5.18 17.95-7.77 18.39-11.15 36.78-22.3 55.18-33.45-.2 2.61.36 5.01 1.17 7.54 2.41 7.53 7.49 13.5 12.13 19.41 8.32 10.6 15.19 22.04 22.61 33.2 9.95 14.97 18.45 30.75 27.44 46.26 3.38 5.83 7.55 11.43 9.02 18.27z"/><path class="st14" d="M187.23 622.51c2.66 5.12.94 10.44 1.8 15.49 1.64 9.58 3.24 19.35-.26 29-3.17 8.74-9.94 14.73-16.09 21.11-16.38 16.99-35.66 30.49-54.26 44.82a53.337 53.337 0 00-13.69 15.71c-3.57 6.23-7.45 12.23-11.68 18.05-3.94 5.41-9.2 9.06-14.77 12.5-4.56 2.81-8.49 6.38-10.69 11.48-3.09 7.19-5.63 8.56-13.16 6.95-4.3-.92-7.97-3.1-11.19-6.07-7.99-7.35-13.22-16.5-17.43-26.37-1.48-3.48-1.31-6.23 1.02-9.47 7.5-10.46 15.67-20.2 25.07-29.1 19.23-18.19 42.09-31.03 64.03-45.31 20.57-13.39 42.12-25.48 59.81-42.97 4.66-4.62 7.65-10.32 11.49-15.82zm-33.88-375.2c3.45.55 4.97-1.71 6.07-4.36.78-1.9 1.34-3.88 3.16-5.77 1.66 3.48 3.24 6.64 3.19 10.48-.11 7.74-.02 15.48-.03 23.23 0 3.36.91 6.27 3.03 9.04 8.6 11.24 18.72 20.88 29.6 29.89 8.33 6.89 16.79 13.5 26.06 19.05 1.26.75 2.25 1.57 2.3 3.14-15.85 4.16-31.7 8.33-47.55 12.48-.82.22-1.7.23-2.11 1.16-12.17-4.17-21.03-12.6-29.04-22.25-6.82-8.22-12.94-16.92-18.86-25.79-8.03-12.04-7.86-24.12-.63-36.38.87-1.47 1.59-3.03 2.38-4.55 3.42-4.81 7.39-9.24 10.05-14.57 2.79.7 4.11 3.93 7.16 4.19-.19 6.65.65 13.33-.87 19.96-.35 1.54-1.08 4.16 1.73 4.57 2.6.38 2.31-2.13 2.63-3.6.7-3.15 1.09-6.37 1.6-9.56 0-1.74.01-3.49.01-5.23.05-1.71.09-3.42.12-5.13zm196.83 379.24c2.34 13.6 4.34 25.81 3.06 38.74-2.34 23.74-4.79 47.57-3.39 71.51 1 17.15 3.63 34.08 7.46 50.82 1.51 6.59 1.37 6.86-5.03 7.01-.17 0-.35.03-.52 0-3.28-.63-7.43 3.27-9.58-.23-1.56-2.55-.63-6.69-.61-10.13.1-14.38-3.16-28.26-6.36-42.12-2.92-12.68-3.71-25.36-2.29-38.32 1.86-17.06 8.36-32.88 12.5-49.32 1.86-7.37 2.82-14.79 3.36-22.32.11-1.48-.32-3.06 1.4-5.64zm53.07-252.12c1.13 6.98 2.22 13.98 3.41 20.96 1.63 9.6 3.14 19.23 5.07 28.77 3.85 19.04 5.3 38.31.77 57.18-2.88 12-8.92 23.23-13.47 34.83-2.03 5.19-3.87 10.45-6.78 15.5 0-4.89-.63-9.87.14-14.64 1.33-8.25.29-16.5.92-24.71 1.16-15.28.36-30.61 1.13-45.88 1.19-23.59 2.5-47.21 7.21-70.45.12-.64.29-1.37 1.6-1.56z"/><path class="st364" d="M300.25 318.76c-.69-.02-1.4-.15-2.06-.03-13.29 2.51-21.65-6.05-31.88-14.04 15.37-.48 27.06-11 41.82-9.15 2.73.34 5.68-1.1 8.52-1.72.63 2.46-1.96 3.88-2 6.12-1.79 1.31-3.44 2.92-5.41 3.83-1.64.76-1.97 1.64-1.67 3.16 1.23 6.22-1.85 9.77-7.32 11.83z"/><path class="st14" d="M291.49 377.21c-12.01 7.67-18.37 19.68-23.92 32.39-4.03 9.23-11.62 15.7-19.03 22.05-11.45 9.81-22.96 19.54-33.82 30-4.16 4.01-9.4 6.29-14.06 9.49-1.83 1.26-4.19.95-7.05-.11 17.07-11.85 32.38-24.83 46.72-38.98 8.08-7.97 16.32-15.98 22.47-25.37 4.73-7.22 8.31-15.26 13.75-22.14 3.31-4.19 7.82-6.55 12.46-8.75.86-.4 2.1-.42 2.48 1.42z"/><path class="st375" d="M395.37 801.88c-129.61-.01-259.22-.03-388.83-.04 1.55-1.63 3.57-.97 5.38-.97 125.86-.04 251.72-.05 377.58-.02 1.97 0 4.17-.74 5.87 1.03z"/><path class="st14" d="M161.52 536.13l-10.23-.36c1.84-.97 2.87-1.72 2.54-4.56-1.82-15.62-6.68-30.41-11.47-45.24-.53-1.62-.95-3.28-1.36-4.94-.07-.27.19-.62.57-1.75 6.84 17.4 11.65 34.62 14.04 52.61 2.24-.95 1.25-3.81 3.65-4.69.33 3.2-3.64 7.51 2.26 8.93zm73.7-198.99c.25.02.49.04.74.07-.3 10.84-3.92 20.77-8.11 30.55 2.71-10.15 5.64-20.24 7.37-30.62zm-36.32 86.08c-1.66 7.12-4.79 13.65-7.76 20.24-.43-.15-.87-.3-1.3-.46 1.63-4.22 3.01-8.56 4.98-12.62 1.19-2.46.56-6.01 3.95-7.27l.13.11zm-62.17 41.41c-4.23-7.75-5.48-16.24-6.19-24.86l.1-.08c3.11 8.02 4.43 16.49 6.2 24.85l-.11.09zm34.11 28.85c1.16-7.45 4.62-14.05 7.69-20.8-1.9 7.2-3.48 14.5-7.52 20.94l-.17-.14zm-10.32 28.99c.32-4.96 2.26-9.36 4.64-13.62-.81 4.81-1.63 9.61-4.51 13.73l-.13-.11z"/><path class="st14" d="M136.84 464.53c2.18 3.88 3.17 8.11 3.8 12.44-2.47-3.76-3.99-7.81-3.91-12.35 0 .01.11-.09.11-.09zm61.92-41.43c-.06-3.37 1.17-6.18 4.2-9.49-.54 4.38-2.16 7.05-4.06 9.61l-.14-.12zm-14.02 34.13c.3 2.1-.23 3.93-1.9 6.16-.49-2.89.45-4.61 1.9-6.16zm39.93-81.43c-.21.84-.45 1.52-1.27 1.22-.21-.08-.34-.87-.23-1.25.16-.54.37-1.35 1.18-1.13.23.06.25.86.32 1.16zm-44.52 92.88c.15-1.28-.12-2.74 1.53-3.46 1.13 1.85-.21 2.67-1.41 3.55l-.12-.09zm-10.81 33.56c-.61.3-1.19.64-1.82.82-.09.03-.66-.8-.56-1.05.22-.56.73-1.01 1.12-1.5.25.34.5.69 1.26 1.73zm41.98-103.82c-.15.64-.22 1.37-1.05 1.47-.17.02-.58-.38-.56-.56.09-.83.81-.92 1.45-1.07l.16.16z"/><path class="st376" d="M160.65 522.57c-.11.66-.23 1.32-.34 1.98-.21-.12-.62-.32-.61-.34.24-.59.54-1.17.82-1.74l.13.1z"/><path class="st375" d="M186.48 453.22c-.14.43-.29.86-.43 1.29-.13-.09-.37-.24-.36-.25.21-.38.45-.75.69-1.13l.1.09z"/><path class="st376" d="M204.57 409.35c.07.13.21.27.2.39-.01.12-.17.23-.27.35.02-.24.04-.49.07-.74z"/><path class="st14" d="M186.38 453.13c.15-.43.3-.85.45-1.28.12.09.36.25.35.26-.22.38-.46.74-.7 1.1 0 .01-.1-.08-.1-.08z"/><path class="st376" d="M180.27 468.78l-.45 1.26c-.12-.09-.36-.24-.35-.26.21-.38.45-.74.68-1.11 0 .01.12.11.12.11zM171 493.62c-.16.42-.33.83-.49 1.25-.12-.09-.35-.25-.34-.27.21-.38.44-.75.67-1.12l.16.14zm-1.61 3.66c.08.14.22.28.21.41-.01.13-.18.24-.27.36l.06-.77zm-3.09 8.3c.07.13.21.27.2.39-.01.12-.17.23-.27.34.02-.24.04-.49.07-.73zm-17.11 30.2c-.68 0-1.36 0-2.04-.01.68-.84 1.36-.83 2.04.01z"/><path class="st375" d="M220.52 382.8c.13-.44.27-.88.4-1.32.13.09.37.24.37.25-.23.38-.47.76-.72 1.13l-.05-.06z"/><path d="M80.36 430.73c.11 0 .24-.04.31.01.08.06.11.19.16.29-.21 0-.42-.01-.64-.01.06-.09.12-.19.17-.29z" fill="#543f31"/><path class="st375" d="M220.58 382.86c-.09.13-.18.27-.27.4.07-.15.14-.3.21-.46l.06.06z"/><path class="st11" d="M100.54 169.5c-5.15.03-7.58-3.28-9.12-7.55-1.54-4.29-1.18-8.79-.98-13.22.3-6.83.8-13.66 1.21-20.49 2.34-25.79 3.52-51.48-6.42-76.25-2.5-6.23-3.04-12.66-1.27-19.22 1.25-4.61 3.98-6.61 8.81-5.49 1.83.42 3.73.63 5.61.68 7.87.22 8 .22 10-7.34.77-2.9 2.3-4.34 5.12-4.99 20.1-4.63 40.36-8.4 60.9-10.48 15.74-1.59 31.47-2.87 47.32-3.14 34.62-.57 63.3 12.34 86.94 37.18 8.69 9.13 15.84 19.45 22.68 30 .82 1.27.36 1.85-.95 2.09-8.25-7.12-18.15-7.72-28.18-6.51-28.83 3.5-53.89 15.79-76.33 33.81-19.68 15.8-36.1 34.86-53.01 53.42-1.45 1.59-2.37 3.88-4.85 4.36-1.32-.79-2.72-.78-3.82.21-3.31 2.96-7.44 4.73-10.59 8.03-4.21 4.41-8.32 8.98-13.95 11.88-11.14 5.72-18.37 15.06-23.44 26.28-4.97-10.27-8.21-21.12-10.73-32.21-.43-1.9-.53-4.16-3.54-3.29 2.52-4.05 4.88-8.22 7.6-12.13 10.78-15.48 22.31-30.31 35.36-44.04 10.31-10.85 20.93-21.25 33.29-29.61 15.73-10.64 31.86-20.72 46.95-32.26 5.08-3.88 11.13-6.64 15.11-11.93.64-.12 1.37-.16 1.48-.99.02-.17-.38-.57-.55-.55-.83.1-.89.83-1 1.47-1.73.73-3.63 1.2-5.17 2.22-16 10.55-31.93 21.21-47.9 31.8-14.3 9.48-28.64 18.91-42.95 28.38-9.86 6.52-19.75 12.98-26.81 22.82-9.63 13.42-16.22 27.85-15.51 44.84.39 1.22-1.16 1.32-1.31 2.22zm-3.91-55.45c1.51-.26 1.7-1.09 1.86-1.95 1.66-8.63 2.75-17.36 1.95-26.11-.99-10.91.11-21.37 4.43-31.46 2.92-6.82 3.22-14.01 2.97-21.27-.05-1.41-.15-2.62-1.9-3.19-7.72-2.5-13.7.84-15.8 8.71-2.46 9.25-.08 18.03 2.17 26.86 2.79 10.95 6.88 21.69 6.15 33.26-.32 5.04-1.19 10.02-1.83 15.15zm9.25-25.72c1.51-5.2 3.17-9.39 6.97-11.96 3.91-2.64 6.94-6.16 10.24-9.42 2.04-2.01 5.32-4.73 4.54-6.91-1.01-2.8-4.42.47-6.9.02-7.61-1.37-13.44.18-14.2 9.39-.06.76-.94 1.43-1.29 2.21-2.34 5.27-2.05 10.48.64 16.67zm-10.02 30c.09-.29.15-.47.21-.65-.12.03-.25.07-.37.1.04.14.08.28.16.55zm254.93 12.37c1.03 15.7 2.07 31.41 3.1 47.11-4.27 5.02-8.67 9.91-11.91 15.73-1.14 2.05-1.76 3.66.61 5.12-.73.4-1.43.86-2.19 1.19-11.92 5.21-19.58 16.85-19.61 29.17-.01 3.44 1.02 5.12 4.45 5.2-4.2 1.79-8.46 1.21-12.6.02-6.5-1.86-12.85-1.42-19.33.09-12.2 2.85-24.46 5.42-36.66 8.28-3.9.91-7.19.08-10.02-2.49-6.16-5.59-13.32-9.66-20.4-13.89-12.8-7.66-25.95-14.75-38.23-23.28 4.43-2.09 8.11-5.43 13.1-6.69 11.41-2.9 20.74-9.27 28.92-17.78 8.16-8.5 15.2-18.21 25.41-24.65 2.44-1.54 4.57-3.62 6.64-5.66 1.83-1.81 2.14-3.84-.29-5.58 3.11-1.45 6.21-2.89 9.32-4.34 13.4-6.28 26.59-12.86 42.24-11.21 5.93.63 10.25-3.37 13.03-8.6 1.86-3.49 3.59-7.05 5.46-10.53.99-1.84 1.99-2.8 4.39-1.23 8.23 5.39 14.18 12 13.86 22.56.16.4.32.79.49 1.19l.22.27zm-107.85 70.55c20.86 1.17 41.01 5.22 60.99 10.39 1.68.43 3.44-.03 4.99-.89 1.2-.67 2.61-1.42 2.72-2.88.14-1.84-1.71-1.85-2.89-2.32-8.65-3.41-17.72-5.42-26.58-8.13-13.76-4.21-26.22 1.49-39.23 3.83z"/><path class="st364" d="M350.09 129.24c.31-10.56-5.63-17.17-13.86-22.56-2.41-1.58-3.41-.62-4.39 1.23-1.87 3.48-3.61 7.04-5.46 10.53-2.78 5.23-7.1 9.23-13.03 8.6-15.65-1.65-28.84 4.93-42.24 11.21-3.1 1.45-6.21 2.89-9.32 4.34-12.89 5.2-25.69 10.62-38.13 16.84-1.27.63-2.36 1.56-2.78 2.92-1.71 5.65-6.37 8.81-10.44 12.44-9.54 8.52-20.36 15.1-31.75 20.81-5.87.41-12.26-3.47-17.51 2.1-5.75-2.68-10.62-7.12-17.04-8.44.37-1.31.75-2.62 1.12-3.94l-.15-.01c.86.13 1.04-.46 1.15-1.1l-.05.12c1.51-1.07 2.47-2.54 3.16-4.22l-.09.06 3.21-4.23c.97-.47 1.56-1.25 1.86-2.27.81-.37 1.16-1.04 1.22-1.89l-.13.11c.38-.38.75-.76 1.13-1.15 4.05-4.61 8.79-8.66 11.45-14.38 2.49-.47 3.4-2.76 4.85-4.36 16.91-18.56 33.33-37.62 53.01-53.42 22.44-18.02 47.5-30.31 76.33-33.81 10.03-1.22 19.93-.61 28.18 6.51 4.47 5.17 9.02 10.27 13.4 15.52 5.87 7.01 10.62 14.77 14.58 22.99 4.69 9.72 2.28 16.18-7.57 20.92l-.21-.27c-.17-.41-.34-.81-.5-1.2zm-126.43-10.25c-2.96.7-5.44 2.41-7.16 4.74-3.3 4.46-7.84 7.58-11.64 11.49-9.59 9.85-19.27 19.62-30.49 27.69-1.03.74-1.83 1.82-.76 3.03.86.97 1.91.43 2.74-.25 4.24-3.49 8.67-6.77 12.62-10.56 7.9-7.58 15.7-15.27 23.19-23.25 3.94-4.18 9.08-7.34 11.5-12.89 4.83-1.08 7.27-5.59 11.25-7.9.62-.36.93-1.1.52-1.77-.43-.69-1.34-.72-1.84-.31-3.61 3.03-8.39 4.9-9.93 9.98zm-.54 25.86c18.34-4.45 27.8-20.37 41.35-31.05-16.54 6.74-26.64 21.85-41.35 31.05zm100.63-64.49c9.86 3.63 12.21 17.54 24.67 17.61-8.87-4.98-13.54-15.7-24.67-17.61zm-86.49 27.72c2.13.18 3.5-.21 4.83-1.81-2.31-.93-3.55-.21-4.83 1.81z"/><path class="st364" d="M161.18 197.71c5.26-5.56 11.64-1.69 17.51-2.1 2.43 3.31 5.63 5.64 9.32 7.34 12.28 8.53 25.43 15.62 38.23 23.28 7.08 4.24 14.24 8.31 20.4 13.89 2.83 2.57 6.13 3.4 10.02 2.49 12.2-2.86 24.46-5.43 36.66-8.28 6.47-1.51 12.83-1.95 19.33-.09 4.14 1.18 8.41 1.77 12.6-.02l-.15-.08c1.1.2 1.74-.37 2.18-1.29 4.15-.78 6.36-4.72 10.08-6.21 5.63-2 11.24-4.07 16.9-5.97 2.2-.74 2.82-1.45 1.1-3.45-4.01-4.66-7.87-9.45-11.79-14.19.19-1.1.39-2.19.58-3.29 2.4-4.61 5.26-8.89 8.94-12.59 7.94 7.37 15.85 14.76 23.85 22.07 1.64 1.5 2.85 3.71 6.07 2.4 1.99-.81 2.56 1.79 2.83 3.4.66 3.95-.78 7.45-2.79 10.74-9.83 16.06-23.71 26.96-41.65 32.66-4.08 1.3-8.17 2.58-12.26 3.87-2.75-3.63-3.47-8.12-4.93-12.25-1.65-4.68-3.61-3.96-6.36-1.33-.99.95-2.14 1.8-2.9 2.92-11.82 17.33-29.56 23.69-49.15 26.7-4.07.62-8.12 1.34-12.18 2.01-3.44-.16-6.86-.48-10.1-1.76-2.65-1.05-5.8-2.65-5.88-5.31-.26-9.17-6.63-13.89-12.61-18.99-6.42-5.46-12.89-10.86-19.17-16.5-9.46-8.51-18.12-17.91-28.21-25.73-.51-.37-1.03-.73-1.54-1.1l.16-.08c-4.45-5.07-10.23-8.58-15.09-13.16zm135.72 45.43c-3.59.09-8.01.44-12.46.84-15.53 1.42-24.11 11.13-28.03 25.23-1.34 4.82.66 5.96 4.66 6.02 2.05.03 4.07-.13 6.14-.46 9.29-1.52 17.44-5.82 25.43-10.38 6.59-3.77 12.27-8.72 16.05-15.51 2.36-4.23 1.72-5.42-3.18-5.7-2.58-.17-5.17-.04-8.61-.04zm33.24 5.58c0 7.31.73 8.01 7.1 6.35 8.82-2.3 17.36-5.31 24.84-10.78 5.41-3.96 10.79-7.91 13.06-14.65.62-1.83 1.1-3.79-.17-5.42-.95-1.22-2.56-.83-3.86-.41-12.43 4.07-24.45 9.16-35.67 15.88-3.28 1.98-6.66 4.68-5.3 9.03z"/><path class="st14" d="M320.73 283.53c-2.23-.01-4.47-.04-6.7-.02-1.36.01-2.88-.16-3.37 1.62-1.58 5.73-5.11 3.74-7.68 1.43-2.8-2.51-5.48-4.21-9.37-4.48-3.87-.26-5.53-4.04-8.02-5.88 12.12-.8 23.17 5.51 35.31 5.31-.06.67-.11 1.35-.17 2.02z"/><path class="st364" d="M353.08 187.15c-3.67 3.71-6.54 7.98-8.94 12.59-.52-.36-1.03-.72-1.55-1.07-2.37-1.46-1.74-3.08-.61-5.12 3.23-5.82 7.64-10.71 11.91-15.73 2.35 3.33-1.09 6.17-.81 9.33z"/><path class="st14" d="M100.54 169.5c.15-.9 1.7-1 1.29-2.23l.11-.01c3.01-.86 3.1 1.39 3.54 3.29 2.52 11.09 5.76 21.94 10.73 32.21.33 1.55.87 3 1.98 4.18.86 2.85 2.38 5.35 4.04 7.78 4.87 10.08 9.66 20.21 18.75 27.39-2.66 5.34-6.63 9.77-10.05 14.57-4.86-.07-5.37 4.35-6.94 7.25-1.91 3.52-3.02 4.66-5.54.55-1.35-2.21-2.27-6.43-4.72-5.88-2.75.61-3.66 4.77-4.62 7.6-3.02 8.86-.27 17.15 3.05 25.39 2.27 5.62 5.88 10.77 6.23 17.15-7.19-9.98-16.18-19.1-17.04-32.27-.41-6.32.49-13.2 4.23-18.22 4.95-6.64 4.19-12.64 1.48-19.47-4.44-11.17-7.64-22.68-8.54-34.75-.72-9.76-.2-19.47 1.68-29.05.37-1.9-1.99-3.85.34-5.48zM60.88 304.62c.6-4.94 3.89-8.74 5.62-13.19 4.79-12.34 8-24.88 9.52-38.13 1.63-14.16-.46-28.12-.21-42.16.14-7.75 1.47-15.32 3.91-22.7.56-1.68 1.31-3.12 3.24-4.73-1.22 7-2.33 13.42-3.45 19.85-.2 1.18-.6 2.36-.57 3.54.28 13.93-1.41 27.79-1.21 41.74.18 12.68-1.37 25.39-5.39 37.42-2.27 6.75-5.51 13.53-11.46 18.36zm-.86 94.34c6.28-9.34 8.02-19.15 8.67-29.39.33-5.28 1.84-10.55 4.93-14.99 7.85-11.31 7.63-23.33 3.76-35.84-1.04-3.37-3.1-6.55-2.3-11.42 3.48 6.08 4.49 11.97 5.78 17.7 3.17 14.08.02 27.25-6.45 39.75-2.7 5.23-2.64 10.95-3.72 16.45-1.01 5.15-3.34 9.7-5.52 14.33-.73 1.57-1.89 3.26-5.15 3.41zm37.63-77.51c3.31 14.38 8.52 28.7 2.43 43.49-1.48 3.59-3.96 6.78-6.05 10.1-.31.49-1.15 1.07-1.61.98-1.33-.28-1.16-1.56-1.09-2.52.42-6.03 2.41-11.71 3.96-17.49 2.13-7.98 3.55-15.99 3.35-24.33-.09-3.52-2.94-6.58-.99-10.23zm26.9 51.01c1.22-14.25 5.63-28.33.34-43.85 9 9.45 8.47 35.51-.34 43.85zm53.09-160.41c10.09 7.82 18.75 17.21 28.21 25.73 6.28 5.65 12.75 11.04 19.17 16.5 5.98 5.09 12.35 9.82 12.61 18.99.08 2.66 3.23 4.26 5.88 5.31 3.25 1.28 6.66 1.6 10.1 1.76.45 1.21 2.6.75 2.5 2.19-.09 1.41-1.67 1.52-2.75 1.94-8.36 3.25-16.42 1.11-22-6.07-11.7-15.06-24.22-29.36-38.1-42.47-6.59-6.23-12.18-13.37-17.04-21.07-.93-1.48-1.6-2.66.04-3.98l-.16.08c.51.35 1.03.72 1.54 1.09zm-36.51-13.32c6.28 4.69 7.22 11.68 7.99 18.7.12 1.12.57 2.62-.7 3.3-1.4.74-2.13-.73-2.93-1.5-2.85-2.74-5.64-5.29-9.72-6.42-3.84-1.06-4.43-5.65-1.12-8.14 2.49-1.87 4.74-3.92 6.48-5.94z"/><path class="st364" d="M153.35 247.31c-.04 1.71-.07 3.41-.11 5.12-2.8 1.74-2.77 3.48-.01 5.23-.51 3.19-.9 6.41-1.6 9.56-.33 1.47-.04 3.98-2.63 3.6-2.81-.42-2.08-3.03-1.73-4.57 1.51-6.63.67-13.31.87-19.96.06-.67.02-1.37.22-1.99.39-1.26.69-2.88 2.32-2.91 1.97-.04 1.45 1.88 1.85 3.03.32.95.55 1.93.82 2.89zm-3.55 17.32c-1.27 1.15-1.74 2.17-1.3 3.39.07.2 1.04.36 1.16.2.78-1 .7-2.14.14-3.59z"/><path class="st14" d="M141.59 231.14c-4.44-3.32-8.42-5.51-10.82-9.8 5.4.37 9.23 3.61 10.82 9.8z"/><path d="M452.2 709.78c-.08.13-.15.26-.23.39.07-.13.15-.27.22-.4l.01.01z" fill="#c48b75"/><path class="st14" d="M101.93 167.26l-.11.01c-.72-16.98 5.87-31.42 15.5-44.84 7.06-9.84 16.96-16.3 26.81-22.82 14.31-9.47 28.65-18.9 42.95-28.38 15.97-10.59 31.9-21.25 47.9-31.8 1.54-1.02 3.44-1.49 5.17-2.22l.07.07c-3.98 5.29-10.03 8.04-15.11 11.93-15.09 11.54-31.21 21.62-46.95 32.26-12.36 8.36-22.98 18.76-33.29 29.61-13.04 13.74-24.58 28.56-35.36 44.04-2.7 3.92-5.05 8.09-7.58 12.14zm-5.3-53.21c.64-5.13 1.51-10.12 1.83-15.14.73-11.57-3.36-22.31-6.15-33.26-2.25-8.83-4.63-17.62-2.17-26.86 2.1-7.87 8.08-11.21 15.8-8.71 1.75.57 1.85 1.78 1.9 3.19.25 7.26-.04 14.45-2.97 21.27-4.32 10.09-5.43 20.55-4.43 31.46.8 8.74-.29 17.48-1.95 26.11-.16.85-.35 1.68-1.86 1.94z"/><path class="st14" d="M105.88 88.33c-2.69-6.19-2.98-11.39-.63-16.67.35-.78 1.22-1.44 1.29-2.21.76-9.21 6.58-10.76 14.2-9.39 2.48.45 5.89-2.82 6.9-.02.78 2.18-2.5 4.89-4.54 6.91-3.3 3.25-6.33 6.77-10.24 9.42-3.81 2.57-5.47 6.75-6.98 11.96z"/><path d="M240.16 37.21c.12-.64.17-1.37 1-1.47.17-.02.57.39.55.55-.11.83-.84.87-1.48.99l-.07-.07zm-144.3 81.12c-.08-.27-.12-.41-.16-.55.12-.03.25-.07.37-.1-.06.18-.12.36-.21.65z" fill="#b4babd"/><path class="st14" d="M188.01 202.96c-3.69-1.7-6.89-4.04-9.32-7.34 11.39-5.71 22.21-12.29 31.75-20.81 4.07-3.64 8.72-6.79 10.44-12.44.41-1.36 1.51-2.29 2.78-2.92 12.44-6.22 25.24-11.64 38.13-16.84 2.43 1.73 2.13 3.77.29 5.58-2.07 2.04-4.2 4.13-6.64 5.66-10.21 6.44-17.25 16.14-25.41 24.65-8.17 8.52-17.51 14.88-28.92 17.78-4.99 1.25-8.67 4.59-13.1 6.68z"/><path class="st364" d="M242.94 201.25c13-2.34 25.46-8.04 39.22-3.84 8.86 2.71 17.93 4.72 26.58 8.13 1.19.47 3.03.48 2.89 2.32-.11 1.46-1.52 2.22-2.72 2.88-1.54.86-3.31 1.33-4.99.89-19.96-5.16-40.12-9.21-60.98-10.38zm99.65-2.58c.52.36 1.03.72 1.55 1.07-.19 1.1-.39 2.19-.58 3.29-1.34 8.06-3.89 15.81-6.21 23.62-3.72 1.49-5.93 5.43-10.08 6.21-.98 0-1.87.16-2.18 1.29l.15.08c-3.43-.07-4.46-1.76-4.45-5.2.03-12.33 7.69-23.96 19.61-29.17.76-.34 1.46-.8 2.19-1.19z"/><path d="M350.09 129.24c.16.4.33.79.49 1.19-.16-.4-.33-.8-.49-1.19z" fill="#8c9396"/><path class="st375" d="M155.43 171.89c.38-.38.75-.76 1.13-1.15-.38.38-.75.76-1.13 1.15z"/><path class="st14" d="M296.9 243.14c3.44 0 6.03-.12 8.6.03 4.9.28 5.54 1.47 3.18 5.7-3.78 6.79-9.46 11.74-16.05 15.51-7.98 4.56-16.14 8.86-25.43 10.38-2.06.34-4.09.5-6.14.46-4-.06-6-1.2-4.66-6.02 3.92-14.09 12.5-23.8 28.03-25.23 4.46-.4 8.88-.75 12.47-.83zm33.24 5.58c-1.36-4.35 2.01-7.05 5.31-9.02 11.22-6.73 23.24-11.81 35.67-15.88 1.31-.43 2.91-.82 3.86.41 1.27 1.63.78 3.58.17 5.42-2.27 6.75-7.65 10.7-13.06 14.65-7.48 5.47-16.02 8.48-24.84 10.78-6.38 1.65-7.11.94-7.11-6.36zm7.21-22.07c2.33-7.81 4.87-15.56 6.21-23.62 3.92 4.74 7.78 9.53 11.79 14.19 1.72 2 1.11 2.72-1.1 3.45-5.66 1.91-11.27 3.98-16.9 5.98z"/><path d="M325.09 234.14c.31-1.13 1.2-1.29 2.18-1.29-.44.93-1.08 1.49-2.18 1.29zm-147.45-22.09c-.51-.37-1.02-.74-1.54-1.1.51.37 1.02.73 1.54 1.1z" fill="#d69d88"/></svg>