<?xml version="1.0" encoding="utf-8"?>
<!-- Generator: Adobe Illustrator 24.2.3, SVG Export Plug-In . SVG Version: 6.00 Build 0)  -->
<svg version="1.1" id="Слой_1" xmlns="http://www.w3.org/2000/svg" xmlns:xlink="http://www.w3.org/1999/xlink" x="0px" y="0px"
	 viewBox="0 0 585 1181" style="enable-background:new 0 0 585 1181;" xml:space="preserve">
<style type="text/css">
	.st0{clip-path:url(#SVGID_2_);fill:#D670E1;}
	.st1{clip-path:url(#SVGID_2_);fill:#E8B4EF;}
	.st2{clip-path:url(#SVGID_2_);fill:#8D9396;}
	.st3{clip-path:url(#SVGID_2_);fill:#931CA0;}
	.st4{clip-path:url(#SVGID_2_);fill:#CED1D4;}
	.st5{clip-path:url(#SVGID_2_);fill:#E0DCD2;}
	.st6{clip-path:url(#SVGID_2_);fill:#543F31;}
	.st7{clip-path:url(#SVGID_2_);fill:#C48B75;}
	.st8{clip-path:url(#SVGID_2_);fill:#B4BABD;}
	.st9{clip-path:url(#SVGID_2_);fill:#8C9396;}
	.st10{clip-path:url(#SVGID_2_);fill:#D69D88;}
	.st11{fill:#E8B4EF;}
	.st12{clip-path:url(#SVGID_4_);}
	.st13{fill:#E097E9;}
	.st14{fill:#D670E1;}
	.st15{clip-path:url(#SVGID_6_);fill:#FFE406;}
	.st16{opacity:0.5;clip-path:url(#SVGID_6_);}
	.st17{fill:#A3CAFF;}
	.st18{fill:#FF8C00;}
	.st19{clip-path:url(#SVGID_6_);fill:#FFEDA1;}
	.st20{clip-path:url(#SVGID_6_);}
	.st21{fill:#FFCB33;}
	.st22{fill:#FFEDA1;}
	.st23{fill:#2A356B;}
	.st24{clip-path:url(#SVGID_6_);fill:#FFCB33;}
	.st25{clip-path:url(#SVGID_6_);fill:#A3CAFF;}
	.st26{clip-path:url(#SVGID_6_);fill:#FF8C00;}
	.st27{clip-path:url(#SVGID_6_);fill:#2A356B;}
	.st28{fill:#1B254E;}
	.st29{clip-path:url(#SVGID_6_);fill:#C32C28;}
	.st30{clip-path:url(#SVGID_6_);fill:#FF7400;}
	.st31{fill:#FFE406;}
	.st32{clip-path:url(#SVGID_6_);fill:#FFEF6E;}
	.st33{clip-path:url(#SVGID_8_);fill:#FFE473;}
	.st34{fill:#FFFFFF;}
	.st35{fill:#FF6567;}
	.st36{fill:url(#SVGID_9_);}
	.st37{fill:#ADD8C3;}
	.st38{fill:none;stroke:#FFFFFF;stroke-miterlimit:10;}
	.st39{fill:#A2CBAB;}
	.st40{fill:#96CDA1;}
	.st41{opacity:0.76;}
	.st42{fill:#C4E9CD;}
	.st43{fill:url(#SVGID_10_);}
	.st44{fill:url(#SVGID_11_);}
	.st45{fill:#F6E6BE;}
	.st46{fill:url(#SVGID_12_);}
	.st47{fill:url(#SVGID_13_);}
	.st48{fill:url(#SVGID_14_);}
	.st49{fill:#E4EEC4;}
	.st50{fill:#EFFBD2;}
	.st51{fill:url(#SVGID_15_);}
	.st52{fill:url(#SVGID_16_);}
	.st53{fill:url(#SVGID_17_);}
	.st54{fill:url(#SVGID_18_);}
	.st55{fill:#FFE493;}
	.st56{clip-path:url(#SVGID_20_);fill:url(#SVGID_21_);}
	.st57{fill:#5B2A1E;}
	.st58{fill:#907673;}
	.st59{fill:url(#SVGID_22_);}
	.st60{fill:url(#SVGID_23_);}
	.st61{fill:url(#SVGID_24_);}
	.st62{fill:url(#SVGID_25_);}
	.st63{fill:#FE82C8;}
	.st64{opacity:0.62;clip-path:url(#SVGID_27_);fill:#FFFFFF;}
	.st65{opacity:0.75;clip-path:url(#SVGID_27_);fill:#FFFFFF;}
	.st66{opacity:0.41;clip-path:url(#SVGID_27_);fill:#FFFFFF;}
	.st67{clip-path:url(#SVGID_27_);fill:none;}
	.st68{clip-path:url(#SVGID_29_);}
	.st69{opacity:0.26;fill:#FFFFFF;}
	.st70{opacity:0.69;fill:#FFFFFF;}
	.st71{fill:none;}
	.st72{opacity:0.16;fill:#FFFFFF;}
	.st73{opacity:0.3;fill:#FFFFFF;}
	.st74{opacity:0.23;fill:#FFFFFF;}
	.st75{opacity:0.24;fill:#FFFFFF;}
	.st76{opacity:0.17;}
	.st77{opacity:0.05;fill:#E2E8E4;}
	.st78{clip-path:url(#SVGID_31_);}
	.st79{opacity:0.76;clip-path:url(#SVGID_31_);fill:#FFFFFF;}
	.st80{clip-path:url(#SVGID_31_);fill:url(#SVGID_32_);}
	.st81{clip-path:url(#SVGID_31_);fill:none;stroke:#FFFFFF;stroke-width:2;stroke-linecap:round;stroke-miterlimit:10;}
	.st82{clip-path:url(#SVGID_31_);fill:url(#SVGID_33_);}
	.st83{clip-path:url(#SVGID_31_);fill:url(#SVGID_34_);}
	.st84{clip-path:url(#SVGID_31_);fill:url(#SVGID_35_);}
	.st85{clip-path:url(#SVGID_31_);fill:url(#SVGID_36_);}
	.st86{clip-path:url(#SVGID_31_);fill:#FFFFFF;}
	.st87{clip-path:url(#SVGID_31_);fill:url(#SVGID_37_);}
	.st88{opacity:0.62;clip-path:url(#SVGID_39_);fill:#FFFFFF;}
	.st89{clip-path:url(#SVGID_39_);fill:#FFFFFF;}
	.st90{opacity:0.41;clip-path:url(#SVGID_39_);fill:#FFFFFF;}
	.st91{clip-path:url(#SVGID_39_);fill:none;}
	.st92{clip-path:url(#SVGID_41_);}
	.st93{fill:url(#SVGID_42_);}
	.st94{opacity:0.74;clip-path:url(#SVGID_44_);fill:url(#SVGID_45_);}
	.st95{fill:#E5E5E5;}
	.st96{fill:none;stroke:#4D4D4D;stroke-width:0.75;stroke-linecap:round;stroke-miterlimit:10;}
	.st97{fill:url(#SVGID_46_);}
	.st98{opacity:0.74;fill:url(#SVGID_47_);}
	.st99{opacity:0.74;fill:url(#SVGID_48_);}
	.st100{opacity:0.74;fill:url(#SVGID_49_);}
	.st101{opacity:0.74;fill:url(#SVGID_50_);}
	.st102{fill:url(#SVGID_51_);}
	.st103{opacity:0.66;}
	.st104{opacity:0.37;fill:#FFFFFF;}
	.st105{fill:url(#SVGID_52_);}
	.st106{fill:url(#SVGID_53_);}
	.st107{opacity:0.44;clip-path:url(#SVGID_55_);fill:#FFFFD9;}
	.st108{opacity:0.43;clip-path:url(#SVGID_57_);fill:#FFFFFF;}
	.st109{clip-path:url(#SVGID_57_);fill:none;stroke:#FFFFFF;stroke-miterlimit:10;}
	.st110{opacity:0.76;clip-path:url(#SVGID_57_);fill:#FFFFFF;}
	.st111{clip-path:url(#SVGID_57_);fill:#FFFFFF;}
	.st112{opacity:0.08;clip-path:url(#SVGID_57_);fill:#FFFFFF;}
	.st113{opacity:0.27;clip-path:url(#SVGID_57_);fill:#FFFFFF;}
	.st114{opacity:0.37;clip-path:url(#SVGID_57_);fill:#FFFFFF;}
	.st115{clip-path:url(#SVGID_57_);fill:none;}
	.st116{fill:url(#SVGID_58_);}
	.st117{opacity:0.62;clip-path:url(#SVGID_60_);fill:#FFFFFF;}
	.st118{clip-path:url(#SVGID_60_);fill:#FFFFFF;}
	.st119{opacity:0.41;clip-path:url(#SVGID_60_);fill:#FFFFFF;}
	.st120{clip-path:url(#SVGID_60_);fill:none;}
	.st121{clip-path:url(#SVGID_62_);}
	.st122{opacity:0.55;fill:url(#SVGID_63_);}
	.st123{fill:url(#SVGID_64_);}
	.st124{fill:url(#SVGID_65_);}
	.st125{opacity:0.28;}
	.st126{opacity:0.56;clip-path:url(#SVGID_67_);fill:#FFFFFF;}
	.st127{opacity:0.43;clip-path:url(#SVGID_69_);fill:#FFFFFF;}
	.st128{clip-path:url(#SVGID_69_);fill:none;stroke:#FFFFFF;stroke-miterlimit:10;}
	.st129{opacity:0.76;clip-path:url(#SVGID_69_);fill:#FFFFFF;}
	.st130{clip-path:url(#SVGID_69_);fill:#FFFFFF;}
	.st131{opacity:0.08;clip-path:url(#SVGID_69_);fill:#FFFFFF;}
	.st132{opacity:0.27;clip-path:url(#SVGID_69_);fill:#FFFFFF;}
	.st133{opacity:0.37;clip-path:url(#SVGID_69_);fill:#FFFFFF;}
	.st134{clip-path:url(#SVGID_69_);fill:none;}
	.st135{clip-path:url(#SVGID_71_);fill:none;}
	.st136{opacity:0.46;}
	.st137{opacity:0.86;fill:#FFFFFF;}
	.st138{opacity:0.4;}
	.st139{opacity:0.73;fill:#FFFFFF;}
	.st140{opacity:0.54;clip-path:url(#SVGID_73_);fill:#FFFFFF;}
	.st141{fill:#FF8A8A;}
	.st142{opacity:0.75;fill:#FFFFFF;}
	.st143{fill:#FFC181;}
	.st144{clip-path:url(#SVGID_75_);fill:#FFDFBD;}
	.st145{clip-path:url(#SVGID_75_);fill:#FF9D00;}
	.st146{clip-path:url(#SVGID_75_);fill:#FFF3DF;}
	.st147{clip-path:url(#SVGID_77_);fill:#FFBAE4;}
	.st148{opacity:0.8;clip-path:url(#SVGID_77_);fill:#FE82C8;}
	.st149{clip-path:url(#SVGID_77_);fill:#FE82C8;}
	.st150{opacity:0.79;clip-path:url(#SVGID_77_);fill:#FFBAE4;}
	.st151{fill:#FFFEEA;}
	.st152{fill:#58D196;}
	.st153{fill:#A6E5C3;}
	.st154{fill:#D2F2E1;}
	.st155{opacity:0.44;fill:#FFFFFF;}
	.st156{clip-path:url(#SVGID_79_);fill:#FFF9C1;}
	.st157{opacity:0.86;fill:#FFCCD5;}
	.st158{opacity:0.62;clip-path:url(#SVGID_81_);fill:#FFFFFF;}
	.st159{opacity:0.75;clip-path:url(#SVGID_81_);fill:#FFFFFF;}
	.st160{opacity:0.41;clip-path:url(#SVGID_81_);fill:#FFFFFF;}
	.st161{clip-path:url(#SVGID_81_);fill:none;}
	.st162{clip-path:url(#SVGID_83_);}
	.st163{opacity:0.44;clip-path:url(#SVGID_85_);fill:#FFFFFF;}
	.st164{opacity:0.43;clip-path:url(#SVGID_87_);fill:#FFFFFF;}
	.st165{clip-path:url(#SVGID_87_);fill:none;stroke:#FFFFFF;stroke-miterlimit:10;}
	.st166{opacity:0.76;clip-path:url(#SVGID_87_);fill:#FFFFFF;}
	.st167{clip-path:url(#SVGID_87_);fill:#FFFFFF;}
	.st168{opacity:0.08;clip-path:url(#SVGID_87_);fill:#FFFFFF;}
	.st169{opacity:0.27;clip-path:url(#SVGID_87_);fill:#FFFFFF;}
	.st170{opacity:0.37;clip-path:url(#SVGID_87_);fill:#FFFFFF;}
	.st171{clip-path:url(#SVGID_87_);fill:none;}
	.st172{opacity:0.54;clip-path:url(#SVGID_89_);fill:#FFFFFF;}
	.st173{opacity:0.62;fill:#FFFFFF;}
	.st174{opacity:0.41;fill:#FFFFFF;}
	.st175{opacity:0.43;fill:#FFFFFF;}
	.st176{opacity:0.76;fill:#FFFFFF;}
	.st177{opacity:0.08;fill:#FFFFFF;}
	.st178{opacity:0.27;fill:#FFFFFF;}
	.st179{opacity:0.54;fill:#FFFFFF;}
	.st180{clip-path:url(#SVGID_91_);fill:#FF6567;}
	.st181{clip-path:url(#SVGID_91_);fill:#FF8A8A;}
	.st182{clip-path:url(#SVGID_91_);fill:#FFC2C1;}
	.st183{clip-path:url(#SVGID_91_);fill:#FFFFFF;}
	.st184{clip-path:url(#SVGID_93_);fill:#E2E9FF;}
	.st185{clip-path:url(#SVGID_93_);fill:#EEF2FF;}
	.st186{opacity:0.54;clip-path:url(#SVGID_93_);fill:#EEF2FF;}
	.st187{opacity:0.54;clip-path:url(#SVGID_93_);fill:#8FAAF0;}
	.st188{clip-path:url(#SVGID_95_);}
	.st189{fill:#FF6B81;}
	.st190{clip-path:url(#SVGID_95_);fill:none;}
	.st191{fill:#FF1B6F;}
	.st192{clip-path:url(#SVGID_97_);fill:#FFDFBD;}
	.st193{clip-path:url(#SVGID_97_);fill:#FF9D00;}
	.st194{clip-path:url(#SVGID_97_);fill:#FFF3DF;}
	.st195{clip-path:url(#SVGID_99_);fill:#F0C6F4;}
	.st196{opacity:0.8;clip-path:url(#SVGID_99_);fill:#F8E3F8;}
	.st197{clip-path:url(#SVGID_99_);fill:#F8E3F8;}
	.st198{opacity:0.79;clip-path:url(#SVGID_99_);fill:#F0C6F4;}
	.st199{clip-path:url(#SVGID_101_);fill:#FFF9C1;}
	.st200{clip-path:url(#SVGID_103_);fill:#FFC5D6;}
	.st201{clip-path:url(#SVGID_103_);fill:#FF94B3;}
	.st202{clip-path:url(#SVGID_103_);fill:#FF6794;}
	.st203{clip-path:url(#SVGID_103_);fill:#FFFFFF;}
	.st204{clip-path:url(#SVGID_107_);fill:#698DE6;}
	.st205{clip-path:url(#SVGID_107_);fill:#8FAAF0;}
	.st206{opacity:0.54;clip-path:url(#SVGID_107_);fill:#8FAAF0;}
	.st207{clip-path:url(#SVGID_109_);}
	.st208{clip-path:url(#SVGID_109_);fill:none;}
	.st209{opacity:0.46;clip-path:url(#SVGID_111_);}
	.st210{clip-path:url(#SVGID_111_);fill:none;}
	.st211{fill:none;stroke:#FFFFFF;stroke-width:2;stroke-miterlimit:10;}
	.st212{opacity:0.45;fill:#FFFFFF;}
	.st213{opacity:0.8;fill:#FFFFFF;}
	.st214{opacity:0.79;fill:#FFFFFF;}
	.st215{fill:#F2C5AA;}
	.st216{fill:none;stroke:#FFFFFF;stroke-width:0.75;stroke-miterlimit:10;}
	.st217{fill:#FFFFFF;stroke:#FFFFFF;stroke-width:0.25;stroke-miterlimit:10;}
	.st218{fill:#D3C1B2;}
	.st219{fill:#FFC5D6;}
	.st220{clip-path:url(#SVGID_117_);fill:#F787A5;}
	.st221{clip-path:url(#SVGID_117_);fill:#FFE9F2;}
	.st222{clip-path:url(#SVGID_117_);fill:#D3CFB3;}
	.st223{clip-path:url(#SVGID_117_);fill:#FFDBE5;}
	.st224{clip-path:url(#SVGID_117_);}
	.st225{fill:#FFE9F2;}
	.st226{fill:#F787A5;}
	.st227{fill:#F2CCC1;}
	.st228{fill:#DF4E50;}
	.st229{clip-path:url(#SVGID_117_);fill:#FFC5D6;}
	.st230{fill:#FFDBE5;}
	.st231{fill:#FFB9C3;}
	.st232{fill:#FB91B5;}
	.st233{fill:#E3A180;}
	.st234{fill:#92693D;}
	.st235{fill:#FBBACC;}
	.st236{fill:#E6678D;}
	.st237{fill:#574435;}
	.st238{fill:#C9A47C;}
	.st239{fill:#641F1E;}
	.st240{fill:#F15E89;}
	.st241{fill:#E7005E;}
	.st242{fill:#DEB78A;}
	.st243{fill:#DFB78A;}
	.st244{fill:#FF6794;}
	.st245{fill:#D72264;}
	.st246{fill:#F7F7F7;}
	.st247{fill:#F2F2F2;}
	.st248{fill:#FFFBF0;}
	.st249{fill:#FFBFCF;}
	.st250{fill:#FF9DAE;}
	.st251{fill:#FFC2C1;}
	.st252{fill:#FFCCD5;}
	.st253{fill:#B49E8F;}
	.st254{fill:#FFE2EA;}
	.st255{fill:#A3C5DC;}
	.st256{fill:#DA956B;}
	.st257{fill:#BDA595;}
	.st258{fill:#583B34;}
	.st259{fill:#63443C;}
	.st260{fill:#B2D0E5;}
	.st261{fill:#FCFCFB;}
	.st262{fill:#D0ACA1;}
	.st263{fill:#A2C4DB;}
	.st264{fill:#E1D0C8;}
	.st265{fill:#9C7972;}
	.st266{fill:#77573F;}
	.st267{fill:#F3769C;}
	.st268{fill:#FBFBF9;}
	.st269{fill:#F8C4DC;}
	.st270{fill:#E4BAB5;}
	.st271{clip-path:url(#SVGID_119_);fill:#F787A5;}
	.st272{clip-path:url(#SVGID_119_);fill:#FFE9F2;}
	.st273{clip-path:url(#SVGID_119_);fill:#D3CFB3;}
	.st274{clip-path:url(#SVGID_119_);fill:#FFDBE5;}
	.st275{clip-path:url(#SVGID_119_);}
	.st276{clip-path:url(#SVGID_119_);fill:#FFC5D6;}
	.st277{fill:#00C377;}
	.st278{fill:#88E5AF;}
	.st279{fill:#00B45A;}
	.st280{fill:#7FDAAA;}
	.st281{fill:#F2BC3A;}
	.st282{fill:#B99F65;}
	.st283{fill:#98D284;}
	.st284{fill:#3C3724;}
	.st285{fill:#D6BEA2;}
	.st286{fill:#9C8274;}
	.st287{fill:#587147;}
	.st288{fill:#E7D6BE;}
	.st289{fill:#5CC689;}
	.st290{clip-path:url(#SVGID_121_);fill:#A6E5C3;}
	.st291{clip-path:url(#SVGID_121_);fill:#FFFFFF;}
	.st292{clip-path:url(#SVGID_121_);fill:#58D196;}
	.st293{fill:#FFEF6E;}
	.st294{fill:#FFE200;}
	.st295{clip-path:url(#SVGID_123_);fill:#FDA157;}
	.st296{clip-path:url(#SVGID_123_);fill-rule:evenodd;clip-rule:evenodd;fill:#FF8429;}
	.st297{clip-path:url(#SVGID_123_);fill:#F35000;}
	.st298{clip-path:url(#SVGID_123_);fill:#F9B946;}
	.st299{fill:#F35000;}
	.st300{fill:#FF8429;}
	.st301{fill:#FFAC33;}
	.st302{fill:#E56D00;}
	.st303{fill:#EF6406;}
	.st304{fill:#FF9C00;}
	.st305{fill:#130077;}
	.st306{fill:#FFB58D;}
	.st307{opacity:0.3;}
	.st308{fill:#FF7300;}
	.st309{fill:#6E0000;}
	.st310{fill-rule:evenodd;clip-rule:evenodd;fill:#FF9C00;}
	.st311{fill-rule:evenodd;clip-rule:evenodd;fill:url(#SVGID_124_);}
	.st312{opacity:0.3;fill-rule:evenodd;clip-rule:evenodd;fill:#A4002C;}
	.st313{fill-rule:evenodd;clip-rule:evenodd;fill:url(#SVGID_125_);}
	.st314{fill-rule:evenodd;clip-rule:evenodd;fill:url(#SVGID_126_);}
	.st315{opacity:0.5;fill-rule:evenodd;clip-rule:evenodd;fill:url(#SVGID_127_);}
	.st316{fill-rule:evenodd;clip-rule:evenodd;fill:#FFC485;}
	.st317{fill-rule:evenodd;clip-rule:evenodd;fill:url(#SVGID_128_);}
	.st318{fill-rule:evenodd;clip-rule:evenodd;fill:url(#SVGID_129_);}
	.st319{fill-rule:evenodd;clip-rule:evenodd;fill:url(#SVGID_130_);}
	.st320{opacity:0.5;fill-rule:evenodd;clip-rule:evenodd;fill:url(#SVGID_131_);}
	.st321{fill-rule:evenodd;clip-rule:evenodd;fill:#FDA157;}
	.st322{opacity:0.5;fill-rule:evenodd;clip-rule:evenodd;fill:#FDA157;}
	.st323{fill-rule:evenodd;clip-rule:evenodd;fill:#FF8429;}
	.st324{fill-rule:evenodd;clip-rule:evenodd;fill:#FFAC33;}
	.st325{opacity:0.62;fill-rule:evenodd;clip-rule:evenodd;fill:#C8002A;}
	.st326{opacity:0.5;fill-rule:evenodd;clip-rule:evenodd;fill:#FF8429;}
	.st327{opacity:0.5;fill-rule:evenodd;clip-rule:evenodd;fill:#8F5472;}
	.st328{opacity:0.3;fill-rule:evenodd;clip-rule:evenodd;fill:url(#SVGID_132_);}
	.st329{opacity:0.5;fill-rule:evenodd;clip-rule:evenodd;fill:url(#SVGID_133_);}
	.st330{opacity:0.3;fill-rule:evenodd;clip-rule:evenodd;fill:url(#SVGID_134_);}
	.st331{opacity:0.3;fill-rule:evenodd;clip-rule:evenodd;fill:url(#SVGID_135_);}
	.st332{clip-path:url(#SVGID_137_);}
	.st333{clip-path:url(#SVGID_137_);fill:#FF8429;}
	.st334{fill:#FDA157;}
	.st335{clip-path:url(#SVGID_139_);}
	.st336{fill:#F58800;}
	.st337{clip-path:url(#SVGID_141_);}
	.st338{fill:#F9B946;}
	.st339{clip-path:url(#SVGID_143_);}
	.st340{clip-path:url(#SVGID_143_);fill:#FF8429;}
	.st341{fill-rule:evenodd;clip-rule:evenodd;fill:url(#SVGID_144_);}
	.st342{fill-rule:evenodd;clip-rule:evenodd;fill:url(#SVGID_145_);}
	.st343{fill-rule:evenodd;clip-rule:evenodd;fill:url(#SVGID_146_);}
	.st344{opacity:0.5;fill-rule:evenodd;clip-rule:evenodd;fill:url(#SVGID_147_);}
	.st345{fill-rule:evenodd;clip-rule:evenodd;fill:url(#SVGID_148_);}
	.st346{fill-rule:evenodd;clip-rule:evenodd;fill:url(#SVGID_149_);}
	.st347{fill-rule:evenodd;clip-rule:evenodd;fill:url(#SVGID_150_);}
	.st348{opacity:0.5;fill-rule:evenodd;clip-rule:evenodd;fill:url(#SVGID_151_);}
	.st349{opacity:0.3;fill-rule:evenodd;clip-rule:evenodd;fill:url(#SVGID_152_);}
	.st350{opacity:0.5;fill-rule:evenodd;clip-rule:evenodd;fill:url(#SVGID_153_);}
	.st351{opacity:0.3;fill-rule:evenodd;clip-rule:evenodd;fill:url(#SVGID_154_);}
	.st352{opacity:0.3;fill-rule:evenodd;clip-rule:evenodd;fill:url(#SVGID_155_);}
	.st353{opacity:0.88;fill:#FFFEF3;}
	.st354{fill:#FFD066;}
	.st355{fill:#B0ACAD;}
	.st356{fill:#FFE473;}
	.st357{fill:#FFE888;}
	.st358{fill:#F7C800;}
	.st359{fill:#FFEB97;}
	.st360{clip-path:url(#SVGID_157_);fill:#FFCB33;}
	.st361{clip-path:url(#SVGID_157_);fill:#FFE406;}
	.st362{clip-path:url(#SVGID_159_);fill:#931CA0;}
	.st363{opacity:0.5;clip-path:url(#SVGID_159_);}
	.st364{fill:#931CA0;}
	.st365{clip-path:url(#SVGID_159_);}
	.st366{clip-path:url(#SVGID_161_);fill:#E097E9;}
	.st367{fill:#CC37D8;}
	.st368{opacity:0.5;fill:#FFFFFF;}
	.st369{opacity:0.5;fill:#FFFFFF;stroke:#FFFFFF;stroke-miterlimit:10;}
	.st370{opacity:0.68;fill:#FFFFFF;}
	.st371{fill:#F0C6F4;}
	.st372{fill:#DAA3E2;}
	.st373{fill:#AB7B41;}
	.st374{fill:#8D9396;}
	.st375{fill:#CED1D4;}
	.st376{fill:#E0DCD2;}
	.st377{fill:#543F31;}
	.st378{fill:#C48B75;}
	.st379{fill:#B4BABD;}
	.st380{fill:#8C9396;}
	.st381{fill:#D69D88;}
</style>
<path class="st11" d="M58.32,1088.39c16.07,6.71,33.28,9.58,49.84,14.67c14.35,4.41,27.26,11.71,40.83,17.66
	c23.28,10.22,47.26,19.5,72.49,20.85c15.15,0.81,27.24,1.53,34.97,16.25c1.74,3.3,6.1,5.95,10.33,6.29
	c9.07,0.73,9.62,5.36,6.42,12.27c-0.69,1.5-1.2,3.08-1.79,4.62c-89.76,0-179.52,0-269.29,0c-4.41-4.67-0.79-9.64,0.77-13.37
	c10.87-25.9,24.31-50.3,45.2-69.73C51.49,1094.74,53.92,1090.48,58.32,1088.39z"/>
<path class="st11" d="M276.35,1181c1.77-15.67,12.07-20.76,26.17-21.14c3.02-0.08,6.04-0.45,9.05-0.35
	c39.54,1.35,78.36-2.15,116.28-14.54c17.2-5.62,35.06-9.29,52.74-13.32c17.4-3.96,33.22-11.2,48.08-20.9
	c10.59-6.91,13.07-6.88,17.35,5.01c7.81,21.65,16.72,42.95,22.74,65.23C471.3,1181,373.83,1181,276.35,1181z"/>
<path class="st367" d="M418.95,840.26c-57.32,18.87-109.69,45.77-155.25,85.25c-3.11,2.7-6.37,5.38-8.88,8.6
	c-4.82,6.18-6.72,3.24-8.19-2.16c-4.61-16.97-10.31-33.73-13.58-50.95c-6.18-32.56-17.34-63.75-24.77-95.9
	c-5.29-22.88-11.59-45.29-20.26-67.06c-1.82-4.58-3.45-9.66-6.63-13.2c-10.69-11.88-14.95-26.89-20.34-41.15
	c-8.98-23.76-4.73-46.81,21.75-63.01c20.97-12.83,43.88-12.64,66.87-13.77c2.45-0.12,5.81,0.77,7.19-0.5
	c7.11-6.56,11.64-2.2,17.38,2.39c4.8,3.84,11.4,3.55,17.52,2.61c13.06-2,25.9-5.01,38.62-8.56c3.02-0.84,6.32-2.74,6.1,3.59
	c-0.63,17.73,3.23,34.99,6.79,52.23c7.96,38.5,22.86,74.64,37.64,110.84c8.84,21.65,17.27,43.47,25.66,65.3
	C410.09,824.02,414.77,832.65,418.95,840.26z"/>
<path class="st11" d="M232.81,497.99c-2.62,0.34-3.86-1.55-5.4-3.17c-13.72-14.43-29.42-27.96-22.32-51.43
	c-2.9-45.47-2.37-90.83,3.86-136.06c1.26-9.17,5.35-17.34,7.87-26.05c0.88-3.07,2.89-6.02,0.86-10.53
	c-5.18,6.6-6.4,14.21-9.36,20.97c-3.67,4.74-8.61,7.58-14.15,9.57c-8.86,3.18-16.76,8.22-24.78,13.02
	c-11.26,6.74-17.37,17.29-21.97,29.05c-1.73,7.92-8.8,14.06-7.32,23.11c0.7,4.26-0.3,8.83,3.11,12.44c1.41,1.49,1.46,3.66,1.22,5.5
	c-2.17,16.92,3.65,32.74,6.76,48.9c2.82,14.61,4.41,29.3,3.46,44.1c-0.35,5.54,3.59,11.37-0.9,16.64
	c-7.67,17.28-19.85,30.81-34.92,41.93c-18.77,13.86-32.23,31.89-41.39,53.22c-1.22,2.83-2.09,5.28-5.78,3.26
	c-0.76-1.47-1.54-2.93-2.28-4.4c-5.81-11.6-8.31-22.17-2.32-35.83c10.35-23.61,17.94-48.51,23.21-73.94
	c5.58-26.96,12.9-53.52,17.65-80.67c4.85-27.77,7.58-55.53,3.86-83.74c-3.18-24.09,2.57-46.98,10.7-69.53
	c10.85-30.11,24.5-58.92,39.56-87.05c9-16.81,22.31-30.61,34.87-44.76c12.2-13.75,24.07-28.18,39.54-38.34
	c14.61-9.59,29.67-19.06,48.51-18.08c5.45,0.28,10.98-0.45,16.45-1c10.76-1.08,13.7,1.5,17.29,11.89c5.9,17.07,1.81,33.2-3.3,49.31
	c-5.77,18.2-9.17,36.5-9.81,55.83c-0.77,23.07,4.08,45.41,5.05,68.16c0.26,6.05,0.15,12.12,0.37,18.17
	c0.15,4.01-1.94,6.67-4.88,8.82c0.93,2.39,4.84,0.82,4.82,3.91c-0.03,5.41-5.87-1.41-6.45,3c-11.53,7.81-23.67,14.6-36.54,19.85
	c-8.38,3.41-16.65,7.03-24.88,10.74c-1.83,0.96-3.51,1.03-5.27-0.39c-2.86-2.32-6.24-1.82-9.38-0.96c-4.51,1.24-7.35,4.27-5.71,9.11
	c1.65,4.86,5.44,6.51,10.48,4.74c5.05-1.77,8.27-7.16,14.22-7.15c8.13,0.07,15.74-2.39,23.38-4.69c3.12-0.94,6.25-2.43,9.47-0.28
	c4.12,3.13,2.05,6.26-0.14,9.21c-5.94,8.01-13.27,14.69-20.69,21.25c-2.88,2.55-5.93,4.91-8.83,7.43c-5.41,4.38-10.07,9.8-18.41,8.9
	c-3.12-0.34-6.74,1.85-9.77,3.74c-3.44,2.15-6,4.98-5.55,9.37c0.41,4.01,3.06,6.35,6.65,7.63c4.07,1.45,7.56,0.53,10.25-2.99
	c0.67-0.87,1.42-1.68,2.12-2.52c6.97-6.99,14.52-13.16,23.87-16.83c7.37,2.92,9.03,9.7,10.99,16.29c1.26,1.38,1.1,3.2,1.55,4.83
	c0.22,0.83,0.43,1.66,0.65,2.5c-1.3,8.33-7.66,12.29-14.22,15.65c-7.29,3.75-14.83,7.04-22.22,10.59
	c-5.6-2.39-10.56-1.17-14.68,3.07c-3.92,4.04-4.51,8.67-1.01,13.28c3.3,4.34,6.87,4.07,9.95-0.68c0.8-1.23,1.86-1.91,2.92-2.73
	c11.19-5.99,23.3-10.26,33.43-18.19c2.08-1.63,4.31-2.01,6.48-0.04c2.77,2.63,1.68,5.17,0.26,8.16c-3.64,7.61-2,10.04,6.64,11.21
	c2.97,0.4,6.99-1.14,8.12,3.6c0.06,0.84,0,1.66-0.16,2.49c-0.75,1.47-1.52,3.51-3.14,3.53c-10.34,0.11-16.65,7.47-24.15,12.85
	c-7.1,5.09-13.89,10.77-22.39,13.6c-0.82,0.12-1.87,0.33-2.35-0.26c-3.73-4.61-8.73-3.56-12.29-1.14c-4.63,3.15-4.6,8.99-3.33,14
	c1.23,4.84,4.26,8.56,10,8.8c3.38,0.14,6.28-0.22,6.46-4.56c0.14-0.85,0.3-1.68,0.41-2.54c0.93-3.16,3.74-4.4,6.18-5.99
	c7.17-4.65,15.03-8.07,22.4-12.38c2.31-1.35,4.91-2.79,7.68-0.73c1.6,1.33,3.85,1.95,4.61,4.2c-0.75,7.48,4.55,7.09,9.46,7.23
	c1.4,1.21,1.46,3.04,2.18,4.57c1.54,4.72-2.25,5.5-5.13,6.78c-13.03,5.79-25.8,12-37.32,20.57c-4.17,3.1-7.41,7.53-12.69,9.08
	C234.29,498.06,233.55,498.04,232.81,497.99z"/>
<path class="st11" d="M324.18,1096.6c-13.41,1.16-24.01-7.24-36.06-10.68c-3.54-1.01-2.96-5.88-2.92-8.83
	c0.25-17-4.93-33.15-7.3-49.72c-1.53-10.67-4.16-21.23-9.24-30.71c-3.4-6.33-1.88-10.51,2.08-15.48
	c22.85-28.68,51.43-49.18,85.53-62.64c23.88-9.42,47.82-18.06,73.55-20.73c3.92-0.41,9.59-4.18,11.16-2.76
	c3.36,3.05,4.87,8.37,6.62,12.96c9.73,25.47,21.37,50.12,31.84,75.27c8.44,20.27,14.11,41.75,26.6,60.22
	c3.28,4.84-0.95,5.45-3.62,6.9c-15.59,8.4-32.69,10.92-49.93,13.19c-31.37,4.13-62.56,9.31-92.52,19.96
	c-4.88,1.73-9.56,4.27-13.96,7.02C339.25,1094.78,332.14,1097.17,324.18,1096.6z"/>
<path class="st11" d="M314.29,290.69c0.75-9.31,1.05-18.69,2.41-27.91c1.05-7.08,7.3-9.89,13.17-12.37
	c15.16-6.4,30.87-4.22,46.35-2.06c8.94,1.25,17.85,3.56,26.41,6.47c40.79,13.87,77.19,35.33,109.13,64.34
	c4.27,3.88,8.79,7.47,13.08,11.33c13.52,12.16,22.75,26.68,23.12,45.42c0.16,8.28-3.51,15.91-6.22,23.62
	c-4.9,13.92-11.91,27.13-11.01,42.75c0.39,6.71,3.92,12.68,3.24,19.42c-6.8,4.2-9.33,11.44-12.2,18.16
	c-5.76,13.5-12.74,26.26-21.39,38.08c-1.72,2.35-3.04,6.62-7.59,3.78c-1.08-0.67-2.03-1.48-2.97-2.34
	c1.7-12.85,3.53-25.71,7.5-38.14c3.34-10.45,7.07-20.75,10.04-31.34c3.74-13.32,2.55-23.13-17.7-30.25
	c-2.06-0.72-4.24-1.12-6.25-1.99c-3.69-2.27-8.27-1.8-12.1-4.13c-1.59-0.96-0.17,1.88-0.84,2.79c0.64,19.43-0.56,38.77-2.13,58.09
	c-0.75,9.26-2.21,18.52-4.4,27.42c-4.25,17.25-3.26,34.7-3.35,52.05c-0.04,7.82-3.38,12.95-7.83,18.11
	c-2.11,2.45-5.98,4.2-7.73,0.96c-4.59-8.53-13.6-6.41-20.33-9.59c-1.65-0.78-3.77-0.62-5.59-1.19c-4.15-3.06-10.21-2.46-13.7-6.87
	c-1.28-7.83-2.99-15.76,4.95-21.48c4.74-0.23,8.26,2.84,12.29,4.48c3.23,1.77,6.79,2.62,9.52,5.76c2.63,3.02,6.97,2.78,10.58,0.93
	c2.37-1.21,3.52-3.57,2.42-6.22c-1.12-2.68-3.36-2.46-5.43-1.17c-3.56,2.22-7.2,0.99-10.86,0.53c-4.42-6.04-10.65-9.91-16.82-13.81
	c-2.6-1.64-5.11-3.18-4.55-6.87c1.18-7.02-2.31-14.64,2.74-21.16c3.73-3.37,7.25-0.82,10.31,0.93c4.92,2.81,10.07,5.17,14.93,8.04
	c2.64,0.89,3.83,6.72,7.8,2.75c2.94-2.94,1.29-5.94-1.27-8.53c-1.38-1.39-2.96-1.63-4.39-0.62c-3.67,2.58-6.65,0.78-9.69-1.19
	c-5.29-3.27-10.46-6.73-15.79-9.92c-2.18-1.3-5.21-2.2-4.7-5.81c0.54-2.96,0.27-5.95,0.45-8.91c0.3-5.04,1.23-9.96,6.76-12.2
	c7.58,1.4,13.58,6.38,20.55,9.16c3.16,2.09,7.23,2.12,10.26,4.71c1.42,1.22,3.64,1.69,2.88,4.16c-0.68,2.19-2.67,2.44-4.63,2.55
	c5.42-2.08,9.81-10.24,8.05-15.63c-2.37-7.28-7.9-3.71-12.48-3.31c-0.54,0.12-1.15,0.45-1.6,0.29
	c-13.25-4.52-24.78-11.42-32.38-23.68c0.61-2.44,3.65-3.37,3.87-6.02c0.44-5.5,2.21-11.4,8.25-10.91
	c6.89,0.56,15.53-0.89,18.66,9.54c1.52,5.07,7.33,7.98,13.14,7.69c6.55-0.32,5.95-6.25,7.28-10.02c0.35,2-0.94,4.08-1.99,6.21
	c-1.11,2.24-2.28,4.72-5.33,4.31c-3.62-0.48-2.64-3.44-2.69-5.79c-0.04-1.57-1.38-2.26-2.35-3.21c-4.6-7.63-11.98-11.21-20.03-13.82
	c-2.56-0.57-3.54-3.29-5.94-4.19c-6.81-2.55-7.34-7.8-5.97-13.77c-2.12,9.71-7.48,12.13-19.26,8.71
	c-8.91-3.26-15.89-9.29-22.57-15.67c-1.75,0.12-3.43,0.83-5.23,0.67c-3.35-1.1-3.25-4.08-3.59-6.72c-2.28-17.38-4.9-34.7-9.8-51.56
	c-0.65-4.19-1.83-8.1,0.1-12.63c1.84-4.33-0.66-8.85-2.73-12.95c-1.84-3.64-4.83-6.54-6.63-10.21c-0.69-1.16-1.3-2.38-2.04-3.51
	c-5.97-9.17-9.17-9.85-18.63-4.52C319.55,291.96,316.76,296.4,314.29,290.69z"/>
<path class="st367" d="M346.36,1154.84c-18.46,1.3-34.12-2.08-49.75,0.39c-3.51,0.55-5.51-1.97-7.27-4.53
	c-8.91-12.97-12.09-27.85-12.37-43.08c-0.24-13.1,9.08-18.75,20.93-13.11c19.55,9.3,37.87,9.16,56.22-3.29
	c8.19-5.55,18.16-7.8,27.83-10.04c25.74-5.96,51.61-11.14,77.9-14.11c30.83-3.48,57.98-14.69,78.8-38.65
	c3.23-3.72,5.22-3.37,6.9,1.1c5.34,14.29,9.27,28.85,8.35,44.32c-0.61,10.27-7.05,17.34-14.16,23.37
	c-17.26,14.63-37.11,24.37-59.15,29.81c-29.64,7.31-59.2,14.95-88.77,22.54C375.97,1153.63,359.66,1153.37,346.36,1154.84z"/>
<path class="st11" d="M279.54,1059.18c-0.01,7.59-4.71,11.31-10.66,10.06c-7.84-1.66-15.08-4.78-22.46-7.89
	c-12.1-5.09-24.86-7.95-37.95-10.41c-29.12-5.47-58.06-12.24-86.54-20.68c-1.58-0.47-3.1-1.13-4.61-1.8
	c-15.37-6.84-17.12-11.8-9.06-26.29c15.53-27.9,31.14-55.76,46.72-83.63c1.4-2.5,1.97-6.07,6.41-4.16
	c12.6,5.39,26.25,5.77,39.51,7.92c11.75,1.91,22.94,5.54,34.09,9.59c7.97,2.9,11.72,8.52,12.91,16.49
	c1.22,8.16,2.27,16.37,3.89,24.45c1.48,7.37,2.6,14.39,9.79,19.88c5.64,4.31,7.02,12.93,8.61,20.18
	C273.66,1028.74,276.65,1044.71,279.54,1059.18z"/>
<path class="st11" d="M180.56,330.86c4.56,0.61,8.53-1.86,12.87-2.5c5.91-0.88,7.87,1.18,7.59,7.2c-1.19,25.3-4.07,50.67-2.06,75.94
	c2.64,33.1-1.03,66.07-0.12,99.07c0.56,20.35,1.45,40.74,3.38,61c1.17,12.24-4.43,18.43-14.6,22.55c-8.75,3.55-17.1,8.07-23.23,15.3
	c-15.89,18.73-14.35,39.35-5.54,60.52c2.43,5.84,4.52,11.83,7.09,17.61c2.43,5.48,0.16,7.69-5.03,8.36
	c-4.15,0.54-8.24,0.39-12.25-0.92c-23.84-7.8-39.61-23.63-45.48-48.06c-2.57-10.71-7.38-19.4-15.12-26.82
	c-1.17-14.08,4.83-25.86,12.18-37.08c11.49-17.52,27.19-31.03,43.82-43.2c22.68-16.59,31.16-40.42,33.24-66.38
	c1.43-17.84-6.35-34.93-12.34-51.73c-10.64-29.87-9.35-58.78,6.41-86.57C173.15,332.07,174.87,326.61,180.56,330.86z"/>
<path class="st367" d="M300.03,32.55c-10.23,2.23-19.26,2.1-28.06,3.85c-18.11,3.6-34.25,10.17-48.87,22.19
	c-31.91,26.24-56.25,58.49-78.62,92.73c-10.66,16.32-17.64,33.99-24.6,52c-6.42,16.59-14.22,32.81-25.32,47.1
	c-7.11,9.15-16.91,12.81-27.84,14.26c-4.23,0.56-6.23-0.81-4.54-5.6c7.65-21.74,9.64-44.58,12.86-67.18
	c0.98-6.86,2.96-13.45,5.49-19.86c8.51-21.53,19-42.16,29.87-62.52c13.3-24.94,30.77-47.12,52.01-65.65
	c20.37-17.76,43.04-32.68,69.19-40.68c16.96-5.18,33.54-5.4,46.97,9.83C284.65,19.91,292.2,25.5,300.03,32.55z"/>
<path class="st367" d="M223.18,1136.5c-31.08-4.05-60.54-13.5-88.4-27.69c-18.31-9.33-37.77-15.01-57.44-20.24
	c-1.86-0.49-3.79-0.67-5.67-1.09c-24.73-5.49-30.88-18.87-21.67-42.63c7.06-18.2,19.05-30.53,36.48-38.24
	c8.26-3.65,9.18-3.18,9.81,5.67c0.78,11.01,9.7,14.75,17.47,18.92c12.51,6.72,26.52,9.21,40.34,11.38
	c12.36,1.94,23.83,6.58,35.77,9.75c16.18,4.29,33.44,3.43,49,10.77c7.68,3.62,15.82,6.27,23.73,9.41c1.48,0.59,3.38,0.98,3.49,3.03
	c0.11,1.99-1.6,2.69-3.05,3.45c-0.73,0.38-1.5,0.68-2.24,1.04c-20.24,9.81-24.66,18.26-21.32,40.79c0.24,1.64,0.54,3.26,0.79,4.9
	c1.45,9.52-0.73,11.88-10.52,11.34C227.57,1136.94,225.38,1136.69,223.18,1136.5z"/>
<path class="st367" d="M567.87,352.99c-0.74-18.87-12.4-31.58-23.4-44.7c-15.86-18.91-34.49-34.06-55.19-47.77
	c-16.14-10.68-32.71-20.08-49.96-28.27c-32.64-15.49-66.72-21.99-102.52-12.18c-5.51,1.51-10.9,3.45-16.63,5.28
	c-1-2.51,0.67-4.28,1.7-5.91c10.16-16.03,20.82-31.72,33.04-46.28c3.58-4.27,8.04-5.24,13.36-4.17
	c69.65,13.93,133.35,40.5,187.2,88.11c9.62,8.5,16.56,19.07,23.38,29.75c2.39,3.74,2.19,7.89,1.58,12.02
	c-2.11,14.42-4.21,28.85-6.49,43.25C573.29,346.17,571.26,349.72,567.87,352.99z"/>
<path class="st367" d="M45.9,612.3c-8.93,0-13.81-4.01-17.62-9.15c-15.12-20.38-24.49-41.52-20.91-68.8
	c3.31-25.2,13.4-47.54,21.14-70.93c18.25-55.16,27.37-111.68,26.42-169.82c-0.12-7.1-0.73-14.3,2.8-21.05c1.41-2.7,2.52-4.62,6-4.28
	c7.38,0.73,14.3-1.53,20.66-4.78c6.51-3.33,6.83,0.1,6.73,4.94c-0.34,16.55-1.2,33.13-4.36,49.33
	c-6.17,31.71-8.32,63.84-11.87,95.85c-3.35,30.13-9.9,59.74-18.88,88.77c-7.66,24.76-10.93,50.54-16.88,75.72
	C36.44,589.51,38.05,601.17,45.9,612.3z"/>
<path class="st367" d="M180.56,330.86c-10.86,9.86-14.07,23.14-16.4,36.8c-3.46,20.33-0.61,39.64,7.09,58.89
	c5.16,12.9,10.14,26.92,10.37,40.52c0.44,25.45-6.23,49.64-25.69,68.14c-5.96,5.67-12.51,10.76-19.08,15.72
	c-23.01,17.38-40.18,38.81-47.4,67.31c-0.18,0.7-0.91,1.26-1.39,1.88c-5.94-8.94-13.08-17.17-16.39-27.67
	c8.45-24.59,23.92-43.96,44.33-59.66c13.61-10.47,25.56-22.38,32.81-38.32c-0.93-4.97,3.05-8.46,3.83-13.09
	c3.02-18.1-0.99-35.49-4.32-52.96c-4.3-22.55-10.7-44.81-9.07-68.13c0.51-7.26,0.34-14.72,5.03-21
	c11.2-29.55,37.89-38.2,64.04-47.57c-1.71,8.78-3.62,17.53-5.03,26.36c-0.69,4.34-2.23,6.44-6.94,7.2
	C190.89,326.17,184.94,326.57,180.56,330.86z"/>
<path class="st367" d="M423.75,846.63c3.24-0.46,7,1.65,8.64,8.04c1.85,7.18,4.86,14.06,6.85,21.21
	c3.26,11.69,0.66,15.78-11.27,17.71c-8.41,1.36-16.85,2.41-25.14,4.5c-30.08,7.57-58.38,19.42-85.24,34.86
	c-21.69,12.46-37.86,30.79-53.08,50.11c-0.95,1.2-1.16,3.72-3.15,3.11c-1.21-0.37-2.49-2.26-2.78-3.67
	c-2.43-11.58-5.19-23.13-6.67-34.84c-0.79-6.26,4.98-10.2,9.13-14.01c18.08-16.62,37.31-31.81,58.98-43.52
	c22.26-12.03,44.31-24.48,67.52-34.64C398.19,850.81,409.24,847.62,423.75,846.63z"/>
<path class="st367" d="M541.76,413.28c2.73-8.08,5.65-16.11,8.16-24.26c7.15-23.17-2.08-42.48-17.65-57.71
	c-30.82-30.16-65.39-55.17-105.86-71.79c-21.63-8.89-43.46-15.35-66.6-17.46c-14.22-1.29-28.01,0.27-40.17,8.83
	c-0.89,0.63-1.88,1.16-2.88,1.58c-0.44,0.19-1.05-0.01-1.94-0.05c0-4.91,0.18-9.84-0.06-14.75c-0.2-4.16,2.36-5.84,5.53-7.23
	c24.39-10.7,49.48-13.32,75.77-8.3c25.58,4.89,49.18,15.16,70.84,28.49c31.72,19.51,62.56,40.65,84.49,72.22
	c11.86,17.07,16.53,34.24,8.2,54.13c-5.68,13.58-10.54,27.5-15.77,41.27c-0.38,0.01-0.76,0.02-1.14,0.03
	C540.34,417.01,541.47,415.06,541.76,413.28z"/>
<path class="st367" d="M355.92,332.4c5.44,19.15,7.83,38.87,11.03,58.44c6.11,4.88,1,10.88,1.62,16.3
	c-0.76,10.3-0.8,20.58,1.03,30.79c-0.03,6.46,1.06,13.04-1.71,19.26c-1.93,7.36-3.67,14.79-7.97,21.27
	c-1.61,6.26-4.92,11.91-6.27,18.29c-0.84,3.99-4.2,5.24-7.88,5.2c-5.21-0.06-10.45,0.62-15.62-0.51c-1.25-0.66-2.94-2.22-2.52-2.87
	c4.71-7.28-1.05-15.85,2.98-23.1c0.29-0.86,0.59-1.73,0.85-2.6c1.46-5.03,1.66-10.22,1.82-15.4c0.21-3.08-0.35-6.14,1.18-9.19
	c1.65-3.28,0.48-6.42-2.04-9.03c-0.25-0.85-0.39-1.71-0.46-2.59c-0.33-3.15-2.59-5.72-2.69-8.95c-0.19-2.03,1.22-3.16,2.41-4.41
	c3.79-6.48,4.34-12.7-1.33-18.51c-1.23-1.26-1.1-2.99-1.38-4.58c-0.5-1.57-0.68-3.2-1.06-4.8c-1.42-4.56-4.44-8.62-4.24-13.68
	c2.03-4.29,2.88-8.86,3.14-13.57c0.11-1.19,0.65-2.16,1.59-2.9c-9.36,1.23-10.46-7.34-14.61-12.33c2.47-5.71-4.53-10.19-2.06-15.89
	c0.43-1.91,2.28-3.51,1.3-5.75c-0.16-10.67-2.39-21.3-0.56-32c0.57-2.88-0.23-6.06,1.83-8.62c0.72-0.38,1.49-0.71,2.17-1.16
	c17.54-11.69,17.54-11.69,29.11,5.2c4.91,3.2,4.98,8.87,6.24,13.61C353.89,316.18,355.83,324.16,355.92,332.4z"/>
<path class="st367" d="M384.19,745.22c-12.44-31.22-26.77-61.27-32.94-95.44c19.46,4.37,38.42,7.73,53.21-12.61
	c0.73,8.89,5.56,8.12,10.33,7.55c7.68-0.91,15.11-2.88,22.44-5.25c1.98-0.64,4.08-0.97,4.8-3.79c3.7-14.54,16.01-20.08,27.79-26.07
	c1.96-1,4.8-1.94,6.09,0.09c1.76,2.78-1.06,4.75-3.09,5.79c-24.73,12.71-32.26,37.89-43.23,60.32
	c-10.68,21.84-23.17,42.45-37.4,62.07C390.27,740.53,388.3,743.22,384.19,745.22z"/>
<path class="st367" d="M59.18,560.19c-5.5-8.18-4.42-14.78-1.46-22.59c10.09-26.56,17.13-53.95,21.11-82.22
	C84.4,415.85,91.38,376.53,97,337.01c3.99-28.07,6.66-56.33,3.33-84.74c-0.22-1.91,0.55-3.13,1.35-4.53
	c21.08-36.76,41.93-73.66,63.37-110.22c8.7-14.84,22.67-25.41,33.61-38.47c9.21-11,19.71-20.59,30.4-30.18
	c19.88-17.84,43.84-21.65,68.84-23.2c2.44-0.15,4.95,0.26,7.39,0.65c2.05,0.33,5.25,0.17,4.97,3.02c-0.29,2.95-3.51,1.48-5.44,1.9
	c-11.88,2.58-24.12-1.99-35.98,2.05c-21.74,7.4-41.06,18.59-56.53,35.79c-12.51,13.91-25.04,27.84-37.05,42.18
	c-23.91,28.56-36.41,63.18-50.78,96.84c-14.13,33.1-20.55,66.83-15.74,103.11c3.61,27.23-1.77,54.5-7.99,81.04
	c-7.97,34.01-14.09,68.47-24.39,101.94C71.65,529.49,65.07,544.01,59.18,560.19z"/>
<path class="st367" d="M406.87,552.45c3.12,3.38,7.01,4.94,11.58,4.9c7.69-0.6,14.32,0.89,19.66,7.37c4.19,5.09,4.22,9.24-1.8,11.72
	c-5.11,2.1-11,3.4-15.81,0.05c-6.35-4.42-11.24-3.2-16.06,1.9c-8.24,3.46-11.87,11.11-16.34,18.01c-1.81,7.13-5.63,13.3-8.73,19.82
	c-3.41,7.14-4.71,16.55,2.58,23.71c2.5,2.46,4.28,4.97,1.54,8.36c-9.21,1.62-17.09-1.63-24.45-6.74c-4.28-0.03-6.35-2.85-7.57-6.38
	c-4.7-13.58-7.13-27.14,0-40.82c2.14-4.12,4.78-7.25,9.17-8.79c11.47-13.25,25.61-22.55,42.13-29.28c-2.49-0.16-4.98-0.33-7.47-0.49
	c-6.79-1.14-14.38-0.95-16.54-9.87c-2.44-1.82-4.61-3.8-5.82-6.76c-3.39-8.31-9.69-13.87-17.39-18.06c-1.19-0.74-2.07-1.7-2.37-3.11
	c0.49-7.61,6-6.76,10.57-5.49c7.95,2.2,13.72,7.94,18.72,14.2c6.32,7.92,14.37,13.85,22.07,20.2
	C406.04,548.42,405.76,550.73,406.87,552.45z"/>
<path class="st367" d="M215.42,511.21c5.43-2.85,10.87-5.71,16.3-8.56c5.68-3.62,11.9-2.21,17.99-1.92
	c6.03-0.78,11.14,3.12,16.97,3.38c10.87,3.45,21.11,8.36,31.43,13.15c7.27,3.38,11.41,10.21,17.7,14.59
	c7.03,5.16,15.86,8.11,20.22,16.55c1.77,3.39-0.39,4.77-2.92,6.3c-8.89,5.36-18.19,8.3-28.62,5.63c-7.96-3.17-15.22-8.4-24.36-8.15
	c-2.36,0.06-3.8-1.88-5.44-3.27c-11.11-9.53-24.42-14.77-38-19.48c-3.48-1.2-7.31-1.45-10.06,0.69c-4.73,3.68-9.53,3.39-14.73,2.05
	c-7.19-0.87-4.77-6.85-4.57-10.36C207.59,517.15,208.04,511.08,215.42,511.21z"/>
<path class="st11" d="M304.4,555.91c15.23,1.65,18.89,0.73,28.23-7.06c-0.63-0.49-1-1.13-1.11-1.92c1.24-2.98,4.33-3.86,6.52-5.77
	c5.48-4.78,9.69-10.11,6.96-18.1c1.18-5.3,4.52-7.33,9.76-6.53c0.27,0.38,0.54,0.75,0.8,1.12c-0.01,1.13-0.01,2.27-0.02,3.4
	c-1.14,3.39,1.04,5.1,3.41,6.69c3.49,2.34,6.26,5.43,8.58,8.86c5.37,7.94,4.38,16.1-1.92,23.28
	c-11.33,12.93-27.47,15.54-42.58,20.27c-6.54,2.05-13.51,2.69-20.13,4.55c-14.99,4.21-28.37,3.36-38.14-10.73
	c0.04-0.37,0.07-0.75,0.11-1.12c6.31-2.86,12.47-6.35,19.77-2.87c1.72,0.82,2.8-1.2,3.87-2.07c-0.23-0.02,0.12-0.5-0.09-0.47
	c-2.48-1.86-5.37-1.41-7.97-2.07c-2.36-0.61-3.69-2.39-4.31-4.52c-0.73-2.51,1.04-4.21,2.83-5.4c4.19-2.79,8.68-4.31,13.76-2.24
	C296.48,554.73,300.1,556.86,304.4,555.91z"/>
<path class="st367" d="M239.65,922.93c0.67,4.43,0.18,6.51-2.56,5.23c-22.3-10.42-46.94-10.54-70.32-16.2
	c-7.73-1.87-10.11-5.52-6.49-12.74c0.36-0.73,0.44-1.59,0.74-2.36c2.72-6.91,4.71-15.35,10.33-19.33
	c6.16-4.37,12.55,3.34,18.87,5.47c9.69,3.26,19.68,4.9,29.54,7.23c7.45,1.76,12.84,5,14.43,13.42
	C235.56,910.89,238.19,917.9,239.65,922.93z"/>
<path class="st367" d="M229.39,888.39c-15.81-4.66-31.31-5.93-45.36-12.54c-2.51-1.18-6-1.39-4.27-6.17
	c8.23-22.68,19.04-44.34,26.61-69.93C217.55,829.58,224.18,858.07,229.39,888.39z"/>
<path class="st367" d="M494.11,519.2c9.4-11.95,17.18-24.86,22.87-39c2.89-7.2,7.16-13.58,11.38-20.03c3.98-6.1,4.25-0.83,5.61,1.51
	c-0.1,0.51-0.04,1,0.21,1.46c0.12,14.01-6.83,25.6-12.72,37.6c-6.85,13.95-16.61,26.27-22.5,40.74
	c-10.48,9.01-14.77,22.91-25.29,31.97c-3.23,2.78-6.4,5.02-10.67,5.45c-1.71,1.46-3.42,2.93-5.13,4.39
	c-0.01,0.81-0.18,1.59-0.51,2.33c-3.2,4.62-9.79,5.75-11.85,11.55c-14.14,7.15-29.31,10.47-44.95,12.11
	c-6.06-1.28-10.34-4.17-10.14-11.14c-0.06-1.04,0.01-2.07,0.23-3.09c1.58-2.81,3.47-4.71,7.21-3.91c9.04,1.93,17.57,0.08,25.67-4.08
	c0.45-0.3,0.91-0.81,1.39-0.83c9.93-0.29,15.84-8.07,23.49-12.6c6.21-3.67,8-10.88,12.26-16.13c0.77-0.94,1.61-2.4,2.29-3.68
	c3.63-5.33,7.27-10.65,9.99-16.53c1.03-2.7,3.56-3.21,5.86-4.05c1.67-1,3.49-2.21,3.8-4.07
	C483.74,522.55,488.94,520.96,494.11,519.2z"/>
<path class="st11" d="M494.16,538.99c6.78-13.45,16.42-25.22,22.71-38.97c5.66-12.35,11.53-24.6,17.31-36.89
	c7.27,29.86,6.16,58.67-10.17,85.8c-2.2,3.66-4.86,3.81-8.19,3.7c-3.76,2.89-5.25-0.34-6.81-2.7c-3.3-5.01-7.79-8.05-13.7-9.03
	C494.69,540.41,494.31,539.77,494.16,538.99z"/>
<path class="st11" d="M50.23,554.02c5.46,9.98,7.26,20.91,12.14,30.84c8.17,16.64,16.79,32.84,29.41,46.59
	c1.29,1.41,2.61,2.92,3.42,4.63c1.63,3.43,4.31,7.66,1.22,10.69c-2.49,2.45-5.07-1.92-7.74-2.96c-14.59-5.7-25.14-16.58-34.98-28.15
	c-7.36-8.66-11.15-18.58-10.5-30.41C43.81,574.43,46.73,564.33,50.23,554.02z"/>
<path class="st11" d="M463,578.9c12.77-11.43,20.93-26.48,31.15-39.91c0,0,0.62,0.51,0.62,0.51c0.92,0.56,2.44,0.89,2.48,1.96
	c0.3,8.36,5.4,14.71,8.79,21.79c1.39,2.9,3.91,6.3-0.45,9.1c-5.13,12.14-13.73,21.53-23.59,29.94c-3.92,3.35-8.6,3.95-13.13,2.64
	c-4.4-1.27-2.83-5.96-3.66-9.22C463.82,590.2,466.71,584.11,463,578.9z"/>
<path class="st11" d="M401.81,606.47c14.18-3.67,28.77-6.14,41.53-14.02c6.28-0.76,10.26-5.23,14.62-9.09l-0.08-0.06
	c7.16,12.34,4.77,24.55-6.57,32.17c-4.01,2.69-7.25,5.94-9.38,10.2c-4.93,9.83-13.69,12.83-23.74,13.88
	c-5.87,0.61-8.98-1.93-9.36-7.66c-0.37-5.49-0.2-11.02-0.67-16.5c-0.22-2.53-0.52-6.42-4.83-2.96c-2.2,0.68-3.79,0-4.36-2.26
	C398.4,607.87,399.27,606.46,401.81,606.47z"/>
<path class="st367" d="M279.45,307.73c-10.97,2.13-21.22,7.81-32.85,6.68c-2.62,1.21-5.27-0.52-7.87,0.05
	c-3.88,0.84-6.17-1.21-6.89-4.48c-0.75-3.42,0.23-6.52,4.43-7.44c1.81-0.4,3.36-1.78,5.35-1.66c16.35-8.91,35.13-12.83,50.09-24.66
	c3.65-2.89,8.46-1.63,12.78-2.01c-0.03,3.4-0.06,6.81-0.09,10.21c0.97,8.81-7.85,11.55-10.98,17.82
	C289.11,304.91,286.42,311.83,279.45,307.73z"/>
<path class="st367" d="M537.34,1021.39c-1.4,4.92-5.32,8.45-9.15,11.96c-14.58,13.37-15.62,13.18-24.9-4.11
	c-0.39-0.73-0.8-1.44-1.2-2.16c-7.65-13.88-6.13-16.62,9.88-17.22c8.54-0.32,16.01,3.3,23.37,7.06
	C536.99,1017.76,537.72,1019.12,537.34,1021.39z"/>
<path class="st367" d="M315.94,333.36c-0.53,1.18-1.05,2.37-1.58,3.55c-1.4,2.84-2.95,3.53-5,0.49c-1.61-2.4-3.94-3.68-6.89-3.75
	c-7.64-2.42-15.5-4.55-16.79-14.4c-0.22-1.69-0.11-3.24,0.83-4.69c5.81-8.34,13.78-9.35,18.05-2.31c2.18,0.9,4.37,1.79,6.55,2.69
	C320.39,318.22,321.47,322.34,315.94,333.36z"/>
<path class="st367" d="M547.53,487.92c-1.05,2.66-0.99,5.94-5,8.11c0.16-20.41-7.57-39.14-7.43-58.99
	c0.03-4.84-0.51-9.87,3.92-13.43c4.07,4.79,2.84,11.69,6.46,16.62c1.5,10.33,5.32,20.48,2.23,31.14
	C547.62,476.87,549.93,482.42,547.53,487.92z"/>
<path class="st367" d="M335.93,424.84c-0.51,1.23-1.03,2.45-1.54,3.68c-1.6,1.03-3.37,2.38-4.96,0.34
	c-3.9-5.03-8.92-3.84-13.98-2.79c-3.65-2.63-7.71-3.26-12.19-3.38c-5.86-0.15-11.92-0.21-17.04-3.92
	c-4.86-0.28-9.76-0.29-14.57-0.91c-7.12-0.92-8.88-4.03-5.67-10.47c1.89-3.77,4.75-7.06,7.17-10.56c0.22-0.45,0.44-0.9,0.66-1.35
	c10.81-4.88,21.82-4.98,32.98-1.44c2.29,0.34,4.37,0.89,6.94,0.34c6.39-1.39,12.28,0.46,17.21,4.92
	C341.49,406.39,342.86,413.41,335.93,424.84z"/>
<path class="st367" d="M272.83,447.68c-10.98,6.14-21.97,12.27-32.95,18.41c-3.51,3.56-5.88,2.49-7.77-1.73
	c-2.05-4.57-2.16-9.3-1.68-14.13c0.87-4.82,4.83-3.44,7.86-3.92c11.46-5.98,22.37-12.89,31.11-22.46
	c5.16-5.66,11.28-2.35,16.86-3.56c7.15-0.72,14.24,0.79,21.37,0.68c1.89-0.03,4.11-0.22,4.65,2.26c0.47,2.16,0.44,4.47-1.53,6.03
	C299.47,438.19,287.29,445.31,272.83,447.68z"/>
<path class="st367" d="M318.26,352.42c2.76,8.6,14.26,9.29,17.31,18.01c-4.08,2.03-4.2-2.61-6.63-2.64
	c-2.33,2.25-1.53,5.14-1.16,7.68c0.43,2.95-0.17,5.19-2.43,7.04c-6.11,1.76-7.97-4.7-12.32-6.35c-4.6-2.53-9.57-3.05-14.69-2.78
	c-7.31,2.88-15.1,0.24-22.51,2.03c-2.99,0.72-3.7-2.91-6.09-3.39c-1.78-0.23-4.74,3.36-5.08-1.56c-1.51-4.99-0.27-10.2-1.17-15.25
	c-0.31-1.76,0.51-3.2,2.05-4.08c5.91-3.37,10.78-8.88,18.29-9c4.61,0.63,9.24,0.64,13.88,0.55
	C304.57,345.9,313.4,344.97,318.26,352.42z"/>
<path class="st367" d="M291.32,299.15c5.34-1.34,7.17,0.01,4.48,5.47c-1.78,3.6-3.1,7.43-4.63,11.16
	c-3.24,9.47-5.76,19.28-12.61,27.06c-6.84,2.73-11.23,9.53-18.66,11.29c-7.63,4.3-13.64,11.08-21.89,14.44
	c-1.53,1.9-3.49,1.8-5.05,0.45c-4.71-4.1-3.92-15.03,1.42-18.88c4.83-3.48,7.73-9.32,13.83-11.22c12.14-8.66,23.1-18.51,31.24-31.18
	C283.41,304.87,287.37,302.01,291.32,299.15z"/>
<path class="st367" d="M251.45,501.54c-5.62-2.63-12.42,0.26-17.74-3.79c13.65-18.45,34.13-26.3,54.08-34.99
	c5.79-7.88,14.31-10.8,23.34-12.45c3.47-0.64,5.93,1.98,8.13,4.37c1.43,3.95-2.31,5.49-4.17,7.06c-8.53,7.19-16.08,15.62-26.38,20.7
	c-3.09,1.52-6.54,4.05-6.73,8.43c-0.17,3.89-2.97,5.65-5.73,7.5c-4.91,1.19-7.51,6.86-13.08,6.75
	C259.26,503.91,254.92,504.16,251.45,501.54z"/>
<path class="st367" d="M273.15,396.83c-11.27,6.25-21.45,14.57-34.23,17.94c-1.29,0.34-2.61,0.56-3.91,0.83
	c-5.62,1.67-7.05-2.45-8.03-6.32c-1.47-5.78,1.53-10.21,7.96-12.74c6.36-3.07,12.68-6.22,19.09-9.18
	c6.57-3.03,12.43-6.78,15.67-13.61c9.26-6.98,19.33-4.04,29.28-2.4c0.86,0.34,1.6,0.87,2.2,1.58c1.34,3.26-1.1,4.97-2.83,7.01
	c-6.87,8.11-15.82,13.12-25.45,17.11L273.15,396.83z"/>
<path class="st11" d="M248.21,338.91c-2.71,2.61-5.36,5.29-8.15,7.83c-8.53,7.76-8.95,12.02-2.05,21.82
	c1.55,3.31,0.47,5.77-2.38,7.77c-5.78,4.07-16.87,1.91-21.42-4.22c-5.07-6.82-3.78-13.73,3.67-19.04c1.54-1.1,3.28-2.32,5.07-2.6
	c8.06-1.27,15.24-4,20.66-10.47C244.7,338.7,246.51,338.59,248.21,338.91z"/>
<path class="st11" d="M234.94,396.54c-4.69,6.37-5.91,12.73,0.07,19.06c1.21,2.72,3.2,5.49,0.32,8.29c-2.63,2.56-5.82,2.7-9.21,1.76
	c-9.16-2.55-14-9.97-12.07-18.61C215.95,398.52,224.12,394.42,234.94,396.54z"/>
<path class="st11" d="M241.62,300.88c-0.85,0.68-1.75,1.31-2.54,2.06c-5.63,5.29-5.24,7.1,2.09,9.63c1.81,0.62,3.62,1.23,5.43,1.84
	c-2.27,2.43-6.05,2.3-8.18,5.3c-4.42,6.24-9.99,4.7-15.2,1.18c-4.73-3.19-9.07-7.31-6.37-13.66c2.54-5.98,7.33-9.76,14.34-8.85
	C234.72,298.84,238.15,300.02,241.62,300.88z"/>
<path class="st367" d="M485.74,413.74c7.3,2.2,14.29,4.45,20.5,9.67c6.9,5.78,8.85,12.24,7.05,20.35
	c-2.86,12.88-6.8,25.45-11.56,37.76c-2.9,7.49-4.65,15.34-4.84,23.29c-0.12,4.95-1.34,9.07-4.09,12.96
	c-1.33,5.39-5.24,9.27-8.31,13.53c-3.02,4.19-5.3,2.66-5.73-2.12c-0.37-8.04,0.35-16.04,0.93-24.03c0.32-4.45,3.62-7.79,5.08-11.75
	c2.63-7.16,3.07-14.84,3.26-22.45c0.23-0.48,0.44-1.01,0.78-1.42c4.14-4.93,8.13-9.98,5.07-16.95c-3.15-7.19-9.73-8.29-16.48-8.3
	c-5.36,0-7.37-2.31-6.97-7.52c0.28-3.62,0.08-7.28-0.76-10.87c0.41-4.46-1.39-8.77-0.96-13.23
	C474.63,409.28,480.2,411.39,485.74,413.74z"/>
<path class="st367" d="M363.91,456.26c1.05-5.95,2.11-11.9,3.16-17.85c0.17-0.41,0.33-0.82,0.5-1.24c3.34-2.51,5.39-0.69,7.4,2.02
	c2.98,4.02,4.66,8.65,6.64,13.15c0.47,4.03,3.42,6.05,6.48,7.98c4.01,8.13,12.85,10.85,18.82,16.8c1.62,1.09,2.85,2.43,2.79,4.55
	c6.44,3.79,12.88,7.57,19.33,11.36c3.2,0.74,5.76,2.83,8.69,4.11c2.98,1.3,4.5,2.89,3.75,6.35c-0.84,3.86-3.07,4.8-6.57,3.81
	c-3.4,1.65-6.11,0.44-8.91-1.7c-4.29-3.28-8.91-6.11-14.21-7.56c-1.95,0.77-4.03,0.63-6.05,0.94
	c-14.25-4.95-26.68-12.22-33.53-26.55c-1.01-4.77-7.12-6.28-7.38-11.54C364.23,459.41,363.79,457.89,363.91,456.26z"/>
<path class="st367" d="M469.42,413.5c0.1,4.28,3.18,8.06,2.09,12.54c-1.31,9.01,3.63,16.96,4.19,25.77
	c1.45,22.87-5.07,44.72-7.59,67.07c-1.39,12.31-0.01,24.87-3.35,36.98c-9.09,10.87-15.93,23.79-28.51,31.47
	c-3.02,1.84-6.29,3.27-9.44,4.88c-3.3,0.69-4.69-0.61-3.75-3.88c0.51-1.78,2.09-3.63-0.28-5c-2.12-1.22-4.33-0.42-6.12,0.94
	c-3.28,2.5-6.4,4.8-9.11-0.57c-2.37-3.35-5.25-6.35-7.13-10.05c6.2-1.98,13.61-2.8,11.97-13.5c-0.68,10.04,5.32,13.23,12.5,14.93
	c5.12,1.21,10.94,0.42,12.3-5.04c1.34-5.4-3.37-8.75-8.39-10.43c-3.34-1.12-7.14-0.27-10.32-2.27c11.51-3.85,19.34,3.79,27.1,9.71
	c3.69,2.81,4.89,3.24,7.45-0.32c3.32-4.62,5.34-9.56,5.04-15.34c-1.28-24.66,3.18-48.68,7.05-72.89c2.9-18.12,3.61-36.64,2.78-55.1
	c-0.15-3.29,0.02-6.59,0.04-9.88C468.41,412.95,468.91,412.95,469.42,413.5z"/>
<path class="st367" d="M408.22,438.49c9.28,8.92,19.26,16.81,31.42,21.52c0.46,0.13,0.93,0.25,1.39,0.38
	c1.36,3.49,3.59,6.94,0.45,10.61c-2.12,0.86-3.9,2.77-6.51,2.11c-7.4-0.89-13.31-5.35-19.85-8.31c-3.41-1.25-7.25-1.47-10.04-4.22
	c-0.96-0.6-1.92-1.19-2.89-1.76c-3.42-2.18-4.74-5.87-6.62-9.17c-5.05-6.53-11.68-10.88-19.17-14.09
	c-4.34-4.96-10.33-8.61-9.15-17.07c0.56-4.03,1.68-5.6,5.21-6.19c2.13-0.5,3.68-2.05,6.41,0.26c8.4,7.1,18.52,11.93,26.68,19.46
	C407.65,433.68,409.08,435.61,408.22,438.49z"/>
<path class="st367" d="M428.26,413.54c4.9,3.17,11.11,3.71,15.49,8.13c2.19,2.21,3.51,3.92,1.56,6.76c1.23,2.35,1.33,4.28-1.33,5.93
	c-3.17,1.96-5.55,0.16-7.94-1.33c-9.32-5.78-19.02-8.51-29.73-4.16c-1.91,0.81-3.55,0.55-5.3-0.71
	c-11.59-8.3-24.24-15.33-32.77-27.31c-0.41-5.27-0.46-10.51,1.46-15.57c7.36,6.88,13.74,15.07,24.02,18.07
	C405.51,405.78,417.32,408.17,428.26,413.54z"/>
<path class="st367" d="M409.86,517.9c7.63,5,16.2,8.78,21.64,16.63c1.62,0.97,2.98,2.23,3.9,3.88c2.1,3.77,0.86,6.92-3.19,6.9
	c-4.03-0.02-8.78,0.98-12.14-2.78c-3.09-1.74-6.18-3.48-9.27-5.22c-3.3-0.89-6.71,0.1-10.02-0.57c-13.12-11.3-27.23-21.4-40.2-32.91
	c-3.75-3.33-6.62-6.84-6.87-11.96c-0.27-5.59,3.23-8.15,8.43-6.01c6.15,2.53,11.56,6.41,16.7,10.54c7.98,6.4,16.54,11.86,25.63,16.5
	C406.48,514.35,408.69,515.56,409.86,517.9z"/>
<path class="st11" d="M405.74,424.74c10.98,0.29,21.89,1.21,31.84,6.3c3.97,2.03,5.41-1.02,7.73-2.61c1.75-0.59,2.92-3.38,4.93-2.25
	c3.84,2.16,0.13,6.04,1.69,9.56c4.52-6.32,2-11.37-1.88-16.5c5.72,1.88,7.97,5.85,7.4,11.08c-0.63,5.78-3.31,10.52-9.41,12.16
	c-5.3,1.43-10.1,0.37-12.49-4.99c-3.76-8.43-11.41-8.33-18.67-9.27c-2.71-0.35-4.14,1.17-4.34,3.73c-0.24,3.02-1.69,5.12-4.31,6.52
	c-1.52-1.25-3.03-2.49-4.55-3.74c-1.2-1.78-0.85-3.98-1.82-5.95C399.94,424.86,402.65,424.41,405.74,424.74z"/>
<path class="st11" d="M420.07,542.53c1.3,0.32,2.59,0.72,3.91,0.96c8.17,1.49,10.27-1.02,7.52-8.96c1.5-0.53,3.47-0.63,4.4-1.66
	c3.25-3.62,6.99-4.19,11.01-2.08c3.55,1.86,4.36,5.46,4.13,9.15c-0.3,4.94-2.44,8.96-7.08,11.12
	C440.66,552.59,422.68,546.02,420.07,542.53z"/>
<path class="st11" d="M434.97,473.11c1.03-1.16,2.07-2.32,3.1-3.48c5.93-2.42,1.92-6.43,1.57-9.86l0.01,0.24
	c4.89-5.15,9.42-3.3,13.47,1c4.37,4.63,3.73,13.28-1.03,18.08c-4.35,4.38-9.61,4.46-15.09,0.17c1.61-2.94,3.98,0.87,5.86-0.79
	C440.98,475.58,437.41,475.13,434.97,473.11z"/>
<path class="st11" d="M434.89,507.31c4.68-4.32,4.54-7.98-1.36-11.05c-1.62-0.84-3.01-2.13-4.51-3.21c4.08,0.5,8.15,1.06,12.24,1.47
	c4.64,0.47,7.65,3.03,9.04,7.31c1.34,4.1,0.01,7.83-3.28,10.36c-3.71,2.85-8,5.8-12.84,3.46
	C428.23,512.77,431.47,509.84,434.89,507.31z"/>
<path class="st367" d="M403.96,532.37c2.28,1.65,4.57,3.29,6.85,4.94c-5.48,3.96-0.66,10.6-3.93,15.14
	c-1.14-1.03-2.27-2.05-3.41-3.08c-1.83-3.88-4.43-7.38-3.93-12.17C399.86,534.11,400.05,531.78,403.96,532.37z"/>
<path class="st367" d="M283.17,444.81c11.4-8.2,22.81-16.4,34.21-24.6c8.44-2.92,13.47,1.16,17,8.3c0.41,2.65,0.82,5.31,1.23,7.96
	c-8.99-0.76-17.66,0.87-26.2,3.48c-6.17,2.2-12.48,3.97-18.82,5.51C288.27,446.04,285.33,448.13,283.17,444.81z"/>
<path class="st13" d="M345.21,390.49c-8.25-22.22-15.86-44.65-22.71-67.32c0.69-0.24,1.39-0.47,2.08-0.71
	c7.53,22.64,15.06,45.29,22.59,67.93C346.59,391.9,345.94,391.94,345.21,390.49z"/>
<path class="st367" d="M269.78,557.06c9.02,7.86,19.34,11.11,31.22,8.91c-2.86,1.48-5.71,2.96-8.57,4.44
	c-13.43,4.88-26.33,3.44-38.76-3.34c-1.79-1.04-3.58-2.07-5.37-3.11c-4.68-1.06-8.09-5.6-13.41-4.91c-3.54-1.06-6.05-3.65-8.73-5.96
	c-5.87-1.38-7.4-6.33-9.1-11.14c-1.62-3.95-7.41-6.75-3.38-12.25c16.11-3.61,28.52,3.23,39.85,13.75
	C258.7,548.23,263.51,553.54,269.78,557.06z"/>
<path class="st367" d="M332.53,547.39c-5.51-2.04-9.84-5.47-12.98-10.5c-2.66-4.27-0.09-4.42,3.1-4.28
	c1.21-1.17,2.29-2.46,3.11-3.93c5.5-7.18,13.61-2.89,20.34-4.64c0.38,0.13,0.76,0.26,1.15,0.39c3.07-0.15,3.65,1.59,3.05,4.12
	C347.76,539.33,343.86,547,332.53,547.39z"/>
<path class="st367" d="M342.47,501.35c12.74,2.67,15.34,5.89,13.28,16.44c-3.46,1.41-6,3.99-8.5,6.63c0,0,0.29-0.17,0.29-0.17
	c-3.67,1.27-7.38,3.34-10.75-0.61c-3.1-3.23-0.82-6.99-1.03-10.51c-0.24-2.78,2.06-4.24,3.27-6.26
	C340.2,505.06,341.06,503.03,342.47,501.35z"/>
<path class="st367" d="M464.75,555.87c-5.23-12.05-2.57-24.61-0.83-36.55c4.51-30.97,9.39-61.82,7.59-93.27
	c-0.45,10.4,3.37,15.02,14.9,14.96c10.5-0.05,16.38,11.59,12.79,22.03c-1.05,3.05-3.04,5.78-4.59,8.65
	c-5.75,6.45-6.69,14.92-7.99,22.68c-1.87,11.16-5.01,21.99-7.14,33.06c-0.86,4.44,0.51,9.18-1.98,13.34
	C473.74,546.22,469.56,551.31,464.75,555.87z"/>
<path class="st11" d="M393.58,598.03c5.49-5.33,10.99-10.67,16.48-16c5.82-10.51,14.37-3.47,21.6-2.9c3.88,0.31,3.63,4.05,1.08,6.85
	c-1.93,2.12-5.65,2.54-5.94,6.24c-4.83,3.2-10.33,2.87-15.74,3.03C405.11,595.43,399.05,594.88,393.58,598.03z"/>
<path class="st11" d="M477.49,540.77c1.31-22.21,7.02-43.56,12.71-64.91c0.58-2.16,1.68-4.11,4.4-4.17
	c-6.46,18.74-9.39,38.32-13.74,57.57c-1.49,2.42-0.87,4.68,0.53,6.88C480.09,537.68,478.79,539.23,477.49,540.77z"/>
<path class="st11" d="M217.05,541.93c3.77,3.01,7.55,6.02,11.32,9.04c0.21,6.17,4.63,4.87,8.39,4.75c4.36,2.02,7.98,5.07,11.53,8.23
	c-4.07-0.17-7.4-0.32-10.55,4c-3.66,5.01-9.98,5.42-15.6,2.38c-6.82-3.69-9.01-9.9-7.78-17.32
	C214.99,549.27,216.14,545.62,217.05,541.93z"/>
<path class="st367" d="M437.23,621.66c3.67-2.95,1.56-7.1,5.26-11.01c0.96,7.29-0.3,12.21-5.64,15.59
	c-3.9,2.47-8.01,2.44-11.06-1.46c-2.53-3.23-3.28-7.28-1.11-10.84c2.12-3.48,6.19-3.65,9.65-2.71
	C439.98,612.77,436.32,617.66,437.23,621.66z"/>
<path class="st11" d="M304.81,330.61c0.56,3.9-4.23,7.87,1.31,12.22c1.54,1.21-5.58,2.34-8.24,4.36c-4.45-0.02-8.89-0.05-13.34-0.07
	c-1.27-0.32-2.69-1.18-3.8-0.88c-7.23,1.92-6.59-2.46-5.85-7.04c5.42-7.8,10.84-15.61,16.27-23.41c0.11,0.8,0.22,1.6,0.33,2.41
	c-2.74,4.72-1.8,7.19,4.04,7.84C298.95,326.4,302.48,327.55,304.81,330.61z"/>
<path class="st367" d="M266.44,506.18c-0.98-1.43-3.03-2.73-0.59-4.6c1.96-2.52,4.28-4.63,7.14-6.09
	c5.09-5.72,11.19-10.27,17.68-14.13c6.98-4.15,14.77-4.91,22.73-3.06c6.2-1.11,12.4-2.21,18.6-3.32c1.84,11.92,1,13.92-10.25,17.12
	c-12.25,3.49-24.74,6.14-37.12,9.15C278.56,502.9,272.5,504.54,266.44,506.18z"/>
<path class="st367" d="M405.11,455.86c-2.16,6.07-14.32,9.49-21.94,6.18c-1.46-2.24-2.93-4.48-4.39-6.72
	c7.09-0.99,13.15-4.93,19.88-6.95C400.81,450.87,402.96,453.37,405.11,455.86z"/>
<path class="st367" d="M360.6,476.39c0.69-4.01,1.51-8,2.02-12.03c0.48-3.8,2.88-4.13,5.88-3.74c2.34,3.08,4.69,6.17,7.03,9.25
	C370.56,472.05,365.58,474.22,360.6,476.39z"/>
<path class="st367" d="M328.43,511.35c4.88-6.38,9.31-2.11,13.8,0.58c-0.18,3.43-1.42,6.51-3.2,9.4c-1.73,5.73-6.18,8.73-11.2,11.16
	c-1.73,0.04-3.46,0.08-5.19,0.12c-0.21-3.15-2.69-3.12-4.89-3.48C321.32,523.2,324.88,517.28,328.43,511.35z"/>
</svg>
