<svg version="1.1" id="Слой_1" xmlns="http://www.w3.org/2000/svg" x="0" y="0" viewBox="0 0 585 1181" xml:space="preserve"><style>.st11{fill:#e8b4ef}.st367{fill:#cc37d8}</style><path class="st11" d="M58.32 1088.39c16.07 6.71 33.28 9.58 49.84 14.67 14.35 4.41 27.26 11.71 40.83 17.66 23.28 10.22 47.26 19.5 72.49 20.85 15.15.81 27.24 1.53 34.97 16.25 1.74 3.3 6.1 5.95 10.33 6.29 9.07.73 9.62 5.36 6.42 12.27-.69 1.5-1.2 3.08-1.79 4.62H2.12c-4.41-4.67-.79-9.64.77-13.37 10.87-25.9 24.31-50.3 45.2-69.73 3.4-3.16 5.83-7.42 10.23-9.51zM276.35 1181c1.77-15.67 12.07-20.76 26.17-21.14 3.02-.08 6.04-.45 9.05-.35 39.54 1.35 78.36-2.15 116.28-14.54 17.2-5.62 35.06-9.29 52.74-13.32 17.4-3.96 33.22-11.2 48.08-20.9 10.59-6.91 13.07-6.88 17.35 5.01 7.81 21.65 16.72 42.95 22.74 65.23-97.46.01-194.93.01-292.41.01z"/><path class="st367" d="M418.95 840.26c-57.32 18.87-109.69 45.77-155.25 85.25-3.11 2.7-6.37 5.38-8.88 8.6-4.82 6.18-6.72 3.24-8.19-2.16-4.61-16.97-10.31-33.73-13.58-50.95-6.18-32.56-17.34-63.75-24.77-95.9-5.29-22.88-11.59-45.29-20.26-67.06-1.82-4.58-3.45-9.66-6.63-13.2-10.69-11.88-14.95-26.89-20.34-41.15-8.98-23.76-4.73-46.81 21.75-63.01 20.97-12.83 43.88-12.64 66.87-13.77 2.45-.12 5.81.77 7.19-.5 7.11-6.56 11.64-2.2 17.38 2.39 4.8 3.84 11.4 3.55 17.52 2.61 13.06-2 25.9-5.01 38.62-8.56 3.02-.84 6.32-2.74 6.1 3.59-.63 17.73 3.23 34.99 6.79 52.23 7.96 38.5 22.86 74.64 37.64 110.84 8.84 21.65 17.27 43.47 25.66 65.3 3.52 9.21 8.2 17.84 12.38 25.45z"/><path class="st11" d="M232.81 497.99c-2.62.34-3.86-1.55-5.4-3.17-13.72-14.43-29.42-27.96-22.32-51.43-2.9-45.47-2.37-90.83 3.86-136.06 1.26-9.17 5.35-17.34 7.87-26.05.88-3.07 2.89-6.02.86-10.53-5.18 6.6-6.4 14.21-9.36 20.97-3.67 4.74-8.61 7.58-14.15 9.57-8.86 3.18-16.76 8.22-24.78 13.02-11.26 6.74-17.37 17.29-21.97 29.05-1.73 7.92-8.8 14.06-7.32 23.11.7 4.26-.3 8.83 3.11 12.44 1.41 1.49 1.46 3.66 1.22 5.5-2.17 16.92 3.65 32.74 6.76 48.9 2.82 14.61 4.41 29.3 3.46 44.1-.35 5.54 3.59 11.37-.9 16.64-7.67 17.28-19.85 30.81-34.92 41.93-18.77 13.86-32.23 31.89-41.39 53.22-1.22 2.83-2.09 5.28-5.78 3.26-.76-1.47-1.54-2.93-2.28-4.4-5.81-11.6-8.31-22.17-2.32-35.83 10.35-23.61 17.94-48.51 23.21-73.94 5.58-26.96 12.9-53.52 17.65-80.67 4.85-27.77 7.58-55.53 3.86-83.74-3.18-24.09 2.57-46.98 10.7-69.53 10.85-30.11 24.5-58.92 39.56-87.05 9-16.81 22.31-30.61 34.87-44.76 12.2-13.75 24.07-28.18 39.54-38.34 14.61-9.59 29.67-19.06 48.51-18.08 5.45.28 10.98-.45 16.45-1 10.76-1.08 13.7 1.5 17.29 11.89 5.9 17.07 1.81 33.2-3.3 49.31-5.77 18.2-9.17 36.5-9.81 55.83-.77 23.07 4.08 45.41 5.05 68.16.26 6.05.15 12.12.37 18.17.15 4.01-1.94 6.67-4.88 8.82.93 2.39 4.84.82 4.82 3.91-.03 5.41-5.87-1.41-6.45 3-11.53 7.81-23.67 14.6-36.54 19.85-8.38 3.41-16.65 7.03-24.88 10.74-1.83.96-3.51 1.03-5.27-.39-2.86-2.32-6.24-1.82-9.38-.96-4.51 1.24-7.35 4.27-5.71 9.11 1.65 4.86 5.44 6.51 10.48 4.74 5.05-1.77 8.27-7.16 14.22-7.15 8.13.07 15.74-2.39 23.38-4.69 3.12-.94 6.25-2.43 9.47-.28 4.12 3.13 2.05 6.26-.14 9.21-5.94 8.01-13.27 14.69-20.69 21.25-2.88 2.55-5.93 4.91-8.83 7.43-5.41 4.38-10.07 9.8-18.41 8.9-3.12-.34-6.74 1.85-9.77 3.74-3.44 2.15-6 4.98-5.55 9.37.41 4.01 3.06 6.35 6.65 7.63 4.07 1.45 7.56.53 10.25-2.99.67-.87 1.42-1.68 2.12-2.52 6.97-6.99 14.52-13.16 23.87-16.83 7.37 2.92 9.03 9.7 10.99 16.29 1.26 1.38 1.1 3.2 1.55 4.83.22.83.43 1.66.65 2.5-1.3 8.33-7.66 12.29-14.22 15.65-7.29 3.75-14.83 7.04-22.22 10.59-5.6-2.39-10.56-1.17-14.68 3.07-3.92 4.04-4.51 8.67-1.01 13.28 3.3 4.34 6.87 4.07 9.95-.68.8-1.23 1.86-1.91 2.92-2.73 11.19-5.99 23.3-10.26 33.43-18.19 2.08-1.63 4.31-2.01 6.48-.04 2.77 2.63 1.68 5.17.26 8.16-3.64 7.61-2 10.04 6.64 11.21 2.97.4 6.99-1.14 8.12 3.6.06.84 0 1.66-.16 2.49-.75 1.47-1.52 3.51-3.14 3.53-10.34.11-16.65 7.47-24.15 12.85-7.1 5.09-13.89 10.77-22.39 13.6-.82.12-1.87.33-2.35-.26-3.73-4.61-8.73-3.56-12.29-1.14-4.63 3.15-4.6 8.99-3.33 14 1.23 4.84 4.26 8.56 10 8.8 3.38.14 6.28-.22 6.46-4.56.14-.85.3-1.68.41-2.54.93-3.16 3.74-4.4 6.18-5.99 7.17-4.65 15.03-8.07 22.4-12.38 2.31-1.35 4.91-2.79 7.68-.73 1.6 1.33 3.85 1.95 4.61 4.2-.75 7.48 4.55 7.09 9.46 7.23 1.4 1.21 1.46 3.04 2.18 4.57 1.54 4.72-2.25 5.5-5.13 6.78-13.03 5.79-25.8 12-37.32 20.57-4.17 3.1-7.41 7.53-12.69 9.08-.77.05-1.51.03-2.25-.02zm91.37 598.61c-13.41 1.16-24.01-7.24-36.06-10.68-3.54-1.01-2.96-5.88-2.92-8.83.25-17-4.93-33.15-7.3-49.72-1.53-10.67-4.16-21.23-9.24-30.71-3.4-6.33-1.88-10.51 2.08-15.48 22.85-28.68 51.43-49.18 85.53-62.64 23.88-9.42 47.82-18.06 73.55-20.73 3.92-.41 9.59-4.18 11.16-2.76 3.36 3.05 4.87 8.37 6.62 12.96 9.73 25.47 21.37 50.12 31.84 75.27 8.44 20.27 14.11 41.75 26.6 60.22 3.28 4.84-.95 5.45-3.62 6.9-15.59 8.4-32.69 10.92-49.93 13.19-31.37 4.13-62.56 9.31-92.52 19.96-4.88 1.73-9.56 4.27-13.96 7.02-6.76 4.21-13.87 6.6-21.83 6.03zm-9.89-805.91c.75-9.31 1.05-18.69 2.41-27.91 1.05-7.08 7.3-9.89 13.17-12.37 15.16-6.4 30.87-4.22 46.35-2.06 8.94 1.25 17.85 3.56 26.41 6.47 40.79 13.87 77.19 35.33 109.13 64.34 4.27 3.88 8.79 7.47 13.08 11.33 13.52 12.16 22.75 26.68 23.12 45.42.16 8.28-3.51 15.91-6.22 23.62-4.9 13.92-11.91 27.13-11.01 42.75.39 6.71 3.92 12.68 3.24 19.42-6.8 4.2-9.33 11.44-12.2 18.16-5.76 13.5-12.74 26.26-21.39 38.08-1.72 2.35-3.04 6.62-7.59 3.78-1.08-.67-2.03-1.48-2.97-2.34 1.7-12.85 3.53-25.71 7.5-38.14 3.34-10.45 7.07-20.75 10.04-31.34 3.74-13.32 2.55-23.13-17.7-30.25-2.06-.72-4.24-1.12-6.25-1.99-3.69-2.27-8.27-1.8-12.1-4.13-1.59-.96-.17 1.88-.84 2.79.64 19.43-.56 38.77-2.13 58.09-.75 9.26-2.21 18.52-4.4 27.42-4.25 17.25-3.26 34.7-3.35 52.05-.04 7.82-3.38 12.95-7.83 18.11-2.11 2.45-5.98 4.2-7.73.96-4.59-8.53-13.6-6.41-20.33-9.59-1.65-.78-3.77-.62-5.59-1.19-4.15-3.06-10.21-2.46-13.7-6.87-1.28-7.83-2.99-15.76 4.95-21.48 4.74-.23 8.26 2.84 12.29 4.48 3.23 1.77 6.79 2.62 9.52 5.76 2.63 3.02 6.97 2.78 10.58.93 2.37-1.21 3.52-3.57 2.42-6.22-1.12-2.68-3.36-2.46-5.43-1.17-3.56 2.22-7.2.99-10.86.53-4.42-6.04-10.65-9.91-16.82-13.81-2.6-1.64-5.11-3.18-4.55-6.87 1.18-7.02-2.31-14.64 2.74-21.16 3.73-3.37 7.25-.82 10.31.93 4.92 2.81 10.07 5.17 14.93 8.04 2.64.89 3.83 6.72 7.8 2.75 2.94-2.94 1.29-5.94-1.27-8.53-1.38-1.39-2.96-1.63-4.39-.62-3.67 2.58-6.65.78-9.69-1.19-5.29-3.27-10.46-6.73-15.79-9.92-2.18-1.3-5.21-2.2-4.7-5.81.54-2.96.27-5.95.45-8.91.3-5.04 1.23-9.96 6.76-12.2 7.58 1.4 13.58 6.38 20.55 9.16 3.16 2.09 7.23 2.12 10.26 4.71 1.42 1.22 3.64 1.69 2.88 4.16-.68 2.19-2.67 2.44-4.63 2.55 5.42-2.08 9.81-10.24 8.05-15.63-2.37-7.28-7.9-3.71-12.48-3.31-.54.12-1.15.45-1.6.29-13.25-4.52-24.78-11.42-32.38-23.68.61-2.44 3.65-3.37 3.87-6.02.44-5.5 2.21-11.4 8.25-10.91 6.89.56 15.53-.89 18.66 9.54 1.52 5.07 7.33 7.98 13.14 7.69 6.55-.32 5.95-6.25 7.28-10.02.35 2-.94 4.08-1.99 6.21-1.11 2.24-2.28 4.72-5.33 4.31-3.62-.48-2.64-3.44-2.69-5.79-.04-1.57-1.38-2.26-2.35-3.21-4.6-7.63-11.98-11.21-20.03-13.82-2.56-.57-3.54-3.29-5.94-4.19-6.81-2.55-7.34-7.8-5.97-13.77-2.12 9.71-7.48 12.13-19.26 8.71-8.91-3.26-15.89-9.29-22.57-15.67-1.75.12-3.43.83-5.23.67-3.35-1.1-3.25-4.08-3.59-6.72-2.28-17.38-4.9-34.7-9.8-51.56-.65-4.19-1.83-8.1.1-12.63 1.84-4.33-.66-8.85-2.73-12.95-1.84-3.64-4.83-6.54-6.63-10.21-.69-1.16-1.3-2.38-2.04-3.51-5.97-9.17-9.17-9.85-18.63-4.52-2.28 1.25-5.07 5.69-7.54-.02z"/><path class="st367" d="M346.36 1154.84c-18.46 1.3-34.12-2.08-49.75.39-3.51.55-5.51-1.97-7.27-4.53-8.91-12.97-12.09-27.85-12.37-43.08-.24-13.1 9.08-18.75 20.93-13.11 19.55 9.3 37.87 9.16 56.22-3.29 8.19-5.55 18.16-7.8 27.83-10.04 25.74-5.96 51.61-11.14 77.9-14.11 30.83-3.48 57.98-14.69 78.8-38.65 3.23-3.72 5.22-3.37 6.9 1.1 5.34 14.29 9.27 28.85 8.35 44.32-.61 10.27-7.05 17.34-14.16 23.37-17.26 14.63-37.11 24.37-59.15 29.81-29.64 7.31-59.2 14.95-88.77 22.54-15.85 4.07-32.16 3.81-45.46 5.28z"/><path class="st11" d="M279.54 1059.18c-.01 7.59-4.71 11.31-10.66 10.06-7.84-1.66-15.08-4.78-22.46-7.89-12.1-5.09-24.86-7.95-37.95-10.41-29.12-5.47-58.06-12.24-86.54-20.68-1.58-.47-3.1-1.13-4.61-1.8-15.37-6.84-17.12-11.8-9.06-26.29 15.53-27.9 31.14-55.76 46.72-83.63 1.4-2.5 1.97-6.07 6.41-4.16 12.6 5.39 26.25 5.77 39.51 7.92 11.75 1.91 22.94 5.54 34.09 9.59 7.97 2.9 11.72 8.52 12.91 16.49 1.22 8.16 2.27 16.37 3.89 24.45 1.48 7.37 2.6 14.39 9.79 19.88 5.64 4.31 7.02 12.93 8.61 20.18 3.47 15.85 6.46 31.82 9.35 46.29zm-98.98-728.32c4.56.61 8.53-1.86 12.87-2.5 5.91-.88 7.87 1.18 7.59 7.2-1.19 25.3-4.07 50.67-2.06 75.94 2.64 33.1-1.03 66.07-.12 99.07.56 20.35 1.45 40.74 3.38 61 1.17 12.24-4.43 18.43-14.6 22.55-8.75 3.55-17.1 8.07-23.23 15.3-15.89 18.73-14.35 39.35-5.54 60.52 2.43 5.84 4.52 11.83 7.09 17.61 2.43 5.48.16 7.69-5.03 8.36-4.15.54-8.24.39-12.25-.92-23.84-7.8-39.61-23.63-45.48-48.06-2.57-10.71-7.38-19.4-15.12-26.82-1.17-14.08 4.83-25.86 12.18-37.08 11.49-17.52 27.19-31.03 43.82-43.2 22.68-16.59 31.16-40.42 33.24-66.38 1.43-17.84-6.35-34.93-12.34-51.73-10.64-29.87-9.35-58.78 6.41-86.57 1.78-3.08 3.5-8.54 9.19-4.29z"/><path class="st367" d="M300.03 32.55c-10.23 2.23-19.26 2.1-28.06 3.85-18.11 3.6-34.25 10.17-48.87 22.19-31.91 26.24-56.25 58.49-78.62 92.73-10.66 16.32-17.64 33.99-24.6 52-6.42 16.59-14.22 32.81-25.32 47.1-7.11 9.15-16.91 12.81-27.84 14.26-4.23.56-6.23-.81-4.54-5.6 7.65-21.74 9.64-44.58 12.86-67.18.98-6.86 2.96-13.45 5.49-19.86 8.51-21.53 19-42.16 29.87-62.52 13.3-24.94 30.77-47.12 52.01-65.65 20.37-17.76 43.04-32.68 69.19-40.68 16.96-5.18 33.54-5.4 46.97 9.83 6.08 6.89 13.63 12.48 21.46 19.53zM223.18 1136.5c-31.08-4.05-60.54-13.5-88.4-27.69-18.31-9.33-37.77-15.01-57.44-20.24-1.86-.49-3.79-.67-5.67-1.09-24.73-5.49-30.88-18.87-21.67-42.63 7.06-18.2 19.05-30.53 36.48-38.24 8.26-3.65 9.18-3.18 9.81 5.67.78 11.01 9.7 14.75 17.47 18.92 12.51 6.72 26.52 9.21 40.34 11.38 12.36 1.94 23.83 6.58 35.77 9.75 16.18 4.29 33.44 3.43 49 10.77 7.68 3.62 15.82 6.27 23.73 9.41 1.48.59 3.38.98 3.49 3.03.11 1.99-1.6 2.69-3.05 3.45-.73.38-1.5.68-2.24 1.04-20.24 9.81-24.66 18.26-21.32 40.79.24 1.64.54 3.26.79 4.9 1.45 9.52-.73 11.88-10.52 11.34-2.18-.12-4.37-.37-6.57-.56zm344.69-783.51c-.74-18.87-12.4-31.58-23.4-44.7-15.86-18.91-34.49-34.06-55.19-47.77-16.14-10.68-32.71-20.08-49.96-28.27-32.64-15.49-66.72-21.99-102.52-12.18-5.51 1.51-10.9 3.45-16.63 5.28-1-2.51.67-4.28 1.7-5.91 10.16-16.03 20.82-31.72 33.04-46.28 3.58-4.27 8.04-5.24 13.36-4.17 69.65 13.93 133.35 40.5 187.2 88.11 9.62 8.5 16.56 19.07 23.38 29.75 2.39 3.74 2.19 7.89 1.58 12.02-2.11 14.42-4.21 28.85-6.49 43.25-.65 4.05-2.68 7.6-6.07 10.87zM45.9 612.3c-8.93 0-13.81-4.01-17.62-9.15-15.12-20.38-24.49-41.52-20.91-68.8 3.31-25.2 13.4-47.54 21.14-70.93 18.25-55.16 27.37-111.68 26.42-169.82-.12-7.1-.73-14.3 2.8-21.05 1.41-2.7 2.52-4.62 6-4.28 7.38.73 14.3-1.53 20.66-4.78 6.51-3.33 6.83.1 6.73 4.94-.34 16.55-1.2 33.13-4.36 49.33-6.17 31.71-8.32 63.84-11.87 95.85-3.35 30.13-9.9 59.74-18.88 88.77-7.66 24.76-10.93 50.54-16.88 75.72-2.69 11.41-1.08 23.07 6.77 34.2zm134.66-281.44c-10.86 9.86-14.07 23.14-16.4 36.8-3.46 20.33-.61 39.64 7.09 58.89 5.16 12.9 10.14 26.92 10.37 40.52.44 25.45-6.23 49.64-25.69 68.14-5.96 5.67-12.51 10.76-19.08 15.72-23.01 17.38-40.18 38.81-47.4 67.31-.18.7-.91 1.26-1.39 1.88-5.94-8.94-13.08-17.17-16.39-27.67 8.45-24.59 23.92-43.96 44.33-59.66 13.61-10.47 25.56-22.38 32.81-38.32-.93-4.97 3.05-8.46 3.83-13.09 3.02-18.1-.99-35.49-4.32-52.96-4.3-22.55-10.7-44.81-9.07-68.13.51-7.26.34-14.72 5.03-21 11.2-29.55 37.89-38.2 64.04-47.57-1.71 8.78-3.62 17.53-5.03 26.36-.69 4.34-2.23 6.44-6.94 7.2-5.46.89-11.41 1.29-15.79 5.58zm243.19 515.77c3.24-.46 7 1.65 8.64 8.04 1.85 7.18 4.86 14.06 6.85 21.21 3.26 11.69.66 15.78-11.27 17.71-8.41 1.36-16.85 2.41-25.14 4.5-30.08 7.57-58.38 19.42-85.24 34.86-21.69 12.46-37.86 30.79-53.08 50.11-.95 1.2-1.16 3.72-3.15 3.11-1.21-.37-2.49-2.26-2.78-3.67-2.43-11.58-5.19-23.13-6.67-34.84-.79-6.26 4.98-10.2 9.13-14.01 18.08-16.62 37.31-31.81 58.98-43.52 22.26-12.03 44.31-24.48 67.52-34.64 10.65-4.68 21.7-7.87 36.21-8.86z"/><path class="st367" d="M541.76 413.28c2.73-8.08 5.65-16.11 8.16-24.26 7.15-23.17-2.08-42.48-17.65-57.71-30.82-30.16-65.39-55.17-105.86-71.79-21.63-8.89-43.46-15.35-66.6-17.46-14.22-1.29-28.01.27-40.17 8.83-.89.63-1.88 1.16-2.88 1.58-.44.19-1.05-.01-1.94-.05 0-4.91.18-9.84-.06-14.75-.2-4.16 2.36-5.84 5.53-7.23 24.39-10.7 49.48-13.32 75.77-8.3 25.58 4.89 49.18 15.16 70.84 28.49 31.72 19.51 62.56 40.65 84.49 72.22 11.86 17.07 16.53 34.24 8.2 54.13-5.68 13.58-10.54 27.5-15.77 41.27l-1.14.03c-2.34-1.27-1.21-3.22-.92-5zM355.92 332.4c5.44 19.15 7.83 38.87 11.03 58.44 6.11 4.88 1 10.88 1.62 16.3-.76 10.3-.8 20.58 1.03 30.79-.03 6.46 1.06 13.04-1.71 19.26-1.93 7.36-3.67 14.79-7.97 21.27-1.61 6.26-4.92 11.91-6.27 18.29-.84 3.99-4.2 5.24-7.88 5.2-5.21-.06-10.45.62-15.62-.51-1.25-.66-2.94-2.22-2.52-2.87 4.71-7.28-1.05-15.85 2.98-23.1.29-.86.59-1.73.85-2.6 1.46-5.03 1.66-10.22 1.82-15.4.21-3.08-.35-6.14 1.18-9.19 1.65-3.28.48-6.42-2.04-9.03-.25-.85-.39-1.71-.46-2.59-.33-3.15-2.59-5.72-2.69-8.95-.19-2.03 1.22-3.16 2.41-4.41 3.79-6.48 4.34-12.7-1.33-18.51-1.23-1.26-1.1-2.99-1.38-4.58-.5-1.57-.68-3.2-1.06-4.8-1.42-4.56-4.44-8.62-4.24-13.68 2.03-4.29 2.88-8.86 3.14-13.57.11-1.19.65-2.16 1.59-2.9-9.36 1.23-10.46-7.34-14.61-12.33 2.47-5.71-4.53-10.19-2.06-15.89.43-1.91 2.28-3.51 1.3-5.75-.16-10.67-2.39-21.3-.56-32 .57-2.88-.23-6.06 1.83-8.62.72-.38 1.49-.71 2.17-1.16 17.54-11.69 17.54-11.69 29.11 5.2 4.91 3.2 4.98 8.87 6.24 13.61 2.07 7.86 4.01 15.84 4.1 24.08zm28.27 412.82c-12.44-31.22-26.77-61.27-32.94-95.44 19.46 4.37 38.42 7.73 53.21-12.61.73 8.89 5.56 8.12 10.33 7.55 7.68-.91 15.11-2.88 22.44-5.25 1.98-.64 4.08-.97 4.8-3.79 3.7-14.54 16.01-20.08 27.79-26.07 1.96-1 4.8-1.94 6.09.09 1.76 2.78-1.06 4.75-3.09 5.79-24.73 12.71-32.26 37.89-43.23 60.32-10.68 21.84-23.17 42.45-37.4 62.07-1.92 2.65-3.89 5.34-8 7.34zM59.18 560.19c-5.5-8.18-4.42-14.78-1.46-22.59 10.09-26.56 17.13-53.95 21.11-82.22C84.4 415.85 91.38 376.53 97 337.01c3.99-28.07 6.66-56.33 3.33-84.74-.22-1.91.55-3.13 1.35-4.53 21.08-36.76 41.93-73.66 63.37-110.22 8.7-14.84 22.67-25.41 33.61-38.47 9.21-11 19.71-20.59 30.4-30.18 19.88-17.84 43.84-21.65 68.84-23.2 2.44-.15 4.95.26 7.39.65 2.05.33 5.25.17 4.97 3.02-.29 2.95-3.51 1.48-5.44 1.9-11.88 2.58-24.12-1.99-35.98 2.05-21.74 7.4-41.06 18.59-56.53 35.79-12.51 13.91-25.04 27.84-37.05 42.18-23.91 28.56-36.41 63.18-50.78 96.84-14.13 33.1-20.55 66.83-15.74 103.11 3.61 27.23-1.77 54.5-7.99 81.04-7.97 34.01-14.09 68.47-24.39 101.94-4.71 15.3-11.29 29.82-17.18 46z"/><path class="st367" d="M406.87 552.45c3.12 3.38 7.01 4.94 11.58 4.9 7.69-.6 14.32.89 19.66 7.37 4.19 5.09 4.22 9.24-1.8 11.72-5.11 2.1-11 3.4-15.81.05-6.35-4.42-11.24-3.2-16.06 1.9-8.24 3.46-11.87 11.11-16.34 18.01-1.81 7.13-5.63 13.3-8.73 19.82-3.41 7.14-4.71 16.55 2.58 23.71 2.5 2.46 4.28 4.97 1.54 8.36-9.21 1.62-17.09-1.63-24.45-6.74-4.28-.03-6.35-2.85-7.57-6.38-4.7-13.58-7.13-27.14 0-40.82 2.14-4.12 4.78-7.25 9.17-8.79 11.47-13.25 25.61-22.55 42.13-29.28-2.49-.16-4.98-.33-7.47-.49-6.79-1.14-14.38-.95-16.54-9.87-2.44-1.82-4.61-3.8-5.82-6.76-3.39-8.31-9.69-13.87-17.39-18.06-1.19-.74-2.07-1.7-2.37-3.11.49-7.61 6-6.76 10.57-5.49 7.95 2.2 13.72 7.94 18.72 14.2 6.32 7.92 14.37 13.85 22.07 20.2 1.5 1.52 1.22 3.83 2.33 5.55zm-191.45-41.24c5.43-2.85 10.87-5.71 16.3-8.56 5.68-3.62 11.9-2.21 17.99-1.92 6.03-.78 11.14 3.12 16.97 3.38 10.87 3.45 21.11 8.36 31.43 13.15 7.27 3.38 11.41 10.21 17.7 14.59 7.03 5.16 15.86 8.11 20.22 16.55 1.77 3.39-.39 4.77-2.92 6.3-8.89 5.36-18.19 8.3-28.62 5.63-7.96-3.17-15.22-8.4-24.36-8.15-2.36.06-3.8-1.88-5.44-3.27-11.11-9.53-24.42-14.77-38-19.48-3.48-1.2-7.31-1.45-10.06.69-4.73 3.68-9.53 3.39-14.73 2.05-7.19-.87-4.77-6.85-4.57-10.36.26-4.66.71-10.73 8.09-10.6z"/><path class="st11" d="M304.4 555.91c15.23 1.65 18.89.73 28.23-7.06-.63-.49-1-1.13-1.11-1.92 1.24-2.98 4.33-3.86 6.52-5.77 5.48-4.78 9.69-10.11 6.96-18.1 1.18-5.3 4.52-7.33 9.76-6.53.27.38.54.75.8 1.12-.01 1.13-.01 2.27-.02 3.4-1.14 3.39 1.04 5.1 3.41 6.69 3.49 2.34 6.26 5.43 8.58 8.86 5.37 7.94 4.38 16.1-1.92 23.28-11.33 12.93-27.47 15.54-42.58 20.27-6.54 2.05-13.51 2.69-20.13 4.55-14.99 4.21-28.37 3.36-38.14-10.73.04-.37.07-.75.11-1.12 6.31-2.86 12.47-6.35 19.77-2.87 1.72.82 2.8-1.2 3.87-2.07-.23-.02.12-.5-.09-.47-2.48-1.86-5.37-1.41-7.97-2.07-2.36-.61-3.69-2.39-4.31-4.52-.73-2.51 1.04-4.21 2.83-5.4 4.19-2.79 8.68-4.31 13.76-2.24 3.75 1.52 7.37 3.65 11.67 2.7z"/><path class="st367" d="M239.65 922.93c.67 4.43.18 6.51-2.56 5.23-22.3-10.42-46.94-10.54-70.32-16.2-7.73-1.87-10.11-5.52-6.49-12.74.36-.73.44-1.59.74-2.36 2.72-6.91 4.71-15.35 10.33-19.33 6.16-4.37 12.55 3.34 18.87 5.47 9.69 3.26 19.68 4.9 29.54 7.23 7.45 1.76 12.84 5 14.43 13.42 1.37 7.24 4 14.25 5.46 19.28zm-10.26-34.54c-15.81-4.66-31.31-5.93-45.36-12.54-2.51-1.18-6-1.39-4.27-6.17 8.23-22.68 19.04-44.34 26.61-69.93 11.18 29.83 17.81 58.32 23.02 88.64zM494.11 519.2c9.4-11.95 17.18-24.86 22.87-39 2.89-7.2 7.16-13.58 11.38-20.03 3.98-6.1 4.25-.83 5.61 1.51-.1.51-.04 1 .21 1.46.12 14.01-6.83 25.6-12.72 37.6-6.85 13.95-16.61 26.27-22.5 40.74-10.48 9.01-14.77 22.91-25.29 31.97-3.23 2.78-6.4 5.02-10.67 5.45-1.71 1.46-3.42 2.93-5.13 4.39a5.85 5.85 0 01-.51 2.33c-3.2 4.62-9.79 5.75-11.85 11.55-14.14 7.15-29.31 10.47-44.95 12.11-6.06-1.28-10.34-4.17-10.14-11.14-.06-1.04.01-2.07.23-3.09 1.58-2.81 3.47-4.71 7.21-3.91 9.04 1.93 17.57.08 25.67-4.08.45-.3.91-.81 1.39-.83 9.93-.29 15.84-8.07 23.49-12.6 6.21-3.67 8-10.88 12.26-16.13.77-.94 1.61-2.4 2.29-3.68 3.63-5.33 7.27-10.65 9.99-16.53 1.03-2.7 3.56-3.21 5.86-4.05 1.67-1 3.49-2.21 3.8-4.07 1.13-6.62 6.33-8.21 11.5-9.97z"/><path class="st11" d="M494.16 538.99c6.78-13.45 16.42-25.22 22.71-38.97 5.66-12.35 11.53-24.6 17.31-36.89 7.27 29.86 6.16 58.67-10.17 85.8-2.2 3.66-4.86 3.81-8.19 3.7-3.76 2.89-5.25-.34-6.81-2.7-3.3-5.01-7.79-8.05-13.7-9.03-.62-.49-1-1.13-1.15-1.91zM50.23 554.02c5.46 9.98 7.26 20.91 12.14 30.84 8.17 16.64 16.79 32.84 29.41 46.59 1.29 1.41 2.61 2.92 3.42 4.63 1.63 3.43 4.31 7.66 1.22 10.69-2.49 2.45-5.07-1.92-7.74-2.96-14.59-5.7-25.14-16.58-34.98-28.15-7.36-8.66-11.15-18.58-10.5-30.41.61-10.82 3.53-20.92 7.03-31.23z"/><path class="st11" d="M463 578.9c12.77-11.43 20.93-26.48 31.15-39.91l.62.51c.92.56 2.44.89 2.48 1.96.3 8.36 5.4 14.71 8.79 21.79 1.39 2.9 3.91 6.3-.45 9.1-5.13 12.14-13.73 21.53-23.59 29.94-3.92 3.35-8.6 3.95-13.13 2.64-4.4-1.27-2.83-5.96-3.66-9.22-1.39-5.51 1.5-11.6-2.21-16.81zm-61.19 27.57c14.18-3.67 28.77-6.14 41.53-14.02 6.28-.76 10.26-5.23 14.62-9.09l-.08-.06c7.16 12.34 4.77 24.55-6.57 32.17-4.01 2.69-7.25 5.94-9.38 10.2-4.93 9.83-13.69 12.83-23.74 13.88-5.87.61-8.98-1.93-9.36-7.66-.37-5.49-.2-11.02-.67-16.5-.22-2.53-.52-6.42-4.83-2.96-2.2.68-3.79 0-4.36-2.26-.57-2.3.3-3.71 2.84-3.7z"/><path class="st367" d="M279.45 307.73c-10.97 2.13-21.22 7.81-32.85 6.68-2.62 1.21-5.27-.52-7.87.05-3.88.84-6.17-1.21-6.89-4.48-.75-3.42.23-6.52 4.43-7.44 1.81-.4 3.36-1.78 5.35-1.66 16.35-8.91 35.13-12.83 50.09-24.66 3.65-2.89 8.46-1.63 12.78-2.01l-.09 10.21c.97 8.81-7.85 11.55-10.98 17.82-4.31 2.67-7 9.59-13.97 5.49zm257.89 713.66c-1.4 4.92-5.32 8.45-9.15 11.96-14.58 13.37-15.62 13.18-24.9-4.11-.39-.73-.8-1.44-1.2-2.16-7.65-13.88-6.13-16.62 9.88-17.22 8.54-.32 16.01 3.3 23.37 7.06 1.65.84 2.38 2.2 2 4.47zm-221.4-688.03c-.53 1.18-1.05 2.37-1.58 3.55-1.4 2.84-2.95 3.53-5 .49-1.61-2.4-3.94-3.68-6.89-3.75-7.64-2.42-15.5-4.55-16.79-14.4-.22-1.69-.11-3.24.83-4.69 5.81-8.34 13.78-9.35 18.05-2.31 2.18.9 4.37 1.79 6.55 2.69 9.28 3.28 10.36 7.4 4.83 18.42zm231.59 154.56c-1.05 2.66-.99 5.94-5 8.11.16-20.41-7.57-39.14-7.43-58.99.03-4.84-.51-9.87 3.92-13.43 4.07 4.79 2.84 11.69 6.46 16.62 1.5 10.33 5.32 20.48 2.23 31.14-.09 5.5 2.22 11.05-.18 16.55zm-211.6-63.08c-.51 1.23-1.03 2.45-1.54 3.68-1.6 1.03-3.37 2.38-4.96.34-3.9-5.03-8.92-3.84-13.98-2.79-3.65-2.63-7.71-3.26-12.19-3.38-5.86-.15-11.92-.21-17.04-3.92-4.86-.28-9.76-.29-14.57-.91-7.12-.92-8.88-4.03-5.67-10.47 1.89-3.77 4.75-7.06 7.17-10.56l.66-1.35c10.81-4.88 21.82-4.98 32.98-1.44 2.29.34 4.37.89 6.94.34 6.39-1.39 12.28.46 17.21 4.92 10.55 7.09 11.92 14.11 4.99 25.54z"/><path class="st367" d="M272.83 447.68c-10.98 6.14-21.97 12.27-32.95 18.41-3.51 3.56-5.88 2.49-7.77-1.73-2.05-4.57-2.16-9.3-1.68-14.13.87-4.82 4.83-3.44 7.86-3.92 11.46-5.98 22.37-12.89 31.11-22.46 5.16-5.66 11.28-2.35 16.86-3.56 7.15-.72 14.24.79 21.37.68 1.89-.03 4.11-.22 4.65 2.26.47 2.16.44 4.47-1.53 6.03-11.28 8.93-23.46 16.05-37.92 18.42zm45.43-95.26c2.76 8.6 14.26 9.29 17.31 18.01-4.08 2.03-4.2-2.61-6.63-2.64-2.33 2.25-1.53 5.14-1.16 7.68.43 2.95-.17 5.19-2.43 7.04-6.11 1.76-7.97-4.7-12.32-6.35-4.6-2.53-9.57-3.05-14.69-2.78-7.31 2.88-15.1.24-22.51 2.03-2.99.72-3.7-2.91-6.09-3.39-1.78-.23-4.74 3.36-5.08-1.56-1.51-4.99-.27-10.2-1.17-15.25-.31-1.76.51-3.2 2.05-4.08 5.91-3.37 10.78-8.88 18.29-9 4.61.63 9.24.64 13.88.55 6.86 3.22 15.69 2.29 20.55 9.74z"/><path class="st367" d="M291.32 299.15c5.34-1.34 7.17.01 4.48 5.47-1.78 3.6-3.1 7.43-4.63 11.16-3.24 9.47-5.76 19.28-12.61 27.06-6.84 2.73-11.23 9.53-18.66 11.29-7.63 4.3-13.64 11.08-21.89 14.44-1.53 1.9-3.49 1.8-5.05.45-4.71-4.1-3.92-15.03 1.42-18.88 4.83-3.48 7.73-9.32 13.83-11.22 12.14-8.66 23.1-18.51 31.24-31.18 3.96-2.87 7.92-5.73 11.87-8.59zm-39.87 202.39c-5.62-2.63-12.42.26-17.74-3.79 13.65-18.45 34.13-26.3 54.08-34.99 5.79-7.88 14.31-10.8 23.34-12.45 3.47-.64 5.93 1.98 8.13 4.37 1.43 3.95-2.31 5.49-4.17 7.06-8.53 7.19-16.08 15.62-26.38 20.7-3.09 1.52-6.54 4.05-6.73 8.43-.17 3.89-2.97 5.65-5.73 7.5-4.91 1.19-7.51 6.86-13.08 6.75-3.91-1.21-8.25-.96-11.72-3.58zm21.7-104.71c-11.27 6.25-21.45 14.57-34.23 17.94-1.29.34-2.61.56-3.91.83-5.62 1.67-7.05-2.45-8.03-6.32-1.47-5.78 1.53-10.21 7.96-12.74 6.36-3.07 12.68-6.22 19.09-9.18 6.57-3.03 12.43-6.78 15.67-13.61 9.26-6.98 19.33-4.04 29.28-2.4.86.34 1.6.87 2.2 1.58 1.34 3.26-1.1 4.97-2.83 7.01-6.87 8.11-15.82 13.12-25.45 17.11l.25-.22z"/><path class="st11" d="M248.21 338.91c-2.71 2.61-5.36 5.29-8.15 7.83-8.53 7.76-8.95 12.02-2.05 21.82 1.55 3.31.47 5.77-2.38 7.77-5.78 4.07-16.87 1.91-21.42-4.22-5.07-6.82-3.78-13.73 3.67-19.04 1.54-1.1 3.28-2.32 5.07-2.6 8.06-1.27 15.24-4 20.66-10.47 1.09-1.3 2.9-1.41 4.6-1.09zm-13.27 57.63c-4.69 6.37-5.91 12.73.07 19.06 1.21 2.72 3.2 5.49.32 8.29-2.63 2.56-5.82 2.7-9.21 1.76-9.16-2.55-14-9.97-12.07-18.61 1.9-8.52 10.07-12.62 20.89-10.5zm6.68-95.66c-.85.68-1.75 1.31-2.54 2.06-5.63 5.29-5.24 7.1 2.09 9.63 1.81.62 3.62 1.23 5.43 1.84-2.27 2.43-6.05 2.3-8.18 5.3-4.42 6.24-9.99 4.7-15.2 1.18-4.73-3.19-9.07-7.31-6.37-13.66 2.54-5.98 7.33-9.76 14.34-8.85 3.53.46 6.96 1.64 10.43 2.5z"/><path class="st367" d="M485.74 413.74c7.3 2.2 14.29 4.45 20.5 9.67 6.9 5.78 8.85 12.24 7.05 20.35-2.86 12.88-6.8 25.45-11.56 37.76-2.9 7.49-4.65 15.34-4.84 23.29-.12 4.95-1.34 9.07-4.09 12.96-1.33 5.39-5.24 9.27-8.31 13.53-3.02 4.19-5.3 2.66-5.73-2.12-.37-8.04.35-16.04.93-24.03.32-4.45 3.62-7.79 5.08-11.75 2.63-7.16 3.07-14.84 3.26-22.45.23-.48.44-1.01.78-1.42 4.14-4.93 8.13-9.98 5.07-16.95-3.15-7.19-9.73-8.29-16.48-8.3-5.36 0-7.37-2.31-6.97-7.52.28-3.62.08-7.28-.76-10.87.41-4.46-1.39-8.77-.96-13.23 5.92-3.38 11.49-1.27 17.03 1.08zm-121.83 42.52c1.05-5.95 2.11-11.9 3.16-17.85.17-.41.33-.82.5-1.24 3.34-2.51 5.39-.69 7.4 2.02 2.98 4.02 4.66 8.65 6.64 13.15.47 4.03 3.42 6.05 6.48 7.98 4.01 8.13 12.85 10.85 18.82 16.8 1.62 1.09 2.85 2.43 2.79 4.55 6.44 3.79 12.88 7.57 19.33 11.36 3.2.74 5.76 2.83 8.69 4.11 2.98 1.3 4.5 2.89 3.75 6.35-.84 3.86-3.07 4.8-6.57 3.81-3.4 1.65-6.11.44-8.91-1.7-4.29-3.28-8.91-6.11-14.21-7.56-1.95.77-4.03.63-6.05.94-14.25-4.95-26.68-12.22-33.53-26.55-1.01-4.77-7.12-6.28-7.38-11.54-.59-1.48-1.03-3-.91-4.63z"/><path class="st367" d="M469.42 413.5c.1 4.28 3.18 8.06 2.09 12.54-1.31 9.01 3.63 16.96 4.19 25.77 1.45 22.87-5.07 44.72-7.59 67.07-1.39 12.31-.01 24.87-3.35 36.98-9.09 10.87-15.93 23.79-28.51 31.47-3.02 1.84-6.29 3.27-9.44 4.88-3.3.69-4.69-.61-3.75-3.88.51-1.78 2.09-3.63-.28-5-2.12-1.22-4.33-.42-6.12.94-3.28 2.5-6.4 4.8-9.11-.57-2.37-3.35-5.25-6.35-7.13-10.05 6.2-1.98 13.61-2.8 11.97-13.5-.68 10.04 5.32 13.23 12.5 14.93 5.12 1.21 10.94.42 12.3-5.04 1.34-5.4-3.37-8.75-8.39-10.43-3.34-1.12-7.14-.27-10.32-2.27 11.51-3.85 19.34 3.79 27.1 9.71 3.69 2.81 4.89 3.24 7.45-.32 3.32-4.62 5.34-9.56 5.04-15.34-1.28-24.66 3.18-48.68 7.05-72.89 2.9-18.12 3.61-36.64 2.78-55.1-.15-3.29.02-6.59.04-9.88.47-.57.97-.57 1.48-.02zm-61.2 24.99c9.28 8.92 19.26 16.81 31.42 21.52.46.13.93.25 1.39.38 1.36 3.49 3.59 6.94.45 10.61-2.12.86-3.9 2.77-6.51 2.11-7.4-.89-13.31-5.35-19.85-8.31-3.41-1.25-7.25-1.47-10.04-4.22-.96-.6-1.92-1.19-2.89-1.76-3.42-2.18-4.74-5.87-6.62-9.17-5.05-6.53-11.68-10.88-19.17-14.09-4.34-4.96-10.33-8.61-9.15-17.07.56-4.03 1.68-5.6 5.21-6.19 2.13-.5 3.68-2.05 6.41.26 8.4 7.1 18.52 11.93 26.68 19.46 2.1 1.66 3.53 3.59 2.67 6.47z"/><path class="st367" d="M428.26 413.54c4.9 3.17 11.11 3.71 15.49 8.13 2.19 2.21 3.51 3.92 1.56 6.76 1.23 2.35 1.33 4.28-1.33 5.93-3.17 1.96-5.55.16-7.94-1.33-9.32-5.78-19.02-8.51-29.73-4.16-1.91.81-3.55.55-5.3-.71-11.59-8.3-24.24-15.33-32.77-27.31-.41-5.27-.46-10.51 1.46-15.57 7.36 6.88 13.74 15.07 24.02 18.07 11.79 2.43 23.6 4.82 34.54 10.19zm-18.4 104.36c7.63 5 16.2 8.78 21.64 16.63 1.62.97 2.98 2.23 3.9 3.88 2.1 3.77.86 6.92-3.19 6.9-4.03-.02-8.78.98-12.14-2.78l-9.27-5.22c-3.3-.89-6.71.1-10.02-.57-13.12-11.3-27.23-21.4-40.2-32.91-3.75-3.33-6.62-6.84-6.87-11.96-.27-5.59 3.23-8.15 8.43-6.01 6.15 2.53 11.56 6.41 16.7 10.54 7.98 6.4 16.54 11.86 25.63 16.5 2.01 1.45 4.22 2.66 5.39 5z"/><path class="st11" d="M405.74 424.74c10.98.29 21.89 1.21 31.84 6.3 3.97 2.03 5.41-1.02 7.73-2.61 1.75-.59 2.92-3.38 4.93-2.25 3.84 2.16.13 6.04 1.69 9.56 4.52-6.32 2-11.37-1.88-16.5 5.72 1.88 7.97 5.85 7.4 11.08-.63 5.78-3.31 10.52-9.41 12.16-5.3 1.43-10.1.37-12.49-4.99-3.76-8.43-11.41-8.33-18.67-9.27-2.71-.35-4.14 1.17-4.34 3.73-.24 3.02-1.69 5.12-4.31 6.52l-4.55-3.74c-1.2-1.78-.85-3.98-1.82-5.95-1.92-3.92.79-4.37 3.88-4.04zm14.33 117.79c1.3.32 2.59.72 3.91.96 8.17 1.49 10.27-1.02 7.52-8.96 1.5-.53 3.47-.63 4.4-1.66 3.25-3.62 6.99-4.19 11.01-2.08 3.55 1.86 4.36 5.46 4.13 9.15-.3 4.94-2.44 8.96-7.08 11.12-3.3 1.53-21.28-5.04-23.89-8.53zm14.9-69.42c1.03-1.16 2.07-2.32 3.1-3.48 5.93-2.42 1.92-6.43 1.57-9.86l.01.24c4.89-5.15 9.42-3.3 13.47 1 4.37 4.63 3.73 13.28-1.03 18.08-4.35 4.38-9.61 4.46-15.09.17 1.61-2.94 3.98.87 5.86-.79-1.88-2.89-5.45-3.34-7.89-5.36zm-.08 34.2c4.68-4.32 4.54-7.98-1.36-11.05-1.62-.84-3.01-2.13-4.51-3.21 4.08.5 8.15 1.06 12.24 1.47 4.64.47 7.65 3.03 9.04 7.31 1.34 4.1.01 7.83-3.28 10.36-3.71 2.85-8 5.8-12.84 3.46-5.95-2.88-2.71-5.81.71-8.34z"/><path class="st367" d="M403.96 532.37c2.28 1.65 4.57 3.29 6.85 4.94-5.48 3.96-.66 10.6-3.93 15.14l-3.41-3.08c-1.83-3.88-4.43-7.38-3.93-12.17.32-3.09.51-5.42 4.42-4.83zm-120.79-87.56c11.4-8.2 22.81-16.4 34.21-24.6 8.44-2.92 13.47 1.16 17 8.3l1.23 7.96c-8.99-.76-17.66.87-26.2 3.48-6.17 2.2-12.48 3.97-18.82 5.51-2.32.58-5.26 2.67-7.42-.65z"/><path d="M345.21 390.49c-8.25-22.22-15.86-44.65-22.71-67.32.69-.24 1.39-.47 2.08-.71 7.53 22.64 15.06 45.29 22.59 67.93-.58 1.51-1.23 1.55-1.96.1z" fill="#e097e9"/><path class="st367" d="M269.78 557.06c9.02 7.86 19.34 11.11 31.22 8.91-2.86 1.48-5.71 2.96-8.57 4.44-13.43 4.88-26.33 3.44-38.76-3.34-1.79-1.04-3.58-2.07-5.37-3.11-4.68-1.06-8.09-5.6-13.41-4.91-3.54-1.06-6.05-3.65-8.73-5.96-5.87-1.38-7.4-6.33-9.1-11.14-1.62-3.95-7.41-6.75-3.38-12.25 16.11-3.61 28.52 3.23 39.85 13.75 5.17 4.78 9.98 10.09 16.25 13.61zm62.75-9.67c-5.51-2.04-9.84-5.47-12.98-10.5-2.66-4.27-.09-4.42 3.1-4.28 1.21-1.17 2.29-2.46 3.11-3.93 5.5-7.18 13.61-2.89 20.34-4.64.38.13.76.26 1.15.39 3.07-.15 3.65 1.59 3.05 4.12-2.54 10.78-6.44 18.45-17.77 18.84z"/><path class="st367" d="M342.47 501.35c12.74 2.67 15.34 5.89 13.28 16.44-3.46 1.41-6 3.99-8.5 6.63l.29-.17c-3.67 1.27-7.38 3.34-10.75-.61-3.1-3.23-.82-6.99-1.03-10.51-.24-2.78 2.06-4.24 3.27-6.26 1.17-1.81 2.03-3.84 3.44-5.52zm122.28 54.52c-5.23-12.05-2.57-24.61-.83-36.55 4.51-30.97 9.39-61.82 7.59-93.27-.45 10.4 3.37 15.02 14.9 14.96 10.5-.05 16.38 11.59 12.79 22.03-1.05 3.05-3.04 5.78-4.59 8.65-5.75 6.45-6.69 14.92-7.99 22.68-1.87 11.16-5.01 21.99-7.14 33.06-.86 4.44.51 9.18-1.98 13.34-3.76 5.45-7.94 10.54-12.75 15.1z"/><path class="st11" d="M393.58 598.03l16.48-16c5.82-10.51 14.37-3.47 21.6-2.9 3.88.31 3.63 4.05 1.08 6.85-1.93 2.12-5.65 2.54-5.94 6.24-4.83 3.2-10.33 2.87-15.74 3.03-5.95.18-12.01-.37-17.48 2.78zm83.91-57.26c1.31-22.21 7.02-43.56 12.71-64.91.58-2.16 1.68-4.11 4.4-4.17-6.46 18.74-9.39 38.32-13.74 57.57-1.49 2.42-.87 4.68.53 6.88-1.3 1.54-2.6 3.09-3.9 4.63zm-260.44 1.16c3.77 3.01 7.55 6.02 11.32 9.04.21 6.17 4.63 4.87 8.39 4.75 4.36 2.02 7.98 5.07 11.53 8.23-4.07-.17-7.4-.32-10.55 4-3.66 5.01-9.98 5.42-15.6 2.38-6.82-3.69-9.01-9.9-7.78-17.32.63-3.74 1.78-7.39 2.69-11.08z"/><path class="st367" d="M437.23 621.66c3.67-2.95 1.56-7.1 5.26-11.01.96 7.29-.3 12.21-5.64 15.59-3.9 2.47-8.01 2.44-11.06-1.46-2.53-3.23-3.28-7.28-1.11-10.84 2.12-3.48 6.19-3.65 9.65-2.71 5.65 1.54 1.99 6.43 2.9 10.43z"/><path class="st11" d="M304.81 330.61c.56 3.9-4.23 7.87 1.31 12.22 1.54 1.21-5.58 2.34-8.24 4.36-4.45-.02-8.89-.05-13.34-.07-1.27-.32-2.69-1.18-3.8-.88-7.23 1.92-6.59-2.46-5.85-7.04 5.42-7.8 10.84-15.61 16.27-23.41l.33 2.41c-2.74 4.72-1.8 7.19 4.04 7.84 3.42.36 6.95 1.51 9.28 4.57z"/><path class="st367" d="M266.44 506.18c-.98-1.43-3.03-2.73-.59-4.6 1.96-2.52 4.28-4.63 7.14-6.09 5.09-5.72 11.19-10.27 17.68-14.13 6.98-4.15 14.77-4.91 22.73-3.06 6.2-1.11 12.4-2.21 18.6-3.32 1.84 11.92 1 13.92-10.25 17.12-12.25 3.49-24.74 6.14-37.12 9.15-6.07 1.65-12.13 3.29-18.19 4.93zm138.67-50.32c-2.16 6.07-14.32 9.49-21.94 6.18-1.46-2.24-2.93-4.48-4.39-6.72 7.09-.99 13.15-4.93 19.88-6.95 2.15 2.5 4.3 5 6.45 7.49zm-44.51 20.53c.69-4.01 1.51-8 2.02-12.03.48-3.8 2.88-4.13 5.88-3.74l7.03 9.25c-4.97 2.18-9.95 4.35-14.93 6.52zm-32.17 34.96c4.88-6.38 9.31-2.11 13.8.58-.18 3.43-1.42 6.51-3.2 9.4-1.73 5.73-6.18 8.73-11.2 11.16l-5.19.12c-.21-3.15-2.69-3.12-4.89-3.48 3.57-5.93 7.13-11.85 10.68-17.78z"/></svg>