<svg version="1.1" id="Слой_1" xmlns="http://www.w3.org/2000/svg" x="0" y="0" viewBox="0 0 585 425" xml:space="preserve"><style>.st13{fill:#e097e9}.st14{fill:#d670e1}.st364{fill:#931ca0}.st371{fill:#f0c6f4}.st372{fill:#daa3e2}</style><path class="st372" d="M580.07 395.91h-6.34v-6.95c0-3.75-3.05-6.8-6.8-6.8h-57.71c-3.75 0-6.8 3.05-6.8 6.8v6.95h-6.34v-6.95c0-7.25 5.9-13.15 13.15-13.15h57.71c7.25 0 13.15 5.9 13.15 13.15v6.95z"/><path class="st372" d="M499.91 417.04c-4.47 0-8.1-3.63-8.1-8.1V398.4c0-4.47 3.63-8.1 8.1-8.1s8.1 3.63 8.1 8.1v10.54c0 4.48-3.62 8.1-8.1 8.1zm76.99 0c-4.47 0-8.1-3.63-8.1-8.1V398.4c0-4.47 3.63-8.1 8.1-8.1s8.1 3.63 8.1 8.1v10.54c0 4.48-3.63 8.1-8.1 8.1zM89.86 395.91h-6.34v-6.95c0-3.75-3.05-6.8-6.8-6.8H19c-3.75 0-6.8 3.05-6.8 6.8v6.95H5.85v-6.95c0-7.25 5.9-13.15 13.15-13.15h57.71c7.25 0 13.15 5.9 13.15 13.15v6.95z"/><path class="st372" d="M11.6 417.04H7.79c-3.42 0-6.19-2.77-6.19-6.19v-14.36c0-3.42 2.77-6.19 6.19-6.19h3.82c3.42 0 6.19 2.77 6.19 6.19v14.36c0 3.42-2.78 6.19-6.2 6.19zm75.08 0c-4.47 0-8.1-3.63-8.1-8.1V398.4c0-4.47 3.63-8.1 8.1-8.1s8.1 3.63 8.1 8.1v10.54c0 4.48-3.62 8.1-8.1 8.1zm454.56-37.07h-6.34V22.19c0-5.66-4.61-10.27-10.27-10.27h-463c-5.66 0-10.27 4.61-10.27 10.27v357.78h-6.34V22.19c0-9.16 7.45-16.61 16.61-16.61h463c9.16 0 16.61 7.45 16.61 16.61v357.78z"/><path class="st371" d="M253.53 60.23h-87.01c-2.22 0-4.1-1.44-4.68-3.58-.58-2.14.32-4.33 2.24-5.45l27.1-15.78c.05-.03.09-.05.14-.07l7.45-3.18c8.15-2.93 17.05-2.93 25.13-.03l7.44 2.67c.1.03.19.08.27.14l24.61 16.4c1.82 1.21 2.58 3.34 1.95 5.43-.64 2.1-2.46 3.45-4.64 3.45zm-61.15-22.58L165.35 53.4c-1.13.65-1.29 1.77-1.07 2.59.22.82.92 1.7 2.23 1.7h87.01c1.26 0 1.97-.85 2.21-1.64.24-.79.12-1.89-.93-2.59l-24.48-16.31-7.29-2.62a34.52 34.52 0 00-23.34 0l-7.31 3.12z"/><path class="st14" d="M163.34 238.91c-4.44-7.79-.01-26.04.33-33.86l2.01-46.57 6.14-100.63a6.964 6.964 0 016.95-6.66h60.41c4.55 0 8.31 3.54 8.57 8.08l2.02 34.5c1.39 23.8 3.28 47.58 5.32 71.33 1.91 22.26 5.98 44.6 6.24 66.8.16 14.02-7.45 10.67-16.21 5.77-12.7-7.1-15.2 1.73-25.39 6.54-4.68 2.21-10.22 1.58-14.46-1.39-8.48-5.93-15.09-9.63-23.29-5.76-5.05 2.39-6.91 6.73-14.01 5.3-2.11-.41-3.61-1.65-4.63-3.45z"/><path class="st371" d="M211.36 32.5c-.7 0-1.27-.57-1.27-1.27V16.99c0-.7.57-1.27 1.27-1.27s1.27.57 1.27 1.27v14.24c0 .7-.57 1.27-1.27 1.27z"/><path class="st13" d="M186.51 87.19h1.27V233.4h-1.27z"/><path transform="rotate(-1.146 237.174 160.512)" class="st13" d="M236.74 87.18h1.27v146.23h-1.27z"/><path transform="rotate(-.81 218.409 186.683)" class="st13" d="M218.25 130.57h1.27v113.66h-1.27z"/><path class="st371" d="M168.35 230.99c-.7 0-1.39-.09-2.05-.29-2.21-.66-3.95-2.45-5.17-5.34-.14-.32.01-.69.34-.83.32-.13.7.01.83.34 1.08 2.55 2.51 4.06 4.36 4.61 3.98 1.18 9.19-2.33 13-4.9 4.78-3.22 10.84-4.69 16.71-4.07 3.48.37 6.32 1.87 9.06 3.32 2.37 1.25 4.81 2.55 7.64 3.08 5.02.94 8.75-1.12 12.69-3.29 2.56-1.41 5.2-2.87 8.33-3.6 4.56-1.07 9.17-.6 14.96 1.54.96.35 1.95.83 3 1.34 2.91 1.41 5.91 2.86 8.6 1.78a.61.61 0 01.57.05c.17.1.28.28.3.48l.14 1.41a.63.63 0 01-.57.69c-.35.02-.66-.22-.69-.57l-.06-.63c-2.97.77-6.07-.74-8.83-2.07-1.02-.49-1.98-.96-2.88-1.29-5.54-2.04-9.93-2.5-14.23-1.49-2.96.7-5.52 2.11-8 3.48-3.97 2.19-8.07 4.46-13.54 3.43-3.02-.57-5.55-1.91-8-3.2-2.76-1.46-5.36-2.84-8.6-3.18-5.57-.59-11.33.8-15.8 3.82-3.51 2.33-8.03 5.38-12.11 5.38z"/><path class="st364" d="M389.16 199.08c-3.96 3.45-8.63 6.17-12.44 7.43-6.16 2.03-5.38-1.65-6.83 5.13-1.86 8.69 0 19.85 0 28.72v50.5c0 9.04-8.31 14.17-16.65 13.29-4.13-.43-7.89-2.65-11.69-4.54v-27.78c-3.68-1.85-7.4-3.38-11.57-2.69-5.86.94-10.56 6.56-16.49 6.24-4.6-.25-8.29-4.04-12.64-5.43v27.78c-.61-.19-1.24-.33-1.88-.42-3.36-.43-6.65.94-9.69 2.43-3.03 1.47-6.14 3.11-9.51 3.25-6.38.26-9.88-6.46-9.88-12.13V206.4c0 1.79-31.2-7.33-32.75-17.97-.79-5.46 3.31-15.29 4.43-20.8 3.48-17.15 6.95-34.3 10.43-51.44 4.65-22.95 9.31-45.89 13.96-68.84a20.632 20.632 0 0119.33-13.43h69.4c9.04 0 17.03 5.89 19.69 14.51 6.51 21.05 7.64 45.43 11.29 67.12 2.85 16.95 5.7 33.9 8.55 50.86.96 5.72 4.07 14.09 3.29 19.84-.61 4.51-4.06 9.1-8.35 12.83z"/><path d="M341.54 33.87v237.64c-3.68-1.85-7.4-3.38-11.57-2.69-5.86.94-10.56 6.56-16.49 6.24-4.6-.25-8.29-4.04-12.64-5.43V33.87h40.7z" fill="#ab7b41"/><path class="st14" d="M341.54 33.87v237.64c-3.68-1.85-7.4-3.38-11.57-2.69-5.86.94-10.56 6.56-16.49 6.24-4.6-.25-8.29-4.04-12.64-5.43V33.87h40.7z"/><path class="st371" d="M301.64 36.33a1.27 1.27 0 01-.5-2.44l7.45-3.18c8.15-2.93 17.05-2.93 25.13-.03l7.44 2.68c.66.24 1 .96.76 1.62-.24.66-.96 1-1.62.76l-7.44-2.68a34.52 34.52 0 00-23.34 0l-7.38 3.15c-.16.09-.33.12-.5.12z"/><path class="st371" d="M321.19 31.04c-.7 0-1.27-.57-1.27-1.27V15.53c0-.7.57-1.27 1.27-1.27.7 0 1.27.57 1.27 1.27v14.24c0 .7-.57 1.27-1.27 1.27z"/><path class="st371" d="M321.19 16.8c-4.81 0-8.72-3.91-8.72-8.72 0-4.81 3.91-8.72 8.72-8.72A8.68 8.68 0 01329 4.2c.31.63.06 1.39-.57 1.7-.63.31-1.39.06-1.7-.57a6.135 6.135 0 00-5.54-3.43c-3.41 0-6.18 2.77-6.18 6.18 0 3.41 2.77 6.18 6.18 6.18.7 0 1.27.57 1.27 1.27 0 .7-.57 1.27-1.27 1.27z"/><path class="st14" d="M501.74 137.08H476.1v56.68c0 7.35-5.94 13.29-13.29 13.29h-73.4c-7.35 0-13.31-5.94-13.31-13.29v-56.68h-30.57c-3.22 0-5.46-3.22-4.35-6.25l30.99-83.36a20.632 20.632 0 0119.33-13.43h69.4c9.04 0 17.03 5.89 19.69 14.51l25.56 82.53c.94 2.97-1.29 6-4.41 6z"/><path d="M439.81 173.04c-21.62 0-43.24-3.29-63.87-9.82a.636.636 0 01-.41-.8c.11-.34.46-.52.8-.41 31.9 10.09 66.18 12.41 99.15 6.71.34-.06.67.17.73.52.06.34-.17.67-.52.73a209.602 209.602 0 01-35.88 3.07zm-4.49 10.69c-20.58 0-41.21-4.12-59.9-12.24a.639.639 0 01-.33-.84c.14-.32.52-.46.84-.33 31.01 13.47 67.44 15.85 99.94 6.53.34-.1.69.1.78.43.1.34-.1.69-.43.78-13.2 3.8-27.04 5.67-40.9 5.67z" fill="#fff"/><path class="st371" d="M401.67 38.08c-.52 0-1.01-.32-1.19-.84-.24-.66.11-1.39.76-1.62l12.64-4.55a37.06 37.06 0 0125.06 0l12.64 4.55c.66.24 1 .96.77 1.62-.24.66-.97 1-1.62.76l-12.64-4.55a34.52 34.52 0 00-23.34 0L402.11 38c-.15.06-.3.08-.44.08z"/><path class="st371" d="M426.41 31.42c-.7 0-1.27-.57-1.27-1.27V15.92c0-.7.57-1.27 1.27-1.27.7 0 1.27.57 1.27 1.27v14.24c0 .7-.57 1.26-1.27 1.26z"/><path class="st371" d="M426.41 17.19c-4.81 0-8.72-3.91-8.72-8.72 0-4.81 3.91-8.72 8.72-8.72a8.68 8.68 0 017.81 4.84c.31.63.06 1.39-.57 1.7-.63.31-1.39.06-1.7-.57a6.135 6.135 0 00-5.54-3.43c-3.41 0-6.18 2.77-6.18 6.18 0 3.41 2.77 6.18 6.18 6.18.7 0 1.27.57 1.27 1.27s-.57 1.27-1.27 1.27z"/><path class="st364" d="M97.79 421.83H65.51l15.21-107.54h28.76z"/><path class="st364" d="M129.09 345.14c-14.43 0-26.17-13.84-26.17-30.85s11.74-30.85 26.17-30.85c14.43 0 26.17 13.84 26.17 30.85s-11.74 30.85-26.17 30.85zm0-60.43c-13.73 0-24.9 13.27-24.9 29.58s11.17 29.58 24.9 29.58c13.73 0 24.9-13.27 24.9-29.58s-11.17-29.58-24.9-29.58z"/><path class="st364" d="M115.04 345.14c-14.43 0-26.17-13.84-26.17-30.85s11.74-30.85 26.17-30.85c14.43 0 26.17 13.84 26.17 30.85-.01 17.01-11.74 30.85-26.17 30.85zm0-60.43c-13.73 0-24.9 13.27-24.9 29.58s11.17 29.58 24.9 29.58c13.73 0 24.9-13.27 24.9-29.58s-11.17-29.58-24.9-29.58z"/><path class="st13" d="M167.83 314.29h-67.26l-2.78 107.54h83.93z"/><path class="st364" d="M229.7 357.41h-90.31c-7.47 0-13.52 6.05-13.52 13.52v37.38c0 7.47 6.05 13.52 13.52 13.52h90.31c7.47 0 13.52-6.05 13.52-13.52v-37.38c0-7.47-6.06-13.52-13.52-13.52z"/><path class="st364" d="M195.65 390.26c-14.43 0-26.17-13.84-26.17-30.85s11.74-30.85 26.17-30.85c14.43 0 26.17 13.84 26.17 30.85s-11.74 30.85-26.17 30.85zm0-60.44c-13.73 0-24.9 13.27-24.9 29.58s11.17 29.58 24.9 29.58c13.73 0 24.9-13.27 24.9-29.58s-11.17-29.58-24.9-29.58z"/><path class="st14" d="M243.59 357.41h-90.31c-7.47 0-13.52 6.05-13.52 13.52v37.38c0 7.47 6.05 13.52 13.52 13.52h90.31c7.47 0 13.52-6.05 13.52-13.52v-37.38c0-7.47-6.06-13.52-13.52-13.52z"/><path class="st364" d="M139.76 388.99h117.35v1.27H139.76z"/></svg>