<?xml version="1.0" encoding="utf-8"?>
<!-- Generator: Adobe Illustrator 24.2.3, SVG Export Plug-In . SVG Version: 6.00 Build 0)  -->
<svg version="1.1" id="Слой_1" xmlns="http://www.w3.org/2000/svg" xmlns:xlink="http://www.w3.org/1999/xlink" x="0px" y="0px"
	 viewBox="0 0 585 425" style="enable-background:new 0 0 585 425;" xml:space="preserve">
<style type="text/css">
	.st0{clip-path:url(#SVGID_2_);fill:#D670E1;}
	.st1{clip-path:url(#SVGID_2_);fill:#E8B4EF;}
	.st2{clip-path:url(#SVGID_2_);fill:#8D9396;}
	.st3{clip-path:url(#SVGID_2_);fill:#931CA0;}
	.st4{clip-path:url(#SVGID_2_);fill:#CED1D4;}
	.st5{clip-path:url(#SVGID_2_);fill:#E0DCD2;}
	.st6{clip-path:url(#SVGID_2_);fill:#543F31;}
	.st7{clip-path:url(#SVGID_2_);fill:#C48B75;}
	.st8{clip-path:url(#SVGID_2_);fill:#B4BABD;}
	.st9{clip-path:url(#SVGID_2_);fill:#8C9396;}
	.st10{clip-path:url(#SVGID_2_);fill:#D69D88;}
	.st11{fill:#E8B4EF;}
	.st12{clip-path:url(#SVGID_4_);}
	.st13{fill:#E097E9;}
	.st14{fill:#D670E1;}
	.st15{clip-path:url(#SVGID_6_);fill:#FFE406;}
	.st16{opacity:0.5;clip-path:url(#SVGID_6_);}
	.st17{fill:#A3CAFF;}
	.st18{fill:#FF8C00;}
	.st19{clip-path:url(#SVGID_6_);fill:#FFEDA1;}
	.st20{clip-path:url(#SVGID_6_);}
	.st21{fill:#FFCB33;}
	.st22{fill:#FFEDA1;}
	.st23{fill:#2A356B;}
	.st24{clip-path:url(#SVGID_6_);fill:#FFCB33;}
	.st25{clip-path:url(#SVGID_6_);fill:#A3CAFF;}
	.st26{clip-path:url(#SVGID_6_);fill:#FF8C00;}
	.st27{clip-path:url(#SVGID_6_);fill:#2A356B;}
	.st28{fill:#1B254E;}
	.st29{clip-path:url(#SVGID_6_);fill:#C32C28;}
	.st30{clip-path:url(#SVGID_6_);fill:#FF7400;}
	.st31{fill:#FFE406;}
	.st32{clip-path:url(#SVGID_6_);fill:#FFEF6E;}
	.st33{clip-path:url(#SVGID_8_);fill:#FFE473;}
	.st34{fill:#FFFFFF;}
	.st35{fill:#FF6567;}
	.st36{fill:url(#SVGID_9_);}
	.st37{fill:#ADD8C3;}
	.st38{fill:none;stroke:#FFFFFF;stroke-miterlimit:10;}
	.st39{fill:#A2CBAB;}
	.st40{fill:#96CDA1;}
	.st41{opacity:0.76;}
	.st42{fill:#C4E9CD;}
	.st43{fill:url(#SVGID_10_);}
	.st44{fill:url(#SVGID_11_);}
	.st45{fill:#F6E6BE;}
	.st46{fill:url(#SVGID_12_);}
	.st47{fill:url(#SVGID_13_);}
	.st48{fill:url(#SVGID_14_);}
	.st49{fill:#E4EEC4;}
	.st50{fill:#EFFBD2;}
	.st51{fill:url(#SVGID_15_);}
	.st52{fill:url(#SVGID_16_);}
	.st53{fill:url(#SVGID_17_);}
	.st54{fill:url(#SVGID_18_);}
	.st55{fill:#FFE493;}
	.st56{clip-path:url(#SVGID_20_);fill:url(#SVGID_21_);}
	.st57{fill:#5B2A1E;}
	.st58{fill:#907673;}
	.st59{fill:url(#SVGID_22_);}
	.st60{fill:url(#SVGID_23_);}
	.st61{fill:url(#SVGID_24_);}
	.st62{fill:url(#SVGID_25_);}
	.st63{fill:#FE82C8;}
	.st64{opacity:0.62;clip-path:url(#SVGID_27_);fill:#FFFFFF;}
	.st65{opacity:0.75;clip-path:url(#SVGID_27_);fill:#FFFFFF;}
	.st66{opacity:0.41;clip-path:url(#SVGID_27_);fill:#FFFFFF;}
	.st67{clip-path:url(#SVGID_27_);fill:none;}
	.st68{clip-path:url(#SVGID_29_);}
	.st69{opacity:0.26;fill:#FFFFFF;}
	.st70{opacity:0.69;fill:#FFFFFF;}
	.st71{fill:none;}
	.st72{opacity:0.16;fill:#FFFFFF;}
	.st73{opacity:0.3;fill:#FFFFFF;}
	.st74{opacity:0.23;fill:#FFFFFF;}
	.st75{opacity:0.24;fill:#FFFFFF;}
	.st76{opacity:0.17;}
	.st77{opacity:0.05;fill:#E2E8E4;}
	.st78{clip-path:url(#SVGID_31_);}
	.st79{opacity:0.76;clip-path:url(#SVGID_31_);fill:#FFFFFF;}
	.st80{clip-path:url(#SVGID_31_);fill:url(#SVGID_32_);}
	.st81{clip-path:url(#SVGID_31_);fill:none;stroke:#FFFFFF;stroke-width:2;stroke-linecap:round;stroke-miterlimit:10;}
	.st82{clip-path:url(#SVGID_31_);fill:url(#SVGID_33_);}
	.st83{clip-path:url(#SVGID_31_);fill:url(#SVGID_34_);}
	.st84{clip-path:url(#SVGID_31_);fill:url(#SVGID_35_);}
	.st85{clip-path:url(#SVGID_31_);fill:url(#SVGID_36_);}
	.st86{clip-path:url(#SVGID_31_);fill:#FFFFFF;}
	.st87{clip-path:url(#SVGID_31_);fill:url(#SVGID_37_);}
	.st88{opacity:0.62;clip-path:url(#SVGID_39_);fill:#FFFFFF;}
	.st89{clip-path:url(#SVGID_39_);fill:#FFFFFF;}
	.st90{opacity:0.41;clip-path:url(#SVGID_39_);fill:#FFFFFF;}
	.st91{clip-path:url(#SVGID_39_);fill:none;}
	.st92{clip-path:url(#SVGID_41_);}
	.st93{fill:url(#SVGID_42_);}
	.st94{opacity:0.74;clip-path:url(#SVGID_44_);fill:url(#SVGID_45_);}
	.st95{fill:#E5E5E5;}
	.st96{fill:none;stroke:#4D4D4D;stroke-width:0.75;stroke-linecap:round;stroke-miterlimit:10;}
	.st97{fill:url(#SVGID_46_);}
	.st98{opacity:0.74;fill:url(#SVGID_47_);}
	.st99{opacity:0.74;fill:url(#SVGID_48_);}
	.st100{opacity:0.74;fill:url(#SVGID_49_);}
	.st101{opacity:0.74;fill:url(#SVGID_50_);}
	.st102{fill:url(#SVGID_51_);}
	.st103{opacity:0.66;}
	.st104{opacity:0.37;fill:#FFFFFF;}
	.st105{fill:url(#SVGID_52_);}
	.st106{fill:url(#SVGID_53_);}
	.st107{opacity:0.44;clip-path:url(#SVGID_55_);fill:#FFFFD9;}
	.st108{opacity:0.43;clip-path:url(#SVGID_57_);fill:#FFFFFF;}
	.st109{clip-path:url(#SVGID_57_);fill:none;stroke:#FFFFFF;stroke-miterlimit:10;}
	.st110{opacity:0.76;clip-path:url(#SVGID_57_);fill:#FFFFFF;}
	.st111{clip-path:url(#SVGID_57_);fill:#FFFFFF;}
	.st112{opacity:0.08;clip-path:url(#SVGID_57_);fill:#FFFFFF;}
	.st113{opacity:0.27;clip-path:url(#SVGID_57_);fill:#FFFFFF;}
	.st114{opacity:0.37;clip-path:url(#SVGID_57_);fill:#FFFFFF;}
	.st115{clip-path:url(#SVGID_57_);fill:none;}
	.st116{fill:url(#SVGID_58_);}
	.st117{opacity:0.62;clip-path:url(#SVGID_60_);fill:#FFFFFF;}
	.st118{clip-path:url(#SVGID_60_);fill:#FFFFFF;}
	.st119{opacity:0.41;clip-path:url(#SVGID_60_);fill:#FFFFFF;}
	.st120{clip-path:url(#SVGID_60_);fill:none;}
	.st121{clip-path:url(#SVGID_62_);}
	.st122{opacity:0.55;fill:url(#SVGID_63_);}
	.st123{fill:url(#SVGID_64_);}
	.st124{fill:url(#SVGID_65_);}
	.st125{opacity:0.28;}
	.st126{opacity:0.56;clip-path:url(#SVGID_67_);fill:#FFFFFF;}
	.st127{opacity:0.43;clip-path:url(#SVGID_69_);fill:#FFFFFF;}
	.st128{clip-path:url(#SVGID_69_);fill:none;stroke:#FFFFFF;stroke-miterlimit:10;}
	.st129{opacity:0.76;clip-path:url(#SVGID_69_);fill:#FFFFFF;}
	.st130{clip-path:url(#SVGID_69_);fill:#FFFFFF;}
	.st131{opacity:0.08;clip-path:url(#SVGID_69_);fill:#FFFFFF;}
	.st132{opacity:0.27;clip-path:url(#SVGID_69_);fill:#FFFFFF;}
	.st133{opacity:0.37;clip-path:url(#SVGID_69_);fill:#FFFFFF;}
	.st134{clip-path:url(#SVGID_69_);fill:none;}
	.st135{clip-path:url(#SVGID_71_);fill:none;}
	.st136{opacity:0.46;}
	.st137{opacity:0.86;fill:#FFFFFF;}
	.st138{opacity:0.4;}
	.st139{opacity:0.73;fill:#FFFFFF;}
	.st140{opacity:0.54;clip-path:url(#SVGID_73_);fill:#FFFFFF;}
	.st141{fill:#FF8A8A;}
	.st142{opacity:0.75;fill:#FFFFFF;}
	.st143{fill:#FFC181;}
	.st144{clip-path:url(#SVGID_75_);fill:#FFDFBD;}
	.st145{clip-path:url(#SVGID_75_);fill:#FF9D00;}
	.st146{clip-path:url(#SVGID_75_);fill:#FFF3DF;}
	.st147{clip-path:url(#SVGID_77_);fill:#FFBAE4;}
	.st148{opacity:0.8;clip-path:url(#SVGID_77_);fill:#FE82C8;}
	.st149{clip-path:url(#SVGID_77_);fill:#FE82C8;}
	.st150{opacity:0.79;clip-path:url(#SVGID_77_);fill:#FFBAE4;}
	.st151{fill:#FFFEEA;}
	.st152{fill:#58D196;}
	.st153{fill:#A6E5C3;}
	.st154{fill:#D2F2E1;}
	.st155{opacity:0.44;fill:#FFFFFF;}
	.st156{clip-path:url(#SVGID_79_);fill:#FFF9C1;}
	.st157{opacity:0.86;fill:#FFCCD5;}
	.st158{opacity:0.62;clip-path:url(#SVGID_81_);fill:#FFFFFF;}
	.st159{opacity:0.75;clip-path:url(#SVGID_81_);fill:#FFFFFF;}
	.st160{opacity:0.41;clip-path:url(#SVGID_81_);fill:#FFFFFF;}
	.st161{clip-path:url(#SVGID_81_);fill:none;}
	.st162{clip-path:url(#SVGID_83_);}
	.st163{opacity:0.44;clip-path:url(#SVGID_85_);fill:#FFFFFF;}
	.st164{opacity:0.43;clip-path:url(#SVGID_87_);fill:#FFFFFF;}
	.st165{clip-path:url(#SVGID_87_);fill:none;stroke:#FFFFFF;stroke-miterlimit:10;}
	.st166{opacity:0.76;clip-path:url(#SVGID_87_);fill:#FFFFFF;}
	.st167{clip-path:url(#SVGID_87_);fill:#FFFFFF;}
	.st168{opacity:0.08;clip-path:url(#SVGID_87_);fill:#FFFFFF;}
	.st169{opacity:0.27;clip-path:url(#SVGID_87_);fill:#FFFFFF;}
	.st170{opacity:0.37;clip-path:url(#SVGID_87_);fill:#FFFFFF;}
	.st171{clip-path:url(#SVGID_87_);fill:none;}
	.st172{opacity:0.54;clip-path:url(#SVGID_89_);fill:#FFFFFF;}
	.st173{opacity:0.62;fill:#FFFFFF;}
	.st174{opacity:0.41;fill:#FFFFFF;}
	.st175{opacity:0.43;fill:#FFFFFF;}
	.st176{opacity:0.76;fill:#FFFFFF;}
	.st177{opacity:0.08;fill:#FFFFFF;}
	.st178{opacity:0.27;fill:#FFFFFF;}
	.st179{opacity:0.54;fill:#FFFFFF;}
	.st180{clip-path:url(#SVGID_91_);fill:#FF6567;}
	.st181{clip-path:url(#SVGID_91_);fill:#FF8A8A;}
	.st182{clip-path:url(#SVGID_91_);fill:#FFC2C1;}
	.st183{clip-path:url(#SVGID_91_);fill:#FFFFFF;}
	.st184{clip-path:url(#SVGID_93_);fill:#E2E9FF;}
	.st185{clip-path:url(#SVGID_93_);fill:#EEF2FF;}
	.st186{opacity:0.54;clip-path:url(#SVGID_93_);fill:#EEF2FF;}
	.st187{opacity:0.54;clip-path:url(#SVGID_93_);fill:#8FAAF0;}
	.st188{clip-path:url(#SVGID_95_);}
	.st189{fill:#FF6B81;}
	.st190{clip-path:url(#SVGID_95_);fill:none;}
	.st191{fill:#FF1B6F;}
	.st192{clip-path:url(#SVGID_97_);fill:#FFDFBD;}
	.st193{clip-path:url(#SVGID_97_);fill:#FF9D00;}
	.st194{clip-path:url(#SVGID_97_);fill:#FFF3DF;}
	.st195{clip-path:url(#SVGID_99_);fill:#F0C6F4;}
	.st196{opacity:0.8;clip-path:url(#SVGID_99_);fill:#F8E3F8;}
	.st197{clip-path:url(#SVGID_99_);fill:#F8E3F8;}
	.st198{opacity:0.79;clip-path:url(#SVGID_99_);fill:#F0C6F4;}
	.st199{clip-path:url(#SVGID_101_);fill:#FFF9C1;}
	.st200{clip-path:url(#SVGID_103_);fill:#FFC5D6;}
	.st201{clip-path:url(#SVGID_103_);fill:#FF94B3;}
	.st202{clip-path:url(#SVGID_103_);fill:#FF6794;}
	.st203{clip-path:url(#SVGID_103_);fill:#FFFFFF;}
	.st204{clip-path:url(#SVGID_107_);fill:#698DE6;}
	.st205{clip-path:url(#SVGID_107_);fill:#8FAAF0;}
	.st206{opacity:0.54;clip-path:url(#SVGID_107_);fill:#8FAAF0;}
	.st207{clip-path:url(#SVGID_109_);}
	.st208{clip-path:url(#SVGID_109_);fill:none;}
	.st209{opacity:0.46;clip-path:url(#SVGID_111_);}
	.st210{clip-path:url(#SVGID_111_);fill:none;}
	.st211{fill:none;stroke:#FFFFFF;stroke-width:2;stroke-miterlimit:10;}
	.st212{opacity:0.45;fill:#FFFFFF;}
	.st213{opacity:0.8;fill:#FFFFFF;}
	.st214{opacity:0.79;fill:#FFFFFF;}
	.st215{fill:#F2C5AA;}
	.st216{fill:none;stroke:#FFFFFF;stroke-width:0.75;stroke-miterlimit:10;}
	.st217{fill:#FFFFFF;stroke:#FFFFFF;stroke-width:0.25;stroke-miterlimit:10;}
	.st218{fill:#D3C1B2;}
	.st219{fill:#FFC5D6;}
	.st220{clip-path:url(#SVGID_117_);fill:#F787A5;}
	.st221{clip-path:url(#SVGID_117_);fill:#FFE9F2;}
	.st222{clip-path:url(#SVGID_117_);fill:#D3CFB3;}
	.st223{clip-path:url(#SVGID_117_);fill:#FFDBE5;}
	.st224{clip-path:url(#SVGID_117_);}
	.st225{fill:#FFE9F2;}
	.st226{fill:#F787A5;}
	.st227{fill:#F2CCC1;}
	.st228{fill:#DF4E50;}
	.st229{clip-path:url(#SVGID_117_);fill:#FFC5D6;}
	.st230{fill:#FFDBE5;}
	.st231{fill:#FFB9C3;}
	.st232{fill:#FB91B5;}
	.st233{fill:#E3A180;}
	.st234{fill:#92693D;}
	.st235{fill:#FBBACC;}
	.st236{fill:#E6678D;}
	.st237{fill:#574435;}
	.st238{fill:#C9A47C;}
	.st239{fill:#641F1E;}
	.st240{fill:#F15E89;}
	.st241{fill:#E7005E;}
	.st242{fill:#DEB78A;}
	.st243{fill:#DFB78A;}
	.st244{fill:#FF6794;}
	.st245{fill:#D72264;}
	.st246{fill:#F7F7F7;}
	.st247{fill:#F2F2F2;}
	.st248{fill:#FFFBF0;}
	.st249{fill:#FFBFCF;}
	.st250{fill:#FF9DAE;}
	.st251{fill:#FFC2C1;}
	.st252{fill:#FFCCD5;}
	.st253{fill:#B49E8F;}
	.st254{fill:#FFE2EA;}
	.st255{fill:#A3C5DC;}
	.st256{fill:#DA956B;}
	.st257{fill:#BDA595;}
	.st258{fill:#583B34;}
	.st259{fill:#63443C;}
	.st260{fill:#B2D0E5;}
	.st261{fill:#FCFCFB;}
	.st262{fill:#D0ACA1;}
	.st263{fill:#A2C4DB;}
	.st264{fill:#E1D0C8;}
	.st265{fill:#9C7972;}
	.st266{fill:#77573F;}
	.st267{fill:#F3769C;}
	.st268{fill:#FBFBF9;}
	.st269{fill:#F8C4DC;}
	.st270{fill:#E4BAB5;}
	.st271{clip-path:url(#SVGID_119_);fill:#F787A5;}
	.st272{clip-path:url(#SVGID_119_);fill:#FFE9F2;}
	.st273{clip-path:url(#SVGID_119_);fill:#D3CFB3;}
	.st274{clip-path:url(#SVGID_119_);fill:#FFDBE5;}
	.st275{clip-path:url(#SVGID_119_);}
	.st276{clip-path:url(#SVGID_119_);fill:#FFC5D6;}
	.st277{fill:#00C377;}
	.st278{fill:#88E5AF;}
	.st279{fill:#00B45A;}
	.st280{fill:#7FDAAA;}
	.st281{fill:#F2BC3A;}
	.st282{fill:#B99F65;}
	.st283{fill:#98D284;}
	.st284{fill:#3C3724;}
	.st285{fill:#D6BEA2;}
	.st286{fill:#9C8274;}
	.st287{fill:#587147;}
	.st288{fill:#E7D6BE;}
	.st289{fill:#5CC689;}
	.st290{clip-path:url(#SVGID_121_);fill:#A6E5C3;}
	.st291{clip-path:url(#SVGID_121_);fill:#FFFFFF;}
	.st292{clip-path:url(#SVGID_121_);fill:#58D196;}
	.st293{fill:#FFEF6E;}
	.st294{fill:#FFE200;}
	.st295{clip-path:url(#SVGID_123_);fill:#FDA157;}
	.st296{clip-path:url(#SVGID_123_);fill-rule:evenodd;clip-rule:evenodd;fill:#FF8429;}
	.st297{clip-path:url(#SVGID_123_);fill:#F35000;}
	.st298{clip-path:url(#SVGID_123_);fill:#F9B946;}
	.st299{fill:#F35000;}
	.st300{fill:#FF8429;}
	.st301{fill:#FFAC33;}
	.st302{fill:#E56D00;}
	.st303{fill:#EF6406;}
	.st304{fill:#FF9C00;}
	.st305{fill:#130077;}
	.st306{fill:#FFB58D;}
	.st307{opacity:0.3;}
	.st308{fill:#FF7300;}
	.st309{fill:#6E0000;}
	.st310{fill-rule:evenodd;clip-rule:evenodd;fill:#FF9C00;}
	.st311{fill-rule:evenodd;clip-rule:evenodd;fill:url(#SVGID_124_);}
	.st312{opacity:0.3;fill-rule:evenodd;clip-rule:evenodd;fill:#A4002C;}
	.st313{fill-rule:evenodd;clip-rule:evenodd;fill:url(#SVGID_125_);}
	.st314{fill-rule:evenodd;clip-rule:evenodd;fill:url(#SVGID_126_);}
	.st315{opacity:0.5;fill-rule:evenodd;clip-rule:evenodd;fill:url(#SVGID_127_);}
	.st316{fill-rule:evenodd;clip-rule:evenodd;fill:#FFC485;}
	.st317{fill-rule:evenodd;clip-rule:evenodd;fill:url(#SVGID_128_);}
	.st318{fill-rule:evenodd;clip-rule:evenodd;fill:url(#SVGID_129_);}
	.st319{fill-rule:evenodd;clip-rule:evenodd;fill:url(#SVGID_130_);}
	.st320{opacity:0.5;fill-rule:evenodd;clip-rule:evenodd;fill:url(#SVGID_131_);}
	.st321{fill-rule:evenodd;clip-rule:evenodd;fill:#FDA157;}
	.st322{opacity:0.5;fill-rule:evenodd;clip-rule:evenodd;fill:#FDA157;}
	.st323{fill-rule:evenodd;clip-rule:evenodd;fill:#FF8429;}
	.st324{fill-rule:evenodd;clip-rule:evenodd;fill:#FFAC33;}
	.st325{opacity:0.62;fill-rule:evenodd;clip-rule:evenodd;fill:#C8002A;}
	.st326{opacity:0.5;fill-rule:evenodd;clip-rule:evenodd;fill:#FF8429;}
	.st327{opacity:0.5;fill-rule:evenodd;clip-rule:evenodd;fill:#8F5472;}
	.st328{opacity:0.3;fill-rule:evenodd;clip-rule:evenodd;fill:url(#SVGID_132_);}
	.st329{opacity:0.5;fill-rule:evenodd;clip-rule:evenodd;fill:url(#SVGID_133_);}
	.st330{opacity:0.3;fill-rule:evenodd;clip-rule:evenodd;fill:url(#SVGID_134_);}
	.st331{opacity:0.3;fill-rule:evenodd;clip-rule:evenodd;fill:url(#SVGID_135_);}
	.st332{clip-path:url(#SVGID_137_);}
	.st333{clip-path:url(#SVGID_137_);fill:#FF8429;}
	.st334{fill:#FDA157;}
	.st335{clip-path:url(#SVGID_139_);}
	.st336{fill:#F58800;}
	.st337{clip-path:url(#SVGID_141_);}
	.st338{fill:#F9B946;}
	.st339{clip-path:url(#SVGID_143_);}
	.st340{clip-path:url(#SVGID_143_);fill:#FF8429;}
	.st341{fill-rule:evenodd;clip-rule:evenodd;fill:url(#SVGID_144_);}
	.st342{fill-rule:evenodd;clip-rule:evenodd;fill:url(#SVGID_145_);}
	.st343{fill-rule:evenodd;clip-rule:evenodd;fill:url(#SVGID_146_);}
	.st344{opacity:0.5;fill-rule:evenodd;clip-rule:evenodd;fill:url(#SVGID_147_);}
	.st345{fill-rule:evenodd;clip-rule:evenodd;fill:url(#SVGID_148_);}
	.st346{fill-rule:evenodd;clip-rule:evenodd;fill:url(#SVGID_149_);}
	.st347{fill-rule:evenodd;clip-rule:evenodd;fill:url(#SVGID_150_);}
	.st348{opacity:0.5;fill-rule:evenodd;clip-rule:evenodd;fill:url(#SVGID_151_);}
	.st349{opacity:0.3;fill-rule:evenodd;clip-rule:evenodd;fill:url(#SVGID_152_);}
	.st350{opacity:0.5;fill-rule:evenodd;clip-rule:evenodd;fill:url(#SVGID_153_);}
	.st351{opacity:0.3;fill-rule:evenodd;clip-rule:evenodd;fill:url(#SVGID_154_);}
	.st352{opacity:0.3;fill-rule:evenodd;clip-rule:evenodd;fill:url(#SVGID_155_);}
	.st353{opacity:0.88;fill:#FFFEF3;}
	.st354{fill:#FFD066;}
	.st355{fill:#B0ACAD;}
	.st356{fill:#FFE473;}
	.st357{fill:#FFE888;}
	.st358{fill:#F7C800;}
	.st359{fill:#FFEB97;}
	.st360{clip-path:url(#SVGID_157_);fill:#FFCB33;}
	.st361{clip-path:url(#SVGID_157_);fill:#FFE406;}
	.st362{clip-path:url(#SVGID_159_);fill:#931CA0;}
	.st363{opacity:0.5;clip-path:url(#SVGID_159_);}
	.st364{fill:#931CA0;}
	.st365{clip-path:url(#SVGID_159_);}
	.st366{clip-path:url(#SVGID_161_);fill:#E097E9;}
	.st367{fill:#CC37D8;}
	.st368{opacity:0.5;fill:#FFFFFF;}
	.st369{opacity:0.5;fill:#FFFFFF;stroke:#FFFFFF;stroke-miterlimit:10;}
	.st370{opacity:0.68;fill:#FFFFFF;}
	.st371{fill:#F0C6F4;}
	.st372{fill:#DAA3E2;}
	.st373{fill:#AB7B41;}
	.st374{fill:#8D9396;}
	.st375{fill:#CED1D4;}
	.st376{fill:#E0DCD2;}
	.st377{fill:#543F31;}
	.st378{fill:#C48B75;}
	.st379{fill:#B4BABD;}
	.st380{fill:#8C9396;}
	.st381{fill:#D69D88;}
</style>
<g>
	<g>
		<g>
			<path class="st372" d="M580.07,395.91h-6.34v-6.95c0-3.75-3.05-6.8-6.8-6.8h-57.71c-3.75,0-6.8,3.05-6.8,6.8v6.95h-6.34v-6.95
				c0-7.25,5.9-13.15,13.15-13.15h57.71c7.25,0,13.15,5.9,13.15,13.15V395.91z"/>
		</g>
		<g>
			<path class="st372" d="M499.91,417.04L499.91,417.04c-4.47,0-8.1-3.63-8.1-8.1V398.4c0-4.47,3.63-8.1,8.1-8.1l0,0
				c4.47,0,8.1,3.63,8.1,8.1v10.54C508.01,413.42,504.39,417.04,499.91,417.04z"/>
		</g>
		<g>
			<path class="st372" d="M576.9,417.04L576.9,417.04c-4.47,0-8.1-3.63-8.1-8.1V398.4c0-4.47,3.63-8.1,8.1-8.1l0,0
				c4.47,0,8.1,3.63,8.1,8.1v10.54C585,413.42,581.37,417.04,576.9,417.04z"/>
		</g>
	</g>
	<g>
		<g>
			<path class="st372" d="M89.86,395.91h-6.34v-6.95c0-3.75-3.05-6.8-6.8-6.8H19c-3.75,0-6.8,3.05-6.8,6.8v6.95H5.85v-6.95
				c0-7.25,5.9-13.15,13.15-13.15h57.71c7.25,0,13.15,5.9,13.15,13.15V395.91z"/>
		</g>
		<g>
			<path class="st372" d="M11.6,417.04H7.79c-3.42,0-6.19-2.77-6.19-6.19l0-14.36c0-3.42,2.77-6.19,6.19-6.19h3.82
				c3.42,0,6.19,2.77,6.19,6.19v14.36C17.8,414.27,15.02,417.04,11.6,417.04z"/>
		</g>
		<g>
			<path class="st372" d="M86.68,417.04L86.68,417.04c-4.47,0-8.1-3.63-8.1-8.1V398.4c0-4.47,3.63-8.1,8.1-8.1l0,0
				c4.47,0,8.1,3.63,8.1,8.1v10.54C94.78,413.42,91.16,417.04,86.68,417.04z"/>
		</g>
	</g>
	<g>
		<path class="st372" d="M541.24,379.97h-6.34V22.19c0-5.66-4.61-10.27-10.27-10.27h-463c-5.66,0-10.27,4.61-10.27,10.27v357.78
			h-6.34V22.19c0-9.16,7.45-16.61,16.61-16.61h463c9.16,0,16.61,7.45,16.61,16.61V379.97z"/>
	</g>
</g>
<g>
	<path class="st371" d="M253.53,60.23h-87.01c-2.22,0-4.1-1.44-4.68-3.58c-0.58-2.14,0.32-4.33,2.24-5.45l27.1-15.78
		c0.05-0.03,0.09-0.05,0.14-0.07l7.45-3.18c8.15-2.93,17.05-2.93,25.13-0.03l7.44,2.67c0.1,0.03,0.19,0.08,0.27,0.14l24.61,16.4
		c1.82,1.21,2.58,3.34,1.95,5.43C257.53,58.88,255.71,60.23,253.53,60.23z M192.38,37.65L165.35,53.4
		c-1.13,0.65-1.29,1.77-1.07,2.59c0.22,0.82,0.92,1.7,2.23,1.7h87.01c1.26,0,1.97-0.85,2.21-1.64c0.24-0.79,0.12-1.89-0.93-2.59
		l-24.48-16.31l-7.29-2.62c-7.53-2.71-15.82-2.71-23.34,0L192.38,37.65z"/>
</g>
<g>
	<path class="st14" d="M163.34,238.91c-4.44-7.79-0.01-26.04,0.33-33.86c0.67-15.52,1.34-31.05,2.01-46.57l6.14-100.63
		c0.16-3.72,3.23-6.66,6.95-6.66h60.41c4.55,0,8.31,3.54,8.57,8.08c0,0,2.02,34.5,2.02,34.5c1.39,23.8,3.28,47.58,5.32,71.33
		c1.91,22.26,5.98,44.6,6.24,66.8c0.16,14.02-7.45,10.67-16.21,5.77c-12.7-7.1-15.2,1.73-25.39,6.54
		c-4.68,2.21-10.22,1.58-14.46-1.39c-8.48-5.93-15.09-9.63-23.29-5.76c-5.05,2.39-6.91,6.73-14.01,5.3
		C165.86,241.95,164.36,240.71,163.34,238.91z"/>
</g>
<g>
	<path class="st371" d="M211.36,32.5c-0.7,0-1.27-0.57-1.27-1.27V16.99c0-0.7,0.57-1.27,1.27-1.27s1.27,0.57,1.27,1.27v14.24
		C212.63,31.93,212.06,32.5,211.36,32.5z"/>
</g>
<g>
	<rect x="186.51" y="87.19" class="st13" width="1.27" height="146.21"/>
</g>
<g>
	
		<rect x="236.74" y="87.18" transform="matrix(0.9998 -0.019 0.019 0.9998 -3.0023 4.5384)" class="st13" width="1.27" height="146.23"/>
</g>
<g>
	
		<rect x="218.25" y="130.57" transform="matrix(0.9999 -0.015 0.015 0.9999 -2.7784 3.2948)" class="st13" width="1.27" height="113.66"/>
</g>
<g>
	<path class="st371" d="M168.35,230.99c-0.7,0-1.39-0.09-2.05-0.29c-2.21-0.66-3.95-2.45-5.17-5.34c-0.14-0.32,0.01-0.69,0.34-0.83
		c0.32-0.13,0.7,0.01,0.83,0.34c1.08,2.55,2.51,4.06,4.36,4.61c3.98,1.18,9.19-2.33,13-4.9c4.78-3.22,10.84-4.69,16.71-4.07
		c3.48,0.37,6.32,1.87,9.06,3.32c2.37,1.25,4.81,2.55,7.64,3.08c5.02,0.94,8.75-1.12,12.69-3.29c2.56-1.41,5.2-2.87,8.33-3.6
		c4.56-1.07,9.17-0.6,14.96,1.54c0.96,0.35,1.95,0.83,3,1.34c2.91,1.41,5.91,2.86,8.6,1.78c0.19-0.08,0.39-0.06,0.57,0.05
		c0.17,0.1,0.28,0.28,0.3,0.48l0.14,1.41c0.03,0.35-0.22,0.66-0.57,0.69c-0.35,0.02-0.66-0.22-0.69-0.57l-0.06-0.63
		c-2.97,0.77-6.07-0.74-8.83-2.07c-1.02-0.49-1.98-0.96-2.88-1.29c-5.54-2.04-9.93-2.5-14.23-1.49c-2.96,0.7-5.52,2.11-8,3.48
		c-3.97,2.19-8.07,4.46-13.54,3.43c-3.02-0.57-5.55-1.91-8-3.2c-2.76-1.46-5.36-2.84-8.6-3.18c-5.57-0.59-11.33,0.8-15.8,3.82
		C176.95,227.94,172.43,230.99,168.35,230.99z"/>
</g>
<g>
	<g>
		<path class="st364" d="M389.16,199.08c-3.96,3.45-8.63,6.17-12.44,7.43c-6.16,2.03-5.38-1.65-6.83,5.13
			c-1.86,8.69,0,19.85,0,28.72c0,16.83,0,33.67,0,50.5c0,9.04-8.31,14.17-16.65,13.29c-4.13-0.43-7.89-2.65-11.69-4.54v-27.78
			c-3.68-1.85-7.4-3.38-11.57-2.69c-5.86,0.94-10.56,6.56-16.49,6.24c-4.6-0.25-8.29-4.04-12.64-5.43v27.78
			c-0.61-0.19-1.24-0.33-1.88-0.42c-3.36-0.43-6.65,0.94-9.69,2.43c-3.03,1.47-6.14,3.11-9.51,3.25c-6.38,0.26-9.88-6.46-9.88-12.13
			c0,0,0-84.46,0-84.46c0,1.79-31.2-7.33-32.75-17.97c-0.79-5.46,3.31-15.29,4.43-20.8c3.48-17.15,6.95-34.3,10.43-51.44
			c4.65-22.95,9.31-45.89,13.96-68.84c3.01-8.07,10.71-13.43,19.33-13.43h69.4c9.04,0,17.03,5.89,19.69,14.51
			c6.51,21.05,7.64,45.43,11.29,67.12c2.85,16.95,5.7,33.9,8.55,50.86c0.96,5.72,4.07,14.09,3.29,19.84
			C396.9,190.76,393.45,195.35,389.16,199.08z"/>
	</g>
</g>
<g>
	<path class="st373" d="M341.54,33.87v237.64c-3.68-1.85-7.4-3.38-11.57-2.69c-5.86,0.94-10.56,6.56-16.49,6.24
		c-4.6-0.25-8.29-4.04-12.64-5.43V33.87H341.54z"/>
</g>
<g>
	<path class="st14" d="M341.54,33.87v237.64c-3.68-1.85-7.4-3.38-11.57-2.69c-5.86,0.94-10.56,6.56-16.49,6.24
		c-4.6-0.25-8.29-4.04-12.64-5.43V33.87H341.54z"/>
</g>
<g>
	<g>
		<path class="st371" d="M301.64,36.33c-0.49,0-0.96-0.29-1.17-0.77c-0.28-0.64,0.02-1.39,0.67-1.67l7.45-3.18
			c8.15-2.93,17.05-2.93,25.13-0.03l7.44,2.68c0.66,0.24,1,0.96,0.76,1.62c-0.24,0.66-0.96,1-1.62,0.76l-7.44-2.68
			c-7.52-2.71-15.82-2.71-23.34,0l-7.38,3.15C301.98,36.3,301.81,36.33,301.64,36.33z"/>
	</g>
	<g>
		<path class="st371" d="M321.19,31.04c-0.7,0-1.27-0.57-1.27-1.27V15.53c0-0.7,0.57-1.27,1.27-1.27c0.7,0,1.27,0.57,1.27,1.27
			v14.24C322.46,30.47,321.89,31.04,321.19,31.04z"/>
	</g>
	<g>
		<path class="st371" d="M321.19,16.8c-4.81,0-8.72-3.91-8.72-8.72c0-4.81,3.91-8.72,8.72-8.72c3.33,0,6.33,1.86,7.81,4.84
			c0.31,0.63,0.06,1.39-0.57,1.7c-0.63,0.31-1.39,0.06-1.7-0.57c-1.05-2.12-3.17-3.43-5.54-3.43c-3.41,0-6.18,2.77-6.18,6.18
			c0,3.41,2.77,6.18,6.18,6.18c0.7,0,1.27,0.57,1.27,1.27C322.46,16.23,321.89,16.8,321.19,16.8z"/>
	</g>
</g>
<g>
	<path class="st14" d="M501.74,137.08H476.1v56.68c0,7.35-5.94,13.29-13.29,13.29h-73.4c-7.35,0-13.31-5.94-13.31-13.29v-56.68
		h-30.57c-3.22,0-5.46-3.22-4.35-6.25l30.99-83.36c3.01-8.07,10.71-13.43,19.33-13.43h69.4c9.04,0,17.03,5.89,19.69,14.51
		l25.56,82.53C507.09,134.05,504.86,137.08,501.74,137.08z"/>
</g>
<g>
	<path class="st34" d="M439.81,173.04c-21.62,0-43.24-3.29-63.87-9.82c-0.33-0.11-0.52-0.46-0.41-0.8c0.11-0.34,0.46-0.52,0.8-0.41
		c31.9,10.09,66.18,12.41,99.15,6.71c0.34-0.06,0.67,0.17,0.73,0.52c0.06,0.34-0.17,0.67-0.52,0.73
		C463.84,172.03,451.82,173.04,439.81,173.04z"/>
</g>
<g>
	<path class="st34" d="M435.32,183.73c-20.58,0-41.21-4.12-59.9-12.24c-0.32-0.14-0.47-0.51-0.33-0.84
		c0.14-0.32,0.52-0.46,0.84-0.33c31.01,13.47,67.44,15.85,99.94,6.53c0.34-0.1,0.69,0.1,0.78,0.43c0.1,0.34-0.1,0.69-0.43,0.78
		C463.02,181.86,449.18,183.73,435.32,183.73z"/>
</g>
<g>
	<g>
		<path class="st371" d="M401.67,38.08c-0.52,0-1.01-0.32-1.19-0.84c-0.24-0.66,0.11-1.39,0.76-1.62l12.64-4.55
			c8.08-2.91,16.98-2.91,25.06,0l12.64,4.55c0.66,0.24,1,0.96,0.77,1.62c-0.24,0.66-0.97,1-1.62,0.76l-12.64-4.55
			c-7.53-2.71-15.82-2.71-23.34,0l-12.64,4.55C401.96,38.06,401.81,38.08,401.67,38.08z"/>
	</g>
	<g>
		<path class="st371" d="M426.41,31.42c-0.7,0-1.27-0.57-1.27-1.27V15.92c0-0.7,0.57-1.27,1.27-1.27c0.7,0,1.27,0.57,1.27,1.27
			v14.24C427.68,30.86,427.11,31.42,426.41,31.42z"/>
	</g>
	<g>
		<path class="st371" d="M426.41,17.19c-4.81,0-8.72-3.91-8.72-8.72c0-4.81,3.91-8.72,8.72-8.72c3.33,0,6.33,1.86,7.81,4.84
			c0.31,0.63,0.06,1.39-0.57,1.7c-0.63,0.31-1.39,0.06-1.7-0.57c-1.05-2.12-3.17-3.43-5.54-3.43c-3.41,0-6.18,2.77-6.18,6.18
			c0,3.41,2.77,6.18,6.18,6.18c0.7,0,1.27,0.57,1.27,1.27S427.11,17.19,426.41,17.19z"/>
	</g>
</g>
<g>
	<polygon class="st364" points="97.79,421.83 65.51,421.83 80.72,314.29 109.48,314.29 	"/>
</g>
<g>
	<path class="st364" d="M129.09,345.14c-14.43,0-26.17-13.84-26.17-30.85c0-17.01,11.74-30.85,26.17-30.85
		c14.43,0,26.17,13.84,26.17,30.85C155.26,331.3,143.52,345.14,129.09,345.14z M129.09,284.71c-13.73,0-24.9,13.27-24.9,29.58
		c0,16.31,11.17,29.58,24.9,29.58c13.73,0,24.9-13.27,24.9-29.58C153.99,297.98,142.82,284.71,129.09,284.71z"/>
</g>
<g>
	<path class="st364" d="M115.04,345.14c-14.43,0-26.17-13.84-26.17-30.85c0-17.01,11.74-30.85,26.17-30.85
		c14.43,0,26.17,13.84,26.17,30.85C141.2,331.3,129.47,345.14,115.04,345.14z M115.04,284.71c-13.73,0-24.9,13.27-24.9,29.58
		c0,16.31,11.17,29.58,24.9,29.58c13.73,0,24.9-13.27,24.9-29.58C139.94,297.98,128.77,284.71,115.04,284.71z"/>
</g>
<g>
	<polygon class="st13" points="167.83,314.29 100.57,314.29 97.79,421.83 181.72,421.83 	"/>
</g>
<g>
	<g>
		<path class="st364" d="M229.7,357.41h-90.31c-7.47,0-13.52,6.05-13.52,13.52v37.38c0,7.47,6.05,13.52,13.52,13.52h90.31
			c7.47,0,13.52-6.05,13.52-13.52v-37.38C243.22,363.46,237.16,357.41,229.7,357.41z"/>
	</g>
	<g>
		<path class="st364" d="M195.65,390.26c-14.43,0-26.17-13.84-26.17-30.85c0-17.01,11.74-30.85,26.17-30.85
			c14.43,0,26.17,13.84,26.17,30.85C221.82,376.42,210.08,390.26,195.65,390.26z M195.65,329.82c-13.73,0-24.9,13.27-24.9,29.58
			c0,16.31,11.17,29.58,24.9,29.58c13.73,0,24.9-13.27,24.9-29.58C220.55,343.09,209.38,329.82,195.65,329.82z"/>
	</g>
	<g>
		<path class="st14" d="M243.59,357.41h-90.31c-7.47,0-13.52,6.05-13.52,13.52v37.38c0,7.47,6.05,13.52,13.52,13.52h90.31
			c7.47,0,13.52-6.05,13.52-13.52v-37.38C257.11,363.46,251.05,357.41,243.59,357.41z"/>
	</g>
	<g>
		<rect x="139.76" y="388.99" class="st364" width="117.35" height="1.27"/>
	</g>
</g>
</svg>
