<svg id="Capa_1" height="512" width="512" xmlns="http://www.w3.org/2000/svg"><linearGradient id="SVGID_1_" gradientUnits="userSpaceOnUse" x1="256" x2="256" y1="496" y2="46"><stop offset="0" stop-color="#5558ff"/><stop offset="1" stop-color="#00c0ff"/></linearGradient><linearGradient id="SVGID_2_" gradientUnits="userSpaceOnUse" x1="256" x2="256" y1="406" y2="16"><stop offset="0" stop-color="#addcff"/><stop offset=".503" stop-color="#eaf6ff"/><stop offset="1" stop-color="#eaf6ff"/></linearGradient><path d="M488 46H24L0 136v345c0 8.28 6.72 15 15 15h482c8.28 0 15-6.72 15-15V136z" fill="url(#SVGID_1_)"/><path d="M437 286h-20.516l-26.068-52.136c-3.704-7.41-12.714-10.413-20.124-6.708s-10.413 12.715-6.708 20.125l19.36 38.72h-71.888l19.36-38.72c3.705-7.41.702-16.419-6.708-20.125-7.406-3.703-16.419-.702-20.124 6.708L277.516 286H257a15.002 15.002 0 00-14.231 19.743l30 90A15.002 15.002 0 00287 406h120a15 15 0 0014.23-10.256l30-90A15 15 0 00437 286zm-240-30H75c-8.284 0-15 6.716-15 15s6.716 15 15 15h122c8.284 0 15-6.716 15-15s-6.716-15-15-15zm0 60H75c-8.284 0-15 6.716-15 15s6.716 15 15 15h122c8.284 0 15-6.716 15-15s-6.716-15-15-15zm0 60H75c-8.284 0-15 6.716-15 15s6.716 15 15 15h122c8.284 0 15-6.716 15-15s-6.716-15-15-15zM497 16H15C6.72 16 0 22.72 0 31v105h512V31c0-8.28-6.72-15-15-15zM257 91H75c-8.284 0-15-6.716-15-15s6.716-15 15-15h182c8.284 0 15 6.716 15 15s-6.716 15-15 15zm60 0c-8.284 0-15-6.716-15-15s6.716-15 15-15 15 6.716 15 15-6.716 15-15 15zm60 0c-8.284 0-15-6.716-15-15s6.716-15 15-15 15 6.716 15 15-6.716 15-15 15zm60 0c-8.284 0-15-6.716-15-15s6.716-15 15-15 15 6.716 15 15-6.716 15-15 15z" fill="url(#SVGID_2_)"/></svg>