<svg id="Capa_1" height="512" width="512" xmlns="http://www.w3.org/2000/svg"><path d="M76 76c-8.291 0-15-6.709-15-15V31c0-8.291 6.709-15 15-15s15 6.709 15 15v30c0 8.291-6.709 15-15 15zm135-45v30c0 8.399-6.599 15-15 15s-15-6.601-15-15V31c0-8.401 6.599-15 15-15s15 6.599 15 15z" fill="#704c55"/><path d="M317 76c-8.291 0-15-6.709-15-15V31c0-8.291 6.709-15 15-15s15 6.709 15 15v30c0 8.291-6.709 15-15 15zM211 31v30c0 8.399-6.599 15-15 15V16c8.401 0 15 6.599 15 15z" fill="#5a344b"/><path d="M392 106v255c0 8.399-6.599 15-15 15H15c-8.401 0-15-6.601-15-15V106l30-30h332z" fill="#e4f1fb"/><path d="M392 106v255c0 8.399-6.599 15-15 15H196V76h166z" fill="#c9e3f7"/><path d="M392 61v45H0V61c0-8.401 6.599-15 15-15h362c8.401 0 15 6.599 15 15z" fill="#ff7f4b"/><path d="M392 61v45H196V46h181c8.401 0 15 6.599 15 15z" fill="#fd5219"/><path d="M106 196H76c-8.291 0-15-6.709-15-15s6.709-15 15-15h30c8.291 0 15 6.709 15 15s-6.709 15-15 15zm105-15c0 8.399-6.599 15-15 15h-30c-8.401 0-15-6.601-15-15 0-8.401 6.599-15 15-15h30c8.401 0 15 6.599 15 15zm-105 75H76c-8.291 0-15-6.709-15-15s6.709-15 15-15h30c8.291 0 15 6.709 15 15s-6.709 15-15 15zm0 60H76c-8.291 0-15-6.709-15-15s6.709-15 15-15h30c8.291 0 15 6.709 15 15s-6.709 15-15 15zm105-15c0 8.399-6.599 15-15 15h-30c-8.401 0-15-6.601-15-15 0-8.401 6.599-15 15-15h30c8.401 0 15 6.599 15 15zm0-60c0 8.399-6.599 15-15 15h-30c-8.401 0-15-6.601-15-15 0-8.401 6.599-15 15-15h30c8.401 0 15 6.599 15 15z" fill="#64dde0"/><path d="M287 196h-30c-8.291 0-15-6.709-15-15s6.709-15 15-15h30c8.291 0 15 6.709 15 15s-6.709 15-15 15zm-76 105c0 8.399-6.599 15-15 15v-30c8.401 0 15 6.599 15 15zm0-60c0 8.399-6.599 15-15 15v-30c8.401 0 15 6.599 15 15zm0-60c0 8.399-6.599 15-15 15v-30c8.401 0 15 6.599 15 15z" fill="#00a0aa"/><path d="M377 226c-74.399 0-135 60.599-135 135 0 74.399 60.601 135 135 135s135-60.601 135-135c0-74.401-60.601-135-135-135z" fill="#ff7f4b"/><path d="M512 361c0 74.399-60.601 135-135 135V226c74.399 0 135 60.599 135 135z" fill="#fd5219"/><circle cx="377" cy="361" fill="#e4f1fb" r="105"/><path d="M482 361c0 57.9-47.1 105-105 105V256c57.9 0 105 47.1 105 105z" fill="#c9e3f7"/><path d="M417.605 380.395L392 354.789V301c0-8.291-6.709-15-15-15s-15 6.709-15 15v60c0 3.984 1.582 7.793 4.395 10.605L377 382.211l19.395 19.395c5.859 5.859 15.352 5.859 21.211 0s5.859-15.352-.001-21.211z" fill="#704c55"/><path d="M417.605 401.605c5.859-5.859 5.859-15.352 0-21.211L392 354.789V301c0-8.291-6.709-15-15-15v96.211l19.395 19.395c5.859 5.859 15.351 5.859 21.21-.001z" fill="#5a344b"/></svg>