<?xml version="1.0" encoding="utf-8"?>
<!-- Generator: Adobe Illustrator 24.2.3, SVG Export Plug-In . SVG Version: 6.00 Build 0)  -->
<svg version="1.1" id="Слой_1" xmlns="http://www.w3.org/2000/svg" xmlns:xlink="http://www.w3.org/1999/xlink" x="0px" y="0px"
	 viewBox="0 0 585 803" style="enable-background:new 0 0 585 803;" xml:space="preserve">
<style type="text/css">
	.st0{clip-path:url(#SVGID_2_);fill:#D670E1;}
	.st1{clip-path:url(#SVGID_2_);fill:#E8B4EF;}
	.st2{clip-path:url(#SVGID_2_);fill:#8D9396;}
	.st3{clip-path:url(#SVGID_2_);fill:#931CA0;}
	.st4{clip-path:url(#SVGID_2_);fill:#CED1D4;}
	.st5{clip-path:url(#SVGID_2_);fill:#E0DCD2;}
	.st6{clip-path:url(#SVGID_2_);fill:#543F31;}
	.st7{clip-path:url(#SVGID_2_);fill:#C48B75;}
	.st8{clip-path:url(#SVGID_2_);fill:#B4BABD;}
	.st9{clip-path:url(#SVGID_2_);fill:#8C9396;}
	.st10{clip-path:url(#SVGID_2_);fill:#D69D88;}
	.st11{fill:#E8B4EF;}
	.st12{clip-path:url(#SVGID_4_);}
	.st13{fill:#E097E9;}
	.st14{fill:#D670E1;}
	.st15{clip-path:url(#SVGID_6_);fill:#FFE406;}
	.st16{opacity:0.5;clip-path:url(#SVGID_6_);}
	.st17{fill:#A3CAFF;}
	.st18{fill:#FF8C00;}
	.st19{clip-path:url(#SVGID_6_);fill:#FFEDA1;}
	.st20{clip-path:url(#SVGID_6_);}
	.st21{fill:#FFCB33;}
	.st22{fill:#FFEDA1;}
	.st23{fill:#2A356B;}
	.st24{clip-path:url(#SVGID_6_);fill:#FFCB33;}
	.st25{clip-path:url(#SVGID_6_);fill:#A3CAFF;}
	.st26{clip-path:url(#SVGID_6_);fill:#FF8C00;}
	.st27{clip-path:url(#SVGID_6_);fill:#2A356B;}
	.st28{fill:#1B254E;}
	.st29{clip-path:url(#SVGID_6_);fill:#C32C28;}
	.st30{clip-path:url(#SVGID_6_);fill:#FF7400;}
	.st31{fill:#FFE406;}
	.st32{clip-path:url(#SVGID_6_);fill:#FFEF6E;}
	.st33{clip-path:url(#SVGID_8_);fill:#FFE473;}
	.st34{fill:#FFFFFF;}
	.st35{fill:#FF6567;}
	.st36{fill:url(#SVGID_9_);}
	.st37{fill:#ADD8C3;}
	.st38{fill:none;stroke:#FFFFFF;stroke-miterlimit:10;}
	.st39{fill:#A2CBAB;}
	.st40{fill:#96CDA1;}
	.st41{opacity:0.76;}
	.st42{fill:#C4E9CD;}
	.st43{fill:url(#SVGID_10_);}
	.st44{fill:url(#SVGID_11_);}
	.st45{fill:#F6E6BE;}
	.st46{fill:url(#SVGID_12_);}
	.st47{fill:url(#SVGID_13_);}
	.st48{fill:url(#SVGID_14_);}
	.st49{fill:#E4EEC4;}
	.st50{fill:#EFFBD2;}
	.st51{fill:url(#SVGID_15_);}
	.st52{fill:url(#SVGID_16_);}
	.st53{fill:url(#SVGID_17_);}
	.st54{fill:url(#SVGID_18_);}
	.st55{fill:#FFE493;}
	.st56{clip-path:url(#SVGID_20_);fill:url(#SVGID_21_);}
	.st57{fill:#5B2A1E;}
	.st58{fill:#907673;}
	.st59{fill:url(#SVGID_22_);}
	.st60{fill:url(#SVGID_23_);}
	.st61{fill:url(#SVGID_24_);}
	.st62{fill:url(#SVGID_25_);}
	.st63{fill:#FE82C8;}
	.st64{opacity:0.62;clip-path:url(#SVGID_27_);fill:#FFFFFF;}
	.st65{opacity:0.75;clip-path:url(#SVGID_27_);fill:#FFFFFF;}
	.st66{opacity:0.41;clip-path:url(#SVGID_27_);fill:#FFFFFF;}
	.st67{clip-path:url(#SVGID_27_);fill:none;}
	.st68{clip-path:url(#SVGID_29_);}
	.st69{opacity:0.26;fill:#FFFFFF;}
	.st70{opacity:0.69;fill:#FFFFFF;}
	.st71{fill:none;}
	.st72{opacity:0.16;fill:#FFFFFF;}
	.st73{opacity:0.3;fill:#FFFFFF;}
	.st74{opacity:0.23;fill:#FFFFFF;}
	.st75{opacity:0.24;fill:#FFFFFF;}
	.st76{opacity:0.17;}
	.st77{opacity:0.05;fill:#E2E8E4;}
	.st78{clip-path:url(#SVGID_31_);}
	.st79{opacity:0.76;clip-path:url(#SVGID_31_);fill:#FFFFFF;}
	.st80{clip-path:url(#SVGID_31_);fill:url(#SVGID_32_);}
	.st81{clip-path:url(#SVGID_31_);fill:none;stroke:#FFFFFF;stroke-width:2;stroke-linecap:round;stroke-miterlimit:10;}
	.st82{clip-path:url(#SVGID_31_);fill:url(#SVGID_33_);}
	.st83{clip-path:url(#SVGID_31_);fill:url(#SVGID_34_);}
	.st84{clip-path:url(#SVGID_31_);fill:url(#SVGID_35_);}
	.st85{clip-path:url(#SVGID_31_);fill:url(#SVGID_36_);}
	.st86{clip-path:url(#SVGID_31_);fill:#FFFFFF;}
	.st87{clip-path:url(#SVGID_31_);fill:url(#SVGID_37_);}
	.st88{opacity:0.62;clip-path:url(#SVGID_39_);fill:#FFFFFF;}
	.st89{clip-path:url(#SVGID_39_);fill:#FFFFFF;}
	.st90{opacity:0.41;clip-path:url(#SVGID_39_);fill:#FFFFFF;}
	.st91{clip-path:url(#SVGID_39_);fill:none;}
	.st92{clip-path:url(#SVGID_41_);}
	.st93{fill:url(#SVGID_42_);}
	.st94{opacity:0.74;clip-path:url(#SVGID_44_);fill:url(#SVGID_45_);}
	.st95{fill:#E5E5E5;}
	.st96{fill:none;stroke:#4D4D4D;stroke-width:0.75;stroke-linecap:round;stroke-miterlimit:10;}
	.st97{fill:url(#SVGID_46_);}
	.st98{opacity:0.74;fill:url(#SVGID_47_);}
	.st99{opacity:0.74;fill:url(#SVGID_48_);}
	.st100{opacity:0.74;fill:url(#SVGID_49_);}
	.st101{opacity:0.74;fill:url(#SVGID_50_);}
	.st102{fill:url(#SVGID_51_);}
	.st103{opacity:0.66;}
	.st104{opacity:0.37;fill:#FFFFFF;}
	.st105{fill:url(#SVGID_52_);}
	.st106{fill:url(#SVGID_53_);}
	.st107{opacity:0.44;clip-path:url(#SVGID_55_);fill:#FFFFD9;}
	.st108{opacity:0.43;clip-path:url(#SVGID_57_);fill:#FFFFFF;}
	.st109{clip-path:url(#SVGID_57_);fill:none;stroke:#FFFFFF;stroke-miterlimit:10;}
	.st110{opacity:0.76;clip-path:url(#SVGID_57_);fill:#FFFFFF;}
	.st111{clip-path:url(#SVGID_57_);fill:#FFFFFF;}
	.st112{opacity:0.08;clip-path:url(#SVGID_57_);fill:#FFFFFF;}
	.st113{opacity:0.27;clip-path:url(#SVGID_57_);fill:#FFFFFF;}
	.st114{opacity:0.37;clip-path:url(#SVGID_57_);fill:#FFFFFF;}
	.st115{clip-path:url(#SVGID_57_);fill:none;}
	.st116{fill:url(#SVGID_58_);}
	.st117{opacity:0.62;clip-path:url(#SVGID_60_);fill:#FFFFFF;}
	.st118{clip-path:url(#SVGID_60_);fill:#FFFFFF;}
	.st119{opacity:0.41;clip-path:url(#SVGID_60_);fill:#FFFFFF;}
	.st120{clip-path:url(#SVGID_60_);fill:none;}
	.st121{clip-path:url(#SVGID_62_);}
	.st122{opacity:0.55;fill:url(#SVGID_63_);}
	.st123{fill:url(#SVGID_64_);}
	.st124{fill:url(#SVGID_65_);}
	.st125{opacity:0.28;}
	.st126{opacity:0.56;clip-path:url(#SVGID_67_);fill:#FFFFFF;}
	.st127{opacity:0.43;clip-path:url(#SVGID_69_);fill:#FFFFFF;}
	.st128{clip-path:url(#SVGID_69_);fill:none;stroke:#FFFFFF;stroke-miterlimit:10;}
	.st129{opacity:0.76;clip-path:url(#SVGID_69_);fill:#FFFFFF;}
	.st130{clip-path:url(#SVGID_69_);fill:#FFFFFF;}
	.st131{opacity:0.08;clip-path:url(#SVGID_69_);fill:#FFFFFF;}
	.st132{opacity:0.27;clip-path:url(#SVGID_69_);fill:#FFFFFF;}
	.st133{opacity:0.37;clip-path:url(#SVGID_69_);fill:#FFFFFF;}
	.st134{clip-path:url(#SVGID_69_);fill:none;}
	.st135{clip-path:url(#SVGID_71_);fill:none;}
	.st136{opacity:0.46;}
	.st137{opacity:0.86;fill:#FFFFFF;}
	.st138{opacity:0.4;}
	.st139{opacity:0.73;fill:#FFFFFF;}
	.st140{opacity:0.54;clip-path:url(#SVGID_73_);fill:#FFFFFF;}
	.st141{fill:#FF8A8A;}
	.st142{opacity:0.75;fill:#FFFFFF;}
	.st143{fill:#FFC181;}
	.st144{clip-path:url(#SVGID_75_);fill:#FFDFBD;}
	.st145{clip-path:url(#SVGID_75_);fill:#FF9D00;}
	.st146{clip-path:url(#SVGID_75_);fill:#FFF3DF;}
	.st147{clip-path:url(#SVGID_77_);fill:#FFBAE4;}
	.st148{opacity:0.8;clip-path:url(#SVGID_77_);fill:#FE82C8;}
	.st149{clip-path:url(#SVGID_77_);fill:#FE82C8;}
	.st150{opacity:0.79;clip-path:url(#SVGID_77_);fill:#FFBAE4;}
	.st151{fill:#FFFEEA;}
	.st152{fill:#58D196;}
	.st153{fill:#A6E5C3;}
	.st154{fill:#D2F2E1;}
	.st155{opacity:0.44;fill:#FFFFFF;}
	.st156{clip-path:url(#SVGID_79_);fill:#FFF9C1;}
	.st157{opacity:0.86;fill:#FFCCD5;}
	.st158{opacity:0.62;clip-path:url(#SVGID_81_);fill:#FFFFFF;}
	.st159{opacity:0.75;clip-path:url(#SVGID_81_);fill:#FFFFFF;}
	.st160{opacity:0.41;clip-path:url(#SVGID_81_);fill:#FFFFFF;}
	.st161{clip-path:url(#SVGID_81_);fill:none;}
	.st162{clip-path:url(#SVGID_83_);}
	.st163{opacity:0.44;clip-path:url(#SVGID_85_);fill:#FFFFFF;}
	.st164{opacity:0.43;clip-path:url(#SVGID_87_);fill:#FFFFFF;}
	.st165{clip-path:url(#SVGID_87_);fill:none;stroke:#FFFFFF;stroke-miterlimit:10;}
	.st166{opacity:0.76;clip-path:url(#SVGID_87_);fill:#FFFFFF;}
	.st167{clip-path:url(#SVGID_87_);fill:#FFFFFF;}
	.st168{opacity:0.08;clip-path:url(#SVGID_87_);fill:#FFFFFF;}
	.st169{opacity:0.27;clip-path:url(#SVGID_87_);fill:#FFFFFF;}
	.st170{opacity:0.37;clip-path:url(#SVGID_87_);fill:#FFFFFF;}
	.st171{clip-path:url(#SVGID_87_);fill:none;}
	.st172{opacity:0.54;clip-path:url(#SVGID_89_);fill:#FFFFFF;}
	.st173{opacity:0.62;fill:#FFFFFF;}
	.st174{opacity:0.41;fill:#FFFFFF;}
	.st175{opacity:0.43;fill:#FFFFFF;}
	.st176{opacity:0.76;fill:#FFFFFF;}
	.st177{opacity:0.08;fill:#FFFFFF;}
	.st178{opacity:0.27;fill:#FFFFFF;}
	.st179{opacity:0.54;fill:#FFFFFF;}
	.st180{clip-path:url(#SVGID_91_);fill:#FF6567;}
	.st181{clip-path:url(#SVGID_91_);fill:#FF8A8A;}
	.st182{clip-path:url(#SVGID_91_);fill:#FFC2C1;}
	.st183{clip-path:url(#SVGID_91_);fill:#FFFFFF;}
	.st184{clip-path:url(#SVGID_93_);fill:#E2E9FF;}
	.st185{clip-path:url(#SVGID_93_);fill:#EEF2FF;}
	.st186{opacity:0.54;clip-path:url(#SVGID_93_);fill:#EEF2FF;}
	.st187{opacity:0.54;clip-path:url(#SVGID_93_);fill:#8FAAF0;}
	.st188{clip-path:url(#SVGID_95_);}
	.st189{fill:#FF6B81;}
	.st190{clip-path:url(#SVGID_95_);fill:none;}
	.st191{fill:#FF1B6F;}
	.st192{clip-path:url(#SVGID_97_);fill:#FFDFBD;}
	.st193{clip-path:url(#SVGID_97_);fill:#FF9D00;}
	.st194{clip-path:url(#SVGID_97_);fill:#FFF3DF;}
	.st195{clip-path:url(#SVGID_99_);fill:#F0C6F4;}
	.st196{opacity:0.8;clip-path:url(#SVGID_99_);fill:#F8E3F8;}
	.st197{clip-path:url(#SVGID_99_);fill:#F8E3F8;}
	.st198{opacity:0.79;clip-path:url(#SVGID_99_);fill:#F0C6F4;}
	.st199{clip-path:url(#SVGID_101_);fill:#FFF9C1;}
	.st200{clip-path:url(#SVGID_103_);fill:#FFC5D6;}
	.st201{clip-path:url(#SVGID_103_);fill:#FF94B3;}
	.st202{clip-path:url(#SVGID_103_);fill:#FF6794;}
	.st203{clip-path:url(#SVGID_103_);fill:#FFFFFF;}
	.st204{clip-path:url(#SVGID_107_);fill:#698DE6;}
	.st205{clip-path:url(#SVGID_107_);fill:#8FAAF0;}
	.st206{opacity:0.54;clip-path:url(#SVGID_107_);fill:#8FAAF0;}
	.st207{clip-path:url(#SVGID_109_);}
	.st208{clip-path:url(#SVGID_109_);fill:none;}
	.st209{opacity:0.46;clip-path:url(#SVGID_111_);}
	.st210{clip-path:url(#SVGID_111_);fill:none;}
	.st211{fill:none;stroke:#FFFFFF;stroke-width:2;stroke-miterlimit:10;}
	.st212{opacity:0.45;fill:#FFFFFF;}
	.st213{opacity:0.8;fill:#FFFFFF;}
	.st214{opacity:0.79;fill:#FFFFFF;}
	.st215{fill:#F2C5AA;}
	.st216{fill:none;stroke:#FFFFFF;stroke-width:0.75;stroke-miterlimit:10;}
	.st217{fill:#FFFFFF;stroke:#FFFFFF;stroke-width:0.25;stroke-miterlimit:10;}
	.st218{fill:#D3C1B2;}
	.st219{fill:#FFC5D6;}
	.st220{clip-path:url(#SVGID_117_);fill:#F787A5;}
	.st221{clip-path:url(#SVGID_117_);fill:#FFE9F2;}
	.st222{clip-path:url(#SVGID_117_);fill:#D3CFB3;}
	.st223{clip-path:url(#SVGID_117_);fill:#FFDBE5;}
	.st224{clip-path:url(#SVGID_117_);}
	.st225{fill:#FFE9F2;}
	.st226{fill:#F787A5;}
	.st227{fill:#F2CCC1;}
	.st228{fill:#DF4E50;}
	.st229{clip-path:url(#SVGID_117_);fill:#FFC5D6;}
	.st230{fill:#FFDBE5;}
	.st231{fill:#FFB9C3;}
	.st232{fill:#FB91B5;}
	.st233{fill:#E3A180;}
	.st234{fill:#92693D;}
	.st235{fill:#FBBACC;}
	.st236{fill:#E6678D;}
	.st237{fill:#574435;}
	.st238{fill:#C9A47C;}
	.st239{fill:#641F1E;}
	.st240{fill:#F15E89;}
	.st241{fill:#E7005E;}
	.st242{fill:#DEB78A;}
	.st243{fill:#DFB78A;}
	.st244{fill:#FF6794;}
	.st245{fill:#D72264;}
	.st246{fill:#F7F7F7;}
	.st247{fill:#F2F2F2;}
	.st248{fill:#FFFBF0;}
	.st249{fill:#FFBFCF;}
	.st250{fill:#FF9DAE;}
	.st251{fill:#FFC2C1;}
	.st252{fill:#FFCCD5;}
	.st253{fill:#B49E8F;}
	.st254{fill:#FFE2EA;}
	.st255{fill:#A3C5DC;}
	.st256{fill:#DA956B;}
	.st257{fill:#BDA595;}
	.st258{fill:#583B34;}
	.st259{fill:#63443C;}
	.st260{fill:#B2D0E5;}
	.st261{fill:#FCFCFB;}
	.st262{fill:#D0ACA1;}
	.st263{fill:#A2C4DB;}
	.st264{fill:#E1D0C8;}
	.st265{fill:#9C7972;}
	.st266{fill:#77573F;}
	.st267{fill:#F3769C;}
	.st268{fill:#FBFBF9;}
	.st269{fill:#F8C4DC;}
	.st270{fill:#E4BAB5;}
	.st271{clip-path:url(#SVGID_119_);fill:#F787A5;}
	.st272{clip-path:url(#SVGID_119_);fill:#FFE9F2;}
	.st273{clip-path:url(#SVGID_119_);fill:#D3CFB3;}
	.st274{clip-path:url(#SVGID_119_);fill:#FFDBE5;}
	.st275{clip-path:url(#SVGID_119_);}
	.st276{clip-path:url(#SVGID_119_);fill:#FFC5D6;}
	.st277{fill:#00C377;}
	.st278{fill:#88E5AF;}
	.st279{fill:#00B45A;}
	.st280{fill:#7FDAAA;}
	.st281{fill:#F2BC3A;}
	.st282{fill:#B99F65;}
	.st283{fill:#98D284;}
	.st284{fill:#3C3724;}
	.st285{fill:#D6BEA2;}
	.st286{fill:#9C8274;}
	.st287{fill:#587147;}
	.st288{fill:#E7D6BE;}
	.st289{fill:#5CC689;}
	.st290{clip-path:url(#SVGID_121_);fill:#A6E5C3;}
	.st291{clip-path:url(#SVGID_121_);fill:#FFFFFF;}
	.st292{clip-path:url(#SVGID_121_);fill:#58D196;}
	.st293{fill:#FFEF6E;}
	.st294{fill:#FFE200;}
	.st295{clip-path:url(#SVGID_123_);fill:#FDA157;}
	.st296{clip-path:url(#SVGID_123_);fill-rule:evenodd;clip-rule:evenodd;fill:#FF8429;}
	.st297{clip-path:url(#SVGID_123_);fill:#F35000;}
	.st298{clip-path:url(#SVGID_123_);fill:#F9B946;}
	.st299{fill:#F35000;}
	.st300{fill:#FF8429;}
	.st301{fill:#FFAC33;}
	.st302{fill:#E56D00;}
	.st303{fill:#EF6406;}
	.st304{fill:#FF9C00;}
	.st305{fill:#130077;}
	.st306{fill:#FFB58D;}
	.st307{opacity:0.3;}
	.st308{fill:#FF7300;}
	.st309{fill:#6E0000;}
	.st310{fill-rule:evenodd;clip-rule:evenodd;fill:#FF9C00;}
	.st311{fill-rule:evenodd;clip-rule:evenodd;fill:url(#SVGID_124_);}
	.st312{opacity:0.3;fill-rule:evenodd;clip-rule:evenodd;fill:#A4002C;}
	.st313{fill-rule:evenodd;clip-rule:evenodd;fill:url(#SVGID_125_);}
	.st314{fill-rule:evenodd;clip-rule:evenodd;fill:url(#SVGID_126_);}
	.st315{opacity:0.5;fill-rule:evenodd;clip-rule:evenodd;fill:url(#SVGID_127_);}
	.st316{fill-rule:evenodd;clip-rule:evenodd;fill:#FFC485;}
	.st317{fill-rule:evenodd;clip-rule:evenodd;fill:url(#SVGID_128_);}
	.st318{fill-rule:evenodd;clip-rule:evenodd;fill:url(#SVGID_129_);}
	.st319{fill-rule:evenodd;clip-rule:evenodd;fill:url(#SVGID_130_);}
	.st320{opacity:0.5;fill-rule:evenodd;clip-rule:evenodd;fill:url(#SVGID_131_);}
	.st321{fill-rule:evenodd;clip-rule:evenodd;fill:#FDA157;}
	.st322{opacity:0.5;fill-rule:evenodd;clip-rule:evenodd;fill:#FDA157;}
	.st323{fill-rule:evenodd;clip-rule:evenodd;fill:#FF8429;}
	.st324{fill-rule:evenodd;clip-rule:evenodd;fill:#FFAC33;}
	.st325{opacity:0.62;fill-rule:evenodd;clip-rule:evenodd;fill:#C8002A;}
	.st326{opacity:0.5;fill-rule:evenodd;clip-rule:evenodd;fill:#FF8429;}
	.st327{opacity:0.5;fill-rule:evenodd;clip-rule:evenodd;fill:#8F5472;}
	.st328{opacity:0.3;fill-rule:evenodd;clip-rule:evenodd;fill:url(#SVGID_132_);}
	.st329{opacity:0.5;fill-rule:evenodd;clip-rule:evenodd;fill:url(#SVGID_133_);}
	.st330{opacity:0.3;fill-rule:evenodd;clip-rule:evenodd;fill:url(#SVGID_134_);}
	.st331{opacity:0.3;fill-rule:evenodd;clip-rule:evenodd;fill:url(#SVGID_135_);}
	.st332{clip-path:url(#SVGID_137_);}
	.st333{clip-path:url(#SVGID_137_);fill:#FF8429;}
	.st334{fill:#FDA157;}
	.st335{clip-path:url(#SVGID_139_);}
	.st336{fill:#F58800;}
	.st337{clip-path:url(#SVGID_141_);}
	.st338{fill:#F9B946;}
	.st339{clip-path:url(#SVGID_143_);}
	.st340{clip-path:url(#SVGID_143_);fill:#FF8429;}
	.st341{fill-rule:evenodd;clip-rule:evenodd;fill:url(#SVGID_144_);}
	.st342{fill-rule:evenodd;clip-rule:evenodd;fill:url(#SVGID_145_);}
	.st343{fill-rule:evenodd;clip-rule:evenodd;fill:url(#SVGID_146_);}
	.st344{opacity:0.5;fill-rule:evenodd;clip-rule:evenodd;fill:url(#SVGID_147_);}
	.st345{fill-rule:evenodd;clip-rule:evenodd;fill:url(#SVGID_148_);}
	.st346{fill-rule:evenodd;clip-rule:evenodd;fill:url(#SVGID_149_);}
	.st347{fill-rule:evenodd;clip-rule:evenodd;fill:url(#SVGID_150_);}
	.st348{opacity:0.5;fill-rule:evenodd;clip-rule:evenodd;fill:url(#SVGID_151_);}
	.st349{opacity:0.3;fill-rule:evenodd;clip-rule:evenodd;fill:url(#SVGID_152_);}
	.st350{opacity:0.5;fill-rule:evenodd;clip-rule:evenodd;fill:url(#SVGID_153_);}
	.st351{opacity:0.3;fill-rule:evenodd;clip-rule:evenodd;fill:url(#SVGID_154_);}
	.st352{opacity:0.3;fill-rule:evenodd;clip-rule:evenodd;fill:url(#SVGID_155_);}
	.st353{opacity:0.88;fill:#FFFEF3;}
	.st354{fill:#FFD066;}
	.st355{fill:#B0ACAD;}
	.st356{fill:#FFE473;}
	.st357{fill:#FFE888;}
	.st358{fill:#F7C800;}
	.st359{fill:#FFEB97;}
	.st360{clip-path:url(#SVGID_157_);fill:#FFCB33;}
	.st361{clip-path:url(#SVGID_157_);fill:#FFE406;}
	.st362{clip-path:url(#SVGID_159_);fill:#931CA0;}
	.st363{opacity:0.5;clip-path:url(#SVGID_159_);}
	.st364{fill:#931CA0;}
	.st365{clip-path:url(#SVGID_159_);}
	.st366{clip-path:url(#SVGID_161_);fill:#E097E9;}
	.st367{fill:#CC37D8;}
	.st368{opacity:0.5;fill:#FFFFFF;}
	.st369{opacity:0.5;fill:#FFFFFF;stroke:#FFFFFF;stroke-miterlimit:10;}
	.st370{opacity:0.68;fill:#FFFFFF;}
	.st371{fill:#F0C6F4;}
	.st372{fill:#DAA3E2;}
	.st373{fill:#AB7B41;}
	.st374{fill:#8D9396;}
	.st375{fill:#CED1D4;}
	.st376{fill:#E0DCD2;}
	.st377{fill:#543F31;}
	.st378{fill:#C48B75;}
	.st379{fill:#B4BABD;}
	.st380{fill:#8C9396;}
	.st381{fill:#D69D88;}
</style>
<path class="st11" d="M0.29,441.8c0-36.9,0-73.8,0-110.71c0.7-0.02,1.41-0.04,2.11-0.06c3.27,11.66,3.27,11.66,15.63,9.92
	c0.17-0.02,0.34-0.06,0.51-0.09c13.01-1.58,24.91-6.28,36.7-13.61c8.08,42.19-2.4,78.49-30.15,110.09
	c5.74,2.86,12.68,3.42,19.78,1.68c15.74-3.85,27.38-13.93,38.2-25.23c8.2-8.57,15.32-18.02,22.37-27.59
	c-4.41,16.64-13.45,30.73-23.98,44.21c5.03-1.69,10.82-4.1,16.93-7.56c11.16-6.34,19.13-13.82,24.42-19.7l0.12-0.14
	c1.61,0.23,2.41,0.85,2.85,1.36c1.89,2.22,1.24,7.54,0.11,10.78c-0.22,0.63-0.72,1.95-0.11,2.91c0.3,0.47,0.85,0.82,1.79,1
	c0.79,2.09-2.56,4.12-0.09,6.24c1.16,4.79,0.91,9.89,3.06,14.47c0.71,8.62,1.96,17.12,6.19,24.86c-0.08,4.54,1.44,8.59,3.91,12.35
	c-0.63-4.34-1.62-8.56-3.8-12.44c-1.77-8.36-3.09-16.83-6.2-24.85c0.1-5.05-0.3-10.02-2.29-14.74
	c20.63-9.26,33.22-25.43,40.31-46.51c3.62-10.77,7.94-21.26,15.93-30.02c-2.79-1.03-5.16-1.89-7.52-2.76
	c0.41-0.93,1.29-0.94,2.11-1.16c15.85-4.15,31.7-8.32,47.55-12.48c3.61,0.42,6.52,1.99,8.5,5.12c-1.73,10.39-4.66,20.47-7.37,30.62
	c4.19-9.78,7.81-19.71,8.11-30.55c4.58,1.1,8.33,4,12.6,5.79c12.94,5.41,25.96,8.21,39.19,1.03c3.51-1.91,6.79-4.24,7.96-8.37
	c1.59-5.61,3.03-11.26,4.54-16.89c5.47-2.06,8.55-5.61,7.33-11.83c-0.3-1.52,0.03-2.4,1.67-3.16c1.97-0.92,3.62-2.53,5.41-3.84
	c5.51,2.91,11.35,4.91,17.43,6.26c13.64,3.03,27.64,3.19,41.42,5.17c17.55,2.51,32.06,9.78,42.06,25
	c19.85,30.22,39.85,60.34,59.74,90.54c33.8,51.34,67.52,102.72,101.37,154.03c2.03,3.08,3.34,6.84,6.85,8.82
	c0.06,0.83,0.06,1.7,1.03,2.07c0,12.42,0,24.83,0,37.25c-0.35,0.35-0.7,0.7-1.05,1.06c-1.16,0.24-2.4,0.3-3.46,0.76
	c-16.44,7.12-32.45,15.09-47.49,24.87c-10.66,6.94-21.15,14.14-31.71,21.23c-2.16-0.8-3.54,0.71-5.08,1.71
	c-10.6,6.89-21.18,13.8-32.02,20.33c-6.09,3.67-12.68,6.61-18.07,11.41c-0.28,0.02-0.54,0.09-0.78,0.23
	c-1.62,0.26-3.05,0.85-4.08,2.21c-7.4,2.71-14.83,5.38-20.75,10.91c-6.04,1.21-12.04,2.81-18.14,3.5c-3.91,0.44-4.73,2-4.7,5.55
	c0.15,23.01,0.12,46.02,0.15,69.02c-0.66,0-1.33,0.01-1.99,0.01c-1.7-1.77-3.9-1.04-5.88-1.04c-125.86-0.03-251.72-0.02-377.58,0.02
	c-1.81,0-3.83-0.66-5.38,0.97c-0.46-0.06-0.92-0.11-1.38-0.17c-1.03-17.36-2.03-34.72-3.13-52.08c-0.08-1.31,0.72-3.33-1.74-3.6
	c0-25.18,0-50.35,0-75.53c2.5,0.43,2.01,2.41,2.05,4.06c0.08,3.96-0.14,7.94,0.18,11.88c1.24,15.7,2.58,31.4,4.01,47.09
	c0.71,7.75,1.69,15.47,2.56,23.3c2.11-0.41,2.19-1.9,2.52-3.16c1.45-5.47,3.06-10.91,4.24-16.43c3.07-14.38,5.82-28.8,7.49-43.46
	c1.78-15.56,1.04-31.01-1.85-46.11c-2.91-15.23-8.21-29.99-12.18-45.03c-2.49-9.41-5.14-18.79-6.16-28.56
	c-0.24-2.25,0.7-5.79-2.84-7.02c0-30.69,0-61.39,0-92.08c3.53,1.68,3.32,5.36,4.05,8.29c3.47,13.95,6.81,27.91,9.62,42.03
	c3.79,19.02,6.43,38.12,7.03,57.5c0.05,1.75-0.49,3.67,1.49,6.43c0.34-3.39,0.4-5.66,0.82-7.87c2.99-15.67,3.27-31.63,4.68-47.46
	c1.08-12.13,0.2-24.43,0.24-36.65c0.02-7.18-2.2-14.01-4.66-20.45c-3.55-9.26-8.9-17.79-15.41-25.38
	C5.47,448.22,4.56,443.61,0.29,441.8z M220.58,382.86c0.24-0.37,0.49-0.75,0.72-1.13c0-0.01-0.24-0.16-0.37-0.25
	c-0.13,0.44-0.27,0.88-0.4,1.32c-0.07,0.15-0.14,0.3-0.21,0.46C220.4,383.12,220.49,382.99,220.58,382.86z M186.38,453.13
	c-0.24,0.37-0.48,0.74-0.69,1.13c-0.01,0.01,0.23,0.17,0.36,0.25c0.14-0.43,0.29-0.86,0.43-1.29c0.24-0.36,0.48-0.73,0.7-1.1
	c0.01-0.01-0.23-0.17-0.35-0.26C186.68,452.28,186.53,452.71,186.38,453.13z M211.32,398.42c1.16-0.88,2.55-1.67,1.42-3.52
	c-1.71,0.64-1.44,2.09-1.57,3.36c-0.64,0.15-1.37,0.23-1.45,1.07c-0.02,0.17,0.39,0.58,0.56,0.56
	C211.1,399.79,211.17,399.06,211.32,398.42z M180.27,468.78c1.2-0.88,2.53-1.71,1.41-3.55c-1.65,0.72-1.38,2.18-1.53,3.46
	c-0.23,0.37-0.47,0.73-0.68,1.11c-0.01,0.02,0.23,0.17,0.35,0.26C179.98,469.62,180.13,469.2,180.27,468.78z M160.65,522.57
	c2.88-4.12,3.7-8.92,4.51-13.73c-2.38,4.26-4.32,8.66-4.64,13.62c-0.28,0.58-0.57,1.15-0.82,1.74c-0.01,0.03,0.39,0.23,0.61,0.34
	C160.42,523.89,160.53,523.23,160.65,522.57z M171,493.62c4.04-6.44,5.63-13.74,7.52-20.94c-3.07,6.75-6.53,13.36-7.69,20.8
	c-0.23,0.37-0.47,0.74-0.67,1.12c-0.01,0.02,0.22,0.18,0.34,0.27C170.67,494.45,170.84,494.03,171,493.62z M198.76,423.1
	c-3.39,1.27-2.75,4.82-3.95,7.27c-1.97,4.06-3.35,8.4-4.98,12.62c0.43,0.15,0.87,0.3,1.3,0.46c2.97-6.59,6.09-13.11,7.76-20.24
	c1.91-2.55,3.52-5.22,4.06-9.61C199.93,416.92,198.7,419.73,198.76,423.1z M147.15,535.77c-3.2,0.84-4.72,3.02-5.31,6.2
	c-1.19,6.41-2.54,12.79-3.86,19.17c-0.46,2.22,0.3,4.04,1.6,5.75c2.45,3.22,11.9,4.51,17.32,2.38c2.94-1.15,4.77-2.75,4.83-6.39
	c0.06-3.73,1.11-7.44,1.65-11.17c0.79-5.35,2.69-10.85-1.85-15.58c-5.91-1.42-1.93-5.73-2.26-8.93c-2.4,0.88-1.41,3.74-3.65,4.69
	c-2.39-17.99-7.2-35.21-14.04-52.61c-0.38,1.13-0.64,1.48-0.57,1.75c0.41,1.66,0.83,3.32,1.36,4.94
	c4.79,14.83,9.65,29.62,11.47,45.24c0.33,2.85-0.7,3.6-2.54,4.56c-0.7,0-1.4,0-2.1,0.01C148.51,534.94,147.83,534.93,147.15,535.77z
	 M187.23,622.51c-3.84,5.5-6.83,11.2-11.49,15.81c-17.68,17.49-39.24,29.57-59.81,42.97c-21.94,14.28-44.8,27.12-64.03,45.31
	c-9.41,8.89-17.57,18.64-25.07,29.1c-2.33,3.25-2.5,5.99-1.02,9.47c4.21,9.87,9.44,19.02,17.43,26.37
	c3.22,2.97,6.89,5.14,11.19,6.07c7.53,1.61,10.07,0.24,13.16-6.95c2.19-5.1,6.13-8.67,10.69-11.48c5.58-3.44,10.84-7.08,14.77-12.5
	c4.23-5.81,8.11-11.82,11.68-18.05c3.52-6.14,8.2-11.48,13.69-15.71c18.6-14.33,37.88-27.83,54.26-44.82
	c6.16-6.38,12.92-12.37,16.09-21.11c3.51-9.65,1.9-19.42,0.26-29C188.17,632.95,189.89,627.63,187.23,622.51z M350.18,626.55
	c-1.72,2.59-1.29,4.16-1.39,5.64c-0.54,7.53-1.5,14.95-3.36,22.32c-4.14,16.44-10.64,32.26-12.5,49.32
	c-1.42,12.97-0.63,25.64,2.29,38.32c3.19,13.86,6.46,27.74,6.36,42.12c-0.02,3.43-0.95,7.58,0.61,10.13c2.14,3.5,6.29-0.4,9.58,0.23
	c0.17,0.03,0.34,0,0.52,0c6.41-0.15,6.54-0.42,5.03-7.01c-3.83-16.74-6.46-33.67-7.46-50.82c-1.39-23.94,1.06-47.77,3.39-71.51
	C354.51,652.36,352.51,640.15,350.18,626.55z M403.25,374.43c-1.31,0.19-1.48,0.91-1.62,1.56c-4.71,23.25-6.01,46.87-7.21,70.45
	c-0.77,15.26,0.03,30.59-1.13,45.88c-0.62,8.21,0.41,16.46-0.92,24.71c-0.77,4.76-0.14,9.75-0.14,14.64
	c2.9-5.06,4.75-10.32,6.78-15.5c4.55-11.6,10.58-22.84,13.47-34.83c4.53-18.86,3.09-38.14-0.77-57.18
	c-1.93-9.54-3.43-19.17-5.07-28.77C405.47,388.41,404.38,381.41,403.25,374.43z M291.49,377.21c-0.38-1.84-1.62-1.82-2.48-1.41
	c-4.64,2.19-9.15,4.56-12.46,8.75c-5.44,6.88-9.02,14.92-13.75,22.14c-6.15,9.39-14.39,17.4-22.47,25.37
	c-14.34,14.15-29.65,27.14-46.72,38.98c2.86,1.06,5.22,1.37,7.05,0.11c4.66-3.2,9.9-5.48,14.06-9.49
	c10.86-10.47,22.37-20.19,33.82-30c7.41-6.35,15-12.82,19.03-22.05C273.12,396.89,279.48,384.88,291.49,377.21z M391.01,598.2
	c-1.29,35.37,1.24,70.52,5.3,105.6c1.46-3.05,1.18-6.17,0.63-9.3c-0.53-3.03-1.4-6.05-1.54-9.1c-1.14-24.16-2.12-48.33-3.22-72.49
	C391.96,608,391.41,603.1,391.01,598.2z M184.74,457.23c-1.46,1.55-2.4,3.27-1.9,6.16C184.51,461.15,185.05,459.33,184.74,457.23z
	 M224.67,375.8c-0.07-0.29-0.09-1.09-0.32-1.16c-0.81-0.23-1.02,0.59-1.18,1.13c-0.11,0.38,0.02,1.17,0.23,1.25
	C224.22,377.31,224.46,376.64,224.67,375.8z M169.34,502.24c-0.75-1.04-1-1.39-1.25-1.73c-0.39,0.49-0.9,0.94-1.12,1.5
	c-0.1,0.25,0.47,1.07,0.56,1.05C168.15,502.88,168.73,502.54,169.34,502.24z M204.56,409.35c-0.02,0.25-0.04,0.5-0.07,0.74
	c0.1-0.12,0.26-0.22,0.27-0.35C204.78,409.62,204.64,409.49,204.56,409.35z M169.39,497.28c-0.02,0.26-0.05,0.51-0.07,0.77
	c0.1-0.12,0.26-0.23,0.27-0.36C169.61,497.56,169.47,497.42,169.39,497.28z M166.3,505.58c-0.02,0.25-0.04,0.49-0.07,0.74
	c0.1-0.11,0.26-0.22,0.27-0.34C166.51,505.85,166.37,505.71,166.3,505.58z M80.36,430.73c-0.05,0.1-0.11,0.2-0.16,0.3
	c0.21,0,0.42,0.01,0.64,0.01c-0.05-0.1-0.08-0.24-0.16-0.29C80.6,430.69,80.47,430.73,80.36,430.73z"/>
<path class="st14" d="M0.29,567c3.54,1.24,2.61,4.78,2.84,7.02c1.03,9.77,3.68,19.15,6.16,28.56c3.97,15.04,9.27,29.8,12.18,45.03
	c2.89,15.1,3.63,30.56,1.85,46.11c-1.68,14.66-4.42,29.08-7.49,43.46c-1.18,5.53-2.79,10.96-4.24,16.43
	c-0.33,1.26-0.41,2.75-2.52,3.16c-0.87-7.82-1.85-15.55-2.56-23.29C5.09,717.8,3.76,702.1,2.51,686.4
	c-0.31-3.94-0.1-7.92-0.18-11.88c-0.03-1.65,0.45-3.62-2.05-4.06C0.29,635.97,0.29,601.48,0.29,567z"/>
<path class="st14" d="M0.29,441.8c4.27,1.8,5.18,6.42,7.87,9.56c6.51,7.59,11.87,16.12,15.41,25.38c2.46,6.44,4.68,13.27,4.66,20.45
	c-0.04,12.22,0.84,24.52-0.24,36.65c-1.41,15.82-1.69,31.78-4.68,47.46c-0.42,2.21-0.48,4.48-0.82,7.87
	c-1.98-2.77-1.43-4.68-1.49-6.43c-0.6-19.38-3.25-38.48-7.03-57.5c-2.81-14.11-6.16-28.08-9.62-42.03
	c-0.73-2.94-0.52-6.61-4.05-8.29C0.29,463.87,0.29,452.84,0.29,441.8z"/>
<path class="st374" d="M5.15,801.67c-1.62,0.06-3.24,0.13-4.86,0.19c0-18.62,0-37.25,0-55.87c2.46,0.28,1.65,2.29,1.74,3.6
	C3.12,766.95,4.12,784.31,5.15,801.67z"/>
<path class="st364" d="M2.4,331.03c2.92-4.66,8.14-4.29,12.53-5.73c3.23-0.45,6.47-0.77,9.67-1.38c6.24-1.19,12.31-2.85,16.7-7.96
	c3.99-1.34,6.26-4.66,8.67-7.73c8.95-11.39,12.28-24.73,13.5-38.85c1.03-11.84,0.61-23.71,0.93-35.56
	c0.97-36.25,9.84-70.6,25.3-103.32c0.45-0.95,0.87-1.88,1.94-2.27c-0.41,6.83-0.91,13.65-1.21,20.49
	c-0.19,4.43-0.56,8.93,0.98,13.22c1.53,4.27,3.97,7.58,9.12,7.55c-2.33,1.63,0.03,3.58-0.34,5.49c-1.88,9.58-2.4,19.29-1.68,29.05
	c0.89,12.07,4.09,23.58,8.54,34.75c2.71,6.83,3.47,12.83-1.48,19.47c-3.74,5.02-4.65,11.9-4.23,18.22
	c0.86,13.16,9.86,22.29,17.04,32.27c-0.34-6.39-3.96-11.53-6.23-17.15c-3.32-8.24-6.07-16.53-3.05-25.39
	c0.96-2.83,1.87-6.99,4.62-7.6c2.45-0.55,3.37,3.68,4.72,5.88c2.52,4.11,3.62,2.97,5.54-0.55c1.57-2.9,2.08-7.33,6.94-7.25
	c-0.79,1.52-1.52,3.08-2.39,4.55c-7.22,12.26-7.39,24.34,0.63,36.38c5.92,8.87,12.03,17.57,18.86,25.79
	c8.01,9.64,16.87,18.08,29.04,22.25c2.36,0.87,4.73,1.74,7.52,2.76c-7.99,8.76-12.31,19.25-15.93,30.02
	c-7.08,21.08-19.68,37.24-40.31,46.51c-0.36-0.06-0.65,0.05-0.87,0.35c-2.46-2.12,0.88-4.15,0.09-6.24c2.92-8.93,3.47-18,1.7-27.29
	c-1.71,4.05-4.18,7.56-6.34,11.24c0,0-0.12,0.14-0.12,0.14c-3,3.21-6,6.42-8.99,9.63c-9.88,7.43-20.47,13.55-32.36,17.64
	c10.53-13.47,19.57-27.57,23.98-44.21c-7.05,9.57-14.17,19.02-22.37,27.59c-10.82,11.31-22.46,21.38-38.2,25.23
	c-7.11,1.74-14.05,1.18-19.78-1.68c27.75-31.6,38.23-67.89,30.15-110.09c-11.79,7.33-23.69,12.03-36.7,13.61
	c-0.17,0.02-0.34,0.06-0.51,0.09C5.67,342.69,5.67,342.69,2.4,331.03z M60.88,304.62c5.95-4.83,9.18-11.62,11.44-18.36
	c4.02-12.03,5.57-24.74,5.39-37.42c-0.2-13.95,1.49-27.81,1.21-41.74c-0.02-1.18,0.37-2.36,0.57-3.54
	c1.12-6.42,2.23-12.85,3.45-19.85c-1.92,1.6-2.68,3.05-3.24,4.73c-2.44,7.38-3.77,14.95-3.91,22.7c-0.25,14.04,1.84,28,0.21,42.16
	c-1.52,13.25-4.73,25.79-9.52,38.13C64.77,295.89,61.49,299.68,60.88,304.62z M60.02,398.96c3.26-0.15,4.42-1.84,5.16-3.42
	c2.18-4.63,4.51-9.18,5.52-14.33c1.08-5.5,1.02-11.22,3.72-16.45c6.47-12.5,9.62-25.68,6.45-39.75c-1.29-5.73-2.3-11.62-5.78-17.7
	c-0.81,4.87,1.26,8.06,2.3,11.42c3.87,12.51,4.09,24.54-3.76,35.84c-3.09,4.45-4.6,9.71-4.93,14.99
	C68.04,379.8,66.3,389.61,60.02,398.96z M97.65,321.45c-1.95,3.65,0.9,6.71,0.98,10.23c0.2,8.34-1.22,16.35-3.35,24.33
	c-1.54,5.78-3.53,11.46-3.96,17.49c-0.07,0.97-0.23,2.25,1.09,2.52c0.46,0.1,1.29-0.48,1.61-0.98c2.1-3.32,4.57-6.51,6.05-10.1
	C106.17,350.16,100.96,335.83,97.65,321.45z M124.55,372.46c8.81-8.34,9.34-34.4,0.34-43.85
	C130.18,344.13,125.77,358.22,124.55,372.46z"/>
<path class="st11" d="M329.12,262.28c0.77,4.69,1.77,9.26-1.3,13.76c-1.83,2.68-3.61,4.9-6.92,5.47
	c-12.13,0.19-23.19-6.12-35.31-5.31c2.49,1.83,4.15,5.61,8.02,5.88c3.89,0.27,6.56,1.97,9.37,4.48c2.58,2.31,6.11,4.3,7.68-1.43
	c0.49-1.78,2.01-1.6,3.37-1.62c2.23-0.02,4.47,0.01,6.7,0.02c-2.46,2.99-2.13,7.09-4.08,10.29c-2.85,0.62-5.8,2.06-8.52,1.72
	c-14.76-1.84-26.45,8.67-41.82,9.15c10.22,7.99,18.59,16.55,31.88,14.04c0.66-0.12,1.37,0.01,2.06,0.03
	c-1.5,5.63-2.94,11.28-4.54,16.89c-1.17,4.13-4.45,6.46-7.96,8.37c-13.24,7.18-26.26,4.38-39.19-1.03
	c-4.27-1.78-8.02-4.68-12.6-5.79c-0.25-0.03-0.49-0.05-0.74-0.07c-1.98-3.13-4.89-4.71-8.5-5.12c-0.05-1.58-1.04-2.39-2.3-3.14
	c-9.27-5.56-17.73-12.16-26.06-19.05c-10.88-9.01-21-18.65-29.6-29.89c-2.11-2.76-3.03-5.68-3.03-9.04
	c0.01-7.74-0.07-15.49,0.03-23.23c0.05-3.84-1.53-7-3.19-10.48c-1.82,1.88-2.38,3.87-3.16,5.77c-1.1,2.65-2.61,4.91-6.07,4.36
	c-0.28-0.96-0.51-1.94-0.84-2.89c-0.4-1.15,0.12-3.07-1.85-3.03c-1.62,0.03-1.93,1.65-2.32,2.91c-0.19,0.63-0.15,1.33-0.22,1.99
	c-3.05-0.25-4.37-3.49-7.16-4.19c-9.09-7.18-13.88-17.32-18.75-27.39c3.42-5.65,6.85-11.31,10.27-16.96
	c4.03-0.23,4.75-3.72,6.33-6.38c2.12,0.16,3.84-0.66,5.32-2.11c6.42,1.32,11.29,5.76,17.04,8.44c4.86,4.58,10.65,8.1,15.08,13.16
	c-1.64,1.32-0.97,2.5-0.04,3.98c4.86,7.7,10.45,14.84,17.04,21.07c13.88,13.11,26.4,27.41,38.1,42.47c5.58,7.18,13.65,9.32,22,6.07
	c1.08-0.42,2.65-0.53,2.75-1.94c0.1-1.44-2.05-0.98-2.5-2.19c4.06-0.67,8.11-1.39,12.18-2.01c19.58-3.01,37.33-9.36,49.15-26.7
	c0.76-1.11,1.9-1.97,2.9-2.92c2.75-2.63,4.72-3.36,6.36,1.33C325.65,254.16,326.37,258.66,329.12,262.28z M141.13,198.73
	c-1.74,2.02-3.99,4.06-6.48,5.94c-3.31,2.49-2.72,7.08,1.12,8.14c4.08,1.13,6.87,3.68,9.72,6.42c0.8,0.77,1.53,2.24,2.93,1.5
	c1.28-0.68,0.83-2.17,0.7-3.3C148.35,210.41,147.41,203.43,141.13,198.73z M141.59,231.14c-1.59-6.18-5.42-9.43-10.82-9.8
	C133.17,225.62,137.15,227.82,141.59,231.14z"/>
<path class="st364" d="M573.22,801.67c-28.67,0.07-57.34,0.15-86.01,0.2c-7.9,0.01-15.79-0.08-23.69-0.12
	c-5.52-8.94-11.05-17.87-16.57-26.81c-6.41-18.91-12.82-37.82-19.23-56.73c5.98-2.59,11.97-5.18,17.95-7.77
	c18.39-11.15,36.78-22.3,55.18-33.45c-0.2,2.61,0.36,5.01,1.17,7.54c2.41,7.53,7.49,13.5,12.13,19.41
	c8.32,10.6,15.19,22.04,22.61,33.2c9.95,14.97,18.45,30.75,27.44,46.26C567.58,789.23,571.75,794.83,573.22,801.67z"/>
<path class="st14" d="M187.23,622.51c2.66,5.12,0.94,10.44,1.8,15.49c1.64,9.58,3.24,19.35-0.26,29
	c-3.17,8.74-9.94,14.73-16.09,21.11c-16.38,16.99-35.66,30.49-54.26,44.82c-5.49,4.23-10.17,9.57-13.69,15.71
	c-3.57,6.23-7.45,12.23-11.68,18.05c-3.94,5.41-9.2,9.06-14.77,12.5c-4.56,2.81-8.49,6.38-10.69,11.48
	c-3.09,7.19-5.63,8.56-13.16,6.95c-4.3-0.92-7.97-3.1-11.19-6.07c-7.99-7.35-13.22-16.5-17.43-26.37c-1.48-3.48-1.31-6.23,1.02-9.47
	c7.5-10.46,15.67-20.2,25.07-29.1c19.23-18.19,42.09-31.03,64.03-45.31c20.57-13.39,42.12-25.48,59.81-42.97
	C180.4,633.71,183.39,628.01,187.23,622.51z"/>
<path class="st14" d="M153.35,247.31c3.45,0.55,4.97-1.71,6.07-4.36c0.78-1.9,1.34-3.88,3.16-5.77c1.66,3.48,3.24,6.64,3.19,10.48
	c-0.11,7.74-0.02,15.48-0.03,23.23c0,3.36,0.91,6.27,3.03,9.04c8.6,11.24,18.72,20.88,29.6,29.89c8.33,6.89,16.79,13.5,26.06,19.05
	c1.26,0.75,2.25,1.57,2.3,3.14c-15.85,4.16-31.7,8.33-47.55,12.48c-0.82,0.22-1.7,0.23-2.11,1.16
	c-12.17-4.17-21.03-12.6-29.04-22.25c-6.82-8.22-12.94-16.92-18.86-25.79c-8.03-12.04-7.86-24.12-0.63-36.38
	c0.87-1.47,1.59-3.03,2.38-4.55c3.42-4.81,7.39-9.24,10.05-14.57c2.79,0.7,4.11,3.93,7.16,4.19c-0.19,6.65,0.65,13.33-0.87,19.96
	c-0.35,1.54-1.08,4.16,1.73,4.57c2.6,0.38,2.31-2.13,2.63-3.6c0.7-3.15,1.09-6.37,1.6-9.56c0-1.74,0.01-3.49,0.01-5.23
	C153.28,250.73,153.32,249.02,153.35,247.31z"/>
<path class="st14" d="M350.18,626.55c2.34,13.6,4.34,25.81,3.06,38.74c-2.34,23.74-4.79,47.57-3.39,71.51
	c1,17.15,3.63,34.08,7.46,50.82c1.51,6.59,1.37,6.86-5.03,7.01c-0.17,0-0.35,0.03-0.52,0c-3.28-0.63-7.43,3.27-9.58-0.23
	c-1.56-2.55-0.63-6.69-0.61-10.13c0.1-14.38-3.16-28.26-6.36-42.12c-2.92-12.68-3.71-25.36-2.29-38.32
	c1.86-17.06,8.36-32.88,12.5-49.32c1.86-7.37,2.82-14.79,3.36-22.32C348.89,630.71,348.46,629.13,350.18,626.55z"/>
<path class="st14" d="M403.25,374.43c1.13,6.98,2.22,13.98,3.41,20.96c1.63,9.6,3.14,19.23,5.07,28.77
	c3.85,19.04,5.3,38.31,0.77,57.18c-2.88,12-8.92,23.23-13.47,34.83c-2.03,5.19-3.87,10.45-6.78,15.5c0-4.89-0.63-9.87,0.14-14.64
	c1.33-8.25,0.29-16.5,0.92-24.71c1.16-15.28,0.36-30.61,1.13-45.88c1.19-23.59,2.5-47.21,7.21-70.45
	C401.77,375.35,401.94,374.62,403.25,374.43z"/>
<path class="st364" d="M300.25,318.76c-0.69-0.02-1.4-0.15-2.06-0.03c-13.29,2.51-21.65-6.05-31.88-14.04
	c15.37-0.48,27.06-11,41.82-9.15c2.73,0.34,5.68-1.1,8.52-1.72c0.63,2.46-1.96,3.88-2,6.12c-1.79,1.31-3.44,2.92-5.41,3.83
	c-1.64,0.76-1.97,1.64-1.67,3.16C308.8,313.15,305.72,316.7,300.25,318.76z"/>
<path class="st14" d="M291.49,377.21c-12.01,7.67-18.37,19.68-23.92,32.39c-4.03,9.23-11.62,15.7-19.03,22.05
	c-11.45,9.81-22.96,19.54-33.82,30c-4.16,4.01-9.4,6.29-14.06,9.49c-1.83,1.26-4.19,0.95-7.05-0.11
	c17.07-11.85,32.38-24.83,46.72-38.98c8.08-7.97,16.32-15.98,22.47-25.37c4.73-7.22,8.31-15.26,13.75-22.14
	c3.31-4.19,7.82-6.55,12.46-8.75C289.87,375.39,291.11,375.37,291.49,377.21z"/>
<path class="st375" d="M395.37,801.88c-129.61-0.01-259.22-0.03-388.83-0.04c1.55-1.63,3.57-0.97,5.38-0.97
	c125.86-0.04,251.72-0.05,377.58-0.02C391.47,800.85,393.67,800.11,395.37,801.88z"/>
<path class="st14" d="M161.52,536.13c-3.41-0.12-6.82-0.24-10.23-0.36c1.84-0.97,2.87-1.72,2.54-4.56
	c-1.82-15.62-6.68-30.41-11.47-45.24c-0.53-1.62-0.95-3.28-1.36-4.94c-0.07-0.27,0.19-0.62,0.57-1.75
	c6.84,17.4,11.65,34.62,14.04,52.61c2.24-0.95,1.25-3.81,3.65-4.69C159.59,530.4,155.62,534.71,161.52,536.13z"/>
<path class="st14" d="M235.22,337.14c0.25,0.02,0.49,0.04,0.74,0.07c-0.3,10.84-3.92,20.77-8.11,30.55
	C230.56,357.61,233.49,347.52,235.22,337.14z"/>
<path class="st14" d="M198.9,423.22c-1.66,7.12-4.79,13.65-7.76,20.24c-0.43-0.15-0.87-0.3-1.3-0.46c1.63-4.22,3.01-8.56,4.98-12.62
	c1.19-2.46,0.56-6.01,3.95-7.27L198.9,423.22z"/>
<path class="st14" d="M136.73,464.63c-4.23-7.75-5.48-16.24-6.19-24.86c0,0,0.1-0.08,0.1-0.08c3.11,8.02,4.43,16.49,6.2,24.85
	L136.73,464.63z"/>
<path class="st14" d="M170.84,493.48c1.16-7.45,4.62-14.05,7.69-20.8c-1.9,7.2-3.48,14.5-7.52,20.94L170.84,493.48z"/>
<path class="st14" d="M160.52,522.47c0.32-4.96,2.26-9.36,4.64-13.62c-0.81,4.81-1.63,9.61-4.51,13.73L160.52,522.47z"/>
<path class="st14" d="M136.84,464.53c2.18,3.88,3.17,8.11,3.8,12.44c-2.47-3.76-3.99-7.81-3.91-12.35
	C136.73,464.63,136.84,464.53,136.84,464.53z"/>
<path class="st14" d="M198.76,423.1c-0.06-3.37,1.17-6.18,4.2-9.49c-0.54,4.38-2.16,7.05-4.06,9.61
	C198.9,423.22,198.76,423.1,198.76,423.1z"/>
<path class="st14" d="M184.74,457.23c0.3,2.1-0.23,3.93-1.9,6.16C182.35,460.5,183.29,458.78,184.74,457.23z"/>
<path class="st14" d="M224.67,375.8c-0.21,0.84-0.45,1.52-1.27,1.22c-0.21-0.08-0.34-0.87-0.23-1.25c0.16-0.54,0.37-1.35,1.18-1.13
	C224.58,374.7,224.6,375.5,224.67,375.8z"/>
<path class="st14" d="M180.15,468.68c0.15-1.28-0.12-2.74,1.53-3.46c1.13,1.85-0.21,2.67-1.41,3.55L180.15,468.68z"/>
<path class="st14" d="M169.34,502.24c-0.61,0.3-1.19,0.64-1.82,0.82c-0.09,0.03-0.66-0.8-0.56-1.05c0.22-0.56,0.73-1.01,1.12-1.5
	C168.33,500.85,168.58,501.2,169.34,502.24z"/>
<path class="st14" d="M211.32,398.42c-0.15,0.64-0.22,1.37-1.05,1.47c-0.17,0.02-0.58-0.38-0.56-0.56c0.09-0.83,0.81-0.92,1.45-1.07
	C211.16,398.26,211.32,398.42,211.32,398.42z"/>
<path class="st376" d="M160.65,522.57c-0.11,0.66-0.23,1.32-0.34,1.98c-0.21-0.12-0.62-0.32-0.61-0.34
	c0.24-0.59,0.54-1.17,0.82-1.74C160.52,522.47,160.65,522.57,160.65,522.57z"/>
<path class="st375" d="M186.48,453.22c-0.14,0.43-0.29,0.86-0.43,1.29c-0.13-0.09-0.37-0.24-0.36-0.25
	c0.21-0.38,0.45-0.75,0.69-1.13C186.38,453.13,186.48,453.22,186.48,453.22z"/>
<path class="st376" d="M204.57,409.35c0.07,0.13,0.21,0.27,0.2,0.39c-0.01,0.12-0.17,0.23-0.27,0.35
	C204.52,409.85,204.54,409.6,204.57,409.35z"/>
<path class="st14" d="M186.38,453.13c0.15-0.43,0.3-0.85,0.45-1.28c0.12,0.09,0.36,0.25,0.35,0.26c-0.22,0.38-0.46,0.74-0.7,1.1
	C186.48,453.22,186.38,453.13,186.38,453.13z"/>
<path class="st376" d="M180.27,468.78c-0.15,0.42-0.3,0.84-0.45,1.26c-0.12-0.09-0.36-0.24-0.35-0.26c0.21-0.38,0.45-0.74,0.68-1.11
	C180.15,468.68,180.27,468.78,180.27,468.78z"/>
<path class="st376" d="M171,493.62c-0.16,0.42-0.33,0.83-0.49,1.25c-0.12-0.09-0.35-0.25-0.34-0.27c0.21-0.38,0.44-0.75,0.67-1.12
	C170.84,493.48,171,493.62,171,493.62z"/>
<path class="st376" d="M169.39,497.28c0.08,0.14,0.22,0.28,0.21,0.41c-0.01,0.13-0.18,0.24-0.27,0.36
	C169.35,497.79,169.37,497.54,169.39,497.28z"/>
<path class="st376" d="M166.3,505.58c0.07,0.13,0.21,0.27,0.2,0.39c-0.01,0.12-0.17,0.23-0.27,0.34
	C166.25,506.07,166.27,505.82,166.3,505.58z"/>
<path class="st376" d="M149.19,535.78c-0.68,0-1.36,0-2.04-0.01C147.83,534.93,148.51,534.94,149.19,535.78z"/>
<path class="st375" d="M220.52,382.8c0.13-0.44,0.27-0.88,0.4-1.32c0.13,0.09,0.37,0.24,0.37,0.25c-0.23,0.38-0.47,0.76-0.72,1.13
	L220.52,382.8z"/>
<path class="st377" d="M80.36,430.73c0.11,0,0.24-0.04,0.31,0.01c0.08,0.06,0.11,0.19,0.16,0.29c-0.21,0-0.42-0.01-0.64-0.01
	C80.25,430.93,80.31,430.83,80.36,430.73z"/>
<path class="st375" d="M220.58,382.86c-0.09,0.13-0.18,0.27-0.27,0.4c0.07-0.15,0.14-0.3,0.21-0.46
	C220.52,382.8,220.58,382.86,220.58,382.86z"/>
<path class="st11" d="M100.54,169.5c-5.15,0.03-7.58-3.28-9.12-7.55c-1.54-4.29-1.18-8.79-0.98-13.22c0.3-6.83,0.8-13.66,1.21-20.49
	c2.34-25.79,3.52-51.48-6.42-76.25c-2.5-6.23-3.04-12.66-1.27-19.22c1.25-4.61,3.98-6.61,8.81-5.49c1.83,0.42,3.73,0.63,5.61,0.68
	c7.87,0.22,8,0.22,10-7.34c0.77-2.9,2.3-4.34,5.12-4.99C133.6,11,153.86,7.23,174.4,5.15c15.74-1.59,31.47-2.87,47.32-3.14
	c34.62-0.57,63.3,12.34,86.94,37.18c8.69,9.13,15.84,19.45,22.68,30c0.82,1.27,0.36,1.85-0.95,2.09
	c-8.25-7.12-18.15-7.72-28.18-6.51c-28.83,3.5-53.89,15.79-76.33,33.81c-19.68,15.8-36.1,34.86-53.01,53.42
	c-1.45,1.59-2.37,3.88-4.85,4.36c-1.32-0.79-2.72-0.78-3.82,0.21c-3.31,2.96-7.44,4.73-10.59,8.03c-4.21,4.41-8.32,8.98-13.95,11.88
	c-11.14,5.72-18.37,15.06-23.44,26.28c-4.97-10.27-8.21-21.12-10.73-32.21c-0.43-1.9-0.53-4.16-3.54-3.29
	c2.52-4.05,4.88-8.22,7.6-12.13c10.78-15.48,22.31-30.31,35.36-44.04c10.31-10.85,20.93-21.25,33.29-29.61
	c15.73-10.64,31.86-20.72,46.95-32.26c5.08-3.88,11.13-6.64,15.11-11.93c0.64-0.12,1.37-0.16,1.48-0.99
	c0.02-0.17-0.38-0.57-0.55-0.55c-0.83,0.1-0.89,0.83-1,1.47c-1.73,0.73-3.63,1.2-5.17,2.22c-16,10.55-31.93,21.21-47.9,31.8
	c-14.3,9.48-28.64,18.91-42.95,28.38c-9.86,6.52-19.75,12.98-26.81,22.82c-9.63,13.42-16.22,27.85-15.51,44.84
	C102.24,168.5,100.69,168.6,100.54,169.5z M96.63,114.05c1.51-0.26,1.7-1.09,1.86-1.95c1.66-8.63,2.75-17.36,1.95-26.11
	c-0.99-10.91,0.11-21.37,4.43-31.46c2.92-6.82,3.22-14.01,2.97-21.27c-0.05-1.41-0.15-2.62-1.9-3.19c-7.72-2.5-13.7,0.84-15.8,8.71
	c-2.46,9.25-0.08,18.03,2.17,26.86c2.79,10.95,6.88,21.69,6.15,33.26C98.14,103.94,97.27,108.92,96.63,114.05z M105.88,88.33
	c1.51-5.2,3.17-9.39,6.97-11.96c3.91-2.64,6.94-6.16,10.24-9.42c2.04-2.01,5.32-4.73,4.54-6.91c-1.01-2.8-4.42,0.47-6.9,0.02
	c-7.61-1.37-13.44,0.18-14.2,9.39c-0.06,0.76-0.94,1.43-1.29,2.21C102.9,76.93,103.19,82.14,105.88,88.33z M95.86,118.33
	c0.09-0.29,0.15-0.47,0.21-0.65c-0.12,0.03-0.25,0.07-0.37,0.1C95.74,117.92,95.78,118.06,95.86,118.33z"/>
<path class="st11" d="M350.79,130.7c1.03,15.7,2.07,31.41,3.1,47.11c-4.27,5.02-8.67,9.91-11.91,15.73
	c-1.14,2.05-1.76,3.66,0.61,5.12c-0.73,0.4-1.43,0.86-2.19,1.19c-11.92,5.21-19.58,16.85-19.61,29.17c-0.01,3.44,1.02,5.12,4.45,5.2
	c-4.2,1.79-8.46,1.21-12.6,0.02c-6.5-1.86-12.85-1.42-19.33,0.09c-12.2,2.85-24.46,5.42-36.66,8.28c-3.9,0.91-7.19,0.08-10.02-2.49
	c-6.16-5.59-13.32-9.66-20.4-13.89c-12.8-7.66-25.95-14.75-38.23-23.28c4.43-2.09,8.11-5.43,13.1-6.69
	c11.41-2.9,20.74-9.27,28.92-17.78c8.16-8.5,15.2-18.21,25.41-24.65c2.44-1.54,4.57-3.62,6.64-5.66c1.83-1.81,2.14-3.84-0.29-5.58
	c3.11-1.45,6.21-2.89,9.32-4.34c13.4-6.28,26.59-12.86,42.24-11.21c5.93,0.63,10.25-3.37,13.03-8.6c1.86-3.49,3.59-7.05,5.46-10.53
	c0.99-1.84,1.99-2.8,4.39-1.23c8.23,5.39,14.18,12,13.86,22.56c0.16,0.4,0.32,0.79,0.49,1.19L350.79,130.7z M242.94,201.25
	c20.86,1.17,41.01,5.22,60.99,10.39c1.68,0.43,3.44-0.03,4.99-0.89c1.2-0.67,2.61-1.42,2.72-2.88c0.14-1.84-1.71-1.85-2.89-2.32
	c-8.65-3.41-17.72-5.42-26.58-8.13C268.41,193.21,255.95,198.91,242.94,201.25z"/>
<path class="st364" d="M350.09,129.24c0.31-10.56-5.63-17.17-13.86-22.56c-2.41-1.58-3.41-0.62-4.39,1.23
	c-1.87,3.48-3.61,7.04-5.46,10.53c-2.78,5.23-7.1,9.23-13.03,8.6c-15.65-1.65-28.84,4.93-42.24,11.21c-3.1,1.45-6.21,2.89-9.32,4.34
	c-12.89,5.2-25.69,10.62-38.13,16.84c-1.27,0.63-2.36,1.56-2.78,2.92c-1.71,5.65-6.37,8.81-10.44,12.44
	c-9.54,8.52-20.36,15.1-31.75,20.81c-5.87,0.41-12.26-3.47-17.51,2.1c-5.75-2.68-10.62-7.12-17.04-8.44
	c0.37-1.31,0.75-2.62,1.12-3.94c0,0-0.15-0.01-0.15-0.01c0.86,0.13,1.04-0.46,1.15-1.1l-0.05,0.12c1.51-1.07,2.47-2.54,3.16-4.22
	l-0.09,0.06c1.07-1.41,2.14-2.82,3.21-4.23c0.97-0.47,1.56-1.25,1.86-2.27c0.81-0.37,1.16-1.04,1.22-1.89l-0.13,0.11
	c0.38-0.38,0.75-0.76,1.13-1.15c4.05-4.61,8.79-8.66,11.45-14.38c2.49-0.47,3.4-2.76,4.85-4.36c16.91-18.56,33.33-37.62,53.01-53.42
	c22.44-18.02,47.5-30.31,76.33-33.81c10.03-1.22,19.93-0.61,28.18,6.51c4.47,5.17,9.02,10.27,13.4,15.52
	c5.87,7.01,10.62,14.77,14.58,22.99c4.69,9.72,2.28,16.18-7.57,20.92c0,0-0.21-0.27-0.21-0.27
	C350.42,130.03,350.25,129.63,350.09,129.24z M223.66,118.99c-2.96,0.7-5.44,2.41-7.16,4.74c-3.3,4.46-7.84,7.58-11.64,11.49
	c-9.59,9.85-19.27,19.62-30.49,27.69c-1.03,0.74-1.83,1.82-0.76,3.03c0.86,0.97,1.91,0.43,2.74-0.25
	c4.24-3.49,8.67-6.77,12.62-10.56c7.9-7.58,15.7-15.27,23.19-23.25C216.1,127.7,221.24,124.54,223.66,118.99
	c4.83-1.08,7.27-5.59,11.25-7.9c0.62-0.36,0.93-1.1,0.52-1.77c-0.43-0.69-1.34-0.72-1.84-0.31
	C229.98,112.04,225.2,113.91,223.66,118.99z M223.12,144.85c18.34-4.45,27.8-20.37,41.35-31.05
	C247.93,120.54,237.83,135.65,223.12,144.85z M323.75,80.36c9.86,3.63,12.21,17.54,24.67,17.61
	C339.55,92.99,334.88,82.27,323.75,80.36z M237.26,108.08c2.13,0.18,3.5-0.21,4.83-1.81C239.78,105.34,238.54,106.06,237.26,108.08z
	"/>
<path class="st364" d="M161.18,197.71c5.26-5.56,11.64-1.69,17.51-2.1c2.43,3.31,5.63,5.64,9.32,7.34
	c12.28,8.53,25.43,15.62,38.23,23.28c7.08,4.24,14.24,8.31,20.4,13.89c2.83,2.57,6.13,3.4,10.02,2.49
	c12.2-2.86,24.46-5.43,36.66-8.28c6.47-1.51,12.83-1.95,19.33-0.09c4.14,1.18,8.41,1.77,12.6-0.02c0,0-0.15-0.08-0.15-0.08
	c1.1,0.2,1.74-0.37,2.18-1.29c4.15-0.78,6.36-4.72,10.08-6.21c5.63-2,11.24-4.07,16.9-5.97c2.2-0.74,2.82-1.45,1.1-3.45
	c-4.01-4.66-7.87-9.45-11.79-14.19c0.19-1.1,0.39-2.19,0.58-3.29c2.4-4.61,5.26-8.89,8.94-12.59c7.94,7.37,15.85,14.76,23.85,22.07
	c1.64,1.5,2.85,3.71,6.07,2.4c1.99-0.81,2.56,1.79,2.83,3.4c0.66,3.95-0.78,7.45-2.79,10.74c-9.83,16.06-23.71,26.96-41.65,32.66
	c-4.08,1.3-8.17,2.58-12.26,3.87c-2.75-3.63-3.47-8.12-4.93-12.25c-1.65-4.68-3.61-3.96-6.36-1.33c-0.99,0.95-2.14,1.8-2.9,2.92
	c-11.82,17.33-29.56,23.69-49.15,26.7c-4.07,0.62-8.12,1.34-12.18,2.01c-3.44-0.16-6.86-0.48-10.1-1.76
	c-2.65-1.05-5.8-2.65-5.88-5.31c-0.26-9.17-6.63-13.89-12.61-18.99c-6.42-5.46-12.89-10.86-19.17-16.5
	c-9.46-8.51-18.12-17.91-28.21-25.73c-0.51-0.37-1.03-0.73-1.54-1.1l0.16-0.08C171.82,205.8,166.04,202.29,161.18,197.71z
	 M296.9,243.14c-3.59,0.09-8.01,0.44-12.46,0.84c-15.53,1.42-24.11,11.13-28.03,25.23c-1.34,4.82,0.66,5.96,4.66,6.02
	c2.05,0.03,4.07-0.13,6.14-0.46c9.29-1.52,17.44-5.82,25.43-10.38c6.59-3.77,12.27-8.72,16.05-15.51c2.36-4.23,1.72-5.42-3.18-5.7
	C302.93,243.01,300.34,243.14,296.9,243.14z M330.14,248.72c0,7.31,0.73,8.01,7.1,6.35c8.82-2.3,17.36-5.31,24.84-10.78
	c5.41-3.96,10.79-7.91,13.06-14.65c0.62-1.83,1.1-3.79-0.17-5.42c-0.95-1.22-2.56-0.83-3.86-0.41
	c-12.43,4.07-24.45,9.16-35.67,15.88C332.16,241.67,328.78,244.37,330.14,248.72z"/>
<path class="st14" d="M320.73,283.53c-2.23-0.01-4.47-0.04-6.7-0.02c-1.36,0.01-2.88-0.16-3.37,1.62c-1.58,5.73-5.11,3.74-7.68,1.43
	c-2.8-2.51-5.48-4.21-9.37-4.48c-3.87-0.26-5.53-4.04-8.02-5.88c12.12-0.8,23.17,5.51,35.31,5.31
	C320.84,282.18,320.79,282.86,320.73,283.53z"/>
<path class="st364" d="M353.08,187.15c-3.67,3.71-6.54,7.98-8.94,12.59c-0.52-0.36-1.03-0.72-1.55-1.07
	c-2.37-1.46-1.74-3.08-0.61-5.12c3.23-5.82,7.64-10.71,11.91-15.73C356.24,181.15,352.8,183.99,353.08,187.15z"/>
<path class="st14" d="M100.54,169.5c0.15-0.9,1.7-1,1.29-2.23c0.01,0,0.11-0.01,0.11-0.01c3.01-0.86,3.1,1.39,3.54,3.29
	c2.52,11.09,5.76,21.94,10.73,32.21c0.33,1.55,0.87,3,1.98,4.18c0.86,2.85,2.38,5.35,4.04,7.78c4.87,10.08,9.66,20.21,18.75,27.39
	c-2.66,5.34-6.63,9.77-10.05,14.57c-4.86-0.07-5.37,4.35-6.94,7.25c-1.91,3.52-3.02,4.66-5.54,0.55c-1.35-2.21-2.27-6.43-4.72-5.88
	c-2.75,0.61-3.66,4.77-4.62,7.6c-3.02,8.86-0.27,17.15,3.05,25.39c2.27,5.62,5.88,10.77,6.23,17.15
	c-7.19-9.98-16.18-19.1-17.04-32.27c-0.41-6.32,0.49-13.2,4.23-18.22c4.95-6.64,4.19-12.64,1.48-19.47
	c-4.44-11.17-7.64-22.68-8.54-34.75c-0.72-9.76-0.2-19.47,1.68-29.05C100.57,173.08,98.21,171.13,100.54,169.5z"/>
<path class="st14" d="M60.88,304.62c0.6-4.94,3.89-8.74,5.62-13.19c4.79-12.34,8-24.88,9.52-38.13c1.63-14.16-0.46-28.12-0.21-42.16
	c0.14-7.75,1.47-15.32,3.91-22.7c0.56-1.68,1.31-3.12,3.24-4.73c-1.22,7-2.33,13.42-3.45,19.85c-0.2,1.18-0.6,2.36-0.57,3.54
	c0.28,13.93-1.41,27.79-1.21,41.74c0.18,12.68-1.37,25.39-5.39,37.42C70.07,293.01,66.83,299.79,60.88,304.62z"/>
<path class="st14" d="M60.02,398.96c6.28-9.34,8.02-19.15,8.67-29.39c0.33-5.28,1.84-10.55,4.93-14.99
	c7.85-11.31,7.63-23.33,3.76-35.84c-1.04-3.37-3.1-6.55-2.3-11.42c3.48,6.08,4.49,11.97,5.78,17.7c3.17,14.08,0.02,27.25-6.45,39.75
	c-2.7,5.23-2.64,10.95-3.72,16.45c-1.01,5.15-3.34,9.7-5.52,14.33C64.44,397.12,63.28,398.81,60.02,398.96z"/>
<path class="st14" d="M97.65,321.45c3.31,14.38,8.52,28.7,2.43,43.49c-1.48,3.59-3.96,6.78-6.05,10.1
	c-0.31,0.49-1.15,1.07-1.61,0.98c-1.33-0.28-1.16-1.56-1.09-2.52c0.42-6.03,2.41-11.71,3.96-17.49c2.13-7.98,3.55-15.99,3.35-24.33
	C98.55,328.16,95.7,325.1,97.65,321.45z"/>
<path class="st14" d="M124.55,372.46c1.22-14.25,5.63-28.33,0.34-43.85C133.89,338.06,133.36,364.12,124.55,372.46z"/>
<path class="st14" d="M177.64,212.05c10.09,7.82,18.75,17.21,28.21,25.73c6.28,5.65,12.75,11.04,19.17,16.5
	c5.98,5.09,12.35,9.82,12.61,18.99c0.08,2.66,3.23,4.26,5.88,5.31c3.25,1.28,6.66,1.6,10.1,1.76c0.45,1.21,2.6,0.75,2.5,2.19
	c-0.09,1.41-1.67,1.52-2.75,1.94c-8.36,3.25-16.42,1.11-22-6.07c-11.7-15.06-24.22-29.36-38.1-42.47
	c-6.59-6.23-12.18-13.37-17.04-21.07c-0.93-1.48-1.6-2.66,0.04-3.98c0,0-0.16,0.08-0.16,0.08
	C176.61,211.31,177.13,211.68,177.64,212.05z"/>
<path class="st14" d="M141.13,198.73c6.28,4.69,7.22,11.68,7.99,18.7c0.12,1.12,0.57,2.62-0.7,3.3c-1.4,0.74-2.13-0.73-2.93-1.5
	c-2.85-2.74-5.64-5.29-9.72-6.42c-3.84-1.06-4.43-5.65-1.12-8.14C137.14,202.8,139.39,200.75,141.13,198.73z"/>
<path class="st364" d="M153.35,247.31c-0.04,1.71-0.07,3.41-0.11,5.12c-2.8,1.74-2.77,3.48-0.01,5.23c-0.51,3.19-0.9,6.41-1.6,9.56
	c-0.33,1.47-0.04,3.98-2.63,3.6c-2.81-0.42-2.08-3.03-1.73-4.57c1.51-6.63,0.67-13.31,0.87-19.96c0.06-0.67,0.02-1.37,0.22-1.99
	c0.39-1.26,0.69-2.88,2.32-2.91c1.97-0.04,1.45,1.88,1.85,3.03C152.85,245.37,153.08,246.35,153.35,247.31z M149.8,264.63
	c-1.27,1.15-1.74,2.17-1.3,3.39c0.07,0.2,1.04,0.36,1.16,0.2C150.44,267.22,150.36,266.08,149.8,264.63z"/>
<path class="st14" d="M141.59,231.14c-4.44-3.32-8.42-5.51-10.82-9.8C136.17,221.71,140,224.95,141.59,231.14z"/>
<path class="st378" d="M452.2,709.78c-0.08,0.13-0.15,0.26-0.23,0.39c0.07-0.13,0.15-0.27,0.22-0.4
	C452.19,709.77,452.2,709.78,452.2,709.78z"/>
<path class="st14" d="M101.93,167.26c0,0-0.1,0.01-0.11,0.01c-0.72-16.98,5.87-31.42,15.5-44.84c7.06-9.84,16.96-16.3,26.81-22.82
	c14.31-9.47,28.65-18.9,42.95-28.38c15.97-10.59,31.9-21.25,47.9-31.8c1.54-1.02,3.44-1.49,5.17-2.22l0.07,0.07
	c-3.98,5.29-10.03,8.04-15.11,11.93c-15.09,11.54-31.21,21.62-46.95,32.26c-12.36,8.36-22.98,18.76-33.29,29.61
	c-13.04,13.74-24.58,28.56-35.36,44.04C106.81,159.04,104.46,163.21,101.93,167.26z"/>
<path class="st14" d="M96.63,114.05c0.64-5.13,1.51-10.12,1.83-15.14c0.73-11.57-3.36-22.31-6.15-33.26
	c-2.25-8.83-4.63-17.62-2.17-26.86c2.1-7.87,8.08-11.21,15.8-8.71c1.75,0.57,1.85,1.78,1.9,3.19c0.25,7.26-0.04,14.45-2.97,21.27
	c-4.32,10.09-5.43,20.55-4.43,31.46c0.8,8.74-0.29,17.48-1.95,26.11C98.33,112.96,98.14,113.79,96.63,114.05z"/>
<path class="st14" d="M105.88,88.33c-2.69-6.19-2.98-11.39-0.63-16.67c0.35-0.78,1.22-1.44,1.29-2.21
	c0.76-9.21,6.58-10.76,14.2-9.39c2.48,0.45,5.89-2.82,6.9-0.02c0.78,2.18-2.5,4.89-4.54,6.91c-3.3,3.25-6.33,6.77-10.24,9.42
	C109.05,78.94,107.39,83.12,105.88,88.33z"/>
<path class="st379" d="M240.16,37.21c0.12-0.64,0.17-1.37,1-1.47c0.17-0.02,0.57,0.39,0.55,0.55c-0.11,0.83-0.84,0.87-1.48,0.99
	C240.24,37.29,240.16,37.21,240.16,37.21z"/>
<path class="st379" d="M95.86,118.33c-0.08-0.27-0.12-0.41-0.16-0.55c0.12-0.03,0.25-0.07,0.37-0.1
	C96.01,117.86,95.95,118.04,95.86,118.33z"/>
<path class="st14" d="M188.01,202.96c-3.69-1.7-6.89-4.04-9.32-7.34c11.39-5.71,22.21-12.29,31.75-20.81
	c4.07-3.64,8.72-6.79,10.44-12.44c0.41-1.36,1.51-2.29,2.78-2.92c12.44-6.22,25.24-11.64,38.13-16.84c2.43,1.73,2.13,3.77,0.29,5.58
	c-2.07,2.04-4.2,4.13-6.64,5.66c-10.21,6.44-17.25,16.14-25.41,24.65c-8.17,8.52-17.51,14.88-28.92,17.78
	C196.12,197.53,192.44,200.87,188.01,202.96z"/>
<path class="st364" d="M242.94,201.25c13-2.34,25.46-8.04,39.22-3.84c8.86,2.71,17.93,4.72,26.58,8.13
	c1.19,0.47,3.03,0.48,2.89,2.32c-0.11,1.46-1.52,2.22-2.72,2.88c-1.54,0.86-3.31,1.33-4.99,0.89
	C283.96,206.47,263.8,202.42,242.94,201.25z"/>
<path class="st364" d="M342.59,198.67c0.52,0.36,1.03,0.72,1.55,1.07c-0.19,1.1-0.39,2.19-0.58,3.29
	c-1.34,8.06-3.89,15.81-6.21,23.62c-3.72,1.49-5.93,5.43-10.08,6.21c-0.98,0-1.87,0.16-2.18,1.29c0,0,0.15,0.08,0.15,0.08
	c-3.43-0.07-4.46-1.76-4.45-5.2c0.03-12.33,7.69-23.96,19.61-29.17C341.16,199.52,341.86,199.06,342.59,198.67z"/>
<path class="st380" d="M350.09,129.24c0.16,0.4,0.33,0.79,0.49,1.19C350.42,130.03,350.25,129.63,350.09,129.24z"/>
<path class="st375" d="M155.43,171.89c0.38-0.38,0.75-0.76,1.13-1.15C156.18,171.12,155.81,171.5,155.43,171.89z"/>
<path class="st14" d="M296.9,243.14c3.44,0,6.03-0.12,8.6,0.03c4.9,0.28,5.54,1.47,3.18,5.7c-3.78,6.79-9.46,11.74-16.05,15.51
	c-7.98,4.56-16.14,8.86-25.43,10.38c-2.06,0.34-4.09,0.5-6.14,0.46c-4-0.06-6-1.2-4.66-6.02c3.92-14.09,12.5-23.8,28.03-25.23
	C288.89,243.57,293.31,243.22,296.9,243.14z"/>
<path class="st14" d="M330.14,248.72c-1.36-4.35,2.01-7.05,5.31-9.02c11.22-6.73,23.24-11.81,35.67-15.88
	c1.31-0.43,2.91-0.82,3.86,0.41c1.27,1.63,0.78,3.58,0.17,5.42c-2.27,6.75-7.65,10.7-13.06,14.65c-7.48,5.47-16.02,8.48-24.84,10.78
	C330.87,256.73,330.14,256.02,330.14,248.72z"/>
<path class="st14" d="M337.35,226.65c2.33-7.81,4.87-15.56,6.21-23.62c3.92,4.74,7.78,9.53,11.79,14.19c1.72,2,1.11,2.72-1.1,3.45
	C348.59,222.58,342.98,224.65,337.35,226.65z"/>
<path class="st381" d="M325.09,234.14c0.31-1.13,1.2-1.29,2.18-1.29C326.83,233.78,326.19,234.34,325.09,234.14z"/>
<path class="st381" d="M177.64,212.05c-0.51-0.37-1.02-0.74-1.54-1.1C176.61,211.32,177.12,211.68,177.64,212.05z"/>
</svg>
