<svg version="1.1" id="Слой_1" xmlns="http://www.w3.org/2000/svg" x="0" y="0" viewBox="0 0 500 355" xml:space="preserve"><style>.st95{fill:#fff}</style><g opacity=".66"><path class="st95" d="M145.65 272.94c-23.31-.81-42.37-13.24-50.85-33.16l-.86-2.02h103.17c34.65 0 65.38 12.63 86.69 35.18H145.65z"/><path class="st95" d="M259.78 253.97H133.37c-15.7-.55-29.46-6.38-39.37-16.21h-.06l.86 2.02c8.48 19.92 27.54 32.35 50.85 33.16H283.8c-7.04-7.45-15.12-13.79-24.02-18.97z"/><path class="st95" d="M96.2 242.75c9.64 8.32 22.34 13.24 36.67 13.74h131c-1.35-.86-2.71-1.71-4.09-2.52H133.37c-15.7-.55-29.46-6.38-39.37-16.21h-.06l.86 2.02c.43 1.01.91 1.99 1.4 2.97z"/></g><path d="M375.76 349.62a94.726 94.726 0 00-12.55-21.66l-.01-.01a95.61 95.61 0 00-2.84-3.48c-.25-.3-.51-.6-.77-.89-.4-.46-.81-.91-1.22-1.36-.27-.3-.55-.6-.83-.9-.41-.44-.83-.88-1.25-1.32-.27-.28-.55-.55-.83-.83-.78-.78-1.57-1.55-2.38-2.3-.3-.28-.59-.56-.89-.83a72.3 72.3 0 00-1.31-1.16c-.33-.29-.66-.58-.99-.86l-1.32-1.11c-.35-.29-.71-.58-1.07-.86-.44-.35-.87-.7-1.32-1.04-.72-.55-1.45-1.1-2.19-1.63-.43-.31-.86-.61-1.3-.91-.42-.29-.83-.58-1.25-.86-.44-.3-.89-.59-1.33-.88-.43-.28-.87-.56-1.31-.84-.44-.27-.87-.55-1.31-.82-.53-.32-1.07-.64-1.61-.95-.59-.34-1.19-.68-1.79-1.02-.6-.33-1.21-.66-1.82-.99-.42-.22-.84-.43-1.27-.65-.53-.27-1.06-.53-1.59-.79-.43-.21-.86-.41-1.29-.61-.58-.27-1.17-.54-1.76-.8-.38-.17-.75-.34-1.13-.5-.93-.4-1.86-.78-2.8-1.16-.34-.14-.69-.26-1.04-.4-.66-.25-1.33-.51-2-.75-.41-.15-.81-.29-1.22-.43-.65-.23-1.31-.44-1.96-.66-.39-.12-.77-.25-1.16-.37-.9-.28-1.81-.55-2.73-.81-.2-.06-.39-.11-.59-.17-.97-.27-1.95-.52-2.94-.77-.36-.09-.73-.17-1.1-.26-.74-.17-1.48-.34-2.22-.5l-1.16-.24c-.82-.17-1.64-.32-2.46-.47-.29-.05-.57-.11-.86-.16-1.1-.19-2.21-.36-3.33-.52-.27-.04-.55-.07-.82-.11-.87-.12-1.74-.23-2.61-.32l-1.14-.12c-.82-.08-1.64-.16-2.46-.22l-1.07-.09c-1.16-.08-2.32-.16-3.49-.21l-131.32-1.11c-15.41 1.01-36.67.11-59.66-8.44C27.71 255.43 4.14 186.35.48 175.06c.28 18.29.55 36.58.83 54.87l-.83-.54c-.74 5.98-6.54 60.49 33.64 97.06 21.88 19.91 46.75 24.82 57.82 26.28 34.11-.35 68.23-.7 102.34-1.06l182.97 1.55-1.49-3.6z" opacity=".62" fill="#fff"/><g opacity=".81"><path class="st95" d="M457.28 249.54c-40-4.37-58.83-30.52-75.55-63.82-16.61-33.05-30.41-72-21.49-109.12.32-1.37-.96-2.42-2.12-2.68-11.57-2.54-31.43-3.87-41.51 3.23-5.38 3.77-8.05 8.03-9.95 14.26-1.73 5.71 4.3 10.89 1.14 10.2-11.57-2.57-22.41-8.35-32.02-15.12-12.08-8.48-49.87-50.96-29.86-64.24 4.55-3.02 12.96-11.84 7.52-17.53-4.24-4.44-14.49 1.52-18.35 3.39-37.64 18.2-70.68 53.1-92.62 88-3.15 4.07-6.3 8.16-9.45 12.24-.11.14-.13.27-.21.39-.03.06-.08.09-.12.16-10.62 21.46 13.97 41.02 28.75 52.6 29.66 23.27 64.19 39.34 95.53 60.06 41.64 27.54 74.34 64.92 124.21 78.07 35.64 9.38 105.81 2.35 117.96-34.19 4.6-13.82-36.63-15.33-41.86-15.9zm-99.36 37.05c-38.15-15.87-66.86-48.28-100.86-70.78-23.96-15.82-49.59-29.02-73.66-44.73-16.46-10.73-58.05-35.49-46.36-60.05 2.13-2.73 4.23-5.44 6.32-8.17 6.35 16.46 32.31 29.99 44.37 37.2 22.73 13.56 46.81 24.15 68.59 39.38 18.38 12.85 34.22 28.86 49.72 44.96 14.65 15.24 28.52 33.7 47.48 43.87 18.45 9.9 38.13 13.66 58.82 15.74 29.36 2.94 74.38-10.21 78.23-11.04-33.39 25.12-96.21 28.78-132.65 13.62z"/><path class="st95" d="M356.66 292.91c-38.33-15.43-71.53-54.6-105.53-77.1-23.96-15.82-49.59-29.02-73.66-44.73-16.46-10.73-58.05-35.49-46.36-60.05 2.13-2.73 4.23-5.44 6.32-8.17 6.35 16.46 32.31 29.99 44.37 37.2 22.73 13.56 46.81 24.15 68.59 39.38 18.38 12.85 34.22 28.86 49.72 44.96 14.65 15.24 28.52 33.7 47.48 43.87 18.45 9.9 42.25 19.68 74.27 18.64 36.02-1.17 71.02-15.1 74.87-15.93-26.07 41.9-102.63 36.99-140.07 21.93z"/></g></svg>