<svg version="1.1" id="Слой_1" xmlns="http://www.w3.org/2000/svg" x="0" y="0" viewBox="0 0 500 375" xml:space="preserve"><style>.st322{opacity:.45;fill:#fff}</style><path d="M444.5 162.5c-1.17 1.18-3.05 1.06-3.48 1.04-5.23-.25-357.18 6.16-374.53-.04-2.86-1.02-4-3-4-3-1.8-3.14.06-7.32.56-8.51C80.64 110 92.35 65.41 113.32 25.01c.4-.78 1.61-3.13 4.18-4.51 1.68-.9 3.23-1.01 3.68-1.04 69.85-5.66 131.01-4.43 253.32-1.96.88.02 4.06.01 7 2 2.33 1.58 3.44 3.71 3.83 4.46 20.66 39.41 34.62 82.08 55.17 121.54 1.63 3.12 7.3 13.66 4 17z" opacity=".62" fill="#fff"/><path d="M31.9 151.79c-14.47-3.15-23.43-11.94-28.92-24.36-6.31-14.28-.46-26.87 14.77-30.01 9-1.85 18.52-1.86 27.77-1.57 9.18.29 9.43 1.03 13.1-7.31 5.11-11.63 9.74-23.48 14.6-35.22 1.43-3.46 3.01-6.85 4.37-10.33C88.51 15.06 108.6 2.66 138.88 2.93c71.09.64 142.19-.21 213.28-.2 9.3 0 18.73.75 27.86 2.45 19.56 3.64 32.69 15.75 40.41 33.74 8.17 19.06 15.97 38.28 24.03 57.64 7.13-.41 14.56-1.38 21.93-1.09 6.45.25 13.13 1.1 19.21 3.15 12.12 4.1 16.71 14.5 12.2 26.55-5.19 13.85-14.85 23.06-30 26.63 2.28 7 4.47 13.87 6.76 20.72 5.42 16.26 8.58 32.91 8.75 50.08.35 36.85.83 73.7.93 110.54.02 6.48-1.1 13.06-2.49 19.42-2.1 9.6-8.12 15.91-17.93 17.94-15.36 3.18-30.89 3.43-46.28.8-12.74-2.18-18.71-8.73-19.64-21.63-.78-10.77-.16-21.64-.16-32.96H102.85c-.11 1.85-.29 3.62-.3 5.4-.05 7.67.17 15.35-.12 23.01-.65 17.38-7.16 25.41-24.52 26.78-13.7 1.08-27.67.43-41.37-.94-12.09-1.2-17.62-7.76-19.18-19.93-.85-6.66-1.21-13.42-1.24-20.14-.12-31.81.34-63.62-.18-95.41-.4-24.09 3.46-47.27 11.6-69.85 1.59-4.38 2.81-8.89 4.36-13.84zm218.63 4.88v.61c33.49 0 66.98.29 100.47-.1 21.87-.26 43.74-1.3 65.59-2.4 7.66-.39 10.97-4.81 9.8-12.49-.78-5.12-2.25-10.26-4.22-15.05-5.97-14.52-12.33-28.89-18.56-43.3-5.57-12.87-11.09-25.76-16.79-38.56-6.24-14.02-17.26-21.26-32.49-21.93-9.53-.42-19.07-.67-28.61-.62-29.18.14-58.37.45-87.55.69-32.17.27-64.34.42-96.5.85-8.65.12-16.31 3.75-21.48 10.58-5.37 7.1-10.63 14.62-14.09 22.75-10.53 24.77-20.21 49.91-30.11 74.95-1.3 3.28-2.24 6.76-2.86 10.24-1.31 7.38 1.08 11.05 8.53 12.36 5.32.93 10.78 1.36 16.19 1.37 50.89.09 101.78.05 152.68.05zm-117.87 58.17v42.87h234.55v-42.87H132.66zm-59.21 2.49c-14.68-.01-26.87 11.9-26.65 26.06.22 14.64 12 26.16 26.66 26.07 14.73-.1 26.41-11.81 26.29-26.35-.13-14.29-11.85-25.77-26.3-25.78zm379.57 25.76c-.09-14.54-11.91-25.92-26.78-25.78-14.33.14-26.15 11.96-26.05 26.06.1 14.56 11.9 26.11 26.63 26.06 14.75-.04 26.29-11.64 26.2-26.34z" opacity=".88" fill="#fff"/><circle class="st322" cx="73" cy="245" r="29.5"/><circle class="st322" cx="427" cy="244" r="29.5"/></svg>