<svg version="1.1" id="Слой_1" xmlns="http://www.w3.org/2000/svg" x="0" y="0" viewBox="0 0 500 344" xml:space="preserve"><style>.st322{opacity:.45;fill:#fff}</style><path class="st322" d="M248.51 342.06c.62-14.71 3.39-123.4-83.45-199.8C98.43 83.63 21.21 81.15.53 81.15.24 99.89.94 185.68 67.52 258.62c71.05 77.83 163.98 82.83 180.99 83.44z"/><path d="M248.32 342.27c6.84-13.04 55.71-110.17 9.76-216.3C222.82 44.51 154.03 9.32 135.33.5c-8.26 16.83-44.21 94.72-15.11 189.09 31.05 100.71 112.97 144.87 128.1 152.68z" opacity=".8" fill="#fff"/><path class="st322" d="M251.96 340.95c-.62-14.71-3.39-123.4 83.45-199.8 66.64-58.63 143.86-61.11 164.54-61.12.29 18.74-.42 104.53-66.99 177.47-71.05 77.84-163.99 82.84-181 83.45z"/><path d="M248.75 342.47c-6.84-13.04-55.71-110.17-9.76-216.3C274.26 44.71 343.04 9.53 361.74.7c8.26 16.83 44.21 94.72 15.11 189.09-31.05 100.71-112.97 144.87-128.1 152.68z" opacity=".79" fill="#fff"/></svg>