<svg version="1.1" id="Слой_1" xmlns="http://www.w3.org/2000/svg" x="0" y="0" viewBox="0 0 500 348" xml:space="preserve"><style>.st95{fill:#fff}</style><path class="st95" d="M133.95 32.26h-.85v-7.31c0-1.92 1.23-3.64 2.99-4.18 4.35-1.33 6.92-5.74 5.98-10.25-.69-3.3-3.36-5.97-6.66-6.66-2.65-.55-5.34.09-7.4 1.76a8.72 8.72 0 00-3.23 6.79h-.85c0-2.9 1.29-5.62 3.55-7.45 2.25-1.83 5.21-2.54 8.11-1.93 3.62.76 6.57 3.7 7.32 7.32 1.03 4.94-1.79 9.77-6.57 11.24-1.41.43-2.39 1.81-2.39 3.36v7.31zm116.73.05h-.85V25c0-1.92 1.23-3.64 2.99-4.18 4.35-1.33 6.92-5.74 5.98-10.25-.69-3.3-3.36-5.97-6.66-6.66-2.65-.55-5.34.09-7.4 1.76a8.72 8.72 0 00-3.23 6.79h-.85c0-2.9 1.29-5.62 3.55-7.45 2.25-1.83 5.21-2.54 8.11-1.93 3.62.76 6.57 3.7 7.32 7.32 1.03 4.94-1.79 9.77-6.57 11.24-1.41.43-2.39 1.81-2.39 3.36v7.31z"/><path d="M499.5 181.45s-30.42-82.1-48.68-92.33c-18.25-10.23-45.03-13.05-45.03-13.05-7.3 39.21-38.94 37.14-38.94 37.14-4.84-.32-12.96-1.56-21.31-6.57-16.71-10.04-21.32-27.38-22.26-31.32-10.24 4.97-21.76 11.83-33.31 21.36-35.1 28.94-49.7 65.36-55.75 84.79l46.85 29.17-7.91 137.18h187.4l-7.91-137.18 46.85-29.19z" opacity=".17" fill="#fff"/><path d="M386.37 178.84s-30.42-83.39-48.68-93.78c-18.25-10.4-45.03-13.26-45.03-13.26-3.03 16.5-10.23 25.81-17.63 31.04-8.29 5.86-17.07 6.39-21.31 6.68-12.54.85-21.9-3.5-26.11-5.52-15.31-7.34-23.32-19.61-26.48-25.16-7.89 2.73-16.33 6.61-24.77 12.15-40.24 26.41-51.95 71.87-55.28 87.85l46.85 29.63-7.91 139.34h187.4l-7.91-139.34 46.86-29.63z" opacity=".39" fill="#fff"/><path d="M265.64 181.12s-30.42-82.1-48.68-92.33c-18.25-10.23-45.03-13.05-45.03-13.05-7.3 39.21-38.94 37.14-38.94 37.14-4.37-.11-12.93-.98-21.31-6.57C94.71 94.97 93.59 74.37 93.5 71.89 82 73.53 65.43 77.66 49.03 88.78 4.83 118.74.82 173.01.35 181.11l46.85 29.17-7.91 137.18h187.4l-7.91-137.18 46.86-29.16z" opacity=".71" fill="#fff"/><path class="st95" d="M237.97 94.01c-2.85-4.32-53.07-25.67-63.36-31.53-11.39-6.48-17.76-18.2-21.97-27.68-1-2.26-11.75-3.33-21.36-3.33s-20.36 1.07-21.36 3.33c-4.21 9.48-10.58 21.2-21.97 27.68-10.28 5.85-60.5 27.21-63.35 31.53-2.85 4.32-.81 16.29 3.46 15.48 4.27-.81 87.57-47.51 90.77-48.86 3.2-1.35 12.46-1.35 12.46-1.35s9.25 0 12.46 1.35c3.2 1.35 86.5 48.05 90.77 48.86 4.27.81 6.3-11.16 3.45-15.48z"/><path class="st95" d="M356.99 94.01c-2.85-4.32-53.07-25.67-63.36-31.53-11.39-6.48-17.76-18.2-21.97-27.68-1-2.26-11.75-3.33-21.36-3.33s-20.36 1.07-21.36 3.33c-4.21 9.48-10.58 21.2-21.97 27.68-3.59 2.04-12.05 5.98-21.67 10.41.07.13.19.32.34.56 3.15 4.82 9.47 5.85 11.2 6.13 11.06 1.79 20.68-14.13 40.99-18.95a50.6 50.6 0 0112.46-1.35s9.26 0 12.46 1.35c3.2 1.35 86.5 48.05 90.77 48.86 4.29.81 6.32-11.16 3.47-15.48z"/><path class="st95" d="M474.1 94.34c-2.85-4.32-53.07-25.67-63.36-31.53-11.39-6.48-17.76-18.2-21.97-27.68-1-2.26-11.75-3.33-21.36-3.33s-20.36 1.07-21.36 3.33c-4.21 9.48-10.58 21.2-21.97 27.68-3.83 2.18-13.22 6.52-23.62 11.32 4.96 2.12 8.8 5.68 13.08 9.49 20.49-11.26 39.89-22.03 41.41-22.67 3.2-1.35 12.46-1.35 12.46-1.35s9.25 0 12.46 1.35c3.2 1.35 86.5 48.05 90.77 48.86 4.27.82 6.3-11.15 3.46-15.47z"/><path d="M358.11 11.9c0-5.71 5.22-10.2 11.14-8.96 3.47.72 6.27 3.52 6.99 6.99a9.194 9.194 0 01-6.27 10.74c-1.63.5-2.69 2.07-2.69 3.77v7.31" fill="none" stroke="#fff" stroke-miterlimit="10"/></svg>