<svg version="1.1" id="Слой_1" xmlns="http://www.w3.org/2000/svg" x="0" y="0" viewBox="0 0 500 963" xml:space="preserve"><style>.st132{opacity:.62;fill:#fff}</style><path class="st132" d="M107.26 955.53c-2.54-2.71-3.95-5.26-4.76-7.03-1.2-2.62-.78-2.89-3-13-.64-2.92-.81-3.48-.46-4.28 1.66-3.84 10.92-3.04 13.83-3.05 33.91-.07 67.81-.02 101.72-.03 31.79-.01 31.36-.04 31.93-32.24.66-37.12-2.5-74.31 1.83-111.34 5.45-11.76 17.37-9.6 26.81-11.88 44.09-10.64 74.74-36.48 88.58-80.17 20.55-64.89-17.35-131.63-82.77-149.18-10.97-2.94-25.16 1.04-32.52-12.24-4.59-33.98-1.26-68.1-2.04-102.13-.6-26.05-.86-26.83-26.32-26.89-52.63-.12-105.25.07-157.88-.12-9.51-.03-19.58 1.56-27.59-5.96-2.2-25.57-2.2-25.56 23.12-25.56 138.48-.02 276.95-.05 415.43-.08.43.47.96 1.18 1.33 2.14.92 2.38.19 4.56-.07 5.23-14.84 126.73-29.65 253.46-44.55 380.18-6.81 57.93-14.01 115.81-20.45 173.77-1.08 9.69-4.15 17.38-11.18 23.71-6.56 7.25-15.44 6.28-23.76 6.3-81.13.21-162.27.21-243.4.01-8.33-.01-17.18.94-23.83-6.16z"/><path d="M274.8 293.14c-30.42-113.9-51.83-194.1-54.13-204.77-.36-1.68-1.57-7.65-6.3-12.85-2.52-2.77-5.81-4.93-10.25-6.72-47.26-19.04-94.56-38.05-141.06-58.83-16.08-7.19-17.05 2.66-20.79 12.27-3.53 9.07-11.4 17.08 5.33 23.48 41.27 15.79 81.64 33.9 122.61 50.48 5.47 2.21 9.67 4.69 12.81 8.37 4.1 4.82 5.22 10.05 5.59 11.67 2.54 11.06 20.81 80.95 45.89 177.26l40.3-.36z" opacity=".75" fill="#fff"/><path d="M35.31 394.55c67.51.1 135.03.57 202.53 0 14.26-.12 19.24 3.55 18.88 18.47-.97 40.48-.29 81-.27 121.51-5.67 7.1-14.44 6.27-21.94 7.89-57.98 12.54-95.39 58.17-95.24 116.85.15 56.65 38.97 103.41 95.31 115.1 7.66 1.59 16.05 1.79 21.83 8.46-.01 45.89-.52 91.78.28 137.65.24 14.04-4.51 17.68-17.94 17.42-42.81-.82-85.66.1-128.47-.96-1.58-.04-5.65-.56-7.74 1.84-1.69 1.94-1.4 4.91-1.04 6.72-.67-2.89-1.78-7.84-3-14-6.72-33.9-7.94-60.05-8.34-67.4-.91-16.82-1.34-8.28-20.97-172.77-5.36-44.9-10.55-89.82-15.67-134.75-6.15-54-12.15-108.02-18.21-162.03z" opacity=".41" fill="#fff"/><path class="st132" d="M495.58 370.36H6.04c-2.14 0-3.88-1.74-3.88-3.88v-31.7c0-2.14 1.74-3.88 3.88-3.88h489.55c2.14 0 3.88 1.74 3.88 3.88v31.7c0 2.14-1.74 3.88-3.89 3.88z"/><path class="st132" d="M474.66 332.58H17.88c-2.14 0-3.88-1.74-3.88-3.88V297c0-2.14 1.74-3.88 3.88-3.88h456.78c2.14 0 3.88 1.74 3.88 3.88v31.7a3.865 3.865 0 01-3.88 3.88z"/></svg>