<svg version="1.1" id="Слой_1" xmlns="http://www.w3.org/2000/svg" x="0" y="0" viewBox="0 0 500 556" xml:space="preserve"><style>.st507{opacity:.46;fill:#fff}</style><path class="st507" d="M19.53 555.16V293.98h191.45v261.18H19.53z"/><path d="M52.09 150.48c10.09-1.23 19.83-2.42 30.9-3.78-1.2-8.4-2.16-15.09-3.45-24.15 34.84 24.27 71.61 37.45 118.01 35.47-21.24-7.61-39.49-10.78-53.73-20.09-18.4-12.04-35.85-27.19-49.48-44.36-11.43-14.39-9.25-33.66 5.28-46.8 15.05-13.61 31.57-25.89 48.68-36.83 21.22-13.56 49.43-8.64 63.45 15.29 16.98 28.97 28.32 61.23 39.16 85.48 6.9-18.71 15.18-46.5 27.37-72.44 9.09-19.34 24.48-34.49 48.84-34.65 17.7-.12 76.08 40.21 82.04 56.75 6.54 18.15-1.55 44.19-23.85 58.9-23.59 15.57-50.15 26.65-73.99 38.95 37.94 1.74 74.07-11.65 108.82-35.89-1.29 8.11-2.35 14.8-3.86 24.31 10.6 1.28 20.23 2.45 29.66 3.59-45.75 39.3-333.21 39.83-393.85.25zm189.09 8.16c2.4-1.68 4.8-3.35 7.21-5.03-17.9-36.55-33.94-74.17-54.39-109.23-12.13-20.81-28.02-17.7-40.82 2.79-3.33 5.32-8.95 10.83-14.69 12.74-26.43 8.82-29.29 17.36-9.86 37.88 30.96 32.69 72 46.42 112.55 60.85zm10.86-5.19c2.32 2.07 4.63 4.14 6.95 6.22 19.01-8.03 39.01-14.34 56.77-24.55 20.55-11.82 40.95-25.15 58.04-41.38 17.18-16.32 12.47-26.37-10.27-33.29-5.98-1.82-12.68-5.89-16.05-10.94-16.27-24.35-31.09-26.12-45.8-.06-18.84 33.37-33.3 69.22-49.64 104z" opacity=".86" fill="#fff"/><path class="st507" d="M.44 190.82h210.44v83.97H.44v-83.97z"/><path d="M269.38 555.69h-38.77V191.77h38.77v363.92z" opacity=".87" fill="#fff"/><path class="st507" d="M288.94 191.53h210.44v83.97H288.94v-83.97zm.72 364.5V294.85h191.45v261.18H289.66z"/></svg>