<svg version="1.1" id="Слой_1" xmlns="http://www.w3.org/2000/svg" x="0" y="0" viewBox="0 0 500 375" xml:space="preserve"><style>.st129{opacity:.71;fill:#fff}</style><path d="M104.61 374.34H.23c-.23-3.93-.63-7.55-.63-11.16-.05-38.82-.28-77.64.25-116.46.07-5.25 2.75-11.82 6.48-15.44 31.65-30.69 63.76-60.91 95.99-91 2.48-2.32 7.87-4.62 10.24-3.47 19.55 9.47 38.72 19.75 59.18 30.4-20.27 20.98-39.32 41.21-59.01 60.79-6.16 6.13-8.34 12.41-8.26 20.89.36 37.31.15 74.62.14 111.94v13.51z" opacity=".93" fill="#fff"/><path class="st129" d="M379.71 270.06c-44.22-43.19-87.03-85.01-130.45-127.42-43.21 42.21-85.75 83.76-130.12 127.09-.81-17.58-3.82-31.49 10.51-44.72 37.95-35.05 74.22-71.9 111.18-108.02 2.65-2.59 5.42-5.06 8.58-8l99.9 97.58c6.21 6.06 11.77 13.04 18.76 17.99 16.4 11.63 12.94 27.54 11.64 45.5z"/><path class="st129" d="M256.1 297.57v-43.41h43.06c0 12.68.23 25.37-.25 38.03-.07 1.86-3.48 5.06-5.45 5.14-12.28.47-24.58.24-37.36.24z"/><path d="M199.25 297.39v-42.91c12.95 0 25.65-.23 38.32.27 1.73.07 4.66 3.75 4.74 5.84.46 11.98.22 23.99.22 36.8h-43.28zm43.01 12.83v42.32H200.6v-42.32h41.66z" opacity=".9" fill="#fff"/><path class="st129" d="M256.26 352.83v-42.3h41.99v42.3h-41.99zm139.13 21.67h104.38c.23-3.93.63-7.55.63-11.16.05-38.82.28-77.64-.25-116.46-.07-5.25-2.75-11.82-6.48-15.44-31.65-30.69-63.76-60.91-95.99-91-2.48-2.32-7.87-4.62-10.24-3.47-19.55 9.47-38.71 19.75-59.18 30.4 20.27 20.98 39.32 41.21 59.01 60.79 6.16 6.13 8.34 12.41 8.26 20.89-.36 37.31-.15 74.62-.14 111.94v13.51z"/></svg>