<svg version="1.1" id="Слой_1" xmlns="http://www.w3.org/2000/svg" x="0" y="0" viewBox="0 0 500 858" xml:space="preserve"><style>.st95{fill:#fff}</style><path class="st95" d="M107.74 284.17l290.09-195.8 91.21 72.25c-168.67 62.52-292.16 107.54-315.61 115.44-13.46 4.54-25.22 6.13-27.5 6.48-15.55 2.38-28.78 2.24-38.19 1.63z" opacity=".75"/><path d="M263.19 22.88L252 20.28c-64.39 85.8-128.77 171.61-193.16 257.41a190.86 190.86 0 0024.44 4.86c8.94 1.18 17.15 1.61 24.44 1.62 51.91-35.27 103.82-70.53 155.73-105.8.1-46.81-.34-108.68-.26-155.49z" opacity=".87" fill="#fff"/><path d="M153.59 276.76l339.47-128.55c3.17-1.11 6.44 1.4 6.44 4.94v557.32c0 4.33-2.53 8.2-6.36 9.72L155.17 854.35c-4.1.57-8.2 1.15-12.3 1.72" opacity=".65" fill="#fff"/><path opacity=".86" fill="#fff" d="M199.04 332.39l262.53-94.64v84.39l-262.53 97.01z"/><path d="M199.04 439.66l262.53-94.65v17.36l-262.53 97.01zM-.06 251.34L106.62 7.61c.72-1.65 2.47-2.48 4.11-1.94 1.42.47 3.14 1.04 4.66 1.54 1.97.65 2.95 2.98 2.1 4.97-35.34 82.01-70.67 164.04-106 246.06l-11.55-6.9z" opacity=".75" fill="#fff"/><path class="st95" d="M155.23 854.67c1.48-191.79 2.97-383.57 4.45-575.36-18.63 3.95-48.99 7.85-85.4.93-33.21-6.31-58.51-19.17-74.34-28.89v549.4c0 36.81 43.67 51.01 67.47 53.38 29.09 2.89 61.2 4.86 87.82.54z" opacity=".54"/></svg>